<?xml version="1.0" encoding="UTF-8" standalone="no"?>
<!DOCTYPE svg PUBLIC "-//W3C//DTD SVG 1.1//EN"
 "http://www.w3.org/Graphics/SVG/1.1/DTD/svg11.dtd">
<!-- Generated by graphviz version 2.40.1 (20161225.0304)
 -->
<!-- Title: alib.hpp Pages: 1 -->
<svg width="1073pt" height="364pt"
 viewBox="0.00 0.00 1072.50 364.00" xmlns="http://www.w3.org/2000/svg" xmlns:xlink="http://www.w3.org/1999/xlink">
<g id="graph0" class="graph" transform="scale(1 1) rotate(0) translate(4 360)">
<title>alib.hpp</title>
<polygon fill="#ffffff" stroke="transparent" points="-4,4 -4,-360 1068.5,-360 1068.5,4 -4,4"/>
<!-- Node56 -->
<g id="node1" class="node">
<title>Node56</title>
<polygon fill="#bfbfbf" stroke="#000000" points="572.5,-336.5 572.5,-355.5 622.5,-355.5 622.5,-336.5 572.5,-336.5"/>
<text text-anchor="middle" x="597.5" y="-343.5" font-family="Helvetica,sans-Serif" font-size="10.00" fill="#000000">alib.hpp</text>
</g>
<!-- Node57 -->
<g id="node2" class="node">
<title>Node57</title>
<g id="a_node2"><a xlink:href="alox_2alox_8hpp.html" target="_top" xlink:title="alox.hpp">
<polygon fill="#ffffff" stroke="#000000" points="534,-280.5 534,-299.5 587,-299.5 587,-280.5 534,-280.5"/>
<text text-anchor="middle" x="560.5" y="-287.5" font-family="Helvetica,sans-Serif" font-size="10.00" fill="#000000">alox.hpp</text>
</a>
</g>
</g>
<!-- Node56&#45;&gt;Node57 -->
<g id="edge1" class="edge">
<title>Node56&#45;&gt;Node57</title>
<path fill="none" stroke="#191970" d="M585.3624,-327.6296C579.1907,-318.2887 571.9434,-307.3197 566.8711,-299.6427"/>
<polygon fill="#191970" stroke="#191970" points="582.6223,-329.8316 591.0551,-336.2455 588.4627,-325.9728 582.6223,-329.8316"/>
</g>
<!-- Node75 -->
<g id="node3" class="node">
<title>Node75</title>
<g id="a_node3"><a xlink:href="owner_8hpp.html" target="_top" xlink:title="owner.hpp">
<polygon fill="#ffffff" stroke="#000000" points="785,-280.5 785,-299.5 846,-299.5 846,-280.5 785,-280.5"/>
<text text-anchor="middle" x="815.5" y="-287.5" font-family="Helvetica,sans-Serif" font-size="10.00" fill="#000000">owner.hpp</text>
</a>
</g>
</g>
<!-- Node56&#45;&gt;Node75 -->
<g id="edge2" class="edge">
<title>Node56&#45;&gt;Node75</title>
<path fill="none" stroke="#191970" d="M632.3212,-337.0551C674.4469,-326.2338 744.6977,-308.1878 784.8543,-297.8723"/>
<polygon fill="#191970" stroke="#191970" points="631.3221,-333.698 622.5074,-339.5761 633.0638,-340.4779 631.3221,-333.698"/>
</g>
<!-- Node58 -->
<g id="node4" class="node">
<title>Node58</title>
<g id="a_node4"><a xlink:href="log_8hpp.html" target="_top" xlink:title="log.hpp">
<polygon fill="#ffffff" stroke="#000000" points="830.5,-224.5 830.5,-243.5 878.5,-243.5 878.5,-224.5 830.5,-224.5"/>
<text text-anchor="middle" x="854.5" y="-231.5" font-family="Helvetica,sans-Serif" font-size="10.00" fill="#000000">log.hpp</text>
</a>
</g>
</g>
<!-- Node57&#45;&gt;Node58 -->
<g id="edge3" class="edge">
<title>Node57&#45;&gt;Node58</title>
<path fill="none" stroke="#191970" d="M597.0271,-284.0518C646.379,-276.4736 736.4579,-262.1535 812.5,-244 818.2064,-242.6377 824.3798,-240.853 830.3313,-239.1689"/>
<polygon fill="#191970" stroke="#191970" points="596.4894,-280.5932 587.1338,-285.5655 597.5482,-287.5127 596.4894,-280.5932"/>
</g>
<!-- Node59 -->
<g id="node5" class="node">
<title>Node59</title>
<g id="a_node5"><a xlink:href="lox_8hpp.html" target="_top" xlink:title="lox.hpp">
<polygon fill="#ffffff" stroke="#000000" points="126.5,-168.5 126.5,-187.5 174.5,-187.5 174.5,-168.5 126.5,-168.5"/>
<text text-anchor="middle" x="150.5" y="-175.5" font-family="Helvetica,sans-Serif" font-size="10.00" fill="#000000">lox.hpp</text>
</a>
</g>
</g>
<!-- Node57&#45;&gt;Node59 -->
<g id="edge4" class="edge">
<title>Node57&#45;&gt;Node59</title>
<path fill="none" stroke="#191970" d="M523.7825,-288.8605C424.8175,-285.2534 159.1183,-272.5922 133.5,-244 119.6359,-228.5265 129.2233,-202.1832 139.2662,-187.9056"/>
<polygon fill="#191970" stroke="#191970" points="523.7992,-292.3632 533.9168,-289.2191 524.0468,-285.3676 523.7992,-292.3632"/>
</g>
<!-- Node60 -->
<g id="node6" class="node">
<title>Node60</title>
<g id="a_node6"><a xlink:href="domain_8hpp.html" target="_top" xlink:title="domain.hpp">
<polygon fill="#ffffff" stroke="#000000" points="152,-224.5 152,-243.5 219,-243.5 219,-224.5 152,-224.5"/>
<text text-anchor="middle" x="185.5" y="-231.5" font-family="Helvetica,sans-Serif" font-size="10.00" fill="#000000">domain.hpp</text>
</a>
</g>
</g>
<!-- Node57&#45;&gt;Node60 -->
<g id="edge5" class="edge">
<title>Node57&#45;&gt;Node60</title>
<path fill="none" stroke="#191970" d="M523.5789,-286.0788C461.945,-279.2696 334.3199,-264.0462 227.5,-244 224.8479,-243.5023 222.1112,-242.9468 219.366,-242.3597"/>
<polygon fill="#191970" stroke="#191970" points="523.2748,-289.5663 533.5963,-287.1753 524.0366,-282.6079 523.2748,-289.5663"/>
</g>
<!-- Node61 -->
<g id="node7" class="node">
<title>Node61</title>
<g id="a_node7"><a xlink:href="logger_8hpp.html" target="_top" xlink:title="logger.hpp">
<polygon fill="#ffffff" stroke="#000000" points="338,-224.5 338,-243.5 399,-243.5 399,-224.5 338,-224.5"/>
<text text-anchor="middle" x="368.5" y="-231.5" font-family="Helvetica,sans-Serif" font-size="10.00" fill="#000000">logger.hpp</text>
</a>
</g>
</g>
<!-- Node57&#45;&gt;Node61 -->
<g id="edge6" class="edge">
<title>Node57&#45;&gt;Node61</title>
<path fill="none" stroke="#191970" d="M524.1298,-279.392C487.9585,-268.8421 433.0878,-252.8381 399.0888,-242.9217"/>
<polygon fill="#191970" stroke="#191970" points="523.2232,-282.7734 533.8032,-282.2134 525.1832,-276.0534 523.2232,-282.7734"/>
</g>
<!-- Node62 -->
<g id="node8" class="node">
<title>Node62</title>
<g id="a_node8"><a xlink:href="textlogger_8hpp.html" target="_top" xlink:title="textlogger.hpp">
<polygon fill="#ffffff" stroke="#000000" points="436,-168.5 436,-187.5 513,-187.5 513,-168.5 436,-168.5"/>
<text text-anchor="middle" x="474.5" y="-175.5" font-family="Helvetica,sans-Serif" font-size="10.00" fill="#000000">textlogger.hpp</text>
</a>
</g>
</g>
<!-- Node57&#45;&gt;Node62 -->
<g id="edge7" class="edge">
<title>Node57&#45;&gt;Node62</title>
<path fill="none" stroke="#191970" d="M546.8407,-272.2111C528.4027,-248.1989 496.2057,-206.2679 481.8138,-187.5249"/>
<polygon fill="#191970" stroke="#191970" points="544.3014,-274.651 553.1677,-280.4509 549.8534,-270.3878 544.3014,-274.651"/>
</g>
<!-- Node63 -->
<g id="node9" class="node">
<title>Node63</title>
<g id="a_node9"><a xlink:href="plaintextlogger_8hpp.html" target="_top" xlink:title="plaintextlogger.hpp">
<polygon fill="#ffffff" stroke="#000000" points="645.5,-112.5 645.5,-131.5 743.5,-131.5 743.5,-112.5 645.5,-112.5"/>
<text text-anchor="middle" x="694.5" y="-119.5" font-family="Helvetica,sans-Serif" font-size="10.00" fill="#000000">plaintextlogger.hpp</text>
</a>
</g>
</g>
<!-- Node57&#45;&gt;Node63 -->
<g id="edge8" class="edge">
<title>Node57&#45;&gt;Node63</title>
<path fill="none" stroke="#191970" d="M590.0717,-275.4675C603.9181,-267.584 619.8799,-256.8213 631.5,-244 663.6765,-208.4973 684.1635,-153.5356 691.4813,-131.5579"/>
<polygon fill="#191970" stroke="#191970" points="588.0148,-272.602 580.903,-280.4552 591.3599,-278.751 588.0148,-272.602"/>
</g>
<!-- Node64 -->
<g id="node10" class="node">
<title>Node64</title>
<g id="a_node10"><a xlink:href="consolelogger_8hpp.html" target="_top" xlink:title="consolelogger.hpp">
<polygon fill="#ffffff" stroke="#000000" points="789,-56.5 789,-75.5 884,-75.5 884,-56.5 789,-56.5"/>
<text text-anchor="middle" x="836.5" y="-63.5" font-family="Helvetica,sans-Serif" font-size="10.00" fill="#000000">consolelogger.hpp</text>
</a>
</g>
</g>
<!-- Node57&#45;&gt;Node64 -->
<g id="edge9" class="edge">
<title>Node57&#45;&gt;Node64</title>
<path fill="none" stroke="#191970" d="M597.1593,-288.0728C685.231,-283.0694 903.0471,-268.3346 924.5,-244 972.6014,-189.4372 881.629,-103.8959 848.1603,-75.5087"/>
<polygon fill="#191970" stroke="#191970" points="596.8735,-284.5832 587.084,-288.6347 597.2634,-291.5723 596.8735,-284.5832"/>
</g>
<!-- Node65 -->
<g id="node11" class="node">
<title>Node65</title>
<g id="a_node11"><a xlink:href="alox_8hpp_source.html" target="_top" xlink:title="alox.hpp">
<polygon fill="#ffffff" stroke="#000000" points="698,-.5 698,-19.5 751,-19.5 751,-.5 698,-.5"/>
<text text-anchor="middle" x="724.5" y="-7.5" font-family="Helvetica,sans-Serif" font-size="10.00" fill="#000000">alox.hpp</text>
</a>
</g>
</g>
<!-- Node57&#45;&gt;Node65 -->
<g id="edge10" class="edge">
<title>Node57&#45;&gt;Node65</title>
<path fill="none" stroke="#191970" d="M597.5256,-287.4399C679.0316,-281.4347 868.2875,-265.3234 887.5,-244 943.4586,-181.8931 944.2601,-122.4233 893.5,-56 876.2829,-33.4702 794.4575,-19.3532 751.2977,-13.3487"/>
<polygon fill="#191970" stroke="#191970" points="596.9446,-283.9728 587.224,-288.1872 597.4511,-290.9545 596.9446,-283.9728"/>
</g>
<!-- Node66 -->
<g id="node12" class="node">
<title>Node66</title>
<g id="a_node12"><a xlink:href="memorylogger_8hpp.html" target="_top" xlink:title="memorylogger.hpp">
<polygon fill="#ffffff" stroke="#000000" points="456.5,-56.5 456.5,-75.5 552.5,-75.5 552.5,-56.5 456.5,-56.5"/>
<text text-anchor="middle" x="504.5" y="-63.5" font-family="Helvetica,sans-Serif" font-size="10.00" fill="#000000">memorylogger.hpp</text>
</a>
</g>
</g>
<!-- Node57&#45;&gt;Node66 -->
<g id="edge11" class="edge">
<title>Node57&#45;&gt;Node66</title>
<path fill="none" stroke="#191970" d="M565.7192,-270.4549C573.7299,-236.352 585.6518,-164.6008 560.5,-112 552.7929,-95.8818 536.4059,-83.4916 523.3395,-75.6528"/>
<polygon fill="#191970" stroke="#191970" points="562.2392,-269.9447 563.2117,-280.4948 569.0306,-271.641 562.2392,-269.9447"/>
</g>
<!-- Node67 -->
<g id="node13" class="node">
<title>Node67</title>
<g id="a_node13"><a xlink:href="textfilelogger_8hpp.html" target="_top" xlink:title="textfilelogger.hpp">
<polygon fill="#ffffff" stroke="#000000" points="570.5,-56.5 570.5,-75.5 660.5,-75.5 660.5,-56.5 570.5,-56.5"/>
<text text-anchor="middle" x="615.5" y="-63.5" font-family="Helvetica,sans-Serif" font-size="10.00" fill="#000000">textfilelogger.hpp</text>
</a>
</g>
</g>
<!-- Node57&#45;&gt;Node67 -->
<g id="edge12" class="edge">
<title>Node57&#45;&gt;Node67</title>
<path fill="none" stroke="#191970" d="M576.3377,-272.3604C582.7205,-264.2713 589.5057,-254.2182 593.5,-244 617.1932,-183.388 616.8633,-103.1036 615.9435,-75.6672"/>
<polygon fill="#191970" stroke="#191970" points="573.4454,-270.3635 569.7208,-280.2821 578.8177,-274.851 573.4454,-270.3635"/>
</g>
<!-- Node68 -->
<g id="node14" class="node">
<title>Node68</title>
<g id="a_node14"><a xlink:href="vstudiologger_8hpp.html" target="_top" xlink:title="vstudiologger.hpp">
<polygon fill="#ffffff" stroke="#000000" points="678.5,-56.5 678.5,-75.5 770.5,-75.5 770.5,-56.5 678.5,-56.5"/>
<text text-anchor="middle" x="724.5" y="-63.5" font-family="Helvetica,sans-Serif" font-size="10.00" fill="#000000">vstudiologger.hpp</text>
</a>
</g>
</g>
<!-- Node57&#45;&gt;Node68 -->
<g id="edge13" class="edge">
<title>Node57&#45;&gt;Node68</title>
<path fill="none" stroke="#191970" d="M595.3547,-276.3283C613.3654,-268.3629 635.1446,-257.2704 652.5,-244 705.5111,-203.4665 728.7158,-194.3494 752.5,-132 760.219,-111.7648 744.5097,-88.5465 733.6539,-75.7484"/>
<polygon fill="#191970" stroke="#191970" points="593.6027,-273.2711 585.7885,-280.4258 596.3588,-279.7057 593.6027,-273.2711"/>
</g>
<!-- Node69 -->
<g id="node15" class="node">
<title>Node69</title>
<g id="a_node15"><a xlink:href="ansilogger_8hpp.html" target="_top" xlink:title="ansilogger.hpp">
<polygon fill="#ffffff" stroke="#000000" points="321,-112.5 321,-131.5 400,-131.5 400,-112.5 321,-112.5"/>
<text text-anchor="middle" x="360.5" y="-119.5" font-family="Helvetica,sans-Serif" font-size="10.00" fill="#000000">ansilogger.hpp</text>
</a>
</g>
</g>
<!-- Node57&#45;&gt;Node69 -->
<g id="edge14" class="edge">
<title>Node57&#45;&gt;Node69</title>
<path fill="none" stroke="#191970" d="M538.3029,-274.5103C511.128,-255.2327 464.0866,-220.8341 426.5,-188 405.0212,-169.237 381.8804,-145.0778 369.515,-131.8106"/>
<polygon fill="#191970" stroke="#191970" points="536.5257,-277.5398 546.7147,-280.4441 540.5607,-271.8197 536.5257,-277.5398"/>
</g>
<!-- Node70 -->
<g id="node16" class="node">
<title>Node70</title>
<g id="a_node16"><a xlink:href="windowsconsolelogger_8hpp.html" target="_top" xlink:title="windowsconsolelogger.hpp">
<polygon fill="#ffffff" stroke="#000000" points="418,-112.5 418,-131.5 551,-131.5 551,-112.5 418,-112.5"/>
<text text-anchor="middle" x="484.5" y="-119.5" font-family="Helvetica,sans-Serif" font-size="10.00" fill="#000000">windowsconsolelogger.hpp</text>
</a>
</g>
</g>
<!-- Node57&#45;&gt;Node70 -->
<g id="edge15" class="edge">
<title>Node57&#45;&gt;Node70</title>
<path fill="none" stroke="#191970" d="M556.8301,-270.3001C551.6475,-245.3821 540.7262,-201.6663 522.5,-168 515.004,-154.1538 503.013,-140.5331 494.5075,-131.7515"/>
<polygon fill="#191970" stroke="#191970" points="553.4387,-271.1921 558.8132,-280.3226 560.3056,-269.8334 553.4387,-271.1921"/>
</g>
<!-- Node71 -->
<g id="node17" class="node">
<title>Node71</title>
<g id="a_node17"><a xlink:href="scopedump_8hpp.html" target="_top" xlink:title="scopedump.hpp">
<polygon fill="#ffffff" stroke="#000000" points="264.5,-168.5 264.5,-187.5 350.5,-187.5 350.5,-168.5 264.5,-168.5"/>
<text text-anchor="middle" x="307.5" y="-175.5" font-family="Helvetica,sans-Serif" font-size="10.00" fill="#000000">scopedump.hpp</text>
</a>
</g>
</g>
<!-- Node57&#45;&gt;Node71 -->
<g id="edge16" class="edge">
<title>Node57&#45;&gt;Node71</title>
<path fill="none" stroke="#191970" d="M527.6115,-276.4265C505.9245,-267.4007 476.9328,-255.1918 451.5,-244 439.4807,-238.7108 365.238,-204.5748 328.3115,-187.5811"/>
<polygon fill="#191970" stroke="#191970" points="526.4451,-279.7318 537.0228,-280.3343 529.1296,-273.267 526.4451,-279.7318"/>
</g>
<!-- Node72 -->
<g id="node18" class="node">
<title>Node72</title>
<g id="a_node18"><a xlink:href="scopestore_8hpp.html" target="_top" xlink:title="scopestore.hpp">
<polygon fill="#ffffff" stroke="#000000" points="237,-224.5 237,-243.5 320,-243.5 320,-224.5 237,-224.5"/>
<text text-anchor="middle" x="278.5" y="-231.5" font-family="Helvetica,sans-Serif" font-size="10.00" fill="#000000">scopestore.hpp</text>
</a>
</g>
</g>
<!-- Node57&#45;&gt;Node72 -->
<g id="edge17" class="edge">
<title>Node57&#45;&gt;Node72</title>
<path fill="none" stroke="#191970" d="M523.6638,-282.7159C477.9011,-273.662 397.4309,-257.7267 328.5,-244 325.8086,-243.464 323.0358,-242.9112 320.2408,-242.3535"/>
<polygon fill="#191970" stroke="#191970" points="523.2151,-286.1948 533.7043,-284.702 524.5736,-279.3279 523.2151,-286.1948"/>
</g>
<!-- Node73 -->
<g id="node19" class="node">
<title>Node73</title>
<g id="a_node19"><a xlink:href="scopeinfo_8hpp.html" target="_top" xlink:title="scopeinfo.hpp">
<polygon fill="#ffffff" stroke="#000000" points="0,-224.5 0,-243.5 77,-243.5 77,-224.5 0,-224.5"/>
<text text-anchor="middle" x="38.5" y="-231.5" font-family="Helvetica,sans-Serif" font-size="10.00" fill="#000000">scopeinfo.hpp</text>
</a>
</g>
</g>
<!-- Node57&#45;&gt;Node73 -->
<g id="edge18" class="edge">
<title>Node57&#45;&gt;Node73</title>
<path fill="none" stroke="#191970" d="M523.5212,-287.4944C444.139,-281.8697 251.6169,-266.9115 91.5,-244 86.8653,-243.3368 82.0193,-242.5512 77.2213,-241.7163"/>
<polygon fill="#191970" stroke="#191970" points="523.736,-291.0179 533.9563,-288.226 524.2256,-284.0351 523.736,-291.0179"/>
</g>
<!-- Node74 -->
<g id="node20" class="node">
<title>Node74</title>
<g id="a_node20"><a xlink:href="logtools_8hpp.html" target="_top" xlink:title="logtools.hpp">
<polygon fill="#ffffff" stroke="#000000" points="743,-224.5 743,-243.5 812,-243.5 812,-224.5 743,-224.5"/>
<text text-anchor="middle" x="777.5" y="-231.5" font-family="Helvetica,sans-Serif" font-size="10.00" fill="#000000">logtools.hpp</text>
</a>
</g>
</g>
<!-- Node57&#45;&gt;Node74 -->
<g id="edge19" class="edge">
<title>Node57&#45;&gt;Node74</title>
<path fill="none" stroke="#191970" d="M596.8787,-280.6119C637.5192,-270.1241 702.834,-253.2687 742.7856,-242.9586"/>
<polygon fill="#191970" stroke="#191970" points="595.9166,-277.2455 587.1085,-283.1333 597.6658,-284.0234 595.9166,-277.2455"/>
</g>
<!-- Node76 -->
<g id="node21" class="node">
<title>Node76</title>
<g id="a_node21"><a xlink:href="threadlocknr_8hpp.html" target="_top" xlink:title="threadlocknr.hpp">
<polygon fill="#ffffff" stroke="#000000" points="976.5,-224.5 976.5,-243.5 1064.5,-243.5 1064.5,-224.5 976.5,-224.5"/>
<text text-anchor="middle" x="1020.5" y="-231.5" font-family="Helvetica,sans-Serif" font-size="10.00" fill="#000000">threadlocknr.hpp</text>
</a>
</g>
</g>
<!-- Node75&#45;&gt;Node76 -->
<g id="edge39" class="edge">
<title>Node75&#45;&gt;Node76</title>
<path fill="none" stroke="#191970" d="M855.8592,-278.9751C893.6427,-268.6537 949.5206,-253.3895 985.4722,-243.5686"/>
<polygon fill="#191970" stroke="#191970" points="854.9148,-275.6047 846.1906,-281.6162 856.7595,-282.3573 854.9148,-275.6047"/>
</g>
<!-- Node58&#45;&gt;Node57 -->
<g id="edge20" class="edge">
<title>Node58&#45;&gt;Node57</title>
<path fill="none" stroke="#191970" d="M822.4978,-245.865C735.1698,-266.0727 634.6157,-281.007 587.2966,-287.0548"/>
<polygon fill="#191970" stroke="#191970" points="823.3259,-249.2658 832.2596,-243.5703 821.724,-242.4515 823.3259,-249.2658"/>
</g>
<!-- Node59&#45;&gt;Node57 -->
<g id="edge21" class="edge">
<title>Node59&#45;&gt;Node57</title>
<path fill="none" stroke="#191970" d="M148.2292,-197.9073C144.296,-212.4367 140.4521,-231.6696 151.5,-244 177.321,-272.8184 447.0366,-285.4527 533.8773,-288.9444"/>
<polygon fill="#191970" stroke="#191970" points="151.7033,-198.4777 151.0092,-187.9056 144.959,-196.6031 151.7033,-198.4777"/>
</g>
<!-- Node60&#45;&gt;Node59 -->
<g id="edge22" class="edge">
<title>Node60&#45;&gt;Node59</title>
<path fill="none" stroke="#191970" d="M174.0185,-215.6296C168.1804,-206.2887 161.3248,-195.3197 156.5267,-187.6427"/>
<polygon fill="#191970" stroke="#191970" points="171.1354,-217.6206 179.4035,-224.2455 177.0714,-213.9105 171.1354,-217.6206"/>
</g>
<!-- Node61&#45;&gt;Node59 -->
<g id="edge23" class="edge">
<title>Node61&#45;&gt;Node59</title>
<path fill="none" stroke="#191970" d="M327.9923,-223.5943C282.9856,-212.033 211.7868,-193.7434 174.7259,-184.2232"/>
<polygon fill="#191970" stroke="#191970" points="327.1719,-226.9972 337.7283,-226.0953 328.9136,-220.2173 327.1719,-226.9972"/>
</g>
<!-- Node61&#45;&gt;Node62 -->
<g id="edge24" class="edge">
<title>Node61&#45;&gt;Node62</title>
<path fill="none" stroke="#191970" d="M396.0222,-219.46C414.9908,-209.4388 439.6727,-196.3993 456.2478,-187.6427"/>
<polygon fill="#191970" stroke="#191970" points="394.1708,-216.4796 386.9638,-224.2455 397.4407,-222.669 394.1708,-216.4796"/>
</g>
<!-- Node62&#45;&gt;Node63 -->
<g id="edge25" class="edge">
<title>Node62&#45;&gt;Node63</title>
<path fill="none" stroke="#191970" d="M522.2278,-165.8511C562.7112,-155.5462 619.976,-140.9697 657.1742,-131.5011"/>
<polygon fill="#191970" stroke="#191970" points="521.1469,-162.5145 512.3193,-168.3733 522.8737,-169.2982 521.1469,-162.5145"/>
</g>
<!-- Node62&#45;&gt;Node69 -->
<g id="edge26" class="edge">
<title>Node62&#45;&gt;Node69</title>
<path fill="none" stroke="#191970" d="M445.6679,-163.8368C425.0605,-153.7139 397.8918,-140.3679 379.8416,-131.5011"/>
<polygon fill="#191970" stroke="#191970" points="444.384,-167.1056 454.9027,-168.3733 447.4703,-160.8227 444.384,-167.1056"/>
</g>
<!-- Node62&#45;&gt;Node70 -->
<g id="edge27" class="edge">
<title>Node62&#45;&gt;Node70</title>
<path fill="none" stroke="#191970" d="M478.0433,-158.1575C479.6509,-149.155 481.4786,-138.9199 482.7781,-131.6427"/>
<polygon fill="#191970" stroke="#191970" points="474.5544,-157.786 476.2419,-168.2455 481.4454,-159.0166 474.5544,-157.786"/>
</g>
<!-- Node63&#45;&gt;Node64 -->
<g id="edge28" class="edge">
<title>Node63&#45;&gt;Node64</title>
<path fill="none" stroke="#191970" d="M728.3415,-108.6541C754.2366,-98.4419 789.3138,-84.6086 812.4079,-75.5011"/>
<polygon fill="#191970" stroke="#191970" points="726.9293,-105.4486 718.9107,-112.3733 729.4975,-111.9605 726.9293,-105.4486"/>
</g>
<!-- Node63&#45;&gt;Node66 -->
<g id="edge29" class="edge">
<title>Node63&#45;&gt;Node66</title>
<path fill="none" stroke="#191970" d="M651.9403,-109.4561C617.0631,-99.1765 568.4532,-84.8494 536.736,-75.5011"/>
<polygon fill="#191970" stroke="#191970" points="651.2563,-112.9033 661.8378,-112.3733 653.2353,-106.1888 651.2563,-112.9033"/>
</g>
<!-- Node63&#45;&gt;Node67 -->
<g id="edge30" class="edge">
<title>Node63&#45;&gt;Node67</title>
<path fill="none" stroke="#191970" d="M672.2244,-106.2097C658.3495,-96.3743 640.9485,-84.0394 629.1031,-75.6427"/>
<polygon fill="#191970" stroke="#191970" points="670.5569,-109.3178 680.7393,-112.2455 674.6051,-103.6071 670.5569,-109.3178"/>
</g>
<!-- Node63&#45;&gt;Node68 -->
<g id="edge31" class="edge">
<title>Node63&#45;&gt;Node68</title>
<path fill="none" stroke="#191970" d="M704.498,-103.3372C709.4676,-94.0605 715.2644,-83.2398 719.3343,-75.6427"/>
<polygon fill="#191970" stroke="#191970" points="701.3627,-101.7779 699.7256,-112.2455 707.5331,-105.0835 701.3627,-101.7779"/>
</g>
<!-- Node64&#45;&gt;Node65 -->
<g id="edge32" class="edge">
<title>Node64&#45;&gt;Node65</title>
<path fill="none" stroke="#191970" d="M808.1737,-51.8368C787.9279,-41.7139 761.2358,-28.3679 743.5022,-19.5011"/>
<polygon fill="#191970" stroke="#191970" points="806.737,-55.0316 817.2465,-56.3733 809.8675,-48.7706 806.737,-55.0316"/>
</g>
<!-- Node68&#45;&gt;Node65 -->
<g id="edge33" class="edge">
<title>Node68&#45;&gt;Node65</title>
<path fill="none" stroke="#191970" d="M724.5,-46.1575C724.5,-37.155 724.5,-26.9199 724.5,-19.6427"/>
<polygon fill="#191970" stroke="#191970" points="721.0001,-46.2455 724.5,-56.2455 728.0001,-46.2456 721.0001,-46.2455"/>
</g>
<!-- Node69&#45;&gt;Node65 -->
<g id="edge34" class="edge">
<title>Node69&#45;&gt;Node65</title>
<path fill="none" stroke="#191970" d="M375.9231,-104.6508C390.6576,-89.263 414.3,-67.4964 439.5,-56 485.5545,-34.9896 636.3759,-18.4958 697.9544,-12.4722"/>
<polygon fill="#191970" stroke="#191970" points="373.3114,-102.3198 369.0688,-112.0281 378.4396,-107.0844 373.3114,-102.3198"/>
</g>
<!-- Node70&#45;&gt;Node65 -->
<g id="edge35" class="edge">
<title>Node70&#45;&gt;Node65</title>
<path fill="none" stroke="#191970" d="M464.6276,-105.5965C449.9685,-91.5297 434.6253,-71.189 447.5,-56 463.6545,-36.9416 631.563,-18.9089 697.8229,-12.4804"/>
<polygon fill="#191970" stroke="#191970" points="462.309,-108.2186 472.0778,-112.32 466.9989,-103.0219 462.309,-108.2186"/>
</g>
<!-- Node72&#45;&gt;Node59 -->
<g id="edge36" class="edge">
<title>Node72&#45;&gt;Node59</title>
<path fill="none" stroke="#191970" d="M247.0652,-220.2473C223.8191,-210.0771 192.7589,-196.4883 172.2169,-187.5011"/>
<polygon fill="#191970" stroke="#191970" points="245.9315,-223.5716 256.496,-224.3733 248.7373,-217.1585 245.9315,-223.5716"/>
</g>
<!-- Node72&#45;&gt;Node71 -->
<g id="edge37" class="edge">
<title>Node72&#45;&gt;Node71</title>
<path fill="none" stroke="#191970" d="M288.1647,-215.3372C292.9687,-206.0605 298.5723,-195.2398 302.5065,-187.6427"/>
<polygon fill="#191970" stroke="#191970" points="285.042,-213.7561 283.5514,-224.2455 291.258,-216.9751 285.042,-213.7561"/>
</g>
<!-- Node73&#45;&gt;Node59 -->
<g id="edge38" class="edge">
<title>Node73&#45;&gt;Node59</title>
<path fill="none" stroke="#191970" d="M66.8263,-219.8368C87.0721,-209.7139 113.7642,-196.3679 131.4978,-187.5011"/>
<polygon fill="#191970" stroke="#191970" points="65.1325,-216.7706 57.7535,-224.3733 68.263,-223.0316 65.1325,-216.7706"/>
</g>
<!-- Node77 -->
<g id="node22" class="node">
<title>Node77</title>
<g id="a_node22"><a xlink:href="threadlock_8hpp.html" target="_top" xlink:title="threadlock.hpp">
<polygon fill="#ffffff" stroke="#ff0000" points="980.5,-168.5 980.5,-187.5 1060.5,-187.5 1060.5,-168.5 980.5,-168.5"/>
<text text-anchor="middle" x="1020.5" y="-175.5" font-family="Helvetica,sans-Serif" font-size="10.00" fill="#000000">threadlock.hpp</text>
</a>
</g>
</g>
<!-- Node76&#45;&gt;Node77 -->
<g id="edge40" class="edge">
<title>Node76&#45;&gt;Node77</title>
<path fill="none" stroke="#191970" d="M1020.5,-214.1575C1020.5,-205.155 1020.5,-194.9199 1020.5,-187.6427"/>
<polygon fill="#191970" stroke="#191970" points="1017.0001,-214.2455 1020.5,-224.2455 1024.0001,-214.2456 1017.0001,-214.2455"/>
</g>
</g>
</svg>
