<?xml version="1.0" encoding="UTF-8" standalone="no"?>
<!DOCTYPE svg PUBLIC "-//W3C//DTD SVG 1.1//EN"
 "http://www.w3.org/Graphics/SVG/1.1/DTD/svg11.dtd">
<!-- Generated by graphviz version 2.40.1 (20161225.0304)
 -->
<!-- Title: alib.hpp Pages: 1 -->
<svg width="2965pt" height="196pt"
 viewBox="0.00 0.00 2965.00 196.00" xmlns="http://www.w3.org/2000/svg" xmlns:xlink="http://www.w3.org/1999/xlink">
<g id="graph0" class="graph" transform="scale(1 1) rotate(0) translate(4 192)">
<title>alib.hpp</title>
<polygon fill="#ffffff" stroke="transparent" points="-4,4 -4,-192 2961,-192 2961,4 -4,4"/>
<!-- Node0 -->
<g id="node1" class="node">
<title>Node0</title>
<polygon fill="#bfbfbf" stroke="#000000" points="1229,-168.5 1229,-187.5 1279,-187.5 1279,-168.5 1229,-168.5"/>
<text text-anchor="middle" x="1254" y="-175.5" font-family="Helvetica,sans-Serif" font-size="10.00" fill="#000000">alib.hpp</text>
</g>
<!-- Node1 -->
<g id="node2" class="node">
<title>Node1</title>
<polygon fill="#ffffff" stroke="#bfbfbf" points="0,-112.5 0,-131.5 52,-131.5 52,-112.5 0,-112.5"/>
<text text-anchor="middle" x="26" y="-119.5" font-family="Helvetica,sans-Serif" font-size="10.00" fill="#000000">assert.h</text>
</g>
<!-- Node0&#45;&gt;Node1 -->
<g id="edge1" class="edge">
<title>Node0&#45;&gt;Node1</title>
<path fill="none" stroke="#191970" d="M1228.8536,-177.8501C1080.5233,-176.8441 317.8882,-169.9522 62.1948,-131.7688"/>
<polygon fill="#191970" stroke="#191970" points="62.6393,-128.296 52.221,-130.2216 61.5662,-135.2132 62.6393,-128.296"/>
</g>
<!-- Node2 -->
<g id="node3" class="node">
<title>Node2</title>
<polygon fill="#ffffff" stroke="#bfbfbf" points="70.5,-112.5 70.5,-131.5 115.5,-131.5 115.5,-112.5 70.5,-112.5"/>
<text text-anchor="middle" x="93" y="-119.5" font-family="Helvetica,sans-Serif" font-size="10.00" fill="#000000">iosfwd</text>
</g>
<!-- Node0&#45;&gt;Node2 -->
<g id="edge2" class="edge">
<title>Node0&#45;&gt;Node2</title>
<path fill="none" stroke="#191970" d="M1228.7838,-177.8693C1085.1269,-176.9913 368.2281,-170.7888 125.6988,-131.5601"/>
<polygon fill="#191970" stroke="#191970" points="125.9874,-128.0595 115.5448,-129.8492 124.8242,-134.9622 125.9874,-128.0595"/>
</g>
<!-- Node3 -->
<g id="node4" class="node">
<title>Node3</title>
<polygon fill="#ffffff" stroke="#bfbfbf" points="134,-112.5 134,-131.5 180,-131.5 180,-112.5 134,-112.5"/>
<text text-anchor="middle" x="157" y="-119.5" font-family="Helvetica,sans-Serif" font-size="10.00" fill="#000000">cstdint</text>
</g>
<!-- Node0&#45;&gt;Node3 -->
<g id="edge3" class="edge">
<title>Node0&#45;&gt;Node3</title>
<path fill="none" stroke="#191970" d="M1228.8515,-177.7986C1090.2934,-176.5573 418.2929,-168.7938 190.1243,-131.7049"/>
<polygon fill="#191970" stroke="#191970" points="190.69,-128.251 180.2458,-130.0313 189.5206,-135.1526 190.69,-128.251"/>
</g>
<!-- Node4 -->
<g id="node5" class="node">
<title>Node4</title>
<g id="a_node5"><a xlink:href="prepro_8hpp.html" target="_top" xlink:title="alib/lang/prepro.hpp">
<polygon fill="#ffffff" stroke="#000000" points="198.5,-112.5 198.5,-131.5 299.5,-131.5 299.5,-112.5 198.5,-112.5"/>
<text text-anchor="middle" x="249" y="-119.5" font-family="Helvetica,sans-Serif" font-size="10.00" fill="#000000">alib/lang/prepro.hpp</text>
</a>
</g>
</g>
<!-- Node0&#45;&gt;Node4 -->
<g id="edge4" class="edge">
<title>Node0&#45;&gt;Node4</title>
<path fill="none" stroke="#191970" d="M1228.727,-177.8491C1119.9558,-176.975 680.8268,-171.1428 309.8107,-131.9534"/>
<polygon fill="#191970" stroke="#191970" points="309.9967,-128.4535 299.6819,-130.8734 309.2544,-135.414 309.9967,-128.4535"/>
</g>
<!-- Node5 -->
<g id="node6" class="node">
<title>Node5</title>
<g id="a_node6"><a xlink:href="types_8hpp.html" target="_top" xlink:title="alib/lang/types.hpp">
<polygon fill="#ffffff" stroke="#000000" points="318,-112.5 318,-131.5 416,-131.5 416,-112.5 318,-112.5"/>
<text text-anchor="middle" x="367" y="-119.5" font-family="Helvetica,sans-Serif" font-size="10.00" fill="#000000">alib/lang/types.hpp</text>
</a>
</g>
</g>
<!-- Node0&#45;&gt;Node5 -->
<g id="edge5" class="edge">
<title>Node0&#45;&gt;Node5</title>
<path fill="none" stroke="#191970" d="M1228.8155,-177.6607C1128.6492,-176.0902 748.7121,-168.0335 426.3071,-132.0271"/>
<polygon fill="#191970" stroke="#191970" points="426.6348,-128.542 416.3055,-130.899 425.8501,-135.4979 426.6348,-128.542"/>
</g>
<!-- Node6 -->
<g id="node7" class="node">
<title>Node6</title>
<g id="a_node7"><a xlink:href="assert_8hpp.html" target="_top" xlink:title="alib/debug/assert.hpp">
<polygon fill="#ffffff" stroke="#000000" points="434,-112.5 434,-131.5 544,-131.5 544,-112.5 434,-112.5"/>
<text text-anchor="middle" x="489" y="-119.5" font-family="Helvetica,sans-Serif" font-size="10.00" fill="#000000">alib/debug/assert.hpp</text>
</a>
</g>
</g>
<!-- Node0&#45;&gt;Node6 -->
<g id="edge6" class="edge">
<title>Node0&#45;&gt;Node6</title>
<path fill="none" stroke="#191970" d="M1228.7804,-177.1613C1138.6848,-173.9939 824.1638,-161.4673 554.1072,-132.0314"/>
<polygon fill="#191970" stroke="#191970" points="554.4389,-128.5469 544.1161,-130.9324 553.6734,-135.5049 554.4389,-128.5469"/>
</g>
<!-- Node7 -->
<g id="node8" class="node">
<title>Node7</title>
<g id="a_node8"><a xlink:href="rtti_8hpp.html" target="_top" xlink:title="alib/lang/rtti.hpp">
<polygon fill="#ffffff" stroke="#000000" points="562,-112.5 562,-131.5 648,-131.5 648,-112.5 562,-112.5"/>
<text text-anchor="middle" x="605" y="-119.5" font-family="Helvetica,sans-Serif" font-size="10.00" fill="#000000">alib/lang/rtti.hpp</text>
</a>
</g>
</g>
<!-- Node0&#45;&gt;Node7 -->
<g id="edge7" class="edge">
<title>Node0&#45;&gt;Node7</title>
<path fill="none" stroke="#191970" d="M1228.869,-177.0818C1147.7303,-173.9035 885.3238,-161.9551 658.1751,-132.0184"/>
<polygon fill="#191970" stroke="#191970" points="658.4435,-128.5233 648.0687,-130.6713 657.5186,-135.4619 658.4435,-128.5233"/>
</g>
<!-- Node11 -->
<g id="node9" class="node">
<title>Node11</title>
<g id="a_node9"><a xlink:href="singleton_8hpp.html" target="_top" xlink:title="alib/lang/singleton.hpp">
<polygon fill="#ffffff" stroke="#000000" points="1032.5,-56.5 1032.5,-75.5 1145.5,-75.5 1145.5,-56.5 1032.5,-56.5"/>
<text text-anchor="middle" x="1089" y="-63.5" font-family="Helvetica,sans-Serif" font-size="10.00" fill="#000000">alib/lang/singleton.hpp</text>
</a>
</g>
</g>
<!-- Node0&#45;&gt;Node11 -->
<g id="edge8" class="edge">
<title>Node0&#45;&gt;Node11</title>
<path fill="none" stroke="#191970" d="M1228.9433,-176.0496C1159.6098,-170.4008 969.1228,-153.0817 951,-132 945.2055,-125.2594 945.8026,-119.211 951,-112 960.9454,-98.2014 998.6326,-86.188 1032.1134,-77.9016"/>
<polygon fill="#191970" stroke="#191970" points="1032.9679,-81.296 1041.8747,-75.5584 1031.3339,-74.4893 1032.9679,-81.296"/>
</g>
<!-- Node13 -->
<g id="node10" class="node">
<title>Node13</title>
<g id="a_node10"><a xlink:href="enums_8hpp.html" target="_top" xlink:title="alib/lang/enums.hpp">
<polygon fill="#ffffff" stroke="#000000" points="800,-112.5 800,-131.5 904,-131.5 904,-112.5 800,-112.5"/>
<text text-anchor="middle" x="852" y="-119.5" font-family="Helvetica,sans-Serif" font-size="10.00" fill="#000000">alib/lang/enums.hpp</text>
</a>
</g>
</g>
<!-- Node0&#45;&gt;Node13 -->
<g id="edge9" class="edge">
<title>Node0&#45;&gt;Node13</title>
<path fill="none" stroke="#191970" d="M1228.6928,-174.6612C1172.6739,-167.2429 1033.9666,-148.7227 918,-132 916.7418,-131.8186 915.4703,-131.6343 914.1889,-131.4478"/>
<polygon fill="#191970" stroke="#191970" points="914.6312,-127.9753 904.2285,-129.9839 913.6133,-134.9009 914.6312,-127.9753"/>
</g>
<!-- Node14 -->
<g id="node11" class="node">
<title>Node14</title>
<g id="a_node11"><a xlink:href="strings_2strings_8hpp.html" target="_top" xlink:title="alib/strings/strings.hpp">
<polygon fill="#ffffff" stroke="#000000" points="666.5,-112.5 666.5,-131.5 781.5,-131.5 781.5,-112.5 666.5,-112.5"/>
<text text-anchor="middle" x="724" y="-119.5" font-family="Helvetica,sans-Serif" font-size="10.00" fill="#000000">alib/strings/strings.hpp</text>
</a>
</g>
</g>
<!-- Node0&#45;&gt;Node14 -->
<g id="edge10" class="edge">
<title>Node0&#45;&gt;Node14</title>
<path fill="none" stroke="#191970" d="M1228.8574,-175.9395C1160.5052,-170.2451 965.3603,-153.3724 791.8011,-132.0457"/>
<polygon fill="#191970" stroke="#191970" points="792.0729,-128.5527 781.7189,-130.7987 791.2136,-135.4998 792.0729,-128.5527"/>
</g>
<!-- Node23 -->
<g id="node12" class="node">
<title>Node23</title>
<g id="a_node12"><a xlink:href="astring_8hpp.html" target="_top" xlink:title="alib/strings/astring.hpp">
<polygon fill="#ffffff" stroke="#000000" points="960.5,-112.5 960.5,-131.5 1075.5,-131.5 1075.5,-112.5 960.5,-112.5"/>
<text text-anchor="middle" x="1018" y="-119.5" font-family="Helvetica,sans-Serif" font-size="10.00" fill="#000000">alib/strings/astring.hpp</text>
</a>
</g>
</g>
<!-- Node0&#45;&gt;Node23 -->
<g id="edge11" class="edge">
<title>Node0&#45;&gt;Node23</title>
<path fill="none" stroke="#191970" d="M1228.7439,-172.007C1190.5868,-162.9528 1117.4774,-145.6048 1068.2163,-133.9157"/>
<polygon fill="#191970" stroke="#191970" points="1068.9317,-130.4884 1058.3938,-131.585 1067.3155,-137.2993 1068.9317,-130.4884"/>
</g>
<!-- Node25 -->
<g id="node13" class="node">
<title>Node25</title>
<g id="a_node13"><a xlink:href="preallocatedstring_8hpp.html" target="_top" xlink:title="alib/strings/preallocatedstring.hpp">
<polygon fill="#ffffff" stroke="#000000" points="1094,-112.5 1094,-131.5 1256,-131.5 1256,-112.5 1094,-112.5"/>
<text text-anchor="middle" x="1175" y="-119.5" font-family="Helvetica,sans-Serif" font-size="10.00" fill="#000000">alib/strings/preallocatedstring.hpp</text>
</a>
</g>
</g>
<!-- Node0&#45;&gt;Node25 -->
<g id="edge12" class="edge">
<title>Node0&#45;&gt;Node25</title>
<path fill="none" stroke="#191970" d="M1240.2393,-168.2455C1228.3448,-159.814 1210.935,-147.4729 1197.0915,-137.6598"/>
<polygon fill="#191970" stroke="#191970" points="1198.7854,-134.5704 1188.6031,-131.6427 1194.7372,-140.2811 1198.7854,-134.5704"/>
</g>
<!-- Node26 -->
<g id="node14" class="node">
<title>Node26</title>
<g id="a_node14"><a xlink:href="resources_8hpp.html" target="_top" xlink:title="alib/lang/resources.hpp">
<polygon fill="#ffffff" stroke="#000000" points="1274.5,-112.5 1274.5,-131.5 1391.5,-131.5 1391.5,-112.5 1274.5,-112.5"/>
<text text-anchor="middle" x="1333" y="-119.5" font-family="Helvetica,sans-Serif" font-size="10.00" fill="#000000">alib/lang/resources.hpp</text>
</a>
</g>
</g>
<!-- Node0&#45;&gt;Node26 -->
<g id="edge13" class="edge">
<title>Node0&#45;&gt;Node26</title>
<path fill="none" stroke="#191970" d="M1267.7607,-168.2455C1279.6552,-159.814 1297.065,-147.4729 1310.9085,-137.6598"/>
<polygon fill="#191970" stroke="#191970" points="1313.2628,-140.2811 1319.3969,-131.6427 1309.2146,-134.5704 1313.2628,-140.2811"/>
</g>
<!-- Node30 -->
<g id="node15" class="node">
<title>Node30</title>
<g id="a_node15"><a xlink:href="library_8hpp.html" target="_top" xlink:title="alib/lang/library.hpp">
<polygon fill="#ffffff" stroke="#000000" points="1410,-112.5 1410,-131.5 1510,-131.5 1510,-112.5 1410,-112.5"/>
<text text-anchor="middle" x="1460" y="-119.5" font-family="Helvetica,sans-Serif" font-size="10.00" fill="#000000">alib/lang/library.hpp</text>
</a>
</g>
</g>
<!-- Node0&#45;&gt;Node30 -->
<g id="edge14" class="edge">
<title>Node0&#45;&gt;Node30</title>
<path fill="none" stroke="#191970" d="M1279.2596,-171.1333C1313.0059,-161.9596 1373.3698,-145.55 1414.992,-134.2352"/>
<polygon fill="#191970" stroke="#191970" points="1416.1482,-137.548 1424.8798,-131.5472 1414.3119,-130.7931 1416.1482,-137.548"/>
</g>
<!-- Node31 -->
<g id="node16" class="node">
<title>Node31</title>
<g id="a_node16"><a xlink:href="stringlib_8hpp.html" target="_top" xlink:title="alib/strings/stringlib.hpp">
<polygon fill="#ffffff" stroke="#000000" points="1528.5,-112.5 1528.5,-131.5 1647.5,-131.5 1647.5,-112.5 1528.5,-112.5"/>
<text text-anchor="middle" x="1588" y="-119.5" font-family="Helvetica,sans-Serif" font-size="10.00" fill="#000000">alib/strings/stringlib.hpp</text>
</a>
</g>
</g>
<!-- Node0&#45;&gt;Node31 -->
<g id="edge15" class="edge">
<title>Node0&#45;&gt;Node31</title>
<path fill="none" stroke="#191970" d="M1279.1043,-173.7909C1329.89,-165.2759 1446.3126,-145.756 1520.8332,-133.2615"/>
<polygon fill="#191970" stroke="#191970" points="1521.7755,-136.6524 1531.0591,-131.547 1520.618,-129.7488 1521.7755,-136.6524"/>
</g>
<!-- Node32 -->
<g id="node17" class="node">
<title>Node32</title>
<g id="a_node17"><a xlink:href="boxinglib_8hpp.html" target="_top" xlink:title="alib/boxing/boxinglib.hpp">
<polygon fill="#ffffff" stroke="#000000" points="2131.5,-112.5 2131.5,-131.5 2254.5,-131.5 2254.5,-112.5 2131.5,-112.5"/>
<text text-anchor="middle" x="2193" y="-119.5" font-family="Helvetica,sans-Serif" font-size="10.00" fill="#000000">alib/boxing/boxinglib.hpp</text>
</a>
</g>
</g>
<!-- Node0&#45;&gt;Node32 -->
<g id="edge16" class="edge">
<title>Node0&#45;&gt;Node32</title>
<path fill="none" stroke="#191970" d="M1279.2687,-177.4644C1382.4156,-175.1102 1781.7664,-164.3607 2121.4338,-131.9654"/>
<polygon fill="#191970" stroke="#191970" points="2121.8464,-135.4419 2131.4654,-131.0006 2121.1762,-128.4741 2121.8464,-135.4419"/>
</g>
<!-- Node41 -->
<g id="node18" class="node">
<title>Node41</title>
<g id="a_node18"><a xlink:href="langlib_8hpp.html" target="_top" xlink:title="alib/lang/langlib.hpp">
<polygon fill="#ffffff" stroke="#000000" points="1823,-112.5 1823,-131.5 1925,-131.5 1925,-112.5 1823,-112.5"/>
<text text-anchor="middle" x="1874" y="-119.5" font-family="Helvetica,sans-Serif" font-size="10.00" fill="#000000">alib/lang/langlib.hpp</text>
</a>
</g>
</g>
<!-- Node0&#45;&gt;Node41 -->
<g id="edge17" class="edge">
<title>Node0&#45;&gt;Node41</title>
<path fill="none" stroke="#191970" d="M1279.1455,-176.6534C1356.8027,-172.3426 1599.8623,-157.7104 1812.6776,-131.9376"/>
<polygon fill="#191970" stroke="#191970" points="1813.2865,-135.3893 1822.788,-130.7019 1812.4372,-128.441 1813.2865,-135.3893"/>
</g>
<!-- Node42 -->
<g id="node19" class="node">
<title>Node42</title>
<g id="a_node19"><a xlink:href="stringboxing_8hpp.html" target="_top" xlink:title="alib/strings/boxing/stringboxing.hpp">
<polygon fill="#ffffff" stroke="#000000" points="1943,-112.5 1943,-131.5 2113,-131.5 2113,-112.5 1943,-112.5"/>
<text text-anchor="middle" x="2028" y="-119.5" font-family="Helvetica,sans-Serif" font-size="10.00" fill="#000000">alib/strings/boxing/stringboxing.hpp</text>
</a>
</g>
</g>
<!-- Node0&#45;&gt;Node42 -->
<g id="edge18" class="edge">
<title>Node0&#45;&gt;Node42</title>
<path fill="none" stroke="#191970" d="M1279.0343,-176.6549C1367.0507,-171.8526 1670.6512,-154.6685 1932.8658,-132.0693"/>
<polygon fill="#191970" stroke="#191970" points="1933.2992,-135.545 1942.9598,-131.1949 1932.695,-128.5711 1933.2992,-135.545"/>
</g>
<!-- Node43 -->
<g id="node20" class="node">
<title>Node43</title>
<g id="a_node20"><a xlink:href="report_8hpp.html" target="_top" xlink:title="alib/lang/report.hpp">
<polygon fill="#ffffff" stroke="#000000" points="2272.5,-112.5 2272.5,-131.5 2371.5,-131.5 2371.5,-112.5 2272.5,-112.5"/>
<text text-anchor="middle" x="2322" y="-119.5" font-family="Helvetica,sans-Serif" font-size="10.00" fill="#000000">alib/lang/report.hpp</text>
</a>
</g>
</g>
<!-- Node0&#45;&gt;Node43 -->
<g id="edge19" class="edge">
<title>Node0&#45;&gt;Node43</title>
<path fill="none" stroke="#191970" d="M1279.0851,-177.2736C1412.7966,-173.3391 2043.4329,-153.9832 2262.3755,-131.8976"/>
<polygon fill="#191970" stroke="#191970" points="2262.9032,-135.3617 2272.4865,-130.8439 2262.1776,-128.3994 2262.9032,-135.3617"/>
</g>
<!-- Node45 -->
<g id="node21" class="node">
<title>Node45</title>
<g id="a_node21"><a xlink:href="enumbitwise_8hpp.html" target="_top" xlink:title="alib/lang/enumbitwise.hpp">
<polygon fill="#ffffff" stroke="#000000" points="2389.5,-112.5 2389.5,-131.5 2518.5,-131.5 2518.5,-112.5 2389.5,-112.5"/>
<text text-anchor="middle" x="2454" y="-119.5" font-family="Helvetica,sans-Serif" font-size="10.00" fill="#000000">alib/lang/enumbitwise.hpp</text>
</a>
</g>
</g>
<!-- Node0&#45;&gt;Node45 -->
<g id="edge20" class="edge">
<title>Node0&#45;&gt;Node45</title>
<path fill="none" stroke="#191970" d="M1279.0204,-177.8431C1399.4838,-176.9079 1931.8706,-170.7254 2379.2457,-131.9746"/>
<polygon fill="#191970" stroke="#191970" points="2379.8081,-135.4389 2389.4658,-131.0823 2379.1993,-128.4654 2379.8081,-135.4389"/>
</g>
<!-- Node47 -->
<g id="node22" class="node">
<title>Node47</title>
<g id="a_node22"><a xlink:href="enummetadata_8hpp.html" target="_top" xlink:title="alib/lang/enummetadata.hpp">
<polygon fill="#ffffff" stroke="#000000" points="1665.5,-112.5 1665.5,-131.5 1804.5,-131.5 1804.5,-112.5 1665.5,-112.5"/>
<text text-anchor="middle" x="1735" y="-119.5" font-family="Helvetica,sans-Serif" font-size="10.00" fill="#000000">alib/lang/enummetadata.hpp</text>
</a>
</g>
</g>
<!-- Node0&#45;&gt;Node47 -->
<g id="edge21" class="edge">
<title>Node0&#45;&gt;Node47</title>
<path fill="none" stroke="#191970" d="M1279.4104,-175.1993C1341.5003,-168.3331 1506.1067,-149.9931 1654.9829,-132.1109"/>
<polygon fill="#191970" stroke="#191970" points="1655.7086,-135.5489 1665.2187,-130.8791 1654.8722,-128.599 1655.7086,-135.5489"/>
</g>
<!-- Node48 -->
<g id="node23" class="node">
<title>Node48</title>
<g id="a_node23"><a xlink:href="configlib_8hpp.html" target="_top" xlink:title="alib/config/configlib.hpp">
<polygon fill="#ffffff" stroke="#000000" points="2536.5,-112.5 2536.5,-131.5 2655.5,-131.5 2655.5,-112.5 2536.5,-112.5"/>
<text text-anchor="middle" x="2596" y="-119.5" font-family="Helvetica,sans-Serif" font-size="10.00" fill="#000000">alib/config/configlib.hpp</text>
</a>
</g>
</g>
<!-- Node0&#45;&gt;Node48 -->
<g id="edge22" class="edge">
<title>Node0&#45;&gt;Node48</title>
<path fill="none" stroke="#191970" d="M1279.2339,-177.4601C1433.416,-174.1057 2250.6521,-155.5184 2525.8624,-131.9785"/>
<polygon fill="#191970" stroke="#191970" points="2526.5528,-135.4314 2536.2074,-131.068 2525.939,-128.4583 2526.5528,-135.4314"/>
</g>
<!-- Node53 -->
<g id="node24" class="node">
<title>Node53</title>
<g id="a_node24"><a xlink:href="systemlib_8hpp.html" target="_top" xlink:title="alib/system/systemlib.hpp">
<polygon fill="#ffffff" stroke="#000000" points="2673.5,-112.5 2673.5,-131.5 2804.5,-131.5 2804.5,-112.5 2673.5,-112.5"/>
<text text-anchor="middle" x="2739" y="-119.5" font-family="Helvetica,sans-Serif" font-size="10.00" fill="#000000">alib/system/systemlib.hpp</text>
</a>
</g>
</g>
<!-- Node0&#45;&gt;Node53 -->
<g id="edge23" class="edge">
<title>Node0&#45;&gt;Node53</title>
<path fill="none" stroke="#191970" d="M1279.2314,-177.5292C1443.159,-174.4179 2359.5439,-156.2173 2663.1641,-132.0609"/>
<polygon fill="#191970" stroke="#191970" points="2663.5887,-135.5379 2673.2705,-131.2355 2663.0188,-128.5612 2663.5887,-135.5379"/>
</g>
<!-- Node55 -->
<g id="node25" class="node">
<title>Node55</title>
<g id="a_node25"><a xlink:href="applicables_8hpp.html" target="_top" xlink:title="alib/strings/applicables.hpp">
<polygon fill="#ffffff" stroke="#000000" points="2823,-112.5 2823,-131.5 2957,-131.5 2957,-112.5 2823,-112.5"/>
<text text-anchor="middle" x="2890" y="-119.5" font-family="Helvetica,sans-Serif" font-size="10.00" fill="#000000">alib/strings/applicables.hpp</text>
</a>
</g>
</g>
<!-- Node0&#45;&gt;Node55 -->
<g id="edge24" class="edge">
<title>Node0&#45;&gt;Node55</title>
<path fill="none" stroke="#191970" d="M1279.0183,-177.6105C1452.2707,-174.8617 2476.3568,-157.7652 2812.6728,-132.0069"/>
<polygon fill="#191970" stroke="#191970" points="2813.2072,-135.4758 2822.9024,-131.2036 2812.6591,-128.4973 2813.2072,-135.4758"/>
</g>
<!-- Node8 -->
<g id="node26" class="node">
<title>Node8</title>
<polygon fill="#ffffff" stroke="#bfbfbf" points="171.5,-56.5 171.5,-75.5 222.5,-75.5 222.5,-56.5 171.5,-56.5"/>
<text text-anchor="middle" x="197" y="-63.5" font-family="Helvetica,sans-Serif" font-size="10.00" fill="#000000">typeinfo</text>
</g>
<!-- Node7&#45;&gt;Node8 -->
<g id="edge25" class="edge">
<title>Node7&#45;&gt;Node8</title>
<path fill="none" stroke="#191970" d="M561.9148,-113.4439C558.9024,-112.929 555.9085,-112.4416 553,-112 413.8264,-90.8715 373.9496,-103.8121 232.7667,-76.092"/>
<polygon fill="#191970" stroke="#191970" points="233.3637,-72.6422 222.8719,-74.1159 231.9928,-79.5066 233.3637,-72.6422"/>
</g>
<!-- Node9 -->
<g id="node27" class="node">
<title>Node9</title>
<polygon fill="#ffffff" stroke="#bfbfbf" points="240.5,-56.5 240.5,-75.5 299.5,-75.5 299.5,-56.5 240.5,-56.5"/>
<text text-anchor="middle" x="270" y="-63.5" font-family="Helvetica,sans-Serif" font-size="10.00" fill="#000000">functional</text>
</g>
<!-- Node7&#45;&gt;Node9 -->
<g id="edge26" class="edge">
<title>Node7&#45;&gt;Node9</title>
<path fill="none" stroke="#191970" d="M561.8963,-113.5591C558.8883,-113.0168 555.9004,-112.4917 553,-112 447.6693,-94.1424 417.5769,-97.7984 309.7742,-76.2025"/>
<polygon fill="#191970" stroke="#191970" points="310.2934,-72.7366 299.7969,-74.1769 308.9005,-79.5966 310.2934,-72.7366"/>
</g>
<!-- Node10 -->
<g id="node28" class="node">
<title>Node10</title>
<polygon fill="#ffffff" stroke="#bfbfbf" points="317.5,-56.5 317.5,-75.5 400.5,-75.5 400.5,-56.5 317.5,-56.5"/>
<text text-anchor="middle" x="359" y="-63.5" font-family="Helvetica,sans-Serif" font-size="10.00" fill="#000000">unordered_map</text>
</g>
<!-- Node7&#45;&gt;Node10 -->
<g id="edge27" class="edge">
<title>Node7&#45;&gt;Node10</title>
<path fill="none" stroke="#191970" d="M562.9906,-112.4369C520.8896,-102.8529 455.9995,-88.0812 410.7479,-77.78"/>
<polygon fill="#191970" stroke="#191970" points="411.3636,-74.3307 400.8361,-75.5237 409.8098,-81.1561 411.3636,-74.3307"/>
</g>
<!-- Node12 -->
<g id="node29" class="node">
<title>Node12</title>
<polygon fill="#ffffff" stroke="#bfbfbf" points="1556,-.5 1556,-19.5 1600,-19.5 1600,-.5 1556,-.5"/>
<text text-anchor="middle" x="1578" y="-7.5" font-family="Helvetica,sans-Serif" font-size="10.00" fill="#000000">vector</text>
</g>
<!-- Node11&#45;&gt;Node12 -->
<g id="edge28" class="edge">
<title>Node11&#45;&gt;Node12</title>
<path fill="none" stroke="#191970" d="M1145.5036,-57.2791C1148.7145,-56.8333 1151.8971,-56.4036 1155,-56 1300.624,-37.0583 1475.1583,-19.7958 1545.8888,-13.0268"/>
<polygon fill="#191970" stroke="#191970" points="1546.3202,-16.5016 1555.943,-12.0685 1545.656,-9.5332 1546.3202,-16.5016"/>
</g>
<!-- Node15 -->
<g id="node30" class="node">
<title>Node15</title>
<polygon fill="#ffffff" stroke="#bfbfbf" points="703,-56.5 703,-75.5 755,-75.5 755,-56.5 703,-56.5"/>
<text text-anchor="middle" x="729" y="-63.5" font-family="Helvetica,sans-Serif" font-size="10.00" fill="#000000">memory</text>
</g>
<!-- Node14&#45;&gt;Node15 -->
<g id="edge29" class="edge">
<title>Node14&#45;&gt;Node15</title>
<path fill="none" stroke="#191970" d="M724.8709,-112.2455C725.5234,-104.9382 726.438,-94.6944 727.2407,-85.7046"/>
<polygon fill="#191970" stroke="#191970" points="730.7358,-85.9143 728.139,-75.6427 723.7635,-85.2918 730.7358,-85.9143"/>
</g>
<!-- Node16 -->
<g id="node31" class="node">
<title>Node16</title>
<g id="a_node31"><a xlink:href="cstring_8hpp.html" target="_top" xlink:title="alib/strings/cstring.hpp">
<polygon fill="#ffffff" stroke="#ff0000" points="418.5,-56.5 418.5,-75.5 533.5,-75.5 533.5,-56.5 418.5,-56.5"/>
<text text-anchor="middle" x="476" y="-63.5" font-family="Helvetica,sans-Serif" font-size="10.00" fill="#000000">alib/strings/cstring.hpp</text>
</a>
</g>
</g>
<!-- Node14&#45;&gt;Node16 -->
<g id="edge30" class="edge">
<title>Node14&#45;&gt;Node16</title>
<path fill="none" stroke="#191970" d="M681.6491,-112.4369C639.2058,-102.8529 573.7881,-88.0812 528.1687,-77.78"/>
<polygon fill="#191970" stroke="#191970" points="528.7016,-74.3123 518.1763,-75.5237 527.1597,-81.1404 528.7016,-74.3123"/>
</g>
<!-- Node20 -->
<g id="node32" class="node">
<title>Node20</title>
<g id="a_node32"><a xlink:href="string_8hpp.html" target="_top" xlink:title="alib/strings/string.hpp">
<polygon fill="#ffffff" stroke="#000000" points="773,-56.5 773,-75.5 883,-75.5 883,-56.5 773,-56.5"/>
<text text-anchor="middle" x="828" y="-63.5" font-family="Helvetica,sans-Serif" font-size="10.00" fill="#000000">alib/strings/string.hpp</text>
</a>
</g>
</g>
<!-- Node14&#45;&gt;Node20 -->
<g id="edge31" class="edge">
<title>Node14&#45;&gt;Node20</title>
<path fill="none" stroke="#191970" d="M742.1154,-112.2455C758.445,-103.4527 782.671,-90.4079 801.2339,-80.4125"/>
<polygon fill="#191970" stroke="#191970" points="802.9468,-83.4654 810.0922,-75.6427 799.6281,-77.3021 802.9468,-83.4654"/>
</g>
<!-- Node21 -->
<g id="node33" class="node">
<title>Node21</title>
<g id="a_node33"><a xlink:href="tstring_8hpp.html" target="_top" xlink:title="alib/strings/tstring.hpp">
<polygon fill="#ffffff" stroke="#000000" points="901.5,-56.5 901.5,-75.5 1014.5,-75.5 1014.5,-56.5 901.5,-56.5"/>
<text text-anchor="middle" x="958" y="-63.5" font-family="Helvetica,sans-Serif" font-size="10.00" fill="#000000">alib/strings/tstring.hpp</text>
</a>
</g>
</g>
<!-- Node14&#45;&gt;Node21 -->
<g id="edge32" class="edge">
<title>Node14&#45;&gt;Node21</title>
<path fill="none" stroke="#191970" d="M763.9602,-112.4369C803.8392,-102.8932 865.2139,-88.2052 908.2328,-77.9101"/>
<polygon fill="#191970" stroke="#191970" points="909.2939,-81.2551 918.2047,-75.5237 907.6646,-74.4473 909.2939,-81.2551"/>
</g>
<!-- Node22 -->
<g id="node34" class="node">
<title>Node22</title>
<g id="a_node34"><a xlink:href="stringliteral_8hpp.html" target="_top" xlink:title="alib/strings/stringliteral.hpp">
<polygon fill="#ffffff" stroke="#000000" points="551.5,-56.5 551.5,-75.5 684.5,-75.5 684.5,-56.5 551.5,-56.5"/>
<text text-anchor="middle" x="618" y="-63.5" font-family="Helvetica,sans-Serif" font-size="10.00" fill="#000000">alib/strings/stringliteral.hpp</text>
</a>
</g>
</g>
<!-- Node14&#45;&gt;Node22 -->
<g id="edge33" class="edge">
<title>Node14&#45;&gt;Node22</title>
<path fill="none" stroke="#191970" d="M705.5362,-112.2455C688.8926,-103.4527 664.2007,-90.4079 645.2808,-80.4125"/>
<polygon fill="#191970" stroke="#191970" points="646.7291,-77.2193 636.2522,-75.6427 643.4592,-83.4086 646.7291,-77.2193"/>
</g>
<!-- Node24 -->
<g id="node36" class="node">
<title>Node24</title>
<polygon fill="#ffffff" stroke="#bfbfbf" points="1164,-56.5 1164,-75.5 1212,-75.5 1212,-56.5 1164,-56.5"/>
<text text-anchor="middle" x="1188" y="-63.5" font-family="Helvetica,sans-Serif" font-size="10.00" fill="#000000">stdlib.h</text>
</g>
<!-- Node23&#45;&gt;Node24 -->
<g id="edge35" class="edge">
<title>Node23&#45;&gt;Node24</title>
<path fill="none" stroke="#191970" d="M1047.224,-112.3733C1076.9487,-102.5816 1122.9663,-87.4229 1154.2322,-77.1235"/>
<polygon fill="#191970" stroke="#191970" points="1155.4229,-80.4164 1163.8258,-73.9633 1153.2328,-73.7678 1155.4229,-80.4164"/>
</g>
<!-- Node27 -->
<g id="node37" class="node">
<title>Node27</title>
<polygon fill="#ffffff" stroke="#bfbfbf" points="1544.5,-56.5 1544.5,-75.5 1579.5,-75.5 1579.5,-56.5 1544.5,-56.5"/>
<text text-anchor="middle" x="1562" y="-63.5" font-family="Helvetica,sans-Serif" font-size="10.00" fill="#000000">map</text>
</g>
<!-- Node26&#45;&gt;Node27 -->
<g id="edge36" class="edge">
<title>Node26&#45;&gt;Node27</title>
<path fill="none" stroke="#191970" d="M1383.2797,-112.4552C1422.1874,-104.64 1477.5232,-92.5941 1534.4922,-75.8505"/>
<polygon fill="#191970" stroke="#191970" points="1535.8106,-79.1097 1544.393,-72.8974 1533.8097,-72.4018 1535.8106,-79.1097"/>
</g>
<!-- Node28 -->
<g id="node38" class="node">
<title>Node28</title>
<g id="a_node38"><a xlink:href="memoryblocks_8hpp.html" target="_top" xlink:title="alib/util/memoryblocks.hpp">
<polygon fill="#ffffff" stroke="#000000" points="1230.5,-56.5 1230.5,-75.5 1363.5,-75.5 1363.5,-56.5 1230.5,-56.5"/>
<text text-anchor="middle" x="1297" y="-63.5" font-family="Helvetica,sans-Serif" font-size="10.00" fill="#000000">alib/util/memoryblocks.hpp</text>
</a>
</g>
</g>
<!-- Node26&#45;&gt;Node28 -->
<g id="edge37" class="edge">
<title>Node26&#45;&gt;Node28</title>
<path fill="none" stroke="#191970" d="M1326.7293,-112.2455C1321.7736,-104.5367 1314.717,-93.5598 1308.7224,-84.2348"/>
<polygon fill="#191970" stroke="#191970" points="1311.5506,-82.1618 1303.1989,-75.6427 1305.6624,-85.9471 1311.5506,-82.1618"/>
</g>
<!-- Node29 -->
<g id="node39" class="node">
<title>Node29</title>
<g id="a_node39"><a xlink:href="stringmap_8hpp.html" target="_top" xlink:title="alib/strings/util/stringmap.hpp">
<polygon fill="#ffffff" stroke="#000000" points="1382,-56.5 1382,-75.5 1526,-75.5 1526,-56.5 1382,-56.5"/>
<text text-anchor="middle" x="1454" y="-63.5" font-family="Helvetica,sans-Serif" font-size="10.00" fill="#000000">alib/strings/util/stringmap.hpp</text>
</a>
</g>
</g>
<!-- Node26&#45;&gt;Node29 -->
<g id="edge38" class="edge">
<title>Node26&#45;&gt;Node29</title>
<path fill="none" stroke="#191970" d="M1353.8006,-112.3733C1373.2243,-103.3838 1402.4224,-89.8706 1424.2964,-79.7471"/>
<polygon fill="#191970" stroke="#191970" points="1425.8656,-82.8776 1433.4708,-75.5011 1422.9255,-76.5249 1425.8656,-82.8776"/>
</g>
<!-- Node33 -->
<g id="node40" class="node">
<title>Node33</title>
<polygon fill="#ffffff" stroke="#bfbfbf" points="1597.5,-56.5 1597.5,-75.5 1646.5,-75.5 1646.5,-56.5 1597.5,-56.5"/>
<text text-anchor="middle" x="1622" y="-63.5" font-family="Helvetica,sans-Serif" font-size="10.00" fill="#000000">string.h</text>
</g>
<!-- Node32&#45;&gt;Node33 -->
<g id="edge40" class="edge">
<title>Node32&#45;&gt;Node33</title>
<path fill="none" stroke="#191970" d="M2131.456,-113.0907C2128.2603,-112.7036 2125.0937,-112.337 2122,-112 1918.7202,-89.8546 1862.0746,-112.7726 1656.6343,-75.7349"/>
<polygon fill="#191970" stroke="#191970" points="1657.2042,-72.2811 1646.7378,-73.9254 1655.9452,-79.167 1657.2042,-72.2811"/>
</g>
<!-- Node34 -->
<g id="node41" class="node">
<title>Node34</title>
<g id="a_node41"><a xlink:href="interface_8hpp.html" target="_top" xlink:title="alib/boxing/interface.hpp">
<polygon fill="#ffffff" stroke="#000000" points="1665,-56.5 1665,-75.5 1787,-75.5 1787,-56.5 1665,-56.5"/>
<text text-anchor="middle" x="1726" y="-63.5" font-family="Helvetica,sans-Serif" font-size="10.00" fill="#000000">alib/boxing/interface.hpp</text>
</a>
</g>
</g>
<!-- Node32&#45;&gt;Node34 -->
<g id="edge41" class="edge">
<title>Node32&#45;&gt;Node34</title>
<path fill="none" stroke="#191970" d="M2131.4414,-113.2149C2128.2495,-112.7953 2125.0877,-112.3878 2122,-112 1980.6155,-94.2409 1942.3205,-94.2978 1797.2401,-76.1231"/>
<polygon fill="#191970" stroke="#191970" points="1797.4271,-72.6191 1787.0679,-74.841 1796.5517,-79.5641 1797.4271,-72.6191"/>
</g>
<!-- Node35 -->
<g id="node42" class="node">
<title>Node35</title>
<g id="a_node42"><a xlink:href="boxer_8hpp.html" target="_top" xlink:title="alib/boxing/boxer.hpp">
<polygon fill="#ffffff" stroke="#ff0000" points="1805,-56.5 1805,-75.5 1913,-75.5 1913,-56.5 1805,-56.5"/>
<text text-anchor="middle" x="1859" y="-63.5" font-family="Helvetica,sans-Serif" font-size="10.00" fill="#000000">alib/boxing/boxer.hpp</text>
</a>
</g>
</g>
<!-- Node32&#45;&gt;Node35 -->
<g id="edge42" class="edge">
<title>Node32&#45;&gt;Node35</title>
<path fill="none" stroke="#191970" d="M2135.9629,-112.4369C2076.8381,-102.5238 1984.6101,-87.0604 1923.0256,-76.7348"/>
<polygon fill="#191970" stroke="#191970" points="1923.4774,-73.2618 1913.0363,-75.06 1922.3198,-80.1654 1923.4774,-73.2618"/>
</g>
<!-- Node37 -->
<g id="node43" class="node">
<title>Node37</title>
<g id="a_node43"><a xlink:href="box_8hpp.html" target="_top" xlink:title="alib/boxing/box.hpp">
<polygon fill="#ffffff" stroke="#ff0000" points="1931.5,-56.5 1931.5,-75.5 2032.5,-75.5 2032.5,-56.5 1931.5,-56.5"/>
<text text-anchor="middle" x="1982" y="-63.5" font-family="Helvetica,sans-Serif" font-size="10.00" fill="#000000">alib/boxing/box.hpp</text>
</a>
</g>
</g>
<!-- Node32&#45;&gt;Node37 -->
<g id="edge43" class="edge">
<title>Node32&#45;&gt;Node37</title>
<path fill="none" stroke="#191970" d="M2156.7278,-112.3733C2121.0342,-102.9001 2066.4121,-88.4032 2027.7549,-78.1435"/>
<polygon fill="#191970" stroke="#191970" points="2028.3621,-74.6835 2017.7989,-75.5011 2026.5664,-81.4493 2028.3621,-74.6835"/>
</g>
<!-- Node38 -->
<g id="node44" class="node">
<title>Node38</title>
<g id="a_node44"><a xlink:href="boxes_8hpp.html" target="_top" xlink:title="alib/boxing/boxes.hpp">
<polygon fill="#ffffff" stroke="#ff0000" points="2050.5,-56.5 2050.5,-75.5 2161.5,-75.5 2161.5,-56.5 2050.5,-56.5"/>
<text text-anchor="middle" x="2106" y="-63.5" font-family="Helvetica,sans-Serif" font-size="10.00" fill="#000000">alib/boxing/boxes.hpp</text>
</a>
</g>
</g>
<!-- Node32&#45;&gt;Node38 -->
<g id="edge44" class="edge">
<title>Node32&#45;&gt;Node38</title>
<path fill="none" stroke="#191970" d="M2177.8458,-112.2455C2164.4973,-103.6534 2144.8414,-91.0014 2129.4617,-81.1018"/>
<polygon fill="#191970" stroke="#191970" points="2131.2836,-78.1121 2120.9806,-75.6427 2127.4949,-83.9982 2131.2836,-78.1121"/>
</g>
<!-- Node39 -->
<g id="node45" class="node">
<title>Node39</title>
<g id="a_node45"><a xlink:href="interface__builtin_8hpp.html" target="_top" xlink:title="alib/boxing/interface_builtin.hpp">
<polygon fill="#ffffff" stroke="#000000" points="2179.5,-56.5 2179.5,-75.5 2332.5,-75.5 2332.5,-56.5 2179.5,-56.5"/>
<text text-anchor="middle" x="2256" y="-63.5" font-family="Helvetica,sans-Serif" font-size="10.00" fill="#000000">alib/boxing/interface_builtin.hpp</text>
</a>
</g>
</g>
<!-- Node32&#45;&gt;Node39 -->
<g id="edge45" class="edge">
<title>Node32&#45;&gt;Node39</title>
<path fill="none" stroke="#191970" d="M2203.9738,-112.2455C2213.1882,-104.0549 2226.5532,-92.1749 2237.4297,-82.5069"/>
<polygon fill="#191970" stroke="#191970" points="2240.0032,-84.9023 2245.152,-75.6427 2235.3526,-79.6704 2240.0032,-84.9023"/>
</g>
<!-- Node40 -->
<g id="node46" class="node">
<title>Node40</title>
<g id="a_node46"><a xlink:href="ftypes_8hpp.html" target="_top" xlink:title="alib/boxing/ftypes.hpp">
<polygon fill="#ffffff" stroke="#ff0000" points="2351,-56.5 2351,-75.5 2463,-75.5 2463,-56.5 2351,-56.5"/>
<text text-anchor="middle" x="2407" y="-63.5" font-family="Helvetica,sans-Serif" font-size="10.00" fill="#000000">alib/boxing/ftypes.hpp</text>
</a>
</g>
</g>
<!-- Node32&#45;&gt;Node40 -->
<g id="edge46" class="edge">
<title>Node32&#45;&gt;Node40</title>
<path fill="none" stroke="#191970" d="M2229.7879,-112.3733C2266.0661,-102.8799 2321.6236,-88.3415 2360.8446,-78.0781"/>
<polygon fill="#191970" stroke="#191970" points="2361.904,-81.4188 2370.6921,-75.5011 2360.1318,-74.6468 2361.904,-81.4188"/>
</g>
<!-- Node44 -->
<g id="node47" class="node">
<title>Node44</title>
<polygon fill="#ffffff" stroke="#bfbfbf" points="2481.5,-56.5 2481.5,-75.5 2522.5,-75.5 2522.5,-56.5 2481.5,-56.5"/>
<text text-anchor="middle" x="2502" y="-63.5" font-family="Helvetica,sans-Serif" font-size="10.00" fill="#000000">stack</text>
</g>
<!-- Node43&#45;&gt;Node44 -->
<g id="edge49" class="edge">
<title>Node43&#45;&gt;Node44</title>
<path fill="none" stroke="#191970" d="M2353.9648,-112.4418C2382.4203,-103.879 2425.407,-90.8121 2471.7437,-76.03"/>
<polygon fill="#191970" stroke="#191970" points="2472.9072,-79.3326 2481.3647,-72.9513 2470.7737,-72.6656 2472.9072,-79.3326"/>
</g>
<!-- Node46 -->
<g id="node48" class="node">
<title>Node46</title>
<g id="a_node48"><a xlink:href="enumarithmetical_8hpp.html" target="_top" xlink:title="enumarithmetical.hpp">
<polygon fill="#ffffff" stroke="#000000" points="2541,-56.5 2541,-75.5 2651,-75.5 2651,-56.5 2541,-56.5"/>
<text text-anchor="middle" x="2596" y="-63.5" font-family="Helvetica,sans-Serif" font-size="10.00" fill="#000000">enumarithmetical.hpp</text>
</a>
</g>
</g>
<!-- Node45&#45;&gt;Node46 -->
<g id="edge50" class="edge">
<title>Node45&#45;&gt;Node46</title>
<path fill="none" stroke="#191970" d="M2478.4107,-112.3733C2501.6142,-103.2226 2536.7038,-89.3844 2562.5142,-79.2057"/>
<polygon fill="#191970" stroke="#191970" points="2563.8892,-82.4258 2571.9079,-75.5011 2561.3211,-75.9139 2563.8892,-82.4258"/>
</g>
<!-- Node47&#45;&gt;Node27 -->
<g id="edge51" class="edge">
<title>Node47&#45;&gt;Node27</title>
<path fill="none" stroke="#191970" d="M1702.3987,-112.4504C1674.5252,-104.1422 1633.1586,-91.4743 1589.2647,-76.3087"/>
<polygon fill="#191970" stroke="#191970" points="1590.1608,-72.9147 1579.566,-72.9308 1587.8584,-79.5252 1590.1608,-72.9147"/>
</g>
<!-- Node48&#45;&gt;Node46 -->
<g id="edge52" class="edge">
<title>Node48&#45;&gt;Node46</title>
<path fill="none" stroke="#191970" d="M2596,-112.2455C2596,-104.9382 2596,-94.6944 2596,-85.7046"/>
<polygon fill="#191970" stroke="#191970" points="2599.5001,-85.6426 2596,-75.6427 2592.5001,-85.6427 2599.5001,-85.6426"/>
</g>
<!-- Node49 -->
<g id="node49" class="node">
<title>Node49</title>
<g id="a_node49"><a xlink:href="exception_8hpp.html" target="_top" xlink:title="alib/lang/exception.hpp">
<polygon fill="#ffffff" stroke="#ff0000" points="2669,-56.5 2669,-75.5 2785,-75.5 2785,-56.5 2669,-56.5"/>
<text text-anchor="middle" x="2727" y="-63.5" font-family="Helvetica,sans-Serif" font-size="10.00" fill="#000000">alib/lang/exception.hpp</text>
</a>
</g>
</g>
<!-- Node48&#45;&gt;Node49 -->
<g id="edge53" class="edge">
<title>Node48&#45;&gt;Node49</title>
<path fill="none" stroke="#191970" d="M2618.5197,-112.3733C2639.7372,-103.3032 2671.7276,-89.6279 2695.4769,-79.4755"/>
<polygon fill="#191970" stroke="#191970" points="2696.9548,-82.6502 2704.7742,-75.5011 2694.2033,-76.2136 2696.9548,-82.6502"/>
</g>
<!-- Node53&#45;&gt;Node49 -->
<g id="edge54" class="edge">
<title>Node53&#45;&gt;Node49</title>
<path fill="none" stroke="#191970" d="M2736.9098,-112.2455C2735.3439,-104.9382 2733.1488,-94.6944 2731.2224,-85.7046"/>
<polygon fill="#191970" stroke="#191970" points="2734.584,-84.6873 2729.0663,-75.6427 2727.7393,-86.1541 2734.584,-84.6873"/>
</g>
<!-- Node54 -->
<g id="node50" class="node">
<title>Node54</title>
<polygon fill="#ffffff" stroke="#bfbfbf" points="2803.5,-56.5 2803.5,-75.5 2850.5,-75.5 2850.5,-56.5 2803.5,-56.5"/>
<text text-anchor="middle" x="2827" y="-63.5" font-family="Helvetica,sans-Serif" font-size="10.00" fill="#000000">errno.h</text>
</g>
<!-- Node53&#45;&gt;Node54 -->
<g id="edge55" class="edge">
<title>Node53&#45;&gt;Node54</title>
<path fill="none" stroke="#191970" d="M2754.3284,-112.2455C2767.8303,-103.6534 2787.7122,-91.0014 2803.2686,-81.1018"/>
<polygon fill="#191970" stroke="#191970" points="2805.2897,-83.9643 2811.8472,-75.6427 2801.5315,-78.0587 2805.2897,-83.9643"/>
</g>
<!-- Node17 -->
<g id="node35" class="node">
<title>Node17</title>
<polygon fill="#ffffff" stroke="#bfbfbf" points="456,-.5 456,-19.5 496,-19.5 496,-.5 456,-.5"/>
<text text-anchor="middle" x="476" y="-7.5" font-family="Helvetica,sans-Serif" font-size="10.00" fill="#000000">limits</text>
</g>
<!-- Node16&#45;&gt;Node17 -->
<g id="edge34" class="edge">
<title>Node16&#45;&gt;Node17</title>
<path fill="none" stroke="#191970" d="M476,-56.2455C476,-48.9382 476,-38.6944 476,-29.7046"/>
<polygon fill="#191970" stroke="#191970" points="479.5001,-29.6426 476,-19.6427 472.5001,-29.6427 479.5001,-29.6426"/>
</g>
<!-- Node28&#45;&gt;Node12 -->
<g id="edge39" class="edge">
<title>Node28&#45;&gt;Node12</title>
<path fill="none" stroke="#191970" d="M1344.9863,-56.4369C1402.2326,-45.0284 1496.3652,-26.2689 1545.6374,-16.4495"/>
<polygon fill="#191970" stroke="#191970" points="1546.6035,-19.8259 1555.7266,-14.4388 1545.2353,-12.9609 1546.6035,-19.8259"/>
</g>
<!-- Node35&#45;&gt;Node12 -->
<g id="edge47" class="edge">
<title>Node35&#45;&gt;Node12</title>
<path fill="none" stroke="#191970" d="M1811.0137,-56.4369C1753.7674,-45.0284 1659.6348,-26.2689 1610.3626,-16.4495"/>
<polygon fill="#191970" stroke="#191970" points="1610.7647,-12.9609 1600.2734,-14.4388 1609.3965,-19.8259 1610.7647,-12.9609"/>
</g>
<!-- Node38&#45;&gt;Node12 -->
<g id="edge48" class="edge">
<title>Node38&#45;&gt;Node12</title>
<path fill="none" stroke="#191970" d="M2050.3583,-57.239C2047.1946,-56.8034 2044.0583,-56.3869 2041,-56 1879.833,-35.6113 1686.1498,-18.8681 1610.5016,-12.6255"/>
<polygon fill="#191970" stroke="#191970" points="1610.4675,-9.111 1600.2148,-11.7814 1609.895,-16.0876 1610.4675,-9.111"/>
</g>
</g>
</svg>
