<?xml version="1.0" encoding="UTF-8" standalone="no"?>
<!DOCTYPE svg PUBLIC "-//W3C//DTD SVG 1.1//EN"
 "http://www.w3.org/Graphics/SVG/1.1/DTD/svg11.dtd">
<!-- Generated by graphviz version 2.40.1 (20161225.0304)
 -->
<!-- Title: ansilogger.hpp Pages: 1 -->
<svg width="3179pt" height="476pt"
 viewBox="0.00 0.00 3179.05 476.00" xmlns="http://www.w3.org/2000/svg" xmlns:xlink="http://www.w3.org/1999/xlink">
<g id="graph0" class="graph" transform="scale(1 1) rotate(0) translate(4 472)">
<title>ansilogger.hpp</title>
<polygon fill="#ffffff" stroke="transparent" points="-4,4 -4,-472 3175.0462,-472 3175.0462,4 -4,4"/>
<!-- Node0 -->
<g id="node1" class="node">
<title>Node0</title>
<polygon fill="#bfbfbf" stroke="#000000" points="532.0462,-448.5 532.0462,-467.5 611.0462,-467.5 611.0462,-448.5 532.0462,-448.5"/>
<text text-anchor="middle" x="571.5462" y="-455.5" font-family="Helvetica,sans-Serif" font-size="10.00" fill="#000000">ansilogger.hpp</text>
</g>
<!-- Node1 -->
<g id="node2" class="node">
<title>Node1</title>
<g id="a_node2"><a xlink:href="alox_2alox_8hpp.html" target="_top" xlink:title="alib/alox/alox.hpp">
<polygon fill="#ffffff" stroke="#000000" points="525.5462,-336.5 525.5462,-355.5 617.5462,-355.5 617.5462,-336.5 525.5462,-336.5"/>
<text text-anchor="middle" x="571.5462" y="-343.5" font-family="Helvetica,sans-Serif" font-size="10.00" fill="#000000">alib/alox/alox.hpp</text>
</a>
</g>
</g>
<!-- Node0&#45;&gt;Node1 -->
<g id="edge1" class="edge">
<title>Node0&#45;&gt;Node1</title>
<path fill="none" stroke="#191970" d="M571.5462,-448.4509C571.5462,-430.184 571.5462,-389.9553 571.5462,-365.6976"/>
<polygon fill="#191970" stroke="#191970" points="575.0463,-365.5249 571.5462,-355.5249 568.0463,-365.5249 575.0463,-365.5249"/>
</g>
<!-- Node93 -->
<g id="node3" class="node">
<title>Node93</title>
<g id="a_node3"><a xlink:href="stringio_8hpp.html" target="_top" xlink:title="alib/strings/util/stringio.hpp">
<polygon fill="#ffffff" stroke="#000000" points="384.0462,-392.5 384.0462,-411.5 517.0462,-411.5 517.0462,-392.5 384.0462,-392.5"/>
<text text-anchor="middle" x="450.5462" y="-399.5" font-family="Helvetica,sans-Serif" font-size="10.00" fill="#000000">alib/strings/util/stringio.hpp</text>
</a>
</g>
</g>
<!-- Node0&#45;&gt;Node93 -->
<g id="edge2" class="edge">
<title>Node0&#45;&gt;Node93</title>
<path fill="none" stroke="#191970" d="M550.7456,-448.3733C531.3219,-439.3838 502.1238,-425.8706 480.2498,-415.7471"/>
<polygon fill="#191970" stroke="#191970" points="481.6207,-412.5249 471.0754,-411.5011 478.6806,-418.8776 481.6207,-412.5249"/>
</g>
<!-- Node96 -->
<g id="node4" class="node">
<title>Node96</title>
<g id="a_node4"><a xlink:href="textlogger_8hpp.html" target="_top" xlink:title="alib/alox/core/textlogger/textlogger.hpp">
<polygon fill="#ffffff" stroke="#000000" points="788.5462,-392.5 788.5462,-411.5 972.5462,-411.5 972.5462,-392.5 788.5462,-392.5"/>
<text text-anchor="middle" x="880.5462" y="-399.5" font-family="Helvetica,sans-Serif" font-size="10.00" fill="#000000">alib/alox/core/textlogger/textlogger.hpp</text>
</a>
</g>
</g>
<!-- Node0&#45;&gt;Node96 -->
<g id="edge3" class="edge">
<title>Node0&#45;&gt;Node96</title>
<path fill="none" stroke="#191970" d="M611.31,-450.7936C663.653,-441.3075 756.2475,-424.5266 818.0123,-413.333"/>
<polygon fill="#191970" stroke="#191970" points="818.8132,-416.745 828.0288,-411.5177 817.5649,-409.8572 818.8132,-416.745"/>
</g>
<!-- Node2 -->
<g id="node5" class="node">
<title>Node2</title>
<g id="a_node5"><a xlink:href="alib_8hpp.html" target="_top" xlink:title="alib/alib.hpp">
<polygon fill="#ffffff" stroke="#000000" points="1606.5462,-56.5 1606.5462,-75.5 1674.5462,-75.5 1674.5462,-56.5 1606.5462,-56.5"/>
<text text-anchor="middle" x="1640.5462" y="-63.5" font-family="Helvetica,sans-Serif" font-size="10.00" fill="#000000">alib/alib.hpp</text>
</a>
</g>
</g>
<!-- Node1&#45;&gt;Node2 -->
<g id="edge4" class="edge">
<title>Node1&#45;&gt;Node2</title>
<path fill="none" stroke="#191970" d="M617.5647,-338.832C687.9165,-327.6943 814.9252,-306.8052 822.5462,-300 845.4085,-279.585 842.5462,-264.6506 842.5462,-234 842.5462,-234 842.5462,-234 842.5462,-178 842.5462,-101.2584 1428.7821,-73.7895 1596.3208,-67.5062"/>
<polygon fill="#191970" stroke="#191970" points="1596.648,-70.9966 1606.5124,-67.1309 1596.3904,-64.0014 1596.648,-70.9966"/>
</g>
<!-- Node58 -->
<g id="node6" class="node">
<title>Node58</title>
<g id="a_node6"><a xlink:href="alox__symbols_8hpp.html" target="_top" xlink:title="internals/alox_symbols.hpp">
<polygon fill="#ffffff" stroke="#000000" points="679.0462,-280.5 679.0462,-299.5 814.0462,-299.5 814.0462,-280.5 679.0462,-280.5"/>
<text text-anchor="middle" x="746.5462" y="-287.5" font-family="Helvetica,sans-Serif" font-size="10.00" fill="#000000">internals/alox_symbols.hpp</text>
</a>
</g>
</g>
<!-- Node1&#45;&gt;Node58 -->
<g id="edge5" class="edge">
<title>Node1&#45;&gt;Node58</title>
<path fill="none" stroke="#191970" d="M601.6298,-336.3733C630.7296,-327.0613 674.9985,-312.8953 706.9493,-302.671"/>
<polygon fill="#191970" stroke="#191970" points="708.3977,-305.8824 716.8552,-299.5011 706.2642,-299.2155 708.3977,-305.8824"/>
</g>
<!-- Node59 -->
<g id="node7" class="node">
<title>Node59</title>
<g id="a_node7"><a xlink:href="alox__macros_8hpp.html" target="_top" xlink:title="internals/alox_macros.hpp">
<polygon fill="#ffffff" stroke="#000000" points="181.0462,-280.5 181.0462,-299.5 312.0462,-299.5 312.0462,-280.5 181.0462,-280.5"/>
<text text-anchor="middle" x="246.5462" y="-287.5" font-family="Helvetica,sans-Serif" font-size="10.00" fill="#000000">internals/alox_macros.hpp</text>
</a>
</g>
</g>
<!-- Node1&#45;&gt;Node59 -->
<g id="edge6" class="edge">
<title>Node1&#45;&gt;Node59</title>
<path fill="none" stroke="#191970" d="M525.4062,-337.733C522.0699,-337.1438 518.7566,-336.5611 515.5462,-336 446.4552,-323.9239 367.3188,-310.4322 312.8583,-301.2002"/>
<polygon fill="#191970" stroke="#191970" points="313.4286,-297.747 302.9844,-299.5273 312.2592,-304.6487 313.4286,-297.747"/>
</g>
<!-- Node60 -->
<g id="node8" class="node">
<title>Node60</title>
<g id="a_node8"><a xlink:href="configuration_8hpp.html" target="_top" xlink:title="alib/config/configuration.hpp">
<polygon fill="#ffffff" stroke="#000000" points="414.5462,-224.5 414.5462,-243.5 552.5462,-243.5 552.5462,-224.5 414.5462,-224.5"/>
<text text-anchor="middle" x="483.5462" y="-231.5" font-family="Helvetica,sans-Serif" font-size="10.00" fill="#000000">alib/config/configuration.hpp</text>
</a>
</g>
</g>
<!-- Node1&#45;&gt;Node60 -->
<g id="edge7" class="edge">
<title>Node1&#45;&gt;Node60</title>
<path fill="none" stroke="#191970" d="M579.7468,-336.3366C590.1702,-322.8137 605.4602,-297.896 593.5462,-280 582.9964,-264.1532 565.8298,-253.7555 548.1622,-246.9369"/>
<polygon fill="#191970" stroke="#191970" points="548.929,-243.4975 538.3342,-243.5052 546.6213,-250.1062 548.929,-243.4975"/>
</g>
<!-- Node75 -->
<g id="node9" class="node">
<title>Node75</title>
<g id="a_node9"><a xlink:href="aloxtypesandenums_8hpp.html" target="_top" xlink:title="aloxtypesandenums.hpp">
<polygon fill="#ffffff" stroke="#000000" points="396.5462,-280.5 396.5462,-299.5 518.5462,-299.5 518.5462,-280.5 396.5462,-280.5"/>
<text text-anchor="middle" x="457.5462" y="-287.5" font-family="Helvetica,sans-Serif" font-size="10.00" fill="#000000">aloxtypesandenums.hpp</text>
</a>
</g>
</g>
<!-- Node1&#45;&gt;Node75 -->
<g id="edge8" class="edge">
<title>Node1&#45;&gt;Node75</title>
<path fill="none" stroke="#191970" d="M551.9489,-336.3733C533.8131,-327.4644 506.6327,-314.1127 486.0875,-304.0203"/>
<polygon fill="#191970" stroke="#191970" points="487.4065,-300.7688 476.8878,-299.5011 484.3202,-307.0517 487.4065,-300.7688"/>
</g>
<!-- Node76 -->
<g id="node10" class="node">
<title>Node76</title>
<g id="a_node10"><a xlink:href="log_8hpp.html" target="_top" xlink:title="log.hpp">
<polygon fill="#ffffff" stroke="#000000" points="536.5462,-280.5 536.5462,-299.5 584.5462,-299.5 584.5462,-280.5 536.5462,-280.5"/>
<text text-anchor="middle" x="560.5462" y="-287.5" font-family="Helvetica,sans-Serif" font-size="10.00" fill="#000000">log.hpp</text>
</a>
</g>
</g>
<!-- Node1&#45;&gt;Node76 -->
<g id="edge9" class="edge">
<title>Node1&#45;&gt;Node76</title>
<path fill="none" stroke="#191970" d="M564.3633,-336.2455C561.5169,-328.9382 559.1005,-318.6944 557.9373,-309.7046"/>
<polygon fill="#191970" stroke="#191970" points="561.4213,-309.3581 557.1952,-299.6427 554.4403,-309.8731 561.4213,-309.3581"/>
</g>
<!-- Node77 -->
<g id="node11" class="node">
<title>Node77</title>
<g id="a_node11"><a xlink:href="lox_8hpp.html" target="_top" xlink:title="lox.hpp">
<polygon fill="#ffffff" stroke="#ff0000" points="330.5462,-280.5 330.5462,-299.5 378.5462,-299.5 378.5462,-280.5 330.5462,-280.5"/>
<text text-anchor="middle" x="354.5462" y="-287.5" font-family="Helvetica,sans-Serif" font-size="10.00" fill="#000000">lox.hpp</text>
</a>
</g>
</g>
<!-- Node1&#45;&gt;Node77 -->
<g id="edge10" class="edge">
<title>Node1&#45;&gt;Node77</title>
<path fill="none" stroke="#191970" d="M525.3316,-336.7751C488.3849,-328.4179 435.3581,-315.4721 386.5092,-302.1763"/>
<polygon fill="#191970" stroke="#191970" points="387.3708,-298.7834 376.8012,-299.5137 385.5193,-305.5341 387.3708,-298.7834"/>
</g>
<!-- Node94 -->
<g id="node46" class="node">
<title>Node94</title>
<g id="a_node46"><a xlink:href="std__iostream_8hpp.html" target="_top" xlink:title="alib/compatibility/std_iostream.hpp">
<polygon fill="#ffffff" stroke="#ff0000" points="340.0462,-336.5 340.0462,-355.5 507.0462,-355.5 507.0462,-336.5 340.0462,-336.5"/>
<text text-anchor="middle" x="423.5462" y="-343.5" font-family="Helvetica,sans-Serif" font-size="10.00" fill="#000000">alib/compatibility/std_iostream.hpp</text>
</a>
</g>
</g>
<!-- Node93&#45;&gt;Node94 -->
<g id="edge60" class="edge">
<title>Node93&#45;&gt;Node94</title>
<path fill="none" stroke="#191970" d="M445.8432,-392.2455C442.2039,-384.6973 437.0538,-374.0158 432.62,-364.8197"/>
<polygon fill="#191970" stroke="#191970" points="435.6911,-363.1303 428.1954,-355.6427 429.3857,-366.1704 435.6911,-363.1303"/>
</g>
<!-- Node96&#45;&gt;Node1 -->
<g id="edge61" class="edge">
<title>Node96&#45;&gt;Node1</title>
<path fill="none" stroke="#191970" d="M827.7783,-392.4369C772.1664,-382.3583 684.8985,-366.5428 627.9514,-356.2223"/>
<polygon fill="#191970" stroke="#191970" points="628.4991,-352.7646 618.0352,-354.4252 627.2508,-359.6524 628.4991,-352.7646"/>
</g>
<!-- Node89 -->
<g id="node45" class="node">
<title>Node89</title>
<g id="a_node45"><a xlink:href="logger_8hpp.html" target="_top" xlink:title="alib/alox/core/logger.hpp">
<polygon fill="#ffffff" stroke="#ff0000" points="589.5462,-224.5 589.5462,-243.5 711.5462,-243.5 711.5462,-224.5 589.5462,-224.5"/>
<text text-anchor="middle" x="650.5462" y="-231.5" font-family="Helvetica,sans-Serif" font-size="10.00" fill="#000000">alib/alox/core/logger.hpp</text>
</a>
</g>
</g>
<!-- Node96&#45;&gt;Node89 -->
<g id="edge62" class="edge">
<title>Node96&#45;&gt;Node89</title>
<path fill="none" stroke="#191970" d="M879.1866,-392.3456C875.2864,-368.6357 861.7082,-307.4819 822.5462,-280 793.0811,-259.3229 754.8312,-247.9389 721.886,-241.6718"/>
<polygon fill="#191970" stroke="#191970" points="722.3059,-238.1917 711.8475,-239.8866 721.0802,-245.0835 722.3059,-238.1917"/>
</g>
<!-- Node97 -->
<g id="node47" class="node">
<title>Node97</title>
<g id="a_node47"><a xlink:href="calendar_8hpp.html" target="_top" xlink:title="alib/time/calendar.hpp">
<polygon fill="#ffffff" stroke="#ff0000" points="909.0462,-336.5 909.0462,-355.5 1020.0462,-355.5 1020.0462,-336.5 909.0462,-336.5"/>
<text text-anchor="middle" x="964.5462" y="-343.5" font-family="Helvetica,sans-Serif" font-size="10.00" fill="#000000">alib/time/calendar.hpp</text>
</a>
</g>
</g>
<!-- Node96&#45;&gt;Node97 -->
<g id="edge63" class="edge">
<title>Node96&#45;&gt;Node97</title>
<path fill="none" stroke="#191970" d="M895.1779,-392.2455C907.9456,-383.7337 926.69,-371.2375 941.4761,-361.3801"/>
<polygon fill="#191970" stroke="#191970" points="943.7031,-364.1019 950.0822,-355.6427 939.8202,-358.2775 943.7031,-364.1019"/>
</g>
<!-- Node99 -->
<g id="node48" class="node">
<title>Node99</title>
<g id="a_node48"><a xlink:href="ticksconverter_8hpp.html" target="_top" xlink:title="alib/time/ticksconverter.hpp">
<polygon fill="#ffffff" stroke="#ff0000" points="1038.5462,-336.5 1038.5462,-355.5 1174.5462,-355.5 1174.5462,-336.5 1038.5462,-336.5"/>
<text text-anchor="middle" x="1106.5462" y="-343.5" font-family="Helvetica,sans-Serif" font-size="10.00" fill="#000000">alib/time/ticksconverter.hpp</text>
</a>
</g>
</g>
<!-- Node96&#45;&gt;Node99 -->
<g id="edge64" class="edge">
<title>Node96&#45;&gt;Node99</title>
<path fill="none" stroke="#191970" d="M919.1402,-392.4369C957.5746,-382.9133 1016.6822,-368.2672 1058.2172,-357.9753"/>
<polygon fill="#191970" stroke="#191970" points="1059.2468,-361.3261 1068.1114,-355.5237 1057.5631,-354.5316 1059.2468,-361.3261"/>
</g>
<!-- Node100 -->
<g id="node49" class="node">
<title>Node100</title>
<g id="a_node49"><a xlink:href="formatterjavastyle_8hpp.html" target="_top" xlink:title="alib/strings/format/formatterjavastyle.hpp">
<polygon fill="#ffffff" stroke="#ff0000" points="1192.5462,-336.5 1192.5462,-355.5 1386.5462,-355.5 1386.5462,-336.5 1192.5462,-336.5"/>
<text text-anchor="middle" x="1289.5462" y="-343.5" font-family="Helvetica,sans-Serif" font-size="10.00" fill="#000000">alib/strings/format/formatterjavastyle.hpp</text>
</a>
</g>
</g>
<!-- Node96&#45;&gt;Node100 -->
<g id="edge65" class="edge">
<title>Node96&#45;&gt;Node100</title>
<path fill="none" stroke="#191970" d="M950.3911,-392.4369C1022.447,-382.571 1134.6537,-367.2078 1210.0619,-356.8829"/>
<polygon fill="#191970" stroke="#191970" points="1210.5567,-360.3479 1219.9894,-355.5237 1209.607,-353.4126 1210.5567,-360.3479"/>
</g>
<!-- Node103 -->
<g id="node50" class="node">
<title>Node103</title>
<g id="a_node50"><a xlink:href="formatterpythonstyle_8hpp.html" target="_top" xlink:title="alib/strings/format/formatterpythonstyle.hpp">
<polygon fill="#ffffff" stroke="#ff0000" points="646.5462,-336.5 646.5462,-355.5 852.5462,-355.5 852.5462,-336.5 646.5462,-336.5"/>
<text text-anchor="middle" x="749.5462" y="-343.5" font-family="Helvetica,sans-Serif" font-size="10.00" fill="#000000">alib/strings/format/formatterpythonstyle.hpp</text>
</a>
</g>
</g>
<!-- Node96&#45;&gt;Node103 -->
<g id="edge66" class="edge">
<title>Node96&#45;&gt;Node103</title>
<path fill="none" stroke="#191970" d="M858.0265,-392.3733C836.809,-383.3032 804.8186,-369.6279 781.0694,-359.4755"/>
<polygon fill="#191970" stroke="#191970" points="782.3429,-356.2136 771.7721,-355.5011 779.5914,-362.6502 782.3429,-356.2136"/>
</g>
<!-- Node3 -->
<g id="node12" class="node">
<title>Node3</title>
<polygon fill="#ffffff" stroke="#bfbfbf" points="2871.5462,-.5 2871.5462,-19.5 2923.5462,-19.5 2923.5462,-.5 2871.5462,-.5"/>
<text text-anchor="middle" x="2897.5462" y="-7.5" font-family="Helvetica,sans-Serif" font-size="10.00" fill="#000000">assert.h</text>
</g>
<!-- Node2&#45;&gt;Node3 -->
<g id="edge11" class="edge">
<title>Node2&#45;&gt;Node3</title>
<path fill="none" stroke="#191970" d="M1674.5916,-65.8239C1844.6824,-64.7778 2604.0561,-58.1053 2861.2875,-19.7774"/>
<polygon fill="#191970" stroke="#191970" points="2861.9785,-23.2123 2871.3257,-18.2243 2860.9081,-16.2946 2861.9785,-23.2123"/>
</g>
<!-- Node4 -->
<g id="node13" class="node">
<title>Node4</title>
<polygon fill="#ffffff" stroke="#bfbfbf" points="2942.0462,-.5 2942.0462,-19.5 2987.0462,-19.5 2987.0462,-.5 2942.0462,-.5"/>
<text text-anchor="middle" x="2964.5462" y="-7.5" font-family="Helvetica,sans-Serif" font-size="10.00" fill="#000000">iosfwd</text>
</g>
<!-- Node2&#45;&gt;Node4 -->
<g id="edge12" class="edge">
<title>Node2&#45;&gt;Node4</title>
<path fill="none" stroke="#191970" d="M1674.8183,-65.3269C1862.7581,-61.5641 2765.5517,-42.5443 2932.113,-19.3947"/>
<polygon fill="#191970" stroke="#191970" points="2932.6569,-22.8523 2942.004,-17.8641 2931.5863,-15.9346 2932.6569,-22.8523"/>
</g>
<!-- Node5 -->
<g id="node14" class="node">
<title>Node5</title>
<polygon fill="#ffffff" stroke="#bfbfbf" points="3005.5462,-.5 3005.5462,-19.5 3051.5462,-19.5 3051.5462,-.5 3005.5462,-.5"/>
<text text-anchor="middle" x="3028.5462" y="-7.5" font-family="Helvetica,sans-Serif" font-size="10.00" fill="#000000">cstdint</text>
</g>
<!-- Node2&#45;&gt;Node5 -->
<g id="edge13" class="edge">
<title>Node2&#45;&gt;Node5</title>
<path fill="none" stroke="#191970" d="M1674.5656,-65.393C1867.5116,-61.8792 2821.5313,-43.5314 2995.2217,-19.6041"/>
<polygon fill="#191970" stroke="#191970" points="2995.9514,-23.0332 3005.3049,-18.0571 2994.8897,-16.1142 2995.9514,-23.0332"/>
</g>
<!-- Node6 -->
<g id="node15" class="node">
<title>Node6</title>
<g id="a_node15"><a xlink:href="prepro_8hpp.html" target="_top" xlink:title="alib/lang/prepro.hpp">
<polygon fill="#ffffff" stroke="#000000" points="3070.0462,-.5 3070.0462,-19.5 3171.0462,-19.5 3171.0462,-.5 3070.0462,-.5"/>
<text text-anchor="middle" x="3120.5462" y="-7.5" font-family="Helvetica,sans-Serif" font-size="10.00" fill="#000000">alib/lang/prepro.hpp</text>
</a>
</g>
</g>
<!-- Node2&#45;&gt;Node6 -->
<g id="edge14" class="edge">
<title>Node2&#45;&gt;Node6</title>
<path fill="none" stroke="#191970" d="M1674.6034,-65.5114C1860.8854,-62.7466 2758.7066,-48.2105 3059.8422,-19.9017"/>
<polygon fill="#191970" stroke="#191970" points="3060.2537,-23.3783 3069.8703,-18.9318 3059.5798,-16.4109 3060.2537,-23.3783"/>
</g>
<!-- Node7 -->
<g id="node16" class="node">
<title>Node7</title>
<g id="a_node16"><a xlink:href="types_8hpp.html" target="_top" xlink:title="alib/lang/types.hpp">
<polygon fill="#ffffff" stroke="#000000" points="405.5462,-.5 405.5462,-19.5 503.5462,-19.5 503.5462,-.5 405.5462,-.5"/>
<text text-anchor="middle" x="454.5462" y="-7.5" font-family="Helvetica,sans-Serif" font-size="10.00" fill="#000000">alib/lang/types.hpp</text>
</a>
</g>
</g>
<!-- Node2&#45;&gt;Node7 -->
<g id="edge15" class="edge">
<title>Node2&#45;&gt;Node7</title>
<path fill="none" stroke="#191970" d="M1606.5064,-65.2095C1444.817,-61.3647 752.6561,-43.8691 513.8529,-19.9819"/>
<polygon fill="#191970" stroke="#191970" points="514.1529,-16.4944 503.8462,-18.9487 513.4338,-23.4574 514.1529,-16.4944"/>
</g>
<!-- Node8 -->
<g id="node17" class="node">
<title>Node8</title>
<g id="a_node17"><a xlink:href="assert_8hpp.html" target="_top" xlink:title="alib/debug/assert.hpp">
<polygon fill="#ffffff" stroke="#000000" points="521.5462,-.5 521.5462,-19.5 631.5462,-19.5 631.5462,-.5 521.5462,-.5"/>
<text text-anchor="middle" x="576.5462" y="-7.5" font-family="Helvetica,sans-Serif" font-size="10.00" fill="#000000">alib/debug/assert.hpp</text>
</a>
</g>
</g>
<!-- Node2&#45;&gt;Node8 -->
<g id="edge16" class="edge">
<title>Node2&#45;&gt;Node8</title>
<path fill="none" stroke="#191970" d="M1606.344,-65.7764C1479.7928,-64.6653 1026.0129,-58.1652 641.8572,-20.0233"/>
<polygon fill="#191970" stroke="#191970" points="641.9541,-16.5156 631.655,-19.0012 641.2563,-23.4807 641.9541,-16.5156"/>
</g>
<!-- Node9 -->
<g id="node18" class="node">
<title>Node9</title>
<g id="a_node18"><a xlink:href="rtti_8hpp.html" target="_top" xlink:title="alib/lang/rtti.hpp">
<polygon fill="#ffffff" stroke="#ff0000" points="649.5462,-.5 649.5462,-19.5 735.5462,-19.5 735.5462,-.5 649.5462,-.5"/>
<text text-anchor="middle" x="692.5462" y="-7.5" font-family="Helvetica,sans-Serif" font-size="10.00" fill="#000000">alib/lang/rtti.hpp</text>
</a>
</g>
</g>
<!-- Node2&#45;&gt;Node9 -->
<g id="edge17" class="edge">
<title>Node2&#45;&gt;Node9</title>
<path fill="none" stroke="#191970" d="M1606.4129,-64.8824C1466.516,-60.2057 935.8434,-41.5007 745.7462,-19.9495"/>
<polygon fill="#191970" stroke="#191970" points="745.9442,-16.4487 735.604,-18.7571 745.1269,-23.4009 745.9442,-16.4487"/>
</g>
<!-- Node13 -->
<g id="node19" class="node">
<title>Node13</title>
<g id="a_node19"><a xlink:href="singleton_8hpp.html" target="_top" xlink:title="alib/lang/singleton.hpp">
<polygon fill="#ffffff" stroke="#ff0000" points="754.0462,-.5 754.0462,-19.5 867.0462,-19.5 867.0462,-.5 754.0462,-.5"/>
<text text-anchor="middle" x="810.5462" y="-7.5" font-family="Helvetica,sans-Serif" font-size="10.00" fill="#000000">alib/lang/singleton.hpp</text>
</a>
</g>
</g>
<!-- Node2&#45;&gt;Node13 -->
<g id="edge18" class="edge">
<title>Node2&#45;&gt;Node13</title>
<path fill="none" stroke="#191970" d="M1606.1885,-65.0365C1499.6581,-61.8152 1165.3128,-49.9482 877.6006,-20.0173"/>
<polygon fill="#191970" stroke="#191970" points="877.6967,-16.5082 867.3859,-18.9449 876.9658,-23.47 877.6967,-16.5082"/>
</g>
<!-- Node15 -->
<g id="node20" class="node">
<title>Node15</title>
<g id="a_node20"><a xlink:href="enums_8hpp.html" target="_top" xlink:title="alib/lang/enums.hpp">
<polygon fill="#ffffff" stroke="#000000" points="885.5462,-.5 885.5462,-19.5 989.5462,-19.5 989.5462,-.5 885.5462,-.5"/>
<text text-anchor="middle" x="937.5462" y="-7.5" font-family="Helvetica,sans-Serif" font-size="10.00" fill="#000000">alib/lang/enums.hpp</text>
</a>
</g>
</g>
<!-- Node2&#45;&gt;Node15 -->
<g id="edge19" class="edge">
<title>Node2&#45;&gt;Node15</title>
<path fill="none" stroke="#191970" d="M1606.3966,-64.6121C1510.4911,-60.4856 1230.6142,-46.8724 999.5462,-20 999.4447,-19.9882 999.3431,-19.9763 999.2414,-19.9644"/>
<polygon fill="#191970" stroke="#191970" points="999.9569,-16.5274 989.595,-18.7368 999.0731,-23.4713 999.9569,-16.5274"/>
</g>
<!-- Node16 -->
<g id="node21" class="node">
<title>Node16</title>
<g id="a_node21"><a xlink:href="strings_2strings_8hpp.html" target="_top" xlink:title="alib/strings/strings.hpp">
<polygon fill="#ffffff" stroke="#ff0000" points="1008.0462,-.5 1008.0462,-19.5 1123.0462,-19.5 1123.0462,-.5 1008.0462,-.5"/>
<text text-anchor="middle" x="1065.5462" y="-7.5" font-family="Helvetica,sans-Serif" font-size="10.00" fill="#000000">alib/strings/strings.hpp</text>
</a>
</g>
</g>
<!-- Node2&#45;&gt;Node16 -->
<g id="edge20" class="edge">
<title>Node2&#45;&gt;Node16</title>
<path fill="none" stroke="#191970" d="M1606.2851,-63.5855C1525.7769,-57.7647 1318.0641,-41.8918 1133.428,-20.0427"/>
<polygon fill="#191970" stroke="#191970" points="1133.6052,-16.5392 1123.2612,-18.8307 1132.7765,-23.49 1133.6052,-16.5392"/>
</g>
<!-- Node25 -->
<g id="node22" class="node">
<title>Node25</title>
<g id="a_node22"><a xlink:href="astring_8hpp.html" target="_top" xlink:title="alib/strings/astring.hpp">
<polygon fill="#ffffff" stroke="#ff0000" points="1141.0462,-.5 1141.0462,-19.5 1256.0462,-19.5 1256.0462,-.5 1141.0462,-.5"/>
<text text-anchor="middle" x="1198.5462" y="-7.5" font-family="Helvetica,sans-Serif" font-size="10.00" fill="#000000">alib/strings/astring.hpp</text>
</a>
</g>
</g>
<!-- Node2&#45;&gt;Node25 -->
<g id="edge21" class="edge">
<title>Node2&#45;&gt;Node25</title>
<path fill="none" stroke="#191970" d="M1606.3824,-62.1117C1542.101,-54.7302 1398.5204,-37.9334 1266.564,-20.1091"/>
<polygon fill="#191970" stroke="#191970" points="1266.6557,-16.5896 1256.2761,-18.7141 1265.7151,-23.5261 1266.6557,-16.5896"/>
</g>
<!-- Node27 -->
<g id="node23" class="node">
<title>Node27</title>
<g id="a_node23"><a xlink:href="preallocatedstring_8hpp.html" target="_top" xlink:title="alib/strings/preallocatedstring.hpp">
<polygon fill="#ffffff" stroke="#000000" points="1274.5462,-.5 1274.5462,-19.5 1436.5462,-19.5 1436.5462,-.5 1274.5462,-.5"/>
<text text-anchor="middle" x="1355.5462" y="-7.5" font-family="Helvetica,sans-Serif" font-size="10.00" fill="#000000">alib/strings/preallocatedstring.hpp</text>
</a>
</g>
</g>
<!-- Node2&#45;&gt;Node27 -->
<g id="edge22" class="edge">
<title>Node2&#45;&gt;Node27</title>
<path fill="none" stroke="#191970" d="M1606.4516,-59.3007C1558.9225,-49.9617 1472.0726,-32.8964 1414.0739,-21.5002"/>
<polygon fill="#191970" stroke="#191970" points="1414.4409,-18.0054 1403.9537,-19.5117 1413.0913,-24.8741 1414.4409,-18.0054"/>
</g>
<!-- Node28 -->
<g id="node24" class="node">
<title>Node28</title>
<g id="a_node24"><a xlink:href="resources_8hpp.html" target="_top" xlink:title="alib/lang/resources.hpp">
<polygon fill="#ffffff" stroke="#ff0000" points="1455.0462,-.5 1455.0462,-19.5 1572.0462,-19.5 1572.0462,-.5 1455.0462,-.5"/>
<text text-anchor="middle" x="1513.5462" y="-7.5" font-family="Helvetica,sans-Serif" font-size="10.00" fill="#000000">alib/lang/resources.hpp</text>
</a>
</g>
</g>
<!-- Node2&#45;&gt;Node28 -->
<g id="edge23" class="edge">
<title>Node2&#45;&gt;Node28</title>
<path fill="none" stroke="#191970" d="M1618.7141,-56.3733C1598.2359,-47.3435 1567.4064,-33.7494 1544.4143,-23.6111"/>
<polygon fill="#191970" stroke="#191970" points="1545.6555,-20.3333 1535.0934,-19.5011 1542.8312,-26.7383 1545.6555,-20.3333"/>
</g>
<!-- Node32 -->
<g id="node25" class="node">
<title>Node32</title>
<g id="a_node25"><a xlink:href="library_8hpp.html" target="_top" xlink:title="alib/lang/library.hpp">
<polygon fill="#ffffff" stroke="#000000" points="1590.5462,-.5 1590.5462,-19.5 1690.5462,-19.5 1690.5462,-.5 1590.5462,-.5"/>
<text text-anchor="middle" x="1640.5462" y="-7.5" font-family="Helvetica,sans-Serif" font-size="10.00" fill="#000000">alib/lang/library.hpp</text>
</a>
</g>
</g>
<!-- Node2&#45;&gt;Node32 -->
<g id="edge24" class="edge">
<title>Node2&#45;&gt;Node32</title>
<path fill="none" stroke="#191970" d="M1640.5462,-56.2455C1640.5462,-48.9382 1640.5462,-38.6944 1640.5462,-29.7046"/>
<polygon fill="#191970" stroke="#191970" points="1644.0463,-29.6426 1640.5462,-19.6427 1637.0463,-29.6427 1644.0463,-29.6426"/>
</g>
<!-- Node33 -->
<g id="node26" class="node">
<title>Node33</title>
<g id="a_node26"><a xlink:href="stringlib_8hpp.html" target="_top" xlink:title="alib/strings/stringlib.hpp">
<polygon fill="#ffffff" stroke="#000000" points="1709.0462,-.5 1709.0462,-19.5 1828.0462,-19.5 1828.0462,-.5 1709.0462,-.5"/>
<text text-anchor="middle" x="1768.5462" y="-7.5" font-family="Helvetica,sans-Serif" font-size="10.00" fill="#000000">alib/strings/stringlib.hpp</text>
</a>
</g>
</g>
<!-- Node2&#45;&gt;Node33 -->
<g id="edge25" class="edge">
<title>Node2&#45;&gt;Node33</title>
<path fill="none" stroke="#191970" d="M1662.5502,-56.3733C1683.1897,-47.3435 1714.262,-33.7494 1737.4351,-23.6111"/>
<polygon fill="#191970" stroke="#191970" points="1739.0707,-26.7159 1746.8294,-19.5011 1736.2649,-20.3028 1739.0707,-26.7159"/>
</g>
<!-- Node34 -->
<g id="node27" class="node">
<title>Node34</title>
<g id="a_node27"><a xlink:href="boxinglib_8hpp.html" target="_top" xlink:title="alib/boxing/boxinglib.hpp">
<polygon fill="#ffffff" stroke="#ff0000" points="1846.0462,-.5 1846.0462,-19.5 1969.0462,-19.5 1969.0462,-.5 1846.0462,-.5"/>
<text text-anchor="middle" x="1907.5462" y="-7.5" font-family="Helvetica,sans-Serif" font-size="10.00" fill="#000000">alib/boxing/boxinglib.hpp</text>
</a>
</g>
</g>
<!-- Node2&#45;&gt;Node34 -->
<g id="edge26" class="edge">
<title>Node2&#45;&gt;Node34</title>
<path fill="none" stroke="#191970" d="M1674.6331,-58.8507C1719.4061,-49.4601 1798.596,-32.851 1852.0636,-21.6368"/>
<polygon fill="#191970" stroke="#191970" points="1852.9962,-25.0174 1862.0648,-19.5392 1851.5593,-18.1665 1852.9962,-25.0174"/>
</g>
<!-- Node43 -->
<g id="node28" class="node">
<title>Node43</title>
<g id="a_node28"><a xlink:href="langlib_8hpp.html" target="_top" xlink:title="alib/lang/langlib.hpp">
<polygon fill="#ffffff" stroke="#000000" points="1987.5462,-.5 1987.5462,-19.5 2089.5462,-19.5 2089.5462,-.5 1987.5462,-.5"/>
<text text-anchor="middle" x="2038.5462" y="-7.5" font-family="Helvetica,sans-Serif" font-size="10.00" fill="#000000">alib/lang/langlib.hpp</text>
</a>
</g>
</g>
<!-- Node2&#45;&gt;Node43 -->
<g id="edge27" class="edge">
<title>Node2&#45;&gt;Node43</title>
<path fill="none" stroke="#191970" d="M1674.6575,-61.7002C1733.9639,-54.1504 1860.1714,-37.7567 1977.2847,-20.1562"/>
<polygon fill="#191970" stroke="#191970" points="1978.134,-23.5677 1987.4996,-18.6143 1977.0892,-16.6461 1978.134,-23.5677"/>
</g>
<!-- Node44 -->
<g id="node29" class="node">
<title>Node44</title>
<g id="a_node29"><a xlink:href="stringboxing_8hpp.html" target="_top" xlink:title="alib/strings/boxing/stringboxing.hpp">
<polygon fill="#ffffff" stroke="#000000" points="2107.5462,-.5 2107.5462,-19.5 2277.5462,-19.5 2277.5462,-.5 2107.5462,-.5"/>
<text text-anchor="middle" x="2192.5462" y="-7.5" font-family="Helvetica,sans-Serif" font-size="10.00" fill="#000000">alib/strings/boxing/stringboxing.hpp</text>
</a>
</g>
</g>
<!-- Node2&#45;&gt;Node44 -->
<g id="edge28" class="edge">
<title>Node2&#45;&gt;Node44</title>
<path fill="none" stroke="#191970" d="M1674.7386,-62.6352C1749.3154,-55.2814 1932.4462,-37.1426 2097.1728,-20.1373"/>
<polygon fill="#191970" stroke="#191970" points="2097.9069,-23.5801 2107.4942,-19.0707 2097.1874,-16.6172 2097.9069,-23.5801"/>
</g>
<!-- Node45 -->
<g id="node30" class="node">
<title>Node45</title>
<g id="a_node30"><a xlink:href="report_8hpp.html" target="_top" xlink:title="alib/lang/report.hpp">
<polygon fill="#ffffff" stroke="#ff0000" points="2296.0462,-.5 2296.0462,-19.5 2395.0462,-19.5 2395.0462,-.5 2296.0462,-.5"/>
<text text-anchor="middle" x="2345.5462" y="-7.5" font-family="Helvetica,sans-Serif" font-size="10.00" fill="#000000">alib/lang/report.hpp</text>
</a>
</g>
</g>
<!-- Node2&#45;&gt;Node45 -->
<g id="edge29" class="edge">
<title>Node2&#45;&gt;Node45</title>
<path fill="none" stroke="#191970" d="M1674.6268,-64.7368C1769.6631,-60.9672 2045.8176,-48.3314 2286.0535,-19.9412"/>
<polygon fill="#191970" stroke="#191970" points="2286.5075,-23.4119 2296.0222,-18.7515 2285.6779,-16.4613 2286.5075,-23.4119"/>
</g>
<!-- Node47 -->
<g id="node31" class="node">
<title>Node47</title>
<g id="a_node31"><a xlink:href="enumbitwise_8hpp.html" target="_top" xlink:title="alib/lang/enumbitwise.hpp">
<polygon fill="#ffffff" stroke="#ff0000" points="121.0462,-.5 121.0462,-19.5 250.0462,-19.5 250.0462,-.5 121.0462,-.5"/>
<text text-anchor="middle" x="185.5462" y="-7.5" font-family="Helvetica,sans-Serif" font-size="10.00" fill="#000000">alib/lang/enumbitwise.hpp</text>
</a>
</g>
</g>
<!-- Node2&#45;&gt;Node47 -->
<g id="edge30" class="edge">
<title>Node2&#45;&gt;Node47</title>
<path fill="none" stroke="#191970" d="M1606.5072,-65.343C1423.3769,-61.7366 553.0213,-43.6732 260.5449,-20.0763"/>
<polygon fill="#191970" stroke="#191970" points="260.6414,-16.5724 250.3865,-19.2346 260.0633,-23.5485 260.6414,-16.5724"/>
</g>
<!-- Node49 -->
<g id="node32" class="node">
<title>Node49</title>
<g id="a_node32"><a xlink:href="enummetadata_8hpp.html" target="_top" xlink:title="alib/lang/enummetadata.hpp">
<polygon fill="#ffffff" stroke="#ff0000" points="2413.0462,-.5 2413.0462,-19.5 2552.0462,-19.5 2552.0462,-.5 2413.0462,-.5"/>
<text text-anchor="middle" x="2482.5462" y="-7.5" font-family="Helvetica,sans-Serif" font-size="10.00" fill="#000000">alib/lang/enummetadata.hpp</text>
</a>
</g>
</g>
<!-- Node2&#45;&gt;Node49 -->
<g id="edge31" class="edge">
<title>Node2&#45;&gt;Node49</title>
<path fill="none" stroke="#191970" d="M1674.8762,-64.7583C1781.3263,-60.7333 2115.4638,-46.786 2402.6357,-20.1279"/>
<polygon fill="#191970" stroke="#191970" points="2403.2005,-23.5904 2412.831,-19.1742 2402.5485,-16.6209 2403.2005,-23.5904"/>
</g>
<!-- Node50 -->
<g id="node33" class="node">
<title>Node50</title>
<g id="a_node33"><a xlink:href="configlib_8hpp.html" target="_top" xlink:title="alib/config/configlib.hpp">
<polygon fill="#ffffff" stroke="#ff0000" points="268.0462,-.5 268.0462,-19.5 387.0462,-19.5 387.0462,-.5 268.0462,-.5"/>
<text text-anchor="middle" x="327.5462" y="-7.5" font-family="Helvetica,sans-Serif" font-size="10.00" fill="#000000">alib/config/configlib.hpp</text>
</a>
</g>
</g>
<!-- Node2&#45;&gt;Node50 -->
<g id="edge32" class="edge">
<title>Node2&#45;&gt;Node50</title>
<path fill="none" stroke="#191970" d="M1606.5419,-65.2356C1434.9158,-61.3033 662.0024,-42.6916 397.6588,-19.9774"/>
<polygon fill="#191970" stroke="#191970" points="397.6086,-16.4594 387.3391,-19.0649 396.9919,-23.4322 397.6086,-16.4594"/>
</g>
<!-- Node55 -->
<g id="node34" class="node">
<title>Node55</title>
<g id="a_node34"><a xlink:href="systemlib_8hpp.html" target="_top" xlink:title="alib/system/systemlib.hpp">
<polygon fill="#ffffff" stroke="#ff0000" points="2570.0462,-.5 2570.0462,-19.5 2701.0462,-19.5 2701.0462,-.5 2570.0462,-.5"/>
<text text-anchor="middle" x="2635.5462" y="-7.5" font-family="Helvetica,sans-Serif" font-size="10.00" fill="#000000">alib/system/systemlib.hpp</text>
</a>
</g>
</g>
<!-- Node2&#45;&gt;Node55 -->
<g id="edge33" class="edge">
<title>Node2&#45;&gt;Node55</title>
<path fill="none" stroke="#191970" d="M1674.9094,-65.3296C1795.1713,-62.763 2208.4371,-52.0877 2559.699,-20.1044"/>
<polygon fill="#191970" stroke="#191970" points="2560.1734,-23.5757 2569.8115,-19.1761 2559.5334,-16.605 2560.1734,-23.5757"/>
</g>
<!-- Node57 -->
<g id="node35" class="node">
<title>Node57</title>
<g id="a_node35"><a xlink:href="applicables_8hpp.html" target="_top" xlink:title="alib/strings/applicables.hpp">
<polygon fill="#ffffff" stroke="#000000" points="2719.5462,-.5 2719.5462,-19.5 2853.5462,-19.5 2853.5462,-.5 2719.5462,-.5"/>
<text text-anchor="middle" x="2786.5462" y="-7.5" font-family="Helvetica,sans-Serif" font-size="10.00" fill="#000000">alib/strings/applicables.hpp</text>
</a>
</g>
</g>
<!-- Node2&#45;&gt;Node57 -->
<g id="edge34" class="edge">
<title>Node2&#45;&gt;Node57</title>
<path fill="none" stroke="#191970" d="M1674.8022,-65.6214C1806.8977,-63.9319 2295.9893,-55.5565 2709.3868,-20.0254"/>
<polygon fill="#191970" stroke="#191970" points="2709.7839,-23.5042 2719.4445,-19.1542 2709.1798,-16.5303 2709.7839,-23.5042"/>
</g>
<!-- Node60&#45;&gt;Node47 -->
<g id="edge35" class="edge">
<title>Node60&#45;&gt;Node47</title>
<path fill="none" stroke="#191970" d="M414.4965,-225.4719C323.7098,-214.1163 172.727,-194.6858 147.5462,-188 83.1736,-170.9085 45.8174,-187.1979 8.5462,-132 -28.2781,-77.4639 69.5845,-40.1779 134.0736,-22.2503"/>
<polygon fill="#191970" stroke="#191970" points="135.3698,-25.5257 144.1114,-19.5395 133.5447,-18.7678 135.3698,-25.5257"/>
</g>
<!-- Node61 -->
<g id="node36" class="node">
<title>Node61</title>
<g id="a_node36"><a xlink:href="threadlock_8hpp.html" target="_top" xlink:title="alib/threads/threadlock.hpp">
<polygon fill="#ffffff" stroke="#ff0000" points="251.5462,-112.5 251.5462,-131.5 385.5462,-131.5 385.5462,-112.5 251.5462,-112.5"/>
<text text-anchor="middle" x="318.5462" y="-119.5" font-family="Helvetica,sans-Serif" font-size="10.00" fill="#000000">alib/threads/threadlock.hpp</text>
</a>
</g>
</g>
<!-- Node60&#45;&gt;Node61 -->
<g id="edge36" class="edge">
<title>Node60&#45;&gt;Node61</title>
<path fill="none" stroke="#191970" d="M453.9427,-224.3487C432.4191,-216.5106 403.2068,-204.1206 380.5462,-188 361.4508,-174.4157 343.5722,-154.274 331.9676,-139.8171"/>
<polygon fill="#191970" stroke="#191970" points="334.5111,-137.3875 325.598,-131.6597 328.9938,-141.6956 334.5111,-137.3875"/>
</g>
<!-- Node68 -->
<g id="node37" class="node">
<title>Node68</title>
<g id="a_node37"><a xlink:href="substring_8hpp.html" target="_top" xlink:title="alib/strings/substring.hpp">
<polygon fill="#ffffff" stroke="#000000" points="214.0462,-56.5 214.0462,-75.5 339.0462,-75.5 339.0462,-56.5 214.0462,-56.5"/>
<text text-anchor="middle" x="276.5462" y="-63.5" font-family="Helvetica,sans-Serif" font-size="10.00" fill="#000000">alib/strings/substring.hpp</text>
</a>
</g>
</g>
<!-- Node60&#45;&gt;Node68 -->
<g id="edge37" class="edge">
<title>Node60&#45;&gt;Node68</title>
<path fill="none" stroke="#191970" d="M460.7114,-224.4516C445.1593,-216.8034 425.3289,-204.6026 413.5462,-188 393.3956,-159.6063 417.5574,-138.1291 394.5462,-112 380.4344,-95.976 360.0492,-85.4898 340.1807,-78.6457"/>
<polygon fill="#191970" stroke="#191970" points="341.0887,-75.2619 330.4984,-75.5702 338.9695,-81.9334 341.0887,-75.2619"/>
</g>
<!-- Node69 -->
<g id="node38" class="node">
<title>Node69</title>
<g id="a_node38"><a xlink:href="numberformat_8hpp.html" target="_top" xlink:title="alib/strings/numberformat.hpp">
<polygon fill="#ffffff" stroke="#000000" points="422.5462,-168.5 422.5462,-187.5 568.5462,-187.5 568.5462,-168.5 422.5462,-168.5"/>
<text text-anchor="middle" x="495.5462" y="-175.5" font-family="Helvetica,sans-Serif" font-size="10.00" fill="#000000">alib/strings/numberformat.hpp</text>
</a>
</g>
</g>
<!-- Node60&#45;&gt;Node69 -->
<g id="edge38" class="edge">
<title>Node60&#45;&gt;Node69</title>
<path fill="none" stroke="#191970" d="M485.6365,-224.2455C487.2023,-216.9382 489.3974,-206.6944 491.3238,-197.7046"/>
<polygon fill="#191970" stroke="#191970" points="494.8069,-198.1541 493.4799,-187.6427 487.9622,-196.6873 494.8069,-198.1541"/>
</g>
<!-- Node70 -->
<g id="node39" class="node">
<title>Node70</title>
<g id="a_node39"><a xlink:href="variable_8hpp.html" target="_top" xlink:title="alib/config/variable.hpp">
<polygon fill="#ffffff" stroke="#000000" points="604.5462,-56.5 604.5462,-75.5 720.5462,-75.5 720.5462,-56.5 604.5462,-56.5"/>
<text text-anchor="middle" x="662.5462" y="-63.5" font-family="Helvetica,sans-Serif" font-size="10.00" fill="#000000">alib/config/variable.hpp</text>
</a>
</g>
</g>
<!-- Node60&#45;&gt;Node70 -->
<g id="edge39" class="edge">
<title>Node60&#45;&gt;Node70</title>
<path fill="none" stroke="#191970" d="M552.6923,-224.9045C633.371,-213.9589 756.7107,-196.0501 763.5462,-188 796.2389,-149.4981 730.0128,-103.4357 689.9927,-80.4863"/>
<polygon fill="#191970" stroke="#191970" points="691.6134,-77.3826 681.1768,-75.5586 688.198,-83.4928 691.6134,-77.3826"/>
</g>
<!-- Node71 -->
<g id="node40" class="node">
<title>Node71</title>
<g id="a_node40"><a xlink:href="plugins_8hpp.html" target="_top" xlink:title="alib/config/plugins.hpp">
<polygon fill="#ffffff" stroke="#000000" points="606.0462,-112.5 606.0462,-131.5 719.0462,-131.5 719.0462,-112.5 606.0462,-112.5"/>
<text text-anchor="middle" x="662.5462" y="-119.5" font-family="Helvetica,sans-Serif" font-size="10.00" fill="#000000">alib/config/plugins.hpp</text>
</a>
</g>
</g>
<!-- Node60&#45;&gt;Node71 -->
<g id="edge40" class="edge">
<title>Node60&#45;&gt;Node71</title>
<path fill="none" stroke="#191970" d="M552.6233,-226.5197C626.2931,-217.8322 734.1152,-202.794 746.5462,-188 764.6331,-166.4751 731.844,-147.2993 702.0904,-135.2384"/>
<polygon fill="#191970" stroke="#191970" points="703.1947,-131.913 692.6051,-131.5786 700.6748,-138.4438 703.1947,-131.913"/>
</g>
<!-- Node72 -->
<g id="node41" class="node">
<title>Node72</title>
<g id="a_node41"><a xlink:href="plugincontainer_8hpp.html" target="_top" xlink:title="alib/util/plugincontainer.hpp">
<polygon fill="#ffffff" stroke="#ff0000" points="156.5462,-168.5 156.5462,-187.5 290.5462,-187.5 290.5462,-168.5 156.5462,-168.5"/>
<text text-anchor="middle" x="223.5462" y="-175.5" font-family="Helvetica,sans-Serif" font-size="10.00" fill="#000000">alib/util/plugincontainer.hpp</text>
</a>
</g>
</g>
<!-- Node60&#45;&gt;Node72 -->
<g id="edge41" class="edge">
<title>Node60&#45;&gt;Node72</title>
<path fill="none" stroke="#191970" d="M439.146,-224.4369C394.4621,-214.8127 325.4893,-199.957 277.6374,-189.6504"/>
<polygon fill="#191970" stroke="#191970" points="278.276,-186.2078 267.7633,-187.5237 276.8021,-193.0508 278.276,-186.2078"/>
</g>
<!-- Node74 -->
<g id="node42" class="node">
<title>Node74</title>
<g id="a_node42"><a xlink:href="inmemoryplugin_8hpp.html" target="_top" xlink:title="alib/config/inmemoryplugin.hpp">
<polygon fill="#ffffff" stroke="#ff0000" points="587.0462,-168.5 587.0462,-187.5 738.0462,-187.5 738.0462,-168.5 587.0462,-168.5"/>
<text text-anchor="middle" x="662.5462" y="-175.5" font-family="Helvetica,sans-Serif" font-size="10.00" fill="#000000">alib/config/inmemoryplugin.hpp</text>
</a>
</g>
</g>
<!-- Node60&#45;&gt;Node74 -->
<g id="edge42" class="edge">
<title>Node60&#45;&gt;Node74</title>
<path fill="none" stroke="#191970" d="M514.3174,-224.3733C544.2112,-215.021 589.7555,-200.7725 622.4679,-190.5385"/>
<polygon fill="#191970" stroke="#191970" points="623.6777,-193.8273 632.1766,-187.5011 621.5876,-187.1466 623.6777,-193.8273"/>
</g>
<!-- Node76&#45;&gt;Node1 -->
<g id="edge51" class="edge">
<title>Node76&#45;&gt;Node1</title>
<path fill="none" stroke="#191970" d="M567.6854,-299.6427C570.5362,-306.9199 572.9612,-317.155 574.1372,-326.1575"/>
<polygon fill="#191970" stroke="#191970" points="570.6558,-326.5367 574.897,-336.2455 577.636,-326.0109 570.6558,-326.5367"/>
</g>
<!-- Node77&#45;&gt;Node1 -->
<g id="edge52" class="edge">
<title>Node77&#45;&gt;Node1</title>
<path fill="none" stroke="#191970" d="M378.7738,-294.9399C384.7301,-296.6057 390.8914,-298.4374 396.5462,-300 441.1761,-312.3328 492.2932,-324.9962 527.8134,-333.9059"/>
<polygon fill="#191970" stroke="#191970" points="527.3034,-337.3866 537.855,-336.4308 529.0104,-330.5979 527.3034,-337.3866"/>
</g>
<!-- Node77&#45;&gt;Node60 -->
<g id="edge53" class="edge">
<title>Node77&#45;&gt;Node60</title>
<path fill="none" stroke="#191970" d="M376.7221,-280.3733C397.5228,-271.3435 428.8379,-257.7494 452.192,-247.6111"/>
<polygon fill="#191970" stroke="#191970" points="453.8805,-250.6938 461.6597,-243.5011 451.093,-244.2727 453.8805,-250.6938"/>
</g>
<!-- Node78 -->
<g id="node43" class="node">
<title>Node78</title>
<g id="a_node43"><a xlink:href="smartlock_8hpp.html" target="_top" xlink:title="alib/threads/smartlock.hpp">
<polygon fill="#ffffff" stroke="#ff0000" points="259.0462,-224.5 259.0462,-243.5 390.0462,-243.5 390.0462,-224.5 259.0462,-224.5"/>
<text text-anchor="middle" x="324.5462" y="-231.5" font-family="Helvetica,sans-Serif" font-size="10.00" fill="#000000">alib/threads/smartlock.hpp</text>
</a>
</g>
</g>
<!-- Node77&#45;&gt;Node78 -->
<g id="edge54" class="edge">
<title>Node77&#45;&gt;Node78</title>
<path fill="none" stroke="#191970" d="M349.3206,-280.2455C345.2339,-272.617 339.4327,-261.7881 334.4713,-252.5267"/>
<polygon fill="#191970" stroke="#191970" points="337.5194,-250.8047 329.7119,-243.6427 331.349,-254.1103 337.5194,-250.8047"/>
</g>
<!-- Node79 -->
<g id="node44" class="node">
<title>Node79</title>
<g id="a_node44"><a xlink:href="tokenizer_8hpp.html" target="_top" xlink:title="alib/strings/util/tokenizer.hpp">
<polygon fill="#ffffff" stroke="#000000" points="17.5462,-112.5 17.5462,-131.5 157.5462,-131.5 157.5462,-112.5 17.5462,-112.5"/>
<text text-anchor="middle" x="87.5462" y="-119.5" font-family="Helvetica,sans-Serif" font-size="10.00" fill="#000000">alib/strings/util/tokenizer.hpp</text>
</a>
</g>
</g>
<!-- Node77&#45;&gt;Node79 -->
<g id="edge55" class="edge">
<title>Node77&#45;&gt;Node79</title>
<path fill="none" stroke="#191970" d="M330.3619,-281.8723C289.7153,-267.4267 206.3837,-234.3787 147.5462,-188 129.6194,-173.8691 112.4442,-154.1291 101.0987,-139.9246"/>
<polygon fill="#191970" stroke="#191970" points="103.7445,-137.6259 94.8333,-131.8952 98.2258,-141.9323 103.7445,-137.6259"/>
</g>
<!-- Node77&#45;&gt;Node89 -->
<g id="edge56" class="edge">
<title>Node77&#45;&gt;Node89</title>
<path fill="none" stroke="#191970" d="M378.6049,-282.3419C381.6011,-281.497 384.6344,-280.6931 387.5462,-280 451.9374,-264.6721 526.3239,-252.1315 579.5202,-244.0379"/>
<polygon fill="#191970" stroke="#191970" points="580.1664,-247.4801 589.5331,-242.5288 579.1231,-240.5583 580.1664,-247.4801"/>
</g>
<!-- Node68&#45;&gt;Node47 -->
<g id="edge43" class="edge">
<title>Node68&#45;&gt;Node47</title>
<path fill="none" stroke="#191970" d="M260.6952,-56.2455C246.733,-47.6534 226.1734,-35.0014 210.0867,-25.1018"/>
<polygon fill="#191970" stroke="#191970" points="211.5665,-21.9029 201.2156,-19.6427 207.8978,-27.8645 211.5665,-21.9029"/>
</g>
<!-- Node70&#45;&gt;Node50 -->
<g id="edge44" class="edge">
<title>Node70&#45;&gt;Node50</title>
<path fill="none" stroke="#191970" d="M605.3383,-56.4369C546.9216,-46.6717 456.2863,-31.5207 394.5496,-21.2006"/>
<polygon fill="#191970" stroke="#191970" points="394.9584,-17.7204 384.5182,-19.5237 393.8042,-24.6246 394.9584,-17.7204"/>
</g>
<!-- Node71&#45;&gt;Node68 -->
<g id="edge45" class="edge">
<title>Node71&#45;&gt;Node68</title>
<path fill="none" stroke="#191970" d="M606.0051,-113.7971C538.1058,-103.9465 424.0724,-87.4028 349.5704,-76.5942"/>
<polygon fill="#191970" stroke="#191970" points="349.7281,-73.0805 339.3291,-75.1084 348.723,-80.008 349.7281,-73.0805"/>
</g>
<!-- Node71&#45;&gt;Node70 -->
<g id="edge46" class="edge">
<title>Node71&#45;&gt;Node70</title>
<path fill="none" stroke="#191970" d="M662.5462,-112.2455C662.5462,-104.9382 662.5462,-94.6944 662.5462,-85.7046"/>
<polygon fill="#191970" stroke="#191970" points="666.0463,-85.6426 662.5462,-75.6427 659.0463,-85.6427 666.0463,-85.6426"/>
</g>
<!-- Node72&#45;&gt;Node47 -->
<g id="edge47" class="edge">
<title>Node72&#45;&gt;Node47</title>
<path fill="none" stroke="#191970" d="M221.3943,-168.4862C215.3614,-141.8144 198.1929,-65.9117 190.001,-29.695"/>
<polygon fill="#191970" stroke="#191970" points="193.3892,-28.8093 187.7692,-19.8279 186.5617,-30.3537 193.3892,-28.8093"/>
</g>
<!-- Node72&#45;&gt;Node61 -->
<g id="edge48" class="edge">
<title>Node72&#45;&gt;Node61</title>
<path fill="none" stroke="#191970" d="M240.094,-168.2455C254.8061,-159.5731 276.535,-146.7645 293.3967,-136.825"/>
<polygon fill="#191970" stroke="#191970" points="295.3508,-139.736 302.1881,-131.6427 291.7961,-133.7057 295.3508,-139.736"/>
</g>
<!-- Node72&#45;&gt;Node68 -->
<g id="edge49" class="edge">
<title>Node72&#45;&gt;Node68</title>
<path fill="none" stroke="#191970" d="M225.2323,-168.2058C227.7617,-154.9573 233.2597,-130.8191 242.5462,-112 247.569,-101.8212 254.8842,-91.562 261.4436,-83.3232"/>
<polygon fill="#191970" stroke="#191970" points="264.1932,-85.4904 267.8778,-75.5569 258.8028,-81.0246 264.1932,-85.4904"/>
</g>
<!-- Node74&#45;&gt;Node71 -->
<g id="edge50" class="edge">
<title>Node74&#45;&gt;Node71</title>
<path fill="none" stroke="#191970" d="M662.5462,-168.2455C662.5462,-160.9382 662.5462,-150.6944 662.5462,-141.7046"/>
<polygon fill="#191970" stroke="#191970" points="666.0463,-141.6426 662.5462,-131.6427 659.0463,-141.6427 666.0463,-141.6426"/>
</g>
<!-- Node78&#45;&gt;Node61 -->
<g id="edge57" class="edge">
<title>Node78&#45;&gt;Node61</title>
<path fill="none" stroke="#191970" d="M324.0347,-224.4509C323.0561,-206.184 320.901,-165.9553 319.6014,-141.6976"/>
<polygon fill="#191970" stroke="#191970" points="323.0865,-141.3233 319.0565,-131.5249 316.0965,-141.6978 323.0865,-141.3233"/>
</g>
<!-- Node79&#45;&gt;Node68 -->
<g id="edge58" class="edge">
<title>Node79&#45;&gt;Node68</title>
<path fill="none" stroke="#191970" d="M120.0365,-112.3733C151.7364,-102.9807 200.1038,-88.6496 234.6748,-78.4064"/>
<polygon fill="#191970" stroke="#191970" points="235.8863,-81.6979 244.4799,-75.5011 233.8976,-74.9863 235.8863,-81.6979"/>
</g>
<!-- Node89&#45;&gt;Node1 -->
<g id="edge59" class="edge">
<title>Node89&#45;&gt;Node1</title>
<path fill="none" stroke="#191970" d="M648.6899,-243.6987C645.7419,-257.2634 639.0059,-282.2306 626.5462,-300 618.2003,-311.9025 606.0235,-322.5182 595.2476,-330.5442"/>
<polygon fill="#191970" stroke="#191970" points="593.1301,-327.7553 587.0059,-336.4008 597.1848,-333.4613 593.1301,-327.7553"/>
</g>
</g>
</svg>
