<?xml version="1.0" encoding="UTF-8" standalone="no"?>
<!DOCTYPE svg PUBLIC "-//W3C//DTD SVG 1.1//EN"
 "http://www.w3.org/Graphics/SVG/1.1/DTD/svg11.dtd">
<!-- Generated by graphviz version 2.40.1 (20161225.0304)
 -->
<!-- Title: arguments.hpp Pages: 1 -->
<svg width="89pt" height="140pt"
 viewBox="0.00 0.00 89.00 140.00" xmlns="http://www.w3.org/2000/svg" xmlns:xlink="http://www.w3.org/1999/xlink">
<g id="graph0" class="graph" transform="scale(1 1) rotate(0) translate(4 136)">
<title>arguments.hpp</title>
<polygon fill="#ffffff" stroke="transparent" points="-4,4 -4,-136 85,-136 85,4 -4,4"/>
<!-- Node2 -->
<g id="node1" class="node">
<title>Node2</title>
<polygon fill="#bfbfbf" stroke="#000000" points="0,-112.5 0,-131.5 81,-131.5 81,-112.5 0,-112.5"/>
<text text-anchor="middle" x="40.5" y="-119.5" font-family="Helvetica,sans-Serif" font-size="10.00" fill="#000000">arguments.hpp</text>
</g>
<!-- Node3 -->
<g id="node2" class="node">
<title>Node3</title>
<g id="a_node2"><a xlink:href="cliapp_8hpp.html" target="_top" xlink:title="cliapp.hpp">
<polygon fill="#ffffff" stroke="#000000" points="10,-56.5 10,-75.5 71,-75.5 71,-56.5 10,-56.5"/>
<text text-anchor="middle" x="40.5" y="-63.5" font-family="Helvetica,sans-Serif" font-size="10.00" fill="#000000">cliapp.hpp</text>
</a>
</g>
</g>
<!-- Node2&#45;&gt;Node3 -->
<g id="edge1" class="edge">
<title>Node2&#45;&gt;Node3</title>
<path fill="none" stroke="#191970" d="M40.5,-102.1575C40.5,-93.155 40.5,-82.9199 40.5,-75.6427"/>
<polygon fill="#191970" stroke="#191970" points="37.0001,-102.2455 40.5,-112.2455 44.0001,-102.2456 37.0001,-102.2455"/>
</g>
<!-- Node4 -->
<g id="node3" class="node">
<title>Node4</title>
<g id="a_node3"><a xlink:href="cliutil_8hpp.html" target="_top" xlink:title="cliutil.hpp">
<polygon fill="#ffffff" stroke="#000000" points="11.5,-.5 11.5,-19.5 69.5,-19.5 69.5,-.5 11.5,-.5"/>
<text text-anchor="middle" x="40.5" y="-7.5" font-family="Helvetica,sans-Serif" font-size="10.00" fill="#000000">cliutil.hpp</text>
</a>
</g>
</g>
<!-- Node3&#45;&gt;Node4 -->
<g id="edge2" class="edge">
<title>Node3&#45;&gt;Node4</title>
<path fill="none" stroke="#191970" d="M40.5,-46.1575C40.5,-37.155 40.5,-26.9199 40.5,-19.6427"/>
<polygon fill="#191970" stroke="#191970" points="37.0001,-46.2455 40.5,-56.2455 44.0001,-46.2456 37.0001,-46.2455"/>
</g>
</g>
</svg>
