<?xml version="1.0" encoding="UTF-8" standalone="no"?>
<!DOCTYPE svg PUBLIC "-//W3C//DTD SVG 1.1//EN"
 "http://www.w3.org/Graphics/SVG/1.1/DTD/svg11.dtd">
<!-- Generated by graphviz version 2.40.1 (20161225.0304)
 -->
<!-- Title: assert.hpp Pages: 1 -->
<svg width="1044pt" height="420pt"
 viewBox="0.00 0.00 1043.59 420.00" xmlns="http://www.w3.org/2000/svg" xmlns:xlink="http://www.w3.org/1999/xlink">
<g id="graph0" class="graph" transform="scale(1 1) rotate(0) translate(4 416)">
<title>assert.hpp</title>
<polygon fill="#ffffff" stroke="transparent" points="-4,4 -4,-416 1039.5855,-416 1039.5855,4 -4,4"/>
<!-- Node1 -->
<g id="node1" class="node">
<title>Node1</title>
<polygon fill="#bfbfbf" stroke="#000000" points="562.5855,-392.5 562.5855,-411.5 624.5855,-411.5 624.5855,-392.5 562.5855,-392.5"/>
<text text-anchor="middle" x="593.5855" y="-399.5" font-family="Helvetica,sans-Serif" font-size="10.00" fill="#000000">assert.hpp</text>
</g>
<!-- Node2 -->
<g id="node2" class="node">
<title>Node2</title>
<g id="a_node2"><a xlink:href="alib_8hpp.html" target="_top" xlink:title="alib.hpp">
<polygon fill="#ffffff" stroke="#000000" points="568.5855,-336.5 568.5855,-355.5 618.5855,-355.5 618.5855,-336.5 568.5855,-336.5"/>
<text text-anchor="middle" x="593.5855" y="-343.5" font-family="Helvetica,sans-Serif" font-size="10.00" fill="#000000">alib.hpp</text>
</a>
</g>
</g>
<!-- Node1&#45;&gt;Node2 -->
<g id="edge1" class="edge">
<title>Node1&#45;&gt;Node2</title>
<path fill="none" stroke="#191970" d="M593.5855,-382.1575C593.5855,-373.155 593.5855,-362.9199 593.5855,-355.6427"/>
<polygon fill="#191970" stroke="#191970" points="590.0856,-382.2455 593.5855,-392.2455 597.0856,-382.2456 590.0856,-382.2455"/>
</g>
<!-- Node3 -->
<g id="node3" class="node">
<title>Node3</title>
<g id="a_node3"><a xlink:href="alox_2alox_8hpp.html" target="_top" xlink:title="alox.hpp">
<polygon fill="#ffffff" stroke="#000000" points="530.0855,-280.5 530.0855,-299.5 583.0855,-299.5 583.0855,-280.5 530.0855,-280.5"/>
<text text-anchor="middle" x="556.5855" y="-287.5" font-family="Helvetica,sans-Serif" font-size="10.00" fill="#000000">alox.hpp</text>
</a>
</g>
</g>
<!-- Node2&#45;&gt;Node3 -->
<g id="edge2" class="edge">
<title>Node2&#45;&gt;Node3</title>
<path fill="none" stroke="#191970" d="M581.4479,-327.6296C575.2762,-318.2887 568.0289,-307.3197 562.9565,-299.6427"/>
<polygon fill="#191970" stroke="#191970" points="578.7078,-329.8316 587.1406,-336.2455 584.5481,-325.9728 578.7078,-329.8316"/>
</g>
<!-- Node21 -->
<g id="node4" class="node">
<title>Node21</title>
<g id="a_node4"><a xlink:href="owner_8hpp.html" target="_top" xlink:title="owner.hpp">
<polygon fill="#ffffff" stroke="#000000" points="781.0855,-280.5 781.0855,-299.5 842.0855,-299.5 842.0855,-280.5 781.0855,-280.5"/>
<text text-anchor="middle" x="811.5855" y="-287.5" font-family="Helvetica,sans-Serif" font-size="10.00" fill="#000000">owner.hpp</text>
</a>
</g>
</g>
<!-- Node2&#45;&gt;Node21 -->
<g id="edge3" class="edge">
<title>Node2&#45;&gt;Node21</title>
<path fill="none" stroke="#191970" d="M628.4067,-337.0551C670.5323,-326.2338 740.7831,-308.1878 780.9397,-297.8723"/>
<polygon fill="#191970" stroke="#191970" points="627.4076,-333.698 618.5928,-339.5761 629.1492,-340.4779 627.4076,-333.698"/>
</g>
<!-- Node4 -->
<g id="node5" class="node">
<title>Node4</title>
<g id="a_node5"><a xlink:href="log_8hpp.html" target="_top" xlink:title="log.hpp">
<polygon fill="#ffffff" stroke="#000000" points="805.5855,-224.5 805.5855,-243.5 853.5855,-243.5 853.5855,-224.5 805.5855,-224.5"/>
<text text-anchor="middle" x="829.5855" y="-231.5" font-family="Helvetica,sans-Serif" font-size="10.00" fill="#000000">log.hpp</text>
</a>
</g>
</g>
<!-- Node3&#45;&gt;Node4 -->
<g id="edge4" class="edge">
<title>Node3&#45;&gt;Node4</title>
<path fill="none" stroke="#191970" d="M593.1494,-283.1363C638.9828,-275.1299 719.3732,-260.8231 787.5855,-244 793.2815,-242.5952 799.4525,-240.8005 805.405,-239.1203"/>
<polygon fill="#191970" stroke="#191970" points="592.3399,-279.7246 583.09,-284.8908 593.5427,-286.6205 592.3399,-279.7246"/>
</g>
<!-- Node5 -->
<g id="node6" class="node">
<title>Node5</title>
<g id="a_node6"><a xlink:href="lox_8hpp.html" target="_top" xlink:title="lox.hpp">
<polygon fill="#ffffff" stroke="#000000" points="152.5855,-168.5 152.5855,-187.5 200.5855,-187.5 200.5855,-168.5 152.5855,-168.5"/>
<text text-anchor="middle" x="176.5855" y="-175.5" font-family="Helvetica,sans-Serif" font-size="10.00" fill="#000000">lox.hpp</text>
</a>
</g>
</g>
<!-- Node3&#45;&gt;Node5 -->
<g id="edge5" class="edge">
<title>Node3&#45;&gt;Node5</title>
<path fill="none" stroke="#191970" d="M519.5422,-288.5778C424.9678,-284.365 181.1929,-270.5555 157.5855,-244 143.7258,-228.4095 154.3001,-202.1137 164.9287,-187.8747"/>
<polygon fill="#191970" stroke="#191970" points="519.6485,-292.0856 529.7908,-289.0223 519.9518,-285.0922 519.6485,-292.0856"/>
</g>
<!-- Node6 -->
<g id="node7" class="node">
<title>Node6</title>
<g id="a_node7"><a xlink:href="domain_8hpp.html" target="_top" xlink:title="domain.hpp">
<polygon fill="#ffffff" stroke="#000000" points="34.0855,-224.5 34.0855,-243.5 101.0855,-243.5 101.0855,-224.5 34.0855,-224.5"/>
<text text-anchor="middle" x="67.5855" y="-231.5" font-family="Helvetica,sans-Serif" font-size="10.00" fill="#000000">domain.hpp</text>
</a>
</g>
</g>
<!-- Node3&#45;&gt;Node6 -->
<g id="edge6" class="edge">
<title>Node3&#45;&gt;Node6</title>
<path fill="none" stroke="#191970" d="M519.8678,-287.4366C444.0253,-281.8636 264.6838,-267.2458 115.5855,-244 110.9596,-243.2788 106.1059,-242.4059 101.3356,-241.4798"/>
<polygon fill="#191970" stroke="#191970" points="519.6414,-290.9293 529.8687,-288.163 520.1485,-283.9477 519.6414,-290.9293"/>
</g>
<!-- Node7 -->
<g id="node8" class="node">
<title>Node7</title>
<g id="a_node8"><a xlink:href="logger_8hpp.html" target="_top" xlink:title="logger.hpp">
<polygon fill="#ffffff" stroke="#000000" points="372.0855,-224.5 372.0855,-243.5 433.0855,-243.5 433.0855,-224.5 372.0855,-224.5"/>
<text text-anchor="middle" x="402.5855" y="-231.5" font-family="Helvetica,sans-Serif" font-size="10.00" fill="#000000">logger.hpp</text>
</a>
</g>
</g>
<!-- Node3&#45;&gt;Node7 -->
<g id="edge7" class="edge">
<title>Node3&#45;&gt;Node7</title>
<path fill="none" stroke="#191970" d="M520.6241,-276.9231C492.4721,-266.686 453.9799,-252.6889 428.7136,-243.5011"/>
<polygon fill="#191970" stroke="#191970" points="519.5179,-280.245 530.1119,-280.3733 521.9101,-273.6665 519.5179,-280.245"/>
</g>
<!-- Node8 -->
<g id="node9" class="node">
<title>Node8</title>
<g id="a_node9"><a xlink:href="textlogger_8hpp.html" target="_top" xlink:title="textlogger.hpp">
<polygon fill="#ffffff" stroke="#000000" points="470.0855,-168.5 470.0855,-187.5 547.0855,-187.5 547.0855,-168.5 470.0855,-168.5"/>
<text text-anchor="middle" x="508.5855" y="-175.5" font-family="Helvetica,sans-Serif" font-size="10.00" fill="#000000">textlogger.hpp</text>
</a>
</g>
</g>
<!-- Node3&#45;&gt;Node8 -->
<g id="edge8" class="edge">
<title>Node3&#45;&gt;Node8</title>
<path fill="none" stroke="#191970" d="M548.5497,-271.2498C538.1975,-247.0946 520.5941,-206.0202 512.6676,-187.5249"/>
<polygon fill="#191970" stroke="#191970" points="545.3368,-272.6382 552.493,-280.4509 551.7708,-269.8807 545.3368,-272.6382"/>
</g>
<!-- Node9 -->
<g id="node10" class="node">
<title>Node9</title>
<g id="a_node10"><a xlink:href="plaintextlogger_8hpp.html" target="_top" xlink:title="plaintextlogger.hpp">
<polygon fill="#ffffff" stroke="#000000" points="634.5855,-112.5 634.5855,-131.5 732.5855,-131.5 732.5855,-112.5 634.5855,-112.5"/>
<text text-anchor="middle" x="683.5855" y="-119.5" font-family="Helvetica,sans-Serif" font-size="10.00" fill="#000000">plaintextlogger.hpp</text>
</a>
</g>
</g>
<!-- Node3&#45;&gt;Node9 -->
<g id="edge9" class="edge">
<title>Node3&#45;&gt;Node9</title>
<path fill="none" stroke="#191970" d="M586.7076,-275.5375C600.5473,-267.7221 616.3437,-256.9968 627.5855,-244 658.2303,-208.5709 675.2755,-153.5672 681.1851,-131.5681"/>
<polygon fill="#191970" stroke="#191970" points="584.6708,-272.6586 577.519,-280.4753 587.9844,-278.8246 584.6708,-272.6586"/>
</g>
<!-- Node10 -->
<g id="node11" class="node">
<title>Node10</title>
<g id="a_node11"><a xlink:href="consolelogger_8hpp.html" target="_top" xlink:title="consolelogger.hpp">
<polygon fill="#ffffff" stroke="#000000" points="464.0855,-56.5 464.0855,-75.5 559.0855,-75.5 559.0855,-56.5 464.0855,-56.5"/>
<text text-anchor="middle" x="511.5855" y="-63.5" font-family="Helvetica,sans-Serif" font-size="10.00" fill="#000000">consolelogger.hpp</text>
</a>
</g>
</g>
<!-- Node3&#45;&gt;Node10 -->
<g id="edge10" class="edge">
<title>Node3&#45;&gt;Node10</title>
<path fill="none" stroke="#191970" d="M519.9737,-289.6291C405.1917,-288.0903 58.0082,-280.4374 24.5855,-244 -105.0245,-102.6996 318.183,-73.3068 464.0111,-67.4192"/>
<polygon fill="#191970" stroke="#191970" points="519.9842,-293.1294 530.0276,-289.756 520.0726,-286.13 519.9842,-293.1294"/>
</g>
<!-- Node11 -->
<g id="node12" class="node">
<title>Node11</title>
<g id="a_node12"><a xlink:href="alox_8hpp_source.html" target="_top" xlink:title="alox.hpp">
<polygon fill="#ffffff" stroke="#000000" points="485.0855,-.5 485.0855,-19.5 538.0855,-19.5 538.0855,-.5 485.0855,-.5"/>
<text text-anchor="middle" x="511.5855" y="-7.5" font-family="Helvetica,sans-Serif" font-size="10.00" fill="#000000">alox.hpp</text>
</a>
</g>
</g>
<!-- Node3&#45;&gt;Node11 -->
<g id="edge11" class="edge">
<title>Node3&#45;&gt;Node11</title>
<path fill="none" stroke="#191970" d="M593.8993,-288.832C669.2352,-285.826 836.2738,-275.6844 882.5855,-244 910.3399,-225.0117 919.5855,-211.6283 919.5855,-178 919.5855,-178 919.5855,-178 919.5855,-122 919.5855,-91.4754 923.8512,-75.7601 900.5855,-56 872.9519,-32.5302 621.4284,-16.2419 538.1941,-11.4564"/>
<polygon fill="#191970" stroke="#191970" points="593.3357,-285.3507 583.4748,-289.2255 593.5998,-292.3457 593.3357,-285.3507"/>
</g>
<!-- Node12 -->
<g id="node13" class="node">
<title>Node12</title>
<g id="a_node13"><a xlink:href="memorylogger_8hpp.html" target="_top" xlink:title="memorylogger.hpp">
<polygon fill="#ffffff" stroke="#000000" points="577.5855,-56.5 577.5855,-75.5 673.5855,-75.5 673.5855,-56.5 577.5855,-56.5"/>
<text text-anchor="middle" x="625.5855" y="-63.5" font-family="Helvetica,sans-Serif" font-size="10.00" fill="#000000">memorylogger.hpp</text>
</a>
</g>
</g>
<!-- Node3&#45;&gt;Node12 -->
<g id="edge12" class="edge">
<title>Node3&#45;&gt;Node12</title>
<path fill="none" stroke="#191970" d="M566.5126,-271.301C570.618,-263.0798 575.1993,-253.2155 578.5855,-244 601.5145,-181.5985 618.2112,-103.0916 623.6664,-75.8453"/>
<polygon fill="#191970" stroke="#191970" points="563.3146,-269.8667 561.8534,-280.3603 569.5395,-273.0683 563.3146,-269.8667"/>
</g>
<!-- Node13 -->
<g id="node14" class="node">
<title>Node13</title>
<g id="a_node14"><a xlink:href="textfilelogger_8hpp.html" target="_top" xlink:title="textfilelogger.hpp">
<polygon fill="#ffffff" stroke="#000000" points="691.5855,-56.5 691.5855,-75.5 781.5855,-75.5 781.5855,-56.5 691.5855,-56.5"/>
<text text-anchor="middle" x="736.5855" y="-63.5" font-family="Helvetica,sans-Serif" font-size="10.00" fill="#000000">textfilelogger.hpp</text>
</a>
</g>
</g>
<!-- Node3&#45;&gt;Node13 -->
<g id="edge13" class="edge">
<title>Node3&#45;&gt;Node13</title>
<path fill="none" stroke="#191970" d="M592.0114,-276.4173C610.0024,-268.5324 631.5889,-257.4859 648.5855,-244 699.2704,-203.7842 719.613,-192.8562 741.5855,-132 748.4537,-112.9775 743.5148,-88.9156 739.7573,-75.7346"/>
<polygon fill="#191970" stroke="#191970" points="590.2839,-273.3478 582.4383,-280.4679 593.0117,-279.7944 590.2839,-273.3478"/>
</g>
<!-- Node14 -->
<g id="node15" class="node">
<title>Node14</title>
<g id="a_node15"><a xlink:href="vstudiologger_8hpp.html" target="_top" xlink:title="vstudiologger.hpp">
<polygon fill="#ffffff" stroke="#000000" points="799.5855,-56.5 799.5855,-75.5 891.5855,-75.5 891.5855,-56.5 799.5855,-56.5"/>
<text text-anchor="middle" x="845.5855" y="-63.5" font-family="Helvetica,sans-Serif" font-size="10.00" fill="#000000">vstudiologger.hpp</text>
</a>
</g>
</g>
<!-- Node3&#45;&gt;Node14 -->
<g id="edge14" class="edge">
<title>Node3&#45;&gt;Node14</title>
<path fill="none" stroke="#191970" d="M593.4273,-287.1303C670.9403,-280.7188 845.1991,-264.1954 862.5855,-244 905.5235,-194.1247 865.687,-104.7846 850.7247,-75.5473"/>
<polygon fill="#191970" stroke="#191970" points="592.841,-283.6664 583.1584,-287.9672 593.4097,-290.6432 592.841,-283.6664"/>
</g>
<!-- Node15 -->
<g id="node16" class="node">
<title>Node15</title>
<g id="a_node16"><a xlink:href="ansilogger_8hpp.html" target="_top" xlink:title="ansilogger.hpp">
<polygon fill="#ffffff" stroke="#000000" points="348.0855,-112.5 348.0855,-131.5 427.0855,-131.5 427.0855,-112.5 348.0855,-112.5"/>
<text text-anchor="middle" x="387.5855" y="-119.5" font-family="Helvetica,sans-Serif" font-size="10.00" fill="#000000">ansilogger.hpp</text>
</a>
</g>
</g>
<!-- Node3&#45;&gt;Node15 -->
<g id="edge15" class="edge">
<title>Node3&#45;&gt;Node15</title>
<path fill="none" stroke="#191970" d="M539.9175,-273.4306C505.0618,-238.7812 425.391,-159.5818 397.4719,-131.8279"/>
<polygon fill="#191970" stroke="#191970" points="537.4555,-275.9184 547.0151,-280.4862 542.3906,-270.9539 537.4555,-275.9184"/>
</g>
<!-- Node16 -->
<g id="node17" class="node">
<title>Node16</title>
<g id="a_node17"><a xlink:href="windowsconsolelogger_8hpp.html" target="_top" xlink:title="windowsconsolelogger.hpp">
<polygon fill="#ffffff" stroke="#000000" points="445.0855,-112.5 445.0855,-131.5 578.0855,-131.5 578.0855,-112.5 445.0855,-112.5"/>
<text text-anchor="middle" x="511.5855" y="-119.5" font-family="Helvetica,sans-Serif" font-size="10.00" fill="#000000">windowsconsolelogger.hpp</text>
</a>
</g>
</g>
<!-- Node3&#45;&gt;Node16 -->
<g id="edge16" class="edge">
<title>Node3&#45;&gt;Node16</title>
<path fill="none" stroke="#191970" d="M560.7175,-270.3642C565.0027,-245.5132 569.3364,-201.8674 555.5855,-168 549.4324,-152.8456 535.6878,-139.839 525.1859,-131.5618"/>
<polygon fill="#191970" stroke="#191970" points="557.2471,-269.8792 558.8172,-280.3571 564.1238,-271.187 557.2471,-269.8792"/>
</g>
<!-- Node17 -->
<g id="node18" class="node">
<title>Node17</title>
<g id="a_node18"><a xlink:href="scopedump_8hpp.html" target="_top" xlink:title="scopedump.hpp">
<polygon fill="#ffffff" stroke="#000000" points="298.5855,-168.5 298.5855,-187.5 384.5855,-187.5 384.5855,-168.5 298.5855,-168.5"/>
<text text-anchor="middle" x="341.5855" y="-175.5" font-family="Helvetica,sans-Serif" font-size="10.00" fill="#000000">scopedump.hpp</text>
</a>
</g>
</g>
<!-- Node3&#45;&gt;Node17 -->
<g id="edge17" class="edge">
<title>Node3&#45;&gt;Node17</title>
<path fill="none" stroke="#191970" d="M532.07,-275.0737C509.0263,-261.2497 473.4142,-240.412 441.5855,-224 415.4289,-210.5127 384.5542,-196.606 364.1033,-187.6651"/>
<polygon fill="#191970" stroke="#191970" points="530.465,-278.193 540.8362,-280.3583 534.079,-272.198 530.465,-278.193"/>
</g>
<!-- Node18 -->
<g id="node19" class="node">
<title>Node18</title>
<g id="a_node19"><a xlink:href="scopestore_8hpp.html" target="_top" xlink:title="scopestore.hpp">
<polygon fill="#ffffff" stroke="#000000" points="271.0855,-224.5 271.0855,-243.5 354.0855,-243.5 354.0855,-224.5 271.0855,-224.5"/>
<text text-anchor="middle" x="312.5855" y="-231.5" font-family="Helvetica,sans-Serif" font-size="10.00" fill="#000000">scopestore.hpp</text>
</a>
</g>
</g>
<!-- Node3&#45;&gt;Node18 -->
<g id="edge18" class="edge">
<title>Node3&#45;&gt;Node18</title>
<path fill="none" stroke="#191970" d="M520.2124,-281.6521C475.7927,-271.4574 400.8276,-254.2523 354.1657,-243.543"/>
<polygon fill="#191970" stroke="#191970" points="519.4792,-285.0747 530.0087,-283.9004 521.0451,-278.2521 519.4792,-285.0747"/>
</g>
<!-- Node19 -->
<g id="node20" class="node">
<title>Node19</title>
<g id="a_node20"><a xlink:href="scopeinfo_8hpp.html" target="_top" xlink:title="scopeinfo.hpp">
<polygon fill="#ffffff" stroke="#000000" points="176.0855,-224.5 176.0855,-243.5 253.0855,-243.5 253.0855,-224.5 176.0855,-224.5"/>
<text text-anchor="middle" x="214.5855" y="-231.5" font-family="Helvetica,sans-Serif" font-size="10.00" fill="#000000">scopeinfo.hpp</text>
</a>
</g>
</g>
<!-- Node3&#45;&gt;Node19 -->
<g id="edge19" class="edge">
<title>Node3&#45;&gt;Node19</title>
<path fill="none" stroke="#191970" d="M519.9456,-284.9473C464.0641,-277.092 354.2528,-261.0698 261.5855,-244 258.878,-243.5013 256.0876,-242.965 253.2806,-242.409"/>
<polygon fill="#191970" stroke="#191970" points="519.6706,-288.4428 530.0591,-286.3624 520.6406,-281.5103 519.6706,-288.4428"/>
</g>
<!-- Node20 -->
<g id="node21" class="node">
<title>Node20</title>
<g id="a_node21"><a xlink:href="logtools_8hpp.html" target="_top" xlink:title="logtools.hpp">
<polygon fill="#ffffff" stroke="#000000" points="718.0855,-224.5 718.0855,-243.5 787.0855,-243.5 787.0855,-224.5 718.0855,-224.5"/>
<text text-anchor="middle" x="752.5855" y="-231.5" font-family="Helvetica,sans-Serif" font-size="10.00" fill="#000000">logtools.hpp</text>
</a>
</g>
</g>
<!-- Node3&#45;&gt;Node20 -->
<g id="edge20" class="edge">
<title>Node3&#45;&gt;Node20</title>
<path fill="none" stroke="#191970" d="M593.0976,-279.568C629.2582,-269.2364 684.1585,-253.5506 719.1919,-243.541"/>
<polygon fill="#191970" stroke="#191970" points="592.0812,-276.2182 583.4275,-282.3309 594.0043,-282.9489 592.0812,-276.2182"/>
</g>
<!-- Node22 -->
<g id="node22" class="node">
<title>Node22</title>
<g id="a_node22"><a xlink:href="threadlocknr_8hpp.html" target="_top" xlink:title="threadlocknr.hpp">
<polygon fill="#ffffff" stroke="#ff0000" points="947.5855,-224.5 947.5855,-243.5 1035.5855,-243.5 1035.5855,-224.5 947.5855,-224.5"/>
<text text-anchor="middle" x="991.5855" y="-231.5" font-family="Helvetica,sans-Serif" font-size="10.00" fill="#000000">threadlocknr.hpp</text>
</a>
</g>
</g>
<!-- Node21&#45;&gt;Node22 -->
<g id="edge40" class="edge">
<title>Node21&#45;&gt;Node22</title>
<path fill="none" stroke="#191970" d="M851.9095,-277.4547C884.8977,-267.1918 930.8515,-252.895 960.9011,-243.5462"/>
<polygon fill="#191970" stroke="#191970" points="850.6288,-274.1876 842.12,-280.5004 852.7083,-280.8716 850.6288,-274.1876"/>
</g>
<!-- Node4&#45;&gt;Node3 -->
<g id="edge21" class="edge">
<title>Node4&#45;&gt;Node3</title>
<path fill="none" stroke="#191970" d="M797.2481,-246.0115C718.0633,-264.9721 627.6559,-280.156 583.3771,-286.6283"/>
<polygon fill="#191970" stroke="#191970" points="798.4516,-249.321 807.3422,-243.5583 796.7985,-242.5189 798.4516,-249.321"/>
</g>
<!-- Node5&#45;&gt;Node3 -->
<g id="edge22" class="edge">
<title>Node5&#45;&gt;Node3</title>
<path fill="none" stroke="#191970" d="M173.6286,-197.4281C169.1016,-211.9771 164.4327,-231.4545 175.5855,-244 199.395,-270.7828 447.1566,-284.6005 529.9659,-288.6838"/>
<polygon fill="#191970" stroke="#191970" points="176.9714,-198.4653 176.6716,-187.8747 170.3016,-196.3407 176.9714,-198.4653"/>
</g>
<!-- Node6&#45;&gt;Node5 -->
<g id="edge23" class="edge">
<title>Node6&#45;&gt;Node5</title>
<path fill="none" stroke="#191970" d="M95.6197,-219.5971C115.1601,-209.558 140.6947,-196.4393 157.8167,-187.6427"/>
<polygon fill="#191970" stroke="#191970" points="93.8672,-216.5625 86.5718,-224.2455 97.0661,-222.7889 93.8672,-216.5625"/>
</g>
<!-- Node7&#45;&gt;Node5 -->
<g id="edge24" class="edge">
<title>Node7&#45;&gt;Node5</title>
<path fill="none" stroke="#191970" d="M362.118,-223.8883C297.8824,-207.9232 234.3975,-192.2525 200.6676,-183.9352"/>
<polygon fill="#191970" stroke="#191970" points="361.4635,-227.332 372.0126,-226.3483 363.1526,-220.5388 361.4635,-227.332"/>
</g>
<!-- Node7&#45;&gt;Node8 -->
<g id="edge25" class="edge">
<title>Node7&#45;&gt;Node8</title>
<path fill="none" stroke="#191970" d="M430.1076,-219.46C449.0763,-209.4388 473.7582,-196.3993 490.3333,-187.6427"/>
<polygon fill="#191970" stroke="#191970" points="428.2563,-216.4796 421.0493,-224.2455 431.5261,-222.669 428.2563,-216.4796"/>
</g>
<!-- Node8&#45;&gt;Node9 -->
<g id="edge26" class="edge">
<title>Node8&#45;&gt;Node9</title>
<path fill="none" stroke="#191970" d="M548.1995,-165.3235C580.293,-155.0536 624.8065,-140.8093 653.8945,-131.5011"/>
<polygon fill="#191970" stroke="#191970" points="547.1266,-161.9919 538.669,-168.3733 549.26,-168.6589 547.1266,-161.9919"/>
</g>
<!-- Node8&#45;&gt;Node15 -->
<g id="edge27" class="edge">
<title>Node8&#45;&gt;Node15</title>
<path fill="none" stroke="#191970" d="M478.575,-164.1109C456.6329,-153.9559 427.4467,-140.4482 408.1147,-131.5011"/>
<polygon fill="#191970" stroke="#191970" points="477.2396,-167.3494 487.7848,-168.3733 480.1797,-160.9968 477.2396,-167.3494"/>
</g>
<!-- Node8&#45;&gt;Node16 -->
<g id="edge28" class="edge">
<title>Node8&#45;&gt;Node16</title>
<path fill="none" stroke="#191970" d="M509.6485,-158.1575C510.1307,-149.155 510.6791,-138.9199 511.0689,-131.6427"/>
<polygon fill="#191970" stroke="#191970" points="506.1481,-158.0726 509.108,-168.2455 513.1381,-158.4471 506.1481,-158.0726"/>
</g>
<!-- Node9&#45;&gt;Node10 -->
<g id="edge29" class="edge">
<title>Node9&#45;&gt;Node10</title>
<path fill="none" stroke="#191970" d="M644.242,-109.1905C612.7303,-98.9309 569.2335,-84.7691 540.7675,-75.5011"/>
<polygon fill="#191970" stroke="#191970" points="643.4253,-112.6054 654.0176,-112.3733 645.5925,-105.9493 643.4253,-112.6054"/>
</g>
<!-- Node9&#45;&gt;Node12 -->
<g id="edge30" class="edge">
<title>Node9&#45;&gt;Node12</title>
<path fill="none" stroke="#191970" d="M666.0562,-105.0751C656.0771,-95.4402 643.9379,-83.7196 635.5725,-75.6427"/>
<polygon fill="#191970" stroke="#191970" points="663.8575,-107.8175 673.4826,-112.2455 668.7197,-102.7817 663.8575,-107.8175"/>
</g>
<!-- Node9&#45;&gt;Node13 -->
<g id="edge31" class="edge">
<title>Node9&#45;&gt;Node13</title>
<path fill="none" stroke="#191970" d="M699.8751,-104.7884C708.9417,-95.2085 719.8909,-83.6396 727.4594,-75.6427"/>
<polygon fill="#191970" stroke="#191970" points="697.1492,-102.5767 692.8174,-112.2455 702.2333,-107.3884 697.1492,-102.5767"/>
</g>
<!-- Node9&#45;&gt;Node14 -->
<g id="edge32" class="edge">
<title>Node9&#45;&gt;Node14</title>
<path fill="none" stroke="#191970" d="M721.0277,-109.057C750.6756,-98.8084 791.4051,-84.729 818.1001,-75.5011"/>
<polygon fill="#191970" stroke="#191970" points="719.742,-105.7982 711.4343,-112.3733 722.029,-112.414 719.742,-105.7982"/>
</g>
<!-- Node10&#45;&gt;Node11 -->
<g id="edge33" class="edge">
<title>Node10&#45;&gt;Node11</title>
<path fill="none" stroke="#191970" d="M511.5855,-46.1575C511.5855,-37.155 511.5855,-26.9199 511.5855,-19.6427"/>
<polygon fill="#191970" stroke="#191970" points="508.0856,-46.2455 511.5855,-56.2455 515.0856,-46.2456 508.0856,-46.2455"/>
</g>
<!-- Node14&#45;&gt;Node11 -->
<g id="edge34" class="edge">
<title>Node14&#45;&gt;Node11</title>
<path fill="none" stroke="#191970" d="M789.2525,-55.7893C690.7074,-38.7747 586.14,-21.9054 538.1535,-14.2312"/>
<polygon fill="#191970" stroke="#191970" points="788.9313,-59.2856 799.3818,-57.5424 790.1252,-52.3882 788.9313,-59.2856"/>
</g>
<!-- Node15&#45;&gt;Node11 -->
<g id="edge35" class="edge">
<title>Node15&#45;&gt;Node11</title>
<path fill="none" stroke="#191970" d="M401.9317,-104.7057C413.7909,-90.8615 431.4118,-71.2985 448.5855,-56 464.0574,-42.2175 483.5387,-28.4785 496.7104,-19.654"/>
<polygon fill="#191970" stroke="#191970" points="399.1286,-102.6002 395.3477,-112.4974 404.4754,-107.1182 399.1286,-102.6002"/>
</g>
<!-- Node16&#45;&gt;Node11 -->
<g id="edge36" class="edge">
<title>Node16&#45;&gt;Node11</title>
<path fill="none" stroke="#191970" d="M483.6139,-106.9168C472.4154,-99.2694 460.7303,-88.8551 454.5855,-76 443.5508,-52.9151 471.9263,-31.5462 492.4872,-19.6883"/>
<polygon fill="#191970" stroke="#191970" points="482.0516,-110.0696 492.3754,-112.4505 485.7896,-104.1512 482.0516,-110.0696"/>
</g>
<!-- Node18&#45;&gt;Node5 -->
<g id="edge37" class="edge">
<title>Node18&#45;&gt;Node5</title>
<path fill="none" stroke="#191970" d="M279.8456,-220.5189C255.0772,-210.3201 221.6805,-196.5685 199.6596,-187.5011"/>
<polygon fill="#191970" stroke="#191970" points="278.6268,-223.8021 289.2062,-224.3733 281.2921,-217.3293 278.6268,-223.8021"/>
</g>
<!-- Node18&#45;&gt;Node17 -->
<g id="edge38" class="edge">
<title>Node18&#45;&gt;Node17</title>
<path fill="none" stroke="#191970" d="M322.2502,-215.3372C327.0541,-206.0605 332.6577,-195.2398 336.5919,-187.6427"/>
<polygon fill="#191970" stroke="#191970" points="319.1275,-213.7561 317.6369,-224.2455 325.3435,-216.9751 319.1275,-213.7561"/>
</g>
<!-- Node19&#45;&gt;Node5 -->
<g id="edge39" class="edge">
<title>Node19&#45;&gt;Node5</title>
<path fill="none" stroke="#191970" d="M202.3175,-215.9209C195.9367,-206.5176 188.3924,-195.3997 183.1287,-187.6427"/>
<polygon fill="#191970" stroke="#191970" points="199.4551,-217.936 207.9664,-224.2455 205.2475,-214.0055 199.4551,-217.936"/>
</g>
</g>
</svg>
