<?xml version="1.0" encoding="UTF-8" standalone="no"?>
<!DOCTYPE svg PUBLIC "-//W3C//DTD SVG 1.1//EN"
 "http://www.w3.org/Graphics/SVG/1.1/DTD/svg11.dtd">
<!-- Generated by graphviz version 2.40.1 (20161225.0304)
 -->
<!-- Title: autosizes.hpp Pages: 1 -->
<svg width="431pt" height="196pt"
 viewBox="0.00 0.00 431.00 196.00" xmlns="http://www.w3.org/2000/svg" xmlns:xlink="http://www.w3.org/1999/xlink">
<g id="graph0" class="graph" transform="scale(1 1) rotate(0) translate(4 192)">
<title>autosizes.hpp</title>
<polygon fill="#ffffff" stroke="transparent" points="-4,4 -4,-192 427,-192 427,4 -4,4"/>
<!-- Node2 -->
<g id="node1" class="node">
<title>Node2</title>
<polygon fill="#bfbfbf" stroke="#000000" points="227.5,-168.5 227.5,-187.5 304.5,-187.5 304.5,-168.5 227.5,-168.5"/>
<text text-anchor="middle" x="266" y="-175.5" font-family="Helvetica,sans-Serif" font-size="10.00" fill="#000000">autosizes.hpp</text>
</g>
<!-- Node3 -->
<g id="node2" class="node">
<title>Node3</title>
<g id="a_node2"><a xlink:href="formatterpythonstyle_8hpp.html" target="_top" xlink:title="formatterpythonstyle.hpp">
<polygon fill="#ffffff" stroke="#000000" points="203.5,-112.5 203.5,-131.5 328.5,-131.5 328.5,-112.5 203.5,-112.5"/>
<text text-anchor="middle" x="266" y="-119.5" font-family="Helvetica,sans-Serif" font-size="10.00" fill="#000000">formatterpythonstyle.hpp</text>
</a>
</g>
</g>
<!-- Node2&#45;&gt;Node3 -->
<g id="edge1" class="edge">
<title>Node2&#45;&gt;Node3</title>
<path fill="none" stroke="#191970" d="M266,-158.1575C266,-149.155 266,-138.9199 266,-131.6427"/>
<polygon fill="#191970" stroke="#191970" points="262.5001,-158.2455 266,-168.2455 269.5001,-158.2456 262.5001,-158.2455"/>
</g>
<!-- Node4 -->
<g id="node3" class="node">
<title>Node4</title>
<g id="a_node3"><a xlink:href="textlogger_8hpp.html" target="_top" xlink:title="textlogger.hpp">
<polygon fill="#ffffff" stroke="#000000" points="179.5,-56.5 179.5,-75.5 256.5,-75.5 256.5,-56.5 179.5,-56.5"/>
<text text-anchor="middle" x="218" y="-63.5" font-family="Helvetica,sans-Serif" font-size="10.00" fill="#000000">textlogger.hpp</text>
</a>
</g>
</g>
<!-- Node3&#45;&gt;Node4 -->
<g id="edge2" class="edge">
<title>Node3&#45;&gt;Node4</title>
<path fill="none" stroke="#191970" d="M251.0003,-104.5004C242.8378,-94.9775 233.0511,-83.5596 226.2651,-75.6427"/>
<polygon fill="#191970" stroke="#191970" points="248.4737,-106.9307 257.639,-112.2455 253.7885,-102.3752 248.4737,-106.9307"/>
</g>
<!-- Node13 -->
<g id="node4" class="node">
<title>Node13</title>
<g id="a_node4"><a xlink:href="simpletext_8hpp.html" target="_top" xlink:title="simpletext.hpp">
<polygon fill="#ffffff" stroke="#000000" points="314,-56.5 314,-75.5 394,-75.5 394,-56.5 314,-56.5"/>
<text text-anchor="middle" x="354" y="-63.5" font-family="Helvetica,sans-Serif" font-size="10.00" fill="#000000">simpletext.hpp</text>
</a>
</g>
</g>
<!-- Node3&#45;&gt;Node13 -->
<g id="edge3" class="edge">
<title>Node3&#45;&gt;Node13</title>
<path fill="none" stroke="#191970" d="M289.9345,-106.769C305.5283,-96.8456 325.401,-84.1994 338.8472,-75.6427"/>
<polygon fill="#191970" stroke="#191970" points="287.886,-103.9239 281.3284,-112.2455 291.6441,-109.8296 287.886,-103.9239"/>
</g>
<!-- Node5 -->
<g id="node5" class="node">
<title>Node5</title>
<g id="a_node5"><a xlink:href="plaintextlogger_8hpp.html" target="_top" xlink:title="plaintextlogger.hpp">
<polygon fill="#ffffff" stroke="#ff0000" points="0,-.5 0,-19.5 98,-19.5 98,-.5 0,-.5"/>
<text text-anchor="middle" x="49" y="-7.5" font-family="Helvetica,sans-Serif" font-size="10.00" fill="#000000">plaintextlogger.hpp</text>
</a>
</g>
</g>
<!-- Node4&#45;&gt;Node5 -->
<g id="edge4" class="edge">
<title>Node4&#45;&gt;Node5</title>
<path fill="none" stroke="#191970" d="M179.3427,-53.1905C148.3807,-42.9309 105.6426,-28.7691 77.673,-19.5011"/>
<polygon fill="#191970" stroke="#191970" points="178.3545,-56.5501 188.9479,-56.3733 180.5563,-49.9054 178.3545,-56.5501"/>
</g>
<!-- Node11 -->
<g id="node6" class="node">
<title>Node11</title>
<g id="a_node6"><a xlink:href="ansilogger_8hpp.html" target="_top" xlink:title="ansilogger.hpp">
<polygon fill="#ffffff" stroke="#ff0000" points="116.5,-.5 116.5,-19.5 195.5,-19.5 195.5,-.5 116.5,-.5"/>
<text text-anchor="middle" x="156" y="-7.5" font-family="Helvetica,sans-Serif" font-size="10.00" fill="#000000">ansilogger.hpp</text>
</a>
</g>
</g>
<!-- Node4&#45;&gt;Node11 -->
<g id="edge5" class="edge">
<title>Node4&#45;&gt;Node11</title>
<path fill="none" stroke="#191970" d="M199.5779,-49.3607C188.8519,-39.6727 175.7066,-27.7995 166.6758,-19.6427"/>
<polygon fill="#191970" stroke="#191970" points="197.4334,-52.14 207.2004,-56.2455 202.1254,-46.9453 197.4334,-52.14"/>
</g>
<!-- Node12 -->
<g id="node7" class="node">
<title>Node12</title>
<g id="a_node7"><a xlink:href="windowsconsolelogger_8hpp.html" target="_top" xlink:title="windowsconsolelogger.hpp">
<polygon fill="#ffffff" stroke="#ff0000" points="213.5,-.5 213.5,-19.5 346.5,-19.5 346.5,-.5 213.5,-.5"/>
<text text-anchor="middle" x="280" y="-7.5" font-family="Helvetica,sans-Serif" font-size="10.00" fill="#000000">windowsconsolelogger.hpp</text>
</a>
</g>
</g>
<!-- Node4&#45;&gt;Node12 -->
<g id="edge6" class="edge">
<title>Node4&#45;&gt;Node12</title>
<path fill="none" stroke="#191970" d="M236.4221,-49.3607C247.1481,-39.6727 260.2934,-27.7995 269.3242,-19.6427"/>
<polygon fill="#191970" stroke="#191970" points="233.8746,-46.9453 228.7996,-56.2455 238.5666,-52.14 233.8746,-46.9453"/>
</g>
<!-- Node14 -->
<g id="node8" class="node">
<title>Node14</title>
<g id="a_node8"><a xlink:href="cliutil_8hpp.html" target="_top" xlink:title="cliutil.hpp">
<polygon fill="#ffffff" stroke="#000000" points="365,-.5 365,-19.5 423,-19.5 423,-.5 365,-.5"/>
<text text-anchor="middle" x="394" y="-7.5" font-family="Helvetica,sans-Serif" font-size="10.00" fill="#000000">cliutil.hpp</text>
</a>
</g>
</g>
<!-- Node13&#45;&gt;Node14 -->
<g id="edge7" class="edge">
<title>Node13&#45;&gt;Node14</title>
<path fill="none" stroke="#191970" d="M366.9136,-47.9209C373.6303,-38.5176 381.5717,-27.3997 387.1124,-19.6427"/>
<polygon fill="#191970" stroke="#191970" points="363.9318,-46.0738 360.9675,-56.2455 369.628,-50.1425 363.9318,-46.0738"/>
</g>
</g>
</svg>
