<?xml version="1.0" encoding="UTF-8" standalone="no"?>
<!DOCTYPE svg PUBLIC "-//W3C//DTD SVG 1.1//EN"
 "http://www.w3.org/Graphics/SVG/1.1/DTD/svg11.dtd">
<!-- Generated by graphviz version 2.40.1 (20161225.0304)
 -->
<!-- Title: calendar.hpp Pages: 1 -->
<svg width="236pt" height="196pt"
 viewBox="0.00 0.00 235.50 196.00" xmlns="http://www.w3.org/2000/svg" xmlns:xlink="http://www.w3.org/1999/xlink">
<g id="graph0" class="graph" transform="scale(1 1) rotate(0) translate(4 192)">
<title>calendar.hpp</title>
<polygon fill="#ffffff" stroke="transparent" points="-4,4 -4,-192 231.5,-192 231.5,4 -4,4"/>
<!-- Node0 -->
<g id="node1" class="node">
<title>Node0</title>
<polygon fill="#bfbfbf" stroke="#000000" points="82,-168.5 82,-187.5 153,-187.5 153,-168.5 82,-168.5"/>
<text text-anchor="middle" x="117.5" y="-175.5" font-family="Helvetica,sans-Serif" font-size="10.00" fill="#000000">calendar.hpp</text>
</g>
<!-- Node1 -->
<g id="node2" class="node">
<title>Node1</title>
<g id="a_node2"><a xlink:href="datetime_8hpp.html" target="_top" xlink:title="alib/time/datetime.hpp">
<polygon fill="#ffffff" stroke="#000000" points="0,-112.5 0,-131.5 113,-131.5 113,-112.5 0,-112.5"/>
<text text-anchor="middle" x="56.5" y="-119.5" font-family="Helvetica,sans-Serif" font-size="10.00" fill="#000000">alib/time/datetime.hpp</text>
</a>
</g>
</g>
<!-- Node0&#45;&gt;Node1 -->
<g id="edge1" class="edge">
<title>Node0&#45;&gt;Node1</title>
<path fill="none" stroke="#191970" d="M106.8746,-168.2455C97.9527,-160.0549 85.012,-148.1749 74.4808,-138.5069"/>
<polygon fill="#191970" stroke="#191970" points="76.7371,-135.8271 67.0036,-131.6427 72.0032,-140.9837 76.7371,-135.8271"/>
</g>
<!-- Node10 -->
<g id="node3" class="node">
<title>Node10</title>
<g id="a_node3"><a xlink:href="ticks_8hpp.html" target="_top" xlink:title="alib/time/ticks.hpp">
<polygon fill="#ffffff" stroke="#000000" points="131.5,-112.5 131.5,-131.5 227.5,-131.5 227.5,-112.5 131.5,-112.5"/>
<text text-anchor="middle" x="179.5" y="-119.5" font-family="Helvetica,sans-Serif" font-size="10.00" fill="#000000">alib/time/ticks.hpp</text>
</a>
</g>
</g>
<!-- Node0&#45;&gt;Node10 -->
<g id="edge2" class="edge">
<title>Node0&#45;&gt;Node10</title>
<path fill="none" stroke="#191970" d="M128.2996,-168.2455C137.3678,-160.0549 150.5206,-148.1749 161.2245,-138.5069"/>
<polygon fill="#191970" stroke="#191970" points="163.7491,-140.9429 168.8242,-131.6427 159.0571,-135.7482 163.7491,-140.9429"/>
</g>
<!-- Node2 -->
<g id="node4" class="node">
<title>Node2</title>
<g id="a_node4"><a xlink:href="timepointbase_8hpp.html" target="_top" xlink:title="alib/time/timepointbase.hpp">
<polygon fill="#ffffff" stroke="#000000" points="49.5,-56.5 49.5,-75.5 185.5,-75.5 185.5,-56.5 49.5,-56.5"/>
<text text-anchor="middle" x="117.5" y="-63.5" font-family="Helvetica,sans-Serif" font-size="10.00" fill="#000000">alib/time/timepointbase.hpp</text>
</a>
</g>
</g>
<!-- Node1&#45;&gt;Node2 -->
<g id="edge3" class="edge">
<title>Node1&#45;&gt;Node2</title>
<path fill="none" stroke="#191970" d="M67.1254,-112.2455C76.0473,-104.0549 88.988,-92.1749 99.5192,-82.5069"/>
<polygon fill="#191970" stroke="#191970" points="101.9968,-84.9837 106.9964,-75.6427 97.2629,-79.8271 101.9968,-84.9837"/>
</g>
<!-- Node10&#45;&gt;Node2 -->
<g id="edge6" class="edge">
<title>Node10&#45;&gt;Node2</title>
<path fill="none" stroke="#191970" d="M168.7004,-112.2455C159.6322,-104.0549 146.4794,-92.1749 135.7755,-82.5069"/>
<polygon fill="#191970" stroke="#191970" points="137.9429,-79.7482 128.1758,-75.6427 133.2509,-84.9429 137.9429,-79.7482"/>
</g>
<!-- Node3 -->
<g id="node5" class="node">
<title>Node3</title>
<g id="a_node5"><a xlink:href="timelib_8hpp.html" target="_top" xlink:title="alib/time/timelib.hpp">
<polygon fill="#ffffff" stroke="#ff0000" points="19.5,-.5 19.5,-19.5 123.5,-19.5 123.5,-.5 19.5,-.5"/>
<text text-anchor="middle" x="71.5" y="-7.5" font-family="Helvetica,sans-Serif" font-size="10.00" fill="#000000">alib/time/timelib.hpp</text>
</a>
</g>
</g>
<!-- Node2&#45;&gt;Node3 -->
<g id="edge4" class="edge">
<title>Node2&#45;&gt;Node3</title>
<path fill="none" stroke="#191970" d="M109.4874,-56.2455C103.0232,-48.3761 93.7615,-37.101 86.0017,-27.6542"/>
<polygon fill="#191970" stroke="#191970" points="88.4727,-25.1484 79.4208,-19.6427 83.0636,-29.5916 88.4727,-25.1484"/>
</g>
<!-- Node9 -->
<g id="node6" class="node">
<title>Node9</title>
<polygon fill="#ffffff" stroke="#bfbfbf" points="141.5,-.5 141.5,-19.5 185.5,-19.5 185.5,-.5 141.5,-.5"/>
<text text-anchor="middle" x="163.5" y="-7.5" font-family="Helvetica,sans-Serif" font-size="10.00" fill="#000000">cmath</text>
</g>
<!-- Node2&#45;&gt;Node9 -->
<g id="edge5" class="edge">
<title>Node2&#45;&gt;Node9</title>
<path fill="none" stroke="#191970" d="M125.5126,-56.2455C131.9768,-48.3761 141.2385,-37.101 148.9983,-27.6542"/>
<polygon fill="#191970" stroke="#191970" points="151.9364,-29.5916 155.5792,-19.6427 146.5273,-25.1484 151.9364,-29.5916"/>
</g>
</g>
</svg>
