<?xml version="1.0" encoding="UTF-8" standalone="no"?>
<!DOCTYPE svg PUBLIC "-//W3C//DTD SVG 1.1//EN"
 "http://www.w3.org/Graphics/SVG/1.1/DTD/svg11.dtd">
<!-- Generated by graphviz version 2.40.1 (20161225.0304)
 -->
<!-- Title: Log Pages: 1 -->
<svg width="1480pt" height="953pt"
 viewBox="0.00 0.00 1480.00 953.00" xmlns="http://www.w3.org/2000/svg" xmlns:xlink="http://www.w3.org/1999/xlink">
<g id="graph0" class="graph" transform="scale(1 1) rotate(0) translate(4 949)">
<title>Log</title>
<polygon fill="#ffffff" stroke="transparent" points="-4,4 -4,-949 1476,-949 1476,4 -4,4"/>
<!-- Node1 -->
<g id="node1" class="node">
<title>Node1</title>
<polygon fill="#bfbfbf" stroke="#000000" points="1440,-415.5 1440,-434.5 1472,-434.5 1472,-415.5 1440,-415.5"/>
<text text-anchor="middle" x="1456" y="-422.5" font-family="Helvetica,sans-Serif" font-size="10.00" fill="#000000">Log</text>
</g>
<!-- Node22 -->
<g id="node2" class="node">
<title>Node22</title>
<polygon fill="#ffffff" stroke="#bfbfbf" points="428,-745.5 428,-764.5 538,-764.5 538,-745.5 428,-745.5"/>
<text text-anchor="middle" x="483" y="-752.5" font-family="Helvetica,sans-Serif" font-size="10.00" fill="#000000">vector&lt;AStringBase&gt;</text>
</g>
<!-- Node2 -->
<g id="node17" class="node">
<title>Node2</title>
<g id="a_node17"><a xlink:href="classaworx_1_1lib_1_1lox_1_1core_1_1textlogger_1_1TextLogger.html" target="_top" xlink:title="TextLogger">
<polygon fill="#ffffff" stroke="#000000" points="793.5,-665.5 793.5,-684.5 858.5,-684.5 858.5,-665.5 793.5,-665.5"/>
<text text-anchor="middle" x="826" y="-672.5" font-family="Helvetica,sans-Serif" font-size="10.00" fill="#000000">TextLogger</text>
</a>
</g>
</g>
<!-- Node22&#45;&gt;Node2 -->
<g id="edge17" class="edge">
<title>Node22&#45;&gt;Node2</title>
<path fill="none" stroke="#9a32cd" stroke-dasharray="5,2" d="M534.1471,-743.0706C605.5581,-726.415 733.1058,-696.6663 793.0977,-682.674"/>
<polygon fill="#9a32cd" stroke="#9a32cd" points="532.9767,-739.7496 524.0331,-745.4296 534.5668,-746.5666 532.9767,-739.7496"/>
<text text-anchor="middle" x="655.5" y="-727" font-family="Helvetica,sans-Serif" font-size="10.00" fill="#000000"> replacements</text>
</g>
<!-- Node25 -->
<g id="node3" class="node">
<title>Node25</title>
<polygon fill="#ffffff" stroke="#bfbfbf" points="141,-915.5 141,-934.5 226,-934.5 226,-915.5 141,-915.5"/>
<text text-anchor="middle" x="183.5" y="-922.5" font-family="Helvetica,sans-Serif" font-size="10.00" fill="#000000">vector&lt;integer&gt;</text>
</g>
<!-- Node24 -->
<g id="node27" class="node">
<title>Node24</title>
<g id="a_node27"><a xlink:href="classaworx_1_1lib_1_1strings_1_1util_1_1AutoSizes.html" target="_top" xlink:title="AutoSizes">
<polygon fill="#ffffff" stroke="#000000" points="452,-910.5 452,-929.5 514,-929.5 514,-910.5 452,-910.5"/>
<text text-anchor="middle" x="483" y="-917.5" font-family="Helvetica,sans-Serif" font-size="10.00" fill="#000000">AutoSizes</text>
</a>
</g>
</g>
<!-- Node25&#45;&gt;Node24 -->
<g id="edge21" class="edge">
<title>Node25&#45;&gt;Node24</title>
<path fill="none" stroke="#9a32cd" stroke-dasharray="5,2" d="M236.1512,-924.121C298.6807,-923.0771 400.918,-921.3703 451.9636,-920.5181"/>
<polygon fill="#9a32cd" stroke="#9a32cd" points="236.0331,-920.6224 226.093,-924.2889 236.15,-927.6214 236.0331,-920.6224"/>
<text text-anchor="middle" x="321" y="-937" font-family="Helvetica,sans-Serif" font-size="10.00" fill="#000000"> values</text>
<text text-anchor="middle" x="321" y="-926" font-family="Helvetica,sans-Serif" font-size="10.00" fill="#000000">sessionValues</text>
</g>
<!-- Node37 -->
<g id="node4" class="node">
<title>Node37</title>
<g id="a_node4"><a xlink:href="classaworx_1_1lib_1_1strings_1_1PreallocatedStringBase.html" target="_top" xlink:title="PreallocatedStringBase\&lt;TChar, TCapacity\&gt;">
<polygon fill="#ffffff" stroke="#000000" points="380,-153.5 380,-172.5 586,-172.5 586,-153.5 380,-153.5"/>
<text text-anchor="middle" x="483" y="-160.5" font-family="Helvetica,sans-Serif" font-size="10.00" fill="#000000">PreallocatedStringBase&lt;TChar, TCapacity&gt;</text>
</a>
</g>
</g>
<!-- Node76 -->
<g id="node9" class="node">
<title>Node76</title>
<polygon fill="#ffffff" stroke="#bfbfbf" points="776,-152.5 776,-171.5 876,-171.5 876,-152.5 776,-152.5"/>
<text text-anchor="middle" x="826" y="-159.5" font-family="Helvetica,sans-Serif" font-size="10.00" fill="#000000">map&lt;int, String32&gt;</text>
</g>
<!-- Node37&#45;&gt;Node76 -->
<g id="edge31" class="edge">
<title>Node37&#45;&gt;Node76</title>
<path fill="none" stroke="#9a32cd" stroke-dasharray="5,2" d="M596.4149,-162.6693C657.173,-162.4922 728.9601,-162.2829 775.8796,-162.1461"/>
<polygon fill="#9a32cd" stroke="#9a32cd" points="596.3662,-159.1694 586.3765,-162.6986 596.3866,-166.1693 596.3662,-159.1694"/>
<text text-anchor="middle" x="655.5" y="-166" font-family="Helvetica,sans-Serif" font-size="10.00" fill="#000000"> elements</text>
</g>
<!-- Node35 -->
<g id="node31" class="node">
<title>Node35</title>
<g id="a_node31"><a xlink:href="classaworx_1_1lib_1_1lox_1_1ALoxReportWriter.html" target="_top" xlink:title="ALoxReportWriter">
<polygon fill="#ffffff" stroke="#000000" points="1221,-109.5 1221,-128.5 1316,-128.5 1316,-109.5 1221,-109.5"/>
<text text-anchor="middle" x="1268.5" y="-116.5" font-family="Helvetica,sans-Serif" font-size="10.00" fill="#000000">ALoxReportWriter</text>
</a>
</g>
</g>
<!-- Node37&#45;&gt;Node35 -->
<g id="edge30" class="edge">
<title>Node37&#45;&gt;Node35</title>
<path fill="none" stroke="#9a32cd" stroke-dasharray="5,2" d="M545.1534,-151.1523C558.8002,-147.8254 573.0394,-143.7814 586,-139 651.2734,-114.9194 657.8771,-85.3033 725,-67 858.881,-30.4928 899.4908,-36.3422 1037,-55 1113.6485,-65.4 1200.7677,-94.3319 1242.9382,-109.4783"/>
<polygon fill="#9a32cd" stroke="#9a32cd" points="544.2865,-147.7606 535.348,-153.4485 545.8826,-154.5762 544.2865,-147.7606"/>
<text text-anchor="middle" x="991" y="-58" font-family="Helvetica,sans-Serif" font-size="10.00" fill="#000000"> reportDomain</text>
</g>
<!-- Node40 -->
<g id="node5" class="node">
<title>Node40</title>
<g id="a_node5"><a xlink:href="classaworx_1_1lib_1_1lox_1_1core_1_1ScopeStore.html" target="_top" xlink:title="ScopeStore\&lt;map\&lt;AStringBase, Box\&gt; *\&gt;">
<polygon fill="#ffffff" stroke="#ff0000" points="728.5,-409.5 728.5,-428.5 923.5,-428.5 923.5,-409.5 728.5,-409.5"/>
<text text-anchor="middle" x="826" y="-416.5" font-family="Helvetica,sans-Serif" font-size="10.00" fill="#000000">ScopeStore&lt;map&lt;AStringBase, Box&gt; *&gt;</text>
</a>
</g>
</g>
<!-- Node39 -->
<g id="node21" class="node">
<title>Node39</title>
<g id="a_node21"><a xlink:href="classaworx_1_1lib_1_1lox_1_1Lox.html" target="_top" xlink:title="Lox">
<polygon fill="#ffffff" stroke="#000000" points="1075,-266.5 1075,-285.5 1107,-285.5 1107,-266.5 1075,-266.5"/>
<text text-anchor="middle" x="1091" y="-273.5" font-family="Helvetica,sans-Serif" font-size="10.00" fill="#000000">Lox</text>
</a>
</g>
</g>
<!-- Node40&#45;&gt;Node39 -->
<g id="edge34" class="edge">
<title>Node40&#45;&gt;Node39</title>
<path fill="none" stroke="#9a32cd" stroke-dasharray="5,2" d="M933.7428,-425.9416C969.4604,-423.261 1007.5693,-414.4808 1037,-393 1073.6827,-366.2262 1086.1441,-308.3444 1089.7316,-285.5253"/>
<polygon fill="#9a32cd" stroke="#9a32cd" points="933.5137,-422.4489 923.7412,-426.5414 933.9328,-429.4364 933.5137,-422.4489"/>
<text text-anchor="middle" x="991" y="-427" font-family="Helvetica,sans-Serif" font-size="10.00" fill="#000000"> scopeLogData</text>
</g>
<!-- Node61 -->
<g id="node6" class="node">
<title>Node61</title>
<g id="a_node6"><a xlink:href="classaworx_1_1lib_1_1lox_1_1core_1_1ScopeStore.html" target="_top" xlink:title="ScopeStore\&lt;map\&lt;AStringBase, int\&gt; *\&gt;">
<polygon fill="#ffffff" stroke="#ff0000" points="732,-333.5 732,-352.5 920,-352.5 920,-333.5 732,-333.5"/>
<text text-anchor="middle" x="826" y="-340.5" font-family="Helvetica,sans-Serif" font-size="10.00" fill="#000000">ScopeStore&lt;map&lt;AStringBase, int&gt; *&gt;</text>
</a>
</g>
</g>
<!-- Node61&#45;&gt;Node39 -->
<g id="edge40" class="edge">
<title>Node61&#45;&gt;Node39</title>
<path fill="none" stroke="#9a32cd" stroke-dasharray="5,2" d="M929.3074,-331.9135C964.1578,-326.3365 1002.8585,-318.0903 1037,-306 1051.3554,-300.9164 1066.3999,-292.2421 1076.9522,-285.5246"/>
<polygon fill="#9a32cd" stroke="#9a32cd" points="928.4565,-328.5033 919.1076,-333.4882 929.5245,-335.4214 928.4565,-328.5033"/>
<text text-anchor="middle" x="991" y="-332" font-family="Helvetica,sans-Serif" font-size="10.00" fill="#000000"> scopeLogOnce</text>
</g>
<!-- Node70 -->
<g id="node7" class="node">
<title>Node70</title>
<g id="a_node7"><a xlink:href="classaworx_1_1lib_1_1lox_1_1core_1_1ScopeStore.html" target="_top" xlink:title="ScopeStore\&lt;Box *\&gt;">
<polygon fill="#ffffff" stroke="#ff0000" points="774,-295.5 774,-314.5 878,-314.5 878,-295.5 774,-295.5"/>
<text text-anchor="middle" x="826" y="-302.5" font-family="Helvetica,sans-Serif" font-size="10.00" fill="#000000">ScopeStore&lt;Box *&gt;</text>
</a>
</g>
</g>
<!-- Node70&#45;&gt;Node39 -->
<g id="edge43" class="edge">
<title>Node70&#45;&gt;Node39</title>
<path fill="none" stroke="#9a32cd" stroke-dasharray="5,2" d="M887.9889,-298.2163C949.2267,-291.5148 1038.8189,-281.7104 1074.9832,-277.7528"/>
<polygon fill="#9a32cd" stroke="#9a32cd" points="887.5992,-294.738 878.0393,-299.3051 888.3607,-301.6964 887.5992,-294.738"/>
<text text-anchor="middle" x="991" y="-294" font-family="Helvetica,sans-Serif" font-size="10.00" fill="#000000"> scopePrefixes</text>
</g>
<!-- Node73 -->
<g id="node8" class="node">
<title>Node73</title>
<g id="a_node8"><a xlink:href="classaworx_1_1lib_1_1lox_1_1core_1_1ScopeStore.html" target="_top" xlink:title="ScopeStore\&lt;AStringBase *\&gt;">
<polygon fill="#ffffff" stroke="#ff0000" points="755.5,-494.5 755.5,-513.5 896.5,-513.5 896.5,-494.5 755.5,-494.5"/>
<text text-anchor="middle" x="826" y="-501.5" font-family="Helvetica,sans-Serif" font-size="10.00" fill="#000000">ScopeStore&lt;AStringBase *&gt;</text>
</a>
</g>
</g>
<!-- Node73&#45;&gt;Node39 -->
<g id="edge44" class="edge">
<title>Node73&#45;&gt;Node39</title>
<path fill="none" stroke="#9a32cd" stroke-dasharray="5,2" d="M895.051,-514.2436C940.5741,-516.982 998.6537,-512.2523 1037,-479 1067.2386,-452.7784 1085.322,-322.2828 1089.8639,-285.6042"/>
<polygon fill="#9a32cd" stroke="#9a32cd" points="895.1809,-510.7438 884.9517,-513.5032 894.669,-517.725 895.1809,-510.7438"/>
<text text-anchor="middle" x="991" y="-516" font-family="Helvetica,sans-Serif" font-size="10.00" fill="#000000"> scopeDomains</text>
</g>
<!-- Node76&#45;&gt;Node39 -->
<g id="edge45" class="edge">
<title>Node76&#45;&gt;Node39</title>
<path fill="none" stroke="#9a32cd" stroke-dasharray="5,2" d="M886.4156,-154.0532C931.4075,-151.2569 992.4889,-154.3462 1037,-183 1067.7694,-202.8076 1083.077,-246.7997 1088.5622,-266.3329"/>
<polygon fill="#9a32cd" stroke="#9a32cd" points="885.9261,-150.5797 876.2101,-154.8045 886.4401,-157.5608 885.9261,-150.5797"/>
<text text-anchor="middle" x="991" y="-186" font-family="Helvetica,sans-Serif" font-size="10.00" fill="#000000"> threadDictionary</text>
</g>
<!-- Node77 -->
<g id="node10" class="node">
<title>Node77</title>
<polygon fill="#ffffff" stroke="#bfbfbf" points="725,-76.5 725,-95.5 927,-95.5 927,-76.5 725,-76.5"/>
<text text-anchor="middle" x="826" y="-83.5" font-family="Helvetica,sans-Serif" font-size="10.00" fill="#000000">vector&lt;lox::Lox::DomainSubstitutionRule&gt;</text>
</g>
<!-- Node77&#45;&gt;Node39 -->
<g id="edge46" class="edge">
<title>Node77&#45;&gt;Node39</title>
<path fill="none" stroke="#9a32cd" stroke-dasharray="5,2" d="M873.9196,-74.6613C920.6161,-66.6041 991.1019,-62.7782 1037,-99 1064.3636,-120.5947 1084.1375,-232.7579 1089.5273,-266.4314"/>
<polygon fill="#9a32cd" stroke="#9a32cd" points="873.2399,-71.2275 864.0438,-76.489 874.5138,-78.1106 873.2399,-71.2275"/>
<text text-anchor="middle" x="991" y="-102" font-family="Helvetica,sans-Serif" font-size="10.00" fill="#000000"> domainSubstitutions</text>
</g>
<!-- Node79 -->
<g id="node11" class="node">
<title>Node79</title>
<polygon fill="#ffffff" stroke="#bfbfbf" points="781,-371.5 781,-390.5 871,-390.5 871,-371.5 781,-371.5"/>
<text text-anchor="middle" x="826" y="-378.5" font-family="Helvetica,sans-Serif" font-size="10.00" fill="#000000">vector&lt;Boxes *&gt;</text>
</g>
<!-- Node79&#45;&gt;Node39 -->
<g id="edge47" class="edge">
<title>Node79&#45;&gt;Node39</title>
<path fill="none" stroke="#9a32cd" stroke-dasharray="5,2" d="M881.3276,-375.7806C934.7849,-369.9471 1011.326,-359.2721 1037,-344 1060.8395,-329.8192 1078.3062,-300.8944 1086.2455,-285.7459"/>
<polygon fill="#9a32cd" stroke="#9a32cd" points="880.8725,-372.3092 871.2992,-376.8481 881.6135,-379.2699 880.8725,-372.3092"/>
<text text-anchor="middle" x="991" y="-381" font-family="Helvetica,sans-Serif" font-size="10.00" fill="#000000"> internalLogables</text>
<text text-anchor="middle" x="991" y="-370" font-family="Helvetica,sans-Serif" font-size="10.00" fill="#000000">logableContainers</text>
</g>
<!-- Node23 -->
<g id="node12" class="node">
<title>Node23</title>
<g id="a_node12"><a xlink:href="classaworx_1_1lib_1_1strings_1_1AStringBase.html" target="_top" xlink:title="AStringBase\&lt;TChar\&gt;">
<polygon fill="#ffffff" stroke="#ff0000" points="128.5,-720.5 128.5,-739.5 238.5,-739.5 238.5,-720.5 128.5,-720.5"/>
<text text-anchor="middle" x="183.5" y="-727.5" font-family="Helvetica,sans-Serif" font-size="10.00" fill="#000000">AStringBase&lt;TChar&gt;</text>
</a>
</g>
</g>
<!-- Node23&#45;&gt;Node22 -->
<g id="edge18" class="edge">
<title>Node23&#45;&gt;Node22</title>
<path fill="none" stroke="#9a32cd" stroke-dasharray="5,2" d="M210.5243,-744.1952C229.4102,-753.287 255.5302,-764.2423 280,-769 334.0967,-779.5182 397.6446,-772.0186 439.037,-764.5546"/>
<polygon fill="#9a32cd" stroke="#9a32cd" points="211.8692,-740.9556 201.3547,-739.6533 208.7622,-747.2283 211.8692,-740.9556"/>
<text text-anchor="middle" x="321" y="-777" font-family="Helvetica,sans-Serif" font-size="10.00" fill="#000000"> elements</text>
</g>
<!-- Node23&#45;&gt;Node73 -->
<g id="edge19" class="edge">
<title>Node23&#45;&gt;Node73</title>
<path fill="none" stroke="#9a32cd" stroke-dasharray="5,2" d="M226.6035,-716.8138C238.8112,-711.8191 251.5959,-705.2827 262,-697 272.7116,-688.4724 269.5743,-680.8747 280,-672 311.0272,-645.5886 333.0249,-659.6477 362,-631 374.4389,-618.7017 366.0706,-606.5805 380,-596 395.7395,-584.0446 659.1028,-534.6172 773.5711,-513.5648"/>
<polygon fill="#9a32cd" stroke="#9a32cd" points="225.081,-713.6489 216.9933,-720.4928 227.5837,-720.1862 225.081,-713.6489"/>
<text text-anchor="middle" x="483" y="-610" font-family="Helvetica,sans-Serif" font-size="10.00" fill="#000000"> walkLocalObject</text>
<text text-anchor="middle" x="483" y="-599" font-family="Helvetica,sans-Serif" font-size="10.00" fill="#000000">globalStore</text>
</g>
<!-- Node30 -->
<g id="node13" class="node">
<title>Node30</title>
<g id="a_node13"><a xlink:href="classaworx_1_1lib_1_1strings_1_1AStringBase.html" target="_top" xlink:title="AStringBase\&lt;character\&gt;">
<polygon fill="#ffffff" stroke="#ff0000" points="121.5,-786.5 121.5,-805.5 245.5,-805.5 245.5,-786.5 121.5,-786.5"/>
<text text-anchor="middle" x="183.5" y="-793.5" font-family="Helvetica,sans-Serif" font-size="10.00" fill="#000000">AStringBase&lt;character&gt;</text>
</a>
</g>
</g>
<!-- Node30&#45;&gt;Node2 -->
<g id="edge26" class="edge">
<title>Node30&#45;&gt;Node2</title>
<path fill="none" stroke="#9a32cd" stroke-dasharray="5,2" d="M255.9036,-800.413C359.8296,-804.0689 555.455,-800.8519 707,-739 745.8766,-723.1328 788.5666,-698.1649 810.7302,-684.5806"/>
<polygon fill="#9a32cd" stroke="#9a32cd" points="255.9583,-796.9127 245.8315,-800.0269 255.6901,-803.9075 255.9583,-796.9127"/>
<text text-anchor="middle" x="483" y="-824" font-family="Helvetica,sans-Serif" font-size="10.00" fill="#000000"> logBuf</text>
<text text-anchor="middle" x="483" y="-813" font-family="Helvetica,sans-Serif" font-size="10.00" fill="#000000">MultiLineDelimiter</text>
<text text-anchor="middle" x="483" y="-802" font-family="Helvetica,sans-Serif" font-size="10.00" fill="#000000">msgBuf</text>
</g>
<!-- Node27 -->
<g id="node24" class="node">
<title>Node27</title>
<g id="a_node24"><a xlink:href="classaworx_1_1lib_1_1lox_1_1core_1_1textlogger_1_1MetaInfo.html" target="_top" xlink:title="MetaInfo">
<polygon fill="#ffffff" stroke="#000000" points="455.5,-665.5 455.5,-684.5 510.5,-684.5 510.5,-665.5 455.5,-665.5"/>
<text text-anchor="middle" x="483" y="-672.5" font-family="Helvetica,sans-Serif" font-size="10.00" fill="#000000">MetaInfo</text>
</a>
</g>
</g>
<!-- Node30&#45;&gt;Node27 -->
<g id="edge27" class="edge">
<title>Node30&#45;&gt;Node27</title>
<path fill="none" stroke="#9a32cd" stroke-dasharray="5,2" d="M216.0678,-781.8205C231.4579,-773.8855 249.2126,-762.7958 262,-749 274.1605,-735.8805 265.7171,-723.7703 280,-713 293.8847,-702.53 403.3042,-686.106 455.4899,-678.7647"/>
<polygon fill="#9a32cd" stroke="#9a32cd" points="214.2861,-778.7963 206.8564,-786.3495 217.3747,-785.0781 214.2861,-778.7963"/>
<text text-anchor="middle" x="321" y="-716" font-family="Helvetica,sans-Serif" font-size="10.00" fill="#000000"> Format</text>
</g>
<!-- Node38 -->
<g id="node14" class="node">
<title>Node38</title>
<g id="a_node14"><a xlink:href="classaworx_1_1lib_1_1strings_1_1AStringBase.html" target="_top" xlink:title="AStringBase\&lt;TChar\&gt;">
<polygon fill="#ffffff" stroke="#ff0000" points="128.5,-152.5 128.5,-171.5 238.5,-171.5 238.5,-152.5 128.5,-152.5"/>
<text text-anchor="middle" x="183.5" y="-159.5" font-family="Helvetica,sans-Serif" font-size="10.00" fill="#000000">AStringBase&lt;TChar&gt;</text>
</a>
</g>
</g>
<!-- Node38&#45;&gt;Node37 -->
<g id="edge32" class="edge">
<title>Node38&#45;&gt;Node37</title>
<path fill="none" stroke="#191970" d="M249.2709,-162.2196C287.5237,-162.3473 336.5805,-162.5111 379.8656,-162.6556"/>
<polygon fill="#191970" stroke="#191970" points="248.7936,-158.7181 238.7819,-162.1846 248.7702,-165.718 248.7936,-158.7181"/>
</g>
<!-- Node82 -->
<g id="node15" class="node">
<title>Node82</title>
<g id="a_node15"><a xlink:href="classaworx_1_1lib_1_1strings_1_1StringBase.html" target="_top" xlink:title="StringBase\&lt;TChar\&gt;">
<polygon fill="#ffffff" stroke="#000000" points="604,-209.5 604,-228.5 707,-228.5 707,-209.5 604,-209.5"/>
<text text-anchor="middle" x="655.5" y="-216.5" font-family="Helvetica,sans-Serif" font-size="10.00" fill="#000000">StringBase&lt;TChar&gt;</text>
</a>
</g>
</g>
<!-- Node82&#45;&gt;Node39 -->
<g id="edge48" class="edge">
<title>Node82&#45;&gt;Node39</title>
<path fill="none" stroke="#9a32cd" stroke-dasharray="5,2" d="M717.0874,-211.1525C794.632,-203.7899 930.5752,-199.3471 1037,-241 1052.8134,-247.1891 1068.8855,-258.3675 1079.3342,-266.4285"/>
<polygon fill="#9a32cd" stroke="#9a32cd" points="716.6071,-207.683 707.0038,-212.158 717.3017,-214.6484 716.6071,-207.683"/>
<text text-anchor="middle" x="826" y="-216" font-family="Helvetica,sans-Serif" font-size="10.00" fill="#000000"> noKeyHashKey</text>
</g>
<!-- Node20 -->
<g id="node16" class="node">
<title>Node20</title>
<g id="a_node16"><a xlink:href="classaworx_1_1lib_1_1strings_1_1PreallocatedStringBase.html" target="_top" xlink:title="PreallocatedStringBase\&lt;TChar\&gt;">
<polygon fill="#ffffff" stroke="#ff0000" points="105,-385.5 105,-404.5 262,-404.5 262,-385.5 105,-385.5"/>
<text text-anchor="middle" x="183.5" y="-392.5" font-family="Helvetica,sans-Serif" font-size="10.00" fill="#000000">PreallocatedStringBase&lt;TChar&gt;</text>
</a>
</g>
</g>
<!-- Node20&#45;&gt;Node2 -->
<g id="edge9" class="edge">
<title>Node20&#45;&gt;Node2</title>
<path fill="none" stroke="#9a32cd" stroke-dasharray="5,2" d="M272.4393,-389.2947C360.0794,-388.1945 493.8735,-399.1255 586,-465 597.1372,-472.9636 594.1565,-480.4836 604,-490 643.6144,-528.2982 664.2053,-524.2918 707,-559 751.3677,-594.984 798.2906,-644.6971 817.2751,-665.3763"/>
<polygon fill="#9a32cd" stroke="#9a32cd" points="272.1867,-385.7986 262.2518,-389.4793 272.3136,-392.7975 272.1867,-385.7986"/>
<text text-anchor="middle" x="483" y="-468" font-family="Helvetica,sans-Serif" font-size="10.00" fill="#000000"> FmtMultiLineMsgHeadline</text>
</g>
<!-- Node20&#45;&gt;Node2 -->
<g id="edge10" class="edge">
<title>Node20&#45;&gt;Node2</title>
<path fill="none" stroke="#9a32cd" stroke-dasharray="5,2" d="M272.2229,-399.8345C309.7561,-403.5874 348.0217,-410.2362 362,-422 381.3559,-438.2895 360.4071,-459.9963 380,-476 451.428,-534.3431 510.9057,-447.4582 586,-501 600.89,-511.6164 591.7324,-524.4381 604,-538 662.0296,-602.1518 757.0457,-646.8389 801.5551,-665.3959"/>
<polygon fill="#9a32cd" stroke="#9a32cd" points="272.4788,-396.3432 262.1962,-398.8962 271.8265,-403.3128 272.4788,-396.3432"/>
<text text-anchor="middle" x="483" y="-537" font-family="Helvetica,sans-Serif" font-size="10.00" fill="#000000"> FmtMsgSuffix</text>
<text text-anchor="middle" x="483" y="-526" font-family="Helvetica,sans-Serif" font-size="10.00" fill="#000000">MultiLineDelimiterRepl</text>
<text text-anchor="middle" x="483" y="-515" font-family="Helvetica,sans-Serif" font-size="10.00" fill="#000000">FmtMultiLineSuffix</text>
<text text-anchor="middle" x="483" y="-504" font-family="Helvetica,sans-Serif" font-size="10.00" fill="#000000">FmtMultiLinePrefix</text>
</g>
<!-- Node3 -->
<g id="node18" class="node">
<title>Node3</title>
<g id="a_node18"><a xlink:href="classaworx_1_1lib_1_1lox_1_1core_1_1Logger.html" target="_top" xlink:title="Logger">
<polygon fill="#ffffff" stroke="#000000" points="460,-868.5 460,-887.5 506,-887.5 506,-868.5 460,-868.5"/>
<text text-anchor="middle" x="483" y="-875.5" font-family="Helvetica,sans-Serif" font-size="10.00" fill="#000000">Logger</text>
</a>
</g>
</g>
<!-- Node20&#45;&gt;Node3 -->
<g id="edge11" class="edge">
<title>Node20&#45;&gt;Node3</title>
<path fill="none" stroke="#9a32cd" stroke-dasharray="5,2" d="M192.2949,-413.7311C208.602,-449.2482 243.5437,-529.177 262,-600 269.0217,-626.9445 261.1504,-703.5061 280,-724 305.3252,-751.5343 336.447,-715.6769 362,-743 396.1375,-779.5022 345.8851,-817.4767 380,-854 400.3038,-875.7372 436.1571,-879.5741 459.7494,-879.4611"/>
<polygon fill="#9a32cd" stroke="#9a32cd" points="195.4258,-412.163 188.0443,-404.5629 189.0752,-415.1074 195.4258,-412.163"/>
<text text-anchor="middle" x="321" y="-757" font-family="Helvetica,sans-Serif" font-size="10.00" fill="#000000"> TypeName</text>
<text text-anchor="middle" x="321" y="-746" font-family="Helvetica,sans-Serif" font-size="10.00" fill="#000000">Name</text>
</g>
<!-- Node20&#45;&gt;Node27 -->
<g id="edge12" class="edge">
<title>Node20&#45;&gt;Node27</title>
<path fill="none" stroke="#9a32cd" stroke-dasharray="5,2" d="M231.7953,-407.0014C283.9174,-420.0585 359.8398,-439.4282 362,-442 392.6941,-478.5432 347.9566,-620.634 380,-656 398.6801,-676.617 431.8225,-679.3769 455.4679,-678.2603"/>
<polygon fill="#9a32cd" stroke="#9a32cd" points="232.5908,-403.5926 222.0404,-404.5617 230.8924,-410.3834 232.5908,-403.5926"/>
<text text-anchor="middle" x="321" y="-445" font-family="Helvetica,sans-Serif" font-size="10.00" fill="#000000"> DateFormat</text>
</g>
<!-- Node20&#45;&gt;Node27 -->
<g id="edge13" class="edge">
<title>Node20&#45;&gt;Node27</title>
<path fill="none" stroke="#9a32cd" stroke-dasharray="5,2" d="M208.4595,-409.7556C255.2943,-437.6708 352.5125,-496.7819 362,-512 396.1223,-566.7327 335.736,-609.0884 380,-656 398.9683,-676.1029 431.7233,-679.0318 455.2062,-678.0938"/>
<polygon fill="#9a32cd" stroke="#9a32cd" points="210.1896,-406.7124 199.8052,-404.6108 206.6125,-412.7294 210.1896,-406.7124"/>
<text text-anchor="middle" x="321" y="-625" font-family="Helvetica,sans-Serif" font-size="10.00" fill="#000000"> TimeDiffHours</text>
<text text-anchor="middle" x="321" y="-614" font-family="Helvetica,sans-Serif" font-size="10.00" fill="#000000">VerbosityInfo</text>
<text text-anchor="middle" x="321" y="-603" font-family="Helvetica,sans-Serif" font-size="10.00" fill="#000000">VerbosityWarning</text>
<text text-anchor="middle" x="321" y="-592" font-family="Helvetica,sans-Serif" font-size="10.00" fill="#000000">VerbosityVerbose</text>
<text text-anchor="middle" x="321" y="-581" font-family="Helvetica,sans-Serif" font-size="10.00" fill="#000000">TimeDiffMicros</text>
<text text-anchor="middle" x="321" y="-570" font-family="Helvetica,sans-Serif" font-size="10.00" fill="#000000">TimeElapsedDays</text>
<text text-anchor="middle" x="321" y="-559" font-family="Helvetica,sans-Serif" font-size="10.00" fill="#000000">VerbosityError</text>
<text text-anchor="middle" x="321" y="-548" font-family="Helvetica,sans-Serif" font-size="10.00" fill="#000000">TimeOfDayFormat</text>
<text text-anchor="middle" x="321" y="-537" font-family="Helvetica,sans-Serif" font-size="10.00" fill="#000000">TimeDiffMins</text>
<text text-anchor="middle" x="321" y="-526" font-family="Helvetica,sans-Serif" font-size="10.00" fill="#000000">TimeDiffSecs</text>
<text text-anchor="middle" x="321" y="-515" font-family="Helvetica,sans-Serif" font-size="10.00" fill="#000000">...</text>
</g>
<!-- Node47 -->
<g id="node25" class="node">
<title>Node47</title>
<g id="a_node25"><a xlink:href="classaworx_1_1lib_1_1lox_1_1core_1_1ScopeInfo.html" target="_top" xlink:title="ScopeInfo">
<polygon fill="#ffffff" stroke="#ff0000" points="452.5,-362.5 452.5,-381.5 513.5,-381.5 513.5,-362.5 452.5,-362.5"/>
<text text-anchor="middle" x="483" y="-369.5" font-family="Helvetica,sans-Serif" font-size="10.00" fill="#000000">ScopeInfo</text>
</a>
</g>
</g>
<!-- Node20&#45;&gt;Node47 -->
<g id="edge14" class="edge">
<title>Node20&#45;&gt;Node47</title>
<path fill="none" stroke="#9a32cd" stroke-dasharray="5,2" d="M211.312,-381.2075C230.1758,-372.6444 255.9615,-362.4505 280,-358 340.4414,-346.8099 412.5012,-357.299 452.4633,-365.1667"/>
<polygon fill="#9a32cd" stroke="#9a32cd" points="209.7042,-378.0954 202.1242,-385.4978 212.6659,-384.438 209.7042,-378.0954"/>
<text text-anchor="middle" x="321" y="-361" font-family="Helvetica,sans-Serif" font-size="10.00" fill="#000000"> loxName</text>
</g>
<!-- Node65 -->
<g id="node26" class="node">
<title>Node65</title>
<g id="a_node26"><a xlink:href="classaworx_1_1lib_1_1lox_1_1core_1_1Domain.html" target="_top" xlink:title="Domain">
<polygon fill="#ffffff" stroke="#ff0000" points="458,-279.5 458,-298.5 508,-298.5 508,-279.5 458,-279.5"/>
<text text-anchor="middle" x="483" y="-286.5" font-family="Helvetica,sans-Serif" font-size="10.00" fill="#000000">Domain</text>
</a>
</g>
</g>
<!-- Node20&#45;&gt;Node65 -->
<g id="edge15" class="edge">
<title>Node20&#45;&gt;Node65</title>
<path fill="none" stroke="#9a32cd" stroke-dasharray="5,2" d="M205.3732,-379.5155C224.3218,-366.7432 252.8815,-348.9951 280,-338 341.4856,-313.071 418.7993,-298.7436 457.8927,-292.5996"/>
<polygon fill="#9a32cd" stroke="#9a32cd" points="203.1575,-376.791 196.8916,-385.3344 207.1176,-382.5632 203.1575,-376.791"/>
<text text-anchor="middle" x="321" y="-341" font-family="Helvetica,sans-Serif" font-size="10.00" fill="#000000"> Name</text>
</g>
<!-- Node20&#45;&gt;Node65 -->
<g id="edge16" class="edge">
<title>Node20&#45;&gt;Node65</title>
<path fill="none" stroke="#9a32cd" stroke-dasharray="5,2" d="M194.9173,-376.8106C210.7552,-353.443 241.8032,-313.8861 280,-297 339.3561,-270.7598 418.2579,-278.1071 457.945,-284.3156"/>
<polygon fill="#9a32cd" stroke="#9a32cd" points="191.8122,-375.1633 189.2582,-385.4457 197.667,-379.0003 191.8122,-375.1633"/>
<text text-anchor="middle" x="321" y="-300" font-family="Helvetica,sans-Serif" font-size="10.00" fill="#000000"> FullPath</text>
</g>
<!-- Node2&#45;&gt;Node1 -->
<g id="edge1" class="edge">
<title>Node2&#45;&gt;Node1</title>
<path fill="none" stroke="#9a32cd" stroke-dasharray="5,2" d="M859.7829,-661.5941C975.98,-615.4841 1356.6107,-464.4402 1439.8309,-431.4163"/>
<polygon fill="#9a32cd" stroke="#9a32cd" points="858.3147,-658.4112 850.3107,-665.3529 860.8966,-664.9176 858.3147,-658.4112"/>
<text text-anchor="middle" x="1174" y="-561" font-family="Helvetica,sans-Serif" font-size="10.00" fill="#000000"> IDELogger</text>
<text text-anchor="middle" x="1174" y="-550" font-family="Helvetica,sans-Serif" font-size="10.00" fill="#000000">DebugLogger</text>
</g>
<!-- Node3&#45;&gt;Node2 -->
<g id="edge2" class="edge">
<title>Node3&#45;&gt;Node2</title>
<path fill="none" stroke="#191970" d="M516.3188,-878.0746C562.5794,-876.6954 647.3001,-868.6772 707,-831 767.4937,-792.8218 808.8165,-712.3054 821.7137,-684.6024"/>
<polygon fill="#191970" stroke="#191970" points="516.1626,-874.577 506.2385,-878.2869 516.3101,-881.5755 516.1626,-874.577"/>
</g>
<!-- Node4 -->
<g id="node19" class="node">
<title>Node4</title>
<g id="a_node19"><a xlink:href="classaworx_1_1lib_1_1threads_1_1SmartLock.html" target="_top" xlink:title="SmartLock">
<polygon fill="#ffffff" stroke="#ff0000" points="151.5,-877.5 151.5,-896.5 215.5,-896.5 215.5,-877.5 151.5,-877.5"/>
<text text-anchor="middle" x="183.5" y="-884.5" font-family="Helvetica,sans-Serif" font-size="10.00" fill="#000000">SmartLock</text>
</a>
</g>
</g>
<!-- Node4&#45;&gt;Node3 -->
<g id="edge3" class="edge">
<title>Node4&#45;&gt;Node3</title>
<path fill="none" stroke="#191970" d="M225.7081,-885.7316C289.7409,-883.8075 409.2963,-880.2148 459.6702,-878.7011"/>
<polygon fill="#191970" stroke="#191970" points="225.4421,-882.238 215.5517,-886.0368 225.6524,-889.2348 225.4421,-882.238"/>
</g>
<!-- Node5 -->
<g id="node20" class="node">
<title>Node5</title>
<g id="a_node20"><a xlink:href="classaworx_1_1lib_1_1threads_1_1ThreadLock.html" target="_top" xlink:title="ThreadLock">
<polygon fill="#ffffff" stroke="#ff0000" points="0,-126.5 0,-145.5 68,-145.5 68,-126.5 0,-126.5"/>
<text text-anchor="middle" x="34" y="-133.5" font-family="Helvetica,sans-Serif" font-size="10.00" fill="#000000">ThreadLock</text>
</a>
</g>
</g>
<!-- Node5&#45;&gt;Node4 -->
<g id="edge4" class="edge">
<title>Node5&#45;&gt;Node4</title>
<path fill="none" stroke="#191970" d="M34.5754,-155.9481C37.9745,-267.6638 56.9456,-812.6553 105,-868 116.3076,-881.023 134.871,-885.9179 151.1075,-887.4889"/>
<polygon fill="#191970" stroke="#191970" points="38.0681,-155.6478 34.2725,-145.7563 31.0712,-155.8559 38.0681,-155.6478"/>
</g>
<!-- Node5&#45;&gt;Node39 -->
<g id="edge5" class="edge">
<title>Node5&#45;&gt;Node39</title>
<path fill="none" stroke="#9a32cd" stroke-dasharray="5,2" d="M78.1361,-130.5909C107.8636,-127.4075 147.9795,-124 183.5,-124 183.5,-124 183.5,-124 826,-124 920.5424,-124 961.4592,-94.1506 1037,-151 1075.5327,-179.9984 1086.9444,-242.1568 1089.9906,-266.2122"/>
<polygon fill="#9a32cd" stroke="#9a32cd" points="77.6342,-127.125 68.0789,-131.7016 78.4027,-134.0826 77.6342,-127.125"/>
<text text-anchor="middle" x="483" y="-127" font-family="Helvetica,sans-Serif" font-size="10.00" fill="#000000"> Lock</text>
</g>
<!-- Node39&#45;&gt;Node35 -->
<g id="edge33" class="edge">
<title>Node39&#45;&gt;Node35</title>
<path fill="none" stroke="#9a32cd" stroke-dasharray="5,2" d="M1109.357,-259.7631C1146.0764,-227.2846 1227.5977,-155.1784 1257.3525,-128.8601"/>
<polygon fill="#9a32cd" stroke="#9a32cd" points="1107.0078,-257.1683 1101.8362,-266.4153 1111.6455,-262.4116 1107.0078,-257.1683"/>
<text text-anchor="middle" x="1174" y="-229" font-family="Helvetica,sans-Serif" font-size="10.00" fill="#000000"> lox</text>
</g>
<!-- Node12 -->
<g id="node22" class="node">
<title>Node12</title>
<polygon fill="#ffffff" stroke="#bfbfbf" points="162,-204.5 162,-223.5 205,-223.5 205,-204.5 162,-204.5"/>
<text text-anchor="middle" x="183.5" y="-211.5" font-family="Helvetica,sans-Serif" font-size="10.00" fill="#000000">TChar</text>
</g>
<!-- Node12&#45;&gt;Node37 -->
<g id="edge6" class="edge">
<title>Node12&#45;&gt;Node37</title>
<path fill="none" stroke="#9a32cd" stroke-dasharray="5,2" d="M215.1533,-207.9039C233.973,-204.3273 258.3269,-199.7824 280,-196 327.6608,-187.6822 381.7397,-178.9244 422.0901,-172.5228"/>
<polygon fill="#9a32cd" stroke="#9a32cd" points="214.4863,-204.4679 205.3195,-209.7803 215.7983,-211.3439 214.4863,-204.4679"/>
<text text-anchor="middle" x="321" y="-199" font-family="Helvetica,sans-Serif" font-size="10.00" fill="#000000"> preAllocBuf</text>
</g>
<!-- Node12&#45;&gt;Node82 -->
<g id="edge7" class="edge">
<title>Node12&#45;&gt;Node82</title>
<path fill="none" stroke="#9a32cd" stroke-dasharray="5,2" d="M215.4237,-214.3382C295.5379,-215.1868 505.6736,-217.4129 603.7259,-218.4515"/>
<polygon fill="#9a32cd" stroke="#9a32cd" points="215.0439,-210.834 205.0074,-214.2278 214.9697,-217.8337 215.0439,-210.834"/>
<text text-anchor="middle" x="321" y="-230" font-family="Helvetica,sans-Serif" font-size="10.00" fill="#000000"> vbuffer</text>
<text text-anchor="middle" x="321" y="-219" font-family="Helvetica,sans-Serif" font-size="10.00" fill="#000000">buffer</text>
</g>
<!-- Node18 -->
<g id="node23" class="node">
<title>Node18</title>
<g id="a_node23"><a xlink:href="classaworx_1_1lib_1_1time_1_1Ticks.html" target="_top" xlink:title="Ticks">
<polygon fill="#ffffff" stroke="#ff0000" points="163,-839.5 163,-858.5 204,-858.5 204,-839.5 163,-839.5"/>
<text text-anchor="middle" x="183.5" y="-846.5" font-family="Helvetica,sans-Serif" font-size="10.00" fill="#000000">Ticks</text>
</a>
</g>
</g>
<!-- Node18&#45;&gt;Node3 -->
<g id="edge8" class="edge">
<title>Node18&#45;&gt;Node3</title>
<path fill="none" stroke="#9a32cd" stroke-dasharray="5,2" d="M214.4312,-848.5972C250.1082,-848.4664 310.4726,-849.2714 362,-855 396.4285,-858.8276 435.7381,-867.0213 459.9642,-872.5225"/>
<polygon fill="#9a32cd" stroke="#9a32cd" points="214.1659,-845.0987 204.1888,-848.6634 214.2112,-852.0986 214.1659,-845.0987"/>
<text text-anchor="middle" x="321" y="-869" font-family="Helvetica,sans-Serif" font-size="10.00" fill="#000000"> TimeOfLastLog</text>
<text text-anchor="middle" x="321" y="-858" font-family="Helvetica,sans-Serif" font-size="10.00" fill="#000000">TimeOfCreation</text>
</g>
<!-- Node27&#45;&gt;Node2 -->
<g id="edge23" class="edge">
<title>Node27&#45;&gt;Node2</title>
<path fill="none" stroke="#9a32cd" stroke-dasharray="5,2" d="M521.0105,-675C588.8031,-675 729.4359,-675 793.245,-675"/>
<polygon fill="#9a32cd" stroke="#9a32cd" points="520.7786,-671.5001 510.7786,-675 520.7786,-678.5001 520.7786,-671.5001"/>
<text text-anchor="middle" x="655.5" y="-678" font-family="Helvetica,sans-Serif" font-size="10.00" fill="#000000"> MetaInfo</text>
</g>
<!-- Node47&#45;&gt;Node40 -->
<g id="edge36" class="edge">
<title>Node47&#45;&gt;Node40</title>
<path fill="none" stroke="#9a32cd" stroke-dasharray="5,2" d="M523.891,-377.6031C581.3425,-385.4755 686.7309,-399.9165 756.5884,-409.4888"/>
<polygon fill="#9a32cd" stroke="#9a32cd" points="524.1234,-374.1024 513.7408,-376.2123 523.1731,-381.0376 524.1234,-374.1024"/>
<text text-anchor="middle" x="655.5" y="-405" font-family="Helvetica,sans-Serif" font-size="10.00" fill="#000000"> scopeInfo</text>
</g>
<!-- Node47&#45;&gt;Node61 -->
<g id="edge37" class="edge">
<title>Node47&#45;&gt;Node61</title>
<path fill="none" stroke="#9a32cd" stroke-dasharray="5,2" d="M523.7143,-368.5577C574.6744,-364.2491 663.5481,-356.735 731.7833,-350.9658"/>
<polygon fill="#9a32cd" stroke="#9a32cd" points="523.4104,-365.0708 513.7408,-369.4009 524.0002,-372.0459 523.4104,-365.0708"/>
<text text-anchor="middle" x="655.5" y="-363" font-family="Helvetica,sans-Serif" font-size="10.00" fill="#000000"> scopeInfo</text>
</g>
<!-- Node47&#45;&gt;Node70 -->
<g id="edge38" class="edge">
<title>Node47&#45;&gt;Node70</title>
<path fill="none" stroke="#9a32cd" stroke-dasharray="5,2" d="M522.6732,-359.4851C546.1422,-352.4258 576.5544,-343.8713 604,-338 661.5356,-325.6917 728.4344,-316.4221 773.6333,-310.8888"/>
<polygon fill="#9a32cd" stroke="#9a32cd" points="521.6175,-356.1478 513.069,-362.4067 523.6548,-362.8448 521.6175,-356.1478"/>
<text text-anchor="middle" x="655.5" y="-341" font-family="Helvetica,sans-Serif" font-size="10.00" fill="#000000"> scopeInfo</text>
</g>
<!-- Node47&#45;&gt;Node73 -->
<g id="edge39" class="edge">
<title>Node47&#45;&gt;Node73</title>
<path fill="none" stroke="#9a32cd" stroke-dasharray="5,2" d="M523.5445,-379.1998C544.4848,-384.7606 569.1139,-394.4243 586,-411 601.3721,-426.0896 587.5472,-442.0966 604,-456 605.7059,-457.4416 716.2793,-480.9031 780.707,-494.4813"/>
<polygon fill="#9a32cd" stroke="#9a32cd" points="524.1547,-375.7463 513.6111,-376.7872 522.5025,-382.5485 524.1547,-375.7463"/>
<text text-anchor="middle" x="655.5" y="-480" font-family="Helvetica,sans-Serif" font-size="10.00" fill="#000000"> scopeInfo</text>
</g>
<!-- Node47&#45;&gt;Node39 -->
<g id="edge35" class="edge">
<title>Node47&#45;&gt;Node39</title>
<path fill="none" stroke="#9a32cd" stroke-dasharray="5,2" d="M517.6627,-385.2625C550.2699,-397.6776 595.348,-414.6618 604,-417 697.0097,-442.136 958.8917,-495.4066 1037,-439 1062.9806,-420.2379 1083.4101,-318.0202 1089.2876,-285.7599"/>
<polygon fill="#9a32cd" stroke="#9a32cd" points="518.5885,-381.8697 507.9977,-381.5774 516.0946,-388.4105 518.5885,-381.8697"/>
<text text-anchor="middle" x="826" y="-466" font-family="Helvetica,sans-Serif" font-size="10.00" fill="#000000"> scopeInfo</text>
</g>
<!-- Node65&#45;&gt;Node39 -->
<g id="edge41" class="edge">
<title>Node65&#45;&gt;Node39</title>
<path fill="none" stroke="#9a32cd" stroke-dasharray="5,2" d="M517.9822,-284.2433C564.9587,-278.1179 651.0785,-267.8081 725,-264 814.6589,-259.3811 837.2821,-260.722 927,-264 981.2057,-265.9805 1045.2879,-271.6313 1074.7274,-274.4134"/>
<polygon fill="#9a32cd" stroke="#9a32cd" points="517.4744,-280.7799 508.0175,-285.5567 518.3892,-287.7198 517.4744,-280.7799"/>
<text text-anchor="middle" x="826" y="-278" font-family="Helvetica,sans-Serif" font-size="10.00" fill="#000000"> domains</text>
<text text-anchor="middle" x="826" y="-267" font-family="Helvetica,sans-Serif" font-size="10.00" fill="#000000">internalDomains</text>
</g>
<!-- Node65&#45;&gt;Node65 -->
<g id="edge42" class="edge">
<title>Node65&#45;&gt;Node65</title>
<path fill="none" stroke="#9a32cd" stroke-dasharray="5,2" d="M452.6856,-307.2746C453.5499,-312.741 463.6547,-317 483,-317 511.793,-317 520.1159,-307.5653 507.9689,-298.7571"/>
<polygon fill="#9a32cd" stroke="#9a32cd" points="455.6799,-309.0877 458.0311,-298.7571 449.7508,-305.3667 455.6799,-309.0877"/>
<text text-anchor="middle" x="483" y="-320" font-family="Helvetica,sans-Serif" font-size="10.00" fill="#000000"> Parent</text>
</g>
<!-- Node24&#45;&gt;Node2 -->
<g id="edge20" class="edge">
<title>Node24&#45;&gt;Node2</title>
<path fill="none" stroke="#9a32cd" stroke-dasharray="5,2" d="M524.1043,-918.7669C572.325,-915.3887 652.5829,-903.5331 707,-863 773.2943,-813.62 811.909,-715.4244 822.795,-684.5331"/>
<polygon fill="#9a32cd" stroke="#9a32cd" points="523.7983,-915.279 514.03,-919.3816 524.2247,-922.266 523.7983,-915.279"/>
<text text-anchor="middle" x="655.5" y="-909" font-family="Helvetica,sans-Serif" font-size="10.00" fill="#000000"> AutoSizes</text>
</g>
<!-- Node26 -->
<g id="node28" class="node">
<title>Node26</title>
<g id="a_node28"><a xlink:href="classaworx_1_1lib_1_1lox_1_1core_1_1textlogger_1_1ObjectConverter.html" target="_top" xlink:title="ObjectConverter">
<polygon fill="#ffffff" stroke="#000000" points="439,-627.5 439,-646.5 527,-646.5 527,-627.5 439,-627.5"/>
<text text-anchor="middle" x="483" y="-634.5" font-family="Helvetica,sans-Serif" font-size="10.00" fill="#000000">ObjectConverter</text>
</a>
</g>
</g>
<!-- Node26&#45;&gt;Node2 -->
<g id="edge22" class="edge">
<title>Node26&#45;&gt;Node2</title>
<path fill="none" stroke="#9a32cd" stroke-dasharray="5,2" d="M537.4446,-642.2359C582.8282,-646.6855 649.1663,-653.3868 707,-660 736.2741,-663.3475 769.5429,-667.5771 793.4467,-670.6911"/>
<polygon fill="#9a32cd" stroke="#9a32cd" points="537.5276,-638.7274 527.2346,-641.2382 536.8467,-645.6942 537.5276,-638.7274"/>
<text text-anchor="middle" x="655.5" y="-663" font-family="Helvetica,sans-Serif" font-size="10.00" fill="#000000"> Converter</text>
</g>
<!-- Node28 -->
<g id="node29" class="node">
<title>Node28</title>
<g id="a_node29"><a xlink:href="classaworx_1_1lib_1_1time_1_1CalendarDateTime.html" target="_top" xlink:title="CalendarDateTime">
<polygon fill="#ffffff" stroke="#000000" points="134.5,-668.5 134.5,-687.5 232.5,-687.5 232.5,-668.5 134.5,-668.5"/>
<text text-anchor="middle" x="183.5" y="-675.5" font-family="Helvetica,sans-Serif" font-size="10.00" fill="#000000">CalendarDateTime</text>
</a>
</g>
</g>
<!-- Node28&#45;&gt;Node27 -->
<g id="edge24" class="edge">
<title>Node28&#45;&gt;Node27</title>
<path fill="none" stroke="#9a32cd" stroke-dasharray="5,2" d="M242.6386,-677.4076C307.0583,-676.7624 407.3281,-675.758 455.431,-675.2761"/>
<polygon fill="#9a32cd" stroke="#9a32cd" points="242.5854,-673.9079 232.621,-677.508 242.6556,-680.9075 242.5854,-673.9079"/>
<text text-anchor="middle" x="321" y="-680" font-family="Helvetica,sans-Serif" font-size="10.00" fill="#000000"> callerDateTime</text>
</g>
<!-- Node29 -->
<g id="node30" class="node">
<title>Node29</title>
<g id="a_node30"><a xlink:href="classaworx_1_1lib_1_1time_1_1TicksConverter.html" target="_top" xlink:title="TicksConverter">
<polygon fill="#ffffff" stroke="#000000" points="142,-609.5 142,-628.5 225,-628.5 225,-609.5 142,-609.5"/>
<text text-anchor="middle" x="183.5" y="-616.5" font-family="Helvetica,sans-Serif" font-size="10.00" fill="#000000">TicksConverter</text>
</a>
</g>
</g>
<!-- Node29&#45;&gt;Node27 -->
<g id="edge25" class="edge">
<title>Node29&#45;&gt;Node27</title>
<path fill="none" stroke="#9a32cd" stroke-dasharray="5,2" d="M235.2324,-628.795C274.852,-636.2835 330.869,-646.843 380,-656 405.5624,-660.7643 434.7056,-666.1345 455.453,-669.9471"/>
<polygon fill="#9a32cd" stroke="#9a32cd" points="235.7502,-625.331 225.274,-626.9122 234.4497,-632.2091 235.7502,-625.331"/>
<text text-anchor="middle" x="321" y="-655" font-family="Helvetica,sans-Serif" font-size="10.00" fill="#000000"> DateConverter</text>
</g>
<!-- Node35&#45;&gt;Node1 -->
<g id="edge28" class="edge">
<title>Node35&#45;&gt;Node1</title>
<path fill="none" stroke="#9a32cd" stroke-dasharray="5,2" d="M1279.9508,-137.6877C1315.5686,-195.816 1423.6026,-372.1274 1450.0898,-415.3546"/>
<polygon fill="#9a32cd" stroke="#9a32cd" points="1282.7351,-135.5326 1274.5261,-128.8346 1276.7665,-139.1899 1282.7351,-135.5326"/>
<text text-anchor="middle" x="1378" y="-369" font-family="Helvetica,sans-Serif" font-size="10.00" fill="#000000"> DebugReportWriter</text>
</g>
<!-- Node36 -->
<g id="node32" class="node">
<title>Node36</title>
<g id="a_node32"><a xlink:href="classaworx_1_1lib_1_1lang_1_1ReportWriter.html" target="_top" xlink:title="ReportWriter">
<polygon fill="#ffffff" stroke="#000000" points="1055,-.5 1055,-19.5 1127,-19.5 1127,-.5 1055,-.5"/>
<text text-anchor="middle" x="1091" y="-7.5" font-family="Helvetica,sans-Serif" font-size="10.00" fill="#000000">ReportWriter</text>
</a>
</g>
</g>
<!-- Node36&#45;&gt;Node35 -->
<g id="edge29" class="edge">
<title>Node36&#45;&gt;Node35</title>
<path fill="none" stroke="#191970" d="M1137.3374,-12.6408C1158.6567,-15.6117 1183.486,-21.693 1203,-34 1233.2552,-53.0813 1254.9714,-91.3531 1263.9385,-109.2965"/>
<polygon fill="#191970" stroke="#191970" points="1137.5391,-9.1399 1127.1922,-11.4186 1136.7018,-16.0896 1137.5391,-9.1399"/>
</g>
</g>
</svg>
