<?xml version="1.0" encoding="UTF-8" standalone="no"?>
<!DOCTYPE svg PUBLIC "-//W3C//DTD SVG 1.1//EN"
 "http://www.w3.org/Graphics/SVG/1.1/DTD/svg11.dtd">
<!-- Generated by graphviz version 2.40.1 (20161225.0304)
 -->
<!-- Title: TimeLib Pages: 1 -->
<svg width="1393pt" height="281pt"
 viewBox="0.00 0.00 1393.00 281.00" xmlns="http://www.w3.org/2000/svg" xmlns:xlink="http://www.w3.org/1999/xlink">
<g id="graph0" class="graph" transform="scale(1 1) rotate(0) translate(4 277)">
<title>TimeLib</title>
<polygon fill="#ffffff" stroke="transparent" points="-4,4 -4,-277 1389,-277 1389,4 -4,4"/>
<!-- Node2 -->
<g id="node1" class="node">
<title>Node2</title>
<polygon fill="#bfbfbf" stroke="#000000" points="1313.5,-38.5 1313.5,-57.5 1364.5,-57.5 1364.5,-38.5 1313.5,-38.5"/>
<text text-anchor="middle" x="1339" y="-45.5" font-family="Helvetica,sans-Serif" font-size="10.00" fill="#000000">TimeLib</text>
</g>
<!-- Node36 -->
<g id="node2" class="node">
<title>Node36</title>
<polygon fill="#ffffff" stroke="#bfbfbf" points="1293,-125.5 1293,-144.5 1385,-144.5 1385,-125.5 1293,-125.5"/>
<text text-anchor="middle" x="1339" y="-132.5" font-family="Helvetica,sans-Serif" font-size="10.00" fill="#000000">vector&lt;Library *&gt;</text>
</g>
<!-- Node3 -->
<g id="node8" class="node">
<title>Node3</title>
<g id="a_node8"><a xlink:href="classaworx_1_1lib_1_1lang_1_1Library.html" target="_top" xlink:title="Library">
<polygon fill="#ffffff" stroke="#000000" points="1118.5,-108.5 1118.5,-127.5 1164.5,-127.5 1164.5,-108.5 1118.5,-108.5"/>
<text text-anchor="middle" x="1141.5" y="-115.5" font-family="Helvetica,sans-Serif" font-size="10.00" fill="#000000">Library</text>
</a>
</g>
</g>
<!-- Node36&#45;&gt;Node3 -->
<g id="edge14" class="edge">
<title>Node36&#45;&gt;Node3</title>
<path fill="none" stroke="#9a32cd" stroke-dasharray="5,2" d="M1282.9547,-134.411C1260.5313,-133.7584 1234.4946,-132.4763 1211,-130 1195.4134,-128.3572 1178.0384,-125.3572 1164.56,-122.7679"/>
<polygon fill="#9a32cd" stroke="#9a32cd" points="1282.8943,-137.9105 1292.981,-134.6686 1283.0742,-130.9128 1282.8943,-137.9105"/>
<text text-anchor="middle" x="1243" y="-137" font-family="Helvetica,sans-Serif" font-size="10.00" fill="#000000"> dependencies</text>
</g>
<!-- Node37 -->
<g id="node3" class="node">
<title>Node37</title>
<polygon fill="#ffffff" stroke="#bfbfbf" points="741,-130.5 741,-149.5 917,-149.5 917,-130.5 741,-130.5"/>
<text text-anchor="middle" x="829" y="-137.5" font-family="Helvetica,sans-Serif" font-size="10.00" fill="#000000">vector&lt;pair&lt;const char *, uint64_t&gt;&gt;</text>
</g>
<!-- Node37&#45;&gt;Node3 -->
<g id="edge15" class="edge">
<title>Node37&#45;&gt;Node3</title>
<path fill="none" stroke="#9a32cd" stroke-dasharray="5,2" d="M927.5178,-133.0643C994.7917,-128.3283 1078.6804,-122.4225 1118.484,-119.6203"/>
<polygon fill="#9a32cd" stroke="#9a32cd" points="927.0264,-129.5902 917.2969,-133.7839 927.518,-136.5729 927.0264,-129.5902"/>
<text text-anchor="middle" x="1014" y="-133" font-family="Helvetica,sans-Serif" font-size="10.00" fill="#000000"> CompilationFlagMeanings</text>
</g>
<!-- Node39 -->
<g id="node4" class="node">
<title>Node39</title>
<g id="a_node4"><a xlink:href="classaworx_1_1lib_1_1time_1_1TimePointBase.html" target="_top" xlink:title="TimePointBase\&lt;chrono::steady_clock, Ticks\&gt;">
<polygon fill="#ffffff" stroke="#000000" points="720,-.5 720,-19.5 938,-19.5 938,-.5 720,-.5"/>
<text text-anchor="middle" x="829" y="-7.5" font-family="Helvetica,sans-Serif" font-size="10.00" fill="#000000">TimePointBase&lt;chrono::steady_clock, Ticks&gt;</text>
</a>
</g>
</g>
<!-- Node38 -->
<g id="node14" class="node">
<title>Node38</title>
<g id="a_node14"><a xlink:href="classaworx_1_1lib_1_1time_1_1Ticks.html" target="_top" xlink:title="Ticks">
<polygon fill="#ffffff" stroke="#000000" points="1121,-.5 1121,-19.5 1162,-19.5 1162,-.5 1121,-.5"/>
<text text-anchor="middle" x="1141.5" y="-7.5" font-family="Helvetica,sans-Serif" font-size="10.00" fill="#000000">Ticks</text>
</a>
</g>
</g>
<!-- Node39&#45;&gt;Node38 -->
<g id="edge17" class="edge">
<title>Node39&#45;&gt;Node38</title>
<path fill="none" stroke="#191970" d="M948.5499,-10C1012.9477,-10 1086.1613,-10 1120.9922,-10"/>
<polygon fill="#191970" stroke="#191970" points="948.2974,-6.5001 938.2973,-10 948.2973,-13.5001 948.2974,-6.5001"/>
</g>
<!-- Node4 -->
<g id="node5" class="node">
<title>Node4</title>
<g id="a_node5"><a xlink:href="classaworx_1_1lib_1_1strings_1_1TStringBase.html" target="_top" xlink:title="TStringBase\&lt;character\&gt;">
<polygon fill="#ffffff" stroke="#000000" points="376,-61.5 376,-80.5 499,-80.5 499,-61.5 376,-61.5"/>
<text text-anchor="middle" x="437.5" y="-68.5" font-family="Helvetica,sans-Serif" font-size="10.00" fill="#000000">TStringBase&lt;character&gt;</text>
</a>
</g>
</g>
<!-- Node4&#45;&gt;Node3 -->
<g id="edge3" class="edge">
<title>Node4&#45;&gt;Node3</title>
<path fill="none" stroke="#9a32cd" stroke-dasharray="5,2" d="M509.7773,-70.0113C542.5144,-69.6106 581.7079,-69.1966 617,-69 819.3953,-67.8725 874.9038,-41.976 1072,-88 1090.5568,-92.3332 1110.389,-101.3822 1124.0984,-108.4147"/>
<polygon fill="#9a32cd" stroke="#9a32cd" points="509.3439,-66.5163 499.3883,-70.1406 509.4311,-73.5157 509.3439,-66.5163"/>
<text text-anchor="middle" x="659.5" y="-72" font-family="Helvetica,sans-Serif" font-size="10.00" fill="#000000"> ResourceCategory</text>
</g>
<!-- Node5 -->
<g id="node6" class="node">
<title>Node5</title>
<g id="a_node6"><a xlink:href="classaworx_1_1lib_1_1strings_1_1StringBase.html" target="_top" xlink:title="StringBase\&lt;character\&gt;">
<polygon fill="#ffffff" stroke="#000000" points="0,-93.5 0,-112.5 117,-112.5 117,-93.5 0,-93.5"/>
<text text-anchor="middle" x="58.5" y="-100.5" font-family="Helvetica,sans-Serif" font-size="10.00" fill="#000000">StringBase&lt;character&gt;</text>
</a>
</g>
</g>
<!-- Node5&#45;&gt;Node4 -->
<g id="edge4" class="edge">
<title>Node5&#45;&gt;Node4</title>
<path fill="none" stroke="#191970" d="M127.4687,-97.1768C198.3248,-91.1942 307.6162,-81.9664 375.7252,-76.2158"/>
<polygon fill="#191970" stroke="#191970" points="126.973,-93.7061 117.3029,-98.0351 127.562,-100.6813 126.973,-93.7061"/>
</g>
<!-- Node18 -->
<g id="node9" class="node">
<title>Node18</title>
<g id="a_node9"><a xlink:href="classaworx_1_1lib_1_1config_1_1Configuration.html" target="_top" xlink:title="Configuration">
<polygon fill="#ffffff" stroke="#ff0000" points="284,-123.5 284,-142.5 358,-142.5 358,-123.5 284,-123.5"/>
<text text-anchor="middle" x="321" y="-130.5" font-family="Helvetica,sans-Serif" font-size="10.00" fill="#000000">Configuration</text>
</a>
</g>
</g>
<!-- Node5&#45;&gt;Node18 -->
<g id="edge5" class="edge">
<title>Node5&#45;&gt;Node18</title>
<path fill="none" stroke="#9a32cd" stroke-dasharray="5,2" d="M127.1817,-110.8493C177.1965,-116.5653 243.0353,-124.0897 283.664,-128.733"/>
<polygon fill="#9a32cd" stroke="#9a32cd" points="127.4162,-107.3534 117.0834,-109.6952 126.6213,-114.3082 127.4162,-107.3534"/>
<text text-anchor="middle" x="200.5" y="-151" font-family="Helvetica,sans-Serif" font-size="10.00" fill="#000000"> SubstitutionVariableStart</text>
<text text-anchor="middle" x="200.5" y="-140" font-family="Helvetica,sans-Serif" font-size="10.00" fill="#000000">SubstitutionVariableEnd</text>
<text text-anchor="middle" x="200.5" y="-129" font-family="Helvetica,sans-Serif" font-size="10.00" fill="#000000">SubstitutionVariableDelimiters</text>
</g>
<!-- Node32 -->
<g id="node7" class="node">
<title>Node32</title>
<g id="a_node7"><a xlink:href="classaworx_1_1lib_1_1strings_1_1StringBase.html" target="_top" xlink:title="StringBase\&lt;TChar\&gt;">
<polygon fill="#ffffff" stroke="#ff0000" points="1090,-38.5 1090,-57.5 1193,-57.5 1193,-38.5 1090,-38.5"/>
<text text-anchor="middle" x="1141.5" y="-45.5" font-family="Helvetica,sans-Serif" font-size="10.00" fill="#000000">StringBase&lt;TChar&gt;</text>
</a>
</g>
</g>
<!-- Node32&#45;&gt;Node2 -->
<g id="edge13" class="edge">
<title>Node32&#45;&gt;Node2</title>
<path fill="none" stroke="#9a32cd" stroke-dasharray="5,2" d="M1203.3495,-48C1240.4087,-48 1285.5664,-48 1313.2951,-48"/>
<polygon fill="#9a32cd" stroke="#9a32cd" points="1203.1329,-44.5001 1193.1328,-48 1203.1328,-51.5001 1203.1329,-44.5001"/>
<text text-anchor="middle" x="1243" y="-62" font-family="Helvetica,sans-Serif" font-size="10.00" fill="#000000"> months</text>
<text text-anchor="middle" x="1243" y="-51" font-family="Helvetica,sans-Serif" font-size="10.00" fill="#000000">days</text>
</g>
<!-- Node3&#45;&gt;Node2 -->
<g id="edge1" class="edge">
<title>Node3&#45;&gt;Node2</title>
<path fill="none" stroke="#191970" d="M1174.3938,-106.4862C1201.4278,-97.0074 1240.7183,-83.1944 1275,-71 1287.6814,-66.4891 1301.7598,-61.4347 1313.4763,-57.2154"/>
<polygon fill="#191970" stroke="#191970" points="1172.9485,-103.2839 1164.6688,-109.8944 1175.2637,-109.89 1172.9485,-103.2839"/>
</g>
<!-- Node3&#45;&gt;Node36 -->
<g id="edge2" class="edge">
<title>Node3&#45;&gt;Node36</title>
<path fill="none" stroke="#9a32cd" stroke-dasharray="5,2" d="M1174.8768,-116.0657C1201.9704,-115.0193 1241.101,-114.6979 1275,-119 1285.5666,-120.341 1296.9022,-122.8193 1307.0536,-125.4315"/>
<polygon fill="#9a32cd" stroke="#9a32cd" points="1174.6001,-112.5744 1164.764,-116.5116 1174.9085,-119.5676 1174.6001,-112.5744"/>
<text text-anchor="middle" x="1243" y="-122" font-family="Helvetica,sans-Serif" font-size="10.00" fill="#000000"> elements</text>
</g>
<!-- Node18&#45;&gt;Node3 -->
<g id="edge9" class="edge">
<title>Node18&#45;&gt;Node3</title>
<path fill="none" stroke="#9a32cd" stroke-dasharray="5,2" d="M368.1467,-131.2524C442.7926,-128.5598 592.7753,-123.452 720,-121 824.8732,-118.9788 851.1099,-119.7272 956,-119 1014.4513,-118.5948 1083.2637,-118.2615 1118.3644,-118.1018"/>
<polygon fill="#9a32cd" stroke="#9a32cd" points="367.9907,-127.7557 358.1241,-131.6158 368.2444,-134.7511 367.9907,-127.7557"/>
<text text-anchor="middle" x="659.5" y="-126" font-family="Helvetica,sans-Serif" font-size="10.00" fill="#000000"> Config</text>
</g>
<!-- Node6 -->
<g id="node10" class="node">
<title>Node6</title>
<g id="a_node10"><a xlink:href="classaworx_1_1lib_1_1lang_1_1Resources.html" target="_top" xlink:title="Resources">
<polygon fill="#ffffff" stroke="#000000" points="797,-177.5 797,-196.5 861,-196.5 861,-177.5 797,-177.5"/>
<text text-anchor="middle" x="829" y="-184.5" font-family="Helvetica,sans-Serif" font-size="10.00" fill="#000000">Resources</text>
</a>
</g>
</g>
<!-- Node18&#45;&gt;Node6 -->
<g id="edge10" class="edge">
<title>Node18&#45;&gt;Node6</title>
<path fill="none" stroke="#9a32cd" stroke-dasharray="5,2" d="M368.5867,-136.4739C423.9945,-140.6658 518.2366,-148.2508 599,-157 669.661,-164.6548 752.2166,-176.0147 796.6769,-182.3321"/>
<polygon fill="#9a32cd" stroke="#9a32cd" points="368.6059,-132.9656 358.3717,-135.7063 368.0813,-139.9459 368.6059,-132.9656"/>
<text text-anchor="middle" x="558" y="-160" font-family="Helvetica,sans-Serif" font-size="10.00" fill="#000000"> Config</text>
</g>
<!-- Node10 -->
<g id="node12" class="node">
<title>Node10</title>
<g id="a_node12"><a xlink:href="classaworx_1_1lib_1_1config_1_1Variable.html" target="_top" xlink:title="Variable">
<polygon fill="#ffffff" stroke="#ff0000" points="532.5,-177.5 532.5,-196.5 583.5,-196.5 583.5,-177.5 532.5,-177.5"/>
<text text-anchor="middle" x="558" y="-184.5" font-family="Helvetica,sans-Serif" font-size="10.00" fill="#000000">Variable</text>
</a>
</g>
</g>
<!-- Node18&#45;&gt;Node10 -->
<g id="edge11" class="edge">
<title>Node18&#45;&gt;Node10</title>
<path fill="none" stroke="#9a32cd" stroke-dasharray="5,2" d="M344.5692,-147.7475C354.0173,-153.0314 365.2089,-158.533 376,-162 429.8982,-179.3167 496.5508,-184.6387 532.3596,-186.2743"/>
<polygon fill="#9a32cd" stroke="#9a32cd" points="346.1826,-144.6367 335.7815,-142.6195 342.6545,-150.6826 346.1826,-144.6367"/>
<text text-anchor="middle" x="437.5" y="-186" font-family="Helvetica,sans-Serif" font-size="10.00" fill="#000000"> Config</text>
</g>
<!-- Node6&#45;&gt;Node3 -->
<g id="edge6" class="edge">
<title>Node6&#45;&gt;Node3</title>
<path fill="none" stroke="#9a32cd" stroke-dasharray="5,2" d="M871.5077,-182.2617C920.4633,-176.2069 1003.0141,-164.1553 1072,-145 1088.5886,-140.3939 1106.6995,-133.2861 1120.2735,-127.5194"/>
<polygon fill="#9a32cd" stroke="#9a32cd" points="870.7995,-178.8218 861.2926,-183.4981 871.6407,-185.7711 870.7995,-178.8218"/>
<text text-anchor="middle" x="1014" y="-172" font-family="Helvetica,sans-Serif" font-size="10.00" fill="#000000"> Res</text>
</g>
<!-- Node7 -->
<g id="node11" class="node">
<title>Node7</title>
<g id="a_node11"><a xlink:href="classaworx_1_1lib_1_1util_1_1MemoryBlocks.html" target="_top" xlink:title="MemoryBlocks">
<polygon fill="#ffffff" stroke="#ff0000" points="517,-253.5 517,-272.5 599,-272.5 599,-253.5 517,-253.5"/>
<text text-anchor="middle" x="558" y="-260.5" font-family="Helvetica,sans-Serif" font-size="10.00" fill="#000000">MemoryBlocks</text>
</a>
</g>
</g>
<!-- Node7&#45;&gt;Node6 -->
<g id="edge7" class="edge">
<title>Node7&#45;&gt;Node6</title>
<path fill="none" stroke="#9a32cd" stroke-dasharray="5,2" d="M609.1024,-252.6071C636.7713,-246.6498 671.4491,-238.6487 702,-230 737.3888,-219.9818 777.4714,-205.9502 802.9736,-196.6754"/>
<polygon fill="#9a32cd" stroke="#9a32cd" points="608.2976,-249.1999 599.2464,-254.7068 609.7562,-256.0463 608.2976,-249.1999"/>
<text text-anchor="middle" x="659.5" y="-253" font-family="Helvetica,sans-Serif" font-size="10.00" fill="#000000"> cache</text>
</g>
<!-- Node10&#45;&gt;Node6 -->
<g id="edge8" class="edge">
<title>Node10&#45;&gt;Node6</title>
<path fill="none" stroke="#9a32cd" stroke-dasharray="5,2" d="M593.9878,-187C647.1823,-187 745.9781,-187 796.8653,-187"/>
<polygon fill="#9a32cd" stroke="#9a32cd" points="593.9847,-183.5001 583.9846,-187 593.9846,-190.5001 593.9847,-183.5001"/>
<text text-anchor="middle" x="659.5" y="-190" font-family="Helvetica,sans-Serif" font-size="10.00" fill="#000000"> variable</text>
</g>
<!-- Node20 -->
<g id="node13" class="node">
<title>Node20</title>
<g id="a_node13"><a xlink:href="classaworx_1_1lib_1_1threads_1_1ThreadLock.html" target="_top" xlink:title="ThreadLock">
<polygon fill="#ffffff" stroke="#ff0000" points="524,-215.5 524,-234.5 592,-234.5 592,-215.5 524,-215.5"/>
<text text-anchor="middle" x="558" y="-222.5" font-family="Helvetica,sans-Serif" font-size="10.00" fill="#000000">ThreadLock</text>
</a>
</g>
</g>
<!-- Node20&#45;&gt;Node6 -->
<g id="edge12" class="edge">
<title>Node20&#45;&gt;Node6</title>
<path fill="none" stroke="#9a32cd" stroke-dasharray="5,2" d="M602.1339,-218.8115C656.8049,-211.1454 748.627,-198.27 796.986,-191.489"/>
<polygon fill="#9a32cd" stroke="#9a32cd" points="601.465,-215.3709 592.0479,-220.2258 602.4371,-222.3031 601.465,-215.3709"/>
<text text-anchor="middle" x="659.5" y="-218" font-family="Helvetica,sans-Serif" font-size="10.00" fill="#000000"> lock</text>
</g>
<!-- Node38&#45;&gt;Node2 -->
<g id="edge16" class="edge">
<title>Node38&#45;&gt;Node2</title>
<path fill="none" stroke="#9a32cd" stroke-dasharray="5,2" d="M1172.435,-14.7933C1199.5553,-19.1233 1240.0034,-25.8907 1275,-33 1287.6377,-35.5672 1301.5884,-38.7907 1313.2306,-41.5908"/>
<polygon fill="#9a32cd" stroke="#9a32cd" points="1172.8075,-11.3088 1162.3833,-13.2028 1171.7134,-18.2228 1172.8075,-11.3088"/>
<text text-anchor="middle" x="1243" y="-36" font-family="Helvetica,sans-Serif" font-size="10.00" fill="#000000"> creationTime</text>
</g>
</g>
</svg>
