<?xml version="1.0" encoding="UTF-8" standalone="no"?>
<!DOCTYPE svg PUBLIC "-//W3C//DTD SVG 1.1//EN"
 "http://www.w3.org/Graphics/SVG/1.1/DTD/svg11.dtd">
<!-- Generated by graphviz version 2.40.1 (20161225.0304)
 -->
<!-- Title: NumberFormatBase&lt;TChar&gt; Pages: 1 -->
<svg width="233pt" height="213pt"
 viewBox="0.00 0.00 233.00 212.79" xmlns="http://www.w3.org/2000/svg" xmlns:xlink="http://www.w3.org/1999/xlink">
<g id="graph0" class="graph" transform="scale(1 1) rotate(0) translate(4 208.787)">
<title>NumberFormatBase&lt;TChar&gt;</title>
<polygon fill="#ffffff" stroke="transparent" points="-4,4 -4,-208.787 229,-208.787 229,4 -4,4"/>
<!-- Node1 -->
<g id="node1" class="node">
<title>Node1</title>
<polygon fill="#bfbfbf" stroke="#000000" points="0,-7.287 0,-26.287 143,-26.287 143,-7.287 0,-7.287"/>
<text text-anchor="middle" x="71.5" y="-14.287" font-family="Helvetica,sans-Serif" font-size="10.00" fill="#000000">NumberFormatBase&lt;TChar&gt;</text>
</g>
<!-- Node1&#45;&gt;Node1 -->
<g id="edge1" class="edge">
<title>Node1&#45;&gt;Node1</title>
<path fill="none" stroke="#9a32cd" stroke-dasharray="5,2" d="M99.1871,-29.4693C128.2816,-37.3056 161,-33.0782 161,-16.787 161,1.3458 120.4663,4.5332 89.5118,-7.2248"/>
<polygon fill="#9a32cd" stroke="#9a32cd" points="100.1034,-26.0873 89.5118,-26.3492 97.955,-32.7495 100.1034,-26.0873"/>
<text text-anchor="middle" x="193" y="-19.787" font-family="Helvetica,sans-Serif" font-size="10.00" fill="#000000"> Global</text>
<text text-anchor="middle" x="193" y="-8.787" font-family="Helvetica,sans-Serif" font-size="10.00" fill="#000000">Computational</text>
</g>
<!-- Node2 -->
<g id="node2" class="node">
<title>Node2</title>
<polygon fill="#ffffff" stroke="#bfbfbf" points="50,-185.287 50,-204.287 93,-204.287 93,-185.287 50,-185.287"/>
<text text-anchor="middle" x="71.5" y="-192.287" font-family="Helvetica,sans-Serif" font-size="10.00" fill="#000000">TChar</text>
</g>
<!-- Node2&#45;&gt;Node1 -->
<g id="edge2" class="edge">
<title>Node2&#45;&gt;Node1</title>
<path fill="none" stroke="#9a32cd" stroke-dasharray="5,2" d="M71.5,-174.8923C71.5,-136.7153 71.5,-54.4745 71.5,-26.4044"/>
<polygon fill="#9a32cd" stroke="#9a32cd" points="68.0001,-175.2169 71.5,-185.217 75.0001,-175.217 68.0001,-175.2169"/>
<text text-anchor="middle" x="141" y="-158.787" font-family="Helvetica,sans-Serif" font-size="10.00" fill="#000000"> BinByteGroupChar</text>
<text text-anchor="middle" x="141" y="-147.787" font-family="Helvetica,sans-Serif" font-size="10.00" fill="#000000">LeadingGroupCharReplacement</text>
<text text-anchor="middle" x="141" y="-136.787" font-family="Helvetica,sans-Serif" font-size="10.00" fill="#000000">PlusSign</text>
<text text-anchor="middle" x="141" y="-125.787" font-family="Helvetica,sans-Serif" font-size="10.00" fill="#000000">BinNibbleGroupChar</text>
<text text-anchor="middle" x="141" y="-114.787" font-family="Helvetica,sans-Serif" font-size="10.00" fill="#000000">BinWord32GroupChar</text>
<text text-anchor="middle" x="141" y="-103.787" font-family="Helvetica,sans-Serif" font-size="10.00" fill="#000000">OctGroupChar</text>
<text text-anchor="middle" x="141" y="-92.787" font-family="Helvetica,sans-Serif" font-size="10.00" fill="#000000">HexWordGroupChar</text>
<text text-anchor="middle" x="141" y="-81.787" font-family="Helvetica,sans-Serif" font-size="10.00" fill="#000000">HexWord32GroupChar</text>
<text text-anchor="middle" x="141" y="-70.787" font-family="Helvetica,sans-Serif" font-size="10.00" fill="#000000">BinWordGroupChar</text>
<text text-anchor="middle" x="141" y="-59.787" font-family="Helvetica,sans-Serif" font-size="10.00" fill="#000000">HexByteGroupChar</text>
<text text-anchor="middle" x="141" y="-48.787" font-family="Helvetica,sans-Serif" font-size="10.00" fill="#000000">...</text>
</g>
</g>
</svg>
