<?xml version="1.0" encoding="UTF-8" standalone="no"?>
<!DOCTYPE svg PUBLIC "-//W3C//DTD SVG 1.1//EN"
 "http://www.w3.org/Graphics/SVG/1.1/DTD/svg11.dtd">
<!-- Generated by graphviz version 2.40.1 (20161225.0304)
 -->
<!-- Title: Configuration Pages: 1 -->
<svg width="1021pt" height="379pt"
 viewBox="0.00 0.00 1021.00 378.50" xmlns="http://www.w3.org/2000/svg" xmlns:xlink="http://www.w3.org/1999/xlink">
<g id="graph0" class="graph" transform="scale(1 1) rotate(0) translate(4 374.5004)">
<title>Configuration</title>
<polygon fill="#ffffff" stroke="transparent" points="-4,4 -4,-374.5004 1017,-374.5004 1017,4 -4,4"/>
<!-- Node3 -->
<g id="node1" class="node">
<title>Node3</title>
<polygon fill="#bfbfbf" stroke="#000000" points="939,-189.0004 939,-208.0004 1013,-208.0004 1013,-189.0004 939,-189.0004"/>
<text text-anchor="middle" x="976" y="-196.0004" font-family="Helvetica,sans-Serif" font-size="10.00" fill="#000000">Configuration</text>
</g>
<!-- Node4 -->
<g id="node2" class="node">
<title>Node4</title>
<g id="a_node2"><a xlink:href="classaworx_1_1lib_1_1util_1_1PluginContainer.html" target="_top" xlink:title="PluginContainer\&lt;ConfigurationPlugin, Priorities\&gt;">
<polygon fill="#ffffff" stroke="#000000" points="607,-294.0004 607,-313.0004 834,-313.0004 834,-294.0004 607,-294.0004"/>
<text text-anchor="middle" x="720.5" y="-301.0004" font-family="Helvetica,sans-Serif" font-size="10.00" fill="#000000">PluginContainer&lt;ConfigurationPlugin, Priorities&gt;</text>
</a>
</g>
</g>
<!-- Node4&#45;&gt;Node3 -->
<g id="edge1" class="edge">
<title>Node4&#45;&gt;Node3</title>
<path fill="none" stroke="#191970" d="M754.1735,-290.2244C794.1038,-274.4061 862.608,-247.0299 921,-222.5004 932.0458,-217.8602 944.2665,-212.5458 954.3775,-208.0993"/>
<polygon fill="#191970" stroke="#191970" points="752.6718,-287.0545 744.6609,-293.9883 755.2473,-293.5636 752.6718,-287.0545"/>
</g>
<!-- Node16 -->
<g id="node3" class="node">
<title>Node16</title>
<polygon fill="#ffffff" stroke="#bfbfbf" points="318.5,-351.0004 318.5,-370.0004 413.5,-370.0004 413.5,-351.0004 318.5,-351.0004"/>
<text text-anchor="middle" x="366" y="-358.0004" font-family="Helvetica,sans-Serif" font-size="10.00" fill="#000000">vector&lt;TPlugin *&gt;</text>
</g>
<!-- Node16&#45;&gt;Node4 -->
<g id="edge7" class="edge">
<title>Node16&#45;&gt;Node4</title>
<path fill="none" stroke="#9a32cd" stroke-dasharray="5,2" d="M423.7693,-354.2802C468.9022,-349.1091 533.1287,-341.0656 589,-331.5004 619.5992,-326.2618 653.8975,-318.9089 679.7921,-313.0525"/>
<polygon fill="#9a32cd" stroke="#9a32cd" points="423.1248,-350.8308 413.583,-355.4357 423.9138,-357.7862 423.1248,-350.8308"/>
<text text-anchor="middle" x="523.5" y="-352.5004" font-family="Helvetica,sans-Serif" font-size="10.00" fill="#000000"> pluginsOwned</text>
</g>
<!-- Node17 -->
<g id="node4" class="node">
<title>Node17</title>
<polygon fill="#ffffff" stroke="#bfbfbf" points="292,-313.0004 292,-332.0004 440,-332.0004 440,-313.0004 292,-313.0004"/>
<text text-anchor="middle" x="366" y="-320.0004" font-family="Helvetica,sans-Serif" font-size="10.00" fill="#000000">vector&lt;PluginContainer::Slot&gt;</text>
</g>
<!-- Node17&#45;&gt;Node4 -->
<g id="edge8" class="edge">
<title>Node17&#45;&gt;Node4</title>
<path fill="none" stroke="#9a32cd" stroke-dasharray="5,2" d="M450.4137,-317.9761C497.2099,-315.468 556.034,-312.3152 606.8283,-309.5928"/>
<polygon fill="#9a32cd" stroke="#9a32cd" points="450.1131,-314.4871 440.3148,-318.5174 450.4878,-321.4771 450.1131,-314.4871"/>
<text text-anchor="middle" x="523.5" y="-319.5004" font-family="Helvetica,sans-Serif" font-size="10.00" fill="#000000"> plugins</text>
</g>
<!-- Node23 -->
<g id="node5" class="node">
<title>Node23</title>
<polygon fill="#ffffff" stroke="#bfbfbf" points="668.5,-209.0004 668.5,-228.0004 772.5,-228.0004 772.5,-209.0004 668.5,-209.0004"/>
<text text-anchor="middle" x="720.5" y="-216.0004" font-family="Helvetica,sans-Serif" font-size="10.00" fill="#000000">vector&lt;StringBase&gt;</text>
</g>
<!-- Node23&#45;&gt;Node3 -->
<g id="edge16" class="edge">
<title>Node23&#45;&gt;Node3</title>
<path fill="none" stroke="#9a32cd" stroke-dasharray="5,2" d="M782.6642,-213.6343C831.5631,-209.8066 898.0534,-204.6019 938.9447,-201.401"/>
<polygon fill="#9a32cd" stroke="#9a32cd" points="782.2085,-210.1592 772.5122,-214.429 782.7549,-217.1378 782.2085,-210.1592"/>
<text text-anchor="middle" x="886.5" y="-210.5004" font-family="Helvetica,sans-Serif" font-size="10.00" fill="#000000"> TrueValues</text>
</g>
<!-- Node14 -->
<g id="node6" class="node">
<title>Node14</title>
<g id="a_node6"><a xlink:href="classaworx_1_1lib_1_1strings_1_1TStringBase.html" target="_top" xlink:title="TStringBase\&lt;nchar\&gt;">
<polygon fill="#ffffff" stroke="#ff0000" points="5,-294.0004 5,-313.0004 112,-313.0004 112,-294.0004 5,-294.0004"/>
<text text-anchor="middle" x="58.5" y="-301.0004" font-family="Helvetica,sans-Serif" font-size="10.00" fill="#000000">TStringBase&lt;nchar&gt;</text>
</a>
</g>
</g>
<!-- Node5 -->
<g id="node12" class="node">
<title>Node5</title>
<g id="a_node12"><a xlink:href="classaworx_1_1lib_1_1threads_1_1ThreadLock.html" target="_top" xlink:title="ThreadLock">
<polygon fill="#ffffff" stroke="#000000" points="332,-275.0004 332,-294.0004 400,-294.0004 400,-275.0004 332,-275.0004"/>
<text text-anchor="middle" x="366" y="-282.0004" font-family="Helvetica,sans-Serif" font-size="10.00" fill="#000000">ThreadLock</text>
</a>
</g>
</g>
<!-- Node14&#45;&gt;Node5 -->
<g id="edge6" class="edge">
<title>Node14&#45;&gt;Node5</title>
<path fill="none" stroke="#9a32cd" stroke-dasharray="5,2" d="M122.3731,-299.5538C185.9473,-295.6256 281.1159,-289.7453 331.6302,-286.6241"/>
<polygon fill="#9a32cd" stroke="#9a32cd" points="121.8275,-296.0807 112.0624,-300.1908 122.2593,-303.0674 121.8275,-296.0807"/>
<text text-anchor="middle" x="204.5" y="-311.5004" font-family="Helvetica,sans-Serif" font-size="10.00" fill="#000000"> acquirementMethodName</text>
<text text-anchor="middle" x="204.5" y="-300.5004" font-family="Helvetica,sans-Serif" font-size="10.00" fill="#000000">acquirementSourcefile</text>
</g>
<!-- Node19 -->
<g id="node7" class="node">
<title>Node19</title>
<g id="a_node7"><a xlink:href="classaworx_1_1lib_1_1strings_1_1StringBase.html" target="_top" xlink:title="StringBase\&lt;character\&gt;">
<polygon fill="#ffffff" stroke="#000000" points="0,-24.0004 0,-43.0004 117,-43.0004 117,-24.0004 0,-24.0004"/>
<text text-anchor="middle" x="58.5" y="-31.0004" font-family="Helvetica,sans-Serif" font-size="10.00" fill="#000000">StringBase&lt;character&gt;</text>
</a>
</g>
</g>
<!-- Node19&#45;&gt;Node3 -->
<g id="edge10" class="edge">
<title>Node19&#45;&gt;Node3</title>
<path fill="none" stroke="#9a32cd" stroke-dasharray="5,2" d="M120.0323,-22.3879C219.8408,-6.4664 422.6276,17.1125 589,-19.5004 744.4373,-53.7069 911.7541,-156.7126 961.3608,-188.8292"/>
<polygon fill="#9a32cd" stroke="#9a32cd" points="119.4284,-18.9401 110.1191,-23.9985 120.551,-25.8495 119.4284,-18.9401"/>
<text text-anchor="middle" x="523.5" y="-44.5004" font-family="Helvetica,sans-Serif" font-size="10.00" fill="#000000"> SubstitutionVariableStart</text>
<text text-anchor="middle" x="523.5" y="-33.5004" font-family="Helvetica,sans-Serif" font-size="10.00" fill="#000000">SubstitutionVariableEnd</text>
<text text-anchor="middle" x="523.5" y="-22.5004" font-family="Helvetica,sans-Serif" font-size="10.00" fill="#000000">SubstitutionVariableDelimiters</text>
</g>
<!-- Node21 -->
<g id="node9" class="node">
<title>Node21</title>
<g id="a_node9"><a xlink:href="classaworx_1_1lib_1_1strings_1_1TStringBase.html" target="_top" xlink:title="TStringBase\&lt;character\&gt;">
<polygon fill="#ffffff" stroke="#000000" points="304.5,-58.0004 304.5,-77.0004 427.5,-77.0004 427.5,-58.0004 304.5,-58.0004"/>
<text text-anchor="middle" x="366" y="-65.0004" font-family="Helvetica,sans-Serif" font-size="10.00" fill="#000000">TStringBase&lt;character&gt;</text>
</a>
</g>
</g>
<!-- Node19&#45;&gt;Node21 -->
<g id="edge11" class="edge">
<title>Node19&#45;&gt;Node21</title>
<path fill="none" stroke="#191970" d="M127.0804,-41.0833C180.231,-46.9601 253.2203,-55.0304 304.4946,-60.6998"/>
<polygon fill="#191970" stroke="#191970" points="127.3863,-37.5958 117.0622,-39.9756 126.6169,-44.5534 127.3863,-37.5958"/>
</g>
<!-- Node20 -->
<g id="node8" class="node">
<title>Node20</title>
<g id="a_node8"><a xlink:href="classaworx_1_1lib_1_1strings_1_1NumberFormatBase.html" target="_top" xlink:title="NumberFormatBase\&lt;character\&gt;">
<polygon fill="#ffffff" stroke="#000000" points="642,-167.0004 642,-186.0004 799,-186.0004 799,-167.0004 642,-167.0004"/>
<text text-anchor="middle" x="720.5" y="-174.0004" font-family="Helvetica,sans-Serif" font-size="10.00" fill="#000000">NumberFormatBase&lt;character&gt;</text>
</a>
</g>
</g>
<!-- Node20&#45;&gt;Node3 -->
<g id="edge12" class="edge">
<title>Node20&#45;&gt;Node3</title>
<path fill="none" stroke="#9a32cd" stroke-dasharray="5,2" d="M809.4548,-178.6563C844.337,-180.2127 884.6437,-182.8913 921,-187.5004 926.7962,-188.2352 932.8967,-189.2298 938.8405,-190.3221"/>
<polygon fill="#9a32cd" stroke="#9a32cd" points="809.4312,-175.1523 799.2924,-178.2275 809.1359,-182.1461 809.4312,-175.1523"/>
<text text-anchor="middle" x="886.5" y="-190.5004" font-family="Helvetica,sans-Serif" font-size="10.00" fill="#000000"> NumberFormat</text>
</g>
<!-- Node21&#45;&gt;Node20 -->
<g id="edge13" class="edge">
<title>Node21&#45;&gt;Node20</title>
<path fill="none" stroke="#9a32cd" stroke-dasharray="5,2" d="M437.7451,-58.2139C482.5323,-55.1142 540.6588,-56.0909 589,-73.5004 643.568,-93.1524 693.1347,-144.9644 712.209,-166.6917"/>
<polygon fill="#9a32cd" stroke="#9a32cd" points="437.2319,-54.7431 427.5327,-59.0066 437.7737,-61.7221 437.2319,-54.7431"/>
<text text-anchor="middle" x="523.5" y="-142.5004" font-family="Helvetica,sans-Serif" font-size="10.00" fill="#000000"> Whitespaces</text>
<text text-anchor="middle" x="523.5" y="-131.5004" font-family="Helvetica,sans-Serif" font-size="10.00" fill="#000000">OctLiteralPrefix</text>
<text text-anchor="middle" x="523.5" y="-120.5004" font-family="Helvetica,sans-Serif" font-size="10.00" fill="#000000">INFLiteral</text>
<text text-anchor="middle" x="523.5" y="-109.5004" font-family="Helvetica,sans-Serif" font-size="10.00" fill="#000000">NANLiteral</text>
<text text-anchor="middle" x="523.5" y="-98.5004" font-family="Helvetica,sans-Serif" font-size="10.00" fill="#000000">ExponentSeparator</text>
<text text-anchor="middle" x="523.5" y="-87.5004" font-family="Helvetica,sans-Serif" font-size="10.00" fill="#000000">BinLiteralPrefix</text>
<text text-anchor="middle" x="523.5" y="-76.5004" font-family="Helvetica,sans-Serif" font-size="10.00" fill="#000000">HexLiteralPrefix</text>
</g>
<!-- Node22 -->
<g id="node10" class="node">
<title>Node22</title>
<g id="a_node10"><a xlink:href="classaworx_1_1lib_1_1strings_1_1NumberFormatBase.html" target="_top" xlink:title="NumberFormatBase\&lt;TChar\&gt;">
<polygon fill="#ffffff" stroke="#000000" points="294.5,-116.0004 294.5,-135.0004 437.5,-135.0004 437.5,-116.0004 294.5,-116.0004"/>
<text text-anchor="middle" x="366" y="-123.0004" font-family="Helvetica,sans-Serif" font-size="10.00" fill="#000000">NumberFormatBase&lt;TChar&gt;</text>
</a>
</g>
</g>
<!-- Node22&#45;&gt;Node20 -->
<g id="edge14" class="edge">
<title>Node22&#45;&gt;Node20</title>
<path fill="none" stroke="#9a32cd" stroke-dasharray="5,2" d="M400.5348,-138.3865C417.5972,-144.236 438.633,-150.6856 458,-154.5004 519.0239,-166.5206 589.2944,-171.9784 641.7644,-174.4538"/>
<polygon fill="#9a32cd" stroke="#9a32cd" points="401.5854,-135.046 390.9905,-135.0363 399.2668,-141.6509 401.5854,-135.046"/>
<text text-anchor="middle" x="523.5" y="-184.5004" font-family="Helvetica,sans-Serif" font-size="10.00" fill="#000000"> Global</text>
<text text-anchor="middle" x="523.5" y="-173.5004" font-family="Helvetica,sans-Serif" font-size="10.00" fill="#000000">Computational</text>
</g>
<!-- Node22&#45;&gt;Node22 -->
<g id="edge15" class="edge">
<title>Node22&#45;&gt;Node22</title>
<path fill="none" stroke="#9a32cd" stroke-dasharray="5,2" d="M336.8809,-144.1543C338.0981,-149.4372 347.8044,-153.5004 366,-153.5004 393.7266,-153.5004 401.7413,-144.0657 390.0441,-135.2575"/>
<polygon fill="#9a32cd" stroke="#9a32cd" points="340.0412,-145.6779 341.9559,-135.2575 333.9609,-142.2095 340.0412,-145.6779"/>
<text text-anchor="middle" x="366" y="-167.5004" font-family="Helvetica,sans-Serif" font-size="10.00" fill="#000000"> Global</text>
<text text-anchor="middle" x="366" y="-156.5004" font-family="Helvetica,sans-Serif" font-size="10.00" fill="#000000">Computational</text>
</g>
<!-- Node24 -->
<g id="node11" class="node">
<title>Node24</title>
<g id="a_node11"><a xlink:href="classaworx_1_1lib_1_1strings_1_1StringBase.html" target="_top" xlink:title="StringBase\&lt;TChar\&gt;">
<polygon fill="#ffffff" stroke="#000000" points="314.5,-213.0004 314.5,-232.0004 417.5,-232.0004 417.5,-213.0004 314.5,-213.0004"/>
<text text-anchor="middle" x="366" y="-220.0004" font-family="Helvetica,sans-Serif" font-size="10.00" fill="#000000">StringBase&lt;TChar&gt;</text>
</a>
</g>
</g>
<!-- Node24&#45;&gt;Node23 -->
<g id="edge17" class="edge">
<title>Node24&#45;&gt;Node23</title>
<path fill="none" stroke="#9a32cd" stroke-dasharray="5,2" d="M427.7064,-221.8041C495.8177,-221.0356 604.2692,-219.8119 668.3129,-219.0892"/>
<polygon fill="#9a32cd" stroke="#9a32cd" points="427.5072,-218.3061 417.5473,-221.9188 427.5862,-225.3056 427.5072,-218.3061"/>
<text text-anchor="middle" x="523.5" y="-223.5004" font-family="Helvetica,sans-Serif" font-size="10.00" fill="#000000"> elements</text>
</g>
<!-- Node5&#45;&gt;Node4 -->
<g id="edge2" class="edge">
<title>Node5&#45;&gt;Node4</title>
<path fill="none" stroke="#191970" d="M410.5704,-286.8892C459.5711,-289.5155 540.206,-293.8372 606.9451,-297.4142"/>
<polygon fill="#191970" stroke="#191970" points="410.4861,-283.3798 400.3131,-286.3395 410.1114,-290.3697 410.4861,-283.3798"/>
</g>
<!-- Node6 -->
<g id="node13" class="node">
<title>Node6</title>
<g id="a_node13"><a xlink:href="classaworx_1_1lib_1_1threads_1_1Thread.html" target="_top" xlink:title="Thread">
<polygon fill="#ffffff" stroke="#ff0000" points="35,-256.0004 35,-275.0004 82,-275.0004 82,-256.0004 35,-256.0004"/>
<text text-anchor="middle" x="58.5" y="-263.0004" font-family="Helvetica,sans-Serif" font-size="10.00" fill="#000000">Thread</text>
</a>
</g>
</g>
<!-- Node6&#45;&gt;Node5 -->
<g id="edge3" class="edge">
<title>Node6&#45;&gt;Node5</title>
<path fill="none" stroke="#9a32cd" stroke-dasharray="5,2" d="M92.2274,-264.6385C134.7152,-263.8945 209.9254,-263.7122 274,-269.5004 293.1798,-271.233 314.4077,-274.596 331.6353,-277.6993"/>
<polygon fill="#9a32cd" stroke="#9a32cd" points="92.0864,-261.1405 82.1572,-264.8365 92.2241,-268.1392 92.0864,-261.1405"/>
<text text-anchor="middle" x="204.5" y="-272.5004" font-family="Helvetica,sans-Serif" font-size="10.00" fill="#000000"> owner</text>
</g>
<!-- Node12 -->
<g id="node14" class="node">
<title>Node12</title>
<polygon fill="#ffffff" stroke="#bfbfbf" points="37,-144.0004 37,-163.0004 80,-163.0004 80,-144.0004 37,-144.0004"/>
<text text-anchor="middle" x="58.5" y="-151.0004" font-family="Helvetica,sans-Serif" font-size="10.00" fill="#000000">TChar</text>
</g>
<!-- Node12&#45;&gt;Node22 -->
<g id="edge4" class="edge">
<title>Node12&#45;&gt;Node22</title>
<path fill="none" stroke="#9a32cd" stroke-dasharray="5,2" d="M70.694,-135.3683C84.0448,-117.3107 107.2846,-90.7117 135,-79.5004 192.2696,-56.3339 213.8748,-65.3068 274,-79.5004 281.734,-81.3261 323.1912,-102.8521 347.7362,-115.8"/>
<polygon fill="#9a32cd" stroke="#9a32cd" points="67.5698,-133.7236 64.6426,-143.906 73.2808,-137.7715 67.5698,-133.7236"/>
<text text-anchor="middle" x="204.5" y="-192.5004" font-family="Helvetica,sans-Serif" font-size="10.00" fill="#000000"> BinByteGroupChar</text>
<text text-anchor="middle" x="204.5" y="-181.5004" font-family="Helvetica,sans-Serif" font-size="10.00" fill="#000000">LeadingGroupCharReplacement</text>
<text text-anchor="middle" x="204.5" y="-170.5004" font-family="Helvetica,sans-Serif" font-size="10.00" fill="#000000">PlusSign</text>
<text text-anchor="middle" x="204.5" y="-159.5004" font-family="Helvetica,sans-Serif" font-size="10.00" fill="#000000">BinNibbleGroupChar</text>
<text text-anchor="middle" x="204.5" y="-148.5004" font-family="Helvetica,sans-Serif" font-size="10.00" fill="#000000">BinWord32GroupChar</text>
<text text-anchor="middle" x="204.5" y="-137.5004" font-family="Helvetica,sans-Serif" font-size="10.00" fill="#000000">OctGroupChar</text>
<text text-anchor="middle" x="204.5" y="-126.5004" font-family="Helvetica,sans-Serif" font-size="10.00" fill="#000000">HexWordGroupChar</text>
<text text-anchor="middle" x="204.5" y="-115.5004" font-family="Helvetica,sans-Serif" font-size="10.00" fill="#000000">HexWord32GroupChar</text>
<text text-anchor="middle" x="204.5" y="-104.5004" font-family="Helvetica,sans-Serif" font-size="10.00" fill="#000000">BinWordGroupChar</text>
<text text-anchor="middle" x="204.5" y="-93.5004" font-family="Helvetica,sans-Serif" font-size="10.00" fill="#000000">HexByteGroupChar</text>
<text text-anchor="middle" x="204.5" y="-82.5004" font-family="Helvetica,sans-Serif" font-size="10.00" fill="#000000">...</text>
</g>
<!-- Node12&#45;&gt;Node24 -->
<g id="edge5" class="edge">
<title>Node12&#45;&gt;Node24</title>
<path fill="none" stroke="#9a32cd" stroke-dasharray="5,2" d="M78.3937,-169.2602C93.1328,-180.0179 114.19,-193.5362 135,-200.5004 194.2149,-220.3169 266.4071,-224.2019 314.1542,-224.1828"/>
<polygon fill="#9a32cd" stroke="#9a32cd" points="80.1839,-166.2266 70.0917,-163.0019 75.9702,-171.8163 80.1839,-166.2266"/>
<text text-anchor="middle" x="204.5" y="-236.5004" font-family="Helvetica,sans-Serif" font-size="10.00" fill="#000000"> vbuffer</text>
<text text-anchor="middle" x="204.5" y="-225.5004" font-family="Helvetica,sans-Serif" font-size="10.00" fill="#000000">buffer</text>
</g>
<!-- Node18 -->
<g id="node15" class="node">
<title>Node18</title>
<g id="a_node15"><a xlink:href="structaworx_1_1lib_1_1util_1_1PluginContainer_1_1Slot.html" target="_top" xlink:title="Type definition for elements of the list of plug&#45;ins with their priority. ">
<polygon fill="#ffffff" stroke="#000000" points="41.5,-338.0004 41.5,-357.0004 75.5,-357.0004 75.5,-338.0004 41.5,-338.0004"/>
<text text-anchor="middle" x="58.5" y="-345.0004" font-family="Helvetica,sans-Serif" font-size="10.00" fill="#000000">Slot</text>
</a>
</g>
</g>
<!-- Node18&#45;&gt;Node17 -->
<g id="edge9" class="edge">
<title>Node18&#45;&gt;Node17</title>
<path fill="none" stroke="#9a32cd" stroke-dasharray="5,2" d="M85.9774,-345.2665C131.8082,-341.5404 225.3616,-333.9344 291.7022,-328.5409"/>
<polygon fill="#9a32cd" stroke="#9a32cd" points="85.597,-341.7857 75.9136,-346.0847 86.1643,-348.7627 85.597,-341.7857"/>
<text text-anchor="middle" x="204.5" y="-343.5004" font-family="Helvetica,sans-Serif" font-size="10.00" fill="#000000"> elements</text>
</g>
</g>
</svg>
