<?xml version="1.0" encoding="UTF-8" standalone="no"?>
<!DOCTYPE svg PUBLIC "-//W3C//DTD SVG 1.1//EN"
 "http://www.w3.org/Graphics/SVG/1.1/DTD/svg11.dtd">
<!-- Generated by graphviz version 2.40.1 (20161225.0304)
 -->
<!-- Title: IEquals_TstrangeCharArr Pages: 1 -->
<svg width="258pt" height="152pt"
 viewBox="0.00 0.00 258.00 152.00" xmlns="http://www.w3.org/2000/svg" xmlns:xlink="http://www.w3.org/1999/xlink">
<g id="graph0" class="graph" transform="scale(1 1) rotate(0) translate(4 148)">
<title>IEquals_TstrangeCharArr</title>
<polygon fill="#ffffff" stroke="transparent" points="-4,4 -4,-148 254,-148 254,4 -4,4"/>
<!-- Node4 -->
<g id="node1" class="node">
<title>Node4</title>
<polygon fill="#bfbfbf" stroke="#000000" points="92.5,-.5 92.5,-19.5 218.5,-19.5 218.5,-.5 92.5,-.5"/>
<text text-anchor="middle" x="155.5" y="-7.5" font-family="Helvetica,sans-Serif" font-size="10.00" fill="#000000">IEquals_TstrangeCharArr</text>
</g>
<!-- Node7 -->
<g id="node2" class="node">
<title>Node7</title>
<g id="a_node2"><a xlink:href="classaworx_1_1lib_1_1lang_1_1Singleton.html" target="_top" xlink:title="Singleton\&lt;IEquals_TstrangeCharArr\&gt;">
<polygon fill="#ffffff" stroke="#000000" points="0,-57.5 0,-76.5 179,-76.5 179,-57.5 0,-57.5"/>
<text text-anchor="middle" x="89.5" y="-64.5" font-family="Helvetica,sans-Serif" font-size="10.00" fill="#000000">Singleton&lt;IEquals_TstrangeCharArr&gt;</text>
</a>
</g>
</g>
<!-- Node7&#45;&gt;Node4 -->
<g id="edge3" class="edge">
<title>Node7&#45;&gt;Node4</title>
<path fill="none" stroke="#191970" d="M108.5674,-50.5327C120.2141,-40.4742 134.6967,-27.9664 144.4693,-19.5265"/>
<polygon fill="#191970" stroke="#191970" points="105.9766,-48.1456 100.696,-57.3307 110.5519,-53.4434 105.9766,-48.1456"/>
</g>
<!-- Node5 -->
<g id="node3" class="node">
<title>Node5</title>
<g id="a_node3"><a xlink:href="classaworx_1_1lib_1_1boxing_1_1IEquals.html" target="_top" xlink:title="IEquals">
<polygon fill="#ffffff" stroke="#000000" points="197.5,-57.5 197.5,-76.5 247.5,-76.5 247.5,-57.5 197.5,-57.5"/>
<text text-anchor="middle" x="222.5" y="-64.5" font-family="Helvetica,sans-Serif" font-size="10.00" fill="#000000">IEquals</text>
</a>
</g>
</g>
<!-- Node5&#45;&gt;Node4 -->
<g id="edge1" class="edge">
<title>Node5&#45;&gt;Node4</title>
<path fill="none" stroke="#191970" d="M203.4872,-50.8249C191.6065,-40.7175 176.7148,-28.0484 166.6978,-19.5265"/>
<polygon fill="#191970" stroke="#191970" points="201.2498,-53.5167 211.1344,-57.3307 205.7857,-48.1851 201.2498,-53.5167"/>
</g>
<!-- Node6 -->
<g id="node4" class="node">
<title>Node6</title>
<g id="a_node4"><a xlink:href="classaworx_1_1lib_1_1boxing_1_1Interface.html" target="_top" xlink:title="Interface">
<polygon fill="#ffffff" stroke="#000000" points="195,-124.5 195,-143.5 250,-143.5 250,-124.5 195,-124.5"/>
<text text-anchor="middle" x="222.5" y="-131.5" font-family="Helvetica,sans-Serif" font-size="10.00" fill="#000000">Interface</text>
</a>
</g>
</g>
<!-- Node6&#45;&gt;Node5 -->
<g id="edge2" class="edge">
<title>Node6&#45;&gt;Node5</title>
<path fill="none" stroke="#191970" d="M222.5,-114.1079C222.5,-101.714 222.5,-86.3263 222.5,-76.5817"/>
<polygon fill="#191970" stroke="#191970" points="219.0001,-114.4005 222.5,-124.4005 226.0001,-114.4006 219.0001,-114.4005"/>
</g>
<!-- Node8 -->
<g id="node5" class="node">
<title>Node8</title>
<polygon fill="#ffffff" stroke="#bfbfbf" points="48.5,-124.5 48.5,-143.5 130.5,-143.5 130.5,-124.5 48.5,-124.5"/>
<text text-anchor="middle" x="89.5" y="-131.5" font-family="Helvetica,sans-Serif" font-size="10.00" fill="#000000">TDerivedClass</text>
</g>
<!-- Node8&#45;&gt;Node7 -->
<g id="edge4" class="edge">
<title>Node8&#45;&gt;Node7</title>
<path fill="none" stroke="#9a32cd" stroke-dasharray="5,2" d="M89.5,-114.1079C89.5,-101.714 89.5,-86.3263 89.5,-76.5817"/>
<polygon fill="#9a32cd" stroke="#9a32cd" points="86.0001,-114.4005 89.5,-124.4005 93.0001,-114.4006 86.0001,-114.4005"/>
<text text-anchor="middle" x="111" y="-98" font-family="Helvetica,sans-Serif" font-size="10.00" fill="#000000"> singleton</text>
</g>
</g>
</svg>
