<?xml version="1.0" encoding="UTF-8" standalone="no"?>
<!DOCTYPE svg PUBLIC "-//W3C//DTD SVG 1.1//EN"
 "http://www.w3.org/Graphics/SVG/1.1/DTD/svg11.dtd">
<!-- Generated by graphviz version 2.40.1 (20161225.0304)
 -->
<!-- Title: ISReadLineBase&lt;TChar&gt; Pages: 1 -->
<svg width="136pt" height="209pt"
 viewBox="0.00 0.00 136.00 209.00" xmlns="http://www.w3.org/2000/svg" xmlns:xlink="http://www.w3.org/1999/xlink">
<g id="graph0" class="graph" transform="scale(1 1) rotate(0) translate(4 205)">
<title>ISReadLineBase&lt;TChar&gt;</title>
<polygon fill="#ffffff" stroke="transparent" points="-4,4 -4,-205 132,-205 132,4 -4,4"/>
<!-- Node2 -->
<g id="node1" class="node">
<title>Node2</title>
<polygon fill="#ffffff" stroke="#bfbfbf" points="6,-67.5 6,-86.5 122,-86.5 122,-67.5 6,-67.5"/>
<text text-anchor="middle" x="64" y="-74.5" font-family="Helvetica,sans-Serif" font-size="10.00" fill="#000000">basic_istream&lt;TChar&gt;</text>
</g>
<!-- Node1 -->
<g id="node3" class="node">
<title>Node1</title>
<polygon fill="#bfbfbf" stroke="#000000" points="0,-.5 0,-19.5 128,-19.5 128,-.5 0,-.5"/>
<text text-anchor="middle" x="64" y="-7.5" font-family="Helvetica,sans-Serif" font-size="10.00" fill="#000000">ISReadLineBase&lt;TChar&gt;</text>
</g>
<!-- Node2&#45;&gt;Node1 -->
<g id="edge1" class="edge">
<title>Node2&#45;&gt;Node1</title>
<path fill="none" stroke="#9a32cd" stroke-dasharray="5,2" d="M64,-57.1079C64,-44.714 64,-29.3263 64,-19.5817"/>
<polygon fill="#9a32cd" stroke="#9a32cd" points="60.5001,-57.4005 64,-67.4005 67.5001,-57.4006 60.5001,-57.4005"/>
<text text-anchor="middle" x="83" y="-41" font-family="Helvetica,sans-Serif" font-size="10.00" fill="#000000"> IStream</text>
</g>
<!-- Node3 -->
<g id="node2" class="node">
<title>Node3</title>
<g id="a_node2"><a xlink:title="STL class. ">
<polygon fill="#ffffff" stroke="#bfbfbf" points="16,-124.5 16,-143.5 112,-143.5 112,-124.5 16,-124.5"/>
<text text-anchor="middle" x="64" y="-131.5" font-family="Helvetica,sans-Serif" font-size="10.00" fill="#000000">basic_ios&lt;TChar&gt;</text>
</a>
</g>
</g>
<!-- Node3&#45;&gt;Node2 -->
<g id="edge2" class="edge">
<title>Node3&#45;&gt;Node2</title>
<path fill="none" stroke="#191970" d="M64,-114.2342C64,-104.8491 64,-94.0651 64,-86.5265"/>
<polygon fill="#191970" stroke="#191970" points="60.5001,-114.3307 64,-124.3307 67.5001,-114.3308 60.5001,-114.3307"/>
</g>
<!-- Node4 -->
<g id="node4" class="node">
<title>Node4</title>
<g id="a_node4"><a xlink:title="STL class. ">
<polygon fill="#ffffff" stroke="#bfbfbf" points="36,-181.5 36,-200.5 92,-200.5 92,-181.5 36,-181.5"/>
<text text-anchor="middle" x="64" y="-188.5" font-family="Helvetica,sans-Serif" font-size="10.00" fill="#000000">ios_base</text>
</a>
</g>
</g>
<!-- Node4&#45;&gt;Node3 -->
<g id="edge3" class="edge">
<title>Node4&#45;&gt;Node3</title>
<path fill="none" stroke="#191970" d="M64,-171.2342C64,-161.8491 64,-151.0651 64,-143.5265"/>
<polygon fill="#191970" stroke="#191970" points="60.5001,-171.3307 64,-181.3307 67.5001,-171.3308 60.5001,-171.3307"/>
</g>
</g>
</svg>
