<?xml version="1.0" encoding="UTF-8" standalone="no"?>
<!DOCTYPE svg PUBLIC "-//W3C//DTD SVG 1.1//EN"
 "http://www.w3.org/Graphics/SVG/1.1/DTD/svg11.dtd">
<!-- Generated by graphviz version 2.40.1 (20161225.0304)
 -->
<!-- Title: ReportWriterStdIO Pages: 1 -->
<svg width="248pt" height="84pt"
 viewBox="0.00 0.00 248.00 84.00" xmlns="http://www.w3.org/2000/svg" xmlns:xlink="http://www.w3.org/1999/xlink">
<g id="graph0" class="graph" transform="scale(1 1) rotate(0) translate(4 80)">
<title>ReportWriterStdIO</title>
<polygon fill="#ffffff" stroke="transparent" points="-4,4 -4,-80 244,-80 244,4 -4,4"/>
<!-- Node0 -->
<g id="node1" class="node">
<title>Node0</title>
<polygon fill="#bfbfbf" stroke="#000000" points="90,-.5 90,-19.5 188,-19.5 188,-.5 90,-.5"/>
<text text-anchor="middle" x="139" y="-7.5" font-family="Helvetica,sans-Serif" font-size="10.00" fill="#000000">ReportWriterStdIO</text>
</g>
<!-- Node2 -->
<g id="node2" class="node">
<title>Node2</title>
<g id="a_node2"><a xlink:href="classaworx_1_1lib_1_1lang_1_1Singleton.html" target="_top" xlink:title="Singleton\&lt;ReportWriterStdIO\&gt;">
<polygon fill="#ffffff" stroke="#000000" points="0,-56.5 0,-75.5 150,-75.5 150,-56.5 0,-56.5"/>
<text text-anchor="middle" x="75" y="-63.5" font-family="Helvetica,sans-Serif" font-size="10.00" fill="#000000">Singleton&lt;ReportWriterStdIO&gt;</text>
</a>
</g>
</g>
<!-- Node2&#45;&gt;Node0 -->
<g id="edge2" class="edge">
<title>Node2&#45;&gt;Node0</title>
<path fill="none" stroke="#191970" d="M93.6914,-49.645C104.8219,-39.9058 118.5663,-27.8795 127.9798,-19.6427"/>
<polygon fill="#191970" stroke="#191970" points="91.369,-47.0264 86.1479,-56.2455 95.9785,-52.2945 91.369,-47.0264"/>
</g>
<!-- Node1 -->
<g id="node3" class="node">
<title>Node1</title>
<g id="a_node3"><a xlink:href="classaworx_1_1lib_1_1lang_1_1ReportWriter.html" target="_top" xlink:title="ReportWriter">
<polygon fill="#ffffff" stroke="#000000" points="168,-56.5 168,-75.5 240,-75.5 240,-56.5 168,-56.5"/>
<text text-anchor="middle" x="204" y="-63.5" font-family="Helvetica,sans-Serif" font-size="10.00" fill="#000000">ReportWriter</text>
</a>
</g>
</g>
<!-- Node1&#45;&gt;Node0 -->
<g id="edge1" class="edge">
<title>Node1&#45;&gt;Node0</title>
<path fill="none" stroke="#191970" d="M185.0165,-49.645C173.7121,-39.9058 159.753,-27.8795 150.1924,-19.6427"/>
<polygon fill="#191970" stroke="#191970" points="182.8173,-52.3701 192.6779,-56.2455 187.3862,-47.0668 182.8173,-52.3701"/>
</g>
</g>
</svg>
