<?xml version="1.0" encoding="UTF-8" standalone="no"?>
<!DOCTYPE svg PUBLIC "-//W3C//DTD SVG 1.1//EN"
 "http://www.w3.org/Graphics/SVG/1.1/DTD/svg11.dtd">
<!-- Generated by graphviz version 2.40.1 (20161225.0304)
 -->
<!-- Title: Boxing Pages: 1 -->
<svg width="270pt" height="230pt"
 viewBox="0.00 0.00 270.00 230.00" xmlns="http://www.w3.org/2000/svg" xmlns:xlink="http://www.w3.org/1999/xlink">
<g id="graph0" class="graph" transform="scale(1 1) rotate(0) translate(4 226)">
<title>Boxing</title>
<polygon fill="#ffffff" stroke="transparent" points="-4,4 -4,-226 266,-226 266,4 -4,4"/>
<!-- Node1 -->
<g id="node1" class="node">
<title>Node1</title>
<polygon fill="#bfbfbf" stroke="#000000" points="106.5,-.5 106.5,-19.5 153.5,-19.5 153.5,-.5 106.5,-.5"/>
<text text-anchor="middle" x="130" y="-7.5" font-family="Helvetica,sans-Serif" font-size="10.00" fill="#000000">Boxing</text>
</g>
<!-- Node2 -->
<g id="node2" class="node">
<title>Node2</title>
<polygon fill="#ffffff" stroke="#bfbfbf" points="0,-78.5 0,-97.5 120,-97.5 120,-78.5 0,-78.5"/>
<text text-anchor="middle" x="60" y="-85.5" font-family="Helvetica,sans-Serif" font-size="10.00" fill="#000000">vector&lt;aworx::AString&gt;</text>
</g>
<!-- Node2&#45;&gt;Node1 -->
<g id="edge1" class="edge">
<title>Node2&#45;&gt;Node1</title>
<path fill="none" stroke="#9a32cd" stroke-dasharray="5,2" d="M75.3057,-70.9451C89.4199,-55.2178 109.8691,-32.4316 121.3464,-19.6426"/>
<polygon fill="#9a32cd" stroke="#9a32cd" points="72.6576,-68.6555 68.5834,-78.4357 77.8674,-73.3309 72.6576,-68.6555"/>
<text text-anchor="middle" x="120.5" y="-46.5" font-family="Helvetica,sans-Serif" font-size="10.00" fill="#000000"> strings</text>
</g>
<!-- Node3 -->
<g id="node3" class="node">
<title>Node3</title>
<g id="a_node3"><a xlink:href="classaworx_1_1lib_1_1strings_1_1AStringBase.html" target="_top" xlink:title="AStringBase\&lt;TChar\&gt;">
<polygon fill="#ffffff" stroke="#000000" points="5,-145.5 5,-164.5 115,-164.5 115,-145.5 5,-145.5"/>
<text text-anchor="middle" x="60" y="-152.5" font-family="Helvetica,sans-Serif" font-size="10.00" fill="#000000">AStringBase&lt;TChar&gt;</text>
</a>
</g>
</g>
<!-- Node3&#45;&gt;Node2 -->
<g id="edge2" class="edge">
<title>Node3&#45;&gt;Node2</title>
<path fill="none" stroke="#9a32cd" stroke-dasharray="5,2" d="M60,-135.1079C60,-122.714 60,-107.3263 60,-97.5817"/>
<polygon fill="#9a32cd" stroke="#9a32cd" points="56.5001,-135.4005 60,-145.4005 63.5001,-135.4006 56.5001,-135.4005"/>
<text text-anchor="middle" x="81.5" y="-119" font-family="Helvetica,sans-Serif" font-size="10.00" fill="#000000"> elements</text>
</g>
<!-- Node4 -->
<g id="node4" class="node">
<title>Node4</title>
<g id="a_node4"><a xlink:href="classaworx_1_1lib_1_1strings_1_1TStringBase.html" target="_top" xlink:title="TStringBase\&lt;TChar\&gt;">
<polygon fill="#ffffff" stroke="#ff0000" points="5.5,-202.5 5.5,-221.5 114.5,-221.5 114.5,-202.5 5.5,-202.5"/>
<text text-anchor="middle" x="60" y="-209.5" font-family="Helvetica,sans-Serif" font-size="10.00" fill="#000000">TStringBase&lt;TChar&gt;</text>
</a>
</g>
</g>
<!-- Node4&#45;&gt;Node3 -->
<g id="edge3" class="edge">
<title>Node4&#45;&gt;Node3</title>
<path fill="none" stroke="#191970" d="M60,-192.2342C60,-182.8491 60,-172.0651 60,-164.5265"/>
<polygon fill="#191970" stroke="#191970" points="56.5001,-192.3307 60,-202.3307 63.5001,-192.3308 56.5001,-192.3307"/>
</g>
<!-- Node7 -->
<g id="node5" class="node">
<title>Node7</title>
<g id="a_node5"><a xlink:href="classaworx_1_1lib_1_1strings_1_1AStringBase.html" target="_top" xlink:title="AStringBase\&lt;character\&gt;">
<polygon fill="#ffffff" stroke="#000000" points="138,-78.5 138,-97.5 262,-97.5 262,-78.5 138,-78.5"/>
<text text-anchor="middle" x="200" y="-85.5" font-family="Helvetica,sans-Serif" font-size="10.00" fill="#000000">AStringBase&lt;character&gt;</text>
</a>
</g>
</g>
<!-- Node7&#45;&gt;Node1 -->
<g id="edge4" class="edge">
<title>Node7&#45;&gt;Node1</title>
<path fill="none" stroke="#9a32cd" stroke-dasharray="5,2" d="M184.6943,-70.9451C170.5801,-55.2178 150.1309,-32.4316 138.6536,-19.6426"/>
<polygon fill="#9a32cd" stroke="#9a32cd" points="182.1326,-73.3309 191.4166,-78.4357 187.3424,-68.6555 182.1326,-73.3309"/>
<text text-anchor="middle" x="188" y="-52" font-family="Helvetica,sans-Serif" font-size="10.00" fill="#000000"> target</text>
<text text-anchor="middle" x="188" y="-41" font-family="Helvetica,sans-Serif" font-size="10.00" fill="#000000">dump</text>
</g>
<!-- Node8 -->
<g id="node6" class="node">
<title>Node8</title>
<g id="a_node6"><a xlink:href="classaworx_1_1lib_1_1strings_1_1TStringBase.html" target="_top" xlink:title="TStringBase\&lt;character\&gt;">
<polygon fill="#ffffff" stroke="#000000" points="138.5,-145.5 138.5,-164.5 261.5,-164.5 261.5,-145.5 138.5,-145.5"/>
<text text-anchor="middle" x="200" y="-152.5" font-family="Helvetica,sans-Serif" font-size="10.00" fill="#000000">TStringBase&lt;character&gt;</text>
</a>
</g>
</g>
<!-- Node8&#45;&gt;Node7 -->
<g id="edge5" class="edge">
<title>Node8&#45;&gt;Node7</title>
<path fill="none" stroke="#191970" d="M200,-135.1079C200,-122.714 200,-107.3263 200,-97.5817"/>
<polygon fill="#191970" stroke="#191970" points="196.5001,-135.4005 200,-145.4005 203.5001,-135.4006 196.5001,-135.4005"/>
</g>
<!-- Node9 -->
<g id="node7" class="node">
<title>Node9</title>
<g id="a_node7"><a xlink:href="classaworx_1_1lib_1_1strings_1_1StringBase.html" target="_top" xlink:title="StringBase\&lt;character\&gt;">
<polygon fill="#ffffff" stroke="#000000" points="141.5,-202.5 141.5,-221.5 258.5,-221.5 258.5,-202.5 141.5,-202.5"/>
<text text-anchor="middle" x="200" y="-209.5" font-family="Helvetica,sans-Serif" font-size="10.00" fill="#000000">StringBase&lt;character&gt;</text>
</a>
</g>
</g>
<!-- Node9&#45;&gt;Node8 -->
<g id="edge6" class="edge">
<title>Node9&#45;&gt;Node8</title>
<path fill="none" stroke="#191970" d="M200,-192.2342C200,-182.8491 200,-172.0651 200,-164.5265"/>
<polygon fill="#191970" stroke="#191970" points="196.5001,-192.3307 200,-202.3307 203.5001,-192.3308 196.5001,-192.3307"/>
</g>
</g>
</svg>
