<?xml version="1.0" encoding="UTF-8" standalone="no"?>
<!DOCTYPE svg PUBLIC "-//W3C//DTD SVG 1.1//EN"
 "http://www.w3.org/Graphics/SVG/1.1/DTD/svg11.dtd">
<!-- Generated by graphviz version 2.40.1 (20161225.0304)
 -->
<!-- Title: Threads Pages: 1 -->
<svg width="1388pt" height="270pt"
 viewBox="0.00 0.00 1388.00 270.02" xmlns="http://www.w3.org/2000/svg" xmlns:xlink="http://www.w3.org/1999/xlink">
<g id="graph0" class="graph" transform="scale(1 1) rotate(0) translate(4 266.0219)">
<title>Threads</title>
<polygon fill="#ffffff" stroke="transparent" points="-4,4 -4,-266.0219 1384,-266.0219 1384,4 -4,4"/>
<!-- Node2 -->
<g id="node1" class="node">
<title>Node2</title>
<polygon fill="#bfbfbf" stroke="#000000" points="1308,-162.5219 1308,-181.5219 1360,-181.5219 1360,-162.5219 1308,-162.5219"/>
<text text-anchor="middle" x="1334" y="-169.5219" font-family="Helvetica,sans-Serif" font-size="10.00" fill="#000000">Threads</text>
</g>
<!-- Node36 -->
<g id="node2" class="node">
<title>Node36</title>
<polygon fill="#ffffff" stroke="#bfbfbf" points="1288,-51.5219 1288,-70.5219 1380,-70.5219 1380,-51.5219 1288,-51.5219"/>
<text text-anchor="middle" x="1334" y="-58.5219" font-family="Helvetica,sans-Serif" font-size="10.00" fill="#000000">vector&lt;Library *&gt;</text>
</g>
<!-- Node3 -->
<g id="node7" class="node">
<title>Node3</title>
<g id="a_node7"><a xlink:href="classaworx_1_1lib_1_1lang_1_1Library.html" target="_top" xlink:title="Library">
<polygon fill="#ffffff" stroke="#000000" points="1142,-51.5219 1142,-70.5219 1188,-70.5219 1188,-51.5219 1142,-51.5219"/>
<text text-anchor="middle" x="1165" y="-58.5219" font-family="Helvetica,sans-Serif" font-size="10.00" fill="#000000">Library</text>
</a>
</g>
</g>
<!-- Node36&#45;&gt;Node3 -->
<g id="edge15" class="edge">
<title>Node36&#45;&gt;Node3</title>
<path fill="none" stroke="#9a32cd" stroke-dasharray="5,2" d="M1277.8019,-61.0219C1247.255,-61.0219 1211.1293,-61.0219 1188.1444,-61.0219"/>
<polygon fill="#9a32cd" stroke="#9a32cd" points="1277.9204,-64.522 1287.9203,-61.0219 1277.9203,-57.522 1277.9204,-64.522"/>
<text text-anchor="middle" x="1238" y="-64.0219" font-family="Helvetica,sans-Serif" font-size="10.00" fill="#000000"> dependencies</text>
</g>
<!-- Node37 -->
<g id="node3" class="node">
<title>Node37</title>
<polygon fill="#ffffff" stroke="#bfbfbf" points="814,-13.5219 814,-32.5219 990,-32.5219 990,-13.5219 814,-13.5219"/>
<text text-anchor="middle" x="902" y="-20.5219" font-family="Helvetica,sans-Serif" font-size="10.00" fill="#000000">vector&lt;pair&lt;const char *, uint64_t&gt;&gt;</text>
</g>
<!-- Node37&#45;&gt;Node3 -->
<g id="edge16" class="edge">
<title>Node37&#45;&gt;Node3</title>
<path fill="none" stroke="#9a32cd" stroke-dasharray="5,2" d="M1000.3201,-18.5857C1039.5648,-19.4242 1084.6785,-23.7277 1124,-36.0219 1134.5034,-39.3058 1145.0758,-45.8499 1152.8535,-51.419"/>
<polygon fill="#9a32cd" stroke="#9a32cd" points="1000.2612,-15.0846 990.2126,-18.4426 1000.162,-22.0839 1000.2612,-15.0846"/>
<text text-anchor="middle" x="1066" y="-39.0219" font-family="Helvetica,sans-Serif" font-size="10.00" fill="#000000"> CompilationFlagMeanings</text>
</g>
<!-- Node38 -->
<g id="node4" class="node">
<title>Node38</title>
<polygon fill="#ffffff" stroke="#bfbfbf" points="617,-242.5219 617,-261.5219 796,-261.5219 796,-242.5219 617,-242.5219"/>
<text text-anchor="middle" x="706.5" y="-249.5219" font-family="Helvetica,sans-Serif" font-size="10.00" fill="#000000">unordered_map&lt;thread::id, Thread *&gt;</text>
</g>
<!-- Node38&#45;&gt;Node2 -->
<g id="edge17" class="edge">
<title>Node38&#45;&gt;Node2</title>
<path fill="none" stroke="#9a32cd" stroke-dasharray="5,2" d="M791.3696,-241.2018C935.2682,-222.8562 1220.051,-186.5492 1307.7043,-175.3743"/>
<polygon fill="#9a32cd" stroke="#9a32cd" points="790.7341,-237.7544 781.257,-242.4911 791.6194,-244.6982 790.7341,-237.7544"/>
<text text-anchor="middle" x="1066" y="-216.0219" font-family="Helvetica,sans-Serif" font-size="10.00" fill="#000000"> threadMap</text>
</g>
<!-- Node4 -->
<g id="node5" class="node">
<title>Node4</title>
<g id="a_node5"><a xlink:href="classaworx_1_1lib_1_1strings_1_1TStringBase.html" target="_top" xlink:title="TStringBase\&lt;character\&gt;">
<polygon fill="#ffffff" stroke="#000000" points="376,-1.5219 376,-20.5219 499,-20.5219 499,-1.5219 376,-1.5219"/>
<text text-anchor="middle" x="437.5" y="-8.5219" font-family="Helvetica,sans-Serif" font-size="10.00" fill="#000000">TStringBase&lt;character&gt;</text>
</a>
</g>
</g>
<!-- Node4&#45;&gt;Node3 -->
<g id="edge3" class="edge">
<title>Node4&#45;&gt;Node3</title>
<path fill="none" stroke="#9a32cd" stroke-dasharray="5,2" d="M509.4697,-7.6509C614.9481,-3.2685 817.7009,3.0382 990,-4.0219 1049.7058,-6.4683 1070.5182,11.6327 1124,-15.0219 1140.0854,-23.0386 1152.7159,-40.3439 1159.4987,-51.294"/>
<polygon fill="#9a32cd" stroke="#9a32cd" points="509.1043,-4.1631 499.2608,-8.0817 509.3995,-11.1569 509.1043,-4.1631"/>
<text text-anchor="middle" x="706.5" y="-7.0219" font-family="Helvetica,sans-Serif" font-size="10.00" fill="#000000"> ResourceCategory</text>
</g>
<!-- Node5 -->
<g id="node6" class="node">
<title>Node5</title>
<g id="a_node6"><a xlink:href="classaworx_1_1lib_1_1strings_1_1StringBase.html" target="_top" xlink:title="StringBase\&lt;character\&gt;">
<polygon fill="#ffffff" stroke="#000000" points="0,-47.5219 0,-66.5219 117,-66.5219 117,-47.5219 0,-47.5219"/>
<text text-anchor="middle" x="58.5" y="-54.5219" font-family="Helvetica,sans-Serif" font-size="10.00" fill="#000000">StringBase&lt;character&gt;</text>
</a>
</g>
</g>
<!-- Node5&#45;&gt;Node4 -->
<g id="edge4" class="edge">
<title>Node5&#45;&gt;Node4</title>
<path fill="none" stroke="#191970" d="M127.4687,-48.651C198.3248,-40.051 307.6162,-26.7861 375.7252,-18.5196"/>
<polygon fill="#191970" stroke="#191970" points="126.8083,-45.2054 117.3029,-49.8848 127.6518,-52.1544 126.8083,-45.2054"/>
</g>
<!-- Node18 -->
<g id="node8" class="node">
<title>Node18</title>
<g id="a_node8"><a xlink:href="classaworx_1_1lib_1_1config_1_1Configuration.html" target="_top" xlink:title="Configuration">
<polygon fill="#ffffff" stroke="#ff0000" points="284,-75.5219 284,-94.5219 358,-94.5219 358,-75.5219 284,-75.5219"/>
<text text-anchor="middle" x="321" y="-82.5219" font-family="Helvetica,sans-Serif" font-size="10.00" fill="#000000">Configuration</text>
</a>
</g>
</g>
<!-- Node5&#45;&gt;Node18 -->
<g id="edge5" class="edge">
<title>Node5&#45;&gt;Node18</title>
<path fill="none" stroke="#9a32cd" stroke-dasharray="5,2" d="M127.1817,-64.3479C177.1965,-69.6828 243.0353,-76.7056 283.664,-81.0394"/>
<polygon fill="#9a32cd" stroke="#9a32cd" points="127.3982,-60.8512 117.0834,-63.2708 126.6557,-67.8117 127.3982,-60.8512"/>
<text text-anchor="middle" x="200.5" y="-103.0219" font-family="Helvetica,sans-Serif" font-size="10.00" fill="#000000"> SubstitutionVariableStart</text>
<text text-anchor="middle" x="200.5" y="-92.0219" font-family="Helvetica,sans-Serif" font-size="10.00" fill="#000000">SubstitutionVariableEnd</text>
<text text-anchor="middle" x="200.5" y="-81.0219" font-family="Helvetica,sans-Serif" font-size="10.00" fill="#000000">SubstitutionVariableDelimiters</text>
</g>
<!-- Node3&#45;&gt;Node2 -->
<g id="edge1" class="edge">
<title>Node3&#45;&gt;Node2</title>
<path fill="none" stroke="#191970" d="M1188.3986,-76.3902C1223.7593,-99.6152 1289.7999,-142.991 1319.2116,-162.3088"/>
<polygon fill="#191970" stroke="#191970" points="1189.9818,-73.2426 1179.702,-70.6782 1186.1389,-79.0935 1189.9818,-73.2426"/>
</g>
<!-- Node3&#45;&gt;Node36 -->
<g id="edge2" class="edge">
<title>Node3&#45;&gt;Node36</title>
<path fill="none" stroke="#9a32cd" stroke-dasharray="5,2" d="M1194.6396,-47.9826C1198.4032,-46.7668 1202.2502,-45.7276 1206,-45.0219 1233.9537,-39.7607 1241.7687,-41.5464 1270,-45.0219 1280.6852,-46.3373 1292.1524,-48.8439 1302.3866,-51.4896"/>
<polygon fill="#9a32cd" stroke="#9a32cd" points="1193.1881,-44.7865 1184.9961,-51.5053 1195.59,-51.3616 1193.1881,-44.7865"/>
<text text-anchor="middle" x="1238" y="-48.0219" font-family="Helvetica,sans-Serif" font-size="10.00" fill="#000000"> elements</text>
</g>
<!-- Node18&#45;&gt;Node3 -->
<g id="edge9" class="edge">
<title>Node18&#45;&gt;Node3</title>
<path fill="none" stroke="#9a32cd" stroke-dasharray="5,2" d="M368.3775,-83.6746C525.7991,-79.1982 1027.8806,-64.921 1141.842,-61.6804"/>
<polygon fill="#9a32cd" stroke="#9a32cd" points="367.9775,-80.1845 358.081,-83.9674 368.1765,-87.1817 367.9775,-80.1845"/>
<text text-anchor="middle" x="706.5" y="-79.0219" font-family="Helvetica,sans-Serif" font-size="10.00" fill="#000000"> Config</text>
</g>
<!-- Node6 -->
<g id="node9" class="node">
<title>Node6</title>
<g id="a_node9"><a xlink:href="classaworx_1_1lib_1_1lang_1_1Resources.html" target="_top" xlink:title="Resources">
<polygon fill="#ffffff" stroke="#000000" points="870,-127.5219 870,-146.5219 934,-146.5219 934,-127.5219 870,-127.5219"/>
<text text-anchor="middle" x="902" y="-134.5219" font-family="Helvetica,sans-Serif" font-size="10.00" fill="#000000">Resources</text>
</a>
</g>
</g>
<!-- Node18&#45;&gt;Node6 -->
<g id="edge10" class="edge">
<title>Node18&#45;&gt;Node6</title>
<path fill="none" stroke="#9a32cd" stroke-dasharray="5,2" d="M349.0376,-99.039C386.2864,-116.7476 454.6599,-146.11 517,-156.0219 646.5392,-176.6182 803.4014,-154.5389 869.8148,-143.0579"/>
<polygon fill="#9a32cd" stroke="#9a32cd" points="350.3512,-95.7868 339.8238,-94.593 347.309,-102.0912 350.3512,-95.7868"/>
<text text-anchor="middle" x="558" y="-166.0219" font-family="Helvetica,sans-Serif" font-size="10.00" fill="#000000"> Config</text>
</g>
<!-- Node10 -->
<g id="node11" class="node">
<title>Node10</title>
<g id="a_node11"><a xlink:href="classaworx_1_1lib_1_1config_1_1Variable.html" target="_top" xlink:title="Variable">
<polygon fill="#ffffff" stroke="#ff0000" points="532.5,-89.5219 532.5,-108.5219 583.5,-108.5219 583.5,-89.5219 532.5,-89.5219"/>
<text text-anchor="middle" x="558" y="-96.5219" font-family="Helvetica,sans-Serif" font-size="10.00" fill="#000000">Variable</text>
</a>
</g>
</g>
<!-- Node18&#45;&gt;Node10 -->
<g id="edge11" class="edge">
<title>Node18&#45;&gt;Node10</title>
<path fill="none" stroke="#9a32cd" stroke-dasharray="5,2" d="M368.1224,-87.8055C417.3836,-90.7154 492.8747,-95.1748 532.1857,-97.497"/>
<polygon fill="#9a32cd" stroke="#9a32cd" points="368.2203,-84.3052 358.0313,-87.2094 367.8074,-91.293 368.2203,-84.3052"/>
<text text-anchor="middle" x="437.5" y="-98.0219" font-family="Helvetica,sans-Serif" font-size="10.00" fill="#000000"> Config</text>
</g>
<!-- Node6&#45;&gt;Node3 -->
<g id="edge6" class="edge">
<title>Node6&#45;&gt;Node3</title>
<path fill="none" stroke="#9a32cd" stroke-dasharray="5,2" d="M944.0921,-126.0287C988.8973,-114.1494 1061.7696,-94.3194 1124,-75.0219 1129.7473,-73.2396 1135.9064,-71.2041 1141.6587,-69.2477"/>
<polygon fill="#9a32cd" stroke="#9a32cd" points="942.9248,-122.717 934.151,-128.656 944.7134,-129.4846 942.9248,-122.717"/>
<text text-anchor="middle" x="1066" y="-111.0219" font-family="Helvetica,sans-Serif" font-size="10.00" fill="#000000"> Res</text>
</g>
<!-- Node7 -->
<g id="node10" class="node">
<title>Node7</title>
<g id="a_node10"><a xlink:href="classaworx_1_1lib_1_1util_1_1MemoryBlocks.html" target="_top" xlink:title="MemoryBlocks">
<polygon fill="#ffffff" stroke="#ff0000" points="517,-127.5219 517,-146.5219 599,-146.5219 599,-127.5219 517,-127.5219"/>
<text text-anchor="middle" x="558" y="-134.5219" font-family="Helvetica,sans-Serif" font-size="10.00" fill="#000000">MemoryBlocks</text>
</a>
</g>
</g>
<!-- Node7&#45;&gt;Node6 -->
<g id="edge7" class="edge">
<title>Node7&#45;&gt;Node6</title>
<path fill="none" stroke="#9a32cd" stroke-dasharray="5,2" d="M609.3509,-137.0219C681.3689,-137.0219 810.2389,-137.0219 869.9745,-137.0219"/>
<polygon fill="#9a32cd" stroke="#9a32cd" points="609.1528,-133.522 599.1528,-137.0219 609.1527,-140.522 609.1528,-133.522"/>
<text text-anchor="middle" x="706.5" y="-140.0219" font-family="Helvetica,sans-Serif" font-size="10.00" fill="#000000"> cache</text>
</g>
<!-- Node10&#45;&gt;Node6 -->
<g id="edge8" class="edge">
<title>Node10&#45;&gt;Node6</title>
<path fill="none" stroke="#9a32cd" stroke-dasharray="5,2" d="M593.9497,-101.9973C640.5982,-105.9725 724.4872,-113.5108 796,-122.0219 820.7309,-124.9652 848.6142,-128.937 869.5738,-132.0542"/>
<polygon fill="#9a32cd" stroke="#9a32cd" points="594.0095,-98.4899 583.75,-101.1344 593.4193,-105.465 594.0095,-98.4899"/>
<text text-anchor="middle" x="706.5" y="-125.0219" font-family="Helvetica,sans-Serif" font-size="10.00" fill="#000000"> variable</text>
</g>
<!-- Node20 -->
<g id="node12" class="node">
<title>Node20</title>
<g id="a_node12"><a xlink:href="classaworx_1_1lib_1_1threads_1_1ThreadLock.html" target="_top" xlink:title="ThreadLock">
<polygon fill="#ffffff" stroke="#ff0000" points="524,-212.5219 524,-231.5219 592,-231.5219 592,-212.5219 524,-212.5219"/>
<text text-anchor="middle" x="558" y="-219.5219" font-family="Helvetica,sans-Serif" font-size="10.00" fill="#000000">ThreadLock</text>
</a>
</g>
</g>
<!-- Node20&#45;&gt;Node6 -->
<g id="edge12" class="edge">
<title>Node20&#45;&gt;Node6</title>
<path fill="none" stroke="#9a32cd" stroke-dasharray="5,2" d="M602.121,-219.5447C660.7495,-215.8824 761.006,-208.2262 796,-197.0219 832.2507,-185.4151 869.9286,-160.4673 889.105,-146.6774"/>
<polygon fill="#9a32cd" stroke="#9a32cd" points="601.8018,-216.0575 592.034,-220.161 602.2288,-223.0445 601.8018,-216.0575"/>
<text text-anchor="middle" x="706.5" y="-221.0219" font-family="Helvetica,sans-Serif" font-size="10.00" fill="#000000"> lock</text>
</g>
<!-- Node21 -->
<g id="node13" class="node">
<title>Node21</title>
<g id="a_node13"><a xlink:href="classaworx_1_1lib_1_1threads_1_1Thread.html" target="_top" xlink:title="Thread">
<polygon fill="#ffffff" stroke="#ff0000" points="297.5,-233.5219 297.5,-252.5219 344.5,-252.5219 344.5,-233.5219 297.5,-233.5219"/>
<text text-anchor="middle" x="321" y="-240.5219" font-family="Helvetica,sans-Serif" font-size="10.00" fill="#000000">Thread</text>
</a>
</g>
</g>
<!-- Node21&#45;&gt;Node38 -->
<g id="edge14" class="edge">
<title>Node21&#45;&gt;Node38</title>
<path fill="none" stroke="#9a32cd" stroke-dasharray="5,2" d="M354.6064,-243.8064C412.5748,-245.1598 533.1894,-247.9757 616.9426,-249.931"/>
<polygon fill="#9a32cd" stroke="#9a32cd" points="354.6134,-240.3057 344.5344,-243.5713 354.45,-247.3038 354.6134,-240.3057"/>
<text text-anchor="middle" x="437.5" y="-250.0219" font-family="Helvetica,sans-Serif" font-size="10.00" fill="#000000"> elements</text>
</g>
<!-- Node21&#45;&gt;Node20 -->
<g id="edge13" class="edge">
<title>Node21&#45;&gt;Node20</title>
<path fill="none" stroke="#9a32cd" stroke-dasharray="5,2" d="M354.4645,-231.8141C361.5034,-229.874 368.9369,-228.1275 376,-227.0219 427.0591,-219.029 487.1363,-219.2063 523.8853,-220.3779"/>
<polygon fill="#9a32cd" stroke="#9a32cd" points="353.1263,-228.5596 344.5232,-234.7432 355.1047,-235.2742 353.1263,-228.5596"/>
<text text-anchor="middle" x="437.5" y="-230.0219" font-family="Helvetica,sans-Serif" font-size="10.00" fill="#000000"> owner</text>
</g>
</g>
</svg>
