<?xml version="1.0" encoding="UTF-8" standalone="no"?>
<!DOCTYPE svg PUBLIC "-//W3C//DTD SVG 1.1//EN"
 "http://www.w3.org/Graphics/SVG/1.1/DTD/svg11.dtd">
<!-- Generated by graphviz version 2.40.1 (20161225.0304)
 -->
<!-- Title: TextFileLogger Pages: 1 -->
<svg width="915pt" height="571pt"
 viewBox="0.00 0.00 915.00 571.00" xmlns="http://www.w3.org/2000/svg" xmlns:xlink="http://www.w3.org/1999/xlink">
<g id="graph0" class="graph" transform="scale(1 1) rotate(0) translate(4 567)">
<title>TextFileLogger</title>
<polygon fill="#ffffff" stroke="transparent" points="-4,4 -4,-567 911,-567 911,4 -4,4"/>
<!-- Node6 -->
<g id="node1" class="node">
<title>Node6</title>
<polygon fill="#bfbfbf" stroke="#000000" points="827,-238.5 827,-257.5 907,-257.5 907,-238.5 827,-238.5"/>
<text text-anchor="middle" x="867" y="-245.5" font-family="Helvetica,sans-Serif" font-size="10.00" fill="#000000">TextFileLogger</text>
</g>
<!-- Node28 -->
<g id="node2" class="node">
<title>Node28</title>
<polygon fill="#ffffff" stroke="#bfbfbf" points="278.5,-317.5 278.5,-336.5 388.5,-336.5 388.5,-317.5 278.5,-317.5"/>
<text text-anchor="middle" x="333.5" y="-324.5" font-family="Helvetica,sans-Serif" font-size="10.00" fill="#000000">vector&lt;AStringBase&gt;</text>
</g>
<!-- Node8 -->
<g id="node9" class="node">
<title>Node8</title>
<g id="a_node9"><a xlink:href="classaworx_1_1lib_1_1lox_1_1core_1_1textlogger_1_1TextLogger.html" target="_top" xlink:title="TextLogger">
<polygon fill="#ffffff" stroke="#000000" points="511,-238.5 511,-257.5 576,-257.5 576,-238.5 511,-238.5"/>
<text text-anchor="middle" x="543.5" y="-245.5" font-family="Helvetica,sans-Serif" font-size="10.00" fill="#000000">TextLogger</text>
</a>
</g>
</g>
<!-- Node28&#45;&gt;Node8 -->
<g id="edge8" class="edge">
<title>Node28&#45;&gt;Node8</title>
<path fill="none" stroke="#9a32cd" stroke-dasharray="5,2" d="M398.8184,-321.5895C422.5783,-317.9883 449.1842,-311.9902 472,-302 496.7941,-291.1435 520.915,-270.0984 533.8235,-257.7303"/>
<polygon fill="#9a32cd" stroke="#9a32cd" points="398.2459,-318.1355 388.8291,-322.9908 399.2184,-325.0676 398.2459,-318.1355"/>
<text text-anchor="middle" x="441" y="-322" font-family="Helvetica,sans-Serif" font-size="10.00" fill="#000000"> replacements</text>
</g>
<!-- Node44 -->
<g id="node3" class="node">
<title>Node44</title>
<g id="a_node3"><a xlink:title="STL class. ">
<polygon fill="#ffffff" stroke="#bfbfbf" points="278,-.5 278,-19.5 389,-19.5 389,-.5 278,-.5"/>
<text text-anchor="middle" x="333.5" y="-7.5" font-family="Helvetica,sans-Serif" font-size="10.00" fill="#000000">basic_ostream&lt;char&gt;</text>
</a>
</g>
</g>
<!-- Node43 -->
<g id="node15" class="node">
<title>Node43</title>
<g id="a_node15"><a xlink:title="STL class. ">
<polygon fill="#ffffff" stroke="#bfbfbf" points="517.5,-.5 517.5,-19.5 569.5,-19.5 569.5,-.5 517.5,-.5"/>
<text text-anchor="middle" x="543.5" y="-7.5" font-family="Helvetica,sans-Serif" font-size="10.00" fill="#000000">ostream</text>
</a>
</g>
</g>
<!-- Node44&#45;&gt;Node43 -->
<g id="edge18" class="edge">
<title>Node44&#45;&gt;Node43</title>
<path fill="none" stroke="#191970" d="M399.4152,-10C439.2705,-10 487.8896,-10 517.2345,-10"/>
<polygon fill="#191970" stroke="#191970" points="399.2248,-6.5001 389.2248,-10 399.2248,-13.5001 399.2248,-6.5001"/>
</g>
<!-- Node36 -->
<g id="node4" class="node">
<title>Node36</title>
<g id="a_node4"><a xlink:href="classaworx_1_1lib_1_1strings_1_1AStringBase.html" target="_top" xlink:title="AStringBase\&lt;character\&gt;">
<polygon fill="#ffffff" stroke="#ff0000" points="16.5,-481.5 16.5,-500.5 140.5,-500.5 140.5,-481.5 16.5,-481.5"/>
<text text-anchor="middle" x="78.5" y="-488.5" font-family="Helvetica,sans-Serif" font-size="10.00" fill="#000000">AStringBase&lt;character&gt;</text>
</a>
</g>
</g>
<!-- Node36&#45;&gt;Node6 -->
<g id="edge12" class="edge">
<title>Node36&#45;&gt;Node6</title>
<path fill="none" stroke="#9a32cd" stroke-dasharray="5,2" d="M111.5154,-504.161C159.5555,-522.0933 251.9056,-552 333.5,-552 333.5,-552 333.5,-552 720,-552 786.9782,-552 851.5041,-309.8045 864.5942,-257.7703"/>
<polygon fill="#9a32cd" stroke="#9a32cd" points="112.5478,-500.8092 101.9566,-500.5313 110.0628,-507.3533 112.5478,-500.8092"/>
<text text-anchor="middle" x="543.5" y="-555" font-family="Helvetica,sans-Serif" font-size="10.00" fill="#000000"> FileName</text>
</g>
<!-- Node36&#45;&gt;Node8 -->
<g id="edge13" class="edge">
<title>Node36&#45;&gt;Node8</title>
<path fill="none" stroke="#9a32cd" stroke-dasharray="5,2" d="M150.6317,-491.5293C183.5667,-490.2049 222.7737,-486.4047 257,-477 359.7302,-448.7719 394.1306,-443.7096 472,-371 508.4678,-336.9486 531.9022,-280.0523 540.1659,-257.5643"/>
<polygon fill="#9a32cd" stroke="#9a32cd" points="150.5016,-488.0316 140.6243,-491.8643 150.7359,-495.0277 150.5016,-488.0316"/>
<text text-anchor="middle" x="333.5" y="-496" font-family="Helvetica,sans-Serif" font-size="10.00" fill="#000000"> logBuf</text>
<text text-anchor="middle" x="333.5" y="-485" font-family="Helvetica,sans-Serif" font-size="10.00" fill="#000000">MultiLineDelimiter</text>
<text text-anchor="middle" x="333.5" y="-474" font-family="Helvetica,sans-Serif" font-size="10.00" fill="#000000">msgBuf</text>
</g>
<!-- Node33 -->
<g id="node11" class="node">
<title>Node33</title>
<g id="a_node11"><a xlink:href="classaworx_1_1lib_1_1lox_1_1core_1_1textlogger_1_1MetaInfo.html" target="_top" xlink:title="MetaInfo">
<polygon fill="#ffffff" stroke="#ff0000" points="306,-355.5 306,-374.5 361,-374.5 361,-355.5 306,-355.5"/>
<text text-anchor="middle" x="333.5" y="-362.5" font-family="Helvetica,sans-Serif" font-size="10.00" fill="#000000">MetaInfo</text>
</a>
</g>
</g>
<!-- Node36&#45;&gt;Node33 -->
<g id="edge14" class="edge">
<title>Node36&#45;&gt;Node33</title>
<path fill="none" stroke="#9a32cd" stroke-dasharray="5,2" d="M124.7953,-478.8677C176.6991,-465.2191 254.0637,-444.7161 257,-443 287.9504,-424.9113 314.8976,-391.0171 326.8828,-374.5146"/>
<polygon fill="#9a32cd" stroke="#9a32cd" points="123.886,-475.4877 115.1039,-481.4143 125.6651,-482.2579 123.886,-475.4877"/>
<text text-anchor="middle" x="216" y="-468" font-family="Helvetica,sans-Serif" font-size="10.00" fill="#000000"> Format</text>
</g>
<!-- Node42 -->
<g id="node5" class="node">
<title>Node42</title>
<g id="a_node5"><a xlink:href="classaworx_1_1lib_1_1strings_1_1AStringBase.html" target="_top" xlink:title="AStringBase\&lt;nchar\&gt;">
<polygon fill="#ffffff" stroke="#000000" points="490,-38.5 490,-57.5 597,-57.5 597,-38.5 490,-38.5"/>
<text text-anchor="middle" x="543.5" y="-45.5" font-family="Helvetica,sans-Serif" font-size="10.00" fill="#000000">AStringBase&lt;nchar&gt;</text>
</a>
</g>
</g>
<!-- Node41 -->
<g id="node14" class="node">
<title>Node41</title>
<g id="a_node14"><a xlink:href="classaworx_1_1lib_1_1strings_1_1util_1_1StringWriter.html" target="_top" xlink:title="StringWriter">
<polygon fill="#ffffff" stroke="#000000" points="686,-38.5 686,-57.5 754,-57.5 754,-38.5 686,-38.5"/>
<text text-anchor="middle" x="720" y="-45.5" font-family="Helvetica,sans-Serif" font-size="10.00" fill="#000000">StringWriter</text>
</a>
</g>
</g>
<!-- Node42&#45;&gt;Node41 -->
<g id="edge16" class="edge">
<title>Node42&#45;&gt;Node41</title>
<path fill="none" stroke="#9a32cd" stroke-dasharray="5,2" d="M607.7502,-48C634.1776,-48 663.7126,-48 685.8514,-48"/>
<polygon fill="#9a32cd" stroke="#9a32cd" points="607.4149,-44.5001 597.4149,-48 607.4148,-51.5001 607.4149,-44.5001"/>
<text text-anchor="middle" x="637" y="-51" font-family="Helvetica,sans-Serif" font-size="10.00" fill="#000000"> converter</text>
</g>
<!-- Node20 -->
<g id="node6" class="node">
<title>Node20</title>
<g id="a_node6"><a xlink:href="classaworx_1_1lib_1_1strings_1_1TStringBase.html" target="_top" xlink:title="TStringBase\&lt;nchar\&gt;">
<polygon fill="#ffffff" stroke="#ff0000" points="280,-38.5 280,-57.5 387,-57.5 387,-38.5 280,-38.5"/>
<text text-anchor="middle" x="333.5" y="-45.5" font-family="Helvetica,sans-Serif" font-size="10.00" fill="#000000">TStringBase&lt;nchar&gt;</text>
</a>
</g>
</g>
<!-- Node20&#45;&gt;Node42 -->
<g id="edge7" class="edge">
<title>Node20&#45;&gt;Node42</title>
<path fill="none" stroke="#191970" d="M397.248,-48C426.7858,-48 461.5025,-48 489.6978,-48"/>
<polygon fill="#191970" stroke="#191970" points="397.0353,-44.5001 387.0352,-48 397.0352,-51.5001 397.0353,-44.5001"/>
</g>
<!-- Node14 -->
<g id="node7" class="node">
<title>Node14</title>
<g id="a_node7"><a xlink:href="classaworx_1_1lib_1_1strings_1_1PreallocatedStringBase.html" target="_top" xlink:title="PreallocatedStringBase\&lt;TChar\&gt;">
<polygon fill="#ffffff" stroke="#ff0000" points="0,-278.5 0,-297.5 157,-297.5 157,-278.5 0,-278.5"/>
<text text-anchor="middle" x="78.5" y="-285.5" font-family="Helvetica,sans-Serif" font-size="10.00" fill="#000000">PreallocatedStringBase&lt;TChar&gt;</text>
</a>
</g>
</g>
<!-- Node14&#45;&gt;Node8 -->
<g id="edge4" class="edge">
<title>Node14&#45;&gt;Node8</title>
<path fill="none" stroke="#9a32cd" stroke-dasharray="5,2" d="M167.3573,-280.3564C272.0425,-271.3512 440.6108,-256.8507 510.9927,-250.7963"/>
<polygon fill="#9a32cd" stroke="#9a32cd" points="166.7811,-276.8929 157.1178,-281.2372 167.381,-283.8672 166.7811,-276.8929"/>
<text text-anchor="middle" x="333.5" y="-273" font-family="Helvetica,sans-Serif" font-size="10.00" fill="#000000"> FmtMultiLineMsgHeadline</text>
</g>
<!-- Node14&#45;&gt;Node8 -->
<g id="edge5" class="edge">
<title>Node14&#45;&gt;Node8</title>
<path fill="none" stroke="#9a32cd" stroke-dasharray="5,2" d="M105.9823,-273.8097C143.1472,-255.4957 212.0384,-224.6072 275,-213 361.6811,-197.02 465.4226,-223.2237 514.7343,-238.3909"/>
<polygon fill="#9a32cd" stroke="#9a32cd" points="104.1865,-270.7944 96.8059,-278.3955 107.3157,-277.056 104.1865,-270.7944"/>
<text text-anchor="middle" x="333.5" y="-249" font-family="Helvetica,sans-Serif" font-size="10.00" fill="#000000"> FmtMsgSuffix</text>
<text text-anchor="middle" x="333.5" y="-238" font-family="Helvetica,sans-Serif" font-size="10.00" fill="#000000">MultiLineDelimiterRepl</text>
<text text-anchor="middle" x="333.5" y="-227" font-family="Helvetica,sans-Serif" font-size="10.00" fill="#000000">FmtMultiLineSuffix</text>
<text text-anchor="middle" x="333.5" y="-216" font-family="Helvetica,sans-Serif" font-size="10.00" fill="#000000">FmtMultiLinePrefix</text>
</g>
<!-- Node14&#45;&gt;Node33 -->
<g id="edge6" class="edge">
<title>Node14&#45;&gt;Node33</title>
<path fill="none" stroke="#9a32cd" stroke-dasharray="5,2" d="M167.5668,-298.8859C204.2121,-304.6018 241.6479,-312.4229 257,-322 268.3126,-329.0571 264.1535,-338.2456 275,-346 284.1212,-352.5209 295.6015,-356.889 305.9713,-359.7732"/>
<polygon fill="#9a32cd" stroke="#9a32cd" points="167.6817,-295.3636 157.271,-297.3299 166.6356,-302.285 167.6817,-295.3636"/>
<text text-anchor="middle" x="216" y="-435" font-family="Helvetica,sans-Serif" font-size="10.00" fill="#000000"> TimeDiffHours</text>
<text text-anchor="middle" x="216" y="-424" font-family="Helvetica,sans-Serif" font-size="10.00" fill="#000000">VerbosityInfo</text>
<text text-anchor="middle" x="216" y="-413" font-family="Helvetica,sans-Serif" font-size="10.00" fill="#000000">VerbosityWarning</text>
<text text-anchor="middle" x="216" y="-402" font-family="Helvetica,sans-Serif" font-size="10.00" fill="#000000">VerbosityVerbose</text>
<text text-anchor="middle" x="216" y="-391" font-family="Helvetica,sans-Serif" font-size="10.00" fill="#000000">TimeDiffMicros</text>
<text text-anchor="middle" x="216" y="-380" font-family="Helvetica,sans-Serif" font-size="10.00" fill="#000000">TimeElapsedDays</text>
<text text-anchor="middle" x="216" y="-369" font-family="Helvetica,sans-Serif" font-size="10.00" fill="#000000">VerbosityError</text>
<text text-anchor="middle" x="216" y="-358" font-family="Helvetica,sans-Serif" font-size="10.00" fill="#000000">TimeOfDayFormat</text>
<text text-anchor="middle" x="216" y="-347" font-family="Helvetica,sans-Serif" font-size="10.00" fill="#000000">TimeDiffMins</text>
<text text-anchor="middle" x="216" y="-336" font-family="Helvetica,sans-Serif" font-size="10.00" fill="#000000">TimeDiffSecs</text>
<text text-anchor="middle" x="216" y="-325" font-family="Helvetica,sans-Serif" font-size="10.00" fill="#000000">...</text>
</g>
<!-- Node7 -->
<g id="node8" class="node">
<title>Node7</title>
<g id="a_node8"><a xlink:href="classaworx_1_1lib_1_1lox_1_1core_1_1textlogger_1_1PlainTextLogger.html" target="_top" xlink:title="PlainTextLogger">
<polygon fill="#ffffff" stroke="#000000" points="677,-238.5 677,-257.5 763,-257.5 763,-238.5 677,-238.5"/>
<text text-anchor="middle" x="720" y="-245.5" font-family="Helvetica,sans-Serif" font-size="10.00" fill="#000000">PlainTextLogger</text>
</a>
</g>
</g>
<!-- Node7&#45;&gt;Node6 -->
<g id="edge1" class="edge">
<title>Node7&#45;&gt;Node6</title>
<path fill="none" stroke="#191970" d="M773.4047,-248C790.931,-248 810.1086,-248 826.5155,-248"/>
<polygon fill="#191970" stroke="#191970" points="773.3098,-244.5001 763.3098,-248 773.3097,-251.5001 773.3098,-244.5001"/>
</g>
<!-- Node8&#45;&gt;Node7 -->
<g id="edge2" class="edge">
<title>Node8&#45;&gt;Node7</title>
<path fill="none" stroke="#191970" d="M586.3663,-248C613.7841,-248 649.2314,-248 676.7279,-248"/>
<polygon fill="#191970" stroke="#191970" points="586.2847,-244.5001 576.2847,-248 586.2846,-251.5001 586.2847,-244.5001"/>
</g>
<!-- Node9 -->
<g id="node10" class="node">
<title>Node9</title>
<g id="a_node10"><a xlink:href="classaworx_1_1lib_1_1lox_1_1core_1_1Logger.html" target="_top" xlink:title="Logger">
<polygon fill="#ffffff" stroke="#ff0000" points="310.5,-152.5 310.5,-171.5 356.5,-171.5 356.5,-152.5 310.5,-152.5"/>
<text text-anchor="middle" x="333.5" y="-159.5" font-family="Helvetica,sans-Serif" font-size="10.00" fill="#000000">Logger</text>
</a>
</g>
</g>
<!-- Node9&#45;&gt;Node8 -->
<g id="edge3" class="edge">
<title>Node9&#45;&gt;Node8</title>
<path fill="none" stroke="#191970" d="M366.505,-165.669C395.393,-169.7885 437.9466,-178.0948 472,-194 496.5237,-205.4542 520.7417,-226.2845 533.7403,-238.4537"/>
<polygon fill="#191970" stroke="#191970" points="366.897,-162.1903 356.5214,-164.3344 365.9695,-169.1286 366.897,-162.1903"/>
</g>
<!-- Node33&#45;&gt;Node8 -->
<g id="edge11" class="edge">
<title>Node33&#45;&gt;Node8</title>
<path fill="none" stroke="#9a32cd" stroke-dasharray="5,2" d="M371.4689,-363.1178C400.7882,-360.1688 441.3869,-352.7143 472,-334 503.9732,-314.4542 528.3756,-275.4996 538.4498,-257.5103"/>
<polygon fill="#9a32cd" stroke="#9a32cd" points="370.8743,-359.6563 361.2167,-364.013 371.4833,-366.6298 370.8743,-359.6563"/>
<text text-anchor="middle" x="441" y="-359" font-family="Helvetica,sans-Serif" font-size="10.00" fill="#000000"> MetaInfo</text>
</g>
<!-- Node30 -->
<g id="node12" class="node">
<title>Node30</title>
<g id="a_node12"><a xlink:href="classaworx_1_1lib_1_1strings_1_1util_1_1AutoSizes.html" target="_top" xlink:title="AutoSizes">
<polygon fill="#ffffff" stroke="#ff0000" points="302.5,-114.5 302.5,-133.5 364.5,-133.5 364.5,-114.5 302.5,-114.5"/>
<text text-anchor="middle" x="333.5" y="-121.5" font-family="Helvetica,sans-Serif" font-size="10.00" fill="#000000">AutoSizes</text>
</a>
</g>
</g>
<!-- Node30&#45;&gt;Node8 -->
<g id="edge9" class="edge">
<title>Node30&#45;&gt;Node8</title>
<path fill="none" stroke="#9a32cd" stroke-dasharray="5,2" d="M374.873,-127.4676C403.9488,-131.498 442.7252,-140.2042 472,-159 504.1891,-179.667 528.4819,-219.7574 538.489,-238.2377"/>
<polygon fill="#9a32cd" stroke="#9a32cd" points="374.993,-123.9554 364.6353,-126.1843 374.1223,-130.901 374.993,-123.9554"/>
<text text-anchor="middle" x="441" y="-162" font-family="Helvetica,sans-Serif" font-size="10.00" fill="#000000"> AutoSizes</text>
</g>
<!-- Node32 -->
<g id="node13" class="node">
<title>Node32</title>
<g id="a_node13"><a xlink:href="classaworx_1_1lib_1_1lox_1_1core_1_1textlogger_1_1ObjectConverter.html" target="_top" xlink:title="ObjectConverter">
<polygon fill="#ffffff" stroke="#000000" points="289.5,-76.5 289.5,-95.5 377.5,-95.5 377.5,-76.5 289.5,-76.5"/>
<text text-anchor="middle" x="333.5" y="-83.5" font-family="Helvetica,sans-Serif" font-size="10.00" fill="#000000">ObjectConverter</text>
</a>
</g>
</g>
<!-- Node32&#45;&gt;Node8 -->
<g id="edge10" class="edge">
<title>Node32&#45;&gt;Node8</title>
<path fill="none" stroke="#9a32cd" stroke-dasharray="5,2" d="M387.9177,-89.1554C415.4321,-93.1252 447.9877,-101.7058 472,-120 513.3047,-151.4687 534.1832,-214.0654 540.9609,-238.1969"/>
<polygon fill="#9a32cd" stroke="#9a32cd" points="388.0094,-85.6389 377.6476,-87.849 387.126,-92.583 388.0094,-85.6389"/>
<text text-anchor="middle" x="441" y="-123" font-family="Helvetica,sans-Serif" font-size="10.00" fill="#000000"> Converter</text>
</g>
<!-- Node41&#45;&gt;Node6 -->
<g id="edge15" class="edge">
<title>Node41&#45;&gt;Node6</title>
<path fill="none" stroke="#9a32cd" stroke-dasharray="5,2" d="M733.165,-65.9115C763.3946,-107.0403 836.9444,-207.108 859.981,-238.4504"/>
<polygon fill="#9a32cd" stroke="#9a32cd" points="735.8327,-63.6312 727.0901,-57.6464 730.1923,-67.7769 735.8327,-63.6312"/>
<text text-anchor="middle" x="795" y="-168" font-family="Helvetica,sans-Serif" font-size="10.00" fill="#000000"> writer</text>
</g>
<!-- Node43&#45;&gt;Node41 -->
<g id="edge17" class="edge">
<title>Node43&#45;&gt;Node41</title>
<path fill="none" stroke="#9a32cd" stroke-dasharray="5,2" d="M579.6497,-16.7697C602.4628,-21.1479 632.5196,-27.1107 659,-33 667.7294,-34.9414 677.1252,-37.1782 685.8648,-39.3218"/>
<polygon fill="#9a32cd" stroke="#9a32cd" points="580.1953,-13.3108 569.7166,-14.8756 578.884,-20.1869 580.1953,-13.3108"/>
<text text-anchor="middle" x="637" y="-36" font-family="Helvetica,sans-Serif" font-size="10.00" fill="#000000"> ostream</text>
</g>
</g>
</svg>
