<?xml version="1.0" encoding="UTF-8" standalone="no"?>
<!DOCTYPE svg PUBLIC "-//W3C//DTD SVG 1.1//EN"
 "http://www.w3.org/Graphics/SVG/1.1/DTD/svg11.dtd">
<!-- Generated by graphviz version 2.40.1 (20161225.0304)
 -->
<!-- Title: Program Pages: 1 -->
<svg width="2155pt" height="841pt"
 viewBox="0.00 0.00 2154.50 841.32" xmlns="http://www.w3.org/2000/svg" xmlns:xlink="http://www.w3.org/1999/xlink">
<g id="graph0" class="graph" transform="scale(1 1) rotate(0) translate(4 837.3248)">
<title>Program</title>
<polygon fill="#ffffff" stroke="transparent" points="-4,4 -4,-837.3248 2150.5,-837.3248 2150.5,4 -4,4"/>
<!-- Node2 -->
<g id="node1" class="node">
<title>Node2</title>
<polygon fill="#bfbfbf" stroke="#000000" points="1397,-643.8248 1397,-662.8248 1450,-662.8248 1450,-643.8248 1397,-643.8248"/>
<text text-anchor="middle" x="1423.5" y="-650.8248" font-family="Helvetica,sans-Serif" font-size="10.00" fill="#000000">Program</text>
</g>
<!-- Node38 -->
<g id="node21" class="node">
<title>Node38</title>
<g id="a_node21"><a xlink:href="classaworx_1_1lib_1_1expressions_1_1Expression.html" target="_top" xlink:title="Expression">
<polygon fill="#ffffff" stroke="#000000" points="1580.5,-654.8248 1580.5,-673.8248 1645.5,-673.8248 1645.5,-654.8248 1580.5,-654.8248"/>
<text text-anchor="middle" x="1613" y="-661.8248" font-family="Helvetica,sans-Serif" font-size="10.00" fill="#000000">Expression</text>
</a>
</g>
</g>
<!-- Node2&#45;&gt;Node38 -->
<g id="edge1" class="edge">
<title>Node2&#45;&gt;Node38</title>
<path fill="none" stroke="#9a32cd" stroke-dasharray="5,2" d="M1455.012,-640.4984C1459.3152,-639.1903 1463.7235,-638.0702 1468,-637.3248 1511.0102,-629.8275 1561.0481,-644.2934 1589.6743,-654.7925"/>
<polygon fill="#9a32cd" stroke="#9a32cd" points="1453.6175,-637.2756 1445.2732,-643.8043 1455.8676,-643.9041 1453.6175,-637.2756"/>
<text text-anchor="middle" x="1493.5" y="-640.3248" font-family="Helvetica,sans-Serif" font-size="10.00" fill="#000000"> program</text>
</g>
<!-- Node3 -->
<g id="node2" class="node">
<title>Node3</title>
<g id="a_node2"><a xlink:title="STL class. ">
<polygon fill="#ffffff" stroke="#bfbfbf" points="957,-712.8248 957,-731.8248 1128,-731.8248 1128,-712.8248 957,-712.8248"/>
<text text-anchor="middle" x="1042.5" y="-719.8248" font-family="Helvetica,sans-Serif" font-size="10.00" fill="#000000">vector&lt;VirtualMachine::Command&gt;</text>
</a>
</g>
</g>
<!-- Node3&#45;&gt;Node2 -->
<g id="edge2" class="edge">
<title>Node3&#45;&gt;Node2</title>
<path fill="none" stroke="#006400" d="M1136.5017,-711.4904C1204.4539,-702.6308 1298.1372,-688.2949 1379,-668.3248 1385.0154,-666.8392 1391.3811,-664.9136 1397.3591,-662.9403"/>
<polygon fill="#006400" stroke="#006400" points="1135.7163,-708.0625 1126.2454,-712.8115 1136.6106,-715.0052 1135.7163,-708.0625"/>
</g>
<!-- Node6 -->
<g id="node3" class="node">
<title>Node6</title>
<g id="a_node3"><a xlink:href="classaworx_1_1lib_1_1util_1_1PluginContainer.html" target="_top" xlink:title="PluginContainer\&lt;CompilerPlugin, CompilePriorities\&gt;">
<polygon fill="#ffffff" stroke="#000000" points="666,-178.8248 666,-197.8248 910,-197.8248 910,-178.8248 666,-178.8248"/>
<text text-anchor="middle" x="788" y="-185.8248" font-family="Helvetica,sans-Serif" font-size="10.00" fill="#000000">PluginContainer&lt;CompilerPlugin, CompilePriorities&gt;</text>
</a>
</g>
</g>
<!-- Node5 -->
<g id="node23" class="node">
<title>Node5</title>
<g id="a_node23"><a xlink:href="classaworx_1_1lib_1_1expressions_1_1Compiler.html" target="_top" xlink:title="Compiler">
<polygon fill="#ffffff" stroke="#000000" points="1177,-314.8248 1177,-333.8248 1233,-333.8248 1233,-314.8248 1177,-314.8248"/>
<text text-anchor="middle" x="1205" y="-321.8248" font-family="Helvetica,sans-Serif" font-size="10.00" fill="#000000">Compiler</text>
</a>
</g>
</g>
<!-- Node6&#45;&gt;Node5 -->
<g id="edge6" class="edge">
<title>Node6&#45;&gt;Node5</title>
<path fill="none" stroke="#191970" d="M870.3874,-178.0555C942.9086,-173.0256 1048.968,-175.7371 1128,-220.3248 1167.1331,-242.4026 1192.1178,-293.4604 1201.176,-314.7417"/>
<polygon fill="#191970" stroke="#191970" points="870.0903,-174.5679 860.3832,-178.8131 870.619,-181.5479 870.0903,-174.5679"/>
</g>
<!-- Node18 -->
<g id="node4" class="node">
<title>Node18</title>
<polygon fill="#ffffff" stroke="#bfbfbf" points="315,-172.8248 315,-191.8248 410,-191.8248 410,-172.8248 315,-172.8248"/>
<text text-anchor="middle" x="362.5" y="-179.8248" font-family="Helvetica,sans-Serif" font-size="10.00" fill="#000000">vector&lt;TPlugin *&gt;</text>
</g>
<!-- Node18&#45;&gt;Node6 -->
<g id="edge10" class="edge">
<title>Node18&#45;&gt;Node6</title>
<path fill="none" stroke="#9a32cd" stroke-dasharray="5,2" d="M420.1677,-183.1379C482.8723,-184.0221 584.9273,-185.4612 665.6513,-186.5995"/>
<polygon fill="#9a32cd" stroke="#9a32cd" points="420.1201,-179.637 410.0717,-182.9956 420.0213,-186.6363 420.1201,-179.637"/>
<text text-anchor="middle" x="539" y="-189.3248" font-family="Helvetica,sans-Serif" font-size="10.00" fill="#000000"> pluginsOwned</text>
</g>
<!-- Node19 -->
<g id="node5" class="node">
<title>Node19</title>
<polygon fill="#ffffff" stroke="#bfbfbf" points="288.5,-134.8248 288.5,-153.8248 436.5,-153.8248 436.5,-134.8248 288.5,-134.8248"/>
<text text-anchor="middle" x="362.5" y="-141.8248" font-family="Helvetica,sans-Serif" font-size="10.00" fill="#000000">vector&lt;PluginContainer::Slot&gt;</text>
</g>
<!-- Node19&#45;&gt;Node6 -->
<g id="edge11" class="edge">
<title>Node19&#45;&gt;Node6</title>
<path fill="none" stroke="#9a32cd" stroke-dasharray="5,2" d="M446.7427,-152.219C496.8095,-156.9897 561.5508,-163.296 619,-169.3248 647.1893,-172.283 678.0023,-175.6944 705.507,-178.8031"/>
<polygon fill="#9a32cd" stroke="#9a32cd" points="446.8975,-148.7181 436.611,-151.2555 446.2347,-155.6866 446.8975,-148.7181"/>
<text text-anchor="middle" x="539" y="-172.3248" font-family="Helvetica,sans-Serif" font-size="10.00" fill="#000000"> plugins</text>
</g>
<!-- Node23 -->
<g id="node6" class="node">
<title>Node23</title>
<polygon fill="#ffffff" stroke="#bfbfbf" points="307.5,-482.8248 307.5,-501.8248 417.5,-501.8248 417.5,-482.8248 307.5,-482.8248"/>
<text text-anchor="middle" x="362.5" y="-489.8248" font-family="Helvetica,sans-Serif" font-size="10.00" fill="#000000">vector&lt;AStringBase&gt;</text>
</g>
<!-- Node23&#45;&gt;Node5 -->
<g id="edge16" class="edge">
<title>Node23&#45;&gt;Node5</title>
<path fill="none" stroke="#9a32cd" stroke-dasharray="5,2" d="M427.8365,-491.9867C602.0711,-490.6084 1068.6056,-483.6262 1128,-448.3248 1172.6562,-421.7831 1195.169,-358.2345 1202.3666,-333.9677"/>
<polygon fill="#9a32cd" stroke="#9a32cd" points="427.7509,-488.4872 417.7776,-492.0626 427.8038,-495.487 427.7509,-488.4872"/>
<text text-anchor="middle" x="788" y="-503.3248" font-family="Helvetica,sans-Serif" font-size="10.00" fill="#000000"> CfgNormalizationDisallowed</text>
<text text-anchor="middle" x="788" y="-492.3248" font-family="Helvetica,sans-Serif" font-size="10.00" fill="#000000">DefaultCategories</text>
</g>
<!-- Node25 -->
<g id="node25" class="node">
<title>Node25</title>
<g id="a_node25"><a xlink:href="classaworx_1_1lib_1_1config_1_1Variable.html" target="_top" xlink:title="Variable">
<polygon fill="#ffffff" stroke="#000000" points="762.5,-337.8248 762.5,-356.8248 813.5,-356.8248 813.5,-337.8248 762.5,-337.8248"/>
<text text-anchor="middle" x="788" y="-344.8248" font-family="Helvetica,sans-Serif" font-size="10.00" fill="#000000">Variable</text>
</a>
</g>
</g>
<!-- Node23&#45;&gt;Node25 -->
<g id="edge17" class="edge">
<title>Node23&#45;&gt;Node25</title>
<path fill="none" stroke="#9a32cd" stroke-dasharray="5,2" d="M380.0942,-475.7778C398.4023,-459.4774 428.5977,-435.0784 459,-421.3248 525.3217,-391.3216 547.979,-402.2869 619,-386.3248 669.8249,-374.9018 729.1357,-361.1071 762.2525,-353.3629"/>
<polygon fill="#9a32cd" stroke="#9a32cd" points="377.6034,-473.3121 372.5609,-482.6301 382.3136,-478.4905 377.6034,-473.3121"/>
<text text-anchor="middle" x="539" y="-424.3248" font-family="Helvetica,sans-Serif" font-size="10.00" fill="#000000"> values</text>
</g>
<!-- Node51 -->
<g id="node29" class="node">
<title>Node51</title>
<g id="a_node29"><a xlink:href="structaworx_1_1lib_1_1expressions_1_1detail_1_1Program_1_1CompileStorage.html" target="_top" xlink:title="CompileStorage">
<polygon fill="#ffffff" stroke="#000000" points="1162,-643.8248 1162,-662.8248 1248,-662.8248 1248,-643.8248 1162,-643.8248"/>
<text text-anchor="middle" x="1205" y="-650.8248" font-family="Helvetica,sans-Serif" font-size="10.00" fill="#000000">CompileStorage</text>
</a>
</g>
</g>
<!-- Node23&#45;&gt;Node51 -->
<g id="edge18" class="edge">
<title>Node23&#45;&gt;Node51</title>
<path fill="none" stroke="#9a32cd" stroke-dasharray="5,2" d="M394.1645,-505.8265C444.585,-526.7404 546.6596,-566.7023 637,-587.3248 649.824,-590.2522 1030.9375,-633.5933 1161.5665,-648.4053"/>
<polygon fill="#9a32cd" stroke="#9a32cd" points="395.3643,-502.5346 384.7879,-501.9091 392.6657,-508.9936 395.3643,-502.5346"/>
<text text-anchor="middle" x="788" y="-625.3248" font-family="Helvetica,sans-Serif" font-size="10.00" fill="#000000"> functionsWithNonMatchingArguments</text>
</g>
<!-- Node31 -->
<g id="node7" class="node">
<title>Node31</title>
<polygon fill="#ffffff" stroke="#bfbfbf" points="6.5,-431.8248 6.5,-450.8248 110.5,-450.8248 110.5,-431.8248 6.5,-431.8248"/>
<text text-anchor="middle" x="58.5" y="-438.8248" font-family="Helvetica,sans-Serif" font-size="10.00" fill="#000000">vector&lt;StringBase&gt;</text>
</g>
<!-- Node31&#45;&gt;Node5 -->
<g id="edge23" class="edge">
<title>Node31&#45;&gt;Node5</title>
<path fill="none" stroke="#9a32cd" stroke-dasharray="5,2" d="M121.0708,-443.1269C224.7861,-445.485 438.7649,-447.6848 619,-432.3248 847.1039,-412.8853 906.593,-411.5334 1128,-353.3248 1147.0651,-348.3125 1167.9509,-340.277 1183.1544,-333.9342"/>
<polygon fill="#9a32cd" stroke="#9a32cd" points="120.8608,-439.6211 110.781,-442.8841 120.6956,-446.6191 120.8608,-439.6211"/>
<text text-anchor="middle" x="539" y="-445.3248" font-family="Helvetica,sans-Serif" font-size="10.00" fill="#000000"> UnaryOperators</text>
</g>
<!-- Node26 -->
<g id="node26" class="node">
<title>Node26</title>
<g id="a_node26"><a xlink:href="classaworx_1_1lib_1_1config_1_1Configuration.html" target="_top" xlink:title="Configuration">
<polygon fill="#ffffff" stroke="#ff0000" points="325.5,-286.8248 325.5,-305.8248 399.5,-305.8248 399.5,-286.8248 325.5,-286.8248"/>
<text text-anchor="middle" x="362.5" y="-293.8248" font-family="Helvetica,sans-Serif" font-size="10.00" fill="#000000">Configuration</text>
</a>
</g>
</g>
<!-- Node31&#45;&gt;Node26 -->
<g id="edge24" class="edge">
<title>Node31&#45;&gt;Node26</title>
<path fill="none" stroke="#9a32cd" stroke-dasharray="5,2" d="M86.1783,-427.1584C128.5019,-405.6197 211.9806,-363.6228 284,-330.3248 302.6034,-321.7235 323.9612,-312.5155 339.6979,-305.8543"/>
<polygon fill="#9a32cd" stroke="#9a32cd" points="84.3816,-424.1457 77.0619,-431.8055 87.5607,-430.3822 84.3816,-424.1457"/>
<text text-anchor="middle" x="200.5" y="-404.3248" font-family="Helvetica,sans-Serif" font-size="10.00" fill="#000000"> TrueValues</text>
</g>
<!-- Node36 -->
<g id="node8" class="node">
<title>Node36</title>
<polygon fill="#ffffff" stroke="#bfbfbf" points="637,-140.8248 637,-159.8248 939,-159.8248 939,-140.8248 637,-140.8248"/>
<text text-anchor="middle" x="788" y="-147.8248" font-family="Helvetica,sans-Serif" font-size="10.00" fill="#000000">vector&lt;tuple&lt;Priorities, AStringBase, AStringBase, StringBase&gt;&gt;</text>
</g>
<!-- Node36&#45;&gt;Node5 -->
<g id="edge27" class="edge">
<title>Node36&#45;&gt;Node5</title>
<path fill="none" stroke="#9a32cd" stroke-dasharray="5,2" d="M832.4795,-138.3693C901.8867,-122.4719 1037.3743,-102.7957 1128,-162.3248 1182.9179,-198.3985 1199.616,-285.0595 1203.7895,-314.4116"/>
<polygon fill="#9a32cd" stroke="#9a32cd" points="831.2506,-135.0636 822.328,-140.7765 832.8657,-141.8747 831.2506,-135.0636"/>
<text text-anchor="middle" x="1042.5" y="-165.3248" font-family="Helvetica,sans-Serif" font-size="10.00" fill="#000000"> VariablesLoaded</text>
</g>
<!-- Node41 -->
<g id="node9" class="node">
<title>Node41</title>
<polygon fill="#ffffff" stroke="#bfbfbf" points="1537,-730.8248 1537,-749.8248 1689,-749.8248 1689,-730.8248 1537,-730.8248"/>
<text text-anchor="middle" x="1613" y="-737.8248" font-family="Helvetica,sans-Serif" font-size="10.00" fill="#000000">vector&lt;MemoryBlocks::Block&gt;</text>
</g>
<!-- Node40 -->
<g id="node31" class="node">
<title>Node40</title>
<g id="a_node31"><a xlink:href="classaworx_1_1lib_1_1util_1_1MemoryBlocks.html" target="_top" xlink:title="MemoryBlocks">
<polygon fill="#ffffff" stroke="#000000" points="1822.5,-730.8248 1822.5,-749.8248 1904.5,-749.8248 1904.5,-730.8248 1822.5,-730.8248"/>
<text text-anchor="middle" x="1863.5" y="-737.8248" font-family="Helvetica,sans-Serif" font-size="10.00" fill="#000000">MemoryBlocks</text>
</a>
</g>
</g>
<!-- Node41&#45;&gt;Node40 -->
<g id="edge34" class="edge">
<title>Node41&#45;&gt;Node40</title>
<path fill="none" stroke="#9a32cd" stroke-dasharray="5,2" d="M1699.3315,-740.3248C1740.9495,-740.3248 1788.933,-740.3248 1822.2315,-740.3248"/>
<polygon fill="#9a32cd" stroke="#9a32cd" points="1699.1786,-736.8249 1689.1785,-740.3248 1699.1785,-743.8249 1699.1786,-736.8249"/>
<text text-anchor="middle" x="1728.5" y="-754.3248" font-family="Helvetica,sans-Serif" font-size="10.00" fill="#000000"> blocks</text>
<text text-anchor="middle" x="1728.5" y="-743.3248" font-family="Helvetica,sans-Serif" font-size="10.00" fill="#000000">actBlock</text>
</g>
<!-- Node43 -->
<g id="node10" class="node">
<title>Node43</title>
<polygon fill="#ffffff" stroke="#bfbfbf" points="1768,-811.8248 1768,-830.8248 1959,-830.8248 1959,-811.8248 1768,-811.8248"/>
<text text-anchor="middle" x="1863.5" y="-818.8248" font-family="Helvetica,sans-Serif" font-size="10.00" fill="#000000">vector&lt;expressions::ScopeResource *&gt;</text>
</g>
<!-- Node39 -->
<g id="node30" class="node">
<title>Node39</title>
<g id="a_node30"><a xlink:href="structaworx_1_1lib_1_1expressions_1_1Scope.html" target="_top" xlink:title="Scope">
<polygon fill="#ffffff" stroke="#000000" points="2102,-730.8248 2102,-749.8248 2146,-749.8248 2146,-730.8248 2102,-730.8248"/>
<text text-anchor="middle" x="2124" y="-737.8248" font-family="Helvetica,sans-Serif" font-size="10.00" fill="#000000">Scope</text>
</a>
</g>
</g>
<!-- Node43&#45;&gt;Node39 -->
<g id="edge35" class="edge">
<title>Node43&#45;&gt;Node39</title>
<path fill="none" stroke="#9a32cd" stroke-dasharray="5,2" d="M1969.2031,-819.3942C2007.2924,-814.9684 2049.381,-805.5185 2084,-786.3248 2099.5497,-777.7036 2111.917,-760.5872 2118.5821,-749.8383"/>
<polygon fill="#9a32cd" stroke="#9a32cd" points="1968.6721,-815.9308 1959.0959,-820.4637 1969.4087,-822.8919 1968.6721,-815.9308"/>
<text text-anchor="middle" x="2030.5" y="-820.3248" font-family="Helvetica,sans-Serif" font-size="10.00" fill="#000000"> Resources</text>
</g>
<!-- Node45 -->
<g id="node11" class="node">
<title>Node45</title>
<polygon fill="#ffffff" stroke="#bfbfbf" points="1778.5,-654.8248 1778.5,-673.8248 1948.5,-673.8248 1948.5,-654.8248 1778.5,-654.8248"/>
<text text-anchor="middle" x="1863.5" y="-661.8248" font-family="Helvetica,sans-Serif" font-size="10.00" fill="#000000">vector&lt;expressions::Expression *&gt;</text>
</g>
<!-- Node45&#45;&gt;Node39 -->
<g id="edge37" class="edge">
<title>Node45&#45;&gt;Node39</title>
<path fill="none" stroke="#9a32cd" stroke-dasharray="5,2" d="M1925.014,-653.6161C1971.8201,-648.6957 2036.1233,-649.1448 2084,-677.3248 2104.3209,-689.2856 2115.9653,-716.0818 2120.9993,-730.574"/>
<polygon fill="#9a32cd" stroke="#9a32cd" points="1924.5367,-650.1479 1915.0067,-654.7771 1925.3435,-657.1013 1924.5367,-650.1479"/>
<text text-anchor="middle" x="2030.5" y="-680.3248" font-family="Helvetica,sans-Serif" font-size="10.00" fill="#000000"> nestedExpressionStack</text>
</g>
<!-- Node46 -->
<g id="node12" class="node">
<title>Node46</title>
<polygon fill="#ffffff" stroke="#bfbfbf" points="1827,-771.8248 1827,-790.8248 1900,-790.8248 1900,-771.8248 1827,-771.8248"/>
<text text-anchor="middle" x="1863.5" y="-778.8248" font-family="Helvetica,sans-Serif" font-size="10.00" fill="#000000">vector&lt;Box&gt;</text>
</g>
<!-- Node46&#45;&gt;Node39 -->
<g id="edge38" class="edge">
<title>Node46&#45;&gt;Node39</title>
<path fill="none" stroke="#9a32cd" stroke-dasharray="5,2" d="M1910.2523,-778.524C1955.2378,-775.1452 2024.9396,-768.1072 2084,-754.3248 2089.8753,-752.9537 2096.0907,-751.0246 2101.8256,-749.0356"/>
<polygon fill="#9a32cd" stroke="#9a32cd" points="1909.9289,-775.0382 1900.2065,-779.2485 1910.4324,-782.02 1909.9289,-775.0382"/>
<text text-anchor="middle" x="2030.5" y="-774.3248" font-family="Helvetica,sans-Serif" font-size="10.00" fill="#000000"> Stack</text>
</g>
<!-- Node50 -->
<g id="node13" class="node">
<title>Node50</title>
<polygon fill="#ffffff" stroke="#bfbfbf" points="1146,-605.8248 1146,-624.8248 1264,-624.8248 1264,-605.8248 1146,-605.8248"/>
<text text-anchor="middle" x="1205" y="-612.8248" font-family="Helvetica,sans-Serif" font-size="10.00" fill="#000000">vector&lt;SPExpression&gt;</text>
</g>
<!-- Node50&#45;&gt;Node2 -->
<g id="edge40" class="edge">
<title>Node50&#45;&gt;Node2</title>
<path fill="none" stroke="#9a32cd" stroke-dasharray="5,2" d="M1274.4824,-621.3918C1306.5578,-624.9865 1344.9867,-630.4228 1379,-638.3248 1385.1942,-639.7638 1391.745,-641.7184 1397.86,-643.7409"/>
<polygon fill="#9a32cd" stroke="#9a32cd" points="1274.6242,-617.8868 1264.3052,-620.2887 1273.8698,-624.846 1274.6242,-617.8868"/>
<text text-anchor="middle" x="1330.5" y="-641.3248" font-family="Helvetica,sans-Serif" font-size="10.00" fill="#000000"> ctNestedExpressions</text>
</g>
<!-- Node52 -->
<g id="node14" class="node">
<title>Node52</title>
<polygon fill="#ffffff" stroke="#bfbfbf" points="698.5,-558.8248 698.5,-577.8248 877.5,-577.8248 877.5,-558.8248 698.5,-558.8248"/>
<text text-anchor="middle" x="788" y="-565.8248" font-family="Helvetica,sans-Serif" font-size="10.00" fill="#000000">stack&lt;tuple&lt;VM::PC, VM::PC, int&gt;&gt;</text>
</g>
<!-- Node52&#45;&gt;Node51 -->
<g id="edge42" class="edge">
<title>Node52&#45;&gt;Node51</title>
<path fill="none" stroke="#9a32cd" stroke-dasharray="5,2" d="M887.8848,-563.0054C974.2491,-560.4404 1090.8887,-562.4937 1128,-589.3248 1145.4562,-601.9454 1130.2524,-619.6273 1146,-634.3248 1150.5629,-638.5834 1156.0867,-641.8876 1161.9018,-644.4512"/>
<polygon fill="#9a32cd" stroke="#9a32cd" points="887.6578,-559.5108 877.7755,-563.3305 887.8828,-566.5072 887.6578,-559.5108"/>
<text text-anchor="middle" x="1042.5" y="-592.3248" font-family="Helvetica,sans-Serif" font-size="10.00" fill="#000000"> conditionalStack</text>
</g>
<!-- Node53 -->
<g id="node15" class="node">
<title>Node53</title>
<polygon fill="#ffffff" stroke="#bfbfbf" points="742.5,-643.8248 742.5,-662.8248 833.5,-662.8248 833.5,-643.8248 742.5,-643.8248"/>
<text text-anchor="middle" x="788" y="-650.8248" font-family="Helvetica,sans-Serif" font-size="10.00" fill="#000000">vector&lt;VM::PC&gt;</text>
</g>
<!-- Node53&#45;&gt;Node51 -->
<g id="edge43" class="edge">
<title>Node53&#45;&gt;Node51</title>
<path fill="none" stroke="#9a32cd" stroke-dasharray="5,2" d="M843.9709,-653.3248C928.255,-653.3248 1085.961,-653.3248 1161.9272,-653.3248"/>
<polygon fill="#9a32cd" stroke="#9a32cd" points="843.8192,-649.8249 833.8191,-653.3248 843.8191,-656.8249 843.8192,-649.8249"/>
<text text-anchor="middle" x="1042.5" y="-656.3248" font-family="Helvetica,sans-Serif" font-size="10.00" fill="#000000"> resultStack</text>
</g>
<!-- Node54 -->
<g id="node16" class="node">
<title>Node54</title>
<g id="a_node16"><a xlink:title="STL class. ">
<polygon fill="#ffffff" stroke="#bfbfbf" points="757,-681.8248 757,-700.8248 819,-700.8248 819,-681.8248 757,-681.8248"/>
<text text-anchor="middle" x="788" y="-688.8248" font-family="Helvetica,sans-Serif" font-size="10.00" fill="#000000">vector&lt;T&gt;</text>
</a>
</g>
</g>
<!-- Node54&#45;&gt;Node51 -->
<g id="edge44" class="edge">
<title>Node54&#45;&gt;Node51</title>
<path fill="none" stroke="#9a32cd" stroke-dasharray="5,2" d="M829.15,-689.8733C893.2314,-687.286 1020.6618,-680.8301 1128,-667.3248 1139.0544,-665.9339 1150.9272,-663.9977 1161.9601,-662.0081"/>
<polygon fill="#9a32cd" stroke="#9a32cd" points="828.906,-686.3801 819.0511,-690.27 829.1808,-693.3747 828.906,-686.3801"/>
<text text-anchor="middle" x="1042.5" y="-685.3248" font-family="Helvetica,sans-Serif" font-size="10.00" fill="#000000"> plugins</text>
</g>
<!-- Node21 -->
<g id="node17" class="node">
<title>Node21</title>
<g id="a_node17"><a xlink:href="classaworx_1_1lib_1_1strings_1_1StringBase.html" target="_top" xlink:title="StringBase\&lt;character\&gt;">
<polygon fill="#ffffff" stroke="#000000" points="0,-248.8248 0,-267.8248 117,-267.8248 117,-248.8248 0,-248.8248"/>
<text text-anchor="middle" x="58.5" y="-255.8248" font-family="Helvetica,sans-Serif" font-size="10.00" fill="#000000">StringBase&lt;character&gt;</text>
</a>
</g>
</g>
<!-- Node21&#45;&gt;Node5 -->
<g id="edge12" class="edge">
<title>Node21&#45;&gt;Node5</title>
<path fill="none" stroke="#9a32cd" stroke-dasharray="5,2" d="M77.6434,-242.1859C114.6173,-212.1838 199.6696,-148.7457 284,-125.3248 645.4401,-24.9428 819.6217,94.2596 1128,-119.3248 1162.3792,-143.136 1194.5356,-277.4194 1202.8997,-314.7157"/>
<polygon fill="#9a32cd" stroke="#9a32cd" points="75.2014,-239.6626 69.703,-248.719 79.649,-245.0681 75.2014,-239.6626"/>
<text text-anchor="middle" x="539" y="-86.3248" font-family="Helvetica,sans-Serif" font-size="10.00" fill="#000000"> CfgNestedExpressionOperator</text>
<text text-anchor="middle" x="539" y="-75.3248" font-family="Helvetica,sans-Serif" font-size="10.00" fill="#000000">CfgNestedExpressionThrowIdentifier</text>
</g>
<!-- Node21&#45;&gt;Node26 -->
<g id="edge13" class="edge">
<title>Node21&#45;&gt;Node26</title>
<path fill="none" stroke="#9a32cd" stroke-dasharray="5,2" d="M117.3481,-269.5589C123.3009,-270.5558 129.264,-271.4986 135,-272.3248 201.827,-281.9504 280.2221,-289.3755 325.3521,-293.2779"/>
<polygon fill="#9a32cd" stroke="#9a32cd" points="117.831,-266.0906 107.3817,-267.841 116.6418,-272.9889 117.831,-266.0906"/>
<text text-anchor="middle" x="200.5" y="-313.3248" font-family="Helvetica,sans-Serif" font-size="10.00" fill="#000000"> SubstitutionVariableStart</text>
<text text-anchor="middle" x="200.5" y="-302.3248" font-family="Helvetica,sans-Serif" font-size="10.00" fill="#000000">SubstitutionVariableEnd</text>
<text text-anchor="middle" x="200.5" y="-291.3248" font-family="Helvetica,sans-Serif" font-size="10.00" fill="#000000">SubstitutionVariableDelimiters</text>
</g>
<!-- Node37 -->
<g id="node27" class="node">
<title>Node37</title>
<g id="a_node27"><a xlink:href="structaworx_1_1lib_1_1expressions_1_1FunctionNameDescriptor.html" target="_top" xlink:title="FunctionNameDescriptor">
<polygon fill="#ffffff" stroke="#000000" points="476.5,-228.8248 476.5,-247.8248 601.5,-247.8248 601.5,-228.8248 476.5,-228.8248"/>
<text text-anchor="middle" x="539" y="-235.8248" font-family="Helvetica,sans-Serif" font-size="10.00" fill="#000000">FunctionNameDescriptor</text>
</a>
</g>
</g>
<!-- Node21&#45;&gt;Node37 -->
<g id="edge14" class="edge">
<title>Node21&#45;&gt;Node37</title>
<path fill="none" stroke="#9a32cd" stroke-dasharray="5,2" d="M127.611,-255.4481C220.9982,-251.5611 386.1309,-244.6877 476.1676,-240.9401"/>
<polygon fill="#9a32cd" stroke="#9a32cd" points="127.2645,-251.9594 117.4187,-255.8724 127.5557,-258.9534 127.2645,-251.9594"/>
<text text-anchor="middle" x="200.5" y="-258.3248" font-family="Helvetica,sans-Serif" font-size="10.00" fill="#000000"> Name</text>
</g>
<!-- Node24 -->
<g id="node18" class="node">
<title>Node24</title>
<g id="a_node18"><a xlink:href="classaworx_1_1lib_1_1strings_1_1AStringBase.html" target="_top" xlink:title="AStringBase\&lt;TChar\&gt;">
<polygon fill="#ffffff" stroke="#ff0000" points="3.5,-482.8248 3.5,-501.8248 113.5,-501.8248 113.5,-482.8248 3.5,-482.8248"/>
<text text-anchor="middle" x="58.5" y="-489.8248" font-family="Helvetica,sans-Serif" font-size="10.00" fill="#000000">AStringBase&lt;TChar&gt;</text>
</a>
</g>
</g>
<!-- Node24&#45;&gt;Node23 -->
<g id="edge19" class="edge">
<title>Node24&#45;&gt;Node23</title>
<path fill="none" stroke="#9a32cd" stroke-dasharray="5,2" d="M123.8344,-492.3248C178.5307,-492.3248 255.7121,-492.3248 307.3446,-492.3248"/>
<polygon fill="#9a32cd" stroke="#9a32cd" points="123.5521,-488.8249 113.5521,-492.3248 123.5521,-495.8249 123.5521,-488.8249"/>
<text text-anchor="middle" x="200.5" y="-495.3248" font-family="Helvetica,sans-Serif" font-size="10.00" fill="#000000"> elements</text>
</g>
<!-- Node33 -->
<g id="node19" class="node">
<title>Node33</title>
<g id="a_node19"><a xlink:href="classaworx_1_1lib_1_1strings_1_1AStringBase.html" target="_top" xlink:title="AStringBase\&lt;character\&gt;">
<polygon fill="#ffffff" stroke="#ff0000" points="300.5,-749.8248 300.5,-768.8248 424.5,-768.8248 424.5,-749.8248 300.5,-749.8248"/>
<text text-anchor="middle" x="362.5" y="-756.8248" font-family="Helvetica,sans-Serif" font-size="10.00" fill="#000000">AStringBase&lt;character&gt;</text>
</a>
</g>
</g>
<!-- Node33&#45;&gt;Node38 -->
<g id="edge26" class="edge">
<title>Node33&#45;&gt;Node38</title>
<path fill="none" stroke="#9a32cd" stroke-dasharray="5,2" d="M434.5202,-761.5039C519.1336,-763.8727 663.7527,-767.3248 788,-767.3248 788,-767.3248 788,-767.3248 1423.5,-767.3248 1462.4428,-767.3248 1563.2032,-699.3287 1599.6192,-673.8301"/>
<polygon fill="#9a32cd" stroke="#9a32cd" points="434.5993,-758.0048 424.5044,-761.2207 434.4014,-765.002 434.5993,-758.0048"/>
<text text-anchor="middle" x="1205" y="-803.3248" font-family="Helvetica,sans-Serif" font-size="10.00" fill="#000000"> normalizedString</text>
<text text-anchor="middle" x="1205" y="-792.3248" font-family="Helvetica,sans-Serif" font-size="10.00" fill="#000000">name</text>
<text text-anchor="middle" x="1205" y="-781.3248" font-family="Helvetica,sans-Serif" font-size="10.00" fill="#000000">originalString</text>
<text text-anchor="middle" x="1205" y="-770.3248" font-family="Helvetica,sans-Serif" font-size="10.00" fill="#000000">optimizedString</text>
</g>
<!-- Node33&#45;&gt;Node25 -->
<g id="edge25" class="edge">
<title>Node33&#45;&gt;Node25</title>
<path fill="none" stroke="#9a32cd" stroke-dasharray="5,2" d="M421.5297,-745.6079C428.8015,-741.9237 435.5706,-737.251 441,-731.3248 462.4095,-707.9564 444.1877,-690.3433 459,-662.3248 515.2378,-555.9466 548.4358,-539.7827 637,-458.3248 682.7393,-416.2556 744.282,-375.1727 772.5854,-357.0224"/>
<polygon fill="#9a32cd" stroke="#9a32cd" points="419.8472,-742.5247 412.113,-749.7658 422.6747,-748.9283 419.8472,-742.5247"/>
<text text-anchor="middle" x="539" y="-676.3248" font-family="Helvetica,sans-Serif" font-size="10.00" fill="#000000"> DefaultValue</text>
<text text-anchor="middle" x="539" y="-665.3248" font-family="Helvetica,sans-Serif" font-size="10.00" fill="#000000">Comments</text>
</g>
<!-- Node10 -->
<g id="node20" class="node">
<title>Node10</title>
<g id="a_node20"><a xlink:href="classaworx_1_1lib_1_1strings_1_1PreallocatedStringBase.html" target="_top" xlink:title="PreallocatedStringBase\&lt;TChar\&gt;">
<polygon fill="#ffffff" stroke="#ff0000" points="284,-339.8248 284,-358.8248 441,-358.8248 441,-339.8248 284,-339.8248"/>
<text text-anchor="middle" x="362.5" y="-346.8248" font-family="Helvetica,sans-Serif" font-size="10.00" fill="#000000">PreallocatedStringBase&lt;TChar&gt;</text>
</a>
</g>
</g>
<!-- Node10&#45;&gt;Node25 -->
<g id="edge8" class="edge">
<title>Node10&#45;&gt;Node25</title>
<path fill="none" stroke="#9a32cd" stroke-dasharray="5,2" d="M414.6917,-337.7734C428.9829,-335.108 444.5251,-332.6632 459,-331.3248 571.7464,-320.8995 706.8979,-336.1721 762.351,-343.6276"/>
<polygon fill="#9a32cd" stroke="#9a32cd" points="413.6912,-334.402 404.5396,-339.7405 415.0229,-341.2742 413.6912,-334.402"/>
<text text-anchor="middle" x="539" y="-334.3248" font-family="Helvetica,sans-Serif" font-size="10.00" fill="#000000"> FormatAttrAlignment</text>
</g>
<!-- Node10&#45;&gt;Node25 -->
<g id="edge9" class="edge">
<title>Node10&#45;&gt;Node25</title>
<path fill="none" stroke="#9a32cd" stroke-dasharray="5,2" d="M451.2521,-348.9076C549.4251,-348.4462 701.7121,-347.7303 762.0796,-347.4466"/>
<polygon fill="#9a32cd" stroke="#9a32cd" points="451.0225,-345.4085 441.0391,-348.9556 451.0555,-352.4085 451.0225,-345.4085"/>
<text text-anchor="middle" x="539" y="-374.3248" font-family="Helvetica,sans-Serif" font-size="10.00" fill="#000000"> Fullname</text>
<text text-anchor="middle" x="539" y="-363.3248" font-family="Helvetica,sans-Serif" font-size="10.00" fill="#000000">Category</text>
<text text-anchor="middle" x="539" y="-352.3248" font-family="Helvetica,sans-Serif" font-size="10.00" fill="#000000">Name</text>
</g>
<!-- Node38&#45;&gt;Node2 -->
<g id="edge29" class="edge">
<title>Node38&#45;&gt;Node2</title>
<path fill="none" stroke="#9a32cd" stroke-dasharray="5,2" d="M1569.9262,-661.8244C1533.1309,-659.6886 1481.3559,-656.6832 1450.2488,-654.8775"/>
<polygon fill="#9a32cd" stroke="#9a32cd" points="1570.1644,-665.3441 1580.3505,-662.4295 1570.5702,-658.3558 1570.1644,-665.3441"/>
<text text-anchor="middle" x="1493.5" y="-661.3248" font-family="Helvetica,sans-Serif" font-size="10.00" fill="#000000"> expression</text>
</g>
<!-- Node38&#45;&gt;Node45 -->
<g id="edge30" class="edge">
<title>Node38&#45;&gt;Node45</title>
<path fill="none" stroke="#9a32cd" stroke-dasharray="5,2" d="M1656.1248,-664.3248C1689.6867,-664.3248 1737.3174,-664.3248 1778.4682,-664.3248"/>
<polygon fill="#9a32cd" stroke="#9a32cd" points="1655.7485,-660.8249 1645.7485,-664.3248 1655.7485,-667.8249 1655.7485,-660.8249"/>
<text text-anchor="middle" x="1728.5" y="-667.3248" font-family="Helvetica,sans-Serif" font-size="10.00" fill="#000000"> elements</text>
</g>
<!-- Node4 -->
<g id="node22" class="node">
<title>Node4</title>
<polygon fill="#ffffff" stroke="#bfbfbf" points="348,-702.8248 348,-721.8248 377,-721.8248 377,-702.8248 348,-702.8248"/>
<text text-anchor="middle" x="362.5" y="-709.8248" font-family="Helvetica,sans-Serif" font-size="10.00" fill="#000000">T</text>
</g>
<!-- Node4&#45;&gt;Node3 -->
<g id="edge3" class="edge">
<title>Node4&#45;&gt;Node3</title>
<path fill="none" stroke="#9a32cd" stroke-dasharray="5,2" d="M387.2379,-712.6886C478.7703,-714.0346 800.9792,-718.773 956.8195,-721.0648"/>
<polygon fill="#9a32cd" stroke="#9a32cd" points="387.0678,-709.1858 377.0174,-712.5383 386.9648,-716.185 387.0678,-709.1858"/>
<text text-anchor="middle" x="539" y="-718.3248" font-family="Helvetica,sans-Serif" font-size="10.00" fill="#000000"> elements</text>
</g>
<!-- Node4&#45;&gt;Node54 -->
<g id="edge4" class="edge">
<title>Node4&#45;&gt;Node54</title>
<path fill="none" stroke="#9a32cd" stroke-dasharray="5,2" d="M386.9739,-707.2296C406.4031,-703.4366 434.3111,-698.5466 459,-696.3248 567.9534,-686.5196 698.0022,-688.586 756.6182,-690.2497"/>
<polygon fill="#9a32cd" stroke="#9a32cd" points="386.2453,-703.806 377.1264,-709.2001 387.6188,-710.6699 386.2453,-703.806"/>
<text text-anchor="middle" x="539" y="-699.3248" font-family="Helvetica,sans-Serif" font-size="10.00" fill="#000000"> elements</text>
</g>
<!-- Node5&#45;&gt;Node2 -->
<g id="edge5" class="edge">
<title>Node5&#45;&gt;Node2</title>
<path fill="none" stroke="#9a32cd" stroke-dasharray="5,2" d="M1217.2543,-342.7764C1257.7621,-403.7698 1386.5081,-597.6253 1416.9862,-643.5168"/>
<polygon fill="#9a32cd" stroke="#9a32cd" points="1219.9873,-340.565 1211.5393,-334.1711 1214.1561,-344.4377 1219.9873,-340.565"/>
<text text-anchor="middle" x="1330.5" y="-584.3248" font-family="Helvetica,sans-Serif" font-size="10.00" fill="#000000"> compiler</text>
</g>
<!-- Node7 -->
<g id="node24" class="node">
<title>Node7</title>
<g id="a_node24"><a xlink:href="classaworx_1_1lib_1_1threads_1_1ThreadLock.html" target="_top" xlink:title="ThreadLock">
<polygon fill="#ffffff" stroke="#ff0000" points="328.5,-210.8248 328.5,-229.8248 396.5,-229.8248 396.5,-210.8248 328.5,-210.8248"/>
<text text-anchor="middle" x="362.5" y="-217.8248" font-family="Helvetica,sans-Serif" font-size="10.00" fill="#000000">ThreadLock</text>
</a>
</g>
</g>
<!-- Node7&#45;&gt;Node6 -->
<g id="edge7" class="edge">
<title>Node7&#45;&gt;Node6</title>
<path fill="none" stroke="#191970" d="M406.6049,-217.0078C467.2735,-212.4452 578.8254,-204.0559 665.6758,-197.5242"/>
<polygon fill="#191970" stroke="#191970" points="406.3105,-213.52 396.6012,-217.7602 406.8355,-220.5003 406.3105,-213.52"/>
</g>
<!-- Node25&#45;&gt;Node5 -->
<g id="edge20" class="edge">
<title>Node25&#45;&gt;Node5</title>
<path fill="none" stroke="#9a32cd" stroke-dasharray="5,2" d="M824.0499,-345.3364C905.7413,-340.8306 1103.5501,-329.9203 1176.963,-325.8712"/>
<polygon fill="#9a32cd" stroke="#9a32cd" points="823.5626,-341.8579 813.7705,-345.9034 823.9481,-348.8472 823.5626,-341.8579"/>
<text text-anchor="middle" x="1042.5" y="-341.3248" font-family="Helvetica,sans-Serif" font-size="10.00" fill="#000000"> var</text>
</g>
<!-- Node26&#45;&gt;Node5 -->
<g id="edge21" class="edge">
<title>Node26&#45;&gt;Node5</title>
<path fill="none" stroke="#9a32cd" stroke-dasharray="5,2" d="M410.0464,-295.6464C461.5446,-295.0701 546.1139,-294.5845 619,-296.3248 833.8469,-301.4547 1092.6233,-317.1497 1176.9609,-322.5089"/>
<polygon fill="#9a32cd" stroke="#9a32cd" points="409.8463,-292.1484 399.8883,-295.7661 409.9289,-299.1479 409.8463,-292.1484"/>
<text text-anchor="middle" x="788" y="-312.3248" font-family="Helvetica,sans-Serif" font-size="10.00" fill="#000000"> Config</text>
</g>
<!-- Node26&#45;&gt;Node25 -->
<g id="edge22" class="edge">
<title>Node26&#45;&gt;Node25</title>
<path fill="none" stroke="#9a32cd" stroke-dasharray="5,2" d="M409.7832,-297.5847C461.391,-299.3957 546.3653,-303.6545 619,-313.3248 670.3229,-320.1576 729.4586,-333.2826 762.4095,-341.075"/>
<polygon fill="#9a32cd" stroke="#9a32cd" points="409.7184,-294.0807 399.6069,-297.2443 409.4843,-301.0768 409.7184,-294.0807"/>
<text text-anchor="middle" x="539" y="-316.3248" font-family="Helvetica,sans-Serif" font-size="10.00" fill="#000000"> Config</text>
</g>
<!-- Node37&#45;&gt;Node5 -->
<g id="edge28" class="edge">
<title>Node37&#45;&gt;Node5</title>
<path fill="none" stroke="#9a32cd" stroke-dasharray="5,2" d="M611.8673,-227.6847C726.2064,-214.0668 952.7931,-199.6273 1128,-267.3248 1155.6157,-277.9951 1182.0547,-301.3842 1195.6023,-314.6463"/>
<polygon fill="#9a32cd" stroke="#9a32cd" points="611.3268,-224.2246 601.8259,-228.9132 612.177,-231.1728 611.3268,-224.2246"/>
<text text-anchor="middle" x="788" y="-227.3248" font-family="Helvetica,sans-Serif" font-size="10.00" fill="#000000"> CfgNestedExpressionFunction</text>
</g>
<!-- Node22 -->
<g id="node28" class="node">
<title>Node22</title>
<g id="a_node28"><a xlink:href="structaworx_1_1lib_1_1expressions_1_1detail_1_1Parser.html" target="_top" xlink:title="Parser">
<polygon fill="#ffffff" stroke="#000000" points="765.5,-520.8248 765.5,-539.8248 810.5,-539.8248 810.5,-520.8248 765.5,-520.8248"/>
<text text-anchor="middle" x="788" y="-527.8248" font-family="Helvetica,sans-Serif" font-size="10.00" fill="#000000">Parser</text>
</a>
</g>
</g>
<!-- Node22&#45;&gt;Node5 -->
<g id="edge15" class="edge">
<title>Node22&#45;&gt;Node5</title>
<path fill="none" stroke="#9a32cd" stroke-dasharray="5,2" d="M821.0698,-536.7664C886.521,-547.5593 1034.3286,-561.9777 1128,-494.3248 1183.6839,-454.1078 1199.9473,-363.9157 1203.8928,-334.1002"/>
<polygon fill="#9a32cd" stroke="#9a32cd" points="821.3782,-533.2678 810.928,-535.0123 820.1852,-540.1654 821.3782,-533.2678"/>
<text text-anchor="middle" x="1042.5" y="-548.3248" font-family="Helvetica,sans-Serif" font-size="10.00" fill="#000000"> parser</text>
</g>
<!-- Node51&#45;&gt;Node2 -->
<g id="edge41" class="edge">
<title>Node51&#45;&gt;Node2</title>
<path fill="none" stroke="#9a32cd" stroke-dasharray="5,2" d="M1258.3882,-653.3248C1302.2917,-653.3248 1362.6612,-653.3248 1396.9192,-653.3248"/>
<polygon fill="#9a32cd" stroke="#9a32cd" points="1258.1686,-649.8249 1248.1686,-653.3248 1258.1685,-656.8249 1258.1686,-649.8249"/>
<text text-anchor="middle" x="1330.5" y="-656.3248" font-family="Helvetica,sans-Serif" font-size="10.00" fill="#000000"> compileStorage</text>
</g>
<!-- Node39&#45;&gt;Node2 -->
<g id="edge31" class="edge">
<title>Node39&#45;&gt;Node2</title>
<path fill="none" stroke="#9a32cd" stroke-dasharray="5,2" d="M2091.8191,-736.3795C2058.5825,-732.3612 2005.2018,-726.0643 1959,-721.3248 1771.6687,-702.1077 1724.0299,-705.2821 1537,-683.3248 1506.2243,-679.7117 1497.7531,-681.9822 1468,-673.3248 1459.0539,-670.7217 1449.5798,-666.663 1441.6831,-662.8802"/>
<polygon fill="#9a32cd" stroke="#9a32cd" points="2091.5188,-739.8687 2101.8677,-737.5993 2092.3624,-732.9197 2091.5188,-739.8687"/>
<text text-anchor="middle" x="1728.5" y="-706.3248" font-family="Helvetica,sans-Serif" font-size="10.00" fill="#000000"> ctScope</text>
</g>
<!-- Node39&#45;&gt;Node39 -->
<g id="edge32" class="edge">
<title>Node39&#45;&gt;Node39</title>
<path fill="none" stroke="#9a32cd" stroke-dasharray="5,2" d="M2106.9638,-759.7248C2108.1015,-764.6393 2113.7803,-768.3248 2124,-768.3248 2140.3516,-768.3248 2145.0782,-758.89 2138.1799,-750.0818"/>
<polygon fill="#9a32cd" stroke="#9a32cd" points="2110.3358,-760.6641 2109.8201,-750.0818 2103.6241,-758.676 2110.3358,-760.6641"/>
<text text-anchor="middle" x="2124" y="-771.3248" font-family="Helvetica,sans-Serif" font-size="10.00" fill="#000000"> CTScope</text>
</g>
<!-- Node40&#45;&gt;Node39 -->
<g id="edge33" class="edge">
<title>Node40&#45;&gt;Node39</title>
<path fill="none" stroke="#9a32cd" stroke-dasharray="5,2" d="M1914.9977,-740.3248C1971.8315,-740.3248 2060.6936,-740.3248 2101.7855,-740.3248"/>
<polygon fill="#9a32cd" stroke="#9a32cd" points="1914.777,-736.8249 1904.777,-740.3248 1914.777,-743.8249 1914.777,-736.8249"/>
<text text-anchor="middle" x="2030.5" y="-743.3248" font-family="Helvetica,sans-Serif" font-size="10.00" fill="#000000"> Memory</text>
</g>
<!-- Node44 -->
<g id="node32" class="node">
<title>Node44</title>
<g id="a_node32"><a xlink:href="structaworx_1_1lib_1_1expressions_1_1ScopeResource.html" target="_top" xlink:title="ScopeResource">
<polygon fill="#ffffff" stroke="#000000" points="1570,-813.8248 1570,-832.8248 1656,-832.8248 1656,-813.8248 1570,-813.8248"/>
<text text-anchor="middle" x="1613" y="-820.8248" font-family="Helvetica,sans-Serif" font-size="10.00" fill="#000000">ScopeResource</text>
</a>
</g>
</g>
<!-- Node44&#45;&gt;Node43 -->
<g id="edge36" class="edge">
<title>Node44&#45;&gt;Node43</title>
<path fill="none" stroke="#9a32cd" stroke-dasharray="5,2" d="M1666.153,-822.9004C1695.689,-822.6646 1733.3359,-822.364 1767.8132,-822.0887"/>
<polygon fill="#9a32cd" stroke="#9a32cd" points="1666.0342,-819.4011 1656.0625,-822.981 1666.0901,-826.4009 1666.0342,-819.4011"/>
<text text-anchor="middle" x="1728.5" y="-825.3248" font-family="Helvetica,sans-Serif" font-size="10.00" fill="#000000"> elements</text>
</g>
<!-- Node47 -->
<g id="node33" class="node">
<title>Node47</title>
<g id="a_node33"><a xlink:href="classaworx_1_1lib_1_1boxing_1_1Box.html" target="_top" xlink:title="Box">
<polygon fill="#ffffff" stroke="#ff0000" points="1596,-775.8248 1596,-794.8248 1630,-794.8248 1630,-775.8248 1596,-775.8248"/>
<text text-anchor="middle" x="1613" y="-782.8248" font-family="Helvetica,sans-Serif" font-size="10.00" fill="#000000">Box</text>
</a>
</g>
</g>
<!-- Node47&#45;&gt;Node46 -->
<g id="edge39" class="edge">
<title>Node47&#45;&gt;Node46</title>
<path fill="none" stroke="#9a32cd" stroke-dasharray="5,2" d="M1640.4524,-784.8864C1685.7386,-784.1633 1776.1233,-782.72 1826.83,-781.9103"/>
<polygon fill="#9a32cd" stroke="#9a32cd" points="1640.1607,-781.3905 1630.2179,-785.0498 1640.2725,-788.3896 1640.1607,-781.3905"/>
<text text-anchor="middle" x="1728.5" y="-786.3248" font-family="Helvetica,sans-Serif" font-size="10.00" fill="#000000"> elements</text>
</g>
</g>
</svg>
