<?xml version="1.0" encoding="UTF-8" standalone="no"?>
<!DOCTYPE svg PUBLIC "-//W3C//DTD SVG 1.1//EN"
 "http://www.w3.org/Graphics/SVG/1.1/DTD/svg11.dtd">
<!-- Generated by graphviz version 2.40.1 (20161225.0304)
 -->
<!-- Title: AnsiConsoleLogger Pages: 1 -->
<svg width="1005pt" height="673pt"
 viewBox="0.00 0.00 1005.00 673.00" xmlns="http://www.w3.org/2000/svg" xmlns:xlink="http://www.w3.org/1999/xlink">
<g id="graph0" class="graph" transform="scale(1 1) rotate(0) translate(4 669)">
<title>AnsiConsoleLogger</title>
<polygon fill="#ffffff" stroke="transparent" points="-4,4 -4,-669 1001,-669 1001,4 -4,4"/>
<!-- Node6 -->
<g id="node1" class="node">
<title>Node6</title>
<polygon fill="#bfbfbf" stroke="#000000" points="896,-287.5 896,-306.5 997,-306.5 997,-287.5 896,-287.5"/>
<text text-anchor="middle" x="946.5" y="-294.5" font-family="Helvetica,sans-Serif" font-size="10.00" fill="#000000">AnsiConsoleLogger</text>
</g>
<!-- Node28 -->
<g id="node2" class="node">
<title>Node28</title>
<polygon fill="#ffffff" stroke="#bfbfbf" points="281.5,-498.5 281.5,-517.5 391.5,-517.5 391.5,-498.5 281.5,-498.5"/>
<text text-anchor="middle" x="336.5" y="-505.5" font-family="Helvetica,sans-Serif" font-size="10.00" fill="#000000">vector&lt;AStringBase&gt;</text>
</g>
<!-- Node8 -->
<g id="node9" class="node">
<title>Node8</title>
<g id="a_node9"><a xlink:href="classaworx_1_1lib_1_1lox_1_1core_1_1textlogger_1_1TextLogger.html" target="_top" xlink:title="TextLogger">
<polygon fill="#ffffff" stroke="#000000" points="528,-221.5 528,-240.5 593,-240.5 593,-221.5 528,-221.5"/>
<text text-anchor="middle" x="560.5" y="-228.5" font-family="Helvetica,sans-Serif" font-size="10.00" fill="#000000">TextLogger</text>
</a>
</g>
</g>
<!-- Node28&#45;&gt;Node8 -->
<g id="edge7" class="edge">
<title>Node28&#45;&gt;Node8</title>
<path fill="none" stroke="#9a32cd" stroke-dasharray="5,2" d="M401.55,-500.6789C428.74,-494.3715 458.4843,-482.6718 478,-461 502.9683,-433.2731 484.4919,-414.4931 496,-379 513.4624,-325.1426 543.5259,-264.1312 555.432,-240.7884"/>
<polygon fill="#9a32cd" stroke="#9a32cd" points="400.7317,-497.2744 391.6719,-502.7671 402.1796,-504.1231 400.7317,-497.2744"/>
<text text-anchor="middle" x="447" y="-499" font-family="Helvetica,sans-Serif" font-size="10.00" fill="#000000"> replacements</text>
</g>
<!-- Node36 -->
<g id="node3" class="node">
<title>Node36</title>
<g id="a_node3"><a xlink:href="classaworx_1_1lib_1_1strings_1_1AStringBase.html" target="_top" xlink:title="AStringBase\&lt;character\&gt;">
<polygon fill="#ffffff" stroke="#ff0000" points="16.5,-424.5 16.5,-443.5 140.5,-443.5 140.5,-424.5 16.5,-424.5"/>
<text text-anchor="middle" x="78.5" y="-431.5" font-family="Helvetica,sans-Serif" font-size="10.00" fill="#000000">AStringBase&lt;character&gt;</text>
</a>
</g>
</g>
<!-- Node36&#45;&gt;Node8 -->
<g id="edge11" class="edge">
<title>Node36&#45;&gt;Node8</title>
<path fill="none" stroke="#9a32cd" stroke-dasharray="5,2" d="M150.6311,-441.6914C183.5659,-443.1541 222.773,-441.9855 257,-433 365.7259,-404.4564 387.555,-376.7514 478,-310 507.6776,-288.0969 537.7811,-256.3182 552.025,-240.5769"/>
<polygon fill="#9a32cd" stroke="#9a32cd" points="150.7957,-438.1953 140.6238,-441.1588 150.4236,-445.1855 150.7957,-438.1953"/>
<text text-anchor="middle" x="336.5" y="-452" font-family="Helvetica,sans-Serif" font-size="10.00" fill="#000000"> logBuf</text>
<text text-anchor="middle" x="336.5" y="-441" font-family="Helvetica,sans-Serif" font-size="10.00" fill="#000000">MultiLineDelimiter</text>
<text text-anchor="middle" x="336.5" y="-430" font-family="Helvetica,sans-Serif" font-size="10.00" fill="#000000">msgBuf</text>
</g>
<!-- Node33 -->
<g id="node11" class="node">
<title>Node33</title>
<g id="a_node11"><a xlink:href="classaworx_1_1lib_1_1lox_1_1core_1_1textlogger_1_1MetaInfo.html" target="_top" xlink:title="MetaInfo">
<polygon fill="#ffffff" stroke="#ff0000" points="309,-317.5 309,-336.5 364,-336.5 364,-317.5 309,-317.5"/>
<text text-anchor="middle" x="336.5" y="-324.5" font-family="Helvetica,sans-Serif" font-size="10.00" fill="#000000">MetaInfo</text>
</a>
</g>
</g>
<!-- Node36&#45;&gt;Node33 -->
<g id="edge12" class="edge">
<title>Node36&#45;&gt;Node33</title>
<path fill="none" stroke="#9a32cd" stroke-dasharray="5,2" d="M150.7845,-423.8428C191.7445,-417.3072 238.4184,-408.3171 257,-399 287.9613,-383.4756 315.8994,-352.5018 328.8632,-336.7237"/>
<polygon fill="#9a32cd" stroke="#9a32cd" points="150.1263,-420.4032 140.7882,-425.4082 151.2094,-427.3189 150.1263,-420.4032"/>
<text text-anchor="middle" x="216" y="-422" font-family="Helvetica,sans-Serif" font-size="10.00" fill="#000000"> Format</text>
</g>
<!-- Node48 -->
<g id="node4" class="node">
<title>Node48</title>
<g id="a_node4"><a xlink:href="classaworx_1_1lib_1_1strings_1_1AStringBase.html" target="_top" xlink:title="AStringBase\&lt;nchar\&gt;">
<polygon fill="#ffffff" stroke="#ff0000" points="283,-38.5 283,-57.5 390,-57.5 390,-38.5 283,-38.5"/>
<text text-anchor="middle" x="336.5" y="-45.5" font-family="Helvetica,sans-Serif" font-size="10.00" fill="#000000">AStringBase&lt;nchar&gt;</text>
</a>
</g>
</g>
<!-- Node47 -->
<g id="node14" class="node">
<title>Node47</title>
<g id="a_node14"><a xlink:href="classaworx_1_1lib_1_1strings_1_1util_1_1StringWriter.html" target="_top" xlink:title="StringWriter">
<polygon fill="#ffffff" stroke="#000000" points="526.5,-38.5 526.5,-57.5 594.5,-57.5 594.5,-38.5 526.5,-38.5"/>
<text text-anchor="middle" x="560.5" y="-45.5" font-family="Helvetica,sans-Serif" font-size="10.00" fill="#000000">StringWriter</text>
</a>
</g>
</g>
<!-- Node48&#45;&gt;Node47 -->
<g id="edge19" class="edge">
<title>Node48&#45;&gt;Node47</title>
<path fill="none" stroke="#9a32cd" stroke-dasharray="5,2" d="M400.338,-48C441.3687,-48 493.0522,-48 526.4288,-48"/>
<polygon fill="#9a32cd" stroke="#9a32cd" points="400.1536,-44.5001 390.1536,-48 400.1535,-51.5001 400.1536,-44.5001"/>
<text text-anchor="middle" x="447" y="-51" font-family="Helvetica,sans-Serif" font-size="10.00" fill="#000000"> converter</text>
</g>
<!-- Node14 -->
<g id="node5" class="node">
<title>Node14</title>
<g id="a_node5"><a xlink:href="classaworx_1_1lib_1_1strings_1_1PreallocatedStringBase.html" target="_top" xlink:title="PreallocatedStringBase\&lt;TChar\&gt;">
<polygon fill="#ffffff" stroke="#ff0000" points="0,-234.5 0,-253.5 157,-253.5 157,-234.5 0,-234.5"/>
<text text-anchor="middle" x="78.5" y="-241.5" font-family="Helvetica,sans-Serif" font-size="10.00" fill="#000000">PreallocatedStringBase&lt;TChar&gt;</text>
</a>
</g>
</g>
<!-- Node14&#45;&gt;Node8 -->
<g id="edge4" class="edge">
<title>Node14&#45;&gt;Node8</title>
<path fill="none" stroke="#9a32cd" stroke-dasharray="5,2" d="M167.3104,-241.6047C276.0194,-238.6727 454.6547,-233.8547 527.7617,-231.883"/>
<polygon fill="#9a32cd" stroke="#9a32cd" points="166.9163,-238.114 157.0144,-241.8824 167.1051,-245.1114 166.9163,-238.114"/>
<text text-anchor="middle" x="336.5" y="-274" font-family="Helvetica,sans-Serif" font-size="10.00" fill="#000000"> FmtMsgSuffix</text>
<text text-anchor="middle" x="336.5" y="-263" font-family="Helvetica,sans-Serif" font-size="10.00" fill="#000000">MultiLineDelimiterRepl</text>
<text text-anchor="middle" x="336.5" y="-252" font-family="Helvetica,sans-Serif" font-size="10.00" fill="#000000">FmtMultiLineSuffix</text>
<text text-anchor="middle" x="336.5" y="-241" font-family="Helvetica,sans-Serif" font-size="10.00" fill="#000000">FmtMultiLinePrefix</text>
</g>
<!-- Node14&#45;&gt;Node8 -->
<g id="edge5" class="edge">
<title>Node14&#45;&gt;Node8</title>
<path fill="none" stroke="#9a32cd" stroke-dasharray="5,2" d="M150.9107,-233.0223C187.9334,-227.9526 233.7661,-222.5088 275,-220 329.5658,-216.6801 343.3645,-218.1529 398,-220 443.0751,-221.5239 495.0628,-225.4189 527.8518,-228.1389"/>
<polygon fill="#9a32cd" stroke="#9a32cd" points="150.1362,-229.5962 140.7132,-234.4395 151.0998,-236.5296 150.1362,-229.5962"/>
<text text-anchor="middle" x="336.5" y="-223" font-family="Helvetica,sans-Serif" font-size="10.00" fill="#000000"> FmtMultiLineMsgHeadline</text>
</g>
<!-- Node14&#45;&gt;Node33 -->
<g id="edge6" class="edge">
<title>Node14&#45;&gt;Node33</title>
<path fill="none" stroke="#9a32cd" stroke-dasharray="5,2" d="M167.6527,-254.7497C204.3158,-260.4372 241.7419,-268.2738 257,-278 268.5453,-285.3595 264.179,-294.6118 275,-303 284.8737,-310.6538 297.4886,-316.1409 308.7204,-319.9188"/>
<polygon fill="#9a32cd" stroke="#9a32cd" points="167.7601,-251.2267 157.3511,-253.2028 166.7205,-258.1491 167.7601,-251.2267"/>
<text text-anchor="middle" x="216" y="-391" font-family="Helvetica,sans-Serif" font-size="10.00" fill="#000000"> TimeDiffHours</text>
<text text-anchor="middle" x="216" y="-380" font-family="Helvetica,sans-Serif" font-size="10.00" fill="#000000">VerbosityInfo</text>
<text text-anchor="middle" x="216" y="-369" font-family="Helvetica,sans-Serif" font-size="10.00" fill="#000000">VerbosityWarning</text>
<text text-anchor="middle" x="216" y="-358" font-family="Helvetica,sans-Serif" font-size="10.00" fill="#000000">VerbosityVerbose</text>
<text text-anchor="middle" x="216" y="-347" font-family="Helvetica,sans-Serif" font-size="10.00" fill="#000000">TimeDiffMicros</text>
<text text-anchor="middle" x="216" y="-336" font-family="Helvetica,sans-Serif" font-size="10.00" fill="#000000">TimeElapsedDays</text>
<text text-anchor="middle" x="216" y="-325" font-family="Helvetica,sans-Serif" font-size="10.00" fill="#000000">VerbosityError</text>
<text text-anchor="middle" x="216" y="-314" font-family="Helvetica,sans-Serif" font-size="10.00" fill="#000000">TimeOfDayFormat</text>
<text text-anchor="middle" x="216" y="-303" font-family="Helvetica,sans-Serif" font-size="10.00" fill="#000000">TimeDiffMins</text>
<text text-anchor="middle" x="216" y="-292" font-family="Helvetica,sans-Serif" font-size="10.00" fill="#000000">TimeDiffSecs</text>
<text text-anchor="middle" x="216" y="-281" font-family="Helvetica,sans-Serif" font-size="10.00" fill="#000000">...</text>
</g>
<!-- Node41 -->
<g id="node6" class="node">
<title>Node41</title>
<g id="a_node6"><a xlink:href="classaworx_1_1lib_1_1strings_1_1StringLiteralBase.html" target="_top" xlink:title="StringLiteralBase\&lt;TChar\&gt;">
<polygon fill="#ffffff" stroke="#000000" points="496,-388.5 496,-407.5 625,-407.5 625,-388.5 496,-388.5"/>
<text text-anchor="middle" x="560.5" y="-395.5" font-family="Helvetica,sans-Serif" font-size="10.00" fill="#000000">StringLiteralBase&lt;TChar&gt;</text>
</a>
</g>
</g>
<!-- Node7 -->
<g id="node8" class="node">
<title>Node7</title>
<g id="a_node8"><a xlink:href="classaworx_1_1lib_1_1lox_1_1loggers_1_1AnsiLogger.html" target="_top" xlink:title="AnsiLogger">
<polygon fill="#ffffff" stroke="#000000" points="794,-287.5 794,-306.5 859,-306.5 859,-287.5 794,-287.5"/>
<text text-anchor="middle" x="826.5" y="-294.5" font-family="Helvetica,sans-Serif" font-size="10.00" fill="#000000">AnsiLogger</text>
</a>
</g>
</g>
<!-- Node41&#45;&gt;Node7 -->
<g id="edge13" class="edge">
<title>Node41&#45;&gt;Node7</title>
<path fill="none" stroke="#9a32cd" stroke-dasharray="5,2" d="M566.9314,-417.3229C577.6,-445.8494 601.9493,-498.204 643,-520 695.2084,-547.7201 729.8164,-556.8944 776,-520 810.3483,-492.5604 823.0638,-345.6596 825.8672,-306.5636"/>
<polygon fill="#9a32cd" stroke="#9a32cd" points="570.1488,-415.9238 563.5061,-407.67 563.5518,-418.2647 570.1488,-415.9238"/>
<text text-anchor="middle" x="709.5" y="-657" font-family="Helvetica,sans-Serif" font-size="10.00" fill="#000000"> ANSI_BG_LIGHT_GREEN</text>
<text text-anchor="middle" x="709.5" y="-646" font-family="Helvetica,sans-Serif" font-size="10.00" fill="#000000">ANSI_LIGHT_YELLOW</text>
<text text-anchor="middle" x="709.5" y="-635" font-family="Helvetica,sans-Serif" font-size="10.00" fill="#000000">ANSI_BG_LIGHT_MAGENTA</text>
<text text-anchor="middle" x="709.5" y="-624" font-family="Helvetica,sans-Serif" font-size="10.00" fill="#000000">ANSI_BG_LIGHT_BLUE</text>
<text text-anchor="middle" x="709.5" y="-613" font-family="Helvetica,sans-Serif" font-size="10.00" fill="#000000">ANSI_BG_LIGHT_RED</text>
<text text-anchor="middle" x="709.5" y="-602" font-family="Helvetica,sans-Serif" font-size="10.00" fill="#000000">ANSI_WHITE</text>
<text text-anchor="middle" x="709.5" y="-591" font-family="Helvetica,sans-Serif" font-size="10.00" fill="#000000">ANSI_LIGHT_BLUE</text>
<text text-anchor="middle" x="709.5" y="-580" font-family="Helvetica,sans-Serif" font-size="10.00" fill="#000000">ANSI_BG_WHITE</text>
<text text-anchor="middle" x="709.5" y="-569" font-family="Helvetica,sans-Serif" font-size="10.00" fill="#000000">ANSI_LIGHT_CYAN</text>
<text text-anchor="middle" x="709.5" y="-558" font-family="Helvetica,sans-Serif" font-size="10.00" fill="#000000">ANSI_LIGHT_GREEN</text>
<text text-anchor="middle" x="709.5" y="-547" font-family="Helvetica,sans-Serif" font-size="10.00" fill="#000000">...</text>
</g>
<!-- Node41&#45;&gt;Node7 -->
<g id="edge14" class="edge">
<title>Node41&#45;&gt;Node7</title>
<path fill="none" stroke="#9a32cd" stroke-dasharray="5,2" d="M635.3888,-393.5547C692.7516,-389.6164 764.0479,-383.3588 776,-376 802.4754,-359.6993 817.5556,-323.7465 823.5068,-306.5401"/>
<polygon fill="#9a32cd" stroke="#9a32cd" points="634.9653,-390.0752 625.2229,-394.2388 635.4354,-397.0594 634.9653,-390.0752"/>
<text text-anchor="middle" x="709.5" y="-505" font-family="Helvetica,sans-Serif" font-size="10.00" fill="#000000"> ANSI_STD_COL</text>
<text text-anchor="middle" x="709.5" y="-494" font-family="Helvetica,sans-Serif" font-size="10.00" fill="#000000">ANSI_CYAN</text>
<text text-anchor="middle" x="709.5" y="-483" font-family="Helvetica,sans-Serif" font-size="10.00" fill="#000000">ANSI_BG_CYAN</text>
<text text-anchor="middle" x="709.5" y="-472" font-family="Helvetica,sans-Serif" font-size="10.00" fill="#000000">ANSI_BG_RED</text>
<text text-anchor="middle" x="709.5" y="-461" font-family="Helvetica,sans-Serif" font-size="10.00" fill="#000000">ANSI_BG_STD_COL</text>
<text text-anchor="middle" x="709.5" y="-450" font-family="Helvetica,sans-Serif" font-size="10.00" fill="#000000">ANSI_BG_LIGHT_STD_COL</text>
<text text-anchor="middle" x="709.5" y="-439" font-family="Helvetica,sans-Serif" font-size="10.00" fill="#000000">ANSI_BG_MAGENTA</text>
<text text-anchor="middle" x="709.5" y="-428" font-family="Helvetica,sans-Serif" font-size="10.00" fill="#000000">ANSI_BG_GREEN</text>
<text text-anchor="middle" x="709.5" y="-417" font-family="Helvetica,sans-Serif" font-size="10.00" fill="#000000">ANSI_BLACK</text>
<text text-anchor="middle" x="709.5" y="-406" font-family="Helvetica,sans-Serif" font-size="10.00" fill="#000000">ANSI_BG_BLACK</text>
<text text-anchor="middle" x="709.5" y="-395" font-family="Helvetica,sans-Serif" font-size="10.00" fill="#000000">...</text>
</g>
<!-- Node41&#45;&gt;Node7 -->
<g id="edge15" class="edge">
<title>Node41&#45;&gt;Node7</title>
<path fill="none" stroke="#9a32cd" stroke-dasharray="5,2" d="M575.5017,-380.5544C590.7278,-364.1048 615.8673,-340.2065 643,-328 697.4544,-303.502 717.3364,-320.1361 776,-309 781.8432,-307.8908 788.0301,-306.5559 793.9951,-305.1854"/>
<polygon fill="#9a32cd" stroke="#9a32cd" points="572.5573,-378.5952 568.4849,-388.3761 577.7679,-383.2696 572.5573,-378.5952"/>
<text text-anchor="middle" x="709.5" y="-364" font-family="Helvetica,sans-Serif" font-size="10.00" fill="#000000"> ANSI_BG_LIGHT_GRAY</text>
<text text-anchor="middle" x="709.5" y="-353" font-family="Helvetica,sans-Serif" font-size="10.00" fill="#000000">ANSI_GRAY</text>
<text text-anchor="middle" x="709.5" y="-342" font-family="Helvetica,sans-Serif" font-size="10.00" fill="#000000">ANSI_LIGHT_GRAY</text>
<text text-anchor="middle" x="709.5" y="-331" font-family="Helvetica,sans-Serif" font-size="10.00" fill="#000000">ANSI_BG_GRAY</text>
</g>
<!-- Node41&#45;&gt;Node7 -->
<g id="edge16" class="edge">
<title>Node41&#45;&gt;Node7</title>
<path fill="none" stroke="#9a32cd" stroke-dasharray="5,2" d="M565.5379,-378.6027C574.8463,-347.257 598.0259,-286.4162 643,-261 694.4619,-231.9174 719.7003,-242.987 776,-261 792.2028,-266.1841 807.6418,-278.6822 817.0878,-287.4914"/>
<polygon fill="#9a32cd" stroke="#9a32cd" points="562.1336,-377.7804 562.8109,-388.3536 568.875,-379.6658 562.1336,-377.7804"/>
<text text-anchor="middle" x="709.5" y="-297" font-family="Helvetica,sans-Serif" font-size="10.00" fill="#000000"> ANSI_ITALICS</text>
<text text-anchor="middle" x="709.5" y="-286" font-family="Helvetica,sans-Serif" font-size="10.00" fill="#000000">ANSI_STD_STYLE</text>
<text text-anchor="middle" x="709.5" y="-275" font-family="Helvetica,sans-Serif" font-size="10.00" fill="#000000">ANSI_RESET</text>
<text text-anchor="middle" x="709.5" y="-264" font-family="Helvetica,sans-Serif" font-size="10.00" fill="#000000">ANSI_BOLD</text>
</g>
<!-- Node42 -->
<g id="node7" class="node">
<title>Node42</title>
<g id="a_node7"><a xlink:href="classaworx_1_1lib_1_1strings_1_1TStringBase.html" target="_top" xlink:title="TStringBase\&lt;character\&gt;">
<polygon fill="#ffffff" stroke="#ff0000" points="275,-536.5 275,-555.5 398,-555.5 398,-536.5 275,-536.5"/>
<text text-anchor="middle" x="336.5" y="-543.5" font-family="Helvetica,sans-Serif" font-size="10.00" fill="#000000">TStringBase&lt;character&gt;</text>
</a>
</g>
</g>
<!-- Node42&#45;&gt;Node41 -->
<g id="edge17" class="edge">
<title>Node42&#45;&gt;Node41</title>
<path fill="none" stroke="#191970" d="M408.2662,-545.6723C431.9863,-542.7256 457.522,-536.2497 478,-523 522.5347,-494.185 548.4805,-431.9177 557.1835,-407.8105"/>
<polygon fill="#191970" stroke="#191970" points="407.8102,-542.2009 398.2316,-546.7285 408.5431,-549.1624 407.8102,-542.2009"/>
</g>
<!-- Node7&#45;&gt;Node6 -->
<g id="edge1" class="edge">
<title>Node7&#45;&gt;Node6</title>
<path fill="none" stroke="#191970" d="M869.3927,-297C877.9219,-297 886.9543,-297 895.7179,-297"/>
<polygon fill="#191970" stroke="#191970" points="869.2906,-293.5001 859.2905,-297 869.2905,-300.5001 869.2906,-293.5001"/>
</g>
<!-- Node8&#45;&gt;Node7 -->
<g id="edge2" class="edge">
<title>Node8&#45;&gt;Node7</title>
<path fill="none" stroke="#191970" d="M603.3408,-225.0456C648.4816,-220.7126 720.576,-219.4167 776,-245 795.8811,-254.177 812.066,-274.9017 820.3948,-287.2369"/>
<polygon fill="#191970" stroke="#191970" points="602.882,-221.5744 593.3034,-226.1021 603.6149,-228.536 602.882,-221.5744"/>
</g>
<!-- Node9 -->
<g id="node10" class="node">
<title>Node9</title>
<g id="a_node10"><a xlink:href="classaworx_1_1lib_1_1lox_1_1core_1_1Logger.html" target="_top" xlink:title="Logger">
<polygon fill="#ffffff" stroke="#ff0000" points="313.5,-152.5 313.5,-171.5 359.5,-171.5 359.5,-152.5 313.5,-152.5"/>
<text text-anchor="middle" x="336.5" y="-159.5" font-family="Helvetica,sans-Serif" font-size="10.00" fill="#000000">Logger</text>
</a>
</g>
</g>
<!-- Node9&#45;&gt;Node8 -->
<g id="edge3" class="edge">
<title>Node9&#45;&gt;Node8</title>
<path fill="none" stroke="#191970" d="M369.9448,-167.6168C398.9457,-172.9455 441.8262,-181.932 478,-194 500.6338,-201.5509 525.4744,-213.179 541.922,-221.3807"/>
<polygon fill="#191970" stroke="#191970" points="370.3872,-164.1403 359.9264,-165.8201 369.1515,-171.0304 370.3872,-164.1403"/>
</g>
<!-- Node33&#45;&gt;Node8 -->
<g id="edge10" class="edge">
<title>Node33&#45;&gt;Node8</title>
<path fill="none" stroke="#9a32cd" stroke-dasharray="5,2" d="M370.7335,-313.8491C379.6323,-310.3735 389.1922,-306.5893 398,-303 433.7768,-288.4204 442.6733,-284.6386 478,-269 499.3409,-259.5527 523.5802,-248.3282 540.234,-240.5389"/>
<polygon fill="#9a32cd" stroke="#9a32cd" points="369.4562,-310.5903 361.4035,-317.4755 371.9922,-317.1148 369.4562,-310.5903"/>
<text text-anchor="middle" x="447" y="-298" font-family="Helvetica,sans-Serif" font-size="10.00" fill="#000000"> MetaInfo</text>
</g>
<!-- Node30 -->
<g id="node12" class="node">
<title>Node30</title>
<g id="a_node12"><a xlink:href="classaworx_1_1lib_1_1strings_1_1util_1_1AutoSizes.html" target="_top" xlink:title="AutoSizes">
<polygon fill="#ffffff" stroke="#ff0000" points="305.5,-114.5 305.5,-133.5 367.5,-133.5 367.5,-114.5 305.5,-114.5"/>
<text text-anchor="middle" x="336.5" y="-121.5" font-family="Helvetica,sans-Serif" font-size="10.00" fill="#000000">AutoSizes</text>
</a>
</g>
</g>
<!-- Node30&#45;&gt;Node8 -->
<g id="edge8" class="edge">
<title>Node30&#45;&gt;Node8</title>
<path fill="none" stroke="#9a32cd" stroke-dasharray="5,2" d="M377.5922,-130.1654C406.7992,-135.6866 446.3045,-145.5214 478,-162 508.483,-177.8482 537.7663,-206.5601 551.8269,-221.457"/>
<polygon fill="#9a32cd" stroke="#9a32cd" points="378.1824,-126.7155 367.7205,-128.3886 376.9423,-133.6048 378.1824,-126.7155"/>
<text text-anchor="middle" x="447" y="-165" font-family="Helvetica,sans-Serif" font-size="10.00" fill="#000000"> AutoSizes</text>
</g>
<!-- Node32 -->
<g id="node13" class="node">
<title>Node32</title>
<g id="a_node13"><a xlink:href="classaworx_1_1lib_1_1lox_1_1core_1_1textlogger_1_1ObjectConverter.html" target="_top" xlink:title="ObjectConverter">
<polygon fill="#ffffff" stroke="#000000" points="292.5,-76.5 292.5,-95.5 380.5,-95.5 380.5,-76.5 292.5,-76.5"/>
<text text-anchor="middle" x="336.5" y="-83.5" font-family="Helvetica,sans-Serif" font-size="10.00" fill="#000000">ObjectConverter</text>
</a>
</g>
</g>
<!-- Node32&#45;&gt;Node8 -->
<g id="edge9" class="edge">
<title>Node32&#45;&gt;Node8</title>
<path fill="none" stroke="#9a32cd" stroke-dasharray="5,2" d="M390.6846,-92.1242C418.5837,-97.2735 452.0848,-106.717 478,-124 516.8353,-149.8994 545.1456,-200.1895 555.8272,-221.3003"/>
<polygon fill="#9a32cd" stroke="#9a32cd" points="391.1306,-88.6497 380.6838,-90.4148 389.9511,-95.5497 391.1306,-88.6497"/>
<text text-anchor="middle" x="447" y="-127" font-family="Helvetica,sans-Serif" font-size="10.00" fill="#000000"> Converter</text>
</g>
<!-- Node47&#45;&gt;Node7 -->
<g id="edge18" class="edge">
<title>Node47&#45;&gt;Node7</title>
<path fill="none" stroke="#9a32cd" stroke-dasharray="5,2" d="M587.2856,-62.6767C631.0695,-87.6913 718.8089,-142.2169 776,-207 798.5292,-232.52 815.4342,-269.7345 822.6533,-287.2271"/>
<polygon fill="#9a32cd" stroke="#9a32cd" points="588.816,-59.5216 578.387,-57.6546 585.3755,-65.6177 588.816,-59.5216"/>
<text text-anchor="middle" x="709.5" y="-210" font-family="Helvetica,sans-Serif" font-size="10.00" fill="#000000"> writer</text>
</g>
<!-- Node49 -->
<g id="node15" class="node">
<title>Node49</title>
<g id="a_node15"><a xlink:title="STL class. ">
<polygon fill="#ffffff" stroke="#bfbfbf" points="310.5,-.5 310.5,-19.5 362.5,-19.5 362.5,-.5 310.5,-.5"/>
<text text-anchor="middle" x="336.5" y="-7.5" font-family="Helvetica,sans-Serif" font-size="10.00" fill="#000000">ostream</text>
</a>
</g>
</g>
<!-- Node49&#45;&gt;Node47 -->
<g id="edge20" class="edge">
<title>Node49&#45;&gt;Node47</title>
<path fill="none" stroke="#9a32cd" stroke-dasharray="5,2" d="M372.5528,-15.6695C401.1668,-20.2152 442.1745,-26.8321 478,-33 493.9248,-35.7417 511.5501,-38.9259 526.4073,-41.6534"/>
<polygon fill="#9a32cd" stroke="#9a32cd" points="373.0286,-12.2013 362.6041,-14.0931 371.9331,-19.115 373.0286,-12.2013"/>
<text text-anchor="middle" x="447" y="-36" font-family="Helvetica,sans-Serif" font-size="10.00" fill="#000000"> ostream</text>
</g>
</g>
</svg>
