<?xml version="1.0" encoding="UTF-8" standalone="no"?>
<!DOCTYPE svg PUBLIC "-//W3C//DTD SVG 1.1//EN"
 "http://www.w3.org/Graphics/SVG/1.1/DTD/svg11.dtd">
<!-- Generated by graphviz version 2.40.1 (20161225.0304)
 -->
<!-- Title: FormatterPythonStyleBase&lt;TChar&gt; Pages: 1 -->
<svg width="425pt" height="240pt"
 viewBox="0.00 0.00 424.50 240.00" xmlns="http://www.w3.org/2000/svg" xmlns:xlink="http://www.w3.org/1999/xlink">
<g id="graph0" class="graph" transform="scale(1 1) rotate(0) translate(4 236)">
<title>FormatterPythonStyleBase&lt;TChar&gt;</title>
<polygon fill="#ffffff" stroke="transparent" points="-4,4 -4,-236 420.5,-236 420.5,4 -4,4"/>
<!-- Node25 -->
<g id="node1" class="node">
<title>Node25</title>
<polygon fill="#ffffff" stroke="#bfbfbf" points="0,-145.5 0,-164.5 85,-164.5 85,-145.5 0,-145.5"/>
<text text-anchor="middle" x="42.5" y="-152.5" font-family="Helvetica,sans-Serif" font-size="10.00" fill="#000000">vector&lt;integer&gt;</text>
</g>
<!-- Node24 -->
<g id="node10" class="node">
<title>Node24</title>
<g id="a_node10"><a xlink:href="classaworx_1_1lib_1_1strings_1_1util_1_1AutoSizes.html" target="_top" xlink:title="AutoSizes">
<polygon fill="#ffffff" stroke="#000000" points="37.5,-67.5 37.5,-86.5 99.5,-86.5 99.5,-67.5 37.5,-67.5"/>
<text text-anchor="middle" x="68.5" y="-74.5" font-family="Helvetica,sans-Serif" font-size="10.00" fill="#000000">AutoSizes</text>
</a>
</g>
</g>
<!-- Node25&#45;&gt;Node24 -->
<g id="edge10" class="edge">
<title>Node25&#45;&gt;Node24</title>
<path fill="none" stroke="#9a32cd" stroke-dasharray="5,2" d="M48.9207,-135.7379C54.1172,-120.1484 61.2183,-98.845 65.2858,-86.6426"/>
<polygon fill="#9a32cd" stroke="#9a32cd" points="45.5301,-134.842 45.6881,-145.4357 52.1708,-137.0557 45.5301,-134.842"/>
<text text-anchor="middle" x="91.5" y="-119" font-family="Helvetica,sans-Serif" font-size="10.00" fill="#000000"> values</text>
<text text-anchor="middle" x="91.5" y="-108" font-family="Helvetica,sans-Serif" font-size="10.00" fill="#000000">sessionValues</text>
</g>
<!-- Node4 -->
<g id="node2" class="node">
<title>Node4</title>
<polygon fill="#bfbfbf" stroke="#000000" points="39,-.5 39,-19.5 212,-19.5 212,-.5 39,-.5"/>
<text text-anchor="middle" x="125.5" y="-7.5" font-family="Helvetica,sans-Serif" font-size="10.00" fill="#000000">FormatterPythonStyleBase&lt;TChar&gt;</text>
</g>
<!-- Node5 -->
<g id="node3" class="node">
<title>Node5</title>
<g id="a_node3"><a xlink:href="classaworx_1_1lib_1_1strings_1_1format_1_1FormatterStdImpl.html" target="_top" xlink:title="FormatterStdImpl\&lt;TChar\&gt;">
<polygon fill="#ffffff" stroke="#000000" points="168,-67.5 168,-86.5 299,-86.5 299,-67.5 168,-67.5"/>
<text text-anchor="middle" x="233.5" y="-74.5" font-family="Helvetica,sans-Serif" font-size="10.00" fill="#000000">FormatterStdImpl&lt;TChar&gt;</text>
</a>
</g>
</g>
<!-- Node5&#45;&gt;Node4 -->
<g id="edge1" class="edge">
<title>Node5&#45;&gt;Node4</title>
<path fill="none" stroke="#191970" d="M209.3802,-62.0368C188.4633,-49.0605 158.8167,-30.6687 140.9451,-19.5817"/>
<polygon fill="#191970" stroke="#191970" points="207.6835,-65.103 218.0262,-67.4005 211.3737,-59.1546 207.6835,-65.103"/>
</g>
<!-- Node6 -->
<g id="node4" class="node">
<title>Node6</title>
<g id="a_node4"><a xlink:href="classaworx_1_1lib_1_1strings_1_1format_1_1FormatterBase.html" target="_top" xlink:title="[DOX_ALIB_ENUM_META_DATA_SPECIFCATION_using_enum] ">
<polygon fill="#ffffff" stroke="#000000" points="103,-145.5 103,-164.5 222,-164.5 222,-145.5 103,-145.5"/>
<text text-anchor="middle" x="162.5" y="-152.5" font-family="Helvetica,sans-Serif" font-size="10.00" fill="#000000">FormatterBase&lt;TChar&gt;</text>
</a>
</g>
</g>
<!-- Node6&#45;&gt;Node5 -->
<g id="edge2" class="edge">
<title>Node6&#45;&gt;Node5</title>
<path fill="none" stroke="#191970" d="M178.0243,-137.9451C192.3402,-122.2178 213.0815,-99.4316 224.7228,-86.6426"/>
<polygon fill="#191970" stroke="#191970" points="175.3492,-135.6845 171.206,-145.4357 180.5258,-140.3966 175.3492,-135.6845"/>
</g>
<!-- Node7 -->
<g id="node5" class="node">
<title>Node7</title>
<g id="a_node5"><a xlink:href="classaworx_1_1lib_1_1threads_1_1ThreadLock.html" target="_top" xlink:title="ThreadLock">
<polygon fill="#ffffff" stroke="#ff0000" points="128.5,-212.5 128.5,-231.5 196.5,-231.5 196.5,-212.5 128.5,-212.5"/>
<text text-anchor="middle" x="162.5" y="-219.5" font-family="Helvetica,sans-Serif" font-size="10.00" fill="#000000">ThreadLock</text>
</a>
</g>
</g>
<!-- Node7&#45;&gt;Node6 -->
<g id="edge3" class="edge">
<title>Node7&#45;&gt;Node6</title>
<path fill="none" stroke="#191970" d="M162.5,-202.1079C162.5,-189.714 162.5,-174.3263 162.5,-164.5817"/>
<polygon fill="#191970" stroke="#191970" points="159.0001,-202.4005 162.5,-212.4005 166.0001,-202.4006 159.0001,-202.4005"/>
</g>
<!-- Node18 -->
<g id="node6" class="node">
<title>Node18</title>
<g id="a_node6"><a xlink:href="classaworx_1_1lib_1_1boxing_1_1Boxes.html" target="_top" xlink:title="Boxes">
<polygon fill="#ffffff" stroke="#ff0000" points="225.5,-212.5 225.5,-231.5 269.5,-231.5 269.5,-212.5 225.5,-212.5"/>
<text text-anchor="middle" x="247.5" y="-219.5" font-family="Helvetica,sans-Serif" font-size="10.00" fill="#000000">Boxes</text>
</a>
</g>
</g>
<!-- Node18&#45;&gt;Node5 -->
<g id="edge4" class="edge">
<title>Node18&#45;&gt;Node5</title>
<path fill="none" stroke="#9a32cd" stroke-dasharray="5,2" d="M246.0835,-202.2513C245.6135,-196.0829 245.0651,-189.2561 244.5,-183 241.2875,-147.4367 236.6667,-105.2485 234.587,-86.6378"/>
<polygon fill="#9a32cd" stroke="#9a32cd" points="242.6043,-202.6627 246.8315,-212.3776 249.5853,-202.147 242.6043,-202.6627"/>
<text text-anchor="middle" x="268" y="-152.5" font-family="Helvetica,sans-Serif" font-size="10.00" fill="#000000"> arguments</text>
</g>
<!-- Node18&#45;&gt;Node6 -->
<g id="edge5" class="edge">
<title>Node18&#45;&gt;Node6</title>
<path fill="none" stroke="#9a32cd" stroke-dasharray="5,2" d="M227.3993,-206.1559C211.0128,-193.2395 188.4061,-175.4201 174.6558,-164.5817"/>
<polygon fill="#9a32cd" stroke="#9a32cd" points="225.3013,-208.9588 235.3216,-212.4005 229.6347,-203.4613 225.3013,-208.9588"/>
<text text-anchor="middle" x="225.5" y="-186" font-family="Helvetica,sans-Serif" font-size="10.00" fill="#000000"> boxes</text>
</g>
<!-- Node21 -->
<g id="node7" class="node">
<title>Node21</title>
<g id="a_node7"><a xlink:href="classaworx_1_1lib_1_1boxing_1_1Box.html" target="_top" xlink:title="Box">
<polygon fill="#ffffff" stroke="#000000" points="325.5,-145.5 325.5,-164.5 359.5,-164.5 359.5,-145.5 325.5,-145.5"/>
<text text-anchor="middle" x="342.5" y="-152.5" font-family="Helvetica,sans-Serif" font-size="10.00" fill="#000000">Box</text>
</a>
</g>
</g>
<!-- Node21&#45;&gt;Node5 -->
<g id="edge6" class="edge">
<title>Node21&#45;&gt;Node5</title>
<path fill="none" stroke="#9a32cd" stroke-dasharray="5,2" d="M320.7527,-139.4377C298.7483,-123.6914 265.4206,-99.8423 246.9749,-86.6426"/>
<polygon fill="#9a32cd" stroke="#9a32cd" points="318.9653,-142.4625 329.1345,-145.4357 323.039,-136.7699 318.9653,-142.4625"/>
<text text-anchor="middle" x="332" y="-113.5" font-family="Helvetica,sans-Serif" font-size="10.00" fill="#000000"> phaArgument</text>
</g>
<!-- Node22 -->
<g id="node8" class="node">
<title>Node22</title>
<g id="a_node8"><a xlink:href="structaworx_1_1lib_1_1boxing_1_1BoxData.html" target="_top" xlink:title="BoxData">
<polygon fill="#ffffff" stroke="#000000" points="301,-212.5 301,-231.5 356,-231.5 356,-212.5 301,-212.5"/>
<text text-anchor="middle" x="328.5" y="-219.5" font-family="Helvetica,sans-Serif" font-size="10.00" fill="#000000">BoxData</text>
</a>
</g>
</g>
<!-- Node22&#45;&gt;Node21 -->
<g id="edge7" class="edge">
<title>Node22&#45;&gt;Node21</title>
<path fill="none" stroke="#9a32cd" stroke-dasharray="5,2" d="M332.5775,-202.4863C335.1806,-190.0286 338.4409,-174.4258 340.4979,-164.5817"/>
<polygon fill="#9a32cd" stroke="#9a32cd" points="329.1253,-201.896 330.5059,-212.4005 335.9773,-203.3279 329.1253,-201.896"/>
<text text-anchor="middle" x="347.5" y="-186" font-family="Helvetica,sans-Serif" font-size="10.00" fill="#000000"> data</text>
</g>
<!-- Node23 -->
<g id="node9" class="node">
<title>Node23</title>
<g id="a_node9"><a xlink:href="classaworx_1_1lib_1_1boxing_1_1Boxer.html" target="_top" xlink:title="Boxer">
<polygon fill="#ffffff" stroke="#000000" points="374.5,-212.5 374.5,-231.5 416.5,-231.5 416.5,-212.5 374.5,-212.5"/>
<text text-anchor="middle" x="395.5" y="-219.5" font-family="Helvetica,sans-Serif" font-size="10.00" fill="#000000">Boxer</text>
</a>
</g>
</g>
<!-- Node23&#45;&gt;Node21 -->
<g id="edge8" class="edge">
<title>Node23&#45;&gt;Node21</title>
<path fill="none" stroke="#9a32cd" stroke-dasharray="5,2" d="M381.537,-204.3486C371.4676,-191.6194 358.2599,-174.9229 350.0795,-164.5817"/>
<polygon fill="#9a32cd" stroke="#9a32cd" points="378.9573,-206.7291 387.9064,-212.4005 384.4473,-202.3863 378.9573,-206.7291"/>
<text text-anchor="middle" x="386.5" y="-186" font-family="Helvetica,sans-Serif" font-size="10.00" fill="#000000"> boxer</text>
</g>
<!-- Node24&#45;&gt;Node4 -->
<g id="edge9" class="edge">
<title>Node24&#45;&gt;Node4</title>
<path fill="none" stroke="#9a32cd" stroke-dasharray="5,2" d="M83.2054,-59.7147C94.0726,-46.941 108.466,-30.0224 117.3484,-19.5817"/>
<polygon fill="#9a32cd" stroke="#9a32cd" points="80.4807,-57.516 76.6667,-67.4005 85.8123,-62.0519 80.4807,-57.516"/>
<text text-anchor="middle" x="124" y="-41" font-family="Helvetica,sans-Serif" font-size="10.00" fill="#000000"> autoSizes</text>
</g>
</g>
</svg>
