<?xml version="1.0" encoding="UTF-8" standalone="no"?>
<!DOCTYPE svg PUBLIC "-//W3C//DTD SVG 1.1//EN"
 "http://www.w3.org/Graphics/SVG/1.1/DTD/svg11.dtd">
<!-- Generated by graphviz version 2.40.1 (20161225.0304)
 -->
<!-- Title: VirtualMachine::Command Pages: 1 -->
<svg width="1117pt" height="286pt"
 viewBox="0.00 0.00 1117.00 286.00" xmlns="http://www.w3.org/2000/svg" xmlns:xlink="http://www.w3.org/1999/xlink">
<g id="graph0" class="graph" transform="scale(1 1) rotate(0) translate(4 282)">
<title>VirtualMachine::Command</title>
<polygon fill="#ffffff" stroke="transparent" points="-4,4 -4,-282 1113,-282 1113,4 -4,4"/>
<!-- Node1 -->
<g id="node1" class="node">
<title>Node1</title>
<polygon fill="#bfbfbf" stroke="#000000" points="977,-162.5 977,-181.5 1109,-181.5 1109,-162.5 977,-162.5"/>
<text text-anchor="middle" x="1043" y="-169.5" font-family="Helvetica,sans-Serif" font-size="10.00" fill="#000000">VirtualMachine::Command</text>
</g>
<!-- Node39 -->
<g id="node2" class="node">
<title>Node39</title>
<g id="a_node2"><a xlink:title="STL class. ">
<polygon fill="#ffffff" stroke="#bfbfbf" points="313,-.5 313,-19.5 484,-19.5 484,-.5 313,-.5"/>
<text text-anchor="middle" x="398.5" y="-7.5" font-family="Helvetica,sans-Serif" font-size="10.00" fill="#000000">vector&lt;VirtualMachine::Command&gt;</text>
</a>
</g>
</g>
<!-- Node38 -->
<g id="node9" class="node">
<title>Node38</title>
<g id="a_node9"><a xlink:href="classaworx_1_1lib_1_1expressions_1_1detail_1_1Program.html" target="_top" xlink:title="Program">
<polygon fill="#ffffff" stroke="#000000" points="632,-100.5 632,-119.5 685,-119.5 685,-100.5 632,-100.5"/>
<text text-anchor="middle" x="658.5" y="-107.5" font-family="Helvetica,sans-Serif" font-size="10.00" fill="#000000">Program</text>
</a>
</g>
</g>
<!-- Node39&#45;&gt;Node38 -->
<g id="edge11" class="edge">
<title>Node39&#45;&gt;Node38</title>
<path fill="none" stroke="#006400" d="M494.1595,-13.9054C528.8455,-18.5395 567.2689,-27.6164 599,-45 602.2369,-46.7733 634.4115,-82.8172 650.0513,-100.4501"/>
<polygon fill="#006400" stroke="#006400" points="494.3589,-10.4036 484.0069,-12.6592 493.506,-17.3515 494.3589,-10.4036"/>
</g>
<!-- Node53 -->
<g id="node3" class="node">
<title>Node53</title>
<polygon fill="#ffffff" stroke="#bfbfbf" points="339.5,-143.5 339.5,-162.5 457.5,-162.5 457.5,-143.5 339.5,-143.5"/>
<text text-anchor="middle" x="398.5" y="-150.5" font-family="Helvetica,sans-Serif" font-size="10.00" fill="#000000">vector&lt;SPExpression&gt;</text>
</g>
<!-- Node53&#45;&gt;Node38 -->
<g id="edge17" class="edge">
<title>Node53&#45;&gt;Node38</title>
<path fill="none" stroke="#9a32cd" stroke-dasharray="5,2" d="M455.5735,-141.1759C465.1072,-138.9553 474.8641,-136.5305 484,-134 492.1268,-131.749 493.7671,-129.8249 502,-128 546.9915,-118.0273 600.5566,-113.3845 631.9173,-111.3759"/>
<polygon fill="#9a32cd" stroke="#9a32cd" points="454.7279,-137.7788 445.7547,-143.4118 456.2822,-144.604 454.7279,-137.7788"/>
<text text-anchor="middle" x="550.5" y="-131" font-family="Helvetica,sans-Serif" font-size="10.00" fill="#000000"> ctNestedExpressions</text>
</g>
<!-- Node2 -->
<g id="node4" class="node">
<title>Node2</title>
<g id="a_node4"><a xlink:href="classaworx_1_1lib_1_1strings_1_1StringBase.html" target="_top" xlink:title="StringBase\&lt;character\&gt;">
<polygon fill="#ffffff" stroke="#000000" points="0,-219.5 0,-238.5 117,-238.5 117,-219.5 0,-219.5"/>
<text text-anchor="middle" x="58.5" y="-226.5" font-family="Helvetica,sans-Serif" font-size="10.00" fill="#000000">StringBase&lt;character&gt;</text>
</a>
</g>
</g>
<!-- Node2&#45;&gt;Node1 -->
<g id="edge1" class="edge">
<title>Node2&#45;&gt;Node1</title>
<path fill="none" stroke="#9a32cd" stroke-dasharray="5,2" d="M109.4476,-240.5639C117.9491,-242.232 126.7006,-243.7903 135,-245 251.2898,-261.9501 280.9814,-267 398.5,-267 398.5,-267 398.5,-267 851.5,-267 927.581,-267 1004.613,-206.0812 1032.286,-181.8089"/>
<polygon fill="#9a32cd" stroke="#9a32cd" points="110.121,-237.1293 99.6246,-238.5696 108.7282,-243.9893 110.121,-237.1293"/>
<text text-anchor="middle" x="658.5" y="-270" font-family="Helvetica,sans-Serif" font-size="10.00" fill="#000000"> DecompileSymbol</text>
</g>
<!-- Node5 -->
<g id="node6" class="node">
<title>Node5</title>
<g id="a_node6"><a xlink:href="classaworx_1_1lib_1_1expressions_1_1Compiler.html" target="_top" xlink:title="Compiler">
<polygon fill="#ffffff" stroke="#ff0000" points="370.5,-181.5 370.5,-200.5 426.5,-200.5 426.5,-181.5 370.5,-181.5"/>
<text text-anchor="middle" x="398.5" y="-188.5" font-family="Helvetica,sans-Serif" font-size="10.00" fill="#000000">Compiler</text>
</a>
</g>
</g>
<!-- Node2&#45;&gt;Node5 -->
<g id="edge2" class="edge">
<title>Node2&#45;&gt;Node5</title>
<path fill="none" stroke="#9a32cd" stroke-dasharray="5,2" d="M127.5908,-221.2781C202.2621,-212.9325 317.6415,-200.0371 370.4171,-194.1387"/>
<polygon fill="#9a32cd" stroke="#9a32cd" points="126.8847,-217.8351 117.3353,-222.4243 127.6622,-224.7918 126.8847,-217.8351"/>
<text text-anchor="middle" x="215" y="-233" font-family="Helvetica,sans-Serif" font-size="10.00" fill="#000000"> CfgNestedExpressionOperator</text>
<text text-anchor="middle" x="215" y="-222" font-family="Helvetica,sans-Serif" font-size="10.00" fill="#000000">CfgNestedExpressionThrowIdentifier</text>
</g>
<!-- Node31 -->
<g id="node5" class="node">
<title>Node31</title>
<g id="a_node5"><a xlink:href="classaworx_1_1lib_1_1strings_1_1StringBase.html" target="_top" xlink:title="StringBase\&lt;TChar\&gt;">
<polygon fill="#ffffff" stroke="#ff0000" points="347,-219.5 347,-238.5 450,-238.5 450,-219.5 347,-219.5"/>
<text text-anchor="middle" x="398.5" y="-226.5" font-family="Helvetica,sans-Serif" font-size="10.00" fill="#000000">StringBase&lt;TChar&gt;</text>
</a>
</g>
</g>
<!-- Node4 -->
<g id="node8" class="node">
<title>Node4</title>
<g id="a_node8"><a xlink:href="structaworx_1_1lib_1_1expressions_1_1CompilerPlugin.html" target="_top" xlink:title="CompilerPlugin">
<polygon fill="#ffffff" stroke="#000000" points="617,-198.5 617,-217.5 700,-217.5 700,-198.5 617,-198.5"/>
<text text-anchor="middle" x="658.5" y="-205.5" font-family="Helvetica,sans-Serif" font-size="10.00" fill="#000000">CompilerPlugin</text>
</a>
</g>
</g>
<!-- Node31&#45;&gt;Node4 -->
<g id="edge7" class="edge">
<title>Node31&#45;&gt;Node4</title>
<path fill="none" stroke="#9a32cd" stroke-dasharray="5,2" d="M460.2111,-224.0156C508.5473,-220.1116 574.4723,-214.7869 616.7705,-211.3705"/>
<polygon fill="#9a32cd" stroke="#9a32cd" points="459.8642,-220.5322 450.1785,-224.826 460.4278,-227.5094 459.8642,-220.5322"/>
<text text-anchor="middle" x="550.5" y="-223" font-family="Helvetica,sans-Serif" font-size="10.00" fill="#000000"> Name</text>
</g>
<!-- Node5&#45;&gt;Node4 -->
<g id="edge5" class="edge">
<title>Node5&#45;&gt;Node4</title>
<path fill="none" stroke="#9a32cd" stroke-dasharray="5,2" d="M437.0569,-189.9782C477.5268,-189.3689 542.9377,-189.6962 599,-196 604.7595,-196.6476 610.7906,-197.5708 616.7108,-198.6214"/>
<polygon fill="#9a32cd" stroke="#9a32cd" points="436.7655,-186.4827 426.8295,-190.1603 436.8902,-193.4816 436.7655,-186.4827"/>
<text text-anchor="middle" x="550.5" y="-199" font-family="Helvetica,sans-Serif" font-size="10.00" fill="#000000"> Parent</text>
</g>
<!-- Node5&#45;&gt;Node38 -->
<g id="edge6" class="edge">
<title>Node5&#45;&gt;Node38</title>
<path fill="none" stroke="#9a32cd" stroke-dasharray="5,2" d="M436.5146,-183.8113C477.44,-175.461 544.0641,-160.0855 599,-139 613.4833,-133.441 629.2377,-125.6804 640.8949,-119.586"/>
<polygon fill="#9a32cd" stroke="#9a32cd" points="435.8029,-180.3843 426.6862,-185.7821 437.1792,-187.2477 435.8029,-180.3843"/>
<text text-anchor="middle" x="550.5" y="-170" font-family="Helvetica,sans-Serif" font-size="10.00" fill="#000000"> compiler</text>
</g>
<!-- Node3 -->
<g id="node7" class="node">
<title>Node3</title>
<g id="a_node7"><a xlink:href="structaworx_1_1lib_1_1expressions_1_1detail_1_1VirtualMachine_1_1Command_1_1DbgInformation.html" target="_top" xlink:title="DbgInformation">
<polygon fill="#ffffff" stroke="#000000" points="810,-185.5 810,-204.5 893,-204.5 893,-185.5 810,-185.5"/>
<text text-anchor="middle" x="851.5" y="-192.5" font-family="Helvetica,sans-Serif" font-size="10.00" fill="#000000">DbgInformation</text>
</a>
</g>
</g>
<!-- Node3&#45;&gt;Node1 -->
<g id="edge3" class="edge">
<title>Node3&#45;&gt;Node1</title>
<path fill="none" stroke="#9a32cd" stroke-dasharray="5,2" d="M903.1289,-188.7991C925.7585,-186.0812 952.5962,-182.8579 976.6817,-179.9651"/>
<polygon fill="#9a32cd" stroke="#9a32cd" points="902.5639,-185.3418 893.0526,-190.0093 903.3987,-192.2918 902.5639,-185.3418"/>
<text text-anchor="middle" x="936" y="-190" font-family="Helvetica,sans-Serif" font-size="10.00" fill="#000000"> DbgInfo</text>
</g>
<!-- Node4&#45;&gt;Node3 -->
<g id="edge4" class="edge">
<title>Node4&#45;&gt;Node3</title>
<path fill="none" stroke="#9a32cd" stroke-dasharray="5,2" d="M710.5944,-204.4911C741.6839,-202.3969 780.6374,-199.7731 809.7036,-197.8153"/>
<polygon fill="#9a32cd" stroke="#9a32cd" points="710.1203,-201.015 700.3781,-205.1792 710.5908,-207.9991 710.1203,-201.015"/>
<text text-anchor="middle" x="754" y="-206" font-family="Helvetica,sans-Serif" font-size="10.00" fill="#000000"> Plugin</text>
</g>
<!-- Node37 -->
<g id="node10" class="node">
<title>Node37</title>
<g id="a_node10"><a xlink:href="unionaworx_1_1lib_1_1expressions_1_1detail_1_1VirtualMachine_1_1Command_1_1OperationParam.html" target="_top" xlink:title="OperationParam">
<polygon fill="#ffffff" stroke="#000000" points="808,-96.5 808,-115.5 895,-115.5 895,-96.5 808,-96.5"/>
<text text-anchor="middle" x="851.5" y="-103.5" font-family="Helvetica,sans-Serif" font-size="10.00" fill="#000000">OperationParam</text>
</a>
</g>
</g>
<!-- Node38&#45;&gt;Node37 -->
<g id="edge9" class="edge">
<title>Node38&#45;&gt;Node37</title>
<path fill="none" stroke="#9a32cd" stroke-dasharray="5,2" d="M695.1497,-107.9047C702.7035,-107.5424 710.6079,-107.2139 718,-107 748.0026,-106.1317 781.8128,-105.8859 807.9009,-105.8551"/>
<polygon fill="#9a32cd" stroke="#9a32cd" points="694.9572,-104.4099 685.1474,-108.4122 695.312,-111.4009 694.9572,-104.4099"/>
<text text-anchor="middle" x="754" y="-110" font-family="Helvetica,sans-Serif" font-size="10.00" fill="#000000"> NestedProgram</text>
</g>
<!-- Node41 -->
<g id="node11" class="node">
<title>Node41</title>
<g id="a_node11"><a xlink:href="classaworx_1_1lib_1_1expressions_1_1Expression.html" target="_top" xlink:title="Expression">
<polygon fill="#ffffff" stroke="#ff0000" points="819,-140.5 819,-159.5 884,-159.5 884,-140.5 819,-140.5"/>
<text text-anchor="middle" x="851.5" y="-147.5" font-family="Helvetica,sans-Serif" font-size="10.00" fill="#000000">Expression</text>
</a>
</g>
</g>
<!-- Node38&#45;&gt;Node41 -->
<g id="edge10" class="edge">
<title>Node38&#45;&gt;Node41</title>
<path fill="none" stroke="#9a32cd" stroke-dasharray="5,2" d="M675.5878,-126.4015C686.7044,-135.8953 702.0579,-146.9402 718,-152 751.1404,-162.5183 791.278,-160.0239 818.8351,-156.1548"/>
<polygon fill="#9a32cd" stroke="#9a32cd" points="677.7536,-123.6425 667.9732,-119.5688 673.0786,-128.8525 677.7536,-123.6425"/>
<text text-anchor="middle" x="754" y="-162" font-family="Helvetica,sans-Serif" font-size="10.00" fill="#000000"> program</text>
</g>
<!-- Node37&#45;&gt;Node1 -->
<g id="edge8" class="edge">
<title>Node37&#45;&gt;Node1</title>
<path fill="none" stroke="#9a32cd" stroke-dasharray="5,2" d="M888.8212,-118.8627C925.9758,-131.6679 982.1336,-151.0225 1015.4313,-162.4985"/>
<polygon fill="#9a32cd" stroke="#9a32cd" points="889.9405,-115.5464 879.3457,-115.597 887.6595,-122.1644 889.9405,-115.5464"/>
<text text-anchor="middle" x="936" y="-145" font-family="Helvetica,sans-Serif" font-size="10.00" fill="#000000"> Operation</text>
</g>
<!-- Node41&#45;&gt;Node38 -->
<g id="edge12" class="edge">
<title>Node41&#45;&gt;Node38</title>
<path fill="none" stroke="#9a32cd" stroke-dasharray="5,2" d="M808.5915,-141.107C770.902,-133.2958 717.2414,-122.1744 685.3358,-115.5618"/>
<polygon fill="#9a32cd" stroke="#9a32cd" points="808.2648,-144.6136 818.767,-143.216 809.6854,-137.7593 808.2648,-144.6136"/>
<text text-anchor="middle" x="754" y="-140" font-family="Helvetica,sans-Serif" font-size="10.00" fill="#000000"> expression</text>
</g>
<!-- Node42 -->
<g id="node12" class="node">
<title>Node42</title>
<g id="a_node12"><a xlink:href="structaworx_1_1lib_1_1expressions_1_1Scope.html" target="_top" xlink:title="Scope">
<polygon fill="#ffffff" stroke="#ff0000" points="376.5,-76.5 376.5,-95.5 420.5,-95.5 420.5,-76.5 376.5,-76.5"/>
<text text-anchor="middle" x="398.5" y="-83.5" font-family="Helvetica,sans-Serif" font-size="10.00" fill="#000000">Scope</text>
</a>
</g>
</g>
<!-- Node42&#45;&gt;Node38 -->
<g id="edge13" class="edge">
<title>Node42&#45;&gt;Node38</title>
<path fill="none" stroke="#9a32cd" stroke-dasharray="5,2" d="M430.7706,-85.0891C470.5665,-84.4697 540.1658,-85.0307 599,-94 609.8919,-95.6605 621.6511,-98.5749 631.8165,-101.4654"/>
<polygon fill="#9a32cd" stroke="#9a32cd" points="430.5386,-81.5928 420.6074,-85.2837 430.6726,-88.5915 430.5386,-81.5928"/>
<text text-anchor="middle" x="550.5" y="-97" font-family="Helvetica,sans-Serif" font-size="10.00" fill="#000000"> ctScope</text>
</g>
<!-- Node42&#45;&gt;Node42 -->
<g id="edge14" class="edge">
<title>Node42&#45;&gt;Node42</title>
<path fill="none" stroke="#9a32cd" stroke-dasharray="5,2" d="M370.0305,-102.9239C369.3886,-109.023 378.8784,-114 398.5,-114 426.4063,-114 433.8188,-103.9329 420.7378,-94.8883"/>
<polygon fill="#9a32cd" stroke="#9a32cd" points="372.8997,-104.9354 376.2622,-94.8883 367.3681,-100.6456 372.8997,-104.9354"/>
<text text-anchor="middle" x="398.5" y="-117" font-family="Helvetica,sans-Serif" font-size="10.00" fill="#000000"> CTScope</text>
</g>
<!-- Node50 -->
<g id="node13" class="node">
<title>Node50</title>
<g id="a_node13"><a xlink:href="classaworx_1_1lib_1_1boxing_1_1Box.html" target="_top" xlink:title="Box">
<polygon fill="#ffffff" stroke="#ff0000" points="641.5,-34.5 641.5,-53.5 675.5,-53.5 675.5,-34.5 641.5,-34.5"/>
<text text-anchor="middle" x="658.5" y="-41.5" font-family="Helvetica,sans-Serif" font-size="10.00" fill="#000000">Box</text>
</a>
</g>
</g>
<!-- Node50&#45;&gt;Node1 -->
<g id="edge15" class="edge">
<title>Node50&#45;&gt;Node1</title>
<path fill="none" stroke="#9a32cd" stroke-dasharray="5,2" d="M685.7856,-43.2822C731.0378,-43.0402 823.692,-46.6067 895,-76 950.498,-98.8763 1007.7696,-142.9967 1031.567,-162.4215"/>
<polygon fill="#9a32cd" stroke="#9a32cd" points="685.5536,-39.7847 675.5974,-43.4074 685.6397,-46.7842 685.5536,-39.7847"/>
<text text-anchor="middle" x="851.5" y="-79" font-family="Helvetica,sans-Serif" font-size="10.00" fill="#000000"> ResultType</text>
</g>
<!-- Node50&#45;&gt;Node37 -->
<g id="edge16" class="edge">
<title>Node50&#45;&gt;Node37</title>
<path fill="none" stroke="#9a32cd" stroke-dasharray="5,2" d="M685.6095,-49.9295C712.457,-56.1009 754.5694,-66.59 790,-79 804.3067,-84.0111 819.9424,-90.8954 831.868,-96.4582"/>
<polygon fill="#9a32cd" stroke="#9a32cd" points="686.302,-46.4978 675.7762,-47.7058 684.7579,-53.3254 686.302,-46.4978"/>
<text text-anchor="middle" x="754" y="-93" font-family="Helvetica,sans-Serif" font-size="10.00" fill="#000000"> Value</text>
<text text-anchor="middle" x="754" y="-82" font-family="Helvetica,sans-Serif" font-size="10.00" fill="#000000">Callback</text>
</g>
<!-- Node54 -->
<g id="node14" class="node">
<title>Node54</title>
<g id="a_node14"><a xlink:href="structaworx_1_1lib_1_1expressions_1_1detail_1_1Program_1_1CompileStorage.html" target="_top" xlink:title="CompileStorage">
<polygon fill="#ffffff" stroke="#ff0000" points="355.5,-38.5 355.5,-57.5 441.5,-57.5 441.5,-38.5 355.5,-38.5"/>
<text text-anchor="middle" x="398.5" y="-45.5" font-family="Helvetica,sans-Serif" font-size="10.00" fill="#000000">CompileStorage</text>
</a>
</g>
</g>
<!-- Node54&#45;&gt;Node38 -->
<g id="edge18" class="edge">
<title>Node54&#45;&gt;Node38</title>
<path fill="none" stroke="#9a32cd" stroke-dasharray="5,2" d="M451.8326,-46.9826C493.1661,-47.8067 551.2483,-52.5379 599,-70 617.704,-76.8398 636.2702,-90.7549 647.5646,-100.2293"/>
<polygon fill="#9a32cd" stroke="#9a32cd" points="451.7458,-43.4812 441.7014,-46.8518 451.6554,-50.4807 451.7458,-43.4812"/>
<text text-anchor="middle" x="550.5" y="-73" font-family="Helvetica,sans-Serif" font-size="10.00" fill="#000000"> compileStorage</text>
</g>
</g>
</svg>
