<?xml version="1.0" encoding="UTF-8" standalone="no"?>
<!DOCTYPE svg PUBLIC "-//W3C//DTD SVG 1.1//EN"
 "http://www.w3.org/Graphics/SVG/1.1/DTD/svg11.dtd">
<!-- Generated by graphviz version 2.40.1 (20161225.0304)
 -->
<!-- Title: ThreadLock Pages: 1 -->
<svg width="746pt" height="218pt"
 viewBox="0.00 0.00 746.00 218.00" xmlns="http://www.w3.org/2000/svg" xmlns:xlink="http://www.w3.org/1999/xlink">
<g id="graph0" class="graph" transform="scale(1 1) rotate(0) translate(4 214)">
<title>ThreadLock</title>
<polygon fill="#ffffff" stroke="transparent" points="-4,4 -4,-214 742,-214 742,4 -4,4"/>
<!-- Node0 -->
<g id="node1" class="node">
<title>Node0</title>
<polygon fill="#bfbfbf" stroke="#000000" points="0,-114.5 0,-133.5 68,-133.5 68,-114.5 0,-114.5"/>
<text text-anchor="middle" x="34" y="-121.5" font-family="Helvetica,sans-Serif" font-size="10.00" fill="#000000">ThreadLock</text>
</g>
<!-- Node18 -->
<g id="node2" class="node">
<title>Node18</title>
<g id="a_node2"><a xlink:href="classaworx_1_1lib_1_1util_1_1PluginContainer.html" target="_top" xlink:title="PluginContainer\&lt;pTPlugin, pTPriorities\&gt;">
<polygon fill="#ffffff" stroke="#000000" points="130.5,-190.5 130.5,-209.5 321.5,-209.5 321.5,-190.5 130.5,-190.5"/>
<text text-anchor="middle" x="226" y="-197.5" font-family="Helvetica,sans-Serif" font-size="10.00" fill="#000000">PluginContainer&lt;pTPlugin, pTPriorities&gt;</text>
</a>
</g>
</g>
<!-- Node0&#45;&gt;Node18 -->
<g id="edge3" class="edge">
<title>Node0&#45;&gt;Node18</title>
<path fill="none" stroke="#191970" d="M50.1558,-141.4395C63.3368,-154.5203 83.1332,-171.7079 104,-181 112.714,-184.8804 122.0849,-187.9859 131.6211,-190.4686"/>
<polygon fill="#191970" stroke="#191970" points="52.335,-138.6602 42.8532,-133.9329 47.3175,-143.5413 52.335,-138.6602"/>
</g>
<!-- Node19 -->
<g id="node3" class="node">
<title>Node19</title>
<g id="a_node3"><a xlink:href="classaworx_1_1lib_1_1util_1_1PluginContainer.html" target="_top" xlink:title="PluginContainer\&lt;CompilerPlugin, CompilePriorities\&gt;">
<polygon fill="#ffffff" stroke="#000000" points="104,-152.5 104,-171.5 348,-171.5 348,-152.5 104,-152.5"/>
<text text-anchor="middle" x="226" y="-159.5" font-family="Helvetica,sans-Serif" font-size="10.00" fill="#000000">PluginContainer&lt;CompilerPlugin, CompilePriorities&gt;</text>
</a>
</g>
</g>
<!-- Node0&#45;&gt;Node19 -->
<g id="edge4" class="edge">
<title>Node0&#45;&gt;Node19</title>
<path fill="none" stroke="#191970" d="M75.9507,-136.1958C85.1468,-138.6422 94.8647,-141.0551 104,-143 120.7728,-146.571 138.9766,-149.7655 156.0792,-152.4702"/>
<polygon fill="#191970" stroke="#191970" points="76.7974,-132.799 66.2292,-133.5486 74.9583,-139.5531 76.7974,-132.799"/>
</g>
<!-- Node21 -->
<g id="node4" class="node">
<title>Node21</title>
<g id="a_node4"><a xlink:href="classaworx_1_1lib_1_1util_1_1PluginContainer.html" target="_top" xlink:title="PluginContainer\&lt;ConfigurationPlugin, Priorities\&gt;">
<polygon fill="#ffffff" stroke="#000000" points="112.5,-114.5 112.5,-133.5 339.5,-133.5 339.5,-114.5 112.5,-114.5"/>
<text text-anchor="middle" x="226" y="-121.5" font-family="Helvetica,sans-Serif" font-size="10.00" fill="#000000">PluginContainer&lt;ConfigurationPlugin, Priorities&gt;</text>
</a>
</g>
</g>
<!-- Node0&#45;&gt;Node21 -->
<g id="edge5" class="edge">
<title>Node0&#45;&gt;Node21</title>
<path fill="none" stroke="#191970" d="M78.6387,-124C88.9547,-124 100.3921,-124 112.2019,-124"/>
<polygon fill="#191970" stroke="#191970" points="78.3258,-120.5001 68.3258,-124 78.3257,-127.5001 78.3258,-120.5001"/>
</g>
<!-- Node1 -->
<g id="node5" class="node">
<title>Node1</title>
<g id="a_node5"><a xlink:href="classaworx_1_1lib_1_1strings_1_1format_1_1FormatterBase.html" target="_top" xlink:title="[DOX_ALIB_ENUM_META_DATA_SPECIFCATION_using_enum] ">
<polygon fill="#ffffff" stroke="#000000" points="166.5,-76.5 166.5,-95.5 285.5,-95.5 285.5,-76.5 166.5,-76.5"/>
<text text-anchor="middle" x="226" y="-83.5" font-family="Helvetica,sans-Serif" font-size="10.00" fill="#000000">FormatterBase&lt;TChar&gt;</text>
</a>
</g>
</g>
<!-- Node0&#45;&gt;Node1 -->
<g id="edge1" class="edge">
<title>Node0&#45;&gt;Node1</title>
<path fill="none" stroke="#191970" d="M75.9507,-111.8042C85.1468,-109.3578 94.8647,-106.9449 104,-105 124.2322,-100.6925 146.5466,-96.9327 166.4986,-93.9197"/>
<polygon fill="#191970" stroke="#191970" points="74.9583,-108.4469 66.2292,-114.4514 76.7974,-115.201 74.9583,-108.4469"/>
</g>
<!-- Node7 -->
<g id="node11" class="node">
<title>Node7</title>
<g id="a_node11"><a xlink:href="classaworx_1_1lib_1_1threads_1_1SmartLock.html" target="_top" xlink:title="SmartLock">
<polygon fill="#ffffff" stroke="#000000" points="194,-29.5 194,-48.5 258,-48.5 258,-29.5 194,-29.5"/>
<text text-anchor="middle" x="226" y="-36.5" font-family="Helvetica,sans-Serif" font-size="10.00" fill="#000000">SmartLock</text>
</a>
</g>
</g>
<!-- Node0&#45;&gt;Node7 -->
<g id="edge2" class="edge">
<title>Node0&#45;&gt;Node7</title>
<path fill="none" stroke="#191970" d="M50.3469,-106.9699C63.6326,-94.1135 83.4767,-77.028 104,-67 132.6043,-53.0236 168.4236,-45.8739 193.8326,-42.3147"/>
<polygon fill="#191970" stroke="#191970" points="47.5805,-104.786 42.9747,-114.3274 52.5253,-109.7407 47.5805,-104.786"/>
</g>
<!-- Node20 -->
<g id="node14" class="node">
<title>Node20</title>
<g id="a_node14"><a xlink:href="classaworx_1_1lib_1_1expressions_1_1Compiler.html" target="_top" xlink:title="Compiler">
<polygon fill="#ffffff" stroke="#000000" points="421.5,-152.5 421.5,-171.5 477.5,-171.5 477.5,-152.5 421.5,-152.5"/>
<text text-anchor="middle" x="449.5" y="-159.5" font-family="Helvetica,sans-Serif" font-size="10.00" fill="#000000">Compiler</text>
</a>
</g>
</g>
<!-- Node19&#45;&gt;Node20 -->
<g id="edge13" class="edge">
<title>Node19&#45;&gt;Node20</title>
<path fill="none" stroke="#191970" d="M358.4782,-162C382.2755,-162 404.7732,-162 421.4481,-162"/>
<polygon fill="#191970" stroke="#191970" points="358.213,-158.5001 348.2129,-162 358.2129,-165.5001 358.213,-158.5001"/>
</g>
<!-- Node22 -->
<g id="node15" class="node">
<title>Node22</title>
<g id="a_node15"><a xlink:href="classaworx_1_1lib_1_1config_1_1Configuration.html" target="_top" xlink:title="Configuration">
<polygon fill="#ffffff" stroke="#000000" points="412.5,-114.5 412.5,-133.5 486.5,-133.5 486.5,-114.5 412.5,-114.5"/>
<text text-anchor="middle" x="449.5" y="-121.5" font-family="Helvetica,sans-Serif" font-size="10.00" fill="#000000">Configuration</text>
</a>
</g>
</g>
<!-- Node21&#45;&gt;Node22 -->
<g id="edge14" class="edge">
<title>Node21&#45;&gt;Node22</title>
<path fill="none" stroke="#191970" d="M349.87,-124C372.6733,-124 394.7955,-124 412.3779,-124"/>
<polygon fill="#191970" stroke="#191970" points="349.7143,-120.5001 339.7143,-124 349.7142,-127.5001 349.7143,-120.5001"/>
</g>
<!-- Node2 -->
<g id="node6" class="node">
<title>Node2</title>
<g id="a_node6"><a xlink:href="classaworx_1_1lib_1_1strings_1_1format_1_1FormatterStdImpl.html" target="_top" xlink:title="FormatterStdImpl\&lt;TChar\&gt;">
<polygon fill="#ffffff" stroke="#000000" points="384,-76.5 384,-95.5 515,-95.5 515,-76.5 384,-76.5"/>
<text text-anchor="middle" x="449.5" y="-83.5" font-family="Helvetica,sans-Serif" font-size="10.00" fill="#000000">FormatterStdImpl&lt;TChar&gt;</text>
</a>
</g>
</g>
<!-- Node1&#45;&gt;Node2 -->
<g id="edge6" class="edge">
<title>Node1&#45;&gt;Node2</title>
<path fill="none" stroke="#191970" d="M295.749,-86C323.8486,-86 356.0945,-86 383.7751,-86"/>
<polygon fill="#191970" stroke="#191970" points="295.6003,-82.5001 285.6003,-86 295.6003,-89.5001 295.6003,-82.5001"/>
</g>
<!-- Node3 -->
<g id="node7" class="node">
<title>Node3</title>
<g id="a_node7"><a xlink:href="classaworx_1_1lib_1_1strings_1_1format_1_1FormatterJavaStyleBase.html" target="_top" xlink:title="FormatterJavaStyleBase\&lt;TChar\&gt;">
<polygon fill="#ffffff" stroke="#000000" points="563,-152.5 563,-171.5 726,-171.5 726,-152.5 563,-152.5"/>
<text text-anchor="middle" x="644.5" y="-159.5" font-family="Helvetica,sans-Serif" font-size="10.00" fill="#000000">FormatterJavaStyleBase&lt;TChar&gt;</text>
</a>
</g>
</g>
<!-- Node2&#45;&gt;Node3 -->
<g id="edge7" class="edge">
<title>Node2&#45;&gt;Node3</title>
<path fill="none" stroke="#191970" d="M504.117,-99.3707C507.903,-101.0414 511.572,-102.9106 515,-105 534.8654,-117.1079 530.6559,-131.715 551,-143 557.9529,-146.8568 565.5855,-149.9352 573.3986,-152.3917"/>
<polygon fill="#191970" stroke="#191970" points="505.1234,-96.0059 494.5358,-95.6142 502.5682,-102.5229 505.1234,-96.0059"/>
</g>
<!-- Node4 -->
<g id="node8" class="node">
<title>Node4</title>
<g id="a_node8"><a xlink:href="classaworx_1_1lib_1_1strings_1_1format_1_1FormatterPythonStyleBase.html" target="_top" xlink:title="FormatterPythonStyleBase\&lt;TChar\&gt;">
<polygon fill="#ffffff" stroke="#000000" points="558,-114.5 558,-133.5 731,-133.5 731,-114.5 558,-114.5"/>
<text text-anchor="middle" x="644.5" y="-121.5" font-family="Helvetica,sans-Serif" font-size="10.00" fill="#000000">FormatterPythonStyleBase&lt;TChar&gt;</text>
</a>
</g>
</g>
<!-- Node2&#45;&gt;Node4 -->
<g id="edge8" class="edge">
<title>Node2&#45;&gt;Node4</title>
<path fill="none" stroke="#191970" d="M508.4588,-97.4894C536.282,-102.9114 569.0957,-109.3058 595.5248,-114.4561"/>
<polygon fill="#191970" stroke="#191970" points="508.9399,-94.0174 498.455,-95.54 507.6009,-100.8882 508.9399,-94.0174"/>
</g>
<!-- Node5 -->
<g id="node9" class="node">
<title>Node5</title>
<g id="a_node9"><a xlink:href="classaworx_1_1lib_1_1strings_1_1format_1_1FormatterJavaStyleBase.html" target="_top" xlink:title="FormatterJavaStyleBase\&lt;character\&gt;">
<polygon fill="#ffffff" stroke="#000000" points="556,-76.5 556,-95.5 733,-95.5 733,-76.5 556,-76.5"/>
<text text-anchor="middle" x="644.5" y="-83.5" font-family="Helvetica,sans-Serif" font-size="10.00" fill="#000000">FormatterJavaStyleBase&lt;character&gt;</text>
</a>
</g>
</g>
<!-- Node2&#45;&gt;Node5 -->
<g id="edge9" class="edge">
<title>Node2&#45;&gt;Node5</title>
<path fill="none" stroke="#191970" d="M525.4885,-86C535.4441,-86 545.7147,-86 555.8564,-86"/>
<polygon fill="#191970" stroke="#191970" points="525.2463,-82.5001 515.2463,-86 525.2462,-89.5001 525.2463,-82.5001"/>
</g>
<!-- Node6 -->
<g id="node10" class="node">
<title>Node6</title>
<g id="a_node10"><a xlink:href="classaworx_1_1lib_1_1strings_1_1format_1_1FormatterPythonStyleBase.html" target="_top" xlink:title="FormatterPythonStyleBase\&lt;character\&gt;">
<polygon fill="#ffffff" stroke="#000000" points="551,-38.5 551,-57.5 738,-57.5 738,-38.5 551,-38.5"/>
<text text-anchor="middle" x="644.5" y="-45.5" font-family="Helvetica,sans-Serif" font-size="10.00" fill="#000000">FormatterPythonStyleBase&lt;character&gt;</text>
</a>
</g>
</g>
<!-- Node2&#45;&gt;Node6 -->
<g id="edge10" class="edge">
<title>Node2&#45;&gt;Node6</title>
<path fill="none" stroke="#191970" d="M508.4588,-74.5106C536.282,-69.0886 569.0957,-62.6942 595.5248,-57.5439"/>
<polygon fill="#191970" stroke="#191970" points="507.6009,-71.1118 498.455,-76.46 508.9399,-77.9826 507.6009,-71.1118"/>
</g>
<!-- Node8 -->
<g id="node12" class="node">
<title>Node8</title>
<g id="a_node12"><a xlink:href="classaworx_1_1lib_1_1lox_1_1core_1_1Logger.html" target="_top" xlink:title="Logger">
<polygon fill="#ffffff" stroke="#000000" points="426.5,-10.5 426.5,-29.5 472.5,-29.5 472.5,-10.5 426.5,-10.5"/>
<text text-anchor="middle" x="449.5" y="-17.5" font-family="Helvetica,sans-Serif" font-size="10.00" fill="#000000">Logger</text>
</a>
</g>
</g>
<!-- Node7&#45;&gt;Node8 -->
<g id="edge11" class="edge">
<title>Node7&#45;&gt;Node8</title>
<path fill="none" stroke="#191970" d="M268.1673,-35.4153C315.0565,-31.4292 389.0922,-25.1353 426.394,-21.9643"/>
<polygon fill="#191970" stroke="#191970" points="267.6897,-31.9432 258.0221,-36.2778 268.2827,-38.918 267.6897,-31.9432"/>
</g>
<!-- Node9 -->
<g id="node13" class="node">
<title>Node9</title>
<g id="a_node13"><a xlink:href="classaworx_1_1lib_1_1lox_1_1core_1_1textlogger_1_1TextLogger.html" target="_top" xlink:title="TextLogger">
<polygon fill="#ffffff" stroke="#ff0000" points="612,-.5 612,-19.5 677,-19.5 677,-.5 612,-.5"/>
<text text-anchor="middle" x="644.5" y="-7.5" font-family="Helvetica,sans-Serif" font-size="10.00" fill="#000000">TextLogger</text>
</a>
</g>
</g>
<!-- Node8&#45;&gt;Node9 -->
<g id="edge12" class="edge">
<title>Node8&#45;&gt;Node9</title>
<path fill="none" stroke="#191970" d="M482.6655,-18.2992C518.7754,-16.4474 576.1496,-13.5051 611.9969,-11.6668"/>
<polygon fill="#191970" stroke="#191970" points="482.4424,-14.806 472.6348,-18.8136 482.801,-21.7968 482.4424,-14.806"/>
</g>
</g>
</svg>
