<?xml version="1.0" encoding="UTF-8" standalone="no"?>
<!DOCTYPE svg PUBLIC "-//W3C//DTD SVG 1.1//EN"
 "http://www.w3.org/Graphics/SVG/1.1/DTD/svg11.dtd">
<!-- Generated by graphviz version 2.40.1 (20161225.0304)
 -->
<!-- Title: IApply_TApplicable&lt;TChar, TApplicable&gt; Pages: 1 -->
<svg width="356pt" height="140pt"
 viewBox="0.00 0.00 355.50 140.00" xmlns="http://www.w3.org/2000/svg" xmlns:xlink="http://www.w3.org/1999/xlink">
<g id="graph0" class="graph" transform="scale(1 1) rotate(0) translate(4 136)">
<title>IApply_TApplicable&lt;TChar, TApplicable&gt;</title>
<polygon fill="#ffffff" stroke="transparent" points="-4,4 -4,-136 351.5,-136 351.5,4 -4,4"/>
<!-- Node0 -->
<g id="node1" class="node">
<title>Node0</title>
<polygon fill="#bfbfbf" stroke="#000000" points="117,-.5 117,-19.5 311,-19.5 311,-.5 117,-.5"/>
<text text-anchor="middle" x="214" y="-7.5" font-family="Helvetica,sans-Serif" font-size="10.00" fill="#000000">IApply_TApplicable&lt;TChar, TApplicable&gt;</text>
</g>
<!-- Node3 -->
<g id="node2" class="node">
<title>Node3</title>
<g id="a_node2"><a xlink:href="classaworx_1_1lib_1_1lang_1_1Singleton.html" target="_top" xlink:title="Singleton\&lt;IApply_TApplicable\&lt;TChar, TApplicable\&gt;\&gt;">
<polygon fill="#ffffff" stroke="#000000" points="0,-56.5 0,-75.5 246,-75.5 246,-56.5 0,-56.5"/>
<text text-anchor="middle" x="123" y="-63.5" font-family="Helvetica,sans-Serif" font-size="10.00" fill="#000000">Singleton&lt;IApply_TApplicable&lt;TChar, TApplicable&gt;&gt;</text>
</a>
</g>
</g>
<!-- Node3&#45;&gt;Node0 -->
<g id="edge3" class="edge">
<title>Node3&#45;&gt;Node0</title>
<path fill="none" stroke="#191970" d="M147.7504,-50.769C163.8758,-40.8456 184.426,-28.1994 198.3307,-19.6427"/>
<polygon fill="#191970" stroke="#191970" points="145.5332,-48.0237 138.851,-56.2455 149.2019,-53.9853 145.5332,-48.0237"/>
</g>
<!-- Node1 -->
<g id="node3" class="node">
<title>Node1</title>
<g id="a_node3"><a xlink:href="classaworx_1_1lib_1_1strings_1_1boxing_1_1IApply.html" target="_top" xlink:title="IApply\&lt;TChar\&gt;">
<polygon fill="#ffffff" stroke="#000000" points="264.5,-56.5 264.5,-75.5 347.5,-75.5 347.5,-56.5 264.5,-56.5"/>
<text text-anchor="middle" x="306" y="-63.5" font-family="Helvetica,sans-Serif" font-size="10.00" fill="#000000">IApply&lt;TChar&gt;</text>
</a>
</g>
</g>
<!-- Node1&#45;&gt;Node0 -->
<g id="edge1" class="edge">
<title>Node1&#45;&gt;Node0</title>
<path fill="none" stroke="#191970" d="M280.9776,-50.769C264.675,-40.8456 243.899,-28.1994 229.8415,-19.6427"/>
<polygon fill="#191970" stroke="#191970" points="279.613,-54.0357 289.9748,-56.2455 283.2527,-48.0563 279.613,-54.0357"/>
</g>
<!-- Node2 -->
<g id="node4" class="node">
<title>Node2</title>
<g id="a_node4"><a xlink:href="classaworx_1_1lib_1_1boxing_1_1Interface.html" target="_top" xlink:title="Interface">
<polygon fill="#ffffff" stroke="#000000" points="278.5,-112.5 278.5,-131.5 333.5,-131.5 333.5,-112.5 278.5,-112.5"/>
<text text-anchor="middle" x="306" y="-119.5" font-family="Helvetica,sans-Serif" font-size="10.00" fill="#000000">Interface</text>
</a>
</g>
</g>
<!-- Node2&#45;&gt;Node1 -->
<g id="edge2" class="edge">
<title>Node2&#45;&gt;Node1</title>
<path fill="none" stroke="#191970" d="M306,-102.1575C306,-93.155 306,-82.9199 306,-75.6427"/>
<polygon fill="#191970" stroke="#191970" points="302.5001,-102.2455 306,-112.2455 309.5001,-102.2456 302.5001,-102.2455"/>
</g>
</g>
</svg>
