<?xml version="1.0" encoding="UTF-8" standalone="no"?>
<!DOCTYPE svg PUBLIC "-//W3C//DTD SVG 1.1//EN"
 "http://www.w3.org/Graphics/SVG/1.1/DTD/svg11.dtd">
<!-- Generated by graphviz version 2.40.1 (20161225.0304)
 -->
<!-- Title: StringBase&lt;TChar&gt; Pages: 1 -->
<svg width="624pt" height="85pt"
 viewBox="0.00 0.00 624.00 85.00" xmlns="http://www.w3.org/2000/svg" xmlns:xlink="http://www.w3.org/1999/xlink">
<g id="graph0" class="graph" transform="scale(1 1) rotate(0) translate(4 81)">
<title>StringBase&lt;TChar&gt;</title>
<polygon fill="#ffffff" stroke="transparent" points="-4,4 -4,-81 620,-81 620,4 -4,4"/>
<!-- Node0 -->
<g id="node1" class="node">
<title>Node0</title>
<polygon fill="#bfbfbf" stroke="#000000" points="0,-38.5 0,-57.5 103,-57.5 103,-38.5 0,-38.5"/>
<text text-anchor="middle" x="51.5" y="-45.5" font-family="Helvetica,sans-Serif" font-size="10.00" fill="#000000">StringBase&lt;TChar&gt;</text>
</g>
<!-- Node1 -->
<g id="node2" class="node">
<title>Node1</title>
<g id="a_node2"><a xlink:href="classaworx_1_1lib_1_1strings_1_1SubstringBase.html" target="_top" xlink:title="SubstringBase\&lt;TChar\&gt;">
<polygon fill="#ffffff" stroke="#000000" points="139,-57.5 139,-76.5 258,-76.5 258,-57.5 139,-57.5"/>
<text text-anchor="middle" x="198.5" y="-64.5" font-family="Helvetica,sans-Serif" font-size="10.00" fill="#000000">SubstringBase&lt;TChar&gt;</text>
</a>
</g>
</g>
<!-- Node0&#45;&gt;Node1 -->
<g id="edge1" class="edge">
<title>Node0&#45;&gt;Node1</title>
<path fill="none" stroke="#191970" d="M113.4544,-56.0077C121.8666,-57.095 130.4857,-58.209 138.856,-59.2909"/>
<polygon fill="#191970" stroke="#191970" points="113.6929,-52.5095 103.3267,-54.6987 112.7955,-59.4518 113.6929,-52.5095"/>
</g>
<!-- Node2 -->
<g id="node3" class="node">
<title>Node2</title>
<g id="a_node3"><a xlink:href="classaworx_1_1lib_1_1strings_1_1TStringBase.html" target="_top" xlink:title="TStringBase\&lt;TChar\&gt;">
<polygon fill="#ffffff" stroke="#000000" points="144,-19.5 144,-38.5 253,-38.5 253,-19.5 144,-19.5"/>
<text text-anchor="middle" x="198.5" y="-26.5" font-family="Helvetica,sans-Serif" font-size="10.00" fill="#000000">TStringBase&lt;TChar&gt;</text>
</a>
</g>
</g>
<!-- Node0&#45;&gt;Node2 -->
<g id="edge2" class="edge">
<title>Node0&#45;&gt;Node2</title>
<path fill="none" stroke="#191970" d="M113.3447,-40.0065C123.4938,-38.6947 133.9471,-37.3436 143.9038,-36.0567"/>
<polygon fill="#191970" stroke="#191970" points="112.7955,-36.5482 103.3267,-41.3013 113.6929,-43.4905 112.7955,-36.5482"/>
</g>
<!-- Node3 -->
<g id="node4" class="node">
<title>Node3</title>
<g id="a_node4"><a xlink:href="classaworx_1_1lib_1_1strings_1_1AStringBase.html" target="_top" xlink:title="AStringBase\&lt;TChar\&gt;">
<polygon fill="#ffffff" stroke="#000000" points="303.5,-38.5 303.5,-57.5 413.5,-57.5 413.5,-38.5 303.5,-38.5"/>
<text text-anchor="middle" x="358.5" y="-45.5" font-family="Helvetica,sans-Serif" font-size="10.00" fill="#000000">AStringBase&lt;TChar&gt;</text>
</a>
</g>
</g>
<!-- Node2&#45;&gt;Node3 -->
<g id="edge3" class="edge">
<title>Node2&#45;&gt;Node3</title>
<path fill="none" stroke="#191970" d="M263.1563,-36.6779C276.4705,-38.259 290.3738,-39.91 303.3155,-41.4468"/>
<polygon fill="#191970" stroke="#191970" points="263.4584,-33.1893 253.1154,-35.4856 262.6329,-40.1405 263.4584,-33.1893"/>
</g>
<!-- Node10 -->
<g id="node7" class="node">
<title>Node10</title>
<g id="a_node7"><a xlink:href="classaworx_1_1lib_1_1strings_1_1StringLiteralBase.html" target="_top" xlink:title="StringLiteralBase\&lt;TChar\&gt;">
<polygon fill="#ffffff" stroke="#000000" points="294,-.5 294,-19.5 423,-19.5 423,-.5 294,-.5"/>
<text text-anchor="middle" x="358.5" y="-7.5" font-family="Helvetica,sans-Serif" font-size="10.00" fill="#000000">StringLiteralBase&lt;TChar&gt;</text>
</a>
</g>
</g>
<!-- Node2&#45;&gt;Node10 -->
<g id="edge4" class="edge">
<title>Node2&#45;&gt;Node10</title>
<path fill="none" stroke="#191970" d="M263.1257,-21.3257C273.2758,-20.1204 283.7691,-18.8743 293.9182,-17.6691"/>
<polygon fill="#191970" stroke="#191970" points="262.6329,-17.8595 253.1154,-22.5144 263.4584,-24.8107 262.6329,-17.8595"/>
</g>
<!-- Node4 -->
<g id="node5" class="node">
<title>Node4</title>
<g id="a_node5"><a xlink:href="classaworx_1_1lib_1_1strings_1_1PreallocatedStringBase.html" target="_top" xlink:title="PreallocatedStringBase\&lt;TChar\&gt;">
<polygon fill="#ffffff" stroke="#000000" points="459,-57.5 459,-76.5 616,-76.5 616,-57.5 459,-57.5"/>
<text text-anchor="middle" x="537.5" y="-64.5" font-family="Helvetica,sans-Serif" font-size="10.00" fill="#000000">PreallocatedStringBase&lt;TChar&gt;</text>
</a>
</g>
</g>
<!-- Node3&#45;&gt;Node4 -->
<g id="edge5" class="edge">
<title>Node3&#45;&gt;Node4</title>
<path fill="none" stroke="#191970" d="M423.9094,-54.9429C435.259,-56.1476 447.167,-57.4116 458.8262,-58.6492"/>
<polygon fill="#191970" stroke="#191970" points="423.9801,-51.4308 413.6665,-53.8557 423.2412,-58.3917 423.9801,-51.4308"/>
</g>
<!-- Node5 -->
<g id="node6" class="node">
<title>Node5</title>
<g id="a_node6"><a xlink:href="structaworx_1_1lib_1_1strings_1_1ResourceString.html" target="_top" xlink:title="ResourceString\&lt;character\&gt;">
<polygon fill="#ffffff" stroke="#000000" points="469,-19.5 469,-38.5 606,-38.5 606,-19.5 469,-19.5"/>
<text text-anchor="middle" x="537.5" y="-26.5" font-family="Helvetica,sans-Serif" font-size="10.00" fill="#000000">ResourceString&lt;character&gt;</text>
</a>
</g>
</g>
<!-- Node3&#45;&gt;Node5 -->
<g id="edge6" class="edge">
<title>Node3&#45;&gt;Node5</title>
<path fill="none" stroke="#191970" d="M423.6845,-41.081C438.4055,-39.5184 454.0762,-37.855 468.9317,-36.2782"/>
<polygon fill="#191970" stroke="#191970" points="423.2412,-37.6083 413.6665,-42.1443 423.9801,-44.5692 423.2412,-37.6083"/>
</g>
</g>
</svg>
