<?xml version="1.0" encoding="UTF-8" standalone="no"?>
<!DOCTYPE svg PUBLIC "-//W3C//DTD SVG 1.1//EN"
 "http://www.w3.org/Graphics/SVG/1.1/DTD/svg11.dtd">
<!-- Generated by graphviz version 2.40.1 (20161225.0304)
 -->
<!-- Title: SmartLock Pages: 1 -->
<svg width="450pt" height="316pt"
 viewBox="0.00 0.00 449.50 316.00" xmlns="http://www.w3.org/2000/svg" xmlns:xlink="http://www.w3.org/1999/xlink">
<g id="graph0" class="graph" transform="scale(1 1) rotate(0) translate(4 312)">
<title>SmartLock</title>
<polygon fill="#ffffff" stroke="transparent" points="-4,4 -4,-312 445.5,-312 445.5,4 -4,4"/>
<!-- Node12 -->
<g id="node1" class="node">
<title>Node12</title>
<polygon fill="#bfbfbf" stroke="#000000" points="107.5,-.5 107.5,-19.5 171.5,-19.5 171.5,-.5 107.5,-.5"/>
<text text-anchor="middle" x="139.5" y="-7.5" font-family="Helvetica,sans-Serif" font-size="10.00" fill="#000000">SmartLock</text>
</g>
<!-- Node25 -->
<g id="node2" class="node">
<title>Node25</title>
<polygon fill="#ffffff" stroke="#bfbfbf" points="83,-67.5 83,-86.5 196,-86.5 196,-67.5 83,-67.5"/>
<text text-anchor="middle" x="139.5" y="-74.5" font-family="Helvetica,sans-Serif" font-size="10.00" fill="#000000">vector&lt;ThreadLock *&gt;</text>
</g>
<!-- Node25&#45;&gt;Node12 -->
<g id="edge12" class="edge">
<title>Node25&#45;&gt;Node12</title>
<path fill="none" stroke="#9a32cd" stroke-dasharray="5,2" d="M139.5,-57.1079C139.5,-44.714 139.5,-29.3263 139.5,-19.5817"/>
<polygon fill="#9a32cd" stroke="#9a32cd" points="136.0001,-57.4005 139.5,-67.4005 143.0001,-57.4006 136.0001,-57.4005"/>
<text text-anchor="middle" x="161" y="-41" font-family="Helvetica,sans-Serif" font-size="10.00" fill="#000000"> acquirers</text>
</g>
<!-- Node22 -->
<g id="node3" class="node">
<title>Node22</title>
<g id="a_node3"><a xlink:href="classaworx_1_1lib_1_1strings_1_1TStringBase.html" target="_top" xlink:title="TStringBase\&lt;nchar\&gt;">
<polygon fill="#ffffff" stroke="#000000" points="0,-221.5 0,-240.5 107,-240.5 107,-221.5 0,-221.5"/>
<text text-anchor="middle" x="53.5" y="-228.5" font-family="Helvetica,sans-Serif" font-size="10.00" fill="#000000">TStringBase&lt;nchar&gt;</text>
</a>
</g>
</g>
<!-- Node13 -->
<g id="node6" class="node">
<title>Node13</title>
<g id="a_node6"><a xlink:href="classaworx_1_1lib_1_1threads_1_1ThreadLock.html" target="_top" xlink:title="ThreadLock">
<polygon fill="#ffffff" stroke="#000000" points="168.5,-143.5 168.5,-162.5 236.5,-162.5 236.5,-143.5 168.5,-143.5"/>
<text text-anchor="middle" x="202.5" y="-150.5" font-family="Helvetica,sans-Serif" font-size="10.00" fill="#000000">ThreadLock</text>
</a>
</g>
</g>
<!-- Node22&#45;&gt;Node13 -->
<g id="edge8" class="edge">
<title>Node22&#45;&gt;Node13</title>
<path fill="none" stroke="#9a32cd" stroke-dasharray="5,2" d="M116.8851,-220.6063C131.2567,-216.52 145.9634,-210.8514 158.5,-203 169.4494,-196.1426 168.9752,-190.7078 177.5,-181 182.918,-174.8301 189.0589,-167.9507 193.8986,-162.5549"/>
<polygon fill="#9a32cd" stroke="#9a32cd" points="115.8069,-217.2706 107.0199,-223.1899 117.5804,-224.0422 115.8069,-217.2706"/>
<text text-anchor="middle" x="235" y="-195" font-family="Helvetica,sans-Serif" font-size="10.00" fill="#000000"> acquirementMethodName</text>
<text text-anchor="middle" x="235" y="-184" font-family="Helvetica,sans-Serif" font-size="10.00" fill="#000000">acquirementSourcefile</text>
</g>
<!-- Node24 -->
<g id="node10" class="node">
<title>Node24</title>
<g id="a_node10"><a xlink:href="classaworx_1_1lib_1_1threads_1_1ThreadLockNR.html" target="_top" xlink:title="ThreadLockNR">
<polygon fill="#ffffff" stroke="#000000" points="1,-105.5 1,-124.5 84,-124.5 84,-105.5 1,-105.5"/>
<text text-anchor="middle" x="42.5" y="-112.5" font-family="Helvetica,sans-Serif" font-size="10.00" fill="#000000">ThreadLockNR</text>
</a>
</g>
</g>
<!-- Node22&#45;&gt;Node24 -->
<g id="edge9" class="edge">
<title>Node22&#45;&gt;Node24</title>
<path fill="none" stroke="#9a32cd" stroke-dasharray="5,2" d="M42.7032,-212.3349C41.3811,-209.3004 40.2379,-206.1258 39.5,-203 32.9323,-175.1787 37.5603,-141.0471 40.5323,-124.6692"/>
<polygon fill="#9a32cd" stroke="#9a32cd" points="39.6157,-213.9851 47.2603,-221.3206 45.8587,-210.8189 39.6157,-213.9851"/>
<text text-anchor="middle" x="97" y="-195" font-family="Helvetica,sans-Serif" font-size="10.00" fill="#000000"> acquirementMethodName</text>
<text text-anchor="middle" x="97" y="-184" font-family="Helvetica,sans-Serif" font-size="10.00" fill="#000000">acquirementSourcefile</text>
</g>
<!-- Node23 -->
<g id="node4" class="node">
<title>Node23</title>
<g id="a_node4"><a xlink:href="classaworx_1_1lib_1_1strings_1_1StringBase.html" target="_top" xlink:title="StringBase\&lt;nchar\&gt;">
<polygon fill="#ffffff" stroke="#000000" points="3,-288.5 3,-307.5 104,-307.5 104,-288.5 3,-288.5"/>
<text text-anchor="middle" x="53.5" y="-295.5" font-family="Helvetica,sans-Serif" font-size="10.00" fill="#000000">StringBase&lt;nchar&gt;</text>
</a>
</g>
</g>
<!-- Node23&#45;&gt;Node22 -->
<g id="edge10" class="edge">
<title>Node23&#45;&gt;Node22</title>
<path fill="none" stroke="#191970" d="M53.5,-278.1079C53.5,-265.714 53.5,-250.3263 53.5,-240.5817"/>
<polygon fill="#191970" stroke="#191970" points="50.0001,-278.4005 53.5,-288.4005 57.0001,-278.4006 50.0001,-278.4005"/>
</g>
<!-- Node16 -->
<g id="node5" class="node">
<title>Node16</title>
<g id="a_node5"><a xlink:href="classaworx_1_1lib_1_1strings_1_1PreallocatedStringBase.html" target="_top" xlink:title="PreallocatedStringBase\&lt;TChar\&gt;">
<polygon fill="#ffffff" stroke="#ff0000" points="146,-288.5 146,-307.5 303,-307.5 303,-288.5 146,-288.5"/>
<text text-anchor="middle" x="224.5" y="-295.5" font-family="Helvetica,sans-Serif" font-size="10.00" fill="#000000">PreallocatedStringBase&lt;TChar&gt;</text>
</a>
</g>
</g>
<!-- Node14 -->
<g id="node7" class="node">
<title>Node14</title>
<g id="a_node7"><a xlink:href="classaworx_1_1lib_1_1threads_1_1Thread.html" target="_top" xlink:title="Thread">
<polygon fill="#ffffff" stroke="#000000" points="295,-221.5 295,-240.5 342,-240.5 342,-221.5 295,-221.5"/>
<text text-anchor="middle" x="318.5" y="-228.5" font-family="Helvetica,sans-Serif" font-size="10.00" fill="#000000">Thread</text>
</a>
</g>
</g>
<!-- Node16&#45;&gt;Node14 -->
<g id="edge6" class="edge">
<title>Node16&#45;&gt;Node14</title>
<path fill="none" stroke="#9a32cd" stroke-dasharray="5,2" d="M245.2268,-282.0416C254.6759,-274.8737 266.0615,-266.3854 276.5,-259 285.3709,-252.7237 295.5022,-245.9582 303.5915,-240.65"/>
<polygon fill="#9a32cd" stroke="#9a32cd" points="243.0036,-279.3354 237.1762,-288.1836 247.2496,-284.9007 243.0036,-279.3354"/>
<text text-anchor="middle" x="290.5" y="-262" font-family="Helvetica,sans-Serif" font-size="10.00" fill="#000000"> name</text>
</g>
<!-- Node13&#45;&gt;Node12 -->
<g id="edge1" class="edge">
<title>Node13&#45;&gt;Node12</title>
<path fill="none" stroke="#191970" d="M208.7929,-133.5958C209.4996,-130.7403 210.106,-127.8132 210.5,-125 214.0945,-99.3351 213.5334,-91.29 204.5,-67 199.2122,-52.7816 197.3239,-48.6286 186.5,-38 178.9098,-30.5468 168.965,-24.2558 160.1786,-19.5366"/>
<polygon fill="#191970" stroke="#191970" points="205.4037,-132.7174 205.9939,-143.2958 212.1293,-134.6582 205.4037,-132.7174"/>
</g>
<!-- Node13&#45;&gt;Node25 -->
<g id="edge2" class="edge">
<title>Node13&#45;&gt;Node25</title>
<path fill="none" stroke="#9a32cd" stroke-dasharray="5,2" d="M180.2421,-137.2381C175.7438,-133.5096 171.2498,-129.3444 167.5,-125 157.162,-113.0226 148.5783,-96.692 143.744,-86.5013"/>
<polygon fill="#9a32cd" stroke="#9a32cd" points="178.1433,-140.0398 188.1837,-143.4224 182.4442,-134.5169 178.1433,-140.0398"/>
<text text-anchor="middle" x="189" y="-112.5" font-family="Helvetica,sans-Serif" font-size="10.00" fill="#000000"> elements</text>
</g>
<!-- Node14&#45;&gt;Node13 -->
<g id="edge3" class="edge">
<title>Node14&#45;&gt;Node13</title>
<path fill="none" stroke="#9a32cd" stroke-dasharray="5,2" d="M314.1877,-211.5723C310.9452,-201.1746 305.473,-188.916 296.5,-181 287.4977,-173.0581 259.8962,-165.3706 236.9145,-160.0666"/>
<polygon fill="#9a32cd" stroke="#9a32cd" points="310.8671,-212.7051 316.813,-221.4741 317.6333,-210.9111 310.8671,-212.7051"/>
<text text-anchor="middle" x="326.5" y="-189.5" font-family="Helvetica,sans-Serif" font-size="10.00" fill="#000000"> owner</text>
</g>
<!-- Node15 -->
<g id="node8" class="node">
<title>Node15</title>
<g id="a_node8"><a xlink:href="classaworx_1_1lib_1_1threads_1_1Runnable.html" target="_top" xlink:title="Runnable">
<polygon fill="#ffffff" stroke="#000000" points="321.5,-288.5 321.5,-307.5 379.5,-307.5 379.5,-288.5 321.5,-288.5"/>
<text text-anchor="middle" x="350.5" y="-295.5" font-family="Helvetica,sans-Serif" font-size="10.00" fill="#000000">Runnable</text>
</a>
</g>
</g>
<!-- Node15&#45;&gt;Node14 -->
<g id="edge4" class="edge">
<title>Node15&#45;&gt;Node14</title>
<path fill="none" stroke="#191970" d="M356.5958,-278.2371C357.5263,-271.8351 357.3736,-264.8754 354.5,-259 350.743,-251.3182 343.7487,-245.1345 336.9173,-240.5521"/>
<polygon fill="#191970" stroke="#191970" points="353.1361,-277.664 354.2966,-288.1951 359.9567,-279.2389 353.1361,-277.664"/>
</g>
<!-- Node15&#45;&gt;Node14 -->
<g id="edge5" class="edge">
<title>Node15&#45;&gt;Node14</title>
<path fill="none" stroke="#9a32cd" stroke-dasharray="5,2" d="M320.8543,-282.3917C316.6849,-278.8867 312.9809,-274.765 310.5,-270 305.7121,-260.8041 309.2816,-248.995 313.0585,-240.7923"/>
<polygon fill="#9a32cd" stroke="#9a32cd" points="319.0733,-285.4204 329.2467,-288.3786 323.1385,-279.7218 319.0733,-285.4204"/>
<text text-anchor="middle" x="330.5" y="-262" font-family="Helvetica,sans-Serif" font-size="10.00" fill="#000000"> runnable</text>
</g>
<!-- Node21 -->
<g id="node9" class="node">
<title>Node21</title>
<g id="a_node9"><a xlink:title="STL class. ">
<polygon fill="#ffffff" stroke="#bfbfbf" points="397.5,-288.5 397.5,-307.5 441.5,-307.5 441.5,-288.5 397.5,-288.5"/>
<text text-anchor="middle" x="419.5" y="-295.5" font-family="Helvetica,sans-Serif" font-size="10.00" fill="#000000">thread</text>
</a>
</g>
</g>
<!-- Node21&#45;&gt;Node14 -->
<g id="edge7" class="edge">
<title>Node21&#45;&gt;Node14</title>
<path fill="none" stroke="#9a32cd" stroke-dasharray="5,2" d="M400.3723,-281.9114C391.2743,-274.5672 380.0914,-265.9734 369.5,-259 359.3763,-252.3345 347.5375,-245.7656 337.816,-240.6673"/>
<polygon fill="#9a32cd" stroke="#9a32cd" points="398.4188,-284.8361 408.3687,-288.4762 402.8605,-279.4257 398.4188,-284.8361"/>
<text text-anchor="middle" x="408" y="-262" font-family="Helvetica,sans-Serif" font-size="10.00" fill="#000000"> c11Thread</text>
</g>
<!-- Node24&#45;&gt;Node12 -->
<g id="edge11" class="edge">
<title>Node24&#45;&gt;Node12</title>
<path fill="none" stroke="#9a32cd" stroke-dasharray="5,2" d="M42.7021,-95.1047C43.637,-85.8987 45.9945,-75.2105 51.5,-67 66.7064,-44.3224 94.3052,-28.6507 114.5534,-19.5606"/>
<polygon fill="#9a32cd" stroke="#9a32cd" points="39.1942,-95.1588 42.1512,-105.3326 46.1841,-95.5354 39.1942,-95.1588"/>
<text text-anchor="middle" x="62.5" y="-74.5" font-family="Helvetica,sans-Serif" font-size="10.00" fill="#000000"> lock</text>
</g>
</g>
</svg>
