<?xml version="1.0" encoding="UTF-8" standalone="no"?>
<!DOCTYPE svg PUBLIC "-//W3C//DTD SVG 1.1//EN"
 "http://www.w3.org/Graphics/SVG/1.1/DTD/svg11.dtd">
<!-- Generated by graphviz version 2.40.1 (20161225.0304)
 -->
<!-- Title: PropertyFormatter Pages: 1 -->
<svg width="428pt" height="230pt"
 viewBox="0.00 0.00 427.50 230.00" xmlns="http://www.w3.org/2000/svg" xmlns:xlink="http://www.w3.org/1999/xlink">
<g id="graph0" class="graph" transform="scale(1 1) rotate(0) translate(4 226)">
<title>PropertyFormatter</title>
<polygon fill="#ffffff" stroke="transparent" points="-4,4 -4,-226 423.5,-226 423.5,4 -4,4"/>
<!-- Node1 -->
<g id="node1" class="node">
<title>Node1</title>
<polygon fill="#bfbfbf" stroke="#000000" points="211,-.5 211,-19.5 306,-19.5 306,-.5 211,-.5"/>
<text text-anchor="middle" x="258.5" y="-7.5" font-family="Helvetica,sans-Serif" font-size="10.00" fill="#000000">PropertyFormatter</text>
</g>
<!-- Node3 -->
<g id="node2" class="node">
<title>Node3</title>
<g id="a_node2"><a xlink:title="STL class. ">
<polygon fill="#ffffff" stroke="#bfbfbf" points="340,-135.5 340,-154.5 413,-154.5 413,-135.5 340,-135.5"/>
<text text-anchor="middle" x="376.5" y="-142.5" font-family="Helvetica,sans-Serif" font-size="10.00" fill="#000000">vector&lt;Box&gt;</text>
</a>
</g>
</g>
<!-- Node2 -->
<g id="node7" class="node">
<title>Node2</title>
<g id="a_node7"><a xlink:href="classaworx_1_1lib_1_1boxing_1_1Boxes.html" target="_top" xlink:title="Boxes">
<polygon fill="#ffffff" stroke="#000000" points="354.5,-78.5 354.5,-97.5 398.5,-97.5 398.5,-78.5 354.5,-78.5"/>
<text text-anchor="middle" x="376.5" y="-85.5" font-family="Helvetica,sans-Serif" font-size="10.00" fill="#000000">Boxes</text>
</a>
</g>
</g>
<!-- Node3&#45;&gt;Node2 -->
<g id="edge2" class="edge">
<title>Node3&#45;&gt;Node2</title>
<path fill="none" stroke="#191970" d="M376.5,-125.2342C376.5,-115.8491 376.5,-105.0651 376.5,-97.5265"/>
<polygon fill="#191970" stroke="#191970" points="373.0001,-125.3307 376.5,-135.3307 380.0001,-125.3308 373.0001,-125.3307"/>
</g>
<!-- Node5 -->
<g id="node3" class="node">
<title>Node5</title>
<polygon fill="#ffffff" stroke="#bfbfbf" points="0,-78.5 0,-97.5 179,-97.5 179,-78.5 0,-78.5"/>
<text text-anchor="middle" x="89.5" y="-85.5" font-family="Helvetica,sans-Serif" font-size="10.00" fill="#000000">vector&lt;const TCallbackTableEntry *&gt;</text>
</g>
<!-- Node5&#45;&gt;Node1 -->
<g id="edge4" class="edge">
<title>Node5&#45;&gt;Node1</title>
<path fill="none" stroke="#9a32cd" stroke-dasharray="5,2" d="M119.6749,-74.0731C153.7622,-58.3405 208.3242,-33.158 237.8724,-19.5204"/>
<polygon fill="#9a32cd" stroke="#9a32cd" points="117.8356,-71.0672 110.2227,-78.4357 120.769,-77.4229 117.8356,-71.0672"/>
<text text-anchor="middle" x="217.5" y="-46.5" font-family="Helvetica,sans-Serif" font-size="10.00" fill="#000000"> callBacks</text>
</g>
<!-- Node6 -->
<g id="node4" class="node">
<title>Node6</title>
<g id="a_node4"><a xlink:href="classaworx_1_1lib_1_1strings_1_1AStringBase.html" target="_top" xlink:title="AStringBase\&lt;character\&gt;">
<polygon fill="#ffffff" stroke="#000000" points="197.5,-78.5 197.5,-97.5 321.5,-97.5 321.5,-78.5 197.5,-78.5"/>
<text text-anchor="middle" x="259.5" y="-85.5" font-family="Helvetica,sans-Serif" font-size="10.00" fill="#000000">AStringBase&lt;character&gt;</text>
</a>
</g>
</g>
<!-- Node6&#45;&gt;Node1 -->
<g id="edge5" class="edge">
<title>Node6&#45;&gt;Node1</title>
<path fill="none" stroke="#9a32cd" stroke-dasharray="5,2" d="M259.2473,-68.2866C259.0479,-52.7395 258.7786,-31.7276 258.6236,-19.6426"/>
<polygon fill="#9a32cd" stroke="#9a32cd" points="255.7494,-68.4814 259.3774,-78.4357 262.7488,-68.3916 255.7494,-68.4814"/>
<text text-anchor="middle" x="307" y="-52" font-family="Helvetica,sans-Serif" font-size="10.00" fill="#000000"> propertyFormatString</text>
<text text-anchor="middle" x="307" y="-41" font-family="Helvetica,sans-Serif" font-size="10.00" fill="#000000">formatString</text>
</g>
<!-- Node7 -->
<g id="node5" class="node">
<title>Node7</title>
<g id="a_node5"><a xlink:href="classaworx_1_1lib_1_1strings_1_1TStringBase.html" target="_top" xlink:title="TStringBase\&lt;character\&gt;">
<polygon fill="#ffffff" stroke="#000000" points="198,-135.5 198,-154.5 321,-154.5 321,-135.5 198,-135.5"/>
<text text-anchor="middle" x="259.5" y="-142.5" font-family="Helvetica,sans-Serif" font-size="10.00" fill="#000000">TStringBase&lt;character&gt;</text>
</a>
</g>
</g>
<!-- Node7&#45;&gt;Node6 -->
<g id="edge6" class="edge">
<title>Node7&#45;&gt;Node6</title>
<path fill="none" stroke="#191970" d="M259.5,-125.2342C259.5,-115.8491 259.5,-105.0651 259.5,-97.5265"/>
<polygon fill="#191970" stroke="#191970" points="256.0001,-125.3307 259.5,-135.3307 263.0001,-125.3308 256.0001,-125.3307"/>
</g>
<!-- Node8 -->
<g id="node6" class="node">
<title>Node8</title>
<g id="a_node6"><a xlink:href="classaworx_1_1lib_1_1strings_1_1StringBase.html" target="_top" xlink:title="StringBase\&lt;character\&gt;">
<polygon fill="#ffffff" stroke="#000000" points="201,-202.5 201,-221.5 318,-221.5 318,-202.5 201,-202.5"/>
<text text-anchor="middle" x="259.5" y="-209.5" font-family="Helvetica,sans-Serif" font-size="10.00" fill="#000000">StringBase&lt;character&gt;</text>
</a>
</g>
</g>
<!-- Node8&#45;&gt;Node7 -->
<g id="edge7" class="edge">
<title>Node8&#45;&gt;Node7</title>
<path fill="none" stroke="#191970" d="M259.5,-192.1079C259.5,-179.714 259.5,-164.3263 259.5,-154.5817"/>
<polygon fill="#191970" stroke="#191970" points="256.0001,-192.4005 259.5,-202.4005 263.0001,-192.4006 256.0001,-192.4005"/>
</g>
<!-- Node2&#45;&gt;Node1 -->
<g id="edge1" class="edge">
<title>Node2&#45;&gt;Node1</title>
<path fill="none" stroke="#9a32cd" stroke-dasharray="5,2" d="M372.2051,-68.5525C368.9681,-58.1486 363.4956,-45.8904 354.5,-38 346.7016,-31.1597 325.2654,-24.6043 304.6228,-19.5583"/>
<polygon fill="#9a32cd" stroke="#9a32cd" points="368.885,-69.6882 374.8233,-78.4624 375.6528,-67.9001 368.885,-69.6882"/>
<text text-anchor="middle" x="386" y="-46.5" font-family="Helvetica,sans-Serif" font-size="10.00" fill="#000000"> results</text>
</g>
<!-- Node4 -->
<g id="node8" class="node">
<title>Node4</title>
<polygon fill="#ffffff" stroke="#bfbfbf" points="362,-202.5 362,-221.5 391,-221.5 391,-202.5 362,-202.5"/>
<text text-anchor="middle" x="376.5" y="-209.5" font-family="Helvetica,sans-Serif" font-size="10.00" fill="#000000">T</text>
</g>
<!-- Node4&#45;&gt;Node3 -->
<g id="edge3" class="edge">
<title>Node4&#45;&gt;Node3</title>
<path fill="none" stroke="#9a32cd" stroke-dasharray="5,2" d="M376.5,-192.1079C376.5,-179.714 376.5,-164.3263 376.5,-154.5817"/>
<polygon fill="#9a32cd" stroke="#9a32cd" points="373.0001,-192.4005 376.5,-202.4005 380.0001,-192.4006 373.0001,-192.4005"/>
<text text-anchor="middle" x="398" y="-176" font-family="Helvetica,sans-Serif" font-size="10.00" fill="#000000"> elements</text>
</g>
</g>
</svg>
