<?xml version="1.0" encoding="UTF-8" standalone="no"?>
<!DOCTYPE svg PUBLIC "-//W3C//DTD SVG 1.1//EN"
 "http://www.w3.org/Graphics/SVG/1.1/DTD/svg11.dtd">
<!-- Generated by graphviz version 2.40.1 (20161225.0304)
 -->
<!-- Title: PlainTextLogger Pages: 1 -->
<svg width="386pt" height="252pt"
 viewBox="0.00 0.00 386.00 252.00" xmlns="http://www.w3.org/2000/svg" xmlns:xlink="http://www.w3.org/1999/xlink">
<g id="graph0" class="graph" transform="scale(1 1) rotate(0) translate(4 248)">
<title>PlainTextLogger</title>
<polygon fill="#ffffff" stroke="transparent" points="-4,4 -4,-248 382,-248 382,4 -4,4"/>
<!-- Node0 -->
<g id="node1" class="node">
<title>Node0</title>
<polygon fill="#bfbfbf" stroke="#000000" points="147,-56.5 147,-75.5 233,-75.5 233,-56.5 147,-56.5"/>
<text text-anchor="middle" x="190" y="-63.5" font-family="Helvetica,sans-Serif" font-size="10.00" fill="#000000">PlainTextLogger</text>
</g>
<!-- Node5 -->
<g id="node2" class="node">
<title>Node5</title>
<g id="a_node2"><a xlink:href="classaworx_1_1lib_1_1lox_1_1loggers_1_1ConsoleLogger.html" target="_top" xlink:title="ConsoleLogger">
<polygon fill="#ffffff" stroke="#000000" points="0,-.5 0,-19.5 82,-19.5 82,-.5 0,-.5"/>
<text text-anchor="middle" x="41" y="-7.5" font-family="Helvetica,sans-Serif" font-size="10.00" fill="#000000">ConsoleLogger</text>
</a>
</g>
</g>
<!-- Node0&#45;&gt;Node5 -->
<g id="edge1" class="edge">
<title>Node0&#45;&gt;Node5</title>
<path fill="none" stroke="#191970" d="M154.8488,-52.7888C127.6432,-42.5639 90.6191,-28.6488 66.2798,-19.5011"/>
<polygon fill="#191970" stroke="#191970" points="153.7939,-56.1313 164.386,-56.3733 156.2566,-49.5788 153.7939,-56.1313"/>
</g>
<!-- Node6 -->
<g id="node3" class="node">
<title>Node6</title>
<g id="a_node3"><a xlink:href="classaworx_1_1lib_1_1lox_1_1loggers_1_1MemoryLogger.html" target="_top" xlink:title="MemoryLogger">
<polygon fill="#ffffff" stroke="#000000" points="100.5,-.5 100.5,-19.5 181.5,-19.5 181.5,-.5 100.5,-.5"/>
<text text-anchor="middle" x="141" y="-7.5" font-family="Helvetica,sans-Serif" font-size="10.00" fill="#000000">MemoryLogger</text>
</a>
</g>
</g>
<!-- Node0&#45;&gt;Node6 -->
<g id="edge2" class="edge">
<title>Node0&#45;&gt;Node6</title>
<path fill="none" stroke="#191970" d="M174.6878,-48.5004C166.3553,-38.9775 156.3647,-27.5596 149.4373,-19.6427"/>
<polygon fill="#191970" stroke="#191970" points="172.2457,-51.0245 181.4649,-56.2455 177.5138,-46.415 172.2457,-51.0245"/>
</g>
<!-- Node7 -->
<g id="node4" class="node">
<title>Node7</title>
<g id="a_node4"><a xlink:href="classaworx_1_1lib_1_1lox_1_1loggers_1_1TextFileLogger.html" target="_top" xlink:title="TextFileLogger">
<polygon fill="#ffffff" stroke="#000000" points="200,-.5 200,-19.5 280,-19.5 280,-.5 200,-.5"/>
<text text-anchor="middle" x="240" y="-7.5" font-family="Helvetica,sans-Serif" font-size="10.00" fill="#000000">TextFileLogger</text>
</a>
</g>
</g>
<!-- Node0&#45;&gt;Node7 -->
<g id="edge3" class="edge">
<title>Node0&#45;&gt;Node7</title>
<path fill="none" stroke="#191970" d="M205.6247,-48.5004C214.1273,-38.9775 224.3218,-27.5596 231.3905,-19.6427"/>
<polygon fill="#191970" stroke="#191970" points="202.7587,-46.4551 198.7093,-56.2455 207.9803,-51.1172 202.7587,-46.4551"/>
</g>
<!-- Node8 -->
<g id="node5" class="node">
<title>Node8</title>
<g id="a_node5"><a xlink:href="classaworx_1_1lib_1_1lox_1_1loggers_1_1VStudioLogger.html" target="_top" xlink:title="VStudioLogger">
<polygon fill="#ffffff" stroke="#000000" points="298,-.5 298,-19.5 378,-19.5 378,-.5 298,-.5"/>
<text text-anchor="middle" x="338" y="-7.5" font-family="Helvetica,sans-Serif" font-size="10.00" fill="#000000">VStudioLogger</text>
</a>
</g>
</g>
<!-- Node0&#45;&gt;Node8 -->
<g id="edge4" class="edge">
<title>Node0&#45;&gt;Node8</title>
<path fill="none" stroke="#191970" d="M224.9153,-52.7888C251.9383,-42.5639 288.714,-28.6488 312.8899,-19.5011"/>
<polygon fill="#191970" stroke="#191970" points="223.5563,-49.5608 215.4421,-56.3733 226.0336,-56.1078 223.5563,-49.5608"/>
</g>
<!-- Node1 -->
<g id="node6" class="node">
<title>Node1</title>
<g id="a_node6"><a xlink:href="classaworx_1_1lib_1_1lox_1_1core_1_1textlogger_1_1TextLogger.html" target="_top" xlink:title="TextLogger">
<polygon fill="#ffffff" stroke="#000000" points="157.5,-112.5 157.5,-131.5 222.5,-131.5 222.5,-112.5 157.5,-112.5"/>
<text text-anchor="middle" x="190" y="-119.5" font-family="Helvetica,sans-Serif" font-size="10.00" fill="#000000">TextLogger</text>
</a>
</g>
</g>
<!-- Node1&#45;&gt;Node0 -->
<g id="edge5" class="edge">
<title>Node1&#45;&gt;Node0</title>
<path fill="none" stroke="#191970" d="M190,-102.1575C190,-93.155 190,-82.9199 190,-75.6427"/>
<polygon fill="#191970" stroke="#191970" points="186.5001,-102.2455 190,-112.2455 193.5001,-102.2456 186.5001,-102.2455"/>
</g>
<!-- Node2 -->
<g id="node7" class="node">
<title>Node2</title>
<g id="a_node7"><a xlink:href="classaworx_1_1lib_1_1lox_1_1core_1_1Logger.html" target="_top" xlink:title="Logger">
<polygon fill="#ffffff" stroke="#000000" points="167,-168.5 167,-187.5 213,-187.5 213,-168.5 167,-168.5"/>
<text text-anchor="middle" x="190" y="-175.5" font-family="Helvetica,sans-Serif" font-size="10.00" fill="#000000">Logger</text>
</a>
</g>
</g>
<!-- Node2&#45;&gt;Node1 -->
<g id="edge6" class="edge">
<title>Node2&#45;&gt;Node1</title>
<path fill="none" stroke="#191970" d="M190,-158.1575C190,-149.155 190,-138.9199 190,-131.6427"/>
<polygon fill="#191970" stroke="#191970" points="186.5001,-158.2455 190,-168.2455 193.5001,-158.2456 186.5001,-158.2455"/>
</g>
<!-- Node3 -->
<g id="node8" class="node">
<title>Node3</title>
<g id="a_node8"><a xlink:href="classaworx_1_1lib_1_1threads_1_1SmartLock.html" target="_top" xlink:title="SmartLock">
<polygon fill="#ffffff" stroke="#ff0000" points="158,-224.5 158,-243.5 222,-243.5 222,-224.5 158,-224.5"/>
<text text-anchor="middle" x="190" y="-231.5" font-family="Helvetica,sans-Serif" font-size="10.00" fill="#000000">SmartLock</text>
</a>
</g>
</g>
<!-- Node3&#45;&gt;Node2 -->
<g id="edge7" class="edge">
<title>Node3&#45;&gt;Node2</title>
<path fill="none" stroke="#191970" d="M190,-214.1575C190,-205.155 190,-194.9199 190,-187.6427"/>
<polygon fill="#191970" stroke="#191970" points="186.5001,-214.2455 190,-224.2455 193.5001,-214.2456 186.5001,-214.2455"/>
</g>
</g>
</svg>
