<?xml version="1.0" encoding="UTF-8" standalone="no"?>
<!DOCTYPE svg PUBLIC "-//W3C//DTD SVG 1.1//EN"
 "http://www.w3.org/Graphics/SVG/1.1/DTD/svg11.dtd">
<!-- Generated by graphviz version 2.40.1 (20161225.0304)
 -->
<!-- Title: IniFile::Entry Pages: 1 -->
<svg width="654pt" height="151pt"
 viewBox="0.00 0.00 654.00 151.00" xmlns="http://www.w3.org/2000/svg" xmlns:xlink="http://www.w3.org/1999/xlink">
<g id="graph0" class="graph" transform="scale(1 1) rotate(0) translate(4 147)">
<title>IniFile::Entry</title>
<polygon fill="#ffffff" stroke="transparent" points="-4,4 -4,-147 650,-147 650,4 -4,4"/>
<!-- Node2 -->
<g id="node1" class="node">
<title>Node2</title>
<polygon fill="#bfbfbf" stroke="#000000" points="574,-.5 574,-19.5 646,-19.5 646,-.5 574,-.5"/>
<text text-anchor="middle" x="610" y="-7.5" font-family="Helvetica,sans-Serif" font-size="10.00" fill="#000000">IniFile::Entry</text>
</g>
<!-- Node4 -->
<g id="node2" class="node">
<title>Node4</title>
<polygon fill="#ffffff" stroke="#bfbfbf" points="225.5,-123.5 225.5,-142.5 335.5,-142.5 335.5,-123.5 225.5,-123.5"/>
<text text-anchor="middle" x="280.5" y="-130.5" font-family="Helvetica,sans-Serif" font-size="10.00" fill="#000000">vector&lt;AStringBase&gt;</text>
</g>
<!-- Node3 -->
<g id="node7" class="node">
<title>Node3</title>
<g id="a_node7"><a xlink:href="classaworx_1_1lib_1_1config_1_1InMemoryPlugin_1_1Entry.html" target="_top" xlink:title="Entry">
<polygon fill="#ffffff" stroke="#000000" points="493,-55.5 493,-74.5 533,-74.5 533,-55.5 493,-55.5"/>
<text text-anchor="middle" x="513" y="-62.5" font-family="Helvetica,sans-Serif" font-size="10.00" fill="#000000">Entry</text>
</a>
</g>
</g>
<!-- Node4&#45;&gt;Node3 -->
<g id="edge2" class="edge">
<title>Node4&#45;&gt;Node3</title>
<path fill="none" stroke="#9a32cd" stroke-dasharray="5,2" d="M346.043,-132.5144C384.1544,-129.9645 432.1708,-122.7434 471,-104 485.1585,-97.1655 497.8388,-83.9114 505.4722,-74.7653"/>
<polygon fill="#9a32cd" stroke="#9a32cd" points="345.3552,-129.048 335.5722,-133.1154 345.7564,-136.0365 345.3552,-129.048"/>
<text text-anchor="middle" x="424" y="-132" font-family="Helvetica,sans-Serif" font-size="10.00" fill="#000000"> Values</text>
</g>
<!-- Node5 -->
<g id="node3" class="node">
<title>Node5</title>
<g id="a_node3"><a xlink:href="classaworx_1_1lib_1_1strings_1_1AStringBase.html" target="_top" xlink:title="AStringBase\&lt;TChar\&gt;">
<polygon fill="#ffffff" stroke="#ff0000" points="6.5,-103.5 6.5,-122.5 116.5,-122.5 116.5,-103.5 6.5,-103.5"/>
<text text-anchor="middle" x="61.5" y="-110.5" font-family="Helvetica,sans-Serif" font-size="10.00" fill="#000000">AStringBase&lt;TChar&gt;</text>
</a>
</g>
</g>
<!-- Node5&#45;&gt;Node4 -->
<g id="edge3" class="edge">
<title>Node5&#45;&gt;Node4</title>
<path fill="none" stroke="#9a32cd" stroke-dasharray="5,2" d="M126.7272,-118.9568C158.099,-121.8218 195.3009,-125.2193 225.2547,-127.9548"/>
<polygon fill="#9a32cd" stroke="#9a32cd" points="127.0398,-115.4709 116.7629,-118.0468 126.4032,-122.4419 127.0398,-115.4709"/>
<text text-anchor="middle" x="162.5" y="-126" font-family="Helvetica,sans-Serif" font-size="10.00" fill="#000000"> elements</text>
</g>
<!-- Node9 -->
<g id="node6" class="node">
<title>Node9</title>
<g id="a_node6"><a xlink:href="classaworx_1_1lib_1_1strings_1_1PreallocatedStringBase.html" target="_top" xlink:title="PreallocatedStringBase\&lt;TChar\&gt;">
<polygon fill="#ffffff" stroke="#000000" points="202,-85.5 202,-104.5 359,-104.5 359,-85.5 202,-85.5"/>
<text text-anchor="middle" x="280.5" y="-92.5" font-family="Helvetica,sans-Serif" font-size="10.00" fill="#000000">PreallocatedStringBase&lt;TChar&gt;</text>
</a>
</g>
</g>
<!-- Node5&#45;&gt;Node9 -->
<g id="edge4" class="edge">
<title>Node5&#45;&gt;Node9</title>
<path fill="none" stroke="#191970" d="M126.959,-107.6198C150.4457,-105.6894 177.1763,-103.4924 201.6777,-101.4785"/>
<polygon fill="#191970" stroke="#191970" points="126.4426,-104.1504 116.7629,-108.4578 127.0161,-111.1268 126.4426,-104.1504"/>
</g>
<!-- Node11 -->
<g id="node4" class="node">
<title>Node11</title>
<g id="a_node4"><a xlink:href="classaworx_1_1lib_1_1strings_1_1AStringBase.html" target="_top" xlink:title="AStringBase\&lt;character\&gt;">
<polygon fill="#ffffff" stroke="#000000" points="218.5,-5.5 218.5,-24.5 342.5,-24.5 342.5,-5.5 218.5,-5.5"/>
<text text-anchor="middle" x="280.5" y="-12.5" font-family="Helvetica,sans-Serif" font-size="10.00" fill="#000000">AStringBase&lt;character&gt;</text>
</a>
</g>
</g>
<!-- Node11&#45;&gt;Node2 -->
<g id="edge7" class="edge">
<title>Node11&#45;&gt;Node2</title>
<path fill="none" stroke="#9a32cd" stroke-dasharray="5,2" d="M353.1342,-13.8978C421.492,-12.8605 521.0282,-11.3501 573.8803,-10.5481"/>
<polygon fill="#9a32cd" stroke="#9a32cd" points="352.8095,-10.4022 342.8638,-14.0537 352.9158,-17.4014 352.8095,-10.4022"/>
<text text-anchor="middle" x="513" y="-15" font-family="Helvetica,sans-Serif" font-size="10.00" fill="#000000"> RawValue</text>
</g>
<!-- Node11&#45;&gt;Node3 -->
<g id="edge8" class="edge">
<title>Node11&#45;&gt;Node3</title>
<path fill="none" stroke="#9a32cd" stroke-dasharray="5,2" d="M352.7223,-22.2007C388.7683,-26.936 432.7343,-34.4528 471,-46 478.9683,-48.4045 487.394,-51.9911 494.5904,-55.4025"/>
<polygon fill="#9a32cd" stroke="#9a32cd" points="353.1381,-18.7255 342.7768,-20.9378 352.2562,-25.6697 353.1381,-18.7255"/>
<text text-anchor="middle" x="424" y="-49" font-family="Helvetica,sans-Serif" font-size="10.00" fill="#000000"> Comments</text>
</g>
<!-- Node12 -->
<g id="node5" class="node">
<title>Node12</title>
<g id="a_node5"><a xlink:href="classaworx_1_1lib_1_1strings_1_1TStringBase.html" target="_top" xlink:title="TStringBase\&lt;character\&gt;">
<polygon fill="#ffffff" stroke="#ff0000" points="0,-5.5 0,-24.5 123,-24.5 123,-5.5 0,-5.5"/>
<text text-anchor="middle" x="61.5" y="-12.5" font-family="Helvetica,sans-Serif" font-size="10.00" fill="#000000">TStringBase&lt;character&gt;</text>
</a>
</g>
</g>
<!-- Node12&#45;&gt;Node11 -->
<g id="edge9" class="edge">
<title>Node12&#45;&gt;Node11</title>
<path fill="none" stroke="#191970" d="M133.3993,-15C160.8087,-15 191.7956,-15 218.2366,-15"/>
<polygon fill="#191970" stroke="#191970" points="133.0865,-11.5001 123.0865,-15 133.0865,-18.5001 133.0865,-11.5001"/>
</g>
<!-- Node9&#45;&gt;Node3 -->
<g id="edge5" class="edge">
<title>Node9&#45;&gt;Node3</title>
<path fill="none" stroke="#9a32cd" stroke-dasharray="5,2" d="M369.5511,-89.9965C401.7022,-87.2939 438.1548,-83.1893 471,-77 478.1542,-75.6519 485.849,-73.6273 492.6729,-71.6233"/>
<polygon fill="#9a32cd" stroke="#9a32cd" points="368.9598,-86.5327 359.2736,-90.8255 369.5227,-93.51 368.9598,-86.5327"/>
<text text-anchor="middle" x="424" y="-92" font-family="Helvetica,sans-Serif" font-size="10.00" fill="#000000"> Name</text>
</g>
<!-- Node9&#45;&gt;Node3 -->
<g id="edge6" class="edge">
<title>Node9&#45;&gt;Node3</title>
<path fill="none" stroke="#9a32cd" stroke-dasharray="5,2" d="M312.8029,-81.8405C331.2629,-75.0315 355.0431,-67.4402 377,-64 418.2742,-57.5332 429.2252,-63.5028 471,-64 478.1474,-64.0851 485.9774,-64.2516 492.9201,-64.4247"/>
<polygon fill="#9a32cd" stroke="#9a32cd" points="311.5138,-78.5861 303.4069,-85.4072 313.9981,-85.1304 311.5138,-78.5861"/>
<text text-anchor="middle" x="424" y="-67" font-family="Helvetica,sans-Serif" font-size="10.00" fill="#000000"> FormatAttrAlignment</text>
</g>
<!-- Node3&#45;&gt;Node2 -->
<g id="edge1" class="edge">
<title>Node3&#45;&gt;Node2</title>
<path fill="none" stroke="#191970" d="M538.8432,-50.3467C555.9861,-40.6264 578.0003,-28.1442 592.972,-19.655"/>
<polygon fill="#191970" stroke="#191970" points="536.8687,-47.4427 529.8961,-55.4197 540.3214,-53.5319 536.8687,-47.4427"/>
</g>
</g>
</svg>
