<?xml version="1.0" encoding="UTF-8" standalone="no"?>
<!DOCTYPE svg PUBLIC "-//W3C//DTD SVG 1.1//EN"
 "http://www.w3.org/Graphics/SVG/1.1/DTD/svg11.dtd">
<!-- Generated by graphviz version 2.40.1 (20161225.0304)
 -->
<!-- Title: Expression Pages: 1 -->
<svg width="1418pt" height="790pt"
 viewBox="0.00 0.00 1418.00 790.00" xmlns="http://www.w3.org/2000/svg" xmlns:xlink="http://www.w3.org/1999/xlink">
<g id="graph0" class="graph" transform="scale(1 1) rotate(0) translate(4 786)">
<title>Expression</title>
<polygon fill="#ffffff" stroke="transparent" points="-4,4 -4,-786 1414,-786 1414,4 -4,4"/>
<!-- Node1 -->
<g id="node1" class="node">
<title>Node1</title>
<polygon fill="#bfbfbf" stroke="#000000" points="313.5,-731.5 313.5,-750.5 378.5,-750.5 378.5,-731.5 313.5,-731.5"/>
<text text-anchor="middle" x="346" y="-738.5" font-family="Helvetica,sans-Serif" font-size="10.00" fill="#000000">Expression</text>
</g>
<!-- Node44 -->
<g id="node8" class="node">
<title>Node44</title>
<polygon fill="#ffffff" stroke="#bfbfbf" points="663,-237.5 663,-256.5 833,-256.5 833,-237.5 663,-237.5"/>
<text text-anchor="middle" x="748" y="-244.5" font-family="Helvetica,sans-Serif" font-size="10.00" fill="#000000">vector&lt;expressions::Expression *&gt;</text>
</g>
<!-- Node1&#45;&gt;Node44 -->
<g id="edge2" class="edge">
<title>Node1&#45;&gt;Node44</title>
<path fill="none" stroke="#9a32cd" stroke-dasharray="5,2" d="M381.6927,-728.052C393.4964,-723.9647 406.7451,-719.584 419,-716 489.2506,-695.4551 532.5377,-733.5551 579,-677 608.0166,-641.6803 566.0198,-299.6106 597,-266 613.7435,-247.8349 638.3992,-240.4043 662.954,-238.2902"/>
<polygon fill="#9a32cd" stroke="#9a32cd" points="380.4485,-724.7793 372.171,-731.3925 382.7658,-731.3846 380.4485,-724.7793"/>
<text text-anchor="middle" x="499" y="-719" font-family="Helvetica,sans-Serif" font-size="10.00" fill="#000000"> elements</text>
</g>
<!-- Node2 -->
<g id="node16" class="node">
<title>Node2</title>
<g id="a_node16"><a xlink:href="classaworx_1_1lib_1_1expressions_1_1detail_1_1Program.html" target="_top" xlink:title="Program">
<polygon fill="#ffffff" stroke="#000000" points="1357,-513.5 1357,-532.5 1410,-532.5 1410,-513.5 1357,-513.5"/>
<text text-anchor="middle" x="1383.5" y="-520.5" font-family="Helvetica,sans-Serif" font-size="10.00" fill="#000000">Program</text>
</a>
</g>
</g>
<!-- Node1&#45;&gt;Node2 -->
<g id="edge1" class="edge">
<title>Node1&#45;&gt;Node2</title>
<path fill="none" stroke="#9a32cd" stroke-dasharray="5,2" d="M388.88,-744.4084C504.5103,-752.2705 831.3361,-765.6817 1088,-691 1207.2831,-656.2921 1238.1318,-640.5169 1339,-568 1353.4522,-557.6099 1367.4335,-542.3494 1375.7524,-532.5434"/>
<polygon fill="#9a32cd" stroke="#9a32cd" points="388.8975,-740.901 378.6766,-743.6911 388.4066,-747.8838 388.8975,-740.901"/>
<text text-anchor="middle" x="1002.5" y="-730" font-family="Helvetica,sans-Serif" font-size="10.00" fill="#000000"> expression</text>
</g>
<!-- Node3 -->
<g id="node2" class="node">
<title>Node3</title>
<g id="a_node2"><a xlink:title="STL class. ">
<polygon fill="#ffffff" stroke="#bfbfbf" points="917,-121.5 917,-140.5 1088,-140.5 1088,-121.5 917,-121.5"/>
<text text-anchor="middle" x="1002.5" y="-128.5" font-family="Helvetica,sans-Serif" font-size="10.00" fill="#000000">vector&lt;VirtualMachine::Command&gt;</text>
</a>
</g>
</g>
<!-- Node3&#45;&gt;Node2 -->
<g id="edge4" class="edge">
<title>Node3&#45;&gt;Node2</title>
<path fill="none" stroke="#006400" d="M1067.4033,-143.5752C1074.5268,-145.9364 1081.5329,-148.7212 1088,-152 1220.0468,-218.9483 1260.6331,-245.3933 1339,-371 1368.9829,-419.0567 1379.5268,-488.1955 1382.5017,-513.3696"/>
<polygon fill="#006400" stroke="#006400" points="1068.2423,-140.1721 1057.6566,-140.6113 1066.2057,-146.8693 1068.2423,-140.1721"/>
</g>
<!-- Node6 -->
<g id="node3" class="node">
<title>Node6</title>
<g id="a_node3"><a xlink:href="classaworx_1_1lib_1_1util_1_1PluginContainer.html" target="_top" xlink:title="PluginContainer\&lt;CompilerPlugin, CompilePriorities\&gt;">
<polygon fill="#ffffff" stroke="#ff0000" points="626,-608.5 626,-627.5 870,-627.5 870,-608.5 626,-608.5"/>
<text text-anchor="middle" x="748" y="-615.5" font-family="Helvetica,sans-Serif" font-size="10.00" fill="#000000">PluginContainer&lt;CompilerPlugin, CompilePriorities&gt;</text>
</a>
</g>
</g>
<!-- Node5 -->
<g id="node18" class="node">
<title>Node5</title>
<g id="a_node18"><a xlink:href="classaworx_1_1lib_1_1expressions_1_1Compiler.html" target="_top" xlink:title="Compiler">
<polygon fill="#ffffff" stroke="#000000" points="1137,-513.5 1137,-532.5 1193,-532.5 1193,-513.5 1137,-513.5"/>
<text text-anchor="middle" x="1165" y="-520.5" font-family="Helvetica,sans-Serif" font-size="10.00" fill="#000000">Compiler</text>
</a>
</g>
</g>
<!-- Node6&#45;&gt;Node5 -->
<g id="edge8" class="edge">
<title>Node6&#45;&gt;Node5</title>
<path fill="none" stroke="#191970" d="M880.4663,-627.0313C961.7813,-629.7254 1056.2373,-626.8135 1088,-602 1109.9396,-584.8604 1086.5123,-561.8832 1106,-542 1114.135,-533.6999 1125.9068,-529.0214 1136.7991,-526.386"/>
<polygon fill="#191970" stroke="#191970" points="880.231,-623.5206 870.1108,-626.6561 879.9775,-630.516 880.231,-623.5206"/>
</g>
<!-- Node23 -->
<g id="node4" class="node">
<title>Node23</title>
<polygon fill="#ffffff" stroke="#bfbfbf" points="291,-359.5 291,-378.5 401,-378.5 401,-359.5 291,-359.5"/>
<text text-anchor="middle" x="346" y="-366.5" font-family="Helvetica,sans-Serif" font-size="10.00" fill="#000000">vector&lt;AStringBase&gt;</text>
</g>
<!-- Node23&#45;&gt;Node5 -->
<g id="edge13" class="edge">
<title>Node23&#45;&gt;Node5</title>
<path fill="none" stroke="#9a32cd" stroke-dasharray="5,2" d="M411.3794,-367.9107C570.4041,-366.3156 972.807,-368.9179 1088,-433 1123.0411,-452.4934 1149.3759,-494.5092 1159.9365,-513.4256"/>
<polygon fill="#9a32cd" stroke="#9a32cd" points="411.2234,-364.4121 401.2623,-368.0213 411.3,-371.4117 411.2234,-364.4121"/>
<text text-anchor="middle" x="748" y="-401" font-family="Helvetica,sans-Serif" font-size="10.00" fill="#000000"> CfgNormalizationDisallowed</text>
<text text-anchor="middle" x="748" y="-390" font-family="Helvetica,sans-Serif" font-size="10.00" fill="#000000">DefaultCategories</text>
</g>
<!-- Node25 -->
<g id="node22" class="node">
<title>Node25</title>
<g id="a_node22"><a xlink:href="classaworx_1_1lib_1_1config_1_1Variable.html" target="_top" xlink:title="Variable">
<polygon fill="#ffffff" stroke="#ff0000" points="722.5,-456.5 722.5,-475.5 773.5,-475.5 773.5,-456.5 722.5,-456.5"/>
<text text-anchor="middle" x="748" y="-463.5" font-family="Helvetica,sans-Serif" font-size="10.00" fill="#000000">Variable</text>
</a>
</g>
</g>
<!-- Node23&#45;&gt;Node25 -->
<g id="edge14" class="edge">
<title>Node23&#45;&gt;Node25</title>
<path fill="none" stroke="#9a32cd" stroke-dasharray="5,2" d="M384.2169,-381.7422C433.0915,-397.6598 520.5605,-424.8805 597,-442 640.646,-451.775 692.2541,-459.0797 722.4341,-462.9312"/>
<polygon fill="#9a32cd" stroke="#9a32cd" points="385.2739,-378.4055 374.6812,-378.6203 383.0958,-385.058 385.2739,-378.4055"/>
<text text-anchor="middle" x="499" y="-440" font-family="Helvetica,sans-Serif" font-size="10.00" fill="#000000"> values</text>
</g>
<!-- Node50 -->
<g id="node23" class="node">
<title>Node50</title>
<g id="a_node23"><a xlink:href="structaworx_1_1lib_1_1expressions_1_1detail_1_1Program_1_1CompileStorage.html" target="_top" xlink:title="CompileStorage">
<polygon fill="#ffffff" stroke="#000000" points="1122,-275.5 1122,-294.5 1208,-294.5 1208,-275.5 1122,-275.5"/>
<text text-anchor="middle" x="1165" y="-282.5" font-family="Helvetica,sans-Serif" font-size="10.00" fill="#000000">CompileStorage</text>
</a>
</g>
</g>
<!-- Node23&#45;&gt;Node50 -->
<g id="edge15" class="edge">
<title>Node23&#45;&gt;Node50</title>
<path fill="none" stroke="#9a32cd" stroke-dasharray="5,2" d="M364.9521,-352.3741C404.6269,-318.8109 500.7474,-243.8726 597,-217 702.0977,-187.658 985.7284,-183.9606 1088,-222 1117.7874,-233.0793 1144.5337,-260.778 1157.2223,-275.4821"/>
<polygon fill="#9a32cd" stroke="#9a32cd" points="362.2569,-350.0746 356.9432,-359.2406 366.8131,-355.3888 362.2569,-350.0746"/>
<text text-anchor="middle" x="748" y="-220" font-family="Helvetica,sans-Serif" font-size="10.00" fill="#000000"> functionsWithNonMatchingArguments</text>
</g>
<!-- Node31 -->
<g id="node5" class="node">
<title>Node31</title>
<polygon fill="#ffffff" stroke="#bfbfbf" points="10,-518.5 10,-537.5 114,-537.5 114,-518.5 10,-518.5"/>
<text text-anchor="middle" x="62" y="-525.5" font-family="Helvetica,sans-Serif" font-size="10.00" fill="#000000">vector&lt;StringBase&gt;</text>
</g>
<!-- Node31&#45;&gt;Node5 -->
<g id="edge19" class="edge">
<title>Node31&#45;&gt;Node5</title>
<path fill="none" stroke="#9a32cd" stroke-dasharray="5,2" d="M93.4111,-541.2425C107.9197,-546.6668 125.5462,-552.2983 142,-555 199.4529,-564.4338 214.7858,-555.964 273,-555 635.3713,-548.9992 726.0137,-545.7444 1088,-528 1104.19,-527.2064 1122.2775,-526.046 1136.8518,-525.0428"/>
<polygon fill="#9a32cd" stroke="#9a32cd" points="94.5066,-537.9134 83.9176,-537.5589 91.9744,-544.4393 94.5066,-537.9134"/>
<text text-anchor="middle" x="499" y="-555" font-family="Helvetica,sans-Serif" font-size="10.00" fill="#000000"> UnaryOperators</text>
</g>
<!-- Node26 -->
<g id="node19" class="node">
<title>Node26</title>
<g id="a_node19"><a xlink:href="classaworx_1_1lib_1_1config_1_1Configuration.html" target="_top" xlink:title="Configuration">
<polygon fill="#ffffff" stroke="#ff0000" points="309,-481.5 309,-500.5 383,-500.5 383,-481.5 309,-481.5"/>
<text text-anchor="middle" x="346" y="-488.5" font-family="Helvetica,sans-Serif" font-size="10.00" fill="#000000">Configuration</text>
</a>
</g>
</g>
<!-- Node31&#45;&gt;Node26 -->
<g id="edge20" class="edge">
<title>Node31&#45;&gt;Node26</title>
<path fill="none" stroke="#9a32cd" stroke-dasharray="5,2" d="M84.7704,-513.0327C100.2117,-503.8075 121.4749,-492.8453 142,-488 199.0528,-474.5317 267.5983,-479.7313 308.932,-485.0908"/>
<polygon fill="#9a32cd" stroke="#9a32cd" points="82.6277,-510.2427 75.9669,-518.482 86.3119,-516.1947 82.6277,-510.2427"/>
<text text-anchor="middle" x="207.5" y="-491" font-family="Helvetica,sans-Serif" font-size="10.00" fill="#000000"> TrueValues</text>
</g>
<!-- Node36 -->
<g id="node6" class="node">
<title>Node36</title>
<polygon fill="#ffffff" stroke="#bfbfbf" points="597,-570.5 597,-589.5 899,-589.5 899,-570.5 597,-570.5"/>
<text text-anchor="middle" x="748" y="-577.5" font-family="Helvetica,sans-Serif" font-size="10.00" fill="#000000">vector&lt;tuple&lt;Priorities, AStringBase, AStringBase, StringBase&gt;&gt;</text>
</g>
<!-- Node36&#45;&gt;Node5 -->
<g id="edge23" class="edge">
<title>Node36&#45;&gt;Node5</title>
<path fill="none" stroke="#9a32cd" stroke-dasharray="5,2" d="M909.7135,-587.7642C967.5688,-585.6106 1032.2204,-577.363 1088,-556 1097.4645,-552.3752 1097.04,-546.7366 1106,-542 1115.6087,-536.9205 1126.8192,-532.8916 1136.8719,-529.8749"/>
<polygon fill="#9a32cd" stroke="#9a32cd" points="909.2549,-584.2768 899.3692,-588.0878 909.4738,-591.2734 909.2549,-584.2768"/>
<text text-anchor="middle" x="1002.5" y="-590" font-family="Helvetica,sans-Serif" font-size="10.00" fill="#000000"> VariablesLoaded</text>
</g>
<!-- Node42 -->
<g id="node7" class="node">
<title>Node42</title>
<polygon fill="#ffffff" stroke="#bfbfbf" points="652.5,-76.5 652.5,-95.5 843.5,-95.5 843.5,-76.5 652.5,-76.5"/>
<text text-anchor="middle" x="748" y="-83.5" font-family="Helvetica,sans-Serif" font-size="10.00" fill="#000000">vector&lt;expressions::ScopeResource *&gt;</text>
</g>
<!-- Node38 -->
<g id="node24" class="node">
<title>Node38</title>
<g id="a_node24"><a xlink:href="structaworx_1_1lib_1_1expressions_1_1Scope.html" target="_top" xlink:title="Scope">
<polygon fill="#ffffff" stroke="#000000" points="1143,-76.5 1143,-95.5 1187,-95.5 1187,-76.5 1143,-76.5"/>
<text text-anchor="middle" x="1165" y="-83.5" font-family="Helvetica,sans-Serif" font-size="10.00" fill="#000000">Scope</text>
</a>
</g>
</g>
<!-- Node42&#45;&gt;Node38 -->
<g id="edge28" class="edge">
<title>Node42&#45;&gt;Node38</title>
<path fill="none" stroke="#9a32cd" stroke-dasharray="5,2" d="M853.8895,-86C951.6345,-86 1089.4585,-86 1142.7553,-86"/>
<polygon fill="#9a32cd" stroke="#9a32cd" points="853.6683,-82.5001 843.6682,-86 853.6682,-89.5001 853.6683,-82.5001"/>
<text text-anchor="middle" x="1002.5" y="-89" font-family="Helvetica,sans-Serif" font-size="10.00" fill="#000000"> Resources</text>
</g>
<!-- Node44&#45;&gt;Node38 -->
<g id="edge29" class="edge">
<title>Node44&#45;&gt;Node38</title>
<path fill="none" stroke="#9a32cd" stroke-dasharray="5,2" d="M843.3589,-253.0877C915.6399,-253.2467 1014.6975,-243.5313 1088,-198 1128.2893,-172.9746 1152.78,-118.2022 1161.4437,-95.8223"/>
<polygon fill="#9a32cd" stroke="#9a32cd" points="843.3724,-249.5878 833.343,-253.0024 843.3128,-256.5875 843.3724,-249.5878"/>
<text text-anchor="middle" x="1002.5" y="-252" font-family="Helvetica,sans-Serif" font-size="10.00" fill="#000000"> nestedExpressionStack</text>
</g>
<!-- Node45 -->
<g id="node9" class="node">
<title>Node45</title>
<polygon fill="#ffffff" stroke="#bfbfbf" points="711.5,-.5 711.5,-19.5 784.5,-19.5 784.5,-.5 711.5,-.5"/>
<text text-anchor="middle" x="748" y="-7.5" font-family="Helvetica,sans-Serif" font-size="10.00" fill="#000000">vector&lt;Box&gt;</text>
</g>
<!-- Node45&#45;&gt;Node38 -->
<g id="edge30" class="edge">
<title>Node45&#45;&gt;Node38</title>
<path fill="none" stroke="#9a32cd" stroke-dasharray="5,2" d="M794.7341,-7.628C861.5048,-5.6756 987.2662,-7.37 1088,-40 1113.0358,-48.1097 1138.5736,-65.5591 1153.0398,-76.4827"/>
<polygon fill="#9a32cd" stroke="#9a32cd" points="794.4148,-4.1366 784.5372,-7.9685 794.6484,-11.1327 794.4148,-4.1366"/>
<text text-anchor="middle" x="1002.5" y="-43" font-family="Helvetica,sans-Serif" font-size="10.00" fill="#000000"> Stack</text>
</g>
<!-- Node49 -->
<g id="node10" class="node">
<title>Node49</title>
<polygon fill="#ffffff" stroke="#bfbfbf" points="1106,-551.5 1106,-570.5 1224,-570.5 1224,-551.5 1106,-551.5"/>
<text text-anchor="middle" x="1165" y="-558.5" font-family="Helvetica,sans-Serif" font-size="10.00" fill="#000000">vector&lt;SPExpression&gt;</text>
</g>
<!-- Node49&#45;&gt;Node2 -->
<g id="edge31" class="edge">
<title>Node49&#45;&gt;Node2</title>
<path fill="none" stroke="#9a32cd" stroke-dasharray="5,2" d="M1234.4824,-554.9329C1266.5578,-551.3382 1304.9867,-545.9019 1339,-538 1345.1942,-536.561 1351.745,-534.6063 1357.86,-532.5839"/>
<polygon fill="#9a32cd" stroke="#9a32cd" points="1233.8698,-551.4787 1224.3052,-556.0361 1234.6242,-558.438 1233.8698,-551.4787"/>
<text text-anchor="middle" x="1290.5" y="-556" font-family="Helvetica,sans-Serif" font-size="10.00" fill="#000000"> ctNestedExpressions</text>
</g>
<!-- Node51 -->
<g id="node11" class="node">
<title>Node51</title>
<polygon fill="#ffffff" stroke="#bfbfbf" points="658.5,-275.5 658.5,-294.5 837.5,-294.5 837.5,-275.5 658.5,-275.5"/>
<text text-anchor="middle" x="748" y="-282.5" font-family="Helvetica,sans-Serif" font-size="10.00" fill="#000000">stack&lt;tuple&lt;VM::PC, VM::PC, int&gt;&gt;</text>
</g>
<!-- Node51&#45;&gt;Node50 -->
<g id="edge33" class="edge">
<title>Node51&#45;&gt;Node50</title>
<path fill="none" stroke="#9a32cd" stroke-dasharray="5,2" d="M847.9142,-285C935.2404,-285 1057.8168,-285 1121.9837,-285"/>
<polygon fill="#9a32cd" stroke="#9a32cd" points="847.7131,-281.5001 837.7131,-285 847.713,-288.5001 847.7131,-281.5001"/>
<text text-anchor="middle" x="1002.5" y="-288" font-family="Helvetica,sans-Serif" font-size="10.00" fill="#000000"> conditionalStack</text>
</g>
<!-- Node52 -->
<g id="node12" class="node">
<title>Node52</title>
<polygon fill="#ffffff" stroke="#bfbfbf" points="702.5,-313.5 702.5,-332.5 793.5,-332.5 793.5,-313.5 702.5,-313.5"/>
<text text-anchor="middle" x="748" y="-320.5" font-family="Helvetica,sans-Serif" font-size="10.00" fill="#000000">vector&lt;VM::PC&gt;</text>
</g>
<!-- Node52&#45;&gt;Node50 -->
<g id="edge34" class="edge">
<title>Node52&#45;&gt;Node50</title>
<path fill="none" stroke="#9a32cd" stroke-dasharray="5,2" d="M803.957,-321.3559C871.5133,-318.8779 988.4636,-313.0101 1088,-300 1099.0737,-298.5526 1110.9535,-296.4934 1121.9868,-294.3629"/>
<polygon fill="#9a32cd" stroke="#9a32cd" points="803.4186,-317.8727 793.549,-321.7251 803.6668,-324.8683 803.4186,-317.8727"/>
<text text-anchor="middle" x="1002.5" y="-318" font-family="Helvetica,sans-Serif" font-size="10.00" fill="#000000"> resultStack</text>
</g>
<!-- Node53 -->
<g id="node13" class="node">
<title>Node53</title>
<g id="a_node13"><a xlink:title="STL class. ">
<polygon fill="#ffffff" stroke="#bfbfbf" points="717,-152.5 717,-171.5 779,-171.5 779,-152.5 717,-152.5"/>
<text text-anchor="middle" x="748" y="-159.5" font-family="Helvetica,sans-Serif" font-size="10.00" fill="#000000">vector&lt;T&gt;</text>
</a>
</g>
</g>
<!-- Node53&#45;&gt;Node50 -->
<g id="edge35" class="edge">
<title>Node53&#45;&gt;Node50</title>
<path fill="none" stroke="#9a32cd" stroke-dasharray="5,2" d="M789.3261,-159.252C869.2508,-154.7759 1041.2564,-149.4822 1088,-183 1105.1706,-195.3123 1094.225,-209.4567 1106,-227 1119.128,-246.5591 1139.6494,-264.8613 1152.7036,-275.49"/>
<polygon fill="#9a32cd" stroke="#9a32cd" points="788.9164,-155.7699 779.1372,-159.8464 789.3241,-162.758 788.9164,-155.7699"/>
<text text-anchor="middle" x="1002.5" y="-186" font-family="Helvetica,sans-Serif" font-size="10.00" fill="#000000"> plugins</text>
</g>
<!-- Node21 -->
<g id="node14" class="node">
<title>Node21</title>
<g id="a_node14"><a xlink:href="classaworx_1_1lib_1_1strings_1_1StringBase.html" target="_top" xlink:title="StringBase\&lt;character\&gt;">
<polygon fill="#ffffff" stroke="#000000" points="3.5,-597.5 3.5,-616.5 120.5,-616.5 120.5,-597.5 3.5,-597.5"/>
<text text-anchor="middle" x="62" y="-604.5" font-family="Helvetica,sans-Serif" font-size="10.00" fill="#000000">StringBase&lt;character&gt;</text>
</a>
</g>
</g>
<!-- Node21&#45;&gt;Node5 -->
<g id="edge9" class="edge">
<title>Node21&#45;&gt;Node5</title>
<path fill="none" stroke="#9a32cd" stroke-dasharray="5,2" d="M111.1964,-618.6464C121.3348,-620.7099 131.976,-622.6329 142,-624 190.2019,-630.5739 537.7841,-625.1564 579,-651 592.8249,-659.6686 582.9143,-674.762 597,-683 712.8619,-750.7615 764.9832,-690.4225 899,-683 983.3876,-678.3262 1027.1061,-720.6092 1088,-662 1126.8562,-624.6016 1071.0898,-583.1062 1106,-542 1113.6625,-532.9775 1125.6333,-528.2007 1136.7952,-525.6868"/>
<polygon fill="#9a32cd" stroke="#9a32cd" points="111.7743,-615.1914 101.2671,-616.5514 110.3291,-622.0406 111.7743,-615.1914"/>
<text text-anchor="middle" x="499" y="-665" font-family="Helvetica,sans-Serif" font-size="10.00" fill="#000000"> CfgNestedExpressionOperator</text>
<text text-anchor="middle" x="499" y="-654" font-family="Helvetica,sans-Serif" font-size="10.00" fill="#000000">CfgNestedExpressionThrowIdentifier</text>
</g>
<!-- Node21&#45;&gt;Node26 -->
<g id="edge10" class="edge">
<title>Node21&#45;&gt;Node26</title>
<path fill="none" stroke="#9a32cd" stroke-dasharray="5,2" d="M81.3338,-591.1394C96.9145,-579.0122 119.8087,-562.6219 142,-552 197.5167,-525.4269 267.1119,-507.6161 308.9886,-498.4104"/>
<polygon fill="#9a32cd" stroke="#9a32cd" points="79.1364,-588.4151 73.4812,-597.3744 83.4892,-593.8972 79.1364,-588.4151"/>
<text text-anchor="middle" x="207.5" y="-577" font-family="Helvetica,sans-Serif" font-size="10.00" fill="#000000"> SubstitutionVariableStart</text>
<text text-anchor="middle" x="207.5" y="-566" font-family="Helvetica,sans-Serif" font-size="10.00" fill="#000000">SubstitutionVariableEnd</text>
<text text-anchor="middle" x="207.5" y="-555" font-family="Helvetica,sans-Serif" font-size="10.00" fill="#000000">SubstitutionVariableDelimiters</text>
</g>
<!-- Node37 -->
<g id="node20" class="node">
<title>Node37</title>
<g id="a_node20"><a xlink:href="structaworx_1_1lib_1_1expressions_1_1FunctionNameDescriptor.html" target="_top" xlink:title="FunctionNameDescriptor">
<polygon fill="#ffffff" stroke="#000000" points="436.5,-602.5 436.5,-621.5 561.5,-621.5 561.5,-602.5 436.5,-602.5"/>
<text text-anchor="middle" x="499" y="-609.5" font-family="Helvetica,sans-Serif" font-size="10.00" fill="#000000">FunctionNameDescriptor</text>
</a>
</g>
</g>
<!-- Node21&#45;&gt;Node37 -->
<g id="edge11" class="edge">
<title>Node21&#45;&gt;Node37</title>
<path fill="none" stroke="#9a32cd" stroke-dasharray="5,2" d="M131.1395,-607.7911C215.1083,-608.7518 355.5204,-610.3584 436.4158,-611.2839"/>
<polygon fill="#9a32cd" stroke="#9a32cd" points="130.9752,-604.2891 120.9358,-607.6743 130.895,-611.2886 130.9752,-604.2891"/>
<text text-anchor="middle" x="207.5" y="-612" font-family="Helvetica,sans-Serif" font-size="10.00" fill="#000000"> Name</text>
</g>
<!-- Node33 -->
<g id="node15" class="node">
<title>Node33</title>
<g id="a_node15"><a xlink:href="classaworx_1_1lib_1_1strings_1_1AStringBase.html" target="_top" xlink:title="AStringBase\&lt;character\&gt;">
<polygon fill="#ffffff" stroke="#ff0000" points="0,-697.5 0,-716.5 124,-716.5 124,-697.5 0,-697.5"/>
<text text-anchor="middle" x="62" y="-704.5" font-family="Helvetica,sans-Serif" font-size="10.00" fill="#000000">AStringBase&lt;character&gt;</text>
</a>
</g>
</g>
<!-- Node33&#45;&gt;Node1 -->
<g id="edge21" class="edge">
<title>Node33&#45;&gt;Node1</title>
<path fill="none" stroke="#9a32cd" stroke-dasharray="5,2" d="M134.473,-715.6763C192.0955,-722.5748 269.9972,-731.9011 313.3794,-737.0947"/>
<polygon fill="#9a32cd" stroke="#9a32cd" points="134.6702,-712.175 124.325,-714.4614 133.838,-719.1254 134.6702,-712.175"/>
<text text-anchor="middle" x="207.5" y="-767" font-family="Helvetica,sans-Serif" font-size="10.00" fill="#000000"> normalizedString</text>
<text text-anchor="middle" x="207.5" y="-756" font-family="Helvetica,sans-Serif" font-size="10.00" fill="#000000">name</text>
<text text-anchor="middle" x="207.5" y="-745" font-family="Helvetica,sans-Serif" font-size="10.00" fill="#000000">originalString</text>
<text text-anchor="middle" x="207.5" y="-734" font-family="Helvetica,sans-Serif" font-size="10.00" fill="#000000">optimizedString</text>
</g>
<!-- Node33&#45;&gt;Node25 -->
<g id="edge22" class="edge">
<title>Node33&#45;&gt;Node25</title>
<path fill="none" stroke="#9a32cd" stroke-dasharray="5,2" d="M98.2474,-693.9288C140.6267,-678.3743 212.6577,-651.0879 273,-624 339.3675,-594.2073 351.5269,-577.1961 419,-550 487.9787,-522.1971 514.1625,-537.4303 579,-501 588.3315,-495.7569 587.2526,-489.4222 597,-485 638.025,-466.388 691.3835,-464.1398 722.4492,-464.7142"/>
<polygon fill="#9a32cd" stroke="#9a32cd" points="96.8387,-690.7172 88.6479,-697.4374 99.2417,-697.2918 96.8387,-690.7172"/>
<text text-anchor="middle" x="346" y="-629" font-family="Helvetica,sans-Serif" font-size="10.00" fill="#000000"> DefaultValue</text>
<text text-anchor="middle" x="346" y="-618" font-family="Helvetica,sans-Serif" font-size="10.00" fill="#000000">Comments</text>
</g>
<!-- Node2&#45;&gt;Node1 -->
<g id="edge3" class="edge">
<title>Node2&#45;&gt;Node1</title>
<path fill="none" stroke="#9a32cd" stroke-dasharray="5,2" d="M1377.7842,-542.2217C1371.1224,-561.9438 1358.4755,-592.5533 1339,-613 1252.4933,-703.8204 1209.3822,-710.4072 1088,-742 868.9028,-799.0256 805.3791,-759.1707 579,-762 507.8944,-762.8887 489.4148,-771.9269 419,-762 403.1993,-759.7725 386.0267,-754.9592 372.309,-750.5021"/>
<polygon fill="#9a32cd" stroke="#9a32cd" points="1381.1747,-543.1094 1380.8748,-532.5188 1374.5048,-540.9849 1381.1747,-543.1094"/>
<text text-anchor="middle" x="1002.5" y="-774" font-family="Helvetica,sans-Serif" font-size="10.00" fill="#000000"> program</text>
</g>
<!-- Node4 -->
<g id="node17" class="node">
<title>Node4</title>
<polygon fill="#ffffff" stroke="#bfbfbf" points="331.5,-131.5 331.5,-150.5 360.5,-150.5 360.5,-131.5 331.5,-131.5"/>
<text text-anchor="middle" x="346" y="-138.5" font-family="Helvetica,sans-Serif" font-size="10.00" fill="#000000">T</text>
</g>
<!-- Node4&#45;&gt;Node3 -->
<g id="edge5" class="edge">
<title>Node4&#45;&gt;Node3</title>
<path fill="none" stroke="#9a32cd" stroke-dasharray="5,2" d="M370.662,-136.3449C384.7601,-133.9201 402.8062,-131.2132 419,-130 595.5309,-116.7744 802.947,-122.0708 916.8254,-126.765"/>
<polygon fill="#9a32cd" stroke="#9a32cd" points="369.9761,-132.9119 360.7468,-138.1147 371.2062,-139.803 369.9761,-132.9119"/>
<text text-anchor="middle" x="499" y="-133" font-family="Helvetica,sans-Serif" font-size="10.00" fill="#000000"> elements</text>
</g>
<!-- Node4&#45;&gt;Node53 -->
<g id="edge6" class="edge">
<title>Node4&#45;&gt;Node53</title>
<path fill="none" stroke="#9a32cd" stroke-dasharray="5,2" d="M370.8774,-142.2996C440.884,-145.9566 639.4897,-156.3316 716.7289,-160.3664"/>
<polygon fill="#9a32cd" stroke="#9a32cd" points="370.9532,-138.7988 360.7842,-141.7723 370.5879,-145.7893 370.9532,-138.7988"/>
<text text-anchor="middle" x="499" y="-155" font-family="Helvetica,sans-Serif" font-size="10.00" fill="#000000"> elements</text>
</g>
<!-- Node5&#45;&gt;Node2 -->
<g id="edge7" class="edge">
<title>Node5&#45;&gt;Node2</title>
<path fill="none" stroke="#9a32cd" stroke-dasharray="5,2" d="M1203.1487,-523C1247.1674,-523 1318.4107,-523 1356.8579,-523"/>
<polygon fill="#9a32cd" stroke="#9a32cd" points="1203.1178,-519.5001 1193.1177,-523 1203.1177,-526.5001 1203.1178,-519.5001"/>
<text text-anchor="middle" x="1290.5" y="-526" font-family="Helvetica,sans-Serif" font-size="10.00" fill="#000000"> compiler</text>
</g>
<!-- Node26&#45;&gt;Node5 -->
<g id="edge17" class="edge">
<title>Node26&#45;&gt;Node5</title>
<path fill="none" stroke="#9a32cd" stroke-dasharray="5,2" d="M363.5851,-474.6131C377.4686,-462.8237 397.9496,-447.8432 419,-441 462.1836,-426.9615 823.9929,-429.8894 899,-436 983.8414,-442.9117 1009.4547,-434.1904 1088,-467 1114.8442,-478.2132 1141.1721,-500.477 1155.0056,-513.2968"/>
<polygon fill="#9a32cd" stroke="#9a32cd" points="361.0304,-472.1995 355.8472,-481.4399 365.6615,-477.4486 361.0304,-472.1995"/>
<text text-anchor="middle" x="748" y="-439" font-family="Helvetica,sans-Serif" font-size="10.00" fill="#000000"> Config</text>
</g>
<!-- Node26&#45;&gt;Node25 -->
<g id="edge18" class="edge">
<title>Node26&#45;&gt;Node25</title>
<path fill="none" stroke="#9a32cd" stroke-dasharray="5,2" d="M393.2972,-488.0586C478.7552,-482.7441 656.1591,-471.7115 722.3567,-467.5947"/>
<polygon fill="#9a32cd" stroke="#9a32cd" points="392.8621,-484.5788 383.0986,-488.6929 393.2966,-491.5653 392.8621,-484.5788"/>
<text text-anchor="middle" x="499" y="-489" font-family="Helvetica,sans-Serif" font-size="10.00" fill="#000000"> Config</text>
</g>
<!-- Node37&#45;&gt;Node5 -->
<g id="edge24" class="edge">
<title>Node37&#45;&gt;Node5</title>
<path fill="none" stroke="#9a32cd" stroke-dasharray="5,2" d="M561.5094,-623.958C567.4653,-625.4938 573.3762,-627.1749 579,-629 587.327,-631.7024 588.4362,-635.1826 597,-637 703.7521,-659.6543 1004.9585,-698.805 1088,-628 1117.7153,-602.6634 1079.8774,-571.0267 1106,-542 1113.8464,-533.2812 1125.7072,-528.5426 1136.7414,-525.9753"/>
<polygon fill="#9a32cd" stroke="#9a32cd" points="562.0314,-620.4827 551.4866,-621.5111 560.3711,-627.283 562.0314,-620.4827"/>
<text text-anchor="middle" x="748" y="-671" font-family="Helvetica,sans-Serif" font-size="10.00" fill="#000000"> CfgNestedExpressionFunction</text>
</g>
<!-- Node22 -->
<g id="node21" class="node">
<title>Node22</title>
<g id="a_node21"><a xlink:href="structaworx_1_1lib_1_1expressions_1_1detail_1_1Parser.html" target="_top" xlink:title="Parser">
<polygon fill="#ffffff" stroke="#000000" points="725.5,-494.5 725.5,-513.5 770.5,-513.5 770.5,-494.5 725.5,-494.5"/>
<text text-anchor="middle" x="748" y="-501.5" font-family="Helvetica,sans-Serif" font-size="10.00" fill="#000000">Parser</text>
</a>
</g>
</g>
<!-- Node22&#45;&gt;Node5 -->
<g id="edge12" class="edge">
<title>Node22&#45;&gt;Node5</title>
<path fill="none" stroke="#9a32cd" stroke-dasharray="5,2" d="M780.8137,-504.8232C841.4967,-506.4415 975.3464,-510.4598 1088,-517 1104.1971,-517.9403 1122.285,-519.3322 1136.8578,-520.5387"/>
<polygon fill="#9a32cd" stroke="#9a32cd" points="780.7833,-501.3213 770.6949,-504.5576 780.5996,-508.3189 780.7833,-501.3213"/>
<text text-anchor="middle" x="1002.5" y="-520" font-family="Helvetica,sans-Serif" font-size="10.00" fill="#000000"> parser</text>
</g>
<!-- Node25&#45;&gt;Node5 -->
<g id="edge16" class="edge">
<title>Node25&#45;&gt;Node5</title>
<path fill="none" stroke="#9a32cd" stroke-dasharray="5,2" d="M783.6406,-465.7047C846.0919,-465.8995 979.0238,-469.4957 1088,-494 1107.6508,-498.4187 1129.0137,-506.7673 1144.2415,-513.3764"/>
<polygon fill="#9a32cd" stroke="#9a32cd" points="783.529,-462.2048 773.5279,-465.7016 783.5268,-469.2048 783.529,-462.2048"/>
<text text-anchor="middle" x="1002.5" y="-497" font-family="Helvetica,sans-Serif" font-size="10.00" fill="#000000"> var</text>
</g>
<!-- Node50&#45;&gt;Node2 -->
<g id="edge32" class="edge">
<title>Node50&#45;&gt;Node2</title>
<path fill="none" stroke="#9a32cd" stroke-dasharray="5,2" d="M1180.6978,-302.0987C1223.4797,-348.6987 1341.1533,-476.8741 1374.554,-513.2556"/>
<polygon fill="#9a32cd" stroke="#9a32cd" points="1183.1772,-299.6241 1173.8361,-294.6247 1178.0207,-304.3581 1183.1772,-299.6241"/>
<text text-anchor="middle" x="1290.5" y="-474" font-family="Helvetica,sans-Serif" font-size="10.00" fill="#000000"> compileStorage</text>
</g>
<!-- Node38&#45;&gt;Node2 -->
<g id="edge25" class="edge">
<title>Node38&#45;&gt;Node2</title>
<path fill="none" stroke="#9a32cd" stroke-dasharray="5,2" d="M1196.9016,-95.1219C1237.1976,-108.4408 1305.3324,-137.3141 1339,-188 1375.8449,-243.4692 1382.3367,-463.9677 1383.3347,-513.2126"/>
<polygon fill="#9a32cd" stroke="#9a32cd" points="1197.885,-91.762 1187.2946,-92.0671 1195.7638,-98.4329 1197.885,-91.762"/>
<text text-anchor="middle" x="1290.5" y="-191" font-family="Helvetica,sans-Serif" font-size="10.00" fill="#000000"> ctScope</text>
</g>
<!-- Node38&#45;&gt;Node38 -->
<g id="edge26" class="edge">
<title>Node38&#45;&gt;Node38</title>
<path fill="none" stroke="#9a32cd" stroke-dasharray="5,2" d="M1141.9346,-105.0292C1143.1928,-110.128 1150.8812,-114 1165,-114 1187.0391,-114 1193.4097,-104.5653 1184.112,-95.7571"/>
<polygon fill="#9a32cd" stroke="#9a32cd" points="1145.1854,-106.3286 1145.888,-95.7571 1138.7463,-103.5831 1145.1854,-106.3286"/>
<text text-anchor="middle" x="1165" y="-117" font-family="Helvetica,sans-Serif" font-size="10.00" fill="#000000"> CTScope</text>
</g>
<!-- Node39 -->
<g id="node25" class="node">
<title>Node39</title>
<g id="a_node25"><a xlink:href="classaworx_1_1lib_1_1util_1_1MemoryBlocks.html" target="_top" xlink:title="MemoryBlocks">
<polygon fill="#ffffff" stroke="#ff0000" points="707,-38.5 707,-57.5 789,-57.5 789,-38.5 707,-38.5"/>
<text text-anchor="middle" x="748" y="-45.5" font-family="Helvetica,sans-Serif" font-size="10.00" fill="#000000">MemoryBlocks</text>
</a>
</g>
</g>
<!-- Node39&#45;&gt;Node38 -->
<g id="edge27" class="edge">
<title>Node39&#45;&gt;Node38</title>
<path fill="none" stroke="#9a32cd" stroke-dasharray="5,2" d="M799.4967,-49.4828C866.2704,-51.8631 986.2363,-57.6988 1088,-71 1106.6362,-73.4359 1127.5555,-77.6044 1142.8811,-80.9297"/>
<polygon fill="#9a32cd" stroke="#9a32cd" points="799.3622,-45.9761 789.2476,-49.1298 799.1212,-52.972 799.3622,-45.9761"/>
<text text-anchor="middle" x="1002.5" y="-74" font-family="Helvetica,sans-Serif" font-size="10.00" fill="#000000"> Memory</text>
</g>
</g>
</svg>
