<?xml version="1.0" encoding="UTF-8" standalone="no"?>
<!DOCTYPE svg PUBLIC "-//W3C//DTD SVG 1.1//EN"
 "http://www.w3.org/Graphics/SVG/1.1/DTD/svg11.dtd">
<!-- Generated by graphviz version 2.40.1 (20161225.0304)
 -->
<!-- Title: FormatterStdImpl&lt;TChar&gt; Pages: 1 -->
<svg width="342pt" height="240pt"
 viewBox="0.00 0.00 341.50 240.00" xmlns="http://www.w3.org/2000/svg" xmlns:xlink="http://www.w3.org/1999/xlink">
<g id="graph0" class="graph" transform="scale(1 1) rotate(0) translate(4 236)">
<title>FormatterStdImpl&lt;TChar&gt;</title>
<polygon fill="#ffffff" stroke="transparent" points="-4,4 -4,-236 337.5,-236 337.5,4 -4,4"/>
<!-- Node21 -->
<g id="node1" class="node">
<title>Node21</title>
<g id="a_node1"><a xlink:title="STL class. ">
<polygon fill="#ffffff" stroke="#bfbfbf" points="0,-212.5 0,-231.5 73,-231.5 73,-212.5 0,-212.5"/>
<text text-anchor="middle" x="36.5" y="-219.5" font-family="Helvetica,sans-Serif" font-size="10.00" fill="#000000">vector&lt;Box&gt;</text>
</a>
</g>
</g>
<!-- Node20 -->
<g id="node7" class="node">
<title>Node20</title>
<g id="a_node7"><a xlink:href="classaworx_1_1lib_1_1boxing_1_1Boxes.html" target="_top" xlink:title="Boxes">
<polygon fill="#ffffff" stroke="#000000" points="14.5,-134.5 14.5,-153.5 58.5,-153.5 58.5,-134.5 14.5,-134.5"/>
<text text-anchor="middle" x="36.5" y="-141.5" font-family="Helvetica,sans-Serif" font-size="10.00" fill="#000000">Boxes</text>
</a>
</g>
</g>
<!-- Node21&#45;&gt;Node20 -->
<g id="edge7" class="edge">
<title>Node21&#45;&gt;Node20</title>
<path fill="none" stroke="#191970" d="M36.5,-202.2866C36.5,-186.7395 36.5,-165.7276 36.5,-153.6426"/>
<polygon fill="#191970" stroke="#191970" points="33.0001,-202.4356 36.5,-212.4357 40.0001,-202.4357 33.0001,-202.4356"/>
</g>
<!-- Node7 -->
<g id="node2" class="node">
<title>Node7</title>
<polygon fill="#bfbfbf" stroke="#000000" points="93,-.5 93,-19.5 224,-19.5 224,-.5 93,-.5"/>
<text text-anchor="middle" x="158.5" y="-7.5" font-family="Helvetica,sans-Serif" font-size="10.00" fill="#000000">FormatterStdImpl&lt;TChar&gt;</text>
</g>
<!-- Node8 -->
<g id="node3" class="node">
<title>Node8</title>
<g id="a_node3"><a xlink:href="classaworx_1_1lib_1_1strings_1_1format_1_1FormatterBase.html" target="_top" xlink:title="[DOX_ALIB_ENUM_META_DATA_SPECIFCATION_using_enum] ">
<polygon fill="#ffffff" stroke="#000000" points="99,-67.5 99,-86.5 218,-86.5 218,-67.5 99,-67.5"/>
<text text-anchor="middle" x="158.5" y="-74.5" font-family="Helvetica,sans-Serif" font-size="10.00" fill="#000000">FormatterBase&lt;TChar&gt;</text>
</a>
</g>
</g>
<!-- Node8&#45;&gt;Node7 -->
<g id="edge1" class="edge">
<title>Node8&#45;&gt;Node7</title>
<path fill="none" stroke="#191970" d="M158.5,-57.1079C158.5,-44.714 158.5,-29.3263 158.5,-19.5817"/>
<polygon fill="#191970" stroke="#191970" points="155.0001,-57.4005 158.5,-67.4005 162.0001,-57.4006 155.0001,-57.4005"/>
</g>
<!-- Node18 -->
<g id="node4" class="node">
<title>Node18</title>
<g id="a_node4"><a xlink:href="classaworx_1_1lib_1_1strings_1_1TStringBase.html" target="_top" xlink:title="TStringBase\&lt;nchar\&gt;">
<polygon fill="#ffffff" stroke="#ff0000" points="96,-212.5 96,-231.5 203,-231.5 203,-212.5 96,-212.5"/>
<text text-anchor="middle" x="149.5" y="-219.5" font-family="Helvetica,sans-Serif" font-size="10.00" fill="#000000">TStringBase&lt;nchar&gt;</text>
</a>
</g>
</g>
<!-- Node9 -->
<g id="node5" class="node">
<title>Node9</title>
<g id="a_node5"><a xlink:href="classaworx_1_1lib_1_1threads_1_1ThreadLock.html" target="_top" xlink:title="ThreadLock">
<polygon fill="#ffffff" stroke="#000000" points="124.5,-134.5 124.5,-153.5 192.5,-153.5 192.5,-134.5 124.5,-134.5"/>
<text text-anchor="middle" x="158.5" y="-141.5" font-family="Helvetica,sans-Serif" font-size="10.00" fill="#000000">ThreadLock</text>
</a>
</g>
</g>
<!-- Node18&#45;&gt;Node9 -->
<g id="edge4" class="edge">
<title>Node18&#45;&gt;Node9</title>
<path fill="none" stroke="#9a32cd" stroke-dasharray="5,2" d="M148.7259,-202.2318C148.6628,-192.9996 149.0141,-181.8885 150.5,-172 151.4315,-165.8006 153.3376,-159.0375 155.0556,-153.7114"/>
<polygon fill="#9a32cd" stroke="#9a32cd" points="145.2296,-202.4363 148.9601,-212.3526 152.2277,-202.2743 145.2296,-202.4363"/>
<text text-anchor="middle" x="208" y="-186" font-family="Helvetica,sans-Serif" font-size="10.00" fill="#000000"> acquirementMethodName</text>
<text text-anchor="middle" x="208" y="-175" font-family="Helvetica,sans-Serif" font-size="10.00" fill="#000000">acquirementSourcefile</text>
</g>
<!-- Node9&#45;&gt;Node8 -->
<g id="edge2" class="edge">
<title>Node9&#45;&gt;Node8</title>
<path fill="none" stroke="#191970" d="M158.5,-124.1079C158.5,-111.714 158.5,-96.3263 158.5,-86.5817"/>
<polygon fill="#191970" stroke="#191970" points="155.0001,-124.4005 158.5,-134.4005 162.0001,-124.4006 155.0001,-124.4005"/>
</g>
<!-- Node10 -->
<g id="node6" class="node">
<title>Node10</title>
<g id="a_node6"><a xlink:href="classaworx_1_1lib_1_1threads_1_1Thread.html" target="_top" xlink:title="Thread">
<polygon fill="#ffffff" stroke="#ff0000" points="264,-212.5 264,-231.5 311,-231.5 311,-212.5 264,-212.5"/>
<text text-anchor="middle" x="287.5" y="-219.5" font-family="Helvetica,sans-Serif" font-size="10.00" fill="#000000">Thread</text>
</a>
</g>
</g>
<!-- Node10&#45;&gt;Node9 -->
<g id="edge3" class="edge">
<title>Node10&#45;&gt;Node9</title>
<path fill="none" stroke="#9a32cd" stroke-dasharray="5,2" d="M283.2892,-202.4553C280.0786,-192.0208 274.6046,-179.7644 265.5,-172 259.8384,-167.1718 221.8073,-157.9257 192.6796,-151.3814"/>
<polygon fill="#9a32cd" stroke="#9a32cd" points="279.9718,-203.6057 285.873,-212.4049 286.7471,-201.8462 279.9718,-203.6057"/>
<text text-anchor="middle" x="295.5" y="-180.5" font-family="Helvetica,sans-Serif" font-size="10.00" fill="#000000"> owner</text>
</g>
<!-- Node20&#45;&gt;Node7 -->
<g id="edge5" class="edge">
<title>Node20&#45;&gt;Node7</title>
<path fill="none" stroke="#9a32cd" stroke-dasharray="5,2" d="M32.2515,-123.7639C29.9226,-107.1294 29.4268,-83.6695 40.5,-67 57.1171,-41.9849 87.9704,-27.6121 113.9608,-19.5575"/>
<polygon fill="#9a32cd" stroke="#9a32cd" points="28.874,-124.7706 34.0371,-134.0222 35.7704,-123.5701 28.874,-124.7706"/>
<text text-anchor="middle" x="65" y="-74.5" font-family="Helvetica,sans-Serif" font-size="10.00" fill="#000000"> arguments</text>
</g>
<!-- Node20&#45;&gt;Node8 -->
<g id="edge6" class="edge">
<title>Node20&#45;&gt;Node8</title>
<path fill="none" stroke="#9a32cd" stroke-dasharray="5,2" d="M62.7982,-129.5575C86.4714,-116.5567 120.5929,-97.8179 141.0528,-86.5817"/>
<polygon fill="#9a32cd" stroke="#9a32cd" points="61.06,-126.519 53.9796,-134.4005 64.4296,-132.6546 61.06,-126.519"/>
<text text-anchor="middle" x="120.5" y="-108" font-family="Helvetica,sans-Serif" font-size="10.00" fill="#000000"> boxes</text>
</g>
<!-- Node23 -->
<g id="node8" class="node">
<title>Node23</title>
<g id="a_node8"><a xlink:href="classaworx_1_1lib_1_1boxing_1_1Box.html" target="_top" xlink:title="Box">
<polygon fill="#ffffff" stroke="#000000" points="236.5,-67.5 236.5,-86.5 270.5,-86.5 270.5,-67.5 236.5,-67.5"/>
<text text-anchor="middle" x="253.5" y="-74.5" font-family="Helvetica,sans-Serif" font-size="10.00" fill="#000000">Box</text>
</a>
</g>
</g>
<!-- Node23&#45;&gt;Node7 -->
<g id="edge8" class="edge">
<title>Node23&#45;&gt;Node7</title>
<path fill="none" stroke="#9a32cd" stroke-dasharray="5,2" d="M231.5368,-61.5102C213.1846,-48.567 187.5949,-30.5195 172.0859,-19.5817"/>
<polygon fill="#9a32cd" stroke="#9a32cd" points="229.6995,-64.4973 239.8888,-67.4005 233.734,-58.7768 229.6995,-64.4973"/>
<text text-anchor="middle" x="243" y="-41" font-family="Helvetica,sans-Serif" font-size="10.00" fill="#000000"> phaArgument</text>
</g>
<!-- Node24 -->
<g id="node9" class="node">
<title>Node24</title>
<g id="a_node9"><a xlink:href="structaworx_1_1lib_1_1boxing_1_1BoxData.html" target="_top" xlink:title="BoxData">
<polygon fill="#ffffff" stroke="#000000" points="218,-134.5 218,-153.5 273,-153.5 273,-134.5 218,-134.5"/>
<text text-anchor="middle" x="245.5" y="-141.5" font-family="Helvetica,sans-Serif" font-size="10.00" fill="#000000">BoxData</text>
</a>
</g>
</g>
<!-- Node24&#45;&gt;Node23 -->
<g id="edge9" class="edge">
<title>Node24&#45;&gt;Node23</title>
<path fill="none" stroke="#9a32cd" stroke-dasharray="5,2" d="M247.8752,-124.1079C249.355,-111.714 251.1924,-96.3263 252.3559,-86.5817"/>
<polygon fill="#9a32cd" stroke="#9a32cd" points="244.3566,-124.0561 246.6462,-134.4005 251.3072,-124.8861 244.3566,-124.0561"/>
<text text-anchor="middle" x="261.5" y="-108" font-family="Helvetica,sans-Serif" font-size="10.00" fill="#000000"> data</text>
</g>
<!-- Node25 -->
<g id="node10" class="node">
<title>Node25</title>
<g id="a_node10"><a xlink:href="classaworx_1_1lib_1_1boxing_1_1Boxer.html" target="_top" xlink:title="Boxer">
<polygon fill="#ffffff" stroke="#000000" points="291.5,-134.5 291.5,-153.5 333.5,-153.5 333.5,-134.5 291.5,-134.5"/>
<text text-anchor="middle" x="312.5" y="-141.5" font-family="Helvetica,sans-Serif" font-size="10.00" fill="#000000">Boxer</text>
</a>
</g>
</g>
<!-- Node25&#45;&gt;Node23 -->
<g id="edge10" class="edge">
<title>Node25&#45;&gt;Node23</title>
<path fill="none" stroke="#9a32cd" stroke-dasharray="5,2" d="M297.2786,-126.7147C286.0302,-113.941 271.1316,-97.0224 261.9376,-86.5817"/>
<polygon fill="#9a32cd" stroke="#9a32cd" points="294.8112,-129.2087 304.0467,-134.4005 300.0646,-124.5825 294.8112,-129.2087"/>
<text text-anchor="middle" x="301.5" y="-108" font-family="Helvetica,sans-Serif" font-size="10.00" fill="#000000"> boxer</text>
</g>
</g>
</svg>
