<?xml version="1.0" encoding="UTF-8" standalone="no"?>
<!DOCTYPE svg PUBLIC "-//W3C//DTD SVG 1.1//EN"
 "http://www.w3.org/Graphics/SVG/1.1/DTD/svg11.dtd">
<!-- Generated by graphviz version 2.40.1 (20161225.0304)
 -->
<!-- Title: CLIArgs Pages: 1 -->
<svg width="279pt" height="262pt"
 viewBox="0.00 0.00 279.00 262.00" xmlns="http://www.w3.org/2000/svg" xmlns:xlink="http://www.w3.org/1999/xlink">
<g id="graph0" class="graph" transform="scale(1 1) rotate(0) translate(4 258)">
<title>CLIArgs</title>
<polygon fill="#ffffff" stroke="transparent" points="-4,4 -4,-258 275,-258 275,4 -4,4"/>
<!-- Node2 -->
<g id="node1" class="node">
<title>Node2</title>
<polygon fill="#bfbfbf" stroke="#000000" points="85.5,-.5 85.5,-19.5 138.5,-19.5 138.5,-.5 85.5,-.5"/>
<text text-anchor="middle" x="112" y="-7.5" font-family="Helvetica,sans-Serif" font-size="10.00" fill="#000000">CLIArgs</text>
</g>
<!-- Node5 -->
<g id="node2" class="node">
<title>Node5</title>
<polygon fill="#ffffff" stroke="#bfbfbf" points="0,-78.5 0,-97.5 104,-97.5 104,-78.5 0,-78.5"/>
<text text-anchor="middle" x="52" y="-85.5" font-family="Helvetica,sans-Serif" font-size="10.00" fill="#000000">vector&lt;StringBase&gt;</text>
</g>
<!-- Node5&#45;&gt;Node2 -->
<g id="edge3" class="edge">
<title>Node5&#45;&gt;Node2</title>
<path fill="none" stroke="#9a32cd" stroke-dasharray="5,2" d="M56.4107,-68.5348C59.3514,-58.653 63.9934,-46.8915 71,-38 76.8684,-30.5528 85.2636,-24.3358 92.9305,-19.6669"/>
<polygon fill="#9a32cd" stroke="#9a32cd" points="53.0023,-67.7348 53.8562,-78.2951 59.7742,-69.5072 53.0023,-67.7348"/>
<text text-anchor="middle" x="112" y="-52" font-family="Helvetica,sans-Serif" font-size="10.00" fill="#000000"> DefaultCategories</text>
<text text-anchor="middle" x="112" y="-41" font-family="Helvetica,sans-Serif" font-size="10.00" fill="#000000">args</text>
</g>
<!-- Node6 -->
<g id="node3" class="node">
<title>Node6</title>
<g id="a_node3"><a xlink:href="classaworx_1_1lib_1_1strings_1_1StringBase.html" target="_top" xlink:title="StringBase\&lt;TChar\&gt;">
<polygon fill="#ffffff" stroke="#000000" points=".5,-156.5 .5,-175.5 103.5,-175.5 103.5,-156.5 .5,-156.5"/>
<text text-anchor="middle" x="52" y="-163.5" font-family="Helvetica,sans-Serif" font-size="10.00" fill="#000000">StringBase&lt;TChar&gt;</text>
</a>
</g>
</g>
<!-- Node6&#45;&gt;Node5 -->
<g id="edge4" class="edge">
<title>Node6&#45;&gt;Node5</title>
<path fill="none" stroke="#9a32cd" stroke-dasharray="5,2" d="M52,-146.2866C52,-130.7395 52,-109.7276 52,-97.6426"/>
<polygon fill="#9a32cd" stroke="#9a32cd" points="48.5001,-146.4356 52,-156.4357 55.5001,-146.4357 48.5001,-146.4356"/>
<text text-anchor="middle" x="73.5" y="-124.5" font-family="Helvetica,sans-Serif" font-size="10.00" fill="#000000"> elements</text>
</g>
<!-- Node3 -->
<g id="node4" class="node">
<title>Node3</title>
<g id="a_node4"><a xlink:href="classaworx_1_1lib_1_1config_1_1ConfigurationPlugin.html" target="_top" xlink:title="ConfigurationPlugin">
<polygon fill="#ffffff" stroke="#000000" points="122.5,-78.5 122.5,-97.5 223.5,-97.5 223.5,-78.5 122.5,-78.5"/>
<text text-anchor="middle" x="173" y="-85.5" font-family="Helvetica,sans-Serif" font-size="10.00" fill="#000000">ConfigurationPlugin</text>
</a>
</g>
</g>
<!-- Node3&#45;&gt;Node2 -->
<g id="edge1" class="edge">
<title>Node3&#45;&gt;Node2</title>
<path fill="none" stroke="#191970" d="M168.1565,-68.5338C165.0064,-58.6518 160.1316,-46.8904 153,-38 147.0671,-30.604 138.663,-24.3943 131.0066,-19.7169"/>
<polygon fill="#191970" stroke="#191970" points="164.8287,-69.628 170.9231,-78.2945 171.5634,-67.7191 164.8287,-69.628"/>
</g>
<!-- Node4 -->
<g id="node5" class="node">
<title>Node4</title>
<g id="a_node5"><a xlink:href="classaworx_1_1lib_1_1config_1_1XTernalizer.html" target="_top" xlink:title="XTernalizer">
<polygon fill="#ffffff" stroke="#000000" points="140.5,-156.5 140.5,-175.5 205.5,-175.5 205.5,-156.5 140.5,-156.5"/>
<text text-anchor="middle" x="173" y="-163.5" font-family="Helvetica,sans-Serif" font-size="10.00" fill="#000000">XTernalizer</text>
</a>
</g>
</g>
<!-- Node4&#45;&gt;Node3 -->
<g id="edge2" class="edge">
<title>Node4&#45;&gt;Node3</title>
<path fill="none" stroke="#9a32cd" stroke-dasharray="5,2" d="M173,-146.2866C173,-130.7395 173,-109.7276 173,-97.6426"/>
<polygon fill="#9a32cd" stroke="#9a32cd" points="169.5001,-146.4356 173,-156.4357 176.5001,-146.4357 169.5001,-146.4356"/>
<text text-anchor="middle" x="222" y="-130" font-family="Helvetica,sans-Serif" font-size="10.00" fill="#000000"> StringConverter</text>
<text text-anchor="middle" x="222" y="-119" font-family="Helvetica,sans-Serif" font-size="10.00" fill="#000000">defaultStringConverter</text>
</g>
<!-- Node7 -->
<g id="node6" class="node">
<title>Node7</title>
<polygon fill="#ffffff" stroke="#bfbfbf" points="30.5,-234.5 30.5,-253.5 73.5,-253.5 73.5,-234.5 30.5,-234.5"/>
<text text-anchor="middle" x="52" y="-241.5" font-family="Helvetica,sans-Serif" font-size="10.00" fill="#000000">TChar</text>
</g>
<!-- Node7&#45;&gt;Node6 -->
<g id="edge5" class="edge">
<title>Node7&#45;&gt;Node6</title>
<path fill="none" stroke="#9a32cd" stroke-dasharray="5,2" d="M52,-224.2866C52,-208.7395 52,-187.7276 52,-175.6426"/>
<polygon fill="#9a32cd" stroke="#9a32cd" points="48.5001,-224.4356 52,-234.4357 55.5001,-224.4357 48.5001,-224.4356"/>
<text text-anchor="middle" x="68.5" y="-208" font-family="Helvetica,sans-Serif" font-size="10.00" fill="#000000"> vbuffer</text>
<text text-anchor="middle" x="68.5" y="-197" font-family="Helvetica,sans-Serif" font-size="10.00" fill="#000000">buffer</text>
</g>
</g>
</svg>
