<?xml version="1.0" encoding="UTF-8" standalone="no"?>
<!DOCTYPE svg PUBLIC "-//W3C//DTD SVG 1.1//EN"
 "http://www.w3.org/Graphics/SVG/1.1/DTD/svg11.dtd">
<!-- Generated by graphviz version 2.40.1 (20161225.0304)
 -->
<!-- Title: IEquals_TncharArr Pages: 1 -->
<svg width="229pt" height="140pt"
 viewBox="0.00 0.00 228.50 140.00" xmlns="http://www.w3.org/2000/svg" xmlns:xlink="http://www.w3.org/1999/xlink">
<g id="graph0" class="graph" transform="scale(1 1) rotate(0) translate(4 136)">
<title>IEquals_TncharArr</title>
<polygon fill="#ffffff" stroke="transparent" points="-4,4 -4,-136 224.5,-136 224.5,4 -4,4"/>
<!-- Node0 -->
<g id="node1" class="node">
<title>Node0</title>
<polygon fill="#bfbfbf" stroke="#000000" points="85,-.5 85,-19.5 183,-19.5 183,-.5 85,-.5"/>
<text text-anchor="middle" x="134" y="-7.5" font-family="Helvetica,sans-Serif" font-size="10.00" fill="#000000">IEquals_TncharArr</text>
</g>
<!-- Node3 -->
<g id="node2" class="node">
<title>Node3</title>
<g id="a_node2"><a xlink:href="classaworx_1_1lib_1_1lang_1_1Singleton.html" target="_top" xlink:title="Singleton\&lt;IEquals_TncharArr\&gt;">
<polygon fill="#ffffff" stroke="#000000" points="0,-56.5 0,-75.5 150,-75.5 150,-56.5 0,-56.5"/>
<text text-anchor="middle" x="75" y="-63.5" font-family="Helvetica,sans-Serif" font-size="10.00" fill="#000000">Singleton&lt;IEquals_TncharArr&gt;</text>
</a>
</g>
</g>
<!-- Node3&#45;&gt;Node0 -->
<g id="edge3" class="edge">
<title>Node3&#45;&gt;Node0</title>
<path fill="none" stroke="#191970" d="M92.5307,-49.3607C102.7377,-39.6727 115.2469,-27.7995 123.8408,-19.6427"/>
<polygon fill="#191970" stroke="#191970" points="90.1206,-46.8227 85.277,-56.2455 94.9396,-51.8998 90.1206,-46.8227"/>
</g>
<!-- Node1 -->
<g id="node3" class="node">
<title>Node1</title>
<g id="a_node3"><a xlink:href="classaworx_1_1lib_1_1boxing_1_1IEquals.html" target="_top" xlink:title="IEquals">
<polygon fill="#ffffff" stroke="#000000" points="168,-56.5 168,-75.5 218,-75.5 218,-56.5 168,-56.5"/>
<text text-anchor="middle" x="193" y="-63.5" font-family="Helvetica,sans-Serif" font-size="10.00" fill="#000000">IEquals</text>
</a>
</g>
</g>
<!-- Node1&#45;&gt;Node0 -->
<g id="edge1" class="edge">
<title>Node1&#45;&gt;Node0</title>
<path fill="none" stroke="#191970" d="M175.4693,-49.3607C165.2623,-39.6727 152.7531,-27.7995 144.1592,-19.6427"/>
<polygon fill="#191970" stroke="#191970" points="173.0604,-51.8998 182.723,-56.2455 177.8794,-46.8227 173.0604,-51.8998"/>
</g>
<!-- Node2 -->
<g id="node4" class="node">
<title>Node2</title>
<g id="a_node4"><a xlink:href="classaworx_1_1lib_1_1boxing_1_1Interface.html" target="_top" xlink:title="Interface">
<polygon fill="#ffffff" stroke="#000000" points="165.5,-112.5 165.5,-131.5 220.5,-131.5 220.5,-112.5 165.5,-112.5"/>
<text text-anchor="middle" x="193" y="-119.5" font-family="Helvetica,sans-Serif" font-size="10.00" fill="#000000">Interface</text>
</a>
</g>
</g>
<!-- Node2&#45;&gt;Node1 -->
<g id="edge2" class="edge">
<title>Node2&#45;&gt;Node1</title>
<path fill="none" stroke="#191970" d="M193,-102.1575C193,-93.155 193,-82.9199 193,-75.6427"/>
<polygon fill="#191970" stroke="#191970" points="189.5001,-102.2455 193,-112.2455 196.5001,-102.2456 189.5001,-102.2455"/>
</g>
</g>
</svg>
