<?xml version="1.0" encoding="UTF-8" standalone="no"?>
<!DOCTYPE svg PUBLIC "-//W3C//DTD SVG 1.1//EN"
 "http://www.w3.org/Graphics/SVG/1.1/DTD/svg11.dtd">
<!-- Generated by graphviz version 2.40.1 (20161225.0304)
 -->
<!-- Title: IIsLess_Twchar_arr Pages: 1 -->
<svg width="233pt" height="152pt"
 viewBox="0.00 0.00 233.00 152.00" xmlns="http://www.w3.org/2000/svg" xmlns:xlink="http://www.w3.org/1999/xlink">
<g id="graph0" class="graph" transform="scale(1 1) rotate(0) translate(4 148)">
<title>IIsLess_Twchar_arr</title>
<polygon fill="#ffffff" stroke="transparent" points="-4,4 -4,-148 229,-148 229,4 -4,4"/>
<!-- Node4 -->
<g id="node1" class="node">
<title>Node4</title>
<polygon fill="#bfbfbf" stroke="#000000" points="85.5,-.5 85.5,-19.5 187.5,-19.5 187.5,-.5 85.5,-.5"/>
<text text-anchor="middle" x="136.5" y="-7.5" font-family="Helvetica,sans-Serif" font-size="10.00" fill="#000000">IIsLess_Twchar_arr</text>
</g>
<!-- Node7 -->
<g id="node2" class="node">
<title>Node7</title>
<g id="a_node2"><a xlink:href="classaworx_1_1lib_1_1lang_1_1Singleton.html" target="_top" xlink:title="Singleton\&lt;IIsLess_Twchar_arr\&gt;">
<polygon fill="#ffffff" stroke="#000000" points="0,-57.5 0,-76.5 155,-76.5 155,-57.5 0,-57.5"/>
<text text-anchor="middle" x="77.5" y="-64.5" font-family="Helvetica,sans-Serif" font-size="10.00" fill="#000000">Singleton&lt;IIsLess_Twchar_arr&gt;</text>
</a>
</g>
</g>
<!-- Node7&#45;&gt;Node4 -->
<g id="edge3" class="edge">
<title>Node7&#45;&gt;Node4</title>
<path fill="none" stroke="#191970" d="M94.8491,-50.239C105.2075,-40.2317 117.988,-27.8845 126.6393,-19.5265"/>
<polygon fill="#191970" stroke="#191970" points="92.2686,-47.8654 87.5085,-57.3307 97.1323,-52.8998 92.2686,-47.8654"/>
</g>
<!-- Node5 -->
<g id="node3" class="node">
<title>Node5</title>
<g id="a_node3"><a xlink:href="classaworx_1_1lib_1_1boxing_1_1IIsLess.html" target="_top" xlink:title="IIsLess">
<polygon fill="#ffffff" stroke="#000000" points="173,-57.5 173,-76.5 222,-76.5 222,-57.5 173,-57.5"/>
<text text-anchor="middle" x="197.5" y="-64.5" font-family="Helvetica,sans-Serif" font-size="10.00" fill="#000000">IIsLess</text>
</a>
</g>
</g>
<!-- Node5&#45;&gt;Node4 -->
<g id="edge1" class="edge">
<title>Node5&#45;&gt;Node4</title>
<path fill="none" stroke="#191970" d="M179.5628,-50.239C168.8533,-40.2317 155.6396,-27.8845 146.695,-19.5265"/>
<polygon fill="#191970" stroke="#191970" points="177.456,-53.0606 187.1522,-57.3307 182.2352,-47.9459 177.456,-53.0606"/>
</g>
<!-- Node6 -->
<g id="node4" class="node">
<title>Node6</title>
<g id="a_node4"><a xlink:href="classaworx_1_1lib_1_1boxing_1_1Interface.html" target="_top" xlink:title="Interface">
<polygon fill="#ffffff" stroke="#000000" points="170,-124.5 170,-143.5 225,-143.5 225,-124.5 170,-124.5"/>
<text text-anchor="middle" x="197.5" y="-131.5" font-family="Helvetica,sans-Serif" font-size="10.00" fill="#000000">Interface</text>
</a>
</g>
</g>
<!-- Node6&#45;&gt;Node5 -->
<g id="edge2" class="edge">
<title>Node6&#45;&gt;Node5</title>
<path fill="none" stroke="#191970" d="M197.5,-114.1079C197.5,-101.714 197.5,-86.3263 197.5,-76.5817"/>
<polygon fill="#191970" stroke="#191970" points="194.0001,-114.4005 197.5,-124.4005 201.0001,-114.4006 194.0001,-114.4005"/>
</g>
<!-- Node8 -->
<g id="node5" class="node">
<title>Node8</title>
<polygon fill="#ffffff" stroke="#bfbfbf" points="36.5,-124.5 36.5,-143.5 118.5,-143.5 118.5,-124.5 36.5,-124.5"/>
<text text-anchor="middle" x="77.5" y="-131.5" font-family="Helvetica,sans-Serif" font-size="10.00" fill="#000000">TDerivedClass</text>
</g>
<!-- Node8&#45;&gt;Node7 -->
<g id="edge4" class="edge">
<title>Node8&#45;&gt;Node7</title>
<path fill="none" stroke="#9a32cd" stroke-dasharray="5,2" d="M77.5,-114.1079C77.5,-101.714 77.5,-86.3263 77.5,-76.5817"/>
<polygon fill="#9a32cd" stroke="#9a32cd" points="74.0001,-114.4005 77.5,-124.4005 81.0001,-114.4006 74.0001,-114.4005"/>
<text text-anchor="middle" x="99" y="-98" font-family="Helvetica,sans-Serif" font-size="10.00" fill="#000000"> singleton</text>
</g>
</g>
</svg>
