<?xml version="1.0" encoding="UTF-8" standalone="no"?>
<!DOCTYPE svg PUBLIC "-//W3C//DTD SVG 1.1//EN"
 "http://www.w3.org/Graphics/SVG/1.1/DTD/svg11.dtd">
<!-- Generated by graphviz version 2.40.1 (20161225.0304)
 -->
<!-- Title: PropertyFormatters&lt;TFormattable, TVariable&gt; Pages: 1 -->
<svg width="466pt" height="240pt"
 viewBox="0.00 0.00 465.50 240.00" xmlns="http://www.w3.org/2000/svg" xmlns:xlink="http://www.w3.org/1999/xlink">
<g id="graph0" class="graph" transform="scale(1 1) rotate(0) translate(4 236)">
<title>PropertyFormatters&lt;TFormattable, TVariable&gt;</title>
<polygon fill="#ffffff" stroke="transparent" points="-4,4 -4,-236 461.5,-236 461.5,4 -4,4"/>
<!-- Node1 -->
<g id="node1" class="node">
<title>Node1</title>
<polygon fill="#bfbfbf" stroke="#000000" points="228,-.5 228,-19.5 445,-19.5 445,-.5 228,-.5"/>
<text text-anchor="middle" x="336.5" y="-7.5" font-family="Helvetica,sans-Serif" font-size="10.00" fill="#000000">PropertyFormatters&lt;TFormattable, TVariable&gt;</text>
</g>
<!-- Node2 -->
<g id="node2" class="node">
<title>Node2</title>
<polygon fill="#ffffff" stroke="#bfbfbf" points="153,-67.5 153,-86.5 366,-86.5 366,-67.5 153,-67.5"/>
<text text-anchor="middle" x="259.5" y="-74.5" font-family="Helvetica,sans-Serif" font-size="10.00" fill="#000000">map&lt;TVariable, format::PropertyFormatter *&gt;</text>
</g>
<!-- Node2&#45;&gt;Node1 -->
<g id="edge1" class="edge">
<title>Node2&#45;&gt;Node1</title>
<path fill="none" stroke="#9a32cd" stroke-dasharray="5,2" d="M278.1188,-60.7992C292.9282,-47.9131 313.1464,-30.3207 325.4882,-19.5817"/>
<polygon fill="#9a32cd" stroke="#9a32cd" points="275.7787,-58.1959 270.5322,-67.4005 280.3737,-63.4767 275.7787,-58.1959"/>
<text text-anchor="middle" x="327.5" y="-41" font-family="Helvetica,sans-Serif" font-size="10.00" fill="#000000"> formatters</text>
</g>
<!-- Node7 -->
<g id="node3" class="node">
<title>Node7</title>
<polygon fill="#ffffff" stroke="#bfbfbf" points="0,-212.5 0,-231.5 179,-231.5 179,-212.5 0,-212.5"/>
<text text-anchor="middle" x="89.5" y="-219.5" font-family="Helvetica,sans-Serif" font-size="10.00" fill="#000000">vector&lt;const TCallbackTableEntry *&gt;</text>
</g>
<!-- Node3 -->
<g id="node6" class="node">
<title>Node3</title>
<g id="a_node6"><a xlink:href="classaworx_1_1lib_1_1strings_1_1format_1_1PropertyFormatter.html" target="_top" xlink:title="PropertyFormatter">
<polygon fill="#ffffff" stroke="#000000" points="212,-134.5 212,-153.5 307,-153.5 307,-134.5 212,-134.5"/>
<text text-anchor="middle" x="259.5" y="-141.5" font-family="Helvetica,sans-Serif" font-size="10.00" fill="#000000">PropertyFormatter</text>
</a>
</g>
</g>
<!-- Node7&#45;&gt;Node3 -->
<g id="edge5" class="edge">
<title>Node7&#45;&gt;Node3</title>
<path fill="none" stroke="#9a32cd" stroke-dasharray="5,2" d="M119.8535,-208.0731C154.1424,-192.3405 209.0273,-167.158 238.7503,-153.5204"/>
<polygon fill="#9a32cd" stroke="#9a32cd" points="117.9747,-205.0842 110.3453,-212.4357 120.8939,-211.4465 117.9747,-205.0842"/>
<text text-anchor="middle" x="218.5" y="-180.5" font-family="Helvetica,sans-Serif" font-size="10.00" fill="#000000"> callBacks</text>
</g>
<!-- Node11 -->
<g id="node4" class="node">
<title>Node11</title>
<g id="a_node4"><a xlink:title="STL class. ">
<polygon fill="#ffffff" stroke="#bfbfbf" points="383.5,-67.5 383.5,-86.5 445.5,-86.5 445.5,-67.5 383.5,-67.5"/>
<text text-anchor="middle" x="414.5" y="-74.5" font-family="Helvetica,sans-Serif" font-size="10.00" fill="#000000">vector&lt;T&gt;</text>
</a>
</g>
</g>
<!-- Node11&#45;&gt;Node1 -->
<g id="edge7" class="edge">
<title>Node11&#45;&gt;Node1</title>
<path fill="none" stroke="#9a32cd" stroke-dasharray="5,2" d="M395.6394,-60.7992C380.6376,-47.9131 360.1569,-30.3207 347.6548,-19.5817"/>
<polygon fill="#9a32cd" stroke="#9a32cd" points="393.4582,-63.5396 403.3245,-67.4005 398.0194,-58.2296 393.4582,-63.5396"/>
<text text-anchor="middle" x="403" y="-41" font-family="Helvetica,sans-Serif" font-size="10.00" fill="#000000"> callbacks</text>
</g>
<!-- Node8 -->
<g id="node5" class="node">
<title>Node8</title>
<g id="a_node5"><a xlink:href="classaworx_1_1lib_1_1strings_1_1AStringBase.html" target="_top" xlink:title="AStringBase\&lt;character\&gt;">
<polygon fill="#ffffff" stroke="#ff0000" points="197.5,-212.5 197.5,-231.5 321.5,-231.5 321.5,-212.5 197.5,-212.5"/>
<text text-anchor="middle" x="259.5" y="-219.5" font-family="Helvetica,sans-Serif" font-size="10.00" fill="#000000">AStringBase&lt;character&gt;</text>
</a>
</g>
</g>
<!-- Node8&#45;&gt;Node3 -->
<g id="edge6" class="edge">
<title>Node8&#45;&gt;Node3</title>
<path fill="none" stroke="#9a32cd" stroke-dasharray="5,2" d="M259.5,-202.2866C259.5,-186.7395 259.5,-165.7276 259.5,-153.6426"/>
<polygon fill="#9a32cd" stroke="#9a32cd" points="256.0001,-202.4356 259.5,-212.4357 263.0001,-202.4357 256.0001,-202.4356"/>
<text text-anchor="middle" x="307" y="-186" font-family="Helvetica,sans-Serif" font-size="10.00" fill="#000000"> propertyFormatString</text>
<text text-anchor="middle" x="307" y="-175" font-family="Helvetica,sans-Serif" font-size="10.00" fill="#000000">formatString</text>
</g>
<!-- Node3&#45;&gt;Node2 -->
<g id="edge2" class="edge">
<title>Node3&#45;&gt;Node2</title>
<path fill="none" stroke="#9a32cd" stroke-dasharray="5,2" d="M259.5,-124.1079C259.5,-111.714 259.5,-96.3263 259.5,-86.5817"/>
<polygon fill="#9a32cd" stroke="#9a32cd" points="256.0001,-124.4005 259.5,-134.4005 263.0001,-124.4006 256.0001,-124.4005"/>
<text text-anchor="middle" x="281" y="-108" font-family="Helvetica,sans-Serif" font-size="10.00" fill="#000000"> elements</text>
</g>
<!-- Node4 -->
<g id="node7" class="node">
<title>Node4</title>
<g id="a_node7"><a xlink:href="classaworx_1_1lib_1_1boxing_1_1Boxes.html" target="_top" xlink:title="Boxes">
<polygon fill="#ffffff" stroke="#ff0000" points="355.5,-212.5 355.5,-231.5 399.5,-231.5 399.5,-212.5 355.5,-212.5"/>
<text text-anchor="middle" x="377.5" y="-219.5" font-family="Helvetica,sans-Serif" font-size="10.00" fill="#000000">Boxes</text>
</a>
</g>
</g>
<!-- Node4&#45;&gt;Node3 -->
<g id="edge3" class="edge">
<title>Node4&#45;&gt;Node3</title>
<path fill="none" stroke="#9a32cd" stroke-dasharray="5,2" d="M373.2051,-202.5525C369.9681,-192.1486 364.4956,-179.8904 355.5,-172 347.7016,-165.1597 326.2654,-158.6043 305.6228,-153.5583"/>
<polygon fill="#9a32cd" stroke="#9a32cd" points="369.885,-203.6882 375.8233,-212.4624 376.6528,-201.9001 369.885,-203.6882"/>
<text text-anchor="middle" x="387" y="-180.5" font-family="Helvetica,sans-Serif" font-size="10.00" fill="#000000"> results</text>
</g>
<!-- Node6 -->
<g id="node8" class="node">
<title>Node6</title>
<polygon fill="#ffffff" stroke="#bfbfbf" points="400,-134.5 400,-153.5 429,-153.5 429,-134.5 400,-134.5"/>
<text text-anchor="middle" x="414.5" y="-141.5" font-family="Helvetica,sans-Serif" font-size="10.00" fill="#000000">T</text>
</g>
<!-- Node6&#45;&gt;Node11 -->
<g id="edge4" class="edge">
<title>Node6&#45;&gt;Node11</title>
<path fill="none" stroke="#9a32cd" stroke-dasharray="5,2" d="M414.5,-124.1079C414.5,-111.714 414.5,-96.3263 414.5,-86.5817"/>
<polygon fill="#9a32cd" stroke="#9a32cd" points="411.0001,-124.4005 414.5,-134.4005 418.0001,-124.4006 411.0001,-124.4005"/>
<text text-anchor="middle" x="436" y="-108" font-family="Helvetica,sans-Serif" font-size="10.00" fill="#000000"> elements</text>
</g>
</g>
</svg>
