<?xml version="1.0" encoding="UTF-8" standalone="no"?>
<!DOCTYPE svg PUBLIC "-//W3C//DTD SVG 1.1//EN"
 "http://www.w3.org/Graphics/SVG/1.1/DTD/svg11.dtd">
<!-- Generated by graphviz version 2.40.1 (20161225.0304)
 -->
<!-- Title: FormatterPythonStyleBase&lt;TChar&gt; Pages: 1 -->
<svg width="181pt" height="196pt"
 viewBox="0.00 0.00 181.00 196.00" xmlns="http://www.w3.org/2000/svg" xmlns:xlink="http://www.w3.org/1999/xlink">
<g id="graph0" class="graph" transform="scale(1 1) rotate(0) translate(4 192)">
<title>FormatterPythonStyleBase&lt;TChar&gt;</title>
<polygon fill="#ffffff" stroke="transparent" points="-4,4 -4,-192 177,-192 177,4 -4,4"/>
<!-- Node0 -->
<g id="node1" class="node">
<title>Node0</title>
<polygon fill="#bfbfbf" stroke="#000000" points="0,-.5 0,-19.5 173,-19.5 173,-.5 0,-.5"/>
<text text-anchor="middle" x="86.5" y="-7.5" font-family="Helvetica,sans-Serif" font-size="10.00" fill="#000000">FormatterPythonStyleBase&lt;TChar&gt;</text>
</g>
<!-- Node1 -->
<g id="node2" class="node">
<title>Node1</title>
<g id="a_node2"><a xlink:href="classaworx_1_1lib_1_1strings_1_1format_1_1FormatterStdImpl.html" target="_top" xlink:title="FormatterStdImpl\&lt;TChar\&gt;">
<polygon fill="#ffffff" stroke="#000000" points="21,-56.5 21,-75.5 152,-75.5 152,-56.5 21,-56.5"/>
<text text-anchor="middle" x="86.5" y="-63.5" font-family="Helvetica,sans-Serif" font-size="10.00" fill="#000000">FormatterStdImpl&lt;TChar&gt;</text>
</a>
</g>
</g>
<!-- Node1&#45;&gt;Node0 -->
<g id="edge1" class="edge">
<title>Node1&#45;&gt;Node0</title>
<path fill="none" stroke="#191970" d="M86.5,-46.1575C86.5,-37.155 86.5,-26.9199 86.5,-19.6427"/>
<polygon fill="#191970" stroke="#191970" points="83.0001,-46.2455 86.5,-56.2455 90.0001,-46.2456 83.0001,-46.2455"/>
</g>
<!-- Node2 -->
<g id="node3" class="node">
<title>Node2</title>
<g id="a_node3"><a xlink:href="classaworx_1_1lib_1_1strings_1_1format_1_1FormatterBase.html" target="_top" xlink:title="[DOX_ALIB_ENUM_META_DATA_SPECIFCATION_using_enum] ">
<polygon fill="#ffffff" stroke="#000000" points="27,-112.5 27,-131.5 146,-131.5 146,-112.5 27,-112.5"/>
<text text-anchor="middle" x="86.5" y="-119.5" font-family="Helvetica,sans-Serif" font-size="10.00" fill="#000000">FormatterBase&lt;TChar&gt;</text>
</a>
</g>
</g>
<!-- Node2&#45;&gt;Node1 -->
<g id="edge2" class="edge">
<title>Node2&#45;&gt;Node1</title>
<path fill="none" stroke="#191970" d="M86.5,-102.1575C86.5,-93.155 86.5,-82.9199 86.5,-75.6427"/>
<polygon fill="#191970" stroke="#191970" points="83.0001,-102.2455 86.5,-112.2455 90.0001,-102.2456 83.0001,-102.2455"/>
</g>
<!-- Node3 -->
<g id="node4" class="node">
<title>Node3</title>
<g id="a_node4"><a xlink:href="classaworx_1_1lib_1_1threads_1_1ThreadLock.html" target="_top" xlink:title="ThreadLock">
<polygon fill="#ffffff" stroke="#000000" points="52.5,-168.5 52.5,-187.5 120.5,-187.5 120.5,-168.5 52.5,-168.5"/>
<text text-anchor="middle" x="86.5" y="-175.5" font-family="Helvetica,sans-Serif" font-size="10.00" fill="#000000">ThreadLock</text>
</a>
</g>
</g>
<!-- Node3&#45;&gt;Node2 -->
<g id="edge3" class="edge">
<title>Node3&#45;&gt;Node2</title>
<path fill="none" stroke="#191970" d="M86.5,-158.1575C86.5,-149.155 86.5,-138.9199 86.5,-131.6427"/>
<polygon fill="#191970" stroke="#191970" points="83.0001,-158.2455 86.5,-168.2455 90.0001,-158.2456 83.0001,-158.2455"/>
</g>
</g>
</svg>
