<?xml version="1.0" encoding="UTF-8" standalone="no"?>
<!DOCTYPE svg PUBLIC "-//W3C//DTD SVG 1.1//EN"
 "http://www.w3.org/Graphics/SVG/1.1/DTD/svg11.dtd">
<!-- Generated by graphviz version 2.40.1 (20161225.0304)
 -->
<!-- Title: Report Pages: 1 -->
<svg width="569pt" height="240pt"
 viewBox="0.00 0.00 568.50 240.00" xmlns="http://www.w3.org/2000/svg" xmlns:xlink="http://www.w3.org/1999/xlink">
<g id="graph0" class="graph" transform="scale(1 1) rotate(0) translate(4 236)">
<title>Report</title>
<polygon fill="#ffffff" stroke="transparent" points="-4,4 -4,-236 564.5,-236 564.5,4 -4,4"/>
<!-- Node1 -->
<g id="node1" class="node">
<title>Node1</title>
<polygon fill="#bfbfbf" stroke="#000000" points="115.5,-.5 115.5,-19.5 161.5,-19.5 161.5,-.5 115.5,-.5"/>
<text text-anchor="middle" x="138.5" y="-7.5" font-family="Helvetica,sans-Serif" font-size="10.00" fill="#000000">Report</text>
</g>
<!-- Node1&#45;&gt;Node1 -->
<g id="edge1" class="edge">
<title>Node1&#45;&gt;Node1</title>
<path fill="none" stroke="#9a32cd" stroke-dasharray="5,2" d="M171.9107,-15.3327C176.4644,-14.4436 179.5,-12.666 179.5,-10 179.5,-5.625 171.3254,-3.6426 161.6818,-4.0527"/>
<polygon fill="#9a32cd" stroke="#9a32cd" points="171.4539,-11.8537 161.6818,-15.9473 171.8738,-18.8411 171.4539,-11.8537"/>
<text text-anchor="middle" x="210.5" y="-7.5" font-family="Helvetica,sans-Serif" font-size="10.00" fill="#000000"> defaultReport</text>
</g>
<!-- Node2 -->
<g id="node2" class="node">
<title>Node2</title>
<polygon fill="#ffffff" stroke="#bfbfbf" points="0,-67.5 0,-86.5 63,-86.5 63,-67.5 0,-67.5"/>
<text text-anchor="middle" x="31.5" y="-74.5" font-family="Helvetica,sans-Serif" font-size="10.00" fill="#000000">stack&lt;int&gt;</text>
</g>
<!-- Node2&#45;&gt;Node1 -->
<g id="edge2" class="edge">
<title>Node2&#45;&gt;Node1</title>
<path fill="none" stroke="#9a32cd" stroke-dasharray="5,2" d="M43.3577,-59.3289C49.0402,-51.9322 56.378,-43.7389 64.5,-38 79.869,-27.1404 99.9814,-19.885 115.3587,-15.4863"/>
<polygon fill="#9a32cd" stroke="#9a32cd" points="40.5105,-57.2934 37.4995,-67.4514 46.1879,-61.3882 40.5105,-57.2934"/>
<text text-anchor="middle" x="99.5" y="-41" font-family="Helvetica,sans-Serif" font-size="10.00" fill="#000000"> haltAfterReport</text>
</g>
<!-- Node3 -->
<g id="node3" class="node">
<title>Node3</title>
<polygon fill="#ffffff" stroke="#bfbfbf" points="81,-67.5 81,-86.5 196,-86.5 196,-67.5 81,-67.5"/>
<text text-anchor="middle" x="138.5" y="-74.5" font-family="Helvetica,sans-Serif" font-size="10.00" fill="#000000">stack&lt;ReportWriter *&gt;</text>
</g>
<!-- Node3&#45;&gt;Node1 -->
<g id="edge3" class="edge">
<title>Node3&#45;&gt;Node1</title>
<path fill="none" stroke="#9a32cd" stroke-dasharray="5,2" d="M138.5,-57.1079C138.5,-44.714 138.5,-29.3263 138.5,-19.5817"/>
<polygon fill="#9a32cd" stroke="#9a32cd" points="135.0001,-57.4005 138.5,-67.4005 142.0001,-57.4006 135.0001,-57.4005"/>
<text text-anchor="middle" x="155" y="-41" font-family="Helvetica,sans-Serif" font-size="10.00" fill="#000000"> writers</text>
</g>
<!-- Node14 -->
<g id="node4" class="node">
<title>Node14</title>
<g id="a_node4"><a xlink:href="classaworx_1_1lib_1_1strings_1_1TStringBase.html" target="_top" xlink:title="TStringBase\&lt;nchar\&gt;">
<polygon fill="#ffffff" stroke="#000000" points="194,-145.5 194,-164.5 301,-164.5 301,-145.5 194,-145.5"/>
<text text-anchor="middle" x="247.5" y="-152.5" font-family="Helvetica,sans-Serif" font-size="10.00" fill="#000000">TStringBase&lt;nchar&gt;</text>
</a>
</g>
</g>
<!-- Node5 -->
<g id="node8" class="node">
<title>Node5</title>
<g id="a_node8"><a xlink:href="classaworx_1_1lib_1_1threads_1_1ThreadLock.html" target="_top" xlink:title="ThreadLock">
<polygon fill="#ffffff" stroke="#000000" points="214.5,-67.5 214.5,-86.5 282.5,-86.5 282.5,-67.5 214.5,-67.5"/>
<text text-anchor="middle" x="248.5" y="-74.5" font-family="Helvetica,sans-Serif" font-size="10.00" fill="#000000">ThreadLock</text>
</a>
</g>
</g>
<!-- Node14&#45;&gt;Node5 -->
<g id="edge11" class="edge">
<title>Node14&#45;&gt;Node5</title>
<path fill="none" stroke="#9a32cd" stroke-dasharray="5,2" d="M247.7527,-135.2866C247.9521,-119.7395 248.2214,-98.7276 248.3764,-86.6426"/>
<polygon fill="#9a32cd" stroke="#9a32cd" points="244.2512,-135.3916 247.6226,-145.4357 251.2506,-135.4814 244.2512,-135.3916"/>
<text text-anchor="middle" x="306" y="-119" font-family="Helvetica,sans-Serif" font-size="10.00" fill="#000000"> acquirementMethodName</text>
<text text-anchor="middle" x="306" y="-108" font-family="Helvetica,sans-Serif" font-size="10.00" fill="#000000">acquirementSourcefile</text>
</g>
<!-- Node15 -->
<g id="node5" class="node">
<title>Node15</title>
<g id="a_node5"><a xlink:href="classaworx_1_1lib_1_1strings_1_1StringBase.html" target="_top" xlink:title="StringBase\&lt;nchar\&gt;">
<polygon fill="#ffffff" stroke="#000000" points="146,-212.5 146,-231.5 247,-231.5 247,-212.5 146,-212.5"/>
<text text-anchor="middle" x="196.5" y="-219.5" font-family="Helvetica,sans-Serif" font-size="10.00" fill="#000000">StringBase&lt;nchar&gt;</text>
</a>
</g>
</g>
<!-- Node15&#45;&gt;Node14 -->
<g id="edge12" class="edge">
<title>Node15&#45;&gt;Node14</title>
<path fill="none" stroke="#191970" d="M209.9361,-204.3486C219.6256,-191.6194 232.3348,-174.9229 240.2065,-164.5817"/>
<polygon fill="#191970" stroke="#191970" points="207.079,-202.3236 203.8071,-212.4005 212.6489,-206.5634 207.079,-202.3236"/>
</g>
<!-- Node8 -->
<g id="node6" class="node">
<title>Node8</title>
<g id="a_node6"><a xlink:href="classaworx_1_1lib_1_1strings_1_1PreallocatedStringBase.html" target="_top" xlink:title="PreallocatedStringBase\&lt;TChar\&gt;">
<polygon fill="#ffffff" stroke="#ff0000" points="265,-212.5 265,-231.5 422,-231.5 422,-212.5 265,-212.5"/>
<text text-anchor="middle" x="343.5" y="-219.5" font-family="Helvetica,sans-Serif" font-size="10.00" fill="#000000">PreallocatedStringBase&lt;TChar&gt;</text>
</a>
</g>
</g>
<!-- Node6 -->
<g id="node9" class="node">
<title>Node6</title>
<g id="a_node9"><a xlink:href="classaworx_1_1lib_1_1threads_1_1Thread.html" target="_top" xlink:title="Thread">
<polygon fill="#ffffff" stroke="#000000" points="413,-145.5 413,-164.5 460,-164.5 460,-145.5 413,-145.5"/>
<text text-anchor="middle" x="436.5" y="-152.5" font-family="Helvetica,sans-Serif" font-size="10.00" fill="#000000">Thread</text>
</a>
</g>
</g>
<!-- Node8&#45;&gt;Node6 -->
<g id="edge9" class="edge">
<title>Node8&#45;&gt;Node6</title>
<path fill="none" stroke="#9a32cd" stroke-dasharray="5,2" d="M365.0008,-206.5102C382.9667,-193.567 408.0176,-175.5195 423.2001,-164.5817"/>
<polygon fill="#9a32cd" stroke="#9a32cd" points="362.8925,-203.7153 356.8246,-212.4005 366.9842,-209.3949 362.8925,-203.7153"/>
<text text-anchor="middle" x="410.5" y="-186" font-family="Helvetica,sans-Serif" font-size="10.00" fill="#000000"> name</text>
</g>
<!-- Node4 -->
<g id="node7" class="node">
<title>Node4</title>
<g id="a_node7"><a xlink:href="classaworx_1_1lib_1_1lang_1_1ReportWriter.html" target="_top" xlink:title="ReportWriter">
<polygon fill="#ffffff" stroke="#000000" points="102.5,-145.5 102.5,-164.5 174.5,-164.5 174.5,-145.5 102.5,-145.5"/>
<text text-anchor="middle" x="138.5" y="-152.5" font-family="Helvetica,sans-Serif" font-size="10.00" fill="#000000">ReportWriter</text>
</a>
</g>
</g>
<!-- Node4&#45;&gt;Node3 -->
<g id="edge4" class="edge">
<title>Node4&#45;&gt;Node3</title>
<path fill="none" stroke="#9a32cd" stroke-dasharray="5,2" d="M138.5,-135.2866C138.5,-119.7395 138.5,-98.7276 138.5,-86.6426"/>
<polygon fill="#9a32cd" stroke="#9a32cd" points="135.0001,-135.4356 138.5,-145.4357 142.0001,-135.4357 135.0001,-135.4356"/>
<text text-anchor="middle" x="160" y="-113.5" font-family="Helvetica,sans-Serif" font-size="10.00" fill="#000000"> elements</text>
</g>
<!-- Node5&#45;&gt;Node1 -->
<g id="edge5" class="edge">
<title>Node5&#45;&gt;Node1</title>
<path fill="none" stroke="#9a32cd" stroke-dasharray="5,2" d="M223.9335,-62.0368C202.6293,-49.0605 172.4337,-30.6687 154.2311,-19.5817"/>
<polygon fill="#9a32cd" stroke="#9a32cd" points="222.3785,-65.1877 232.7397,-67.4005 226.0199,-59.2094 222.3785,-65.1877"/>
<text text-anchor="middle" x="211.5" y="-41" font-family="Helvetica,sans-Serif" font-size="10.00" fill="#000000"> lock</text>
</g>
<!-- Node6&#45;&gt;Node5 -->
<g id="edge6" class="edge">
<title>Node6&#45;&gt;Node5</title>
<path fill="none" stroke="#9a32cd" stroke-dasharray="5,2" d="M418.2829,-138.6832C405.0565,-127.6519 386.2601,-113.5829 367.5,-105 340.3836,-92.594 307.1874,-85.3716 282.7528,-81.3798"/>
<polygon fill="#9a32cd" stroke="#9a32cd" points="416.2463,-141.5476 426.1138,-145.4054 420.8058,-136.2362 416.2463,-141.5476"/>
<text text-anchor="middle" x="418.5" y="-113.5" font-family="Helvetica,sans-Serif" font-size="10.00" fill="#000000"> owner</text>
</g>
<!-- Node7 -->
<g id="node10" class="node">
<title>Node7</title>
<g id="a_node10"><a xlink:href="classaworx_1_1lib_1_1threads_1_1Runnable.html" target="_top" xlink:title="Runnable">
<polygon fill="#ffffff" stroke="#000000" points="440.5,-212.5 440.5,-231.5 498.5,-231.5 498.5,-212.5 440.5,-212.5"/>
<text text-anchor="middle" x="469.5" y="-219.5" font-family="Helvetica,sans-Serif" font-size="10.00" fill="#000000">Runnable</text>
</a>
</g>
</g>
<!-- Node7&#45;&gt;Node6 -->
<g id="edge7" class="edge">
<title>Node7&#45;&gt;Node6</title>
<path fill="none" stroke="#191970" d="M456.2369,-203.8635C454.1741,-200.66 452.175,-197.2941 450.5,-194 445.6089,-184.3813 441.6431,-172.6449 439.1974,-164.5749"/>
<polygon fill="#191970" stroke="#191970" points="453.4593,-206.0017 462.0027,-212.2675 459.2314,-202.0415 453.4593,-206.0017"/>
</g>
<!-- Node7&#45;&gt;Node6 -->
<g id="edge8" class="edge">
<title>Node7&#45;&gt;Node6</title>
<path fill="none" stroke="#9a32cd" stroke-dasharray="5,2" d="M460.2587,-203.2374C454.0646,-190.6614 446.1659,-174.6246 441.2193,-164.5817"/>
<polygon fill="#9a32cd" stroke="#9a32cd" points="457.2135,-204.9761 464.7719,-212.4005 463.4932,-201.8831 457.2135,-204.9761"/>
<text text-anchor="middle" x="475.5" y="-186" font-family="Helvetica,sans-Serif" font-size="10.00" fill="#000000"> runnable</text>
</g>
<!-- Node13 -->
<g id="node11" class="node">
<title>Node13</title>
<g id="a_node11"><a xlink:title="STL class. ">
<polygon fill="#ffffff" stroke="#bfbfbf" points="516.5,-212.5 516.5,-231.5 560.5,-231.5 560.5,-212.5 516.5,-212.5"/>
<text text-anchor="middle" x="538.5" y="-219.5" font-family="Helvetica,sans-Serif" font-size="10.00" fill="#000000">thread</text>
</a>
</g>
</g>
<!-- Node13&#45;&gt;Node6 -->
<g id="edge10" class="edge">
<title>Node13&#45;&gt;Node6</title>
<path fill="none" stroke="#9a32cd" stroke-dasharray="5,2" d="M523.9542,-204.8405C517.0775,-197.4561 508.4266,-189.1308 499.5,-183 487.3645,-174.6653 472.3469,-167.876 460.0182,-163.071"/>
<polygon fill="#9a32cd" stroke="#9a32cd" points="521.3769,-207.209 530.6488,-212.3356 526.5976,-202.5459 521.3769,-207.209"/>
<text text-anchor="middle" x="536" y="-186" font-family="Helvetica,sans-Serif" font-size="10.00" fill="#000000"> c11Thread</text>
</g>
</g>
</svg>
