<?xml version="1.0" encoding="UTF-8" standalone="no"?>
<!DOCTYPE svg PUBLIC "-//W3C//DTD SVG 1.1//EN"
 "http://www.w3.org/Graphics/SVG/1.1/DTD/svg11.dtd">
<!-- Generated by graphviz version 2.40.1 (20161225.0304)
 -->
<!-- Title: Singleton&lt;TDerivedClass&gt; Pages: 1 -->
<svg width="557pt" height="714pt"
 viewBox="0.00 0.00 557.00 713.99" xmlns="http://www.w3.org/2000/svg" xmlns:xlink="http://www.w3.org/1999/xlink">
<g id="graph0" class="graph" transform="scale(1 1) rotate(0) translate(4 709.9917)">
<title>Singleton&lt;TDerivedClass&gt;</title>
<polygon fill="#ffffff" stroke="transparent" points="-4,4 -4,-709.9917 553,-709.9917 553,4 -4,4"/>
<!-- Node12 -->
<g id="node1" class="node">
<title>Node12</title>
<g id="a_node1"><a xlink:href="classaworx_1_1lib_1_1strings_1_1boxing_1_1IApply__BoxedAs__TApplicable.html" target="_top" xlink:title="IApply_BoxedAs_TApplicable\&lt;IApply_BoxedAs_TApplicable\&lt;TChar, TApplicable\&gt;\&gt;">
<polygon fill="#ffffff" stroke="#000000" points="170,-685.4959 170,-704.4959 549,-704.4959 549,-685.4959 170,-685.4959"/>
<text text-anchor="middle" x="359.5" y="-692.4959" font-family="Helvetica,sans-Serif" font-size="10.00" fill="#000000">IApply_BoxedAs_TApplicable&lt;IApply_BoxedAs_TApplicable&lt;TChar, TApplicable&gt;&gt;</text>
</a>
</g>
</g>
<!-- Node13 -->
<g id="node2" class="node">
<title>Node13</title>
<g id="a_node2"><a xlink:href="classaworx_1_1lib_1_1strings_1_1boxing_1_1IApply__TApplicable.html" target="_top" xlink:title="IApply_TApplicable\&lt;IApply_TApplicable\&lt;TChar, TApplicable\&gt;\&gt;">
<polygon fill="#ffffff" stroke="#000000" points="215,-647.4959 215,-666.4959 504,-666.4959 504,-647.4959 215,-647.4959"/>
<text text-anchor="middle" x="359.5" y="-654.4959" font-family="Helvetica,sans-Serif" font-size="10.00" fill="#000000">IApply_TApplicable&lt;IApply_TApplicable&lt;TChar, TApplicable&gt;&gt;</text>
</a>
</g>
</g>
<!-- Node0 -->
<g id="node3" class="node">
<title>Node0</title>
<polygon fill="#bfbfbf" stroke="#000000" points="0,-343.4959 0,-362.4959 134,-362.4959 134,-343.4959 0,-343.4959"/>
<text text-anchor="middle" x="67" y="-350.4959" font-family="Helvetica,sans-Serif" font-size="10.00" fill="#000000">Singleton&lt;TDerivedClass&gt;</text>
</g>
<!-- Node0&#45;&gt;Node12 -->
<g id="edge12" class="edge">
<title>Node0&#45;&gt;Node12</title>
<path fill="none" stroke="#191970" d="M70.358,-372.4735C81.7449,-436.1318 120.9294,-636.2317 170,-675.9959 206.8633,-705.8678 261.9427,-708.2206 303.2333,-704.5196"/>
<polygon fill="#191970" stroke="#191970" points="73.7914,-371.7892 68.6114,-362.547 66.8973,-373.0022 73.7914,-371.7892"/>
</g>
<!-- Node0&#45;&gt;Node13 -->
<g id="edge13" class="edge">
<title>Node0&#45;&gt;Node13</title>
<path fill="none" stroke="#191970" d="M71.2122,-372.4484C84.3027,-431.0122 126.0428,-603.7419 170,-637.9959 205.8609,-665.9407 257.8675,-669.3479 298.3305,-666.5146"/>
<polygon fill="#191970" stroke="#191970" points="74.6154,-371.6279 69.0452,-362.6155 67.7795,-373.1345 74.6154,-371.6279"/>
</g>
<!-- Node1 -->
<g id="node4" class="node">
<title>Node1</title>
<g id="a_node4"><a xlink:href="classaworx_1_1lib_1_1boxing_1_1ArrayBoxerT.html" target="_top" xlink:title="ArrayBoxerT\&lt;ArrayBoxerT\&lt;TElementType\&gt;\&gt;">
<polygon fill="#ffffff" stroke="#000000" points="253,-609.4959 253,-628.4959 466,-628.4959 466,-609.4959 253,-609.4959"/>
<text text-anchor="middle" x="359.5" y="-616.4959" font-family="Helvetica,sans-Serif" font-size="10.00" fill="#000000">ArrayBoxerT&lt;ArrayBoxerT&lt;TElementType&gt;&gt;</text>
</a>
</g>
</g>
<!-- Node0&#45;&gt;Node1 -->
<g id="edge1" class="edge">
<title>Node0&#45;&gt;Node1</title>
<path fill="none" stroke="#191970" d="M68.6221,-372.6746C73.7248,-420.6176 93.9765,-543.6497 170,-599.9959 193.6416,-617.5182 223.7488,-625.1535 252.9685,-627.6585"/>
<polygon fill="#191970" stroke="#191970" points="72.101,-372.2867 67.666,-362.6649 65.1327,-372.9524 72.101,-372.2867"/>
</g>
<!-- Node2 -->
<g id="node5" class="node">
<title>Node2</title>
<g id="a_node5"><a xlink:href="classaworx_1_1lib_1_1boxing_1_1BoxerT.html" target="_top" xlink:title="BoxerT\&lt;BoxerT\&lt;TBoxable\&gt;\&gt;">
<polygon fill="#ffffff" stroke="#000000" points="287,-571.4959 287,-590.4959 432,-590.4959 432,-571.4959 287,-571.4959"/>
<text text-anchor="middle" x="359.5" y="-578.4959" font-family="Helvetica,sans-Serif" font-size="10.00" fill="#000000">BoxerT&lt;BoxerT&lt;TBoxable&gt;&gt;</text>
</a>
</g>
</g>
<!-- Node0&#45;&gt;Node2 -->
<g id="edge2" class="edge">
<title>Node0&#45;&gt;Node2</title>
<path fill="none" stroke="#191970" d="M70.1831,-372.5146C78.2543,-415.0725 103.7882,-516.0713 170,-561.9959 203.5534,-585.2685 248.8355,-590.5086 286.721,-589.6984"/>
<polygon fill="#191970" stroke="#191970" points="73.6148,-371.821 68.4211,-362.5865 66.7225,-373.0442 73.6148,-371.821"/>
</g>
<!-- Node3 -->
<g id="node6" class="node">
<title>Node3</title>
<g id="a_node6"><a xlink:href="classaworx_1_1lib_1_1boxing_1_1ftypes_1_1IEquals__Tdouble.html" target="_top" xlink:title="Implements &#39;Equals&#39; &#45; interface for boxed double values. ">
<polygon fill="#ffffff" stroke="#000000" points="272.5,-533.4959 272.5,-552.4959 446.5,-552.4959 446.5,-533.4959 272.5,-533.4959"/>
<text text-anchor="middle" x="359.5" y="-540.4959" font-family="Helvetica,sans-Serif" font-size="10.00" fill="#000000">IEquals_Tdouble&lt;IEquals_Tdouble&gt;</text>
</a>
</g>
</g>
<!-- Node0&#45;&gt;Node3 -->
<g id="edge3" class="edge">
<title>Node0&#45;&gt;Node3</title>
<path fill="none" stroke="#191970" d="M72.3694,-372.4498C83.6302,-409.1711 113.4726,-488.217 170,-523.9959 199.8939,-542.9171 237.9036,-549.3406 272.0224,-550.4083"/>
<polygon fill="#191970" stroke="#191970" points="75.6281,-371.1229 69.4623,-362.507 68.9094,-373.0874 75.6281,-371.1229"/>
</g>
<!-- Node4 -->
<g id="node7" class="node">
<title>Node4</title>
<g id="a_node7"><a xlink:href="classaworx_1_1lib_1_1boxing_1_1ftypes_1_1IEquals__TncharArr.html" target="_top" xlink:title="Implements &#39;Equals&#39; &#45; interface for boxed nchar[] values. ">
<polygon fill="#ffffff" stroke="#000000" points="264,-495.4959 264,-514.4959 455,-514.4959 455,-495.4959 264,-495.4959"/>
<text text-anchor="middle" x="359.5" y="-502.4959" font-family="Helvetica,sans-Serif" font-size="10.00" fill="#000000">IEquals_TncharArr&lt;IEquals_TncharArr&gt;</text>
</a>
</g>
</g>
<!-- Node0&#45;&gt;Node4 -->
<g id="edge4" class="edge">
<title>Node0&#45;&gt;Node4</title>
<path fill="none" stroke="#191970" d="M75.4279,-371.8888C89.9352,-401.9115 122.6954,-459.7906 170,-485.9959 198.1998,-501.6176 232.4069,-508.096 263.9551,-510.1297"/>
<polygon fill="#191970" stroke="#191970" points="78.4618,-370.113 71.0639,-362.5287 72.1175,-373.071 78.4618,-370.113"/>
</g>
<!-- Node5 -->
<g id="node8" class="node">
<title>Node5</title>
<g id="a_node8"><a xlink:href="classaworx_1_1lib_1_1boxing_1_1ftypes_1_1IEquals__TstrangeCharArr.html" target="_top" xlink:title="Implements &#39;Equals&#39; &#45; interface for boxed strangeChar[] values. ">
<polygon fill="#ffffff" stroke="#000000" points="235.5,-457.4959 235.5,-476.4959 483.5,-476.4959 483.5,-457.4959 235.5,-457.4959"/>
<text text-anchor="middle" x="359.5" y="-464.4959" font-family="Helvetica,sans-Serif" font-size="10.00" fill="#000000">IEquals_TstrangeCharArr&lt;IEquals_TstrangeCharArr&gt;</text>
</a>
</g>
</g>
<!-- Node0&#45;&gt;Node5 -->
<g id="edge5" class="edge">
<title>Node0&#45;&gt;Node5</title>
<path fill="none" stroke="#191970" d="M80.0764,-370.6838C97.7174,-393.0271 131.4123,-430.6491 170,-447.9959 190.2807,-457.1129 212.9833,-462.7511 235.4358,-466.109"/>
<polygon fill="#191970" stroke="#191970" points="82.7933,-368.4752 73.926,-362.6769 77.242,-372.7394 82.7933,-368.4752"/>
</g>
<!-- Node6 -->
<g id="node9" class="node">
<title>Node6</title>
<g id="a_node9"><a xlink:href="classaworx_1_1lib_1_1boxing_1_1ftypes_1_1IEquals__TwcharArr.html" target="_top" xlink:title="Implements &#39;Equals&#39; &#45; interface for boxed wchar[] values. ">
<polygon fill="#ffffff" stroke="#000000" points="262.5,-419.4959 262.5,-438.4959 456.5,-438.4959 456.5,-419.4959 262.5,-419.4959"/>
<text text-anchor="middle" x="359.5" y="-426.4959" font-family="Helvetica,sans-Serif" font-size="10.00" fill="#000000">IEquals_TwcharArr&lt;IEquals_TwcharArr&gt;</text>
</a>
</g>
</g>
<!-- Node0&#45;&gt;Node6 -->
<g id="edge6" class="edge">
<title>Node0&#45;&gt;Node6</title>
<path fill="none" stroke="#191970" d="M88.5759,-368.3695C108.6407,-381.8052 139.887,-400.592 170,-409.9959 199.194,-419.1127 232.0315,-424.1218 262.0681,-426.8014"/>
<polygon fill="#191970" stroke="#191970" points="90.4165,-365.388 80.188,-362.6259 86.4616,-371.1637 90.4165,-365.388"/>
</g>
<!-- Node7 -->
<g id="node10" class="node">
<title>Node7</title>
<g id="a_node10"><a xlink:href="classaworx_1_1lib_1_1boxing_1_1ftypes_1_1IIsLess__boxed__int.html" target="_top" xlink:title="Implements &#39;IsLess&#39; &#45; interface for boxed boxed_int values. ">
<polygon fill="#ffffff" stroke="#000000" points="265.5,-381.4959 265.5,-400.4959 453.5,-400.4959 453.5,-381.4959 265.5,-381.4959"/>
<text text-anchor="middle" x="359.5" y="-388.4959" font-family="Helvetica,sans-Serif" font-size="10.00" fill="#000000">IIsLess_boxed_int&lt;IIsLess_boxed_int&gt;</text>
</a>
</g>
</g>
<!-- Node0&#45;&gt;Node7 -->
<g id="edge7" class="edge">
<title>Node0&#45;&gt;Node7</title>
<path fill="none" stroke="#191970" d="M124.1352,-364.4022C139.0259,-367.1367 155.0802,-369.8755 170,-371.9959 200.9349,-376.3923 234.8533,-380.1319 265.3372,-383.1006"/>
<polygon fill="#191970" stroke="#191970" points="124.5129,-360.9123 114.0404,-362.5174 123.2281,-367.7934 124.5129,-360.9123"/>
</g>
<!-- Node8 -->
<g id="node11" class="node">
<title>Node8</title>
<g id="a_node11"><a xlink:href="classaworx_1_1lib_1_1boxing_1_1ftypes_1_1IIsLess__boxed__uint.html" target="_top" xlink:title="Implements &#39;IsLess&#39; &#45; interface for boxed boxed_uint values. ">
<polygon fill="#ffffff" stroke="#000000" points="260.5,-343.4959 260.5,-362.4959 458.5,-362.4959 458.5,-343.4959 260.5,-343.4959"/>
<text text-anchor="middle" x="359.5" y="-350.4959" font-family="Helvetica,sans-Serif" font-size="10.00" fill="#000000">IIsLess_boxed_uint&lt;IIsLess_boxed_uint&gt;</text>
</a>
</g>
</g>
<!-- Node0&#45;&gt;Node8 -->
<g id="edge8" class="edge">
<title>Node0&#45;&gt;Node8</title>
<path fill="none" stroke="#191970" d="M144.4024,-352.9959C179.9035,-352.9959 222.4171,-352.9959 260.2393,-352.9959"/>
<polygon fill="#191970" stroke="#191970" points="144.1054,-349.496 134.1054,-352.9959 144.1054,-356.496 144.1054,-349.496"/>
</g>
<!-- Node9 -->
<g id="node12" class="node">
<title>Node9</title>
<g id="a_node12"><a xlink:href="classaworx_1_1lib_1_1boxing_1_1ftypes_1_1IIsLess__double.html" target="_top" xlink:title="Implements &#39;IsLess&#39; &#45; interface for boxed double values. ">
<polygon fill="#ffffff" stroke="#000000" points="279,-305.4959 279,-324.4959 440,-324.4959 440,-305.4959 279,-305.4959"/>
<text text-anchor="middle" x="359.5" y="-312.4959" font-family="Helvetica,sans-Serif" font-size="10.00" fill="#000000">IIsLess_double&lt;IIsLess_double&gt;</text>
</a>
</g>
</g>
<!-- Node0&#45;&gt;Node9 -->
<g id="edge9" class="edge">
<title>Node0&#45;&gt;Node9</title>
<path fill="none" stroke="#191970" d="M124.1352,-341.5895C139.0259,-338.855 155.0802,-336.1162 170,-333.9959 205.5178,-328.9481 244.9687,-324.7662 278.6386,-321.6228"/>
<polygon fill="#191970" stroke="#191970" points="123.2281,-338.1983 114.0404,-343.4743 124.5129,-345.0794 123.2281,-338.1983"/>
</g>
<!-- Node10 -->
<g id="node13" class="node">
<title>Node10</title>
<g id="a_node13"><a xlink:href="classaworx_1_1lib_1_1boxing_1_1IEquals__TComparable.html" target="_top" xlink:title="IEquals_TComparable\&lt;IEquals_TComparable\&lt;TComparable\&gt;\&gt;">
<polygon fill="#ffffff" stroke="#000000" points="214.5,-267.4959 214.5,-286.4959 504.5,-286.4959 504.5,-267.4959 214.5,-267.4959"/>
<text text-anchor="middle" x="359.5" y="-274.4959" font-family="Helvetica,sans-Serif" font-size="10.00" fill="#000000">IEquals_TComparable&lt;IEquals_TComparable&lt;TComparable&gt;&gt;</text>
</a>
</g>
</g>
<!-- Node0&#45;&gt;Node10 -->
<g id="edge10" class="edge">
<title>Node0&#45;&gt;Node10</title>
<path fill="none" stroke="#191970" d="M88.5759,-337.6222C108.6407,-324.1865 139.887,-305.3997 170,-295.9959 184.2025,-291.5606 199.2673,-288.0976 214.4524,-285.402"/>
<polygon fill="#191970" stroke="#191970" points="86.4616,-334.828 80.188,-343.3658 90.4165,-340.6037 86.4616,-334.828"/>
</g>
<!-- Node11 -->
<g id="node14" class="node">
<title>Node11</title>
<g id="a_node14"><a xlink:href="classaworx_1_1lib_1_1boxing_1_1IIsNull__false.html" target="_top" xlink:title="IIsNull_false\&lt;IIsNull_false\&gt;">
<polygon fill="#ffffff" stroke="#000000" points="290.5,-229.4959 290.5,-248.4959 428.5,-248.4959 428.5,-229.4959 290.5,-229.4959"/>
<text text-anchor="middle" x="359.5" y="-236.4959" font-family="Helvetica,sans-Serif" font-size="10.00" fill="#000000">IIsNull_false&lt;IIsNull_false&gt;</text>
</a>
</g>
</g>
<!-- Node0&#45;&gt;Node11 -->
<g id="edge11" class="edge">
<title>Node0&#45;&gt;Node11</title>
<path fill="none" stroke="#191970" d="M80.0764,-335.3079C97.7174,-312.9646 131.4123,-275.3426 170,-257.9959 207.3949,-241.1853 253.0238,-236.2022 290.1365,-235.5328"/>
<polygon fill="#191970" stroke="#191970" points="77.242,-333.2523 73.926,-343.3148 82.7933,-337.5165 77.242,-333.2523"/>
</g>
<!-- Node14 -->
<g id="node15" class="node">
<title>Node14</title>
<g id="a_node15"><a xlink:href="classaworx_1_1lib_1_1strings_1_1boxing_1_1IApply__TncharArr.html" target="_top" xlink:title="Implementation of IApply for boxable types char[] and char*. ">
<polygon fill="#ffffff" stroke="#000000" points="250.5,-191.4959 250.5,-210.4959 468.5,-210.4959 468.5,-191.4959 250.5,-191.4959"/>
<text text-anchor="middle" x="359.5" y="-198.4959" font-family="Helvetica,sans-Serif" font-size="10.00" fill="#000000">IApply_TncharArr&lt;IApply_TncharArr&lt;TChar&gt;&gt;</text>
</a>
</g>
</g>
<!-- Node0&#45;&gt;Node14 -->
<g id="edge14" class="edge">
<title>Node0&#45;&gt;Node14</title>
<path fill="none" stroke="#191970" d="M75.4279,-334.1029C89.9352,-304.0802 122.6954,-246.2011 170,-219.9959 194.1506,-206.6172 222.7072,-199.9447 250.2263,-197.0269"/>
<polygon fill="#191970" stroke="#191970" points="72.1175,-332.9207 71.0639,-343.463 78.4618,-335.8787 72.1175,-332.9207"/>
</g>
<!-- Node15 -->
<g id="node16" class="node">
<title>Node15</title>
<g id="a_node16"><a xlink:href="classaworx_1_1lib_1_1strings_1_1boxing_1_1IApply__TstrangeCharArr.html" target="_top" xlink:title="Implementation of IApply for boxable types strangeChar[] and strangeChar*. ">
<polygon fill="#ffffff" stroke="#000000" points="222,-153.4959 222,-172.4959 497,-172.4959 497,-153.4959 222,-153.4959"/>
<text text-anchor="middle" x="359.5" y="-160.4959" font-family="Helvetica,sans-Serif" font-size="10.00" fill="#000000">IApply_TstrangeCharArr&lt;IApply_TstrangeCharArr&lt;TChar&gt;&gt;</text>
</a>
</g>
</g>
<!-- Node0&#45;&gt;Node15 -->
<g id="edge15" class="edge">
<title>Node0&#45;&gt;Node15</title>
<path fill="none" stroke="#191970" d="M72.3694,-333.542C83.6302,-296.8206 113.4726,-217.7747 170,-181.9959 185.6454,-172.0931 203.5138,-165.6137 221.884,-161.5337"/>
<polygon fill="#191970" stroke="#191970" points="68.9094,-332.9043 69.4623,-343.4847 75.6281,-334.8688 68.9094,-332.9043"/>
</g>
<!-- Node16 -->
<g id="node17" class="node">
<title>Node16</title>
<g id="a_node17"><a xlink:href="classaworx_1_1lib_1_1strings_1_1boxing_1_1IApply__TwcharArr.html" target="_top" xlink:title="Implementation of IApply for boxable types wchar_t[] and wchar_t*. ">
<polygon fill="#ffffff" stroke="#000000" points="249,-115.4959 249,-134.4959 470,-134.4959 470,-115.4959 249,-115.4959"/>
<text text-anchor="middle" x="359.5" y="-122.4959" font-family="Helvetica,sans-Serif" font-size="10.00" fill="#000000">IApply_TwcharArr&lt;IApply_TwcharArr&lt;TChar&gt;&gt;</text>
</a>
</g>
</g>
<!-- Node0&#45;&gt;Node16 -->
<g id="edge16" class="edge">
<title>Node0&#45;&gt;Node16</title>
<path fill="none" stroke="#191970" d="M70.1831,-333.4771C78.2543,-290.9192 103.7882,-189.9204 170,-143.9959 192.8217,-128.1667 221.0694,-120.6798 248.7251,-117.7647"/>
<polygon fill="#191970" stroke="#191970" points="66.7225,-332.9475 68.4211,-343.4052 73.6148,-334.1707 66.7225,-332.9475"/>
</g>
<!-- Node17 -->
<g id="node18" class="node">
<title>Node17</title>
<g id="a_node18"><a xlink:href="classaworx_1_1lib_1_1strings_1_1boxing_1_1IIsLess__Tchar__arr.html" target="_top" xlink:title="Implements &#39;IsLess&#39; &#45; interface for boxed char arrays. ">
<polygon fill="#ffffff" stroke="#000000" points="267,-77.4959 267,-96.4959 452,-96.4959 452,-77.4959 267,-77.4959"/>
<text text-anchor="middle" x="359.5" y="-84.4959" font-family="Helvetica,sans-Serif" font-size="10.00" fill="#000000">IIsLess_Tchar_arr&lt;IIsLess_Tchar_arr&gt;</text>
</a>
</g>
</g>
<!-- Node0&#45;&gt;Node17 -->
<g id="edge17" class="edge">
<title>Node0&#45;&gt;Node17</title>
<path fill="none" stroke="#191970" d="M68.6221,-333.3171C73.7248,-285.3742 93.9765,-162.342 170,-105.9959 203.0717,-81.4842 248.7956,-76.3202 287.0435,-77.4826"/>
<polygon fill="#191970" stroke="#191970" points="65.1327,-333.0393 67.666,-343.3268 72.101,-333.705 65.1327,-333.0393"/>
</g>
<!-- Node18 -->
<g id="node19" class="node">
<title>Node18</title>
<g id="a_node19"><a xlink:href="classaworx_1_1lib_1_1strings_1_1boxing_1_1IIsLess__Twchar__arr.html" target="_top" xlink:title="Implements &#39;IsLess&#39; &#45; interface for boxed wchar_t arrays. ">
<polygon fill="#ffffff" stroke="#000000" points="259.5,-39.4959 259.5,-58.4959 459.5,-58.4959 459.5,-39.4959 259.5,-39.4959"/>
<text text-anchor="middle" x="359.5" y="-46.4959" font-family="Helvetica,sans-Serif" font-size="10.00" fill="#000000">IIsLess_Twchar_arr&lt;IIsLess_Twchar_arr&gt;</text>
</a>
</g>
</g>
<!-- Node0&#45;&gt;Node18 -->
<g id="edge18" class="edge">
<title>Node0&#45;&gt;Node18</title>
<path fill="none" stroke="#191970" d="M71.2122,-333.5433C84.3027,-274.9795 126.0428,-102.2498 170,-67.9959 205.8609,-40.051 257.8675,-36.6438 298.3305,-39.4771"/>
<polygon fill="#191970" stroke="#191970" points="67.7795,-332.8572 69.0452,-343.3762 74.6154,-334.3638 67.7795,-332.8572"/>
</g>
<!-- Node19 -->
<g id="node20" class="node">
<title>Node19</title>
<g id="a_node20"><a xlink:href="classaworx_1_1lib_1_1time_1_1IFormat__DateTime.html" target="_top" xlink:title="IFormat_DateTime\&lt;IFormat_DateTime\&gt;">
<polygon fill="#ffffff" stroke="#000000" points="263.5,-1.4959 263.5,-20.4959 455.5,-20.4959 455.5,-1.4959 263.5,-1.4959"/>
<text text-anchor="middle" x="359.5" y="-8.4959" font-family="Helvetica,sans-Serif" font-size="10.00" fill="#000000">IFormat_DateTime&lt;IFormat_DateTime&gt;</text>
</a>
</g>
</g>
<!-- Node0&#45;&gt;Node19 -->
<g id="edge19" class="edge">
<title>Node0&#45;&gt;Node19</title>
<path fill="none" stroke="#191970" d="M70.358,-333.5182C81.7449,-269.8599 120.9294,-69.76 170,-29.9959 206.8633,-.1239 261.9427,2.2289 303.2333,-1.4722"/>
<polygon fill="#191970" stroke="#191970" points="66.8973,-332.9895 68.6114,-343.4447 73.7914,-334.2025 66.8973,-332.9895"/>
</g>
</g>
</svg>
