<?xml version="1.0" encoding="UTF-8" standalone="no"?>
<!DOCTYPE svg PUBLIC "-//W3C//DTD SVG 1.1//EN"
 "http://www.w3.org/Graphics/SVG/1.1/DTD/svg11.dtd">
<!-- Generated by graphviz version 2.40.1 (20161225.0304)
 -->
<!-- Title: TextLogger Pages: 1 -->
<svg width="1063pt" height="657pt"
 viewBox="0.00 0.00 1063.00 657.00" xmlns="http://www.w3.org/2000/svg" xmlns:xlink="http://www.w3.org/1999/xlink">
<g id="graph0" class="graph" transform="scale(1 1) rotate(0) translate(4 653)">
<title>TextLogger</title>
<polygon fill="#ffffff" stroke="transparent" points="-4,4 -4,-653 1059,-653 1059,4 -4,4"/>
<!-- Node12 -->
<g id="node1" class="node">
<title>Node12</title>
<polygon fill="#bfbfbf" stroke="#000000" points="990,-154.5 990,-173.5 1055,-173.5 1055,-154.5 990,-154.5"/>
<text text-anchor="middle" x="1022.5" y="-161.5" font-family="Helvetica,sans-Serif" font-size="10.00" fill="#000000">TextLogger</text>
</g>
<!-- Node27 -->
<g id="node2" class="node">
<title>Node27</title>
<polygon fill="#ffffff" stroke="#bfbfbf" points="240.5,-610.5 240.5,-629.5 353.5,-629.5 353.5,-610.5 240.5,-610.5"/>
<text text-anchor="middle" x="297" y="-617.5" font-family="Helvetica,sans-Serif" font-size="10.00" fill="#000000">vector&lt;ThreadLock *&gt;</text>
</g>
<!-- Node14 -->
<g id="node12" class="node">
<title>Node14</title>
<g id="a_node12"><a xlink:href="classaworx_1_1lib_1_1threads_1_1SmartLock.html" target="_top" xlink:title="SmartLock">
<polygon fill="#ffffff" stroke="#000000" points="531.5,-600.5 531.5,-619.5 595.5,-619.5 595.5,-600.5 531.5,-600.5"/>
<text text-anchor="middle" x="563.5" y="-607.5" font-family="Helvetica,sans-Serif" font-size="10.00" fill="#000000">SmartLock</text>
</a>
</g>
</g>
<!-- Node27&#45;&gt;Node14 -->
<g id="edge7" class="edge">
<title>Node27&#45;&gt;Node14</title>
<path fill="none" stroke="#9a32cd" stroke-dasharray="5,2" d="M363.6101,-617.5006C417.123,-615.4926 489.946,-612.76 531.3041,-611.2081"/>
<polygon fill="#9a32cd" stroke="#9a32cd" points="363.3795,-614.0067 353.5178,-617.8793 363.642,-621.0017 363.3795,-614.0067"/>
<text text-anchor="middle" x="445.5" y="-618" font-family="Helvetica,sans-Serif" font-size="10.00" fill="#000000"> acquirers</text>
</g>
<!-- Node29 -->
<g id="node3" class="node">
<title>Node29</title>
<g id="a_node3"><a xlink:href="classaworx_1_1lib_1_1time_1_1TimePointBase.html" target="_top" xlink:title="TimePointBase\&lt;chrono::steady_clock, Ticks\&gt;">
<polygon fill="#ffffff" stroke="#000000" points="188,-534.5 188,-553.5 406,-553.5 406,-534.5 188,-534.5"/>
<text text-anchor="middle" x="297" y="-541.5" font-family="Helvetica,sans-Serif" font-size="10.00" fill="#000000">TimePointBase&lt;chrono::steady_clock, Ticks&gt;</text>
</a>
</g>
</g>
<!-- Node28 -->
<g id="node15" class="node">
<title>Node28</title>
<g id="a_node15"><a xlink:href="classaworx_1_1lib_1_1time_1_1Ticks.html" target="_top" xlink:title="Ticks">
<polygon fill="#ffffff" stroke="#000000" points="543,-543.5 543,-562.5 584,-562.5 584,-543.5 543,-543.5"/>
<text text-anchor="middle" x="563.5" y="-550.5" font-family="Helvetica,sans-Serif" font-size="10.00" fill="#000000">Ticks</text>
</a>
</g>
</g>
<!-- Node29&#45;&gt;Node28 -->
<g id="edge9" class="edge">
<title>Node29&#45;&gt;Node28</title>
<path fill="none" stroke="#191970" d="M416.415,-548.0328C464.668,-549.6623 515.3674,-551.3745 542.8341,-552.3021"/>
<polygon fill="#191970" stroke="#191970" points="416.2772,-544.5262 406.1647,-547.6866 416.0408,-551.5222 416.2772,-544.5262"/>
</g>
<!-- Node32 -->
<g id="node4" class="node">
<title>Node32</title>
<polygon fill="#ffffff" stroke="#bfbfbf" points="660,-95.5 660,-114.5 770,-114.5 770,-95.5 660,-95.5"/>
<text text-anchor="middle" x="715" y="-102.5" font-family="Helvetica,sans-Serif" font-size="10.00" fill="#000000">vector&lt;AStringBase&gt;</text>
</g>
<!-- Node32&#45;&gt;Node12 -->
<g id="edge15" class="edge">
<title>Node32&#45;&gt;Node12</title>
<path fill="none" stroke="#9a32cd" stroke-dasharray="5,2" d="M780.3327,-97.9926C834.4328,-95.0561 911.8945,-97.6445 972,-127 986.8446,-134.2501 1001.8645,-145.9346 1011.6182,-154.2318"/>
<polygon fill="#9a32cd" stroke="#9a32cd" points="779.9383,-94.5102 770.1746,-98.6235 780.3723,-101.4968 779.9383,-94.5102"/>
<text text-anchor="middle" x="846.5" y="-107" font-family="Helvetica,sans-Serif" font-size="10.00" fill="#000000"> replacements</text>
</g>
<!-- Node35 -->
<g id="node5" class="node">
<title>Node35</title>
<polygon fill="#ffffff" stroke="#bfbfbf" points="521,-38.5 521,-57.5 606,-57.5 606,-38.5 521,-38.5"/>
<text text-anchor="middle" x="563.5" y="-45.5" font-family="Helvetica,sans-Serif" font-size="10.00" fill="#000000">vector&lt;integer&gt;</text>
</g>
<!-- Node34 -->
<g id="node17" class="node">
<title>Node34</title>
<g id="a_node17"><a xlink:href="classaworx_1_1lib_1_1strings_1_1util_1_1AutoSizes.html" target="_top" xlink:title="AutoSizes">
<polygon fill="#ffffff" stroke="#000000" points="815.5,-38.5 815.5,-57.5 877.5,-57.5 877.5,-38.5 815.5,-38.5"/>
<text text-anchor="middle" x="846.5" y="-45.5" font-family="Helvetica,sans-Serif" font-size="10.00" fill="#000000">AutoSizes</text>
</a>
</g>
</g>
<!-- Node35&#45;&gt;Node34 -->
<g id="edge19" class="edge">
<title>Node35&#45;&gt;Node34</title>
<path fill="none" stroke="#9a32cd" stroke-dasharray="5,2" d="M616.3356,-48C674.8781,-48 767.3339,-48 815.3048,-48"/>
<polygon fill="#9a32cd" stroke="#9a32cd" points="616.1744,-44.5001 606.1744,-48 616.1743,-51.5001 616.1744,-44.5001"/>
<text text-anchor="middle" x="715" y="-62" font-family="Helvetica,sans-Serif" font-size="10.00" fill="#000000"> values</text>
<text text-anchor="middle" x="715" y="-51" font-family="Helvetica,sans-Serif" font-size="10.00" fill="#000000">sessionValues</text>
</g>
<!-- Node20 -->
<g id="node6" class="node">
<title>Node20</title>
<g id="a_node6"><a xlink:href="classaworx_1_1lib_1_1strings_1_1TStringBase.html" target="_top" xlink:title="TStringBase\&lt;TChar\&gt;">
<polygon fill="#ffffff" stroke="#ff0000" points="0,-140.5 0,-159.5 109,-159.5 109,-140.5 0,-140.5"/>
<text text-anchor="middle" x="54.5" y="-147.5" font-family="Helvetica,sans-Serif" font-size="10.00" fill="#000000">TStringBase&lt;TChar&gt;</text>
</a>
</g>
</g>
<!-- Node33 -->
<g id="node7" class="node">
<title>Node33</title>
<g id="a_node7"><a xlink:href="classaworx_1_1lib_1_1strings_1_1AStringBase.html" target="_top" xlink:title="AStringBase\&lt;TChar\&gt;">
<polygon fill="#ffffff" stroke="#000000" points="242,-140.5 242,-159.5 352,-159.5 352,-140.5 242,-140.5"/>
<text text-anchor="middle" x="297" y="-147.5" font-family="Helvetica,sans-Serif" font-size="10.00" fill="#000000">AStringBase&lt;TChar&gt;</text>
</a>
</g>
</g>
<!-- Node20&#45;&gt;Node33 -->
<g id="edge5" class="edge">
<title>Node20&#45;&gt;Node33</title>
<path fill="none" stroke="#191970" d="M119.7018,-150C157.801,-150 205.3661,-150 241.6357,-150"/>
<polygon fill="#191970" stroke="#191970" points="119.2241,-146.5001 109.2241,-150 119.2241,-153.5001 119.2241,-146.5001"/>
</g>
<!-- Node33&#45;&gt;Node32 -->
<g id="edge17" class="edge">
<title>Node33&#45;&gt;Node32</title>
<path fill="none" stroke="#9a32cd" stroke-dasharray="5,2" d="M362.2552,-142.9749C444.1,-134.1639 582.9888,-119.2117 659.802,-110.9424"/>
<polygon fill="#9a32cd" stroke="#9a32cd" points="361.6439,-139.5204 352.076,-144.0708 362.3932,-146.4802 361.6439,-139.5204"/>
<text text-anchor="middle" x="445.5" y="-138" font-family="Helvetica,sans-Serif" font-size="10.00" fill="#000000"> elements</text>
</g>
<!-- Node30 -->
<g id="node10" class="node">
<title>Node30</title>
<g id="a_node10"><a xlink:href="classaworx_1_1lib_1_1strings_1_1PreallocatedStringBase.html" target="_top" xlink:title="PreallocatedStringBase\&lt;TChar\&gt;">
<polygon fill="#ffffff" stroke="#000000" points="485,-178.5 485,-197.5 642,-197.5 642,-178.5 485,-178.5"/>
<text text-anchor="middle" x="563.5" y="-185.5" font-family="Helvetica,sans-Serif" font-size="10.00" fill="#000000">PreallocatedStringBase&lt;TChar&gt;</text>
</a>
</g>
</g>
<!-- Node33&#45;&gt;Node30 -->
<g id="edge16" class="edge">
<title>Node33&#45;&gt;Node30</title>
<path fill="none" stroke="#191970" d="M362.323,-159.3143C403.1019,-165.129 455.467,-172.5957 496.5491,-178.4535"/>
<polygon fill="#191970" stroke="#191970" points="362.6129,-155.8204 352.219,-157.8736 361.6247,-162.7503 362.6129,-155.8204"/>
</g>
<!-- Node40 -->
<g id="node8" class="node">
<title>Node40</title>
<g id="a_node8"><a xlink:href="classaworx_1_1lib_1_1strings_1_1AStringBase.html" target="_top" xlink:title="AStringBase\&lt;character\&gt;">
<polygon fill="#ffffff" stroke="#000000" points="501.5,-488.5 501.5,-507.5 625.5,-507.5 625.5,-488.5 501.5,-488.5"/>
<text text-anchor="middle" x="563.5" y="-495.5" font-family="Helvetica,sans-Serif" font-size="10.00" fill="#000000">AStringBase&lt;character&gt;</text>
</a>
</g>
</g>
<!-- Node40&#45;&gt;Node12 -->
<g id="edge24" class="edge">
<title>Node40&#45;&gt;Node12</title>
<path fill="none" stroke="#9a32cd" stroke-dasharray="5,2" d="M610.2708,-509.5261C653.5517,-517.7847 718.7494,-523.9912 770,-502 922.7973,-436.4358 1003.1514,-221.3863 1019.3958,-173.5055"/>
<polygon fill="#9a32cd" stroke="#9a32cd" points="610.7975,-506.0619 600.3026,-507.5137 609.4122,-512.9234 610.7975,-506.0619"/>
<text text-anchor="middle" x="846.5" y="-516" font-family="Helvetica,sans-Serif" font-size="10.00" fill="#000000"> logBuf</text>
<text text-anchor="middle" x="846.5" y="-505" font-family="Helvetica,sans-Serif" font-size="10.00" fill="#000000">MultiLineDelimiter</text>
<text text-anchor="middle" x="846.5" y="-494" font-family="Helvetica,sans-Serif" font-size="10.00" fill="#000000">msgBuf</text>
</g>
<!-- Node37 -->
<g id="node16" class="node">
<title>Node37</title>
<g id="a_node16"><a xlink:href="classaworx_1_1lib_1_1lox_1_1core_1_1textlogger_1_1MetaInfo.html" target="_top" xlink:title="MetaInfo">
<polygon fill="#ffffff" stroke="#000000" points="819,-331.5 819,-350.5 874,-350.5 874,-331.5 819,-331.5"/>
<text text-anchor="middle" x="846.5" y="-338.5" font-family="Helvetica,sans-Serif" font-size="10.00" fill="#000000">MetaInfo</text>
</a>
</g>
</g>
<!-- Node40&#45;&gt;Node37 -->
<g id="edge25" class="edge">
<title>Node40&#45;&gt;Node37</title>
<path fill="none" stroke="#9a32cd" stroke-dasharray="5,2" d="M635.703,-490.5695C690.6708,-484.403 758.762,-475.4669 770,-468 813.9495,-438.7984 836.5668,-374.9262 843.8341,-350.636"/>
<polygon fill="#9a32cd" stroke="#9a32cd" points="635.1625,-487.1078 625.6087,-491.6877 635.9333,-494.0653 635.1625,-487.1078"/>
<text text-anchor="middle" x="715" y="-490" font-family="Helvetica,sans-Serif" font-size="10.00" fill="#000000"> Format</text>
</g>
<!-- Node41 -->
<g id="node9" class="node">
<title>Node41</title>
<g id="a_node9"><a xlink:href="classaworx_1_1lib_1_1strings_1_1TStringBase.html" target="_top" xlink:title="TStringBase\&lt;character\&gt;">
<polygon fill="#ffffff" stroke="#ff0000" points="235.5,-488.5 235.5,-507.5 358.5,-507.5 358.5,-488.5 235.5,-488.5"/>
<text text-anchor="middle" x="297" y="-495.5" font-family="Helvetica,sans-Serif" font-size="10.00" fill="#000000">TStringBase&lt;character&gt;</text>
</a>
</g>
</g>
<!-- Node41&#45;&gt;Node40 -->
<g id="edge26" class="edge">
<title>Node41&#45;&gt;Node40</title>
<path fill="none" stroke="#191970" d="M369.0707,-498C410.3273,-498 461.5781,-498 501.1017,-498"/>
<polygon fill="#191970" stroke="#191970" points="368.8103,-494.5001 358.8103,-498 368.8103,-501.5001 368.8103,-494.5001"/>
</g>
<!-- Node30&#45;&gt;Node12 -->
<g id="edge10" class="edge">
<title>Node30&#45;&gt;Node12</title>
<path fill="none" stroke="#9a32cd" stroke-dasharray="5,2" d="M652.3057,-180.5073C654.8985,-180.3304 657.4677,-180.1608 660,-180 781.6509,-172.2757 926.5046,-167.0872 989.983,-165.0141"/>
<polygon fill="#9a32cd" stroke="#9a32cd" points="651.9427,-177.0242 642.2151,-181.2221 652.4374,-184.0067 651.9427,-177.0242"/>
<text text-anchor="middle" x="846.5" y="-208" font-family="Helvetica,sans-Serif" font-size="10.00" fill="#000000"> FmtMsgSuffix</text>
<text text-anchor="middle" x="846.5" y="-197" font-family="Helvetica,sans-Serif" font-size="10.00" fill="#000000">MultiLineDelimiterRepl</text>
<text text-anchor="middle" x="846.5" y="-186" font-family="Helvetica,sans-Serif" font-size="10.00" fill="#000000">FmtMultiLineSuffix</text>
<text text-anchor="middle" x="846.5" y="-175" font-family="Helvetica,sans-Serif" font-size="10.00" fill="#000000">FmtMultiLinePrefix</text>
</g>
<!-- Node30&#45;&gt;Node12 -->
<g id="edge11" class="edge">
<title>Node30&#45;&gt;Node12</title>
<path fill="none" stroke="#9a32cd" stroke-dasharray="5,2" d="M621.9045,-176.5974C634.451,-174.2904 647.65,-171.9705 660,-170 767.7873,-152.8017 795.9682,-147.9075 905,-153 933.755,-154.343 966.3393,-157.5252 989.8884,-160.1233"/>
<polygon fill="#9a32cd" stroke="#9a32cd" points="621.2022,-173.1679 612.011,-178.4379 622.4825,-180.0499 621.2022,-173.1679"/>
<text text-anchor="middle" x="846.5" y="-156" font-family="Helvetica,sans-Serif" font-size="10.00" fill="#000000"> FmtMultiLineMsgHeadline</text>
</g>
<!-- Node13 -->
<g id="node11" class="node">
<title>Node13</title>
<g id="a_node11"><a xlink:href="classaworx_1_1lib_1_1lox_1_1core_1_1Logger.html" target="_top" xlink:title="Logger">
<polygon fill="#ffffff" stroke="#000000" points="823.5,-567.5 823.5,-586.5 869.5,-586.5 869.5,-567.5 823.5,-567.5"/>
<text text-anchor="middle" x="846.5" y="-574.5" font-family="Helvetica,sans-Serif" font-size="10.00" fill="#000000">Logger</text>
</a>
</g>
</g>
<!-- Node30&#45;&gt;Node13 -->
<g id="edge12" class="edge">
<title>Node30&#45;&gt;Node13</title>
<path fill="none" stroke="#9a32cd" stroke-dasharray="5,2" d="M568.6693,-207.1293C579.3143,-242.5768 607.2295,-318.2014 660,-355 700.6953,-383.3782 736.1824,-337.6985 770,-374 797.2505,-403.252 764.0978,-520.9538 788,-553 796.3354,-564.1755 810.7979,-570.1694 823.2569,-573.3725"/>
<polygon fill="#9a32cd" stroke="#9a32cd" points="572.031,-206.1547 565.9117,-197.5056 565.3018,-208.0829 572.031,-206.1547"/>
<text text-anchor="middle" x="715" y="-388" font-family="Helvetica,sans-Serif" font-size="10.00" fill="#000000"> TypeName</text>
<text text-anchor="middle" x="715" y="-377" font-family="Helvetica,sans-Serif" font-size="10.00" fill="#000000">Name</text>
</g>
<!-- Node30&#45;&gt;Node37 -->
<g id="edge13" class="edge">
<title>Node30&#45;&gt;Node37</title>
<path fill="none" stroke="#9a32cd" stroke-dasharray="5,2" d="M652.2458,-184.5165C699.1021,-184.3501 750.7931,-187.3449 770,-200 784.9376,-209.8422 779.6447,-220.1826 788,-236 806.7136,-271.4267 830.2631,-312.7759 840.8682,-331.2363"/>
<polygon fill="#9a32cd" stroke="#9a32cd" points="651.9948,-181.0184 642.0243,-184.6016 652.0532,-188.0181 651.9948,-181.0184"/>
<text text-anchor="middle" x="715" y="-203" font-family="Helvetica,sans-Serif" font-size="10.00" fill="#000000"> DateFormat</text>
</g>
<!-- Node30&#45;&gt;Node37 -->
<g id="edge14" class="edge">
<title>Node30&#45;&gt;Node37</title>
<path fill="none" stroke="#9a32cd" stroke-dasharray="5,2" d="M612.1866,-199.8831C627.471,-203.5386 644.4203,-207.5153 660,-211 708.7418,-221.9021 728.1703,-206.7072 770,-234 808.2497,-258.957 833.4262,-310.2263 842.6105,-331.4624"/>
<polygon fill="#9a32cd" stroke="#9a32cd" points="612.9551,-196.4682 602.4142,-197.5357 611.3201,-203.2746 612.9551,-196.4682"/>
<text text-anchor="middle" x="715" y="-347" font-family="Helvetica,sans-Serif" font-size="10.00" fill="#000000"> TimeDiffHours</text>
<text text-anchor="middle" x="715" y="-336" font-family="Helvetica,sans-Serif" font-size="10.00" fill="#000000">VerbosityInfo</text>
<text text-anchor="middle" x="715" y="-325" font-family="Helvetica,sans-Serif" font-size="10.00" fill="#000000">VerbosityWarning</text>
<text text-anchor="middle" x="715" y="-314" font-family="Helvetica,sans-Serif" font-size="10.00" fill="#000000">VerbosityVerbose</text>
<text text-anchor="middle" x="715" y="-303" font-family="Helvetica,sans-Serif" font-size="10.00" fill="#000000">TimeDiffMicros</text>
<text text-anchor="middle" x="715" y="-292" font-family="Helvetica,sans-Serif" font-size="10.00" fill="#000000">TimeElapsedDays</text>
<text text-anchor="middle" x="715" y="-281" font-family="Helvetica,sans-Serif" font-size="10.00" fill="#000000">VerbosityError</text>
<text text-anchor="middle" x="715" y="-270" font-family="Helvetica,sans-Serif" font-size="10.00" fill="#000000">TimeOfDayFormat</text>
<text text-anchor="middle" x="715" y="-259" font-family="Helvetica,sans-Serif" font-size="10.00" fill="#000000">TimeDiffMins</text>
<text text-anchor="middle" x="715" y="-248" font-family="Helvetica,sans-Serif" font-size="10.00" fill="#000000">TimeDiffSecs</text>
<text text-anchor="middle" x="715" y="-237" font-family="Helvetica,sans-Serif" font-size="10.00" fill="#000000">...</text>
</g>
<!-- Node13&#45;&gt;Node12 -->
<g id="edge1" class="edge">
<title>Node13&#45;&gt;Node12</title>
<path fill="none" stroke="#191970" d="M879.6892,-573.893C908.7057,-569.3141 949.6048,-557.9914 972,-530 995.0417,-501.2006 1017.4434,-228.7186 1021.7561,-173.6678"/>
<polygon fill="#191970" stroke="#191970" points="879.0171,-570.4526 869.5927,-575.2932 879.9788,-577.3863 879.0171,-570.4526"/>
</g>
<!-- Node14&#45;&gt;Node13 -->
<g id="edge2" class="edge">
<title>Node14&#45;&gt;Node13</title>
<path fill="none" stroke="#191970" d="M605.7699,-605.1049C647.5097,-600.267 713.1589,-592.6467 770,-586 787.9312,-583.9032 808.2245,-581.5151 823.4022,-579.7259"/>
<polygon fill="#191970" stroke="#191970" points="605.2238,-601.6446 595.6932,-606.2726 606.0297,-608.5981 605.2238,-601.6446"/>
</g>
<!-- Node15 -->
<g id="node13" class="node">
<title>Node15</title>
<g id="a_node13"><a xlink:href="classaworx_1_1lib_1_1threads_1_1ThreadLock.html" target="_top" xlink:title="ThreadLock">
<polygon fill="#ffffff" stroke="#ff0000" points="20.5,-629.5 20.5,-648.5 88.5,-648.5 88.5,-629.5 20.5,-629.5"/>
<text text-anchor="middle" x="54.5" y="-636.5" font-family="Helvetica,sans-Serif" font-size="10.00" fill="#000000">ThreadLock</text>
</a>
</g>
</g>
<!-- Node15&#45;&gt;Node27 -->
<g id="edge4" class="edge">
<title>Node15&#45;&gt;Node27</title>
<path fill="none" stroke="#9a32cd" stroke-dasharray="5,2" d="M98.9997,-635.2731C108.2534,-634.5105 117.9441,-633.721 127,-633 164.7686,-629.9931 207.2686,-626.7431 240.3264,-624.2448"/>
<polygon fill="#9a32cd" stroke="#9a32cd" points="98.472,-631.8047 88.7948,-636.1176 99.0494,-638.7809 98.472,-631.8047"/>
<text text-anchor="middle" x="148.5" y="-636" font-family="Helvetica,sans-Serif" font-size="10.00" fill="#000000"> elements</text>
</g>
<!-- Node15&#45;&gt;Node14 -->
<g id="edge3" class="edge">
<title>Node15&#45;&gt;Node14</title>
<path fill="none" stroke="#191970" d="M98.9783,-642.5531C108.2335,-643.156 117.9302,-643.6876 127,-644 146.0998,-644.6578 150.89,-644.2024 170,-644 302.1392,-642.6004 336.8815,-653.0628 467,-630 488.5641,-626.1779 512.6891,-621.1779 531.423,-617.1334"/>
<polygon fill="#191970" stroke="#191970" points="98.9903,-639.0457 88.7733,-641.85 98.509,-646.0292 98.9903,-639.0457"/>
</g>
<!-- Node26 -->
<g id="node14" class="node">
<title>Node26</title>
<g id="a_node14"><a xlink:href="classaworx_1_1lib_1_1threads_1_1ThreadLockNR.html" target="_top" xlink:title="ThreadLockNR">
<polygon fill="#ffffff" stroke="#ff0000" points="255.5,-572.5 255.5,-591.5 338.5,-591.5 338.5,-572.5 255.5,-572.5"/>
<text text-anchor="middle" x="297" y="-579.5" font-family="Helvetica,sans-Serif" font-size="10.00" fill="#000000">ThreadLockNR</text>
</a>
</g>
</g>
<!-- Node26&#45;&gt;Node14 -->
<g id="edge6" class="edge">
<title>Node26&#45;&gt;Node14</title>
<path fill="none" stroke="#9a32cd" stroke-dasharray="5,2" d="M348.6878,-586.4608C382.3986,-589.4697 427.341,-593.6688 467,-598 488.4819,-600.346 512.6069,-603.346 531.3614,-605.7595"/>
<polygon fill="#9a32cd" stroke="#9a32cd" points="348.8748,-582.9637 338.6046,-585.5663 348.2562,-589.9363 348.8748,-582.9637"/>
<text text-anchor="middle" x="445.5" y="-601" font-family="Helvetica,sans-Serif" font-size="10.00" fill="#000000"> lock</text>
</g>
<!-- Node28&#45;&gt;Node13 -->
<g id="edge8" class="edge">
<title>Node28&#45;&gt;Node13</title>
<path fill="none" stroke="#9a32cd" stroke-dasharray="5,2" d="M594.0896,-553.5304C634.4805,-554.482 707.7665,-557.0779 770,-564 788.0753,-566.0105 808.3608,-569.5157 823.4988,-572.3801"/>
<polygon fill="#9a32cd" stroke="#9a32cd" points="594.1546,-550.0311 584.0809,-553.3128 594.0024,-557.0294 594.1546,-550.0311"/>
<text text-anchor="middle" x="715" y="-578" font-family="Helvetica,sans-Serif" font-size="10.00" fill="#000000"> TimeOfLastLog</text>
<text text-anchor="middle" x="715" y="-567" font-family="Helvetica,sans-Serif" font-size="10.00" fill="#000000">TimeOfCreation</text>
</g>
<!-- Node37&#45;&gt;Node12 -->
<g id="edge21" class="edge">
<title>Node37&#45;&gt;Node12</title>
<path fill="none" stroke="#9a32cd" stroke-dasharray="5,2" d="M863.3315,-324.0728C899.6774,-287.5205 984.5182,-202.1976 1012.9907,-173.5633"/>
<polygon fill="#9a32cd" stroke="#9a32cd" points="860.5317,-321.9247 855.9625,-331.4837 865.4954,-326.8605 860.5317,-321.9247"/>
<text text-anchor="middle" x="947.5" y="-266" font-family="Helvetica,sans-Serif" font-size="10.00" fill="#000000"> MetaInfo</text>
</g>
<!-- Node34&#45;&gt;Node12 -->
<g id="edge18" class="edge">
<title>Node34&#45;&gt;Node12</title>
<path fill="none" stroke="#9a32cd" stroke-dasharray="5,2" d="M887.5875,-45.9529C913.9656,-46.651 947.7055,-51.5088 972,-69 1001.7107,-90.3907 1015.5291,-134.7141 1020.3744,-154.3157"/>
<polygon fill="#9a32cd" stroke="#9a32cd" points="887.5382,-42.4525 877.5114,-45.875 887.484,-49.4523 887.5382,-42.4525"/>
<text text-anchor="middle" x="947.5" y="-72" font-family="Helvetica,sans-Serif" font-size="10.00" fill="#000000"> AutoSizes</text>
</g>
<!-- Node36 -->
<g id="node18" class="node">
<title>Node36</title>
<g id="a_node18"><a xlink:href="classaworx_1_1lib_1_1lox_1_1core_1_1textlogger_1_1ObjectConverter.html" target="_top" xlink:title="ObjectConverter">
<polygon fill="#ffffff" stroke="#000000" points="802.5,-.5 802.5,-19.5 890.5,-19.5 890.5,-.5 802.5,-.5"/>
<text text-anchor="middle" x="846.5" y="-7.5" font-family="Helvetica,sans-Serif" font-size="10.00" fill="#000000">ObjectConverter</text>
</a>
</g>
</g>
<!-- Node36&#45;&gt;Node12 -->
<g id="edge20" class="edge">
<title>Node36&#45;&gt;Node12</title>
<path fill="none" stroke="#9a32cd" stroke-dasharray="5,2" d="M900.9,-8.9576C925.0544,-11.1624 952.3896,-17.6621 972,-34 1010.1351,-65.7713 1019.5776,-130.0215 1021.8263,-154.3602"/>
<polygon fill="#9a32cd" stroke="#9a32cd" points="900.9918,-5.4557 890.7747,-8.2594 900.5102,-12.4391 900.9918,-5.4557"/>
<text text-anchor="middle" x="947.5" y="-37" font-family="Helvetica,sans-Serif" font-size="10.00" fill="#000000"> Converter</text>
</g>
<!-- Node38 -->
<g id="node19" class="node">
<title>Node38</title>
<g id="a_node19"><a xlink:href="classaworx_1_1lib_1_1time_1_1CalendarDateTime.html" target="_top" xlink:title="CalendarDateTime">
<polygon fill="#ffffff" stroke="#000000" points="514.5,-448.5 514.5,-467.5 612.5,-467.5 612.5,-448.5 514.5,-448.5"/>
<text text-anchor="middle" x="563.5" y="-455.5" font-family="Helvetica,sans-Serif" font-size="10.00" fill="#000000">CalendarDateTime</text>
</a>
</g>
</g>
<!-- Node38&#45;&gt;Node37 -->
<g id="edge22" class="edge">
<title>Node38&#45;&gt;Node37</title>
<path fill="none" stroke="#9a32cd" stroke-dasharray="5,2" d="M622.9405,-455.9999C674.7774,-453.3737 745.4157,-447.4008 770,-434 805.9786,-414.3882 831.7079,-370.2921 841.7921,-350.6993"/>
<polygon fill="#9a32cd" stroke="#9a32cd" points="622.6648,-452.509 612.843,-456.4818 622.9985,-459.501 622.6648,-452.509"/>
<text text-anchor="middle" x="715" y="-456" font-family="Helvetica,sans-Serif" font-size="10.00" fill="#000000"> callerDateTime</text>
</g>
<!-- Node39 -->
<g id="node20" class="node">
<title>Node39</title>
<g id="a_node20"><a xlink:href="classaworx_1_1lib_1_1time_1_1TicksConverter.html" target="_top" xlink:title="TicksConverter">
<polygon fill="#ffffff" stroke="#000000" points="522,-410.5 522,-429.5 605,-429.5 605,-410.5 522,-410.5"/>
<text text-anchor="middle" x="563.5" y="-417.5" font-family="Helvetica,sans-Serif" font-size="10.00" fill="#000000">TicksConverter</text>
</a>
</g>
</g>
<!-- Node39&#45;&gt;Node37 -->
<g id="edge23" class="edge">
<title>Node39&#45;&gt;Node37</title>
<path fill="none" stroke="#9a32cd" stroke-dasharray="5,2" d="M615.2435,-422.7848C658.1654,-423.2898 720.0302,-419.7708 770,-400 798.0728,-388.8929 824.4887,-364.2364 837.6989,-350.5756"/>
<polygon fill="#9a32cd" stroke="#9a32cd" points="615.0968,-419.2814 605.0301,-422.5847 614.9596,-426.28 615.0968,-419.2814"/>
<text text-anchor="middle" x="715" y="-424" font-family="Helvetica,sans-Serif" font-size="10.00" fill="#000000"> DateConverter</text>
</g>
</g>
</svg>
