<?xml version="1.0" encoding="UTF-8" standalone="no"?>
<!DOCTYPE svg PUBLIC "-//W3C//DTD SVG 1.1//EN"
 "http://www.w3.org/Graphics/SVG/1.1/DTD/svg11.dtd">
<!-- Generated by graphviz version 2.40.1 (20161225.0304)
 -->
<!-- Title: FormatterJavaStyleBase&lt;TChar&gt; Pages: 1 -->
<svg width="322pt" height="229pt"
 viewBox="0.00 0.00 321.50 229.00" xmlns="http://www.w3.org/2000/svg" xmlns:xlink="http://www.w3.org/1999/xlink">
<g id="graph0" class="graph" transform="scale(1 1) rotate(0) translate(4 225)">
<title>FormatterJavaStyleBase&lt;TChar&gt;</title>
<polygon fill="#ffffff" stroke="transparent" points="-4,4 -4,-225 317.5,-225 317.5,4 -4,4"/>
<!-- Node4 -->
<g id="node1" class="node">
<title>Node4</title>
<polygon fill="#bfbfbf" stroke="#000000" points="126,-.5 126,-19.5 289,-19.5 289,-.5 126,-.5"/>
<text text-anchor="middle" x="207.5" y="-7.5" font-family="Helvetica,sans-Serif" font-size="10.00" fill="#000000">FormatterJavaStyleBase&lt;TChar&gt;</text>
</g>
<!-- Node5 -->
<g id="node2" class="node">
<title>Node5</title>
<g id="a_node2"><a xlink:href="classaworx_1_1lib_1_1strings_1_1format_1_1FormatterStdImpl.html" target="_top" xlink:title="FormatterStdImpl\&lt;TChar\&gt;">
<polygon fill="#ffffff" stroke="#000000" points="90,-67.5 90,-86.5 221,-86.5 221,-67.5 90,-67.5"/>
<text text-anchor="middle" x="155.5" y="-74.5" font-family="Helvetica,sans-Serif" font-size="10.00" fill="#000000">FormatterStdImpl&lt;TChar&gt;</text>
</a>
</g>
</g>
<!-- Node5&#45;&gt;Node4 -->
<g id="edge1" class="edge">
<title>Node5&#45;&gt;Node4</title>
<path fill="none" stroke="#191970" d="M169.1996,-59.3486C179.079,-46.6194 192.0374,-29.9229 200.0635,-19.5817"/>
<polygon fill="#191970" stroke="#191970" points="166.3166,-57.3547 162.9503,-67.4005 171.8466,-61.6466 166.3166,-57.3547"/>
</g>
<!-- Node6 -->
<g id="node3" class="node">
<title>Node6</title>
<g id="a_node3"><a xlink:href="classaworx_1_1lib_1_1strings_1_1format_1_1FormatterBase.html" target="_top" xlink:title="[DOX_ALIB_ENUM_META_DATA_SPECIFCATION_using_enum] ">
<polygon fill="#ffffff" stroke="#000000" points="0,-134.5 0,-153.5 119,-153.5 119,-134.5 0,-134.5"/>
<text text-anchor="middle" x="59.5" y="-141.5" font-family="Helvetica,sans-Serif" font-size="10.00" fill="#000000">FormatterBase&lt;TChar&gt;</text>
</a>
</g>
</g>
<!-- Node6&#45;&gt;Node5 -->
<g id="edge2" class="edge">
<title>Node6&#45;&gt;Node5</title>
<path fill="none" stroke="#191970" d="M81.6944,-128.5102C100.2398,-115.567 126.0989,-97.5195 141.7711,-86.5817"/>
<polygon fill="#191970" stroke="#191970" points="79.4517,-125.8072 73.2545,-134.4005 83.4579,-131.5475 79.4517,-125.8072"/>
</g>
<!-- Node7 -->
<g id="node4" class="node">
<title>Node7</title>
<g id="a_node4"><a xlink:href="classaworx_1_1lib_1_1threads_1_1ThreadLock.html" target="_top" xlink:title="ThreadLock">
<polygon fill="#ffffff" stroke="#ff0000" points="25.5,-201.5 25.5,-220.5 93.5,-220.5 93.5,-201.5 25.5,-201.5"/>
<text text-anchor="middle" x="59.5" y="-208.5" font-family="Helvetica,sans-Serif" font-size="10.00" fill="#000000">ThreadLock</text>
</a>
</g>
</g>
<!-- Node7&#45;&gt;Node6 -->
<g id="edge3" class="edge">
<title>Node7&#45;&gt;Node6</title>
<path fill="none" stroke="#191970" d="M59.5,-191.1079C59.5,-178.714 59.5,-163.3263 59.5,-153.5817"/>
<polygon fill="#191970" stroke="#191970" points="56.0001,-191.4005 59.5,-201.4005 63.0001,-191.4006 56.0001,-191.4005"/>
</g>
<!-- Node14 -->
<g id="node5" class="node">
<title>Node14</title>
<polygon fill="#ffffff" stroke="#bfbfbf" points="239,-67.5 239,-86.5 282,-86.5 282,-67.5 239,-67.5"/>
<text text-anchor="middle" x="260.5" y="-74.5" font-family="Helvetica,sans-Serif" font-size="10.00" fill="#000000">TChar</text>
</g>
<!-- Node14&#45;&gt;Node4 -->
<g id="edge4" class="edge">
<title>Node14&#45;&gt;Node4</title>
<path fill="none" stroke="#9a32cd" stroke-dasharray="5,2" d="M246.537,-59.3486C236.4676,-46.6194 223.2599,-29.9229 215.0795,-19.5817"/>
<polygon fill="#9a32cd" stroke="#9a32cd" points="243.9573,-61.7291 252.9064,-67.4005 249.4473,-57.3863 243.9573,-61.7291"/>
<text text-anchor="middle" x="275" y="-41" font-family="Helvetica,sans-Serif" font-size="10.00" fill="#000000"> phaExtDateTime</text>
</g>
<!-- Node18 -->
<g id="node6" class="node">
<title>Node18</title>
<g id="a_node6"><a xlink:href="classaworx_1_1lib_1_1boxing_1_1Boxes.html" target="_top" xlink:title="Boxes">
<polygon fill="#ffffff" stroke="#ff0000" points="122.5,-201.5 122.5,-220.5 166.5,-220.5 166.5,-201.5 122.5,-201.5"/>
<text text-anchor="middle" x="144.5" y="-208.5" font-family="Helvetica,sans-Serif" font-size="10.00" fill="#000000">Boxes</text>
</a>
</g>
</g>
<!-- Node18&#45;&gt;Node5 -->
<g id="edge5" class="edge">
<title>Node18&#45;&gt;Node5</title>
<path fill="none" stroke="#9a32cd" stroke-dasharray="5,2" d="M146.1316,-191.124C148.5341,-161.8572 152.9313,-108.2914 154.7161,-86.5496"/>
<polygon fill="#9a32cd" stroke="#9a32cd" points="142.6211,-191.1102 145.2911,-201.3631 149.5976,-191.683 142.6211,-191.1102"/>
<text text-anchor="middle" x="176" y="-141.5" font-family="Helvetica,sans-Serif" font-size="10.00" fill="#000000"> arguments</text>
</g>
<!-- Node18&#45;&gt;Node6 -->
<g id="edge6" class="edge">
<title>Node18&#45;&gt;Node6</title>
<path fill="none" stroke="#9a32cd" stroke-dasharray="5,2" d="M124.3993,-195.1559C108.0128,-182.2395 85.4061,-164.4201 71.6558,-153.5817"/>
<polygon fill="#9a32cd" stroke="#9a32cd" points="122.3013,-197.9588 132.3216,-201.4005 126.6347,-192.4613 122.3013,-197.9588"/>
<text text-anchor="middle" x="122.5" y="-175" font-family="Helvetica,sans-Serif" font-size="10.00" fill="#000000"> boxes</text>
</g>
<!-- Node21 -->
<g id="node7" class="node">
<title>Node21</title>
<g id="a_node7"><a xlink:href="classaworx_1_1lib_1_1boxing_1_1Box.html" target="_top" xlink:title="Box">
<polygon fill="#ffffff" stroke="#000000" points="222.5,-134.5 222.5,-153.5 256.5,-153.5 256.5,-134.5 222.5,-134.5"/>
<text text-anchor="middle" x="239.5" y="-141.5" font-family="Helvetica,sans-Serif" font-size="10.00" fill="#000000">Box</text>
</a>
</g>
</g>
<!-- Node21&#45;&gt;Node5 -->
<g id="edge7" class="edge">
<title>Node21&#45;&gt;Node5</title>
<path fill="none" stroke="#9a32cd" stroke-dasharray="5,2" d="M219.6358,-128.1559C203.442,-115.2395 181.1013,-97.4201 167.5128,-86.5817"/>
<polygon fill="#9a32cd" stroke="#9a32cd" points="217.4646,-130.9011 227.4648,-134.4005 221.8295,-125.4287 217.4646,-130.9011"/>
<text text-anchor="middle" x="234" y="-108" font-family="Helvetica,sans-Serif" font-size="10.00" fill="#000000"> phaArgument</text>
</g>
<!-- Node22 -->
<g id="node8" class="node">
<title>Node22</title>
<g id="a_node8"><a xlink:href="structaworx_1_1lib_1_1boxing_1_1BoxData.html" target="_top" xlink:title="BoxData">
<polygon fill="#ffffff" stroke="#000000" points="198,-201.5 198,-220.5 253,-220.5 253,-201.5 198,-201.5"/>
<text text-anchor="middle" x="225.5" y="-208.5" font-family="Helvetica,sans-Serif" font-size="10.00" fill="#000000">BoxData</text>
</a>
</g>
</g>
<!-- Node22&#45;&gt;Node21 -->
<g id="edge8" class="edge">
<title>Node22&#45;&gt;Node21</title>
<path fill="none" stroke="#9a32cd" stroke-dasharray="5,2" d="M229.5775,-191.4863C232.1806,-179.0286 235.4409,-163.4258 237.4979,-153.5817"/>
<polygon fill="#9a32cd" stroke="#9a32cd" points="226.1253,-190.896 227.5059,-201.4005 232.9773,-192.3279 226.1253,-190.896"/>
<text text-anchor="middle" x="243.5" y="-175" font-family="Helvetica,sans-Serif" font-size="10.00" fill="#000000"> data</text>
</g>
<!-- Node23 -->
<g id="node9" class="node">
<title>Node23</title>
<g id="a_node9"><a xlink:href="classaworx_1_1lib_1_1boxing_1_1Boxer.html" target="_top" xlink:title="Boxer">
<polygon fill="#ffffff" stroke="#000000" points="271.5,-201.5 271.5,-220.5 313.5,-220.5 313.5,-201.5 271.5,-201.5"/>
<text text-anchor="middle" x="292.5" y="-208.5" font-family="Helvetica,sans-Serif" font-size="10.00" fill="#000000">Boxer</text>
</a>
</g>
</g>
<!-- Node23&#45;&gt;Node21 -->
<g id="edge9" class="edge">
<title>Node23&#45;&gt;Node21</title>
<path fill="none" stroke="#9a32cd" stroke-dasharray="5,2" d="M278.537,-193.3486C268.4676,-180.6194 255.2599,-163.9229 247.0795,-153.5817"/>
<polygon fill="#9a32cd" stroke="#9a32cd" points="275.9573,-195.7291 284.9064,-201.4005 281.4473,-191.3863 275.9573,-195.7291"/>
<text text-anchor="middle" x="282.5" y="-175" font-family="Helvetica,sans-Serif" font-size="10.00" fill="#000000"> boxer</text>
</g>
</g>
</svg>
