<?xml version="1.0" encoding="UTF-8" standalone="no"?>
<!DOCTYPE svg PUBLIC "-//W3C//DTD SVG 1.1//EN"
 "http://www.w3.org/Graphics/SVG/1.1/DTD/svg11.dtd">
<!-- Generated by graphviz version 2.40.1 (20161225.0304)
 -->
<!-- Title: PreallocatedStringBase&lt;TChar, TCapacity&gt; Pages: 1 -->
<svg width="261pt" height="277pt"
 viewBox="0.00 0.00 260.50 277.00" xmlns="http://www.w3.org/2000/svg" xmlns:xlink="http://www.w3.org/1999/xlink">
<g id="graph0" class="graph" transform="scale(1 1) rotate(0) translate(4 273)">
<title>PreallocatedStringBase&lt;TChar, TCapacity&gt;</title>
<polygon fill="#ffffff" stroke="transparent" points="-4,4 -4,-273 256.5,-273 256.5,4 -4,4"/>
<!-- Node4 -->
<g id="node1" class="node">
<title>Node4</title>
<polygon fill="#bfbfbf" stroke="#000000" points="0,-.5 0,-19.5 206,-19.5 206,-.5 0,-.5"/>
<text text-anchor="middle" x="103" y="-7.5" font-family="Helvetica,sans-Serif" font-size="10.00" fill="#000000">PreallocatedStringBase&lt;TChar, TCapacity&gt;</text>
</g>
<!-- Node5 -->
<g id="node2" class="node">
<title>Node5</title>
<g id="a_node2"><a xlink:href="classaworx_1_1lib_1_1strings_1_1AStringBase.html" target="_top" xlink:title="AStringBase\&lt;TChar\&gt;">
<polygon fill="#ffffff" stroke="#000000" points="121,-57.5 121,-76.5 231,-76.5 231,-57.5 121,-57.5"/>
<text text-anchor="middle" x="176" y="-64.5" font-family="Helvetica,sans-Serif" font-size="10.00" fill="#000000">AStringBase&lt;TChar&gt;</text>
</a>
</g>
</g>
<!-- Node5&#45;&gt;Node4 -->
<g id="edge1" class="edge">
<title>Node5&#45;&gt;Node4</title>
<path fill="none" stroke="#191970" d="M155.6571,-51.1158C142.6524,-40.9615 126.2195,-28.1303 115.2006,-19.5265"/>
<polygon fill="#191970" stroke="#191970" points="153.5806,-53.935 163.6165,-57.3307 157.8887,-48.4177 153.5806,-53.935"/>
</g>
<!-- Node6 -->
<g id="node3" class="node">
<title>Node6</title>
<g id="a_node3"><a xlink:href="classaworx_1_1lib_1_1strings_1_1TStringBase.html" target="_top" xlink:title="TStringBase\&lt;TChar\&gt;">
<polygon fill="#ffffff" stroke="#000000" points="143.5,-114.5 143.5,-133.5 252.5,-133.5 252.5,-114.5 143.5,-114.5"/>
<text text-anchor="middle" x="198" y="-121.5" font-family="Helvetica,sans-Serif" font-size="10.00" fill="#000000">TStringBase&lt;TChar&gt;</text>
</a>
</g>
</g>
<!-- Node6&#45;&gt;Node5 -->
<g id="edge2" class="edge">
<title>Node6&#45;&gt;Node5</title>
<path fill="none" stroke="#191970" d="M190.6066,-104.8442C186.9303,-95.3195 182.6498,-84.229 179.6769,-76.5265"/>
<polygon fill="#191970" stroke="#191970" points="187.4019,-106.2618 194.268,-114.3307 193.9324,-103.7412 187.4019,-106.2618"/>
</g>
<!-- Node7 -->
<g id="node4" class="node">
<title>Node7</title>
<g id="a_node4"><a xlink:href="classaworx_1_1lib_1_1strings_1_1StringBase.html" target="_top" xlink:title="StringBase\&lt;TChar\&gt;">
<polygon fill="#ffffff" stroke="#000000" points="122.5,-171.5 122.5,-190.5 225.5,-190.5 225.5,-171.5 122.5,-171.5"/>
<text text-anchor="middle" x="174" y="-178.5" font-family="Helvetica,sans-Serif" font-size="10.00" fill="#000000">StringBase&lt;TChar&gt;</text>
</a>
</g>
</g>
<!-- Node7&#45;&gt;Node6 -->
<g id="edge3" class="edge">
<title>Node7&#45;&gt;Node6</title>
<path fill="none" stroke="#191970" d="M182.0656,-161.8442C186.076,-152.3195 190.7457,-141.229 193.9889,-133.5265"/>
<polygon fill="#191970" stroke="#191970" points="178.7262,-160.7561 178.0713,-171.3307 185.1776,-163.4726 178.7262,-160.7561"/>
</g>
<!-- Node8 -->
<g id="node5" class="node">
<title>Node8</title>
<polygon fill="#ffffff" stroke="#bfbfbf" points="65.5,-249.5 65.5,-268.5 108.5,-268.5 108.5,-249.5 65.5,-249.5"/>
<text text-anchor="middle" x="87" y="-256.5" font-family="Helvetica,sans-Serif" font-size="10.00" fill="#000000">TChar</text>
</g>
<!-- Node8&#45;&gt;Node4 -->
<g id="edge4" class="edge">
<title>Node8&#45;&gt;Node4</title>
<path fill="none" stroke="#9a32cd" stroke-dasharray="5,2" d="M80.6993,-239.4316C76.2219,-223.7915 71,-201.2171 71,-181 71,-181 71,-181 71,-67 71,-48.3882 84.1328,-30.23 93.572,-19.5824"/>
<polygon fill="#9a32cd" stroke="#9a32cd" points="77.3598,-240.4801 83.6068,-249.0373 84.0596,-238.4521 77.3598,-240.4801"/>
<text text-anchor="middle" x="98" y="-121.5" font-family="Helvetica,sans-Serif" font-size="10.00" fill="#000000"> preAllocBuf</text>
</g>
<!-- Node8&#45;&gt;Node7 -->
<g id="edge5" class="edge">
<title>Node8&#45;&gt;Node7</title>
<path fill="none" stroke="#9a32cd" stroke-dasharray="5,2" d="M105.542,-242.3762C123.0975,-226.6367 148.8493,-203.5489 163.2448,-190.6426"/>
<polygon fill="#9a32cd" stroke="#9a32cd" points="102.7772,-240.1542 97.6679,-249.4357 107.45,-245.3662 102.7772,-240.1542"/>
<text text-anchor="middle" x="156.5" y="-223" font-family="Helvetica,sans-Serif" font-size="10.00" fill="#000000"> vbuffer</text>
<text text-anchor="middle" x="156.5" y="-212" font-family="Helvetica,sans-Serif" font-size="10.00" fill="#000000">buffer</text>
</g>
</g>
</svg>
