<?xml version="1.0" encoding="UTF-8" standalone="no"?>
<!DOCTYPE svg PUBLIC "-//W3C//DTD SVG 1.1//EN"
 "http://www.w3.org/Graphics/SVG/1.1/DTD/svg11.dtd">
<!-- Generated by graphviz version 2.40.1 (20161225.0304)
 -->
<!-- Title: StringReader Pages: 1 -->
<svg width="260pt" height="219pt"
 viewBox="0.00 0.00 259.50 219.00" xmlns="http://www.w3.org/2000/svg" xmlns:xlink="http://www.w3.org/1999/xlink">
<g id="graph0" class="graph" transform="scale(1 1) rotate(0) translate(4 215)">
<title>StringReader</title>
<polygon fill="#ffffff" stroke="transparent" points="-4,4 -4,-215 255.5,-215 255.5,4 -4,4"/>
<!-- Node1 -->
<g id="node1" class="node">
<title>Node1</title>
<polygon fill="#bfbfbf" stroke="#000000" points="83.5,-.5 83.5,-19.5 157.5,-19.5 157.5,-.5 83.5,-.5"/>
<text text-anchor="middle" x="120.5" y="-7.5" font-family="Helvetica,sans-Serif" font-size="10.00" fill="#000000">StringReader</text>
</g>
<!-- Node6 -->
<g id="node2" class="node">
<title>Node6</title>
<polygon fill="#ffffff" stroke="#bfbfbf" points="132,-134.5 132,-153.5 245,-153.5 245,-134.5 132,-134.5"/>
<text text-anchor="middle" x="188.5" y="-141.5" font-family="Helvetica,sans-Serif" font-size="10.00" fill="#000000">basic_istream&lt;nchar&gt;</text>
</g>
<!-- Node5 -->
<g id="node7" class="node">
<title>Node5</title>
<g id="a_node7"><a xlink:href="classaworx_1_1lib_1_1strings_1_1thirdparty_1_1std_1_1ISReadLineBase.html" target="_top" xlink:title="ISReadLineBase\&lt;nchar\&gt;">
<polygon fill="#ffffff" stroke="#000000" points="125.5,-67.5 125.5,-86.5 251.5,-86.5 251.5,-67.5 125.5,-67.5"/>
<text text-anchor="middle" x="188.5" y="-74.5" font-family="Helvetica,sans-Serif" font-size="10.00" fill="#000000">ISReadLineBase&lt;nchar&gt;</text>
</a>
</g>
</g>
<!-- Node6&#45;&gt;Node5 -->
<g id="edge5" class="edge">
<title>Node6&#45;&gt;Node5</title>
<path fill="none" stroke="#9a32cd" stroke-dasharray="5,2" d="M188.5,-124.1079C188.5,-111.714 188.5,-96.3263 188.5,-86.5817"/>
<polygon fill="#9a32cd" stroke="#9a32cd" points="185.0001,-124.4005 188.5,-134.4005 192.0001,-124.4006 185.0001,-124.4005"/>
<text text-anchor="middle" x="207.5" y="-108" font-family="Helvetica,sans-Serif" font-size="10.00" fill="#000000"> IStream</text>
</g>
<!-- Node7 -->
<g id="node3" class="node">
<title>Node7</title>
<g id="a_node3"><a xlink:title="STL class. ">
<polygon fill="#ffffff" stroke="#bfbfbf" points="141.5,-191.5 141.5,-210.5 235.5,-210.5 235.5,-191.5 141.5,-191.5"/>
<text text-anchor="middle" x="188.5" y="-198.5" font-family="Helvetica,sans-Serif" font-size="10.00" fill="#000000">basic_ios&lt;nchar&gt;</text>
</a>
</g>
</g>
<!-- Node7&#45;&gt;Node6 -->
<g id="edge6" class="edge">
<title>Node7&#45;&gt;Node6</title>
<path fill="none" stroke="#191970" d="M188.5,-181.2342C188.5,-171.8491 188.5,-161.0651 188.5,-153.5265"/>
<polygon fill="#191970" stroke="#191970" points="185.0001,-181.3307 188.5,-191.3307 192.0001,-181.3308 185.0001,-181.3307"/>
</g>
<!-- Node2 -->
<g id="node4" class="node">
<title>Node2</title>
<g id="a_node4"><a xlink:href="classaworx_1_1lib_1_1strings_1_1AStringBase.html" target="_top" xlink:title="AStringBase\&lt;nchar\&gt;">
<polygon fill="#ffffff" stroke="#000000" points="0,-67.5 0,-86.5 107,-86.5 107,-67.5 0,-67.5"/>
<text text-anchor="middle" x="53.5" y="-74.5" font-family="Helvetica,sans-Serif" font-size="10.00" fill="#000000">AStringBase&lt;nchar&gt;</text>
</a>
</g>
</g>
<!-- Node2&#45;&gt;Node1 -->
<g id="edge1" class="edge">
<title>Node2&#45;&gt;Node1</title>
<path fill="none" stroke="#9a32cd" stroke-dasharray="5,2" d="M70.4215,-60.0785C83.2361,-47.2639 100.3782,-30.1218 110.9183,-19.5817"/>
<polygon fill="#9a32cd" stroke="#9a32cd" points="67.6957,-57.8546 63.0995,-67.4005 72.6454,-62.8043 67.6957,-57.8546"/>
<text text-anchor="middle" x="113.5" y="-41" font-family="Helvetica,sans-Serif" font-size="10.00" fill="#000000"> converter</text>
</g>
<!-- Node3 -->
<g id="node5" class="node">
<title>Node3</title>
<g id="a_node5"><a xlink:href="classaworx_1_1lib_1_1strings_1_1TStringBase.html" target="_top" xlink:title="TStringBase\&lt;nchar\&gt;">
<polygon fill="#ffffff" stroke="#000000" points="0,-134.5 0,-153.5 107,-153.5 107,-134.5 0,-134.5"/>
<text text-anchor="middle" x="53.5" y="-141.5" font-family="Helvetica,sans-Serif" font-size="10.00" fill="#000000">TStringBase&lt;nchar&gt;</text>
</a>
</g>
</g>
<!-- Node3&#45;&gt;Node2 -->
<g id="edge2" class="edge">
<title>Node3&#45;&gt;Node2</title>
<path fill="none" stroke="#191970" d="M53.5,-124.1079C53.5,-111.714 53.5,-96.3263 53.5,-86.5817"/>
<polygon fill="#191970" stroke="#191970" points="50.0001,-124.4005 53.5,-134.4005 57.0001,-124.4006 50.0001,-124.4005"/>
</g>
<!-- Node4 -->
<g id="node6" class="node">
<title>Node4</title>
<g id="a_node6"><a xlink:href="classaworx_1_1lib_1_1strings_1_1StringBase.html" target="_top" xlink:title="StringBase\&lt;nchar\&gt;">
<polygon fill="#ffffff" stroke="#000000" points="3,-191.5 3,-210.5 104,-210.5 104,-191.5 3,-191.5"/>
<text text-anchor="middle" x="53.5" y="-198.5" font-family="Helvetica,sans-Serif" font-size="10.00" fill="#000000">StringBase&lt;nchar&gt;</text>
</a>
</g>
</g>
<!-- Node4&#45;&gt;Node3 -->
<g id="edge3" class="edge">
<title>Node4&#45;&gt;Node3</title>
<path fill="none" stroke="#191970" d="M53.5,-181.2342C53.5,-171.8491 53.5,-161.0651 53.5,-153.5265"/>
<polygon fill="#191970" stroke="#191970" points="50.0001,-181.3307 53.5,-191.3307 57.0001,-181.3308 50.0001,-181.3307"/>
</g>
<!-- Node5&#45;&gt;Node1 -->
<g id="edge4" class="edge">
<title>Node5&#45;&gt;Node1</title>
<path fill="none" stroke="#9a32cd" stroke-dasharray="5,2" d="M171.326,-60.0785C158.3201,-47.2639 140.9221,-30.1218 130.2247,-19.5817"/>
<polygon fill="#9a32cd" stroke="#9a32cd" points="169.1775,-62.8752 178.7573,-67.4005 174.0905,-57.8889 169.1775,-62.8752"/>
<text text-anchor="middle" x="177" y="-41" font-family="Helvetica,sans-Serif" font-size="10.00" fill="#000000"> readOp</text>
</g>
</g>
</svg>
