<?xml version="1.0" encoding="UTF-8" standalone="no"?>
<!DOCTYPE svg PUBLIC "-//W3C//DTD SVG 1.1//EN"
 "http://www.w3.org/Graphics/SVG/1.1/DTD/svg11.dtd">
<!-- Generated by graphviz version 2.40.1 (20161225.0304)
 -->
<!-- Title: IApply_BoxedAs_TApplicable&lt;TChar, TApplicable&gt; Pages: 1 -->
<svg width="400pt" height="152pt"
 viewBox="0.00 0.00 400.00 152.00" xmlns="http://www.w3.org/2000/svg" xmlns:xlink="http://www.w3.org/1999/xlink">
<g id="graph0" class="graph" transform="scale(1 1) rotate(0) translate(4 148)">
<title>IApply_BoxedAs_TApplicable&lt;TChar, TApplicable&gt;</title>
<polygon fill="#ffffff" stroke="transparent" points="-4,4 -4,-148 396,-148 396,4 -4,4"/>
<!-- Node4 -->
<g id="node1" class="node">
<title>Node4</title>
<polygon fill="#bfbfbf" stroke="#000000" points="128,-.5 128,-19.5 367,-19.5 367,-.5 128,-.5"/>
<text text-anchor="middle" x="247.5" y="-7.5" font-family="Helvetica,sans-Serif" font-size="10.00" fill="#000000">IApply_BoxedAs_TApplicable&lt;TChar, TApplicable&gt;</text>
</g>
<!-- Node7 -->
<g id="node2" class="node">
<title>Node7</title>
<g id="a_node2"><a xlink:href="classaworx_1_1lib_1_1lang_1_1Singleton.html" target="_top" xlink:title="Singleton\&lt;IApply_BoxedAs_TApplicable\&lt;TChar, TApplicable\&gt;\&gt;">
<polygon fill="#ffffff" stroke="#000000" points="0,-57.5 0,-76.5 291,-76.5 291,-57.5 0,-57.5"/>
<text text-anchor="middle" x="145.5" y="-64.5" font-family="Helvetica,sans-Serif" font-size="10.00" fill="#000000">Singleton&lt;IApply_BoxedAs_TApplicable&lt;TChar, TApplicable&gt;&gt;</text>
</a>
</g>
</g>
<!-- Node7&#45;&gt;Node4 -->
<g id="edge3" class="edge">
<title>Node7&#45;&gt;Node4</title>
<path fill="none" stroke="#191970" d="M171.6155,-52.4061C190.1132,-42.0691 214.3964,-28.4991 230.4526,-19.5265"/>
<polygon fill="#191970" stroke="#191970" points="169.825,-49.3972 162.8029,-57.3307 173.2397,-55.5078 169.825,-49.3972"/>
</g>
<!-- Node5 -->
<g id="node3" class="node">
<title>Node5</title>
<g id="a_node3"><a xlink:href="classaworx_1_1lib_1_1strings_1_1boxing_1_1IApply.html" target="_top" xlink:title="IApply\&lt;TChar\&gt;">
<polygon fill="#ffffff" stroke="#000000" points="309,-57.5 309,-76.5 392,-76.5 392,-57.5 309,-57.5"/>
<text text-anchor="middle" x="350.5" y="-64.5" font-family="Helvetica,sans-Serif" font-size="10.00" fill="#000000">IApply&lt;TChar&gt;</text>
</a>
</g>
</g>
<!-- Node5&#45;&gt;Node4 -->
<g id="edge1" class="edge">
<title>Node5&#45;&gt;Node4</title>
<path fill="none" stroke="#191970" d="M324.1285,-52.4061C305.4494,-42.0691 280.9281,-28.4991 264.7145,-19.5265"/>
<polygon fill="#191970" stroke="#191970" points="322.5832,-55.551 333.0275,-57.3307 325.9726,-49.4263 322.5832,-55.551"/>
</g>
<!-- Node6 -->
<g id="node4" class="node">
<title>Node6</title>
<g id="a_node4"><a xlink:href="classaworx_1_1lib_1_1boxing_1_1Interface.html" target="_top" xlink:title="Interface">
<polygon fill="#ffffff" stroke="#000000" points="323,-124.5 323,-143.5 378,-143.5 378,-124.5 323,-124.5"/>
<text text-anchor="middle" x="350.5" y="-131.5" font-family="Helvetica,sans-Serif" font-size="10.00" fill="#000000">Interface</text>
</a>
</g>
</g>
<!-- Node6&#45;&gt;Node5 -->
<g id="edge2" class="edge">
<title>Node6&#45;&gt;Node5</title>
<path fill="none" stroke="#191970" d="M350.5,-114.1079C350.5,-101.714 350.5,-86.3263 350.5,-76.5817"/>
<polygon fill="#191970" stroke="#191970" points="347.0001,-114.4005 350.5,-124.4005 354.0001,-114.4006 347.0001,-114.4005"/>
</g>
<!-- Node8 -->
<g id="node5" class="node">
<title>Node8</title>
<polygon fill="#ffffff" stroke="#bfbfbf" points="104.5,-124.5 104.5,-143.5 186.5,-143.5 186.5,-124.5 104.5,-124.5"/>
<text text-anchor="middle" x="145.5" y="-131.5" font-family="Helvetica,sans-Serif" font-size="10.00" fill="#000000">TDerivedClass</text>
</g>
<!-- Node8&#45;&gt;Node7 -->
<g id="edge4" class="edge">
<title>Node8&#45;&gt;Node7</title>
<path fill="none" stroke="#9a32cd" stroke-dasharray="5,2" d="M145.5,-114.1079C145.5,-101.714 145.5,-86.3263 145.5,-76.5817"/>
<polygon fill="#9a32cd" stroke="#9a32cd" points="142.0001,-114.4005 145.5,-124.4005 149.0001,-114.4006 142.0001,-114.4005"/>
<text text-anchor="middle" x="167" y="-98" font-family="Helvetica,sans-Serif" font-size="10.00" fill="#000000"> singleton</text>
</g>
</g>
</svg>
