<?xml version="1.0" encoding="UTF-8" standalone="no"?>
<!DOCTYPE svg PUBLIC "-//W3C//DTD SVG 1.1//EN"
 "http://www.w3.org/Graphics/SVG/1.1/DTD/svg11.dtd">
<!-- Generated by graphviz version 2.40.1 (20161225.0304)
 -->
<!-- Title: Exception Pages: 1 -->
<svg width="320pt" height="240pt"
 viewBox="0.00 0.00 319.50 240.00" xmlns="http://www.w3.org/2000/svg" xmlns:xlink="http://www.w3.org/1999/xlink">
<g id="graph0" class="graph" transform="scale(1 1) rotate(0) translate(4 236)">
<title>Exception</title>
<polygon fill="#ffffff" stroke="transparent" points="-4,4 -4,-236 315.5,-236 315.5,4 -4,4"/>
<!-- Node1 -->
<g id="node1" class="node">
<title>Node1</title>
<polygon fill="#bfbfbf" stroke="#000000" points="158.5,-.5 158.5,-19.5 218.5,-19.5 218.5,-.5 158.5,-.5"/>
<text text-anchor="middle" x="188.5" y="-7.5" font-family="Helvetica,sans-Serif" font-size="10.00" fill="#000000">Exception</text>
</g>
<!-- Node2 -->
<g id="node2" class="node">
<title>Node2</title>
<polygon fill="#ffffff" stroke="#bfbfbf" points="124.5,-67.5 124.5,-86.5 252.5,-86.5 252.5,-67.5 124.5,-67.5"/>
<text text-anchor="middle" x="188.5" y="-74.5" font-family="Helvetica,sans-Serif" font-size="10.00" fill="#000000">vector&lt;Exception::Entry&gt;</text>
</g>
<!-- Node2&#45;&gt;Node1 -->
<g id="edge1" class="edge">
<title>Node2&#45;&gt;Node1</title>
<path fill="none" stroke="#9a32cd" stroke-dasharray="5,2" d="M188.5,-57.1079C188.5,-44.714 188.5,-29.3263 188.5,-19.5817"/>
<polygon fill="#9a32cd" stroke="#9a32cd" points="185.0001,-57.4005 188.5,-67.4005 192.0001,-57.4006 185.0001,-57.4005"/>
<text text-anchor="middle" x="205.5" y="-41" font-family="Helvetica,sans-Serif" font-size="10.00" fill="#000000"> Entries</text>
</g>
<!-- Node25 -->
<g id="node3" class="node">
<title>Node25</title>
<g id="a_node3"><a xlink:href="classaworx_1_1lib_1_1strings_1_1TStringBase.html" target="_top" xlink:title="TStringBase\&lt;nchar\&gt;">
<polygon fill="#ffffff" stroke="#ff0000" points="0,-212.5 0,-231.5 107,-231.5 107,-212.5 0,-212.5"/>
<text text-anchor="middle" x="53.5" y="-219.5" font-family="Helvetica,sans-Serif" font-size="10.00" fill="#000000">TStringBase&lt;nchar&gt;</text>
</a>
</g>
</g>
<!-- Node3 -->
<g id="node4" class="node">
<title>Node3</title>
<g id="a_node4"><a xlink:href="structaworx_1_1lib_1_1lang_1_1Exception_1_1Entry.html" target="_top" xlink:title="Entry">
<polygon fill="#ffffff" stroke="#000000" points="168.5,-134.5 168.5,-153.5 208.5,-153.5 208.5,-134.5 168.5,-134.5"/>
<text text-anchor="middle" x="188.5" y="-141.5" font-family="Helvetica,sans-Serif" font-size="10.00" fill="#000000">Entry</text>
</a>
</g>
</g>
<!-- Node25&#45;&gt;Node3 -->
<g id="edge4" class="edge">
<title>Node25&#45;&gt;Node3</title>
<path fill="none" stroke="#9a32cd" stroke-dasharray="5,2" d="M70.724,-205.6437C82.6021,-195.0088 99.1428,-181.419 115.5,-172 132.3212,-162.3138 153.1279,-154.7122 168.2189,-149.8886"/>
<polygon fill="#9a32cd" stroke="#9a32cd" points="68.31,-203.1085 63.3052,-212.4468 73.041,-208.2678 68.31,-203.1085"/>
<text text-anchor="middle" x="128" y="-186" font-family="Helvetica,sans-Serif" font-size="10.00" fill="#000000"> Func</text>
<text text-anchor="middle" x="128" y="-175" font-family="Helvetica,sans-Serif" font-size="10.00" fill="#000000">File</text>
</g>
<!-- Node3&#45;&gt;Node2 -->
<g id="edge2" class="edge">
<title>Node3&#45;&gt;Node2</title>
<path fill="none" stroke="#9a32cd" stroke-dasharray="5,2" d="M188.5,-124.1079C188.5,-111.714 188.5,-96.3263 188.5,-86.5817"/>
<polygon fill="#9a32cd" stroke="#9a32cd" points="185.0001,-124.4005 188.5,-134.4005 192.0001,-124.4006 185.0001,-124.4005"/>
<text text-anchor="middle" x="210" y="-108" font-family="Helvetica,sans-Serif" font-size="10.00" fill="#000000"> elements</text>
</g>
<!-- Node4 -->
<g id="node5" class="node">
<title>Node4</title>
<g id="a_node5"><a xlink:href="classaworx_1_1lib_1_1lang_1_1Library.html" target="_top" xlink:title="Library">
<polygon fill="#ffffff" stroke="#ff0000" points="125.5,-212.5 125.5,-231.5 171.5,-231.5 171.5,-212.5 125.5,-212.5"/>
<text text-anchor="middle" x="148.5" y="-219.5" font-family="Helvetica,sans-Serif" font-size="10.00" fill="#000000">Library</text>
</a>
</g>
</g>
<!-- Node4&#45;&gt;Node3 -->
<g id="edge3" class="edge">
<title>Node4&#45;&gt;Node3</title>
<path fill="none" stroke="#9a32cd" stroke-dasharray="5,2" d="M144.8996,-201.951C144.1484,-192.3757 144.7372,-181.0585 149.5,-172 153.6117,-164.1798 161.0049,-158.0352 168.2571,-153.5193"/>
<polygon fill="#9a32cd" stroke="#9a32cd" points="141.4658,-202.6872 146.2272,-212.1519 148.4073,-201.7838 141.4658,-202.6872"/>
<text text-anchor="middle" x="178.5" y="-180.5" font-family="Helvetica,sans-Serif" font-size="10.00" fill="#000000"> EnumLibrary</text>
</g>
<!-- Node39 -->
<g id="node6" class="node">
<title>Node39</title>
<g id="a_node6"><a xlink:href="classaworx_1_1lib_1_1boxing_1_1Boxes.html" target="_top" xlink:title="Boxes">
<polygon fill="#ffffff" stroke="#ff0000" points="207.5,-212.5 207.5,-231.5 251.5,-231.5 251.5,-212.5 207.5,-212.5"/>
<text text-anchor="middle" x="229.5" y="-219.5" font-family="Helvetica,sans-Serif" font-size="10.00" fill="#000000">Boxes</text>
</a>
</g>
</g>
<!-- Node39&#45;&gt;Node3 -->
<g id="edge5" class="edge">
<title>Node39&#45;&gt;Node3</title>
<path fill="none" stroke="#9a32cd" stroke-dasharray="5,2" d="M222.0328,-202.8445C218.0987,-193.3672 212.9621,-181.8723 207.5,-172 203.9734,-165.626 199.4055,-158.8575 195.6324,-153.5721"/>
<polygon fill="#9a32cd" stroke="#9a32cd" points="218.8043,-204.197 225.7882,-212.1642 225.297,-201.5807 218.8043,-204.197"/>
<text text-anchor="middle" x="229.5" y="-180.5" font-family="Helvetica,sans-Serif" font-size="10.00" fill="#000000"> Args</text>
</g>
<!-- Node42 -->
<g id="node7" class="node">
<title>Node42</title>
<g id="a_node7"><a xlink:href="structaworx_1_1lib_1_1lang_1_1Enum.html" target="_top" xlink:title="Enum">
<polygon fill="#ffffff" stroke="#ff0000" points="269.5,-212.5 269.5,-231.5 311.5,-231.5 311.5,-212.5 269.5,-212.5"/>
<text text-anchor="middle" x="290.5" y="-219.5" font-family="Helvetica,sans-Serif" font-size="10.00" fill="#000000">Enum</text>
</a>
</g>
</g>
<!-- Node42&#45;&gt;Node3 -->
<g id="edge6" class="edge">
<title>Node42&#45;&gt;Node3</title>
<path fill="none" stroke="#9a32cd" stroke-dasharray="5,2" d="M277.269,-204.1648C268.9712,-193.8446 257.5819,-181.1332 245.5,-172 234.2423,-163.4898 219.9923,-156.4898 208.5567,-151.6173"/>
<polygon fill="#9a32cd" stroke="#9a32cd" points="274.563,-206.3867 283.4594,-212.1405 280.0928,-202.0947 274.563,-206.3867"/>
<text text-anchor="middle" x="281" y="-180.5" font-family="Helvetica,sans-Serif" font-size="10.00" fill="#000000"> Code</text>
</g>
</g>
</svg>
