<?xml version="1.0" encoding="UTF-8" standalone="no"?>
<!DOCTYPE svg PUBLIC "-//W3C//DTD SVG 1.1//EN"
 "http://www.w3.org/Graphics/SVG/1.1/DTD/svg11.dtd">
<!-- Generated by graphviz version 2.40.1 (20161225.0304)
 -->
<!-- Title: IApply_TApplicable&lt;TChar, TApplicable&gt; Pages: 1 -->
<svg width="356pt" height="152pt"
 viewBox="0.00 0.00 355.50 152.00" xmlns="http://www.w3.org/2000/svg" xmlns:xlink="http://www.w3.org/1999/xlink">
<g id="graph0" class="graph" transform="scale(1 1) rotate(0) translate(4 148)">
<title>IApply_TApplicable&lt;TChar, TApplicable&gt;</title>
<polygon fill="#ffffff" stroke="transparent" points="-4,4 -4,-148 351.5,-148 351.5,4 -4,4"/>
<!-- Node4 -->
<g id="node1" class="node">
<title>Node4</title>
<polygon fill="#bfbfbf" stroke="#000000" points="117,-.5 117,-19.5 311,-19.5 311,-.5 117,-.5"/>
<text text-anchor="middle" x="214" y="-7.5" font-family="Helvetica,sans-Serif" font-size="10.00" fill="#000000">IApply_TApplicable&lt;TChar, TApplicable&gt;</text>
</g>
<!-- Node7 -->
<g id="node2" class="node">
<title>Node7</title>
<g id="a_node2"><a xlink:href="classaworx_1_1lib_1_1lang_1_1Singleton.html" target="_top" xlink:title="Singleton\&lt;IApply_TApplicable\&lt;TChar, TApplicable\&gt;\&gt;">
<polygon fill="#ffffff" stroke="#000000" points="0,-57.5 0,-76.5 246,-76.5 246,-57.5 0,-57.5"/>
<text text-anchor="middle" x="123" y="-64.5" font-family="Helvetica,sans-Serif" font-size="10.00" fill="#000000">Singleton&lt;IApply_TApplicable&lt;TChar, TApplicable&gt;&gt;</text>
</a>
</g>
</g>
<!-- Node7&#45;&gt;Node4 -->
<g id="edge3" class="edge">
<title>Node7&#45;&gt;Node4</title>
<path fill="none" stroke="#191970" d="M146.9802,-51.9794C163.3942,-41.6982 184.6626,-28.3762 198.7911,-19.5265"/>
<polygon fill="#191970" stroke="#191970" points="145.0537,-49.0562 138.4369,-57.3307 148.7696,-54.9885 145.0537,-49.0562"/>
</g>
<!-- Node5 -->
<g id="node3" class="node">
<title>Node5</title>
<g id="a_node3"><a xlink:href="classaworx_1_1lib_1_1strings_1_1boxing_1_1IApply.html" target="_top" xlink:title="IApply\&lt;TChar\&gt;">
<polygon fill="#ffffff" stroke="#000000" points="264.5,-57.5 264.5,-76.5 347.5,-76.5 347.5,-57.5 264.5,-57.5"/>
<text text-anchor="middle" x="306" y="-64.5" font-family="Helvetica,sans-Serif" font-size="10.00" fill="#000000">IApply&lt;TChar&gt;</text>
</a>
</g>
</g>
<!-- Node5&#45;&gt;Node4 -->
<g id="edge1" class="edge">
<title>Node5&#45;&gt;Node4</title>
<path fill="none" stroke="#191970" d="M281.7563,-51.9794C265.1619,-41.6982 243.6598,-28.3762 229.3761,-19.5265"/>
<polygon fill="#191970" stroke="#191970" points="280.0494,-55.0392 290.3935,-57.3307 283.7361,-49.0887 280.0494,-55.0392"/>
</g>
<!-- Node6 -->
<g id="node4" class="node">
<title>Node6</title>
<g id="a_node4"><a xlink:href="classaworx_1_1lib_1_1boxing_1_1Interface.html" target="_top" xlink:title="Interface">
<polygon fill="#ffffff" stroke="#000000" points="278.5,-124.5 278.5,-143.5 333.5,-143.5 333.5,-124.5 278.5,-124.5"/>
<text text-anchor="middle" x="306" y="-131.5" font-family="Helvetica,sans-Serif" font-size="10.00" fill="#000000">Interface</text>
</a>
</g>
</g>
<!-- Node6&#45;&gt;Node5 -->
<g id="edge2" class="edge">
<title>Node6&#45;&gt;Node5</title>
<path fill="none" stroke="#191970" d="M306,-114.1079C306,-101.714 306,-86.3263 306,-76.5817"/>
<polygon fill="#191970" stroke="#191970" points="302.5001,-114.4005 306,-124.4005 309.5001,-114.4006 302.5001,-114.4005"/>
</g>
<!-- Node8 -->
<g id="node5" class="node">
<title>Node8</title>
<polygon fill="#ffffff" stroke="#bfbfbf" points="82,-124.5 82,-143.5 164,-143.5 164,-124.5 82,-124.5"/>
<text text-anchor="middle" x="123" y="-131.5" font-family="Helvetica,sans-Serif" font-size="10.00" fill="#000000">TDerivedClass</text>
</g>
<!-- Node8&#45;&gt;Node7 -->
<g id="edge4" class="edge">
<title>Node8&#45;&gt;Node7</title>
<path fill="none" stroke="#9a32cd" stroke-dasharray="5,2" d="M123,-114.1079C123,-101.714 123,-86.3263 123,-76.5817"/>
<polygon fill="#9a32cd" stroke="#9a32cd" points="119.5001,-114.4005 123,-124.4005 126.5001,-114.4006 119.5001,-114.4005"/>
<text text-anchor="middle" x="144.5" y="-98" font-family="Helvetica,sans-Serif" font-size="10.00" fill="#000000"> singleton</text>
</g>
</g>
</svg>
