<?xml version="1.0" encoding="UTF-8" standalone="no"?>
<!DOCTYPE svg PUBLIC "-//W3C//DTD SVG 1.1//EN"
 "http://www.w3.org/Graphics/SVG/1.1/DTD/svg11.dtd">
<!-- Generated by graphviz version 2.40.1 (20161225.0304)
 -->
<!-- Title: IApply&lt;TChar&gt; Pages: 1 -->
<svg width="401pt" height="180pt"
 viewBox="0.00 0.00 401.00 180.00" xmlns="http://www.w3.org/2000/svg" xmlns:xlink="http://www.w3.org/1999/xlink">
<g id="graph0" class="graph" transform="scale(1 1) rotate(0) translate(4 176)">
<title>IApply&lt;TChar&gt;</title>
<polygon fill="#ffffff" stroke="transparent" points="-4,4 -4,-176 397,-176 397,4 -4,4"/>
<!-- Node0 -->
<g id="node1" class="node">
<title>Node0</title>
<polygon fill="#bfbfbf" stroke="#000000" points="91,-76.5 91,-95.5 174,-95.5 174,-76.5 91,-76.5"/>
<text text-anchor="middle" x="132.5" y="-83.5" font-family="Helvetica,sans-Serif" font-size="10.00" fill="#000000">IApply&lt;TChar&gt;</text>
</g>
<!-- Node2 -->
<g id="node2" class="node">
<title>Node2</title>
<g id="a_node2"><a xlink:href="classaworx_1_1lib_1_1strings_1_1boxing_1_1IApply__BoxedAs__TApplicable.html" target="_top" xlink:title="IApply_BoxedAs_TApplicable\&lt;TChar\&gt;">
<polygon fill="#ffffff" stroke="#000000" points="210,-152.5 210,-171.5 393,-171.5 393,-152.5 210,-152.5"/>
<text text-anchor="middle" x="301.5" y="-159.5" font-family="Helvetica,sans-Serif" font-size="10.00" fill="#000000">IApply_BoxedAs_TApplicable&lt;TChar&gt;</text>
</a>
</g>
</g>
<!-- Node0&#45;&gt;Node2 -->
<g id="edge1" class="edge">
<title>Node0&#45;&gt;Node2</title>
<path fill="none" stroke="#191970" d="M150.4519,-102.7298C165.313,-115.6614 187.5571,-132.9926 210,-143 218.7426,-146.8983 228.3154,-150.009 237.8716,-152.488"/>
<polygon fill="#191970" stroke="#191970" points="152.3956,-99.7725 142.6093,-95.7129 147.7281,-104.9892 152.3956,-99.7725"/>
</g>
<!-- Node3 -->
<g id="node3" class="node">
<title>Node3</title>
<g id="a_node3"><a xlink:href="classaworx_1_1lib_1_1strings_1_1boxing_1_1IApply__TApplicable.html" target="_top" xlink:title="IApply_TApplicable\&lt;TChar\&gt;">
<polygon fill="#ffffff" stroke="#000000" points="232.5,-114.5 232.5,-133.5 370.5,-133.5 370.5,-114.5 232.5,-114.5"/>
<text text-anchor="middle" x="301.5" y="-121.5" font-family="Helvetica,sans-Serif" font-size="10.00" fill="#000000">IApply_TApplicable&lt;TChar&gt;</text>
</a>
</g>
</g>
<!-- Node0&#45;&gt;Node3 -->
<g id="edge2" class="edge">
<title>Node0&#45;&gt;Node3</title>
<path fill="none" stroke="#191970" d="M180.2899,-97.9995C190.1015,-100.3833 200.373,-102.8211 210,-105 224.2416,-108.2233 239.7787,-111.5286 253.9401,-114.4597"/>
<polygon fill="#191970" stroke="#191970" points="180.8235,-94.5268 170.278,-95.5479 179.1586,-101.326 180.8235,-94.5268"/>
</g>
<!-- Node4 -->
<g id="node4" class="node">
<title>Node4</title>
<g id="a_node4"><a xlink:href="classaworx_1_1lib_1_1strings_1_1boxing_1_1IApply__TncharArr.html" target="_top" xlink:title="Implementation of IApply for boxable types char[] and char*. ">
<polygon fill="#ffffff" stroke="#000000" points="236,-76.5 236,-95.5 367,-95.5 367,-76.5 236,-76.5"/>
<text text-anchor="middle" x="301.5" y="-83.5" font-family="Helvetica,sans-Serif" font-size="10.00" fill="#000000">IApply_TncharArr&lt;TChar&gt;</text>
</a>
</g>
</g>
<!-- Node0&#45;&gt;Node4 -->
<g id="edge3" class="edge">
<title>Node0&#45;&gt;Node4</title>
<path fill="none" stroke="#191970" d="M184.6176,-86C200.8125,-86 218.8772,-86 235.8692,-86"/>
<polygon fill="#191970" stroke="#191970" points="184.2753,-82.5001 174.2753,-86 184.2753,-89.5001 184.2753,-82.5001"/>
</g>
<!-- Node5 -->
<g id="node5" class="node">
<title>Node5</title>
<g id="a_node5"><a xlink:href="classaworx_1_1lib_1_1strings_1_1boxing_1_1IApply__TstrangeCharArr.html" target="_top" xlink:title="Implementation of IApply for boxable types strangeChar[] and strangeChar*. ">
<polygon fill="#ffffff" stroke="#000000" points="222,-38.5 222,-57.5 381,-57.5 381,-38.5 222,-38.5"/>
<text text-anchor="middle" x="301.5" y="-45.5" font-family="Helvetica,sans-Serif" font-size="10.00" fill="#000000">IApply_TstrangeCharArr&lt;TChar&gt;</text>
</a>
</g>
</g>
<!-- Node0&#45;&gt;Node5 -->
<g id="edge4" class="edge">
<title>Node0&#45;&gt;Node5</title>
<path fill="none" stroke="#191970" d="M180.2899,-74.0005C190.1015,-71.6167 200.373,-69.1789 210,-67 224.2416,-63.7767 239.7787,-60.4714 253.9401,-57.5403"/>
<polygon fill="#191970" stroke="#191970" points="179.1586,-70.674 170.278,-76.4521 180.8235,-77.4732 179.1586,-70.674"/>
</g>
<!-- Node6 -->
<g id="node6" class="node">
<title>Node6</title>
<g id="a_node6"><a xlink:href="classaworx_1_1lib_1_1strings_1_1boxing_1_1IApply__TwcharArr.html" target="_top" xlink:title="Implementation of IApply for boxable types wchar_t[] and wchar_t*. ">
<polygon fill="#ffffff" stroke="#000000" points="235.5,-.5 235.5,-19.5 367.5,-19.5 367.5,-.5 235.5,-.5"/>
<text text-anchor="middle" x="301.5" y="-7.5" font-family="Helvetica,sans-Serif" font-size="10.00" fill="#000000">IApply_TwcharArr&lt;TChar&gt;</text>
</a>
</g>
</g>
<!-- Node0&#45;&gt;Node6 -->
<g id="edge5" class="edge">
<title>Node0&#45;&gt;Node6</title>
<path fill="none" stroke="#191970" d="M150.4519,-69.2702C165.313,-56.3386 187.5571,-39.0074 210,-29 218.7426,-25.1017 228.3154,-21.991 237.8716,-19.512"/>
<polygon fill="#191970" stroke="#191970" points="147.7281,-67.0108 142.6093,-76.2871 152.3956,-72.2275 147.7281,-67.0108"/>
</g>
<!-- Node1 -->
<g id="node7" class="node">
<title>Node1</title>
<g id="a_node7"><a xlink:href="classaworx_1_1lib_1_1boxing_1_1Interface.html" target="_top" xlink:title="Interface">
<polygon fill="#ffffff" stroke="#000000" points="0,-76.5 0,-95.5 55,-95.5 55,-76.5 0,-76.5"/>
<text text-anchor="middle" x="27.5" y="-83.5" font-family="Helvetica,sans-Serif" font-size="10.00" fill="#000000">Interface</text>
</a>
</g>
</g>
<!-- Node1&#45;&gt;Node0 -->
<g id="edge6" class="edge">
<title>Node1&#45;&gt;Node0</title>
<path fill="none" stroke="#191970" d="M65.2549,-86C73.5633,-86 82.4079,-86 90.8598,-86"/>
<polygon fill="#191970" stroke="#191970" points="65.0875,-82.5001 55.0875,-86 65.0875,-89.5001 65.0875,-82.5001"/>
</g>
</g>
</svg>
