<?xml version="1.0" encoding="UTF-8" standalone="no"?>
<!DOCTYPE svg PUBLIC "-//W3C//DTD SVG 1.1//EN"
 "http://www.w3.org/Graphics/SVG/1.1/DTD/svg11.dtd">
<!-- Generated by graphviz version 2.40.1 (20161225.0304)
 -->
<!-- Title: MemoryLogger Pages: 1 -->
<svg width="804pt" height="495pt"
 viewBox="0.00 0.00 804.00 495.00" xmlns="http://www.w3.org/2000/svg" xmlns:xlink="http://www.w3.org/1999/xlink">
<g id="graph0" class="graph" transform="scale(1 1) rotate(0) translate(4 491)">
<title>MemoryLogger</title>
<polygon fill="#ffffff" stroke="transparent" points="-4,4 -4,-491 800,-491 800,4 -4,4"/>
<!-- Node6 -->
<g id="node1" class="node">
<title>Node6</title>
<polygon fill="#bfbfbf" stroke="#000000" points="715,-447.5 715,-466.5 796,-466.5 796,-447.5 715,-447.5"/>
<text text-anchor="middle" x="755.5" y="-454.5" font-family="Helvetica,sans-Serif" font-size="10.00" fill="#000000">MemoryLogger</text>
</g>
<!-- Node28 -->
<g id="node2" class="node">
<title>Node28</title>
<polygon fill="#ffffff" stroke="#bfbfbf" points="278.5,-241.5 278.5,-260.5 388.5,-260.5 388.5,-241.5 278.5,-241.5"/>
<text text-anchor="middle" x="333.5" y="-248.5" font-family="Helvetica,sans-Serif" font-size="10.00" fill="#000000">vector&lt;AStringBase&gt;</text>
</g>
<!-- Node8 -->
<g id="node6" class="node">
<title>Node8</title>
<g id="a_node6"><a xlink:href="classaworx_1_1lib_1_1lox_1_1core_1_1textlogger_1_1TextLogger.html" target="_top" xlink:title="TextLogger">
<polygon fill="#ffffff" stroke="#000000" points="490,-202.5 490,-221.5 555,-221.5 555,-202.5 490,-202.5"/>
<text text-anchor="middle" x="522.5" y="-209.5" font-family="Helvetica,sans-Serif" font-size="10.00" fill="#000000">TextLogger</text>
</a>
</g>
</g>
<!-- Node28&#45;&gt;Node8 -->
<g id="edge7" class="edge">
<title>Node28&#45;&gt;Node8</title>
<path fill="none" stroke="#9a32cd" stroke-dasharray="5,2" d="M398.7552,-240.4919C421.9722,-236.4182 448.2414,-231.4255 472,-226 477.7653,-224.6834 483.8586,-223.1329 489.7416,-221.552"/>
<polygon fill="#9a32cd" stroke="#9a32cd" points="397.923,-237.0838 388.6666,-242.2384 399.1171,-243.9812 397.923,-237.0838"/>
<text text-anchor="middle" x="441" y="-241" font-family="Helvetica,sans-Serif" font-size="10.00" fill="#000000"> replacements</text>
</g>
<!-- Node36 -->
<g id="node3" class="node">
<title>Node36</title>
<g id="a_node3"><a xlink:href="classaworx_1_1lib_1_1strings_1_1AStringBase.html" target="_top" xlink:title="AStringBase\&lt;character\&gt;">
<polygon fill="#ffffff" stroke="#ff0000" points="16.5,-405.5 16.5,-424.5 140.5,-424.5 140.5,-405.5 16.5,-405.5"/>
<text text-anchor="middle" x="78.5" y="-412.5" font-family="Helvetica,sans-Serif" font-size="10.00" fill="#000000">AStringBase&lt;character&gt;</text>
</a>
</g>
</g>
<!-- Node36&#45;&gt;Node6 -->
<g id="edge11" class="edge">
<title>Node36&#45;&gt;Node6</title>
<path fill="none" stroke="#9a32cd" stroke-dasharray="5,2" d="M111.5154,-428.161C159.5555,-446.0933 251.9056,-476 333.5,-476 333.5,-476 333.5,-476 635,-476 662.0027,-476 691.9983,-471.287 715.3075,-466.5557"/>
<polygon fill="#9a32cd" stroke="#9a32cd" points="112.5478,-424.8092 101.9566,-424.5313 110.0628,-431.3533 112.5478,-424.8092"/>
<text text-anchor="middle" x="522.5" y="-479" font-family="Helvetica,sans-Serif" font-size="10.00" fill="#000000"> MemoryLog</text>
</g>
<!-- Node36&#45;&gt;Node8 -->
<g id="edge12" class="edge">
<title>Node36&#45;&gt;Node8</title>
<path fill="none" stroke="#9a32cd" stroke-dasharray="5,2" d="M150.7297,-415.8785C183.6847,-414.6252 222.8802,-410.784 257,-401 360.5696,-371.3009 392.0932,-361.2745 472,-289 494.0527,-269.0537 510.7187,-237.4441 518.184,-221.6489"/>
<polygon fill="#9a32cd" stroke="#9a32cd" points="150.6023,-412.3807 140.7152,-416.1881 150.8186,-419.3773 150.6023,-412.3807"/>
<text text-anchor="middle" x="333.5" y="-420" font-family="Helvetica,sans-Serif" font-size="10.00" fill="#000000"> logBuf</text>
<text text-anchor="middle" x="333.5" y="-409" font-family="Helvetica,sans-Serif" font-size="10.00" fill="#000000">MultiLineDelimiter</text>
<text text-anchor="middle" x="333.5" y="-398" font-family="Helvetica,sans-Serif" font-size="10.00" fill="#000000">msgBuf</text>
</g>
<!-- Node33 -->
<g id="node8" class="node">
<title>Node33</title>
<g id="a_node8"><a xlink:href="classaworx_1_1lib_1_1lox_1_1core_1_1textlogger_1_1MetaInfo.html" target="_top" xlink:title="MetaInfo">
<polygon fill="#ffffff" stroke="#ff0000" points="306,-279.5 306,-298.5 361,-298.5 361,-279.5 306,-279.5"/>
<text text-anchor="middle" x="333.5" y="-286.5" font-family="Helvetica,sans-Serif" font-size="10.00" fill="#000000">MetaInfo</text>
</a>
</g>
</g>
<!-- Node36&#45;&gt;Node33 -->
<g id="edge13" class="edge">
<title>Node36&#45;&gt;Node33</title>
<path fill="none" stroke="#9a32cd" stroke-dasharray="5,2" d="M124.7953,-402.8677C176.6991,-389.2191 254.0637,-368.7161 257,-367 287.9504,-348.9113 314.8976,-315.0171 326.8828,-298.5146"/>
<polygon fill="#9a32cd" stroke="#9a32cd" points="123.886,-399.4877 115.1039,-405.4143 125.6651,-406.2579 123.886,-399.4877"/>
<text text-anchor="middle" x="216" y="-392" font-family="Helvetica,sans-Serif" font-size="10.00" fill="#000000"> Format</text>
</g>
<!-- Node14 -->
<g id="node4" class="node">
<title>Node14</title>
<g id="a_node4"><a xlink:href="classaworx_1_1lib_1_1strings_1_1PreallocatedStringBase.html" target="_top" xlink:title="PreallocatedStringBase\&lt;TChar\&gt;">
<polygon fill="#ffffff" stroke="#ff0000" points="0,-202.5 0,-221.5 157,-221.5 157,-202.5 0,-202.5"/>
<text text-anchor="middle" x="78.5" y="-209.5" font-family="Helvetica,sans-Serif" font-size="10.00" fill="#000000">PreallocatedStringBase&lt;TChar&gt;</text>
</a>
</g>
</g>
<!-- Node14&#45;&gt;Node8 -->
<g id="edge4" class="edge">
<title>Node14&#45;&gt;Node8</title>
<path fill="none" stroke="#9a32cd" stroke-dasharray="5,2" d="M167.1485,-212C266.5728,-212 422.691,-212 489.9205,-212"/>
<polygon fill="#9a32cd" stroke="#9a32cd" points="167.1113,-208.5001 157.1113,-212 167.1113,-215.5001 167.1113,-208.5001"/>
<text text-anchor="middle" x="333.5" y="-215" font-family="Helvetica,sans-Serif" font-size="10.00" fill="#000000"> FmtMultiLineMsgHeadline</text>
</g>
<!-- Node14&#45;&gt;Node8 -->
<g id="edge5" class="edge">
<title>Node14&#45;&gt;Node8</title>
<path fill="none" stroke="#9a32cd" stroke-dasharray="5,2" d="M113.5327,-199.1185C171.5691,-179.4628 291.2579,-146.0602 392,-164 433.1158,-171.3217 478.2578,-190.6683 503.2076,-202.4438"/>
<polygon fill="#9a32cd" stroke="#9a32cd" points="112.0705,-195.9207 103.7631,-202.4962 114.3579,-202.5364 112.0705,-195.9207"/>
<text text-anchor="middle" x="333.5" y="-200" font-family="Helvetica,sans-Serif" font-size="10.00" fill="#000000"> FmtMsgSuffix</text>
<text text-anchor="middle" x="333.5" y="-189" font-family="Helvetica,sans-Serif" font-size="10.00" fill="#000000">MultiLineDelimiterRepl</text>
<text text-anchor="middle" x="333.5" y="-178" font-family="Helvetica,sans-Serif" font-size="10.00" fill="#000000">FmtMultiLineSuffix</text>
<text text-anchor="middle" x="333.5" y="-167" font-family="Helvetica,sans-Serif" font-size="10.00" fill="#000000">FmtMultiLinePrefix</text>
</g>
<!-- Node14&#45;&gt;Node33 -->
<g id="edge6" class="edge">
<title>Node14&#45;&gt;Node33</title>
<path fill="none" stroke="#9a32cd" stroke-dasharray="5,2" d="M167.5668,-222.8859C204.2121,-228.6018 241.6479,-236.4229 257,-246 268.3126,-253.0571 264.1535,-262.2456 275,-270 284.1212,-276.5209 295.6015,-280.889 305.9713,-283.7732"/>
<polygon fill="#9a32cd" stroke="#9a32cd" points="167.6817,-219.3636 157.271,-221.3299 166.6356,-226.285 167.6817,-219.3636"/>
<text text-anchor="middle" x="216" y="-359" font-family="Helvetica,sans-Serif" font-size="10.00" fill="#000000"> TimeDiffHours</text>
<text text-anchor="middle" x="216" y="-348" font-family="Helvetica,sans-Serif" font-size="10.00" fill="#000000">VerbosityInfo</text>
<text text-anchor="middle" x="216" y="-337" font-family="Helvetica,sans-Serif" font-size="10.00" fill="#000000">VerbosityWarning</text>
<text text-anchor="middle" x="216" y="-326" font-family="Helvetica,sans-Serif" font-size="10.00" fill="#000000">VerbosityVerbose</text>
<text text-anchor="middle" x="216" y="-315" font-family="Helvetica,sans-Serif" font-size="10.00" fill="#000000">TimeDiffMicros</text>
<text text-anchor="middle" x="216" y="-304" font-family="Helvetica,sans-Serif" font-size="10.00" fill="#000000">TimeElapsedDays</text>
<text text-anchor="middle" x="216" y="-293" font-family="Helvetica,sans-Serif" font-size="10.00" fill="#000000">VerbosityError</text>
<text text-anchor="middle" x="216" y="-282" font-family="Helvetica,sans-Serif" font-size="10.00" fill="#000000">TimeOfDayFormat</text>
<text text-anchor="middle" x="216" y="-271" font-family="Helvetica,sans-Serif" font-size="10.00" fill="#000000">TimeDiffMins</text>
<text text-anchor="middle" x="216" y="-260" font-family="Helvetica,sans-Serif" font-size="10.00" fill="#000000">TimeDiffSecs</text>
<text text-anchor="middle" x="216" y="-249" font-family="Helvetica,sans-Serif" font-size="10.00" fill="#000000">...</text>
</g>
<!-- Node7 -->
<g id="node5" class="node">
<title>Node7</title>
<g id="a_node5"><a xlink:href="classaworx_1_1lib_1_1lox_1_1core_1_1textlogger_1_1PlainTextLogger.html" target="_top" xlink:title="PlainTextLogger">
<polygon fill="#ffffff" stroke="#000000" points="592,-372.5 592,-391.5 678,-391.5 678,-372.5 592,-372.5"/>
<text text-anchor="middle" x="635" y="-379.5" font-family="Helvetica,sans-Serif" font-size="10.00" fill="#000000">PlainTextLogger</text>
</a>
</g>
</g>
<!-- Node7&#45;&gt;Node6 -->
<g id="edge1" class="edge">
<title>Node7&#45;&gt;Node6</title>
<path fill="none" stroke="#191970" d="M659.3537,-397.1579C683.4913,-412.1813 719.7263,-434.7342 740.1239,-447.4298"/>
<polygon fill="#191970" stroke="#191970" points="661.0926,-394.1177 650.7533,-391.8049 657.3937,-400.0606 661.0926,-394.1177"/>
</g>
<!-- Node8&#45;&gt;Node7 -->
<g id="edge2" class="edge">
<title>Node8&#45;&gt;Node7</title>
<path fill="none" stroke="#191970" d="M534.517,-230.159C558.2952,-266.0906 610.61,-345.1439 628.699,-372.4786"/>
<polygon fill="#191970" stroke="#191970" points="537.3083,-228.0348 528.8708,-221.627 531.4708,-231.8979 537.3083,-228.0348"/>
</g>
<!-- Node9 -->
<g id="node7" class="node">
<title>Node9</title>
<g id="a_node7"><a xlink:href="classaworx_1_1lib_1_1lox_1_1core_1_1Logger.html" target="_top" xlink:title="Logger">
<polygon fill="#ffffff" stroke="#ff0000" points="310.5,-76.5 310.5,-95.5 356.5,-95.5 356.5,-76.5 310.5,-76.5"/>
<text text-anchor="middle" x="333.5" y="-83.5" font-family="Helvetica,sans-Serif" font-size="10.00" fill="#000000">Logger</text>
</a>
</g>
</g>
<!-- Node9&#45;&gt;Node8 -->
<g id="edge3" class="edge">
<title>Node9&#45;&gt;Node8</title>
<path fill="none" stroke="#191970" d="M366.5912,-86.146C396.8718,-87.8873 441.4776,-94.6793 472,-118 500.7049,-139.932 514.9805,-182.9922 520.154,-202.2679"/>
<polygon fill="#191970" stroke="#191970" points="366.663,-82.646 356.5245,-85.7219 366.3683,-89.6398 366.663,-82.646"/>
</g>
<!-- Node33&#45;&gt;Node8 -->
<g id="edge10" class="edge">
<title>Node33&#45;&gt;Node8</title>
<path fill="none" stroke="#9a32cd" stroke-dasharray="5,2" d="M371.0661,-283.7037C399.8397,-278.6096 439.9122,-269.2238 472,-253 488.125,-244.8471 503.8203,-230.8697 513.3242,-221.5332"/>
<polygon fill="#9a32cd" stroke="#9a32cd" points="370.295,-280.2841 361.0123,-285.391 371.4537,-287.1875 370.295,-280.2841"/>
<text text-anchor="middle" x="441" y="-277" font-family="Helvetica,sans-Serif" font-size="10.00" fill="#000000"> MetaInfo</text>
</g>
<!-- Node30 -->
<g id="node9" class="node">
<title>Node30</title>
<g id="a_node9"><a xlink:href="classaworx_1_1lib_1_1strings_1_1util_1_1AutoSizes.html" target="_top" xlink:title="AutoSizes">
<polygon fill="#ffffff" stroke="#ff0000" points="302.5,-38.5 302.5,-57.5 364.5,-57.5 364.5,-38.5 302.5,-38.5"/>
<text text-anchor="middle" x="333.5" y="-45.5" font-family="Helvetica,sans-Serif" font-size="10.00" fill="#000000">AutoSizes</text>
</a>
</g>
</g>
<!-- Node30&#45;&gt;Node8 -->
<g id="edge8" class="edge">
<title>Node30&#45;&gt;Node8</title>
<path fill="none" stroke="#9a32cd" stroke-dasharray="5,2" d="M374.9762,-46.5808C405.1871,-47.7334 445.3266,-54.091 472,-77 511.1053,-110.5864 519.9754,-177.5351 521.9485,-202.4058"/>
<polygon fill="#9a32cd" stroke="#9a32cd" points="374.8122,-43.0768 364.7427,-46.3716 374.669,-50.0753 374.8122,-43.0768"/>
<text text-anchor="middle" x="441" y="-80" font-family="Helvetica,sans-Serif" font-size="10.00" fill="#000000"> AutoSizes</text>
</g>
<!-- Node32 -->
<g id="node10" class="node">
<title>Node32</title>
<g id="a_node10"><a xlink:href="classaworx_1_1lib_1_1lox_1_1core_1_1textlogger_1_1ObjectConverter.html" target="_top" xlink:title="ObjectConverter">
<polygon fill="#ffffff" stroke="#000000" points="289.5,-.5 289.5,-19.5 377.5,-19.5 377.5,-.5 289.5,-.5"/>
<text text-anchor="middle" x="333.5" y="-7.5" font-family="Helvetica,sans-Serif" font-size="10.00" fill="#000000">ObjectConverter</text>
</a>
</g>
</g>
<!-- Node32&#45;&gt;Node8 -->
<g id="edge9" class="edge">
<title>Node32&#45;&gt;Node8</title>
<path fill="none" stroke="#9a32cd" stroke-dasharray="5,2" d="M387.9565,-7.7637C416.2671,-9.4874 449.5481,-16.4502 472,-37 497.1922,-60.058 515.8242,-168.7906 521.0317,-202.2066"/>
<polygon fill="#9a32cd" stroke="#9a32cd" points="387.9143,-4.2592 377.7804,-7.3503 387.6301,-11.2534 387.9143,-4.2592"/>
<text text-anchor="middle" x="441" y="-40" font-family="Helvetica,sans-Serif" font-size="10.00" fill="#000000"> Converter</text>
</g>
</g>
</svg>
