<?xml version="1.0" encoding="UTF-8" standalone="no"?>
<!DOCTYPE svg PUBLIC "-//W3C//DTD SVG 1.1//EN"
 "http://www.w3.org/Graphics/SVG/1.1/DTD/svg11.dtd">
<!-- Generated by graphviz version 2.40.1 (20161225.0304)
 -->
<!-- Title: ScopeStore&lt;StoreT&gt; Pages: 1 -->
<svg width="1169pt" height="532pt"
 viewBox="0.00 0.00 1169.00 532.00" xmlns="http://www.w3.org/2000/svg" xmlns:xlink="http://www.w3.org/1999/xlink">
<g id="graph0" class="graph" transform="scale(1 1) rotate(0) translate(4 528)">
<title>ScopeStore&lt;StoreT&gt;</title>
<polygon fill="#ffffff" stroke="transparent" points="-4,4 -4,-528 1165,-528 1165,4 -4,4"/>
<!-- Node2 -->
<g id="node1" class="node">
<title>Node2</title>
<polygon fill="#ffffff" stroke="#bfbfbf" points="799,-451.5 799,-470.5 931,-470.5 931,-451.5 799,-451.5"/>
<text text-anchor="middle" x="865" y="-458.5" font-family="Helvetica,sans-Serif" font-size="10.00" fill="#000000">map&lt;int, vector&lt;StoreT&gt;&gt;</text>
</g>
<!-- Node1 -->
<g id="node7" class="node">
<title>Node1</title>
<polygon fill="#bfbfbf" stroke="#000000" points="1052,-393.5 1052,-412.5 1161,-412.5 1161,-393.5 1052,-393.5"/>
<text text-anchor="middle" x="1106.5" y="-400.5" font-family="Helvetica,sans-Serif" font-size="10.00" fill="#000000">ScopeStore&lt;StoreT&gt;</text>
</g>
<!-- Node2&#45;&gt;Node1 -->
<g id="edge1" class="edge">
<title>Node2&#45;&gt;Node1</title>
<path fill="none" stroke="#9a32cd" stroke-dasharray="5,2" d="M941.5706,-455.0007C970.8988,-451.4421 1004.4046,-445.8249 1034,-437 1053.9838,-431.0411 1075.4399,-420.3923 1089.7822,-412.5954"/>
<polygon fill="#9a32cd" stroke="#9a32cd" points="940.9176,-451.5527 931.3844,-456.1755 941.7196,-458.5066 940.9176,-451.5527"/>
<text text-anchor="middle" x="991.5" y="-467" font-family="Helvetica,sans-Serif" font-size="10.00" fill="#000000"> threadInnerStore</text>
<text text-anchor="middle" x="991.5" y="-456" font-family="Helvetica,sans-Serif" font-size="10.00" fill="#000000">threadOuterStore</text>
</g>
<!-- Node3 -->
<g id="node2" class="node">
<title>Node3</title>
<polygon fill="#ffffff" stroke="#bfbfbf" points="525,-458.5 525,-477.5 610,-477.5 610,-458.5 525,-458.5"/>
<text text-anchor="middle" x="567.5" y="-465.5" font-family="Helvetica,sans-Serif" font-size="10.00" fill="#000000">vector&lt;StoreT&gt;</text>
</g>
<!-- Node3&#45;&gt;Node2 -->
<g id="edge3" class="edge">
<title>Node3&#45;&gt;Node2</title>
<path fill="none" stroke="#9a32cd" stroke-dasharray="5,2" d="M620.3641,-466.7561C670.2078,-465.5833 745.0838,-463.8216 798.8626,-462.5562"/>
<polygon fill="#9a32cd" stroke="#9a32cd" points="620.0394,-463.2627 610.1245,-466.9971 620.2041,-470.2608 620.0394,-463.2627"/>
<text text-anchor="middle" x="743" y="-467" font-family="Helvetica,sans-Serif" font-size="10.00" fill="#000000"> elements</text>
</g>
<!-- Node3&#45;&gt;Node1 -->
<g id="edge2" class="edge">
<title>Node3&#45;&gt;Node1</title>
<path fill="none" stroke="#9a32cd" stroke-dasharray="5,2" d="M609.2494,-480.1791C693.6442,-502.4554 888.8465,-541.9736 1034,-479 1065.9518,-465.138 1090.5831,-429.6549 1101.0313,-412.5297"/>
<polygon fill="#9a32cd" stroke="#9a32cd" points="610.0838,-476.7792 599.5175,-477.556 608.262,-483.538 610.0838,-476.7792"/>
<text text-anchor="middle" x="865" y="-516" font-family="Helvetica,sans-Serif" font-size="10.00" fill="#000000"> walkThreadValues</text>
</g>
<!-- Node7 -->
<g id="node3" class="node">
<title>Node7</title>
<g id="a_node3"><a xlink:title="STL class. ">
<polygon fill="#ffffff" stroke="#bfbfbf" points="237.5,-105.5 237.5,-124.5 303.5,-124.5 303.5,-105.5 237.5,-105.5"/>
<text text-anchor="middle" x="270.5" y="-112.5" font-family="Helvetica,sans-Serif" font-size="10.00" fill="#000000">map&lt;K, T&gt;</text>
</a>
</g>
</g>
<!-- Node5 -->
<g id="node12" class="node">
<title>Node5</title>
<g id="a_node12"><a xlink:href="classaworx_1_1lib_1_1lox_1_1core_1_1ScopeInfo.html" target="_top" xlink:title="ScopeInfo">
<polygon fill="#ffffff" stroke="#000000" points="834.5,-280.5 834.5,-299.5 895.5,-299.5 895.5,-280.5 834.5,-280.5"/>
<text text-anchor="middle" x="865" y="-287.5" font-family="Helvetica,sans-Serif" font-size="10.00" fill="#000000">ScopeInfo</text>
</a>
</g>
</g>
<!-- Node7&#45;&gt;Node5 -->
<g id="edge8" class="edge">
<title>Node7&#45;&gt;Node5</title>
<path fill="none" stroke="#9a32cd" stroke-dasharray="5,2" d="M313.6047,-109.3192C407.6016,-99.2825 634.3227,-88.0969 781,-189 818.016,-214.4642 847.805,-260.5474 859.5698,-280.4364"/>
<polygon fill="#9a32cd" stroke="#9a32cd" points="313.1536,-105.8477 303.6044,-110.4371 313.9314,-112.8044 313.1536,-105.8477"/>
<text text-anchor="middle" x="567.5" y="-143" font-family="Helvetica,sans-Serif" font-size="10.00" fill="#000000"> threadDictionary</text>
</g>
<!-- Node10 -->
<g id="node4" class="node">
<title>Node10</title>
<polygon fill="#ffffff" stroke="#bfbfbf" points="479,-376.5 479,-395.5 656,-395.5 656,-376.5 479,-376.5"/>
<text text-anchor="middle" x="567.5" y="-383.5" font-family="Helvetica,sans-Serif" font-size="10.00" fill="#000000">vector&lt;lox::core::ScopeInfo::Scope&gt;</text>
</g>
<!-- Node10&#45;&gt;Node5 -->
<g id="edge12" class="edge">
<title>Node10&#45;&gt;Node5</title>
<path fill="none" stroke="#9a32cd" stroke-dasharray="5,2" d="M666.5341,-386.3343C703.6837,-383.4271 745.4784,-376.4027 781,-361 813.7602,-346.7947 843.4809,-315.458 857.1223,-299.5975"/>
<polygon fill="#9a32cd" stroke="#9a32cd" points="665.9234,-382.868 656.1883,-387.0486 666.4056,-389.8514 665.9234,-382.868"/>
<text text-anchor="middle" x="743" y="-384" font-family="Helvetica,sans-Serif" font-size="10.00" fill="#000000"> scopes</text>
</g>
<!-- Node17 -->
<g id="node5" class="node">
<title>Node17</title>
<polygon fill="#ffffff" stroke="#bfbfbf" points="448,-338.5 448,-357.5 687,-357.5 687,-338.5 448,-338.5"/>
<text text-anchor="middle" x="567.5" y="-345.5" font-family="Helvetica,sans-Serif" font-size="10.00" fill="#000000">vector&lt;lox::core::ScopeInfo::SourcePathTrimRule&gt;</text>
</g>
<!-- Node17&#45;&gt;Node5 -->
<g id="edge16" class="edge">
<title>Node17&#45;&gt;Node5</title>
<path fill="none" stroke="#9a32cd" stroke-dasharray="5,2" d="M691.1122,-337.2174C720.7932,-333.2979 752.2241,-328.0318 781,-321 802.7446,-315.6864 826.6047,-306.542 843.3201,-299.5577"/>
<polygon fill="#9a32cd" stroke="#9a32cd" points="690.5949,-333.755 681.1199,-338.4956 691.4832,-340.6984 690.5949,-333.755"/>
<text text-anchor="middle" x="743" y="-349" font-family="Helvetica,sans-Serif" font-size="10.00" fill="#000000"> GlobalSPTRs</text>
<text text-anchor="middle" x="743" y="-338" font-family="Helvetica,sans-Serif" font-size="10.00" fill="#000000">LocalSPTRs</text>
</g>
<!-- Node32 -->
<g id="node6" class="node">
<title>Node32</title>
<g id="a_node6"><a xlink:href="classaworx_1_1lib_1_1util_1_1StringTree.html" target="_top" xlink:title="StringTree\&lt;T, TAllocator, TSeparator\&gt;">
<polygon fill="#ffffff" stroke="#000000" points="477,-41.5 477,-60.5 658,-60.5 658,-41.5 477,-41.5"/>
<text text-anchor="middle" x="567.5" y="-48.5" font-family="Helvetica,sans-Serif" font-size="10.00" fill="#000000">StringTree&lt;T, TAllocator, TSeparator&gt;</text>
</a>
</g>
</g>
<!-- Node32&#45;&gt;Node1 -->
<g id="edge29" class="edge">
<title>Node32&#45;&gt;Node1</title>
<path fill="none" stroke="#9a32cd" stroke-dasharray="5,2" d="M602.3,-64.2032C626.2921,-73.4943 658.8119,-86.4618 687,-99 855.1625,-173.7994 895.6503,-203.6207 1034,-325 1059.5714,-347.4347 1085.8375,-377.9145 1098.5895,-393.2847"/>
<polygon fill="#9a32cd" stroke="#9a32cd" points="603.4923,-60.9118 592.9026,-60.5829 600.9759,-67.4439 603.4923,-60.9118"/>
<text text-anchor="middle" x="865" y="-239" font-family="Helvetica,sans-Serif" font-size="10.00" fill="#000000"> languageStore</text>
</g>
<!-- Node30 -->
<g id="node22" class="node">
<title>Node30</title>
<g id="a_node22"><a xlink:href="classaworx_1_1lib_1_1util_1_1StringTree_1_1Cursor.html" target="_top" xlink:title="Cursor">
<polygon fill="#ffffff" stroke="#000000" points="842,-38.5 842,-57.5 888,-57.5 888,-38.5 842,-38.5"/>
<text text-anchor="middle" x="865" y="-45.5" font-family="Helvetica,sans-Serif" font-size="10.00" fill="#000000">Cursor</text>
</a>
</g>
</g>
<!-- Node32&#45;&gt;Node30 -->
<g id="edge30" class="edge">
<title>Node32&#45;&gt;Node30</title>
<path fill="none" stroke="#9a32cd" stroke-dasharray="5,2" d="M668.6191,-49.9803C730.6892,-49.3544 805.1299,-48.6037 841.9881,-48.2321"/>
<polygon fill="#9a32cd" stroke="#9a32cd" points="668.3405,-46.4828 658.3763,-50.0836 668.4111,-53.4825 668.3405,-46.4828"/>
<text text-anchor="middle" x="743" y="-52" font-family="Helvetica,sans-Serif" font-size="10.00" fill="#000000"> stringTree</text>
</g>
<!-- Node6 -->
<g id="node8" class="node">
<title>Node6</title>
<g id="a_node8"><a xlink:href="classaworx_1_1lib_1_1strings_1_1StringBase.html" target="_top" xlink:title="StringBase\&lt;character\&gt;">
<polygon fill="#ffffff" stroke="#000000" points="509,-215.5 509,-234.5 626,-234.5 626,-215.5 509,-215.5"/>
<text text-anchor="middle" x="567.5" y="-222.5" font-family="Helvetica,sans-Serif" font-size="10.00" fill="#000000">StringBase&lt;character&gt;</text>
</a>
</g>
</g>
<!-- Node6&#45;&gt;Node5 -->
<g id="edge7" class="edge">
<title>Node6&#45;&gt;Node5</title>
<path fill="none" stroke="#9a32cd" stroke-dasharray="5,2" d="M636.4343,-225.1173C678.8995,-226.8127 734.0201,-231.9663 781,-246 807.1851,-253.8219 834.731,-270.0005 850.8628,-280.4093"/>
<polygon fill="#9a32cd" stroke="#9a32cd" points="636.3144,-221.6112 626.2,-224.7654 636.0738,-228.607 636.3144,-221.6112"/>
<text text-anchor="middle" x="743" y="-249" font-family="Helvetica,sans-Serif" font-size="10.00" fill="#000000"> threadName</text>
</g>
<!-- Node20 -->
<g id="node9" class="node">
<title>Node20</title>
<g id="a_node9"><a xlink:href="classaworx_1_1lib_1_1strings_1_1PreallocatedStringBase.html" target="_top" xlink:title="PreallocatedStringBase\&lt;TChar\&gt;">
<polygon fill="#ffffff" stroke="#000000" points="192,-251.5 192,-270.5 349,-270.5 349,-251.5 192,-251.5"/>
<text text-anchor="middle" x="270.5" y="-258.5" font-family="Helvetica,sans-Serif" font-size="10.00" fill="#000000">PreallocatedStringBase&lt;TChar&gt;</text>
</a>
</g>
</g>
<!-- Node20&#45;&gt;Node5 -->
<g id="edge18" class="edge">
<title>Node20&#45;&gt;Node5</title>
<path fill="none" stroke="#9a32cd" stroke-dasharray="5,2" d="M359.5052,-265.3417C495.2465,-271.9632 747.4182,-284.2643 834.4959,-288.512"/>
<polygon fill="#9a32cd" stroke="#9a32cd" points="359.2969,-261.8275 349.1382,-264.836 358.9557,-268.8192 359.2969,-261.8275"/>
<text text-anchor="middle" x="567.5" y="-284" font-family="Helvetica,sans-Serif" font-size="10.00" fill="#000000"> loxName</text>
</g>
<!-- Node25 -->
<g id="node19" class="node">
<title>Node25</title>
<g id="a_node19"><a xlink:href="classaworx_1_1lib_1_1threads_1_1Thread.html" target="_top" xlink:title="Thread">
<polygon fill="#ffffff" stroke="#000000" points="544,-177.5 544,-196.5 591,-196.5 591,-177.5 544,-177.5"/>
<text text-anchor="middle" x="567.5" y="-184.5" font-family="Helvetica,sans-Serif" font-size="10.00" fill="#000000">Thread</text>
</a>
</g>
</g>
<!-- Node20&#45;&gt;Node25 -->
<g id="edge19" class="edge">
<title>Node20&#45;&gt;Node25</title>
<path fill="none" stroke="#9a32cd" stroke-dasharray="5,2" d="M314.9634,-248.634C347.1248,-239.4436 391.5114,-226.2524 430,-213 438.116,-210.2055 439.7144,-208.2422 448,-206 480.6472,-197.1652 519.4953,-191.928 543.8321,-189.2576"/>
<polygon fill="#9a32cd" stroke="#9a32cd" points="313.6366,-245.3724 304.974,-251.4724 315.5498,-252.1059 313.6366,-245.3724"/>
<text text-anchor="middle" x="398.5" y="-235" font-family="Helvetica,sans-Serif" font-size="10.00" fill="#000000"> name</text>
</g>
<!-- Node21 -->
<g id="node10" class="node">
<title>Node21</title>
<g id="a_node10"><a xlink:href="classaworx_1_1lib_1_1strings_1_1AStringBase.html" target="_top" xlink:title="AStringBase\&lt;nchar\&gt;">
<polygon fill="#ffffff" stroke="#ff0000" points="0,-251.5 0,-270.5 107,-270.5 107,-251.5 0,-251.5"/>
<text text-anchor="middle" x="53.5" y="-258.5" font-family="Helvetica,sans-Serif" font-size="10.00" fill="#000000">AStringBase&lt;nchar&gt;</text>
</a>
</g>
</g>
<!-- Node21&#45;&gt;Node20 -->
<g id="edge20" class="edge">
<title>Node21&#45;&gt;Node20</title>
<path fill="none" stroke="#191970" d="M117.2484,-261C140.5513,-261 167.1935,-261 191.6569,-261"/>
<polygon fill="#191970" stroke="#191970" points="117.1405,-257.5001 107.1405,-261 117.1404,-264.5001 117.1405,-257.5001"/>
</g>
<!-- Node4 -->
<g id="node11" class="node">
<title>Node4</title>
<polygon fill="#ffffff" stroke="#bfbfbf" points="247.5,-437.5 247.5,-456.5 293.5,-456.5 293.5,-437.5 247.5,-437.5"/>
<text text-anchor="middle" x="270.5" y="-444.5" font-family="Helvetica,sans-Serif" font-size="10.00" fill="#000000">StoreT</text>
</g>
<!-- Node4&#45;&gt;Node3 -->
<g id="edge5" class="edge">
<title>Node4&#45;&gt;Node3</title>
<path fill="none" stroke="#9a32cd" stroke-dasharray="5,2" d="M303.9151,-449.3627C358.1375,-453.1966 465.2146,-460.7677 524.8533,-464.9846"/>
<polygon fill="#9a32cd" stroke="#9a32cd" points="304.0271,-445.862 293.8051,-448.6478 303.5333,-452.8445 304.0271,-445.862"/>
<text text-anchor="middle" x="398.5" y="-461" font-family="Helvetica,sans-Serif" font-size="10.00" fill="#000000"> elements</text>
</g>
<!-- Node4&#45;&gt;Node1 -->
<g id="edge4" class="edge">
<title>Node4&#45;&gt;Node1</title>
<path fill="none" stroke="#9a32cd" stroke-dasharray="5,2" d="M304.0917,-445.232C432.4212,-438.4778 892.488,-414.2638 1051.7643,-405.8808"/>
<polygon fill="#9a32cd" stroke="#9a32cd" points="303.5342,-441.7564 293.732,-445.7773 303.9021,-448.7467 303.5342,-441.7564"/>
<text text-anchor="middle" x="743" y="-437" font-family="Helvetica,sans-Serif" font-size="10.00" fill="#000000"> walkLocalObject</text>
<text text-anchor="middle" x="743" y="-426" font-family="Helvetica,sans-Serif" font-size="10.00" fill="#000000">globalStore</text>
</g>
<!-- Node5&#45;&gt;Node1 -->
<g id="edge6" class="edge">
<title>Node5&#45;&gt;Node1</title>
<path fill="none" stroke="#9a32cd" stroke-dasharray="5,2" d="M894.8586,-303.9711C944.6139,-327.252 1043.2329,-373.3967 1085.962,-393.3901"/>
<polygon fill="#9a32cd" stroke="#9a32cd" points="896.131,-300.7023 885.5902,-299.6343 893.1643,-307.0426 896.131,-300.7023"/>
<text text-anchor="middle" x="991.5" y="-369" font-family="Helvetica,sans-Serif" font-size="10.00" fill="#000000"> scopeInfo</text>
</g>
<!-- Node8 -->
<g id="node13" class="node">
<title>Node8</title>
<polygon fill="#ffffff" stroke="#bfbfbf" points="39,-105.5 39,-124.5 68,-124.5 68,-105.5 39,-105.5"/>
<text text-anchor="middle" x="53.5" y="-112.5" font-family="Helvetica,sans-Serif" font-size="10.00" fill="#000000">K</text>
</g>
<!-- Node8&#45;&gt;Node7 -->
<g id="edge9" class="edge">
<title>Node8&#45;&gt;Node7</title>
<path fill="none" stroke="#9a32cd" stroke-dasharray="5,2" d="M78.3009,-115C117.4577,-115 193.6402,-115 237.4151,-115"/>
<polygon fill="#9a32cd" stroke="#9a32cd" points="78.075,-111.5001 68.0749,-115 78.0749,-118.5001 78.075,-111.5001"/>
<text text-anchor="middle" x="149.5" y="-118" font-family="Helvetica,sans-Serif" font-size="10.00" fill="#000000"> keys</text>
</g>
<!-- Node9 -->
<g id="node14" class="node">
<title>Node9</title>
<polygon fill="#ffffff" stroke="#bfbfbf" points="39,-52.5 39,-71.5 68,-71.5 68,-52.5 39,-52.5"/>
<text text-anchor="middle" x="53.5" y="-59.5" font-family="Helvetica,sans-Serif" font-size="10.00" fill="#000000">T</text>
</g>
<!-- Node9&#45;&gt;Node7 -->
<g id="edge10" class="edge">
<title>Node9&#45;&gt;Node7</title>
<path fill="none" stroke="#9a32cd" stroke-dasharray="5,2" d="M78.0278,-68.0468C105.7058,-74.8643 152.0767,-86.2682 192,-96 206.8492,-99.6197 223.2846,-103.6015 237.2634,-106.9808"/>
<polygon fill="#9a32cd" stroke="#9a32cd" points="78.5995,-64.5831 68.0525,-65.589 76.9248,-71.3798 78.5995,-64.5831"/>
<text text-anchor="middle" x="149.5" y="-94" font-family="Helvetica,sans-Serif" font-size="10.00" fill="#000000"> elements</text>
</g>
<!-- Node31 -->
<g id="node15" class="node">
<title>Node31</title>
<g id="a_node15"><a xlink:href="classaworx_1_1lib_1_1util_1_1StringTree_1_1Node.html" target="_top" xlink:title="Node">
<polygon fill="#ffffff" stroke="#000000" points="250.5,-.5 250.5,-19.5 290.5,-19.5 290.5,-.5 250.5,-.5"/>
<text text-anchor="middle" x="270.5" y="-7.5" font-family="Helvetica,sans-Serif" font-size="10.00" fill="#000000">Node</text>
</a>
</g>
</g>
<!-- Node9&#45;&gt;Node31 -->
<g id="edge11" class="edge">
<title>Node9&#45;&gt;Node31</title>
<path fill="none" stroke="#9a32cd" stroke-dasharray="5,2" d="M77.8157,-53.4137C91.554,-48.756 109.109,-43.1251 125,-39 169.1278,-27.5451 221.7904,-18.0669 250.0907,-13.308"/>
<polygon fill="#9a32cd" stroke="#9a32cd" points="76.4597,-50.1789 68.1447,-56.7447 78.7394,-56.7973 76.4597,-50.1789"/>
<text text-anchor="middle" x="149.5" y="-42" font-family="Helvetica,sans-Serif" font-size="10.00" fill="#000000"> value</text>
</g>
<!-- Node31&#45;&gt;Node32 -->
<g id="edge28" class="edge">
<title>Node31&#45;&gt;Node32</title>
<path fill="none" stroke="#9a32cd" stroke-dasharray="5,2" d="M300.6922,-14.8935C319.7025,-17.925 344.7651,-21.8308 367,-25 407.6566,-30.795 453.0305,-36.7238 490.3175,-41.4537"/>
<polygon fill="#9a32cd" stroke="#9a32cd" points="301.2379,-11.4364 290.81,-13.3096 300.13,-18.3482 301.2379,-11.4364"/>
<text text-anchor="middle" x="398.5" y="-36" font-family="Helvetica,sans-Serif" font-size="10.00" fill="#000000"> root</text>
</g>
<!-- Node31&#45;&gt;Node31 -->
<g id="edge27" class="edge">
<title>Node31&#45;&gt;Node31</title>
<path fill="none" stroke="#9a32cd" stroke-dasharray="5,2" d="M248.1787,-29.0292C249.3962,-34.128 256.8367,-38 270.5,-38 291.8281,-38 297.9933,-28.5653 288.9955,-19.7571"/>
<polygon fill="#9a32cd" stroke="#9a32cd" points="251.4256,-30.3361 252.0045,-19.7571 244.9548,-27.6661 251.4256,-30.3361"/>
<text text-anchor="middle" x="270.5" y="-41" font-family="Helvetica,sans-Serif" font-size="10.00" fill="#000000"> parent</text>
</g>
<!-- Node31&#45;&gt;Node30 -->
<g id="edge26" class="edge">
<title>Node31&#45;&gt;Node30</title>
<path fill="none" stroke="#9a32cd" stroke-dasharray="5,2" d="M301.0804,-9.5115C370.0717,-8.693 543.0338,-8.2298 687,-21 742.8856,-25.9572 807.9126,-37.237 841.786,-43.5358"/>
<polygon fill="#9a32cd" stroke="#9a32cd" points="300.8743,-6.0138 290.9208,-9.644 300.9656,-13.0132 300.8743,-6.0138"/>
<text text-anchor="middle" x="567.5" y="-24" font-family="Helvetica,sans-Serif" font-size="10.00" fill="#000000"> node</text>
</g>
<!-- Node11 -->
<g id="node16" class="node">
<title>Node11</title>
<g id="a_node16"><a xlink:href="structaworx_1_1lib_1_1lox_1_1core_1_1ScopeInfo_1_1Scope.html" target="_top" xlink:title="Scope">
<polygon fill="#ffffff" stroke="#ff0000" points="248.5,-382.5 248.5,-401.5 292.5,-401.5 292.5,-382.5 248.5,-382.5"/>
<text text-anchor="middle" x="270.5" y="-389.5" font-family="Helvetica,sans-Serif" font-size="10.00" fill="#000000">Scope</text>
</a>
</g>
</g>
<!-- Node11&#45;&gt;Node10 -->
<g id="edge13" class="edge">
<title>Node11&#45;&gt;Node10</title>
<path fill="none" stroke="#9a32cd" stroke-dasharray="5,2" d="M302.9946,-391.3435C344.9059,-390.4969 419.4606,-388.9907 478.758,-387.7928"/>
<polygon fill="#9a32cd" stroke="#9a32cd" points="302.7505,-387.8477 292.8233,-391.549 302.892,-394.8462 302.7505,-387.8477"/>
<text text-anchor="middle" x="398.5" y="-392" font-family="Helvetica,sans-Serif" font-size="10.00" fill="#000000"> elements</text>
</g>
<!-- Node14 -->
<g id="node17" class="node">
<title>Node14</title>
<g id="a_node17"><a xlink:href="structaworx_1_1lib_1_1lox_1_1core_1_1ScopeInfo_1_1SourceFile.html" target="_top" xlink:title="Information of a single source file. Stored in field cache. ">
<polygon fill="#ffffff" stroke="#ff0000" points="22,-316.5 22,-335.5 85,-335.5 85,-316.5 22,-316.5"/>
<text text-anchor="middle" x="53.5" y="-323.5" font-family="Helvetica,sans-Serif" font-size="10.00" fill="#000000">SourceFile</text>
</a>
</g>
</g>
<!-- Node14&#45;&gt;Node5 -->
<g id="edge14" class="edge">
<title>Node14&#45;&gt;Node5</title>
<path fill="none" stroke="#9a32cd" stroke-dasharray="5,2" d="M95.2089,-324.7196C206.5897,-321.2052 520.2691,-310.6844 781,-296 798.6628,-295.0052 818.3947,-293.6104 834.2937,-292.4159"/>
<polygon fill="#9a32cd" stroke="#9a32cd" points="94.9555,-321.2257 85.0702,-325.0377 95.1751,-328.2223 94.9555,-321.2257"/>
<text text-anchor="middle" x="398.5" y="-328" font-family="Helvetica,sans-Serif" font-size="10.00" fill="#000000"> cache</text>
<text text-anchor="middle" x="398.5" y="-317" font-family="Helvetica,sans-Serif" font-size="10.00" fill="#000000">lastSourceFile</text>
</g>
<!-- Node14&#45;&gt;Node11 -->
<g id="edge15" class="edge">
<title>Node14&#45;&gt;Node11</title>
<path fill="none" stroke="#9a32cd" stroke-dasharray="5,2" d="M88.9925,-339.0255C116.8083,-348.9946 156.5973,-362.7311 192,-373 210.8537,-378.4687 232.5633,-383.6384 248.3666,-387.2006"/>
<polygon fill="#9a32cd" stroke="#9a32cd" points="89.911,-335.6362 79.3166,-335.5366 87.5365,-342.2212 89.911,-335.6362"/>
<text text-anchor="middle" x="149.5" y="-370" font-family="Helvetica,sans-Serif" font-size="10.00" fill="#000000"> sourceFile</text>
</g>
<!-- Node18 -->
<g id="node18" class="node">
<title>Node18</title>
<g id="a_node18"><a xlink:href="structaworx_1_1lib_1_1lox_1_1core_1_1ScopeInfo_1_1SourcePathTrimRule.html" target="_top" xlink:title="Defines portions of source paths to be ignored. ">
<polygon fill="#ffffff" stroke="#ff0000" points="217,-344.5 217,-363.5 324,-363.5 324,-344.5 217,-344.5"/>
<text text-anchor="middle" x="270.5" y="-351.5" font-family="Helvetica,sans-Serif" font-size="10.00" fill="#000000">SourcePathTrimRule</text>
</a>
</g>
</g>
<!-- Node18&#45;&gt;Node17 -->
<g id="edge17" class="edge">
<title>Node18&#45;&gt;Node17</title>
<path fill="none" stroke="#9a32cd" stroke-dasharray="5,2" d="M334.2895,-352.7113C367.4437,-352.0415 409.0621,-351.2008 447.9299,-350.4156"/>
<polygon fill="#9a32cd" stroke="#9a32cd" points="334.2117,-349.2121 324.2845,-352.9134 334.3531,-356.2107 334.2117,-349.2121"/>
<text text-anchor="middle" x="398.5" y="-354" font-family="Helvetica,sans-Serif" font-size="10.00" fill="#000000"> elements</text>
</g>
<!-- Node25&#45;&gt;Node5 -->
<g id="edge21" class="edge">
<title>Node25&#45;&gt;Node5</title>
<path fill="none" stroke="#9a32cd" stroke-dasharray="5,2" d="M601.221,-185.4344C644.7694,-184.7193 721.9732,-187.9556 781,-215 814.5921,-230.391 844.3683,-263.9357 857.6534,-280.44"/>
<polygon fill="#9a32cd" stroke="#9a32cd" points="601.0758,-181.9368 591.1645,-185.6807 601.2472,-188.9347 601.0758,-181.9368"/>
<text text-anchor="middle" x="743" y="-218" font-family="Helvetica,sans-Serif" font-size="10.00" fill="#000000"> thread</text>
</g>
<!-- Node26 -->
<g id="node20" class="node">
<title>Node26</title>
<g id="a_node20"><a xlink:href="classaworx_1_1lib_1_1threads_1_1Runnable.html" target="_top" xlink:title="Runnable">
<polygon fill="#ffffff" stroke="#000000" points="241.5,-192.5 241.5,-211.5 299.5,-211.5 299.5,-192.5 241.5,-192.5"/>
<text text-anchor="middle" x="270.5" y="-199.5" font-family="Helvetica,sans-Serif" font-size="10.00" fill="#000000">Runnable</text>
</a>
</g>
</g>
<!-- Node26&#45;&gt;Node25 -->
<g id="edge22" class="edge">
<title>Node26&#45;&gt;Node25</title>
<path fill="none" stroke="#191970" d="M309.9875,-201.6106C342.2794,-201.1476 389.1181,-200.1463 430,-198 469.9378,-195.9033 516.2827,-191.861 543.6798,-189.3039"/>
<polygon fill="#191970" stroke="#191970" points="309.5763,-198.1156 299.6236,-201.7478 309.6691,-205.115 309.5763,-198.1156"/>
</g>
<!-- Node26&#45;&gt;Node25 -->
<g id="edge23" class="edge">
<title>Node26&#45;&gt;Node25</title>
<path fill="none" stroke="#9a32cd" stroke-dasharray="5,2" d="M309.7259,-193.4908C327.1705,-190.1213 348.0169,-186.6593 367,-185 430.8085,-179.4225 506.4709,-182.8959 543.9836,-185.2908"/>
<polygon fill="#9a32cd" stroke="#9a32cd" points="309.0116,-190.0642 299.8876,-195.4496 310.3786,-196.9295 309.0116,-190.0642"/>
<text text-anchor="middle" x="398.5" y="-188" font-family="Helvetica,sans-Serif" font-size="10.00" fill="#000000"> runnable</text>
</g>
<!-- Node29 -->
<g id="node21" class="node">
<title>Node29</title>
<g id="a_node21"><a xlink:title="STL class. ">
<polygon fill="#ffffff" stroke="#bfbfbf" points="248.5,-143.5 248.5,-162.5 292.5,-162.5 292.5,-143.5 248.5,-143.5"/>
<text text-anchor="middle" x="270.5" y="-150.5" font-family="Helvetica,sans-Serif" font-size="10.00" fill="#000000">thread</text>
</a>
</g>
</g>
<!-- Node29&#45;&gt;Node25 -->
<g id="edge24" class="edge">
<title>Node29&#45;&gt;Node25</title>
<path fill="none" stroke="#9a32cd" stroke-dasharray="5,2" d="M302.9219,-155.3025C335.188,-157.7217 386.0926,-161.884 430,-167 470.0142,-171.6624 516.3359,-178.7529 543.7075,-183.1195"/>
<polygon fill="#9a32cd" stroke="#9a32cd" points="302.9617,-151.796 292.7311,-154.55 302.4462,-158.777 302.9617,-151.796"/>
<text text-anchor="middle" x="398.5" y="-170" font-family="Helvetica,sans-Serif" font-size="10.00" fill="#000000"> c11Thread</text>
</g>
<!-- Node30&#45;&gt;Node1 -->
<g id="edge25" class="edge">
<title>Node30&#45;&gt;Node1</title>
<path fill="none" stroke="#9a32cd" stroke-dasharray="5,2" d="M898.0545,-41.8777C935.8709,-36.9248 997.2901,-35.4579 1034,-69 1083.8278,-114.528 1102.3505,-342.9095 1105.8571,-393.1958"/>
<polygon fill="#9a32cd" stroke="#9a32cd" points="897.4423,-38.43 888.0544,-43.341 898.4558,-45.3562 897.4423,-38.43"/>
<text text-anchor="middle" x="991.5" y="-72" font-family="Helvetica,sans-Serif" font-size="10.00" fill="#000000"> actStringTreeNode</text>
</g>
<!-- Node33 -->
<g id="node23" class="node">
<title>Node33</title>
<polygon fill="#ffffff" stroke="#bfbfbf" points="240.5,-67.5 240.5,-86.5 300.5,-86.5 300.5,-67.5 240.5,-67.5"/>
<text text-anchor="middle" x="270.5" y="-74.5" font-family="Helvetica,sans-Serif" font-size="10.00" fill="#000000">TAllocator</text>
</g>
<!-- Node33&#45;&gt;Node32 -->
<g id="edge31" class="edge">
<title>Node33&#45;&gt;Node32</title>
<path fill="none" stroke="#191970" d="M310.8232,-73.47C353.2617,-69.7549 421.4673,-63.784 476.9059,-58.9308"/>
<polygon fill="#191970" stroke="#191970" points="310.269,-70.0051 300.6124,-74.3639 310.8795,-76.9784 310.269,-70.0051"/>
</g>
</g>
</svg>
