<?xml version="1.0" encoding="UTF-8" standalone="no"?>
<!DOCTYPE svg PUBLIC "-//W3C//DTD SVG 1.1//EN"
 "http://www.w3.org/Graphics/SVG/1.1/DTD/svg11.dtd">
<!-- Generated by graphviz version 2.40.1 (20161225.0304)
 -->
<!-- Title: FormatterBase&lt;TChar&gt; Pages: 1 -->
<svg width="498pt" height="240pt"
 viewBox="0.00 0.00 497.50 240.00" xmlns="http://www.w3.org/2000/svg" xmlns:xlink="http://www.w3.org/1999/xlink">
<g id="graph0" class="graph" transform="scale(1 1) rotate(0) translate(4 236)">
<title>FormatterBase&lt;TChar&gt;</title>
<polygon fill="#ffffff" stroke="transparent" points="-4,4 -4,-236 493.5,-236 493.5,4 -4,4"/>
<!-- Node20 -->
<g id="node1" class="node">
<title>Node20</title>
<g id="a_node1"><a xlink:title="STL class. ">
<polygon fill="#ffffff" stroke="#bfbfbf" points="387,-145.5 387,-164.5 460,-164.5 460,-145.5 387,-145.5"/>
<text text-anchor="middle" x="423.5" y="-152.5" font-family="Helvetica,sans-Serif" font-size="10.00" fill="#000000">vector&lt;Box&gt;</text>
</a>
</g>
</g>
<!-- Node19 -->
<g id="node10" class="node">
<title>Node19</title>
<g id="a_node10"><a xlink:href="classaworx_1_1lib_1_1boxing_1_1Boxes.html" target="_top" xlink:title="Boxes">
<polygon fill="#ffffff" stroke="#000000" points="380.5,-67.5 380.5,-86.5 424.5,-86.5 424.5,-67.5 380.5,-67.5"/>
<text text-anchor="middle" x="402.5" y="-74.5" font-family="Helvetica,sans-Serif" font-size="10.00" fill="#000000">Boxes</text>
</a>
</g>
</g>
<!-- Node20&#45;&gt;Node19 -->
<g id="edge10" class="edge">
<title>Node20&#45;&gt;Node19</title>
<path fill="none" stroke="#191970" d="M418.314,-135.7379C414.1169,-120.1484 408.3813,-98.845 405.0961,-86.6426"/>
<polygon fill="#191970" stroke="#191970" points="414.9455,-136.6894 420.925,-145.4357 421.7048,-134.8696 414.9455,-136.6894"/>
</g>
<!-- Node7 -->
<g id="node2" class="node">
<title>Node7</title>
<polygon fill="#bfbfbf" stroke="#000000" points="284,-.5 284,-19.5 403,-19.5 403,-.5 284,-.5"/>
<text text-anchor="middle" x="343.5" y="-7.5" font-family="Helvetica,sans-Serif" font-size="10.00" fill="#000000">FormatterBase&lt;TChar&gt;</text>
</g>
<!-- Node17 -->
<g id="node3" class="node">
<title>Node17</title>
<g id="a_node3"><a xlink:href="classaworx_1_1lib_1_1strings_1_1TStringBase.html" target="_top" xlink:title="TStringBase\&lt;nchar\&gt;">
<polygon fill="#ffffff" stroke="#000000" points="48,-145.5 48,-164.5 155,-164.5 155,-145.5 48,-145.5"/>
<text text-anchor="middle" x="101.5" y="-152.5" font-family="Helvetica,sans-Serif" font-size="10.00" fill="#000000">TStringBase&lt;nchar&gt;</text>
</a>
</g>
</g>
<!-- Node8 -->
<g id="node6" class="node">
<title>Node8</title>
<g id="a_node6"><a xlink:href="classaworx_1_1lib_1_1threads_1_1ThreadLock.html" target="_top" xlink:title="ThreadLock">
<polygon fill="#ffffff" stroke="#000000" points="273.5,-67.5 273.5,-86.5 341.5,-86.5 341.5,-67.5 273.5,-67.5"/>
<text text-anchor="middle" x="307.5" y="-74.5" font-family="Helvetica,sans-Serif" font-size="10.00" fill="#000000">ThreadLock</text>
</a>
</g>
</g>
<!-- Node17&#45;&gt;Node8 -->
<g id="edge7" class="edge">
<title>Node17&#45;&gt;Node8</title>
<path fill="none" stroke="#9a32cd" stroke-dasharray="5,2" d="M123.9917,-139.632C141.0392,-128.6018 165.3975,-114.1299 188.5,-105 216.1339,-94.0793 249.1328,-86.7291 273.3642,-82.3102"/>
<polygon fill="#9a32cd" stroke="#9a32cd" points="121.7459,-136.9207 115.3275,-145.3501 125.6016,-142.763 121.7459,-136.9207"/>
<text text-anchor="middle" x="246" y="-119" font-family="Helvetica,sans-Serif" font-size="10.00" fill="#000000"> acquirementMethodName</text>
<text text-anchor="middle" x="246" y="-108" font-family="Helvetica,sans-Serif" font-size="10.00" fill="#000000">acquirementSourcefile</text>
</g>
<!-- Node18 -->
<g id="node4" class="node">
<title>Node18</title>
<g id="a_node4"><a xlink:href="classaworx_1_1lib_1_1strings_1_1StringBase.html" target="_top" xlink:title="StringBase\&lt;nchar\&gt;">
<polygon fill="#ffffff" stroke="#000000" points="0,-212.5 0,-231.5 101,-231.5 101,-212.5 0,-212.5"/>
<text text-anchor="middle" x="50.5" y="-219.5" font-family="Helvetica,sans-Serif" font-size="10.00" fill="#000000">StringBase&lt;nchar&gt;</text>
</a>
</g>
</g>
<!-- Node18&#45;&gt;Node17 -->
<g id="edge8" class="edge">
<title>Node18&#45;&gt;Node17</title>
<path fill="none" stroke="#191970" d="M63.9361,-204.3486C73.6256,-191.6194 86.3348,-174.9229 94.2065,-164.5817"/>
<polygon fill="#191970" stroke="#191970" points="61.079,-202.3236 57.8071,-212.4005 66.6489,-206.5634 61.079,-202.3236"/>
</g>
<!-- Node11 -->
<g id="node5" class="node">
<title>Node11</title>
<g id="a_node5"><a xlink:href="classaworx_1_1lib_1_1strings_1_1PreallocatedStringBase.html" target="_top" xlink:title="PreallocatedStringBase\&lt;TChar\&gt;">
<polygon fill="#ffffff" stroke="#ff0000" points="119,-212.5 119,-231.5 276,-231.5 276,-212.5 119,-212.5"/>
<text text-anchor="middle" x="197.5" y="-219.5" font-family="Helvetica,sans-Serif" font-size="10.00" fill="#000000">PreallocatedStringBase&lt;TChar&gt;</text>
</a>
</g>
</g>
<!-- Node9 -->
<g id="node7" class="node">
<title>Node9</title>
<g id="a_node7"><a xlink:href="classaworx_1_1lib_1_1threads_1_1Thread.html" target="_top" xlink:title="Thread">
<polygon fill="#ffffff" stroke="#000000" points="284,-145.5 284,-164.5 331,-164.5 331,-145.5 284,-145.5"/>
<text text-anchor="middle" x="307.5" y="-152.5" font-family="Helvetica,sans-Serif" font-size="10.00" fill="#000000">Thread</text>
</a>
</g>
</g>
<!-- Node11&#45;&gt;Node9 -->
<g id="edge5" class="edge">
<title>Node11&#45;&gt;Node9</title>
<path fill="none" stroke="#9a32cd" stroke-dasharray="5,2" d="M222.0665,-207.0368C243.3707,-194.0605 273.5663,-175.6687 291.7689,-164.5817"/>
<polygon fill="#9a32cd" stroke="#9a32cd" points="219.9801,-204.2094 213.2603,-212.4005 223.6215,-210.1877 219.9801,-204.2094"/>
<text text-anchor="middle" x="273.5" y="-186" font-family="Helvetica,sans-Serif" font-size="10.00" fill="#000000"> name</text>
</g>
<!-- Node8&#45;&gt;Node7 -->
<g id="edge1" class="edge">
<title>Node8&#45;&gt;Node7</title>
<path fill="none" stroke="#191970" d="M317.5814,-58.2374C324.3387,-45.6614 332.9554,-29.6246 338.3516,-19.5817"/>
<polygon fill="#191970" stroke="#191970" points="314.308,-56.935 312.6579,-67.4005 320.4743,-60.2482 314.308,-56.935"/>
</g>
<!-- Node9&#45;&gt;Node8 -->
<g id="edge2" class="edge">
<title>Node9&#45;&gt;Node8</title>
<path fill="none" stroke="#9a32cd" stroke-dasharray="5,2" d="M307.5,-135.2866C307.5,-119.7395 307.5,-98.7276 307.5,-86.6426"/>
<polygon fill="#9a32cd" stroke="#9a32cd" points="304.0001,-135.4356 307.5,-145.4357 311.0001,-135.4357 304.0001,-135.4356"/>
<text text-anchor="middle" x="322.5" y="-113.5" font-family="Helvetica,sans-Serif" font-size="10.00" fill="#000000"> owner</text>
</g>
<!-- Node10 -->
<g id="node8" class="node">
<title>Node10</title>
<g id="a_node8"><a xlink:href="classaworx_1_1lib_1_1threads_1_1Runnable.html" target="_top" xlink:title="Runnable">
<polygon fill="#ffffff" stroke="#000000" points="294.5,-212.5 294.5,-231.5 352.5,-231.5 352.5,-212.5 294.5,-212.5"/>
<text text-anchor="middle" x="323.5" y="-219.5" font-family="Helvetica,sans-Serif" font-size="10.00" fill="#000000">Runnable</text>
</a>
</g>
</g>
<!-- Node10&#45;&gt;Node9 -->
<g id="edge3" class="edge">
<title>Node10&#45;&gt;Node9</title>
<path fill="none" stroke="#191970" d="M309.7211,-203.7437C307.985,-200.6323 306.4771,-197.3268 305.5,-194 302.6342,-184.2425 303.8134,-172.53 305.2813,-164.5035"/>
<polygon fill="#191970" stroke="#191970" points="306.9198,-205.8557 315.3119,-212.3227 312.7844,-202.0338 306.9198,-205.8557"/>
</g>
<!-- Node10&#45;&gt;Node9 -->
<g id="edge4" class="edge">
<title>Node10&#45;&gt;Node9</title>
<path fill="none" stroke="#9a32cd" stroke-dasharray="5,2" d="M318.84,-202.4863C315.865,-190.0286 312.139,-174.4258 309.7882,-164.5817"/>
<polygon fill="#9a32cd" stroke="#9a32cd" points="315.4805,-203.487 321.2076,-212.4005 322.289,-201.861 315.4805,-203.487"/>
<text text-anchor="middle" x="336.5" y="-186" font-family="Helvetica,sans-Serif" font-size="10.00" fill="#000000"> runnable</text>
</g>
<!-- Node16 -->
<g id="node9" class="node">
<title>Node16</title>
<g id="a_node9"><a xlink:title="STL class. ">
<polygon fill="#ffffff" stroke="#bfbfbf" points="370.5,-212.5 370.5,-231.5 414.5,-231.5 414.5,-212.5 370.5,-212.5"/>
<text text-anchor="middle" x="392.5" y="-219.5" font-family="Helvetica,sans-Serif" font-size="10.00" fill="#000000">thread</text>
</a>
</g>
</g>
<!-- Node16&#45;&gt;Node9 -->
<g id="edge6" class="edge">
<title>Node16&#45;&gt;Node9</title>
<path fill="none" stroke="#9a32cd" stroke-dasharray="5,2" d="M380.1689,-204.0218C374.7018,-196.9005 367.8452,-188.999 360.5,-183 351.4728,-175.6273 340.1999,-169.3464 330.3741,-164.6131"/>
<polygon fill="#9a32cd" stroke="#9a32cd" points="377.5688,-206.3972 386.2832,-212.423 383.2286,-202.2781 377.5688,-206.3972"/>
<text text-anchor="middle" x="396" y="-186" font-family="Helvetica,sans-Serif" font-size="10.00" fill="#000000"> c11Thread</text>
</g>
<!-- Node19&#45;&gt;Node7 -->
<g id="edge9" class="edge">
<title>Node19&#45;&gt;Node7</title>
<path fill="none" stroke="#9a32cd" stroke-dasharray="5,2" d="M387.2786,-59.7147C376.0302,-46.941 361.1316,-30.0224 351.9376,-19.5817"/>
<polygon fill="#9a32cd" stroke="#9a32cd" points="384.8112,-62.2087 394.0467,-67.4005 390.0646,-57.5825 384.8112,-62.2087"/>
<text text-anchor="middle" x="392.5" y="-41" font-family="Helvetica,sans-Serif" font-size="10.00" fill="#000000"> boxes</text>
</g>
<!-- Node21 -->
<g id="node11" class="node">
<title>Node21</title>
<polygon fill="#ffffff" stroke="#bfbfbf" points="448,-212.5 448,-231.5 477,-231.5 477,-212.5 448,-212.5"/>
<text text-anchor="middle" x="462.5" y="-219.5" font-family="Helvetica,sans-Serif" font-size="10.00" fill="#000000">T</text>
</g>
<!-- Node21&#45;&gt;Node20 -->
<g id="edge11" class="edge">
<title>Node21&#45;&gt;Node20</title>
<path fill="none" stroke="#9a32cd" stroke-dasharray="5,2" d="M452.2613,-203.5667C448.5961,-197.0438 444.4054,-189.671 440.5,-183 436.8799,-176.8162 432.7051,-169.9366 429.3986,-164.5442"/>
<polygon fill="#9a32cd" stroke="#9a32cd" points="449.2273,-205.3123 457.1607,-212.3345 455.338,-201.8977 449.2273,-205.3123"/>
<text text-anchor="middle" x="468" y="-186" font-family="Helvetica,sans-Serif" font-size="10.00" fill="#000000"> elements</text>
</g>
</g>
</svg>
