<?xml version="1.0" encoding="UTF-8" standalone="no"?>
<!DOCTYPE svg PUBLIC "-//W3C//DTD SVG 1.1//EN"
 "http://www.w3.org/Graphics/SVG/1.1/DTD/svg11.dtd">
<!-- Generated by graphviz version 2.40.1 (20161225.0304)
 -->
<!-- Title: PrefixLogable Pages: 1 -->
<svg width="251pt" height="219pt"
 viewBox="0.00 0.00 250.50 219.00" xmlns="http://www.w3.org/2000/svg" xmlns:xlink="http://www.w3.org/1999/xlink">
<g id="graph0" class="graph" transform="scale(1 1) rotate(0) translate(4 215)">
<title>PrefixLogable</title>
<polygon fill="#ffffff" stroke="transparent" points="-4,4 -4,-215 246.5,-215 246.5,4 -4,4"/>
<!-- Node2 -->
<g id="node1" class="node">
<title>Node2</title>
<polygon fill="#bfbfbf" stroke="#000000" points="69.5,-.5 69.5,-19.5 145.5,-19.5 145.5,-.5 69.5,-.5"/>
<text text-anchor="middle" x="107.5" y="-7.5" font-family="Helvetica,sans-Serif" font-size="10.00" fill="#000000">PrefixLogable</text>
</g>
<!-- Node6 -->
<g id="node2" class="node">
<title>Node6</title>
<g id="a_node2"><a xlink:href="classaworx_1_1lib_1_1strings_1_1AStringBase.html" target="_top" xlink:title="AStringBase\&lt;TChar\&gt;">
<polygon fill="#ffffff" stroke="#000000" points="7.5,-67.5 7.5,-86.5 117.5,-86.5 117.5,-67.5 7.5,-67.5"/>
<text text-anchor="middle" x="62.5" y="-74.5" font-family="Helvetica,sans-Serif" font-size="10.00" fill="#000000">AStringBase&lt;TChar&gt;</text>
</a>
</g>
</g>
<!-- Node6&#45;&gt;Node2 -->
<g id="edge4" class="edge">
<title>Node6&#45;&gt;Node2</title>
<path fill="none" stroke="#9a32cd" stroke-dasharray="5,2" d="M74.6028,-58.9803C83.1202,-46.2989 94.1857,-29.8235 101.0646,-19.5817"/>
<polygon fill="#9a32cd" stroke="#9a32cd" points="71.6175,-57.1477 68.9474,-67.4005 77.4285,-61.0506 71.6175,-57.1477"/>
<text text-anchor="middle" x="101" y="-41" font-family="Helvetica,sans-Serif" font-size="10.00" fill="#000000"> copy</text>
</g>
<!-- Node7 -->
<g id="node3" class="node">
<title>Node7</title>
<g id="a_node3"><a xlink:href="classaworx_1_1lib_1_1strings_1_1TStringBase.html" target="_top" xlink:title="TStringBase\&lt;TChar\&gt;">
<polygon fill="#ffffff" stroke="#000000" points="0,-134.5 0,-153.5 109,-153.5 109,-134.5 0,-134.5"/>
<text text-anchor="middle" x="54.5" y="-141.5" font-family="Helvetica,sans-Serif" font-size="10.00" fill="#000000">TStringBase&lt;TChar&gt;</text>
</a>
</g>
</g>
<!-- Node7&#45;&gt;Node6 -->
<g id="edge5" class="edge">
<title>Node7&#45;&gt;Node6</title>
<path fill="none" stroke="#191970" d="M56.8752,-124.1079C58.355,-111.714 60.1924,-96.3263 61.3559,-86.5817"/>
<polygon fill="#191970" stroke="#191970" points="53.3566,-124.0561 55.6462,-134.4005 60.3072,-124.8861 53.3566,-124.0561"/>
</g>
<!-- Node8 -->
<g id="node4" class="node">
<title>Node8</title>
<g id="a_node4"><a xlink:href="classaworx_1_1lib_1_1strings_1_1StringBase.html" target="_top" xlink:title="StringBase\&lt;TChar\&gt;">
<polygon fill="#ffffff" stroke="#ff0000" points="3,-191.5 3,-210.5 106,-210.5 106,-191.5 3,-191.5"/>
<text text-anchor="middle" x="54.5" y="-198.5" font-family="Helvetica,sans-Serif" font-size="10.00" fill="#000000">StringBase&lt;TChar&gt;</text>
</a>
</g>
</g>
<!-- Node8&#45;&gt;Node7 -->
<g id="edge6" class="edge">
<title>Node8&#45;&gt;Node7</title>
<path fill="none" stroke="#191970" d="M54.5,-181.2342C54.5,-171.8491 54.5,-161.0651 54.5,-153.5265"/>
<polygon fill="#191970" stroke="#191970" points="51.0001,-181.3307 54.5,-191.3307 58.0001,-181.3308 51.0001,-181.3307"/>
</g>
<!-- Node3 -->
<g id="node5" class="node">
<title>Node3</title>
<g id="a_node5"><a xlink:href="classaworx_1_1lib_1_1boxing_1_1Box.html" target="_top" xlink:title="Box">
<polygon fill="#ffffff" stroke="#000000" points="137.5,-67.5 137.5,-86.5 171.5,-86.5 171.5,-67.5 137.5,-67.5"/>
<text text-anchor="middle" x="154.5" y="-74.5" font-family="Helvetica,sans-Serif" font-size="10.00" fill="#000000">Box</text>
</a>
</g>
</g>
<!-- Node3&#45;&gt;Node2 -->
<g id="edge1" class="edge">
<title>Node3&#45;&gt;Node2</title>
<path fill="none" stroke="#191970" d="M141.8593,-58.9803C132.9634,-46.2989 121.406,-29.8235 114.2215,-19.5817"/>
<polygon fill="#191970" stroke="#191970" points="139.1579,-61.2239 147.766,-67.4005 144.8885,-57.2039 139.1579,-61.2239"/>
</g>
<!-- Node4 -->
<g id="node6" class="node">
<title>Node4</title>
<g id="a_node6"><a xlink:href="structaworx_1_1lib_1_1boxing_1_1BoxData.html" target="_top" xlink:title="BoxData">
<polygon fill="#ffffff" stroke="#000000" points="127,-134.5 127,-153.5 182,-153.5 182,-134.5 127,-134.5"/>
<text text-anchor="middle" x="154.5" y="-141.5" font-family="Helvetica,sans-Serif" font-size="10.00" fill="#000000">BoxData</text>
</a>
</g>
</g>
<!-- Node4&#45;&gt;Node3 -->
<g id="edge2" class="edge">
<title>Node4&#45;&gt;Node3</title>
<path fill="none" stroke="#9a32cd" stroke-dasharray="5,2" d="M154.5,-124.1079C154.5,-111.714 154.5,-96.3263 154.5,-86.5817"/>
<polygon fill="#9a32cd" stroke="#9a32cd" points="151.0001,-124.4005 154.5,-134.4005 158.0001,-124.4006 151.0001,-124.4005"/>
<text text-anchor="middle" x="165.5" y="-108" font-family="Helvetica,sans-Serif" font-size="10.00" fill="#000000"> data</text>
</g>
<!-- Node5 -->
<g id="node7" class="node">
<title>Node5</title>
<g id="a_node7"><a xlink:href="classaworx_1_1lib_1_1boxing_1_1Boxer.html" target="_top" xlink:title="Boxer">
<polygon fill="#ffffff" stroke="#000000" points="200.5,-134.5 200.5,-153.5 242.5,-153.5 242.5,-134.5 200.5,-134.5"/>
<text text-anchor="middle" x="221.5" y="-141.5" font-family="Helvetica,sans-Serif" font-size="10.00" fill="#000000">Boxer</text>
</a>
</g>
</g>
<!-- Node5&#45;&gt;Node3 -->
<g id="edge3" class="edge">
<title>Node5&#45;&gt;Node3</title>
<path fill="none" stroke="#9a32cd" stroke-dasharray="5,2" d="M204.5785,-127.0785C191.7639,-114.2639 174.6218,-97.1218 164.0817,-86.5817"/>
<polygon fill="#9a32cd" stroke="#9a32cd" points="202.3546,-129.8043 211.9005,-134.4005 207.3043,-124.8546 202.3546,-129.8043"/>
<text text-anchor="middle" x="206.5" y="-108" font-family="Helvetica,sans-Serif" font-size="10.00" fill="#000000"> boxer</text>
</g>
</g>
</svg>
