<?xml version="1.0" encoding="UTF-8" standalone="no"?>
<!DOCTYPE svg PUBLIC "-//W3C//DTD SVG 1.1//EN"
 "http://www.w3.org/Graphics/SVG/1.1/DTD/svg11.dtd">
<!-- Generated by graphviz version 2.40.1 (20161225.0304)
 -->
<!-- Title: Report::Message Pages: 1 -->
<svg width="207pt" height="230pt"
 viewBox="0.00 0.00 206.50 230.00" xmlns="http://www.w3.org/2000/svg" xmlns:xlink="http://www.w3.org/1999/xlink">
<g id="graph0" class="graph" transform="scale(1 1) rotate(0) translate(4 226)">
<title>Report::Message</title>
<polygon fill="#ffffff" stroke="transparent" points="-4,4 -4,-226 202.5,-226 202.5,4 -4,4"/>
<!-- Node3 -->
<g id="node1" class="node">
<title>Node3</title>
<polygon fill="#bfbfbf" stroke="#000000" points="56.5,-.5 56.5,-19.5 148.5,-19.5 148.5,-.5 56.5,-.5"/>
<text text-anchor="middle" x="102.5" y="-7.5" font-family="Helvetica,sans-Serif" font-size="10.00" fill="#000000">Report::Message</text>
</g>
<!-- Node5 -->
<g id="node2" class="node">
<title>Node5</title>
<g id="a_node2"><a xlink:title="STL class. ">
<polygon fill="#ffffff" stroke="#bfbfbf" points="119,-135.5 119,-154.5 192,-154.5 192,-135.5 119,-135.5"/>
<text text-anchor="middle" x="155.5" y="-142.5" font-family="Helvetica,sans-Serif" font-size="10.00" fill="#000000">vector&lt;Box&gt;</text>
</a>
</g>
</g>
<!-- Node4 -->
<g id="node5" class="node">
<title>Node4</title>
<g id="a_node5"><a xlink:href="classaworx_1_1lib_1_1boxing_1_1Boxes.html" target="_top" xlink:title="Boxes">
<polygon fill="#ffffff" stroke="#000000" points="130.5,-78.5 130.5,-97.5 174.5,-97.5 174.5,-78.5 130.5,-78.5"/>
<text text-anchor="middle" x="152.5" y="-85.5" font-family="Helvetica,sans-Serif" font-size="10.00" fill="#000000">Boxes</text>
</a>
</g>
</g>
<!-- Node5&#45;&gt;Node4 -->
<g id="edge2" class="edge">
<title>Node5&#45;&gt;Node4</title>
<path fill="none" stroke="#191970" d="M154.4597,-125.2342C153.9657,-115.8491 153.3982,-105.0651 153.0014,-97.5265"/>
<polygon fill="#191970" stroke="#191970" points="150.9702,-125.5285 154.9911,-135.3307 157.9606,-125.1606 150.9702,-125.5285"/>
</g>
<!-- Node7 -->
<g id="node3" class="node">
<title>Node7</title>
<g id="a_node3"><a xlink:href="classaworx_1_1lib_1_1strings_1_1TStringBase.html" target="_top" xlink:title="TStringBase\&lt;nchar\&gt;">
<polygon fill="#ffffff" stroke="#000000" points="2,-78.5 2,-97.5 109,-97.5 109,-78.5 2,-78.5"/>
<text text-anchor="middle" x="55.5" y="-85.5" font-family="Helvetica,sans-Serif" font-size="10.00" fill="#000000">TStringBase&lt;nchar&gt;</text>
</a>
</g>
</g>
<!-- Node7&#45;&gt;Node3 -->
<g id="edge4" class="edge">
<title>Node7&#45;&gt;Node3</title>
<path fill="none" stroke="#9a32cd" stroke-dasharray="5,2" d="M66.5686,-69.6308C76.0046,-53.9711 89.1956,-32.0796 96.6897,-19.6426"/>
<polygon fill="#9a32cd" stroke="#9a32cd" points="63.4264,-68.064 61.2631,-78.4357 69.4221,-71.6768 63.4264,-68.064"/>
<text text-anchor="middle" x="97" y="-52" font-family="Helvetica,sans-Serif" font-size="10.00" fill="#000000"> Func</text>
<text text-anchor="middle" x="97" y="-41" font-family="Helvetica,sans-Serif" font-size="10.00" fill="#000000">File</text>
</g>
<!-- Node8 -->
<g id="node4" class="node">
<title>Node8</title>
<g id="a_node4"><a xlink:href="classaworx_1_1lib_1_1strings_1_1StringBase.html" target="_top" xlink:title="StringBase\&lt;nchar\&gt;">
<polygon fill="#ffffff" stroke="#000000" points="0,-135.5 0,-154.5 101,-154.5 101,-135.5 0,-135.5"/>
<text text-anchor="middle" x="50.5" y="-142.5" font-family="Helvetica,sans-Serif" font-size="10.00" fill="#000000">StringBase&lt;nchar&gt;</text>
</a>
</g>
</g>
<!-- Node8&#45;&gt;Node7 -->
<g id="edge5" class="edge">
<title>Node8&#45;&gt;Node7</title>
<path fill="none" stroke="#191970" d="M52.2338,-125.2342C53.0571,-115.8491 54.0031,-105.0651 54.6643,-97.5265"/>
<polygon fill="#191970" stroke="#191970" points="48.7355,-125.0631 51.3482,-135.3307 55.7087,-125.6749 48.7355,-125.0631"/>
</g>
<!-- Node4&#45;&gt;Node3 -->
<g id="edge1" class="edge">
<title>Node4&#45;&gt;Node3</title>
<path fill="none" stroke="#191970" d="M140.7249,-69.6308C130.6866,-53.9711 116.6536,-32.0796 108.6811,-19.6426"/>
<polygon fill="#191970" stroke="#191970" points="138.0257,-71.9057 146.369,-78.4357 143.9189,-68.128 138.0257,-71.9057"/>
</g>
<!-- Node6 -->
<g id="node6" class="node">
<title>Node6</title>
<polygon fill="#ffffff" stroke="#bfbfbf" points="141,-202.5 141,-221.5 170,-221.5 170,-202.5 141,-202.5"/>
<text text-anchor="middle" x="155.5" y="-209.5" font-family="Helvetica,sans-Serif" font-size="10.00" fill="#000000">T</text>
</g>
<!-- Node6&#45;&gt;Node5 -->
<g id="edge3" class="edge">
<title>Node6&#45;&gt;Node5</title>
<path fill="none" stroke="#9a32cd" stroke-dasharray="5,2" d="M155.5,-192.1079C155.5,-179.714 155.5,-164.3263 155.5,-154.5817"/>
<polygon fill="#9a32cd" stroke="#9a32cd" points="152.0001,-192.4005 155.5,-202.4005 159.0001,-192.4006 152.0001,-192.4005"/>
<text text-anchor="middle" x="177" y="-176" font-family="Helvetica,sans-Serif" font-size="10.00" fill="#000000"> elements</text>
</g>
</g>
</svg>
