<?xml version="1.0" encoding="UTF-8" standalone="no"?>
<!DOCTYPE svg PUBLIC "-//W3C//DTD SVG 1.1//EN"
 "http://www.w3.org/Graphics/SVG/1.1/DTD/svg11.dtd">
<!-- Generated by graphviz version 2.40.1 (20161225.0304)
 -->
<!-- Title: ALox Pages: 1 -->
<svg width="1583pt" height="771pt"
 viewBox="0.00 0.00 1583.00 770.51" xmlns="http://www.w3.org/2000/svg" xmlns:xlink="http://www.w3.org/1999/xlink">
<g id="graph0" class="graph" transform="scale(1 1) rotate(0) translate(4 766.5063)">
<title>ALox</title>
<polygon fill="#ffffff" stroke="transparent" points="-4,4 -4,-766.5063 1579,-766.5063 1579,4 -4,4"/>
<!-- Node2 -->
<g id="node1" class="node">
<title>Node2</title>
<polygon fill="#bfbfbf" stroke="#000000" points="1509.5,-436.0063 1509.5,-455.0063 1548.5,-455.0063 1548.5,-436.0063 1509.5,-436.0063"/>
<text text-anchor="middle" x="1529" y="-443.0063" font-family="Helvetica,sans-Serif" font-size="10.00" fill="#000000">ALox</text>
</g>
<!-- Node36 -->
<g id="node2" class="node">
<title>Node36</title>
<polygon fill="#ffffff" stroke="#bfbfbf" points="1483,-573.0063 1483,-592.0063 1575,-592.0063 1575,-573.0063 1483,-573.0063"/>
<text text-anchor="middle" x="1529" y="-580.0063" font-family="Helvetica,sans-Serif" font-size="10.00" fill="#000000">vector&lt;Library *&gt;</text>
</g>
<!-- Node3 -->
<g id="node19" class="node">
<title>Node3</title>
<g id="a_node19"><a xlink:href="classaworx_1_1lib_1_1lang_1_1Library.html" target="_top" xlink:title="Library">
<polygon fill="#ffffff" stroke="#000000" points="1284.5,-583.0063 1284.5,-602.0063 1330.5,-602.0063 1330.5,-583.0063 1284.5,-583.0063"/>
<text text-anchor="middle" x="1307.5" y="-590.0063" font-family="Helvetica,sans-Serif" font-size="10.00" fill="#000000">Library</text>
</a>
</g>
</g>
<!-- Node36&#45;&gt;Node3 -->
<g id="edge20" class="edge">
<title>Node36&#45;&gt;Node3</title>
<path fill="none" stroke="#9a32cd" stroke-dasharray="5,2" d="M1472.4638,-585.0587C1426.552,-587.1315 1364.1397,-589.9492 1330.7857,-591.455"/>
<polygon fill="#9a32cd" stroke="#9a32cd" points="1472.746,-588.5497 1482.5779,-584.6021 1472.4302,-581.5568 1472.746,-588.5497"/>
<text text-anchor="middle" x="1427.5" y="-591.5063" font-family="Helvetica,sans-Serif" font-size="10.00" fill="#000000"> dependencies</text>
</g>
<!-- Node37 -->
<g id="node3" class="node">
<title>Node37</title>
<polygon fill="#ffffff" stroke="#bfbfbf" points="893.5,-734.0063 893.5,-753.0063 1069.5,-753.0063 1069.5,-734.0063 893.5,-734.0063"/>
<text text-anchor="middle" x="981.5" y="-741.0063" font-family="Helvetica,sans-Serif" font-size="10.00" fill="#000000">vector&lt;pair&lt;const char *, uint64_t&gt;&gt;</text>
</g>
<!-- Node37&#45;&gt;Node3 -->
<g id="edge21" class="edge">
<title>Node37&#45;&gt;Node3</title>
<path fill="none" stroke="#9a32cd" stroke-dasharray="5,2" d="M1079.7752,-752.8123C1126.7968,-752.7278 1182.0592,-745.6255 1225,-719.5063 1271.0496,-691.4961 1296.2511,-626.9072 1304.4646,-602.2842"/>
<polygon fill="#9a32cd" stroke="#9a32cd" points="1079.5963,-749.3107 1069.5658,-752.7223 1079.5345,-756.3104 1079.5963,-749.3107"/>
<text text-anchor="middle" x="1167" y="-754.5063" font-family="Helvetica,sans-Serif" font-size="10.00" fill="#000000"> CompilationFlagMeanings</text>
</g>
<!-- Node41 -->
<g id="node4" class="node">
<title>Node41</title>
<polygon fill="#ffffff" stroke="#bfbfbf" points="1259,-298.0063 1259,-317.0063 1356,-317.0063 1356,-298.0063 1259,-298.0063"/>
<text text-anchor="middle" x="1307.5" y="-305.0063" font-family="Helvetica,sans-Serif" font-size="10.00" fill="#000000">vector&lt;lox::Lox *&gt;</text>
</g>
<!-- Node41&#45;&gt;Node2 -->
<g id="edge24" class="edge">
<title>Node41&#45;&gt;Node2</title>
<path fill="none" stroke="#9a32cd" stroke-dasharray="5,2" d="M1366.0502,-313.9601C1397.686,-319.7574 1436.0749,-330.737 1465,-351.5063 1496.272,-373.9608 1517.0369,-416.7475 1525.157,-435.8632"/>
<polygon fill="#9a32cd" stroke="#9a32cd" points="1366.4824,-310.4834 1356.0366,-312.2541 1365.3067,-317.384 1366.4824,-310.4834"/>
<text text-anchor="middle" x="1427.5" y="-354.5063" font-family="Helvetica,sans-Serif" font-size="10.00" fill="#000000"> loxes</text>
</g>
<!-- Node43 -->
<g id="node5" class="node">
<title>Node43</title>
<g id="a_node5"><a xlink:href="classaworx_1_1lib_1_1lox_1_1core_1_1ScopeStore.html" target="_top" xlink:title="ScopeStore\&lt;map\&lt;AStringBase, Box\&gt; *\&gt;">
<polygon fill="#ffffff" stroke="#ff0000" points="545.5,-155.0063 545.5,-174.0063 740.5,-174.0063 740.5,-155.0063 545.5,-155.0063"/>
<text text-anchor="middle" x="643" y="-162.0063" font-family="Helvetica,sans-Serif" font-size="10.00" fill="#000000">ScopeStore&lt;map&lt;AStringBase, Box&gt; *&gt;</text>
</a>
</g>
</g>
<!-- Node42 -->
<g id="node26" class="node">
<title>Node42</title>
<g id="a_node26"><a xlink:href="classaworx_1_1lib_1_1lox_1_1Lox.html" target="_top" xlink:title="Lox">
<polygon fill="#ffffff" stroke="#000000" points="965.5,-240.0063 965.5,-259.0063 997.5,-259.0063 997.5,-240.0063 965.5,-240.0063"/>
<text text-anchor="middle" x="981.5" y="-247.0063" font-family="Helvetica,sans-Serif" font-size="10.00" fill="#000000">Lox</text>
</a>
</g>
</g>
<!-- Node43&#45;&gt;Node42 -->
<g id="edge27" class="edge">
<title>Node43&#45;&gt;Node42</title>
<path fill="none" stroke="#9a32cd" stroke-dasharray="5,2" d="M750.8197,-167.6207C784.3674,-170.6067 821.1569,-175.9836 854,-185.5063 897.5318,-198.1282 943.9794,-225.4088 966.9293,-239.941"/>
<polygon fill="#9a32cd" stroke="#9a32cd" points="750.7749,-164.1051 740.5204,-166.7688 750.1978,-171.0813 750.7749,-164.1051"/>
<text text-anchor="middle" x="808" y="-188.5063" font-family="Helvetica,sans-Serif" font-size="10.00" fill="#000000"> scopeLogData</text>
</g>
<!-- Node68 -->
<g id="node6" class="node">
<title>Node68</title>
<g id="a_node6"><a xlink:href="classaworx_1_1lib_1_1lox_1_1core_1_1ScopeStore.html" target="_top" xlink:title="ScopeStore\&lt;map\&lt;AStringBase, int\&gt; *\&gt;">
<polygon fill="#ffffff" stroke="#ff0000" points="549,-117.0063 549,-136.0063 737,-136.0063 737,-117.0063 549,-117.0063"/>
<text text-anchor="middle" x="643" y="-124.0063" font-family="Helvetica,sans-Serif" font-size="10.00" fill="#000000">ScopeStore&lt;map&lt;AStringBase, int&gt; *&gt;</text>
</a>
</g>
</g>
<!-- Node68&#45;&gt;Node42 -->
<g id="edge33" class="edge">
<title>Node68&#45;&gt;Node42</title>
<path fill="none" stroke="#9a32cd" stroke-dasharray="5,2" d="M747.2332,-129.8241C782.1539,-133.6592 820.6624,-140.9528 854,-154.5063 904.3764,-174.987 952.7231,-220.2036 972.3321,-239.9577"/>
<polygon fill="#9a32cd" stroke="#9a32cd" points="747.3073,-126.3138 737.0052,-128.7868 746.601,-133.278 747.3073,-126.3138"/>
<text text-anchor="middle" x="808" y="-157.5063" font-family="Helvetica,sans-Serif" font-size="10.00" fill="#000000"> scopeLogOnce</text>
</g>
<!-- Node80 -->
<g id="node7" class="node">
<title>Node80</title>
<g id="a_node7"><a xlink:href="classaworx_1_1lib_1_1lox_1_1core_1_1ScopeStore.html" target="_top" xlink:title="ScopeStore\&lt;Box *\&gt;">
<polygon fill="#ffffff" stroke="#ff0000" points="591,-79.0063 591,-98.0063 695,-98.0063 695,-79.0063 591,-79.0063"/>
<text text-anchor="middle" x="643" y="-86.0063" font-family="Helvetica,sans-Serif" font-size="10.00" fill="#000000">ScopeStore&lt;Box *&gt;</text>
</a>
</g>
</g>
<!-- Node80&#45;&gt;Node42 -->
<g id="edge36" class="edge">
<title>Node80&#45;&gt;Node42</title>
<path fill="none" stroke="#9a32cd" stroke-dasharray="5,2" d="M705.4679,-86.5466C749.2356,-87.62 807.9067,-94.1121 854,-117.5063 912.5277,-147.2115 959.4214,-214.5828 975.5066,-239.7665"/>
<polygon fill="#9a32cd" stroke="#9a32cd" points="705.2964,-83.0435 695.243,-86.3869 705.1871,-90.0427 705.2964,-83.0435"/>
<text text-anchor="middle" x="808" y="-120.5063" font-family="Helvetica,sans-Serif" font-size="10.00" fill="#000000"> scopePrefixes</text>
</g>
<!-- Node83 -->
<g id="node8" class="node">
<title>Node83</title>
<g id="a_node8"><a xlink:href="classaworx_1_1lib_1_1lox_1_1core_1_1ScopeStore.html" target="_top" xlink:title="ScopeStore\&lt;AStringBase *\&gt;">
<polygon fill="#ffffff" stroke="#ff0000" points="572.5,-3.0063 572.5,-22.0063 713.5,-22.0063 713.5,-3.0063 572.5,-3.0063"/>
<text text-anchor="middle" x="643" y="-10.0063" font-family="Helvetica,sans-Serif" font-size="10.00" fill="#000000">ScopeStore&lt;AStringBase *&gt;</text>
</a>
</g>
</g>
<!-- Node83&#45;&gt;Node42 -->
<g id="edge37" class="edge">
<title>Node83&#45;&gt;Node42</title>
<path fill="none" stroke="#9a32cd" stroke-dasharray="5,2" d="M705.4574,-1.8717C750.1535,2.4083 809.9608,1.0324 854,-26.5063 936.4308,-78.0521 970.9294,-203.5194 979.3549,-239.6317"/>
<polygon fill="#9a32cd" stroke="#9a32cd" points="704.8701,1.5854 695.3023,-2.9651 705.6195,-5.3744 704.8701,1.5854"/>
<text text-anchor="middle" x="808" y="-29.5063" font-family="Helvetica,sans-Serif" font-size="10.00" fill="#000000"> scopeDomains</text>
</g>
<!-- Node86 -->
<g id="node9" class="node">
<title>Node86</title>
<polygon fill="#ffffff" stroke="#bfbfbf" points="593,-278.0063 593,-297.0063 693,-297.0063 693,-278.0063 593,-278.0063"/>
<text text-anchor="middle" x="643" y="-285.0063" font-family="Helvetica,sans-Serif" font-size="10.00" fill="#000000">map&lt;int, String32&gt;</text>
</g>
<!-- Node86&#45;&gt;Node42 -->
<g id="edge38" class="edge">
<title>Node86&#45;&gt;Node42</title>
<path fill="none" stroke="#9a32cd" stroke-dasharray="5,2" d="M703.4304,-281.0574C745.6277,-276.5204 803.2616,-270.2562 854,-264.5063 894.0848,-259.9637 941.2236,-254.3462 965.4034,-251.4446"/>
<polygon fill="#9a32cd" stroke="#9a32cd" points="702.889,-277.5954 693.3199,-282.1432 703.6365,-284.5553 702.889,-277.5954"/>
<text text-anchor="middle" x="808" y="-277.5063" font-family="Helvetica,sans-Serif" font-size="10.00" fill="#000000"> threadDictionary</text>
</g>
<!-- Node89 -->
<g id="node10" class="node">
<title>Node89</title>
<polygon fill="#ffffff" stroke="#bfbfbf" points="542,-240.0063 542,-259.0063 744,-259.0063 744,-240.0063 542,-240.0063"/>
<text text-anchor="middle" x="643" y="-247.0063" font-family="Helvetica,sans-Serif" font-size="10.00" fill="#000000">vector&lt;lox::Lox::DomainSubstitutionRule&gt;</text>
</g>
<!-- Node89&#45;&gt;Node42 -->
<g id="edge39" class="edge">
<title>Node89&#45;&gt;Node42</title>
<path fill="none" stroke="#9a32cd" stroke-dasharray="5,2" d="M754.4235,-249.5063C831.925,-249.5063 927.8136,-249.5063 965.3577,-249.5063"/>
<polygon fill="#9a32cd" stroke="#9a32cd" points="754.1027,-246.0064 744.1027,-249.5063 754.1026,-253.0064 754.1027,-246.0064"/>
<text text-anchor="middle" x="808" y="-252.5063" font-family="Helvetica,sans-Serif" font-size="10.00" fill="#000000"> domainSubstitutions</text>
</g>
<!-- Node91 -->
<g id="node11" class="node">
<title>Node91</title>
<polygon fill="#ffffff" stroke="#bfbfbf" points="598,-41.0063 598,-60.0063 688,-60.0063 688,-41.0063 598,-41.0063"/>
<text text-anchor="middle" x="643" y="-48.0063" font-family="Helvetica,sans-Serif" font-size="10.00" fill="#000000">vector&lt;Boxes *&gt;</text>
</g>
<!-- Node91&#45;&gt;Node42 -->
<g id="edge40" class="edge">
<title>Node91&#45;&gt;Node42</title>
<path fill="none" stroke="#9a32cd" stroke-dasharray="5,2" d="M698.3624,-41.9326C743.2587,-37.7853 806.636,-38.5194 854,-65.5063 926.2626,-106.6798 966.8071,-207.594 978.1657,-239.5982"/>
<polygon fill="#9a32cd" stroke="#9a32cd" points="697.8107,-38.4708 688.2236,-42.9805 698.5304,-45.4338 697.8107,-38.4708"/>
<text text-anchor="middle" x="808" y="-79.5063" font-family="Helvetica,sans-Serif" font-size="10.00" fill="#000000"> internalLogables</text>
<text text-anchor="middle" x="808" y="-68.5063" font-family="Helvetica,sans-Serif" font-size="10.00" fill="#000000">logableContainers</text>
</g>
<!-- Node4 -->
<g id="node12" class="node">
<title>Node4</title>
<g id="a_node12"><a xlink:href="classaworx_1_1lib_1_1strings_1_1TStringBase.html" target="_top" xlink:title="TStringBase\&lt;character\&gt;">
<polygon fill="#ffffff" stroke="#000000" points="920,-524.0063 920,-543.0063 1043,-543.0063 1043,-524.0063 920,-524.0063"/>
<text text-anchor="middle" x="981.5" y="-531.0063" font-family="Helvetica,sans-Serif" font-size="10.00" fill="#000000">TStringBase&lt;character&gt;</text>
</a>
</g>
</g>
<!-- Node39 -->
<g id="node18" class="node">
<title>Node39</title>
<g id="a_node18"><a xlink:href="classaworx_1_1lib_1_1strings_1_1StringLiteralBase.html" target="_top" xlink:title="StringLiteralBase\&lt;TChar\&gt;">
<polygon fill="#ffffff" stroke="#000000" points="1243,-508.0063 1243,-527.0063 1372,-527.0063 1372,-508.0063 1243,-508.0063"/>
<text text-anchor="middle" x="1307.5" y="-515.0063" font-family="Helvetica,sans-Serif" font-size="10.00" fill="#000000">StringLiteralBase&lt;TChar&gt;</text>
</a>
</g>
</g>
<!-- Node4&#45;&gt;Node39 -->
<g id="edge4" class="edge">
<title>Node4&#45;&gt;Node39</title>
<path fill="none" stroke="#191970" d="M1053.5164,-529.9718C1110.1595,-527.1917 1188.3697,-523.3532 1242.9837,-520.6728"/>
<polygon fill="#191970" stroke="#191970" points="1053.0177,-526.4919 1043.2014,-530.478 1053.3609,-533.4835 1053.0177,-526.4919"/>
</g>
<!-- Node4&#45;&gt;Node3 -->
<g id="edge3" class="edge">
<title>Node4&#45;&gt;Node3</title>
<path fill="none" stroke="#9a32cd" stroke-dasharray="5,2" d="M1044.0835,-544.7958C1093.2688,-553.673 1163.5064,-566.3601 1225,-577.5063 1245.0541,-581.1413 1267.8475,-585.2866 1284.3864,-588.2969"/>
<polygon fill="#9a32cd" stroke="#9a32cd" points="1044.69,-541.3488 1034.2274,-543.017 1043.4467,-548.2375 1044.69,-541.3488"/>
<text text-anchor="middle" x="1167" y="-580.5063" font-family="Helvetica,sans-Serif" font-size="10.00" fill="#000000"> ResourceCategory</text>
</g>
<!-- Node5 -->
<g id="node13" class="node">
<title>Node5</title>
<g id="a_node13"><a xlink:href="classaworx_1_1lib_1_1strings_1_1StringBase.html" target="_top" xlink:title="StringBase\&lt;character\&gt;">
<polygon fill="#ffffff" stroke="#000000" points="0,-535.0063 0,-554.0063 117,-554.0063 117,-535.0063 0,-535.0063"/>
<text text-anchor="middle" x="58.5" y="-542.0063" font-family="Helvetica,sans-Serif" font-size="10.00" fill="#000000">StringBase&lt;character&gt;</text>
</a>
</g>
</g>
<!-- Node5&#45;&gt;Node4 -->
<g id="edge5" class="edge">
<title>Node5&#45;&gt;Node4</title>
<path fill="none" stroke="#191970" d="M127.322,-543.6861C300.8487,-541.6181 754.1708,-536.2155 919.7777,-534.2419"/>
<polygon fill="#191970" stroke="#191970" points="127.247,-540.1867 117.2895,-543.8057 127.3305,-547.1862 127.247,-540.1867"/>
</g>
<!-- Node18 -->
<g id="node20" class="node">
<title>Node18</title>
<g id="a_node20"><a xlink:href="classaworx_1_1lib_1_1config_1_1Configuration.html" target="_top" xlink:title="Configuration">
<polygon fill="#ffffff" stroke="#ff0000" points="300.5,-596.0063 300.5,-615.0063 374.5,-615.0063 374.5,-596.0063 300.5,-596.0063"/>
<text text-anchor="middle" x="337.5" y="-603.0063" font-family="Helvetica,sans-Serif" font-size="10.00" fill="#000000">Configuration</text>
</a>
</g>
</g>
<!-- Node5&#45;&gt;Node18 -->
<g id="edge6" class="edge">
<title>Node5&#45;&gt;Node18</title>
<path fill="none" stroke="#9a32cd" stroke-dasharray="5,2" d="M112.0592,-556.2164C167.3521,-568.3055 252.1567,-586.847 300.451,-597.406"/>
<polygon fill="#9a32cd" stroke="#9a32cd" points="112.6106,-552.7543 102.0938,-554.0376 111.1154,-559.5928 112.6106,-552.7543"/>
<text text-anchor="middle" x="200.5" y="-613.5063" font-family="Helvetica,sans-Serif" font-size="10.00" fill="#000000"> SubstitutionVariableStart</text>
<text text-anchor="middle" x="200.5" y="-602.5063" font-family="Helvetica,sans-Serif" font-size="10.00" fill="#000000">SubstitutionVariableEnd</text>
<text text-anchor="middle" x="200.5" y="-591.5063" font-family="Helvetica,sans-Serif" font-size="10.00" fill="#000000">SubstitutionVariableDelimiters</text>
</g>
<!-- Node50 -->
<g id="node21" class="node">
<title>Node50</title>
<g id="a_node21"><a xlink:href="classaworx_1_1lib_1_1lox_1_1core_1_1ScopeInfo.html" target="_top" xlink:title="ScopeInfo">
<polygon fill="#ffffff" stroke="#ff0000" points="307,-136.0063 307,-155.0063 368,-155.0063 368,-136.0063 307,-136.0063"/>
<text text-anchor="middle" x="337.5" y="-143.0063" font-family="Helvetica,sans-Serif" font-size="10.00" fill="#000000">ScopeInfo</text>
</a>
</g>
</g>
<!-- Node5&#45;&gt;Node50 -->
<g id="edge7" class="edge">
<title>Node5&#45;&gt;Node50</title>
<path fill="none" stroke="#9a32cd" stroke-dasharray="5,2" d="M71.181,-526.3712C119.9501,-456.6261 294.5078,-206.9897 330.8444,-155.0245"/>
<polygon fill="#9a32cd" stroke="#9a32cd" points="68.2589,-524.4424 65.3967,-534.6433 73.9955,-528.4538 68.2589,-524.4424"/>
<text text-anchor="middle" x="200.5" y="-429.5063" font-family="Helvetica,sans-Serif" font-size="10.00" fill="#000000"> threadName</text>
</g>
<!-- Node24 -->
<g id="node14" class="node">
<title>Node24</title>
<g id="a_node14"><a xlink:href="classaworx_1_1lib_1_1strings_1_1TStringBase.html" target="_top" xlink:title="TStringBase\&lt;nchar\&gt;">
<polygon fill="#ffffff" stroke="#ff0000" points="284,-444.0063 284,-463.0063 391,-463.0063 391,-444.0063 284,-444.0063"/>
<text text-anchor="middle" x="337.5" y="-451.0063" font-family="Helvetica,sans-Serif" font-size="10.00" fill="#000000">TStringBase&lt;nchar&gt;</text>
</a>
</g>
</g>
<!-- Node20 -->
<g id="node25" class="node">
<title>Node20</title>
<g id="a_node25"><a xlink:href="classaworx_1_1lib_1_1threads_1_1ThreadLock.html" target="_top" xlink:title="ThreadLock">
<polygon fill="#ffffff" stroke="#ff0000" points="609,-459.0063 609,-478.0063 677,-478.0063 677,-459.0063 609,-459.0063"/>
<text text-anchor="middle" x="643" y="-466.0063" font-family="Helvetica,sans-Serif" font-size="10.00" fill="#000000">ThreadLock</text>
</a>
</g>
</g>
<!-- Node24&#45;&gt;Node20 -->
<g id="edge17" class="edge">
<title>Node24&#45;&gt;Node20</title>
<path fill="none" stroke="#9a32cd" stroke-dasharray="5,2" d="M401.315,-456.6396C464.5096,-459.7425 558.8673,-464.3754 608.9372,-466.8338"/>
<polygon fill="#9a32cd" stroke="#9a32cd" points="401.2233,-453.131 391.0636,-456.1363 400.8799,-460.1226 401.2233,-453.131"/>
<text text-anchor="middle" x="466.5" y="-475.5063" font-family="Helvetica,sans-Serif" font-size="10.00" fill="#000000"> acquirementMethodName</text>
<text text-anchor="middle" x="466.5" y="-464.5063" font-family="Helvetica,sans-Serif" font-size="10.00" fill="#000000">acquirementSourcefile</text>
</g>
<!-- Node38 -->
<g id="node27" class="node">
<title>Node38</title>
<g id="a_node27"><a xlink:href="classaworx_1_1lib_1_1threads_1_1ThreadLockNR.html" target="_top" xlink:title="ThreadLockNR">
<polygon fill="#ffffff" stroke="#000000" points="766.5,-417.0063 766.5,-436.0063 849.5,-436.0063 849.5,-417.0063 766.5,-417.0063"/>
<text text-anchor="middle" x="808" y="-424.0063" font-family="Helvetica,sans-Serif" font-size="10.00" fill="#000000">ThreadLockNR</text>
</a>
</g>
</g>
<!-- Node24&#45;&gt;Node38 -->
<g id="edge18" class="edge">
<title>Node24&#45;&gt;Node38</title>
<path fill="none" stroke="#9a32cd" stroke-dasharray="5,2" d="M370.7344,-440.5212C382.6169,-436.4957 396.2288,-432.5755 409,-430.5063 537.9012,-409.6217 693.3047,-417.3242 766.2942,-422.8381"/>
<polygon fill="#9a32cd" stroke="#9a32cd" points="369.476,-437.2538 361.2163,-443.8891 371.811,-443.8528 369.476,-437.2538"/>
<text text-anchor="middle" x="466.5" y="-444.5063" font-family="Helvetica,sans-Serif" font-size="10.00" fill="#000000"> acquirementMethodName</text>
<text text-anchor="middle" x="466.5" y="-433.5063" font-family="Helvetica,sans-Serif" font-size="10.00" fill="#000000">acquirementSourcefile</text>
</g>
<!-- Node14 -->
<g id="node15" class="node">
<title>Node14</title>
<g id="a_node15"><a xlink:href="classaworx_1_1lib_1_1strings_1_1StringBase.html" target="_top" xlink:title="StringBase\&lt;TChar\&gt;">
<polygon fill="#ffffff" stroke="#ff0000" points="591.5,-497.0063 591.5,-516.0063 694.5,-516.0063 694.5,-497.0063 591.5,-497.0063"/>
<text text-anchor="middle" x="643" y="-504.0063" font-family="Helvetica,sans-Serif" font-size="10.00" fill="#000000">StringBase&lt;TChar&gt;</text>
</a>
</g>
</g>
<!-- Node14&#45;&gt;Node4 -->
<g id="edge11" class="edge">
<title>Node14&#45;&gt;Node4</title>
<path fill="none" stroke="#191970" d="M704.9431,-499.1608C747.1276,-495.4522 804.1438,-492.973 854,-499.5063 889.2078,-504.1201 928.5217,-515.611 954.0626,-523.9599"/>
<polygon fill="#191970" stroke="#191970" points="704.4575,-495.6907 694.8233,-500.0988 705.1037,-502.6608 704.4575,-495.6907"/>
</g>
<!-- Node32 -->
<g id="node16" class="node">
<title>Node32</title>
<g id="a_node16"><a xlink:href="classaworx_1_1lib_1_1strings_1_1StringBase.html" target="_top" xlink:title="StringBase\&lt;TChar\&gt;">
<polygon fill="#ffffff" stroke="#ff0000" points="591.5,-383.0063 591.5,-402.0063 694.5,-402.0063 694.5,-383.0063 591.5,-383.0063"/>
<text text-anchor="middle" x="643" y="-390.0063" font-family="Helvetica,sans-Serif" font-size="10.00" fill="#000000">StringBase&lt;TChar&gt;</text>
</a>
</g>
</g>
<!-- Node32&#45;&gt;Node42 -->
<g id="edge19" class="edge">
<title>Node32&#45;&gt;Node42</title>
<path fill="none" stroke="#9a32cd" stroke-dasharray="5,2" d="M704.6204,-382.568C717.7108,-379.9967 731.3841,-376.962 744,-373.5063 794.1727,-359.7632 807.5181,-356.8644 854,-333.5063 898.7649,-311.011 946.9267,-275.9465 969.0701,-259.1332"/>
<polygon fill="#9a32cd" stroke="#9a32cd" points="703.9218,-379.1381 694.7509,-384.4434 705.2285,-386.015 703.9218,-379.1381"/>
<text text-anchor="middle" x="808" y="-371.5063" font-family="Helvetica,sans-Serif" font-size="10.00" fill="#000000"> noKeyHashKey</text>
</g>
<!-- Node95 -->
<g id="node17" class="node">
<title>Node95</title>
<g id="a_node17"><a xlink:href="structaworx_1_1lib_1_1lang_1_1T__EnumMetaDataSpecification.html" target="_top" xlink:title="T_EnumMetaDataSpecification\&lt;VariableDecl\&gt;">
<polygon fill="#ffffff" stroke="#000000" points="872,-455.0063 872,-474.0063 1091,-474.0063 1091,-455.0063 872,-455.0063"/>
<text text-anchor="middle" x="981.5" y="-462.0063" font-family="Helvetica,sans-Serif" font-size="10.00" fill="#000000">T_EnumMetaDataSpecification&lt;VariableDecl&gt;</text>
</a>
</g>
</g>
<!-- Node94 -->
<g id="node29" class="node">
<title>Node94</title>
<g id="a_node29"><a xlink:href="structaworx_1_1lib_1_1config_1_1VariableDecl.html" target="_top" xlink:title="VariableDecl">
<polygon fill="#ffffff" stroke="#000000" points="1272,-455.0063 1272,-474.0063 1343,-474.0063 1343,-455.0063 1272,-455.0063"/>
<text text-anchor="middle" x="1307.5" y="-462.0063" font-family="Helvetica,sans-Serif" font-size="10.00" fill="#000000">VariableDecl</text>
</a>
</g>
</g>
<!-- Node95&#45;&gt;Node94 -->
<g id="edge42" class="edge">
<title>Node95&#45;&gt;Node94</title>
<path fill="none" stroke="#9a32cd" stroke-dasharray="5,2" d="M1101.4194,-464.5063C1161.8384,-464.5063 1230.7648,-464.5063 1271.623,-464.5063"/>
<polygon fill="#9a32cd" stroke="#9a32cd" points="1101.4143,-461.0064 1091.4142,-464.5063 1101.4142,-468.0064 1101.4143,-461.0064"/>
<text text-anchor="middle" x="1167" y="-467.5063" font-family="Helvetica,sans-Serif" font-size="10.00" fill="#000000"> Tuple</text>
</g>
<!-- Node39&#45;&gt;Node2 -->
<g id="edge23" class="edge">
<title>Node39&#45;&gt;Node2</title>
<path fill="none" stroke="#9a32cd" stroke-dasharray="5,2" d="M1353.9584,-505.2754C1385.5314,-496.6375 1428.1017,-484.3523 1465,-471.5063 1480.0639,-466.2619 1496.7499,-459.449 1509.3065,-454.113"/>
<polygon fill="#9a32cd" stroke="#9a32cd" points="1352.8486,-501.9499 1344.115,-507.9478 1354.6827,-508.7054 1352.8486,-501.9499"/>
<text text-anchor="middle" x="1427.5" y="-496.5063" font-family="Helvetica,sans-Serif" font-size="10.00" fill="#000000"> InternalDomains</text>
</g>
<!-- Node3&#45;&gt;Node2 -->
<g id="edge1" class="edge">
<title>Node3&#45;&gt;Node2</title>
<path fill="none" stroke="#191970" d="M1339.2432,-578.8738C1372.215,-563.9786 1424.5435,-538.2362 1465,-508.5063 1487.1121,-492.257 1509.07,-468.5732 1520.6344,-455.3576"/>
<polygon fill="#191970" stroke="#191970" points="1337.7832,-575.6926 1330.0749,-582.9612 1340.6335,-582.086 1337.7832,-575.6926"/>
</g>
<!-- Node3&#45;&gt;Node36 -->
<g id="edge2" class="edge">
<title>Node3&#45;&gt;Node36</title>
<path fill="none" stroke="#9a32cd" stroke-dasharray="5,2" d="M1340.2923,-579.6384C1355.2079,-574.4489 1373.237,-569.0852 1390,-566.5063 1422.9457,-561.4377 1431.9164,-562.4335 1465,-566.5063 1475.6852,-567.8217 1487.1524,-570.3284 1497.3866,-572.974"/>
<polygon fill="#9a32cd" stroke="#9a32cd" points="1338.735,-576.4795 1330.5174,-583.1669 1341.1117,-583.0636 1338.735,-576.4795"/>
<text text-anchor="middle" x="1427.5" y="-569.5063" font-family="Helvetica,sans-Serif" font-size="10.00" fill="#000000"> elements</text>
</g>
<!-- Node18&#45;&gt;Node3 -->
<g id="edge12" class="edge">
<title>Node18&#45;&gt;Node3</title>
<path fill="none" stroke="#9a32cd" stroke-dasharray="5,2" d="M363.7498,-619.6559C401.7556,-639.2572 474.9154,-673.7044 542,-686.5063 832.3395,-741.9123 1191.1591,-631.8691 1284.4699,-600.5137"/>
<polygon fill="#9a32cd" stroke="#9a32cd" points="365.3535,-616.5449 354.8698,-615.0146 362.111,-622.7486 365.3535,-616.5449"/>
<text text-anchor="middle" x="808" y="-703.5063" font-family="Helvetica,sans-Serif" font-size="10.00" fill="#000000"> Config</text>
</g>
<!-- Node6 -->
<g id="node22" class="node">
<title>Node6</title>
<g id="a_node22"><a xlink:href="classaworx_1_1lib_1_1lang_1_1Resources.html" target="_top" xlink:title="Resources">
<polygon fill="#ffffff" stroke="#000000" points="949.5,-583.0063 949.5,-602.0063 1013.5,-602.0063 1013.5,-583.0063 949.5,-583.0063"/>
<text text-anchor="middle" x="981.5" y="-590.0063" font-family="Helvetica,sans-Serif" font-size="10.00" fill="#000000">Resources</text>
</a>
</g>
</g>
<!-- Node18&#45;&gt;Node6 -->
<g id="edge13" class="edge">
<title>Node18&#45;&gt;Node6</title>
<path fill="none" stroke="#9a32cd" stroke-dasharray="5,2" d="M384.619,-612.2862C392.7341,-613.2106 401.0983,-614.011 409,-614.5063 518.538,-621.3732 798.0022,-606.8529 854,-603.5063 886.4909,-601.5646 923.5496,-598.2429 949.3078,-595.7565"/>
<polygon fill="#9a32cd" stroke="#9a32cd" points="384.8751,-608.7917 374.5265,-611.0627 384.0326,-615.7408 384.8751,-608.7917"/>
<text text-anchor="middle" x="643" y="-618.5063" font-family="Helvetica,sans-Serif" font-size="10.00" fill="#000000"> Config</text>
</g>
<!-- Node10 -->
<g id="node24" class="node">
<title>Node10</title>
<g id="a_node24"><a xlink:href="classaworx_1_1lib_1_1config_1_1Variable.html" target="_top" xlink:title="Variable">
<polygon fill="#ffffff" stroke="#ff0000" points="617.5,-573.0063 617.5,-592.0063 668.5,-592.0063 668.5,-573.0063 617.5,-573.0063"/>
<text text-anchor="middle" x="643" y="-580.0063" font-family="Helvetica,sans-Serif" font-size="10.00" fill="#000000">Variable</text>
</a>
</g>
</g>
<!-- Node18&#45;&gt;Node10 -->
<g id="edge14" class="edge">
<title>Node18&#45;&gt;Node10</title>
<path fill="none" stroke="#9a32cd" stroke-dasharray="5,2" d="M384.692,-601.9534C450.0393,-597.0336 565.8262,-588.3164 617.2058,-584.4483"/>
<polygon fill="#9a32cd" stroke="#9a32cd" points="384.3639,-598.4681 374.6549,-602.709 384.8894,-605.4483 384.3639,-598.4681"/>
<text text-anchor="middle" x="466.5" y="-602.5063" font-family="Helvetica,sans-Serif" font-size="10.00" fill="#000000"> Config</text>
</g>
<!-- Node50&#45;&gt;Node43 -->
<g id="edge29" class="edge">
<title>Node50&#45;&gt;Node43</title>
<path fill="none" stroke="#9a32cd" stroke-dasharray="5,2" d="M378.4141,-148.0509C420.8743,-150.6916 488.8388,-154.9185 545.2519,-158.4271"/>
<polygon fill="#9a32cd" stroke="#9a32cd" points="378.3893,-144.5427 368.1913,-147.4151 377.9547,-151.5292 378.3893,-144.5427"/>
<text text-anchor="middle" x="466.5" y="-160.5063" font-family="Helvetica,sans-Serif" font-size="10.00" fill="#000000"> scopeInfo</text>
</g>
<!-- Node50&#45;&gt;Node68 -->
<g id="edge30" class="edge">
<title>Node50&#45;&gt;Node68</title>
<path fill="none" stroke="#9a32cd" stroke-dasharray="5,2" d="M378.1956,-139.0933C388.2425,-137.7093 398.9927,-136.3963 409,-135.5063 454.9621,-131.4187 506.1655,-129.1866 548.928,-127.9681"/>
<polygon fill="#9a32cd" stroke="#9a32cd" points="377.4443,-135.665 368.041,-140.5463 378.436,-142.5944 377.4443,-135.665"/>
<text text-anchor="middle" x="466.5" y="-138.5063" font-family="Helvetica,sans-Serif" font-size="10.00" fill="#000000"> scopeInfo</text>
</g>
<!-- Node50&#45;&gt;Node80 -->
<g id="edge31" class="edge">
<title>Node50&#45;&gt;Node80</title>
<path fill="none" stroke="#9a32cd" stroke-dasharray="5,2" d="M364.8075,-131.3791C377.8559,-125.2297 393.8918,-118.5235 409,-114.5063 470.0313,-98.2785 542.626,-92.1681 590.5972,-89.8738"/>
<polygon fill="#9a32cd" stroke="#9a32cd" points="362.9372,-128.3967 355.4766,-135.9193 366,-134.6912 362.9372,-128.3967"/>
<text text-anchor="middle" x="466.5" y="-117.5063" font-family="Helvetica,sans-Serif" font-size="10.00" fill="#000000"> scopeInfo</text>
</g>
<!-- Node50&#45;&gt;Node83 -->
<g id="edge32" class="edge">
<title>Node50&#45;&gt;Node83</title>
<path fill="none" stroke="#9a32cd" stroke-dasharray="5,2" d="M352.9318,-128.1517C366.5066,-113.7582 387.4197,-93.6012 409,-80.5063 461.0817,-48.9033 528.6105,-31.338 577.7295,-22.0175"/>
<polygon fill="#9a32cd" stroke="#9a32cd" points="350.032,-126.1342 345.8375,-135.8633 355.1837,-130.8734 350.032,-126.1342"/>
<text text-anchor="middle" x="466.5" y="-83.5063" font-family="Helvetica,sans-Serif" font-size="10.00" fill="#000000"> scopeInfo</text>
</g>
<!-- Node50&#45;&gt;Node42 -->
<g id="edge28" class="edge">
<title>Node50&#45;&gt;Node42</title>
<path fill="none" stroke="#9a32cd" stroke-dasharray="5,2" d="M368.4241,-158.9424C380.8341,-163.8674 395.3975,-169.0709 409,-172.5063 436.8941,-179.5511 874.8842,-235.8485 965.2629,-247.4283"/>
<polygon fill="#9a32cd" stroke="#9a32cd" points="369.5738,-155.6313 358.9927,-155.0914 366.9276,-162.1119 369.5738,-155.6313"/>
<text text-anchor="middle" x="643" y="-222.5063" font-family="Helvetica,sans-Serif" font-size="10.00" fill="#000000"> scopeInfo</text>
</g>
<!-- Node6&#45;&gt;Node3 -->
<g id="edge8" class="edge">
<title>Node6&#45;&gt;Node3</title>
<path fill="none" stroke="#9a32cd" stroke-dasharray="5,2" d="M1023.8182,-592.5063C1093.3959,-592.5063 1229.6704,-592.5063 1284.1653,-592.5063"/>
<polygon fill="#9a32cd" stroke="#9a32cd" points="1023.6504,-589.0064 1013.6503,-592.5063 1023.6503,-596.0064 1023.6504,-589.0064"/>
<text text-anchor="middle" x="1167" y="-595.5063" font-family="Helvetica,sans-Serif" font-size="10.00" fill="#000000"> Res</text>
</g>
<!-- Node7 -->
<g id="node23" class="node">
<title>Node7</title>
<g id="a_node23"><a xlink:href="classaworx_1_1lib_1_1util_1_1MemoryBlocks.html" target="_top" xlink:title="MemoryBlocks">
<polygon fill="#ffffff" stroke="#ff0000" points="602,-658.0063 602,-677.0063 684,-677.0063 684,-658.0063 602,-658.0063"/>
<text text-anchor="middle" x="643" y="-665.0063" font-family="Helvetica,sans-Serif" font-size="10.00" fill="#000000">MemoryBlocks</text>
</a>
</g>
</g>
<!-- Node7&#45;&gt;Node6 -->
<g id="edge9" class="edge">
<title>Node7&#45;&gt;Node6</title>
<path fill="none" stroke="#9a32cd" stroke-dasharray="5,2" d="M694.2581,-665.1036C737.4009,-662.2123 800.4529,-655.9415 854,-642.5063 893.4357,-632.6117 937.076,-613.6266 961.7083,-602.1101"/>
<polygon fill="#9a32cd" stroke="#9a32cd" points="693.7679,-661.6275 684.0089,-665.752 694.21,-668.6136 693.7679,-661.6275"/>
<text text-anchor="middle" x="808" y="-661.5063" font-family="Helvetica,sans-Serif" font-size="10.00" fill="#000000"> cache</text>
</g>
<!-- Node10&#45;&gt;Node6 -->
<g id="edge10" class="edge">
<title>Node10&#45;&gt;Node6</title>
<path fill="none" stroke="#9a32cd" stroke-dasharray="5,2" d="M679.0901,-583.5725C745.4588,-585.5332 885.8769,-589.6814 949.2584,-591.5538"/>
<polygon fill="#9a32cd" stroke="#9a32cd" points="678.8194,-580.0631 668.7203,-583.2661 678.6126,-587.06 678.8194,-580.0631"/>
<text text-anchor="middle" x="808" y="-591.5063" font-family="Helvetica,sans-Serif" font-size="10.00" fill="#000000"> variable</text>
</g>
<!-- Node20&#45;&gt;Node6 -->
<g id="edge15" class="edge">
<title>Node20&#45;&gt;Node6</title>
<path fill="none" stroke="#9a32cd" stroke-dasharray="5,2" d="M687.1976,-474.0331C705.1236,-476.9892 725.8415,-481.3289 744,-487.5063 804.4041,-508.0554 813.4857,-527.0702 872,-552.5063 898.7282,-564.125 930.0336,-575.3289 952.31,-582.9085"/>
<polygon fill="#9a32cd" stroke="#9a32cd" points="687.7035,-470.5698 677.2841,-472.4898 686.6266,-477.4865 687.7035,-470.5698"/>
<text text-anchor="middle" x="808" y="-546.5063" font-family="Helvetica,sans-Serif" font-size="10.00" fill="#000000"> lock</text>
</g>
<!-- Node20&#45;&gt;Node42 -->
<g id="edge16" class="edge">
<title>Node20&#45;&gt;Node42</title>
<path fill="none" stroke="#9a32cd" stroke-dasharray="5,2" d="M687.3855,-471.9462C732.6961,-473.3036 803.3727,-469.2729 854,-437.5063 925.4877,-392.6506 966.5528,-291.4152 978.1031,-259.4047"/>
<polygon fill="#9a32cd" stroke="#9a32cd" points="687.4124,-468.4446 677.2803,-471.5415 687.1322,-475.4389 687.4124,-468.4446"/>
<text text-anchor="middle" x="808" y="-469.5063" font-family="Helvetica,sans-Serif" font-size="10.00" fill="#000000"> Lock</text>
</g>
<!-- Node42&#45;&gt;Node2 -->
<g id="edge25" class="edge">
<title>Node42&#45;&gt;Node2</title>
<path fill="none" stroke="#9a32cd" stroke-dasharray="5,2" d="M1006.9841,-262.3815C1032.4083,-274.9187 1072.7917,-294.0067 1109,-307.5063 1263.5675,-365.1338 1311.8951,-351.0984 1465,-412.5063 1481.7079,-419.2076 1499.8694,-428.8113 1512.5628,-435.9319"/>
<polygon fill="#9a32cd" stroke="#9a32cd" points="1008.2076,-259.0811 997.695,-257.7635 1005.0914,-265.3492 1008.2076,-259.0811"/>
<text text-anchor="middle" x="1307.5" y="-382.5063" font-family="Helvetica,sans-Serif" font-size="10.00" fill="#000000"> theLog</text>
</g>
<!-- Node42&#45;&gt;Node41 -->
<g id="edge26" class="edge">
<title>Node42&#45;&gt;Node41</title>
<path fill="none" stroke="#9a32cd" stroke-dasharray="5,2" d="M1007.5723,-254.1449C1062.115,-263.8488 1188.9878,-286.4213 1258.9806,-298.874"/>
<polygon fill="#9a32cd" stroke="#9a32cd" points="1008.1249,-250.6884 997.6664,-252.3825 1006.8987,-257.5801 1008.1249,-250.6884"/>
<text text-anchor="middle" x="1167" y="-295.5063" font-family="Helvetica,sans-Serif" font-size="10.00" fill="#000000"> elements</text>
</g>
<!-- Node38&#45;&gt;Node2 -->
<g id="edge22" class="edge">
<title>Node38&#45;&gt;Node2</title>
<path fill="none" stroke="#9a32cd" stroke-dasharray="5,2" d="M859.6408,-427.8672C1005.3126,-431.7059 1415.0195,-442.5027 1509.4264,-444.9905"/>
<polygon fill="#9a32cd" stroke="#9a32cd" points="859.7055,-424.3677 849.6167,-427.603 859.521,-431.3653 859.7055,-424.3677"/>
<text text-anchor="middle" x="1167" y="-439.5063" font-family="Helvetica,sans-Serif" font-size="10.00" fill="#000000"> loxManagement</text>
</g>
<!-- Node72 -->
<g id="node28" class="node">
<title>Node72</title>
<g id="a_node28"><a xlink:href="classaworx_1_1lib_1_1lox_1_1core_1_1Domain.html" target="_top" xlink:title="Domain">
<polygon fill="#ffffff" stroke="#ff0000" points="618,-316.0063 618,-335.0063 668,-335.0063 668,-316.0063 618,-316.0063"/>
<text text-anchor="middle" x="643" y="-323.0063" font-family="Helvetica,sans-Serif" font-size="10.00" fill="#000000">Domain</text>
</a>
</g>
</g>
<!-- Node72&#45;&gt;Node42 -->
<g id="edge34" class="edge">
<title>Node72&#45;&gt;Node42</title>
<path fill="none" stroke="#9a32cd" stroke-dasharray="5,2" d="M678.2672,-320.974C720.4063,-315.2179 792.8862,-304.235 854,-289.5063 894.5962,-279.7224 941.138,-263.9217 965.1943,-255.4024"/>
<polygon fill="#9a32cd" stroke="#9a32cd" points="677.677,-317.5218 668.233,-322.3239 678.6104,-324.4593 677.677,-317.5218"/>
<text text-anchor="middle" x="808" y="-321.5063" font-family="Helvetica,sans-Serif" font-size="10.00" fill="#000000"> domains</text>
<text text-anchor="middle" x="808" y="-310.5063" font-family="Helvetica,sans-Serif" font-size="10.00" fill="#000000">internalDomains</text>
</g>
<!-- Node72&#45;&gt;Node72 -->
<g id="edge35" class="edge">
<title>Node72&#45;&gt;Node72</title>
<path fill="none" stroke="#9a32cd" stroke-dasharray="5,2" d="M612.3114,-343.7809C613.1864,-349.2473 623.4159,-353.5063 643,-353.5063 672.1484,-353.5063 680.5742,-344.0716 668.2772,-335.2634"/>
<polygon fill="#9a32cd" stroke="#9a32cd" points="615.3144,-345.5808 617.7228,-335.2634 609.406,-341.827 615.3144,-345.5808"/>
<text text-anchor="middle" x="643" y="-356.5063" font-family="Helvetica,sans-Serif" font-size="10.00" fill="#000000"> Parent</text>
</g>
<!-- Node94&#45;&gt;Node2 -->
<g id="edge41" class="edge">
<title>Node94&#45;&gt;Node2</title>
<path fill="none" stroke="#9a32cd" stroke-dasharray="5,2" d="M1353.2267,-460.5839C1401.2543,-456.4642 1474.5422,-450.1776 1509.3403,-447.1927"/>
<polygon fill="#9a32cd" stroke="#9a32cd" points="1352.7521,-457.1117 1343.0878,-461.4536 1353.3504,-464.0861 1352.7521,-457.1117"/>
<text text-anchor="middle" x="1427.5" y="-459.5063" font-family="Helvetica,sans-Serif" font-size="10.00" fill="#000000"> CODEPAGE</text>
</g>
</g>
</svg>
