<?xml version="1.0" encoding="UTF-8" standalone="no"?>
<!DOCTYPE svg PUBLIC "-//W3C//DTD SVG 1.1//EN"
 "http://www.w3.org/Graphics/SVG/1.1/DTD/svg11.dtd">
<!-- Generated by graphviz version 2.40.1 (20161225.0304)
 -->
<!-- Title: WindowsConsoleLogger Pages: 1 -->
<svg width="722pt" height="572pt"
 viewBox="0.00 0.00 722.00 572.08" xmlns="http://www.w3.org/2000/svg" xmlns:xlink="http://www.w3.org/1999/xlink">
<g id="graph0" class="graph" transform="scale(1 1) rotate(0) translate(4 568.0779)">
<title>WindowsConsoleLogger</title>
<polygon fill="#ffffff" stroke="transparent" points="-4,4 -4,-568.0779 718,-568.0779 718,4 -4,4"/>
<!-- Node5 -->
<g id="node1" class="node">
<title>Node5</title>
<polygon fill="#bfbfbf" stroke="#000000" points="592,-175.5779 592,-194.5779 714,-194.5779 714,-175.5779 592,-175.5779"/>
<text text-anchor="middle" x="653" y="-182.5779" font-family="Helvetica,sans-Serif" font-size="10.00" fill="#000000">WindowsConsoleLogger</text>
</g>
<!-- Node26 -->
<g id="node2" class="node">
<title>Node26</title>
<polygon fill="#ffffff" stroke="#bfbfbf" points="278.5,-543.5779 278.5,-562.5779 388.5,-562.5779 388.5,-543.5779 278.5,-543.5779"/>
<text text-anchor="middle" x="333.5" y="-550.5779" font-family="Helvetica,sans-Serif" font-size="10.00" fill="#000000">vector&lt;AStringBase&gt;</text>
</g>
<!-- Node6 -->
<g id="node7" class="node">
<title>Node6</title>
<g id="a_node7"><a xlink:href="classaworx_1_1lib_1_1lox_1_1core_1_1textlogger_1_1TextLogger.html" target="_top" xlink:title="TextLogger">
<polygon fill="#ffffff" stroke="#000000" points="490,-175.5779 490,-194.5779 555,-194.5779 555,-175.5779 490,-175.5779"/>
<text text-anchor="middle" x="522.5" y="-182.5779" font-family="Helvetica,sans-Serif" font-size="10.00" fill="#000000">TextLogger</text>
</a>
</g>
</g>
<!-- Node26&#45;&gt;Node6 -->
<g id="edge10" class="edge">
<title>Node26&#45;&gt;Node6</title>
<path fill="none" stroke="#9a32cd" stroke-dasharray="5,2" d="M398.7906,-545.7226C425.2513,-539.3972 453.7998,-527.6929 472,-506.0779 513.2418,-457.0981 521.0505,-242.5882 522.2904,-194.6169"/>
<polygon fill="#9a32cd" stroke="#9a32cd" points="397.809,-542.354 388.7774,-547.893 399.2919,-549.1951 397.809,-542.354"/>
<text text-anchor="middle" x="441" y="-544.0779" font-family="Helvetica,sans-Serif" font-size="10.00" fill="#000000"> replacements</text>
</g>
<!-- Node29 -->
<g id="node3" class="node">
<title>Node29</title>
<polygon fill="#ffffff" stroke="#bfbfbf" points="36,-.5779 36,-19.5779 121,-19.5779 121,-.5779 36,-.5779"/>
<text text-anchor="middle" x="78.5" y="-7.5779" font-family="Helvetica,sans-Serif" font-size="10.00" fill="#000000">vector&lt;integer&gt;</text>
</g>
<!-- Node28 -->
<g id="node12" class="node">
<title>Node28</title>
<g id="a_node12"><a xlink:href="classaworx_1_1lib_1_1strings_1_1util_1_1AutoSizes.html" target="_top" xlink:title="AutoSizes">
<polygon fill="#ffffff" stroke="#000000" points="302.5,-68.5779 302.5,-87.5779 364.5,-87.5779 364.5,-68.5779 302.5,-68.5779"/>
<text text-anchor="middle" x="333.5" y="-75.5779" font-family="Helvetica,sans-Serif" font-size="10.00" fill="#000000">AutoSizes</text>
</a>
</g>
</g>
<!-- Node29&#45;&gt;Node28 -->
<g id="edge13" class="edge">
<title>Node29&#45;&gt;Node28</title>
<path fill="none" stroke="#9a32cd" stroke-dasharray="5,2" d="M131.56,-1.3663C169.5778,1.9968 220.3321,.3158 257,-24.0779 271.5638,-33.7666 261.6768,-47.7436 275,-59.0779 282.7268,-65.6513 292.7749,-69.9625 302.3575,-72.7852"/>
<polygon fill="#9a32cd" stroke="#9a32cd" points="130.7857,2.0725 121.1971,-2.434 131.5032,-4.8906 130.7857,2.0725"/>
<text text-anchor="middle" x="216" y="-38.0779" font-family="Helvetica,sans-Serif" font-size="10.00" fill="#000000"> values</text>
<text text-anchor="middle" x="216" y="-27.0779" font-family="Helvetica,sans-Serif" font-size="10.00" fill="#000000">sessionValues</text>
</g>
<!-- Node27 -->
<g id="node4" class="node">
<title>Node27</title>
<g id="a_node4"><a xlink:href="classaworx_1_1lib_1_1strings_1_1AStringBase.html" target="_top" xlink:title="AStringBase\&lt;TChar\&gt;">
<polygon fill="#ffffff" stroke="#ff0000" points="23.5,-543.5779 23.5,-562.5779 133.5,-562.5779 133.5,-543.5779 23.5,-543.5779"/>
<text text-anchor="middle" x="78.5" y="-550.5779" font-family="Helvetica,sans-Serif" font-size="10.00" fill="#000000">AStringBase&lt;TChar&gt;</text>
</a>
</g>
</g>
<!-- Node27&#45;&gt;Node26 -->
<g id="edge11" class="edge">
<title>Node27&#45;&gt;Node26</title>
<path fill="none" stroke="#9a32cd" stroke-dasharray="5,2" d="M143.5559,-553.0779C185.169,-553.0779 238.5663,-553.0779 278.1418,-553.0779"/>
<polygon fill="#9a32cd" stroke="#9a32cd" points="143.5173,-549.578 133.5173,-553.0779 143.5172,-556.578 143.5173,-549.578"/>
<text text-anchor="middle" x="216" y="-556.0779" font-family="Helvetica,sans-Serif" font-size="10.00" fill="#000000"> elements</text>
</g>
<!-- Node34 -->
<g id="node5" class="node">
<title>Node34</title>
<g id="a_node5"><a xlink:href="classaworx_1_1lib_1_1strings_1_1AStringBase.html" target="_top" xlink:title="AStringBase\&lt;character\&gt;">
<polygon fill="#ffffff" stroke="#ff0000" points="16.5,-472.5779 16.5,-491.5779 140.5,-491.5779 140.5,-472.5779 16.5,-472.5779"/>
<text text-anchor="middle" x="78.5" y="-479.5779" font-family="Helvetica,sans-Serif" font-size="10.00" fill="#000000">AStringBase&lt;character&gt;</text>
</a>
</g>
</g>
<!-- Node34&#45;&gt;Node6 -->
<g id="edge18" class="edge">
<title>Node34&#45;&gt;Node6</title>
<path fill="none" stroke="#9a32cd" stroke-dasharray="5,2" d="M150.7639,-488.5461C183.7257,-489.453 222.9172,-487.6267 257,-478.0779 323.7256,-459.3837 337.6768,-443.0985 392,-400.0779 432.6696,-367.8701 444.3195,-358.9544 472,-315.0779 497.9672,-273.9173 514.2895,-217.2506 520.1044,-194.8015"/>
<polygon fill="#9a32cd" stroke="#9a32cd" points="150.8673,-485.0476 140.7469,-488.1824 150.6133,-492.043 150.8673,-485.0476"/>
<text text-anchor="middle" x="333.5" y="-497.0779" font-family="Helvetica,sans-Serif" font-size="10.00" fill="#000000"> logBuf</text>
<text text-anchor="middle" x="333.5" y="-486.0779" font-family="Helvetica,sans-Serif" font-size="10.00" fill="#000000">MultiLineDelimiter</text>
<text text-anchor="middle" x="333.5" y="-475.0779" font-family="Helvetica,sans-Serif" font-size="10.00" fill="#000000">msgBuf</text>
</g>
<!-- Node31 -->
<g id="node11" class="node">
<title>Node31</title>
<g id="a_node11"><a xlink:href="classaworx_1_1lib_1_1lox_1_1core_1_1textlogger_1_1MetaInfo.html" target="_top" xlink:title="MetaInfo">
<polygon fill="#ffffff" stroke="#000000" points="306,-371.5779 306,-390.5779 361,-390.5779 361,-371.5779 306,-371.5779"/>
<text text-anchor="middle" x="333.5" y="-378.5779" font-family="Helvetica,sans-Serif" font-size="10.00" fill="#000000">MetaInfo</text>
</a>
</g>
</g>
<!-- Node34&#45;&gt;Node31 -->
<g id="edge19" class="edge">
<title>Node34&#45;&gt;Node31</title>
<path fill="none" stroke="#9a32cd" stroke-dasharray="5,2" d="M145.3119,-470.409C179.7038,-462.9465 221.7061,-451.5241 257,-435.0779 282.345,-423.2677 308.166,-402.951 322.3822,-390.8897"/>
<polygon fill="#9a32cd" stroke="#9a32cd" points="144.4274,-467.0185 135.3634,-472.5043 145.8701,-473.8682 144.4274,-467.0185"/>
<text text-anchor="middle" x="216" y="-466.0779" font-family="Helvetica,sans-Serif" font-size="10.00" fill="#000000"> Format</text>
</g>
<!-- Node24 -->
<g id="node6" class="node">
<title>Node24</title>
<g id="a_node6"><a xlink:href="classaworx_1_1lib_1_1strings_1_1PreallocatedStringBase.html" target="_top" xlink:title="PreallocatedStringBase\&lt;TChar\&gt;">
<polygon fill="#ffffff" stroke="#ff0000" points="0,-177.5779 0,-196.5779 157,-196.5779 157,-177.5779 0,-177.5779"/>
<text text-anchor="middle" x="78.5" y="-184.5779" font-family="Helvetica,sans-Serif" font-size="10.00" fill="#000000">PreallocatedStringBase&lt;TChar&gt;</text>
</a>
</g>
</g>
<!-- Node24&#45;&gt;Node6 -->
<g id="edge5" class="edge">
<title>Node24&#45;&gt;Node6</title>
<path fill="none" stroke="#9a32cd" stroke-dasharray="5,2" d="M167.1485,-186.6786C266.5728,-186.2308 422.691,-185.5275 489.9205,-185.2247"/>
<polygon fill="#9a32cd" stroke="#9a32cd" points="167.0954,-183.1787 157.1113,-186.7238 167.127,-190.1786 167.0954,-183.1787"/>
<text text-anchor="middle" x="333.5" y="-222.0779" font-family="Helvetica,sans-Serif" font-size="10.00" fill="#000000"> FmtMsgSuffix</text>
<text text-anchor="middle" x="333.5" y="-211.0779" font-family="Helvetica,sans-Serif" font-size="10.00" fill="#000000">MultiLineDelimiterRepl</text>
<text text-anchor="middle" x="333.5" y="-200.0779" font-family="Helvetica,sans-Serif" font-size="10.00" fill="#000000">FmtMultiLineSuffix</text>
<text text-anchor="middle" x="333.5" y="-189.0779" font-family="Helvetica,sans-Serif" font-size="10.00" fill="#000000">FmtMultiLinePrefix</text>
</g>
<!-- Node24&#45;&gt;Node6 -->
<g id="edge6" class="edge">
<title>Node24&#45;&gt;Node6</title>
<path fill="none" stroke="#9a32cd" stroke-dasharray="5,2" d="M167.359,-176.987C230.1284,-171.1485 316.2242,-165.7373 392,-170.0779 425.4691,-171.9951 463.5304,-176.6565 489.8744,-180.2783"/>
<polygon fill="#9a32cd" stroke="#9a32cd" points="166.7216,-173.5318 157.0986,-177.9644 167.3855,-180.5002 166.7216,-173.5318"/>
<text text-anchor="middle" x="333.5" y="-173.0779" font-family="Helvetica,sans-Serif" font-size="10.00" fill="#000000"> FmtMultiLineMsgHeadline</text>
</g>
<!-- Node7 -->
<g id="node8" class="node">
<title>Node7</title>
<g id="a_node8"><a xlink:href="classaworx_1_1lib_1_1lox_1_1core_1_1Logger.html" target="_top" xlink:title="Logger">
<polygon fill="#ffffff" stroke="#000000" points="310.5,-106.5779 310.5,-125.5779 356.5,-125.5779 356.5,-106.5779 310.5,-106.5779"/>
<text text-anchor="middle" x="333.5" y="-113.5779" font-family="Helvetica,sans-Serif" font-size="10.00" fill="#000000">Logger</text>
</a>
</g>
</g>
<!-- Node24&#45;&gt;Node7 -->
<g id="edge7" class="edge">
<title>Node24&#45;&gt;Node7</title>
<path fill="none" stroke="#9a32cd" stroke-dasharray="5,2" d="M97.3107,-171.1021C115.7654,-156.4708 145.3758,-135.6772 175,-126.0779 221.1638,-111.1193 278.7684,-112.0023 310.2631,-114.0149"/>
<polygon fill="#9a32cd" stroke="#9a32cd" points="94.9715,-168.4932 89.4262,-177.521 99.391,-173.9217 94.9715,-168.4932"/>
<text text-anchor="middle" x="216" y="-140.0779" font-family="Helvetica,sans-Serif" font-size="10.00" fill="#000000"> TypeName</text>
<text text-anchor="middle" x="216" y="-129.0779" font-family="Helvetica,sans-Serif" font-size="10.00" fill="#000000">Name</text>
</g>
<!-- Node24&#45;&gt;Node31 -->
<g id="edge8" class="edge">
<title>Node24&#45;&gt;Node31</title>
<path fill="none" stroke="#9a32cd" stroke-dasharray="5,2" d="M84.984,-206.358C97.1463,-239.4731 126.6112,-306.9744 175,-342.0779 195.7015,-357.0958 266.0066,-370.3244 305.675,-376.821"/>
<polygon fill="#9a32cd" stroke="#9a32cd" points="88.2733,-205.1615 81.6411,-196.8993 81.6734,-207.4941 88.2733,-205.1615"/>
<text text-anchor="middle" x="216" y="-370.0779" font-family="Helvetica,sans-Serif" font-size="10.00" fill="#000000"> DateFormat</text>
</g>
<!-- Node24&#45;&gt;Node31 -->
<g id="edge9" class="edge">
<title>Node24&#45;&gt;Node31</title>
<path fill="none" stroke="#9a32cd" stroke-dasharray="5,2" d="M165.7261,-198.0263C207.1301,-203.8957 249.2844,-211.124 257,-217.0779 272.4339,-228.9878 266.8407,-239.3727 275,-257.0779 294.7258,-299.8818 318.9333,-350.6509 328.8898,-371.4585"/>
<polygon fill="#9a32cd" stroke="#9a32cd" points="166.1884,-194.5569 155.8008,-196.6422 165.2216,-201.4898 166.1884,-194.5569"/>
<text text-anchor="middle" x="216" y="-330.0779" font-family="Helvetica,sans-Serif" font-size="10.00" fill="#000000"> TimeDiffHours</text>
<text text-anchor="middle" x="216" y="-319.0779" font-family="Helvetica,sans-Serif" font-size="10.00" fill="#000000">VerbosityInfo</text>
<text text-anchor="middle" x="216" y="-308.0779" font-family="Helvetica,sans-Serif" font-size="10.00" fill="#000000">VerbosityWarning</text>
<text text-anchor="middle" x="216" y="-297.0779" font-family="Helvetica,sans-Serif" font-size="10.00" fill="#000000">VerbosityVerbose</text>
<text text-anchor="middle" x="216" y="-286.0779" font-family="Helvetica,sans-Serif" font-size="10.00" fill="#000000">TimeDiffMicros</text>
<text text-anchor="middle" x="216" y="-275.0779" font-family="Helvetica,sans-Serif" font-size="10.00" fill="#000000">TimeElapsedDays</text>
<text text-anchor="middle" x="216" y="-264.0779" font-family="Helvetica,sans-Serif" font-size="10.00" fill="#000000">VerbosityError</text>
<text text-anchor="middle" x="216" y="-253.0779" font-family="Helvetica,sans-Serif" font-size="10.00" fill="#000000">TimeOfDayFormat</text>
<text text-anchor="middle" x="216" y="-242.0779" font-family="Helvetica,sans-Serif" font-size="10.00" fill="#000000">TimeDiffMins</text>
<text text-anchor="middle" x="216" y="-231.0779" font-family="Helvetica,sans-Serif" font-size="10.00" fill="#000000">TimeDiffSecs</text>
<text text-anchor="middle" x="216" y="-220.0779" font-family="Helvetica,sans-Serif" font-size="10.00" fill="#000000">...</text>
</g>
<!-- Node6&#45;&gt;Node5 -->
<g id="edge1" class="edge">
<title>Node6&#45;&gt;Node5</title>
<path fill="none" stroke="#191970" d="M565.1682,-185.0779C573.7045,-185.0779 582.829,-185.0779 591.8486,-185.0779"/>
<polygon fill="#191970" stroke="#191970" points="565.0941,-181.578 555.094,-185.0779 565.094,-188.578 565.0941,-181.578"/>
</g>
<!-- Node7&#45;&gt;Node6 -->
<g id="edge2" class="edge">
<title>Node7&#45;&gt;Node6</title>
<path fill="none" stroke="#191970" d="M366.9561,-119.943C395.7973,-124.1652 438.0317,-132.5121 472,-148.0779 487.2163,-155.0508 502.4003,-167.0239 512.0844,-175.458"/>
<polygon fill="#191970" stroke="#191970" points="367.3607,-116.4658 356.9766,-118.5684 366.4054,-123.4003 367.3607,-116.4658"/>
</g>
<!-- Node8 -->
<g id="node9" class="node">
<title>Node8</title>
<g id="a_node9"><a xlink:href="classaworx_1_1lib_1_1threads_1_1SmartLock.html" target="_top" xlink:title="SmartLock">
<polygon fill="#ffffff" stroke="#ff0000" points="46.5,-83.5779 46.5,-102.5779 110.5,-102.5779 110.5,-83.5779 46.5,-83.5779"/>
<text text-anchor="middle" x="78.5" y="-90.5779" font-family="Helvetica,sans-Serif" font-size="10.00" fill="#000000">SmartLock</text>
</a>
</g>
</g>
<!-- Node8&#45;&gt;Node7 -->
<g id="edge3" class="edge">
<title>Node8&#45;&gt;Node7</title>
<path fill="none" stroke="#191970" d="M120.9904,-95.4856C157.1931,-97.7014 210.5773,-101.3572 257,-106.0779 274.9895,-107.9073 295.2796,-110.5881 310.4413,-112.7137"/>
<polygon fill="#191970" stroke="#191970" points="120.9871,-91.9792 110.7948,-94.8719 120.5664,-98.9666 120.9871,-91.9792"/>
</g>
<!-- Node22 -->
<g id="node10" class="node">
<title>Node22</title>
<g id="a_node10"><a xlink:href="classaworx_1_1lib_1_1time_1_1Ticks.html" target="_top" xlink:title="Ticks">
<polygon fill="#ffffff" stroke="#ff0000" points="58,-45.5779 58,-64.5779 99,-64.5779 99,-45.5779 58,-45.5779"/>
<text text-anchor="middle" x="78.5" y="-52.5779" font-family="Helvetica,sans-Serif" font-size="10.00" fill="#000000">Ticks</text>
</a>
</g>
</g>
<!-- Node22&#45;&gt;Node7 -->
<g id="edge4" class="edge">
<title>Node22&#45;&gt;Node7</title>
<path fill="none" stroke="#9a32cd" stroke-dasharray="5,2" d="M109.3556,-51.0336C146.8152,-47.6573 210.7123,-46.9491 257,-73.0779 268.6111,-79.6323 264.1535,-89.3236 275,-97.0779 285.4242,-104.5304 298.9297,-109.171 310.3374,-111.9983"/>
<polygon fill="#9a32cd" stroke="#9a32cd" points="108.6681,-47.5857 99.0776,-52.0882 109.3826,-54.5491 108.6681,-47.5857"/>
<text text-anchor="middle" x="216" y="-87.0779" font-family="Helvetica,sans-Serif" font-size="10.00" fill="#000000"> TimeOfLastLog</text>
<text text-anchor="middle" x="216" y="-76.0779" font-family="Helvetica,sans-Serif" font-size="10.00" fill="#000000">TimeOfCreation</text>
</g>
<!-- Node31&#45;&gt;Node6 -->
<g id="edge15" class="edge">
<title>Node31&#45;&gt;Node6</title>
<path fill="none" stroke="#9a32cd" stroke-dasharray="5,2" d="M349.972,-363.9959C388.3775,-324.1679 482.8868,-226.1583 513.0709,-194.8563"/>
<polygon fill="#9a32cd" stroke="#9a32cd" points="347.2945,-361.7303 342.8725,-371.3583 352.3334,-366.5893 347.2945,-361.7303"/>
<text text-anchor="middle" x="441" y="-303.0779" font-family="Helvetica,sans-Serif" font-size="10.00" fill="#000000"> MetaInfo</text>
</g>
<!-- Node28&#45;&gt;Node6 -->
<g id="edge12" class="edge">
<title>Node28&#45;&gt;Node6</title>
<path fill="none" stroke="#9a32cd" stroke-dasharray="5,2" d="M374.9793,-80.9317C404.2695,-84.6685 443.2619,-93.2762 472,-113.0779 495.385,-129.1911 511.4472,-159.8981 518.4829,-175.4863"/>
<polygon fill="#9a32cd" stroke="#9a32cd" points="374.9945,-77.4111 364.6642,-79.7636 374.2068,-84.3666 374.9945,-77.4111"/>
<text text-anchor="middle" x="441" y="-116.0779" font-family="Helvetica,sans-Serif" font-size="10.00" fill="#000000"> AutoSizes</text>
</g>
<!-- Node30 -->
<g id="node13" class="node">
<title>Node30</title>
<g id="a_node13"><a xlink:href="classaworx_1_1lib_1_1lox_1_1core_1_1textlogger_1_1ObjectConverter.html" target="_top" xlink:title="ObjectConverter">
<polygon fill="#ffffff" stroke="#000000" points="289.5,-30.5779 289.5,-49.5779 377.5,-49.5779 377.5,-30.5779 289.5,-30.5779"/>
<text text-anchor="middle" x="333.5" y="-37.5779" font-family="Helvetica,sans-Serif" font-size="10.00" fill="#000000">ObjectConverter</text>
</a>
</g>
</g>
<!-- Node30&#45;&gt;Node6 -->
<g id="edge14" class="edge">
<title>Node30&#45;&gt;Node6</title>
<path fill="none" stroke="#9a32cd" stroke-dasharray="5,2" d="M387.5913,-41.3645C415.4895,-44.597 448.4988,-52.7292 472,-72.0779 505.344,-99.5303 517.4593,-153.535 521.1259,-175.473"/>
<polygon fill="#9a32cd" stroke="#9a32cd" points="387.8648,-37.8746 377.5713,-40.3835 387.1827,-44.8413 387.8648,-37.8746"/>
<text text-anchor="middle" x="441" y="-75.0779" font-family="Helvetica,sans-Serif" font-size="10.00" fill="#000000"> Converter</text>
</g>
<!-- Node32 -->
<g id="node14" class="node">
<title>Node32</title>
<g id="a_node14"><a xlink:href="classaworx_1_1lib_1_1time_1_1CalendarDateTime.html" target="_top" xlink:title="CalendarDateTime">
<polygon fill="#ffffff" stroke="#000000" points="29.5,-424.5779 29.5,-443.5779 127.5,-443.5779 127.5,-424.5779 29.5,-424.5779"/>
<text text-anchor="middle" x="78.5" y="-431.5779" font-family="Helvetica,sans-Serif" font-size="10.00" fill="#000000">CalendarDateTime</text>
</a>
</g>
</g>
<!-- Node32&#45;&gt;Node31 -->
<g id="edge16" class="edge">
<title>Node32&#45;&gt;Node31</title>
<path fill="none" stroke="#9a32cd" stroke-dasharray="5,2" d="M137.7793,-426.6142C172.7208,-421.6776 217.6543,-414.3955 257,-405.0779 273.6602,-401.1326 291.971,-395.4381 306.5003,-390.586"/>
<polygon fill="#9a32cd" stroke="#9a32cd" points="137.163,-423.1661 127.7389,-428.0072 138.1251,-430.0996 137.163,-423.1661"/>
<text text-anchor="middle" x="216" y="-423.0779" font-family="Helvetica,sans-Serif" font-size="10.00" fill="#000000"> callerDateTime</text>
</g>
<!-- Node33 -->
<g id="node15" class="node">
<title>Node33</title>
<g id="a_node15"><a xlink:href="classaworx_1_1lib_1_1time_1_1TicksConverter.html" target="_top" xlink:title="TicksConverter">
<polygon fill="#ffffff" stroke="#000000" points="37,-386.5779 37,-405.5779 120,-405.5779 120,-386.5779 37,-386.5779"/>
<text text-anchor="middle" x="78.5" y="-393.5779" font-family="Helvetica,sans-Serif" font-size="10.00" fill="#000000">TicksConverter</text>
</a>
</g>
</g>
<!-- Node33&#45;&gt;Node31 -->
<g id="edge17" class="edge">
<title>Node33&#45;&gt;Node31</title>
<path fill="none" stroke="#9a32cd" stroke-dasharray="5,2" d="M130.2596,-393.0333C183.2951,-389.9135 263.7563,-385.1805 305.7622,-382.7096"/>
<polygon fill="#9a32cd" stroke="#9a32cd" points="129.8149,-389.5533 120.0377,-393.6345 130.226,-396.5412 129.8149,-389.5533"/>
<text text-anchor="middle" x="216" y="-393.0779" font-family="Helvetica,sans-Serif" font-size="10.00" fill="#000000"> DateConverter</text>
</g>
</g>
</svg>
