<?xml version="1.0" encoding="UTF-8" standalone="no"?>
<!DOCTYPE svg PUBLIC "-//W3C//DTD SVG 1.1//EN"
 "http://www.w3.org/Graphics/SVG/1.1/DTD/svg11.dtd">
<!-- Generated by graphviz version 2.40.1 (20161225.0304)
 -->
<!-- Title: Configuration::Iterator Pages: 1 -->
<svg width="1355pt" height="277pt"
 viewBox="0.00 0.00 1355.00 277.00" xmlns="http://www.w3.org/2000/svg" xmlns:xlink="http://www.w3.org/1999/xlink">
<g id="graph0" class="graph" transform="scale(1 1) rotate(0) translate(4 273)">
<title>Configuration::Iterator</title>
<polygon fill="#ffffff" stroke="transparent" points="-4,4 -4,-273 1351,-273 1351,4 -4,4"/>
<!-- Node1 -->
<g id="node1" class="node">
<title>Node1</title>
<polygon fill="#bfbfbf" stroke="#000000" points="1236,-162.5 1236,-181.5 1347,-181.5 1347,-162.5 1236,-162.5"/>
<text text-anchor="middle" x="1291.5" y="-169.5" font-family="Helvetica,sans-Serif" font-size="10.00" fill="#000000">Configuration::Iterator</text>
</g>
<!-- Node3 -->
<g id="node2" class="node">
<title>Node3</title>
<polygon fill="#ffffff" stroke="#bfbfbf" points="854.5,-183.5 854.5,-202.5 964.5,-202.5 964.5,-183.5 854.5,-183.5"/>
<text text-anchor="middle" x="909.5" y="-190.5" font-family="Helvetica,sans-Serif" font-size="10.00" fill="#000000">vector&lt;AStringBase&gt;</text>
</g>
<!-- Node2 -->
<g id="node11" class="node">
<title>Node2</title>
<g id="a_node11"><a xlink:href="classaworx_1_1lib_1_1config_1_1Variable.html" target="_top" xlink:title="Variable">
<polygon fill="#ffffff" stroke="#000000" points="1118,-162.5 1118,-181.5 1169,-181.5 1169,-162.5 1118,-162.5"/>
<text text-anchor="middle" x="1143.5" y="-169.5" font-family="Helvetica,sans-Serif" font-size="10.00" fill="#000000">Variable</text>
</a>
</g>
</g>
<!-- Node3&#45;&gt;Node2 -->
<g id="edge2" class="edge">
<title>Node3&#45;&gt;Node2</title>
<path fill="none" stroke="#9a32cd" stroke-dasharray="5,2" d="M956.7403,-181.272C972.3233,-177.9241 989.8103,-174.7196 1006,-173 1044.8127,-168.8776 1090.1347,-169.613 1117.8197,-170.6827"/>
<polygon fill="#9a32cd" stroke="#9a32cd" points="955.8107,-177.8931 946.8078,-183.4786 957.3289,-184.7265 955.8107,-177.8931"/>
<text text-anchor="middle" x="1053" y="-176" font-family="Helvetica,sans-Serif" font-size="10.00" fill="#000000"> values</text>
</g>
<!-- Node11 -->
<g id="node3" class="node">
<title>Node11</title>
<g id="a_node3"><a xlink:href="classaworx_1_1lib_1_1util_1_1PluginContainer.html" target="_top" xlink:title="PluginContainer\&lt;ConfigurationPlugin, Priorities\&gt;">
<polygon fill="#ffffff" stroke="#ff0000" points="444,-178.5 444,-197.5 671,-197.5 671,-178.5 444,-178.5"/>
<text text-anchor="middle" x="557.5" y="-185.5" font-family="Helvetica,sans-Serif" font-size="10.00" fill="#000000">PluginContainer&lt;ConfigurationPlugin, Priorities&gt;</text>
</a>
</g>
</g>
<!-- Node10 -->
<g id="node12" class="node">
<title>Node10</title>
<g id="a_node12"><a xlink:href="classaworx_1_1lib_1_1config_1_1Configuration.html" target="_top" xlink:title="Configuration">
<polygon fill="#ffffff" stroke="#000000" points="872.5,-128.5 872.5,-147.5 946.5,-147.5 946.5,-128.5 872.5,-128.5"/>
<text text-anchor="middle" x="909.5" y="-135.5" font-family="Helvetica,sans-Serif" font-size="10.00" fill="#000000">Configuration</text>
</a>
</g>
</g>
<!-- Node11&#45;&gt;Node10 -->
<g id="edge8" class="edge">
<title>Node11&#45;&gt;Node10</title>
<path fill="none" stroke="#191970" d="M680.1859,-177.4446C722.4211,-173.0458 769.9185,-167.2468 813,-160 832.6565,-156.6936 854.3129,-151.8665 872.1209,-147.5757"/>
<polygon fill="#191970" stroke="#191970" points="679.7252,-173.9734 670.1346,-178.4756 680.4395,-180.9369 679.7252,-173.9734"/>
</g>
<!-- Node25 -->
<g id="node4" class="node">
<title>Node25</title>
<polygon fill="#ffffff" stroke="#bfbfbf" points="505.5,-140.5 505.5,-159.5 609.5,-159.5 609.5,-140.5 505.5,-140.5"/>
<text text-anchor="middle" x="557.5" y="-147.5" font-family="Helvetica,sans-Serif" font-size="10.00" fill="#000000">vector&lt;StringBase&gt;</text>
</g>
<!-- Node25&#45;&gt;Node10 -->
<g id="edge14" class="edge">
<title>Node25&#45;&gt;Node10</title>
<path fill="none" stroke="#9a32cd" stroke-dasharray="5,2" d="M619.8358,-147.8749C693.0677,-145.3784 812.1811,-141.3177 872.2907,-139.2685"/>
<polygon fill="#9a32cd" stroke="#9a32cd" points="619.6928,-144.3777 609.8179,-148.2164 619.9313,-151.3736 619.6928,-144.3777"/>
<text text-anchor="middle" x="751" y="-148" font-family="Helvetica,sans-Serif" font-size="10.00" fill="#000000"> TrueValues</text>
</g>
<!-- Node4 -->
<g id="node5" class="node">
<title>Node4</title>
<g id="a_node5"><a xlink:href="classaworx_1_1lib_1_1strings_1_1AStringBase.html" target="_top" xlink:title="AStringBase\&lt;TChar\&gt;">
<polygon fill="#ffffff" stroke="#ff0000" points="502.5,-223.5 502.5,-242.5 612.5,-242.5 612.5,-223.5 502.5,-223.5"/>
<text text-anchor="middle" x="557.5" y="-230.5" font-family="Helvetica,sans-Serif" font-size="10.00" fill="#000000">AStringBase&lt;TChar&gt;</text>
</a>
</g>
</g>
<!-- Node4&#45;&gt;Node3 -->
<g id="edge3" class="edge">
<title>Node4&#45;&gt;Node3</title>
<path fill="none" stroke="#9a32cd" stroke-dasharray="5,2" d="M622.8601,-225.5727C689.5117,-217.9987 791.7743,-206.3779 854.4358,-199.2573"/>
<polygon fill="#9a32cd" stroke="#9a32cd" points="622.4281,-222.0992 612.8872,-226.706 623.2185,-229.0544 622.4281,-222.0992"/>
<text text-anchor="middle" x="751" y="-220" font-family="Helvetica,sans-Serif" font-size="10.00" fill="#000000"> elements</text>
</g>
<!-- Node8 -->
<g id="node10" class="node">
<title>Node8</title>
<g id="a_node10"><a xlink:href="classaworx_1_1lib_1_1strings_1_1PreallocatedStringBase.html" target="_top" xlink:title="PreallocatedStringBase\&lt;TChar\&gt;">
<polygon fill="#ffffff" stroke="#000000" points="831,-231.5 831,-250.5 988,-250.5 988,-231.5 831,-231.5"/>
<text text-anchor="middle" x="909.5" y="-238.5" font-family="Helvetica,sans-Serif" font-size="10.00" fill="#000000">PreallocatedStringBase&lt;TChar&gt;</text>
</a>
</g>
</g>
<!-- Node4&#45;&gt;Node8 -->
<g id="edge4" class="edge">
<title>Node4&#45;&gt;Node8</title>
<path fill="none" stroke="#191970" d="M623.1759,-234.4926C682.0124,-235.8298 768.4133,-237.7935 830.9023,-239.2137"/>
<polygon fill="#191970" stroke="#191970" points="622.9642,-230.987 612.8872,-234.2588 622.8051,-237.9852 622.9642,-230.987"/>
</g>
<!-- Node21 -->
<g id="node6" class="node">
<title>Node21</title>
<g id="a_node6"><a xlink:href="classaworx_1_1lib_1_1strings_1_1StringBase.html" target="_top" xlink:title="StringBase\&lt;character\&gt;">
<polygon fill="#ffffff" stroke="#000000" points="0,-52.5 0,-71.5 117,-71.5 117,-52.5 0,-52.5"/>
<text text-anchor="middle" x="58.5" y="-59.5" font-family="Helvetica,sans-Serif" font-size="10.00" fill="#000000">StringBase&lt;character&gt;</text>
</a>
</g>
</g>
<!-- Node23 -->
<g id="node8" class="node">
<title>Node23</title>
<g id="a_node8"><a xlink:href="classaworx_1_1lib_1_1strings_1_1TStringBase.html" target="_top" xlink:title="TStringBase\&lt;character\&gt;">
<polygon fill="#ffffff" stroke="#000000" points="154,-2.5 154,-21.5 277,-21.5 277,-2.5 154,-2.5"/>
<text text-anchor="middle" x="215.5" y="-9.5" font-family="Helvetica,sans-Serif" font-size="10.00" fill="#000000">TStringBase&lt;character&gt;</text>
</a>
</g>
</g>
<!-- Node21&#45;&gt;Node23 -->
<g id="edge10" class="edge">
<title>Node21&#45;&gt;Node23</title>
<path fill="none" stroke="#191970" d="M97.9851,-49.4251C125.1213,-40.783 160.5983,-29.4846 185.4443,-21.5719"/>
<polygon fill="#191970" stroke="#191970" points="96.8664,-46.1081 88.4,-52.4777 98.9906,-52.778 96.8664,-46.1081"/>
</g>
<!-- Node21&#45;&gt;Node10 -->
<g id="edge9" class="edge">
<title>Node21&#45;&gt;Node10</title>
<path fill="none" stroke="#9a32cd" stroke-dasharray="5,2" d="M127.3264,-70.8831C174.4712,-76.7873 238.4559,-84.4466 295,-90 513.5843,-111.4679 776.6754,-129.3668 872.3966,-135.6198"/>
<polygon fill="#9a32cd" stroke="#9a32cd" points="127.5888,-67.3886 117.2302,-69.6133 126.7152,-74.3339 127.5888,-67.3886"/>
<text text-anchor="middle" x="360.5" y="-126" font-family="Helvetica,sans-Serif" font-size="10.00" fill="#000000"> SubstitutionVariableStart</text>
<text text-anchor="middle" x="360.5" y="-115" font-family="Helvetica,sans-Serif" font-size="10.00" fill="#000000">SubstitutionVariableEnd</text>
<text text-anchor="middle" x="360.5" y="-104" font-family="Helvetica,sans-Serif" font-size="10.00" fill="#000000">SubstitutionVariableDelimiters</text>
</g>
<!-- Node22 -->
<g id="node7" class="node">
<title>Node22</title>
<g id="a_node7"><a xlink:href="classaworx_1_1lib_1_1strings_1_1NumberFormatBase.html" target="_top" xlink:title="NumberFormatBase\&lt;character\&gt;">
<polygon fill="#ffffff" stroke="#ff0000" points="479,-36.5 479,-55.5 636,-55.5 636,-36.5 479,-36.5"/>
<text text-anchor="middle" x="557.5" y="-43.5" font-family="Helvetica,sans-Serif" font-size="10.00" fill="#000000">NumberFormatBase&lt;character&gt;</text>
</a>
</g>
</g>
<!-- Node22&#45;&gt;Node10 -->
<g id="edge11" class="edge">
<title>Node22&#45;&gt;Node10</title>
<path fill="none" stroke="#9a32cd" stroke-dasharray="5,2" d="M646.3577,-53.0543C696.2843,-58.7904 759.1879,-69.0089 813,-87 843.9109,-97.3345 876.8469,-116.8042 895.1331,-128.4686"/>
<polygon fill="#9a32cd" stroke="#9a32cd" points="646.5556,-49.5549 636.2308,-51.9315 645.7842,-56.5122 646.5556,-49.5549"/>
<text text-anchor="middle" x="751" y="-90" font-family="Helvetica,sans-Serif" font-size="10.00" fill="#000000"> NumberFormat</text>
</g>
<!-- Node23&#45;&gt;Node22 -->
<g id="edge12" class="edge">
<title>Node23&#45;&gt;Node22</title>
<path fill="none" stroke="#9a32cd" stroke-dasharray="5,2" d="M287.1389,-8.0802C327.9843,-6.9088 380.0389,-7.2102 426,-13 461.7304,-17.501 501.7227,-28.4093 528.1199,-36.4584"/>
<polygon fill="#9a32cd" stroke="#9a32cd" points="286.8884,-4.5864 277.0066,-8.4073 287.1143,-11.5828 286.8884,-4.5864"/>
<text text-anchor="middle" x="360.5" y="-82" font-family="Helvetica,sans-Serif" font-size="10.00" fill="#000000"> Whitespaces</text>
<text text-anchor="middle" x="360.5" y="-71" font-family="Helvetica,sans-Serif" font-size="10.00" fill="#000000">OctLiteralPrefix</text>
<text text-anchor="middle" x="360.5" y="-60" font-family="Helvetica,sans-Serif" font-size="10.00" fill="#000000">INFLiteral</text>
<text text-anchor="middle" x="360.5" y="-49" font-family="Helvetica,sans-Serif" font-size="10.00" fill="#000000">NANLiteral</text>
<text text-anchor="middle" x="360.5" y="-38" font-family="Helvetica,sans-Serif" font-size="10.00" fill="#000000">ExponentSeparator</text>
<text text-anchor="middle" x="360.5" y="-27" font-family="Helvetica,sans-Serif" font-size="10.00" fill="#000000">BinLiteralPrefix</text>
<text text-anchor="middle" x="360.5" y="-16" font-family="Helvetica,sans-Serif" font-size="10.00" fill="#000000">HexLiteralPrefix</text>
</g>
<!-- Node27 -->
<g id="node9" class="node">
<title>Node27</title>
<g id="a_node9"><a xlink:href="classaworx_1_1lib_1_1strings_1_1AStringBase.html" target="_top" xlink:title="AStringBase\&lt;character\&gt;">
<polygon fill="#ffffff" stroke="#000000" points="689,-.5 689,-19.5 813,-19.5 813,-.5 689,-.5"/>
<text text-anchor="middle" x="751" y="-7.5" font-family="Helvetica,sans-Serif" font-size="10.00" fill="#000000">AStringBase&lt;character&gt;</text>
</a>
</g>
</g>
<!-- Node23&#45;&gt;Node27 -->
<g id="edge13" class="edge">
<title>Node23&#45;&gt;Node27</title>
<path fill="none" stroke="#191970" d="M287.2498,-4.448C289.8644,-4.2784 292.4543,-4.1278 295,-4 435.7517,3.064 601.2281,-2.5961 688.9987,-6.7011"/>
<polygon fill="#191970" stroke="#191970" points="286.8038,-.9711 277.0841,-5.1876 287.3117,-7.9526 286.8038,-.9711"/>
</g>
<!-- Node27&#45;&gt;Node2 -->
<g id="edge15" class="edge">
<title>Node27&#45;&gt;Node2</title>
<path fill="none" stroke="#9a32cd" stroke-dasharray="5,2" d="M800.448,-22.0541C870.255,-40.33 1000.2986,-79.0599 1100,-136 1112.7687,-143.2923 1125.5086,-154.3985 1133.8697,-162.3457"/>
<polygon fill="#9a32cd" stroke="#9a32cd" points="801.1543,-18.6217 790.5965,-19.5064 799.4016,-25.3987 801.1543,-18.6217"/>
<text text-anchor="middle" x="909.5" y="-94" font-family="Helvetica,sans-Serif" font-size="10.00" fill="#000000"> DefaultValue</text>
<text text-anchor="middle" x="909.5" y="-83" font-family="Helvetica,sans-Serif" font-size="10.00" fill="#000000">Comments</text>
</g>
<!-- Node8&#45;&gt;Node2 -->
<g id="edge5" class="edge">
<title>Node8&#45;&gt;Node2</title>
<path fill="none" stroke="#9a32cd" stroke-dasharray="5,2" d="M944.293,-227.8058C962.5279,-221.1295 985.3153,-213.1581 1006,-207 1047.2221,-194.7276 1058.3759,-194.8311 1100,-184 1105.7621,-182.5006 1111.9368,-180.8339 1117.7713,-179.2313"/>
<polygon fill="#9a32cd" stroke="#9a32cd" points="942.8392,-224.6116 934.6731,-231.3619 945.2664,-231.1774 942.8392,-224.6116"/>
<text text-anchor="middle" x="1053" y="-232" font-family="Helvetica,sans-Serif" font-size="10.00" fill="#000000"> Fullname</text>
<text text-anchor="middle" x="1053" y="-221" font-family="Helvetica,sans-Serif" font-size="10.00" fill="#000000">Category</text>
<text text-anchor="middle" x="1053" y="-210" font-family="Helvetica,sans-Serif" font-size="10.00" fill="#000000">Name</text>
</g>
<!-- Node8&#45;&gt;Node2 -->
<g id="edge6" class="edge">
<title>Node8&#45;&gt;Node2</title>
<path fill="none" stroke="#9a32cd" stroke-dasharray="5,2" d="M955.6495,-252.4965C996.2642,-260.001 1055.6677,-264.419 1100,-240 1122.8323,-227.4235 1135.4498,-197.2255 1140.6428,-181.6513"/>
<polygon fill="#9a32cd" stroke="#9a32cd" points="956.2383,-249.0452 945.7492,-250.5377 954.8797,-255.9121 956.2383,-249.0452"/>
<text text-anchor="middle" x="1053" y="-261" font-family="Helvetica,sans-Serif" font-size="10.00" fill="#000000"> FormatAttrAlignment</text>
</g>
<!-- Node2&#45;&gt;Node1 -->
<g id="edge1" class="edge">
<title>Node2&#45;&gt;Node1</title>
<path fill="none" stroke="#9a32cd" stroke-dasharray="5,2" d="M1179.3346,-172C1196.3288,-172 1217.0205,-172 1235.9824,-172"/>
<polygon fill="#9a32cd" stroke="#9a32cd" points="1179.2797,-168.5001 1169.2796,-172 1179.2796,-175.5001 1179.2797,-168.5001"/>
<text text-anchor="middle" x="1202.5" y="-175" font-family="Helvetica,sans-Serif" font-size="10.00" fill="#000000"> Actual</text>
</g>
<!-- Node10&#45;&gt;Node2 -->
<g id="edge7" class="edge">
<title>Node10&#45;&gt;Node2</title>
<path fill="none" stroke="#9a32cd" stroke-dasharray="5,2" d="M956.5603,-137.9422C995.5129,-138.8448 1052.0358,-142.3606 1100,-154 1108.1014,-155.966 1116.6528,-159.2228 1124.0094,-162.4298"/>
<polygon fill="#9a32cd" stroke="#9a32cd" points="956.6197,-134.4428 946.5572,-137.7589 956.4914,-141.4416 956.6197,-134.4428"/>
<text text-anchor="middle" x="1053" y="-157" font-family="Helvetica,sans-Serif" font-size="10.00" fill="#000000"> Config</text>
</g>
</g>
</svg>
