<?xml version="1.0" encoding="UTF-8" standalone="no"?>
<!DOCTYPE svg PUBLIC "-//W3C//DTD SVG 1.1//EN"
 "http://www.w3.org/Graphics/SVG/1.1/DTD/svg11.dtd">
<!-- Generated by graphviz version 2.40.1 (20161225.0304)
 -->
<!-- Title: StringTree&lt;T, TAllocator, TSeparator&gt;::StdIterator Pages: 1 -->
<svg width="995pt" height="138pt"
 viewBox="0.00 0.00 995.00 138.00" xmlns="http://www.w3.org/2000/svg" xmlns:xlink="http://www.w3.org/1999/xlink">
<g id="graph0" class="graph" transform="scale(1 1) rotate(0) translate(4 134)">
<title>StringTree&lt;T, TAllocator, TSeparator&gt;::StdIterator</title>
<polygon fill="#ffffff" stroke="transparent" points="-4,4 -4,-134 991,-134 991,4 -4,4"/>
<!-- Node2 -->
<g id="node1" class="node">
<title>Node2</title>
<polygon fill="#bfbfbf" stroke="#000000" points="754,-72.5 754,-91.5 987,-91.5 987,-72.5 754,-72.5"/>
<text text-anchor="middle" x="870.5" y="-79.5" font-family="Helvetica,sans-Serif" font-size="10.00" fill="#000000">StringTree&lt;T, TAllocator, TSeparator&gt;::StdIterator</text>
</g>
<!-- Node3 -->
<g id="node2" class="node">
<title>Node3</title>
<polygon fill="#ffffff" stroke="#bfbfbf" points="504,-110.5 504,-129.5 650,-129.5 650,-110.5 504,-110.5"/>
<text text-anchor="middle" x="577" y="-117.5" font-family="Helvetica,sans-Serif" font-size="10.00" fill="#000000">iterator&lt;input_iterator_tag, T&gt;</text>
</g>
<!-- Node3&#45;&gt;Node2 -->
<g id="edge1" class="edge">
<title>Node3&#45;&gt;Node2</title>
<path fill="none" stroke="#191970" d="M660.4793,-109.1918C703.5443,-103.6161 755.6001,-96.8763 797.112,-91.5017"/>
<polygon fill="#191970" stroke="#191970" points="659.7731,-105.7539 650.3053,-110.509 660.672,-112.696 659.7731,-105.7539"/>
</g>
<!-- Node4 -->
<g id="node3" class="node">
<title>Node4</title>
<polygon fill="#ffffff" stroke="#bfbfbf" points="464,-72.5 464,-91.5 690,-91.5 690,-72.5 464,-72.5"/>
<text text-anchor="middle" x="577" y="-79.5" font-family="Helvetica,sans-Serif" font-size="10.00" fill="#000000">stack&lt;StringTree::StdIterator::RecursionDataIt&gt;</text>
</g>
<!-- Node4&#45;&gt;Node2 -->
<g id="edge2" class="edge">
<title>Node4&#45;&gt;Node2</title>
<path fill="none" stroke="#9a32cd" stroke-dasharray="5,2" d="M700.3773,-82C718.0132,-82 736.1113,-82 753.6173,-82"/>
<polygon fill="#9a32cd" stroke="#9a32cd" points="700.055,-78.5001 690.0549,-82 700.0549,-85.5001 700.055,-78.5001"/>
<text text-anchor="middle" x="722" y="-85" font-family="Helvetica,sans-Serif" font-size="10.00" fill="#000000"> stack</text>
</g>
<!-- Node9 -->
<g id="node4" class="node">
<title>Node9</title>
<g id="a_node4"><a xlink:href="classaworx_1_1lib_1_1util_1_1StringTree.html" target="_top" xlink:title="StringTree\&lt;T, TAllocator, TSeparator\&gt;">
<polygon fill="#ffffff" stroke="#000000" points="204,-33.5 204,-52.5 385,-52.5 385,-33.5 204,-33.5"/>
<text text-anchor="middle" x="294.5" y="-40.5" font-family="Helvetica,sans-Serif" font-size="10.00" fill="#000000">StringTree&lt;T, TAllocator, TSeparator&gt;</text>
</a>
</g>
</g>
<!-- Node9&#45;&gt;Node2 -->
<g id="edge8" class="edge">
<title>Node9&#45;&gt;Node2</title>
<path fill="none" stroke="#9a32cd" stroke-dasharray="5,2" d="M395.1117,-41.3608C475.1813,-41.0025 589.9983,-42.5997 690,-52 736.0177,-56.3257 788.0335,-65.4253 824.3641,-72.4748"/>
<polygon fill="#9a32cd" stroke="#9a32cd" points="395.0128,-37.8612 385.0325,-41.417 395.0519,-44.8611 395.0128,-37.8612"/>
<text text-anchor="middle" x="577" y="-55" font-family="Helvetica,sans-Serif" font-size="10.00" fill="#000000"> stringTree</text>
</g>
<!-- Node6 -->
<g id="node5" class="node">
<title>Node6</title>
<g id="a_node5"><a xlink:href="classaworx_1_1lib_1_1strings_1_1StringBase.html" target="_top" xlink:title="StringBase\&lt;character\&gt;">
<polygon fill="#ffffff" stroke="#000000" points="0,-105.5 0,-124.5 117,-124.5 117,-105.5 0,-105.5"/>
<text text-anchor="middle" x="58.5" y="-112.5" font-family="Helvetica,sans-Serif" font-size="10.00" fill="#000000">StringBase&lt;character&gt;</text>
</a>
</g>
</g>
<!-- Node5 -->
<g id="node6" class="node">
<title>Node5</title>
<g id="a_node6"><a xlink:href="structaworx_1_1lib_1_1util_1_1StringTree_1_1StdIterator_1_1RecursionDataIt.html" target="_top" xlink:title="Simple pair of a node pointer and its current child. ">
<polygon fill="#ffffff" stroke="#000000" points="250.5,-72.5 250.5,-91.5 338.5,-91.5 338.5,-72.5 250.5,-72.5"/>
<text text-anchor="middle" x="294.5" y="-79.5" font-family="Helvetica,sans-Serif" font-size="10.00" fill="#000000">RecursionDataIt</text>
</a>
</g>
</g>
<!-- Node6&#45;&gt;Node5 -->
<g id="edge4" class="edge">
<title>Node6&#45;&gt;Node5</title>
<path fill="none" stroke="#9a32cd" stroke-dasharray="5,2" d="M127.2806,-105.3824C166.9563,-99.8345 215.6768,-93.0219 250.2714,-88.1845"/>
<polygon fill="#9a32cd" stroke="#9a32cd" points="126.5592,-101.9491 117.1403,-106.8003 127.5287,-108.8817 126.5592,-101.9491"/>
<text text-anchor="middle" x="160.5" y="-106" font-family="Helvetica,sans-Serif" font-size="10.00" fill="#000000"> nodeName</text>
</g>
<!-- Node5&#45;&gt;Node4 -->
<g id="edge3" class="edge">
<title>Node5&#45;&gt;Node4</title>
<path fill="none" stroke="#9a32cd" stroke-dasharray="5,2" d="M348.8486,-82C381.4327,-82 424.1077,-82 463.7242,-82"/>
<polygon fill="#9a32cd" stroke="#9a32cd" points="348.6407,-78.5001 338.6406,-82 348.6406,-85.5001 348.6407,-78.5001"/>
<text text-anchor="middle" x="424.5" y="-85" font-family="Helvetica,sans-Serif" font-size="10.00" fill="#000000"> elements</text>
</g>
<!-- Node7 -->
<g id="node7" class="node">
<title>Node7</title>
<g id="a_node7"><a xlink:href="classaworx_1_1lib_1_1util_1_1StringTree_1_1Node.html" target="_top" xlink:title="Node">
<polygon fill="#ffffff" stroke="#ff0000" points="38.5,-38.5 38.5,-57.5 78.5,-57.5 78.5,-38.5 38.5,-38.5"/>
<text text-anchor="middle" x="58.5" y="-45.5" font-family="Helvetica,sans-Serif" font-size="10.00" fill="#000000">Node</text>
</a>
</g>
</g>
<!-- Node7&#45;&gt;Node9 -->
<g id="edge7" class="edge">
<title>Node7&#45;&gt;Node9</title>
<path fill="none" stroke="#9a32cd" stroke-dasharray="5,2" d="M88.9141,-47.3556C117.9516,-46.7404 163.1792,-45.7822 203.8284,-44.921"/>
<polygon fill="#9a32cd" stroke="#9a32cd" points="88.5448,-43.8626 78.6212,-47.5737 88.6932,-50.861 88.5448,-43.8626"/>
<text text-anchor="middle" x="160.5" y="-49" font-family="Helvetica,sans-Serif" font-size="10.00" fill="#000000"> root</text>
</g>
<!-- Node7&#45;&gt;Node5 -->
<g id="edge5" class="edge">
<title>Node7&#45;&gt;Node5</title>
<path fill="none" stroke="#9a32cd" stroke-dasharray="5,2" d="M88.7791,-52.3622C129.7166,-58.26 203.0094,-68.8192 250.1578,-75.6117"/>
<polygon fill="#9a32cd" stroke="#9a32cd" points="89.0182,-48.8606 78.6212,-50.8988 88.0199,-55.7891 89.0182,-48.8606"/>
<text text-anchor="middle" x="160.5" y="-69" font-family="Helvetica,sans-Serif" font-size="10.00" fill="#000000"> node</text>
</g>
<!-- Node7&#45;&gt;Node7 -->
<g id="edge6" class="edge">
<title>Node7&#45;&gt;Node7</title>
<path fill="none" stroke="#9a32cd" stroke-dasharray="5,2" d="M39.612,-67.4C40.8734,-72.3146 47.1694,-76 58.5,-76 76.6289,-76 81.8693,-66.5653 74.2212,-57.7571"/>
<polygon fill="#9a32cd" stroke="#9a32cd" points="42.9839,-68.3499 42.7788,-57.7571 36.3334,-66.1658 42.9839,-68.3499"/>
<text text-anchor="middle" x="58.5" y="-79" font-family="Helvetica,sans-Serif" font-size="10.00" fill="#000000"> parent</text>
</g>
<!-- Node10 -->
<g id="node8" class="node">
<title>Node10</title>
<polygon fill="#ffffff" stroke="#bfbfbf" points="28.5,-.5 28.5,-19.5 88.5,-19.5 88.5,-.5 28.5,-.5"/>
<text text-anchor="middle" x="58.5" y="-7.5" font-family="Helvetica,sans-Serif" font-size="10.00" fill="#000000">TAllocator</text>
</g>
<!-- Node10&#45;&gt;Node9 -->
<g id="edge9" class="edge">
<title>Node10&#45;&gt;Node9</title>
<path fill="none" stroke="#191970" d="M99.1429,-15.6831C134.0035,-20.5577 184.968,-27.6841 226.1016,-33.4358"/>
<polygon fill="#191970" stroke="#191970" points="99.2581,-12.1653 88.8697,-14.2466 98.2887,-19.0978 99.2581,-12.1653"/>
</g>
</g>
</svg>
