<?xml version="1.0" encoding="UTF-8" standalone="no"?>
<!DOCTYPE svg PUBLIC "-//W3C//DTD SVG 1.1//EN"
 "http://www.w3.org/Graphics/SVG/1.1/DTD/svg11.dtd">
<!-- Generated by graphviz version 2.40.1 (20161225.0304)
 -->
<!-- Title: IIsLess Pages: 1 -->
<svg width="286pt" height="180pt"
 viewBox="0.00 0.00 286.00 180.00" xmlns="http://www.w3.org/2000/svg" xmlns:xlink="http://www.w3.org/1999/xlink">
<g id="graph0" class="graph" transform="scale(1 1) rotate(0) translate(4 176)">
<title>IIsLess</title>
<polygon fill="#ffffff" stroke="transparent" points="-4,4 -4,-176 282,-176 282,4 -4,4"/>
<!-- Node0 -->
<g id="node1" class="node">
<title>Node0</title>
<polygon fill="#bfbfbf" stroke="#000000" points="91,-76.5 91,-95.5 140,-95.5 140,-76.5 91,-76.5"/>
<text text-anchor="middle" x="115.5" y="-83.5" font-family="Helvetica,sans-Serif" font-size="10.00" fill="#000000">IIsLess</text>
</g>
<!-- Node2 -->
<g id="node2" class="node">
<title>Node2</title>
<g id="a_node2"><a xlink:href="classaworx_1_1lib_1_1boxing_1_1ftypes_1_1IIsLess__boxed__int.html" target="_top" xlink:title="Implements &#39;IsLess&#39; &#45; interface for boxed boxed_int values. ">
<polygon fill="#ffffff" stroke="#000000" points="179,-152.5 179,-171.5 275,-171.5 275,-152.5 179,-152.5"/>
<text text-anchor="middle" x="227" y="-159.5" font-family="Helvetica,sans-Serif" font-size="10.00" fill="#000000">IIsLess_boxed_int</text>
</a>
</g>
</g>
<!-- Node0&#45;&gt;Node2 -->
<g id="edge1" class="edge">
<title>Node0&#45;&gt;Node2</title>
<path fill="none" stroke="#191970" d="M130.2762,-103.215C141.7123,-115.6587 158.5061,-132.1265 176,-143 181.9384,-146.691 188.705,-149.8358 195.325,-152.4416"/>
<polygon fill="#191970" stroke="#191970" points="132.8527,-100.8456 123.5812,-95.7181 127.6316,-105.5082 132.8527,-100.8456"/>
</g>
<!-- Node3 -->
<g id="node3" class="node">
<title>Node3</title>
<g id="a_node3"><a xlink:href="classaworx_1_1lib_1_1boxing_1_1ftypes_1_1IIsLess__boxed__uint.html" target="_top" xlink:title="Implements &#39;IsLess&#39; &#45; interface for boxed boxed_uint values. ">
<polygon fill="#ffffff" stroke="#000000" points="176.5,-114.5 176.5,-133.5 277.5,-133.5 277.5,-114.5 176.5,-114.5"/>
<text text-anchor="middle" x="227" y="-121.5" font-family="Helvetica,sans-Serif" font-size="10.00" fill="#000000">IIsLess_boxed_uint</text>
</a>
</g>
</g>
<!-- Node0&#45;&gt;Node3 -->
<g id="edge2" class="edge">
<title>Node0&#45;&gt;Node3</title>
<path fill="none" stroke="#191970" d="M150.0869,-97.7874C165.7319,-103.1194 183.9882,-109.3413 198.7873,-114.3849"/>
<polygon fill="#191970" stroke="#191970" points="150.8399,-94.3465 140.2455,-94.4334 148.5818,-100.9723 150.8399,-94.3465"/>
</g>
<!-- Node4 -->
<g id="node4" class="node">
<title>Node4</title>
<g id="a_node4"><a xlink:href="classaworx_1_1lib_1_1boxing_1_1ftypes_1_1IIsLess__double.html" target="_top" xlink:title="Implements &#39;IsLess&#39; &#45; interface for boxed double values. ">
<polygon fill="#ffffff" stroke="#000000" points="185.5,-76.5 185.5,-95.5 268.5,-95.5 268.5,-76.5 185.5,-76.5"/>
<text text-anchor="middle" x="227" y="-83.5" font-family="Helvetica,sans-Serif" font-size="10.00" fill="#000000">IIsLess_double</text>
</a>
</g>
</g>
<!-- Node0&#45;&gt;Node4 -->
<g id="edge3" class="edge">
<title>Node0&#45;&gt;Node4</title>
<path fill="none" stroke="#191970" d="M150.3785,-86C161.4284,-86 173.7567,-86 185.2387,-86"/>
<polygon fill="#191970" stroke="#191970" points="150.2455,-82.5001 140.2455,-86 150.2454,-89.5001 150.2455,-82.5001"/>
</g>
<!-- Node5 -->
<g id="node5" class="node">
<title>Node5</title>
<g id="a_node5"><a xlink:href="classaworx_1_1lib_1_1strings_1_1boxing_1_1IIsLess__Tchar__arr.html" target="_top" xlink:title="Implements &#39;IsLess&#39; &#45; interface for boxed char arrays. ">
<polygon fill="#ffffff" stroke="#000000" points="179.5,-38.5 179.5,-57.5 274.5,-57.5 274.5,-38.5 179.5,-38.5"/>
<text text-anchor="middle" x="227" y="-45.5" font-family="Helvetica,sans-Serif" font-size="10.00" fill="#000000">IIsLess_Tchar_arr</text>
</a>
</g>
</g>
<!-- Node0&#45;&gt;Node5 -->
<g id="edge4" class="edge">
<title>Node0&#45;&gt;Node5</title>
<path fill="none" stroke="#191970" d="M150.0869,-74.2126C165.7319,-68.8806 183.9882,-62.6587 198.7873,-57.6151"/>
<polygon fill="#191970" stroke="#191970" points="148.5818,-71.0277 140.2455,-77.5666 150.8399,-77.6535 148.5818,-71.0277"/>
</g>
<!-- Node6 -->
<g id="node6" class="node">
<title>Node6</title>
<g id="a_node6"><a xlink:href="classaworx_1_1lib_1_1strings_1_1boxing_1_1IIsLess__Twchar__arr.html" target="_top" xlink:title="Implements &#39;IsLess&#39; &#45; interface for boxed wchar_t arrays. ">
<polygon fill="#ffffff" stroke="#000000" points="176,-.5 176,-19.5 278,-19.5 278,-.5 176,-.5"/>
<text text-anchor="middle" x="227" y="-7.5" font-family="Helvetica,sans-Serif" font-size="10.00" fill="#000000">IIsLess_Twchar_arr</text>
</a>
</g>
</g>
<!-- Node0&#45;&gt;Node6 -->
<g id="edge5" class="edge">
<title>Node0&#45;&gt;Node6</title>
<path fill="none" stroke="#191970" d="M130.2762,-68.785C141.7123,-56.3413 158.5061,-39.8735 176,-29 181.9384,-25.309 188.705,-22.1642 195.325,-19.5584"/>
<polygon fill="#191970" stroke="#191970" points="127.6316,-66.4918 123.5812,-76.2819 132.8527,-71.1544 127.6316,-66.4918"/>
</g>
<!-- Node1 -->
<g id="node7" class="node">
<title>Node1</title>
<g id="a_node7"><a xlink:href="classaworx_1_1lib_1_1boxing_1_1Interface.html" target="_top" xlink:title="Interface">
<polygon fill="#ffffff" stroke="#000000" points="0,-76.5 0,-95.5 55,-95.5 55,-76.5 0,-76.5"/>
<text text-anchor="middle" x="27.5" y="-83.5" font-family="Helvetica,sans-Serif" font-size="10.00" fill="#000000">Interface</text>
</a>
</g>
</g>
<!-- Node1&#45;&gt;Node0 -->
<g id="edge6" class="edge">
<title>Node1&#45;&gt;Node0</title>
<path fill="none" stroke="#191970" d="M65.5428,-86C74.102,-86 82.9675,-86 90.8115,-86"/>
<polygon fill="#191970" stroke="#191970" points="65.3438,-82.5001 55.3438,-86 65.3437,-89.5001 65.3438,-82.5001"/>
</g>
</g>
</svg>
