<?xml version="1.0" encoding="UTF-8" standalone="no"?>
<!DOCTYPE svg PUBLIC "-//W3C//DTD SVG 1.1//EN"
 "http://www.w3.org/Graphics/SVG/1.1/DTD/svg11.dtd">
<!-- Generated by graphviz version 2.40.1 (20161225.0304)
 -->
<!-- Title: IApply_BoxedAs_TApplicable&lt;TChar, TApplicable&gt; Pages: 1 -->
<svg width="400pt" height="140pt"
 viewBox="0.00 0.00 400.00 140.00" xmlns="http://www.w3.org/2000/svg" xmlns:xlink="http://www.w3.org/1999/xlink">
<g id="graph0" class="graph" transform="scale(1 1) rotate(0) translate(4 136)">
<title>IApply_BoxedAs_TApplicable&lt;TChar, TApplicable&gt;</title>
<polygon fill="#ffffff" stroke="transparent" points="-4,4 -4,-136 396,-136 396,4 -4,4"/>
<!-- Node0 -->
<g id="node1" class="node">
<title>Node0</title>
<polygon fill="#bfbfbf" stroke="#000000" points="128,-.5 128,-19.5 367,-19.5 367,-.5 128,-.5"/>
<text text-anchor="middle" x="247.5" y="-7.5" font-family="Helvetica,sans-Serif" font-size="10.00" fill="#000000">IApply_BoxedAs_TApplicable&lt;TChar, TApplicable&gt;</text>
</g>
<!-- Node3 -->
<g id="node2" class="node">
<title>Node3</title>
<g id="a_node2"><a xlink:href="classaworx_1_1lib_1_1lang_1_1Singleton.html" target="_top" xlink:title="Singleton\&lt;IApply_BoxedAs_TApplicable\&lt;TChar, TApplicable\&gt;\&gt;">
<polygon fill="#ffffff" stroke="#000000" points="0,-56.5 0,-75.5 291,-75.5 291,-56.5 0,-56.5"/>
<text text-anchor="middle" x="145.5" y="-63.5" font-family="Helvetica,sans-Serif" font-size="10.00" fill="#000000">Singleton&lt;IApply_BoxedAs_TApplicable&lt;TChar, TApplicable&gt;&gt;</text>
</a>
</g>
</g>
<!-- Node3&#45;&gt;Node0 -->
<g id="edge3" class="edge">
<title>Node3&#45;&gt;Node0</title>
<path fill="none" stroke="#191970" d="M172.234,-51.3225C190.4532,-41.3198 214.0598,-28.3593 229.9366,-19.6427"/>
<polygon fill="#191970" stroke="#191970" points="170.3484,-48.3649 163.267,-56.2455 173.7173,-54.5009 170.3484,-48.3649"/>
</g>
<!-- Node1 -->
<g id="node3" class="node">
<title>Node1</title>
<g id="a_node3"><a xlink:href="classaworx_1_1lib_1_1strings_1_1boxing_1_1IApply.html" target="_top" xlink:title="IApply\&lt;TChar\&gt;">
<polygon fill="#ffffff" stroke="#000000" points="309,-56.5 309,-75.5 392,-75.5 392,-56.5 309,-56.5"/>
<text text-anchor="middle" x="350.5" y="-63.5" font-family="Helvetica,sans-Serif" font-size="10.00" fill="#000000">IApply&lt;TChar&gt;</text>
</a>
</g>
</g>
<!-- Node1&#45;&gt;Node0 -->
<g id="edge1" class="edge">
<title>Node1&#45;&gt;Node0</title>
<path fill="none" stroke="#191970" d="M323.7568,-51.46C305.325,-41.4388 281.3416,-28.3993 265.2356,-19.6427"/>
<polygon fill="#191970" stroke="#191970" points="322.1015,-54.5438 332.5588,-56.2455 325.4451,-48.394 322.1015,-54.5438"/>
</g>
<!-- Node2 -->
<g id="node4" class="node">
<title>Node2</title>
<g id="a_node4"><a xlink:href="classaworx_1_1lib_1_1boxing_1_1Interface.html" target="_top" xlink:title="Interface">
<polygon fill="#ffffff" stroke="#000000" points="323,-112.5 323,-131.5 378,-131.5 378,-112.5 323,-112.5"/>
<text text-anchor="middle" x="350.5" y="-119.5" font-family="Helvetica,sans-Serif" font-size="10.00" fill="#000000">Interface</text>
</a>
</g>
</g>
<!-- Node2&#45;&gt;Node1 -->
<g id="edge2" class="edge">
<title>Node2&#45;&gt;Node1</title>
<path fill="none" stroke="#191970" d="M350.5,-102.1575C350.5,-93.155 350.5,-82.9199 350.5,-75.6427"/>
<polygon fill="#191970" stroke="#191970" points="347.0001,-102.2455 350.5,-112.2455 354.0001,-102.2456 347.0001,-102.2455"/>
</g>
</g>
</svg>
