<?xml version="1.0" encoding="UTF-8" standalone="no"?>
<!DOCTYPE svg PUBLIC "-//W3C//DTD SVG 1.1//EN"
 "http://www.w3.org/Graphics/SVG/1.1/DTD/svg11.dtd">
<!-- Generated by graphviz version 2.40.1 (20161225.0304)
 -->
<!-- Title: StopWatch Pages: 1 -->
<svg width="226pt" height="152pt"
 viewBox="0.00 0.00 226.00 152.00" xmlns="http://www.w3.org/2000/svg" xmlns:xlink="http://www.w3.org/1999/xlink">
<g id="graph0" class="graph" transform="scale(1 1) rotate(0) translate(4 148)">
<title>StopWatch</title>
<polygon fill="#ffffff" stroke="transparent" points="-4,4 -4,-148 222,-148 222,4 -4,4"/>
<!-- Node1 -->
<g id="node1" class="node">
<title>Node1</title>
<polygon fill="#bfbfbf" stroke="#000000" points="76.5,-.5 76.5,-19.5 141.5,-19.5 141.5,-.5 76.5,-.5"/>
<text text-anchor="middle" x="109" y="-7.5" font-family="Helvetica,sans-Serif" font-size="10.00" fill="#000000">StopWatch</text>
</g>
<!-- Node3 -->
<g id="node2" class="node">
<title>Node3</title>
<g id="a_node2"><a xlink:href="classaworx_1_1lib_1_1time_1_1TimePointBase.html" target="_top" xlink:title="TimePointBase\&lt;chrono::steady_clock, Ticks\&gt;">
<polygon fill="#ffffff" stroke="#000000" points="0,-124.5 0,-143.5 218,-143.5 218,-124.5 0,-124.5"/>
<text text-anchor="middle" x="109" y="-131.5" font-family="Helvetica,sans-Serif" font-size="10.00" fill="#000000">TimePointBase&lt;chrono::steady_clock, Ticks&gt;</text>
</a>
</g>
</g>
<!-- Node2 -->
<g id="node3" class="node">
<title>Node2</title>
<g id="a_node3"><a xlink:href="classaworx_1_1lib_1_1time_1_1Ticks.html" target="_top" xlink:title="Ticks">
<polygon fill="#ffffff" stroke="#000000" points="88.5,-67.5 88.5,-86.5 129.5,-86.5 129.5,-67.5 88.5,-67.5"/>
<text text-anchor="middle" x="109" y="-74.5" font-family="Helvetica,sans-Serif" font-size="10.00" fill="#000000">Ticks</text>
</a>
</g>
</g>
<!-- Node3&#45;&gt;Node2 -->
<g id="edge2" class="edge">
<title>Node3&#45;&gt;Node2</title>
<path fill="none" stroke="#191970" d="M109,-114.2342C109,-104.8491 109,-94.0651 109,-86.5265"/>
<polygon fill="#191970" stroke="#191970" points="105.5001,-114.3307 109,-124.3307 112.5001,-114.3308 105.5001,-114.3307"/>
</g>
<!-- Node2&#45;&gt;Node1 -->
<g id="edge1" class="edge">
<title>Node2&#45;&gt;Node1</title>
<path fill="none" stroke="#9a32cd" stroke-dasharray="5,2" d="M109,-57.1079C109,-44.714 109,-29.3263 109,-19.5817"/>
<polygon fill="#9a32cd" stroke="#9a32cd" points="105.5001,-57.4005 109,-67.4005 112.5001,-57.4006 105.5001,-57.4005"/>
<text text-anchor="middle" x="131.5" y="-41" font-family="Helvetica,sans-Serif" font-size="10.00" fill="#000000"> startTime</text>
</g>
</g>
</svg>
