<?xml version="1.0" encoding="UTF-8" standalone="no"?>
<!DOCTYPE svg PUBLIC "-//W3C//DTD SVG 1.1//EN"
 "http://www.w3.org/Graphics/SVG/1.1/DTD/svg11.dtd">
<!-- Generated by graphviz version 2.40.1 (20161225.0304)
 -->
<!-- Title: PluginContainer&lt;pTPlugin, pTPriorities&gt; Pages: 1 -->
<svg width="621pt" height="240pt"
 viewBox="0.00 0.00 620.50 240.00" xmlns="http://www.w3.org/2000/svg" xmlns:xlink="http://www.w3.org/1999/xlink">
<g id="graph0" class="graph" transform="scale(1 1) rotate(0) translate(4 236)">
<title>PluginContainer&lt;pTPlugin, pTPriorities&gt;</title>
<polygon fill="#ffffff" stroke="transparent" points="-4,4 -4,-236 616.5,-236 616.5,4 -4,4"/>
<!-- Node2 -->
<g id="node1" class="node">
<title>Node2</title>
<polygon fill="#bfbfbf" stroke="#000000" points="92,-.5 92,-19.5 283,-19.5 283,-.5 92,-.5"/>
<text text-anchor="middle" x="187.5" y="-7.5" font-family="Helvetica,sans-Serif" font-size="10.00" fill="#000000">PluginContainer&lt;pTPlugin, pTPriorities&gt;</text>
</g>
<!-- Node14 -->
<g id="node2" class="node">
<title>Node14</title>
<polygon fill="#ffffff" stroke="#bfbfbf" points="0,-67.5 0,-86.5 95,-86.5 95,-67.5 0,-67.5"/>
<text text-anchor="middle" x="47.5" y="-74.5" font-family="Helvetica,sans-Serif" font-size="10.00" fill="#000000">vector&lt;TPlugin *&gt;</text>
</g>
<!-- Node14&#45;&gt;Node2 -->
<g id="edge9" class="edge">
<title>Node14&#45;&gt;Node2</title>
<path fill="none" stroke="#9a32cd" stroke-dasharray="5,2" d="M72.2657,-62.4667C85.7394,-54.7979 102.8148,-45.4591 118.5,-38 132.6267,-31.282 148.8142,-24.6593 161.9583,-19.5426"/>
<polygon fill="#9a32cd" stroke="#9a32cd" points="70.4979,-59.4458 63.5744,-67.4655 73.988,-65.5137 70.4979,-59.4458"/>
<text text-anchor="middle" x="151" y="-41" font-family="Helvetica,sans-Serif" font-size="10.00" fill="#000000"> pluginsOwned</text>
</g>
<!-- Node15 -->
<g id="node3" class="node">
<title>Node15</title>
<polygon fill="#ffffff" stroke="#bfbfbf" points="113.5,-67.5 113.5,-86.5 261.5,-86.5 261.5,-67.5 113.5,-67.5"/>
<text text-anchor="middle" x="187.5" y="-74.5" font-family="Helvetica,sans-Serif" font-size="10.00" fill="#000000">vector&lt;PluginContainer::Slot&gt;</text>
</g>
<!-- Node15&#45;&gt;Node2 -->
<g id="edge10" class="edge">
<title>Node15&#45;&gt;Node2</title>
<path fill="none" stroke="#9a32cd" stroke-dasharray="5,2" d="M187.5,-57.1079C187.5,-44.714 187.5,-29.3263 187.5,-19.5817"/>
<polygon fill="#9a32cd" stroke="#9a32cd" points="184.0001,-57.4005 187.5,-67.4005 191.0001,-57.4006 184.0001,-57.4005"/>
<text text-anchor="middle" x="204.5" y="-41" font-family="Helvetica,sans-Serif" font-size="10.00" fill="#000000"> plugins</text>
</g>
<!-- Node12 -->
<g id="node4" class="node">
<title>Node12</title>
<g id="a_node4"><a xlink:href="classaworx_1_1lib_1_1strings_1_1TStringBase.html" target="_top" xlink:title="TStringBase\&lt;nchar\&gt;">
<polygon fill="#ffffff" stroke="#000000" points="241,-145.5 241,-164.5 348,-164.5 348,-145.5 241,-145.5"/>
<text text-anchor="middle" x="294.5" y="-152.5" font-family="Helvetica,sans-Serif" font-size="10.00" fill="#000000">TStringBase&lt;nchar&gt;</text>
</a>
</g>
</g>
<!-- Node3 -->
<g id="node7" class="node">
<title>Node3</title>
<g id="a_node7"><a xlink:href="classaworx_1_1lib_1_1threads_1_1ThreadLock.html" target="_top" xlink:title="ThreadLock">
<polygon fill="#ffffff" stroke="#000000" points="279.5,-67.5 279.5,-86.5 347.5,-86.5 347.5,-67.5 279.5,-67.5"/>
<text text-anchor="middle" x="313.5" y="-74.5" font-family="Helvetica,sans-Serif" font-size="10.00" fill="#000000">ThreadLock</text>
</a>
</g>
</g>
<!-- Node12&#45;&gt;Node3 -->
<g id="edge7" class="edge">
<title>Node12&#45;&gt;Node3</title>
<path fill="none" stroke="#9a32cd" stroke-dasharray="5,2" d="M299.302,-135.2866C303.0891,-119.7395 308.2074,-98.7276 311.1512,-86.6426"/>
<polygon fill="#9a32cd" stroke="#9a32cd" points="295.796,-134.8914 296.8298,-145.4357 302.5971,-136.5481 295.796,-134.8914"/>
<text text-anchor="middle" x="364" y="-119" font-family="Helvetica,sans-Serif" font-size="10.00" fill="#000000"> acquirementMethodName</text>
<text text-anchor="middle" x="364" y="-108" font-family="Helvetica,sans-Serif" font-size="10.00" fill="#000000">acquirementSourcefile</text>
</g>
<!-- Node13 -->
<g id="node5" class="node">
<title>Node13</title>
<g id="a_node5"><a xlink:href="classaworx_1_1lib_1_1strings_1_1StringBase.html" target="_top" xlink:title="StringBase\&lt;nchar\&gt;">
<polygon fill="#ffffff" stroke="#000000" points="198,-212.5 198,-231.5 299,-231.5 299,-212.5 198,-212.5"/>
<text text-anchor="middle" x="248.5" y="-219.5" font-family="Helvetica,sans-Serif" font-size="10.00" fill="#000000">StringBase&lt;nchar&gt;</text>
</a>
</g>
</g>
<!-- Node13&#45;&gt;Node12 -->
<g id="edge8" class="edge">
<title>Node13&#45;&gt;Node12</title>
<path fill="none" stroke="#191970" d="M260.8717,-203.9803C269.5784,-191.2989 280.8898,-174.8235 287.9215,-164.5817"/>
<polygon fill="#191970" stroke="#191970" points="257.8654,-202.1755 255.0907,-212.4005 263.6362,-206.1375 257.8654,-202.1755"/>
</g>
<!-- Node6 -->
<g id="node6" class="node">
<title>Node6</title>
<g id="a_node6"><a xlink:href="classaworx_1_1lib_1_1strings_1_1PreallocatedStringBase.html" target="_top" xlink:title="PreallocatedStringBase\&lt;TChar\&gt;">
<polygon fill="#ffffff" stroke="#ff0000" points="317,-212.5 317,-231.5 474,-231.5 474,-212.5 317,-212.5"/>
<text text-anchor="middle" x="395.5" y="-219.5" font-family="Helvetica,sans-Serif" font-size="10.00" fill="#000000">PreallocatedStringBase&lt;TChar&gt;</text>
</a>
</g>
</g>
<!-- Node4 -->
<g id="node8" class="node">
<title>Node4</title>
<g id="a_node8"><a xlink:href="classaworx_1_1lib_1_1threads_1_1Thread.html" target="_top" xlink:title="Thread">
<polygon fill="#ffffff" stroke="#000000" points="465,-145.5 465,-164.5 512,-164.5 512,-145.5 465,-145.5"/>
<text text-anchor="middle" x="488.5" y="-152.5" font-family="Helvetica,sans-Serif" font-size="10.00" fill="#000000">Thread</text>
</a>
</g>
</g>
<!-- Node6&#45;&gt;Node4 -->
<g id="edge5" class="edge">
<title>Node6&#45;&gt;Node4</title>
<path fill="none" stroke="#9a32cd" stroke-dasharray="5,2" d="M417.0008,-206.5102C434.9667,-193.567 460.0176,-175.5195 475.2001,-164.5817"/>
<polygon fill="#9a32cd" stroke="#9a32cd" points="414.8925,-203.7153 408.8246,-212.4005 418.9842,-209.3949 414.8925,-203.7153"/>
<text text-anchor="middle" x="462.5" y="-186" font-family="Helvetica,sans-Serif" font-size="10.00" fill="#000000"> name</text>
</g>
<!-- Node3&#45;&gt;Node2 -->
<g id="edge1" class="edge">
<title>Node3&#45;&gt;Node2</title>
<path fill="none" stroke="#191970" d="M286.3395,-62.5575C261.8902,-49.5567 226.65,-30.8179 205.5192,-19.5817"/>
<polygon fill="#191970" stroke="#191970" points="284.9747,-65.7958 295.4473,-67.4005 288.2612,-59.6152 284.9747,-65.7958"/>
</g>
<!-- Node4&#45;&gt;Node3 -->
<g id="edge2" class="edge">
<title>Node4&#45;&gt;Node3</title>
<path fill="none" stroke="#9a32cd" stroke-dasharray="5,2" d="M471.7333,-138.3833C459.7719,-127.4078 442.8001,-113.5265 425.5,-105 400.8702,-92.861 370.5261,-85.6955 347.6375,-81.6569"/>
<polygon fill="#9a32cd" stroke="#9a32cd" points="469.4897,-141.0791 479.1563,-145.416 474.3041,-135.9976 469.4897,-141.0791"/>
<text text-anchor="middle" x="473.5" y="-113.5" font-family="Helvetica,sans-Serif" font-size="10.00" fill="#000000"> owner</text>
</g>
<!-- Node5 -->
<g id="node9" class="node">
<title>Node5</title>
<g id="a_node9"><a xlink:href="classaworx_1_1lib_1_1threads_1_1Runnable.html" target="_top" xlink:title="Runnable">
<polygon fill="#ffffff" stroke="#000000" points="492.5,-212.5 492.5,-231.5 550.5,-231.5 550.5,-212.5 492.5,-212.5"/>
<text text-anchor="middle" x="521.5" y="-219.5" font-family="Helvetica,sans-Serif" font-size="10.00" fill="#000000">Runnable</text>
</a>
</g>
</g>
<!-- Node5&#45;&gt;Node4 -->
<g id="edge3" class="edge">
<title>Node5&#45;&gt;Node4</title>
<path fill="none" stroke="#191970" d="M508.2369,-203.8635C506.1741,-200.66 504.175,-197.2941 502.5,-194 497.6089,-184.3813 493.6431,-172.6449 491.1974,-164.5749"/>
<polygon fill="#191970" stroke="#191970" points="505.4593,-206.0017 514.0027,-212.2675 511.2314,-202.0415 505.4593,-206.0017"/>
</g>
<!-- Node5&#45;&gt;Node4 -->
<g id="edge4" class="edge">
<title>Node5&#45;&gt;Node4</title>
<path fill="none" stroke="#9a32cd" stroke-dasharray="5,2" d="M512.2587,-203.2374C506.0646,-190.6614 498.1659,-174.6246 493.2193,-164.5817"/>
<polygon fill="#9a32cd" stroke="#9a32cd" points="509.2135,-204.9761 516.7719,-212.4005 515.4932,-201.8831 509.2135,-204.9761"/>
<text text-anchor="middle" x="527.5" y="-186" font-family="Helvetica,sans-Serif" font-size="10.00" fill="#000000"> runnable</text>
</g>
<!-- Node11 -->
<g id="node10" class="node">
<title>Node11</title>
<g id="a_node10"><a xlink:title="STL class. ">
<polygon fill="#ffffff" stroke="#bfbfbf" points="568.5,-212.5 568.5,-231.5 612.5,-231.5 612.5,-212.5 568.5,-212.5"/>
<text text-anchor="middle" x="590.5" y="-219.5" font-family="Helvetica,sans-Serif" font-size="10.00" fill="#000000">thread</text>
</a>
</g>
</g>
<!-- Node11&#45;&gt;Node4 -->
<g id="edge6" class="edge">
<title>Node11&#45;&gt;Node4</title>
<path fill="none" stroke="#9a32cd" stroke-dasharray="5,2" d="M575.9542,-204.8405C569.0775,-197.4561 560.4266,-189.1308 551.5,-183 539.3645,-174.6653 524.3469,-167.876 512.0182,-163.071"/>
<polygon fill="#9a32cd" stroke="#9a32cd" points="573.3769,-207.209 582.6488,-212.3356 578.5976,-202.5459 573.3769,-207.209"/>
<text text-anchor="middle" x="588" y="-186" font-family="Helvetica,sans-Serif" font-size="10.00" fill="#000000"> c11Thread</text>
</g>
<!-- Node16 -->
<g id="node11" class="node">
<title>Node16</title>
<g id="a_node11"><a xlink:href="structaworx_1_1lib_1_1util_1_1PluginContainer_1_1Slot.html" target="_top" xlink:title="Type definition for elements of the list of plug&#45;ins with their priority. ">
<polygon fill="#ffffff" stroke="#000000" points="170.5,-145.5 170.5,-164.5 204.5,-164.5 204.5,-145.5 170.5,-145.5"/>
<text text-anchor="middle" x="187.5" y="-152.5" font-family="Helvetica,sans-Serif" font-size="10.00" fill="#000000">Slot</text>
</a>
</g>
</g>
<!-- Node16&#45;&gt;Node15 -->
<g id="edge11" class="edge">
<title>Node16&#45;&gt;Node15</title>
<path fill="none" stroke="#9a32cd" stroke-dasharray="5,2" d="M187.5,-135.2866C187.5,-119.7395 187.5,-98.7276 187.5,-86.6426"/>
<polygon fill="#9a32cd" stroke="#9a32cd" points="184.0001,-135.4356 187.5,-145.4357 191.0001,-135.4357 184.0001,-135.4356"/>
<text text-anchor="middle" x="209" y="-113.5" font-family="Helvetica,sans-Serif" font-size="10.00" fill="#000000"> elements</text>
</g>
</g>
</svg>
