<?xml version="1.0" encoding="UTF-8" standalone="no"?>
<!DOCTYPE svg PUBLIC "-//W3C//DTD SVG 1.1//EN"
 "http://www.w3.org/Graphics/SVG/1.1/DTD/svg11.dtd">
<!-- Generated by graphviz version 2.40.1 (20161225.0304)
 -->
<!-- Title: AStringBase&lt;TChar&gt; Pages: 1 -->
<svg width="118pt" height="220pt"
 viewBox="0.00 0.00 118.00 220.00" xmlns="http://www.w3.org/2000/svg" xmlns:xlink="http://www.w3.org/1999/xlink">
<g id="graph0" class="graph" transform="scale(1 1) rotate(0) translate(4 216)">
<title>AStringBase&lt;TChar&gt;</title>
<polygon fill="#ffffff" stroke="transparent" points="-4,4 -4,-216 114,-216 114,4 -4,4"/>
<!-- Node9 -->
<g id="node1" class="node">
<title>Node9</title>
<polygon fill="#bfbfbf" stroke="#000000" points="0,-.5 0,-19.5 110,-19.5 110,-.5 0,-.5"/>
<text text-anchor="middle" x="55" y="-7.5" font-family="Helvetica,sans-Serif" font-size="10.00" fill="#000000">AStringBase&lt;TChar&gt;</text>
</g>
<!-- Node10 -->
<g id="node2" class="node">
<title>Node10</title>
<g id="a_node2"><a xlink:href="classaworx_1_1lib_1_1strings_1_1TStringBase.html" target="_top" xlink:title="TStringBase\&lt;TChar\&gt;">
<polygon fill="#ffffff" stroke="#000000" points=".5,-57.5 .5,-76.5 109.5,-76.5 109.5,-57.5 .5,-57.5"/>
<text text-anchor="middle" x="55" y="-64.5" font-family="Helvetica,sans-Serif" font-size="10.00" fill="#000000">TStringBase&lt;TChar&gt;</text>
</a>
</g>
</g>
<!-- Node10&#45;&gt;Node9 -->
<g id="edge1" class="edge">
<title>Node10&#45;&gt;Node9</title>
<path fill="none" stroke="#191970" d="M55,-47.2342C55,-37.8491 55,-27.0651 55,-19.5265"/>
<polygon fill="#191970" stroke="#191970" points="51.5001,-47.3307 55,-57.3307 58.5001,-47.3308 51.5001,-47.3307"/>
</g>
<!-- Node11 -->
<g id="node3" class="node">
<title>Node11</title>
<g id="a_node3"><a xlink:href="classaworx_1_1lib_1_1strings_1_1StringBase.html" target="_top" xlink:title="StringBase\&lt;TChar\&gt;">
<polygon fill="#ffffff" stroke="#000000" points="3.5,-114.5 3.5,-133.5 106.5,-133.5 106.5,-114.5 3.5,-114.5"/>
<text text-anchor="middle" x="55" y="-121.5" font-family="Helvetica,sans-Serif" font-size="10.00" fill="#000000">StringBase&lt;TChar&gt;</text>
</a>
</g>
</g>
<!-- Node11&#45;&gt;Node10 -->
<g id="edge2" class="edge">
<title>Node11&#45;&gt;Node10</title>
<path fill="none" stroke="#191970" d="M55,-104.2342C55,-94.8491 55,-84.0651 55,-76.5265"/>
<polygon fill="#191970" stroke="#191970" points="51.5001,-104.3307 55,-114.3307 58.5001,-104.3308 51.5001,-104.3307"/>
</g>
<!-- Node12 -->
<g id="node4" class="node">
<title>Node12</title>
<polygon fill="#ffffff" stroke="#bfbfbf" points="33.5,-192.5 33.5,-211.5 76.5,-211.5 76.5,-192.5 33.5,-192.5"/>
<text text-anchor="middle" x="55" y="-199.5" font-family="Helvetica,sans-Serif" font-size="10.00" fill="#000000">TChar</text>
</g>
<!-- Node12&#45;&gt;Node11 -->
<g id="edge3" class="edge">
<title>Node12&#45;&gt;Node11</title>
<path fill="none" stroke="#9a32cd" stroke-dasharray="5,2" d="M55,-182.2866C55,-166.7395 55,-145.7276 55,-133.6426"/>
<polygon fill="#9a32cd" stroke="#9a32cd" points="51.5001,-182.4356 55,-192.4357 58.5001,-182.4357 51.5001,-182.4356"/>
<text text-anchor="middle" x="71.5" y="-166" font-family="Helvetica,sans-Serif" font-size="10.00" fill="#000000"> vbuffer</text>
<text text-anchor="middle" x="71.5" y="-155" font-family="Helvetica,sans-Serif" font-size="10.00" fill="#000000">buffer</text>
</g>
</g>
</svg>
