<?xml version="1.0" encoding="UTF-8" standalone="no"?>
<!DOCTYPE svg PUBLIC "-//W3C//DTD SVG 1.1//EN"
 "http://www.w3.org/Graphics/SVG/1.1/DTD/svg11.dtd">
<!-- Generated by graphviz version 2.40.1 (20161225.0304)
 -->
<!-- Title: Domain Pages: 1 -->
<svg width="1409pt" height="159pt"
 viewBox="0.00 0.00 1409.00 159.00" xmlns="http://www.w3.org/2000/svg" xmlns:xlink="http://www.w3.org/1999/xlink">
<g id="graph0" class="graph" transform="scale(1 1) rotate(0) translate(4 155)">
<title>Domain</title>
<polygon fill="#ffffff" stroke="transparent" points="-4,4 -4,-155 1405,-155 1405,4 -4,4"/>
<!-- Node1 -->
<g id="node1" class="node">
<title>Node1</title>
<polygon fill="#bfbfbf" stroke="#000000" points="1115,-69.5 1115,-88.5 1165,-88.5 1165,-69.5 1115,-69.5"/>
<text text-anchor="middle" x="1140" y="-76.5" font-family="Helvetica,sans-Serif" font-size="10.00" fill="#000000">Domain</text>
</g>
<!-- Node1&#45;&gt;Node1 -->
<g id="edge1" class="edge">
<title>Node1&#45;&gt;Node1</title>
<path fill="none" stroke="#9a32cd" stroke-dasharray="5,2" d="M1126.7408,-98.7663C1127.7822,-103.4965 1132.2019,-107 1140,-107 1152.7969,-107 1156.496,-97.5653 1151.0973,-88.7571"/>
<polygon fill="#9a32cd" stroke="#9a32cd" points="1130.2125,-99.2706 1128.9027,-88.7571 1123.3703,-97.7927 1130.2125,-99.2706"/>
<text text-anchor="middle" x="1140" y="-110" font-family="Helvetica,sans-Serif" font-size="10.00" fill="#000000"> Parent</text>
</g>
<!-- Node24 -->
<g id="node4" class="node">
<title>Node24</title>
<polygon fill="#ffffff" stroke="#bfbfbf" points="1261,-69.5 1261,-88.5 1401,-88.5 1401,-69.5 1261,-69.5"/>
<text text-anchor="middle" x="1331" y="-76.5" font-family="Helvetica,sans-Serif" font-size="10.00" fill="#000000">vector&lt;lox::core::Domain *&gt;</text>
</g>
<!-- Node1&#45;&gt;Node24 -->
<g id="edge2" class="edge">
<title>Node1&#45;&gt;Node24</title>
<path fill="none" stroke="#9a32cd" stroke-dasharray="5,2" d="M1175.3746,-79C1199.2633,-79 1231.6128,-79 1260.6299,-79"/>
<polygon fill="#9a32cd" stroke="#9a32cd" points="1175.3634,-75.5001 1165.3633,-79 1175.3633,-82.5001 1175.3634,-75.5001"/>
<text text-anchor="middle" x="1213" y="-82" font-family="Helvetica,sans-Serif" font-size="10.00" fill="#000000"> elements</text>
</g>
<!-- Node2 -->
<g id="node2" class="node">
<title>Node2</title>
<polygon fill="#ffffff" stroke="#bfbfbf" points="798,-131.5 798,-150.5 1011,-150.5 1011,-131.5 798,-131.5"/>
<text text-anchor="middle" x="904.5" y="-138.5" font-family="Helvetica,sans-Serif" font-size="10.00" fill="#000000">vector&lt;pair&lt;lox::PrefixLogable *, Inclusion&gt;&gt;</text>
</g>
<!-- Node2&#45;&gt;Node1 -->
<g id="edge3" class="edge">
<title>Node2&#45;&gt;Node1</title>
<path fill="none" stroke="#9a32cd" stroke-dasharray="5,2" d="M1021.4285,-137.7255C1047.1262,-133.944 1073.6256,-127.5476 1097,-117 1111.3478,-110.5256 1124.3646,-97.5681 1132.228,-88.5962"/>
<polygon fill="#9a32cd" stroke="#9a32cd" points="1020.6898,-134.2933 1011.2464,-139.0968 1021.6241,-141.2307 1020.6898,-134.2933"/>
<text text-anchor="middle" x="1063" y="-139" font-family="Helvetica,sans-Serif" font-size="10.00" fill="#000000"> PrefixLogables</text>
</g>
<!-- Node10 -->
<g id="node3" class="node">
<title>Node10</title>
<polygon fill="#ffffff" stroke="#bfbfbf" points="810,-6.5 810,-25.5 999,-25.5 999,-6.5 810,-6.5"/>
<text text-anchor="middle" x="904.5" y="-13.5" font-family="Helvetica,sans-Serif" font-size="10.00" fill="#000000">vector&lt;lox::core::Domain::LoggerData&gt;</text>
</g>
<!-- Node10&#45;&gt;Node1 -->
<g id="edge9" class="edge">
<title>Node10&#45;&gt;Node1</title>
<path fill="none" stroke="#9a32cd" stroke-dasharray="5,2" d="M1009.6734,-9.9758C1039.1501,-11.9988 1070.3869,-17.8468 1097,-31 1114.051,-39.4272 1127.4182,-57.829 1134.4751,-69.2417"/>
<polygon fill="#9a32cd" stroke="#9a32cd" points="1009.5062,-6.4617 999.3311,-9.4141 1009.1265,-13.4514 1009.5062,-6.4617"/>
<text text-anchor="middle" x="1063" y="-34" font-family="Helvetica,sans-Serif" font-size="10.00" fill="#000000"> Data</text>
</g>
<!-- Node24&#45;&gt;Node1 -->
<g id="edge12" class="edge">
<title>Node24&#45;&gt;Node1</title>
<path fill="none" stroke="#9a32cd" stroke-dasharray="5,2" d="M1282.5947,-67.5647C1253.5806,-62.33 1216.0276,-58.4047 1183,-64 1176.296,-65.1357 1169.2435,-67.2012 1162.8332,-69.4436"/>
<polygon fill="#9a32cd" stroke="#9a32cd" points="1281.9999,-71.0144 1292.4797,-69.4575 1283.3164,-64.1393 1281.9999,-71.0144"/>
<text text-anchor="middle" x="1213" y="-67" font-family="Helvetica,sans-Serif" font-size="10.00" fill="#000000"> SubDomains</text>
</g>
<!-- Node5 -->
<g id="node5" class="node">
<title>Node5</title>
<g id="a_node5"><a xlink:href="classaworx_1_1lib_1_1strings_1_1TStringBase.html" target="_top" xlink:title="TStringBase\&lt;TChar\&gt;">
<polygon fill="#ffffff" stroke="#ff0000" points="0,-46.5 0,-65.5 109,-65.5 109,-46.5 0,-46.5"/>
<text text-anchor="middle" x="54.5" y="-53.5" font-family="Helvetica,sans-Serif" font-size="10.00" fill="#000000">TStringBase&lt;TChar&gt;</text>
</a>
</g>
</g>
<!-- Node4 -->
<g id="node7" class="node">
<title>Node4</title>
<g id="a_node7"><a xlink:href="classaworx_1_1lib_1_1strings_1_1AStringBase.html" target="_top" xlink:title="AStringBase\&lt;TChar\&gt;">
<polygon fill="#ffffff" stroke="#000000" points="146,-46.5 146,-65.5 256,-65.5 256,-46.5 146,-46.5"/>
<text text-anchor="middle" x="201" y="-53.5" font-family="Helvetica,sans-Serif" font-size="10.00" fill="#000000">AStringBase&lt;TChar&gt;</text>
</a>
</g>
</g>
<!-- Node5&#45;&gt;Node4 -->
<g id="edge8" class="edge">
<title>Node5&#45;&gt;Node4</title>
<path fill="none" stroke="#191970" d="M119.0607,-56C128.0182,-56 137.1515,-56 145.9147,-56"/>
<polygon fill="#191970" stroke="#191970" points="119.0512,-52.5001 109.0512,-56 119.0512,-59.5001 119.0512,-52.5001"/>
</g>
<!-- Node3 -->
<g id="node6" class="node">
<title>Node3</title>
<g id="a_node6"><a xlink:href="classaworx_1_1lib_1_1strings_1_1PreallocatedStringBase.html" target="_top" xlink:title="PreallocatedStringBase\&lt;TChar\&gt;">
<polygon fill="#ffffff" stroke="#000000" points="293,-46.5 293,-65.5 450,-65.5 450,-46.5 293,-46.5"/>
<text text-anchor="middle" x="371.5" y="-53.5" font-family="Helvetica,sans-Serif" font-size="10.00" fill="#000000">PreallocatedStringBase&lt;TChar&gt;</text>
</a>
</g>
</g>
<!-- Node3&#45;&gt;Node1 -->
<g id="edge4" class="edge">
<title>Node3&#45;&gt;Node1</title>
<path fill="none" stroke="#9a32cd" stroke-dasharray="5,2" d="M404.0119,-69.2524C441.1035,-83.1522 503.8909,-103 560,-103 560,-103 560,-103 904.5,-103 981.5572,-103 1072.0697,-90.1254 1114.9909,-83.2355"/>
<polygon fill="#9a32cd" stroke="#9a32cd" points="404.8487,-65.8248 394.2585,-65.5112 402.3417,-72.3605 404.8487,-65.8248"/>
<text text-anchor="middle" x="685.5" y="-106" font-family="Helvetica,sans-Serif" font-size="10.00" fill="#000000"> FullPath</text>
</g>
<!-- Node3&#45;&gt;Node1 -->
<g id="edge5" class="edge">
<title>Node3&#45;&gt;Node1</title>
<path fill="none" stroke="#9a32cd" stroke-dasharray="5,2" d="M460.4305,-56C491.8858,-56 527.5172,-56 560,-56 560,-56 560,-56 904.5,-56 981.5249,-56 1072.0524,-68.3382 1114.9839,-74.941"/>
<polygon fill="#9a32cd" stroke="#9a32cd" points="460.3739,-52.5001 450.3738,-56 460.3738,-59.5001 460.3739,-52.5001"/>
<text text-anchor="middle" x="685.5" y="-59" font-family="Helvetica,sans-Serif" font-size="10.00" fill="#000000"> Name</text>
</g>
<!-- Node12 -->
<g id="node8" class="node">
<title>Node12</title>
<g id="a_node8"><a xlink:href="classaworx_1_1lib_1_1lox_1_1core_1_1Logger.html" target="_top" xlink:title="Logger">
<polygon fill="#ffffff" stroke="#ff0000" points="537,-6.5 537,-25.5 583,-25.5 583,-6.5 537,-6.5"/>
<text text-anchor="middle" x="560" y="-13.5" font-family="Helvetica,sans-Serif" font-size="10.00" fill="#000000">Logger</text>
</a>
</g>
</g>
<!-- Node3&#45;&gt;Node12 -->
<g id="edge6" class="edge">
<title>Node3&#45;&gt;Node12</title>
<path fill="none" stroke="#9a32cd" stroke-dasharray="5,2" d="M400.8493,-42.302C419.616,-34.2405 444.7205,-24.7253 468,-20 491.0317,-15.325 517.9478,-14.7001 536.6932,-15.0154"/>
<polygon fill="#9a32cd" stroke="#9a32cd" points="399.3965,-39.1174 391.6564,-46.3521 402.2188,-45.5233 399.3965,-39.1174"/>
<text text-anchor="middle" x="493.5" y="-34" font-family="Helvetica,sans-Serif" font-size="10.00" fill="#000000"> TypeName</text>
<text text-anchor="middle" x="493.5" y="-23" font-family="Helvetica,sans-Serif" font-size="10.00" fill="#000000">Name</text>
</g>
<!-- Node4&#45;&gt;Node3 -->
<g id="edge7" class="edge">
<title>Node4&#45;&gt;Node3</title>
<path fill="none" stroke="#191970" d="M266.3815,-56C275.0547,-56 284.0185,-56 292.886,-56"/>
<polygon fill="#191970" stroke="#191970" points="266.3565,-52.5001 256.3565,-56 266.3564,-59.5001 266.3565,-52.5001"/>
</g>
<!-- Node11 -->
<g id="node9" class="node">
<title>Node11</title>
<g id="a_node9"><a xlink:href="structaworx_1_1lib_1_1lox_1_1core_1_1Domain_1_1LoggerData.html" target="_top" xlink:title="LoggerData">
<polygon fill="#ffffff" stroke="#000000" points="652,-.5 652,-19.5 719,-19.5 719,-.5 652,-.5"/>
<text text-anchor="middle" x="685.5" y="-7.5" font-family="Helvetica,sans-Serif" font-size="10.00" fill="#000000">LoggerData</text>
</a>
</g>
</g>
<!-- Node12&#45;&gt;Node11 -->
<g id="edge11" class="edge">
<title>Node12&#45;&gt;Node11</title>
<path fill="none" stroke="#9a32cd" stroke-dasharray="5,2" d="M593.1125,-14.4169C611.2014,-13.5521 633.5559,-12.4834 651.7445,-11.6138"/>
<polygon fill="#9a32cd" stroke="#9a32cd" points="592.8401,-10.9259 583.0186,-14.8995 593.1744,-17.9179 592.8401,-10.9259"/>
<text text-anchor="middle" x="617.5" y="-17" font-family="Helvetica,sans-Serif" font-size="10.00" fill="#000000"> Logger</text>
</g>
<!-- Node11&#45;&gt;Node10 -->
<g id="edge10" class="edge">
<title>Node11&#45;&gt;Node10</title>
<path fill="none" stroke="#9a32cd" stroke-dasharray="5,2" d="M729.3827,-11.2023C752.4627,-11.8346 781.7045,-12.6357 809.65,-13.4014"/>
<polygon fill="#9a32cd" stroke="#9a32cd" points="729.3309,-7.6996 719.2388,-10.9244 729.1392,-14.697 729.3309,-7.6996"/>
<text text-anchor="middle" x="758.5" y="-16" font-family="Helvetica,sans-Serif" font-size="10.00" fill="#000000"> elements</text>
</g>
</g>
</svg>
