<?xml version="1.0" encoding="UTF-8" standalone="no"?>
<!DOCTYPE svg PUBLIC "-//W3C//DTD SVG 1.1//EN"
 "http://www.w3.org/Graphics/SVG/1.1/DTD/svg11.dtd">
<!-- Generated by graphviz version 2.40.1 (20161225.0304)
 -->
<!-- Title: Variable Pages: 1 -->
<svg width="1202pt" height="467pt"
 viewBox="0.00 0.00 1202.00 467.00" xmlns="http://www.w3.org/2000/svg" xmlns:xlink="http://www.w3.org/1999/xlink">
<g id="graph0" class="graph" transform="scale(1 1) rotate(0) translate(4 463)">
<title>Variable</title>
<polygon fill="#ffffff" stroke="transparent" points="-4,4 -4,-463 1198,-463 1198,4 -4,4"/>
<!-- Node1 -->
<g id="node1" class="node">
<title>Node1</title>
<polygon fill="#bfbfbf" stroke="#000000" points="1143,-355.5 1143,-374.5 1194,-374.5 1194,-355.5 1143,-355.5"/>
<text text-anchor="middle" x="1168.5" y="-362.5" font-family="Helvetica,sans-Serif" font-size="10.00" fill="#000000">Variable</text>
</g>
<!-- Node2 -->
<g id="node2" class="node">
<title>Node2</title>
<polygon fill="#ffffff" stroke="#bfbfbf" points="879.5,-372.5 879.5,-391.5 989.5,-391.5 989.5,-372.5 879.5,-372.5"/>
<text text-anchor="middle" x="934.5" y="-379.5" font-family="Helvetica,sans-Serif" font-size="10.00" fill="#000000">vector&lt;AStringBase&gt;</text>
</g>
<!-- Node2&#45;&gt;Node1 -->
<g id="edge1" class="edge">
<title>Node2&#45;&gt;Node1</title>
<path fill="none" stroke="#9a32cd" stroke-dasharray="5,2" d="M992.8034,-370.8205C1005.3566,-368.8381 1018.5838,-367.0678 1031,-366 1069.8874,-362.6556 1115.1887,-363.1753 1142.8489,-363.9874"/>
<polygon fill="#9a32cd" stroke="#9a32cd" points="992.2091,-367.3711 982.909,-372.4464 993.3442,-374.2785 992.2091,-367.3711"/>
<text text-anchor="middle" x="1078" y="-369" font-family="Helvetica,sans-Serif" font-size="10.00" fill="#000000"> values</text>
</g>
<!-- Node10 -->
<g id="node3" class="node">
<title>Node10</title>
<g id="a_node3"><a xlink:href="classaworx_1_1lib_1_1util_1_1PluginContainer.html" target="_top" xlink:title="PluginContainer\&lt;ConfigurationPlugin, Priorities\&gt;">
<polygon fill="#ffffff" stroke="#000000" points="469,-57.5 469,-76.5 696,-76.5 696,-57.5 469,-57.5"/>
<text text-anchor="middle" x="582.5" y="-64.5" font-family="Helvetica,sans-Serif" font-size="10.00" fill="#000000">PluginContainer&lt;ConfigurationPlugin, Priorities&gt;</text>
</a>
</g>
</g>
<!-- Node9 -->
<g id="node16" class="node">
<title>Node9</title>
<g id="a_node16"><a xlink:href="classaworx_1_1lib_1_1config_1_1Configuration.html" target="_top" xlink:title="Configuration">
<polygon fill="#ffffff" stroke="#000000" points="897.5,-169.5 897.5,-188.5 971.5,-188.5 971.5,-169.5 897.5,-169.5"/>
<text text-anchor="middle" x="934.5" y="-176.5" font-family="Helvetica,sans-Serif" font-size="10.00" fill="#000000">Configuration</text>
</a>
</g>
</g>
<!-- Node10&#45;&gt;Node9 -->
<g id="edge8" class="edge">
<title>Node10&#45;&gt;Node9</title>
<path fill="none" stroke="#191970" d="M706.1729,-76.3545C749.0913,-82.5588 796.7647,-92.8696 838,-110 873.1864,-124.6175 907.9128,-154.1422 924.4687,-169.3947"/>
<polygon fill="#191970" stroke="#191970" points="706.6211,-72.8833 696.2354,-74.9782 705.6607,-79.8171 706.6211,-72.8833"/>
</g>
<!-- Node17 -->
<g id="node4" class="node">
<title>Node17</title>
<polygon fill="#ffffff" stroke="#bfbfbf" points="180.5,-76.5 180.5,-95.5 275.5,-95.5 275.5,-76.5 180.5,-76.5"/>
<text text-anchor="middle" x="228" y="-83.5" font-family="Helvetica,sans-Serif" font-size="10.00" fill="#000000">vector&lt;TPlugin *&gt;</text>
</g>
<!-- Node17&#45;&gt;Node10 -->
<g id="edge10" class="edge">
<title>Node17&#45;&gt;Node10</title>
<path fill="none" stroke="#9a32cd" stroke-dasharray="5,2" d="M285.9925,-82.8918C335.4124,-80.2431 407.9021,-76.3579 468.835,-73.0921"/>
<polygon fill="#9a32cd" stroke="#9a32cd" points="285.6078,-79.4073 275.8094,-83.4376 285.9825,-86.3973 285.6078,-79.4073"/>
<text text-anchor="middle" x="385.5" y="-84" font-family="Helvetica,sans-Serif" font-size="10.00" fill="#000000"> pluginsOwned</text>
</g>
<!-- Node18 -->
<g id="node5" class="node">
<title>Node18</title>
<polygon fill="#ffffff" stroke="#bfbfbf" points="154,-38.5 154,-57.5 302,-57.5 302,-38.5 154,-38.5"/>
<text text-anchor="middle" x="228" y="-45.5" font-family="Helvetica,sans-Serif" font-size="10.00" fill="#000000">vector&lt;PluginContainer::Slot&gt;</text>
</g>
<!-- Node18&#45;&gt;Node10 -->
<g id="edge11" class="edge">
<title>Node18&#45;&gt;Node10</title>
<path fill="none" stroke="#9a32cd" stroke-dasharray="5,2" d="M312.4137,-52.5243C359.2099,-55.0324 418.034,-58.1852 468.8283,-60.9076"/>
<polygon fill="#9a32cd" stroke="#9a32cd" points="312.4878,-49.0233 302.3148,-51.983 312.1131,-56.0133 312.4878,-49.0233"/>
<text text-anchor="middle" x="385.5" y="-63" font-family="Helvetica,sans-Serif" font-size="10.00" fill="#000000"> plugins</text>
</g>
<!-- Node24 -->
<g id="node6" class="node">
<title>Node24</title>
<polygon fill="#ffffff" stroke="#bfbfbf" points="530.5,-169.5 530.5,-188.5 634.5,-188.5 634.5,-169.5 530.5,-169.5"/>
<text text-anchor="middle" x="582.5" y="-176.5" font-family="Helvetica,sans-Serif" font-size="10.00" fill="#000000">vector&lt;StringBase&gt;</text>
</g>
<!-- Node24&#45;&gt;Node9 -->
<g id="edge19" class="edge">
<title>Node24&#45;&gt;Node9</title>
<path fill="none" stroke="#9a32cd" stroke-dasharray="5,2" d="M644.8358,-179C718.0677,-179 837.1811,-179 897.2907,-179"/>
<polygon fill="#9a32cd" stroke="#9a32cd" points="644.8179,-175.5001 634.8179,-179 644.8178,-182.5001 644.8179,-175.5001"/>
<text text-anchor="middle" x="776" y="-182" font-family="Helvetica,sans-Serif" font-size="10.00" fill="#000000"> TrueValues</text>
</g>
<!-- Node3 -->
<g id="node7" class="node">
<title>Node3</title>
<g id="a_node7"><a xlink:href="classaworx_1_1lib_1_1strings_1_1AStringBase.html" target="_top" xlink:title="AStringBase\&lt;TChar\&gt;">
<polygon fill="#ffffff" stroke="#000000" points="527.5,-390.5 527.5,-409.5 637.5,-409.5 637.5,-390.5 527.5,-390.5"/>
<text text-anchor="middle" x="582.5" y="-397.5" font-family="Helvetica,sans-Serif" font-size="10.00" fill="#000000">AStringBase&lt;TChar&gt;</text>
</a>
</g>
</g>
<!-- Node3&#45;&gt;Node2 -->
<g id="edge2" class="edge">
<title>Node3&#45;&gt;Node2</title>
<path fill="none" stroke="#9a32cd" stroke-dasharray="5,2" d="M647.9346,-393.8552C669.0096,-392.0559 692.4775,-390.241 714,-389 770.2084,-385.7591 834.5698,-383.932 879.1876,-382.9638"/>
<polygon fill="#9a32cd" stroke="#9a32cd" points="647.4599,-390.3832 637.7999,-394.7346 648.0651,-397.3569 647.4599,-390.3832"/>
<text text-anchor="middle" x="776" y="-392" font-family="Helvetica,sans-Serif" font-size="10.00" fill="#000000"> elements</text>
</g>
<!-- Node7 -->
<g id="node15" class="node">
<title>Node7</title>
<g id="a_node15"><a xlink:href="classaworx_1_1lib_1_1strings_1_1PreallocatedStringBase.html" target="_top" xlink:title="PreallocatedStringBase\&lt;TChar\&gt;">
<polygon fill="#ffffff" stroke="#000000" points="856,-410.5 856,-429.5 1013,-429.5 1013,-410.5 856,-410.5"/>
<text text-anchor="middle" x="934.5" y="-417.5" font-family="Helvetica,sans-Serif" font-size="10.00" fill="#000000">PreallocatedStringBase&lt;TChar&gt;</text>
</a>
</g>
</g>
<!-- Node3&#45;&gt;Node7 -->
<g id="edge3" class="edge">
<title>Node3&#45;&gt;Node7</title>
<path fill="none" stroke="#191970" d="M648.1759,-403.7316C707.0124,-407.0746 793.4133,-411.9837 855.9023,-415.5342"/>
<polygon fill="#191970" stroke="#191970" points="648.0697,-400.22 637.8872,-403.147 647.6725,-407.2087 648.0697,-400.22"/>
</g>
<!-- Node4 -->
<g id="node8" class="node">
<title>Node4</title>
<g id="a_node8"><a xlink:href="classaworx_1_1lib_1_1strings_1_1TStringBase.html" target="_top" xlink:title="TStringBase\&lt;TChar\&gt;">
<polygon fill="#ffffff" stroke="#ff0000" points="173.5,-390.5 173.5,-409.5 282.5,-409.5 282.5,-390.5 173.5,-390.5"/>
<text text-anchor="middle" x="228" y="-397.5" font-family="Helvetica,sans-Serif" font-size="10.00" fill="#000000">TStringBase&lt;TChar&gt;</text>
</a>
</g>
</g>
<!-- Node4&#45;&gt;Node3 -->
<g id="edge4" class="edge">
<title>Node4&#45;&gt;Node3</title>
<path fill="none" stroke="#191970" d="M292.6555,-400C359.8175,-400 463.7841,-400 527.2402,-400"/>
<polygon fill="#191970" stroke="#191970" points="292.6138,-396.5001 282.6137,-400 292.6137,-403.5001 292.6138,-396.5001"/>
</g>
<!-- Node20 -->
<g id="node9" class="node">
<title>Node20</title>
<g id="a_node9"><a xlink:href="classaworx_1_1lib_1_1strings_1_1StringBase.html" target="_top" xlink:title="StringBase\&lt;character\&gt;">
<polygon fill="#ffffff" stroke="#000000" points="0,-162.5 0,-181.5 117,-181.5 117,-162.5 0,-162.5"/>
<text text-anchor="middle" x="58.5" y="-169.5" font-family="Helvetica,sans-Serif" font-size="10.00" fill="#000000">StringBase&lt;character&gt;</text>
</a>
</g>
</g>
<!-- Node22 -->
<g id="node11" class="node">
<title>Node22</title>
<g id="a_node11"><a xlink:href="classaworx_1_1lib_1_1strings_1_1TStringBase.html" target="_top" xlink:title="TStringBase\&lt;character\&gt;">
<polygon fill="#ffffff" stroke="#000000" points="166.5,-284.5 166.5,-303.5 289.5,-303.5 289.5,-284.5 166.5,-284.5"/>
<text text-anchor="middle" x="228" y="-291.5" font-family="Helvetica,sans-Serif" font-size="10.00" fill="#000000">TStringBase&lt;character&gt;</text>
</a>
</g>
</g>
<!-- Node20&#45;&gt;Node22 -->
<g id="edge13" class="edge">
<title>Node20&#45;&gt;Node22</title>
<path fill="none" stroke="#191970" d="M70.391,-190.2402C86.5201,-213.4947 117.5418,-253.2822 154,-275 160.4953,-278.8692 167.7668,-281.9574 175.1468,-284.4204"/>
<polygon fill="#191970" stroke="#191970" points="73.0942,-187.989 64.5972,-181.6603 67.293,-191.9064 73.0942,-187.989"/>
</g>
<!-- Node20&#45;&gt;Node9 -->
<g id="edge12" class="edge">
<title>Node20&#45;&gt;Node9</title>
<path fill="none" stroke="#9a32cd" stroke-dasharray="5,2" d="M127.1649,-162.4241C136.1859,-161.2332 145.3114,-160.0622 154,-159 227.6618,-149.9944 245.898,-145.0058 320,-141 487.0804,-131.9679 529.1902,-146.8875 696,-160 767.2247,-165.5988 850.4039,-172.2511 897.3218,-176.0139"/>
<polygon fill="#9a32cd" stroke="#9a32cd" points="126.5029,-158.9813 117.0532,-163.7724 127.4281,-165.9199 126.5029,-158.9813"/>
<text text-anchor="middle" x="385.5" y="-166" font-family="Helvetica,sans-Serif" font-size="10.00" fill="#000000"> SubstitutionVariableStart</text>
<text text-anchor="middle" x="385.5" y="-155" font-family="Helvetica,sans-Serif" font-size="10.00" fill="#000000">SubstitutionVariableEnd</text>
<text text-anchor="middle" x="385.5" y="-144" font-family="Helvetica,sans-Serif" font-size="10.00" fill="#000000">SubstitutionVariableDelimiters</text>
</g>
<!-- Node21 -->
<g id="node10" class="node">
<title>Node21</title>
<g id="a_node10"><a xlink:href="classaworx_1_1lib_1_1strings_1_1NumberFormatBase.html" target="_top" xlink:title="NumberFormatBase\&lt;character\&gt;">
<polygon fill="#ffffff" stroke="#000000" points="504,-207.5 504,-226.5 661,-226.5 661,-207.5 504,-207.5"/>
<text text-anchor="middle" x="582.5" y="-214.5" font-family="Helvetica,sans-Serif" font-size="10.00" fill="#000000">NumberFormatBase&lt;character&gt;</text>
</a>
</g>
</g>
<!-- Node21&#45;&gt;Node9 -->
<g id="edge14" class="edge">
<title>Node21&#45;&gt;Node9</title>
<path fill="none" stroke="#9a32cd" stroke-dasharray="5,2" d="M671.1472,-209.7795C720.361,-205.4932 782.6446,-199.611 838,-193 857.667,-190.6512 879.5138,-187.5251 897.44,-184.8227"/>
<polygon fill="#9a32cd" stroke="#9a32cd" points="670.8295,-206.2939 661.1683,-210.6424 671.4327,-213.2678 670.8295,-206.2939"/>
<text text-anchor="middle" x="776" y="-208" font-family="Helvetica,sans-Serif" font-size="10.00" fill="#000000"> NumberFormat</text>
</g>
<!-- Node22&#45;&gt;Node21 -->
<g id="edge15" class="edge">
<title>Node22&#45;&gt;Node21</title>
<path fill="none" stroke="#9a32cd" stroke-dasharray="5,2" d="M286.729,-281.324C291.9969,-279.4726 297.1626,-277.3738 302,-275 311.0985,-270.5353 310.7195,-265.0729 320,-261 324.6677,-258.9515 447.6773,-238.8125 523.6276,-226.5018"/>
<polygon fill="#9a32cd" stroke="#9a32cd" points="285.6323,-278.0001 277.1852,-284.3953 287.7767,-284.6636 285.6323,-278.0001"/>
<text text-anchor="middle" x="385.5" y="-330" font-family="Helvetica,sans-Serif" font-size="10.00" fill="#000000"> Whitespaces</text>
<text text-anchor="middle" x="385.5" y="-319" font-family="Helvetica,sans-Serif" font-size="10.00" fill="#000000">OctLiteralPrefix</text>
<text text-anchor="middle" x="385.5" y="-308" font-family="Helvetica,sans-Serif" font-size="10.00" fill="#000000">INFLiteral</text>
<text text-anchor="middle" x="385.5" y="-297" font-family="Helvetica,sans-Serif" font-size="10.00" fill="#000000">NANLiteral</text>
<text text-anchor="middle" x="385.5" y="-286" font-family="Helvetica,sans-Serif" font-size="10.00" fill="#000000">ExponentSeparator</text>
<text text-anchor="middle" x="385.5" y="-275" font-family="Helvetica,sans-Serif" font-size="10.00" fill="#000000">BinLiteralPrefix</text>
<text text-anchor="middle" x="385.5" y="-264" font-family="Helvetica,sans-Serif" font-size="10.00" fill="#000000">HexLiteralPrefix</text>
</g>
<!-- Node26 -->
<g id="node14" class="node">
<title>Node26</title>
<g id="a_node14"><a xlink:href="classaworx_1_1lib_1_1strings_1_1AStringBase.html" target="_top" xlink:title="AStringBase\&lt;character\&gt;">
<polygon fill="#ffffff" stroke="#000000" points="714,-331.5 714,-350.5 838,-350.5 838,-331.5 714,-331.5"/>
<text text-anchor="middle" x="776" y="-338.5" font-family="Helvetica,sans-Serif" font-size="10.00" fill="#000000">AStringBase&lt;character&gt;</text>
</a>
</g>
</g>
<!-- Node22&#45;&gt;Node26 -->
<g id="edge16" class="edge">
<title>Node22&#45;&gt;Node26</title>
<path fill="none" stroke="#191970" d="M251.5061,-308.8158C269.49,-319.2435 295.3169,-332.3158 320,-338 457.7111,-369.7133 625.0776,-358.6599 713.7918,-349.061"/>
<polygon fill="#191970" stroke="#191970" points="253.2447,-305.7775 242.8642,-303.6569 249.6567,-311.788 253.2447,-305.7775"/>
</g>
<!-- Node23 -->
<g id="node12" class="node">
<title>Node23</title>
<g id="a_node12"><a xlink:href="classaworx_1_1lib_1_1strings_1_1NumberFormatBase.html" target="_top" xlink:title="NumberFormatBase\&lt;TChar\&gt;">
<polygon fill="#ffffff" stroke="#ff0000" points="156.5,-206.5 156.5,-225.5 299.5,-225.5 299.5,-206.5 156.5,-206.5"/>
<text text-anchor="middle" x="228" y="-213.5" font-family="Helvetica,sans-Serif" font-size="10.00" fill="#000000">NumberFormatBase&lt;TChar&gt;</text>
</a>
</g>
</g>
<!-- Node23&#45;&gt;Node21 -->
<g id="edge17" class="edge">
<title>Node23&#45;&gt;Node21</title>
<path fill="none" stroke="#9a32cd" stroke-dasharray="5,2" d="M309.775,-215.8512C351.9553,-215.8122 404.2359,-215.8222 451,-216 468.1228,-216.0651 486.4994,-216.1779 503.9255,-216.3048"/>
<polygon fill="#9a32cd" stroke="#9a32cd" points="309.5525,-212.3513 299.5562,-215.8618 309.5598,-219.3513 309.5525,-212.3513"/>
<text text-anchor="middle" x="385.5" y="-230" font-family="Helvetica,sans-Serif" font-size="10.00" fill="#000000"> Global</text>
<text text-anchor="middle" x="385.5" y="-219" font-family="Helvetica,sans-Serif" font-size="10.00" fill="#000000">Computational</text>
</g>
<!-- Node23&#45;&gt;Node23 -->
<g id="edge18" class="edge">
<title>Node23&#45;&gt;Node23</title>
<path fill="none" stroke="#9a32cd" stroke-dasharray="5,2" d="M210.9638,-235.4C212.1015,-240.3146 217.7803,-244 228,-244 244.3516,-244 249.0782,-234.5653 242.1799,-225.7571"/>
<polygon fill="#9a32cd" stroke="#9a32cd" points="214.3358,-236.3393 213.8201,-225.7571 207.6241,-234.3512 214.3358,-236.3393"/>
<text text-anchor="middle" x="228" y="-258" font-family="Helvetica,sans-Serif" font-size="10.00" fill="#000000"> Global</text>
<text text-anchor="middle" x="228" y="-247" font-family="Helvetica,sans-Serif" font-size="10.00" fill="#000000">Computational</text>
</g>
<!-- Node25 -->
<g id="node13" class="node">
<title>Node25</title>
<g id="a_node13"><a xlink:href="classaworx_1_1lib_1_1strings_1_1StringBase.html" target="_top" xlink:title="StringBase\&lt;TChar\&gt;">
<polygon fill="#ffffff" stroke="#ff0000" points="176.5,-168.5 176.5,-187.5 279.5,-187.5 279.5,-168.5 176.5,-168.5"/>
<text text-anchor="middle" x="228" y="-175.5" font-family="Helvetica,sans-Serif" font-size="10.00" fill="#000000">StringBase&lt;TChar&gt;</text>
</a>
</g>
</g>
<!-- Node25&#45;&gt;Node24 -->
<g id="edge20" class="edge">
<title>Node25&#45;&gt;Node24</title>
<path fill="none" stroke="#9a32cd" stroke-dasharray="5,2" d="M289.7064,-178.1741C357.8177,-178.3662 466.2692,-178.6721 530.3129,-178.8528"/>
<polygon fill="#9a32cd" stroke="#9a32cd" points="289.5572,-174.6737 279.5473,-178.1454 289.5374,-181.6737 289.5572,-174.6737"/>
<text text-anchor="middle" x="385.5" y="-181" font-family="Helvetica,sans-Serif" font-size="10.00" fill="#000000"> elements</text>
</g>
<!-- Node26&#45;&gt;Node1 -->
<g id="edge21" class="edge">
<title>Node26&#45;&gt;Node1</title>
<path fill="none" stroke="#9a32cd" stroke-dasharray="5,2" d="M848.5542,-338.1306C895.5227,-336.9808 957.962,-336.7777 1013,-341 1059.0291,-344.5312 1112.0533,-353.8594 1142.7771,-359.7919"/>
<polygon fill="#9a32cd" stroke="#9a32cd" points="848.378,-334.6339 838.4742,-338.3976 848.5634,-341.6314 848.378,-334.6339"/>
<text text-anchor="middle" x="934.5" y="-355" font-family="Helvetica,sans-Serif" font-size="10.00" fill="#000000"> DefaultValue</text>
<text text-anchor="middle" x="934.5" y="-344" font-family="Helvetica,sans-Serif" font-size="10.00" fill="#000000">Comments</text>
</g>
<!-- Node7&#45;&gt;Node1 -->
<g id="edge5" class="edge">
<title>Node7&#45;&gt;Node1</title>
<path fill="none" stroke="#9a32cd" stroke-dasharray="5,2" d="M989.5548,-408.2928C1027.6877,-400.008 1079.5643,-388.3882 1125,-377 1130.7753,-375.5525 1136.9554,-373.9068 1142.7909,-372.3082"/>
<polygon fill="#9a32cd" stroke="#9a32cd" points="988.7087,-404.8948 979.6756,-410.4314 990.1898,-411.7363 988.7087,-404.8948"/>
<text text-anchor="middle" x="1078" y="-424" font-family="Helvetica,sans-Serif" font-size="10.00" fill="#000000"> Fullname</text>
<text text-anchor="middle" x="1078" y="-413" font-family="Helvetica,sans-Serif" font-size="10.00" fill="#000000">Category</text>
<text text-anchor="middle" x="1078" y="-402" font-family="Helvetica,sans-Serif" font-size="10.00" fill="#000000">Name</text>
</g>
<!-- Node7&#45;&gt;Node1 -->
<g id="edge6" class="edge">
<title>Node7&#45;&gt;Node1</title>
<path fill="none" stroke="#9a32cd" stroke-dasharray="5,2" d="M968.4071,-432.767C1008.4469,-445.5907 1075.81,-459.9267 1125,-433 1147.8653,-420.4835 1160.4678,-390.2583 1165.6502,-374.6647"/>
<polygon fill="#9a32cd" stroke="#9a32cd" points="969.4377,-429.4211 958.8438,-429.5653 967.2153,-436.059 969.4377,-429.4211"/>
<text text-anchor="middle" x="1078" y="-451" font-family="Helvetica,sans-Serif" font-size="10.00" fill="#000000"> FormatAttrAlignment</text>
</g>
<!-- Node9&#45;&gt;Node1 -->
<g id="edge7" class="edge">
<title>Node9&#45;&gt;Node1</title>
<path fill="none" stroke="#9a32cd" stroke-dasharray="5,2" d="M961.8994,-193.5019C1000.8747,-214.9534 1073.3212,-257.9347 1125,-307 1140.7002,-321.9062 1154.9399,-342.9643 1162.5943,-355.1788"/>
<polygon fill="#9a32cd" stroke="#9a32cd" points="963.2015,-190.2259 952.7447,-188.5214 959.8562,-196.3748 963.2015,-190.2259"/>
<text text-anchor="middle" x="1078" y="-310" font-family="Helvetica,sans-Serif" font-size="10.00" fill="#000000"> Config</text>
</g>
<!-- Node11 -->
<g id="node17" class="node">
<title>Node11</title>
<g id="a_node17"><a xlink:href="classaworx_1_1lib_1_1threads_1_1ThreadLock.html" target="_top" xlink:title="ThreadLock">
<polygon fill="#ffffff" stroke="#ff0000" points="194,-.5 194,-19.5 262,-19.5 262,-.5 194,-.5"/>
<text text-anchor="middle" x="228" y="-7.5" font-family="Helvetica,sans-Serif" font-size="10.00" fill="#000000">ThreadLock</text>
</a>
</g>
</g>
<!-- Node11&#45;&gt;Node10 -->
<g id="edge9" class="edge">
<title>Node11&#45;&gt;Node10</title>
<path fill="none" stroke="#191970" d="M272.3953,-17.1383C335.8325,-27.3384 452.5449,-46.1045 523.282,-57.4784"/>
<polygon fill="#191970" stroke="#191970" points="272.7419,-13.6492 262.3131,-15.5172 271.6306,-20.5604 272.7419,-13.6492"/>
</g>
</g>
</svg>
