<?xml version="1.0" encoding="UTF-8" standalone="no"?>
<!DOCTYPE svg PUBLIC "-//W3C//DTD SVG 1.1//EN"
 "http://www.w3.org/Graphics/SVG/1.1/DTD/svg11.dtd">
<!-- Generated by graphviz version 2.40.1 (20161225.0304)
 -->
<!-- Title: IApply_TwcharArr&lt;TChar&gt; Pages: 1 -->
<svg width="294pt" height="152pt"
 viewBox="0.00 0.00 294.00 152.00" xmlns="http://www.w3.org/2000/svg" xmlns:xlink="http://www.w3.org/1999/xlink">
<g id="graph0" class="graph" transform="scale(1 1) rotate(0) translate(4 148)">
<title>IApply_TwcharArr&lt;TChar&gt;</title>
<polygon fill="#ffffff" stroke="transparent" points="-4,4 -4,-148 290,-148 290,4 -4,4"/>
<!-- Node4 -->
<g id="node1" class="node">
<title>Node4</title>
<polygon fill="#bfbfbf" stroke="#000000" points="50.5,-.5 50.5,-19.5 182.5,-19.5 182.5,-.5 50.5,-.5"/>
<text text-anchor="middle" x="116.5" y="-7.5" font-family="Helvetica,sans-Serif" font-size="10.00" fill="#000000">IApply_TwcharArr&lt;TChar&gt;</text>
</g>
<!-- Node5 -->
<g id="node2" class="node">
<title>Node5</title>
<g id="a_node2"><a xlink:href="classaworx_1_1lib_1_1strings_1_1boxing_1_1IApply.html" target="_top" xlink:title="IApply\&lt;TChar\&gt;">
<polygon fill="#ffffff" stroke="#000000" points="0,-57.5 0,-76.5 83,-76.5 83,-57.5 0,-57.5"/>
<text text-anchor="middle" x="41.5" y="-64.5" font-family="Helvetica,sans-Serif" font-size="10.00" fill="#000000">IApply&lt;TChar&gt;</text>
</a>
</g>
</g>
<!-- Node5&#45;&gt;Node4 -->
<g id="edge1" class="edge">
<title>Node5&#45;&gt;Node4</title>
<path fill="none" stroke="#191970" d="M62.4003,-51.1158C75.7612,-40.9615 92.6443,-28.1303 103.9652,-19.5265"/>
<polygon fill="#191970" stroke="#191970" points="60.0666,-48.4933 54.2227,-57.3307 64.3022,-54.0664 60.0666,-48.4933"/>
</g>
<!-- Node7 -->
<g id="node3" class="node">
<title>Node7</title>
<g id="a_node3"><a xlink:href="classaworx_1_1lib_1_1lang_1_1Singleton.html" target="_top" xlink:title="Singleton\&lt;IApply_TwcharArr\&lt;TChar\&gt;\&gt;">
<polygon fill="#ffffff" stroke="#000000" points="101,-57.5 101,-76.5 286,-76.5 286,-57.5 101,-57.5"/>
<text text-anchor="middle" x="193.5" y="-64.5" font-family="Helvetica,sans-Serif" font-size="10.00" fill="#000000">Singleton&lt;IApply_TwcharArr&lt;TChar&gt;&gt;</text>
</a>
</g>
</g>
<!-- Node7&#45;&gt;Node4 -->
<g id="edge3" class="edge">
<title>Node7&#45;&gt;Node4</title>
<path fill="none" stroke="#191970" d="M172.0424,-51.1158C158.3252,-40.9615 140.9918,-28.1303 129.3691,-19.5265"/>
<polygon fill="#191970" stroke="#191970" points="170.3181,-54.194 180.438,-57.3307 174.483,-48.5678 170.3181,-54.194"/>
</g>
<!-- Node6 -->
<g id="node4" class="node">
<title>Node6</title>
<g id="a_node4"><a xlink:href="classaworx_1_1lib_1_1boxing_1_1Interface.html" target="_top" xlink:title="Interface">
<polygon fill="#ffffff" stroke="#000000" points="14,-124.5 14,-143.5 69,-143.5 69,-124.5 14,-124.5"/>
<text text-anchor="middle" x="41.5" y="-131.5" font-family="Helvetica,sans-Serif" font-size="10.00" fill="#000000">Interface</text>
</a>
</g>
</g>
<!-- Node6&#45;&gt;Node5 -->
<g id="edge2" class="edge">
<title>Node6&#45;&gt;Node5</title>
<path fill="none" stroke="#191970" d="M41.5,-114.1079C41.5,-101.714 41.5,-86.3263 41.5,-76.5817"/>
<polygon fill="#191970" stroke="#191970" points="38.0001,-114.4005 41.5,-124.4005 45.0001,-114.4006 38.0001,-114.4005"/>
</g>
<!-- Node8 -->
<g id="node5" class="node">
<title>Node8</title>
<polygon fill="#ffffff" stroke="#bfbfbf" points="152.5,-124.5 152.5,-143.5 234.5,-143.5 234.5,-124.5 152.5,-124.5"/>
<text text-anchor="middle" x="193.5" y="-131.5" font-family="Helvetica,sans-Serif" font-size="10.00" fill="#000000">TDerivedClass</text>
</g>
<!-- Node8&#45;&gt;Node7 -->
<g id="edge4" class="edge">
<title>Node8&#45;&gt;Node7</title>
<path fill="none" stroke="#9a32cd" stroke-dasharray="5,2" d="M193.5,-114.1079C193.5,-101.714 193.5,-86.3263 193.5,-76.5817"/>
<polygon fill="#9a32cd" stroke="#9a32cd" points="190.0001,-114.4005 193.5,-124.4005 197.0001,-114.4006 190.0001,-114.4005"/>
<text text-anchor="middle" x="215" y="-98" font-family="Helvetica,sans-Serif" font-size="10.00" fill="#000000"> singleton</text>
</g>
</g>
</svg>
