<?xml version="1.0" encoding="UTF-8" standalone="no"?>
<!DOCTYPE svg PUBLIC "-//W3C//DTD SVG 1.1//EN"
 "http://www.w3.org/Graphics/SVG/1.1/DTD/svg11.dtd">
<!-- Generated by graphviz version 2.40.1 (20161225.0304)
 -->
<!-- Title: ScopeDump Pages: 1 -->
<svg width="300pt" height="316pt"
 viewBox="0.00 0.00 300.00 316.00" xmlns="http://www.w3.org/2000/svg" xmlns:xlink="http://www.w3.org/1999/xlink">
<g id="graph0" class="graph" transform="scale(1 1) rotate(0) translate(4 312)">
<title>ScopeDump</title>
<polygon fill="#ffffff" stroke="transparent" points="-4,4 -4,-312 296,-312 296,4 -4,4"/>
<!-- Node1 -->
<g id="node1" class="node">
<title>Node1</title>
<polygon fill="#bfbfbf" stroke="#000000" points="123,-.5 123,-19.5 194,-19.5 194,-.5 123,-.5"/>
<text text-anchor="middle" x="158.5" y="-7.5" font-family="Helvetica,sans-Serif" font-size="10.00" fill="#000000">ScopeDump</text>
</g>
<!-- Node2 -->
<g id="node2" class="node">
<title>Node2</title>
<g id="a_node2"><a xlink:title="STL class. ">
<polygon fill="#ffffff" stroke="#bfbfbf" points="19.5,-67.5 19.5,-86.5 85.5,-86.5 85.5,-67.5 19.5,-67.5"/>
<text text-anchor="middle" x="52.5" y="-74.5" font-family="Helvetica,sans-Serif" font-size="10.00" fill="#000000">map&lt;K, T&gt;</text>
</a>
</g>
</g>
<!-- Node2&#45;&gt;Node1 -->
<g id="edge1" class="edge">
<title>Node2&#45;&gt;Node1</title>
<path fill="none" stroke="#9a32cd" stroke-dasharray="5,2" d="M72.5492,-61.1551C82.262,-53.7654 94.2374,-45.0643 105.5,-38 116.079,-31.3644 128.3857,-24.7974 138.4759,-19.6926"/>
<polygon fill="#9a32cd" stroke="#9a32cd" points="70.1249,-58.6053 64.3509,-67.4885 74.4043,-64.1448 70.1249,-58.6053"/>
<text text-anchor="middle" x="130" y="-41" font-family="Helvetica,sans-Serif" font-size="10.00" fill="#000000"> threadDict</text>
</g>
<!-- Node5 -->
<g id="node3" class="node">
<title>Node5</title>
<g id="a_node3"><a xlink:href="classaworx_1_1lib_1_1strings_1_1AStringBase.html" target="_top" xlink:title="AStringBase\&lt;TChar\&gt;">
<polygon fill="#ffffff" stroke="#000000" points="103.5,-67.5 103.5,-86.5 213.5,-86.5 213.5,-67.5 103.5,-67.5"/>
<text text-anchor="middle" x="158.5" y="-74.5" font-family="Helvetica,sans-Serif" font-size="10.00" fill="#000000">AStringBase&lt;TChar&gt;</text>
</a>
</g>
</g>
<!-- Node5&#45;&gt;Node1 -->
<g id="edge4" class="edge">
<title>Node5&#45;&gt;Node1</title>
<path fill="none" stroke="#9a32cd" stroke-dasharray="5,2" d="M158.5,-57.1079C158.5,-44.714 158.5,-29.3263 158.5,-19.5817"/>
<polygon fill="#9a32cd" stroke="#9a32cd" points="155.0001,-57.4005 158.5,-67.4005 162.0001,-57.4006 155.0001,-57.4005"/>
<text text-anchor="middle" x="185.5" y="-41" font-family="Helvetica,sans-Serif" font-size="10.00" fill="#000000"> targetBuffer</text>
</g>
<!-- Node6 -->
<g id="node4" class="node">
<title>Node6</title>
<g id="a_node4"><a xlink:href="classaworx_1_1lib_1_1strings_1_1TStringBase.html" target="_top" xlink:title="TStringBase\&lt;TChar\&gt;">
<polygon fill="#ffffff" stroke="#000000" points="104,-134.5 104,-153.5 213,-153.5 213,-134.5 104,-134.5"/>
<text text-anchor="middle" x="158.5" y="-141.5" font-family="Helvetica,sans-Serif" font-size="10.00" fill="#000000">TStringBase&lt;TChar&gt;</text>
</a>
</g>
</g>
<!-- Node6&#45;&gt;Node5 -->
<g id="edge5" class="edge">
<title>Node6&#45;&gt;Node5</title>
<path fill="none" stroke="#191970" d="M158.5,-124.1079C158.5,-111.714 158.5,-96.3263 158.5,-86.5817"/>
<polygon fill="#191970" stroke="#191970" points="155.0001,-124.4005 158.5,-134.4005 162.0001,-124.4006 155.0001,-124.4005"/>
</g>
<!-- Node7 -->
<g id="node5" class="node">
<title>Node7</title>
<g id="a_node5"><a xlink:href="classaworx_1_1lib_1_1strings_1_1StringBase.html" target="_top" xlink:title="StringBase\&lt;TChar\&gt;">
<polygon fill="#ffffff" stroke="#000000" points="109,-210.5 109,-229.5 212,-229.5 212,-210.5 109,-210.5"/>
<text text-anchor="middle" x="160.5" y="-217.5" font-family="Helvetica,sans-Serif" font-size="10.00" fill="#000000">StringBase&lt;TChar&gt;</text>
</a>
</g>
</g>
<!-- Node7&#45;&gt;Node6 -->
<g id="edge6" class="edge">
<title>Node7&#45;&gt;Node6</title>
<path fill="none" stroke="#191970" d="M159.9773,-200.1362C159.5849,-185.2258 159.0644,-165.4488 158.7576,-153.7874"/>
<polygon fill="#191970" stroke="#191970" points="156.4847,-200.4701 160.2467,-210.3745 163.4823,-200.2859 156.4847,-200.4701"/>
</g>
<!-- Node9 -->
<g id="node6" class="node">
<title>Node9</title>
<g id="a_node6"><a xlink:href="classaworx_1_1lib_1_1strings_1_1StringBase.html" target="_top" xlink:title="StringBase\&lt;TChar\&gt;">
<polygon fill="#ffffff" stroke="#000000" points="189,-172.5 189,-191.5 292,-191.5 292,-172.5 189,-172.5"/>
<text text-anchor="middle" x="240.5" y="-179.5" font-family="Helvetica,sans-Serif" font-size="10.00" fill="#000000">StringBase&lt;TChar&gt;</text>
</a>
</g>
</g>
<!-- Node9&#45;&gt;Node1 -->
<g id="edge9" class="edge">
<title>Node9&#45;&gt;Node1</title>
<path fill="none" stroke="#9a32cd" stroke-dasharray="5,2" d="M242.7307,-162.3052C245.0347,-132.2274 244.9772,-74.5016 216.5,-38 210.1036,-29.8012 200.7002,-23.8641 191.3186,-19.6275"/>
<polygon fill="#9a32cd" stroke="#9a32cd" points="239.2352,-162.0941 241.7863,-172.3772 246.2046,-162.7476 239.2352,-162.0941"/>
<text text-anchor="middle" x="259" y="-108" font-family="Helvetica,sans-Serif" font-size="10.00" fill="#000000"> noKey</text>
</g>
<!-- Node3 -->
<g id="node7" class="node">
<title>Node3</title>
<polygon fill="#ffffff" stroke="#bfbfbf" points="0,-134.5 0,-153.5 29,-153.5 29,-134.5 0,-134.5"/>
<text text-anchor="middle" x="14.5" y="-141.5" font-family="Helvetica,sans-Serif" font-size="10.00" fill="#000000">K</text>
</g>
<!-- Node3&#45;&gt;Node2 -->
<g id="edge2" class="edge">
<title>Node3&#45;&gt;Node2</title>
<path fill="none" stroke="#9a32cd" stroke-dasharray="5,2" d="M19.9961,-124.3551C22.1867,-117.9609 25.0254,-110.9762 28.5,-105 32.3617,-98.3581 37.8765,-91.7906 42.6461,-86.6872"/>
<polygon fill="#9a32cd" stroke="#9a32cd" points="16.5387,-123.6881 16.9234,-134.276 23.2253,-125.7591 16.5387,-123.6881"/>
<text text-anchor="middle" x="41" y="-108" font-family="Helvetica,sans-Serif" font-size="10.00" fill="#000000"> keys</text>
</g>
<!-- Node4 -->
<g id="node8" class="node">
<title>Node4</title>
<polygon fill="#ffffff" stroke="#bfbfbf" points="48,-134.5 48,-153.5 77,-153.5 77,-134.5 48,-134.5"/>
<text text-anchor="middle" x="62.5" y="-141.5" font-family="Helvetica,sans-Serif" font-size="10.00" fill="#000000">T</text>
</g>
<!-- Node4&#45;&gt;Node2 -->
<g id="edge3" class="edge">
<title>Node4&#45;&gt;Node2</title>
<path fill="none" stroke="#9a32cd" stroke-dasharray="5,2" d="M59.5875,-124.4863C57.7282,-112.0286 55.3994,-96.4258 53.9301,-86.5817"/>
<polygon fill="#9a32cd" stroke="#9a32cd" points="56.1293,-125.0268 61.0672,-134.4005 63.0526,-123.9934 56.1293,-125.0268"/>
<text text-anchor="middle" x="80" y="-108" font-family="Helvetica,sans-Serif" font-size="10.00" fill="#000000"> elements</text>
</g>
<!-- Node8 -->
<g id="node9" class="node">
<title>Node8</title>
<polygon fill="#ffffff" stroke="#bfbfbf" points="179,-288.5 179,-307.5 222,-307.5 222,-288.5 179,-288.5"/>
<text text-anchor="middle" x="200.5" y="-295.5" font-family="Helvetica,sans-Serif" font-size="10.00" fill="#000000">TChar</text>
</g>
<!-- Node8&#45;&gt;Node7 -->
<g id="edge7" class="edge">
<title>Node8&#45;&gt;Node7</title>
<path fill="none" stroke="#9a32cd" stroke-dasharray="5,2" d="M190.5018,-279.5134C188.8169,-276.3478 187.0973,-273.0853 185.5,-270 178.2714,-256.0379 170.1802,-239.724 165.2129,-229.6259"/>
<polygon fill="#9a32cd" stroke="#9a32cd" points="187.4828,-281.2895 195.2957,-288.4456 193.6506,-277.9792 187.4828,-281.2895"/>
<text text-anchor="middle" x="202" y="-262" font-family="Helvetica,sans-Serif" font-size="10.00" fill="#000000"> vbuffer</text>
<text text-anchor="middle" x="202" y="-251" font-family="Helvetica,sans-Serif" font-size="10.00" fill="#000000">buffer</text>
</g>
<!-- Node8&#45;&gt;Node9 -->
<g id="edge8" class="edge">
<title>Node8&#45;&gt;Node9</title>
<path fill="none" stroke="#9a32cd" stroke-dasharray="5,2" d="M213.3108,-279.9362C215.2364,-276.7242 217.0571,-273.3367 218.5,-270 230.2513,-242.8259 236.6076,-208.1048 239.1553,-191.5765"/>
<polygon fill="#9a32cd" stroke="#9a32cd" points="210.364,-278.0475 207.8322,-288.3354 216.227,-281.8718 210.364,-278.0475"/>
<text text-anchor="middle" x="243" y="-262" font-family="Helvetica,sans-Serif" font-size="10.00" fill="#000000"> vbuffer</text>
<text text-anchor="middle" x="243" y="-251" font-family="Helvetica,sans-Serif" font-size="10.00" fill="#000000">buffer</text>
</g>
</g>
</svg>
