<?xml version="1.0" encoding="UTF-8" standalone="no"?>
<!DOCTYPE svg PUBLIC "-//W3C//DTD SVG 1.1//EN"
 "http://www.w3.org/Graphics/SVG/1.1/DTD/svg11.dtd">
<!-- Generated by graphviz version 2.40.1 (20161225.0304)
 -->
<!-- Title: Library Pages: 1 -->
<svg width="1341pt" height="361pt"
 viewBox="0.00 0.00 1341.00 361.00" xmlns="http://www.w3.org/2000/svg" xmlns:xlink="http://www.w3.org/1999/xlink">
<g id="graph0" class="graph" transform="scale(1 1) rotate(0) translate(4 357)">
<title>Library</title>
<polygon fill="#ffffff" stroke="transparent" points="-4,4 -4,-357 1337,-357 1337,4 -4,4"/>
<!-- Node12 -->
<g id="node1" class="node">
<title>Node12</title>
<polygon fill="#bfbfbf" stroke="#000000" points="1095,-267.5 1095,-286.5 1141,-286.5 1141,-267.5 1095,-267.5"/>
<text text-anchor="middle" x="1118" y="-274.5" font-family="Helvetica,sans-Serif" font-size="10.00" fill="#000000">Library</text>
</g>
<!-- Node45 -->
<g id="node4" class="node">
<title>Node45</title>
<polygon fill="#ffffff" stroke="#bfbfbf" points="1241,-267.5 1241,-286.5 1333,-286.5 1333,-267.5 1241,-267.5"/>
<text text-anchor="middle" x="1287" y="-274.5" font-family="Helvetica,sans-Serif" font-size="10.00" fill="#000000">vector&lt;Library *&gt;</text>
</g>
<!-- Node12&#45;&gt;Node45 -->
<g id="edge1" class="edge">
<title>Node12&#45;&gt;Node45</title>
<path fill="none" stroke="#9a32cd" stroke-dasharray="5,2" d="M1151.4508,-277C1177.0444,-277 1212.6317,-277 1240.9203,-277"/>
<polygon fill="#9a32cd" stroke="#9a32cd" points="1151.1444,-273.5001 1141.1444,-277 1151.1443,-280.5001 1151.1444,-273.5001"/>
<text text-anchor="middle" x="1191" y="-280" font-family="Helvetica,sans-Serif" font-size="10.00" fill="#000000"> elements</text>
</g>
<!-- Node17 -->
<g id="node2" class="node">
<title>Node17</title>
<polygon fill="#ffffff" stroke="#bfbfbf" points="324.5,-.5 324.5,-19.5 476.5,-19.5 476.5,-.5 324.5,-.5"/>
<text text-anchor="middle" x="400.5" y="-7.5" font-family="Helvetica,sans-Serif" font-size="10.00" fill="#000000">vector&lt;MemoryBlocks::Block&gt;</text>
</g>
<!-- Node16 -->
<g id="node12" class="node">
<title>Node16</title>
<g id="a_node12"><a xlink:href="classaworx_1_1lib_1_1util_1_1MemoryBlocks.html" target="_top" xlink:title="MemoryBlocks">
<polygon fill="#ffffff" stroke="#000000" points="610.5,-37.5 610.5,-56.5 692.5,-56.5 692.5,-37.5 610.5,-37.5"/>
<text text-anchor="middle" x="651.5" y="-44.5" font-family="Helvetica,sans-Serif" font-size="10.00" fill="#000000">MemoryBlocks</text>
</a>
</g>
</g>
<!-- Node17&#45;&gt;Node16 -->
<g id="edge8" class="edge">
<title>Node17&#45;&gt;Node16</title>
<path fill="none" stroke="#9a32cd" stroke-dasharray="5,2" d="M486.9664,-.9068C520.0468,.1074 557.7894,-1.7727 591,-11 609.6065,-16.1697 628.2913,-28.6712 639.8701,-37.485"/>
<polygon fill="#9a32cd" stroke="#9a32cd" points="486.7126,2.5859 476.8599,-1.3096 486.9914,-4.4085 486.7126,2.5859"/>
<text text-anchor="middle" x="544" y="-25" font-family="Helvetica,sans-Serif" font-size="10.00" fill="#000000"> blocks</text>
<text text-anchor="middle" x="544" y="-14" font-family="Helvetica,sans-Serif" font-size="10.00" fill="#000000">actBlock</text>
</g>
<!-- Node20 -->
<g id="node3" class="node">
<title>Node20</title>
<polygon fill="#ffffff" stroke="#bfbfbf" points="345.5,-45.5 345.5,-64.5 455.5,-64.5 455.5,-45.5 345.5,-45.5"/>
<text text-anchor="middle" x="400.5" y="-52.5" font-family="Helvetica,sans-Serif" font-size="10.00" fill="#000000">vector&lt;AStringBase&gt;</text>
</g>
<!-- Node19 -->
<g id="node13" class="node">
<title>Node19</title>
<g id="a_node13"><a xlink:href="classaworx_1_1lib_1_1config_1_1Variable.html" target="_top" xlink:title="Variable">
<polygon fill="#ffffff" stroke="#000000" points="626,-116.5 626,-135.5 677,-135.5 677,-116.5 626,-116.5"/>
<text text-anchor="middle" x="651.5" y="-123.5" font-family="Helvetica,sans-Serif" font-size="10.00" fill="#000000">Variable</text>
</a>
</g>
</g>
<!-- Node20&#45;&gt;Node19 -->
<g id="edge10" class="edge">
<title>Node20&#45;&gt;Node19</title>
<path fill="none" stroke="#9a32cd" stroke-dasharray="5,2" d="M466.1102,-55.8906C503.8416,-58.3549 551.453,-64.8556 591,-81 611.1182,-89.2129 630.5841,-105.6959 641.7846,-116.2704"/>
<polygon fill="#9a32cd" stroke="#9a32cd" points="465.9284,-52.3745 455.7449,-55.2979 465.5287,-59.3631 465.9284,-52.3745"/>
<text text-anchor="middle" x="544" y="-84" font-family="Helvetica,sans-Serif" font-size="10.00" fill="#000000"> values</text>
</g>
<!-- Node45&#45;&gt;Node12 -->
<g id="edge18" class="edge">
<title>Node45&#45;&gt;Node12</title>
<path fill="none" stroke="#9a32cd" stroke-dasharray="5,2" d="M1242.6243,-265.2143C1236.0858,-263.8824 1229.3981,-262.7398 1223,-262 1194.7438,-258.733 1187.0082,-257.0374 1159,-262 1152.5816,-263.1372 1145.8486,-265.2032 1139.7366,-267.4456"/>
<polygon fill="#9a32cd" stroke="#9a32cd" points="1242.195,-268.7034 1252.7133,-267.4324 1243.6981,-261.8667 1242.195,-268.7034"/>
<text text-anchor="middle" x="1191" y="-265" font-family="Helvetica,sans-Serif" font-size="10.00" fill="#000000"> dependencies</text>
</g>
<!-- Node46 -->
<g id="node5" class="node">
<title>Node46</title>
<polygon fill="#ffffff" stroke="#bfbfbf" points="767,-330.5 767,-349.5 943,-349.5 943,-330.5 767,-330.5"/>
<text text-anchor="middle" x="855" y="-337.5" font-family="Helvetica,sans-Serif" font-size="10.00" fill="#000000">vector&lt;pair&lt;const char *, uint64_t&gt;&gt;</text>
</g>
<!-- Node46&#45;&gt;Node12 -->
<g id="edge19" class="edge">
<title>Node46&#45;&gt;Node12</title>
<path fill="none" stroke="#9a32cd" stroke-dasharray="5,2" d="M953.1074,-342.8987C993.1046,-340.7012 1038.8211,-333.697 1077,-316 1091.2608,-309.3897 1103.7113,-295.8079 1111.0436,-286.5511"/>
<polygon fill="#9a32cd" stroke="#9a32cd" points="952.8997,-339.4044 943.0699,-343.3574 953.2193,-346.3972 952.8997,-339.4044"/>
<text text-anchor="middle" x="1019" y="-345" font-family="Helvetica,sans-Serif" font-size="10.00" fill="#000000"> CompilationFlagMeanings</text>
</g>
<!-- Node13 -->
<g id="node6" class="node">
<title>Node13</title>
<g id="a_node6"><a xlink:href="classaworx_1_1lib_1_1strings_1_1TStringBase.html" target="_top" xlink:title="TStringBase\&lt;character\&gt;">
<polygon fill="#ffffff" stroke="#000000" points="158,-256.5 158,-275.5 281,-275.5 281,-256.5 158,-256.5"/>
<text text-anchor="middle" x="219.5" y="-263.5" font-family="Helvetica,sans-Serif" font-size="10.00" fill="#000000">TStringBase&lt;character&gt;</text>
</a>
</g>
</g>
<!-- Node13&#45;&gt;Node12 -->
<g id="edge2" class="edge">
<title>Node13&#45;&gt;Node12</title>
<path fill="none" stroke="#9a32cd" stroke-dasharray="5,2" d="M258.6469,-278.4025C295.0093,-288.814 350.8606,-302 400.5,-302 400.5,-302 400.5,-302 855,-302 953.9905,-302 978.7819,-296.3419 1077,-284 1082.7318,-283.2798 1088.8851,-282.3261 1094.6367,-281.3552"/>
<polygon fill="#9a32cd" stroke="#9a32cd" points="259.5098,-275.0083 248.929,-275.5528 257.54,-281.7254 259.5098,-275.0083"/>
<text text-anchor="middle" x="651.5" y="-305" font-family="Helvetica,sans-Serif" font-size="10.00" fill="#000000"> ResourceCategory</text>
</g>
<!-- Node42 -->
<g id="node8" class="node">
<title>Node42</title>
<g id="a_node8"><a xlink:href="classaworx_1_1lib_1_1strings_1_1AStringBase.html" target="_top" xlink:title="AStringBase\&lt;character\&gt;">
<polygon fill="#ffffff" stroke="#000000" points="338.5,-254.5 338.5,-273.5 462.5,-273.5 462.5,-254.5 338.5,-254.5"/>
<text text-anchor="middle" x="400.5" y="-261.5" font-family="Helvetica,sans-Serif" font-size="10.00" fill="#000000">AStringBase&lt;character&gt;</text>
</a>
</g>
</g>
<!-- Node13&#45;&gt;Node42 -->
<g id="edge3" class="edge">
<title>Node13&#45;&gt;Node42</title>
<path fill="none" stroke="#191970" d="M291.1285,-265.2085C306.6964,-265.0365 323.044,-264.8559 338.216,-264.6882"/>
<polygon fill="#191970" stroke="#191970" points="290.9916,-261.7097 281.0309,-265.3201 291.069,-268.7093 290.9916,-261.7097"/>
</g>
<!-- Node14 -->
<g id="node7" class="node">
<title>Node14</title>
<g id="a_node7"><a xlink:href="classaworx_1_1lib_1_1strings_1_1StringBase.html" target="_top" xlink:title="StringBase\&lt;character\&gt;">
<polygon fill="#ffffff" stroke="#000000" points="0,-216.5 0,-235.5 117,-235.5 117,-216.5 0,-216.5"/>
<text text-anchor="middle" x="58.5" y="-223.5" font-family="Helvetica,sans-Serif" font-size="10.00" fill="#000000">StringBase&lt;character&gt;</text>
</a>
</g>
</g>
<!-- Node14&#45;&gt;Node13 -->
<g id="edge4" class="edge">
<title>Node14&#45;&gt;Node13</title>
<path fill="none" stroke="#191970" d="M106.9565,-238.0389C130.7488,-243.95 159.004,-250.9699 181.2512,-256.4972"/>
<polygon fill="#191970" stroke="#191970" points="107.6124,-234.5955 97.0635,-235.581 105.9245,-241.389 107.6124,-234.5955"/>
</g>
<!-- Node27 -->
<g id="node10" class="node">
<title>Node27</title>
<g id="a_node10"><a xlink:href="classaworx_1_1lib_1_1config_1_1Configuration.html" target="_top" xlink:title="Configuration">
<polygon fill="#ffffff" stroke="#ff0000" points="363.5,-195.5 363.5,-214.5 437.5,-214.5 437.5,-195.5 363.5,-195.5"/>
<text text-anchor="middle" x="400.5" y="-202.5" font-family="Helvetica,sans-Serif" font-size="10.00" fill="#000000">Configuration</text>
</a>
</g>
</g>
<!-- Node14&#45;&gt;Node27 -->
<g id="edge5" class="edge">
<title>Node14&#45;&gt;Node27</title>
<path fill="none" stroke="#9a32cd" stroke-dasharray="5,2" d="M127.1185,-216.6376C136.147,-215.6231 145.2869,-214.7051 154,-214 228.057,-208.0071 314.9554,-206.0035 363.2729,-205.3345"/>
<polygon fill="#9a32cd" stroke="#9a32cd" points="126.5282,-213.1826 117.0011,-217.8177 127.3393,-220.1355 126.5282,-213.1826"/>
<text text-anchor="middle" x="219.5" y="-239" font-family="Helvetica,sans-Serif" font-size="10.00" fill="#000000"> SubstitutionVariableStart</text>
<text text-anchor="middle" x="219.5" y="-228" font-family="Helvetica,sans-Serif" font-size="10.00" fill="#000000">SubstitutionVariableEnd</text>
<text text-anchor="middle" x="219.5" y="-217" font-family="Helvetica,sans-Serif" font-size="10.00" fill="#000000">SubstitutionVariableDelimiters</text>
</g>
<!-- Node42&#45;&gt;Node19 -->
<g id="edge17" class="edge">
<title>Node42&#45;&gt;Node19</title>
<path fill="none" stroke="#9a32cd" stroke-dasharray="5,2" d="M472.1382,-252.1801C511.2842,-242.5294 558.3066,-225.3184 591,-195 605.2944,-181.744 596.4794,-169.9427 609,-155 615.5401,-147.1947 624.6833,-140.5902 632.8143,-135.6649"/>
<polygon fill="#9a32cd" stroke="#9a32cd" points="471.3041,-248.7807 462.3691,-254.4741 472.9044,-255.5953 471.3041,-248.7807"/>
<text text-anchor="middle" x="544" y="-258" font-family="Helvetica,sans-Serif" font-size="10.00" fill="#000000"> DefaultValue</text>
<text text-anchor="middle" x="544" y="-247" font-family="Helvetica,sans-Serif" font-size="10.00" fill="#000000">Comments</text>
</g>
<!-- Node25 -->
<g id="node9" class="node">
<title>Node25</title>
<g id="a_node9"><a xlink:href="classaworx_1_1lib_1_1strings_1_1PreallocatedStringBase.html" target="_top" xlink:title="PreallocatedStringBase\&lt;TChar\&gt;">
<polygon fill="#ffffff" stroke="#ff0000" points="322,-98.5 322,-117.5 479,-117.5 479,-98.5 322,-98.5"/>
<text text-anchor="middle" x="400.5" y="-105.5" font-family="Helvetica,sans-Serif" font-size="10.00" fill="#000000">PreallocatedStringBase&lt;TChar&gt;</text>
</a>
</g>
</g>
<!-- Node25&#45;&gt;Node19 -->
<g id="edge11" class="edge">
<title>Node25&#45;&gt;Node19</title>
<path fill="none" stroke="#9a32cd" stroke-dasharray="5,2" d="M489.3972,-114.3751C537.6638,-117.8364 593.8462,-121.8655 625.7871,-124.156"/>
<polygon fill="#9a32cd" stroke="#9a32cd" points="489.4541,-110.8703 479.2293,-113.6459 488.9533,-117.8523 489.4541,-110.8703"/>
<text text-anchor="middle" x="544" y="-147" font-family="Helvetica,sans-Serif" font-size="10.00" fill="#000000"> Fullname</text>
<text text-anchor="middle" x="544" y="-136" font-family="Helvetica,sans-Serif" font-size="10.00" fill="#000000">Category</text>
<text text-anchor="middle" x="544" y="-125" font-family="Helvetica,sans-Serif" font-size="10.00" fill="#000000">Name</text>
</g>
<!-- Node25&#45;&gt;Node19 -->
<g id="edge12" class="edge">
<title>Node25&#45;&gt;Node19</title>
<path fill="none" stroke="#9a32cd" stroke-dasharray="5,2" d="M473.2054,-97.4889C508.9919,-94.2957 552.5908,-93.3768 591,-101 605.9376,-103.9647 621.8136,-110.6754 633.5529,-116.3982"/>
<polygon fill="#9a32cd" stroke="#9a32cd" points="472.4633,-94.0445 462.8486,-98.495 473.1402,-101.0117 472.4633,-94.0445"/>
<text text-anchor="middle" x="544" y="-104" font-family="Helvetica,sans-Serif" font-size="10.00" fill="#000000"> FormatAttrAlignment</text>
</g>
<!-- Node27&#45;&gt;Node12 -->
<g id="edge13" class="edge">
<title>Node27&#45;&gt;Node12</title>
<path fill="none" stroke="#9a32cd" stroke-dasharray="5,2" d="M447.6834,-212.6215C489.8742,-219.2376 553.4399,-228.7165 609,-235 796.0065,-256.1494 1022.8096,-271.1 1094.8685,-275.5924"/>
<polygon fill="#9a32cd" stroke="#9a32cd" points="448.1229,-209.1476 437.6996,-211.0467 447.0322,-216.0621 448.1229,-209.1476"/>
<text text-anchor="middle" x="730.5" y="-252" font-family="Helvetica,sans-Serif" font-size="10.00" fill="#000000"> Config</text>
</g>
<!-- Node15 -->
<g id="node11" class="node">
<title>Node15</title>
<g id="a_node11"><a xlink:href="classaworx_1_1lib_1_1lang_1_1Resources.html" target="_top" xlink:title="Resources">
<polygon fill="#ffffff" stroke="#000000" points="823,-167.5 823,-186.5 887,-186.5 887,-167.5 823,-167.5"/>
<text text-anchor="middle" x="855" y="-174.5" font-family="Helvetica,sans-Serif" font-size="10.00" fill="#000000">Resources</text>
</a>
</g>
</g>
<!-- Node27&#45;&gt;Node15 -->
<g id="edge14" class="edge">
<title>Node27&#45;&gt;Node15</title>
<path fill="none" stroke="#9a32cd" stroke-dasharray="5,2" d="M448.0872,-204.106C486.8177,-202.7558 542.7694,-199.3861 591,-191 599.1802,-189.5777 600.795,-187.2716 609,-186 685.0189,-174.2185 775.7549,-174.5553 822.9294,-175.7936"/>
<polygon fill="#9a32cd" stroke="#9a32cd" points="447.5252,-200.6219 437.6406,-204.4358 447.7461,-207.6184 447.5252,-200.6219"/>
<text text-anchor="middle" x="651.5" y="-189" font-family="Helvetica,sans-Serif" font-size="10.00" fill="#000000"> Config</text>
</g>
<!-- Node27&#45;&gt;Node19 -->
<g id="edge15" class="edge">
<title>Node27&#45;&gt;Node19</title>
<path fill="none" stroke="#9a32cd" stroke-dasharray="5,2" d="M447.1959,-192.7668C462.9985,-188.6631 480.7551,-184.0915 497,-180 538.7077,-169.4954 550.6977,-172.0201 591,-157 606.5932,-151.1886 623.3628,-142.3747 635.2825,-135.6286"/>
<polygon fill="#9a32cd" stroke="#9a32cd" points="445.9254,-189.4808 437.129,-195.3862 447.6881,-196.2552 445.9254,-189.4808"/>
<text text-anchor="middle" x="544" y="-183" font-family="Helvetica,sans-Serif" font-size="10.00" fill="#000000"> Config</text>
</g>
<!-- Node15&#45;&gt;Node12 -->
<g id="edge6" class="edge">
<title>Node15&#45;&gt;Node12</title>
<path fill="none" stroke="#9a32cd" stroke-dasharray="5,2" d="M897.2557,-179.0932C944.2406,-183.1118 1020.8938,-194.8332 1077,-229 1092.7256,-238.5764 1105.4686,-256.2556 1112.3712,-267.2785"/>
<polygon fill="#9a32cd" stroke="#9a32cd" points="897.3669,-175.5914 887.1261,-178.3072 896.8253,-182.5704 897.3669,-175.5914"/>
<text text-anchor="middle" x="1019" y="-232" font-family="Helvetica,sans-Serif" font-size="10.00" fill="#000000"> Res</text>
</g>
<!-- Node16&#45;&gt;Node15 -->
<g id="edge7" class="edge">
<title>Node16&#45;&gt;Node15</title>
<path fill="none" stroke="#9a32cd" stroke-dasharray="5,2" d="M674.9928,-62.0077C717.248,-89.0012 804.9315,-145.0152 840.0142,-167.4268"/>
<polygon fill="#9a32cd" stroke="#9a32cd" points="676.7753,-58.9932 666.4638,-56.5592 673.0068,-64.8923 676.7753,-58.9932"/>
<text text-anchor="middle" x="730.5" y="-112" font-family="Helvetica,sans-Serif" font-size="10.00" fill="#000000"> cache</text>
</g>
<!-- Node19&#45;&gt;Node15 -->
<g id="edge9" class="edge">
<title>Node19&#45;&gt;Node15</title>
<path fill="none" stroke="#9a32cd" stroke-dasharray="5,2" d="M686.9764,-134.8909C725.2727,-144.4885 785.7393,-159.6423 822.7373,-168.9145"/>
<polygon fill="#9a32cd" stroke="#9a32cd" points="687.8243,-131.4952 677.2734,-132.4592 686.1226,-138.2852 687.8243,-131.4952"/>
<text text-anchor="middle" x="730.5" y="-153" font-family="Helvetica,sans-Serif" font-size="10.00" fill="#000000"> variable</text>
</g>
<!-- Node29 -->
<g id="node14" class="node">
<title>Node29</title>
<g id="a_node14"><a xlink:href="classaworx_1_1lib_1_1threads_1_1ThreadLock.html" target="_top" xlink:title="ThreadLock">
<polygon fill="#ffffff" stroke="#ff0000" points="617.5,-206.5 617.5,-225.5 685.5,-225.5 685.5,-206.5 617.5,-206.5"/>
<text text-anchor="middle" x="651.5" y="-213.5" font-family="Helvetica,sans-Serif" font-size="10.00" fill="#000000">ThreadLock</text>
</a>
</g>
</g>
<!-- Node29&#45;&gt;Node15 -->
<g id="edge16" class="edge">
<title>Node29&#45;&gt;Node15</title>
<path fill="none" stroke="#9a32cd" stroke-dasharray="5,2" d="M695.418,-207.5833C733.7477,-200.2375 788.4694,-189.7503 822.8443,-183.1625"/>
<polygon fill="#9a32cd" stroke="#9a32cd" points="694.7238,-204.1525 685.5613,-209.4723 696.0414,-211.0274 694.7238,-204.1525"/>
<text text-anchor="middle" x="730.5" y="-206" font-family="Helvetica,sans-Serif" font-size="10.00" fill="#000000"> lock</text>
</g>
</g>
</svg>
