<?xml version="1.0" encoding="UTF-8" standalone="no"?>
<!DOCTYPE svg PUBLIC "-//W3C//DTD SVG 1.1//EN"
 "http://www.w3.org/Graphics/SVG/1.1/DTD/svg11.dtd">
<!-- Generated by graphviz version 2.40.1 (20161225.0304)
 -->
<!-- Title: InMemoryPlugin::Section Pages: 1 -->
<svg width="1091pt" height="178pt"
 viewBox="0.00 0.00 1091.00 178.20" xmlns="http://www.w3.org/2000/svg" xmlns:xlink="http://www.w3.org/1999/xlink">
<g id="graph0" class="graph" transform="scale(1 1) rotate(0) translate(4 174.1962)">
<title>InMemoryPlugin::Section</title>
<polygon fill="#ffffff" stroke="transparent" points="-4,4 -4,-174.1962 1087,-174.1962 1087,4 -4,4"/>
<!-- Node2 -->
<g id="node1" class="node">
<title>Node2</title>
<polygon fill="#bfbfbf" stroke="#000000" points="957,-59.6962 957,-78.6962 1083,-78.6962 1083,-59.6962 957,-59.6962"/>
<text text-anchor="middle" x="1020" y="-66.6962" font-family="Helvetica,sans-Serif" font-size="10.00" fill="#000000">InMemoryPlugin::Section</text>
</g>
<!-- Node8 -->
<g id="node2" class="node">
<title>Node8</title>
<polygon fill="#ffffff" stroke="#bfbfbf" points="725,-59.6962 725,-78.6962 887,-78.6962 887,-59.6962 725,-59.6962"/>
<text text-anchor="middle" x="806" y="-66.6962" font-family="Helvetica,sans-Serif" font-size="10.00" fill="#000000">vector&lt;InMemoryPlugin::Entry *&gt;</text>
</g>
<!-- Node8&#45;&gt;Node2 -->
<g id="edge5" class="edge">
<title>Node8&#45;&gt;Node2</title>
<path fill="none" stroke="#9a32cd" stroke-dasharray="5,2" d="M897.2991,-69.1962C917.3608,-69.1962 938.1751,-69.1962 956.8382,-69.1962"/>
<polygon fill="#9a32cd" stroke="#9a32cd" points="897.2094,-65.6963 887.2094,-69.1962 897.2093,-72.6963 897.2094,-65.6963"/>
<text text-anchor="middle" x="922" y="-72.1962" font-family="Helvetica,sans-Serif" font-size="10.00" fill="#000000"> Entries</text>
</g>
<!-- Node10 -->
<g id="node3" class="node">
<title>Node10</title>
<polygon fill="#ffffff" stroke="#bfbfbf" points="330.5,-111.6962 330.5,-130.6962 440.5,-130.6962 440.5,-111.6962 330.5,-111.6962"/>
<text text-anchor="middle" x="385.5" y="-118.6962" font-family="Helvetica,sans-Serif" font-size="10.00" fill="#000000">vector&lt;AStringBase&gt;</text>
</g>
<!-- Node9 -->
<g id="node7" class="node">
<title>Node9</title>
<g id="a_node7"><a xlink:href="classaworx_1_1lib_1_1config_1_1InMemoryPlugin_1_1Entry.html" target="_top" xlink:title="Entry">
<polygon fill="#ffffff" stroke="#000000" points="600,-59.6962 600,-78.6962 640,-78.6962 640,-59.6962 600,-59.6962"/>
<text text-anchor="middle" x="620" y="-66.6962" font-family="Helvetica,sans-Serif" font-size="10.00" fill="#000000">Entry</text>
</a>
</g>
</g>
<!-- Node10&#45;&gt;Node9 -->
<g id="edge7" class="edge">
<title>Node10&#45;&gt;Node9</title>
<path fill="none" stroke="#9a32cd" stroke-dasharray="5,2" d="M450.9959,-119.3575C488.4923,-116.6546 535.9076,-110.398 576,-96.1962 587.4894,-92.1263 599.1893,-84.7605 607.6334,-78.7494"/>
<polygon fill="#9a32cd" stroke="#9a32cd" points="450.4483,-115.8857 440.6973,-120.0292 450.9039,-122.8708 450.4483,-115.8857"/>
<text text-anchor="middle" x="529" y="-119.1962" font-family="Helvetica,sans-Serif" font-size="10.00" fill="#000000"> Values</text>
</g>
<!-- Node5 -->
<g id="node4" class="node">
<title>Node5</title>
<g id="a_node4"><a xlink:href="classaworx_1_1lib_1_1strings_1_1TStringBase.html" target="_top" xlink:title="TStringBase\&lt;TChar\&gt;">
<polygon fill="#ffffff" stroke="#ff0000" points="0,-72.6962 0,-91.6962 109,-91.6962 109,-72.6962 0,-72.6962"/>
<text text-anchor="middle" x="54.5" y="-79.6962" font-family="Helvetica,sans-Serif" font-size="10.00" fill="#000000">TStringBase&lt;TChar&gt;</text>
</a>
</g>
</g>
<!-- Node12 -->
<g id="node5" class="node">
<title>Node12</title>
<g id="a_node5"><a xlink:href="classaworx_1_1lib_1_1strings_1_1AStringBase.html" target="_top" xlink:title="AStringBase\&lt;character\&gt;">
<polygon fill="#ffffff" stroke="#ff0000" points="146,-72.6962 146,-91.6962 270,-91.6962 270,-72.6962 146,-72.6962"/>
<text text-anchor="middle" x="208" y="-79.6962" font-family="Helvetica,sans-Serif" font-size="10.00" fill="#000000">AStringBase&lt;character&gt;</text>
</a>
</g>
</g>
<!-- Node5&#45;&gt;Node12 -->
<g id="edge4" class="edge">
<title>Node5&#45;&gt;Node12</title>
<path fill="none" stroke="#191970" d="M119.2403,-82.1962C128.0291,-82.1962 137.0334,-82.1962 145.7766,-82.1962"/>
<polygon fill="#191970" stroke="#191970" points="119.0506,-78.6963 109.0506,-82.1962 119.0505,-85.6963 119.0506,-78.6963"/>
</g>
<!-- Node12&#45;&gt;Node2 -->
<g id="edge8" class="edge">
<title>Node12&#45;&gt;Node2</title>
<path fill="none" stroke="#9a32cd" stroke-dasharray="5,2" d="M228.6483,-97.8159C260.5135,-120.3213 324.3992,-159.1962 385.5,-159.1962 385.5,-159.1962 385.5,-159.1962 806,-159.1962 888.2216,-159.1962 975.2946,-102.0453 1007.2756,-78.8277"/>
<polygon fill="#9a32cd" stroke="#9a32cd" points="230.6922,-94.9747 220.5388,-91.9483 226.5888,-100.6459 230.6922,-94.9747"/>
<text text-anchor="middle" x="620" y="-162.1962" font-family="Helvetica,sans-Serif" font-size="10.00" fill="#000000"> Comments</text>
</g>
<!-- Node3 -->
<g id="node6" class="node">
<title>Node3</title>
<g id="a_node6"><a xlink:href="classaworx_1_1lib_1_1strings_1_1PreallocatedStringBase.html" target="_top" xlink:title="PreallocatedStringBase\&lt;TChar\&gt;">
<polygon fill="#ffffff" stroke="#000000" points="307,-19.6962 307,-38.6962 464,-38.6962 464,-19.6962 307,-19.6962"/>
<text text-anchor="middle" x="385.5" y="-26.6962" font-family="Helvetica,sans-Serif" font-size="10.00" fill="#000000">PreallocatedStringBase&lt;TChar&gt;</text>
</a>
</g>
</g>
<!-- Node12&#45;&gt;Node3 -->
<g id="edge9" class="edge">
<title>Node12&#45;&gt;Node3</title>
<path fill="none" stroke="#191970" d="M250.0238,-69.6482C281.7587,-60.1725 324.6442,-47.3672 353.5952,-38.7227"/>
<polygon fill="#191970" stroke="#191970" points="248.7245,-66.3834 240.1439,-72.5983 250.7273,-73.0908 248.7245,-66.3834"/>
</g>
<!-- Node12&#45;&gt;Node9 -->
<g id="edge10" class="edge">
<title>Node12&#45;&gt;Node9</title>
<path fill="none" stroke="#9a32cd" stroke-dasharray="5,2" d="M280.3996,-79.9117C376.9665,-76.8647 542.4135,-71.6443 599.7406,-69.8354"/>
<polygon fill="#9a32cd" stroke="#9a32cd" points="280.0113,-76.4221 270.1266,-80.2359 280.2321,-83.4186 280.0113,-76.4221"/>
<text text-anchor="middle" x="385.5" y="-82.1962" font-family="Helvetica,sans-Serif" font-size="10.00" fill="#000000"> Comments</text>
</g>
<!-- Node3&#45;&gt;Node2 -->
<g id="edge1" class="edge">
<title>Node3&#45;&gt;Node2</title>
<path fill="none" stroke="#9a32cd" stroke-dasharray="5,2" d="M427.3923,-16.9553C444.2076,-12.6366 463.8687,-8.3271 482,-6.1962 661.8216,14.9374 707.7433,-24.7116 887,-50.1962 909.7461,-53.4299 934.6783,-56.9881 956.7469,-60.1422"/>
<polygon fill="#9a32cd" stroke="#9a32cd" points="426.0967,-13.6779 417.3292,-19.626 427.8924,-20.4436 426.0967,-13.6779"/>
<text text-anchor="middle" x="685.5" y="-18.1962" font-family="Helvetica,sans-Serif" font-size="10.00" fill="#000000"> Name</text>
</g>
<!-- Node3&#45;&gt;Node9 -->
<g id="edge2" class="edge">
<title>Node3&#45;&gt;Node9</title>
<path fill="none" stroke="#9a32cd" stroke-dasharray="5,2" d="M430.101,-17.5026C470.0093,-9.382 529.2544,-3.2223 576,-23.1962 593.2761,-30.5781 607.0105,-48.4409 614.2886,-59.6094"/>
<polygon fill="#9a32cd" stroke="#9a32cd" points="429.1766,-14.1215 420.1397,-19.652 430.653,-20.964 429.1766,-14.1215"/>
<text text-anchor="middle" x="529" y="-26.1962" font-family="Helvetica,sans-Serif" font-size="10.00" fill="#000000"> Name</text>
</g>
<!-- Node3&#45;&gt;Node9 -->
<g id="edge3" class="edge">
<title>Node3&#45;&gt;Node9</title>
<path fill="none" stroke="#9a32cd" stroke-dasharray="5,2" d="M474.4675,-40.0138C506.6104,-44.5161 543.0791,-50.3136 576,-57.1962 583.9053,-58.8489 592.4962,-61.0896 599.9713,-63.1874"/>
<polygon fill="#9a32cd" stroke="#9a32cd" points="474.5778,-36.496 464.1935,-38.5978 473.622,-43.4304 474.5778,-36.496"/>
<text text-anchor="middle" x="529" y="-60.1962" font-family="Helvetica,sans-Serif" font-size="10.00" fill="#000000"> FormatAttrAlignment</text>
</g>
<!-- Node9&#45;&gt;Node8 -->
<g id="edge6" class="edge">
<title>Node9&#45;&gt;Node8</title>
<path fill="none" stroke="#9a32cd" stroke-dasharray="5,2" d="M650.4139,-69.1962C670.6693,-69.1962 698.3152,-69.1962 724.6872,-69.1962"/>
<polygon fill="#9a32cd" stroke="#9a32cd" points="650.2594,-65.6963 640.2593,-69.1962 650.2593,-72.6963 650.2594,-65.6963"/>
<text text-anchor="middle" x="685.5" y="-72.1962" font-family="Helvetica,sans-Serif" font-size="10.00" fill="#000000"> elements</text>
</g>
</g>
</svg>
