<?xml version="1.0" encoding="UTF-8" standalone="no"?>
<!DOCTYPE svg PUBLIC "-//W3C//DTD SVG 1.1//EN"
 "http://www.w3.org/Graphics/SVG/1.1/DTD/svg11.dtd">
<!-- Generated by graphviz version 2.40.1 (20161225.0304)
 -->
<!-- Title: Expressions Pages: 1 -->
<svg width="1294pt" height="266pt"
 viewBox="0.00 0.00 1294.00 266.00" xmlns="http://www.w3.org/2000/svg" xmlns:xlink="http://www.w3.org/1999/xlink">
<g id="graph0" class="graph" transform="scale(1 1) rotate(0) translate(4 262)">
<title>Expressions</title>
<polygon fill="#ffffff" stroke="transparent" points="-4,4 -4,-262 1290,-262 1290,4 -4,4"/>
<!-- Node2 -->
<g id="node1" class="node">
<title>Node2</title>
<polygon fill="#bfbfbf" stroke="#000000" points="1204.5,-147.5 1204.5,-166.5 1275.5,-166.5 1275.5,-147.5 1204.5,-147.5"/>
<text text-anchor="middle" x="1240" y="-154.5" font-family="Helvetica,sans-Serif" font-size="10.00" fill="#000000">Expressions</text>
</g>
<!-- Node36 -->
<g id="node2" class="node">
<title>Node36</title>
<polygon fill="#ffffff" stroke="#bfbfbf" points="1194,-199.5 1194,-218.5 1286,-218.5 1286,-199.5 1194,-199.5"/>
<text text-anchor="middle" x="1240" y="-206.5" font-family="Helvetica,sans-Serif" font-size="10.00" fill="#000000">vector&lt;Library *&gt;</text>
</g>
<!-- Node3 -->
<g id="node6" class="node">
<title>Node3</title>
<g id="a_node6"><a xlink:href="classaworx_1_1lib_1_1lang_1_1Library.html" target="_top" xlink:title="Library">
<polygon fill="#ffffff" stroke="#000000" points="1048,-180.5 1048,-199.5 1094,-199.5 1094,-180.5 1048,-180.5"/>
<text text-anchor="middle" x="1071" y="-187.5" font-family="Helvetica,sans-Serif" font-size="10.00" fill="#000000">Library</text>
</a>
</g>
</g>
<!-- Node36&#45;&gt;Node3 -->
<g id="edge13" class="edge">
<title>Node36&#45;&gt;Node3</title>
<path fill="none" stroke="#9a32cd" stroke-dasharray="5,2" d="M1205.9391,-196.2626C1196.3895,-193.269 1185.9075,-190.512 1176,-189 1147.8811,-184.7088 1140.4423,-188.6532 1112,-189 1106.3043,-189.0694 1100.1645,-189.1931 1094.4144,-189.3304"/>
<polygon fill="#9a32cd" stroke="#9a32cd" points="1204.8968,-199.6043 1215.4901,-199.4257 1207.0975,-192.9592 1204.8968,-199.6043"/>
<text text-anchor="middle" x="1144" y="-192" font-family="Helvetica,sans-Serif" font-size="10.00" fill="#000000"> dependencies</text>
</g>
<!-- Node37 -->
<g id="node3" class="node">
<title>Node37</title>
<polygon fill="#ffffff" stroke="#bfbfbf" points="720,-237.5 720,-256.5 896,-256.5 896,-237.5 720,-237.5"/>
<text text-anchor="middle" x="808" y="-244.5" font-family="Helvetica,sans-Serif" font-size="10.00" fill="#000000">vector&lt;pair&lt;const char *, uint64_t&gt;&gt;</text>
</g>
<!-- Node37&#45;&gt;Node3 -->
<g id="edge14" class="edge">
<title>Node37&#45;&gt;Node3</title>
<path fill="none" stroke="#9a32cd" stroke-dasharray="5,2" d="M906.4272,-248.2499C946.0757,-245.7505 991.4516,-238.9672 1030,-223 1042.6626,-217.755 1054.5625,-207.3268 1062.2461,-199.5902"/>
<polygon fill="#9a32cd" stroke="#9a32cd" points="906.0056,-244.7676 896.2116,-248.8084 906.3878,-251.7572 906.0056,-244.7676"/>
<text text-anchor="middle" x="972" y="-250" font-family="Helvetica,sans-Serif" font-size="10.00" fill="#000000"> CompilationFlagMeanings</text>
</g>
<!-- Node4 -->
<g id="node4" class="node">
<title>Node4</title>
<g id="a_node4"><a xlink:href="classaworx_1_1lib_1_1strings_1_1TStringBase.html" target="_top" xlink:title="TStringBase\&lt;character\&gt;">
<polygon fill="#ffffff" stroke="#000000" points="376,-192.5 376,-211.5 499,-211.5 499,-192.5 376,-192.5"/>
<text text-anchor="middle" x="437.5" y="-199.5" font-family="Helvetica,sans-Serif" font-size="10.00" fill="#000000">TStringBase&lt;character&gt;</text>
</a>
</g>
</g>
<!-- Node4&#45;&gt;Node3 -->
<g id="edge3" class="edge">
<title>Node4&#45;&gt;Node3</title>
<path fill="none" stroke="#9a32cd" stroke-dasharray="5,2" d="M509.4314,-200.6374C651.2299,-197.9514 960.6499,-192.0903 1047.7623,-190.4402"/>
<polygon fill="#9a32cd" stroke="#9a32cd" points="509.0388,-197.1442 499.1069,-200.833 509.1714,-204.1429 509.0388,-197.1442"/>
<text text-anchor="middle" x="659.5" y="-201" font-family="Helvetica,sans-Serif" font-size="10.00" fill="#000000"> ResourceCategory</text>
</g>
<!-- Node5 -->
<g id="node5" class="node">
<title>Node5</title>
<g id="a_node5"><a xlink:href="classaworx_1_1lib_1_1strings_1_1StringBase.html" target="_top" xlink:title="StringBase\&lt;character\&gt;">
<polygon fill="#ffffff" stroke="#000000" points="0,-156.5 0,-175.5 117,-175.5 117,-156.5 0,-156.5"/>
<text text-anchor="middle" x="58.5" y="-163.5" font-family="Helvetica,sans-Serif" font-size="10.00" fill="#000000">StringBase&lt;character&gt;</text>
</a>
</g>
</g>
<!-- Node5&#45;&gt;Node4 -->
<g id="edge4" class="edge">
<title>Node5&#45;&gt;Node4</title>
<path fill="none" stroke="#191970" d="M116.0663,-177.225C122.4396,-178.262 128.8474,-179.2156 135,-180 218.051,-190.5878 314.6287,-196.5102 375.8929,-199.4782"/>
<polygon fill="#191970" stroke="#191970" points="116.5654,-173.7598 106.1211,-175.5393 115.3955,-180.6613 116.5654,-173.7598"/>
</g>
<!-- Node18 -->
<g id="node7" class="node">
<title>Node18</title>
<g id="a_node7"><a xlink:href="classaworx_1_1lib_1_1config_1_1Configuration.html" target="_top" xlink:title="Configuration">
<polygon fill="#ffffff" stroke="#ff0000" points="284,-124.5 284,-143.5 358,-143.5 358,-124.5 284,-124.5"/>
<text text-anchor="middle" x="321" y="-131.5" font-family="Helvetica,sans-Serif" font-size="10.00" fill="#000000">Configuration</text>
</a>
</g>
</g>
<!-- Node5&#45;&gt;Node18 -->
<g id="edge5" class="edge">
<title>Node5&#45;&gt;Node18</title>
<path fill="none" stroke="#9a32cd" stroke-dasharray="5,2" d="M101.4584,-153.9418C112.327,-151.2756 124.0299,-148.7322 135,-147 186.1589,-138.9219 246.0254,-135.8633 283.7311,-134.7053"/>
<polygon fill="#9a32cd" stroke="#9a32cd" points="100.5876,-150.5518 91.7565,-156.4052 102.3103,-157.3365 100.5876,-150.5518"/>
<text text-anchor="middle" x="200.5" y="-172" font-family="Helvetica,sans-Serif" font-size="10.00" fill="#000000"> SubstitutionVariableStart</text>
<text text-anchor="middle" x="200.5" y="-161" font-family="Helvetica,sans-Serif" font-size="10.00" fill="#000000">SubstitutionVariableEnd</text>
<text text-anchor="middle" x="200.5" y="-150" font-family="Helvetica,sans-Serif" font-size="10.00" fill="#000000">SubstitutionVariableDelimiters</text>
</g>
<!-- Node3&#45;&gt;Node2 -->
<g id="edge1" class="edge">
<title>Node3&#45;&gt;Node2</title>
<path fill="none" stroke="#191970" d="M1104.1654,-183.5239C1133.077,-177.8784 1174.8991,-169.712 1204.4844,-163.935"/>
<polygon fill="#191970" stroke="#191970" points="1103.2882,-180.129 1094.1444,-185.4807 1104.6298,-186.9993 1103.2882,-180.129"/>
</g>
<!-- Node3&#45;&gt;Node36 -->
<g id="edge2" class="edge">
<title>Node3&#45;&gt;Node36</title>
<path fill="none" stroke="#9a32cd" stroke-dasharray="5,2" d="M1103.9088,-200.3427C1106.6285,-200.9799 1109.3501,-201.546 1112,-202 1138.8714,-206.6038 1169.3351,-208.4045 1193.8002,-209.0305"/>
<polygon fill="#9a32cd" stroke="#9a32cd" points="1104.7591,-196.9474 1094.1983,-197.7961 1102.9833,-203.7184 1104.7591,-196.9474"/>
<text text-anchor="middle" x="1144" y="-211" font-family="Helvetica,sans-Serif" font-size="10.00" fill="#000000"> elements</text>
</g>
<!-- Node18&#45;&gt;Node3 -->
<g id="edge9" class="edge">
<title>Node18&#45;&gt;Node3</title>
<path fill="none" stroke="#9a32cd" stroke-dasharray="5,2" d="M368.3223,-138.3598C370.9191,-138.581 373.4914,-138.7959 376,-139 666.4561,-162.6373 739.6234,-161.4053 1030,-186 1035.7011,-186.4829 1041.8429,-187.0546 1047.5932,-187.6124"/>
<polygon fill="#9a32cd" stroke="#9a32cd" points="368.5353,-134.8652 358.2693,-137.4842 367.9278,-141.8388 368.5353,-134.8652"/>
<text text-anchor="middle" x="659.5" y="-164" font-family="Helvetica,sans-Serif" font-size="10.00" fill="#000000"> Config</text>
</g>
<!-- Node6 -->
<g id="node8" class="node">
<title>Node6</title>
<g id="a_node8"><a xlink:href="classaworx_1_1lib_1_1lang_1_1Resources.html" target="_top" xlink:title="Resources">
<polygon fill="#ffffff" stroke="#000000" points="776,-76.5 776,-95.5 840,-95.5 840,-76.5 776,-76.5"/>
<text text-anchor="middle" x="808" y="-83.5" font-family="Helvetica,sans-Serif" font-size="10.00" fill="#000000">Resources</text>
</a>
</g>
</g>
<!-- Node18&#45;&gt;Node6 -->
<g id="edge10" class="edge">
<title>Node18&#45;&gt;Node6</title>
<path fill="none" stroke="#9a32cd" stroke-dasharray="5,2" d="M368.2332,-130.7358C440.3198,-125.5674 582.0674,-114.6696 702,-101 726.7452,-98.1796 754.6279,-94.202 775.5836,-91.0514"/>
<polygon fill="#9a32cd" stroke="#9a32cd" points="367.8399,-127.2549 358.1138,-131.4565 368.3372,-134.2372 367.8399,-127.2549"/>
<text text-anchor="middle" x="558" y="-121" font-family="Helvetica,sans-Serif" font-size="10.00" fill="#000000"> Config</text>
</g>
<!-- Node10 -->
<g id="node10" class="node">
<title>Node10</title>
<g id="a_node10"><a xlink:href="classaworx_1_1lib_1_1config_1_1Variable.html" target="_top" xlink:title="Variable">
<polygon fill="#ffffff" stroke="#ff0000" points="532.5,-76.5 532.5,-95.5 583.5,-95.5 583.5,-76.5 532.5,-76.5"/>
<text text-anchor="middle" x="558" y="-83.5" font-family="Helvetica,sans-Serif" font-size="10.00" fill="#000000">Variable</text>
</a>
</g>
</g>
<!-- Node18&#45;&gt;Node10 -->
<g id="edge11" class="edge">
<title>Node18&#45;&gt;Node10</title>
<path fill="none" stroke="#9a32cd" stroke-dasharray="5,2" d="M345.7524,-119.612C354.9696,-114.8621 365.6981,-110.0251 376,-107 430.1701,-91.0935 496.7175,-87.1491 532.4362,-86.2258"/>
<polygon fill="#9a32cd" stroke="#9a32cd" points="343.9175,-116.6249 336.7755,-124.4507 347.2389,-122.7868 343.9175,-116.6249"/>
<text text-anchor="middle" x="437.5" y="-110" font-family="Helvetica,sans-Serif" font-size="10.00" fill="#000000"> Config</text>
</g>
<!-- Node6&#45;&gt;Node3 -->
<g id="edge6" class="edge">
<title>Node6&#45;&gt;Node3</title>
<path fill="none" stroke="#9a32cd" stroke-dasharray="5,2" d="M850.4113,-90.4095C897.2174,-96.8144 973.4112,-111.9002 1030,-146 1044.6666,-154.8379 1057.368,-170.4099 1064.603,-180.4608"/>
<polygon fill="#9a32cd" stroke="#9a32cd" points="850.6839,-86.9156 840.3169,-89.1008 849.7838,-93.8575 850.6839,-86.9156"/>
<text text-anchor="middle" x="972" y="-149" font-family="Helvetica,sans-Serif" font-size="10.00" fill="#000000"> Res</text>
</g>
<!-- Node7 -->
<g id="node9" class="node">
<title>Node7</title>
<g id="a_node9"><a xlink:href="classaworx_1_1lib_1_1util_1_1MemoryBlocks.html" target="_top" xlink:title="MemoryBlocks">
<polygon fill="#ffffff" stroke="#ff0000" points="517,-38.5 517,-57.5 599,-57.5 599,-38.5 517,-38.5"/>
<text text-anchor="middle" x="558" y="-45.5" font-family="Helvetica,sans-Serif" font-size="10.00" fill="#000000">MemoryBlocks</text>
</a>
</g>
</g>
<!-- Node7&#45;&gt;Node6 -->
<g id="edge7" class="edge">
<title>Node7&#45;&gt;Node6</title>
<path fill="none" stroke="#9a32cd" stroke-dasharray="5,2" d="M608.9529,-55.7448C658.8853,-63.3346 733.4668,-74.671 775.7315,-81.0952"/>
<polygon fill="#9a32cd" stroke="#9a32cd" points="609.4149,-52.2749 599.0025,-54.2324 608.3629,-59.1955 609.4149,-52.2749"/>
<text text-anchor="middle" x="659.5" y="-73" font-family="Helvetica,sans-Serif" font-size="10.00" fill="#000000"> cache</text>
</g>
<!-- Node10&#45;&gt;Node6 -->
<g id="edge8" class="edge">
<title>Node10&#45;&gt;Node6</title>
<path fill="none" stroke="#9a32cd" stroke-dasharray="5,2" d="M593.8959,-86C642.598,-86 728.8853,-86 775.6691,-86"/>
<polygon fill="#9a32cd" stroke="#9a32cd" points="593.8128,-82.5001 583.8128,-86 593.8127,-89.5001 593.8128,-82.5001"/>
<text text-anchor="middle" x="659.5" y="-89" font-family="Helvetica,sans-Serif" font-size="10.00" fill="#000000"> variable</text>
</g>
<!-- Node20 -->
<g id="node11" class="node">
<title>Node20</title>
<g id="a_node11"><a xlink:href="classaworx_1_1lib_1_1threads_1_1ThreadLock.html" target="_top" xlink:title="ThreadLock">
<polygon fill="#ffffff" stroke="#ff0000" points="524,-.5 524,-19.5 592,-19.5 592,-.5 524,-.5"/>
<text text-anchor="middle" x="558" y="-7.5" font-family="Helvetica,sans-Serif" font-size="10.00" fill="#000000">ThreadLock</text>
</a>
</g>
</g>
<!-- Node20&#45;&gt;Node6 -->
<g id="edge12" class="edge">
<title>Node20&#45;&gt;Node6</title>
<path fill="none" stroke="#9a32cd" stroke-dasharray="5,2" d="M602.297,-18.2387C631.0294,-24.0496 669.1027,-32.6313 702,-43 732.3053,-52.5517 766.1352,-66.9606 787.246,-76.4241"/>
<polygon fill="#9a32cd" stroke="#9a32cd" points="602.6512,-14.7408 592.1609,-16.2251 601.2872,-21.6066 602.6512,-14.7408"/>
<text text-anchor="middle" x="659.5" y="-46" font-family="Helvetica,sans-Serif" font-size="10.00" fill="#000000"> lock</text>
</g>
</g>
</svg>
