<?xml version="1.0" encoding="UTF-8" standalone="no"?>
<!DOCTYPE svg PUBLIC "-//W3C//DTD SVG 1.1//EN"
 "http://www.w3.org/Graphics/SVG/1.1/DTD/svg11.dtd">
<!-- Generated by graphviz version 2.40.1 (20161225.0304)
 -->
<!-- Title: StringTree&lt;T, TAllocator, TSeparator&gt; Pages: 1 -->
<svg width="211pt" height="162pt"
 viewBox="0.00 0.00 210.50 162.00" xmlns="http://www.w3.org/2000/svg" xmlns:xlink="http://www.w3.org/1999/xlink">
<g id="graph0" class="graph" transform="scale(1 1) rotate(0) translate(4 158)">
<title>StringTree&lt;T, TAllocator, TSeparator&gt;</title>
<polygon fill="#ffffff" stroke="transparent" points="-4,4 -4,-158 206.5,-158 206.5,4 -4,4"/>
<!-- Node2 -->
<g id="node1" class="node">
<title>Node2</title>
<polygon fill="#bfbfbf" stroke="#000000" points="0,-.5 0,-19.5 181,-19.5 181,-.5 0,-.5"/>
<text text-anchor="middle" x="90.5" y="-7.5" font-family="Helvetica,sans-Serif" font-size="10.00" fill="#000000">StringTree&lt;T, TAllocator, TSeparator&gt;</text>
</g>
<!-- Node3 -->
<g id="node2" class="node">
<title>Node3</title>
<polygon fill="#ffffff" stroke="#bfbfbf" points="35.5,-67.5 35.5,-86.5 95.5,-86.5 95.5,-67.5 35.5,-67.5"/>
<text text-anchor="middle" x="65.5" y="-74.5" font-family="Helvetica,sans-Serif" font-size="10.00" fill="#000000">TAllocator</text>
</g>
<!-- Node3&#45;&gt;Node2 -->
<g id="edge1" class="edge">
<title>Node3&#45;&gt;Node2</title>
<path fill="none" stroke="#191970" d="M72.6407,-57.8628C77.3118,-45.3444 83.2145,-29.5252 86.9248,-19.5817"/>
<polygon fill="#191970" stroke="#191970" points="69.2987,-56.8079 69.0819,-67.4005 75.857,-59.2551 69.2987,-56.8079"/>
</g>
<!-- Node4 -->
<g id="node3" class="node">
<title>Node4</title>
<g id="a_node3"><a xlink:href="classaworx_1_1lib_1_1util_1_1StringTree_1_1Node.html" target="_top" xlink:title="Node">
<polygon fill="#ffffff" stroke="#000000" points="113.5,-67.5 113.5,-86.5 153.5,-86.5 153.5,-67.5 113.5,-67.5"/>
<text text-anchor="middle" x="133.5" y="-74.5" font-family="Helvetica,sans-Serif" font-size="10.00" fill="#000000">Node</text>
</a>
</g>
</g>
<!-- Node4&#45;&gt;Node2 -->
<g id="edge2" class="edge">
<title>Node4&#45;&gt;Node2</title>
<path fill="none" stroke="#9a32cd" stroke-dasharray="5,2" d="M121.9351,-58.9803C113.7963,-46.2989 103.2225,-29.8235 96.6494,-19.5817"/>
<polygon fill="#9a32cd" stroke="#9a32cd" points="118.9923,-60.8751 127.3391,-67.4005 124.8834,-57.0942 118.9923,-60.8751"/>
<text text-anchor="middle" x="124.5" y="-41" font-family="Helvetica,sans-Serif" font-size="10.00" fill="#000000"> root</text>
</g>
<!-- Node4&#45;&gt;Node4 -->
<g id="edge3" class="edge">
<title>Node4&#45;&gt;Node4</title>
<path fill="none" stroke="#9a32cd" stroke-dasharray="5,2" d="M163.9158,-82.4421C168.4402,-81.5943 171.5,-79.7803 171.5,-77 171.5,-72.4375 163.2602,-70.4771 153.8294,-71.1187"/>
<polygon fill="#9a32cd" stroke="#9a32cd" points="163.6677,-78.9495 153.8294,-82.8813 163.9723,-85.9429 163.6677,-78.9495"/>
<text text-anchor="middle" x="187" y="-74.5" font-family="Helvetica,sans-Serif" font-size="10.00" fill="#000000"> parent</text>
</g>
<!-- Node5 -->
<g id="node4" class="node">
<title>Node5</title>
<polygon fill="#ffffff" stroke="#bfbfbf" points="119,-134.5 119,-153.5 148,-153.5 148,-134.5 119,-134.5"/>
<text text-anchor="middle" x="133.5" y="-141.5" font-family="Helvetica,sans-Serif" font-size="10.00" fill="#000000">T</text>
</g>
<!-- Node5&#45;&gt;Node4 -->
<g id="edge4" class="edge">
<title>Node5&#45;&gt;Node4</title>
<path fill="none" stroke="#9a32cd" stroke-dasharray="5,2" d="M133.5,-124.1079C133.5,-111.714 133.5,-96.3263 133.5,-86.5817"/>
<polygon fill="#9a32cd" stroke="#9a32cd" points="130.0001,-124.4005 133.5,-134.4005 137.0001,-124.4006 130.0001,-124.4005"/>
<text text-anchor="middle" x="147" y="-108" font-family="Helvetica,sans-Serif" font-size="10.00" fill="#000000"> value</text>
</g>
</g>
</svg>
