<?xml version="1.0" encoding="UTF-8" standalone="no"?>
<!DOCTYPE svg PUBLIC "-//W3C//DTD SVG 1.1//EN"
 "http://www.w3.org/Graphics/SVG/1.1/DTD/svg11.dtd">
<!-- Generated by graphviz version 2.40.1 (20161225.0304)
 -->
<!-- Title: FormatterBase&lt;TChar&gt; Pages: 1 -->
<svg width="621pt" height="142pt"
 viewBox="0.00 0.00 621.00 142.00" xmlns="http://www.w3.org/2000/svg" xmlns:xlink="http://www.w3.org/1999/xlink">
<g id="graph0" class="graph" transform="scale(1 1) rotate(0) translate(4 138)">
<title>FormatterBase&lt;TChar&gt;</title>
<polygon fill="#ffffff" stroke="transparent" points="-4,4 -4,-138 617,-138 617,4 -4,4"/>
<!-- Node0 -->
<g id="node1" class="node">
<title>Node0</title>
<polygon fill="#bfbfbf" stroke="#000000" points="104,-57.5 104,-76.5 223,-76.5 223,-57.5 104,-57.5"/>
<text text-anchor="middle" x="163.5" y="-64.5" font-family="Helvetica,sans-Serif" font-size="10.00" fill="#000000">FormatterBase&lt;TChar&gt;</text>
</g>
<!-- Node2 -->
<g id="node2" class="node">
<title>Node2</title>
<g id="a_node2"><a xlink:href="classaworx_1_1lib_1_1strings_1_1format_1_1FormatterStdImpl.html" target="_top" xlink:title="FormatterStdImpl\&lt;TChar\&gt;">
<polygon fill="#ffffff" stroke="#000000" points="259,-57.5 259,-76.5 390,-76.5 390,-57.5 259,-57.5"/>
<text text-anchor="middle" x="324.5" y="-64.5" font-family="Helvetica,sans-Serif" font-size="10.00" fill="#000000">FormatterStdImpl&lt;TChar&gt;</text>
</a>
</g>
</g>
<!-- Node0&#45;&gt;Node2 -->
<g id="edge1" class="edge">
<title>Node0&#45;&gt;Node2</title>
<path fill="none" stroke="#191970" d="M233.5779,-67C241.9635,-67 250.5026,-67 258.8228,-67"/>
<polygon fill="#191970" stroke="#191970" points="233.4505,-63.5001 223.4505,-67 233.4504,-70.5001 233.4505,-63.5001"/>
</g>
<!-- Node3 -->
<g id="node3" class="node">
<title>Node3</title>
<g id="a_node3"><a xlink:href="classaworx_1_1lib_1_1strings_1_1format_1_1FormatterJavaStyleBase.html" target="_top" xlink:title="FormatterJavaStyleBase\&lt;TChar\&gt;">
<polygon fill="#ffffff" stroke="#000000" points="438,-114.5 438,-133.5 601,-133.5 601,-114.5 438,-114.5"/>
<text text-anchor="middle" x="519.5" y="-121.5" font-family="Helvetica,sans-Serif" font-size="10.00" fill="#000000">FormatterJavaStyleBase&lt;TChar&gt;</text>
</a>
</g>
</g>
<!-- Node2&#45;&gt;Node3 -->
<g id="edge3" class="edge">
<title>Node2&#45;&gt;Node3</title>
<path fill="none" stroke="#191970" d="M356.5706,-80.4915C376.3285,-88.4291 402.3271,-98.2093 426,-105 438.5786,-108.6082 452.2978,-111.7989 465.2559,-114.4861"/>
<polygon fill="#191970" stroke="#191970" points="357.7137,-77.1779 347.132,-76.6494 355.0744,-83.6614 357.7137,-77.1779"/>
</g>
<!-- Node4 -->
<g id="node4" class="node">
<title>Node4</title>
<g id="a_node4"><a xlink:href="classaworx_1_1lib_1_1strings_1_1format_1_1FormatterPythonStyleBase.html" target="_top" xlink:title="FormatterPythonStyleBase\&lt;TChar\&gt;">
<polygon fill="#ffffff" stroke="#000000" points="433,-76.5 433,-95.5 606,-95.5 606,-76.5 433,-76.5"/>
<text text-anchor="middle" x="519.5" y="-83.5" font-family="Helvetica,sans-Serif" font-size="10.00" fill="#000000">FormatterPythonStyleBase&lt;TChar&gt;</text>
</a>
</g>
</g>
<!-- Node2&#45;&gt;Node4 -->
<g id="edge4" class="edge">
<title>Node2&#45;&gt;Node4</title>
<path fill="none" stroke="#191970" d="M400.3553,-74.391C411.0344,-75.4316 422.0783,-76.5076 432.9389,-77.5658"/>
<polygon fill="#191970" stroke="#191970" points="400.5386,-70.8924 390.2463,-73.406 399.8597,-77.8594 400.5386,-70.8924"/>
</g>
<!-- Node5 -->
<g id="node5" class="node">
<title>Node5</title>
<g id="a_node5"><a xlink:href="classaworx_1_1lib_1_1strings_1_1format_1_1FormatterJavaStyleBase.html" target="_top" xlink:title="FormatterJavaStyleBase\&lt;character\&gt;">
<polygon fill="#ffffff" stroke="#000000" points="431,-38.5 431,-57.5 608,-57.5 608,-38.5 431,-38.5"/>
<text text-anchor="middle" x="519.5" y="-45.5" font-family="Helvetica,sans-Serif" font-size="10.00" fill="#000000">FormatterJavaStyleBase&lt;character&gt;</text>
</a>
</g>
</g>
<!-- Node2&#45;&gt;Node5 -->
<g id="edge5" class="edge">
<title>Node2&#45;&gt;Node5</title>
<path fill="none" stroke="#191970" d="M400.4885,-59.596C410.4441,-58.626 420.7147,-57.6252 430.8564,-56.6371"/>
<polygon fill="#191970" stroke="#191970" points="399.8597,-56.1406 390.2463,-60.594 400.5386,-63.1076 399.8597,-56.1406"/>
</g>
<!-- Node6 -->
<g id="node6" class="node">
<title>Node6</title>
<g id="a_node6"><a xlink:href="classaworx_1_1lib_1_1strings_1_1format_1_1FormatterPythonStyleBase.html" target="_top" xlink:title="FormatterPythonStyleBase\&lt;character\&gt;">
<polygon fill="#ffffff" stroke="#000000" points="426,-.5 426,-19.5 613,-19.5 613,-.5 426,-.5"/>
<text text-anchor="middle" x="519.5" y="-7.5" font-family="Helvetica,sans-Serif" font-size="10.00" fill="#000000">FormatterPythonStyleBase&lt;character&gt;</text>
</a>
</g>
</g>
<!-- Node2&#45;&gt;Node6 -->
<g id="edge6" class="edge">
<title>Node2&#45;&gt;Node6</title>
<path fill="none" stroke="#191970" d="M356.5706,-53.5085C376.3285,-45.5709 402.3271,-35.7907 426,-29 438.5786,-25.3918 452.2978,-22.2011 465.2559,-19.5139"/>
<polygon fill="#191970" stroke="#191970" points="355.0744,-50.3386 347.132,-57.3506 357.7137,-56.8221 355.0744,-50.3386"/>
</g>
<!-- Node1 -->
<g id="node7" class="node">
<title>Node1</title>
<g id="a_node7"><a xlink:href="classaworx_1_1lib_1_1threads_1_1ThreadLock.html" target="_top" xlink:title="ThreadLock">
<polygon fill="#ffffff" stroke="#000000" points="0,-57.5 0,-76.5 68,-76.5 68,-57.5 0,-57.5"/>
<text text-anchor="middle" x="34" y="-64.5" font-family="Helvetica,sans-Serif" font-size="10.00" fill="#000000">ThreadLock</text>
</a>
</g>
</g>
<!-- Node1&#45;&gt;Node0 -->
<g id="edge2" class="edge">
<title>Node1&#45;&gt;Node0</title>
<path fill="none" stroke="#191970" d="M78.1972,-67C86.4764,-67 95.2558,-67 103.9114,-67"/>
<polygon fill="#191970" stroke="#191970" points="78.0246,-63.5001 68.0246,-67 78.0246,-70.5001 78.0246,-63.5001"/>
</g>
</g>
</svg>
