<?xml version="1.0" encoding="UTF-8" standalone="no"?>
<!DOCTYPE svg PUBLIC "-//W3C//DTD SVG 1.1//EN"
 "http://www.w3.org/Graphics/SVG/1.1/DTD/svg11.dtd">
<!-- Generated by graphviz version 2.40.1 (20161225.0304)
 -->
<!-- Title: StringTree&lt;T, TAllocator, TSeparator&gt;::Node Pages: 1 -->
<svg width="267pt" height="95pt"
 viewBox="0.00 0.00 267.00 95.00" xmlns="http://www.w3.org/2000/svg" xmlns:xlink="http://www.w3.org/1999/xlink">
<g id="graph0" class="graph" transform="scale(1 1) rotate(0) translate(4 91)">
<title>StringTree&lt;T, TAllocator, TSeparator&gt;::Node</title>
<polygon fill="#ffffff" stroke="transparent" points="-4,4 -4,-91 263,-91 263,4 -4,4"/>
<!-- Node1 -->
<g id="node1" class="node">
<title>Node1</title>
<polygon fill="#bfbfbf" stroke="#000000" points="0,-.5 0,-19.5 210,-19.5 210,-.5 0,-.5"/>
<text text-anchor="middle" x="105" y="-7.5" font-family="Helvetica,sans-Serif" font-size="10.00" fill="#000000">StringTree&lt;T, TAllocator, TSeparator&gt;::Node</text>
</g>
<!-- Node1&#45;&gt;Node1 -->
<g id="edge1" class="edge">
<title>Node1&#45;&gt;Node1</title>
<path fill="none" stroke="#9a32cd" stroke-dasharray="5,2" d="M220.3453,-13.6213C225.1881,-12.6886 228,-11.4814 228,-10 228,-7.6875 221.1483,-6.0435 210.4158,-5.0679"/>
<polygon fill="#9a32cd" stroke="#9a32cd" points="219.8717,-10.1534 210.4158,-14.9321 220.7879,-17.0932 219.8717,-10.1534"/>
<text text-anchor="middle" x="243.5" y="-7.5" font-family="Helvetica,sans-Serif" font-size="10.00" fill="#000000"> parent</text>
</g>
<!-- Node2 -->
<g id="node2" class="node">
<title>Node2</title>
<polygon fill="#ffffff" stroke="#bfbfbf" points="90.5,-67.5 90.5,-86.5 119.5,-86.5 119.5,-67.5 90.5,-67.5"/>
<text text-anchor="middle" x="105" y="-74.5" font-family="Helvetica,sans-Serif" font-size="10.00" fill="#000000">T</text>
</g>
<!-- Node2&#45;&gt;Node1 -->
<g id="edge2" class="edge">
<title>Node2&#45;&gt;Node1</title>
<path fill="none" stroke="#9a32cd" stroke-dasharray="5,2" d="M105,-57.1079C105,-44.714 105,-29.3263 105,-19.5817"/>
<polygon fill="#9a32cd" stroke="#9a32cd" points="101.5001,-57.4005 105,-67.4005 108.5001,-57.4006 101.5001,-57.4005"/>
<text text-anchor="middle" x="118.5" y="-41" font-family="Helvetica,sans-Serif" font-size="10.00" fill="#000000"> value</text>
</g>
</g>
</svg>
