<?xml version="1.0" encoding="UTF-8" standalone="no"?>
<!DOCTYPE svg PUBLIC "-//W3C//DTD SVG 1.1//EN"
 "http://www.w3.org/Graphics/SVG/1.1/DTD/svg11.dtd">
<!-- Generated by graphviz version 2.40.1 (20161225.0304)
 -->
<!-- Title: Compiler Pages: 1 -->
<svg width="2260pt" height="618pt"
 viewBox="0.00 0.00 2260.00 617.51" xmlns="http://www.w3.org/2000/svg" xmlns:xlink="http://www.w3.org/1999/xlink">
<g id="graph0" class="graph" transform="scale(1 1) rotate(0) translate(4 613.5141)">
<title>Compiler</title>
<polygon fill="#ffffff" stroke="transparent" points="-4,4 -4,-613.5141 2256,-613.5141 2256,4 -4,4"/>
<!-- Node3 -->
<g id="node1" class="node">
<title>Node3</title>
<polygon fill="#bfbfbf" stroke="#000000" points="2196,-308.4556 2196,-327.4556 2252,-327.4556 2252,-308.4556 2196,-308.4556"/>
<text text-anchor="middle" x="2224" y="-315.4556" font-family="Helvetica,sans-Serif" font-size="10.00" fill="#000000">Compiler</text>
</g>
<!-- Node4 -->
<g id="node2" class="node">
<title>Node4</title>
<g id="a_node2"><a xlink:href="classaworx_1_1lib_1_1util_1_1PluginContainer.html" target="_top" xlink:title="PluginContainer\&lt;CompilerPlugin, CompilePriorities\&gt;">
<polygon fill="#ffffff" stroke="#000000" points="1097,-510.4556 1097,-529.4556 1341,-529.4556 1341,-510.4556 1097,-510.4556"/>
<text text-anchor="middle" x="1219" y="-517.4556" font-family="Helvetica,sans-Serif" font-size="10.00" fill="#000000">PluginContainer&lt;CompilerPlugin, CompilePriorities&gt;</text>
</a>
</g>
</g>
<!-- Node4&#45;&gt;Node3 -->
<g id="edge1" class="edge">
<title>Node4&#45;&gt;Node3</title>
<path fill="none" stroke="#191970" d="M1257.6591,-532.6299C1398.8336,-576.2906 1893.1279,-705.81 2178,-480.9556 2202.8114,-461.3716 2218.3929,-359.7126 2222.7475,-327.6523"/>
<polygon fill="#191970" stroke="#191970" points="1258.3217,-529.1698 1247.7326,-529.5203 1256.229,-535.8497 1258.3217,-529.1698"/>
</g>
<!-- Node16 -->
<g id="node3" class="node">
<title>Node16</title>
<polygon fill="#ffffff" stroke="#bfbfbf" points="808.5,-476.4556 808.5,-495.4556 903.5,-495.4556 903.5,-476.4556 808.5,-476.4556"/>
<text text-anchor="middle" x="856" y="-483.4556" font-family="Helvetica,sans-Serif" font-size="10.00" fill="#000000">vector&lt;TPlugin *&gt;</text>
</g>
<!-- Node16&#45;&gt;Node4 -->
<g id="edge10" class="edge">
<title>Node16&#45;&gt;Node4</title>
<path fill="none" stroke="#9a32cd" stroke-dasharray="5,2" d="M914.0256,-490.9961C959.0412,-494.9461 1022.9951,-500.6441 1079,-505.9556 1093.9554,-507.374 1109.8049,-508.9189 1125.2559,-510.4476"/>
<polygon fill="#9a32cd" stroke="#9a32cd" points="914.131,-487.492 903.8636,-490.1059 913.52,-494.4653 914.131,-487.492"/>
<text text-anchor="middle" x="1013.5" y="-508.9556" font-family="Helvetica,sans-Serif" font-size="10.00" fill="#000000"> pluginsOwned</text>
</g>
<!-- Node25 -->
<g id="node6" class="node">
<title>Node25</title>
<g id="a_node6"><a xlink:href="classaworx_1_1lib_1_1util_1_1PluginContainer.html" target="_top" xlink:title="PluginContainer\&lt;ConfigurationPlugin, Priorities\&gt;">
<polygon fill="#ffffff" stroke="#000000" points="1105.5,-363.4556 1105.5,-382.4556 1332.5,-382.4556 1332.5,-363.4556 1105.5,-363.4556"/>
<text text-anchor="middle" x="1219" y="-370.4556" font-family="Helvetica,sans-Serif" font-size="10.00" fill="#000000">PluginContainer&lt;ConfigurationPlugin, Priorities&gt;</text>
</a>
</g>
</g>
<!-- Node16&#45;&gt;Node25 -->
<g id="edge11" class="edge">
<title>Node16&#45;&gt;Node25</title>
<path fill="none" stroke="#9a32cd" stroke-dasharray="5,2" d="M866.0104,-467.5588C880.4595,-443.1252 909.6863,-400.961 948,-382.9556 975.4834,-370.0399 1044.0815,-367.6016 1105.3796,-368.361"/>
<polygon fill="#9a32cd" stroke="#9a32cd" points="862.9653,-465.8332 861.0508,-476.2537 869.0457,-469.3015 862.9653,-465.8332"/>
<text text-anchor="middle" x="1013.5" y="-385.9556" font-family="Helvetica,sans-Serif" font-size="10.00" fill="#000000"> pluginsOwned</text>
</g>
<!-- Node17 -->
<g id="node4" class="node">
<title>Node17</title>
<polygon fill="#ffffff" stroke="#bfbfbf" points="782,-552.4556 782,-571.4556 930,-571.4556 930,-552.4556 782,-552.4556"/>
<text text-anchor="middle" x="856" y="-559.4556" font-family="Helvetica,sans-Serif" font-size="10.00" fill="#000000">vector&lt;PluginContainer::Slot&gt;</text>
</g>
<!-- Node17&#45;&gt;Node4 -->
<g id="edge12" class="edge">
<title>Node17&#45;&gt;Node4</title>
<path fill="none" stroke="#9a32cd" stroke-dasharray="5,2" d="M940.3973,-552.1907C999.551,-545.3464 1078.2078,-536.2457 1136.8574,-529.4597"/>
<polygon fill="#9a32cd" stroke="#9a32cd" points="939.8658,-548.7287 930.3344,-553.355 940.6704,-555.6823 939.8658,-548.7287"/>
<text text-anchor="middle" x="1013.5" y="-552.9556" font-family="Helvetica,sans-Serif" font-size="10.00" fill="#000000"> plugins</text>
</g>
<!-- Node17&#45;&gt;Node25 -->
<g id="edge13" class="edge">
<title>Node17&#45;&gt;Node25</title>
<path fill="none" stroke="#9a32cd" stroke-dasharray="5,2" d="M925.3659,-546.9312C926.9915,-545.7039 928.5416,-544.3811 930,-542.9556 951.1309,-522.302 928.7905,-501.4074 948,-478.9556 989.6323,-430.2967 1030.2751,-460.5107 1079,-418.9556 1089.9734,-409.597 1084.8474,-399.7219 1097,-391.9556 1102.8703,-388.2042 1109.2164,-385.099 1115.8229,-382.5365"/>
<polygon fill="#9a32cd" stroke="#9a32cd" points="923.345,-544.0657 916.6844,-552.305 927.0294,-550.0177 923.345,-544.0657"/>
<text text-anchor="middle" x="1013.5" y="-481.9556" font-family="Helvetica,sans-Serif" font-size="10.00" fill="#000000"> plugins</text>
</g>
<!-- Node21 -->
<g id="node5" class="node">
<title>Node21</title>
<polygon fill="#ffffff" stroke="#bfbfbf" points="1550.5,-55.4556 1550.5,-74.4556 1660.5,-74.4556 1660.5,-55.4556 1550.5,-55.4556"/>
<text text-anchor="middle" x="1605.5" y="-62.4556" font-family="Helvetica,sans-Serif" font-size="10.00" fill="#000000">vector&lt;AStringBase&gt;</text>
</g>
<!-- Node21&#45;&gt;Node3 -->
<g id="edge20" class="edge">
<title>Node21&#45;&gt;Node3</title>
<path fill="none" stroke="#9a32cd" stroke-dasharray="5,2" d="M1670.9883,-59.9268C1806.1063,-51.1071 2108.9444,-39.8817 2178,-109.9556 2206.4903,-138.8661 2219.9421,-271.1155 2223.1988,-308.2395"/>
<polygon fill="#9a32cd" stroke="#9a32cd" points="1670.5207,-56.4501 1660.7765,-60.6097 1670.9878,-63.4345 1670.5207,-56.4501"/>
<text text-anchor="middle" x="1934" y="-83.9556" font-family="Helvetica,sans-Serif" font-size="10.00" fill="#000000"> CfgNormalizationDisallowed</text>
<text text-anchor="middle" x="1934" y="-72.9556" font-family="Helvetica,sans-Serif" font-size="10.00" fill="#000000">DefaultCategories</text>
</g>
<!-- Node23 -->
<g id="node19" class="node">
<title>Node23</title>
<g id="a_node19"><a xlink:href="classaworx_1_1lib_1_1config_1_1Variable.html" target="_top" xlink:title="Variable">
<polygon fill="#ffffff" stroke="#000000" points="1908.5,-224.4556 1908.5,-243.4556 1959.5,-243.4556 1959.5,-224.4556 1908.5,-224.4556"/>
<text text-anchor="middle" x="1934" y="-231.4556" font-family="Helvetica,sans-Serif" font-size="10.00" fill="#000000">Variable</text>
</a>
</g>
</g>
<!-- Node21&#45;&gt;Node23 -->
<g id="edge21" class="edge">
<title>Node21&#45;&gt;Node23</title>
<path fill="none" stroke="#9a32cd" stroke-dasharray="5,2" d="M1637.4197,-78.5832C1669.9006,-92.6784 1721.5121,-115.706 1765,-137.9556 1822.3767,-167.3113 1888.2114,-206.3018 1917.9442,-224.2091"/>
<polygon fill="#9a32cd" stroke="#9a32cd" points="1638.5517,-75.2597 1627.9837,-74.5064 1635.7754,-81.6856 1638.5517,-75.2597"/>
<text text-anchor="middle" x="1728.5" y="-140.9556" font-family="Helvetica,sans-Serif" font-size="10.00" fill="#000000"> values</text>
</g>
<!-- Node24 -->
<g id="node21" class="node">
<title>Node24</title>
<g id="a_node21"><a xlink:href="classaworx_1_1lib_1_1config_1_1Configuration.html" target="_top" xlink:title="Configuration">
<polygon fill="#ffffff" stroke="#000000" points="1568.5,-298.4556 1568.5,-317.4556 1642.5,-317.4556 1642.5,-298.4556 1568.5,-298.4556"/>
<text text-anchor="middle" x="1605.5" y="-305.4556" font-family="Helvetica,sans-Serif" font-size="10.00" fill="#000000">Configuration</text>
</a>
</g>
</g>
<!-- Node25&#45;&gt;Node24 -->
<g id="edge27" class="edge">
<title>Node25&#45;&gt;Node24</title>
<path fill="none" stroke="#191970" d="M1284.0742,-361.7311C1307.6692,-357.6794 1334.5322,-353.0877 1359,-348.9556 1433.2187,-336.4218 1520.0596,-322.0449 1568.3233,-314.0803"/>
<polygon fill="#191970" stroke="#191970" points="1283.4414,-358.2884 1274.1787,-363.4315 1284.627,-365.1873 1283.4414,-358.2884"/>
</g>
<!-- Node29 -->
<g id="node7" class="node">
<title>Node29</title>
<polygon fill="#ffffff" stroke="#bfbfbf" points="1167,-401.4556 1167,-420.4556 1271,-420.4556 1271,-401.4556 1167,-401.4556"/>
<text text-anchor="middle" x="1219" y="-408.4556" font-family="Helvetica,sans-Serif" font-size="10.00" fill="#000000">vector&lt;StringBase&gt;</text>
</g>
<!-- Node29&#45;&gt;Node3 -->
<g id="edge31" class="edge">
<title>Node29&#45;&gt;Node3</title>
<path fill="none" stroke="#9a32cd" stroke-dasharray="5,2" d="M1281.7634,-411.6519C1424.7944,-412.5331 1785.718,-410.7649 2085,-375.9556 2126.8185,-371.0918 2140.1545,-376.3991 2178,-357.9556 2193.2217,-350.5376 2207.385,-336.7671 2215.867,-327.4824"/>
<polygon fill="#9a32cd" stroke="#9a32cd" points="1281.4629,-408.1498 1271.4391,-411.5812 1281.4149,-415.1497 1281.4629,-408.1498"/>
<text text-anchor="middle" x="1728.5" y="-406.9556" font-family="Helvetica,sans-Serif" font-size="10.00" fill="#000000"> UnaryOperators</text>
</g>
<!-- Node29&#45;&gt;Node24 -->
<g id="edge32" class="edge">
<title>Node29&#45;&gt;Node24</title>
<path fill="none" stroke="#9a32cd" stroke-dasharray="5,2" d="M1281.1831,-407.4045C1300.9021,-404.6826 1322.3994,-399.9908 1341,-391.9556 1350.3039,-387.9365 1349.7467,-382.0899 1359,-377.9556 1424.9836,-348.4755 1450.1964,-371.0684 1519,-348.9556 1544.315,-340.8197 1571.7753,-326.838 1588.8106,-317.4959"/>
<polygon fill="#9a32cd" stroke="#9a32cd" points="1280.5535,-403.9556 1271.0582,-408.6556 1281.412,-410.9028 1280.5535,-403.9556"/>
<text text-anchor="middle" x="1439" y="-380.9556" font-family="Helvetica,sans-Serif" font-size="10.00" fill="#000000"> TrueValues</text>
</g>
<!-- Node34 -->
<g id="node8" class="node">
<title>Node34</title>
<polygon fill="#ffffff" stroke="#bfbfbf" points="1783,-347.4556 1783,-366.4556 2085,-366.4556 2085,-347.4556 1783,-347.4556"/>
<text text-anchor="middle" x="1934" y="-354.4556" font-family="Helvetica,sans-Serif" font-size="10.00" fill="#000000">vector&lt;tuple&lt;Priorities, AStringBase, AStringBase, StringBase&gt;&gt;</text>
</g>
<!-- Node34&#45;&gt;Node3 -->
<g id="edge34" class="edge">
<title>Node34&#45;&gt;Node3</title>
<path fill="none" stroke="#9a32cd" stroke-dasharray="5,2" d="M2082.9612,-346.318C2114.5108,-342.7759 2147.4891,-338.1015 2178,-331.9556 2183.7284,-330.8018 2189.7634,-329.2322 2195.509,-327.5605"/>
<polygon fill="#9a32cd" stroke="#9a32cd" points="2082.3347,-342.8654 2072.7729,-347.4287 2083.0934,-349.8242 2082.3347,-342.8654"/>
<text text-anchor="middle" x="2140.5" y="-345.9556" font-family="Helvetica,sans-Serif" font-size="10.00" fill="#000000"> VariablesLoaded</text>
</g>
<!-- Node14 -->
<g id="node9" class="node">
<title>Node14</title>
<g id="a_node9"><a xlink:href="classaworx_1_1lib_1_1strings_1_1TStringBase.html" target="_top" xlink:title="TStringBase\&lt;nchar\&gt;">
<polygon fill="#ffffff" stroke="#ff0000" points="519,-471.4556 519,-490.4556 626,-490.4556 626,-471.4556 519,-471.4556"/>
<text text-anchor="middle" x="572.5" y="-478.4556" font-family="Helvetica,sans-Serif" font-size="10.00" fill="#000000">TStringBase&lt;nchar&gt;</text>
</a>
</g>
</g>
<!-- Node5 -->
<g id="node17" class="node">
<title>Node5</title>
<g id="a_node17"><a xlink:href="classaworx_1_1lib_1_1threads_1_1ThreadLock.html" target="_top" xlink:title="ThreadLock">
<polygon fill="#ffffff" stroke="#000000" points="822,-514.4556 822,-533.4556 890,-533.4556 890,-514.4556 822,-514.4556"/>
<text text-anchor="middle" x="856" y="-521.4556" font-family="Helvetica,sans-Serif" font-size="10.00" fill="#000000">ThreadLock</text>
</a>
</g>
</g>
<!-- Node14&#45;&gt;Node5 -->
<g id="edge9" class="edge">
<title>Node14&#45;&gt;Node5</title>
<path fill="none" stroke="#9a32cd" stroke-dasharray="5,2" d="M636.6268,-479.8703C674.3352,-480.7312 722.5873,-484.4538 764,-495.9556 772.6181,-498.3492 773.6212,-501.8258 782,-504.9556 794.6739,-509.6898 808.9959,-513.6677 821.6408,-516.7405"/>
<polygon fill="#9a32cd" stroke="#9a32cd" points="636.3417,-476.3652 626.2852,-479.6992 636.2259,-483.3642 636.3417,-476.3652"/>
<text text-anchor="middle" x="706.5" y="-509.9556" font-family="Helvetica,sans-Serif" font-size="10.00" fill="#000000"> acquirementMethodName</text>
<text text-anchor="middle" x="706.5" y="-498.9556" font-family="Helvetica,sans-Serif" font-size="10.00" fill="#000000">acquirementSourcefile</text>
</g>
<!-- Node19 -->
<g id="node10" class="node">
<title>Node19</title>
<g id="a_node10"><a xlink:href="classaworx_1_1lib_1_1strings_1_1StringBase.html" target="_top" xlink:title="StringBase\&lt;character\&gt;">
<polygon fill="#ffffff" stroke="#000000" points="514,-229.4556 514,-248.4556 631,-248.4556 631,-229.4556 514,-229.4556"/>
<text text-anchor="middle" x="572.5" y="-236.4556" font-family="Helvetica,sans-Serif" font-size="10.00" fill="#000000">StringBase&lt;character&gt;</text>
</a>
</g>
</g>
<!-- Node19&#45;&gt;Node3 -->
<g id="edge15" class="edge">
<title>Node19&#45;&gt;Node3</title>
<path fill="none" stroke="#9a32cd" stroke-dasharray="5,2" d="M592.5059,-254.979C646.1611,-296.8722 799.2926,-409.4193 948,-452.9556 1063.7466,-486.8422 1098.3949,-466.9556 1219,-466.9556 1219,-466.9556 1219,-466.9556 1934,-466.9556 2049.1317,-466.9556 2085.4811,-448.4798 2178,-379.9556 2197.1715,-365.7563 2211.9218,-341.3284 2219.1304,-327.7609"/>
<polygon fill="#9a32cd" stroke="#9a32cd" points="594.5092,-252.1016 584.4878,-248.6634 590.1778,-257.6007 594.5092,-252.1016"/>
<text text-anchor="middle" x="1439" y="-480.9556" font-family="Helvetica,sans-Serif" font-size="10.00" fill="#000000"> CfgNestedExpressionOperator</text>
<text text-anchor="middle" x="1439" y="-469.9556" font-family="Helvetica,sans-Serif" font-size="10.00" fill="#000000">CfgNestedExpressionThrowIdentifier</text>
</g>
<!-- Node27 -->
<g id="node14" class="node">
<title>Node27</title>
<g id="a_node14"><a xlink:href="classaworx_1_1lib_1_1strings_1_1TStringBase.html" target="_top" xlink:title="TStringBase\&lt;character\&gt;">
<polygon fill="#ffffff" stroke="#000000" points="794.5,-160.4556 794.5,-179.4556 917.5,-179.4556 917.5,-160.4556 794.5,-160.4556"/>
<text text-anchor="middle" x="856" y="-167.4556" font-family="Helvetica,sans-Serif" font-size="10.00" fill="#000000">TStringBase&lt;character&gt;</text>
</a>
</g>
</g>
<!-- Node19&#45;&gt;Node27 -->
<g id="edge17" class="edge">
<title>Node19&#45;&gt;Node27</title>
<path fill="none" stroke="#191970" d="M621.5523,-227.017C676.9199,-213.5413 765.8912,-191.8869 816.8248,-179.4904"/>
<polygon fill="#191970" stroke="#191970" points="620.5105,-223.6683 611.6218,-229.4339 622.1659,-230.4698 620.5105,-223.6683"/>
</g>
<!-- Node19&#45;&gt;Node24 -->
<g id="edge16" class="edge">
<title>Node19&#45;&gt;Node24</title>
<path fill="none" stroke="#9a32cd" stroke-dasharray="5,2" d="M641.0087,-243.1299C738.3685,-249.0972 922.3429,-260.5025 1079,-270.9556 1262.771,-283.218 1482.5357,-299.034 1568.4834,-305.264"/>
<polygon fill="#9a32cd" stroke="#9a32cd" points="641.1979,-239.635 631.0026,-242.5171 640.77,-246.622 641.1979,-239.635"/>
<text text-anchor="middle" x="1013.5" y="-295.9556" font-family="Helvetica,sans-Serif" font-size="10.00" fill="#000000"> SubstitutionVariableStart</text>
<text text-anchor="middle" x="1013.5" y="-284.9556" font-family="Helvetica,sans-Serif" font-size="10.00" fill="#000000">SubstitutionVariableEnd</text>
<text text-anchor="middle" x="1013.5" y="-273.9556" font-family="Helvetica,sans-Serif" font-size="10.00" fill="#000000">SubstitutionVariableDelimiters</text>
</g>
<!-- Node35 -->
<g id="node22" class="node">
<title>Node35</title>
<g id="a_node22"><a xlink:href="structaworx_1_1lib_1_1expressions_1_1FunctionNameDescriptor.html" target="_top" xlink:title="FunctionNameDescriptor">
<polygon fill="#ffffff" stroke="#000000" points="951,-102.4556 951,-121.4556 1076,-121.4556 1076,-102.4556 951,-102.4556"/>
<text text-anchor="middle" x="1013.5" y="-109.4556" font-family="Helvetica,sans-Serif" font-size="10.00" fill="#000000">FunctionNameDescriptor</text>
</a>
</g>
</g>
<!-- Node19&#45;&gt;Node35 -->
<g id="edge18" class="edge">
<title>Node19&#45;&gt;Node35</title>
<path fill="none" stroke="#9a32cd" stroke-dasharray="5,2" d="M589.1288,-222.1683C603.6773,-208.4623 626.0247,-189.6683 649,-178.9556 747.9881,-132.8007 875.9654,-118.3964 950.9639,-113.9295"/>
<polygon fill="#9a32cd" stroke="#9a32cd" points="586.6421,-219.7043 581.8942,-229.1757 591.5123,-224.7324 586.6421,-219.7043"/>
<text text-anchor="middle" x="706.5" y="-181.9556" font-family="Helvetica,sans-Serif" font-size="10.00" fill="#000000"> Name</text>
</g>
<!-- Node22 -->
<g id="node11" class="node">
<title>Node22</title>
<g id="a_node11"><a xlink:href="classaworx_1_1lib_1_1strings_1_1AStringBase.html" target="_top" xlink:title="AStringBase\&lt;TChar\&gt;">
<polygon fill="#ffffff" stroke="#000000" points="146,-50.4556 146,-69.4556 256,-69.4556 256,-50.4556 146,-50.4556"/>
<text text-anchor="middle" x="201" y="-57.4556" font-family="Helvetica,sans-Serif" font-size="10.00" fill="#000000">AStringBase&lt;TChar&gt;</text>
</a>
</g>
</g>
<!-- Node22&#45;&gt;Node21 -->
<g id="edge23" class="edge">
<title>Node22&#45;&gt;Node21</title>
<path fill="none" stroke="#9a32cd" stroke-dasharray="5,2" d="M266.2583,-53.2054C297.9832,-50.4752 336.6911,-47.9556 371.5,-47.9556 371.5,-47.9556 371.5,-47.9556 1219,-47.9556 1337.2114,-47.9556 1475.5638,-55.9908 1550.4899,-61.0128"/>
<polygon fill="#9a32cd" stroke="#9a32cd" points="265.8686,-49.7261 256.2171,-54.0963 266.4873,-56.6987 265.8686,-49.7261"/>
<text text-anchor="middle" x="706.5" y="-50.9556" font-family="Helvetica,sans-Serif" font-size="10.00" fill="#000000"> elements</text>
</g>
<!-- Node8 -->
<g id="node16" class="node">
<title>Node8</title>
<g id="a_node16"><a xlink:href="classaworx_1_1lib_1_1strings_1_1PreallocatedStringBase.html" target="_top" xlink:title="PreallocatedStringBase\&lt;TChar\&gt;">
<polygon fill="#ffffff" stroke="#ff0000" points="293,-196.4556 293,-215.4556 450,-215.4556 450,-196.4556 293,-196.4556"/>
<text text-anchor="middle" x="371.5" y="-203.4556" font-family="Helvetica,sans-Serif" font-size="10.00" fill="#000000">PreallocatedStringBase&lt;TChar&gt;</text>
</a>
</g>
</g>
<!-- Node22&#45;&gt;Node8 -->
<g id="edge22" class="edge">
<title>Node22&#45;&gt;Node8</title>
<path fill="none" stroke="#191970" d="M219.9146,-76.1523C255.4569,-106.5874 331.2264,-171.4691 360.0483,-196.1495"/>
<polygon fill="#191970" stroke="#191970" points="222.0592,-73.3809 212.187,-69.5351 217.5062,-78.6979 222.0592,-73.3809"/>
</g>
<!-- Node10 -->
<g id="node12" class="node">
<title>Node10</title>
<g id="a_node12"><a xlink:href="classaworx_1_1lib_1_1strings_1_1TStringBase.html" target="_top" xlink:title="TStringBase\&lt;TChar\&gt;">
<polygon fill="#ffffff" stroke="#ff0000" points="0,-50.4556 0,-69.4556 109,-69.4556 109,-50.4556 0,-50.4556"/>
<text text-anchor="middle" x="54.5" y="-57.4556" font-family="Helvetica,sans-Serif" font-size="10.00" fill="#000000">TStringBase&lt;TChar&gt;</text>
</a>
</g>
</g>
<!-- Node10&#45;&gt;Node22 -->
<g id="edge8" class="edge">
<title>Node10&#45;&gt;Node22</title>
<path fill="none" stroke="#191970" d="M119.0607,-59.9556C128.0182,-59.9556 137.1515,-59.9556 145.9147,-59.9556"/>
<polygon fill="#191970" stroke="#191970" points="119.0512,-56.4557 109.0512,-59.9556 119.0512,-63.4557 119.0512,-56.4557"/>
</g>
<!-- Node26 -->
<g id="node13" class="node">
<title>Node26</title>
<g id="a_node13"><a xlink:href="classaworx_1_1lib_1_1strings_1_1NumberFormatBase.html" target="_top" xlink:title="NumberFormatBase\&lt;character\&gt;">
<polygon fill="#ffffff" stroke="#ff0000" points="1140.5,-202.4556 1140.5,-221.4556 1297.5,-221.4556 1297.5,-202.4556 1140.5,-202.4556"/>
<text text-anchor="middle" x="1219" y="-209.4556" font-family="Helvetica,sans-Serif" font-size="10.00" fill="#000000">NumberFormatBase&lt;character&gt;</text>
</a>
</g>
</g>
<!-- Node26&#45;&gt;Node24 -->
<g id="edge28" class="edge">
<title>Node26&#45;&gt;Node24</title>
<path fill="none" stroke="#9a32cd" stroke-dasharray="5,2" d="M1307.9623,-217.472C1368.7543,-223.2603 1450.412,-235.0477 1519,-258.9556 1546.7061,-268.6133 1575.7597,-287.0523 1592.1534,-298.3512"/>
<polygon fill="#9a32cd" stroke="#9a32cd" points="1307.905,-213.9522 1297.6277,-216.5265 1307.2672,-220.9231 1307.905,-213.9522"/>
<text text-anchor="middle" x="1439" y="-261.9556" font-family="Helvetica,sans-Serif" font-size="10.00" fill="#000000"> NumberFormat</text>
</g>
<!-- Node27&#45;&gt;Node26 -->
<g id="edge29" class="edge">
<title>Node27&#45;&gt;Node26</title>
<path fill="none" stroke="#9a32cd" stroke-dasharray="5,2" d="M927.8744,-165.2005C971.7603,-163.5528 1028.885,-163.6536 1079,-170.9556 1081.7411,-171.355 1146.1567,-190.3677 1186.6452,-202.3592"/>
<polygon fill="#9a32cd" stroke="#9a32cd" points="927.7162,-161.704 917.8696,-165.6148 928.0058,-168.698 927.7162,-161.704"/>
<text text-anchor="middle" x="1013.5" y="-239.9556" font-family="Helvetica,sans-Serif" font-size="10.00" fill="#000000"> Whitespaces</text>
<text text-anchor="middle" x="1013.5" y="-228.9556" font-family="Helvetica,sans-Serif" font-size="10.00" fill="#000000">OctLiteralPrefix</text>
<text text-anchor="middle" x="1013.5" y="-217.9556" font-family="Helvetica,sans-Serif" font-size="10.00" fill="#000000">INFLiteral</text>
<text text-anchor="middle" x="1013.5" y="-206.9556" font-family="Helvetica,sans-Serif" font-size="10.00" fill="#000000">NANLiteral</text>
<text text-anchor="middle" x="1013.5" y="-195.9556" font-family="Helvetica,sans-Serif" font-size="10.00" fill="#000000">ExponentSeparator</text>
<text text-anchor="middle" x="1013.5" y="-184.9556" font-family="Helvetica,sans-Serif" font-size="10.00" fill="#000000">BinLiteralPrefix</text>
<text text-anchor="middle" x="1013.5" y="-173.9556" font-family="Helvetica,sans-Serif" font-size="10.00" fill="#000000">HexLiteralPrefix</text>
</g>
<!-- Node31 -->
<g id="node15" class="node">
<title>Node31</title>
<g id="a_node15"><a xlink:href="classaworx_1_1lib_1_1strings_1_1AStringBase.html" target="_top" xlink:title="AStringBase\&lt;character\&gt;">
<polygon fill="#ffffff" stroke="#000000" points="1377,-180.4556 1377,-199.4556 1501,-199.4556 1501,-180.4556 1377,-180.4556"/>
<text text-anchor="middle" x="1439" y="-187.4556" font-family="Helvetica,sans-Serif" font-size="10.00" fill="#000000">AStringBase&lt;character&gt;</text>
</a>
</g>
</g>
<!-- Node27&#45;&gt;Node31 -->
<g id="edge30" class="edge">
<title>Node27&#45;&gt;Node31</title>
<path fill="none" stroke="#191970" d="M927.7661,-161.3965C934.5972,-160.8104 941.425,-160.3119 948,-159.9556 1102.138,-151.6032 1283.3863,-170.0007 1376.6223,-181.5381"/>
<polygon fill="#191970" stroke="#191970" points="927.4233,-157.9132 917.7845,-162.3114 928.0623,-164.884 927.4233,-157.9132"/>
</g>
<!-- Node31&#45;&gt;Node23 -->
<g id="edge33" class="edge">
<title>Node31&#45;&gt;Node23</title>
<path fill="none" stroke="#9a32cd" stroke-dasharray="5,2" d="M1511.4347,-196.3943C1623.9792,-206.3982 1835.4874,-225.199 1908.4717,-231.6865"/>
<polygon fill="#9a32cd" stroke="#9a32cd" points="1511.4615,-192.883 1501.1909,-195.4837 1510.8417,-199.8555 1511.4615,-192.883"/>
<text text-anchor="middle" x="1605.5" y="-223.9556" font-family="Helvetica,sans-Serif" font-size="10.00" fill="#000000"> DefaultValue</text>
<text text-anchor="middle" x="1605.5" y="-212.9556" font-family="Helvetica,sans-Serif" font-size="10.00" fill="#000000">Comments</text>
</g>
<!-- Node6 -->
<g id="node18" class="node">
<title>Node6</title>
<g id="a_node18"><a xlink:href="classaworx_1_1lib_1_1threads_1_1Thread.html" target="_top" xlink:title="Thread">
<polygon fill="#ffffff" stroke="#ff0000" points="549,-512.4556 549,-531.4556 596,-531.4556 596,-512.4556 549,-512.4556"/>
<text text-anchor="middle" x="572.5" y="-519.4556" font-family="Helvetica,sans-Serif" font-size="10.00" fill="#000000">Thread</text>
</a>
</g>
</g>
<!-- Node8&#45;&gt;Node6 -->
<g id="edge5" class="edge">
<title>Node8&#45;&gt;Node6</title>
<path fill="none" stroke="#9a32cd" stroke-dasharray="5,2" d="M375.6608,-225.5807C387.6929,-277.6813 427.3352,-420.8885 514,-499.9556 523.6993,-508.8046 537.2988,-514.2034 548.9448,-517.4367"/>
<polygon fill="#9a32cd" stroke="#9a32cd" points="379.0385,-224.6462 373.4505,-215.6448 372.2056,-226.1663 379.0385,-224.6462"/>
<text text-anchor="middle" x="482" y="-483.9556" font-family="Helvetica,sans-Serif" font-size="10.00" fill="#000000"> name</text>
</g>
<!-- Node8&#45;&gt;Node23 -->
<g id="edge6" class="edge">
<title>Node8&#45;&gt;Node23</title>
<path fill="none" stroke="#9a32cd" stroke-dasharray="5,2" d="M387.0333,-188.5146C418.4818,-155.236 493.4456,-85.9556 572.5,-85.9556 572.5,-85.9556 572.5,-85.9556 1013.5,-84.9556 1042.6111,-84.9556 1049.9971,-82.4474 1079,-84.9556 1410.0021,-113.5816 1805.114,-203.4359 1908.3307,-227.806"/>
<polygon fill="#9a32cd" stroke="#9a32cd" points="384.2099,-186.4132 379.9995,-196.1355 389.3539,-191.1609 384.2099,-186.4132"/>
<text text-anchor="middle" x="1013.5" y="-88.9556" font-family="Helvetica,sans-Serif" font-size="10.00" fill="#000000"> FormatAttrAlignment</text>
</g>
<!-- Node8&#45;&gt;Node23 -->
<g id="edge7" class="edge">
<title>Node8&#45;&gt;Node23</title>
<path fill="none" stroke="#9a32cd" stroke-dasharray="5,2" d="M402.1067,-219.6049C430.5222,-231.6749 474.2975,-248.7539 514,-257.9556 702.9606,-301.7507 754.301,-293.7192 948,-303.9556 1330.1601,-324.1518 1794.7067,-256.0462 1908.1224,-238.1521"/>
<polygon fill="#9a32cd" stroke="#9a32cd" points="403.2971,-216.3068 392.7282,-215.5656 400.5281,-222.7359 403.2971,-216.3068"/>
<text text-anchor="middle" x="1013.5" y="-331.9556" font-family="Helvetica,sans-Serif" font-size="10.00" fill="#000000"> Fullname</text>
<text text-anchor="middle" x="1013.5" y="-320.9556" font-family="Helvetica,sans-Serif" font-size="10.00" fill="#000000">Category</text>
<text text-anchor="middle" x="1013.5" y="-309.9556" font-family="Helvetica,sans-Serif" font-size="10.00" fill="#000000">Name</text>
</g>
<!-- Node5&#45;&gt;Node4 -->
<g id="edge2" class="edge">
<title>Node5&#45;&gt;Node4</title>
<path fill="none" stroke="#191970" d="M900.3211,-523.4673C948.915,-522.9318 1028.9932,-522.0494 1096.7175,-521.3031"/>
<polygon fill="#191970" stroke="#191970" points="900.111,-519.9693 890.1502,-523.5793 900.1882,-526.9688 900.111,-519.9693"/>
</g>
<!-- Node5&#45;&gt;Node25 -->
<g id="edge3" class="edge">
<title>Node5&#45;&gt;Node25</title>
<path fill="none" stroke="#191970" d="M900.1864,-520.7935C911.204,-517.9847 922.1108,-513.1486 930,-504.9556 956.182,-477.7657 921.1115,-448.4471 948,-421.9556 955.429,-414.6364 1078.646,-394.5283 1156.3476,-382.4669"/>
<polygon fill="#191970" stroke="#191970" points="899.2219,-517.4179 890.1204,-522.8412 900.6174,-524.2774 899.2219,-517.4179"/>
</g>
<!-- Node6&#45;&gt;Node5 -->
<g id="edge4" class="edge">
<title>Node6&#45;&gt;Node5</title>
<path fill="none" stroke="#9a32cd" stroke-dasharray="5,2" d="M606.3447,-522.1944C660.7684,-522.5783 767.151,-523.3288 821.8,-523.7144"/>
<polygon fill="#9a32cd" stroke="#9a32cd" points="606.2079,-518.6935 596.1834,-522.1227 606.1585,-525.6933 606.2079,-518.6935"/>
<text text-anchor="middle" x="706.5" y="-525.9556" font-family="Helvetica,sans-Serif" font-size="10.00" fill="#000000"> owner</text>
</g>
<!-- Node23&#45;&gt;Node3 -->
<g id="edge24" class="edge">
<title>Node23&#45;&gt;Node3</title>
<path fill="none" stroke="#9a32cd" stroke-dasharray="5,2" d="M1969.5547,-239.5539C2017.8529,-247.8273 2106.3859,-265.382 2178,-292.9556 2188.6877,-297.0707 2199.9981,-303.1913 2208.7292,-308.3462"/>
<polygon fill="#9a32cd" stroke="#9a32cd" points="1970.0369,-236.0859 1959.5955,-237.8823 1968.8782,-242.9894 1970.0369,-236.0859"/>
<text text-anchor="middle" x="2140.5" y="-295.9556" font-family="Helvetica,sans-Serif" font-size="10.00" fill="#000000"> var</text>
</g>
<!-- Node18 -->
<g id="node20" class="node">
<title>Node18</title>
<g id="a_node20"><a xlink:href="structaworx_1_1lib_1_1util_1_1PluginContainer_1_1Slot.html" target="_top" xlink:title="Type definition for elements of the list of plug&#45;ins with their priority. ">
<polygon fill="#ffffff" stroke="#000000" points="555.5,-552.4556 555.5,-571.4556 589.5,-571.4556 589.5,-552.4556 555.5,-552.4556"/>
<text text-anchor="middle" x="572.5" y="-559.4556" font-family="Helvetica,sans-Serif" font-size="10.00" fill="#000000">Slot</text>
</a>
</g>
</g>
<!-- Node18&#45;&gt;Node17 -->
<g id="edge14" class="edge">
<title>Node18&#45;&gt;Node17</title>
<path fill="none" stroke="#9a32cd" stroke-dasharray="5,2" d="M599.9951,-561.9556C641.6291,-561.9556 722.13,-561.9556 781.7944,-561.9556"/>
<polygon fill="#9a32cd" stroke="#9a32cd" points="599.8075,-558.4557 589.8074,-561.9556 599.8074,-565.4557 599.8075,-558.4557"/>
<text text-anchor="middle" x="706.5" y="-564.9556" font-family="Helvetica,sans-Serif" font-size="10.00" fill="#000000"> elements</text>
</g>
<!-- Node24&#45;&gt;Node3 -->
<g id="edge25" class="edge">
<title>Node24&#45;&gt;Node3</title>
<path fill="none" stroke="#9a32cd" stroke-dasharray="5,2" d="M1652.9715,-308.7232C1775.311,-310.7012 2098.5572,-315.9275 2195.8819,-317.501"/>
<polygon fill="#9a32cd" stroke="#9a32cd" points="1652.8524,-305.2209 1642.7971,-308.5587 1652.7392,-312.22 1652.8524,-305.2209"/>
<text text-anchor="middle" x="1934" y="-317.9556" font-family="Helvetica,sans-Serif" font-size="10.00" fill="#000000"> Config</text>
</g>
<!-- Node24&#45;&gt;Node23 -->
<g id="edge26" class="edge">
<title>Node24&#45;&gt;Node23</title>
<path fill="none" stroke="#9a32cd" stroke-dasharray="5,2" d="M1652.4743,-297.3739C1722.8362,-281.5237 1853.211,-252.1547 1908.3311,-239.738"/>
<polygon fill="#9a32cd" stroke="#9a32cd" points="1651.5309,-293.9986 1642.5446,-299.6107 1653.0693,-300.8275 1651.5309,-293.9986"/>
<text text-anchor="middle" x="1728.5" y="-290.9556" font-family="Helvetica,sans-Serif" font-size="10.00" fill="#000000"> Config</text>
</g>
<!-- Node35&#45;&gt;Node3 -->
<g id="edge35" class="edge">
<title>Node35&#45;&gt;Node3</title>
<path fill="none" stroke="#9a32cd" stroke-dasharray="5,2" d="M1086.2371,-115.2548C1170.9409,-118.8071 1315.0803,-123.9556 1439,-123.9556 1439,-123.9556 1439,-123.9556 1934,-123.9556 2068.1717,-123.9556 2187.2663,-269.19 2216.9292,-308.3352"/>
<polygon fill="#9a32cd" stroke="#9a32cd" points="1086.3466,-111.7564 1076.2074,-114.8299 1086.0503,-118.7501 1086.3466,-111.7564"/>
<text text-anchor="middle" x="1605.5" y="-126.9556" font-family="Helvetica,sans-Serif" font-size="10.00" fill="#000000"> CfgNestedExpressionFunction</text>
</g>
<!-- Node20 -->
<g id="node23" class="node">
<title>Node20</title>
<g id="a_node23"><a xlink:href="structaworx_1_1lib_1_1expressions_1_1detail_1_1Parser.html" target="_top" xlink:title="Parser">
<polygon fill="#ffffff" stroke="#000000" points="1911.5,-9.4556 1911.5,-28.4556 1956.5,-28.4556 1956.5,-9.4556 1911.5,-9.4556"/>
<text text-anchor="middle" x="1934" y="-16.4556" font-family="Helvetica,sans-Serif" font-size="10.00" fill="#000000">Parser</text>
</a>
</g>
</g>
<!-- Node20&#45;&gt;Node3 -->
<g id="edge19" class="edge">
<title>Node20&#45;&gt;Node3</title>
<path fill="none" stroke="#9a32cd" stroke-dasharray="5,2" d="M1966.7621,-10.5402C2018.7949,.6659 2120.3225,13.383 2178,-39.9556 2218.4059,-77.3219 2223.3197,-263.7537 2223.9173,-308.3572"/>
<polygon fill="#9a32cd" stroke="#9a32cd" points="1965.7212,-7.1873 1956.7432,-12.8127 1967.2697,-14.0139 1965.7212,-7.1873"/>
<text text-anchor="middle" x="2140.5" y="-42.9556" font-family="Helvetica,sans-Serif" font-size="10.00" fill="#000000"> parser</text>
</g>
</g>
</svg>
