<?xml version="1.0" encoding="UTF-8" standalone="no"?>
<!DOCTYPE svg PUBLIC "-//W3C//DTD SVG 1.1//EN"
 "http://www.w3.org/Graphics/SVG/1.1/DTD/svg11.dtd">
<!-- Generated by graphviz version 2.40.1 (20161225.0304)
 -->
<!-- Title: Library Pages: 1 -->
<svg width="712pt" height="84pt"
 viewBox="0.00 0.00 711.50 84.00" xmlns="http://www.w3.org/2000/svg" xmlns:xlink="http://www.w3.org/1999/xlink">
<g id="graph0" class="graph" transform="scale(1 1) rotate(0) translate(4 80)">
<title>Library</title>
<polygon fill="#ffffff" stroke="transparent" points="-4,4 -4,-80 707.5,-80 707.5,4 -4,4"/>
<!-- Node0 -->
<g id="node1" class="node">
<title>Node0</title>
<polygon fill="#bfbfbf" stroke="#000000" points="331,-56.5 331,-75.5 377,-75.5 377,-56.5 331,-56.5"/>
<text text-anchor="middle" x="354" y="-63.5" font-family="Helvetica,sans-Serif" font-size="10.00" fill="#000000">Library</text>
</g>
<!-- Node1 -->
<g id="node2" class="node">
<title>Node1</title>
<g id="a_node2"><a xlink:href="classaworx_1_1lib_1_1ALib.html" target="_top" xlink:title="ALib">
<polygon fill="#ffffff" stroke="#000000" points="0,-.5 0,-19.5 36,-19.5 36,-.5 0,-.5"/>
<text text-anchor="middle" x="18" y="-7.5" font-family="Helvetica,sans-Serif" font-size="10.00" fill="#000000">ALib</text>
</a>
</g>
</g>
<!-- Node0&#45;&gt;Node1 -->
<g id="edge1" class="edge">
<title>Node0&#45;&gt;Node1</title>
<path fill="none" stroke="#191970" d="M320.5535,-63.306C263.373,-58.1953 143.46,-45.2715 45,-20 42.095,-19.2544 39.0685,-18.3089 36.1371,-17.2983"/>
<polygon fill="#191970" stroke="#191970" points="320.5391,-66.8179 330.8049,-64.198 321.146,-59.8442 320.5391,-66.8179"/>
</g>
<!-- Node2 -->
<g id="node3" class="node">
<title>Node2</title>
<g id="a_node3"><a xlink:href="classaworx_1_1lib_1_1boxing_1_1Boxing.html" target="_top" xlink:title="Boxing">
<polygon fill="#ffffff" stroke="#000000" points="54.5,-.5 54.5,-19.5 101.5,-19.5 101.5,-.5 54.5,-.5"/>
<text text-anchor="middle" x="78" y="-7.5" font-family="Helvetica,sans-Serif" font-size="10.00" fill="#000000">Boxing</text>
</a>
</g>
</g>
<!-- Node0&#45;&gt;Node2 -->
<g id="edge2" class="edge">
<title>Node0&#45;&gt;Node2</title>
<path fill="none" stroke="#191970" d="M320.9794,-61.0287C273.8296,-53.6471 184.656,-38.6349 110,-20 107.2893,-19.3234 104.4702,-18.5489 101.6785,-17.7371"/>
<polygon fill="#191970" stroke="#191970" points="320.5136,-64.4982 330.9317,-62.5708 321.5856,-57.5807 320.5136,-64.4982"/>
</g>
<!-- Node3 -->
<g id="node4" class="node">
<title>Node3</title>
<g id="a_node4"><a xlink:href="classaworx_1_1lib_1_1cli_1_1CLILib.html" target="_top" xlink:title="CLILib">
<polygon fill="#ffffff" stroke="#000000" points="119.5,-.5 119.5,-19.5 164.5,-19.5 164.5,-.5 119.5,-.5"/>
<text text-anchor="middle" x="142" y="-7.5" font-family="Helvetica,sans-Serif" font-size="10.00" fill="#000000">CLILib</text>
</a>
</g>
</g>
<!-- Node0&#45;&gt;Node3 -->
<g id="edge3" class="edge">
<title>Node0&#45;&gt;Node3</title>
<path fill="none" stroke="#191970" d="M320.6587,-58.1948C284.2143,-49.5079 224.1837,-34.7435 173,-20 170.283,-19.2174 167.4447,-18.359 164.6362,-17.4843"/>
<polygon fill="#191970" stroke="#191970" points="320.1927,-61.6813 330.7305,-60.5838 321.8083,-54.8703 320.1927,-61.6813"/>
</g>
<!-- Node4 -->
<g id="node5" class="node">
<title>Node4</title>
<g id="a_node5"><a xlink:href="classaworx_1_1lib_1_1config_1_1Config.html" target="_top" xlink:title="Config">
<polygon fill="#ffffff" stroke="#000000" points="182.5,-.5 182.5,-19.5 227.5,-19.5 227.5,-.5 182.5,-.5"/>
<text text-anchor="middle" x="205" y="-7.5" font-family="Helvetica,sans-Serif" font-size="10.00" fill="#000000">Config</text>
</a>
</g>
</g>
<!-- Node0&#45;&gt;Node4 -->
<g id="edge4" class="edge">
<title>Node0&#45;&gt;Node4</title>
<path fill="none" stroke="#191970" d="M321.2235,-53.6813C292.8473,-43.0164 252.5517,-27.8718 227.6299,-18.5052"/>
<polygon fill="#191970" stroke="#191970" points="320.1267,-57.0081 330.7188,-57.25 322.5894,-50.4556 320.1267,-57.0081"/>
</g>
<!-- Node5 -->
<g id="node6" class="node">
<title>Node5</title>
<g id="a_node6"><a xlink:href="classaworx_1_1lib_1_1expressions_1_1Expressions.html" target="_top" xlink:title="Expressions">
<polygon fill="#ffffff" stroke="#000000" points="245.5,-.5 245.5,-19.5 316.5,-19.5 316.5,-.5 245.5,-.5"/>
<text text-anchor="middle" x="281" y="-7.5" font-family="Helvetica,sans-Serif" font-size="10.00" fill="#000000">Expressions</text>
</a>
</g>
</g>
<!-- Node0&#45;&gt;Node5 -->
<g id="edge5" class="edge">
<title>Node0&#45;&gt;Node5</title>
<path fill="none" stroke="#191970" d="M333.049,-49.928C320.2893,-40.1397 304.4115,-27.9595 293.5699,-19.6427"/>
<polygon fill="#191970" stroke="#191970" points="331.2197,-52.9359 341.2844,-56.2455 335.4804,-47.3819 331.2197,-52.9359"/>
</g>
<!-- Node6 -->
<g id="node7" class="node">
<title>Node6</title>
<g id="a_node7"><a xlink:href="classaworx_1_1lib_1_1lang_1_1Lang.html" target="_top" xlink:title="Lang">
<polygon fill="#ffffff" stroke="#000000" points="335,-.5 335,-19.5 373,-19.5 373,-.5 335,-.5"/>
<text text-anchor="middle" x="354" y="-7.5" font-family="Helvetica,sans-Serif" font-size="10.00" fill="#000000">Lang</text>
</a>
</g>
</g>
<!-- Node0&#45;&gt;Node6 -->
<g id="edge6" class="edge">
<title>Node0&#45;&gt;Node6</title>
<path fill="none" stroke="#191970" d="M354,-46.1575C354,-37.155 354,-26.9199 354,-19.6427"/>
<polygon fill="#191970" stroke="#191970" points="350.5001,-46.2455 354,-56.2455 357.5001,-46.2456 350.5001,-46.2455"/>
</g>
<!-- Node7 -->
<g id="node8" class="node">
<title>Node7</title>
<g id="a_node8"><a xlink:href="classaworx_1_1lib_1_1lox_1_1ALox.html" target="_top" xlink:title="ALox">
<polygon fill="#ffffff" stroke="#000000" points="391.5,-.5 391.5,-19.5 430.5,-19.5 430.5,-.5 391.5,-.5"/>
<text text-anchor="middle" x="411" y="-7.5" font-family="Helvetica,sans-Serif" font-size="10.00" fill="#000000">ALox</text>
</a>
</g>
</g>
<!-- Node0&#45;&gt;Node7 -->
<g id="edge7" class="edge">
<title>Node0&#45;&gt;Node7</title>
<path fill="none" stroke="#191970" d="M371.2271,-49.0751C381.0341,-39.4402 392.964,-27.7196 401.1851,-19.6427"/>
<polygon fill="#191970" stroke="#191970" points="368.6091,-46.7406 363.9286,-56.2455 373.5149,-51.734 368.6091,-46.7406"/>
</g>
<!-- Node8 -->
<g id="node9" class="node">
<title>Node8</title>
<g id="a_node9"><a xlink:href="classaworx_1_1lib_1_1strings_1_1Strings.html" target="_top" xlink:title="Strings">
<polygon fill="#ffffff" stroke="#000000" points="448.5,-.5 448.5,-19.5 495.5,-19.5 495.5,-.5 448.5,-.5"/>
<text text-anchor="middle" x="472" y="-7.5" font-family="Helvetica,sans-Serif" font-size="10.00" fill="#000000">Strings</text>
</a>
</g>
</g>
<!-- Node0&#45;&gt;Node8 -->
<g id="edge8" class="edge">
<title>Node0&#45;&gt;Node8</title>
<path fill="none" stroke="#191970" d="M383.5547,-51.9741C404.9195,-41.8348 433.2116,-28.408 451.9798,-19.5011"/>
<polygon fill="#191970" stroke="#191970" points="381.8186,-48.9238 374.2849,-56.3733 384.8198,-55.2478 381.8186,-48.9238"/>
</g>
<!-- Node9 -->
<g id="node10" class="node">
<title>Node9</title>
<g id="a_node10"><a xlink:href="classaworx_1_1lib_1_1system_1_1System.html" target="_top" xlink:title="System">
<polygon fill="#ffffff" stroke="#000000" points="514,-.5 514,-19.5 564,-19.5 564,-.5 514,-.5"/>
<text text-anchor="middle" x="539" y="-7.5" font-family="Helvetica,sans-Serif" font-size="10.00" fill="#000000">System</text>
</a>
</g>
</g>
<!-- Node0&#45;&gt;Node9 -->
<g id="edge9" class="edge">
<title>Node0&#45;&gt;Node9</title>
<path fill="none" stroke="#191970" d="M386.695,-56.1031C423.0316,-45.1039 480.921,-27.5807 513.8756,-17.6052"/>
<polygon fill="#191970" stroke="#191970" points="385.6134,-52.7736 377.0563,-59.0208 387.6415,-59.4734 385.6134,-52.7736"/>
</g>
<!-- Node10 -->
<g id="node11" class="node">
<title>Node10</title>
<g id="a_node11"><a xlink:href="classaworx_1_1lib_1_1threads_1_1Threads.html" target="_top" xlink:title="Threads">
<polygon fill="#ffffff" stroke="#000000" points="582,-.5 582,-19.5 634,-19.5 634,-.5 582,-.5"/>
<text text-anchor="middle" x="608" y="-7.5" font-family="Helvetica,sans-Serif" font-size="10.00" fill="#000000">Threads</text>
</a>
</g>
</g>
<!-- Node0&#45;&gt;Node10 -->
<g id="edge10" class="edge">
<title>Node0&#45;&gt;Node10</title>
<path fill="none" stroke="#191970" d="M387.0539,-59.8191C430.0758,-51.6003 507.5016,-36.2139 573,-20 575.8218,-19.3015 578.7596,-18.5311 581.6806,-17.7373"/>
<polygon fill="#191970" stroke="#191970" points="386.3108,-56.3976 377.1397,-61.7024 387.6172,-63.2746 386.3108,-56.3976"/>
</g>
<!-- Node11 -->
<g id="node12" class="node">
<title>Node11</title>
<g id="a_node12"><a xlink:href="classaworx_1_1lib_1_1time_1_1TimeLib.html" target="_top" xlink:title="TimeLib">
<polygon fill="#ffffff" stroke="#000000" points="652.5,-.5 652.5,-19.5 703.5,-19.5 703.5,-.5 652.5,-.5"/>
<text text-anchor="middle" x="678" y="-7.5" font-family="Helvetica,sans-Serif" font-size="10.00" fill="#000000">TimeLib</text>
</a>
</g>
</g>
<!-- Node0&#45;&gt;Node11 -->
<g id="edge11" class="edge">
<title>Node0&#45;&gt;Node11</title>
<path fill="none" stroke="#191970" d="M387.0468,-62.0572C440.9889,-55.3272 551.1589,-40.3517 643,-20 646.0849,-19.3164 649.3,-18.5183 652.4766,-17.6766"/>
<polygon fill="#191970" stroke="#191970" points="386.5266,-58.5947 377.0301,-63.2924 387.3833,-65.5421 386.5266,-58.5947"/>
</g>
</g>
</svg>
