<?xml version="1.0" encoding="UTF-8" standalone="no"?>
<!DOCTYPE svg PUBLIC "-//W3C//DTD SVG 1.1//EN"
 "http://www.w3.org/Graphics/SVG/1.1/DTD/svg11.dtd">
<!-- Generated by graphviz version 2.40.1 (20161225.0304)
 -->
<!-- Title: IApply_TstrangeCharArr&lt;TChar&gt; Pages: 1 -->
<svg width="322pt" height="140pt"
 viewBox="0.00 0.00 321.50 140.00" xmlns="http://www.w3.org/2000/svg" xmlns:xlink="http://www.w3.org/1999/xlink">
<g id="graph0" class="graph" transform="scale(1 1) rotate(0) translate(4 136)">
<title>IApply_TstrangeCharArr&lt;TChar&gt;</title>
<polygon fill="#ffffff" stroke="transparent" points="-4,4 -4,-136 317.5,-136 317.5,4 -4,4"/>
<!-- Node0 -->
<g id="node1" class="node">
<title>Node0</title>
<polygon fill="#bfbfbf" stroke="#000000" points="45,-.5 45,-19.5 204,-19.5 204,-.5 45,-.5"/>
<text text-anchor="middle" x="124.5" y="-7.5" font-family="Helvetica,sans-Serif" font-size="10.00" fill="#000000">IApply_TstrangeCharArr&lt;TChar&gt;</text>
</g>
<!-- Node1 -->
<g id="node2" class="node">
<title>Node1</title>
<g id="a_node2"><a xlink:href="classaworx_1_1lib_1_1strings_1_1boxing_1_1IApply.html" target="_top" xlink:title="IApply\&lt;TChar\&gt;">
<polygon fill="#ffffff" stroke="#000000" points="0,-56.5 0,-75.5 83,-75.5 83,-56.5 0,-56.5"/>
<text text-anchor="middle" x="41.5" y="-63.5" font-family="Helvetica,sans-Serif" font-size="10.00" fill="#000000">IApply&lt;TChar&gt;</text>
</a>
</g>
</g>
<!-- Node1&#45;&gt;Node0 -->
<g id="edge1" class="edge">
<title>Node1&#45;&gt;Node0</title>
<path fill="none" stroke="#191970" d="M64.488,-50.49C79.1322,-40.6096 97.6444,-28.1194 110.2082,-19.6427"/>
<polygon fill="#191970" stroke="#191970" points="62.2896,-47.7511 55.9575,-56.2455 66.2047,-53.5539 62.2896,-47.7511"/>
</g>
<!-- Node3 -->
<g id="node3" class="node">
<title>Node3</title>
<g id="a_node3"><a xlink:href="classaworx_1_1lib_1_1lang_1_1Singleton.html" target="_top" xlink:title="Singleton\&lt;IApply_TstrangeCharArr\&lt;TChar\&gt;\&gt;">
<polygon fill="#ffffff" stroke="#000000" points="101.5,-56.5 101.5,-75.5 313.5,-75.5 313.5,-56.5 101.5,-56.5"/>
<text text-anchor="middle" x="207.5" y="-63.5" font-family="Helvetica,sans-Serif" font-size="10.00" fill="#000000">Singleton&lt;IApply_TstrangeCharArr&lt;TChar&gt;&gt;</text>
</a>
</g>
</g>
<!-- Node3&#45;&gt;Node0 -->
<g id="edge3" class="edge">
<title>Node3&#45;&gt;Node0</title>
<path fill="none" stroke="#191970" d="M184.512,-50.49C169.8678,-40.6096 151.3556,-28.1194 138.7918,-19.6427"/>
<polygon fill="#191970" stroke="#191970" points="182.7953,-53.5539 193.0425,-56.2455 186.7104,-47.7511 182.7953,-53.5539"/>
</g>
<!-- Node2 -->
<g id="node4" class="node">
<title>Node2</title>
<g id="a_node4"><a xlink:href="classaworx_1_1lib_1_1boxing_1_1Interface.html" target="_top" xlink:title="Interface">
<polygon fill="#ffffff" stroke="#000000" points="14,-112.5 14,-131.5 69,-131.5 69,-112.5 14,-112.5"/>
<text text-anchor="middle" x="41.5" y="-119.5" font-family="Helvetica,sans-Serif" font-size="10.00" fill="#000000">Interface</text>
</a>
</g>
</g>
<!-- Node2&#45;&gt;Node1 -->
<g id="edge2" class="edge">
<title>Node2&#45;&gt;Node1</title>
<path fill="none" stroke="#191970" d="M41.5,-102.1575C41.5,-93.155 41.5,-82.9199 41.5,-75.6427"/>
<polygon fill="#191970" stroke="#191970" points="38.0001,-102.2455 41.5,-112.2455 45.0001,-102.2456 38.0001,-102.2455"/>
</g>
</g>
</svg>
