<?xml version="1.0" encoding="UTF-8" standalone="no"?>
<!DOCTYPE svg PUBLIC "-//W3C//DTD SVG 1.1//EN"
 "http://www.w3.org/Graphics/SVG/1.1/DTD/svg11.dtd">
<!-- Generated by graphviz version 2.40.1 (20161225.0304)
 -->
<!-- Title: MetaInfo Pages: 1 -->
<svg width="813pt" height="296pt"
 viewBox="0.00 0.00 813.00 296.00" xmlns="http://www.w3.org/2000/svg" xmlns:xlink="http://www.w3.org/1999/xlink">
<g id="graph0" class="graph" transform="scale(1 1) rotate(0) translate(4 292)">
<title>MetaInfo</title>
<polygon fill="#ffffff" stroke="transparent" points="-4,4 -4,-292 809,-292 809,4 -4,4"/>
<!-- Node1 -->
<g id="node1" class="node">
<title>Node1</title>
<polygon fill="#bfbfbf" stroke="#000000" points="750,-72.5 750,-91.5 805,-91.5 805,-72.5 750,-72.5"/>
<text text-anchor="middle" x="777.5" y="-79.5" font-family="Helvetica,sans-Serif" font-size="10.00" fill="#000000">MetaInfo</text>
</g>
<!-- Node6 -->
<g id="node2" class="node">
<title>Node6</title>
<g id="a_node2"><a xlink:href="classaworx_1_1lib_1_1strings_1_1TStringBase.html" target="_top" xlink:title="TStringBase\&lt;TChar\&gt;">
<polygon fill="#ffffff" stroke="#ff0000" points="161,-238.5 161,-257.5 270,-257.5 270,-238.5 161,-238.5"/>
<text text-anchor="middle" x="215.5" y="-245.5" font-family="Helvetica,sans-Serif" font-size="10.00" fill="#000000">TStringBase&lt;TChar&gt;</text>
</a>
</g>
</g>
<!-- Node9 -->
<g id="node3" class="node">
<title>Node9</title>
<g id="a_node3"><a xlink:href="classaworx_1_1lib_1_1strings_1_1AStringBase.html" target="_top" xlink:title="AStringBase\&lt;character\&gt;">
<polygon fill="#ffffff" stroke="#000000" points="314,-219.5 314,-238.5 438,-238.5 438,-219.5 314,-219.5"/>
<text text-anchor="middle" x="376" y="-226.5" font-family="Helvetica,sans-Serif" font-size="10.00" fill="#000000">AStringBase&lt;character&gt;</text>
</a>
</g>
</g>
<!-- Node6&#45;&gt;Node9 -->
<g id="edge5" class="edge">
<title>Node6&#45;&gt;Node9</title>
<path fill="none" stroke="#191970" d="M280.2838,-240.3309C291.3218,-239.0242 302.7656,-237.6695 313.7365,-236.3708"/>
<polygon fill="#191970" stroke="#191970" points="279.8053,-236.863 270.2861,-241.5144 280.6282,-243.8145 279.8053,-236.863"/>
</g>
<!-- Node9&#45;&gt;Node1 -->
<g id="edge6" class="edge">
<title>Node9&#45;&gt;Node1</title>
<path fill="none" stroke="#9a32cd" stroke-dasharray="5,2" d="M409.1659,-242.104C477.3262,-266.6512 634.8879,-310.8341 732,-238 756.1493,-219.888 771.719,-123.0455 776.1778,-91.7566"/>
<polygon fill="#9a32cd" stroke="#9a32cd" points="410.3694,-238.8174 399.776,-238.641 407.9472,-245.385 410.3694,-238.8174"/>
<text text-anchor="middle" x="553.5" y="-280" font-family="Helvetica,sans-Serif" font-size="10.00" fill="#000000"> Format</text>
</g>
<!-- Node4 -->
<g id="node6" class="node">
<title>Node4</title>
<g id="a_node6"><a xlink:href="classaworx_1_1lib_1_1strings_1_1PreallocatedStringBase.html" target="_top" xlink:title="PreallocatedStringBase\&lt;TChar\&gt;">
<polygon fill="#ffffff" stroke="#000000" points="475,-196.5 475,-215.5 632,-215.5 632,-196.5 475,-196.5"/>
<text text-anchor="middle" x="553.5" y="-203.5" font-family="Helvetica,sans-Serif" font-size="10.00" fill="#000000">PreallocatedStringBase&lt;TChar&gt;</text>
</a>
</g>
</g>
<!-- Node9&#45;&gt;Node4 -->
<g id="edge7" class="edge">
<title>Node9&#45;&gt;Node4</title>
<path fill="none" stroke="#191970" d="M448.1008,-219.6574C458.6778,-218.2868 469.5819,-216.8739 480.183,-215.5002"/>
<polygon fill="#191970" stroke="#191970" points="447.5482,-216.1996 438.0809,-220.9557 448.4478,-223.1416 447.5482,-216.1996"/>
</g>
<!-- Node10 -->
<g id="node4" class="node">
<title>Node10</title>
<g id="a_node4"><a xlink:href="classaworx_1_1lib_1_1strings_1_1TStringBase.html" target="_top" xlink:title="TStringBase\&lt;character\&gt;">
<polygon fill="#ffffff" stroke="#000000" points="154,-200.5 154,-219.5 277,-219.5 277,-200.5 154,-200.5"/>
<text text-anchor="middle" x="215.5" y="-207.5" font-family="Helvetica,sans-Serif" font-size="10.00" fill="#000000">TStringBase&lt;character&gt;</text>
</a>
</g>
</g>
<!-- Node10&#45;&gt;Node9 -->
<g id="edge8" class="edge">
<title>Node10&#45;&gt;Node9</title>
<path fill="none" stroke="#191970" d="M287.0657,-218.472C295.9728,-219.5264 305.0242,-220.5979 313.7742,-221.6337"/>
<polygon fill="#191970" stroke="#191970" points="287.4366,-214.9915 277.0945,-217.2916 286.6136,-221.943 287.4366,-214.9915"/>
</g>
<!-- Node11 -->
<g id="node5" class="node">
<title>Node11</title>
<g id="a_node5"><a xlink:href="classaworx_1_1lib_1_1strings_1_1StringBase.html" target="_top" xlink:title="StringBase\&lt;character\&gt;">
<polygon fill="#ffffff" stroke="#000000" points="0,-200.5 0,-219.5 117,-219.5 117,-200.5 0,-200.5"/>
<text text-anchor="middle" x="58.5" y="-207.5" font-family="Helvetica,sans-Serif" font-size="10.00" fill="#000000">StringBase&lt;character&gt;</text>
</a>
</g>
</g>
<!-- Node11&#45;&gt;Node10 -->
<g id="edge9" class="edge">
<title>Node11&#45;&gt;Node10</title>
<path fill="none" stroke="#191970" d="M127.5917,-210C136.3517,-210 145.2704,-210 153.9027,-210"/>
<polygon fill="#191970" stroke="#191970" points="127.4077,-206.5001 117.4077,-210 127.4077,-213.5001 127.4077,-206.5001"/>
</g>
<!-- Node4&#45;&gt;Node1 -->
<g id="edge3" class="edge">
<title>Node4&#45;&gt;Node1</title>
<path fill="none" stroke="#9a32cd" stroke-dasharray="5,2" d="M595.0968,-217.8891C634.0925,-226.3903 692.1958,-231.9691 732,-204 751.2359,-190.4836 769.2506,-118.3923 775.3298,-91.8332"/>
<polygon fill="#9a32cd" stroke="#9a32cd" points="595.661,-214.4268 585.1271,-215.5619 594.0697,-221.2435 595.661,-214.4268"/>
<text text-anchor="middle" x="691" y="-227" font-family="Helvetica,sans-Serif" font-size="10.00" fill="#000000"> DateFormat</text>
</g>
<!-- Node4&#45;&gt;Node1 -->
<g id="edge4" class="edge">
<title>Node4&#45;&gt;Node1</title>
<path fill="none" stroke="#9a32cd" stroke-dasharray="5,2" d="M561.2158,-187.0181C574.3842,-157.5111 604.2878,-101.6773 650,-79 681.4384,-63.4038 722.8224,-68.2701 749.7852,-74.2391"/>
<polygon fill="#9a32cd" stroke="#9a32cd" points="557.9775,-185.6893 557.2574,-196.2596 564.4121,-188.4454 557.9775,-185.6893"/>
<text text-anchor="middle" x="691" y="-192" font-family="Helvetica,sans-Serif" font-size="10.00" fill="#000000"> TimeDiffHours</text>
<text text-anchor="middle" x="691" y="-181" font-family="Helvetica,sans-Serif" font-size="10.00" fill="#000000">VerbosityInfo</text>
<text text-anchor="middle" x="691" y="-170" font-family="Helvetica,sans-Serif" font-size="10.00" fill="#000000">VerbosityWarning</text>
<text text-anchor="middle" x="691" y="-159" font-family="Helvetica,sans-Serif" font-size="10.00" fill="#000000">VerbosityVerbose</text>
<text text-anchor="middle" x="691" y="-148" font-family="Helvetica,sans-Serif" font-size="10.00" fill="#000000">TimeDiffMicros</text>
<text text-anchor="middle" x="691" y="-137" font-family="Helvetica,sans-Serif" font-size="10.00" fill="#000000">TimeElapsedDays</text>
<text text-anchor="middle" x="691" y="-126" font-family="Helvetica,sans-Serif" font-size="10.00" fill="#000000">VerbosityError</text>
<text text-anchor="middle" x="691" y="-115" font-family="Helvetica,sans-Serif" font-size="10.00" fill="#000000">TimeOfDayFormat</text>
<text text-anchor="middle" x="691" y="-104" font-family="Helvetica,sans-Serif" font-size="10.00" fill="#000000">TimeDiffMins</text>
<text text-anchor="middle" x="691" y="-93" font-family="Helvetica,sans-Serif" font-size="10.00" fill="#000000">TimeDiffSecs</text>
<text text-anchor="middle" x="691" y="-82" font-family="Helvetica,sans-Serif" font-size="10.00" fill="#000000">...</text>
</g>
<!-- Node2 -->
<g id="node7" class="node">
<title>Node2</title>
<g id="a_node7"><a xlink:href="classaworx_1_1lib_1_1time_1_1CalendarDateTime.html" target="_top" xlink:title="CalendarDateTime">
<polygon fill="#ffffff" stroke="#000000" points="504.5,-38.5 504.5,-57.5 602.5,-57.5 602.5,-38.5 504.5,-38.5"/>
<text text-anchor="middle" x="553.5" y="-45.5" font-family="Helvetica,sans-Serif" font-size="10.00" fill="#000000">CalendarDateTime</text>
</a>
</g>
</g>
<!-- Node2&#45;&gt;Node1 -->
<g id="edge1" class="edge">
<title>Node2&#45;&gt;Node1</title>
<path fill="none" stroke="#9a32cd" stroke-dasharray="5,2" d="M612.71,-39.3848C648.1758,-36.3972 693.6696,-36.4445 732,-49 746.0955,-53.6171 759.4931,-64.3852 768.0524,-72.3723"/>
<polygon fill="#9a32cd" stroke="#9a32cd" points="612.1428,-35.9227 602.5169,-40.3492 612.8021,-42.8916 612.1428,-35.9227"/>
<text text-anchor="middle" x="691" y="-52" font-family="Helvetica,sans-Serif" font-size="10.00" fill="#000000"> callerDateTime</text>
</g>
<!-- Node3 -->
<g id="node8" class="node">
<title>Node3</title>
<g id="a_node8"><a xlink:href="classaworx_1_1lib_1_1time_1_1TicksConverter.html" target="_top" xlink:title="TicksConverter">
<polygon fill="#ffffff" stroke="#000000" points="512,-.5 512,-19.5 595,-19.5 595,-.5 512,-.5"/>
<text text-anchor="middle" x="553.5" y="-7.5" font-family="Helvetica,sans-Serif" font-size="10.00" fill="#000000">TicksConverter</text>
</a>
</g>
</g>
<!-- Node3&#45;&gt;Node1 -->
<g id="edge2" class="edge">
<title>Node3&#45;&gt;Node1</title>
<path fill="none" stroke="#9a32cd" stroke-dasharray="5,2" d="M605.3001,-2.9909C642.6968,-.4005 693.226,-2.1544 732,-23 752.5075,-34.0252 766.6709,-58.7149 773.2729,-72.4027"/>
<polygon fill="#9a32cd" stroke="#9a32cd" points="604.8022,.4801 595.1212,-3.8245 605.3736,-6.4966 604.8022,.4801"/>
<text text-anchor="middle" x="691" y="-26" font-family="Helvetica,sans-Serif" font-size="10.00" fill="#000000"> DateConverter</text>
</g>
</g>
</svg>
