<?xml version="1.0" encoding="UTF-8" standalone="no"?>
<!DOCTYPE svg PUBLIC "-//W3C//DTD SVG 1.1//EN"
 "http://www.w3.org/Graphics/SVG/1.1/DTD/svg11.dtd">
<!-- Generated by graphviz version 2.40.1 (20161225.0304)
 -->
<!-- Title: ProcessInfo Pages: 1 -->
<svg width="157pt" height="290pt"
 viewBox="0.00 0.00 156.50 289.71" xmlns="http://www.w3.org/2000/svg" xmlns:xlink="http://www.w3.org/1999/xlink">
<g id="graph0" class="graph" transform="scale(1 1) rotate(0) translate(4 285.7129)">
<title>ProcessInfo</title>
<polygon fill="#ffffff" stroke="transparent" points="-4,4 -4,-285.7129 152.5,-285.7129 152.5,4 -4,4"/>
<!-- Node1 -->
<g id="node1" class="node">
<title>Node1</title>
<polygon fill="#bfbfbf" stroke="#000000" points="27.5,-4.2129 27.5,-23.2129 96.5,-23.2129 96.5,-4.2129 27.5,-4.2129"/>
<text text-anchor="middle" x="62" y="-11.2129" font-family="Helvetica,sans-Serif" font-size="10.00" fill="#000000">ProcessInfo</text>
</g>
<!-- Node1&#45;&gt;Node1 -->
<g id="edge1" class="edge">
<title>Node1&#45;&gt;Node1</title>
<path fill="none" stroke="#9a32cd" stroke-dasharray="5,2" d="M85.8653,-26.2826C100.5531,-29.2654 114.5,-25.0755 114.5,-13.7129 114.5,.1387 93.7738,3.331 76.2455,-4.1359"/>
<polygon fill="#9a32cd" stroke="#9a32cd" points="86.8338,-22.9185 76.2455,-23.29 84.7544,-29.6025 86.8338,-22.9185"/>
<text text-anchor="middle" x="131.5" y="-11.2129" font-family="Helvetica,sans-Serif" font-size="10.00" fill="#000000"> current</text>
</g>
<!-- Node2 -->
<g id="node2" class="node">
<title>Node2</title>
<g id="a_node2"><a xlink:href="classaworx_1_1lib_1_1strings_1_1AStringBase.html" target="_top" xlink:title="AStringBase\&lt;character\&gt;">
<polygon fill="#ffffff" stroke="#000000" points="0,-148.2129 0,-167.2129 124,-167.2129 124,-148.2129 0,-148.2129"/>
<text text-anchor="middle" x="62" y="-155.2129" font-family="Helvetica,sans-Serif" font-size="10.00" fill="#000000">AStringBase&lt;character&gt;</text>
</a>
</g>
</g>
<!-- Node2&#45;&gt;Node1 -->
<g id="edge2" class="edge">
<title>Node2&#45;&gt;Node1</title>
<path fill="none" stroke="#9a32cd" stroke-dasharray="5,2" d="M62,-137.6258C62,-106.1795 62,-46.5223 62,-23.3006"/>
<polygon fill="#9a32cd" stroke="#9a32cd" points="58.5001,-137.8152 62,-147.8152 65.5001,-137.8152 58.5001,-137.8152"/>
<text text-anchor="middle" x="94.5" y="-121.7129" font-family="Helvetica,sans-Serif" font-size="10.00" fill="#000000"> StatState</text>
<text text-anchor="middle" x="94.5" y="-110.7129" font-family="Helvetica,sans-Serif" font-size="10.00" fill="#000000">Stat</text>
<text text-anchor="middle" x="94.5" y="-99.7129" font-family="Helvetica,sans-Serif" font-size="10.00" fill="#000000">CmdLine</text>
<text text-anchor="middle" x="94.5" y="-88.7129" font-family="Helvetica,sans-Serif" font-size="10.00" fill="#000000">StatPGRP</text>
<text text-anchor="middle" x="94.5" y="-77.7129" font-family="Helvetica,sans-Serif" font-size="10.00" fill="#000000">ExecFilePath</text>
<text text-anchor="middle" x="94.5" y="-66.7129" font-family="Helvetica,sans-Serif" font-size="10.00" fill="#000000">Name</text>
<text text-anchor="middle" x="94.5" y="-55.7129" font-family="Helvetica,sans-Serif" font-size="10.00" fill="#000000">ConsoleTitle</text>
<text text-anchor="middle" x="94.5" y="-44.7129" font-family="Helvetica,sans-Serif" font-size="10.00" fill="#000000">ExecFileName</text>
</g>
<!-- Node3 -->
<g id="node3" class="node">
<title>Node3</title>
<g id="a_node3"><a xlink:href="classaworx_1_1lib_1_1strings_1_1TStringBase.html" target="_top" xlink:title="TStringBase\&lt;character\&gt;">
<polygon fill="#ffffff" stroke="#000000" points=".5,-205.2129 .5,-224.2129 123.5,-224.2129 123.5,-205.2129 .5,-205.2129"/>
<text text-anchor="middle" x="62" y="-212.2129" font-family="Helvetica,sans-Serif" font-size="10.00" fill="#000000">TStringBase&lt;character&gt;</text>
</a>
</g>
</g>
<!-- Node3&#45;&gt;Node2 -->
<g id="edge3" class="edge">
<title>Node3&#45;&gt;Node2</title>
<path fill="none" stroke="#191970" d="M62,-194.9471C62,-185.562 62,-174.778 62,-167.2394"/>
<polygon fill="#191970" stroke="#191970" points="58.5001,-195.0436 62,-205.0436 65.5001,-195.0437 58.5001,-195.0436"/>
</g>
<!-- Node4 -->
<g id="node4" class="node">
<title>Node4</title>
<g id="a_node4"><a xlink:href="classaworx_1_1lib_1_1strings_1_1StringBase.html" target="_top" xlink:title="StringBase\&lt;character\&gt;">
<polygon fill="#ffffff" stroke="#000000" points="3.5,-262.2129 3.5,-281.2129 120.5,-281.2129 120.5,-262.2129 3.5,-262.2129"/>
<text text-anchor="middle" x="62" y="-269.2129" font-family="Helvetica,sans-Serif" font-size="10.00" fill="#000000">StringBase&lt;character&gt;</text>
</a>
</g>
</g>
<!-- Node4&#45;&gt;Node3 -->
<g id="edge4" class="edge">
<title>Node4&#45;&gt;Node3</title>
<path fill="none" stroke="#191970" d="M62,-251.9471C62,-242.562 62,-231.778 62,-224.2394"/>
<polygon fill="#191970" stroke="#191970" points="58.5001,-252.0436 62,-262.0436 65.5001,-252.0437 58.5001,-252.0436"/>
</g>
</g>
</svg>
