<?xml version="1.0" encoding="UTF-8" standalone="no"?>
<!DOCTYPE svg PUBLIC "-//W3C//DTD SVG 1.1//EN"
 "http://www.w3.org/Graphics/SVG/1.1/DTD/svg11.dtd">
<!-- Generated by graphviz version 2.40.1 (20161225.0304)
 -->
<!-- Title: AnsiLogger Pages: 1 -->
<svg width="1001pt" height="898pt"
 viewBox="0.00 0.00 1001.00 898.00" xmlns="http://www.w3.org/2000/svg" xmlns:xlink="http://www.w3.org/1999/xlink">
<g id="graph0" class="graph" transform="scale(1 1) rotate(0) translate(4 894)">
<title>AnsiLogger</title>
<polygon fill="#ffffff" stroke="transparent" points="-4,4 -4,-894 997,-894 997,4 -4,4"/>
<!-- Node6 -->
<g id="node1" class="node">
<title>Node6</title>
<polygon fill="#bfbfbf" stroke="#000000" points="928,-550.5 928,-569.5 993,-569.5 993,-550.5 928,-550.5"/>
<text text-anchor="middle" x="960.5" y="-557.5" font-family="Helvetica,sans-Serif" font-size="10.00" fill="#000000">AnsiLogger</text>
</g>
<!-- Node27 -->
<g id="node2" class="node">
<title>Node27</title>
<polygon fill="#ffffff" stroke="#bfbfbf" points="418.5,-488.5 418.5,-507.5 528.5,-507.5 528.5,-488.5 418.5,-488.5"/>
<text text-anchor="middle" x="473.5" y="-495.5" font-family="Helvetica,sans-Serif" font-size="10.00" fill="#000000">vector&lt;AStringBase&gt;</text>
</g>
<!-- Node7 -->
<g id="node12" class="node">
<title>Node7</title>
<g id="a_node12"><a xlink:href="classaworx_1_1lib_1_1lox_1_1core_1_1textlogger_1_1TextLogger.html" target="_top" xlink:title="TextLogger">
<polygon fill="#ffffff" stroke="#000000" points="662,-355.5 662,-374.5 727,-374.5 727,-355.5 662,-355.5"/>
<text text-anchor="middle" x="694.5" y="-362.5" font-family="Helvetica,sans-Serif" font-size="10.00" fill="#000000">TextLogger</text>
</a>
</g>
</g>
<!-- Node27&#45;&gt;Node7 -->
<g id="edge13" class="edge">
<title>Node27&#45;&gt;Node7</title>
<path fill="none" stroke="#9a32cd" stroke-dasharray="5,2" d="M528.8559,-485.7609C555.3549,-478.3141 586.735,-467.0753 612,-451 645.3408,-429.7863 674.855,-392.355 687.6932,-374.7145"/>
<polygon fill="#9a32cd" stroke="#9a32cd" points="527.7042,-482.4465 518.9618,-488.4315 529.5284,-489.2046 527.7042,-482.4465"/>
<text text-anchor="middle" x="581" y="-482" font-family="Helvetica,sans-Serif" font-size="10.00" fill="#000000"> replacements</text>
</g>
<!-- Node30 -->
<g id="node3" class="node">
<title>Node30</title>
<polygon fill="#ffffff" stroke="#bfbfbf" points="176,-526.5 176,-545.5 261,-545.5 261,-526.5 176,-526.5"/>
<text text-anchor="middle" x="218.5" y="-533.5" font-family="Helvetica,sans-Serif" font-size="10.00" fill="#000000">vector&lt;integer&gt;</text>
</g>
<!-- Node29 -->
<g id="node17" class="node">
<title>Node29</title>
<g id="a_node17"><a xlink:href="classaworx_1_1lib_1_1strings_1_1util_1_1AutoSizes.html" target="_top" xlink:title="AutoSizes">
<polygon fill="#ffffff" stroke="#000000" points="442.5,-526.5 442.5,-545.5 504.5,-545.5 504.5,-526.5 442.5,-526.5"/>
<text text-anchor="middle" x="473.5" y="-533.5" font-family="Helvetica,sans-Serif" font-size="10.00" fill="#000000">AutoSizes</text>
</a>
</g>
</g>
<!-- Node30&#45;&gt;Node29 -->
<g id="edge16" class="edge">
<title>Node30&#45;&gt;Node29</title>
<path fill="none" stroke="#9a32cd" stroke-dasharray="5,2" d="M271.4745,-536C323.102,-536 399.8502,-536 442.3466,-536"/>
<polygon fill="#9a32cd" stroke="#9a32cd" points="271.1813,-532.5001 261.1813,-536 271.1812,-539.5001 271.1813,-532.5001"/>
<text text-anchor="middle" x="356" y="-550" font-family="Helvetica,sans-Serif" font-size="10.00" fill="#000000"> values</text>
<text text-anchor="middle" x="356" y="-539" font-family="Helvetica,sans-Serif" font-size="10.00" fill="#000000">sessionValues</text>
</g>
<!-- Node49 -->
<g id="node4" class="node">
<title>Node49</title>
<g id="a_node4"><a xlink:title="STL class. ">
<polygon fill="#ffffff" stroke="#bfbfbf" points="163,-564.5 163,-583.5 274,-583.5 274,-564.5 163,-564.5"/>
<text text-anchor="middle" x="218.5" y="-571.5" font-family="Helvetica,sans-Serif" font-size="10.00" fill="#000000">basic_ostream&lt;char&gt;</text>
</a>
</g>
</g>
<!-- Node48 -->
<g id="node22" class="node">
<title>Node48</title>
<g id="a_node22"><a xlink:title="STL class. ">
<polygon fill="#ffffff" stroke="#bfbfbf" points="447.5,-564.5 447.5,-583.5 499.5,-583.5 499.5,-564.5 447.5,-564.5"/>
<text text-anchor="middle" x="473.5" y="-571.5" font-family="Helvetica,sans-Serif" font-size="10.00" fill="#000000">ostream</text>
</a>
</g>
</g>
<!-- Node49&#45;&gt;Node48 -->
<g id="edge30" class="edge">
<title>Node49&#45;&gt;Node48</title>
<path fill="none" stroke="#191970" d="M284.151,-574C337.1861,-574 409.0628,-574 447.198,-574"/>
<polygon fill="#191970" stroke="#191970" points="284.1458,-570.5001 274.1457,-574 284.1457,-577.5001 284.1458,-570.5001"/>
</g>
<!-- Node28 -->
<g id="node5" class="node">
<title>Node28</title>
<g id="a_node5"><a xlink:href="classaworx_1_1lib_1_1strings_1_1AStringBase.html" target="_top" xlink:title="AStringBase\&lt;TChar\&gt;">
<polygon fill="#ffffff" stroke="#ff0000" points="163.5,-488.5 163.5,-507.5 273.5,-507.5 273.5,-488.5 163.5,-488.5"/>
<text text-anchor="middle" x="218.5" y="-495.5" font-family="Helvetica,sans-Serif" font-size="10.00" fill="#000000">AStringBase&lt;TChar&gt;</text>
</a>
</g>
</g>
<!-- Node28&#45;&gt;Node27 -->
<g id="edge14" class="edge">
<title>Node28&#45;&gt;Node27</title>
<path fill="none" stroke="#9a32cd" stroke-dasharray="5,2" d="M283.5559,-498C325.169,-498 378.5663,-498 418.1418,-498"/>
<polygon fill="#9a32cd" stroke="#9a32cd" points="283.5173,-494.5001 273.5173,-498 283.5172,-501.5001 283.5173,-494.5001"/>
<text text-anchor="middle" x="356" y="-501" font-family="Helvetica,sans-Serif" font-size="10.00" fill="#000000"> elements</text>
</g>
<!-- Node35 -->
<g id="node6" class="node">
<title>Node35</title>
<g id="a_node6"><a xlink:href="classaworx_1_1lib_1_1strings_1_1AStringBase.html" target="_top" xlink:title="AStringBase\&lt;character\&gt;">
<polygon fill="#ffffff" stroke="#ff0000" points="156.5,-443.5 156.5,-462.5 280.5,-462.5 280.5,-443.5 156.5,-443.5"/>
<text text-anchor="middle" x="218.5" y="-450.5" font-family="Helvetica,sans-Serif" font-size="10.00" fill="#000000">AStringBase&lt;character&gt;</text>
</a>
</g>
</g>
<!-- Node35&#45;&gt;Node7 -->
<g id="edge21" class="edge">
<title>Node35&#45;&gt;Node7</title>
<path fill="none" stroke="#9a32cd" stroke-dasharray="5,2" d="M291.1141,-452.2256C323.6571,-451.034 362.4173,-448.4458 397,-443 497.4793,-427.1774 613.1564,-391.7111 665.7727,-374.5982"/>
<polygon fill="#9a32cd" stroke="#9a32cd" points="290.6595,-448.7386 280.7799,-452.5653 290.8895,-455.7348 290.6595,-448.7386"/>
<text text-anchor="middle" x="473.5" y="-464" font-family="Helvetica,sans-Serif" font-size="10.00" fill="#000000"> logBuf</text>
<text text-anchor="middle" x="473.5" y="-453" font-family="Helvetica,sans-Serif" font-size="10.00" fill="#000000">MultiLineDelimiter</text>
<text text-anchor="middle" x="473.5" y="-442" font-family="Helvetica,sans-Serif" font-size="10.00" fill="#000000">msgBuf</text>
</g>
<!-- Node32 -->
<g id="node16" class="node">
<title>Node32</title>
<g id="a_node16"><a xlink:href="classaworx_1_1lib_1_1lox_1_1core_1_1textlogger_1_1MetaInfo.html" target="_top" xlink:title="MetaInfo">
<polygon fill="#ffffff" stroke="#000000" points="446,-355.5 446,-374.5 501,-374.5 501,-355.5 446,-355.5"/>
<text text-anchor="middle" x="473.5" y="-362.5" font-family="Helvetica,sans-Serif" font-size="10.00" fill="#000000">MetaInfo</text>
</a>
</g>
</g>
<!-- Node35&#45;&gt;Node32 -->
<g id="edge22" class="edge">
<title>Node35&#45;&gt;Node32</title>
<path fill="none" stroke="#9a32cd" stroke-dasharray="5,2" d="M270.8721,-441.0874C306.8989,-432.2273 355.5399,-418.9413 397,-403 418.1777,-394.8572 441.3667,-382.8743 456.5983,-374.5499"/>
<polygon fill="#9a32cd" stroke="#9a32cd" points="269.9546,-437.7084 261.0617,-443.4675 271.605,-444.511 269.9546,-437.7084"/>
<text text-anchor="middle" x="356" y="-431" font-family="Helvetica,sans-Serif" font-size="10.00" fill="#000000"> Format</text>
</g>
<!-- Node16 -->
<g id="node7" class="node">
<title>Node16</title>
<g id="a_node7"><a xlink:href="classaworx_1_1lib_1_1strings_1_1StringBase.html" target="_top" xlink:title="StringBase\&lt;TChar\&gt;">
<polygon fill="#ffffff" stroke="#ff0000" points="0,-624.5 0,-643.5 103,-643.5 103,-624.5 0,-624.5"/>
<text text-anchor="middle" x="51.5" y="-631.5" font-family="Helvetica,sans-Serif" font-size="10.00" fill="#000000">StringBase&lt;TChar&gt;</text>
</a>
</g>
</g>
<!-- Node19 -->
<g id="node9" class="node">
<title>Node19</title>
<g id="a_node9"><a xlink:href="classaworx_1_1lib_1_1strings_1_1TStringBase.html" target="_top" xlink:title="TStringBase\&lt;nchar\&gt;">
<polygon fill="#ffffff" stroke="#ff0000" points="165,-624.5 165,-643.5 272,-643.5 272,-624.5 165,-624.5"/>
<text text-anchor="middle" x="218.5" y="-631.5" font-family="Helvetica,sans-Serif" font-size="10.00" fill="#000000">TStringBase&lt;nchar&gt;</text>
</a>
</g>
</g>
<!-- Node16&#45;&gt;Node19 -->
<g id="edge4" class="edge">
<title>Node16&#45;&gt;Node19</title>
<path fill="none" stroke="#191970" d="M113.7089,-634C130.5254,-634 148.5765,-634 164.8776,-634"/>
<polygon fill="#191970" stroke="#191970" points="113.4245,-630.5001 103.4244,-634 113.4244,-637.5001 113.4245,-630.5001"/>
</g>
<!-- Node47 -->
<g id="node8" class="node">
<title>Node47</title>
<g id="a_node8"><a xlink:href="classaworx_1_1lib_1_1strings_1_1AStringBase.html" target="_top" xlink:title="AStringBase\&lt;nchar\&gt;">
<polygon fill="#ffffff" stroke="#000000" points="420,-602.5 420,-621.5 527,-621.5 527,-602.5 420,-602.5"/>
<text text-anchor="middle" x="473.5" y="-609.5" font-family="Helvetica,sans-Serif" font-size="10.00" fill="#000000">AStringBase&lt;nchar&gt;</text>
</a>
</g>
</g>
<!-- Node46 -->
<g id="node21" class="node">
<title>Node46</title>
<g id="a_node21"><a xlink:href="classaworx_1_1lib_1_1strings_1_1util_1_1StringWriter.html" target="_top" xlink:title="StringWriter">
<polygon fill="#ffffff" stroke="#000000" points="660.5,-564.5 660.5,-583.5 728.5,-583.5 728.5,-564.5 660.5,-564.5"/>
<text text-anchor="middle" x="694.5" y="-571.5" font-family="Helvetica,sans-Serif" font-size="10.00" fill="#000000">StringWriter</text>
</a>
</g>
</g>
<!-- Node47&#45;&gt;Node46 -->
<g id="edge28" class="edge">
<title>Node47&#45;&gt;Node46</title>
<path fill="none" stroke="#9a32cd" stroke-dasharray="5,2" d="M537.2639,-601.0361C577.457,-594.125 627.7633,-585.4751 660.4922,-579.8475"/>
<polygon fill="#9a32cd" stroke="#9a32cd" points="536.5423,-597.6087 527.2801,-602.7527 537.7286,-604.5075 536.5423,-597.6087"/>
<text text-anchor="middle" x="581" y="-601" font-family="Helvetica,sans-Serif" font-size="10.00" fill="#000000"> converter</text>
</g>
<!-- Node19&#45;&gt;Node47 -->
<g id="edge6" class="edge">
<title>Node19&#45;&gt;Node47</title>
<path fill="none" stroke="#191970" d="M282.4714,-628.4809C324.8213,-624.8272 379.732,-620.0898 419.8062,-616.6324"/>
<polygon fill="#191970" stroke="#191970" points="281.9295,-625.0146 272.2674,-629.3612 282.5312,-631.9887 281.9295,-625.0146"/>
</g>
<!-- Node40 -->
<g id="node11" class="node">
<title>Node40</title>
<g id="a_node11"><a xlink:href="classaworx_1_1lib_1_1strings_1_1StringLiteralBase.html" target="_top" xlink:title="StringLiteralBase\&lt;TChar\&gt;">
<polygon fill="#ffffff" stroke="#000000" points="630,-640.5 630,-659.5 759,-659.5 759,-640.5 630,-640.5"/>
<text text-anchor="middle" x="694.5" y="-647.5" font-family="Helvetica,sans-Serif" font-size="10.00" fill="#000000">StringLiteralBase&lt;TChar&gt;</text>
</a>
</g>
</g>
<!-- Node19&#45;&gt;Node40 -->
<g id="edge5" class="edge">
<title>Node19&#45;&gt;Node40</title>
<path fill="none" stroke="#191970" d="M282.3261,-636.1454C373.0475,-639.1949 538.3832,-644.7524 629.6579,-647.8204"/>
<polygon fill="#191970" stroke="#191970" points="282.2899,-632.6423 272.178,-635.8043 282.0547,-639.6384 282.2899,-632.6423"/>
</g>
<!-- Node25 -->
<g id="node10" class="node">
<title>Node25</title>
<g id="a_node10"><a xlink:href="classaworx_1_1lib_1_1strings_1_1PreallocatedStringBase.html" target="_top" xlink:title="PreallocatedStringBase\&lt;TChar\&gt;">
<polygon fill="#ffffff" stroke="#ff0000" points="140,-144.5 140,-163.5 297,-163.5 297,-144.5 140,-144.5"/>
<text text-anchor="middle" x="218.5" y="-151.5" font-family="Helvetica,sans-Serif" font-size="10.00" fill="#000000">PreallocatedStringBase&lt;TChar&gt;</text>
</a>
</g>
</g>
<!-- Node25&#45;&gt;Node7 -->
<g id="edge8" class="edge">
<title>Node25&#45;&gt;Node7</title>
<path fill="none" stroke="#9a32cd" stroke-dasharray="5,2" d="M307.3083,-152.1775C336.52,-153.8732 368.7365,-158.2691 397,-168 413.1806,-173.5709 623.1376,-316.3384 680.2453,-355.2723"/>
<polygon fill="#9a32cd" stroke="#9a32cd" points="307.2694,-148.6716 297.1124,-151.686 306.9323,-155.6635 307.2694,-148.6716"/>
<text text-anchor="middle" x="473.5" y="-256" font-family="Helvetica,sans-Serif" font-size="10.00" fill="#000000"> FmtMultiLineMsgHeadline</text>
</g>
<!-- Node25&#45;&gt;Node7 -->
<g id="edge9" class="edge">
<title>Node25&#45;&gt;Node7</title>
<path fill="none" stroke="#9a32cd" stroke-dasharray="5,2" d="M277.3403,-142.6386C355.6354,-128.7422 489.178,-109.6574 532,-132 628.1926,-182.189 679.0645,-318.1921 691.47,-355.4504"/>
<polygon fill="#9a32cd" stroke="#9a32cd" points="276.3633,-139.2581 267.1417,-144.4747 277.6037,-146.1474 276.3633,-139.2581"/>
<text text-anchor="middle" x="473.5" y="-168" font-family="Helvetica,sans-Serif" font-size="10.00" fill="#000000"> FmtMsgSuffix</text>
<text text-anchor="middle" x="473.5" y="-157" font-family="Helvetica,sans-Serif" font-size="10.00" fill="#000000">MultiLineDelimiterRepl</text>
<text text-anchor="middle" x="473.5" y="-146" font-family="Helvetica,sans-Serif" font-size="10.00" fill="#000000">FmtMultiLineSuffix</text>
<text text-anchor="middle" x="473.5" y="-135" font-family="Helvetica,sans-Serif" font-size="10.00" fill="#000000">FmtMultiLinePrefix</text>
</g>
<!-- Node8 -->
<g id="node13" class="node">
<title>Node8</title>
<g id="a_node13"><a xlink:href="classaworx_1_1lib_1_1lox_1_1core_1_1Logger.html" target="_top" xlink:title="Logger">
<polygon fill="#ffffff" stroke="#000000" points="450.5,-35.5 450.5,-54.5 496.5,-54.5 496.5,-35.5 450.5,-35.5"/>
<text text-anchor="middle" x="473.5" y="-42.5" font-family="Helvetica,sans-Serif" font-size="10.00" fill="#000000">Logger</text>
</a>
</g>
</g>
<!-- Node25&#45;&gt;Node8 -->
<g id="edge10" class="edge">
<title>Node25&#45;&gt;Node8</title>
<path fill="none" stroke="#9a32cd" stroke-dasharray="5,2" d="M239.4749,-138.3934C258.4148,-124.8861 287.4578,-105.5942 315,-93 361.1504,-71.8968 419.006,-57.0764 450.489,-49.9066"/>
<polygon fill="#9a32cd" stroke="#9a32cd" points="237.3291,-135.6259 231.2826,-144.326 241.4348,-141.2954 237.3291,-135.6259"/>
<text text-anchor="middle" x="356" y="-107" font-family="Helvetica,sans-Serif" font-size="10.00" fill="#000000"> TypeName</text>
<text text-anchor="middle" x="356" y="-96" font-family="Helvetica,sans-Serif" font-size="10.00" fill="#000000">Name</text>
</g>
<!-- Node25&#45;&gt;Node32 -->
<g id="edge11" class="edge">
<title>Node25&#45;&gt;Node32</title>
<path fill="none" stroke="#9a32cd" stroke-dasharray="5,2" d="M294.6001,-165.1022C339.3098,-172.215 388.6747,-181.329 397,-188 404.1515,-193.7305 455.052,-319.1898 469.616,-355.3357"/>
<polygon fill="#9a32cd" stroke="#9a32cd" points="294.9775,-161.6187 284.5556,-163.5247 293.8914,-168.5339 294.9775,-161.6187"/>
<text text-anchor="middle" x="356" y="-191" font-family="Helvetica,sans-Serif" font-size="10.00" fill="#000000"> DateFormat</text>
</g>
<!-- Node25&#45;&gt;Node32 -->
<g id="edge12" class="edge">
<title>Node25&#45;&gt;Node32</title>
<path fill="none" stroke="#9a32cd" stroke-dasharray="5,2" d="M248.2363,-167.8953C298.2273,-191.2918 393.9931,-236.2831 397,-239 435.3559,-273.657 460.8118,-332.071 469.8444,-355.1723"/>
<polygon fill="#9a32cd" stroke="#9a32cd" points="249.4304,-164.59 238.8895,-163.5229 246.4643,-170.9305 249.4304,-164.59"/>
<text text-anchor="middle" x="356" y="-352" font-family="Helvetica,sans-Serif" font-size="10.00" fill="#000000"> TimeDiffHours</text>
<text text-anchor="middle" x="356" y="-341" font-family="Helvetica,sans-Serif" font-size="10.00" fill="#000000">VerbosityInfo</text>
<text text-anchor="middle" x="356" y="-330" font-family="Helvetica,sans-Serif" font-size="10.00" fill="#000000">VerbosityWarning</text>
<text text-anchor="middle" x="356" y="-319" font-family="Helvetica,sans-Serif" font-size="10.00" fill="#000000">VerbosityVerbose</text>
<text text-anchor="middle" x="356" y="-308" font-family="Helvetica,sans-Serif" font-size="10.00" fill="#000000">TimeDiffMicros</text>
<text text-anchor="middle" x="356" y="-297" font-family="Helvetica,sans-Serif" font-size="10.00" fill="#000000">TimeElapsedDays</text>
<text text-anchor="middle" x="356" y="-286" font-family="Helvetica,sans-Serif" font-size="10.00" fill="#000000">VerbosityError</text>
<text text-anchor="middle" x="356" y="-275" font-family="Helvetica,sans-Serif" font-size="10.00" fill="#000000">TimeOfDayFormat</text>
<text text-anchor="middle" x="356" y="-264" font-family="Helvetica,sans-Serif" font-size="10.00" fill="#000000">TimeDiffMins</text>
<text text-anchor="middle" x="356" y="-253" font-family="Helvetica,sans-Serif" font-size="10.00" fill="#000000">TimeDiffSecs</text>
<text text-anchor="middle" x="356" y="-242" font-family="Helvetica,sans-Serif" font-size="10.00" fill="#000000">...</text>
</g>
<!-- Node40&#45;&gt;Node6 -->
<g id="edge23" class="edge">
<title>Node40&#45;&gt;Node6</title>
<path fill="none" stroke="#9a32cd" stroke-dasharray="5,2" d="M749.2919,-638.4539C758.5309,-636.5804 768.0311,-634.6991 777,-633 835.9401,-621.834 856.6755,-637.4794 910,-610 928.6441,-600.3923 944.796,-581.4958 953.5439,-569.8841"/>
<polygon fill="#9a32cd" stroke="#9a32cd" points="748.5028,-635.0428 739.4065,-640.4749 749.9049,-641.9009 748.5028,-635.0428"/>
<text text-anchor="middle" x="843.5" y="-669" font-family="Helvetica,sans-Serif" font-size="10.00" fill="#000000"> ANSI_ITALICS</text>
<text text-anchor="middle" x="843.5" y="-658" font-family="Helvetica,sans-Serif" font-size="10.00" fill="#000000">ANSI_STD_STYLE</text>
<text text-anchor="middle" x="843.5" y="-647" font-family="Helvetica,sans-Serif" font-size="10.00" fill="#000000">ANSI_RESET</text>
<text text-anchor="middle" x="843.5" y="-636" font-family="Helvetica,sans-Serif" font-size="10.00" fill="#000000">ANSI_BOLD</text>
</g>
<!-- Node40&#45;&gt;Node6 -->
<g id="edge24" class="edge">
<title>Node40&#45;&gt;Node6</title>
<path fill="none" stroke="#9a32cd" stroke-dasharray="5,2" d="M718.8787,-634.7126C732.8824,-624.6123 749.5212,-610.1021 759,-593 782.5899,-550.4381 739.8698,-516.454 777,-485 799.5515,-465.896 883.9096,-471.114 910,-485 936.3283,-499.0127 951.3931,-533.5385 957.4109,-550.4094"/>
<polygon fill="#9a32cd" stroke="#9a32cd" points="716.8434,-631.8645 710.5876,-640.4152 720.8103,-637.6319 716.8434,-631.8645"/>
<text text-anchor="middle" x="843.5" y="-598" font-family="Helvetica,sans-Serif" font-size="10.00" fill="#000000"> ANSI_BG_LIGHT_GREEN</text>
<text text-anchor="middle" x="843.5" y="-587" font-family="Helvetica,sans-Serif" font-size="10.00" fill="#000000">ANSI_LIGHT_YELLOW</text>
<text text-anchor="middle" x="843.5" y="-576" font-family="Helvetica,sans-Serif" font-size="10.00" fill="#000000">ANSI_BG_LIGHT_MAGENTA</text>
<text text-anchor="middle" x="843.5" y="-565" font-family="Helvetica,sans-Serif" font-size="10.00" fill="#000000">ANSI_BG_LIGHT_BLUE</text>
<text text-anchor="middle" x="843.5" y="-554" font-family="Helvetica,sans-Serif" font-size="10.00" fill="#000000">ANSI_BG_LIGHT_RED</text>
<text text-anchor="middle" x="843.5" y="-543" font-family="Helvetica,sans-Serif" font-size="10.00" fill="#000000">ANSI_WHITE</text>
<text text-anchor="middle" x="843.5" y="-532" font-family="Helvetica,sans-Serif" font-size="10.00" fill="#000000">ANSI_LIGHT_BLUE</text>
<text text-anchor="middle" x="843.5" y="-521" font-family="Helvetica,sans-Serif" font-size="10.00" fill="#000000">ANSI_BG_WHITE</text>
<text text-anchor="middle" x="843.5" y="-510" font-family="Helvetica,sans-Serif" font-size="10.00" fill="#000000">ANSI_LIGHT_CYAN</text>
<text text-anchor="middle" x="843.5" y="-499" font-family="Helvetica,sans-Serif" font-size="10.00" fill="#000000">ANSI_LIGHT_GREEN</text>
<text text-anchor="middle" x="843.5" y="-488" font-family="Helvetica,sans-Serif" font-size="10.00" fill="#000000">...</text>
</g>
<!-- Node40&#45;&gt;Node6 -->
<g id="edge25" class="edge">
<title>Node40&#45;&gt;Node6</title>
<path fill="none" stroke="#9a32cd" stroke-dasharray="5,2" d="M697.238,-669.8072C703.5848,-707.1329 723.1134,-787.1677 777,-821 827.0621,-852.4311 864.4046,-858.6189 910,-821 949.8721,-788.1032 958.6321,-612.9477 960.1991,-569.6728"/>
<polygon fill="#9a32cd" stroke="#9a32cd" points="700.6606,-669.0378 695.6681,-659.693 693.7434,-670.1115 700.6606,-669.0378"/>
<text text-anchor="middle" x="843.5" y="-882" font-family="Helvetica,sans-Serif" font-size="10.00" fill="#000000"> ANSI_BG_LIGHT_GRAY</text>
<text text-anchor="middle" x="843.5" y="-871" font-family="Helvetica,sans-Serif" font-size="10.00" fill="#000000">ANSI_GRAY</text>
<text text-anchor="middle" x="843.5" y="-860" font-family="Helvetica,sans-Serif" font-size="10.00" fill="#000000">ANSI_LIGHT_GRAY</text>
<text text-anchor="middle" x="843.5" y="-849" font-family="Helvetica,sans-Serif" font-size="10.00" fill="#000000">ANSI_BG_GRAY</text>
</g>
<!-- Node40&#45;&gt;Node6 -->
<g id="edge26" class="edge">
<title>Node40&#45;&gt;Node6</title>
<path fill="none" stroke="#9a32cd" stroke-dasharray="5,2" d="M721.5788,-663.9197C765.1222,-684.1554 851.7133,-715.3264 910,-677 947.5257,-652.325 957.2924,-593.2135 959.7279,-569.7952"/>
<polygon fill="#9a32cd" stroke="#9a32cd" points="722.999,-660.7192 712.4688,-659.5509 719.9721,-667.0309 722.999,-660.7192"/>
<text text-anchor="middle" x="843.5" y="-808" font-family="Helvetica,sans-Serif" font-size="10.00" fill="#000000"> ANSI_STD_COL</text>
<text text-anchor="middle" x="843.5" y="-797" font-family="Helvetica,sans-Serif" font-size="10.00" fill="#000000">ANSI_CYAN</text>
<text text-anchor="middle" x="843.5" y="-786" font-family="Helvetica,sans-Serif" font-size="10.00" fill="#000000">ANSI_BG_CYAN</text>
<text text-anchor="middle" x="843.5" y="-775" font-family="Helvetica,sans-Serif" font-size="10.00" fill="#000000">ANSI_BG_RED</text>
<text text-anchor="middle" x="843.5" y="-764" font-family="Helvetica,sans-Serif" font-size="10.00" fill="#000000">ANSI_BG_STD_COL</text>
<text text-anchor="middle" x="843.5" y="-753" font-family="Helvetica,sans-Serif" font-size="10.00" fill="#000000">ANSI_BG_LIGHT_STD_COL</text>
<text text-anchor="middle" x="843.5" y="-742" font-family="Helvetica,sans-Serif" font-size="10.00" fill="#000000">ANSI_BG_MAGENTA</text>
<text text-anchor="middle" x="843.5" y="-731" font-family="Helvetica,sans-Serif" font-size="10.00" fill="#000000">ANSI_BG_GREEN</text>
<text text-anchor="middle" x="843.5" y="-720" font-family="Helvetica,sans-Serif" font-size="10.00" fill="#000000">ANSI_BLACK</text>
<text text-anchor="middle" x="843.5" y="-709" font-family="Helvetica,sans-Serif" font-size="10.00" fill="#000000">ANSI_BG_BLACK</text>
<text text-anchor="middle" x="843.5" y="-698" font-family="Helvetica,sans-Serif" font-size="10.00" fill="#000000">...</text>
</g>
<!-- Node7&#45;&gt;Node6 -->
<g id="edge1" class="edge">
<title>Node7&#45;&gt;Node6</title>
<path fill="none" stroke="#191970" d="M737.3802,-366.5652C785.2377,-370.5451 862.213,-383.9341 910,-428 946.9779,-462.0985 957.1165,-526.2312 959.6886,-550.4308"/>
<polygon fill="#191970" stroke="#191970" points="737.567,-363.0696 727.3389,-365.8327 737.0577,-370.051 737.567,-363.0696"/>
</g>
<!-- Node8&#45;&gt;Node7 -->
<g id="edge2" class="edge">
<title>Node8&#45;&gt;Node7</title>
<path fill="none" stroke="#191970" d="M507.0017,-43.4102C538.1537,-43.8053 583.8674,-49.4502 612,-76 654.7857,-116.3785 686.2079,-309.8604 693.0879,-355.3903"/>
<polygon fill="#191970" stroke="#191970" points="506.6246,-39.912 496.6428,-43.4637 506.6608,-46.9119 506.6246,-39.912"/>
</g>
<!-- Node9 -->
<g id="node14" class="node">
<title>Node9</title>
<g id="a_node14"><a xlink:href="classaworx_1_1lib_1_1threads_1_1SmartLock.html" target="_top" xlink:title="SmartLock">
<polygon fill="#ffffff" stroke="#ff0000" points="186.5,-38.5 186.5,-57.5 250.5,-57.5 250.5,-38.5 186.5,-38.5"/>
<text text-anchor="middle" x="218.5" y="-45.5" font-family="Helvetica,sans-Serif" font-size="10.00" fill="#000000">SmartLock</text>
</a>
</g>
</g>
<!-- Node9&#45;&gt;Node8 -->
<g id="edge3" class="edge">
<title>Node9&#45;&gt;Node8</title>
<path fill="none" stroke="#191970" d="M260.5387,-47.5054C314.8582,-46.8664 407.5309,-45.7761 450.441,-45.2713"/>
<polygon fill="#191970" stroke="#191970" points="260.4958,-44.0056 250.5377,-47.6231 260.5782,-51.0051 260.4958,-44.0056"/>
</g>
<!-- Node23 -->
<g id="node15" class="node">
<title>Node23</title>
<g id="a_node15"><a xlink:href="classaworx_1_1lib_1_1time_1_1Ticks.html" target="_top" xlink:title="Ticks">
<polygon fill="#ffffff" stroke="#ff0000" points="198,-.5 198,-19.5 239,-19.5 239,-.5 198,-.5"/>
<text text-anchor="middle" x="218.5" y="-7.5" font-family="Helvetica,sans-Serif" font-size="10.00" fill="#000000">Ticks</text>
</a>
</g>
</g>
<!-- Node23&#45;&gt;Node8 -->
<g id="edge7" class="edge">
<title>Node23&#45;&gt;Node8</title>
<path fill="none" stroke="#9a32cd" stroke-dasharray="5,2" d="M249.3297,-9.3143C285.1441,-9.0723 345.8592,-10.3813 397,-20 415.4005,-23.4608 435.4979,-30.1482 450.4744,-35.7362"/>
<polygon fill="#9a32cd" stroke="#9a32cd" points="249.0118,-5.8176 239.0525,-9.4317 249.0919,-12.8172 249.0118,-5.8176"/>
<text text-anchor="middle" x="356" y="-34" font-family="Helvetica,sans-Serif" font-size="10.00" fill="#000000"> TimeOfLastLog</text>
<text text-anchor="middle" x="356" y="-23" font-family="Helvetica,sans-Serif" font-size="10.00" fill="#000000">TimeOfCreation</text>
</g>
<!-- Node32&#45;&gt;Node7 -->
<g id="edge18" class="edge">
<title>Node32&#45;&gt;Node7</title>
<path fill="none" stroke="#9a32cd" stroke-dasharray="5,2" d="M511.2359,-365C553.6377,-365 621.774,-365 661.9343,-365"/>
<polygon fill="#9a32cd" stroke="#9a32cd" points="511.043,-361.5001 501.043,-365 511.0429,-368.5001 511.043,-361.5001"/>
<text text-anchor="middle" x="581" y="-368" font-family="Helvetica,sans-Serif" font-size="10.00" fill="#000000"> MetaInfo</text>
</g>
<!-- Node29&#45;&gt;Node7 -->
<g id="edge15" class="edge">
<title>Node29&#45;&gt;Node7</title>
<path fill="none" stroke="#9a32cd" stroke-dasharray="5,2" d="M514.6475,-531.222C544.1739,-526.0738 583.5991,-515.5066 612,-494 655.2345,-461.2607 681.9523,-398.7834 691.0226,-374.7528"/>
<polygon fill="#9a32cd" stroke="#9a32cd" points="513.97,-527.7859 504.6508,-532.8261 515.0791,-534.6975 513.97,-527.7859"/>
<text text-anchor="middle" x="581" y="-525" font-family="Helvetica,sans-Serif" font-size="10.00" fill="#000000"> AutoSizes</text>
</g>
<!-- Node31 -->
<g id="node18" class="node">
<title>Node31</title>
<g id="a_node18"><a xlink:href="classaworx_1_1lib_1_1lox_1_1core_1_1textlogger_1_1ObjectConverter.html" target="_top" xlink:title="ObjectConverter">
<polygon fill="#ffffff" stroke="#000000" points="429.5,-73.5 429.5,-92.5 517.5,-92.5 517.5,-73.5 429.5,-73.5"/>
<text text-anchor="middle" x="473.5" y="-80.5" font-family="Helvetica,sans-Serif" font-size="10.00" fill="#000000">ObjectConverter</text>
</a>
</g>
</g>
<!-- Node31&#45;&gt;Node7 -->
<g id="edge17" class="edge">
<title>Node31&#45;&gt;Node7</title>
<path fill="none" stroke="#9a32cd" stroke-dasharray="5,2" d="M527.8542,-78.3604C555.9802,-78.8773 589.1199,-84.4308 612,-104 652.4483,-138.5953 685.2761,-312.4769 692.8511,-355.4068"/>
<polygon fill="#9a32cd" stroke="#9a32cd" points="527.7398,-74.8605 517.7471,-78.3811 527.7543,-81.8605 527.7398,-74.8605"/>
<text text-anchor="middle" x="581" y="-107" font-family="Helvetica,sans-Serif" font-size="10.00" fill="#000000"> Converter</text>
</g>
<!-- Node33 -->
<g id="node19" class="node">
<title>Node33</title>
<g id="a_node19"><a xlink:href="classaworx_1_1lib_1_1time_1_1CalendarDateTime.html" target="_top" xlink:title="CalendarDateTime">
<polygon fill="#ffffff" stroke="#000000" points="169.5,-353.5 169.5,-372.5 267.5,-372.5 267.5,-353.5 169.5,-353.5"/>
<text text-anchor="middle" x="218.5" y="-360.5" font-family="Helvetica,sans-Serif" font-size="10.00" fill="#000000">CalendarDateTime</text>
</a>
</g>
</g>
<!-- Node33&#45;&gt;Node32 -->
<g id="edge19" class="edge">
<title>Node33&#45;&gt;Node32</title>
<path fill="none" stroke="#9a32cd" stroke-dasharray="5,2" d="M277.9267,-363.4661C330.7839,-363.8807 405.7258,-364.4684 445.7555,-364.7824"/>
<polygon fill="#9a32cd" stroke="#9a32cd" points="277.6937,-359.9643 267.6666,-363.3856 277.6388,-366.964 277.6937,-359.9643"/>
<text text-anchor="middle" x="356" y="-368" font-family="Helvetica,sans-Serif" font-size="10.00" fill="#000000"> callerDateTime</text>
</g>
<!-- Node34 -->
<g id="node20" class="node">
<title>Node34</title>
<g id="a_node20"><a xlink:href="classaworx_1_1lib_1_1time_1_1TicksConverter.html" target="_top" xlink:title="TicksConverter">
<polygon fill="#ffffff" stroke="#000000" points="177,-391.5 177,-410.5 260,-410.5 260,-391.5 177,-391.5"/>
<text text-anchor="middle" x="218.5" y="-398.5" font-family="Helvetica,sans-Serif" font-size="10.00" fill="#000000">TicksConverter</text>
</a>
</g>
</g>
<!-- Node34&#45;&gt;Node32 -->
<g id="edge20" class="edge">
<title>Node34&#45;&gt;Node32</title>
<path fill="none" stroke="#9a32cd" stroke-dasharray="5,2" d="M270.1821,-394.3559C305.8442,-389.6966 354.3345,-383.2138 397,-377 413.23,-374.6363 431.3649,-371.8001 445.903,-369.4787"/>
<polygon fill="#9a32cd" stroke="#9a32cd" points="269.4783,-390.918 260.0142,-395.6804 270.3825,-397.8593 269.4783,-390.918"/>
<text text-anchor="middle" x="356" y="-391" font-family="Helvetica,sans-Serif" font-size="10.00" fill="#000000"> DateConverter</text>
</g>
<!-- Node46&#45;&gt;Node6 -->
<g id="edge27" class="edge">
<title>Node46&#45;&gt;Node6</title>
<path fill="none" stroke="#9a32cd" stroke-dasharray="5,2" d="M701.234,-554.7267C712.1686,-526.7918 736.7131,-476.0916 777,-455 829.3684,-427.5833 859.9571,-423.5384 910,-455 944.2495,-476.5325 955.8069,-528.5074 959.2244,-550.216"/>
<polygon fill="#9a32cd" stroke="#9a32cd" points="697.9128,-553.6163 697.7052,-564.2092 704.4732,-556.0578 697.9128,-553.6163"/>
<text text-anchor="middle" x="843.5" y="-458" font-family="Helvetica,sans-Serif" font-size="10.00" fill="#000000"> writer</text>
</g>
<!-- Node48&#45;&gt;Node46 -->
<g id="edge29" class="edge">
<title>Node48&#45;&gt;Node46</title>
<path fill="none" stroke="#9a32cd" stroke-dasharray="5,2" d="M509.7309,-574C551.468,-574 619.5249,-574 660.3587,-574"/>
<polygon fill="#9a32cd" stroke="#9a32cd" points="509.7195,-570.5001 499.7195,-574 509.7194,-577.5001 509.7195,-570.5001"/>
<text text-anchor="middle" x="581" y="-577" font-family="Helvetica,sans-Serif" font-size="10.00" fill="#000000"> ostream</text>
</g>
</g>
</svg>
