<?xml version="1.0" encoding="UTF-8" standalone="no"?>
<!DOCTYPE svg PUBLIC "-//W3C//DTD SVG 1.1//EN"
 "http://www.w3.org/Graphics/SVG/1.1/DTD/svg11.dtd">
<!-- Generated by graphviz version 2.40.1 (20161225.0304)
 -->
<!-- Title: ParserImpl Pages: 1 -->
<svg width="1476pt" height="840pt"
 viewBox="0.00 0.00 1476.00 840.00" xmlns="http://www.w3.org/2000/svg" xmlns:xlink="http://www.w3.org/1999/xlink">
<g id="graph0" class="graph" transform="scale(1 1) rotate(0) translate(4 836)">
<title>ParserImpl</title>
<polygon fill="#ffffff" stroke="transparent" points="-4,4 -4,-836 1472,-836 1472,4 -4,4"/>
<!-- Node2 -->
<g id="node1" class="node">
<title>Node2</title>
<polygon fill="#bfbfbf" stroke="#000000" points="1404,-208.5 1404,-227.5 1468,-227.5 1468,-208.5 1404,-208.5"/>
<text text-anchor="middle" x="1436" y="-215.5" font-family="Helvetica,sans-Serif" font-size="10.00" fill="#000000">ParserImpl</text>
</g>
<!-- Node6 -->
<g id="node2" class="node">
<title>Node6</title>
<polygon fill="#ffffff" stroke="#bfbfbf" points="712,-.5 712,-19.5 864,-19.5 864,-.5 712,-.5"/>
<text text-anchor="middle" x="788" y="-7.5" font-family="Helvetica,sans-Serif" font-size="10.00" fill="#000000">vector&lt;MemoryBlocks::Block&gt;</text>
</g>
<!-- Node5 -->
<g id="node21" class="node">
<title>Node5</title>
<g id="a_node21"><a xlink:href="classaworx_1_1lib_1_1util_1_1MemoryBlocks.html" target="_top" xlink:title="MemoryBlocks">
<polygon fill="#ffffff" stroke="#000000" points="1158,-18.5 1158,-37.5 1240,-37.5 1240,-18.5 1158,-18.5"/>
<text text-anchor="middle" x="1199" y="-25.5" font-family="Helvetica,sans-Serif" font-size="10.00" fill="#000000">MemoryBlocks</text>
</a>
</g>
</g>
<!-- Node6&#45;&gt;Node5 -->
<g id="edge9" class="edge">
<title>Node6&#45;&gt;Node5</title>
<path fill="none" stroke="#9a32cd" stroke-dasharray="5,2" d="M874.1967,-6.5946C936.0408,-5.0495 1021.2947,-4.7543 1096,-11 1116.4088,-12.7063 1138.8689,-16.2185 1157.593,-19.6099"/>
<polygon fill="#9a32cd" stroke="#9a32cd" points="873.995,-3.0986 864.0916,-6.8633 874.1812,-10.0961 873.995,-3.0986"/>
<text text-anchor="middle" x="1026.5" y="-25" font-family="Helvetica,sans-Serif" font-size="10.00" fill="#000000"> blocks</text>
<text text-anchor="middle" x="1026.5" y="-14" font-family="Helvetica,sans-Serif" font-size="10.00" fill="#000000">actBlock</text>
</g>
<!-- Node11 -->
<g id="node3" class="node">
<title>Node11</title>
<g id="a_node3"><a xlink:href="classaworx_1_1lib_1_1util_1_1PluginContainer.html" target="_top" xlink:title="PluginContainer\&lt;CompilerPlugin, CompilePriorities\&gt;">
<polygon fill="#ffffff" stroke="#000000" points="666,-331.5 666,-350.5 910,-350.5 910,-331.5 666,-331.5"/>
<text text-anchor="middle" x="788" y="-338.5" font-family="Helvetica,sans-Serif" font-size="10.00" fill="#000000">PluginContainer&lt;CompilerPlugin, CompilePriorities&gt;</text>
</a>
</g>
</g>
<!-- Node10 -->
<g id="node18" class="node">
<title>Node10</title>
<g id="a_node18"><a xlink:href="classaworx_1_1lib_1_1expressions_1_1Compiler.html" target="_top" xlink:title="Compiler">
<polygon fill="#ffffff" stroke="#000000" points="1171,-436.5 1171,-455.5 1227,-455.5 1227,-436.5 1171,-436.5"/>
<text text-anchor="middle" x="1199" y="-443.5" font-family="Helvetica,sans-Serif" font-size="10.00" fill="#000000">Compiler</text>
</a>
</g>
</g>
<!-- Node11&#45;&gt;Node10 -->
<g id="edge15" class="edge">
<title>Node11&#45;&gt;Node10</title>
<path fill="none" stroke="#191970" d="M920.2998,-346.4486C988.654,-350.6548 1064.2576,-357.8784 1096,-370 1135.4452,-385.0631 1173.0757,-419.6309 1189.8571,-436.4538"/>
<polygon fill="#191970" stroke="#191970" points="920.4644,-342.9523 910.2735,-345.8497 920.0469,-349.9399 920.4644,-342.9523"/>
</g>
<!-- Node22 -->
<g id="node4" class="node">
<title>Node22</title>
<polygon fill="#ffffff" stroke="#bfbfbf" points="315,-305.5 315,-324.5 410,-324.5 410,-305.5 315,-305.5"/>
<text text-anchor="middle" x="362.5" y="-312.5" font-family="Helvetica,sans-Serif" font-size="10.00" fill="#000000">vector&lt;TPlugin *&gt;</text>
</g>
<!-- Node22&#45;&gt;Node11 -->
<g id="edge19" class="edge">
<title>Node22&#45;&gt;Node11</title>
<path fill="none" stroke="#9a32cd" stroke-dasharray="5,2" d="M420.2865,-318.2704C472.2773,-321.2388 550.7555,-325.7836 619,-330 634.1134,-330.9338 649.9855,-331.937 665.6993,-332.944"/>
<polygon fill="#9a32cd" stroke="#9a32cd" points="420.4354,-314.7733 410.2524,-317.6983 420.0369,-321.762 420.4354,-314.7733"/>
<text text-anchor="middle" x="539" y="-333" font-family="Helvetica,sans-Serif" font-size="10.00" fill="#000000"> pluginsOwned</text>
</g>
<!-- Node23 -->
<g id="node5" class="node">
<title>Node23</title>
<polygon fill="#ffffff" stroke="#bfbfbf" points="288.5,-267.5 288.5,-286.5 436.5,-286.5 436.5,-267.5 288.5,-267.5"/>
<text text-anchor="middle" x="362.5" y="-274.5" font-family="Helvetica,sans-Serif" font-size="10.00" fill="#000000">vector&lt;PluginContainer::Slot&gt;</text>
</g>
<!-- Node23&#45;&gt;Node11 -->
<g id="edge20" class="edge">
<title>Node23&#45;&gt;Node11</title>
<path fill="none" stroke="#9a32cd" stroke-dasharray="5,2" d="M446.7723,-275.4336C498.0937,-277.0734 564.1231,-283.8976 619,-305 628.2107,-308.5419 627.8665,-314.2635 637,-318 651.2351,-323.8235 666.7709,-328.1888 682.2872,-331.4578"/>
<polygon fill="#9a32cd" stroke="#9a32cd" points="446.7994,-271.9332 436.7118,-275.1721 446.6174,-278.9309 446.7994,-271.9332"/>
<text text-anchor="middle" x="539" y="-308" font-family="Helvetica,sans-Serif" font-size="10.00" fill="#000000"> plugins</text>
</g>
<!-- Node25 -->
<g id="node6" class="node">
<title>Node25</title>
<polygon fill="#ffffff" stroke="#bfbfbf" points="307.5,-522.5 307.5,-541.5 417.5,-541.5 417.5,-522.5 307.5,-522.5"/>
<text text-anchor="middle" x="362.5" y="-529.5" font-family="Helvetica,sans-Serif" font-size="10.00" fill="#000000">vector&lt;AStringBase&gt;</text>
</g>
<!-- Node25&#45;&gt;Node10 -->
<g id="edge21" class="edge">
<title>Node25&#45;&gt;Node10</title>
<path fill="none" stroke="#9a32cd" stroke-dasharray="5,2" d="M427.713,-530.308C556.3433,-526.1696 851.4966,-512.6976 1096,-472 1121.6515,-467.7303 1150.2924,-460.2766 1170.848,-454.4415"/>
<polygon fill="#9a32cd" stroke="#9a32cd" points="427.5187,-526.8123 417.6333,-530.6241 427.7381,-533.8089 427.5187,-526.8123"/>
<text text-anchor="middle" x="788" y="-534" font-family="Helvetica,sans-Serif" font-size="10.00" fill="#000000"> CfgNormalizationDisallowed</text>
<text text-anchor="middle" x="788" y="-523" font-family="Helvetica,sans-Serif" font-size="10.00" fill="#000000">DefaultCategories</text>
</g>
<!-- Node27 -->
<g id="node25" class="node">
<title>Node27</title>
<g id="a_node25"><a xlink:href="classaworx_1_1lib_1_1config_1_1Variable.html" target="_top" xlink:title="Variable">
<polygon fill="#ffffff" stroke="#000000" points="762.5,-619.5 762.5,-638.5 813.5,-638.5 813.5,-619.5 762.5,-619.5"/>
<text text-anchor="middle" x="788" y="-626.5" font-family="Helvetica,sans-Serif" font-size="10.00" fill="#000000">Variable</text>
</a>
</g>
</g>
<!-- Node25&#45;&gt;Node27 -->
<g id="edge22" class="edge">
<title>Node25&#45;&gt;Node27</title>
<path fill="none" stroke="#9a32cd" stroke-dasharray="5,2" d="M422.3882,-543.4779C474.4926,-553.6778 551.9536,-569.3559 619,-585 670.0788,-596.9183 729.3004,-612.8222 762.3326,-621.8821"/>
<polygon fill="#9a32cd" stroke="#9a32cd" points="422.8012,-539.9926 412.316,-541.5127 421.4606,-546.863 422.8012,-539.9926"/>
<text text-anchor="middle" x="539" y="-588" font-family="Helvetica,sans-Serif" font-size="10.00" fill="#000000"> values</text>
</g>
<!-- Node32 -->
<g id="node7" class="node">
<title>Node32</title>
<polygon fill="#ffffff" stroke="#bfbfbf" points="6.5,-672.5 6.5,-691.5 110.5,-691.5 110.5,-672.5 6.5,-672.5"/>
<text text-anchor="middle" x="58.5" y="-679.5" font-family="Helvetica,sans-Serif" font-size="10.00" fill="#000000">vector&lt;StringBase&gt;</text>
</g>
<!-- Node32&#45;&gt;Node10 -->
<g id="edge27" class="edge">
<title>Node32&#45;&gt;Node10</title>
<path fill="none" stroke="#9a32cd" stroke-dasharray="5,2" d="M106.6935,-693.8229C203.6738,-716.1213 429.3388,-760.4743 619,-741 834.3855,-718.8843 923.0842,-772.3078 1096,-642 1162.0033,-592.2605 1189.7914,-487.8217 1196.9994,-455.6444"/>
<polygon fill="#9a32cd" stroke="#9a32cd" points="107.4211,-690.3987 96.8881,-691.5422 105.8352,-697.2167 107.4211,-690.3987"/>
<text text-anchor="middle" x="539" y="-748" font-family="Helvetica,sans-Serif" font-size="10.00" fill="#000000"> UnaryOperators</text>
</g>
<!-- Node28 -->
<g id="node19" class="node">
<title>Node28</title>
<g id="a_node19"><a xlink:href="classaworx_1_1lib_1_1config_1_1Configuration.html" target="_top" xlink:title="Configuration">
<polygon fill="#ffffff" stroke="#ff0000" points="325.5,-581.5 325.5,-600.5 399.5,-600.5 399.5,-581.5 325.5,-581.5"/>
<text text-anchor="middle" x="362.5" y="-588.5" font-family="Helvetica,sans-Serif" font-size="10.00" fill="#000000">Configuration</text>
</a>
</g>
</g>
<!-- Node32&#45;&gt;Node28 -->
<g id="edge28" class="edge">
<title>Node32&#45;&gt;Node28</title>
<path fill="none" stroke="#9a32cd" stroke-dasharray="5,2" d="M100.2178,-669.5121C161.6644,-651.1185 275.1869,-617.1365 330.5133,-600.575"/>
<polygon fill="#9a32cd" stroke="#9a32cd" points="99.035,-666.2126 90.4588,-672.4334 101.0425,-672.9186 99.035,-666.2126"/>
<text text-anchor="middle" x="200.5" y="-660" font-family="Helvetica,sans-Serif" font-size="10.00" fill="#000000"> TrueValues</text>
</g>
<!-- Node37 -->
<g id="node8" class="node">
<title>Node37</title>
<polygon fill="#ffffff" stroke="#bfbfbf" points="637,-456.5 637,-475.5 939,-475.5 939,-456.5 637,-456.5"/>
<text text-anchor="middle" x="788" y="-463.5" font-family="Helvetica,sans-Serif" font-size="10.00" fill="#000000">vector&lt;tuple&lt;Priorities, AStringBase, AStringBase, StringBase&gt;&gt;</text>
</g>
<!-- Node37&#45;&gt;Node10 -->
<g id="edge30" class="edge">
<title>Node37&#45;&gt;Node10</title>
<path fill="none" stroke="#9a32cd" stroke-dasharray="5,2" d="M949.3528,-458.1483C1032.3063,-454.1116 1125.333,-449.5848 1170.8458,-447.37"/>
<polygon fill="#9a32cd" stroke="#9a32cd" points="949.1083,-454.6559 939.2903,-458.6379 949.4486,-461.6477 949.1083,-454.6559"/>
<text text-anchor="middle" x="1026.5" y="-460" font-family="Helvetica,sans-Serif" font-size="10.00" fill="#000000"> VariablesLoaded</text>
</g>
<!-- Node40 -->
<g id="node9" class="node">
<title>Node40</title>
<polygon fill="#ffffff" stroke="#bfbfbf" points="1114,-637.5 1114,-656.5 1284,-656.5 1284,-637.5 1114,-637.5"/>
<text text-anchor="middle" x="1199" y="-644.5" font-family="Helvetica,sans-Serif" font-size="10.00" fill="#000000">vector&lt;expressions::detail::AST *&gt;</text>
</g>
<!-- Node40&#45;&gt;Node2 -->
<g id="edge33" class="edge">
<title>Node40&#45;&gt;Node2</title>
<path fill="none" stroke="#9a32cd" stroke-dasharray="5,2" d="M1214.4904,-629.7193C1249.7324,-589.5745 1336.6649,-485.7393 1386,-385 1413.5537,-328.7368 1429.2391,-254.2732 1434.2342,-227.8288"/>
<polygon fill="#9a32cd" stroke="#9a32cd" points="1211.7926,-627.4865 1207.7869,-637.295 1217.0349,-632.1253 1211.7926,-627.4865"/>
<text text-anchor="middle" x="1344" y="-522" font-family="Helvetica,sans-Serif" font-size="10.00" fill="#000000"> ASTs</text>
</g>
<!-- Node4 -->
<g id="node10" class="node">
<title>Node4</title>
<g id="a_node10"><a xlink:href="classaworx_1_1lib_1_1strings_1_1StringBase.html" target="_top" xlink:title="StringBase\&lt;character\&gt;">
<polygon fill="#ffffff" stroke="#000000" points="0,-381.5 0,-400.5 117,-400.5 117,-381.5 0,-381.5"/>
<text text-anchor="middle" x="58.5" y="-388.5" font-family="Helvetica,sans-Serif" font-size="10.00" fill="#000000">StringBase&lt;character&gt;</text>
</a>
</g>
</g>
<!-- Node4&#45;&gt;Node2 -->
<g id="edge3" class="edge">
<title>Node4&#45;&gt;Node2</title>
<path fill="none" stroke="#9a32cd" stroke-dasharray="5,2" d="M77.6855,-375.0101C114.7307,-345.2599 199.8984,-282.2297 284,-258 519.4107,-190.178 1142.3153,-252.2153 1386,-227 1391.7903,-226.4008 1397.9184,-225.5124 1403.8251,-224.5237"/>
<polygon fill="#9a32cd" stroke="#9a32cd" points="75.2752,-372.4591 69.7291,-381.4864 79.6942,-377.888 75.2752,-372.4591"/>
<text text-anchor="middle" x="788" y="-242" font-family="Helvetica,sans-Serif" font-size="10.00" fill="#000000"> tokString</text>
<text text-anchor="middle" x="788" y="-231" font-family="Helvetica,sans-Serif" font-size="10.00" fill="#000000">expression</text>
</g>
<!-- Node39 -->
<g id="node14" class="node">
<title>Node39</title>
<g id="a_node14"><a xlink:href="classaworx_1_1lib_1_1strings_1_1SubstringBase.html" target="_top" xlink:title="SubstringBase\&lt;character\&gt;">
<polygon fill="#ffffff" stroke="#000000" points="472.5,-186.5 472.5,-205.5 605.5,-205.5 605.5,-186.5 472.5,-186.5"/>
<text text-anchor="middle" x="539" y="-193.5" font-family="Helvetica,sans-Serif" font-size="10.00" fill="#000000">SubstringBase&lt;character&gt;</text>
</a>
</g>
</g>
<!-- Node4&#45;&gt;Node39 -->
<g id="edge7" class="edge">
<title>Node4&#45;&gt;Node39</title>
<path fill="none" stroke="#191970" d="M61.124,-371.1673C67.0502,-335.1527 85.0821,-259.5412 135,-225 246.8921,-147.575 420.4495,-170.6264 498.525,-186.4969"/>
<polygon fill="#191970" stroke="#191970" points="57.6163,-370.9593 59.6002,-381.3667 64.5395,-371.9937 57.6163,-370.9593"/>
</g>
<!-- Node4&#45;&gt;Node10 -->
<g id="edge4" class="edge">
<title>Node4&#45;&gt;Node10</title>
<path fill="none" stroke="#9a32cd" stroke-dasharray="5,2" d="M127.6108,-390.1003C207.4354,-389.1098 342.7107,-387.5807 459,-387 530.1102,-386.6449 547.9675,-383.6568 619,-387 831.7058,-397.0111 884.4549,-407.655 1096,-432 1121.2785,-434.9091 1149.9573,-438.8607 1170.6222,-441.8239"/>
<polygon fill="#9a32cd" stroke="#9a32cd" points="127.1565,-386.6056 117.201,-390.2303 127.244,-393.6051 127.1565,-386.6056"/>
<text text-anchor="middle" x="539" y="-401" font-family="Helvetica,sans-Serif" font-size="10.00" fill="#000000"> CfgNestedExpressionOperator</text>
<text text-anchor="middle" x="539" y="-390" font-family="Helvetica,sans-Serif" font-size="10.00" fill="#000000">CfgNestedExpressionThrowIdentifier</text>
</g>
<!-- Node4&#45;&gt;Node28 -->
<g id="edge5" class="edge">
<title>Node4&#45;&gt;Node28</title>
<path fill="none" stroke="#9a32cd" stroke-dasharray="5,2" d="M78.4128,-406.737C93.3866,-418.0788 114.7254,-433.2229 135,-444 190.1691,-473.3254 223.1718,-449.5099 266,-495 283.9206,-514.0344 267.0531,-531.0937 284,-551 296.1958,-565.3256 314.7939,-575.1192 330.8268,-581.4287"/>
<polygon fill="#9a32cd" stroke="#9a32cd" points="80.4473,-403.8863 70.3881,-400.5603 76.1776,-409.4334 80.4473,-403.8863"/>
<text text-anchor="middle" x="200.5" y="-520" font-family="Helvetica,sans-Serif" font-size="10.00" fill="#000000"> SubstitutionVariableStart</text>
<text text-anchor="middle" x="200.5" y="-509" font-family="Helvetica,sans-Serif" font-size="10.00" fill="#000000">SubstitutionVariableEnd</text>
<text text-anchor="middle" x="200.5" y="-498" font-family="Helvetica,sans-Serif" font-size="10.00" fill="#000000">SubstitutionVariableDelimiters</text>
</g>
<!-- Node38 -->
<g id="node20" class="node">
<title>Node38</title>
<g id="a_node20"><a xlink:href="structaworx_1_1lib_1_1expressions_1_1FunctionNameDescriptor.html" target="_top" xlink:title="FunctionNameDescriptor">
<polygon fill="#ffffff" stroke="#000000" points="476.5,-418.5 476.5,-437.5 601.5,-437.5 601.5,-418.5 476.5,-418.5"/>
<text text-anchor="middle" x="539" y="-425.5" font-family="Helvetica,sans-Serif" font-size="10.00" fill="#000000">FunctionNameDescriptor</text>
</a>
</g>
</g>
<!-- Node4&#45;&gt;Node38 -->
<g id="edge6" class="edge">
<title>Node4&#45;&gt;Node38</title>
<path fill="none" stroke="#9a32cd" stroke-dasharray="5,2" d="M115.5078,-402.2353C122.0632,-403.2885 128.6655,-404.243 135,-405 255.155,-419.3586 396.5196,-424.8075 476.1544,-426.836"/>
<polygon fill="#9a32cd" stroke="#9a32cd" points="115.733,-398.7239 105.2903,-400.513 114.5694,-405.6265 115.733,-398.7239"/>
<text text-anchor="middle" x="200.5" y="-419" font-family="Helvetica,sans-Serif" font-size="10.00" fill="#000000"> Name</text>
</g>
<!-- Node8 -->
<g id="node11" class="node">
<title>Node8</title>
<g id="a_node11"><a xlink:href="classaworx_1_1lib_1_1strings_1_1NumberFormatBase.html" target="_top" xlink:title="NumberFormatBase\&lt;TChar\&gt;">
<polygon fill="#ffffff" stroke="#000000" points="1127.5,-111.5 1127.5,-130.5 1270.5,-130.5 1270.5,-111.5 1127.5,-111.5"/>
<text text-anchor="middle" x="1199" y="-118.5" font-family="Helvetica,sans-Serif" font-size="10.00" fill="#000000">NumberFormatBase&lt;TChar&gt;</text>
</a>
</g>
</g>
<!-- Node8&#45;&gt;Node2 -->
<g id="edge11" class="edge">
<title>Node8&#45;&gt;Node2</title>
<path fill="none" stroke="#9a32cd" stroke-dasharray="5,2" d="M1267.2987,-132.7117C1304.009,-140.8531 1349.1654,-153.9289 1386,-174 1402.4487,-182.9629 1418.1021,-198.202 1427.3799,-208.1848"/>
<polygon fill="#9a32cd" stroke="#9a32cd" points="1267.6937,-129.217 1257.1824,-130.5445 1266.2273,-136.0617 1267.6937,-129.217"/>
<text text-anchor="middle" x="1344" y="-177" font-family="Helvetica,sans-Serif" font-size="10.00" fill="#000000"> numberFormat</text>
</g>
<!-- Node8&#45;&gt;Node8 -->
<g id="edge12" class="edge">
<title>Node8&#45;&gt;Node8</title>
<path fill="none" stroke="#9a32cd" stroke-dasharray="5,2" d="M1172.1208,-139.6539C1173.2444,-144.9368 1182.2041,-149 1199,-149 1224.5938,-149 1231.9919,-139.5653 1221.1946,-130.7571"/>
<polygon fill="#9a32cd" stroke="#9a32cd" points="1175.2433,-141.2361 1176.8054,-130.7571 1169.0494,-137.9747 1175.2433,-141.2361"/>
<text text-anchor="middle" x="1199" y="-163" font-family="Helvetica,sans-Serif" font-size="10.00" fill="#000000"> Global</text>
<text text-anchor="middle" x="1199" y="-152" font-family="Helvetica,sans-Serif" font-size="10.00" fill="#000000">Computational</text>
</g>
<!-- Node26 -->
<g id="node12" class="node">
<title>Node26</title>
<g id="a_node12"><a xlink:href="classaworx_1_1lib_1_1strings_1_1AStringBase.html" target="_top" xlink:title="AStringBase\&lt;TChar\&gt;">
<polygon fill="#ffffff" stroke="#ff0000" points="3.5,-522.5 3.5,-541.5 113.5,-541.5 113.5,-522.5 3.5,-522.5"/>
<text text-anchor="middle" x="58.5" y="-529.5" font-family="Helvetica,sans-Serif" font-size="10.00" fill="#000000">AStringBase&lt;TChar&gt;</text>
</a>
</g>
</g>
<!-- Node26&#45;&gt;Node25 -->
<g id="edge23" class="edge">
<title>Node26&#45;&gt;Node25</title>
<path fill="none" stroke="#9a32cd" stroke-dasharray="5,2" d="M123.8344,-532C178.5307,-532 255.7121,-532 307.3446,-532"/>
<polygon fill="#9a32cd" stroke="#9a32cd" points="123.5521,-528.5001 113.5521,-532 123.5521,-535.5001 123.5521,-528.5001"/>
<text text-anchor="middle" x="200.5" y="-535" font-family="Helvetica,sans-Serif" font-size="10.00" fill="#000000"> elements</text>
</g>
<!-- Node34 -->
<g id="node13" class="node">
<title>Node34</title>
<g id="a_node13"><a xlink:href="classaworx_1_1lib_1_1strings_1_1AStringBase.html" target="_top" xlink:title="AStringBase\&lt;character\&gt;">
<polygon fill="#ffffff" stroke="#ff0000" points="300.5,-627.5 300.5,-646.5 424.5,-646.5 424.5,-627.5 300.5,-627.5"/>
<text text-anchor="middle" x="362.5" y="-634.5" font-family="Helvetica,sans-Serif" font-size="10.00" fill="#000000">AStringBase&lt;character&gt;</text>
</a>
</g>
</g>
<!-- Node34&#45;&gt;Node27 -->
<g id="edge29" class="edge">
<title>Node34&#45;&gt;Node27</title>
<path fill="none" stroke="#9a32cd" stroke-dasharray="5,2" d="M434.8339,-635.64C531.6413,-633.8199 698.5345,-630.6821 762.254,-629.4841"/>
<polygon fill="#9a32cd" stroke="#9a32cd" points="434.7594,-632.1407 424.827,-635.8282 434.8911,-639.1395 434.7594,-632.1407"/>
<text text-anchor="middle" x="539" y="-649" font-family="Helvetica,sans-Serif" font-size="10.00" fill="#000000"> DefaultValue</text>
<text text-anchor="middle" x="539" y="-638" font-family="Helvetica,sans-Serif" font-size="10.00" fill="#000000">Comments</text>
</g>
<!-- Node39&#45;&gt;Node2 -->
<g id="edge32" class="edge">
<title>Node39&#45;&gt;Node2</title>
<path fill="none" stroke="#9a32cd" stroke-dasharray="5,2" d="M615.7132,-197.8815C802.679,-202.467 1275.9051,-214.0735 1403.7466,-217.2089"/>
<polygon fill="#9a32cd" stroke="#9a32cd" points="615.7708,-194.3819 605.688,-197.6356 615.5991,-201.3798 615.7708,-194.3819"/>
<text text-anchor="middle" x="1026.5" y="-212" font-family="Helvetica,sans-Serif" font-size="10.00" fill="#000000"> scanner</text>
</g>
<!-- Node15 -->
<g id="node15" class="node">
<title>Node15</title>
<g id="a_node15"><a xlink:href="classaworx_1_1lib_1_1strings_1_1PreallocatedStringBase.html" target="_top" xlink:title="PreallocatedStringBase\&lt;TChar\&gt;">
<polygon fill="#ffffff" stroke="#ff0000" points="284,-698.5 284,-717.5 441,-717.5 441,-698.5 284,-698.5"/>
<text text-anchor="middle" x="362.5" y="-705.5" font-family="Helvetica,sans-Serif" font-size="10.00" fill="#000000">PreallocatedStringBase&lt;TChar&gt;</text>
</a>
</g>
</g>
<!-- Node15&#45;&gt;Node27 -->
<g id="edge17" class="edge">
<title>Node15&#45;&gt;Node27</title>
<path fill="none" stroke="#9a32cd" stroke-dasharray="5,2" d="M405.7302,-695.7105C422.2974,-691.2885 441.4355,-686.5264 459,-683 529.4365,-668.8587 548.0997,-671.5942 619,-660 669.9291,-651.6717 729.2033,-640.4425 762.2854,-634.0366"/>
<polygon fill="#9a32cd" stroke="#9a32cd" points="404.5205,-692.412 395.7841,-698.4058 406.3515,-699.1684 404.5205,-692.412"/>
<text text-anchor="middle" x="539" y="-708" font-family="Helvetica,sans-Serif" font-size="10.00" fill="#000000"> Fullname</text>
<text text-anchor="middle" x="539" y="-697" font-family="Helvetica,sans-Serif" font-size="10.00" fill="#000000">Category</text>
<text text-anchor="middle" x="539" y="-686" font-family="Helvetica,sans-Serif" font-size="10.00" fill="#000000">Name</text>
</g>
<!-- Node15&#45;&gt;Node27 -->
<g id="edge18" class="edge">
<title>Node15&#45;&gt;Node27</title>
<path fill="none" stroke="#9a32cd" stroke-dasharray="5,2" d="M424.1125,-719.0052C476.6701,-726.251 553.8469,-731.7857 619,-716 681.8609,-700.7697 747.5307,-657.863 774.8604,-638.5871"/>
<polygon fill="#9a32cd" stroke="#9a32cd" points="424.3372,-715.5015 413.9401,-717.5391 423.3385,-722.4299 424.3372,-715.5015"/>
<text text-anchor="middle" x="539" y="-729" font-family="Helvetica,sans-Serif" font-size="10.00" fill="#000000"> FormatAttrAlignment</text>
</g>
<!-- Node42 -->
<g id="node16" class="node">
<title>Node42</title>
<polygon fill="#ffffff" stroke="#bfbfbf" points="1169.5,-73.5 1169.5,-92.5 1228.5,-92.5 1228.5,-73.5 1169.5,-73.5"/>
<text text-anchor="middle" x="1199" y="-80.5" font-family="Helvetica,sans-Serif" font-size="10.00" fill="#000000">bitset&lt;T&gt;</text>
</g>
<!-- Node42&#45;&gt;Node2 -->
<g id="edge35" class="edge">
<title>Node42&#45;&gt;Node2</title>
<path fill="none" stroke="#9a32cd" stroke-dasharray="5,2" d="M1238.9362,-79.8119C1279.8569,-78.6585 1343.3597,-82.9749 1386,-115 1417.629,-138.7551 1430.298,-187.8175 1434.3716,-208.488"/>
<polygon fill="#9a32cd" stroke="#9a32cd" points="1238.642,-76.3209 1228.7919,-80.2228 1238.9253,-83.3151 1238.642,-76.3209"/>
<text text-anchor="middle" x="1344" y="-129" font-family="Helvetica,sans-Serif" font-size="10.00" fill="#000000"> syntaxTokens</text>
<text text-anchor="middle" x="1344" y="-118" font-family="Helvetica,sans-Serif" font-size="10.00" fill="#000000">operatorChars</text>
</g>
<!-- Node3 -->
<g id="node17" class="node">
<title>Node3</title>
<g id="a_node17"><a xlink:href="structaworx_1_1lib_1_1expressions_1_1detail_1_1Parser.html" target="_top" xlink:title="Parser">
<polygon fill="#ffffff" stroke="#000000" points="765.5,-289.5 765.5,-308.5 810.5,-308.5 810.5,-289.5 765.5,-289.5"/>
<text text-anchor="middle" x="788" y="-296.5" font-family="Helvetica,sans-Serif" font-size="10.00" fill="#000000">Parser</text>
</a>
</g>
</g>
<!-- Node3&#45;&gt;Node2 -->
<g id="edge1" class="edge">
<title>Node3&#45;&gt;Node2</title>
<path fill="none" stroke="#191970" d="M820.9694,-297.6471C938.5204,-292.6764 1332.9396,-274.6853 1386,-255 1401.9967,-249.0652 1417.2935,-236.3621 1426.6609,-227.506"/>
<polygon fill="#191970" stroke="#191970" points="820.6329,-294.158 810.7884,-298.0742 820.9264,-301.1519 820.6329,-294.158"/>
</g>
<!-- Node3&#45;&gt;Node10 -->
<g id="edge2" class="edge">
<title>Node3&#45;&gt;Node10</title>
<path fill="none" stroke="#9a32cd" stroke-dasharray="5,2" d="M820.968,-295.5193C879.7438,-290.8238 1004.9922,-287.7491 1096,-334 1143.5713,-358.1761 1180.1989,-413.9327 1193.5346,-436.3793"/>
<polygon fill="#9a32cd" stroke="#9a32cd" points="820.4496,-292.0511 810.7901,-296.4034 821.0555,-299.0248 820.4496,-292.0511"/>
<text text-anchor="middle" x="1026.5" y="-337" font-family="Helvetica,sans-Serif" font-size="10.00" fill="#000000"> parser</text>
</g>
<!-- Node10&#45;&gt;Node2 -->
<g id="edge14" class="edge">
<title>Node10&#45;&gt;Node2</title>
<path fill="none" stroke="#9a32cd" stroke-dasharray="5,2" d="M1222.6251,-430.5722C1260.1729,-405.299 1334.4811,-352.14 1386,-295 1405.639,-273.2182 1422.877,-242.9694 1431.0199,-227.6775"/>
<polygon fill="#9a32cd" stroke="#9a32cd" points="1220.2876,-427.924 1213.9073,-436.3823 1224.1697,-433.7489 1220.2876,-427.924"/>
<text text-anchor="middle" x="1344" y="-373" font-family="Helvetica,sans-Serif" font-size="10.00" fill="#000000"> compiler</text>
</g>
<!-- Node28&#45;&gt;Node10 -->
<g id="edge25" class="edge">
<title>Node28&#45;&gt;Node10</title>
<path fill="none" stroke="#9a32cd" stroke-dasharray="5,2" d="M409.9621,-591.064C509.1875,-590.3758 745.4224,-584.4334 939,-546 1010.9624,-531.7124 1027.8413,-522.1496 1096,-495 1126.3544,-482.909 1160.3684,-466.0484 1180.7147,-455.5894"/>
<polygon fill="#9a32cd" stroke="#9a32cd" points="409.6509,-587.5655 399.67,-591.1196 409.6888,-594.5654 409.6509,-587.5655"/>
<text text-anchor="middle" x="788" y="-585" font-family="Helvetica,sans-Serif" font-size="10.00" fill="#000000"> Config</text>
</g>
<!-- Node28&#45;&gt;Node27 -->
<g id="edge26" class="edge">
<title>Node28&#45;&gt;Node27</title>
<path fill="none" stroke="#9a32cd" stroke-dasharray="5,2" d="M409.6976,-595.2151C499.6183,-603.2456 692.7286,-620.4916 762.3308,-626.7076"/>
<polygon fill="#9a32cd" stroke="#9a32cd" points="409.7877,-591.7093 399.516,-594.3058 409.165,-598.6815 409.7877,-591.7093"/>
<text text-anchor="middle" x="539" y="-616" font-family="Helvetica,sans-Serif" font-size="10.00" fill="#000000"> Config</text>
</g>
<!-- Node38&#45;&gt;Node10 -->
<g id="edge31" class="edge">
<title>Node38&#45;&gt;Node10</title>
<path fill="none" stroke="#9a32cd" stroke-dasharray="5,2" d="M612.1907,-429.0591C692.4043,-430.3142 824.88,-432.6645 939,-436 1023.4361,-438.4679 1123.2483,-442.6662 1170.9193,-444.7501"/>
<polygon fill="#9a32cd" stroke="#9a32cd" points="611.7619,-425.5521 601.7089,-428.8966 611.6534,-432.5512 611.7619,-425.5521"/>
<text text-anchor="middle" x="788" y="-439" font-family="Helvetica,sans-Serif" font-size="10.00" fill="#000000"> CfgNestedExpressionFunction</text>
</g>
<!-- Node5&#45;&gt;Node2 -->
<g id="edge8" class="edge">
<title>Node5&#45;&gt;Node2</title>
<path fill="none" stroke="#9a32cd" stroke-dasharray="5,2" d="M1250.4735,-25.8379C1291.9245,-26.8896 1349.1633,-35.0417 1386,-68 1407.7871,-87.4932 1427.9329,-178.3899 1434.0859,-208.3755"/>
<polygon fill="#9a32cd" stroke="#9a32cd" points="1250.3396,-22.3361 1240.2972,-25.7127 1250.2534,-29.3356 1250.3396,-22.3361"/>
<text text-anchor="middle" x="1344" y="-71" font-family="Helvetica,sans-Serif" font-size="10.00" fill="#000000"> internalizedStrings</text>
</g>
<!-- Node7 -->
<g id="node22" class="node">
<title>Node7</title>
<g id="a_node22"><a xlink:href="structaworx_1_1lib_1_1util_1_1MemoryBlocks_1_1Block.html" target="_top" xlink:title="Block">
<polygon fill="#ffffff" stroke="#000000" points="342,-.5 342,-19.5 383,-19.5 383,-.5 342,-.5"/>
<text text-anchor="middle" x="362.5" y="-7.5" font-family="Helvetica,sans-Serif" font-size="10.00" fill="#000000">Block</text>
</a>
</g>
</g>
<!-- Node7&#45;&gt;Node6 -->
<g id="edge10" class="edge">
<title>Node7&#45;&gt;Node6</title>
<path fill="none" stroke="#9a32cd" stroke-dasharray="5,2" d="M393.183,-10C459.2653,-10 616.7237,-10 711.6183,-10"/>
<polygon fill="#9a32cd" stroke="#9a32cd" points="393.0228,-6.5001 383.0227,-10 393.0227,-13.5001 393.0228,-6.5001"/>
<text text-anchor="middle" x="539" y="-13" font-family="Helvetica,sans-Serif" font-size="10.00" fill="#000000"> elements</text>
</g>
<!-- Node9 -->
<g id="node23" class="node">
<title>Node9</title>
<polygon fill="#ffffff" stroke="#bfbfbf" points="766.5,-45.5 766.5,-64.5 809.5,-64.5 809.5,-45.5 766.5,-45.5"/>
<text text-anchor="middle" x="788" y="-52.5" font-family="Helvetica,sans-Serif" font-size="10.00" fill="#000000">TChar</text>
</g>
<!-- Node9&#45;&gt;Node8 -->
<g id="edge13" class="edge">
<title>Node9&#45;&gt;Node8</title>
<path fill="none" stroke="#9a32cd" stroke-dasharray="5,2" d="M819.698,-50.7521C889.1247,-42.1286 1051.9392,-25.8222 1096,-56 1114.1128,-68.4057 1097.3347,-87.7086 1114,-102 1118.4766,-105.8389 1123.562,-108.9491 1128.9668,-111.4636"/>
<polygon fill="#9a32cd" stroke="#9a32cd" points="819.2525,-47.2805 809.773,-52.0121 820.1342,-54.2247 819.2525,-47.2805"/>
<text text-anchor="middle" x="1026.5" y="-169" font-family="Helvetica,sans-Serif" font-size="10.00" fill="#000000"> BinByteGroupChar</text>
<text text-anchor="middle" x="1026.5" y="-158" font-family="Helvetica,sans-Serif" font-size="10.00" fill="#000000">LeadingGroupCharReplacement</text>
<text text-anchor="middle" x="1026.5" y="-147" font-family="Helvetica,sans-Serif" font-size="10.00" fill="#000000">PlusSign</text>
<text text-anchor="middle" x="1026.5" y="-136" font-family="Helvetica,sans-Serif" font-size="10.00" fill="#000000">BinNibbleGroupChar</text>
<text text-anchor="middle" x="1026.5" y="-125" font-family="Helvetica,sans-Serif" font-size="10.00" fill="#000000">BinWord32GroupChar</text>
<text text-anchor="middle" x="1026.5" y="-114" font-family="Helvetica,sans-Serif" font-size="10.00" fill="#000000">OctGroupChar</text>
<text text-anchor="middle" x="1026.5" y="-103" font-family="Helvetica,sans-Serif" font-size="10.00" fill="#000000">HexWordGroupChar</text>
<text text-anchor="middle" x="1026.5" y="-92" font-family="Helvetica,sans-Serif" font-size="10.00" fill="#000000">HexWord32GroupChar</text>
<text text-anchor="middle" x="1026.5" y="-81" font-family="Helvetica,sans-Serif" font-size="10.00" fill="#000000">BinWordGroupChar</text>
<text text-anchor="middle" x="1026.5" y="-70" font-family="Helvetica,sans-Serif" font-size="10.00" fill="#000000">HexByteGroupChar</text>
<text text-anchor="middle" x="1026.5" y="-59" font-family="Helvetica,sans-Serif" font-size="10.00" fill="#000000">...</text>
</g>
<!-- Node12 -->
<g id="node24" class="node">
<title>Node12</title>
<g id="a_node24"><a xlink:href="classaworx_1_1lib_1_1threads_1_1ThreadLock.html" target="_top" xlink:title="ThreadLock">
<polygon fill="#ffffff" stroke="#ff0000" points="328.5,-343.5 328.5,-362.5 396.5,-362.5 396.5,-343.5 328.5,-343.5"/>
<text text-anchor="middle" x="362.5" y="-350.5" font-family="Helvetica,sans-Serif" font-size="10.00" fill="#000000">ThreadLock</text>
</a>
</g>
</g>
<!-- Node12&#45;&gt;Node11 -->
<g id="edge16" class="edge">
<title>Node12&#45;&gt;Node11</title>
<path fill="none" stroke="#191970" d="M406.6049,-351.7561C467.2735,-350.0452 578.8254,-346.8992 665.6758,-344.4498"/>
<polygon fill="#191970" stroke="#191970" points="406.4985,-348.2577 396.6012,-352.0383 406.6959,-355.2549 406.4985,-348.2577"/>
</g>
<!-- Node27&#45;&gt;Node10 -->
<g id="edge24" class="edge">
<title>Node27&#45;&gt;Node10</title>
<path fill="none" stroke="#9a32cd" stroke-dasharray="5,2" d="M823.8943,-632.213C884.5167,-635.8951 1009.0678,-635.7968 1096,-584 1149.1631,-552.3238 1183.6954,-481.6463 1194.967,-455.7505"/>
<polygon fill="#9a32cd" stroke="#9a32cd" points="823.9025,-628.7055 813.6881,-631.5192 823.4277,-635.6894 823.9025,-628.7055"/>
<text text-anchor="middle" x="1026.5" y="-630" font-family="Helvetica,sans-Serif" font-size="10.00" fill="#000000"> var</text>
</g>
<!-- Node41 -->
<g id="node26" class="node">
<title>Node41</title>
<g id="a_node26"><a xlink:href="structaworx_1_1lib_1_1expressions_1_1detail_1_1AST.html" target="_top" xlink:title="AST">
<polygon fill="#ffffff" stroke="#000000" points="770,-800.5 770,-819.5 806,-819.5 806,-800.5 770,-800.5"/>
<text text-anchor="middle" x="788" y="-807.5" font-family="Helvetica,sans-Serif" font-size="10.00" fill="#000000">AST</text>
</a>
</g>
</g>
<!-- Node41&#45;&gt;Node40 -->
<g id="edge34" class="edge">
<title>Node41&#45;&gt;Node40</title>
<path fill="none" stroke="#9a32cd" stroke-dasharray="5,2" d="M816.1854,-815.1314C873.138,-824.0048 1004.2988,-836.7439 1096,-786 1150.6623,-755.752 1184.4945,-682.8953 1195.2598,-656.6374"/>
<polygon fill="#9a32cd" stroke="#9a32cd" points="816.5636,-811.6468 806.1289,-813.482 815.4305,-818.5545 816.5636,-811.6468"/>
<text text-anchor="middle" x="1026.5" y="-824" font-family="Helvetica,sans-Serif" font-size="10.00" fill="#000000"> elements</text>
</g>
</g>
</svg>
