<?xml version="1.0" encoding="UTF-8" standalone="no"?>
<!DOCTYPE svg PUBLIC "-//W3C//DTD SVG 1.1//EN"
 "http://www.w3.org/Graphics/SVG/1.1/DTD/svg11.dtd">
<!-- Generated by graphviz version 2.40.1 (20161225.0304)
 -->
<!-- Title: InMemoryPlugin::Entry Pages: 1 -->
<svg width="767pt" height="130pt"
 viewBox="0.00 0.00 767.00 130.00" xmlns="http://www.w3.org/2000/svg" xmlns:xlink="http://www.w3.org/1999/xlink">
<g id="graph0" class="graph" transform="scale(1 1) rotate(0) translate(4 126)">
<title>InMemoryPlugin::Entry</title>
<polygon fill="#ffffff" stroke="transparent" points="-4,4 -4,-126 763,-126 763,4 -4,4"/>
<!-- Node2 -->
<g id="node1" class="node">
<title>Node2</title>
<polygon fill="#bfbfbf" stroke="#000000" points="643,-51.5 643,-70.5 759,-70.5 759,-51.5 643,-51.5"/>
<text text-anchor="middle" x="701" y="-58.5" font-family="Helvetica,sans-Serif" font-size="10.00" fill="#000000">InMemoryPlugin::Entry</text>
</g>
<!-- Node3 -->
<g id="node2" class="node">
<title>Node3</title>
<polygon fill="#ffffff" stroke="#bfbfbf" points="379.5,-102.5 379.5,-121.5 489.5,-121.5 489.5,-102.5 379.5,-102.5"/>
<text text-anchor="middle" x="434.5" y="-109.5" font-family="Helvetica,sans-Serif" font-size="10.00" fill="#000000">vector&lt;AStringBase&gt;</text>
</g>
<!-- Node3&#45;&gt;Node2 -->
<g id="edge1" class="edge">
<title>Node3&#45;&gt;Node2</title>
<path fill="none" stroke="#9a32cd" stroke-dasharray="5,2" d="M499.6576,-104.846C536.6601,-100.1799 583.6997,-93.2313 625,-84 641.1441,-80.3915 658.8524,-75.1123 673.1111,-70.5215"/>
<polygon fill="#9a32cd" stroke="#9a32cd" points="498.9954,-101.4011 489.5003,-106.1015 499.8542,-108.3482 498.9954,-101.4011"/>
<text text-anchor="middle" x="578" y="-103" font-family="Helvetica,sans-Serif" font-size="10.00" fill="#000000"> Values</text>
</g>
<!-- Node4 -->
<g id="node3" class="node">
<title>Node4</title>
<g id="a_node3"><a xlink:href="classaworx_1_1lib_1_1strings_1_1AStringBase.html" target="_top" xlink:title="AStringBase\&lt;TChar\&gt;">
<polygon fill="#ffffff" stroke="#000000" points="160.5,-82.5 160.5,-101.5 270.5,-101.5 270.5,-82.5 160.5,-82.5"/>
<text text-anchor="middle" x="215.5" y="-89.5" font-family="Helvetica,sans-Serif" font-size="10.00" fill="#000000">AStringBase&lt;TChar&gt;</text>
</a>
</g>
</g>
<!-- Node4&#45;&gt;Node3 -->
<g id="edge2" class="edge">
<title>Node4&#45;&gt;Node3</title>
<path fill="none" stroke="#9a32cd" stroke-dasharray="5,2" d="M280.7272,-97.9568C312.099,-100.8218 349.3009,-104.2193 379.2547,-106.9548"/>
<polygon fill="#9a32cd" stroke="#9a32cd" points="281.0398,-94.4709 270.7629,-97.0468 280.4032,-101.4419 281.0398,-94.4709"/>
<text text-anchor="middle" x="316.5" y="-105" font-family="Helvetica,sans-Serif" font-size="10.00" fill="#000000"> elements</text>
</g>
<!-- Node8 -->
<g id="node8" class="node">
<title>Node8</title>
<g id="a_node8"><a xlink:href="classaworx_1_1lib_1_1strings_1_1PreallocatedStringBase.html" target="_top" xlink:title="PreallocatedStringBase\&lt;TChar\&gt;">
<polygon fill="#ffffff" stroke="#000000" points="356,-64.5 356,-83.5 513,-83.5 513,-64.5 356,-64.5"/>
<text text-anchor="middle" x="434.5" y="-71.5" font-family="Helvetica,sans-Serif" font-size="10.00" fill="#000000">PreallocatedStringBase&lt;TChar&gt;</text>
</a>
</g>
</g>
<!-- Node4&#45;&gt;Node8 -->
<g id="edge3" class="edge">
<title>Node4&#45;&gt;Node8</title>
<path fill="none" stroke="#191970" d="M280.959,-86.6198C304.4457,-84.6894 331.1763,-82.4924 355.6777,-80.4785"/>
<polygon fill="#191970" stroke="#191970" points="280.4426,-83.1504 270.7629,-87.4578 281.0161,-90.1268 280.4426,-83.1504"/>
</g>
<!-- Node5 -->
<g id="node4" class="node">
<title>Node5</title>
<g id="a_node4"><a xlink:href="classaworx_1_1lib_1_1strings_1_1TStringBase.html" target="_top" xlink:title="TStringBase\&lt;TChar\&gt;">
<polygon fill="#ffffff" stroke="#ff0000" points="4,-82.5 4,-101.5 113,-101.5 113,-82.5 4,-82.5"/>
<text text-anchor="middle" x="58.5" y="-89.5" font-family="Helvetica,sans-Serif" font-size="10.00" fill="#000000">TStringBase&lt;TChar&gt;</text>
</a>
</g>
</g>
<!-- Node5&#45;&gt;Node4 -->
<g id="edge4" class="edge">
<title>Node5&#45;&gt;Node4</title>
<path fill="none" stroke="#191970" d="M123.5519,-92C135.7825,-92 148.462,-92 160.3546,-92"/>
<polygon fill="#191970" stroke="#191970" points="123.411,-88.5001 113.411,-92 123.4109,-95.5001 123.411,-88.5001"/>
</g>
<!-- Node10 -->
<g id="node5" class="node">
<title>Node10</title>
<g id="a_node5"><a xlink:href="classaworx_1_1lib_1_1strings_1_1AStringBase.html" target="_top" xlink:title="AStringBase\&lt;character\&gt;">
<polygon fill="#ffffff" stroke="#000000" points="372.5,-.5 372.5,-19.5 496.5,-19.5 496.5,-.5 372.5,-.5"/>
<text text-anchor="middle" x="434.5" y="-7.5" font-family="Helvetica,sans-Serif" font-size="10.00" fill="#000000">AStringBase&lt;character&gt;</text>
</a>
</g>
</g>
<!-- Node10&#45;&gt;Node2 -->
<g id="edge7" class="edge">
<title>Node10&#45;&gt;Node2</title>
<path fill="none" stroke="#9a32cd" stroke-dasharray="5,2" d="M507.0059,-12.7894C542.9214,-15.3847 586.6902,-20.3831 625,-30 645.0405,-35.0308 666.7609,-44.3079 681.8289,-51.4072"/>
<polygon fill="#9a32cd" stroke="#9a32cd" points="506.8251,-9.2693 496.6124,-12.0889 506.3544,-16.2535 506.8251,-9.2693"/>
<text text-anchor="middle" x="578" y="-33" font-family="Helvetica,sans-Serif" font-size="10.00" fill="#000000"> Comments</text>
</g>
<!-- Node11 -->
<g id="node6" class="node">
<title>Node11</title>
<g id="a_node6"><a xlink:href="classaworx_1_1lib_1_1strings_1_1TStringBase.html" target="_top" xlink:title="TStringBase\&lt;character\&gt;">
<polygon fill="#ffffff" stroke="#000000" points="154,-.5 154,-19.5 277,-19.5 277,-.5 154,-.5"/>
<text text-anchor="middle" x="215.5" y="-7.5" font-family="Helvetica,sans-Serif" font-size="10.00" fill="#000000">TStringBase&lt;character&gt;</text>
</a>
</g>
</g>
<!-- Node11&#45;&gt;Node10 -->
<g id="edge8" class="edge">
<title>Node11&#45;&gt;Node10</title>
<path fill="none" stroke="#191970" d="M287.3993,-10C314.8087,-10 345.7956,-10 372.2366,-10"/>
<polygon fill="#191970" stroke="#191970" points="287.0865,-6.5001 277.0865,-10 287.0865,-13.5001 287.0865,-6.5001"/>
</g>
<!-- Node12 -->
<g id="node7" class="node">
<title>Node12</title>
<g id="a_node7"><a xlink:href="classaworx_1_1lib_1_1strings_1_1StringBase.html" target="_top" xlink:title="StringBase\&lt;character\&gt;">
<polygon fill="#ffffff" stroke="#000000" points="0,-.5 0,-19.5 117,-19.5 117,-.5 0,-.5"/>
<text text-anchor="middle" x="58.5" y="-7.5" font-family="Helvetica,sans-Serif" font-size="10.00" fill="#000000">StringBase&lt;character&gt;</text>
</a>
</g>
</g>
<!-- Node12&#45;&gt;Node11 -->
<g id="edge9" class="edge">
<title>Node12&#45;&gt;Node11</title>
<path fill="none" stroke="#191970" d="M127.5917,-10C136.3517,-10 145.2704,-10 153.9027,-10"/>
<polygon fill="#191970" stroke="#191970" points="127.4077,-6.5001 117.4077,-10 127.4077,-13.5001 127.4077,-6.5001"/>
</g>
<!-- Node8&#45;&gt;Node2 -->
<g id="edge5" class="edge">
<title>Node8&#45;&gt;Node2</title>
<path fill="none" stroke="#9a32cd" stroke-dasharray="5,2" d="M523.1683,-69.6747C562.592,-67.7516 607.9003,-65.5414 642.9167,-63.8333"/>
<polygon fill="#9a32cd" stroke="#9a32cd" points="522.8349,-66.1867 513.0174,-70.1699 523.1761,-73.1784 522.8349,-66.1867"/>
<text text-anchor="middle" x="578" y="-72" font-family="Helvetica,sans-Serif" font-size="10.00" fill="#000000"> Name</text>
</g>
<!-- Node8&#45;&gt;Node2 -->
<g id="edge6" class="edge">
<title>Node8&#45;&gt;Node2</title>
<path fill="none" stroke="#9a32cd" stroke-dasharray="5,2" d="M473.491,-61.4963C490.8921,-56.5431 511.7695,-51.4506 531,-49 572.4427,-43.719 583.3502,-45.7321 625,-49 632.3243,-49.5747 640.0095,-50.4563 647.5624,-51.4865"/>
<polygon fill="#9a32cd" stroke="#9a32cd" points="472.2947,-58.1998 463.686,-64.3756 474.267,-64.9162 472.2947,-58.1998"/>
<text text-anchor="middle" x="578" y="-52" font-family="Helvetica,sans-Serif" font-size="10.00" fill="#000000"> FormatAttrAlignment</text>
</g>
</g>
</svg>
