<?xml version="1.0" encoding="UTF-8" standalone="no"?>
<!DOCTYPE svg PUBLIC "-//W3C//DTD SVG 1.1//EN"
 "http://www.w3.org/Graphics/SVG/1.1/DTD/svg11.dtd">
<!-- Generated by graphviz version 2.40.1 (20161225.0304)
 -->
<!-- Title: StringWriter Pages: 1 -->
<svg width="244pt" height="209pt"
 viewBox="0.00 0.00 244.00 209.00" xmlns="http://www.w3.org/2000/svg" xmlns:xlink="http://www.w3.org/1999/xlink">
<g id="graph0" class="graph" transform="scale(1 1) rotate(0) translate(4 205)">
<title>StringWriter</title>
<polygon fill="#ffffff" stroke="transparent" points="-4,4 -4,-205 240,-205 240,4 -4,4"/>
<!-- Node1 -->
<g id="node1" class="node">
<title>Node1</title>
<polygon fill="#bfbfbf" stroke="#000000" points="88.5,-.5 88.5,-19.5 156.5,-19.5 156.5,-.5 88.5,-.5"/>
<text text-anchor="middle" x="122.5" y="-7.5" font-family="Helvetica,sans-Serif" font-size="10.00" fill="#000000">StringWriter</text>
</g>
<!-- Node6 -->
<g id="node2" class="node">
<title>Node6</title>
<g id="a_node2"><a xlink:title="STL class. ">
<polygon fill="#ffffff" stroke="#bfbfbf" points="125,-124.5 125,-143.5 236,-143.5 236,-124.5 125,-124.5"/>
<text text-anchor="middle" x="180.5" y="-131.5" font-family="Helvetica,sans-Serif" font-size="10.00" fill="#000000">basic_ostream&lt;char&gt;</text>
</a>
</g>
</g>
<!-- Node5 -->
<g id="node7" class="node">
<title>Node5</title>
<g id="a_node7"><a xlink:title="STL class. ">
<polygon fill="#ffffff" stroke="#bfbfbf" points="150.5,-67.5 150.5,-86.5 202.5,-86.5 202.5,-67.5 150.5,-67.5"/>
<text text-anchor="middle" x="176.5" y="-74.5" font-family="Helvetica,sans-Serif" font-size="10.00" fill="#000000">ostream</text>
</a>
</g>
</g>
<!-- Node6&#45;&gt;Node5 -->
<g id="edge5" class="edge">
<title>Node6&#45;&gt;Node5</title>
<path fill="none" stroke="#191970" d="M179.1129,-114.2342C178.4543,-104.8491 177.6976,-94.0651 177.1685,-86.5265"/>
<polygon fill="#191970" stroke="#191970" points="175.6299,-114.6003 179.8215,-124.3307 182.6127,-114.1102 175.6299,-114.6003"/>
</g>
<!-- Node7 -->
<g id="node3" class="node">
<title>Node7</title>
<g id="a_node3"><a xlink:title="STL class. ">
<polygon fill="#ffffff" stroke="#bfbfbf" points="135,-181.5 135,-200.5 226,-200.5 226,-181.5 135,-181.5"/>
<text text-anchor="middle" x="180.5" y="-188.5" font-family="Helvetica,sans-Serif" font-size="10.00" fill="#000000">basic_ios&lt;Char&gt;</text>
</a>
</g>
</g>
<!-- Node7&#45;&gt;Node6 -->
<g id="edge6" class="edge">
<title>Node7&#45;&gt;Node6</title>
<path fill="none" stroke="#191970" d="M180.5,-171.2342C180.5,-161.8491 180.5,-151.0651 180.5,-143.5265"/>
<polygon fill="#191970" stroke="#191970" points="177.0001,-171.3307 180.5,-181.3307 184.0001,-171.3308 177.0001,-171.3307"/>
</g>
<!-- Node2 -->
<g id="node4" class="node">
<title>Node2</title>
<g id="a_node4"><a xlink:href="classaworx_1_1lib_1_1strings_1_1AStringBase.html" target="_top" xlink:title="AStringBase\&lt;nchar\&gt;">
<polygon fill="#ffffff" stroke="#000000" points="21,-67.5 21,-86.5 128,-86.5 128,-67.5 21,-67.5"/>
<text text-anchor="middle" x="74.5" y="-74.5" font-family="Helvetica,sans-Serif" font-size="10.00" fill="#000000">AStringBase&lt;nchar&gt;</text>
</a>
</g>
</g>
<!-- Node2&#45;&gt;Node1 -->
<g id="edge1" class="edge">
<title>Node2&#45;&gt;Node1</title>
<path fill="none" stroke="#9a32cd" stroke-dasharray="5,2" d="M86.4521,-58.4339C90.7704,-51.8991 95.7525,-44.5527 100.5,-38 104.9976,-31.7922 110.2998,-25.0289 114.5719,-19.7047"/>
<polygon fill="#9a32cd" stroke="#9a32cd" points="83.2391,-56.9532 80.7051,-67.2405 89.1013,-60.7787 83.2391,-56.9532"/>
<text text-anchor="middle" x="122.5" y="-41" font-family="Helvetica,sans-Serif" font-size="10.00" fill="#000000"> converter</text>
</g>
<!-- Node3 -->
<g id="node5" class="node">
<title>Node3</title>
<g id="a_node5"><a xlink:href="classaworx_1_1lib_1_1strings_1_1TStringBase.html" target="_top" xlink:title="TStringBase\&lt;nchar\&gt;">
<polygon fill="#ffffff" stroke="#000000" points="0,-124.5 0,-143.5 107,-143.5 107,-124.5 0,-124.5"/>
<text text-anchor="middle" x="53.5" y="-131.5" font-family="Helvetica,sans-Serif" font-size="10.00" fill="#000000">TStringBase&lt;nchar&gt;</text>
</a>
</g>
</g>
<!-- Node3&#45;&gt;Node2 -->
<g id="edge2" class="edge">
<title>Node3&#45;&gt;Node2</title>
<path fill="none" stroke="#191970" d="M60.5574,-114.8442C64.0665,-105.3195 68.1525,-94.229 70.9902,-86.5265"/>
<polygon fill="#191970" stroke="#191970" points="57.2353,-113.7373 57.0624,-124.3307 63.8037,-116.1573 57.2353,-113.7373"/>
</g>
<!-- Node4 -->
<g id="node6" class="node">
<title>Node4</title>
<g id="a_node6"><a xlink:href="classaworx_1_1lib_1_1strings_1_1StringBase.html" target="_top" xlink:title="StringBase\&lt;nchar\&gt;">
<polygon fill="#ffffff" stroke="#000000" points="3,-181.5 3,-200.5 104,-200.5 104,-181.5 3,-181.5"/>
<text text-anchor="middle" x="53.5" y="-188.5" font-family="Helvetica,sans-Serif" font-size="10.00" fill="#000000">StringBase&lt;nchar&gt;</text>
</a>
</g>
</g>
<!-- Node4&#45;&gt;Node3 -->
<g id="edge3" class="edge">
<title>Node4&#45;&gt;Node3</title>
<path fill="none" stroke="#191970" d="M53.5,-171.2342C53.5,-161.8491 53.5,-151.0651 53.5,-143.5265"/>
<polygon fill="#191970" stroke="#191970" points="50.0001,-171.3307 53.5,-181.3307 57.0001,-171.3308 50.0001,-171.3307"/>
</g>
<!-- Node5&#45;&gt;Node1 -->
<g id="edge4" class="edge">
<title>Node5&#45;&gt;Node1</title>
<path fill="none" stroke="#9a32cd" stroke-dasharray="5,2" d="M162.2735,-59.3486C152.0141,-46.6194 138.5573,-29.9229 130.2225,-19.5817"/>
<polygon fill="#9a32cd" stroke="#9a32cd" points="159.7627,-61.8109 168.7631,-67.4005 165.2129,-57.4182 159.7627,-61.8109"/>
<text text-anchor="middle" x="173" y="-41" font-family="Helvetica,sans-Serif" font-size="10.00" fill="#000000"> ostream</text>
</g>
</g>
</svg>
