<?xml version="1.0" encoding="UTF-8" standalone="no"?>
<!DOCTYPE svg PUBLIC "-//W3C//DTD SVG 1.1//EN"
 "http://www.w3.org/Graphics/SVG/1.1/DTD/svg11.dtd">
<!-- Generated by graphviz version 2.40.1 (20161225.0304)
 -->
<!-- Title: IIsNull_false Pages: 1 -->
<svg width="201pt" height="140pt"
 viewBox="0.00 0.00 200.50 140.00" xmlns="http://www.w3.org/2000/svg" xmlns:xlink="http://www.w3.org/1999/xlink">
<g id="graph0" class="graph" transform="scale(1 1) rotate(0) translate(4 136)">
<title>IIsNull_false</title>
<polygon fill="#ffffff" stroke="transparent" points="-4,4 -4,-136 196.5,-136 196.5,4 -4,4"/>
<!-- Node0 -->
<g id="node1" class="node">
<title>Node0</title>
<polygon fill="#bfbfbf" stroke="#000000" points="77.5,-.5 77.5,-19.5 148.5,-19.5 148.5,-.5 77.5,-.5"/>
<text text-anchor="middle" x="113" y="-7.5" font-family="Helvetica,sans-Serif" font-size="10.00" fill="#000000">IIsNull_false</text>
</g>
<!-- Node3 -->
<g id="node2" class="node">
<title>Node3</title>
<g id="a_node2"><a xlink:href="classaworx_1_1lib_1_1lang_1_1Singleton.html" target="_top" xlink:title="Singleton\&lt;IIsNull_false\&gt;">
<polygon fill="#ffffff" stroke="#000000" points="0,-56.5 0,-75.5 124,-75.5 124,-56.5 0,-56.5"/>
<text text-anchor="middle" x="62" y="-63.5" font-family="Helvetica,sans-Serif" font-size="10.00" fill="#000000">Singleton&lt;IIsNull_false&gt;</text>
</a>
</g>
</g>
<!-- Node3&#45;&gt;Node0 -->
<g id="edge3" class="edge">
<title>Node3&#45;&gt;Node0</title>
<path fill="none" stroke="#191970" d="M77.6749,-48.7884C86.3994,-39.2085 96.9354,-27.6396 104.2183,-19.6427"/>
<polygon fill="#191970" stroke="#191970" points="75.0291,-46.4954 70.8835,-56.2455 80.2046,-51.2088 75.0291,-46.4954"/>
</g>
<!-- Node1 -->
<g id="node3" class="node">
<title>Node1</title>
<g id="a_node3"><a xlink:href="classaworx_1_1lib_1_1boxing_1_1IIsNull.html" target="_top" xlink:title="IIsNull">
<polygon fill="#ffffff" stroke="#000000" points="142.5,-56.5 142.5,-75.5 187.5,-75.5 187.5,-56.5 142.5,-56.5"/>
<text text-anchor="middle" x="165" y="-63.5" font-family="Helvetica,sans-Serif" font-size="10.00" fill="#000000">IIsNull</text>
</a>
</g>
</g>
<!-- Node1&#45;&gt;Node0 -->
<g id="edge1" class="edge">
<title>Node1&#45;&gt;Node0</title>
<path fill="none" stroke="#191970" d="M149.0178,-48.7884C140.1222,-39.2085 129.3796,-27.6396 121.9539,-19.6427"/>
<polygon fill="#191970" stroke="#191970" points="146.573,-51.2992 155.9423,-56.2455 151.7025,-46.536 146.573,-51.2992"/>
</g>
<!-- Node2 -->
<g id="node4" class="node">
<title>Node2</title>
<g id="a_node4"><a xlink:href="classaworx_1_1lib_1_1boxing_1_1Interface.html" target="_top" xlink:title="Interface">
<polygon fill="#ffffff" stroke="#000000" points="137.5,-112.5 137.5,-131.5 192.5,-131.5 192.5,-112.5 137.5,-112.5"/>
<text text-anchor="middle" x="165" y="-119.5" font-family="Helvetica,sans-Serif" font-size="10.00" fill="#000000">Interface</text>
</a>
</g>
</g>
<!-- Node2&#45;&gt;Node1 -->
<g id="edge2" class="edge">
<title>Node2&#45;&gt;Node1</title>
<path fill="none" stroke="#191970" d="M165,-102.1575C165,-93.155 165,-82.9199 165,-75.6427"/>
<polygon fill="#191970" stroke="#191970" points="161.5001,-102.2455 165,-112.2455 168.5001,-102.2456 161.5001,-102.2455"/>
</g>
</g>
</svg>
