<?xml version="1.0" encoding="UTF-8" standalone="no"?>
<!DOCTYPE svg PUBLIC "-//W3C//DTD SVG 1.1//EN"
 "http://www.w3.org/Graphics/SVG/1.1/DTD/svg11.dtd">
<!-- Generated by graphviz version 2.40.1 (20161225.0304)
 -->
<!-- Title: ThreadLock Pages: 1 -->
<svg width="423pt" height="230pt"
 viewBox="0.00 0.00 422.50 230.00" xmlns="http://www.w3.org/2000/svg" xmlns:xlink="http://www.w3.org/1999/xlink">
<g id="graph0" class="graph" transform="scale(1 1) rotate(0) translate(4 226)">
<title>ThreadLock</title>
<polygon fill="#ffffff" stroke="transparent" points="-4,4 -4,-226 418.5,-226 418.5,4 -4,4"/>
<!-- Node23 -->
<g id="node1" class="node">
<title>Node23</title>
<polygon fill="#bfbfbf" stroke="#000000" points="149.5,-.5 149.5,-19.5 217.5,-19.5 217.5,-.5 149.5,-.5"/>
<text text-anchor="middle" x="183.5" y="-7.5" font-family="Helvetica,sans-Serif" font-size="10.00" fill="#000000">ThreadLock</text>
</g>
<!-- Node32 -->
<g id="node2" class="node">
<title>Node32</title>
<g id="a_node2"><a xlink:href="classaworx_1_1lib_1_1strings_1_1TStringBase.html" target="_top" xlink:title="TStringBase\&lt;nchar\&gt;">
<polygon fill="#ffffff" stroke="#000000" points="48,-78.5 48,-97.5 155,-97.5 155,-78.5 48,-78.5"/>
<text text-anchor="middle" x="101.5" y="-85.5" font-family="Helvetica,sans-Serif" font-size="10.00" fill="#000000">TStringBase&lt;nchar&gt;</text>
</a>
</g>
</g>
<!-- Node32&#45;&gt;Node23 -->
<g id="edge7" class="edge">
<title>Node32&#45;&gt;Node23</title>
<path fill="none" stroke="#9a32cd" stroke-dasharray="5,2" d="M113.3677,-69.9327C120.5085,-59.8537 130.1939,-47.4631 140.5,-38 148.1118,-31.0108 157.6543,-24.6066 165.8148,-19.6922"/>
<polygon fill="#9a32cd" stroke="#9a32cd" points="110.34,-68.1596 107.5803,-78.3887 116.1166,-72.1131 110.34,-68.1596"/>
<text text-anchor="middle" x="198" y="-52" font-family="Helvetica,sans-Serif" font-size="10.00" fill="#000000"> acquirementMethodName</text>
<text text-anchor="middle" x="198" y="-41" font-family="Helvetica,sans-Serif" font-size="10.00" fill="#000000">acquirementSourcefile</text>
</g>
<!-- Node33 -->
<g id="node3" class="node">
<title>Node33</title>
<g id="a_node3"><a xlink:href="classaworx_1_1lib_1_1strings_1_1StringBase.html" target="_top" xlink:title="StringBase\&lt;nchar\&gt;">
<polygon fill="#ffffff" stroke="#000000" points="0,-145.5 0,-164.5 101,-164.5 101,-145.5 0,-145.5"/>
<text text-anchor="middle" x="50.5" y="-152.5" font-family="Helvetica,sans-Serif" font-size="10.00" fill="#000000">StringBase&lt;nchar&gt;</text>
</a>
</g>
</g>
<!-- Node33&#45;&gt;Node32 -->
<g id="edge8" class="edge">
<title>Node33&#45;&gt;Node32</title>
<path fill="none" stroke="#191970" d="M63.9361,-137.3486C73.6256,-124.6194 86.3348,-107.9229 94.2065,-97.5817"/>
<polygon fill="#191970" stroke="#191970" points="61.079,-135.3236 57.8071,-145.4005 66.6489,-139.5634 61.079,-135.3236"/>
</g>
<!-- Node26 -->
<g id="node4" class="node">
<title>Node26</title>
<g id="a_node4"><a xlink:href="classaworx_1_1lib_1_1strings_1_1PreallocatedStringBase.html" target="_top" xlink:title="PreallocatedStringBase\&lt;TChar\&gt;">
<polygon fill="#ffffff" stroke="#000000" points="119,-145.5 119,-164.5 276,-164.5 276,-145.5 119,-145.5"/>
<text text-anchor="middle" x="197.5" y="-152.5" font-family="Helvetica,sans-Serif" font-size="10.00" fill="#000000">PreallocatedStringBase&lt;TChar&gt;</text>
</a>
</g>
</g>
<!-- Node24 -->
<g id="node6" class="node">
<title>Node24</title>
<g id="a_node6"><a xlink:href="classaworx_1_1lib_1_1threads_1_1Thread.html" target="_top" xlink:title="Thread">
<polygon fill="#ffffff" stroke="#000000" points="267,-78.5 267,-97.5 314,-97.5 314,-78.5 267,-78.5"/>
<text text-anchor="middle" x="290.5" y="-85.5" font-family="Helvetica,sans-Serif" font-size="10.00" fill="#000000">Thread</text>
</a>
</g>
</g>
<!-- Node26&#45;&gt;Node24 -->
<g id="edge4" class="edge">
<title>Node26&#45;&gt;Node24</title>
<path fill="none" stroke="#9a32cd" stroke-dasharray="5,2" d="M219.0008,-139.5102C236.9667,-126.567 262.0176,-108.5195 277.2001,-97.5817"/>
<polygon fill="#9a32cd" stroke="#9a32cd" points="216.8925,-136.7153 210.8246,-145.4005 220.9842,-142.3949 216.8925,-136.7153"/>
<text text-anchor="middle" x="264.5" y="-119" font-family="Helvetica,sans-Serif" font-size="10.00" fill="#000000"> name</text>
</g>
<!-- Node27 -->
<g id="node5" class="node">
<title>Node27</title>
<g id="a_node5"><a xlink:href="classaworx_1_1lib_1_1strings_1_1AStringBase.html" target="_top" xlink:title="AStringBase\&lt;character\&gt;">
<polygon fill="#ffffff" stroke="#ff0000" points="135.5,-202.5 135.5,-221.5 259.5,-221.5 259.5,-202.5 135.5,-202.5"/>
<text text-anchor="middle" x="197.5" y="-209.5" font-family="Helvetica,sans-Serif" font-size="10.00" fill="#000000">AStringBase&lt;character&gt;</text>
</a>
</g>
</g>
<!-- Node27&#45;&gt;Node26 -->
<g id="edge5" class="edge">
<title>Node27&#45;&gt;Node26</title>
<path fill="none" stroke="#191970" d="M197.5,-192.2342C197.5,-182.8491 197.5,-172.0651 197.5,-164.5265"/>
<polygon fill="#191970" stroke="#191970" points="194.0001,-192.3307 197.5,-202.3307 201.0001,-192.3308 194.0001,-192.3307"/>
</g>
<!-- Node24&#45;&gt;Node23 -->
<g id="edge1" class="edge">
<title>Node24&#45;&gt;Node23</title>
<path fill="none" stroke="#9a32cd" stroke-dasharray="5,2" d="M281.0905,-69.4329C275.0042,-58.9964 266.2209,-46.4151 255.5,-38 244.4224,-29.3049 230.3195,-23.0321 217.5365,-18.6574"/>
<polygon fill="#9a32cd" stroke="#9a32cd" points="278.0331,-71.1369 285.9,-78.2336 284.1757,-67.78 278.0331,-71.1369"/>
<text text-anchor="middle" x="289.5" y="-46.5" font-family="Helvetica,sans-Serif" font-size="10.00" fill="#000000"> owner</text>
</g>
<!-- Node25 -->
<g id="node7" class="node">
<title>Node25</title>
<g id="a_node7"><a xlink:href="classaworx_1_1lib_1_1threads_1_1Runnable.html" target="_top" xlink:title="Runnable">
<polygon fill="#ffffff" stroke="#000000" points="294.5,-145.5 294.5,-164.5 352.5,-164.5 352.5,-145.5 294.5,-145.5"/>
<text text-anchor="middle" x="323.5" y="-152.5" font-family="Helvetica,sans-Serif" font-size="10.00" fill="#000000">Runnable</text>
</a>
</g>
</g>
<!-- Node25&#45;&gt;Node24 -->
<g id="edge2" class="edge">
<title>Node25&#45;&gt;Node24</title>
<path fill="none" stroke="#191970" d="M310.2369,-136.8635C308.1741,-133.66 306.175,-130.2941 304.5,-127 299.6089,-117.3813 295.6431,-105.6449 293.1974,-97.5749"/>
<polygon fill="#191970" stroke="#191970" points="307.4593,-139.0017 316.0027,-145.2675 313.2314,-135.0415 307.4593,-139.0017"/>
</g>
<!-- Node25&#45;&gt;Node24 -->
<g id="edge3" class="edge">
<title>Node25&#45;&gt;Node24</title>
<path fill="none" stroke="#9a32cd" stroke-dasharray="5,2" d="M314.2587,-136.2374C308.0646,-123.6614 300.1659,-107.6246 295.2193,-97.5817"/>
<polygon fill="#9a32cd" stroke="#9a32cd" points="311.2135,-137.9761 318.7719,-145.4005 317.4932,-134.8831 311.2135,-137.9761"/>
<text text-anchor="middle" x="329.5" y="-119" font-family="Helvetica,sans-Serif" font-size="10.00" fill="#000000"> runnable</text>
</g>
<!-- Node31 -->
<g id="node8" class="node">
<title>Node31</title>
<g id="a_node8"><a xlink:title="STL class. ">
<polygon fill="#ffffff" stroke="#bfbfbf" points="370.5,-145.5 370.5,-164.5 414.5,-164.5 414.5,-145.5 370.5,-145.5"/>
<text text-anchor="middle" x="392.5" y="-152.5" font-family="Helvetica,sans-Serif" font-size="10.00" fill="#000000">thread</text>
</a>
</g>
</g>
<!-- Node31&#45;&gt;Node24 -->
<g id="edge6" class="edge">
<title>Node31&#45;&gt;Node24</title>
<path fill="none" stroke="#9a32cd" stroke-dasharray="5,2" d="M377.9542,-137.8405C371.0775,-130.4561 362.4266,-122.1308 353.5,-116 341.3645,-107.6653 326.3469,-100.876 314.0182,-96.071"/>
<polygon fill="#9a32cd" stroke="#9a32cd" points="375.3769,-140.209 384.6488,-145.3356 380.5976,-135.5459 375.3769,-140.209"/>
<text text-anchor="middle" x="390" y="-119" font-family="Helvetica,sans-Serif" font-size="10.00" fill="#000000"> c11Thread</text>
</g>
</g>
</svg>
