<?xml version="1.0" encoding="UTF-8" standalone="no"?>
<!DOCTYPE svg PUBLIC "-//W3C//DTD SVG 1.1//EN"
 "http://www.w3.org/Graphics/SVG/1.1/DTD/svg11.dtd">
<!-- Generated by graphviz version 2.40.1 (20161225.0304)
 -->
<!-- Title: ScopeInfo Pages: 1 -->
<svg width="1078pt" height="371pt"
 viewBox="0.00 0.00 1078.00 370.50" xmlns="http://www.w3.org/2000/svg" xmlns:xlink="http://www.w3.org/1999/xlink">
<g id="graph0" class="graph" transform="scale(1 1) rotate(0) translate(4 366.5042)">
<title>ScopeInfo</title>
<polygon fill="#ffffff" stroke="transparent" points="-4,4 -4,-366.5042 1074,-366.5042 1074,4 -4,4"/>
<!-- Node1 -->
<g id="node1" class="node">
<title>Node1</title>
<polygon fill="#bfbfbf" stroke="#000000" points="1009,-156.0042 1009,-175.0042 1070,-175.0042 1070,-156.0042 1009,-156.0042"/>
<text text-anchor="middle" x="1039.5" y="-163.0042" font-family="Helvetica,sans-Serif" font-size="10.00" fill="#000000">ScopeInfo</text>
</g>
<!-- Node3 -->
<g id="node2" class="node">
<title>Node3</title>
<g id="a_node2"><a xlink:title="STL class. ">
<polygon fill="#ffffff" stroke="#bfbfbf" points="745.5,-305.0042 745.5,-324.0042 811.5,-324.0042 811.5,-305.0042 745.5,-305.0042"/>
<text text-anchor="middle" x="778.5" y="-312.0042" font-family="Helvetica,sans-Serif" font-size="10.00" fill="#000000">map&lt;K, T&gt;</text>
</a>
</g>
</g>
<!-- Node3&#45;&gt;Node1 -->
<g id="edge2" class="edge">
<title>Node3&#45;&gt;Node1</title>
<path fill="none" stroke="#9a32cd" stroke-dasharray="5,2" d="M821.9609,-319.9151C868.6503,-323.2841 942.6406,-321.2571 991,-283.5042 1026.4415,-255.836 1036.1718,-197.8495 1038.6816,-175.0254"/>
<polygon fill="#9a32cd" stroke="#9a32cd" points="822.1155,-316.4159 811.8588,-319.0712 821.5327,-323.3916 822.1155,-316.4159"/>
<text text-anchor="middle" x="953.5" y="-317.5042" font-family="Helvetica,sans-Serif" font-size="10.00" fill="#000000"> threadDictionary</text>
</g>
<!-- Node6 -->
<g id="node3" class="node">
<title>Node6</title>
<polygon fill="#ffffff" stroke="#bfbfbf" points="690,-201.0042 690,-220.0042 867,-220.0042 867,-201.0042 690,-201.0042"/>
<text text-anchor="middle" x="778.5" y="-208.0042" font-family="Helvetica,sans-Serif" font-size="10.00" fill="#000000">vector&lt;lox::core::ScopeInfo::Scope&gt;</text>
</g>
<!-- Node6&#45;&gt;Node1 -->
<g id="edge5" class="edge">
<title>Node6&#45;&gt;Node1</title>
<path fill="none" stroke="#9a32cd" stroke-dasharray="5,2" d="M877.2154,-207.2647C913.5009,-204.2594 954.5989,-198.6958 991,-188.5042 1002.1276,-185.3887 1013.8544,-179.8951 1022.9891,-175.0582"/>
<polygon fill="#9a32cd" stroke="#9a32cd" points="876.8166,-203.785 867.1165,-208.0462 877.3568,-210.7641 876.8166,-203.785"/>
<text text-anchor="middle" x="953.5" y="-205.5042" font-family="Helvetica,sans-Serif" font-size="10.00" fill="#000000"> scopes</text>
</g>
<!-- Node13 -->
<g id="node4" class="node">
<title>Node13</title>
<polygon fill="#ffffff" stroke="#bfbfbf" points="659,-160.0042 659,-179.0042 898,-179.0042 898,-160.0042 659,-160.0042"/>
<text text-anchor="middle" x="778.5" y="-167.0042" font-family="Helvetica,sans-Serif" font-size="10.00" fill="#000000">vector&lt;lox::core::ScopeInfo::SourcePathTrimRule&gt;</text>
</g>
<!-- Node13&#45;&gt;Node1 -->
<g id="edge13" class="edge">
<title>Node13&#45;&gt;Node1</title>
<path fill="none" stroke="#9a32cd" stroke-dasharray="5,2" d="M908.2493,-166.625C910.8551,-166.5828 913.4409,-166.5425 916,-166.5042 947.6229,-166.0313 983.8042,-165.7713 1008.793,-165.636"/>
<polygon fill="#9a32cd" stroke="#9a32cd" points="908.0527,-163.1277 898.1132,-166.796 908.1708,-170.1267 908.0527,-163.1277"/>
<text text-anchor="middle" x="953.5" y="-180.5042" font-family="Helvetica,sans-Serif" font-size="10.00" fill="#000000"> GlobalSPTRs</text>
<text text-anchor="middle" x="953.5" y="-169.5042" font-family="Helvetica,sans-Serif" font-size="10.00" fill="#000000">LocalSPTRs</text>
</g>
<!-- Node2 -->
<g id="node5" class="node">
<title>Node2</title>
<g id="a_node5"><a xlink:href="classaworx_1_1lib_1_1strings_1_1StringBase.html" target="_top" xlink:title="StringBase\&lt;character\&gt;">
<polygon fill="#ffffff" stroke="#000000" points="720,-30.0042 720,-49.0042 837,-49.0042 837,-30.0042 720,-30.0042"/>
<text text-anchor="middle" x="778.5" y="-37.0042" font-family="Helvetica,sans-Serif" font-size="10.00" fill="#000000">StringBase&lt;character&gt;</text>
</a>
</g>
</g>
<!-- Node2&#45;&gt;Node1 -->
<g id="edge1" class="edge">
<title>Node2&#45;&gt;Node1</title>
<path fill="none" stroke="#9a32cd" stroke-dasharray="5,2" d="M847.3209,-31.9248C892.1534,-30.583 949.7605,-36.0328 991,-65.5042 1022.0832,-87.7175 1034.0975,-135.3902 1037.946,-155.8516"/>
<polygon fill="#9a32cd" stroke="#9a32cd" points="846.9351,-28.4378 837.0905,-32.3538 847.2285,-35.4316 846.9351,-28.4378"/>
<text text-anchor="middle" x="953.5" y="-68.5042" font-family="Helvetica,sans-Serif" font-size="10.00" fill="#000000"> threadName</text>
</g>
<!-- Node12 -->
<g id="node6" class="node">
<title>Node12</title>
<g id="a_node6"><a xlink:href="classaworx_1_1lib_1_1strings_1_1TStringBase.html" target="_top" xlink:title="TStringBase\&lt;nchar\&gt;">
<polygon fill="#ffffff" stroke="#ff0000" points="1,-201.0042 1,-220.0042 108,-220.0042 108,-201.0042 1,-201.0042"/>
<text text-anchor="middle" x="54.5" y="-208.0042" font-family="Helvetica,sans-Serif" font-size="10.00" fill="#000000">TStringBase&lt;nchar&gt;</text>
</a>
</g>
</g>
<!-- Node15 -->
<g id="node7" class="node">
<title>Node15</title>
<g id="a_node7"><a xlink:href="classaworx_1_1lib_1_1strings_1_1AStringBase.html" target="_top" xlink:title="AStringBase\&lt;nchar\&gt;">
<polygon fill="#ffffff" stroke="#000000" points="180,-117.0042 180,-136.0042 287,-136.0042 287,-117.0042 180,-117.0042"/>
<text text-anchor="middle" x="233.5" y="-124.0042" font-family="Helvetica,sans-Serif" font-size="10.00" fill="#000000">AStringBase&lt;nchar&gt;</text>
</a>
</g>
</g>
<!-- Node12&#45;&gt;Node15 -->
<g id="edge12" class="edge">
<title>Node12&#45;&gt;Node15</title>
<path fill="none" stroke="#191970" d="M80.0369,-195.9646C105.0491,-182.04 144.4747,-160.9264 180,-145.5042 187.7756,-142.1287 196.3646,-138.8769 204.3431,-136.0466"/>
<polygon fill="#191970" stroke="#191970" points="78.2053,-192.9789 71.1946,-200.9225 81.6288,-199.0846 78.2053,-192.9789"/>
</g>
<!-- Node7 -->
<g id="node12" class="node">
<title>Node7</title>
<g id="a_node12"><a xlink:href="structaworx_1_1lib_1_1lox_1_1core_1_1ScopeInfo_1_1Scope.html" target="_top" xlink:title="Scope">
<polygon fill="#ffffff" stroke="#000000" points="459.5,-201.0042 459.5,-220.0042 503.5,-220.0042 503.5,-201.0042 459.5,-201.0042"/>
<text text-anchor="middle" x="481.5" y="-208.0042" font-family="Helvetica,sans-Serif" font-size="10.00" fill="#000000">Scope</text>
</a>
</g>
</g>
<!-- Node12&#45;&gt;Node7 -->
<g id="edge10" class="edge">
<title>Node12&#45;&gt;Node7</title>
<path fill="none" stroke="#9a32cd" stroke-dasharray="5,2" d="M118.1492,-210.5042C215.4011,-210.5042 396.3264,-210.5042 459.247,-210.5042"/>
<polygon fill="#9a32cd" stroke="#9a32cd" points="118.1475,-207.0043 108.1475,-210.5042 118.1474,-214.0043 118.1475,-207.0043"/>
<text text-anchor="middle" x="233.5" y="-213.5042" font-family="Helvetica,sans-Serif" font-size="10.00" fill="#000000"> origMethod</text>
</g>
<!-- Node10 -->
<g id="node14" class="node">
<title>Node10</title>
<g id="a_node14"><a xlink:href="structaworx_1_1lib_1_1lox_1_1core_1_1ScopeInfo_1_1SourceFile.html" target="_top" xlink:title="Information of a single source file. Stored in field cache. ">
<polygon fill="#ffffff" stroke="#ff0000" points="202,-240.0042 202,-259.0042 265,-259.0042 265,-240.0042 202,-240.0042"/>
<text text-anchor="middle" x="233.5" y="-247.0042" font-family="Helvetica,sans-Serif" font-size="10.00" fill="#000000">SourceFile</text>
</a>
</g>
</g>
<!-- Node12&#45;&gt;Node10 -->
<g id="edge11" class="edge">
<title>Node12&#45;&gt;Node10</title>
<path fill="none" stroke="#9a32cd" stroke-dasharray="5,2" d="M108.37,-222.2413C138.9228,-228.898 176.096,-236.9972 201.9506,-242.6303"/>
<polygon fill="#9a32cd" stroke="#9a32cd" points="108.8042,-218.7538 98.2883,-220.0447 107.314,-225.5934 108.8042,-218.7538"/>
<text text-anchor="middle" x="144.5" y="-235.5042" font-family="Helvetica,sans-Serif" font-size="10.00" fill="#000000"> origFile</text>
</g>
<!-- Node16 -->
<g id="node9" class="node">
<title>Node16</title>
<g id="a_node9"><a xlink:href="classaworx_1_1lib_1_1strings_1_1PreallocatedStringBase.html" target="_top" xlink:title="PreallocatedStringBase\&lt;TChar\&gt;">
<polygon fill="#ffffff" stroke="#000000" points="403,-99.0042 403,-118.0042 560,-118.0042 560,-99.0042 403,-99.0042"/>
<text text-anchor="middle" x="481.5" y="-106.0042" font-family="Helvetica,sans-Serif" font-size="10.00" fill="#000000">PreallocatedStringBase&lt;TChar&gt;</text>
</a>
</g>
</g>
<!-- Node15&#45;&gt;Node16 -->
<g id="edge16" class="edge">
<title>Node15&#45;&gt;Node16</title>
<path fill="none" stroke="#191970" d="M297.3774,-121.0932C299.9517,-120.8912 302.5003,-120.6941 305,-120.5042 337.003,-118.0737 372.2887,-115.6279 402.8445,-113.5843"/>
<polygon fill="#191970" stroke="#191970" points="297.0594,-117.6073 287.3695,-121.8918 297.6163,-124.5851 297.0594,-117.6073"/>
</g>
<!-- Node14 -->
<g id="node15" class="node">
<title>Node14</title>
<g id="a_node15"><a xlink:href="structaworx_1_1lib_1_1lox_1_1core_1_1ScopeInfo_1_1SourcePathTrimRule.html" target="_top" xlink:title="Defines portions of source paths to be ignored. ">
<polygon fill="#ffffff" stroke="#000000" points="428,-148.0042 428,-167.0042 535,-167.0042 535,-148.0042 428,-148.0042"/>
<text text-anchor="middle" x="481.5" y="-155.0042" font-family="Helvetica,sans-Serif" font-size="10.00" fill="#000000">SourcePathTrimRule</text>
</a>
</g>
</g>
<!-- Node15&#45;&gt;Node14 -->
<g id="edge15" class="edge">
<title>Node15&#45;&gt;Node14</title>
<path fill="none" stroke="#9a32cd" stroke-dasharray="5,2" d="M297.3864,-131.235C324.466,-133.5438 356.3304,-136.6609 385,-140.5042 400.3432,-142.5611 416.9719,-145.3037 432.0334,-147.9847"/>
<polygon fill="#9a32cd" stroke="#9a32cd" points="297.5153,-127.7337 287.2588,-130.3899 296.9331,-134.7094 297.5153,-127.7337"/>
<text text-anchor="middle" x="345" y="-154.5042" font-family="Helvetica,sans-Serif" font-size="10.00" fill="#000000"> TrimReplacement</text>
<text text-anchor="middle" x="345" y="-143.5042" font-family="Helvetica,sans-Serif" font-size="10.00" fill="#000000">Path</text>
</g>
<!-- Node18 -->
<g id="node8" class="node">
<title>Node18</title>
<g id="a_node8"><a xlink:href="classaworx_1_1lib_1_1strings_1_1TStringBase.html" target="_top" xlink:title="TStringBase\&lt;TChar\&gt;">
<polygon fill="#ffffff" stroke="#ff0000" points="0,-117.0042 0,-136.0042 109,-136.0042 109,-117.0042 0,-117.0042"/>
<text text-anchor="middle" x="54.5" y="-124.0042" font-family="Helvetica,sans-Serif" font-size="10.00" fill="#000000">TStringBase&lt;TChar&gt;</text>
</a>
</g>
</g>
<!-- Node18&#45;&gt;Node15 -->
<g id="edge19" class="edge">
<title>Node18&#45;&gt;Node15</title>
<path fill="none" stroke="#191970" d="M119.3648,-126.5042C139.1924,-126.5042 160.7694,-126.5042 179.7714,-126.5042"/>
<polygon fill="#191970" stroke="#191970" points="119.1786,-123.0043 109.1785,-126.5042 119.1785,-130.0043 119.1786,-123.0043"/>
</g>
<!-- Node16&#45;&gt;Node1 -->
<g id="edge17" class="edge">
<title>Node16&#45;&gt;Node1</title>
<path fill="none" stroke="#9a32cd" stroke-dasharray="5,2" d="M570.1255,-112.337C654.6344,-116.644 785.3563,-125.0059 898,-139.5042 936.398,-144.4464 980.1712,-152.9353 1008.7342,-158.8643"/>
<polygon fill="#9a32cd" stroke="#9a32cd" points="570.2158,-108.8373 560.0529,-111.8317 569.865,-115.8285 570.2158,-108.8373"/>
<text text-anchor="middle" x="778.5" y="-142.5042" font-family="Helvetica,sans-Serif" font-size="10.00" fill="#000000"> loxName</text>
</g>
<!-- Node21 -->
<g id="node16" class="node">
<title>Node21</title>
<g id="a_node16"><a xlink:href="classaworx_1_1lib_1_1threads_1_1Thread.html" target="_top" xlink:title="Thread">
<polygon fill="#ffffff" stroke="#000000" points="755,-68.0042 755,-87.0042 802,-87.0042 802,-68.0042 755,-68.0042"/>
<text text-anchor="middle" x="778.5" y="-75.0042" font-family="Helvetica,sans-Serif" font-size="10.00" fill="#000000">Thread</text>
</a>
</g>
</g>
<!-- Node16&#45;&gt;Node21 -->
<g id="edge18" class="edge">
<title>Node16&#45;&gt;Node21</title>
<path fill="none" stroke="#9a32cd" stroke-dasharray="5,2" d="M570.3759,-99.2276C634.0852,-92.5778 715.3515,-84.0955 754.8357,-79.9742"/>
<polygon fill="#9a32cd" stroke="#9a32cd" points="569.8934,-95.7589 560.3108,-100.2782 570.6201,-102.7211 569.8934,-95.7589"/>
<text text-anchor="middle" x="609.5" y="-100.5042" font-family="Helvetica,sans-Serif" font-size="10.00" fill="#000000"> name</text>
</g>
<!-- Node4 -->
<g id="node10" class="node">
<title>Node4</title>
<polygon fill="#ffffff" stroke="#bfbfbf" points="467,-343.0042 467,-362.0042 496,-362.0042 496,-343.0042 467,-343.0042"/>
<text text-anchor="middle" x="481.5" y="-350.0042" font-family="Helvetica,sans-Serif" font-size="10.00" fill="#000000">K</text>
</g>
<!-- Node4&#45;&gt;Node3 -->
<g id="edge3" class="edge">
<title>Node4&#45;&gt;Node3</title>
<path fill="none" stroke="#9a32cd" stroke-dasharray="5,2" d="M506.1555,-349.3497C559.403,-342.5369 685.1883,-326.4431 745.3385,-318.7471"/>
<polygon fill="#9a32cd" stroke="#9a32cd" points="505.7032,-345.8789 496.2283,-350.6198 506.5916,-352.8223 505.7032,-345.8789"/>
<text text-anchor="middle" x="609.5" y="-341.5042" font-family="Helvetica,sans-Serif" font-size="10.00" fill="#000000"> keys</text>
</g>
<!-- Node5 -->
<g id="node11" class="node">
<title>Node5</title>
<polygon fill="#ffffff" stroke="#bfbfbf" points="467,-305.0042 467,-324.0042 496,-324.0042 496,-305.0042 467,-305.0042"/>
<text text-anchor="middle" x="481.5" y="-312.0042" font-family="Helvetica,sans-Serif" font-size="10.00" fill="#000000">T</text>
</g>
<!-- Node5&#45;&gt;Node3 -->
<g id="edge4" class="edge">
<title>Node5&#45;&gt;Node3</title>
<path fill="none" stroke="#9a32cd" stroke-dasharray="5,2" d="M506.4899,-314.5042C559.9279,-314.5042 685.3139,-314.5042 745.3385,-314.5042"/>
<polygon fill="#9a32cd" stroke="#9a32cd" points="506.2283,-311.0043 496.2283,-314.5042 506.2282,-318.0043 506.2283,-311.0043"/>
<text text-anchor="middle" x="609.5" y="-317.5042" font-family="Helvetica,sans-Serif" font-size="10.00" fill="#000000"> elements</text>
</g>
<!-- Node7&#45;&gt;Node6 -->
<g id="edge6" class="edge">
<title>Node7&#45;&gt;Node6</title>
<path fill="none" stroke="#9a32cd" stroke-dasharray="5,2" d="M513.9946,-210.5042C555.9059,-210.5042 630.4606,-210.5042 689.758,-210.5042"/>
<polygon fill="#9a32cd" stroke="#9a32cd" points="513.8233,-207.0043 503.8233,-210.5042 513.8232,-214.0043 513.8233,-207.0043"/>
<text text-anchor="middle" x="609.5" y="-213.5042" font-family="Helvetica,sans-Serif" font-size="10.00" fill="#000000"> elements</text>
</g>
<!-- Node8 -->
<g id="node13" class="node">
<title>Node8</title>
<g id="a_node13"><a xlink:href="classaworx_1_1lib_1_1time_1_1Ticks.html" target="_top" xlink:title="Ticks">
<polygon fill="#ffffff" stroke="#ff0000" points="213,-155.0042 213,-174.0042 254,-174.0042 254,-155.0042 213,-155.0042"/>
<text text-anchor="middle" x="233.5" y="-162.0042" font-family="Helvetica,sans-Serif" font-size="10.00" fill="#000000">Ticks</text>
</a>
</g>
</g>
<!-- Node8&#45;&gt;Node7 -->
<g id="edge7" class="edge">
<title>Node8&#45;&gt;Node7</title>
<path fill="none" stroke="#9a32cd" stroke-dasharray="5,2" d="M264.3003,-167.7151C295.035,-171.167 343.526,-177.2862 385,-185.5042 410.8043,-190.6173 439.986,-198.4721 459.4374,-204.0102"/>
<polygon fill="#9a32cd" stroke="#9a32cd" points="264.5328,-164.2196 254.2103,-166.6062 263.7681,-171.1777 264.5328,-164.2196"/>
<text text-anchor="middle" x="345" y="-188.5042" font-family="Helvetica,sans-Serif" font-size="10.00" fill="#000000"> timeStamp</text>
</g>
<!-- Node10&#45;&gt;Node1 -->
<g id="edge8" class="edge">
<title>Node10&#45;&gt;Node1</title>
<path fill="none" stroke="#9a32cd" stroke-dasharray="5,2" d="M275.4158,-251.5574C285.1269,-251.9514 295.4219,-252.3034 305,-252.5042 340.5477,-253.2497 349.4534,-253.3007 385,-252.5042 613.1718,-247.3918 670.6255,-249.2359 898,-229.5042 939.52,-225.9011 953.9239,-236.5371 991,-217.5042 1010.1095,-207.6945 1025.6478,-187.1971 1033.6414,-175.0725"/>
<polygon fill="#9a32cd" stroke="#9a32cd" points="275.3096,-248.0498 265.169,-251.1187 275.0101,-255.0434 275.3096,-248.0498"/>
<text text-anchor="middle" x="609.5" y="-261.5042" font-family="Helvetica,sans-Serif" font-size="10.00" fill="#000000"> cache</text>
<text text-anchor="middle" x="609.5" y="-250.5042" font-family="Helvetica,sans-Serif" font-size="10.00" fill="#000000">lastSourceFile</text>
</g>
<!-- Node10&#45;&gt;Node7 -->
<g id="edge9" class="edge">
<title>Node10&#45;&gt;Node7</title>
<path fill="none" stroke="#9a32cd" stroke-dasharray="5,2" d="M275.2468,-242.9392C328.2329,-234.6067 417.7182,-220.5344 459.1785,-214.0145"/>
<polygon fill="#9a32cd" stroke="#9a32cd" points="274.4961,-239.5142 265.1613,-244.5252 275.5836,-246.4292 274.4961,-239.5142"/>
<text text-anchor="middle" x="345" y="-240.5042" font-family="Helvetica,sans-Serif" font-size="10.00" fill="#000000"> sourceFile</text>
</g>
<!-- Node14&#45;&gt;Node13 -->
<g id="edge14" class="edge">
<title>Node14&#45;&gt;Node13</title>
<path fill="none" stroke="#9a32cd" stroke-dasharray="5,2" d="M545.2895,-160.0816C578.4437,-161.4212 620.0621,-163.1027 658.9299,-164.6731"/>
<polygon fill="#9a32cd" stroke="#9a32cd" points="545.4176,-156.584 535.2845,-159.6773 545.135,-163.5783 545.4176,-156.584"/>
<text text-anchor="middle" x="609.5" y="-166.5042" font-family="Helvetica,sans-Serif" font-size="10.00" fill="#000000"> elements</text>
</g>
<!-- Node21&#45;&gt;Node1 -->
<g id="edge20" class="edge">
<title>Node21&#45;&gt;Node1</title>
<path fill="none" stroke="#9a32cd" stroke-dasharray="5,2" d="M812.4493,-74.5413C856.5234,-72.2811 934.4777,-73.8136 991,-105.5042 1012.0297,-117.2951 1027.4641,-142.1681 1034.7748,-155.8973"/>
<polygon fill="#9a32cd" stroke="#9a32cd" points="812.0373,-71.0598 802.2693,-75.1629 812.464,-78.0468 812.0373,-71.0598"/>
<text text-anchor="middle" x="953.5" y="-108.5042" font-family="Helvetica,sans-Serif" font-size="10.00" fill="#000000"> thread</text>
</g>
<!-- Node22 -->
<g id="node17" class="node">
<title>Node22</title>
<g id="a_node17"><a xlink:href="classaworx_1_1lib_1_1threads_1_1Runnable.html" target="_top" xlink:title="Runnable">
<polygon fill="#ffffff" stroke="#000000" points="452.5,-8.0042 452.5,-27.0042 510.5,-27.0042 510.5,-8.0042 452.5,-8.0042"/>
<text text-anchor="middle" x="481.5" y="-15.0042" font-family="Helvetica,sans-Serif" font-size="10.00" fill="#000000">Runnable</text>
</a>
</g>
</g>
<!-- Node22&#45;&gt;Node21 -->
<g id="edge21" class="edge">
<title>Node22&#45;&gt;Node21</title>
<path fill="none" stroke="#191970" d="M520.8504,-6.2761C555.3815,1.1286 605.4917,5.6864 641,-17.5042 657.6622,-28.3864 643.2466,-46.3437 659,-58.5042 686.6041,-79.8128 728.6555,-81.4758 754.811,-80.0114"/>
<polygon fill="#191970" stroke="#191970" points="519.618,-2.9689 510.6674,-8.6379 521.1996,-9.7879 519.618,-2.9689"/>
</g>
<!-- Node22&#45;&gt;Node21 -->
<g id="edge22" class="edge">
<title>Node22&#45;&gt;Node21</title>
<path fill="none" stroke="#9a32cd" stroke-dasharray="5,2" d="M520.6225,-27.3631C556.4775,-36.2023 611.1077,-49.1773 659,-58.5042 691.9916,-64.9293 730.4234,-70.7449 754.6078,-74.2031"/>
<polygon fill="#9a32cd" stroke="#9a32cd" points="521.1262,-23.8822 510.5779,-24.8739 519.4424,-30.6766 521.1262,-23.8822"/>
<text text-anchor="middle" x="609.5" y="-58.5042" font-family="Helvetica,sans-Serif" font-size="10.00" fill="#000000"> runnable</text>
</g>
<!-- Node25 -->
<g id="node18" class="node">
<title>Node25</title>
<g id="a_node18"><a xlink:title="STL class. ">
<polygon fill="#ffffff" stroke="#bfbfbf" points="459.5,-61.0042 459.5,-80.0042 503.5,-80.0042 503.5,-61.0042 459.5,-61.0042"/>
<text text-anchor="middle" x="481.5" y="-68.0042" font-family="Helvetica,sans-Serif" font-size="10.00" fill="#000000">thread</text>
</a>
</g>
</g>
<!-- Node25&#45;&gt;Node21 -->
<g id="edge23" class="edge">
<title>Node25&#45;&gt;Node21</title>
<path fill="none" stroke="#9a32cd" stroke-dasharray="5,2" d="M513.8725,-70.3533C546.101,-70.2864 596.9777,-70.4061 641,-71.5042 680.891,-72.4993 727.2501,-74.7494 754.6628,-76.1937"/>
<polygon fill="#9a32cd" stroke="#9a32cd" points="513.6846,-66.8537 503.6946,-70.382 513.7044,-73.8537 513.6846,-66.8537"/>
<text text-anchor="middle" x="609.5" y="-74.5042" font-family="Helvetica,sans-Serif" font-size="10.00" fill="#000000"> c11Thread</text>
</g>
</g>
</svg>
