<?xml version="1.0" encoding="UTF-8" standalone="no"?>
<!DOCTYPE svg PUBLIC "-//W3C//DTD SVG 1.1//EN"
 "http://www.w3.org/Graphics/SVG/1.1/DTD/svg11.dtd">
<!-- Generated by graphviz version 2.40.1 (20161225.0304)
 -->
<!-- Title: InMemoryPlugin Pages: 1 -->
<svg width="794pt" height="142pt"
 viewBox="0.00 0.00 794.00 142.00" xmlns="http://www.w3.org/2000/svg" xmlns:xlink="http://www.w3.org/1999/xlink">
<g id="graph0" class="graph" transform="scale(1 1) rotate(0) translate(4 138)">
<title>InMemoryPlugin</title>
<polygon fill="#ffffff" stroke="transparent" points="-4,4 -4,-138 790,-138 790,4 -4,4"/>
<!-- Node3 -->
<g id="node1" class="node">
<title>Node3</title>
<polygon fill="#bfbfbf" stroke="#000000" points="699,-38.5 699,-57.5 786,-57.5 786,-38.5 699,-38.5"/>
<text text-anchor="middle" x="742.5" y="-45.5" font-family="Helvetica,sans-Serif" font-size="10.00" fill="#000000">InMemoryPlugin</text>
</g>
<!-- Node7 -->
<g id="node2" class="node">
<title>Node7</title>
<polygon fill="#ffffff" stroke="#bfbfbf" points="449,-76.5 449,-95.5 621,-95.5 621,-76.5 449,-76.5"/>
<text text-anchor="middle" x="535" y="-83.5" font-family="Helvetica,sans-Serif" font-size="10.00" fill="#000000">vector&lt;InMemoryPlugin::Section *&gt;</text>
</g>
<!-- Node7&#45;&gt;Node3 -->
<g id="edge4" class="edge">
<title>Node7&#45;&gt;Node3</title>
<path fill="none" stroke="#9a32cd" stroke-dasharray="5,2" d="M608.2014,-74.8625C631.5225,-71.0747 657.394,-66.6226 681,-62 687.8775,-60.6532 695.16,-59.1048 702.2152,-57.5398"/>
<polygon fill="#9a32cd" stroke="#9a32cd" points="607.3482,-71.4546 598.0312,-76.4988 608.4603,-78.3658 607.3482,-71.4546"/>
<text text-anchor="middle" x="660" y="-72" font-family="Helvetica,sans-Serif" font-size="10.00" fill="#000000"> Sections</text>
</g>
<!-- Node14 -->
<g id="node3" class="node">
<title>Node14</title>
<polygon fill="#ffffff" stroke="#bfbfbf" points="0,-114.5 0,-133.5 162,-133.5 162,-114.5 0,-114.5"/>
<text text-anchor="middle" x="81" y="-121.5" font-family="Helvetica,sans-Serif" font-size="10.00" fill="#000000">vector&lt;InMemoryPlugin::Entry *&gt;</text>
</g>
<!-- Node8 -->
<g id="node9" class="node">
<title>Node8</title>
<g id="a_node9"><a xlink:href="classaworx_1_1lib_1_1config_1_1InMemoryPlugin_1_1Section.html" target="_top" xlink:title="Section">
<polygon fill="#ffffff" stroke="#000000" points="257.5,-76.5 257.5,-95.5 307.5,-95.5 307.5,-76.5 257.5,-76.5"/>
<text text-anchor="middle" x="282.5" y="-83.5" font-family="Helvetica,sans-Serif" font-size="10.00" fill="#000000">Section</text>
</a>
</g>
</g>
<!-- Node14&#45;&gt;Node8 -->
<g id="edge7" class="edge">
<title>Node14&#45;&gt;Node8</title>
<path fill="none" stroke="#9a32cd" stroke-dasharray="5,2" d="M167.3955,-112.9325C188.6267,-109.6385 211.2231,-105.6449 232,-101 240.3008,-99.1443 249.2352,-96.6572 257.2474,-94.2425"/>
<polygon fill="#9a32cd" stroke="#9a32cd" points="166.7858,-109.4848 157.4236,-114.4447 167.8353,-116.4057 166.7858,-109.4848"/>
<text text-anchor="middle" x="206" y="-113" font-family="Helvetica,sans-Serif" font-size="10.00" fill="#000000"> Entries</text>
</g>
<!-- Node6 -->
<g id="node4" class="node">
<title>Node6</title>
<g id="a_node4"><a xlink:href="classaworx_1_1lib_1_1strings_1_1StringBase.html" target="_top" xlink:title="StringBase\&lt;character\&gt;">
<polygon fill="#ffffff" stroke="#000000" points="476.5,-38.5 476.5,-57.5 593.5,-57.5 593.5,-38.5 476.5,-38.5"/>
<text text-anchor="middle" x="535" y="-45.5" font-family="Helvetica,sans-Serif" font-size="10.00" fill="#000000">StringBase&lt;character&gt;</text>
</a>
</g>
</g>
<!-- Node6&#45;&gt;Node3 -->
<g id="edge3" class="edge">
<title>Node6&#45;&gt;Node3</title>
<path fill="none" stroke="#9a32cd" stroke-dasharray="5,2" d="M603.63,-48C635.0115,-48 671.2531,-48 698.8426,-48"/>
<polygon fill="#9a32cd" stroke="#9a32cd" points="603.6292,-44.5001 593.6291,-48 603.6291,-51.5001 603.6292,-44.5001"/>
<text text-anchor="middle" x="660" y="-51" font-family="Helvetica,sans-Serif" font-size="10.00" fill="#000000"> name</text>
</g>
<!-- Node18 -->
<g id="node5" class="node">
<title>Node18</title>
<g id="a_node5"><a xlink:href="classaworx_1_1lib_1_1strings_1_1AStringBase.html" target="_top" xlink:title="AStringBase\&lt;character\&gt;">
<polygon fill="#ffffff" stroke="#ff0000" points="19,-76.5 19,-95.5 143,-95.5 143,-76.5 19,-76.5"/>
<text text-anchor="middle" x="81" y="-83.5" font-family="Helvetica,sans-Serif" font-size="10.00" fill="#000000">AStringBase&lt;character&gt;</text>
</a>
</g>
</g>
<!-- Node18&#45;&gt;Node8 -->
<g id="edge8" class="edge">
<title>Node18&#45;&gt;Node8</title>
<path fill="none" stroke="#9a32cd" stroke-dasharray="5,2" d="M153.2074,-86C189.6118,-86 231.4352,-86 257.4182,-86"/>
<polygon fill="#9a32cd" stroke="#9a32cd" points="153.1009,-82.5001 143.1008,-86 153.1008,-89.5001 153.1009,-82.5001"/>
<text text-anchor="middle" x="206" y="-89" font-family="Helvetica,sans-Serif" font-size="10.00" fill="#000000"> Comments</text>
</g>
<!-- Node9 -->
<g id="node6" class="node">
<title>Node9</title>
<g id="a_node6"><a xlink:href="classaworx_1_1lib_1_1strings_1_1PreallocatedStringBase.html" target="_top" xlink:title="PreallocatedStringBase\&lt;TChar\&gt;">
<polygon fill="#ffffff" stroke="#ff0000" points="2.5,-38.5 2.5,-57.5 159.5,-57.5 159.5,-38.5 2.5,-38.5"/>
<text text-anchor="middle" x="81" y="-45.5" font-family="Helvetica,sans-Serif" font-size="10.00" fill="#000000">PreallocatedStringBase&lt;TChar&gt;</text>
</a>
</g>
</g>
<!-- Node9&#45;&gt;Node8 -->
<g id="edge6" class="edge">
<title>Node9&#45;&gt;Node8</title>
<path fill="none" stroke="#9a32cd" stroke-dasharray="5,2" d="M167.3955,-59.0675C188.6267,-62.3615 211.2231,-66.3551 232,-71 240.3008,-72.8557 249.2352,-75.3428 257.2474,-77.7575"/>
<polygon fill="#9a32cd" stroke="#9a32cd" points="167.8353,-55.5943 157.4236,-57.5553 166.7858,-62.5152 167.8353,-55.5943"/>
<text text-anchor="middle" x="206" y="-74" font-family="Helvetica,sans-Serif" font-size="10.00" fill="#000000"> Name</text>
</g>
<!-- Node4 -->
<g id="node7" class="node">
<title>Node4</title>
<g id="a_node7"><a xlink:href="classaworx_1_1lib_1_1config_1_1ConfigurationPlugin.html" target="_top" xlink:title="ConfigurationPlugin">
<polygon fill="#ffffff" stroke="#000000" points="484.5,-.5 484.5,-19.5 585.5,-19.5 585.5,-.5 484.5,-.5"/>
<text text-anchor="middle" x="535" y="-7.5" font-family="Helvetica,sans-Serif" font-size="10.00" fill="#000000">ConfigurationPlugin</text>
</a>
</g>
</g>
<!-- Node4&#45;&gt;Node3 -->
<g id="edge1" class="edge">
<title>Node4&#45;&gt;Node3</title>
<path fill="none" stroke="#191970" d="M595.7779,-21.1304C628.8507,-27.1871 668.9998,-34.5397 698.933,-40.0215"/>
<polygon fill="#191970" stroke="#191970" points="596.2271,-17.6545 585.7602,-19.2958 594.9661,-24.54 596.2271,-17.6545"/>
</g>
<!-- Node5 -->
<g id="node8" class="node">
<title>Node5</title>
<g id="a_node8"><a xlink:href="classaworx_1_1lib_1_1config_1_1XTernalizer.html" target="_top" xlink:title="XTernalizer">
<polygon fill="#ffffff" stroke="#000000" points="250,-.5 250,-19.5 315,-19.5 315,-.5 250,-.5"/>
<text text-anchor="middle" x="282.5" y="-7.5" font-family="Helvetica,sans-Serif" font-size="10.00" fill="#000000">XTernalizer</text>
</a>
</g>
</g>
<!-- Node5&#45;&gt;Node4 -->
<g id="edge2" class="edge">
<title>Node5&#45;&gt;Node4</title>
<path fill="none" stroke="#9a32cd" stroke-dasharray="5,2" d="M325.3373,-10C369.3351,-10 437.7948,-10 484.4257,-10"/>
<polygon fill="#9a32cd" stroke="#9a32cd" points="325.2511,-6.5001 315.2511,-10 325.2511,-13.5001 325.2511,-6.5001"/>
<text text-anchor="middle" x="382" y="-24" font-family="Helvetica,sans-Serif" font-size="10.00" fill="#000000"> StringConverter</text>
<text text-anchor="middle" x="382" y="-13" font-family="Helvetica,sans-Serif" font-size="10.00" fill="#000000">defaultStringConverter</text>
</g>
<!-- Node8&#45;&gt;Node7 -->
<g id="edge5" class="edge">
<title>Node8&#45;&gt;Node7</title>
<path fill="none" stroke="#9a32cd" stroke-dasharray="5,2" d="M317.9431,-86C351.8,-86 404.1611,-86 448.9726,-86"/>
<polygon fill="#9a32cd" stroke="#9a32cd" points="317.6338,-82.5001 307.6338,-86 317.6338,-89.5001 317.6338,-82.5001"/>
<text text-anchor="middle" x="382" y="-89" font-family="Helvetica,sans-Serif" font-size="10.00" fill="#000000"> elements</text>
</g>
</g>
</svg>
