<?xml version="1.0" encoding="UTF-8" standalone="no"?>
<!DOCTYPE svg PUBLIC "-//W3C//DTD SVG 1.1//EN"
 "http://www.w3.org/Graphics/SVG/1.1/DTD/svg11.dtd">
<!-- Generated by graphviz version 2.40.1 (20161225.0304)
 -->
<!-- Title: Tokenizer Pages: 1 -->
<svg width="316pt" height="220pt"
 viewBox="0.00 0.00 316.00 220.00" xmlns="http://www.w3.org/2000/svg" xmlns:xlink="http://www.w3.org/1999/xlink">
<g id="graph0" class="graph" transform="scale(1 1) rotate(0) translate(4 216)">
<title>Tokenizer</title>
<polygon fill="#ffffff" stroke="transparent" points="-4,4 -4,-216 312,-216 312,4 -4,4"/>
<!-- Node1 -->
<g id="node1" class="node">
<title>Node1</title>
<polygon fill="#bfbfbf" stroke="#000000" points="118,-.5 118,-19.5 177,-19.5 177,-.5 118,-.5"/>
<text text-anchor="middle" x="147.5" y="-7.5" font-family="Helvetica,sans-Serif" font-size="10.00" fill="#000000">Tokenizer</text>
</g>
<!-- Node2 -->
<g id="node2" class="node">
<title>Node2</title>
<g id="a_node2"><a xlink:href="classaworx_1_1lib_1_1strings_1_1SubstringBase.html" target="_top" xlink:title="SubstringBase\&lt;character\&gt;">
<polygon fill="#ffffff" stroke="#000000" points="0,-78.5 0,-97.5 133,-97.5 133,-78.5 0,-78.5"/>
<text text-anchor="middle" x="66.5" y="-85.5" font-family="Helvetica,sans-Serif" font-size="10.00" fill="#000000">SubstringBase&lt;character&gt;</text>
</a>
</g>
</g>
<!-- Node2&#45;&gt;Node1 -->
<g id="edge1" class="edge">
<title>Node2&#45;&gt;Node1</title>
<path fill="none" stroke="#9a32cd" stroke-dasharray="5,2" d="M83.7632,-71.3762C100.108,-55.6367 124.0838,-32.5489 137.4866,-19.6426"/>
<polygon fill="#9a32cd" stroke="#9a32cd" points="81.2077,-68.9781 76.4322,-78.4357 86.0632,-74.0204 81.2077,-68.9781"/>
<text text-anchor="middle" x="130.5" y="-52" font-family="Helvetica,sans-Serif" font-size="10.00" fill="#000000"> Rest</text>
<text text-anchor="middle" x="130.5" y="-41" font-family="Helvetica,sans-Serif" font-size="10.00" fill="#000000">Actual</text>
</g>
<!-- Node3 -->
<g id="node3" class="node">
<title>Node3</title>
<g id="a_node3"><a xlink:href="classaworx_1_1lib_1_1strings_1_1StringBase.html" target="_top" xlink:title="StringBase\&lt;character\&gt;">
<polygon fill="#ffffff" stroke="#000000" points="8,-135.5 8,-154.5 125,-154.5 125,-135.5 8,-135.5"/>
<text text-anchor="middle" x="66.5" y="-142.5" font-family="Helvetica,sans-Serif" font-size="10.00" fill="#000000">StringBase&lt;character&gt;</text>
</a>
</g>
</g>
<!-- Node3&#45;&gt;Node2 -->
<g id="edge2" class="edge">
<title>Node3&#45;&gt;Node2</title>
<path fill="none" stroke="#191970" d="M66.5,-125.2342C66.5,-115.8491 66.5,-105.0651 66.5,-97.5265"/>
<polygon fill="#191970" stroke="#191970" points="63.0001,-125.3307 66.5,-135.3307 70.0001,-125.3308 63.0001,-125.3307"/>
</g>
<!-- Node6 -->
<g id="node4" class="node">
<title>Node6</title>
<g id="a_node4"><a xlink:href="classaworx_1_1lib_1_1strings_1_1TStringBase.html" target="_top" xlink:title="TStringBase\&lt;TChar\&gt;">
<polygon fill="#ffffff" stroke="#ff0000" points="175,-192.5 175,-211.5 284,-211.5 284,-192.5 175,-192.5"/>
<text text-anchor="middle" x="229.5" y="-199.5" font-family="Helvetica,sans-Serif" font-size="10.00" fill="#000000">TStringBase&lt;TChar&gt;</text>
</a>
</g>
</g>
<!-- Node5 -->
<g id="node6" class="node">
<title>Node5</title>
<g id="a_node6"><a xlink:href="classaworx_1_1lib_1_1strings_1_1AStringBase.html" target="_top" xlink:title="AStringBase\&lt;nchar\&gt;">
<polygon fill="#ffffff" stroke="#000000" points="176,-135.5 176,-154.5 283,-154.5 283,-135.5 176,-135.5"/>
<text text-anchor="middle" x="229.5" y="-142.5" font-family="Helvetica,sans-Serif" font-size="10.00" fill="#000000">AStringBase&lt;nchar&gt;</text>
</a>
</g>
</g>
<!-- Node6&#45;&gt;Node5 -->
<g id="edge5" class="edge">
<title>Node6&#45;&gt;Node5</title>
<path fill="none" stroke="#191970" d="M229.5,-182.2342C229.5,-172.8491 229.5,-162.0651 229.5,-154.5265"/>
<polygon fill="#191970" stroke="#191970" points="226.0001,-182.3307 229.5,-192.3307 233.0001,-182.3308 226.0001,-182.3307"/>
</g>
<!-- Node4 -->
<g id="node5" class="node">
<title>Node4</title>
<g id="a_node5"><a xlink:href="classaworx_1_1lib_1_1strings_1_1PreallocatedStringBase.html" target="_top" xlink:title="PreallocatedStringBase\&lt;TChar\&gt;">
<polygon fill="#ffffff" stroke="#000000" points="151,-78.5 151,-97.5 308,-97.5 308,-78.5 151,-78.5"/>
<text text-anchor="middle" x="229.5" y="-85.5" font-family="Helvetica,sans-Serif" font-size="10.00" fill="#000000">PreallocatedStringBase&lt;TChar&gt;</text>
</a>
</g>
</g>
<!-- Node4&#45;&gt;Node1 -->
<g id="edge3" class="edge">
<title>Node4&#45;&gt;Node1</title>
<path fill="none" stroke="#9a32cd" stroke-dasharray="5,2" d="M212.0236,-71.3762C195.4771,-55.6367 171.2053,-32.5489 157.6371,-19.6426"/>
<polygon fill="#9a32cd" stroke="#9a32cd" points="209.7873,-74.0795 219.4452,-78.4357 214.6118,-69.0075 209.7873,-74.0795"/>
<text text-anchor="middle" x="228" y="-46.5" font-family="Helvetica,sans-Serif" font-size="10.00" fill="#000000"> Whitespaces</text>
</g>
<!-- Node5&#45;&gt;Node4 -->
<g id="edge4" class="edge">
<title>Node5&#45;&gt;Node4</title>
<path fill="none" stroke="#191970" d="M229.5,-125.2342C229.5,-115.8491 229.5,-105.0651 229.5,-97.5265"/>
<polygon fill="#191970" stroke="#191970" points="226.0001,-125.3307 229.5,-135.3307 233.0001,-125.3308 226.0001,-125.3307"/>
</g>
</g>
</svg>
