<?xml version="1.0" encoding="UTF-8" standalone="no"?>
<!DOCTYPE svg PUBLIC "-//W3C//DTD SVG 1.1//EN"
 "http://www.w3.org/Graphics/SVG/1.1/DTD/svg11.dtd">
<!-- Generated by graphviz version 2.40.1 (20161225.0304)
 -->
<!-- Title: ALib Pages: 1 -->
<svg width="1387pt" height="351pt"
 viewBox="0.00 0.00 1387.00 351.06" xmlns="http://www.w3.org/2000/svg" xmlns:xlink="http://www.w3.org/1999/xlink">
<g id="graph0" class="graph" transform="scale(1 1) rotate(0) translate(4 347.0642)">
<title>ALib</title>
<polygon fill="#ffffff" stroke="transparent" points="-4,4 -4,-347.0642 1383,-347.0642 1383,4 -4,4"/>
<!-- Node2 -->
<g id="node1" class="node">
<title>Node2</title>
<polygon fill="#bfbfbf" stroke="#000000" points="1315,-186.5642 1315,-205.5642 1351,-205.5642 1351,-186.5642 1315,-186.5642"/>
<text text-anchor="middle" x="1333" y="-193.5642" font-family="Helvetica,sans-Serif" font-size="10.00" fill="#000000">ALib</text>
</g>
<!-- Node36 -->
<g id="node2" class="node">
<title>Node36</title>
<polygon fill="#ffffff" stroke="#bfbfbf" points="1287,-234.5642 1287,-253.5642 1379,-253.5642 1379,-234.5642 1287,-234.5642"/>
<text text-anchor="middle" x="1333" y="-241.5642" font-family="Helvetica,sans-Serif" font-size="10.00" fill="#000000">vector&lt;Library *&gt;</text>
</g>
<!-- Node3 -->
<g id="node8" class="node">
<title>Node3</title>
<g id="a_node8"><a xlink:href="classaworx_1_1lib_1_1lang_1_1Library.html" target="_top" xlink:title="Library">
<polygon fill="#ffffff" stroke="#000000" points="1090,-244.5642 1090,-263.5642 1136,-263.5642 1136,-244.5642 1090,-244.5642"/>
<text text-anchor="middle" x="1113" y="-251.5642" font-family="Helvetica,sans-Serif" font-size="10.00" fill="#000000">Library</text>
</a>
</g>
</g>
<!-- Node36&#45;&gt;Node3 -->
<g id="edge17" class="edge">
<title>Node36&#45;&gt;Node3</title>
<path fill="none" stroke="#9a32cd" stroke-dasharray="5,2" d="M1276.8273,-235.2851C1243.5144,-231.5986 1200.5885,-229.5043 1163,-236.0642 1153.3661,-237.7455 1143.1379,-241.1205 1134.4593,-244.4984"/>
<polygon fill="#9a32cd" stroke="#9a32cd" points="1276.498,-238.7705 1286.8406,-236.4724 1277.3224,-231.8192 1276.498,-238.7705"/>
<text text-anchor="middle" x="1216" y="-239.0642" font-family="Helvetica,sans-Serif" font-size="10.00" fill="#000000"> dependencies</text>
</g>
<!-- Node37 -->
<g id="node3" class="node">
<title>Node37</title>
<polygon fill="#ffffff" stroke="#bfbfbf" points="753,-320.5642 753,-339.5642 929,-339.5642 929,-320.5642 753,-320.5642"/>
<text text-anchor="middle" x="841" y="-327.5642" font-family="Helvetica,sans-Serif" font-size="10.00" fill="#000000">vector&lt;pair&lt;const char *, uint64_t&gt;&gt;</text>
</g>
<!-- Node37&#45;&gt;Node3 -->
<g id="edge18" class="edge">
<title>Node37&#45;&gt;Node3</title>
<path fill="none" stroke="#9a32cd" stroke-dasharray="5,2" d="M939.2545,-333.8189C979.3762,-331.7712 1025.145,-324.6475 1063,-306.0642 1082.5619,-296.4611 1098.6306,-275.8895 1106.9176,-263.6961"/>
<polygon fill="#9a32cd" stroke="#9a32cd" points="939.0313,-330.325 929.184,-334.234 939.3197,-337.3191 939.0313,-330.325"/>
<text text-anchor="middle" x="1005" y="-335.0642" font-family="Helvetica,sans-Serif" font-size="10.00" fill="#000000"> CompilationFlagMeanings</text>
</g>
<!-- Node40 -->
<g id="node4" class="node">
<title>Node40</title>
<polygon fill="#ffffff" stroke="#bfbfbf" points="784.5,-72.5642 784.5,-91.5642 897.5,-91.5642 897.5,-72.5642 784.5,-72.5642"/>
<text text-anchor="middle" x="841" y="-79.5642" font-family="Helvetica,sans-Serif" font-size="10.00" fill="#000000">vector&lt;ThreadLock *&gt;</text>
</g>
<!-- Node38 -->
<g id="node14" class="node">
<title>Node38</title>
<g id="a_node14"><a xlink:href="classaworx_1_1lib_1_1threads_1_1SmartLock.html" target="_top" xlink:title="SmartLock">
<polygon fill="#ffffff" stroke="#000000" points="1081,-53.5642 1081,-72.5642 1145,-72.5642 1145,-53.5642 1081,-53.5642"/>
<text text-anchor="middle" x="1113" y="-60.5642" font-family="Helvetica,sans-Serif" font-size="10.00" fill="#000000">SmartLock</text>
</a>
</g>
</g>
<!-- Node40&#45;&gt;Node38 -->
<g id="edge21" class="edge">
<title>Node40&#45;&gt;Node38</title>
<path fill="none" stroke="#9a32cd" stroke-dasharray="5,2" d="M907.6974,-77.4052C962.6492,-73.5667 1038.2012,-68.2891 1080.6522,-65.3238"/>
<polygon fill="#9a32cd" stroke="#9a32cd" points="907.4208,-73.9159 897.689,-78.1043 907.9086,-80.8989 907.4208,-73.9159"/>
<text text-anchor="middle" x="1005" y="-77.0642" font-family="Helvetica,sans-Serif" font-size="10.00" fill="#000000"> acquirers</text>
</g>
<!-- Node4 -->
<g id="node5" class="node">
<title>Node4</title>
<g id="a_node5"><a xlink:href="classaworx_1_1lib_1_1strings_1_1TStringBase.html" target="_top" xlink:title="TStringBase\&lt;character\&gt;">
<polygon fill="#ffffff" stroke="#000000" points="409,-275.5642 409,-294.5642 532,-294.5642 532,-275.5642 409,-275.5642"/>
<text text-anchor="middle" x="470.5" y="-282.5642" font-family="Helvetica,sans-Serif" font-size="10.00" fill="#000000">TStringBase&lt;character&gt;</text>
</a>
</g>
</g>
<!-- Node4&#45;&gt;Node3 -->
<g id="edge3" class="edge">
<title>Node4&#45;&gt;Node3</title>
<path fill="none" stroke="#9a32cd" stroke-dasharray="5,2" d="M542.5208,-288.6235C654.5529,-292.8987 877.029,-296.332 1063,-268.0642 1071.912,-266.7096 1081.491,-264.277 1089.8559,-261.8154"/>
<polygon fill="#9a32cd" stroke="#9a32cd" points="542.4863,-285.1195 532.3558,-288.2216 542.2097,-292.1141 542.4863,-285.1195"/>
<text text-anchor="middle" x="692.5" y="-294.0642" font-family="Helvetica,sans-Serif" font-size="10.00" fill="#000000"> ResourceCategory</text>
</g>
<!-- Node5 -->
<g id="node6" class="node">
<title>Node5</title>
<g id="a_node6"><a xlink:href="classaworx_1_1lib_1_1strings_1_1StringBase.html" target="_top" xlink:title="StringBase\&lt;character\&gt;">
<polygon fill="#ffffff" stroke="#000000" points="0,-244.5642 0,-263.5642 117,-263.5642 117,-244.5642 0,-244.5642"/>
<text text-anchor="middle" x="58.5" y="-251.5642" font-family="Helvetica,sans-Serif" font-size="10.00" fill="#000000">StringBase&lt;character&gt;</text>
</a>
</g>
</g>
<!-- Node5&#45;&gt;Node4 -->
<g id="edge4" class="edge">
<title>Node5&#45;&gt;Node4</title>
<path fill="none" stroke="#191970" d="M119.7202,-265.106C124.8787,-265.8421 130.0231,-266.5097 135,-267.0642 230.2183,-277.6735 341.3616,-282.0787 408.7981,-283.8735"/>
<polygon fill="#191970" stroke="#191970" points="120.2326,-261.6438 109.8233,-263.6176 119.1915,-268.5659 120.2326,-261.6438"/>
</g>
<!-- Node18 -->
<g id="node9" class="node">
<title>Node18</title>
<g id="a_node9"><a xlink:href="classaworx_1_1lib_1_1config_1_1Configuration.html" target="_top" xlink:title="Configuration">
<polygon fill="#ffffff" stroke="#ff0000" points="300.5,-213.5642 300.5,-232.5642 374.5,-232.5642 374.5,-213.5642 300.5,-213.5642"/>
<text text-anchor="middle" x="337.5" y="-220.5642" font-family="Helvetica,sans-Serif" font-size="10.00" fill="#000000">Configuration</text>
</a>
</g>
</g>
<!-- Node5&#45;&gt;Node18 -->
<g id="edge5" class="edge">
<title>Node5&#45;&gt;Node18</title>
<path fill="none" stroke="#9a32cd" stroke-dasharray="5,2" d="M98.9139,-241.8759C110.4696,-238.8349 123.1461,-235.9163 135,-234.0642 192.223,-225.1234 259.5191,-223.131 300.315,-222.8489"/>
<polygon fill="#9a32cd" stroke="#9a32cd" points="97.8214,-238.5459 89.0962,-244.556 99.665,-245.2988 97.8214,-238.5459"/>
<text text-anchor="middle" x="200.5" y="-259.0642" font-family="Helvetica,sans-Serif" font-size="10.00" fill="#000000"> SubstitutionVariableStart</text>
<text text-anchor="middle" x="200.5" y="-248.0642" font-family="Helvetica,sans-Serif" font-size="10.00" fill="#000000">SubstitutionVariableEnd</text>
<text text-anchor="middle" x="200.5" y="-237.0642" font-family="Helvetica,sans-Serif" font-size="10.00" fill="#000000">SubstitutionVariableDelimiters</text>
</g>
<!-- Node24 -->
<g id="node7" class="node">
<title>Node24</title>
<g id="a_node7"><a xlink:href="classaworx_1_1lib_1_1strings_1_1TStringBase.html" target="_top" xlink:title="TStringBase\&lt;nchar\&gt;">
<polygon fill="#ffffff" stroke="#ff0000" points="284,-32.5642 284,-51.5642 391,-51.5642 391,-32.5642 284,-32.5642"/>
<text text-anchor="middle" x="337.5" y="-39.5642" font-family="Helvetica,sans-Serif" font-size="10.00" fill="#000000">TStringBase&lt;nchar&gt;</text>
</a>
</g>
</g>
<!-- Node20 -->
<g id="node13" class="node">
<title>Node20</title>
<g id="a_node13"><a xlink:href="classaworx_1_1lib_1_1threads_1_1ThreadLock.html" target="_top" xlink:title="ThreadLock">
<polygon fill="#ffffff" stroke="#ff0000" points="557,-60.5642 557,-79.5642 625,-79.5642 625,-60.5642 557,-60.5642"/>
<text text-anchor="middle" x="591" y="-67.5642" font-family="Helvetica,sans-Serif" font-size="10.00" fill="#000000">ThreadLock</text>
</a>
</g>
</g>
<!-- Node24&#45;&gt;Node20 -->
<g id="edge15" class="edge">
<title>Node24&#45;&gt;Node20</title>
<path fill="none" stroke="#9a32cd" stroke-dasharray="5,2" d="M401.5094,-49.1343C450.815,-54.5803 517.0591,-61.8972 556.746,-66.2807"/>
<polygon fill="#9a32cd" stroke="#9a32cd" points="401.5847,-45.6214 391.2608,-48.0023 400.8161,-52.5791 401.5847,-45.6214"/>
<text text-anchor="middle" x="470.5" y="-77.0642" font-family="Helvetica,sans-Serif" font-size="10.00" fill="#000000"> acquirementMethodName</text>
<text text-anchor="middle" x="470.5" y="-66.0642" font-family="Helvetica,sans-Serif" font-size="10.00" fill="#000000">acquirementSourcefile</text>
</g>
<!-- Node39 -->
<g id="node15" class="node">
<title>Node39</title>
<g id="a_node15"><a xlink:href="classaworx_1_1lib_1_1threads_1_1ThreadLockNR.html" target="_top" xlink:title="ThreadLockNR">
<polygon fill="#ffffff" stroke="#000000" points="651,-2.5642 651,-21.5642 734,-21.5642 734,-2.5642 651,-2.5642"/>
<text text-anchor="middle" x="692.5" y="-9.5642" font-family="Helvetica,sans-Serif" font-size="10.00" fill="#000000">ThreadLockNR</text>
</a>
</g>
</g>
<!-- Node24&#45;&gt;Node39 -->
<g id="edge16" class="edge">
<title>Node24&#45;&gt;Node39</title>
<path fill="none" stroke="#9a32cd" stroke-dasharray="5,2" d="M381.6967,-30.1919C390.6745,-28.1665 400.0952,-26.3157 409,-25.0642 494.3842,-13.0643 595.5119,-11.3956 650.9586,-11.541"/>
<polygon fill="#9a32cd" stroke="#9a32cd" points="380.7272,-26.8245 371.7998,-32.53 382.3367,-33.6369 380.7272,-26.8245"/>
<text text-anchor="middle" x="470.5" y="-39.0642" font-family="Helvetica,sans-Serif" font-size="10.00" fill="#000000"> acquirementMethodName</text>
<text text-anchor="middle" x="470.5" y="-28.0642" font-family="Helvetica,sans-Serif" font-size="10.00" fill="#000000">acquirementSourcefile</text>
</g>
<!-- Node3&#45;&gt;Node2 -->
<g id="edge1" class="edge">
<title>Node3&#45;&gt;Node2</title>
<path fill="none" stroke="#191970" d="M1136.6293,-239.3288C1144.7389,-234.8138 1154.0353,-230.2127 1163,-227.0642 1216.2145,-208.3747 1282.9524,-200.4169 1314.6522,-197.508"/>
<polygon fill="#191970" stroke="#191970" points="1134.6289,-236.4433 1127.7454,-244.4973 1138.1491,-242.4938 1134.6289,-236.4433"/>
</g>
<!-- Node3&#45;&gt;Node36 -->
<g id="edge2" class="edge">
<title>Node3&#45;&gt;Node36</title>
<path fill="none" stroke="#9a32cd" stroke-dasharray="5,2" d="M1146.0221,-253.4456C1177.611,-252.7499 1226.5819,-251.3997 1269,-249.0642 1274.7866,-248.7456 1280.863,-248.3501 1286.8728,-247.9222"/>
<polygon fill="#9a32cd" stroke="#9a32cd" points="1145.9342,-249.9466 1136.0103,-253.657 1146.082,-256.9451 1145.9342,-249.9466"/>
<text text-anchor="middle" x="1216" y="-255.0642" font-family="Helvetica,sans-Serif" font-size="10.00" fill="#000000"> elements</text>
</g>
<!-- Node18&#45;&gt;Node3 -->
<g id="edge9" class="edge">
<title>Node18&#45;&gt;Node3</title>
<path fill="none" stroke="#9a32cd" stroke-dasharray="5,2" d="M384.7526,-224.9531C532.5449,-230.861 982.5503,-248.8496 1089.8513,-253.1389"/>
<polygon fill="#9a32cd" stroke="#9a32cd" points="384.7746,-221.4513 374.6427,-224.549 384.4949,-228.4457 384.7746,-221.4513"/>
<text text-anchor="middle" x="692.5" y="-241.0642" font-family="Helvetica,sans-Serif" font-size="10.00" fill="#000000"> Config</text>
</g>
<!-- Node6 -->
<g id="node10" class="node">
<title>Node6</title>
<g id="a_node10"><a xlink:href="classaworx_1_1lib_1_1lang_1_1Resources.html" target="_top" xlink:title="Resources">
<polygon fill="#ffffff" stroke="#000000" points="809,-169.5642 809,-188.5642 873,-188.5642 873,-169.5642 809,-169.5642"/>
<text text-anchor="middle" x="841" y="-176.5642" font-family="Helvetica,sans-Serif" font-size="10.00" fill="#000000">Resources</text>
</a>
</g>
</g>
<!-- Node18&#45;&gt;Node6 -->
<g id="edge10" class="edge">
<title>Node18&#45;&gt;Node6</title>
<path fill="none" stroke="#9a32cd" stroke-dasharray="5,2" d="M384.4892,-219.1787C458.8813,-212.9971 608.3359,-200.4558 735,-189.0642 759.6696,-186.8455 787.5559,-184.2097 808.5321,-182.2012"/>
<polygon fill="#9a32cd" stroke="#9a32cd" points="384.1767,-215.6925 374.5006,-220.008 384.7559,-222.6685 384.1767,-215.6925"/>
<text text-anchor="middle" x="591" y="-207.0642" font-family="Helvetica,sans-Serif" font-size="10.00" fill="#000000"> Config</text>
</g>
<!-- Node10 -->
<g id="node12" class="node">
<title>Node10</title>
<g id="a_node12"><a xlink:href="classaworx_1_1lib_1_1config_1_1Variable.html" target="_top" xlink:title="Variable">
<polygon fill="#ffffff" stroke="#ff0000" points="565.5,-159.5642 565.5,-178.5642 616.5,-178.5642 616.5,-159.5642 565.5,-159.5642"/>
<text text-anchor="middle" x="591" y="-166.5642" font-family="Helvetica,sans-Serif" font-size="10.00" fill="#000000">Variable</text>
</a>
</g>
</g>
<!-- Node18&#45;&gt;Node10 -->
<g id="edge11" class="edge">
<title>Node18&#45;&gt;Node10</title>
<path fill="none" stroke="#9a32cd" stroke-dasharray="5,2" d="M363.2573,-208.756C376.5352,-202.013 393.2179,-194.494 409,-190.0642 463.3566,-174.8072 529.8319,-170.6117 565.4888,-169.4732"/>
<polygon fill="#9a32cd" stroke="#9a32cd" points="361.4862,-205.7326 354.2522,-213.4734 364.7345,-211.9332 361.4862,-205.7326"/>
<text text-anchor="middle" x="470.5" y="-193.0642" font-family="Helvetica,sans-Serif" font-size="10.00" fill="#000000"> Config</text>
</g>
<!-- Node6&#45;&gt;Node3 -->
<g id="edge6" class="edge">
<title>Node6&#45;&gt;Node3</title>
<path fill="none" stroke="#9a32cd" stroke-dasharray="5,2" d="M883.3586,-185.462C928.6762,-193.0268 1002.2409,-207.3944 1063,-229.0642 1074.5179,-233.1721 1086.8103,-239.2925 1096.3246,-244.4492"/>
<polygon fill="#9a32cd" stroke="#9a32cd" points="883.7359,-181.9773 873.3022,-183.8178 882.6064,-188.8855 883.7359,-181.9773"/>
<text text-anchor="middle" x="1005" y="-232.0642" font-family="Helvetica,sans-Serif" font-size="10.00" fill="#000000"> Res</text>
</g>
<!-- Node7 -->
<g id="node11" class="node">
<title>Node7</title>
<g id="a_node11"><a xlink:href="classaworx_1_1lib_1_1util_1_1MemoryBlocks.html" target="_top" xlink:title="MemoryBlocks">
<polygon fill="#ffffff" stroke="#ff0000" points="550,-121.5642 550,-140.5642 632,-140.5642 632,-121.5642 550,-121.5642"/>
<text text-anchor="middle" x="591" y="-128.5642" font-family="Helvetica,sans-Serif" font-size="10.00" fill="#000000">MemoryBlocks</text>
</a>
</g>
</g>
<!-- Node7&#45;&gt;Node6 -->
<g id="edge7" class="edge">
<title>Node7&#45;&gt;Node6</title>
<path fill="none" stroke="#9a32cd" stroke-dasharray="5,2" d="M642.2425,-139.4257C669.787,-144.055 704.305,-150.0723 735,-156.0642 759.7661,-160.8987 787.6478,-166.9738 808.5978,-171.6661"/>
<polygon fill="#9a32cd" stroke="#9a32cd" points="642.49,-135.9186 632.0498,-137.7224 641.3361,-142.8229 642.49,-135.9186"/>
<text text-anchor="middle" x="692.5" y="-159.0642" font-family="Helvetica,sans-Serif" font-size="10.00" fill="#000000"> cache</text>
</g>
<!-- Node10&#45;&gt;Node6 -->
<g id="edge8" class="edge">
<title>Node10&#45;&gt;Node6</title>
<path fill="none" stroke="#9a32cd" stroke-dasharray="5,2" d="M626.8959,-170.5C675.598,-172.4481 761.8853,-175.8996 808.6691,-177.771"/>
<polygon fill="#9a32cd" stroke="#9a32cd" points="626.9447,-166.9993 616.8128,-170.0967 626.6649,-173.9937 626.9447,-166.9993"/>
<text text-anchor="middle" x="692.5" y="-177.0642" font-family="Helvetica,sans-Serif" font-size="10.00" fill="#000000"> variable</text>
</g>
<!-- Node20&#45;&gt;Node40 -->
<g id="edge14" class="edge">
<title>Node20&#45;&gt;Node40</title>
<path fill="none" stroke="#9a32cd" stroke-dasharray="5,2" d="M635.3206,-72.1916C676.8284,-74.184 739.0597,-77.1711 784.1954,-79.3376"/>
<polygon fill="#9a32cd" stroke="#9a32cd" points="635.3936,-68.6912 625.2372,-71.7076 635.0579,-75.6831 635.3936,-68.6912"/>
<text text-anchor="middle" x="692.5" y="-79.0642" font-family="Helvetica,sans-Serif" font-size="10.00" fill="#000000"> elements</text>
</g>
<!-- Node20&#45;&gt;Node6 -->
<g id="edge12" class="edge">
<title>Node20&#45;&gt;Node6</title>
<path fill="none" stroke="#9a32cd" stroke-dasharray="5,2" d="M627.2755,-83.1088C656.6252,-93.9162 698.8678,-110.0468 735,-126.0642 766.6001,-140.0726 802.3755,-158.5202 823.237,-169.5476"/>
<polygon fill="#9a32cd" stroke="#9a32cd" points="628.4377,-79.8071 617.8439,-79.6556 626.0309,-86.3804 628.4377,-79.8071"/>
<text text-anchor="middle" x="692.5" y="-129.0642" font-family="Helvetica,sans-Serif" font-size="10.00" fill="#000000"> lock</text>
</g>
<!-- Node20&#45;&gt;Node38 -->
<g id="edge13" class="edge">
<title>Node20&#45;&gt;Node38</title>
<path fill="none" stroke="#191970" d="M635.2182,-67.6994C667.7766,-66.0688 713.1304,-64.028 753,-63.0642 890.7383,-59.7346 925.2284,-60.6866 1063,-62.0642 1068.8168,-62.1224 1075.0138,-62.2186 1080.9934,-62.3289"/>
<polygon fill="#191970" stroke="#191970" points="634.9295,-64.2094 625.1201,-68.2125 635.2848,-71.2004 634.9295,-64.2094"/>
</g>
<!-- Node38&#45;&gt;Node2 -->
<g id="edge19" class="edge">
<title>Node38&#45;&gt;Node2</title>
<path fill="none" stroke="#9a32cd" stroke-dasharray="5,2" d="M1137.4455,-77.8426C1182.8388,-105.2849 1278.9871,-163.411 1317.0259,-186.4071"/>
<polygon fill="#9a32cd" stroke="#9a32cd" points="1139.1903,-74.8076 1128.8219,-72.6292 1135.5688,-80.798 1139.1903,-74.8076"/>
<text text-anchor="middle" x="1216" y="-159.0642" font-family="Helvetica,sans-Serif" font-size="10.00" fill="#000000"> StdOutputStreamsLock</text>
</g>
<!-- Node39&#45;&gt;Node38 -->
<g id="edge20" class="edge">
<title>Node39&#45;&gt;Node38</title>
<path fill="none" stroke="#9a32cd" stroke-dasharray="5,2" d="M744.556,-5.6338C817.8608,1.4479 954.6561,7.3661 1063,-30.0642 1077.7459,-35.1586 1092.3776,-45.6126 1101.9663,-53.3965"/>
<polygon fill="#9a32cd" stroke="#9a32cd" points="743.8083,-2.1916 734.2122,-6.6821 744.5141,-9.1559 743.8083,-2.1916"/>
<text text-anchor="middle" x="841" y="-8.0642" font-family="Helvetica,sans-Serif" font-size="10.00" fill="#000000"> lock</text>
</g>
</g>
</svg>
