<?xml version="1.0" encoding="UTF-8" standalone="no"?>
<!DOCTYPE svg PUBLIC "-//W3C//DTD SVG 1.1//EN"
 "http://www.w3.org/Graphics/SVG/1.1/DTD/svg11.dtd">
<!-- Generated by graphviz version 2.40.1 (20161225.0304)
 -->
<!-- Title: Resources Pages: 1 -->
<svg width="1345pt" height="349pt"
 viewBox="0.00 0.00 1345.00 349.00" xmlns="http://www.w3.org/2000/svg" xmlns:xlink="http://www.w3.org/1999/xlink">
<g id="graph0" class="graph" transform="scale(1 1) rotate(0) translate(4 345)">
<title>Resources</title>
<polygon fill="#ffffff" stroke="transparent" points="-4,4 -4,-345 1341,-345 1341,4 -4,4"/>
<!-- Node1 -->
<g id="node1" class="node">
<title>Node1</title>
<polygon fill="#bfbfbf" stroke="#000000" points="1273,-116.5 1273,-135.5 1337,-135.5 1337,-116.5 1273,-116.5"/>
<text text-anchor="middle" x="1305" y="-123.5" font-family="Helvetica,sans-Serif" font-size="10.00" fill="#000000">Resources</text>
</g>
<!-- Node3 -->
<g id="node2" class="node">
<title>Node3</title>
<polygon fill="#ffffff" stroke="#bfbfbf" points="833.5,-316.5 833.5,-335.5 985.5,-335.5 985.5,-316.5 833.5,-316.5"/>
<text text-anchor="middle" x="909.5" y="-323.5" font-family="Helvetica,sans-Serif" font-size="10.00" fill="#000000">vector&lt;MemoryBlocks::Block&gt;</text>
</g>
<!-- Node2 -->
<g id="node12" class="node">
<title>Node2</title>
<g id="a_node12"><a xlink:href="classaworx_1_1lib_1_1util_1_1MemoryBlocks.html" target="_top" xlink:title="MemoryBlocks">
<polygon fill="#ffffff" stroke="#000000" points="1118,-272.5 1118,-291.5 1200,-291.5 1200,-272.5 1118,-272.5"/>
<text text-anchor="middle" x="1159" y="-279.5" font-family="Helvetica,sans-Serif" font-size="10.00" fill="#000000">MemoryBlocks</text>
</a>
</g>
</g>
<!-- Node3&#45;&gt;Node2 -->
<g id="edge2" class="edge">
<title>Node3&#45;&gt;Node2</title>
<path fill="none" stroke="#9a32cd" stroke-dasharray="5,2" d="M995.8432,-320.4806C1028.7528,-317.2191 1066.4107,-312.0756 1100,-304 1112.6486,-300.959 1126.2867,-295.9914 1137.2612,-291.5455"/>
<polygon fill="#9a32cd" stroke="#9a32cd" points="995.4171,-317.0052 985.7921,-321.4336 996.0778,-323.974 995.4171,-317.0052"/>
<text text-anchor="middle" x="1053" y="-333" font-family="Helvetica,sans-Serif" font-size="10.00" fill="#000000"> blocks</text>
<text text-anchor="middle" x="1053" y="-322" font-family="Helvetica,sans-Serif" font-size="10.00" fill="#000000">actBlock</text>
</g>
<!-- Node6 -->
<g id="node3" class="node">
<title>Node6</title>
<polygon fill="#ffffff" stroke="#bfbfbf" points="854.5,-273.5 854.5,-292.5 964.5,-292.5 964.5,-273.5 854.5,-273.5"/>
<text text-anchor="middle" x="909.5" y="-280.5" font-family="Helvetica,sans-Serif" font-size="10.00" fill="#000000">vector&lt;AStringBase&gt;</text>
</g>
<!-- Node5 -->
<g id="node14" class="node">
<title>Node5</title>
<g id="a_node14"><a xlink:href="classaworx_1_1lib_1_1config_1_1Variable.html" target="_top" xlink:title="Variable">
<polygon fill="#ffffff" stroke="#000000" points="1133.5,-175.5 1133.5,-194.5 1184.5,-194.5 1184.5,-175.5 1133.5,-175.5"/>
<text text-anchor="middle" x="1159" y="-182.5" font-family="Helvetica,sans-Serif" font-size="10.00" fill="#000000">Variable</text>
</a>
</g>
</g>
<!-- Node6&#45;&gt;Node5 -->
<g id="edge5" class="edge">
<title>Node6&#45;&gt;Node5</title>
<path fill="none" stroke="#9a32cd" stroke-dasharray="5,2" d="M974.6602,-283.668C1021.2182,-283.0714 1079.162,-279.8125 1100,-268 1129.6836,-251.1732 1148.144,-212.543 1155.4323,-194.5487"/>
<polygon fill="#9a32cd" stroke="#9a32cd" points="974.5827,-280.1684 964.6147,-283.7586 974.6459,-287.1681 974.5827,-280.1684"/>
<text text-anchor="middle" x="1053" y="-285" font-family="Helvetica,sans-Serif" font-size="10.00" fill="#000000"> values</text>
</g>
<!-- Node14 -->
<g id="node4" class="node">
<title>Node14</title>
<g id="a_node4"><a xlink:href="classaworx_1_1lib_1_1util_1_1PluginContainer.html" target="_top" xlink:title="PluginContainer\&lt;ConfigurationPlugin, Priorities\&gt;">
<polygon fill="#ffffff" stroke="#ff0000" points="444,-28.5 444,-47.5 671,-47.5 671,-28.5 444,-28.5"/>
<text text-anchor="middle" x="557.5" y="-35.5" font-family="Helvetica,sans-Serif" font-size="10.00" fill="#000000">PluginContainer&lt;ConfigurationPlugin, Priorities&gt;</text>
</a>
</g>
</g>
<!-- Node13 -->
<g id="node15" class="node">
<title>Node13</title>
<g id="a_node15"><a xlink:href="classaworx_1_1lib_1_1config_1_1Configuration.html" target="_top" xlink:title="Configuration">
<polygon fill="#ffffff" stroke="#000000" points="872.5,-102.5 872.5,-121.5 946.5,-121.5 946.5,-102.5 872.5,-102.5"/>
<text text-anchor="middle" x="909.5" y="-109.5" font-family="Helvetica,sans-Serif" font-size="10.00" fill="#000000">Configuration</text>
</a>
</g>
</g>
<!-- Node14&#45;&gt;Node13 -->
<g id="edge12" class="edge">
<title>Node14&#45;&gt;Node13</title>
<path fill="none" stroke="#191970" d="M681.2971,-40.0592C723.7215,-43.2684 771.0531,-49.6717 813,-62 844.1373,-71.1514 876.9955,-90.5764 895.2063,-102.3388"/>
<polygon fill="#191970" stroke="#191970" points="681.4149,-36.5589 671.1937,-39.3475 680.923,-43.5416 681.4149,-36.5589"/>
</g>
<!-- Node28 -->
<g id="node5" class="node">
<title>Node28</title>
<polygon fill="#ffffff" stroke="#bfbfbf" points="505.5,-104.5 505.5,-123.5 609.5,-123.5 609.5,-104.5 505.5,-104.5"/>
<text text-anchor="middle" x="557.5" y="-111.5" font-family="Helvetica,sans-Serif" font-size="10.00" fill="#000000">vector&lt;StringBase&gt;</text>
</g>
<!-- Node28&#45;&gt;Node13 -->
<g id="edge20" class="edge">
<title>Node28&#45;&gt;Node13</title>
<path fill="none" stroke="#9a32cd" stroke-dasharray="5,2" d="M619.8358,-113.6458C693.0677,-113.2297 812.1811,-112.5529 872.2907,-112.2114"/>
<polygon fill="#9a32cd" stroke="#9a32cd" points="619.7978,-110.1459 609.8179,-113.7027 619.8376,-117.1458 619.7978,-110.1459"/>
<text text-anchor="middle" x="751" y="-116" font-family="Helvetica,sans-Serif" font-size="10.00" fill="#000000"> TrueValues</text>
</g>
<!-- Node7 -->
<g id="node6" class="node">
<title>Node7</title>
<g id="a_node6"><a xlink:href="classaworx_1_1lib_1_1strings_1_1AStringBase.html" target="_top" xlink:title="AStringBase\&lt;TChar\&gt;">
<polygon fill="#ffffff" stroke="#ff0000" points="502.5,-256.5 502.5,-275.5 612.5,-275.5 612.5,-256.5 502.5,-256.5"/>
<text text-anchor="middle" x="557.5" y="-263.5" font-family="Helvetica,sans-Serif" font-size="10.00" fill="#000000">AStringBase&lt;TChar&gt;</text>
</a>
</g>
</g>
<!-- Node7&#45;&gt;Node6 -->
<g id="edge6" class="edge">
<title>Node7&#45;&gt;Node6</title>
<path fill="none" stroke="#9a32cd" stroke-dasharray="5,2" d="M623.2712,-269.1764C689.9315,-272.3958 791.903,-277.3206 854.4358,-280.3406"/>
<polygon fill="#9a32cd" stroke="#9a32cd" points="623.0444,-265.6615 612.8872,-268.675 622.7067,-272.6534 623.0444,-265.6615"/>
<text text-anchor="middle" x="751" y="-280" font-family="Helvetica,sans-Serif" font-size="10.00" fill="#000000"> elements</text>
</g>
<!-- Node11 -->
<g id="node11" class="node">
<title>Node11</title>
<g id="a_node11"><a xlink:href="classaworx_1_1lib_1_1strings_1_1PreallocatedStringBase.html" target="_top" xlink:title="PreallocatedStringBase\&lt;TChar\&gt;">
<polygon fill="#ffffff" stroke="#000000" points="831,-226.5 831,-245.5 988,-245.5 988,-226.5 831,-226.5"/>
<text text-anchor="middle" x="909.5" y="-233.5" font-family="Helvetica,sans-Serif" font-size="10.00" fill="#000000">PreallocatedStringBase&lt;TChar&gt;</text>
</a>
</g>
</g>
<!-- Node7&#45;&gt;Node11 -->
<g id="edge7" class="edge">
<title>Node7&#45;&gt;Node11</title>
<path fill="none" stroke="#191970" d="M623.1759,-260.4026C682.0124,-255.3882 768.4133,-248.0244 830.9023,-242.6987"/>
<polygon fill="#191970" stroke="#191970" points="622.5539,-256.9429 612.8872,-261.2795 623.1483,-263.9176 622.5539,-256.9429"/>
</g>
<!-- Node24 -->
<g id="node7" class="node">
<title>Node24</title>
<g id="a_node7"><a xlink:href="classaworx_1_1lib_1_1strings_1_1StringBase.html" target="_top" xlink:title="StringBase\&lt;character\&gt;">
<polygon fill="#ffffff" stroke="#000000" points="0,-86.5 0,-105.5 117,-105.5 117,-86.5 0,-86.5"/>
<text text-anchor="middle" x="58.5" y="-93.5" font-family="Helvetica,sans-Serif" font-size="10.00" fill="#000000">StringBase&lt;character&gt;</text>
</a>
</g>
</g>
<!-- Node26 -->
<g id="node9" class="node">
<title>Node26</title>
<g id="a_node9"><a xlink:href="classaworx_1_1lib_1_1strings_1_1TStringBase.html" target="_top" xlink:title="TStringBase\&lt;character\&gt;">
<polygon fill="#ffffff" stroke="#000000" points="154,-122.5 154,-141.5 277,-141.5 277,-122.5 154,-122.5"/>
<text text-anchor="middle" x="215.5" y="-129.5" font-family="Helvetica,sans-Serif" font-size="10.00" fill="#000000">TStringBase&lt;character&gt;</text>
</a>
</g>
</g>
<!-- Node24&#45;&gt;Node26 -->
<g id="edge16" class="edge">
<title>Node24&#45;&gt;Node26</title>
<path fill="none" stroke="#191970" d="M110.0687,-107.8247C130.7778,-112.5732 154.3323,-117.9743 173.917,-122.4651"/>
<polygon fill="#191970" stroke="#191970" points="110.6902,-104.3764 100.1609,-105.5528 109.1257,-111.1994 110.6902,-104.3764"/>
</g>
<!-- Node24&#45;&gt;Node13 -->
<g id="edge15" class="edge">
<title>Node24&#45;&gt;Node13</title>
<path fill="none" stroke="#9a32cd" stroke-dasharray="5,2" d="M127.401,-94.5275C174.5786,-93.5946 238.5719,-92.4772 295,-92 462.1105,-90.5869 504.0289,-88.033 671,-95 742.3374,-97.9766 825.4779,-104.6275 872.3582,-108.6716"/>
<polygon fill="#9a32cd" stroke="#9a32cd" points="127.2252,-91.0302 117.2972,-94.7295 127.3652,-98.0288 127.2252,-91.0302"/>
<text text-anchor="middle" x="360.5" y="-117" font-family="Helvetica,sans-Serif" font-size="10.00" fill="#000000"> SubstitutionVariableStart</text>
<text text-anchor="middle" x="360.5" y="-106" font-family="Helvetica,sans-Serif" font-size="10.00" fill="#000000">SubstitutionVariableEnd</text>
<text text-anchor="middle" x="360.5" y="-95" font-family="Helvetica,sans-Serif" font-size="10.00" fill="#000000">SubstitutionVariableDelimiters</text>
</g>
<!-- Node25 -->
<g id="node8" class="node">
<title>Node25</title>
<g id="a_node8"><a xlink:href="classaworx_1_1lib_1_1strings_1_1NumberFormatBase.html" target="_top" xlink:title="NumberFormatBase\&lt;character\&gt;">
<polygon fill="#ffffff" stroke="#ff0000" points="479,-142.5 479,-161.5 636,-161.5 636,-142.5 479,-142.5"/>
<text text-anchor="middle" x="557.5" y="-149.5" font-family="Helvetica,sans-Serif" font-size="10.00" fill="#000000">NumberFormatBase&lt;character&gt;</text>
</a>
</g>
</g>
<!-- Node25&#45;&gt;Node13 -->
<g id="edge17" class="edge">
<title>Node25&#45;&gt;Node13</title>
<path fill="none" stroke="#9a32cd" stroke-dasharray="5,2" d="M646.2019,-145.2184C695.4323,-141.0655 757.7143,-135.1708 813,-128 832.7041,-125.4443 854.5541,-121.8826 872.4728,-118.7683"/>
<polygon fill="#9a32cd" stroke="#9a32cd" points="645.8934,-141.7319 636.2193,-146.0518 646.4758,-148.7076 645.8934,-141.7319"/>
<text text-anchor="middle" x="751" y="-143" font-family="Helvetica,sans-Serif" font-size="10.00" fill="#000000"> NumberFormat</text>
</g>
<!-- Node26&#45;&gt;Node25 -->
<g id="edge18" class="edge">
<title>Node26&#45;&gt;Node25</title>
<path fill="none" stroke="#9a32cd" stroke-dasharray="5,2" d="M287.4039,-129.8778C328.1245,-129.2931 379.9708,-129.582 426,-133 451.649,-134.9046 479.901,-138.7545 503.6229,-142.4938"/>
<polygon fill="#9a32cd" stroke="#9a32cd" points="287.2423,-126.3799 277.3012,-130.0439 287.3574,-133.3789 287.2423,-126.3799"/>
<text text-anchor="middle" x="360.5" y="-202" font-family="Helvetica,sans-Serif" font-size="10.00" fill="#000000"> Whitespaces</text>
<text text-anchor="middle" x="360.5" y="-191" font-family="Helvetica,sans-Serif" font-size="10.00" fill="#000000">OctLiteralPrefix</text>
<text text-anchor="middle" x="360.5" y="-180" font-family="Helvetica,sans-Serif" font-size="10.00" fill="#000000">INFLiteral</text>
<text text-anchor="middle" x="360.5" y="-169" font-family="Helvetica,sans-Serif" font-size="10.00" fill="#000000">NANLiteral</text>
<text text-anchor="middle" x="360.5" y="-158" font-family="Helvetica,sans-Serif" font-size="10.00" fill="#000000">ExponentSeparator</text>
<text text-anchor="middle" x="360.5" y="-147" font-family="Helvetica,sans-Serif" font-size="10.00" fill="#000000">BinLiteralPrefix</text>
<text text-anchor="middle" x="360.5" y="-136" font-family="Helvetica,sans-Serif" font-size="10.00" fill="#000000">HexLiteralPrefix</text>
</g>
<!-- Node30 -->
<g id="node10" class="node">
<title>Node30</title>
<g id="a_node10"><a xlink:href="classaworx_1_1lib_1_1strings_1_1AStringBase.html" target="_top" xlink:title="AStringBase\&lt;character\&gt;">
<polygon fill="#ffffff" stroke="#000000" points="689,-190.5 689,-209.5 813,-209.5 813,-190.5 689,-190.5"/>
<text text-anchor="middle" x="751" y="-197.5" font-family="Helvetica,sans-Serif" font-size="10.00" fill="#000000">AStringBase&lt;character&gt;</text>
</a>
</g>
</g>
<!-- Node26&#45;&gt;Node30 -->
<g id="edge19" class="edge">
<title>Node26&#45;&gt;Node30</title>
<path fill="none" stroke="#191970" d="M227.2994,-149.9859C240.9777,-169.0171 265.4666,-197.9313 295,-210 442.336,-270.2082 639.4189,-229.706 717.3023,-209.5236"/>
<polygon fill="#191970" stroke="#191970" points="230.04,-147.7951 221.4782,-141.5543 224.2795,-151.7722 230.04,-147.7951"/>
</g>
<!-- Node30&#45;&gt;Node5 -->
<g id="edge21" class="edge">
<title>Node30&#45;&gt;Node5</title>
<path fill="none" stroke="#9a32cd" stroke-dasharray="5,2" d="M823.3084,-194.2522C874.3275,-190.4932 944.3007,-185.9338 1006,-184 1047.7573,-182.6913 1058.2237,-183.646 1100,-184 1110.9613,-184.0929 1123.0668,-184.2828 1133.4451,-184.4725"/>
<polygon fill="#9a32cd" stroke="#9a32cd" points="822.755,-190.7837 813.0425,-195.0166 823.2748,-197.7643 822.755,-190.7837"/>
<text text-anchor="middle" x="909.5" y="-207" font-family="Helvetica,sans-Serif" font-size="10.00" fill="#000000"> DefaultValue</text>
<text text-anchor="middle" x="909.5" y="-196" font-family="Helvetica,sans-Serif" font-size="10.00" fill="#000000">Comments</text>
</g>
<!-- Node11&#45;&gt;Node5 -->
<g id="edge8" class="edge">
<title>Node11&#45;&gt;Node5</title>
<path fill="none" stroke="#9a32cd" stroke-dasharray="5,2" d="M998.4684,-232.0479C1030.9112,-228.9634 1067.5753,-223.5317 1100,-214 1115.3303,-209.4934 1131.5383,-201.2428 1143.0792,-194.691"/>
<polygon fill="#9a32cd" stroke="#9a32cd" points="997.7453,-228.5982 988.0941,-232.9691 998.3645,-235.5708 997.7453,-228.5982"/>
<text text-anchor="middle" x="1053" y="-256" font-family="Helvetica,sans-Serif" font-size="10.00" fill="#000000"> Fullname</text>
<text text-anchor="middle" x="1053" y="-245" font-family="Helvetica,sans-Serif" font-size="10.00" fill="#000000">Category</text>
<text text-anchor="middle" x="1053" y="-234" font-family="Helvetica,sans-Serif" font-size="10.00" fill="#000000">Name</text>
</g>
<!-- Node11&#45;&gt;Node5 -->
<g id="edge9" class="edge">
<title>Node11&#45;&gt;Node5</title>
<path fill="none" stroke="#9a32cd" stroke-dasharray="5,2" d="M940.7104,-222.4824C959.3259,-214.9786 983.6225,-206.1468 1006,-201 1049.987,-190.883 1102.5758,-187.1507 1133.2395,-185.7824"/>
<polygon fill="#9a32cd" stroke="#9a32cd" points="939.1821,-219.3265 931.268,-226.3704 941.8474,-225.7993 939.1821,-219.3265"/>
<text text-anchor="middle" x="1053" y="-204" font-family="Helvetica,sans-Serif" font-size="10.00" fill="#000000"> FormatAttrAlignment</text>
</g>
<!-- Node2&#45;&gt;Node1 -->
<g id="edge1" class="edge">
<title>Node2&#45;&gt;Node1</title>
<path fill="none" stroke="#9a32cd" stroke-dasharray="5,2" d="M1175.1301,-264.7651C1205.819,-231.9742 1271.7033,-161.5773 1295.8705,-135.7548"/>
<polygon fill="#9a32cd" stroke="#9a32cd" points="1172.4107,-262.5486 1168.133,-272.2415 1177.5216,-267.3319 1172.4107,-262.5486"/>
<text text-anchor="middle" x="1236.5" y="-220" font-family="Helvetica,sans-Serif" font-size="10.00" fill="#000000"> cache</text>
</g>
<!-- Node4 -->
<g id="node13" class="node">
<title>Node4</title>
<g id="a_node13"><a xlink:href="structaworx_1_1lib_1_1util_1_1MemoryBlocks_1_1Block.html" target="_top" xlink:title="Block">
<polygon fill="#ffffff" stroke="#000000" points="537,-316.5 537,-335.5 578,-335.5 578,-316.5 537,-316.5"/>
<text text-anchor="middle" x="557.5" y="-323.5" font-family="Helvetica,sans-Serif" font-size="10.00" fill="#000000">Block</text>
</a>
</g>
</g>
<!-- Node4&#45;&gt;Node3 -->
<g id="edge3" class="edge">
<title>Node4&#45;&gt;Node3</title>
<path fill="none" stroke="#9a32cd" stroke-dasharray="5,2" d="M588.2223,-326C642.4501,-326 756.6367,-326 833.2225,-326"/>
<polygon fill="#9a32cd" stroke="#9a32cd" points="588.2051,-322.5001 578.2051,-326 588.205,-329.5001 588.2051,-322.5001"/>
<text text-anchor="middle" x="751" y="-329" font-family="Helvetica,sans-Serif" font-size="10.00" fill="#000000"> elements</text>
</g>
<!-- Node5&#45;&gt;Node1 -->
<g id="edge4" class="edge">
<title>Node5&#45;&gt;Node1</title>
<path fill="none" stroke="#9a32cd" stroke-dasharray="5,2" d="M1192.2565,-171.5607C1219.3865,-160.5973 1257.0515,-145.3765 1281.2278,-135.6066"/>
<polygon fill="#9a32cd" stroke="#9a32cd" points="1190.7426,-168.3975 1182.7824,-175.3893 1193.3653,-174.8876 1190.7426,-168.3975"/>
<text text-anchor="middle" x="1236.5" y="-163" font-family="Helvetica,sans-Serif" font-size="10.00" fill="#000000"> variable</text>
</g>
<!-- Node13&#45;&gt;Node1 -->
<g id="edge10" class="edge">
<title>Node13&#45;&gt;Node1</title>
<path fill="none" stroke="#9a32cd" stroke-dasharray="5,2" d="M957.1936,-113.6883C1038.8851,-116.58 1203.4784,-122.4063 1272.9258,-124.8646"/>
<polygon fill="#9a32cd" stroke="#9a32cd" points="956.8253,-110.1731 946.7077,-113.3171 956.5776,-117.1687 956.8253,-110.1731"/>
<text text-anchor="middle" x="1159" y="-125" font-family="Helvetica,sans-Serif" font-size="10.00" fill="#000000"> Config</text>
</g>
<!-- Node13&#45;&gt;Node5 -->
<g id="edge11" class="edge">
<title>Node13&#45;&gt;Node5</title>
<path fill="none" stroke="#9a32cd" stroke-dasharray="5,2" d="M957.0119,-117.5659C1004.7479,-123.5879 1074.7544,-133.7151 1100,-144 1118.4826,-151.5297 1136.9088,-165.6629 1148.1294,-175.2039"/>
<polygon fill="#9a32cd" stroke="#9a32cd" points="957.2455,-114.0681 946.8901,-116.3081 956.3822,-121.0146 957.2455,-114.0681"/>
<text text-anchor="middle" x="1053" y="-147" font-family="Helvetica,sans-Serif" font-size="10.00" fill="#000000"> Config</text>
</g>
<!-- Node15 -->
<g id="node16" class="node">
<title>Node15</title>
<g id="a_node16"><a xlink:href="classaworx_1_1lib_1_1threads_1_1ThreadLock.html" target="_top" xlink:title="ThreadLock">
<polygon fill="#ffffff" stroke="#ff0000" points="181.5,-9.5 181.5,-28.5 249.5,-28.5 249.5,-9.5 181.5,-9.5"/>
<text text-anchor="middle" x="215.5" y="-16.5" font-family="Helvetica,sans-Serif" font-size="10.00" fill="#000000">ThreadLock</text>
</a>
</g>
</g>
<!-- Node15&#45;&gt;Node1 -->
<g id="edge13" class="edge">
<title>Node15&#45;&gt;Node1</title>
<path fill="none" stroke="#9a32cd" stroke-dasharray="5,2" d="M260.2644,-14.9247C325.5536,-9.3419 450.7535,0 557.5,0 557.5,0 557.5,0 1159,0 1229.9804,0 1283.525,-86.4097 1299.8341,-116.113"/>
<polygon fill="#9a32cd" stroke="#9a32cd" points="259.5915,-11.4697 249.9309,-15.8198 260.1957,-18.4436 259.5915,-11.4697"/>
<text text-anchor="middle" x="909.5" y="-3" font-family="Helvetica,sans-Serif" font-size="10.00" fill="#000000"> lock</text>
</g>
<!-- Node15&#45;&gt;Node14 -->
<g id="edge14" class="edge">
<title>Node15&#45;&gt;Node14</title>
<path fill="none" stroke="#191970" d="M259.5454,-21.447C305.8597,-24.02 380.6188,-28.1733 443.6635,-31.6758"/>
<polygon fill="#191970" stroke="#191970" points="259.7214,-17.9514 249.5426,-20.8913 259.333,-24.9407 259.7214,-17.9514"/>
</g>
</g>
</svg>
