<?xml version="1.0" encoding="UTF-8" standalone="no"?>
<!DOCTYPE svg PUBLIC "-//W3C//DTD SVG 1.1//EN"
 "http://www.w3.org/Graphics/SVG/1.1/DTD/svg11.dtd">
<!-- Generated by graphviz version 2.40.1 (20161225.0304)
 -->
<!-- Title: IniFile Pages: 1 -->
<svg width="948pt" height="237pt"
 viewBox="0.00 0.00 948.00 237.00" xmlns="http://www.w3.org/2000/svg" xmlns:xlink="http://www.w3.org/1999/xlink">
<g id="graph0" class="graph" transform="scale(1 1) rotate(0) translate(4 233)">
<title>IniFile</title>
<polygon fill="#ffffff" stroke="transparent" points="-4,4 -4,-233 944,-233 944,4 -4,4"/>
<!-- Node3 -->
<g id="node1" class="node">
<title>Node3</title>
<polygon fill="#bfbfbf" stroke="#000000" points="897,-130.5 897,-149.5 940,-149.5 940,-130.5 897,-130.5"/>
<text text-anchor="middle" x="918.5" y="-137.5" font-family="Helvetica,sans-Serif" font-size="10.00" fill="#000000">IniFile</text>
</g>
<!-- Node8 -->
<g id="node2" class="node">
<title>Node8</title>
<polygon fill="#ffffff" stroke="#bfbfbf" points="411,-45.5 411,-64.5 583,-64.5 583,-45.5 411,-45.5"/>
<text text-anchor="middle" x="497" y="-52.5" font-family="Helvetica,sans-Serif" font-size="10.00" fill="#000000">vector&lt;InMemoryPlugin::Section *&gt;</text>
</g>
<!-- Node4 -->
<g id="node7" class="node">
<title>Node4</title>
<g id="a_node7"><a xlink:href="classaworx_1_1lib_1_1config_1_1InMemoryPlugin.html" target="_top" xlink:title="InMemoryPlugin">
<polygon fill="#ffffff" stroke="#000000" points="669,-78.5 669,-97.5 756,-97.5 756,-78.5 669,-78.5"/>
<text text-anchor="middle" x="712.5" y="-85.5" font-family="Helvetica,sans-Serif" font-size="10.00" fill="#000000">InMemoryPlugin</text>
</a>
</g>
</g>
<!-- Node8&#45;&gt;Node4 -->
<g id="edge6" class="edge">
<title>Node8&#45;&gt;Node4</title>
<path fill="none" stroke="#9a32cd" stroke-dasharray="5,2" d="M587.913,-65.8387C606.1879,-68.2965 625.2334,-71.0582 643,-74 651.3787,-75.3874 660.2897,-77.0439 668.8374,-78.7238"/>
<polygon fill="#9a32cd" stroke="#9a32cd" points="588.2258,-62.3496 577.8526,-64.5053 587.306,-69.2889 588.2258,-62.3496"/>
<text text-anchor="middle" x="622" y="-77" font-family="Helvetica,sans-Serif" font-size="10.00" fill="#000000"> Sections</text>
</g>
<!-- Node23 -->
<g id="node3" class="node">
<title>Node23</title>
<polygon fill="#ffffff" stroke="#bfbfbf" points="679.5,-207.5 679.5,-226.5 745.5,-226.5 745.5,-207.5 679.5,-207.5"/>
<text text-anchor="middle" x="712.5" y="-214.5" font-family="Helvetica,sans-Serif" font-size="10.00" fill="#000000">vector&lt;int&gt;</text>
</g>
<!-- Node23&#45;&gt;Node3 -->
<g id="edge11" class="edge">
<title>Node23&#45;&gt;Node3</title>
<path fill="none" stroke="#9a32cd" stroke-dasharray="5,2" d="M755.6577,-219.5875C791.1561,-219.7467 841.537,-215.2907 879,-193 896.1599,-182.7897 908.2411,-161.9744 914.22,-149.6871"/>
<polygon fill="#9a32cd" stroke="#9a32cd" points="755.6646,-216.0872 745.607,-219.4181 755.5466,-223.0862 755.6646,-216.0872"/>
<text text-anchor="middle" x="830.5" y="-221" font-family="Helvetica,sans-Serif" font-size="10.00" fill="#000000"> LinesWithReadErrors</text>
</g>
<!-- Node7 -->
<g id="node4" class="node">
<title>Node7</title>
<g id="a_node4"><a xlink:href="classaworx_1_1lib_1_1strings_1_1StringBase.html" target="_top" xlink:title="StringBase\&lt;character\&gt;">
<polygon fill="#ffffff" stroke="#000000" points="438.5,-122.5 438.5,-141.5 555.5,-141.5 555.5,-122.5 438.5,-122.5"/>
<text text-anchor="middle" x="497" y="-129.5" font-family="Helvetica,sans-Serif" font-size="10.00" fill="#000000">StringBase&lt;character&gt;</text>
</a>
</g>
</g>
<!-- Node7&#45;&gt;Node3 -->
<g id="edge4" class="edge">
<title>Node7&#45;&gt;Node3</title>
<path fill="none" stroke="#9a32cd" stroke-dasharray="5,2" d="M565.6508,-133.303C663.0053,-135.1508 836.0923,-138.4359 896.7625,-139.5874"/>
<polygon fill="#9a32cd" stroke="#9a32cd" points="565.6724,-129.8029 555.6078,-133.1124 565.5395,-136.8016 565.6724,-129.8029"/>
<text text-anchor="middle" x="712.5" y="-140" font-family="Helvetica,sans-Serif" font-size="10.00" fill="#000000"> DefaultCommentPrefix</text>
</g>
<!-- Node7&#45;&gt;Node4 -->
<g id="edge5" class="edge">
<title>Node7&#45;&gt;Node4</title>
<path fill="none" stroke="#9a32cd" stroke-dasharray="5,2" d="M553.6351,-120.4364C589.6448,-113.0841 635.5679,-103.7077 668.7687,-96.9289"/>
<polygon fill="#9a32cd" stroke="#9a32cd" points="552.858,-117.0228 543.7603,-122.4527 554.2584,-123.8813 552.858,-117.0228"/>
<text text-anchor="middle" x="622" y="-113" font-family="Helvetica,sans-Serif" font-size="10.00" fill="#000000"> name</text>
</g>
<!-- Node19 -->
<g id="node5" class="node">
<title>Node19</title>
<g id="a_node5"><a xlink:href="classaworx_1_1lib_1_1strings_1_1AStringBase.html" target="_top" xlink:title="AStringBase\&lt;character\&gt;">
<polygon fill="#ffffff" stroke="#ff0000" points="0,-107.5 0,-126.5 124,-126.5 124,-107.5 0,-107.5"/>
<text text-anchor="middle" x="62" y="-114.5" font-family="Helvetica,sans-Serif" font-size="10.00" fill="#000000">AStringBase&lt;character&gt;</text>
</a>
</g>
</g>
<!-- Node19&#45;&gt;Node3 -->
<g id="edge9" class="edge">
<title>Node19&#45;&gt;Node3</title>
<path fill="none" stroke="#9a32cd" stroke-dasharray="5,2" d="M87.3673,-131.5362C121.7961,-149.8616 185.7733,-179 244.5,-179 244.5,-179 244.5,-179 712.5,-179 780.7485,-179 859.5306,-158.0788 896.8049,-146.8826"/>
<polygon fill="#9a32cd" stroke="#9a32cd" points="88.9248,-128.3991 78.4691,-126.6875 85.5754,-134.5457 88.9248,-128.3991"/>
<text text-anchor="middle" x="497" y="-193" font-family="Helvetica,sans-Serif" font-size="10.00" fill="#000000"> FileComments</text>
<text text-anchor="middle" x="497" y="-182" font-family="Helvetica,sans-Serif" font-size="10.00" fill="#000000">FileName</text>
</g>
<!-- Node9 -->
<g id="node10" class="node">
<title>Node9</title>
<g id="a_node10"><a xlink:href="classaworx_1_1lib_1_1config_1_1InMemoryPlugin_1_1Section.html" target="_top" xlink:title="Section">
<polygon fill="#ffffff" stroke="#ff0000" points="219.5,-45.5 219.5,-64.5 269.5,-64.5 269.5,-45.5 219.5,-45.5"/>
<text text-anchor="middle" x="244.5" y="-52.5" font-family="Helvetica,sans-Serif" font-size="10.00" fill="#000000">Section</text>
</a>
</g>
</g>
<!-- Node19&#45;&gt;Node9 -->
<g id="edge10" class="edge">
<title>Node19&#45;&gt;Node9</title>
<path fill="none" stroke="#9a32cd" stroke-dasharray="5,2" d="M99.7305,-104.182C135.5322,-92.0192 188.3337,-74.0811 219.2926,-63.5636"/>
<polygon fill="#9a32cd" stroke="#9a32cd" points="98.4583,-100.9176 90.1157,-107.4484 100.7101,-107.5456 98.4583,-100.9176"/>
<text text-anchor="middle" x="168" y="-92" font-family="Helvetica,sans-Serif" font-size="10.00" fill="#000000"> Comments</text>
</g>
<!-- Node24 -->
<g id="node6" class="node">
<title>Node24</title>
<g id="a_node6"><a xlink:href="classaworx_1_1lib_1_1strings_1_1StringBase.html" target="_top" xlink:title="StringBase\&lt;TChar\&gt;">
<polygon fill="#ffffff" stroke="#000000" points="661,-17.5 661,-36.5 764,-36.5 764,-17.5 661,-17.5"/>
<text text-anchor="middle" x="712.5" y="-24.5" font-family="Helvetica,sans-Serif" font-size="10.00" fill="#000000">StringBase&lt;TChar&gt;</text>
</a>
</g>
</g>
<!-- Node24&#45;&gt;Node3 -->
<g id="edge12" class="edge">
<title>Node24&#45;&gt;Node3</title>
<path fill="none" stroke="#9a32cd" stroke-dasharray="5,2" d="M770.7198,-39.069C804.679,-48.1766 846.9908,-63.2623 879,-87 894.8544,-98.7575 907.2354,-118.6409 913.6534,-130.4235"/>
<polygon fill="#9a32cd" stroke="#9a32cd" points="771.4825,-35.6513 760.9253,-36.5441 769.735,-42.4297 771.4825,-35.6513"/>
<text text-anchor="middle" x="830.5" y="-90" font-family="Helvetica,sans-Serif" font-size="10.00" fill="#000000"> DefaultFileExtension</text>
</g>
<!-- Node4&#45;&gt;Node3 -->
<g id="edge1" class="edge">
<title>Node4&#45;&gt;Node3</title>
<path fill="none" stroke="#191970" d="M766.1791,-98.5953C799.0045,-105.483 841.7121,-115.1767 879,-126 884.8693,-127.7036 891.1396,-129.7966 896.916,-131.8399"/>
<polygon fill="#191970" stroke="#191970" points="766.8288,-95.1557 756.3261,-96.5497 765.4058,-102.0095 766.8288,-95.1557"/>
</g>
<!-- Node5 -->
<g id="node8" class="node">
<title>Node5</title>
<g id="a_node8"><a xlink:href="classaworx_1_1lib_1_1config_1_1ConfigurationPlugin.html" target="_top" xlink:title="ConfigurationPlugin">
<polygon fill="#ffffff" stroke="#000000" points="446.5,-83.5 446.5,-102.5 547.5,-102.5 547.5,-83.5 446.5,-83.5"/>
<text text-anchor="middle" x="497" y="-90.5" font-family="Helvetica,sans-Serif" font-size="10.00" fill="#000000">ConfigurationPlugin</text>
</a>
</g>
</g>
<!-- Node5&#45;&gt;Node4 -->
<g id="edge2" class="edge">
<title>Node5&#45;&gt;Node4</title>
<path fill="none" stroke="#191970" d="M557.7351,-91.5908C593.1078,-90.7701 636.8895,-89.7543 668.8498,-89.0128"/>
<polygon fill="#191970" stroke="#191970" points="557.4413,-88.0966 547.5252,-91.8277 557.6037,-95.0947 557.4413,-88.0966"/>
</g>
<!-- Node6 -->
<g id="node9" class="node">
<title>Node6</title>
<g id="a_node9"><a xlink:href="classaworx_1_1lib_1_1config_1_1XTernalizer.html" target="_top" xlink:title="XTernalizer">
<polygon fill="#ffffff" stroke="#000000" points="212,-83.5 212,-102.5 277,-102.5 277,-83.5 212,-83.5"/>
<text text-anchor="middle" x="244.5" y="-90.5" font-family="Helvetica,sans-Serif" font-size="10.00" fill="#000000">XTernalizer</text>
</a>
</g>
</g>
<!-- Node6&#45;&gt;Node5 -->
<g id="edge3" class="edge">
<title>Node6&#45;&gt;Node5</title>
<path fill="none" stroke="#9a32cd" stroke-dasharray="5,2" d="M287.3373,-93C331.3351,-93 399.7948,-93 446.4257,-93"/>
<polygon fill="#9a32cd" stroke="#9a32cd" points="287.2511,-89.5001 277.2511,-93 287.2511,-96.5001 287.2511,-89.5001"/>
<text text-anchor="middle" x="344" y="-107" font-family="Helvetica,sans-Serif" font-size="10.00" fill="#000000"> StringConverter</text>
<text text-anchor="middle" x="344" y="-96" font-family="Helvetica,sans-Serif" font-size="10.00" fill="#000000">defaultStringConverter</text>
</g>
<!-- Node9&#45;&gt;Node8 -->
<g id="edge7" class="edge">
<title>Node9&#45;&gt;Node8</title>
<path fill="none" stroke="#9a32cd" stroke-dasharray="5,2" d="M279.9431,-55C313.8,-55 366.1611,-55 410.9726,-55"/>
<polygon fill="#9a32cd" stroke="#9a32cd" points="279.6338,-51.5001 269.6338,-55 279.6338,-58.5001 279.6338,-51.5001"/>
<text text-anchor="middle" x="344" y="-58" font-family="Helvetica,sans-Serif" font-size="10.00" fill="#000000"> elements</text>
</g>
<!-- Node14 -->
<g id="node11" class="node">
<title>Node14</title>
<polygon fill="#ffffff" stroke="#bfbfbf" points="475.5,-.5 475.5,-19.5 518.5,-19.5 518.5,-.5 475.5,-.5"/>
<text text-anchor="middle" x="497" y="-7.5" font-family="Helvetica,sans-Serif" font-size="10.00" fill="#000000">TChar</text>
</g>
<!-- Node14&#45;&gt;Node24 -->
<g id="edge8" class="edge">
<title>Node14&#45;&gt;Node24</title>
<path fill="none" stroke="#9a32cd" stroke-dasharray="5,2" d="M529.0407,-8.2098C558.7046,-7.0278 603.9854,-6.4317 643,-11 654.4367,-12.3392 666.7361,-14.8169 677.762,-17.4292"/>
<polygon fill="#9a32cd" stroke="#9a32cd" points="528.6934,-4.7217 518.8591,-8.6633 529.0049,-11.7147 528.6934,-4.7217"/>
<text text-anchor="middle" x="622" y="-25" font-family="Helvetica,sans-Serif" font-size="10.00" fill="#000000"> vbuffer</text>
<text text-anchor="middle" x="622" y="-14" font-family="Helvetica,sans-Serif" font-size="10.00" fill="#000000">buffer</text>
</g>
</g>
</svg>
