<?xml version="1.0" encoding="UTF-8" standalone="no"?>
<!DOCTYPE svg PUBLIC "-//W3C//DTD SVG 1.1//EN"
 "http://www.w3.org/Graphics/SVG/1.1/DTD/svg11.dtd">
<!-- Generated by graphviz version 2.40.1 (20161225.0304)
 -->
<!-- Title: IniFile::Section Pages: 1 -->
<svg width="924pt" height="113pt"
 viewBox="0.00 0.00 924.00 113.00" xmlns="http://www.w3.org/2000/svg" xmlns:xlink="http://www.w3.org/1999/xlink">
<g id="graph0" class="graph" transform="scale(1 1) rotate(0) translate(4 109)">
<title>IniFile::Section</title>
<polygon fill="#ffffff" stroke="transparent" points="-4,4 -4,-109 920,-109 920,4 -4,4"/>
<!-- Node2 -->
<g id="node1" class="node">
<title>Node2</title>
<polygon fill="#bfbfbf" stroke="#000000" points="834,-38.5 834,-57.5 916,-57.5 916,-38.5 834,-38.5"/>
<text text-anchor="middle" x="875" y="-45.5" font-family="Helvetica,sans-Serif" font-size="10.00" fill="#000000">IniFile::Section</text>
</g>
<!-- Node9 -->
<g id="node2" class="node">
<title>Node9</title>
<polygon fill="#ffffff" stroke="#bfbfbf" points="515,-.5 515,-19.5 677,-19.5 677,-.5 515,-.5"/>
<text text-anchor="middle" x="596" y="-7.5" font-family="Helvetica,sans-Serif" font-size="10.00" fill="#000000">vector&lt;InMemoryPlugin::Entry *&gt;</text>
</g>
<!-- Node3 -->
<g id="node5" class="node">
<title>Node3</title>
<g id="a_node5"><a xlink:href="classaworx_1_1lib_1_1config_1_1InMemoryPlugin_1_1Section.html" target="_top" xlink:title="Section">
<polygon fill="#ffffff" stroke="#000000" points="747,-38.5 747,-57.5 797,-57.5 797,-38.5 747,-38.5"/>
<text text-anchor="middle" x="772" y="-45.5" font-family="Helvetica,sans-Serif" font-size="10.00" fill="#000000">Section</text>
</a>
</g>
</g>
<!-- Node9&#45;&gt;Node3 -->
<g id="edge4" class="edge">
<title>Node9&#45;&gt;Node3</title>
<path fill="none" stroke="#9a32cd" stroke-dasharray="5,2" d="M687.5314,-13.7244C701.6247,-15.7874 715.852,-18.7589 729,-23 739.6838,-26.4463 750.6054,-32.8393 758.7683,-38.2975"/>
<polygon fill="#9a32cd" stroke="#9a32cd" points="687.6819,-10.2141 677.3104,-12.3776 686.7674,-17.1541 687.6819,-10.2141"/>
<text text-anchor="middle" x="712" y="-26" font-family="Helvetica,sans-Serif" font-size="10.00" fill="#000000"> Entries</text>
</g>
<!-- Node13 -->
<g id="node3" class="node">
<title>Node13</title>
<g id="a_node3"><a xlink:href="classaworx_1_1lib_1_1strings_1_1AStringBase.html" target="_top" xlink:title="AStringBase\&lt;character\&gt;">
<polygon fill="#ffffff" stroke="#ff0000" points="0,-28.5 0,-47.5 124,-47.5 124,-28.5 0,-28.5"/>
<text text-anchor="middle" x="62" y="-35.5" font-family="Helvetica,sans-Serif" font-size="10.00" fill="#000000">AStringBase&lt;character&gt;</text>
</a>
</g>
</g>
<!-- Node4 -->
<g id="node4" class="node">
<title>Node4</title>
<g id="a_node4"><a xlink:href="classaworx_1_1lib_1_1strings_1_1PreallocatedStringBase.html" target="_top" xlink:title="PreallocatedStringBase\&lt;TChar\&gt;">
<polygon fill="#ffffff" stroke="#000000" points="161,-28.5 161,-47.5 318,-47.5 318,-28.5 161,-28.5"/>
<text text-anchor="middle" x="239.5" y="-35.5" font-family="Helvetica,sans-Serif" font-size="10.00" fill="#000000">PreallocatedStringBase&lt;TChar&gt;</text>
</a>
</g>
</g>
<!-- Node13&#45;&gt;Node4 -->
<g id="edge7" class="edge">
<title>Node13&#45;&gt;Node4</title>
<path fill="none" stroke="#191970" d="M134.2644,-38C143.045,-38 152.0487,-38 160.9152,-38"/>
<polygon fill="#191970" stroke="#191970" points="134.0809,-34.5001 124.0809,-38 134.0809,-41.5001 134.0809,-34.5001"/>
</g>
<!-- Node13&#45;&gt;Node3 -->
<g id="edge6" class="edge">
<title>Node13&#45;&gt;Node3</title>
<path fill="none" stroke="#9a32cd" stroke-dasharray="5,2" d="M89.3702,-52.3896C123.5319,-68.9818 184.209,-94 239.5,-94 239.5,-94 239.5,-94 596,-94 653.1633,-94 717.4753,-71.0049 750.2518,-57.5312"/>
<polygon fill="#9a32cd" stroke="#9a32cd" points="90.5713,-49.0778 80.0594,-47.7545 87.4517,-55.3443 90.5713,-49.0778"/>
<text text-anchor="middle" x="410" y="-97" font-family="Helvetica,sans-Serif" font-size="10.00" fill="#000000"> Comments</text>
</g>
<!-- Node10 -->
<g id="node6" class="node">
<title>Node10</title>
<g id="a_node6"><a xlink:href="classaworx_1_1lib_1_1config_1_1InMemoryPlugin_1_1Entry.html" target="_top" xlink:title="Entry">
<polygon fill="#ffffff" stroke="#ff0000" points="390,-.5 390,-19.5 430,-19.5 430,-.5 390,-.5"/>
<text text-anchor="middle" x="410" y="-7.5" font-family="Helvetica,sans-Serif" font-size="10.00" fill="#000000">Entry</text>
</a>
</g>
</g>
<!-- Node13&#45;&gt;Node10 -->
<g id="edge8" class="edge">
<title>Node13&#45;&gt;Node10</title>
<path fill="none" stroke="#9a32cd" stroke-dasharray="5,2" d="M95.974,-24.9959C114.8217,-18.4748 138.8635,-11.2804 161,-8 245.2442,4.484 347.2837,-3.43 389.8429,-7.741"/>
<polygon fill="#9a32cd" stroke="#9a32cd" points="94.6032,-21.7687 86.3563,-28.42 96.951,-28.3632 94.6032,-21.7687"/>
<text text-anchor="middle" x="239.5" y="-11" font-family="Helvetica,sans-Serif" font-size="10.00" fill="#000000"> Comments</text>
</g>
<!-- Node4&#45;&gt;Node3 -->
<g id="edge2" class="edge">
<title>Node4&#45;&gt;Node3</title>
<path fill="none" stroke="#9a32cd" stroke-dasharray="5,2" d="M328.3593,-39.6687C453.0772,-42.0108 673.0716,-46.1422 746.9835,-47.5302"/>
<polygon fill="#9a32cd" stroke="#9a32cd" points="328.1362,-36.164 318.0722,-39.4755 328.0047,-43.1628 328.1362,-36.164"/>
<text text-anchor="middle" x="475.5" y="-46" font-family="Helvetica,sans-Serif" font-size="10.00" fill="#000000"> Name</text>
</g>
<!-- Node4&#45;&gt;Node10 -->
<g id="edge3" class="edge">
<title>Node4&#45;&gt;Node10</title>
<path fill="none" stroke="#9a32cd" stroke-dasharray="5,2" d="M307.6121,-26.8144C337.2312,-21.9503 369.7293,-16.6134 389.9952,-13.2852"/>
<polygon fill="#9a32cd" stroke="#9a32cd" points="307.0002,-23.368 297.6996,-28.4423 308.1346,-30.2754 307.0002,-23.368"/>
<text text-anchor="middle" x="351" y="-25" font-family="Helvetica,sans-Serif" font-size="10.00" fill="#000000"> Name</text>
</g>
<!-- Node3&#45;&gt;Node2 -->
<g id="edge1" class="edge">
<title>Node3&#45;&gt;Node2</title>
<path fill="none" stroke="#191970" d="M807.4529,-48C815.8803,-48 824.9447,-48 833.6114,-48"/>
<polygon fill="#191970" stroke="#191970" points="807.1967,-44.5001 797.1966,-48 807.1966,-51.5001 807.1967,-44.5001"/>
</g>
<!-- Node10&#45;&gt;Node9 -->
<g id="edge5" class="edge">
<title>Node10&#45;&gt;Node9</title>
<path fill="none" stroke="#9a32cd" stroke-dasharray="5,2" d="M440.4139,-10C460.6693,-10 488.3152,-10 514.6872,-10"/>
<polygon fill="#9a32cd" stroke="#9a32cd" points="440.2594,-6.5001 430.2593,-10 440.2593,-13.5001 440.2594,-6.5001"/>
<text text-anchor="middle" x="475.5" y="-13" font-family="Helvetica,sans-Serif" font-size="10.00" fill="#000000"> elements</text>
</g>
</g>
</svg>
