<?xml version="1.0" encoding="UTF-8" standalone="no"?>
<!DOCTYPE svg PUBLIC "-//W3C//DTD SVG 1.1//EN"
 "http://www.w3.org/Graphics/SVG/1.1/DTD/svg11.dtd">
<!-- Generated by graphviz version 2.40.1 (20161225.0304)
 -->
<!-- Title: IEquals_TncharArr Pages: 1 -->
<svg width="229pt" height="152pt"
 viewBox="0.00 0.00 228.50 152.00" xmlns="http://www.w3.org/2000/svg" xmlns:xlink="http://www.w3.org/1999/xlink">
<g id="graph0" class="graph" transform="scale(1 1) rotate(0) translate(4 148)">
<title>IEquals_TncharArr</title>
<polygon fill="#ffffff" stroke="transparent" points="-4,4 -4,-148 224.5,-148 224.5,4 -4,4"/>
<!-- Node4 -->
<g id="node1" class="node">
<title>Node4</title>
<polygon fill="#bfbfbf" stroke="#000000" points="84,-.5 84,-19.5 182,-19.5 182,-.5 84,-.5"/>
<text text-anchor="middle" x="133" y="-7.5" font-family="Helvetica,sans-Serif" font-size="10.00" fill="#000000">IEquals_TncharArr</text>
</g>
<!-- Node7 -->
<g id="node2" class="node">
<title>Node7</title>
<g id="a_node2"><a xlink:href="classaworx_1_1lib_1_1lang_1_1Singleton.html" target="_top" xlink:title="Singleton\&lt;IEquals_TncharArr\&gt;">
<polygon fill="#ffffff" stroke="#000000" points="0,-57.5 0,-76.5 150,-76.5 150,-57.5 0,-57.5"/>
<text text-anchor="middle" x="75" y="-64.5" font-family="Helvetica,sans-Serif" font-size="10.00" fill="#000000">Singleton&lt;IEquals_TncharArr&gt;</text>
</a>
</g>
</g>
<!-- Node7&#45;&gt;Node4 -->
<g id="edge3" class="edge">
<title>Node7&#45;&gt;Node4</title>
<path fill="none" stroke="#191970" d="M92.055,-50.239C102.2379,-40.2317 114.8017,-27.8845 123.3064,-19.5265"/>
<polygon fill="#191970" stroke="#191970" points="89.518,-47.8251 84.8389,-57.3307 94.4245,-52.8177 89.518,-47.8251"/>
</g>
<!-- Node5 -->
<g id="node3" class="node">
<title>Node5</title>
<g id="a_node3"><a xlink:href="classaworx_1_1lib_1_1boxing_1_1IEquals.html" target="_top" xlink:title="IEquals">
<polygon fill="#ffffff" stroke="#000000" points="168,-57.5 168,-76.5 218,-76.5 218,-57.5 168,-57.5"/>
<text text-anchor="middle" x="193" y="-64.5" font-family="Helvetica,sans-Serif" font-size="10.00" fill="#000000">IEquals</text>
</a>
</g>
</g>
<!-- Node5&#45;&gt;Node4 -->
<g id="edge1" class="edge">
<title>Node5&#45;&gt;Node4</title>
<path fill="none" stroke="#191970" d="M175.3569,-50.239C164.8229,-40.2317 151.8258,-27.8845 143.0279,-19.5265"/>
<polygon fill="#191970" stroke="#191970" points="173.1612,-52.9807 182.8218,-57.3307 177.9824,-47.9057 173.1612,-52.9807"/>
</g>
<!-- Node6 -->
<g id="node4" class="node">
<title>Node6</title>
<g id="a_node4"><a xlink:href="classaworx_1_1lib_1_1boxing_1_1Interface.html" target="_top" xlink:title="Interface">
<polygon fill="#ffffff" stroke="#000000" points="165.5,-124.5 165.5,-143.5 220.5,-143.5 220.5,-124.5 165.5,-124.5"/>
<text text-anchor="middle" x="193" y="-131.5" font-family="Helvetica,sans-Serif" font-size="10.00" fill="#000000">Interface</text>
</a>
</g>
</g>
<!-- Node6&#45;&gt;Node5 -->
<g id="edge2" class="edge">
<title>Node6&#45;&gt;Node5</title>
<path fill="none" stroke="#191970" d="M193,-114.1079C193,-101.714 193,-86.3263 193,-76.5817"/>
<polygon fill="#191970" stroke="#191970" points="189.5001,-114.4005 193,-124.4005 196.5001,-114.4006 189.5001,-114.4005"/>
</g>
<!-- Node8 -->
<g id="node5" class="node">
<title>Node8</title>
<polygon fill="#ffffff" stroke="#bfbfbf" points="34,-124.5 34,-143.5 116,-143.5 116,-124.5 34,-124.5"/>
<text text-anchor="middle" x="75" y="-131.5" font-family="Helvetica,sans-Serif" font-size="10.00" fill="#000000">TDerivedClass</text>
</g>
<!-- Node8&#45;&gt;Node7 -->
<g id="edge4" class="edge">
<title>Node8&#45;&gt;Node7</title>
<path fill="none" stroke="#9a32cd" stroke-dasharray="5,2" d="M75,-114.1079C75,-101.714 75,-86.3263 75,-76.5817"/>
<polygon fill="#9a32cd" stroke="#9a32cd" points="71.5001,-114.4005 75,-124.4005 78.5001,-114.4006 71.5001,-114.4005"/>
<text text-anchor="middle" x="96.5" y="-98" font-family="Helvetica,sans-Serif" font-size="10.00" fill="#000000"> singleton</text>
</g>
</g>
</svg>
