<?xml version="1.0" encoding="UTF-8" standalone="no"?>
<!DOCTYPE svg PUBLIC "-//W3C//DTD SVG 1.1//EN"
 "http://www.w3.org/Graphics/SVG/1.1/DTD/svg11.dtd">
<!-- Generated by graphviz version 2.40.1 (20161225.0304)
 -->
<!-- Title: StringTree&lt;T, TAllocator, TSeparator&gt;::Walker Pages: 1 -->
<svg width="1088pt" height="188pt"
 viewBox="0.00 0.00 1088.00 188.00" xmlns="http://www.w3.org/2000/svg" xmlns:xlink="http://www.w3.org/1999/xlink">
<g id="graph0" class="graph" transform="scale(1 1) rotate(0) translate(4 184)">
<title>StringTree&lt;T, TAllocator, TSeparator&gt;::Walker</title>
<polygon fill="#ffffff" stroke="transparent" points="-4,4 -4,-184 1084,-184 1084,4 -4,4"/>
<!-- Node1 -->
<g id="node1" class="node">
<title>Node1</title>
<polygon fill="#bfbfbf" stroke="#000000" points="862,-65.5 862,-84.5 1080,-84.5 1080,-65.5 862,-65.5"/>
<text text-anchor="middle" x="971" y="-72.5" font-family="Helvetica,sans-Serif" font-size="10.00" fill="#000000">StringTree&lt;T, TAllocator, TSeparator&gt;::Walker</text>
</g>
<!-- Node6 -->
<g id="node2" class="node">
<title>Node6</title>
<polygon fill="#ffffff" stroke="#bfbfbf" points="581,-126.5 581,-145.5 789,-145.5 789,-126.5 581,-126.5"/>
<text text-anchor="middle" x="685" y="-133.5" font-family="Helvetica,sans-Serif" font-size="10.00" fill="#000000">vector&lt;StringTree::Walker::RecursionData&gt;</text>
</g>
<!-- Node6&#45;&gt;Node1 -->
<g id="edge6" class="edge">
<title>Node6&#45;&gt;Node1</title>
<path fill="none" stroke="#9a32cd" stroke-dasharray="5,2" d="M750.0916,-124.5847C763.0051,-122.1858 776.4479,-119.5935 789,-117 838.5407,-106.7641 895.2872,-93.407 932.0611,-84.5337"/>
<polygon fill="#9a32cd" stroke="#9a32cd" points="749.0779,-121.2123 739.8758,-126.4634 750.344,-128.0969 749.0779,-121.2123"/>
<text text-anchor="middle" x="825.5" y="-115" font-family="Helvetica,sans-Serif" font-size="10.00" fill="#000000"> stack</text>
</g>
<!-- Node10 -->
<g id="node3" class="node">
<title>Node10</title>
<polygon fill="#ffffff" stroke="#bfbfbf" points="0,-160.5 0,-179.5 218,-179.5 218,-160.5 0,-160.5"/>
<text text-anchor="middle" x="109" y="-167.5" font-family="Helvetica,sans-Serif" font-size="10.00" fill="#000000">vector&lt;pair&lt;StringBase, StringTree::Node *&gt;&gt;</text>
</g>
<!-- Node7 -->
<g id="node9" class="node">
<title>Node7</title>
<g id="a_node9"><a xlink:href="structaworx_1_1lib_1_1util_1_1StringTree_1_1Walker_1_1RecursionData.html" target="_top" xlink:title="Protected, internal struct used to store the data of recursive iterations. ">
<polygon fill="#ffffff" stroke="#000000" points="370.5,-126.5 370.5,-145.5 452.5,-145.5 452.5,-126.5 370.5,-126.5"/>
<text text-anchor="middle" x="411.5" y="-133.5" font-family="Helvetica,sans-Serif" font-size="10.00" fill="#000000">RecursionData</text>
</a>
</g>
</g>
<!-- Node10&#45;&gt;Node7 -->
<g id="edge11" class="edge">
<title>Node10&#45;&gt;Node7</title>
<path fill="none" stroke="#9a32cd" stroke-dasharray="5,2" d="M203.6135,-159.3658C259.6152,-153.0714 327.7244,-145.4161 370.3579,-140.6242"/>
<polygon fill="#9a32cd" stroke="#9a32cd" points="203.2118,-155.8888 193.6654,-160.4839 203.9937,-162.845 203.2118,-155.8888"/>
<text text-anchor="middle" x="269.5" y="-169" font-family="Helvetica,sans-Serif" font-size="10.00" fill="#000000"> sortedChildren</text>
<text text-anchor="middle" x="269.5" y="-158" font-family="Helvetica,sans-Serif" font-size="10.00" fill="#000000">actChild</text>
</g>
<!-- Node11 -->
<g id="node4" class="node">
<title>Node11</title>
<g id="a_node4"><a xlink:href="classaworx_1_1lib_1_1util_1_1StringTree.html" target="_top" xlink:title="StringTree\&lt;T, TAllocator, TSeparator\&gt;">
<polygon fill="#ffffff" stroke="#000000" points="321,-33.5 321,-52.5 502,-52.5 502,-33.5 321,-33.5"/>
<text text-anchor="middle" x="411.5" y="-40.5" font-family="Helvetica,sans-Serif" font-size="10.00" fill="#000000">StringTree&lt;T, TAllocator, TSeparator&gt;</text>
</a>
</g>
</g>
<!-- Node11&#45;&gt;Node1 -->
<g id="edge12" class="edge">
<title>Node11&#45;&gt;Node1</title>
<path fill="none" stroke="#9a32cd" stroke-dasharray="5,2" d="M512.2849,-48.7643C610.8663,-54.4025 760.5534,-62.9637 861.894,-68.7598"/>
<polygon fill="#9a32cd" stroke="#9a32cd" points="512.1987,-45.2537 502.0152,-48.1769 511.799,-52.2423 512.1987,-45.2537"/>
<text text-anchor="middle" x="685" y="-67" font-family="Helvetica,sans-Serif" font-size="10.00" fill="#000000"> stringTree</text>
</g>
<!-- Node3 -->
<g id="node5" class="node">
<title>Node3</title>
<g id="a_node5"><a xlink:href="classaworx_1_1lib_1_1strings_1_1AStringBase.html" target="_top" xlink:title="AStringBase\&lt;character\&gt;">
<polygon fill="#ffffff" stroke="#000000" points="623,-88.5 623,-107.5 747,-107.5 747,-88.5 623,-88.5"/>
<text text-anchor="middle" x="685" y="-95.5" font-family="Helvetica,sans-Serif" font-size="10.00" fill="#000000">AStringBase&lt;character&gt;</text>
</a>
</g>
</g>
<!-- Node3&#45;&gt;Node1 -->
<g id="edge2" class="edge">
<title>Node3&#45;&gt;Node1</title>
<path fill="none" stroke="#9a32cd" stroke-dasharray="5,2" d="M757.118,-92.2003C788.8119,-89.6515 826.7238,-86.6026 861.7663,-83.7845"/>
<polygon fill="#9a32cd" stroke="#9a32cd" points="756.745,-88.7189 747.0577,-93.0093 757.3062,-95.6964 756.745,-88.7189"/>
<text text-anchor="middle" x="825.5" y="-90" font-family="Helvetica,sans-Serif" font-size="10.00" fill="#000000"> actPath</text>
</g>
<!-- Node4 -->
<g id="node6" class="node">
<title>Node4</title>
<g id="a_node6"><a xlink:href="classaworx_1_1lib_1_1strings_1_1TStringBase.html" target="_top" xlink:title="TStringBase\&lt;character\&gt;">
<polygon fill="#ffffff" stroke="#000000" points="350,-88.5 350,-107.5 473,-107.5 473,-88.5 350,-88.5"/>
<text text-anchor="middle" x="411.5" y="-95.5" font-family="Helvetica,sans-Serif" font-size="10.00" fill="#000000">TStringBase&lt;character&gt;</text>
</a>
</g>
</g>
<!-- Node4&#45;&gt;Node3 -->
<g id="edge3" class="edge">
<title>Node4&#45;&gt;Node3</title>
<path fill="none" stroke="#191970" d="M483.3895,-98C526.6288,-98 581.1276,-98 622.5583,-98"/>
<polygon fill="#191970" stroke="#191970" points="483.2198,-94.5001 473.2198,-98 483.2197,-101.5001 483.2198,-94.5001"/>
</g>
<!-- Node5 -->
<g id="node7" class="node">
<title>Node5</title>
<g id="a_node7"><a xlink:href="classaworx_1_1lib_1_1strings_1_1StringBase.html" target="_top" xlink:title="StringBase\&lt;character\&gt;">
<polygon fill="#ffffff" stroke="#000000" points="50.5,-118.5 50.5,-137.5 167.5,-137.5 167.5,-118.5 50.5,-118.5"/>
<text text-anchor="middle" x="109" y="-125.5" font-family="Helvetica,sans-Serif" font-size="10.00" fill="#000000">StringBase&lt;character&gt;</text>
</a>
</g>
</g>
<!-- Node5&#45;&gt;Node4 -->
<g id="edge4" class="edge">
<title>Node5&#45;&gt;Node4</title>
<path fill="none" stroke="#191970" d="M177.7801,-121.1788C229.5576,-116.0439 299.9081,-109.067 349.8622,-104.1128"/>
<polygon fill="#191970" stroke="#191970" points="177.2895,-117.7102 167.6837,-122.1801 177.9803,-124.6761 177.2895,-117.7102"/>
</g>
<!-- Node5&#45;&gt;Node7 -->
<g id="edge5" class="edge">
<title>Node5&#45;&gt;Node7</title>
<path fill="none" stroke="#9a32cd" stroke-dasharray="5,2" d="M177.7334,-129.8177C237.1191,-131.3883 320.9627,-133.6056 370.4312,-134.9139"/>
<polygon fill="#9a32cd" stroke="#9a32cd" points="177.7728,-126.3177 167.6837,-129.552 177.5877,-133.3152 177.7728,-126.3177"/>
<text text-anchor="middle" x="269.5" y="-135" font-family="Helvetica,sans-Serif" font-size="10.00" fill="#000000"> nodeName</text>
</g>
<!-- Node2 -->
<g id="node8" class="node">
<title>Node2</title>
<g id="a_node8"><a xlink:href="structaworx_1_1lib_1_1util_1_1StringTree_1_1Walker_1_1Sorter.html" target="_top" xlink:title="Sorter">
<polygon fill="#ffffff" stroke="#000000" points="663.5,-3.5 663.5,-22.5 706.5,-22.5 706.5,-3.5 663.5,-3.5"/>
<text text-anchor="middle" x="685" y="-10.5" font-family="Helvetica,sans-Serif" font-size="10.00" fill="#000000">Sorter</text>
</a>
</g>
</g>
<!-- Node2&#45;&gt;Node1 -->
<g id="edge1" class="edge">
<title>Node2&#45;&gt;Node1</title>
<path fill="none" stroke="#9a32cd" stroke-dasharray="5,2" d="M716.7498,-15.4897C749.0587,-18.4201 800.4403,-24.1771 844,-34 880.1625,-42.1548 920.7313,-56.1317 946.0725,-65.4676"/>
<polygon fill="#9a32cd" stroke="#9a32cd" points="716.8289,-11.9834 706.5629,-14.6025 716.2214,-18.957 716.8289,-11.9834"/>
<text text-anchor="middle" x="825.5" y="-37" font-family="Helvetica,sans-Serif" font-size="10.00" fill="#000000"> sorter</text>
</g>
<!-- Node7&#45;&gt;Node6 -->
<g id="edge7" class="edge">
<title>Node7&#45;&gt;Node6</title>
<path fill="none" stroke="#9a32cd" stroke-dasharray="5,2" d="M463.0938,-136C496.2363,-136 540.4641,-136 580.7106,-136"/>
<polygon fill="#9a32cd" stroke="#9a32cd" points="462.7419,-132.5001 452.7418,-136 462.7418,-139.5001 462.7419,-132.5001"/>
<text text-anchor="middle" x="541.5" y="-139" font-family="Helvetica,sans-Serif" font-size="10.00" fill="#000000"> elements</text>
</g>
<!-- Node8 -->
<g id="node10" class="node">
<title>Node8</title>
<g id="a_node10"><a xlink:href="classaworx_1_1lib_1_1util_1_1StringTree_1_1Node.html" target="_top" xlink:title="Node">
<polygon fill="#ffffff" stroke="#ff0000" points="89,-43.5 89,-62.5 129,-62.5 129,-43.5 89,-43.5"/>
<text text-anchor="middle" x="109" y="-50.5" font-family="Helvetica,sans-Serif" font-size="10.00" fill="#000000">Node</text>
</a>
</g>
</g>
<!-- Node8&#45;&gt;Node11 -->
<g id="edge10" class="edge">
<title>Node8&#45;&gt;Node11</title>
<path fill="none" stroke="#9a32cd" stroke-dasharray="5,2" d="M139.4421,-50.2842C165.1504,-48.1248 202.9512,-45.2638 236,-44 263.5545,-42.9463 293.56,-42.5126 320.8398,-42.3922"/>
<polygon fill="#9a32cd" stroke="#9a32cd" points="138.8787,-46.8195 129.2138,-51.16 139.476,-53.794 138.8787,-46.8195"/>
<text text-anchor="middle" x="269.5" y="-47" font-family="Helvetica,sans-Serif" font-size="10.00" fill="#000000"> root</text>
</g>
<!-- Node8&#45;&gt;Node7 -->
<g id="edge8" class="edge">
<title>Node8&#45;&gt;Node7</title>
<path fill="none" stroke="#9a32cd" stroke-dasharray="5,2" d="M138.5883,-62.8157C179.3582,-76.1376 255.2386,-100.2039 321,-117 337.0216,-121.0921 354.8011,-124.967 370.3302,-128.1372"/>
<polygon fill="#9a32cd" stroke="#9a32cd" points="139.5998,-59.4641 129.007,-59.6713 137.417,-66.1151 139.5998,-59.4641"/>
<text text-anchor="middle" x="269.5" y="-113" font-family="Helvetica,sans-Serif" font-size="10.00" fill="#000000"> node</text>
</g>
<!-- Node8&#45;&gt;Node8 -->
<g id="edge9" class="edge">
<title>Node8&#45;&gt;Node8</title>
<path fill="none" stroke="#9a32cd" stroke-dasharray="5,2" d="M80.5432,-66.3917C74.9783,-73.9764 84.4639,-81 109,-81 140.4063,-81 147.1537,-69.4926 129.2423,-60.0304"/>
<polygon fill="#9a32cd" stroke="#9a32cd" points="82.9942,-68.9204 88.7577,-60.0304 78.7083,-63.3859 82.9942,-68.9204"/>
<text text-anchor="middle" x="109" y="-84" font-family="Helvetica,sans-Serif" font-size="10.00" fill="#000000"> parent</text>
</g>
<!-- Node12 -->
<g id="node11" class="node">
<title>Node12</title>
<polygon fill="#ffffff" stroke="#bfbfbf" points="79,-.5 79,-19.5 139,-19.5 139,-.5 79,-.5"/>
<text text-anchor="middle" x="109" y="-7.5" font-family="Helvetica,sans-Serif" font-size="10.00" fill="#000000">TAllocator</text>
</g>
<!-- Node12&#45;&gt;Node11 -->
<g id="edge13" class="edge">
<title>Node12&#45;&gt;Node11</title>
<path fill="none" stroke="#191970" d="M149.2201,-14.3877C193.6261,-19.2319 266.4577,-27.1772 324.1187,-33.4675"/>
<polygon fill="#191970" stroke="#191970" points="149.4314,-10.89 139.1108,-13.2848 148.6722,-17.8487 149.4314,-10.89"/>
</g>
</g>
</svg>
