<?xml version="1.0" encoding="UTF-8" standalone="no"?>
<!DOCTYPE svg PUBLIC "-//W3C//DTD SVG 1.1//EN"
 "http://www.w3.org/Graphics/SVG/1.1/DTD/svg11.dtd">
<!-- Generated by graphviz version 2.40.1 (20161225.0304)
 -->
<!-- Title: TextLogger Pages: 1 -->
<svg width="571pt" height="308pt"
 viewBox="0.00 0.00 571.00 308.00" xmlns="http://www.w3.org/2000/svg" xmlns:xlink="http://www.w3.org/1999/xlink">
<g id="graph0" class="graph" transform="scale(1 1) rotate(0) translate(4 304)">
<title>TextLogger</title>
<polygon fill="#ffffff" stroke="transparent" points="-4,4 -4,-304 567,-304 567,4 -4,4"/>
<!-- Node0 -->
<g id="node1" class="node">
<title>Node0</title>
<polygon fill="#bfbfbf" stroke="#000000" points="357.5,-112.5 357.5,-131.5 422.5,-131.5 422.5,-112.5 357.5,-112.5"/>
<text text-anchor="middle" x="390" y="-119.5" font-family="Helvetica,sans-Serif" font-size="10.00" fill="#000000">TextLogger</text>
</g>
<!-- Node4 -->
<g id="node2" class="node">
<title>Node4</title>
<g id="a_node2"><a xlink:href="classaworx_1_1lib_1_1lox_1_1core_1_1textlogger_1_1PlainTextLogger.html" target="_top" xlink:title="PlainTextLogger">
<polygon fill="#ffffff" stroke="#000000" points="197,-56.5 197,-75.5 283,-75.5 283,-56.5 197,-56.5"/>
<text text-anchor="middle" x="240" y="-63.5" font-family="Helvetica,sans-Serif" font-size="10.00" fill="#000000">PlainTextLogger</text>
</a>
</g>
</g>
<!-- Node0&#45;&gt;Node4 -->
<g id="edge1" class="edge">
<title>Node0&#45;&gt;Node4</title>
<path fill="none" stroke="#191970" d="M354.6129,-108.7888C327.2247,-98.5639 289.9521,-84.6488 265.4494,-75.5011"/>
<polygon fill="#191970" stroke="#191970" points="353.6215,-112.1546 364.2141,-112.3733 356.0698,-105.5967 353.6215,-112.1546"/>
</g>
<!-- Node9 -->
<g id="node3" class="node">
<title>Node9</title>
<g id="a_node3"><a xlink:href="classaworx_1_1lib_1_1lox_1_1loggers_1_1AnsiLogger.html" target="_top" xlink:title="AnsiLogger">
<polygon fill="#ffffff" stroke="#000000" points="357.5,-56.5 357.5,-75.5 422.5,-75.5 422.5,-56.5 357.5,-56.5"/>
<text text-anchor="middle" x="390" y="-63.5" font-family="Helvetica,sans-Serif" font-size="10.00" fill="#000000">AnsiLogger</text>
</a>
</g>
</g>
<!-- Node0&#45;&gt;Node9 -->
<g id="edge2" class="edge">
<title>Node0&#45;&gt;Node9</title>
<path fill="none" stroke="#191970" d="M390,-102.1575C390,-93.155 390,-82.9199 390,-75.6427"/>
<polygon fill="#191970" stroke="#191970" points="386.5001,-102.2455 390,-112.2455 393.5001,-102.2456 386.5001,-102.2455"/>
</g>
<!-- Node11 -->
<g id="node4" class="node">
<title>Node11</title>
<g id="a_node4"><a xlink:href="classaworx_1_1lib_1_1lox_1_1loggers_1_1WindowsConsoleLogger.html" target="_top" xlink:title="WindowsConsoleLogger">
<polygon fill="#ffffff" stroke="#000000" points="441,-56.5 441,-75.5 563,-75.5 563,-56.5 441,-56.5"/>
<text text-anchor="middle" x="502" y="-63.5" font-family="Helvetica,sans-Serif" font-size="10.00" fill="#000000">WindowsConsoleLogger</text>
</a>
</g>
</g>
<!-- Node0&#45;&gt;Node11 -->
<g id="edge3" class="edge">
<title>Node0&#45;&gt;Node11</title>
<path fill="none" stroke="#191970" d="M418.3263,-107.8368C438.5721,-97.7139 465.2642,-84.3679 482.9978,-75.5011"/>
<polygon fill="#191970" stroke="#191970" points="416.6325,-104.7706 409.2535,-112.3733 419.763,-111.0316 416.6325,-104.7706"/>
</g>
<!-- Node5 -->
<g id="node8" class="node">
<title>Node5</title>
<g id="a_node8"><a xlink:href="classaworx_1_1lib_1_1lox_1_1loggers_1_1ConsoleLogger.html" target="_top" xlink:title="ConsoleLogger">
<polygon fill="#ffffff" stroke="#000000" points="0,-.5 0,-19.5 82,-19.5 82,-.5 0,-.5"/>
<text text-anchor="middle" x="41" y="-7.5" font-family="Helvetica,sans-Serif" font-size="10.00" fill="#000000">ConsoleLogger</text>
</a>
</g>
</g>
<!-- Node4&#45;&gt;Node5 -->
<g id="edge7" class="edge">
<title>Node4&#45;&gt;Node5</title>
<path fill="none" stroke="#191970" d="M195.8938,-53.5882C159.3323,-43.2996 108.1252,-28.8895 74.7629,-19.5011"/>
<polygon fill="#191970" stroke="#191970" points="195.2164,-57.0335 205.7907,-56.3733 197.1127,-50.2952 195.2164,-57.0335"/>
</g>
<!-- Node6 -->
<g id="node9" class="node">
<title>Node6</title>
<g id="a_node9"><a xlink:href="classaworx_1_1lib_1_1lox_1_1loggers_1_1MemoryLogger.html" target="_top" xlink:title="MemoryLogger">
<polygon fill="#ffffff" stroke="#000000" points="100.5,-.5 100.5,-19.5 181.5,-19.5 181.5,-.5 100.5,-.5"/>
<text text-anchor="middle" x="141" y="-7.5" font-family="Helvetica,sans-Serif" font-size="10.00" fill="#000000">MemoryLogger</text>
</a>
</g>
</g>
<!-- Node4&#45;&gt;Node6 -->
<g id="edge8" class="edge">
<title>Node4&#45;&gt;Node6</title>
<path fill="none" stroke="#191970" d="M213.5643,-51.0465C195.9492,-41.0824 173.3153,-28.2794 158.0469,-19.6427"/>
<polygon fill="#191970" stroke="#191970" points="212.3283,-54.3684 222.7555,-56.2455 215.7747,-48.2756 212.3283,-54.3684"/>
</g>
<!-- Node7 -->
<g id="node10" class="node">
<title>Node7</title>
<g id="a_node10"><a xlink:href="classaworx_1_1lib_1_1lox_1_1loggers_1_1TextFileLogger.html" target="_top" xlink:title="TextFileLogger">
<polygon fill="#ffffff" stroke="#000000" points="200,-.5 200,-19.5 280,-19.5 280,-.5 200,-.5"/>
<text text-anchor="middle" x="240" y="-7.5" font-family="Helvetica,sans-Serif" font-size="10.00" fill="#000000">TextFileLogger</text>
</a>
</g>
</g>
<!-- Node4&#45;&gt;Node7 -->
<g id="edge9" class="edge">
<title>Node4&#45;&gt;Node7</title>
<path fill="none" stroke="#191970" d="M240,-46.1575C240,-37.155 240,-26.9199 240,-19.6427"/>
<polygon fill="#191970" stroke="#191970" points="236.5001,-46.2455 240,-56.2455 243.5001,-46.2456 236.5001,-46.2455"/>
</g>
<!-- Node8 -->
<g id="node11" class="node">
<title>Node8</title>
<g id="a_node11"><a xlink:href="classaworx_1_1lib_1_1lox_1_1loggers_1_1VStudioLogger.html" target="_top" xlink:title="VStudioLogger">
<polygon fill="#ffffff" stroke="#000000" points="298,-.5 298,-19.5 378,-19.5 378,-.5 298,-.5"/>
<text text-anchor="middle" x="338" y="-7.5" font-family="Helvetica,sans-Serif" font-size="10.00" fill="#000000">VStudioLogger</text>
</a>
</g>
</g>
<!-- Node4&#45;&gt;Node8 -->
<g id="edge10" class="edge">
<title>Node4&#45;&gt;Node8</title>
<path fill="none" stroke="#191970" d="M266.1686,-51.0465C283.6058,-41.0824 306.0111,-28.2794 321.1253,-19.6427"/>
<polygon fill="#191970" stroke="#191970" points="264.0162,-48.2453 257.0703,-56.2455 267.4892,-54.323 264.0162,-48.2453"/>
</g>
<!-- Node10 -->
<g id="node12" class="node">
<title>Node10</title>
<g id="a_node12"><a xlink:href="classaworx_1_1lib_1_1lox_1_1loggers_1_1AnsiConsoleLogger.html" target="_top" xlink:title="AnsiConsoleLogger">
<polygon fill="#ffffff" stroke="#000000" points="396.5,-.5 396.5,-19.5 497.5,-19.5 497.5,-.5 396.5,-.5"/>
<text text-anchor="middle" x="447" y="-7.5" font-family="Helvetica,sans-Serif" font-size="10.00" fill="#000000">AnsiConsoleLogger</text>
</a>
</g>
</g>
<!-- Node9&#45;&gt;Node10 -->
<g id="edge11" class="edge">
<title>Node9&#45;&gt;Node10</title>
<path fill="none" stroke="#191970" d="M407.2271,-49.0751C417.0341,-39.4402 428.964,-27.7196 437.1851,-19.6427"/>
<polygon fill="#191970" stroke="#191970" points="404.6091,-46.7406 399.9286,-56.2455 409.5149,-51.734 404.6091,-46.7406"/>
</g>
<!-- Node1 -->
<g id="node5" class="node">
<title>Node1</title>
<g id="a_node5"><a xlink:href="classaworx_1_1lib_1_1lox_1_1core_1_1Logger.html" target="_top" xlink:title="Logger">
<polygon fill="#ffffff" stroke="#000000" points="367,-168.5 367,-187.5 413,-187.5 413,-168.5 367,-168.5"/>
<text text-anchor="middle" x="390" y="-175.5" font-family="Helvetica,sans-Serif" font-size="10.00" fill="#000000">Logger</text>
</a>
</g>
</g>
<!-- Node1&#45;&gt;Node0 -->
<g id="edge4" class="edge">
<title>Node1&#45;&gt;Node0</title>
<path fill="none" stroke="#191970" d="M390,-158.1575C390,-149.155 390,-138.9199 390,-131.6427"/>
<polygon fill="#191970" stroke="#191970" points="386.5001,-158.2455 390,-168.2455 393.5001,-158.2456 386.5001,-158.2455"/>
</g>
<!-- Node2 -->
<g id="node6" class="node">
<title>Node2</title>
<g id="a_node6"><a xlink:href="classaworx_1_1lib_1_1threads_1_1SmartLock.html" target="_top" xlink:title="SmartLock">
<polygon fill="#ffffff" stroke="#000000" points="358,-224.5 358,-243.5 422,-243.5 422,-224.5 358,-224.5"/>
<text text-anchor="middle" x="390" y="-231.5" font-family="Helvetica,sans-Serif" font-size="10.00" fill="#000000">SmartLock</text>
</a>
</g>
</g>
<!-- Node2&#45;&gt;Node1 -->
<g id="edge5" class="edge">
<title>Node2&#45;&gt;Node1</title>
<path fill="none" stroke="#191970" d="M390,-214.1575C390,-205.155 390,-194.9199 390,-187.6427"/>
<polygon fill="#191970" stroke="#191970" points="386.5001,-214.2455 390,-224.2455 393.5001,-214.2456 386.5001,-214.2455"/>
</g>
<!-- Node3 -->
<g id="node7" class="node">
<title>Node3</title>
<g id="a_node7"><a xlink:href="classaworx_1_1lib_1_1threads_1_1ThreadLock.html" target="_top" xlink:title="ThreadLock">
<polygon fill="#ffffff" stroke="#000000" points="356,-280.5 356,-299.5 424,-299.5 424,-280.5 356,-280.5"/>
<text text-anchor="middle" x="390" y="-287.5" font-family="Helvetica,sans-Serif" font-size="10.00" fill="#000000">ThreadLock</text>
</a>
</g>
</g>
<!-- Node3&#45;&gt;Node2 -->
<g id="edge6" class="edge">
<title>Node3&#45;&gt;Node2</title>
<path fill="none" stroke="#191970" d="M390,-270.1575C390,-261.155 390,-250.9199 390,-243.6427"/>
<polygon fill="#191970" stroke="#191970" points="386.5001,-270.2455 390,-280.2455 393.5001,-270.2456 386.5001,-270.2455"/>
</g>
</g>
</svg>
