<?xml version="1.0" encoding="UTF-8" standalone="no"?>
<!DOCTYPE svg PUBLIC "-//W3C//DTD SVG 1.1//EN"
 "http://www.w3.org/Graphics/SVG/1.1/DTD/svg11.dtd">
<!-- Generated by graphviz version 2.40.1 (20161225.0304)
 -->
<!-- Title: Thread Pages: 1 -->
<svg width="309pt" height="209pt"
 viewBox="0.00 0.00 308.50 209.00" xmlns="http://www.w3.org/2000/svg" xmlns:xlink="http://www.w3.org/1999/xlink">
<g id="graph0" class="graph" transform="scale(1 1) rotate(0) translate(4 205)">
<title>Thread</title>
<polygon fill="#ffffff" stroke="transparent" points="-4,4 -4,-205 304.5,-205 304.5,4 -4,4"/>
<!-- Node2 -->
<g id="node1" class="node">
<title>Node2</title>
<polygon fill="#bfbfbf" stroke="#000000" points="167,-.5 167,-19.5 214,-19.5 214,-.5 167,-.5"/>
<text text-anchor="middle" x="190.5" y="-7.5" font-family="Helvetica,sans-Serif" font-size="10.00" fill="#000000">Thread</text>
</g>
<!-- Node6 -->
<g id="node2" class="node">
<title>Node6</title>
<g id="a_node2"><a xlink:href="classaworx_1_1lib_1_1strings_1_1TStringBase.html" target="_top" xlink:title="TStringBase\&lt;TChar\&gt;">
<polygon fill="#ffffff" stroke="#ff0000" points="24,-181.5 24,-200.5 133,-200.5 133,-181.5 24,-181.5"/>
<text text-anchor="middle" x="78.5" y="-188.5" font-family="Helvetica,sans-Serif" font-size="10.00" fill="#000000">TStringBase&lt;TChar&gt;</text>
</a>
</g>
</g>
<!-- Node5 -->
<g id="node4" class="node">
<title>Node5</title>
<g id="a_node4"><a xlink:href="classaworx_1_1lib_1_1strings_1_1AStringBase.html" target="_top" xlink:title="AStringBase\&lt;character\&gt;">
<polygon fill="#ffffff" stroke="#000000" points="16.5,-124.5 16.5,-143.5 140.5,-143.5 140.5,-124.5 16.5,-124.5"/>
<text text-anchor="middle" x="78.5" y="-131.5" font-family="Helvetica,sans-Serif" font-size="10.00" fill="#000000">AStringBase&lt;character&gt;</text>
</a>
</g>
</g>
<!-- Node6&#45;&gt;Node5 -->
<g id="edge5" class="edge">
<title>Node6&#45;&gt;Node5</title>
<path fill="none" stroke="#191970" d="M78.5,-171.2342C78.5,-161.8491 78.5,-151.0651 78.5,-143.5265"/>
<polygon fill="#191970" stroke="#191970" points="75.0001,-171.3307 78.5,-181.3307 82.0001,-171.3308 75.0001,-171.3307"/>
</g>
<!-- Node4 -->
<g id="node3" class="node">
<title>Node4</title>
<g id="a_node3"><a xlink:href="classaworx_1_1lib_1_1strings_1_1PreallocatedStringBase.html" target="_top" xlink:title="PreallocatedStringBase\&lt;TChar\&gt;">
<polygon fill="#ffffff" stroke="#000000" points="0,-67.5 0,-86.5 157,-86.5 157,-67.5 0,-67.5"/>
<text text-anchor="middle" x="78.5" y="-74.5" font-family="Helvetica,sans-Serif" font-size="10.00" fill="#000000">PreallocatedStringBase&lt;TChar&gt;</text>
</a>
</g>
</g>
<!-- Node4&#45;&gt;Node2 -->
<g id="edge3" class="edge">
<title>Node4&#45;&gt;Node2</title>
<path fill="none" stroke="#9a32cd" stroke-dasharray="5,2" d="M103.2219,-62.211C124.9288,-49.2256 155.8662,-30.7184 174.4829,-19.5817"/>
<polygon fill="#9a32cd" stroke="#9a32cd" points="101.3318,-59.2632 94.5469,-67.4005 104.9254,-65.2704 101.3318,-59.2632"/>
<text text-anchor="middle" x="154.5" y="-41" font-family="Helvetica,sans-Serif" font-size="10.00" fill="#000000"> name</text>
</g>
<!-- Node5&#45;&gt;Node4 -->
<g id="edge4" class="edge">
<title>Node5&#45;&gt;Node4</title>
<path fill="none" stroke="#191970" d="M78.5,-114.2342C78.5,-104.8491 78.5,-94.0651 78.5,-86.5265"/>
<polygon fill="#191970" stroke="#191970" points="75.0001,-114.3307 78.5,-124.3307 82.0001,-114.3308 75.0001,-114.3307"/>
</g>
<!-- Node3 -->
<g id="node5" class="node">
<title>Node3</title>
<g id="a_node5"><a xlink:href="classaworx_1_1lib_1_1threads_1_1Runnable.html" target="_top" xlink:title="Runnable">
<polygon fill="#ffffff" stroke="#000000" points="175.5,-67.5 175.5,-86.5 233.5,-86.5 233.5,-67.5 175.5,-67.5"/>
<text text-anchor="middle" x="204.5" y="-74.5" font-family="Helvetica,sans-Serif" font-size="10.00" fill="#000000">Runnable</text>
</a>
</g>
</g>
<!-- Node3&#45;&gt;Node2 -->
<g id="edge1" class="edge">
<title>Node3&#45;&gt;Node2</title>
<path fill="none" stroke="#191970" d="M192.3182,-58.7573C190.7439,-55.6184 189.3766,-52.3008 188.5,-49 185.9246,-39.3021 186.9955,-27.7825 188.3574,-19.7888"/>
<polygon fill="#191970" stroke="#191970" points="189.3204,-60.5645 197.379,-67.4427 195.3686,-57.0403 189.3204,-60.5645"/>
</g>
<!-- Node3&#45;&gt;Node2 -->
<g id="edge2" class="edge">
<title>Node3&#45;&gt;Node2</title>
<path fill="none" stroke="#9a32cd" stroke-dasharray="5,2" d="M200.4225,-57.4863C197.8194,-45.0286 194.5591,-29.4258 192.5021,-19.5817"/>
<polygon fill="#9a32cd" stroke="#9a32cd" points="197.0227,-58.3279 202.4941,-67.4005 203.8747,-56.896 197.0227,-58.3279"/>
<text text-anchor="middle" x="217.5" y="-41" font-family="Helvetica,sans-Serif" font-size="10.00" fill="#000000"> runnable</text>
</g>
<!-- Node9 -->
<g id="node6" class="node">
<title>Node9</title>
<g id="a_node6"><a xlink:title="STL class. ">
<polygon fill="#ffffff" stroke="#bfbfbf" points="251.5,-67.5 251.5,-86.5 295.5,-86.5 295.5,-67.5 251.5,-67.5"/>
<text text-anchor="middle" x="273.5" y="-74.5" font-family="Helvetica,sans-Serif" font-size="10.00" fill="#000000">thread</text>
</a>
</g>
</g>
<!-- Node9&#45;&gt;Node2 -->
<g id="edge6" class="edge">
<title>Node9&#45;&gt;Node2</title>
<path fill="none" stroke="#9a32cd" stroke-dasharray="5,2" d="M261.1206,-59.0805C255.6459,-51.9683 248.7968,-44.0577 241.5,-38 232.718,-30.7093 221.7521,-24.3994 212.2413,-19.625"/>
<polygon fill="#9a32cd" stroke="#9a32cd" points="258.5223,-61.4569 267.2504,-67.4629 264.1727,-57.3249 258.5223,-61.4569"/>
<text text-anchor="middle" x="276" y="-41" font-family="Helvetica,sans-Serif" font-size="10.00" fill="#000000"> c11Thread</text>
</g>
</g>
</svg>
