<?xml version="1.0" encoding="UTF-8" standalone="no"?>
<!DOCTYPE svg PUBLIC "-//W3C//DTD SVG 1.1//EN"
 "http://www.w3.org/Graphics/SVG/1.1/DTD/svg11.dtd">
<!-- Generated by graphviz version 2.40.1 (20161225.0304)
 -->
<!-- Title: StandardConverter Pages: 1 -->
<svg width="1460pt" height="207pt"
 viewBox="0.00 0.00 1460.00 207.00" xmlns="http://www.w3.org/2000/svg" xmlns:xlink="http://www.w3.org/1999/xlink">
<g id="graph0" class="graph" transform="scale(1 1) rotate(0) translate(4 203)">
<title>StandardConverter</title>
<polygon fill="#ffffff" stroke="transparent" points="-4,4 -4,-203 1456,-203 1456,4 -4,4"/>
<!-- Node2 -->
<g id="node1" class="node">
<title>Node2</title>
<polygon fill="#bfbfbf" stroke="#000000" points="1354,-71.5 1354,-90.5 1452,-90.5 1452,-71.5 1354,-71.5"/>
<text text-anchor="middle" x="1403" y="-78.5" font-family="Helvetica,sans-Serif" font-size="10.00" fill="#000000">StandardConverter</text>
</g>
<!-- Node26 -->
<g id="node2" class="node">
<title>Node26</title>
<polygon fill="#ffffff" stroke="#bfbfbf" points="127,-33.5 127,-52.5 212,-52.5 212,-33.5 127,-33.5"/>
<text text-anchor="middle" x="169.5" y="-40.5" font-family="Helvetica,sans-Serif" font-size="10.00" fill="#000000">vector&lt;integer&gt;</text>
</g>
<!-- Node25 -->
<g id="node13" class="node">
<title>Node25</title>
<g id="a_node13"><a xlink:href="classaworx_1_1lib_1_1strings_1_1util_1_1AutoSizes.html" target="_top" xlink:title="AutoSizes">
<polygon fill="#ffffff" stroke="#000000" points="370.5,-33.5 370.5,-52.5 432.5,-52.5 432.5,-33.5 370.5,-33.5"/>
<text text-anchor="middle" x="401.5" y="-40.5" font-family="Helvetica,sans-Serif" font-size="10.00" fill="#000000">AutoSizes</text>
</a>
</g>
</g>
<!-- Node26&#45;&gt;Node25 -->
<g id="edge12" class="edge">
<title>Node26&#45;&gt;Node25</title>
<path fill="none" stroke="#9a32cd" stroke-dasharray="5,2" d="M222.0749,-43C267.7695,-43 332.4232,-43 370.3545,-43"/>
<polygon fill="#9a32cd" stroke="#9a32cd" points="222.0524,-39.5001 212.0524,-43 222.0523,-46.5001 222.0524,-39.5001"/>
<text text-anchor="middle" x="279" y="-57" font-family="Helvetica,sans-Serif" font-size="10.00" fill="#000000"> values</text>
<text text-anchor="middle" x="279" y="-46" font-family="Helvetica,sans-Serif" font-size="10.00" fill="#000000">sessionValues</text>
</g>
<!-- Node29 -->
<g id="node3" class="node">
<title>Node29</title>
<polygon fill="#ffffff" stroke="#bfbfbf" points="994,-38.5 994,-57.5 1227,-57.5 1227,-38.5 994,-38.5"/>
<text text-anchor="middle" x="1110.5" y="-45.5" font-family="Helvetica,sans-Serif" font-size="10.00" fill="#000000">vector&lt;FormatterPythonStyleBase&lt;character&gt; *&gt;</text>
</g>
<!-- Node29&#45;&gt;Node2 -->
<g id="edge15" class="edge">
<title>Node29&#45;&gt;Node2</title>
<path fill="none" stroke="#9a32cd" stroke-dasharray="5,2" d="M1237.5349,-57.9382C1269.7199,-60.9754 1304.1838,-64.6772 1336,-69 1341.7376,-69.7796 1347.7335,-70.7003 1353.6784,-71.6797"/>
<polygon fill="#9a32cd" stroke="#9a32cd" points="1237.4524,-54.4156 1227.1715,-56.9756 1236.8049,-61.3856 1237.4524,-54.4156"/>
<text text-anchor="middle" x="1290.5" y="-72" font-family="Helvetica,sans-Serif" font-size="10.00" fill="#000000"> recursionFormatters</text>
</g>
<!-- Node4 -->
<g id="node4" class="node">
<title>Node4</title>
<g id="a_node4"><a xlink:href="classaworx_1_1lib_1_1strings_1_1format_1_1FormatterJavaStyleBase.html" target="_top" xlink:title="FormatterJavaStyleBase\&lt;character\&gt;">
<polygon fill="#ffffff" stroke="#000000" points="799,-131.5 799,-150.5 976,-150.5 976,-131.5 799,-131.5"/>
<text text-anchor="middle" x="887.5" y="-138.5" font-family="Helvetica,sans-Serif" font-size="10.00" fill="#000000">FormatterJavaStyleBase&lt;character&gt;</text>
</a>
</g>
</g>
<!-- Node4&#45;&gt;Node2 -->
<g id="edge2" class="edge">
<title>Node4&#45;&gt;Node2</title>
<path fill="none" stroke="#9a32cd" stroke-dasharray="5,2" d="M986.4795,-142.4332C1078.2419,-141.7202 1217.9838,-135.4164 1336,-108 1352.7354,-104.1122 1370.747,-96.653 1383.8759,-90.5583"/>
<polygon fill="#9a32cd" stroke="#9a32cd" points="986.3456,-138.9338 976.3657,-142.4907 986.3855,-145.9337 986.3456,-138.9338"/>
<text text-anchor="middle" x="1110.5" y="-145" font-family="Helvetica,sans-Serif" font-size="10.00" fill="#000000"> FormatterJS</text>
</g>
<!-- Node5 -->
<g id="node5" class="node">
<title>Node5</title>
<g id="a_node5"><a xlink:href="classaworx_1_1lib_1_1strings_1_1format_1_1FormatterStdImpl.html" target="_top" xlink:title="FormatterStdImpl\&lt;character\&gt;">
<polygon fill="#ffffff" stroke="#000000" points="329,-131.5 329,-150.5 474,-150.5 474,-131.5 329,-131.5"/>
<text text-anchor="middle" x="401.5" y="-138.5" font-family="Helvetica,sans-Serif" font-size="10.00" fill="#000000">FormatterStdImpl&lt;character&gt;</text>
</a>
</g>
</g>
<!-- Node5&#45;&gt;Node4 -->
<g id="edge3" class="edge">
<title>Node5&#45;&gt;Node4</title>
<path fill="none" stroke="#191970" d="M484.4147,-141C571.9401,-141 709.3848,-141 798.9748,-141"/>
<polygon fill="#191970" stroke="#191970" points="484.2591,-137.5001 474.2591,-141 484.2591,-144.5001 484.2591,-137.5001"/>
</g>
<!-- Node24 -->
<g id="node7" class="node">
<title>Node24</title>
<g id="a_node7"><a xlink:href="classaworx_1_1lib_1_1strings_1_1format_1_1FormatterPythonStyleBase.html" target="_top" xlink:title="FormatterPythonStyleBase\&lt;character\&gt;">
<polygon fill="#ffffff" stroke="#000000" points="594,-71.5 594,-90.5 781,-90.5 781,-71.5 594,-71.5"/>
<text text-anchor="middle" x="687.5" y="-78.5" font-family="Helvetica,sans-Serif" font-size="10.00" fill="#000000">FormatterPythonStyleBase&lt;character&gt;</text>
</a>
</g>
</g>
<!-- Node5&#45;&gt;Node24 -->
<g id="edge4" class="edge">
<title>Node5&#45;&gt;Node24</title>
<path fill="none" stroke="#191970" d="M456.8837,-129.381C510.7662,-118.077 591.6534,-101.1077 641.9219,-90.5618"/>
<polygon fill="#191970" stroke="#191970" points="455.8859,-126.0141 446.8176,-131.4928 457.3231,-132.865 455.8859,-126.0141"/>
</g>
<!-- Node6 -->
<g id="node6" class="node">
<title>Node6</title>
<g id="a_node6"><a xlink:href="classaworx_1_1lib_1_1strings_1_1format_1_1FormatterBase.html" target="_top" xlink:title="[DOX_ALIB_ENUM_META_DATA_SPECIFCATION_using_enum] ">
<polygon fill="#ffffff" stroke="#ff0000" points="110,-147.5 110,-166.5 229,-166.5 229,-147.5 110,-147.5"/>
<text text-anchor="middle" x="169.5" y="-154.5" font-family="Helvetica,sans-Serif" font-size="10.00" fill="#000000">FormatterBase&lt;TChar&gt;</text>
</a>
</g>
</g>
<!-- Node6&#45;&gt;Node5 -->
<g id="edge5" class="edge">
<title>Node6&#45;&gt;Node5</title>
<path fill="none" stroke="#191970" d="M239.4294,-152.1773C267.6463,-150.2313 300.2056,-147.9858 328.7055,-146.0203"/>
<polygon fill="#191970" stroke="#191970" points="238.9812,-148.6998 229.2458,-152.8796 239.4629,-155.6832 238.9812,-148.6998"/>
</g>
<!-- Node24&#45;&gt;Node2 -->
<g id="edge9" class="edge">
<title>Node24&#45;&gt;Node2</title>
<path fill="none" stroke="#9a32cd" stroke-dasharray="5,2" d="M791.1521,-81C947.6794,-81 1238.3432,-81 1353.8384,-81"/>
<polygon fill="#9a32cd" stroke="#9a32cd" points="791.0392,-77.5001 781.0391,-81 791.0391,-84.5001 791.0392,-77.5001"/>
<text text-anchor="middle" x="1110.5" y="-84" font-family="Helvetica,sans-Serif" font-size="10.00" fill="#000000"> FormatterPS</text>
</g>
<!-- Node24&#45;&gt;Node29 -->
<g id="edge10" class="edge">
<title>Node24&#45;&gt;Node29</title>
<path fill="none" stroke="#9a32cd" stroke-dasharray="5,2" d="M782.6684,-70.5009C788.1918,-69.9715 793.6663,-69.4666 799,-69 863.3907,-63.3668 935.3843,-58.425 993.9257,-54.7527"/>
<polygon fill="#9a32cd" stroke="#9a32cd" points="782.3046,-67.0197 772.6933,-71.4776 782.9868,-73.9864 782.3046,-67.0197"/>
<text text-anchor="middle" x="887.5" y="-72" font-family="Helvetica,sans-Serif" font-size="10.00" fill="#000000"> elements</text>
</g>
<!-- Node27 -->
<g id="node8" class="node">
<title>Node27</title>
<g id="a_node8"><a xlink:href="classaworx_1_1lib_1_1strings_1_1SubstringBase.html" target="_top" xlink:title="SubstringBase\&lt;character\&gt;">
<polygon fill="#ffffff" stroke="#000000" points="335,-71.5 335,-90.5 468,-90.5 468,-71.5 335,-71.5"/>
<text text-anchor="middle" x="401.5" y="-78.5" font-family="Helvetica,sans-Serif" font-size="10.00" fill="#000000">SubstringBase&lt;character&gt;</text>
</a>
</g>
</g>
<!-- Node27&#45;&gt;Node24 -->
<g id="edge13" class="edge">
<title>Node27&#45;&gt;Node24</title>
<path fill="none" stroke="#9a32cd" stroke-dasharray="5,2" d="M478.4968,-81C514.0156,-81 556.4941,-81 593.851,-81"/>
<polygon fill="#9a32cd" stroke="#9a32cd" points="478.1934,-77.5001 468.1933,-81 478.1933,-84.5001 478.1934,-77.5001"/>
<text text-anchor="middle" x="534" y="-84" font-family="Helvetica,sans-Serif" font-size="10.00" fill="#000000"> phaExtConversion</text>
</g>
<!-- Node28 -->
<g id="node9" class="node">
<title>Node28</title>
<g id="a_node9"><a xlink:href="classaworx_1_1lib_1_1strings_1_1StringBase.html" target="_top" xlink:title="StringBase\&lt;character\&gt;">
<polygon fill="#ffffff" stroke="#000000" points="111,-71.5 111,-90.5 228,-90.5 228,-71.5 111,-71.5"/>
<text text-anchor="middle" x="169.5" y="-78.5" font-family="Helvetica,sans-Serif" font-size="10.00" fill="#000000">StringBase&lt;character&gt;</text>
</a>
</g>
</g>
<!-- Node28&#45;&gt;Node27 -->
<g id="edge14" class="edge">
<title>Node28&#45;&gt;Node27</title>
<path fill="none" stroke="#191970" d="M238.1744,-81C268.69,-81 304.4792,-81 334.7656,-81"/>
<polygon fill="#191970" stroke="#191970" points="238.0434,-77.5001 228.0434,-81 238.0434,-84.5001 238.0434,-77.5001"/>
</g>
<!-- Node3 -->
<g id="node10" class="node">
<title>Node3</title>
<g id="a_node10"><a xlink:href="classaworx_1_1lib_1_1lox_1_1core_1_1textlogger_1_1ObjectConverter.html" target="_top" xlink:title="ObjectConverter">
<polygon fill="#ffffff" stroke="#000000" points="1066.5,-.5 1066.5,-19.5 1154.5,-19.5 1154.5,-.5 1066.5,-.5"/>
<text text-anchor="middle" x="1110.5" y="-7.5" font-family="Helvetica,sans-Serif" font-size="10.00" fill="#000000">ObjectConverter</text>
</a>
</g>
</g>
<!-- Node3&#45;&gt;Node2 -->
<g id="edge1" class="edge">
<title>Node3&#45;&gt;Node2</title>
<path fill="none" stroke="#191970" d="M1164.93,-17.5699C1211.1075,-24.7694 1278.7761,-37.1628 1336,-55 1351.128,-59.7155 1367.7355,-66.1512 1380.6314,-71.4398"/>
<polygon fill="#191970" stroke="#191970" points="1165.2497,-14.0782 1154.8354,-16.0254 1164.191,-20.9977 1165.2497,-14.0782"/>
</g>
<!-- Node18 -->
<g id="node11" class="node">
<title>Node18</title>
<g id="a_node11"><a xlink:href="classaworx_1_1lib_1_1boxing_1_1Boxes.html" target="_top" xlink:title="Boxes">
<polygon fill="#ffffff" stroke="#ff0000" points="0,-175.5 0,-194.5 44,-194.5 44,-175.5 0,-175.5"/>
<text text-anchor="middle" x="22" y="-182.5" font-family="Helvetica,sans-Serif" font-size="10.00" fill="#000000">Boxes</text>
</a>
</g>
</g>
<!-- Node18&#45;&gt;Node5 -->
<g id="edge6" class="edge">
<title>Node18&#45;&gt;Node5</title>
<path fill="none" stroke="#9a32cd" stroke-dasharray="5,2" d="M54.5951,-188.5307C57.0986,-188.7189 59.5887,-188.8797 62,-189 75.3168,-189.6642 78.6816,-189.6305 92,-189 189.9072,-184.3652 214.8953,-182.2662 311,-163 328.915,-159.4086 348.6473,-154.7012 365.1022,-150.5629"/>
<polygon fill="#9a32cd" stroke="#9a32cd" points="54.663,-185.0233 44.3955,-187.6366 54.0516,-191.9966 54.663,-185.0233"/>
<text text-anchor="middle" x="169.5" y="-191" font-family="Helvetica,sans-Serif" font-size="10.00" fill="#000000"> arguments</text>
</g>
<!-- Node18&#45;&gt;Node6 -->
<g id="edge7" class="edge">
<title>Node18&#45;&gt;Node6</title>
<path fill="none" stroke="#9a32cd" stroke-dasharray="5,2" d="M54.0676,-178.9126C73.1681,-175.2867 97.8222,-170.6066 119.4386,-166.5032"/>
<polygon fill="#9a32cd" stroke="#9a32cd" points="53.254,-175.5044 44.0822,-180.8081 54.5596,-182.3816 53.254,-175.5044"/>
<text text-anchor="middle" x="77" y="-179" font-family="Helvetica,sans-Serif" font-size="10.00" fill="#000000"> boxes</text>
</g>
<!-- Node21 -->
<g id="node12" class="node">
<title>Node21</title>
<g id="a_node12"><a xlink:href="classaworx_1_1lib_1_1boxing_1_1Box.html" target="_top" xlink:title="Box">
<polygon fill="#ffffff" stroke="#ff0000" points="152.5,-109.5 152.5,-128.5 186.5,-128.5 186.5,-109.5 152.5,-109.5"/>
<text text-anchor="middle" x="169.5" y="-116.5" font-family="Helvetica,sans-Serif" font-size="10.00" fill="#000000">Box</text>
</a>
</g>
</g>
<!-- Node21&#45;&gt;Node5 -->
<g id="edge8" class="edge">
<title>Node21&#45;&gt;Node5</title>
<path fill="none" stroke="#9a32cd" stroke-dasharray="5,2" d="M196.9585,-121.4612C225.4717,-124.0314 271.3687,-128.2089 311,-132 316.8155,-132.5563 322.8404,-133.1398 328.8928,-133.731"/>
<polygon fill="#9a32cd" stroke="#9a32cd" points="197.2045,-117.9693 186.931,-120.559 196.5772,-124.9411 197.2045,-117.9693"/>
<text text-anchor="middle" x="279" y="-135" font-family="Helvetica,sans-Serif" font-size="10.00" fill="#000000"> phaArgument</text>
</g>
<!-- Node25&#45;&gt;Node24 -->
<g id="edge11" class="edge">
<title>Node25&#45;&gt;Node24</title>
<path fill="none" stroke="#9a32cd" stroke-dasharray="5,2" d="M442.6631,-48.3939C478.0262,-53.0354 530.3743,-59.9242 576,-66 589.2624,-67.7661 603.4105,-69.661 617.0207,-71.4894"/>
<polygon fill="#9a32cd" stroke="#9a32cd" points="443.0805,-44.9188 432.7101,-47.0881 442.1698,-51.8593 443.0805,-44.9188"/>
<text text-anchor="middle" x="534" y="-69" font-family="Helvetica,sans-Serif" font-size="10.00" fill="#000000"> autoSizes</text>
</g>
</g>
</svg>
