<?xml version="1.0" encoding="UTF-8" standalone="no"?>
<!DOCTYPE svg PUBLIC "-//W3C//DTD SVG 1.1//EN"
 "http://www.w3.org/Graphics/SVG/1.1/DTD/svg11.dtd">
<!-- Generated by graphviz version 2.40.1 (20161225.0304)
 -->
<!-- Title: IEquals Pages: 1 -->
<svg width="367pt" height="180pt"
 viewBox="0.00 0.00 367.00 180.00" xmlns="http://www.w3.org/2000/svg" xmlns:xlink="http://www.w3.org/1999/xlink">
<g id="graph0" class="graph" transform="scale(1 1) rotate(0) translate(4 176)">
<title>IEquals</title>
<polygon fill="#ffffff" stroke="transparent" points="-4,4 -4,-176 363,-176 363,4 -4,4"/>
<!-- Node0 -->
<g id="node1" class="node">
<title>Node0</title>
<polygon fill="#bfbfbf" stroke="#000000" points="91,-76.5 91,-95.5 141,-95.5 141,-76.5 91,-76.5"/>
<text text-anchor="middle" x="116" y="-83.5" font-family="Helvetica,sans-Serif" font-size="10.00" fill="#000000">IEquals</text>
</g>
<!-- Node6 -->
<g id="node2" class="node">
<title>Node6</title>
<g id="a_node2"><a xlink:href="classaworx_1_1lib_1_1boxing_1_1IEquals__TComparable.html" target="_top" xlink:title="IEquals_TComparable\&lt;TComparable\&gt;">
<polygon fill="#ffffff" stroke="#000000" points="177,-152.5 177,-171.5 359,-171.5 359,-152.5 177,-152.5"/>
<text text-anchor="middle" x="268" y="-159.5" font-family="Helvetica,sans-Serif" font-size="10.00" fill="#000000">IEquals_TComparable&lt;TComparable&gt;</text>
</a>
</g>
</g>
<!-- Node0&#45;&gt;Node6 -->
<g id="edge5" class="edge">
<title>Node0&#45;&gt;Node6</title>
<path fill="none" stroke="#191970" d="M130.0849,-103.5632C141.4007,-116.4653 158.426,-133.3614 177,-143 184.4492,-146.8656 192.6268,-149.9447 200.9295,-152.3974"/>
<polygon fill="#191970" stroke="#191970" points="132.6388,-101.1626 123.5144,-95.7779 127.2893,-105.6774 132.6388,-101.1626"/>
</g>
<!-- Node2 -->
<g id="node3" class="node">
<title>Node2</title>
<g id="a_node3"><a xlink:href="classaworx_1_1lib_1_1boxing_1_1ftypes_1_1IEquals__Tdouble.html" target="_top" xlink:title="Implements &#39;Equals&#39; &#45; interface for boxed double values. ">
<polygon fill="#ffffff" stroke="#000000" points="223.5,-114.5 223.5,-133.5 312.5,-133.5 312.5,-114.5 223.5,-114.5"/>
<text text-anchor="middle" x="268" y="-121.5" font-family="Helvetica,sans-Serif" font-size="10.00" fill="#000000">IEquals_Tdouble</text>
</a>
</g>
</g>
<!-- Node0&#45;&gt;Node2 -->
<g id="edge1" class="edge">
<title>Node0&#45;&gt;Node2</title>
<path fill="none" stroke="#191970" d="M150.743,-97.4546C159.283,-100.0946 168.4343,-102.7773 177,-105 191.997,-108.8916 208.5432,-112.5364 223.3676,-115.5722"/>
<polygon fill="#191970" stroke="#191970" points="151.6601,-94.0739 141.0704,-94.4051 149.5553,-100.75 151.6601,-94.0739"/>
</g>
<!-- Node3 -->
<g id="node4" class="node">
<title>Node3</title>
<g id="a_node4"><a xlink:href="classaworx_1_1lib_1_1boxing_1_1ftypes_1_1IEquals__TncharArr.html" target="_top" xlink:title="Implements &#39;Equals&#39; &#45; interface for boxed nchar[] values. ">
<polygon fill="#ffffff" stroke="#000000" points="219,-76.5 219,-95.5 317,-95.5 317,-76.5 219,-76.5"/>
<text text-anchor="middle" x="268" y="-83.5" font-family="Helvetica,sans-Serif" font-size="10.00" fill="#000000">IEquals_TncharArr</text>
</a>
</g>
</g>
<!-- Node0&#45;&gt;Node3 -->
<g id="edge2" class="edge">
<title>Node0&#45;&gt;Node3</title>
<path fill="none" stroke="#191970" d="M151.3561,-86C171.4375,-86 196.8827,-86 218.8795,-86"/>
<polygon fill="#191970" stroke="#191970" points="151.0997,-82.5001 141.0997,-86 151.0997,-89.5001 151.0997,-82.5001"/>
</g>
<!-- Node4 -->
<g id="node5" class="node">
<title>Node4</title>
<g id="a_node5"><a xlink:href="classaworx_1_1lib_1_1boxing_1_1ftypes_1_1IEquals__TstrangeCharArr.html" target="_top" xlink:title="Implements &#39;Equals&#39; &#45; interface for boxed strangeChar[] values. ">
<polygon fill="#ffffff" stroke="#000000" points="205,-38.5 205,-57.5 331,-57.5 331,-38.5 205,-38.5"/>
<text text-anchor="middle" x="268" y="-45.5" font-family="Helvetica,sans-Serif" font-size="10.00" fill="#000000">IEquals_TstrangeCharArr</text>
</a>
</g>
</g>
<!-- Node0&#45;&gt;Node4 -->
<g id="edge3" class="edge">
<title>Node0&#45;&gt;Node4</title>
<path fill="none" stroke="#191970" d="M150.743,-74.5454C159.283,-71.9054 168.4343,-69.2227 177,-67 190.1224,-63.5948 204.4308,-60.3787 217.7341,-57.5941"/>
<polygon fill="#191970" stroke="#191970" points="149.5553,-71.25 141.0704,-77.5949 151.6601,-77.9261 149.5553,-71.25"/>
</g>
<!-- Node5 -->
<g id="node6" class="node">
<title>Node5</title>
<g id="a_node6"><a xlink:href="classaworx_1_1lib_1_1boxing_1_1ftypes_1_1IEquals__TwcharArr.html" target="_top" xlink:title="Implements &#39;Equals&#39; &#45; interface for boxed wchar[] values. ">
<polygon fill="#ffffff" stroke="#000000" points="218.5,-.5 218.5,-19.5 317.5,-19.5 317.5,-.5 218.5,-.5"/>
<text text-anchor="middle" x="268" y="-7.5" font-family="Helvetica,sans-Serif" font-size="10.00" fill="#000000">IEquals_TwcharArr</text>
</a>
</g>
</g>
<!-- Node0&#45;&gt;Node5 -->
<g id="edge4" class="edge">
<title>Node0&#45;&gt;Node5</title>
<path fill="none" stroke="#191970" d="M130.0849,-68.4368C141.4007,-55.5347 158.426,-38.6386 177,-29 189.6063,-22.4583 204.2987,-18.1688 218.1534,-15.3563"/>
<polygon fill="#191970" stroke="#191970" points="127.2893,-66.3226 123.5144,-76.2221 132.6388,-70.8374 127.2893,-66.3226"/>
</g>
<!-- Node1 -->
<g id="node7" class="node">
<title>Node1</title>
<g id="a_node7"><a xlink:href="classaworx_1_1lib_1_1boxing_1_1Interface.html" target="_top" xlink:title="Interface">
<polygon fill="#ffffff" stroke="#000000" points="0,-76.5 0,-95.5 55,-95.5 55,-76.5 0,-76.5"/>
<text text-anchor="middle" x="27.5" y="-83.5" font-family="Helvetica,sans-Serif" font-size="10.00" fill="#000000">Interface</text>
</a>
</g>
</g>
<!-- Node1&#45;&gt;Node0 -->
<g id="edge6" class="edge">
<title>Node1&#45;&gt;Node0</title>
<path fill="none" stroke="#191970" d="M65.0255,-86C73.7633,-86 82.8594,-86 90.9076,-86"/>
<polygon fill="#191970" stroke="#191970" points="65.0169,-82.5001 55.0168,-86 65.0168,-89.5001 65.0169,-82.5001"/>
</g>
</g>
</svg>
