<?xml version="1.0" encoding="UTF-8" standalone="no"?>
<!DOCTYPE svg PUBLIC "-//W3C//DTD SVG 1.1//EN"
 "http://www.w3.org/Graphics/SVG/1.1/DTD/svg11.dtd">
<!-- Generated by graphviz version 2.40.1 (20161225.0304)
 -->
<!-- Title: ConsoleLogger Pages: 1 -->
<svg width="917pt" height="570pt"
 viewBox="0.00 0.00 917.00 570.00" xmlns="http://www.w3.org/2000/svg" xmlns:xlink="http://www.w3.org/1999/xlink">
<g id="graph0" class="graph" transform="scale(1 1) rotate(0) translate(4 566)">
<title>ConsoleLogger</title>
<polygon fill="#ffffff" stroke="transparent" points="-4,4 -4,-566 913,-566 913,4 -4,4"/>
<!-- Node6 -->
<g id="node1" class="node">
<title>Node6</title>
<polygon fill="#bfbfbf" stroke="#000000" points="827,-57.5 827,-76.5 909,-76.5 909,-57.5 827,-57.5"/>
<text text-anchor="middle" x="868" y="-64.5" font-family="Helvetica,sans-Serif" font-size="10.00" fill="#000000">ConsoleLogger</text>
</g>
<!-- Node28 -->
<g id="node2" class="node">
<title>Node28</title>
<polygon fill="#ffffff" stroke="#bfbfbf" points="278.5,-542.5 278.5,-561.5 388.5,-561.5 388.5,-542.5 278.5,-542.5"/>
<text text-anchor="middle" x="333.5" y="-549.5" font-family="Helvetica,sans-Serif" font-size="10.00" fill="#000000">vector&lt;AStringBase&gt;</text>
</g>
<!-- Node8 -->
<g id="node9" class="node">
<title>Node8</title>
<g id="a_node9"><a xlink:href="classaworx_1_1lib_1_1lox_1_1core_1_1textlogger_1_1TextLogger.html" target="_top" xlink:title="TextLogger">
<polygon fill="#ffffff" stroke="#000000" points="511,-198.5 511,-217.5 576,-217.5 576,-198.5 511,-198.5"/>
<text text-anchor="middle" x="543.5" y="-205.5" font-family="Helvetica,sans-Serif" font-size="10.00" fill="#000000">TextLogger</text>
</a>
</g>
</g>
<!-- Node28&#45;&gt;Node8 -->
<g id="edge8" class="edge">
<title>Node28&#45;&gt;Node8</title>
<path fill="none" stroke="#9a32cd" stroke-dasharray="5,2" d="M398.6033,-543.7732C424.7443,-537.2891 453.0997,-525.7017 472,-505 512.3183,-460.839 537.0849,-264.031 542.414,-217.7622"/>
<polygon fill="#9a32cd" stroke="#9a32cd" points="397.6946,-540.3903 388.7173,-546.0168 399.2439,-547.2168 397.6946,-540.3903"/>
<text text-anchor="middle" x="441" y="-543" font-family="Helvetica,sans-Serif" font-size="10.00" fill="#000000"> replacements</text>
</g>
<!-- Node44 -->
<g id="node3" class="node">
<title>Node44</title>
<g id="a_node3"><a xlink:title="STL class. ">
<polygon fill="#ffffff" stroke="#bfbfbf" points="278,-.5 278,-19.5 389,-19.5 389,-.5 278,-.5"/>
<text text-anchor="middle" x="333.5" y="-7.5" font-family="Helvetica,sans-Serif" font-size="10.00" fill="#000000">basic_ostream&lt;char&gt;</text>
</a>
</g>
</g>
<!-- Node43 -->
<g id="node15" class="node">
<title>Node43</title>
<g id="a_node15"><a xlink:title="STL class. ">
<polygon fill="#ffffff" stroke="#bfbfbf" points="517.5,-.5 517.5,-19.5 569.5,-19.5 569.5,-.5 517.5,-.5"/>
<text text-anchor="middle" x="543.5" y="-7.5" font-family="Helvetica,sans-Serif" font-size="10.00" fill="#000000">ostream</text>
</a>
</g>
</g>
<!-- Node44&#45;&gt;Node43 -->
<g id="edge17" class="edge">
<title>Node44&#45;&gt;Node43</title>
<path fill="none" stroke="#191970" d="M399.4152,-10C439.2705,-10 487.8896,-10 517.2345,-10"/>
<polygon fill="#191970" stroke="#191970" points="399.2248,-6.5001 389.2248,-10 399.2248,-13.5001 399.2248,-6.5001"/>
</g>
<!-- Node36 -->
<g id="node4" class="node">
<title>Node36</title>
<g id="a_node4"><a xlink:href="classaworx_1_1lib_1_1strings_1_1AStringBase.html" target="_top" xlink:title="AStringBase\&lt;character\&gt;">
<polygon fill="#ffffff" stroke="#ff0000" points="16.5,-468.5 16.5,-487.5 140.5,-487.5 140.5,-468.5 16.5,-468.5"/>
<text text-anchor="middle" x="78.5" y="-475.5" font-family="Helvetica,sans-Serif" font-size="10.00" fill="#000000">AStringBase&lt;character&gt;</text>
</a>
</g>
</g>
<!-- Node36&#45;&gt;Node8 -->
<g id="edge12" class="edge">
<title>Node36&#45;&gt;Node8</title>
<path fill="none" stroke="#9a32cd" stroke-dasharray="5,2" d="M150.9214,-486.7274C183.9153,-488.4008 223.0884,-487.1108 257,-477 366.043,-444.4886 394.4504,-421.2671 472,-338 507.4609,-299.9246 531.4774,-240.9964 540.0315,-217.8302"/>
<polygon fill="#9a32cd" stroke="#9a32cd" points="151.0865,-483.2311 140.893,-486.1194 150.6628,-490.2182 151.0865,-483.2311"/>
<text text-anchor="middle" x="333.5" y="-495" font-family="Helvetica,sans-Serif" font-size="10.00" fill="#000000"> logBuf</text>
<text text-anchor="middle" x="333.5" y="-484" font-family="Helvetica,sans-Serif" font-size="10.00" fill="#000000">MultiLineDelimiter</text>
<text text-anchor="middle" x="333.5" y="-473" font-family="Helvetica,sans-Serif" font-size="10.00" fill="#000000">msgBuf</text>
</g>
<!-- Node33 -->
<g id="node11" class="node">
<title>Node33</title>
<g id="a_node11"><a xlink:href="classaworx_1_1lib_1_1lox_1_1core_1_1textlogger_1_1MetaInfo.html" target="_top" xlink:title="MetaInfo">
<polygon fill="#ffffff" stroke="#ff0000" points="306,-317.5 306,-336.5 361,-336.5 361,-317.5 306,-317.5"/>
<text text-anchor="middle" x="333.5" y="-324.5" font-family="Helvetica,sans-Serif" font-size="10.00" fill="#000000">MetaInfo</text>
</a>
</g>
</g>
<!-- Node36&#45;&gt;Node33 -->
<g id="edge13" class="edge">
<title>Node36&#45;&gt;Node33</title>
<path fill="none" stroke="#9a32cd" stroke-dasharray="5,2" d="M150.8155,-467.7425C192.3221,-460.7949 239.5677,-450.7561 257,-439 296.2408,-412.5366 321.0212,-358.5843 329.8578,-336.6232"/>
<polygon fill="#9a32cd" stroke="#9a32cd" points="149.9905,-464.3308 140.6856,-469.3972 151.119,-471.2392 149.9905,-464.3308"/>
<text text-anchor="middle" x="216" y="-465" font-family="Helvetica,sans-Serif" font-size="10.00" fill="#000000"> Format</text>
</g>
<!-- Node42 -->
<g id="node5" class="node">
<title>Node42</title>
<g id="a_node5"><a xlink:href="classaworx_1_1lib_1_1strings_1_1AStringBase.html" target="_top" xlink:title="AStringBase\&lt;nchar\&gt;">
<polygon fill="#ffffff" stroke="#000000" points="490,-38.5 490,-57.5 597,-57.5 597,-38.5 490,-38.5"/>
<text text-anchor="middle" x="543.5" y="-45.5" font-family="Helvetica,sans-Serif" font-size="10.00" fill="#000000">AStringBase&lt;nchar&gt;</text>
</a>
</g>
</g>
<!-- Node41 -->
<g id="node14" class="node">
<title>Node41</title>
<g id="a_node14"><a xlink:href="classaworx_1_1lib_1_1strings_1_1util_1_1StringWriter.html" target="_top" xlink:title="StringWriter">
<polygon fill="#ffffff" stroke="#000000" points="686,-38.5 686,-57.5 754,-57.5 754,-38.5 686,-38.5"/>
<text text-anchor="middle" x="720" y="-45.5" font-family="Helvetica,sans-Serif" font-size="10.00" fill="#000000">StringWriter</text>
</a>
</g>
</g>
<!-- Node42&#45;&gt;Node41 -->
<g id="edge15" class="edge">
<title>Node42&#45;&gt;Node41</title>
<path fill="none" stroke="#9a32cd" stroke-dasharray="5,2" d="M607.7502,-48C634.1776,-48 663.7126,-48 685.8514,-48"/>
<polygon fill="#9a32cd" stroke="#9a32cd" points="607.4149,-44.5001 597.4149,-48 607.4148,-51.5001 607.4149,-44.5001"/>
<text text-anchor="middle" x="637" y="-51" font-family="Helvetica,sans-Serif" font-size="10.00" fill="#000000"> converter</text>
</g>
<!-- Node20 -->
<g id="node6" class="node">
<title>Node20</title>
<g id="a_node6"><a xlink:href="classaworx_1_1lib_1_1strings_1_1TStringBase.html" target="_top" xlink:title="TStringBase\&lt;nchar\&gt;">
<polygon fill="#ffffff" stroke="#ff0000" points="280,-38.5 280,-57.5 387,-57.5 387,-38.5 280,-38.5"/>
<text text-anchor="middle" x="333.5" y="-45.5" font-family="Helvetica,sans-Serif" font-size="10.00" fill="#000000">TStringBase&lt;nchar&gt;</text>
</a>
</g>
</g>
<!-- Node20&#45;&gt;Node42 -->
<g id="edge7" class="edge">
<title>Node20&#45;&gt;Node42</title>
<path fill="none" stroke="#191970" d="M397.248,-48C426.7858,-48 461.5025,-48 489.6978,-48"/>
<polygon fill="#191970" stroke="#191970" points="397.0353,-44.5001 387.0352,-48 397.0352,-51.5001 397.0353,-44.5001"/>
</g>
<!-- Node14 -->
<g id="node7" class="node">
<title>Node14</title>
<g id="a_node7"><a xlink:href="classaworx_1_1lib_1_1strings_1_1PreallocatedStringBase.html" target="_top" xlink:title="PreallocatedStringBase\&lt;TChar\&gt;">
<polygon fill="#ffffff" stroke="#ff0000" points="0,-278.5 0,-297.5 157,-297.5 157,-278.5 0,-278.5"/>
<text text-anchor="middle" x="78.5" y="-285.5" font-family="Helvetica,sans-Serif" font-size="10.00" fill="#000000">PreallocatedStringBase&lt;TChar&gt;</text>
</a>
</g>
</g>
<!-- Node14&#45;&gt;Node8 -->
<g id="edge4" class="edge">
<title>Node14&#45;&gt;Node8</title>
<path fill="none" stroke="#9a32cd" stroke-dasharray="5,2" d="M167.4505,-283.7891C230.6157,-279.6189 317.1478,-271.5066 392,-256 437.6587,-246.5412 489.0583,-228.6523 518.7207,-217.5858"/>
<polygon fill="#9a32cd" stroke="#9a32cd" points="166.8807,-280.3183 157.1245,-284.4495 167.3276,-287.3041 166.8807,-280.3183"/>
<text text-anchor="middle" x="333.5" y="-276" font-family="Helvetica,sans-Serif" font-size="10.00" fill="#000000"> FmtMultiLineMsgHeadline</text>
</g>
<!-- Node14&#45;&gt;Node8 -->
<g id="edge5" class="edge">
<title>Node14&#45;&gt;Node8</title>
<path fill="none" stroke="#9a32cd" stroke-dasharray="5,2" d="M104.4207,-273.6312C141.0844,-254.2109 210.7925,-220.5693 275,-208 358.7157,-191.6117 459.948,-198.6536 510.8748,-204.0022"/>
<polygon fill="#9a32cd" stroke="#9a32cd" points="102.5637,-270.6557 95.4109,-278.4716 105.8765,-276.8222 102.5637,-270.6557"/>
<text text-anchor="middle" x="333.5" y="-244" font-family="Helvetica,sans-Serif" font-size="10.00" fill="#000000"> FmtMsgSuffix</text>
<text text-anchor="middle" x="333.5" y="-233" font-family="Helvetica,sans-Serif" font-size="10.00" fill="#000000">MultiLineDelimiterRepl</text>
<text text-anchor="middle" x="333.5" y="-222" font-family="Helvetica,sans-Serif" font-size="10.00" fill="#000000">FmtMultiLineSuffix</text>
<text text-anchor="middle" x="333.5" y="-211" font-family="Helvetica,sans-Serif" font-size="10.00" fill="#000000">FmtMultiLinePrefix</text>
</g>
<!-- Node14&#45;&gt;Node33 -->
<g id="edge6" class="edge">
<title>Node14&#45;&gt;Node33</title>
<path fill="none" stroke="#9a32cd" stroke-dasharray="5,2" d="M150.9738,-299.0842C202.4972,-306.9643 268.8551,-317.1131 305.7013,-322.7484"/>
<polygon fill="#9a32cd" stroke="#9a32cd" points="151.2942,-295.5926 140.88,-297.5405 150.2359,-302.5122 151.2942,-295.5926"/>
<text text-anchor="middle" x="216" y="-427" font-family="Helvetica,sans-Serif" font-size="10.00" fill="#000000"> TimeDiffHours</text>
<text text-anchor="middle" x="216" y="-416" font-family="Helvetica,sans-Serif" font-size="10.00" fill="#000000">VerbosityInfo</text>
<text text-anchor="middle" x="216" y="-405" font-family="Helvetica,sans-Serif" font-size="10.00" fill="#000000">VerbosityWarning</text>
<text text-anchor="middle" x="216" y="-394" font-family="Helvetica,sans-Serif" font-size="10.00" fill="#000000">VerbosityVerbose</text>
<text text-anchor="middle" x="216" y="-383" font-family="Helvetica,sans-Serif" font-size="10.00" fill="#000000">TimeDiffMicros</text>
<text text-anchor="middle" x="216" y="-372" font-family="Helvetica,sans-Serif" font-size="10.00" fill="#000000">TimeElapsedDays</text>
<text text-anchor="middle" x="216" y="-361" font-family="Helvetica,sans-Serif" font-size="10.00" fill="#000000">VerbosityError</text>
<text text-anchor="middle" x="216" y="-350" font-family="Helvetica,sans-Serif" font-size="10.00" fill="#000000">TimeOfDayFormat</text>
<text text-anchor="middle" x="216" y="-339" font-family="Helvetica,sans-Serif" font-size="10.00" fill="#000000">TimeDiffMins</text>
<text text-anchor="middle" x="216" y="-328" font-family="Helvetica,sans-Serif" font-size="10.00" fill="#000000">TimeDiffSecs</text>
<text text-anchor="middle" x="216" y="-317" font-family="Helvetica,sans-Serif" font-size="10.00" fill="#000000">...</text>
</g>
<!-- Node7 -->
<g id="node8" class="node">
<title>Node7</title>
<g id="a_node8"><a xlink:href="classaworx_1_1lib_1_1lox_1_1core_1_1textlogger_1_1PlainTextLogger.html" target="_top" xlink:title="PlainTextLogger">
<polygon fill="#ffffff" stroke="#000000" points="677,-106.5 677,-125.5 763,-125.5 763,-106.5 677,-106.5"/>
<text text-anchor="middle" x="720" y="-113.5" font-family="Helvetica,sans-Serif" font-size="10.00" fill="#000000">PlainTextLogger</text>
</a>
</g>
</g>
<!-- Node7&#45;&gt;Node6 -->
<g id="edge1" class="edge">
<title>Node7&#45;&gt;Node6</title>
<path fill="none" stroke="#191970" d="M758.5143,-103.2486C783.7438,-94.8956 816.1836,-84.1554 839.1856,-76.5399"/>
<polygon fill="#191970" stroke="#191970" points="757.2804,-99.9703 748.8872,-106.436 759.4805,-106.6155 757.2804,-99.9703"/>
</g>
<!-- Node8&#45;&gt;Node7 -->
<g id="edge2" class="edge">
<title>Node8&#45;&gt;Node7</title>
<path fill="none" stroke="#191970" d="M571.1414,-193.592C607.5737,-174.6018 670.6652,-141.7156 701.6936,-125.5421"/>
<polygon fill="#191970" stroke="#191970" points="569.3049,-190.6023 562.055,-198.3283 572.5404,-196.8097 569.3049,-190.6023"/>
</g>
<!-- Node9 -->
<g id="node10" class="node">
<title>Node9</title>
<g id="a_node10"><a xlink:href="classaworx_1_1lib_1_1lox_1_1core_1_1Logger.html" target="_top" xlink:title="Logger">
<polygon fill="#ffffff" stroke="#ff0000" points="310.5,-152.5 310.5,-171.5 356.5,-171.5 356.5,-152.5 310.5,-152.5"/>
<text text-anchor="middle" x="333.5" y="-159.5" font-family="Helvetica,sans-Serif" font-size="10.00" fill="#000000">Logger</text>
</a>
</g>
</g>
<!-- Node9&#45;&gt;Node8 -->
<g id="edge3" class="edge">
<title>Node9&#45;&gt;Node8</title>
<path fill="none" stroke="#191970" d="M366.6972,-169.2718C406.165,-177.9171 471.6105,-192.2528 510.8406,-200.846"/>
<polygon fill="#191970" stroke="#191970" points="367.2934,-165.8194 356.776,-167.0986 365.7955,-172.6573 367.2934,-165.8194"/>
</g>
<!-- Node33&#45;&gt;Node8 -->
<g id="edge11" class="edge">
<title>Node33&#45;&gt;Node8</title>
<path fill="none" stroke="#9a32cd" stroke-dasharray="5,2" d="M371.3513,-327.4413C400.7743,-326.1483 441.5663,-320.6403 472,-302 506.2704,-281.0097 529.9763,-237.0597 539.2058,-217.6112"/>
<polygon fill="#9a32cd" stroke="#9a32cd" points="370.9587,-323.9513 361.0658,-327.7435 371.1643,-330.9482 370.9587,-323.9513"/>
<text text-anchor="middle" x="441" y="-326" font-family="Helvetica,sans-Serif" font-size="10.00" fill="#000000"> MetaInfo</text>
</g>
<!-- Node30 -->
<g id="node12" class="node">
<title>Node30</title>
<g id="a_node12"><a xlink:href="classaworx_1_1lib_1_1strings_1_1util_1_1AutoSizes.html" target="_top" xlink:title="AutoSizes">
<polygon fill="#ffffff" stroke="#ff0000" points="302.5,-114.5 302.5,-133.5 364.5,-133.5 364.5,-114.5 302.5,-114.5"/>
<text text-anchor="middle" x="333.5" y="-121.5" font-family="Helvetica,sans-Serif" font-size="10.00" fill="#000000">AutoSizes</text>
</a>
</g>
</g>
<!-- Node30&#45;&gt;Node8 -->
<g id="edge9" class="edge">
<title>Node30&#45;&gt;Node8</title>
<path fill="none" stroke="#9a32cd" stroke-dasharray="5,2" d="M374.4893,-132.7498C402.6085,-139.4907 440.4022,-150.0253 472,-164 493.5943,-173.5505 516.4906,-188.6335 530.3936,-198.4225"/>
<polygon fill="#9a32cd" stroke="#9a32cd" points="375.1308,-129.3055 364.5968,-130.4386 373.5382,-136.1219 375.1308,-129.3055"/>
<text text-anchor="middle" x="441" y="-167" font-family="Helvetica,sans-Serif" font-size="10.00" fill="#000000"> AutoSizes</text>
</g>
<!-- Node32 -->
<g id="node13" class="node">
<title>Node32</title>
<g id="a_node13"><a xlink:href="classaworx_1_1lib_1_1lox_1_1core_1_1textlogger_1_1ObjectConverter.html" target="_top" xlink:title="ObjectConverter">
<polygon fill="#ffffff" stroke="#000000" points="289.5,-76.5 289.5,-95.5 377.5,-95.5 377.5,-76.5 289.5,-76.5"/>
<text text-anchor="middle" x="333.5" y="-83.5" font-family="Helvetica,sans-Serif" font-size="10.00" fill="#000000">ObjectConverter</text>
</a>
</g>
</g>
<!-- Node32&#45;&gt;Node8 -->
<g id="edge10" class="edge">
<title>Node32&#45;&gt;Node8</title>
<path fill="none" stroke="#9a32cd" stroke-dasharray="5,2" d="M387.6512,-94.6968C414.5304,-100.7743 446.5967,-110.7992 472,-127 502.0486,-146.1633 526.879,-181.4993 537.685,-198.4457"/>
<polygon fill="#9a32cd" stroke="#9a32cd" points="388.1387,-91.2221 377.6282,-92.5562 386.6766,-98.0677 388.1387,-91.2221"/>
<text text-anchor="middle" x="441" y="-130" font-family="Helvetica,sans-Serif" font-size="10.00" fill="#000000"> Converter</text>
</g>
<!-- Node41&#45;&gt;Node6 -->
<g id="edge14" class="edge">
<title>Node41&#45;&gt;Node6</title>
<path fill="none" stroke="#9a32cd" stroke-dasharray="5,2" d="M764.3392,-52.6332C778.6124,-54.2179 794.4879,-56.0786 809,-58 814.7523,-58.7616 820.8112,-59.6207 826.7673,-60.4981"/>
<polygon fill="#9a32cd" stroke="#9a32cd" points="764.5932,-49.1402 754.2717,-51.5311 763.8314,-56.0986 764.5932,-49.1402"/>
<text text-anchor="middle" x="795" y="-61" font-family="Helvetica,sans-Serif" font-size="10.00" fill="#000000"> writer</text>
</g>
<!-- Node43&#45;&gt;Node41 -->
<g id="edge16" class="edge">
<title>Node43&#45;&gt;Node41</title>
<path fill="none" stroke="#9a32cd" stroke-dasharray="5,2" d="M579.6497,-16.7697C602.4628,-21.1479 632.5196,-27.1107 659,-33 667.7294,-34.9414 677.1252,-37.1782 685.8648,-39.3218"/>
<polygon fill="#9a32cd" stroke="#9a32cd" points="580.1953,-13.3108 569.7166,-14.8756 578.884,-20.1869 580.1953,-13.3108"/>
<text text-anchor="middle" x="637" y="-36" font-family="Helvetica,sans-Serif" font-size="10.00" fill="#000000"> ostream</text>
</g>
</g>
</svg>
