<?xml version="1.0" encoding="UTF-8" standalone="no"?>
<!DOCTYPE svg PUBLIC "-//W3C//DTD SVG 1.1//EN"
 "http://www.w3.org/Graphics/SVG/1.1/DTD/svg11.dtd">
<!-- Generated by graphviz version 2.40.1 (20161225.0304)
 -->
<!-- Title: CLIApp Pages: 1 -->
<svg width="1739pt" height="376pt"
 viewBox="0.00 0.00 1739.00 376.00" xmlns="http://www.w3.org/2000/svg" xmlns:xlink="http://www.w3.org/1999/xlink">
<g id="graph0" class="graph" transform="scale(1 1) rotate(0) translate(4 372)">
<title>CLIApp</title>
<polygon fill="#ffffff" stroke="transparent" points="-4,4 -4,-372 1735,-372 1735,4 -4,4"/>
<!-- Node1 -->
<g id="node1" class="node">
<title>Node1</title>
<polygon fill="#bfbfbf" stroke="#000000" points="786.5,-148.5 786.5,-167.5 836.5,-167.5 836.5,-148.5 786.5,-148.5"/>
<text text-anchor="middle" x="811.5" y="-155.5" font-family="Helvetica,sans-Serif" font-size="10.00" fill="#000000">CLIApp</text>
</g>
<!-- Node47 -->
<g id="node15" class="node">
<title>Node47</title>
<g id="a_node15"><a xlink:href="structaworx_1_1lib_1_1cli_1_1ArgumentDef.html" target="_top" xlink:title="ArgumentDef">
<polygon fill="#ffffff" stroke="#000000" points="927,-263.5 927,-282.5 1001,-282.5 1001,-263.5 927,-263.5"/>
<text text-anchor="middle" x="964" y="-270.5" font-family="Helvetica,sans-Serif" font-size="10.00" fill="#000000">ArgumentDef</text>
</a>
</g>
</g>
<!-- Node1&#45;&gt;Node47 -->
<g id="edge1" class="edge">
<title>Node1&#45;&gt;Node47</title>
<path fill="none" stroke="#9a32cd" stroke-dasharray="5,2" d="M815.7105,-177.4361C821.2803,-198.349 833.1792,-231.0193 856,-249 875.9903,-264.7505 904.2193,-270.6261 926.8036,-272.6294"/>
<polygon fill="#9a32cd" stroke="#9a32cd" points="819.1103,-176.6043 813.3505,-167.7119 812.3078,-178.2553 819.1103,-176.6043"/>
<text text-anchor="middle" x="872" y="-268" font-family="Helvetica,sans-Serif" font-size="10.00" fill="#000000"> Parent</text>
</g>
<!-- Node55 -->
<g id="node16" class="node">
<title>Node55</title>
<g id="a_node16"><a xlink:href="structaworx_1_1lib_1_1cli_1_1CommandDecl.html" target="_top" xlink:title="CommandDecl">
<polygon fill="#ffffff" stroke="#ff0000" points="923,-142.5 923,-161.5 1005,-161.5 1005,-142.5 923,-142.5"/>
<text text-anchor="middle" x="964" y="-149.5" font-family="Helvetica,sans-Serif" font-size="10.00" fill="#000000">CommandDecl</text>
</a>
</g>
</g>
<!-- Node1&#45;&gt;Node55 -->
<g id="edge2" class="edge">
<title>Node1&#45;&gt;Node55</title>
<path fill="none" stroke="#9a32cd" stroke-dasharray="5,2" d="M846.9111,-156.6068C869.6337,-155.7128 899.2201,-154.5487 922.9667,-153.6144"/>
<polygon fill="#9a32cd" stroke="#9a32cd" points="846.5369,-153.1187 836.6823,-157.0092 846.8122,-160.1133 846.5369,-153.1187"/>
<text text-anchor="middle" x="872" y="-159" font-family="Helvetica,sans-Serif" font-size="10.00" fill="#000000"> Parent</text>
</g>
<!-- Node2 -->
<g id="node2" class="node">
<title>Node2</title>
<polygon fill="#ffffff" stroke="#bfbfbf" points="519.5,-235.5 519.5,-254.5 639.5,-254.5 639.5,-235.5 519.5,-235.5"/>
<text text-anchor="middle" x="579.5" y="-242.5" font-family="Helvetica,sans-Serif" font-size="10.00" fill="#000000">vector&lt;cli::OptionDecl&gt;</text>
</g>
<!-- Node2&#45;&gt;Node1 -->
<g id="edge3" class="edge">
<title>Node2&#45;&gt;Node1</title>
<path fill="none" stroke="#9a32cd" stroke-dasharray="5,2" d="M649.744,-239.1309C694.4121,-234.3846 747.4037,-226.5687 767,-215 786.0275,-203.7671 799.9254,-181.038 806.7534,-167.9293"/>
<polygon fill="#9a32cd" stroke="#9a32cd" points="649.3601,-235.6518 639.7701,-240.1554 650.0754,-242.6152 649.3601,-235.6518"/>
<text text-anchor="middle" x="721" y="-239" font-family="Helvetica,sans-Serif" font-size="10.00" fill="#000000"> OptionDecls</text>
</g>
<!-- Node44 -->
<g id="node3" class="node">
<title>Node44</title>
<polygon fill="#ffffff" stroke="#bfbfbf" points="1569,-36.5 1569,-55.5 1731,-55.5 1731,-36.5 1569,-36.5"/>
<text text-anchor="middle" x="1650" y="-43.5" font-family="Helvetica,sans-Serif" font-size="10.00" fill="#000000">map&lt;Enum, vector&lt;cli::Option&gt;&gt;</text>
</g>
<!-- Node44&#45;&gt;Node1 -->
<g id="edge17" class="edge">
<title>Node44&#45;&gt;Node1</title>
<path fill="none" stroke="#9a32cd" stroke-dasharray="5,2" d="M1558.7045,-46C1519.6747,-46 1473.6042,-46 1432,-46 964,-46 964,-46 964,-46 895.0174,-46 836.5902,-121.3662 817.8202,-148.4509"/>
<polygon fill="#9a32cd" stroke="#9a32cd" points="1558.991,-49.5001 1568.991,-46 1558.9909,-42.5001 1558.991,-49.5001"/>
<text text-anchor="middle" x="1226.5" y="-60" font-family="Helvetica,sans-Serif" font-size="10.00" fill="#000000"> OptionsOverwritten</text>
<text text-anchor="middle" x="1226.5" y="-49" font-family="Helvetica,sans-Serif" font-size="10.00" fill="#000000">OptionsFound</text>
</g>
<!-- Node45 -->
<g id="node4" class="node">
<title>Node45</title>
<polygon fill="#ffffff" stroke="#bfbfbf" points="1382,-271.5 1382,-290.5 1482,-290.5 1482,-271.5 1382,-271.5"/>
<text text-anchor="middle" x="1432" y="-278.5" font-family="Helvetica,sans-Serif" font-size="10.00" fill="#000000">vector&lt;cli::Option&gt;</text>
</g>
<!-- Node45&#45;&gt;Node44 -->
<g id="edge18" class="edge">
<title>Node45&#45;&gt;Node44</title>
<path fill="none" stroke="#9a32cd" stroke-dasharray="5,2" d="M1466.2576,-267.0386C1474.4768,-262.8572 1482.9172,-257.8105 1490,-252 1564.9226,-190.5361 1626.3906,-87.8811 1644.5432,-55.8518"/>
<polygon fill="#9a32cd" stroke="#9a32cd" points="1464.6705,-263.9179 1457.1559,-271.3865 1467.6879,-270.2342 1464.6705,-263.9179"/>
<text text-anchor="middle" x="1529.5" y="-236" font-family="Helvetica,sans-Serif" font-size="10.00" fill="#000000"> elements</text>
</g>
<!-- Node33 -->
<g id="node5" class="node">
<title>Node33</title>
<polygon fill="#ffffff" stroke="#bfbfbf" points="527.5,-287.5 527.5,-306.5 631.5,-306.5 631.5,-287.5 527.5,-287.5"/>
<text text-anchor="middle" x="579.5" y="-294.5" font-family="Helvetica,sans-Serif" font-size="10.00" fill="#000000">vector&lt;StringBase&gt;</text>
</g>
<!-- Node33&#45;&gt;Node1 -->
<g id="edge11" class="edge">
<title>Node33&#45;&gt;Node1</title>
<path fill="none" stroke="#9a32cd" stroke-dasharray="5,2" d="M630.1866,-285.1183C684.7812,-272.239 764.2761,-253.2142 767,-251 794.0838,-228.9843 805.7267,-186.5481 809.7375,-167.5746"/>
<polygon fill="#9a32cd" stroke="#9a32cd" points="629.2373,-281.746 620.3065,-287.4462 630.8427,-288.5595 629.2373,-281.746"/>
<text text-anchor="middle" x="721" y="-287" font-family="Helvetica,sans-Serif" font-size="10.00" fill="#000000"> OptionArgsIgnored</text>
<text text-anchor="middle" x="721" y="-276" font-family="Helvetica,sans-Serif" font-size="10.00" fill="#000000">ArgStrings</text>
</g>
<!-- Node46 -->
<g id="node18" class="node">
<title>Node46</title>
<g id="a_node18"><a xlink:href="structaworx_1_1lib_1_1cli_1_1Option.html" target="_top" xlink:title="Option">
<polygon fill="#ffffff" stroke="#000000" points="1204,-294.5 1204,-313.5 1249,-313.5 1249,-294.5 1204,-294.5"/>
<text text-anchor="middle" x="1226.5" y="-301.5" font-family="Helvetica,sans-Serif" font-size="10.00" fill="#000000">Option</text>
</a>
</g>
</g>
<!-- Node33&#45;&gt;Node46 -->
<g id="edge12" class="edge">
<title>Node33&#45;&gt;Node46</title>
<path fill="none" stroke="#9a32cd" stroke-dasharray="5,2" d="M641.7368,-297.6733C781.3472,-299.1838 1114.2873,-302.786 1203.9391,-303.7559"/>
<polygon fill="#9a32cd" stroke="#9a32cd" points="641.6629,-294.1724 631.6256,-297.564 641.5871,-301.172 641.6629,-294.1724"/>
<text text-anchor="middle" x="872" y="-303" font-family="Helvetica,sans-Serif" font-size="10.00" fill="#000000"> Args</text>
</g>
<!-- Node13 -->
<g id="node6" class="node">
<title>Node13</title>
<polygon fill="#ffffff" stroke="#bfbfbf" points="524.5,-82.5 524.5,-101.5 634.5,-101.5 634.5,-82.5 524.5,-82.5"/>
<text text-anchor="middle" x="579.5" y="-89.5" font-family="Helvetica,sans-Serif" font-size="10.00" fill="#000000">vector&lt;AStringBase&gt;</text>
</g>
<!-- Node13&#45;&gt;Node1 -->
<g id="edge10" class="edge">
<title>Node13&#45;&gt;Node1</title>
<path fill="none" stroke="#9a32cd" stroke-dasharray="5,2" d="M644.7988,-90.5276C682.1765,-92.0382 729.0379,-98.0397 767,-116 782.5566,-123.36 796.2444,-138.224 804.1991,-148.1474"/>
<polygon fill="#9a32cd" stroke="#9a32cd" points="644.6252,-87.0208 634.5232,-90.2144 644.4119,-94.0175 644.6252,-87.0208"/>
<text text-anchor="middle" x="721" y="-119" font-family="Helvetica,sans-Serif" font-size="10.00" fill="#000000"> convertedArgStrings</text>
</g>
<!-- Node48 -->
<g id="node7" class="node">
<title>Node48</title>
<polygon fill="#ffffff" stroke="#bfbfbf" points="538.5,-44.5 538.5,-63.5 620.5,-63.5 620.5,-44.5 538.5,-44.5"/>
<text text-anchor="middle" x="579.5" y="-51.5" font-family="Helvetica,sans-Serif" font-size="10.00" fill="#000000">vector&lt;size_t&gt;</text>
</g>
<!-- Node48&#45;&gt;Node1 -->
<g id="edge22" class="edge">
<title>Node48&#45;&gt;Node1</title>
<path fill="none" stroke="#9a32cd" stroke-dasharray="5,2" d="M631.0289,-48.6276C671.3676,-47.0667 727.1289,-51.0006 767,-78 792.1349,-95.0206 804.535,-131.1757 809.2115,-148.4385"/>
<polygon fill="#9a32cd" stroke="#9a32cd" points="630.6736,-45.1411 620.8659,-49.1485 631.032,-52.1319 630.6736,-45.1411"/>
<text text-anchor="middle" x="721" y="-81" font-family="Helvetica,sans-Serif" font-size="10.00" fill="#000000"> ArgsLeft</text>
</g>
<!-- Node49 -->
<g id="node8" class="node">
<title>Node49</title>
<polygon fill="#ffffff" stroke="#bfbfbf" points="1374,-223.5 1374,-242.5 1490,-242.5 1490,-223.5 1374,-223.5"/>
<text text-anchor="middle" x="1432" y="-230.5" font-family="Helvetica,sans-Serif" font-size="10.00" fill="#000000">vector&lt;cli::Command&gt;</text>
</g>
<!-- Node49&#45;&gt;Node1 -->
<g id="edge23" class="edge">
<title>Node49&#45;&gt;Node1</title>
<path fill="none" stroke="#9a32cd" stroke-dasharray="5,2" d="M1363.5836,-239.9024C1261.6143,-247.9727 1064.7509,-254.9569 906,-209 874.8406,-199.9796 842.3818,-179.6606 824.7849,-167.5692"/>
<polygon fill="#9a32cd" stroke="#9a32cd" points="1364.0677,-243.3745 1373.7483,-239.0692 1363.4958,-236.3979 1364.0677,-243.3745"/>
<text text-anchor="middle" x="1090" y="-246" font-family="Helvetica,sans-Serif" font-size="10.00" fill="#000000"> CommandsParsed</text>
</g>
<!-- Node51 -->
<g id="node9" class="node">
<title>Node51</title>
<polygon fill="#ffffff" stroke="#bfbfbf" points="906,-180.5 906,-199.5 1022,-199.5 1022,-180.5 906,-180.5"/>
<text text-anchor="middle" x="964" y="-187.5" font-family="Helvetica,sans-Serif" font-size="10.00" fill="#000000">vector&lt;cli::Parameter&gt;</text>
</g>
<!-- Node50 -->
<g id="node21" class="node">
<title>Node50</title>
<g id="a_node21"><a xlink:href="structaworx_1_1lib_1_1cli_1_1Command.html" target="_top" xlink:title="Command">
<polygon fill="#ffffff" stroke="#000000" points="1195.5,-196.5 1195.5,-215.5 1257.5,-215.5 1257.5,-196.5 1195.5,-196.5"/>
<text text-anchor="middle" x="1226.5" y="-203.5" font-family="Helvetica,sans-Serif" font-size="10.00" fill="#000000">Command</text>
</a>
</g>
</g>
<!-- Node51&#45;&gt;Node50 -->
<g id="edge25" class="edge">
<title>Node51&#45;&gt;Node50</title>
<path fill="none" stroke="#9a32cd" stroke-dasharray="5,2" d="M1032.703,-187.7527C1065.2809,-187.3612 1104.7092,-187.8617 1140,-191 1158.5215,-192.647 1179.0349,-196.1309 1195.4352,-199.3268"/>
<polygon fill="#9a32cd" stroke="#9a32cd" points="1032.3263,-184.2579 1022.3804,-187.909 1032.4323,-191.2571 1032.3263,-184.2579"/>
<text text-anchor="middle" x="1090" y="-205" font-family="Helvetica,sans-Serif" font-size="10.00" fill="#000000"> ParametersMandatory</text>
<text text-anchor="middle" x="1090" y="-194" font-family="Helvetica,sans-Serif" font-size="10.00" fill="#000000">ParametersOptional</text>
</g>
<!-- Node58 -->
<g id="node10" class="node">
<title>Node58</title>
<polygon fill="#ffffff" stroke="#bfbfbf" points="502,-120.5 502,-139.5 657,-139.5 657,-120.5 502,-120.5"/>
<text text-anchor="middle" x="579.5" y="-127.5" font-family="Helvetica,sans-Serif" font-size="10.00" fill="#000000">map&lt;Enum, cli::ExitCodeDecl&gt;</text>
</g>
<!-- Node58&#45;&gt;Node1 -->
<g id="edge29" class="edge">
<title>Node58&#45;&gt;Node1</title>
<path fill="none" stroke="#9a32cd" stroke-dasharray="5,2" d="M667.2973,-131.446C698.9567,-133.1848 734.8064,-136.5688 767,-143 773.5558,-144.3096 780.4774,-146.3193 786.858,-148.4461"/>
<polygon fill="#9a32cd" stroke="#9a32cd" points="667.3385,-127.9438 657.1754,-130.9375 666.9872,-134.935 667.3385,-127.9438"/>
<text text-anchor="middle" x="721" y="-146" font-family="Helvetica,sans-Serif" font-size="10.00" fill="#000000"> ExitCodeDecls</text>
</g>
<!-- Node61 -->
<g id="node11" class="node">
<title>Node61</title>
<polygon fill="#ffffff" stroke="#bfbfbf" points="511,-197.5 511,-216.5 648,-216.5 648,-197.5 511,-197.5"/>
<text text-anchor="middle" x="579.5" y="-204.5" font-family="Helvetica,sans-Serif" font-size="10.00" fill="#000000">vector&lt;cli::ParameterDecl&gt;</text>
</g>
<!-- Node61&#45;&gt;Node1 -->
<g id="edge32" class="edge">
<title>Node61&#45;&gt;Node1</title>
<path fill="none" stroke="#9a32cd" stroke-dasharray="5,2" d="M658.4297,-202.848C692.4579,-199.4397 732.3202,-193.246 767,-182 777.5205,-178.5884 788.465,-172.7211 796.8675,-167.6419"/>
<polygon fill="#9a32cd" stroke="#9a32cd" points="657.6986,-199.4011 648.0688,-203.8189 658.3517,-206.3706 657.6986,-199.4011"/>
<text text-anchor="middle" x="721" y="-203" font-family="Helvetica,sans-Serif" font-size="10.00" fill="#000000"> ParameterDecls</text>
</g>
<!-- Node62 -->
<g id="node12" class="node">
<title>Node62</title>
<polygon fill="#ffffff" stroke="#bfbfbf" points="1158,-103.5 1158,-122.5 1295,-122.5 1295,-103.5 1158,-103.5"/>
<text text-anchor="middle" x="1226.5" y="-110.5" font-family="Helvetica,sans-Serif" font-size="10.00" fill="#000000">vector&lt;cli::CommandDecl&gt;</text>
</g>
<!-- Node62&#45;&gt;Node1 -->
<g id="edge33" class="edge">
<title>Node62&#45;&gt;Node1</title>
<path fill="none" stroke="#9a32cd" stroke-dasharray="5,2" d="M1147.652,-106.3238C1082.05,-102.8724 986.6935,-102.762 906,-122 879.7002,-128.2701 850.8449,-140.0241 832.0261,-148.3951"/>
<polygon fill="#9a32cd" stroke="#9a32cd" points="1147.7368,-109.834 1157.9184,-106.9039 1148.1318,-102.8452 1147.7368,-109.834"/>
<text text-anchor="middle" x="964" y="-125" font-family="Helvetica,sans-Serif" font-size="10.00" fill="#000000"> CommandDecls</text>
</g>
<!-- Node4 -->
<g id="node13" class="node">
<title>Node4</title>
<g id="a_node13"><a xlink:href="structaworx_1_1lib_1_1cli_1_1ArgumentDecl.html" target="_top" xlink:title="ArgumentDecl\&lt;OptionDecl\&gt;">
<polygon fill="#ffffff" stroke="#000000" points="134,-196.5 134,-215.5 274,-215.5 274,-196.5 134,-196.5"/>
<text text-anchor="middle" x="204" y="-203.5" font-family="Helvetica,sans-Serif" font-size="10.00" fill="#000000">ArgumentDecl&lt;OptionDecl&gt;</text>
</a>
</g>
</g>
<!-- Node3 -->
<g id="node17" class="node">
<title>Node3</title>
<g id="a_node17"><a xlink:href="structaworx_1_1lib_1_1cli_1_1OptionDecl.html" target="_top" xlink:title="OptionDecl">
<polygon fill="#ffffff" stroke="#000000" points="349.5,-235.5 349.5,-254.5 414.5,-254.5 414.5,-235.5 349.5,-235.5"/>
<text text-anchor="middle" x="382" y="-242.5" font-family="Helvetica,sans-Serif" font-size="10.00" fill="#000000">OptionDecl</text>
</a>
</g>
</g>
<!-- Node4&#45;&gt;Node3 -->
<g id="edge6" class="edge">
<title>Node4&#45;&gt;Node3</title>
<path fill="none" stroke="#191970" d="M257.4029,-217.7006C287.2713,-224.2448 323.544,-232.1922 349.2314,-237.8204"/>
<polygon fill="#191970" stroke="#191970" points="258.0611,-214.2619 247.5437,-215.5405 256.5629,-221.0997 258.0611,-214.2619"/>
</g>
<!-- Node60 -->
<g id="node14" class="node">
<title>Node60</title>
<g id="a_node14"><a xlink:href="structaworx_1_1lib_1_1cli_1_1ArgumentDecl.html" target="_top" xlink:title="ArgumentDecl\&lt;ExitCodeDecl\&gt;">
<polygon fill="#ffffff" stroke="#000000" points="128,-112.5 128,-131.5 280,-131.5 280,-112.5 128,-112.5"/>
<text text-anchor="middle" x="204" y="-119.5" font-family="Helvetica,sans-Serif" font-size="10.00" fill="#000000">ArgumentDecl&lt;ExitCodeDecl&gt;</text>
</a>
</g>
</g>
<!-- Node59 -->
<g id="node23" class="node">
<title>Node59</title>
<g id="a_node23"><a xlink:href="structaworx_1_1lib_1_1cli_1_1ExitCodeDecl.html" target="_top" xlink:title="ExitCodeDecl">
<polygon fill="#ffffff" stroke="#000000" points="343.5,-112.5 343.5,-131.5 420.5,-131.5 420.5,-112.5 343.5,-112.5"/>
<text text-anchor="middle" x="382" y="-119.5" font-family="Helvetica,sans-Serif" font-size="10.00" fill="#000000">ExitCodeDecl</text>
</a>
</g>
</g>
<!-- Node60&#45;&gt;Node59 -->
<g id="edge31" class="edge">
<title>Node60&#45;&gt;Node59</title>
<path fill="none" stroke="#191970" d="M290.2488,-122C308.7548,-122 327.4196,-122 343.0386,-122"/>
<polygon fill="#191970" stroke="#191970" points="290.0044,-118.5001 280.0043,-122 290.0043,-125.5001 290.0044,-118.5001"/>
</g>
<!-- Node47&#45;&gt;Node46 -->
<g id="edge20" class="edge">
<title>Node47&#45;&gt;Node46</title>
<path fill="none" stroke="#191970" d="M1011.2304,-278.5777C1068.1081,-285.2947 1161.304,-296.3007 1203.9358,-301.3353"/>
<polygon fill="#191970" stroke="#191970" points="1011.3946,-275.0728 1001.0531,-277.3758 1010.5736,-282.0245 1011.3946,-275.0728"/>
</g>
<!-- Node47&#45;&gt;Node50 -->
<g id="edge21" class="edge">
<title>Node47&#45;&gt;Node50</title>
<path fill="none" stroke="#191970" d="M992.699,-259.2074C1006.7058,-252.9206 1023.959,-245.8221 1040,-241 1093.4756,-224.9247 1157.8974,-214.793 1195.327,-209.7815"/>
<polygon fill="#191970" stroke="#191970" points="991.2056,-256.0417 983.5754,-263.3923 994.1241,-262.4043 991.2056,-256.0417"/>
</g>
<!-- Node55&#45;&gt;Node62 -->
<g id="edge28" class="edge">
<title>Node55&#45;&gt;Node62</title>
<path fill="none" stroke="#9a32cd" stroke-dasharray="5,2" d="M993.2852,-138.3766C1007.142,-132.5724 1024.1031,-126.3725 1040,-123 1078.3801,-114.8578 1122.1438,-112.1785 1157.6277,-111.6169"/>
<polygon fill="#9a32cd" stroke="#9a32cd" points="991.5864,-135.2982 983.8035,-142.4869 994.3706,-141.7207 991.5864,-135.2982"/>
<text text-anchor="middle" x="1090" y="-126" font-family="Helvetica,sans-Serif" font-size="10.00" fill="#000000"> elements</text>
</g>
<!-- Node55&#45;&gt;Node50 -->
<g id="edge27" class="edge">
<title>Node55&#45;&gt;Node50</title>
<path fill="none" stroke="#9a32cd" stroke-dasharray="5,2" d="M1015.1945,-154.2819C1050.6523,-156.7182 1098.7147,-161.729 1140,-172 1163.4878,-177.8433 1189.1482,-188.512 1206.3714,-196.3451"/>
<polygon fill="#9a32cd" stroke="#9a32cd" points="1015.2848,-150.7806 1005.0812,-153.6331 1014.8366,-157.7662 1015.2848,-150.7806"/>
<text text-anchor="middle" x="1090" y="-175" font-family="Helvetica,sans-Serif" font-size="10.00" fill="#000000"> Declaration</text>
</g>
<!-- Node3&#45;&gt;Node2 -->
<g id="edge4" class="edge">
<title>Node3&#45;&gt;Node2</title>
<path fill="none" stroke="#9a32cd" stroke-dasharray="5,2" d="M424.7454,-245C452.3785,-245 488.7521,-245 519.2921,-245"/>
<polygon fill="#9a32cd" stroke="#9a32cd" points="424.6131,-241.5001 414.6131,-245 424.6131,-248.5001 424.6131,-241.5001"/>
<text text-anchor="middle" x="462.5" y="-248" font-family="Helvetica,sans-Serif" font-size="10.00" fill="#000000"> elements</text>
</g>
<!-- Node3&#45;&gt;Node46 -->
<g id="edge5" class="edge">
<title>Node3&#45;&gt;Node46</title>
<path fill="none" stroke="#9a32cd" stroke-dasharray="5,2" d="M397.8832,-261.7221C429.3492,-292.9498 503.1895,-357 579.5,-357 579.5,-357 579.5,-357 964,-357 1054.428,-357 1158.9743,-326.4061 1203.9867,-311.7067"/>
<polygon fill="#9a32cd" stroke="#9a32cd" points="400.3307,-259.2192 390.8207,-254.5491 395.3426,-264.1304 400.3307,-259.2192"/>
<text text-anchor="middle" x="811.5" y="-360" font-family="Helvetica,sans-Serif" font-size="10.00" fill="#000000"> Declaration</text>
</g>
<!-- Node46&#45;&gt;Node45 -->
<g id="edge19" class="edge">
<title>Node46&#45;&gt;Node45</title>
<path fill="none" stroke="#9a32cd" stroke-dasharray="5,2" d="M1259.3081,-300.328C1292.309,-296.6345 1343.6325,-290.8903 1381.7619,-286.6228"/>
<polygon fill="#9a32cd" stroke="#9a32cd" points="1258.8259,-296.8601 1249.2773,-301.4507 1259.6045,-303.8166 1258.8259,-296.8601"/>
<text text-anchor="middle" x="1334.5" y="-296" font-family="Helvetica,sans-Serif" font-size="10.00" fill="#000000"> elements</text>
</g>
<!-- Node5 -->
<g id="node19" class="node">
<title>Node5</title>
<g id="a_node19"><a xlink:href="classaworx_1_1lib_1_1lang_1_1Library.html" target="_top" xlink:title="Library">
<polygon fill="#ffffff" stroke="#ff0000" points="0,-158.5 0,-177.5 46,-177.5 46,-158.5 0,-158.5"/>
<text text-anchor="middle" x="23" y="-165.5" font-family="Helvetica,sans-Serif" font-size="10.00" fill="#000000">Library</text>
</a>
</g>
</g>
<!-- Node5&#45;&gt;Node1 -->
<g id="edge7" class="edge">
<title>Node5&#45;&gt;Node1</title>
<path fill="none" stroke="#9a32cd" stroke-dasharray="5,2" d="M56.1719,-168C92.4704,-168 152.3763,-168 204,-168 204,-168 204,-168 579.5,-168 654.8894,-168 743.9312,-162.6642 786.4535,-159.7878"/>
<polygon fill="#9a32cd" stroke="#9a32cd" points="56.1433,-164.5001 46.1433,-168 56.1433,-171.5001 56.1433,-164.5001"/>
<text text-anchor="middle" x="382" y="-171" font-family="Helvetica,sans-Serif" font-size="10.00" fill="#000000"> ResLibrary</text>
</g>
<!-- Node5&#45;&gt;Node4 -->
<g id="edge8" class="edge">
<title>Node5&#45;&gt;Node4</title>
<path fill="none" stroke="#9a32cd" stroke-dasharray="5,2" d="M55.9258,-179.7496C58.6418,-180.5639 61.3578,-181.327 64,-182 86.9412,-187.8435 112.364,-192.6794 135.1811,-196.4416"/>
<polygon fill="#9a32cd" stroke="#9a32cd" points="56.8134,-176.3589 46.2224,-176.6468 54.6813,-183.0263 56.8134,-176.3589"/>
<text text-anchor="middle" x="87" y="-194" font-family="Helvetica,sans-Serif" font-size="10.00" fill="#000000"> ResLib</text>
</g>
<!-- Node5&#45;&gt;Node60 -->
<g id="edge9" class="edge">
<title>Node5&#45;&gt;Node60</title>
<path fill="none" stroke="#9a32cd" stroke-dasharray="5,2" d="M44.026,-152.9802C50.2084,-149.1842 57.1553,-145.4848 64,-143 84.099,-135.7037 106.7061,-130.9412 127.7953,-127.833"/>
<polygon fill="#9a32cd" stroke="#9a32cd" points="42.0691,-150.0779 35.6158,-158.4806 45.9006,-155.9362 42.0691,-150.0779"/>
<text text-anchor="middle" x="87" y="-146" font-family="Helvetica,sans-Serif" font-size="10.00" fill="#000000"> ResLib</text>
</g>
<!-- Node40 -->
<g id="node20" class="node">
<title>Node40</title>
<g id="a_node20"><a xlink:href="structaworx_1_1lib_1_1lang_1_1Enum.html" target="_top" xlink:title="Enum">
<polygon fill="#ffffff" stroke="#ff0000" points="2,-48.5 2,-67.5 44,-67.5 44,-48.5 2,-48.5"/>
<text text-anchor="middle" x="23" y="-55.5" font-family="Helvetica,sans-Serif" font-size="10.00" fill="#000000">Enum</text>
</a>
</g>
</g>
<!-- Node40&#45;&gt;Node44 -->
<g id="edge14" class="edge">
<title>Node40&#45;&gt;Node44</title>
<path fill="none" stroke="#9a32cd" stroke-dasharray="5,2" d="M49.3377,-43.8626C83.8381,-26.6936 146.6926,0 204,0 204,0 204,0 1432,0 1502.0119,0 1581.9993,-22.9951 1622.8578,-36.4688"/>
<polygon fill="#9a32cd" stroke="#9a32cd" points="47.7085,-40.7645 40.3869,-48.4225 50.8861,-47.0018 47.7085,-40.7645"/>
<text text-anchor="middle" x="811.5" y="-3" font-family="Helvetica,sans-Serif" font-size="10.00" fill="#000000"> keys</text>
</g>
<!-- Node40&#45;&gt;Node58 -->
<g id="edge15" class="edge">
<title>Node40&#45;&gt;Node58</title>
<path fill="none" stroke="#9a32cd" stroke-dasharray="5,2" d="M54.362,-57.8624C70.9301,-58.0065 91.5925,-58.5288 110,-60 264.6463,-72.36 445.7321,-104.3941 530.7491,-120.4839"/>
<polygon fill="#9a32cd" stroke="#9a32cd" points="54.1463,-54.3615 44.1305,-57.8162 54.1146,-61.3614 54.1463,-54.3615"/>
<text text-anchor="middle" x="310.5" y="-88" font-family="Helvetica,sans-Serif" font-size="10.00" fill="#000000"> keys</text>
</g>
<!-- Node40&#45;&gt;Node4 -->
<g id="edge13" class="edge">
<title>Node40&#45;&gt;Node4</title>
<path fill="none" stroke="#9a32cd" stroke-dasharray="5,2" d="M45.3579,-73.3951C51.3919,-77.5154 57.9307,-81.9491 64,-86 84.3015,-99.55 92.3475,-99.1435 110,-116 119.902,-125.4555 118.7313,-130.9229 128,-141 148.0986,-162.8514 175.2566,-184.5125 191.0754,-196.4879"/>
<polygon fill="#9a32cd" stroke="#9a32cd" points="47.2199,-70.4282 36.992,-67.6637 43.2636,-76.203 47.2199,-70.4282"/>
<text text-anchor="middle" x="87" y="-119" font-family="Helvetica,sans-Serif" font-size="10.00" fill="#000000"> EnumBox</text>
</g>
<!-- Node40&#45;&gt;Node60 -->
<g id="edge16" class="edge">
<title>Node40&#45;&gt;Node60</title>
<path fill="none" stroke="#9a32cd" stroke-dasharray="5,2" d="M54.5191,-62.0524C71.2818,-64.7303 92.0747,-68.894 110,-75 138.8429,-84.8249 170.0567,-101.8324 188.274,-112.4703"/>
<polygon fill="#9a32cd" stroke="#9a32cd" points="54.5642,-58.5202 44.1563,-60.5017 53.5282,-65.4431 54.5642,-58.5202"/>
<text text-anchor="middle" x="87" y="-78" font-family="Helvetica,sans-Serif" font-size="10.00" fill="#000000"> EnumBox</text>
</g>
<!-- Node50&#45;&gt;Node49 -->
<g id="edge24" class="edge">
<title>Node50&#45;&gt;Node49</title>
<path fill="none" stroke="#9a32cd" stroke-dasharray="5,2" d="M1267.9805,-211.45C1298.4374,-215.4516 1340.209,-220.9399 1373.9745,-225.3762"/>
<polygon fill="#9a32cd" stroke="#9a32cd" points="1268.0818,-207.9333 1257.711,-210.1007 1267.1699,-214.8737 1268.0818,-207.9333"/>
<text text-anchor="middle" x="1334.5" y="-225" font-family="Helvetica,sans-Serif" font-size="10.00" fill="#000000"> elements</text>
</g>
<!-- Node53 -->
<g id="node22" class="node">
<title>Node53</title>
<g id="a_node22"><a xlink:href="structaworx_1_1lib_1_1cli_1_1ParameterDecl.html" target="_top" xlink:title="ParameterDecl">
<polygon fill="#ffffff" stroke="#ff0000" points="341,-197.5 341,-216.5 423,-216.5 423,-197.5 341,-197.5"/>
<text text-anchor="middle" x="382" y="-204.5" font-family="Helvetica,sans-Serif" font-size="10.00" fill="#000000">ParameterDecl</text>
</a>
</g>
</g>
<!-- Node53&#45;&gt;Node61 -->
<g id="edge26" class="edge">
<title>Node53&#45;&gt;Node61</title>
<path fill="none" stroke="#9a32cd" stroke-dasharray="5,2" d="M433.5602,-207C457.1944,-207 485.5435,-207 510.9437,-207"/>
<polygon fill="#9a32cd" stroke="#9a32cd" points="433.4025,-203.5001 423.4025,-207 433.4024,-210.5001 433.4025,-203.5001"/>
<text text-anchor="middle" x="462.5" y="-210" font-family="Helvetica,sans-Serif" font-size="10.00" fill="#000000"> elements</text>
</g>
<!-- Node59&#45;&gt;Node58 -->
<g id="edge30" class="edge">
<title>Node59&#45;&gt;Node58</title>
<path fill="none" stroke="#9a32cd" stroke-dasharray="5,2" d="M430.701,-123.9727C452.1346,-124.8409 477.8445,-125.8823 501.8171,-126.8533"/>
<polygon fill="#9a32cd" stroke="#9a32cd" points="430.6823,-120.4692 420.5488,-123.5615 430.399,-127.4634 430.6823,-120.4692"/>
<text text-anchor="middle" x="462.5" y="-129" font-family="Helvetica,sans-Serif" font-size="10.00" fill="#000000"> elements</text>
</g>
</g>
</svg>
