<?xml version="1.0" encoding="UTF-8" standalone="no"?>
<!DOCTYPE svg PUBLIC "-//W3C//DTD SVG 1.1//EN"
 "http://www.w3.org/Graphics/SVG/1.1/DTD/svg11.dtd">
<!-- Generated by graphviz version 2.40.1 (20161225.0304)
 -->
<!-- Title: Interface Pages: 1 -->
<svg width="421pt" height="636pt"
 viewBox="0.00 0.00 421.00 636.00" xmlns="http://www.w3.org/2000/svg" xmlns:xlink="http://www.w3.org/1999/xlink">
<g id="graph0" class="graph" transform="scale(1 1) rotate(0) translate(4 632)">
<title>Interface</title>
<polygon fill="#ffffff" stroke="transparent" points="-4,4 -4,-632 417,-632 417,4 -4,4"/>
<!-- Node0 -->
<g id="node1" class="node">
<title>Node0</title>
<polygon fill="#bfbfbf" stroke="#000000" points="0,-219.5 0,-238.5 55,-238.5 55,-219.5 0,-219.5"/>
<text text-anchor="middle" x="27.5" y="-226.5" font-family="Helvetica,sans-Serif" font-size="10.00" fill="#000000">Interface</text>
</g>
<!-- Node18 -->
<g id="node3" class="node">
<title>Node18</title>
<g id="a_node3"><a xlink:href="classaworx_1_1lib_1_1strings_1_1boxing_1_1IApply.html" target="_top" xlink:title="IApply\&lt;TChar\&gt;">
<polygon fill="#ffffff" stroke="#000000" points="101,-513.5 101,-532.5 184,-532.5 184,-513.5 101,-513.5"/>
<text text-anchor="middle" x="142.5" y="-520.5" font-family="Helvetica,sans-Serif" font-size="10.00" fill="#000000">IApply&lt;TChar&gt;</text>
</a>
</g>
</g>
<!-- Node0&#45;&gt;Node18 -->
<g id="edge7" class="edge">
<title>Node0&#45;&gt;Node18</title>
<path fill="none" stroke="#191970" d="M35.0928,-248.4112C57.4516,-305.5719 122.5016,-471.8738 138.7757,-513.4787"/>
<polygon fill="#191970" stroke="#191970" points="38.2286,-246.8198 31.3263,-238.7819 31.7096,-249.3698 38.2286,-246.8198"/>
</g>
<!-- Node24 -->
<g id="node9" class="node">
<title>Node24</title>
<g id="a_node9"><a xlink:href="classaworx_1_1lib_1_1strings_1_1boxing_1_1IFormat.html" target="_top" xlink:title="IFormat\&lt;TChar\&gt;">
<polygon fill="#ffffff" stroke="#000000" points="98,-342.5 98,-361.5 187,-361.5 187,-342.5 98,-342.5"/>
<text text-anchor="middle" x="142.5" y="-349.5" font-family="Helvetica,sans-Serif" font-size="10.00" fill="#000000">IFormat&lt;TChar&gt;</text>
</a>
</g>
</g>
<!-- Node0&#45;&gt;Node24 -->
<g id="edge8" class="edge">
<title>Node0&#45;&gt;Node24</title>
<path fill="none" stroke="#191970" d="M34.4937,-247.9001C43.9545,-271.0237 62.94,-309.9334 91,-333 95.638,-336.8126 101.1122,-339.8994 106.7301,-342.3867"/>
<polygon fill="#191970" stroke="#191970" points="37.7197,-246.5392 30.8187,-238.5001 31.2003,-249.0881 37.7197,-246.5392"/>
</g>
<!-- Node25 -->
<g id="node10" class="node">
<title>Node25</title>
<g id="a_node10"><a xlink:href="classaworx_1_1lib_1_1strings_1_1boxing_1_1IFormat.html" target="_top" xlink:title="IFormat\&lt;character\&gt;">
<polygon fill="#ffffff" stroke="#000000" points="91,-304.5 91,-323.5 194,-323.5 194,-304.5 91,-304.5"/>
<text text-anchor="middle" x="142.5" y="-311.5" font-family="Helvetica,sans-Serif" font-size="10.00" fill="#000000">IFormat&lt;character&gt;</text>
</a>
</g>
</g>
<!-- Node0&#45;&gt;Node25 -->
<g id="edge9" class="edge">
<title>Node0&#45;&gt;Node25</title>
<path fill="none" stroke="#191970" d="M41.0993,-247.1383C52.8972,-261.7867 71.1623,-282.0293 91,-295 96.743,-298.755 103.3293,-301.9007 109.8302,-304.4829"/>
<polygon fill="#191970" stroke="#191970" points="43.5456,-244.5841 34.6329,-238.8556 38.0279,-248.8918 43.5456,-244.5841"/>
</g>
<!-- Node1 -->
<g id="node11" class="node">
<title>Node1</title>
<g id="a_node11"><a xlink:href="classaworx_1_1lib_1_1boxing_1_1IEquals.html" target="_top" xlink:title="IEquals">
<polygon fill="#ffffff" stroke="#000000" points="117.5,-266.5 117.5,-285.5 167.5,-285.5 167.5,-266.5 117.5,-266.5"/>
<text text-anchor="middle" x="142.5" y="-273.5" font-family="Helvetica,sans-Serif" font-size="10.00" fill="#000000">IEquals</text>
</a>
</g>
</g>
<!-- Node0&#45;&gt;Node1 -->
<g id="edge1" class="edge">
<title>Node0&#45;&gt;Node1</title>
<path fill="none" stroke="#191970" d="M60.1068,-242.3263C78.824,-249.9759 101.9021,-259.4078 118.8679,-266.3417"/>
<polygon fill="#191970" stroke="#191970" points="61.3529,-239.0545 50.772,-238.5112 58.7046,-245.5343 61.3529,-239.0545"/>
</g>
<!-- Node7 -->
<g id="node12" class="node">
<title>Node7</title>
<g id="a_node12"><a xlink:href="classaworx_1_1lib_1_1boxing_1_1IIsEmpty.html" target="_top" xlink:title="IIsEmpty">
<polygon fill="#ffffff" stroke="#000000" points="114.5,-219.5 114.5,-238.5 170.5,-238.5 170.5,-219.5 114.5,-219.5"/>
<text text-anchor="middle" x="142.5" y="-226.5" font-family="Helvetica,sans-Serif" font-size="10.00" fill="#000000">IIsEmpty</text>
</a>
</g>
</g>
<!-- Node0&#45;&gt;Node7 -->
<g id="edge2" class="edge">
<title>Node0&#45;&gt;Node7</title>
<path fill="none" stroke="#191970" d="M65.1777,-229C81.2034,-229 99.57,-229 114.3805,-229"/>
<polygon fill="#191970" stroke="#191970" points="65.0454,-225.5001 55.0454,-229 65.0453,-232.5001 65.0454,-225.5001"/>
</g>
<!-- Node8 -->
<g id="node13" class="node">
<title>Node8</title>
<g id="a_node13"><a xlink:href="classaworx_1_1lib_1_1boxing_1_1IIsLess.html" target="_top" xlink:title="IIsLess">
<polygon fill="#ffffff" stroke="#000000" points="118,-162.5 118,-181.5 167,-181.5 167,-162.5 118,-162.5"/>
<text text-anchor="middle" x="142.5" y="-169.5" font-family="Helvetica,sans-Serif" font-size="10.00" fill="#000000">IIsLess</text>
</a>
</g>
</g>
<!-- Node0&#45;&gt;Node8 -->
<g id="edge3" class="edge">
<title>Node0&#45;&gt;Node8</title>
<path fill="none" stroke="#191970" d="M55.8206,-214.9628C76.7729,-204.5778 104.7581,-190.7069 123.1888,-181.5716"/>
<polygon fill="#191970" stroke="#191970" points="54.1539,-211.8825 46.7484,-219.4595 57.2626,-218.1544 54.1539,-211.8825"/>
</g>
<!-- Node14 -->
<g id="node14" class="node">
<title>Node14</title>
<g id="a_node14"><a xlink:href="classaworx_1_1lib_1_1boxing_1_1IIsNull.html" target="_top" xlink:title="IIsNull">
<polygon fill="#ffffff" stroke="#000000" points="120,-124.5 120,-143.5 165,-143.5 165,-124.5 120,-124.5"/>
<text text-anchor="middle" x="142.5" y="-131.5" font-family="Helvetica,sans-Serif" font-size="10.00" fill="#000000">IIsNull</text>
</a>
</g>
</g>
<!-- Node0&#45;&gt;Node14 -->
<g id="edge4" class="edge">
<title>Node0&#45;&gt;Node14</title>
<path fill="none" stroke="#191970" d="M38.578,-210.9259C49.8651,-193.865 68.828,-168.6322 91,-153 99.6456,-146.9045 110.476,-142.5229 119.9712,-139.5148"/>
<polygon fill="#191970" stroke="#191970" points="35.5653,-209.1405 33.1255,-219.4505 41.4623,-212.9123 35.5653,-209.1405"/>
</g>
<!-- Node16 -->
<g id="node15" class="node">
<title>Node16</title>
<g id="a_node15"><a xlink:href="classaworx_1_1lib_1_1boxing_1_1IIsTrue.html" target="_top" xlink:title="IIsTrue">
<polygon fill="#ffffff" stroke="#000000" points="119,-86.5 119,-105.5 166,-105.5 166,-86.5 119,-86.5"/>
<text text-anchor="middle" x="142.5" y="-93.5" font-family="Helvetica,sans-Serif" font-size="10.00" fill="#000000">IIsTrue</text>
</a>
</g>
</g>
<!-- Node0&#45;&gt;Node16 -->
<g id="edge5" class="edge">
<title>Node0&#45;&gt;Node16</title>
<path fill="none" stroke="#191970" d="M33.5032,-209.7272C42.2677,-184.5879 60.8826,-140.7828 91,-115 98.8911,-108.2446 109.3989,-103.7973 118.8645,-100.9174"/>
<polygon fill="#191970" stroke="#191970" points="30.1704,-208.658 30.3452,-219.2514 36.8147,-210.8611 30.1704,-208.658"/>
</g>
<!-- Node17 -->
<g id="node16" class="node">
<title>Node17</title>
<g id="a_node16"><a xlink:href="structaworx_1_1lib_1_1expressions_1_1IToLiteral.html" target="_top" xlink:title="IToLiteral">
<polygon fill="#ffffff" stroke="#000000" points="114.5,-48.5 114.5,-67.5 170.5,-67.5 170.5,-48.5 114.5,-48.5"/>
<text text-anchor="middle" x="142.5" y="-55.5" font-family="Helvetica,sans-Serif" font-size="10.00" fill="#000000">IToLiteral</text>
</a>
</g>
</g>
<!-- Node0&#45;&gt;Node17 -->
<g id="edge6" class="edge">
<title>Node0&#45;&gt;Node17</title>
<path fill="none" stroke="#191970" d="M30.5274,-209.4099C36.4675,-177.4132 52.5862,-113.8228 91,-77 97.3981,-70.8668 105.9443,-66.6823 114.2333,-63.84"/>
<polygon fill="#191970" stroke="#191970" points="27.0695,-208.8668 28.831,-219.3142 33.9691,-210.0487 27.0695,-208.8668"/>
</g>
<!-- Node6 -->
<g id="node2" class="node">
<title>Node6</title>
<g id="a_node2"><a xlink:href="classaworx_1_1lib_1_1boxing_1_1IEquals__TComparable.html" target="_top" xlink:title="IEquals_TComparable\&lt;TComparable\&gt;">
<polygon fill="#ffffff" stroke="#000000" points="230.5,-380.5 230.5,-399.5 412.5,-399.5 412.5,-380.5 230.5,-380.5"/>
<text text-anchor="middle" x="321.5" y="-387.5" font-family="Helvetica,sans-Serif" font-size="10.00" fill="#000000">IEquals_TComparable&lt;TComparable&gt;</text>
</a>
</g>
</g>
<!-- Node19 -->
<g id="node4" class="node">
<title>Node19</title>
<g id="a_node4"><a xlink:href="classaworx_1_1lib_1_1strings_1_1boxing_1_1IApply__BoxedAs__TApplicable.html" target="_top" xlink:title="IApply_BoxedAs_TApplicable\&lt;TChar\&gt;">
<polygon fill="#ffffff" stroke="#000000" points="230,-608.5 230,-627.5 413,-627.5 413,-608.5 230,-608.5"/>
<text text-anchor="middle" x="321.5" y="-615.5" font-family="Helvetica,sans-Serif" font-size="10.00" fill="#000000">IApply_BoxedAs_TApplicable&lt;TChar&gt;</text>
</a>
</g>
</g>
<!-- Node18&#45;&gt;Node19 -->
<g id="edge21" class="edge">
<title>Node18&#45;&gt;Node19</title>
<path fill="none" stroke="#191970" d="M157.5447,-540.5053C173.6579,-558.0829 200.8704,-584.5693 230,-599 237.8506,-602.8892 246.4604,-605.983 255.16,-608.4439"/>
<polygon fill="#191970" stroke="#191970" points="159.8356,-537.8156 150.5665,-532.6838 154.6122,-542.4758 159.8356,-537.8156"/>
</g>
<!-- Node20 -->
<g id="node5" class="node">
<title>Node20</title>
<g id="a_node5"><a xlink:href="classaworx_1_1lib_1_1strings_1_1boxing_1_1IApply__TApplicable.html" target="_top" xlink:title="IApply_TApplicable\&lt;TChar\&gt;">
<polygon fill="#ffffff" stroke="#000000" points="252.5,-570.5 252.5,-589.5 390.5,-589.5 390.5,-570.5 252.5,-570.5"/>
<text text-anchor="middle" x="321.5" y="-577.5" font-family="Helvetica,sans-Serif" font-size="10.00" fill="#000000">IApply_TApplicable&lt;TChar&gt;</text>
</a>
</g>
</g>
<!-- Node18&#45;&gt;Node20 -->
<g id="edge22" class="edge">
<title>Node18&#45;&gt;Node20</title>
<path fill="none" stroke="#191970" d="M170.8062,-537.0561C187.6676,-544.98 209.6777,-554.5523 230,-561 241.5985,-564.6798 254.2544,-567.8343 266.3528,-570.4554"/>
<polygon fill="#191970" stroke="#191970" points="172.0565,-533.7744 161.5251,-532.6171 169.0362,-540.0893 172.0565,-533.7744"/>
</g>
<!-- Node21 -->
<g id="node6" class="node">
<title>Node21</title>
<g id="a_node6"><a xlink:href="classaworx_1_1lib_1_1strings_1_1boxing_1_1IApply__TncharArr.html" target="_top" xlink:title="Implementation of IApply for boxable types char[] and char*. ">
<polygon fill="#ffffff" stroke="#000000" points="256,-532.5 256,-551.5 387,-551.5 387,-532.5 256,-532.5"/>
<text text-anchor="middle" x="321.5" y="-539.5" font-family="Helvetica,sans-Serif" font-size="10.00" fill="#000000">IApply_TncharArr&lt;TChar&gt;</text>
</a>
</g>
</g>
<!-- Node18&#45;&gt;Node21 -->
<g id="edge23" class="edge">
<title>Node18&#45;&gt;Node21</title>
<path fill="none" stroke="#191970" d="M194.0704,-528.474C213.282,-530.5132 235.3544,-532.8561 255.6731,-535.0128"/>
<polygon fill="#191970" stroke="#191970" points="194.3297,-524.9819 184.0161,-527.4067 193.5908,-531.9428 194.3297,-524.9819"/>
</g>
<!-- Node22 -->
<g id="node7" class="node">
<title>Node22</title>
<g id="a_node7"><a xlink:href="classaworx_1_1lib_1_1strings_1_1boxing_1_1IApply__TstrangeCharArr.html" target="_top" xlink:title="Implementation of IApply for boxable types strangeChar[] and strangeChar*. ">
<polygon fill="#ffffff" stroke="#000000" points="242,-494.5 242,-513.5 401,-513.5 401,-494.5 242,-494.5"/>
<text text-anchor="middle" x="321.5" y="-501.5" font-family="Helvetica,sans-Serif" font-size="10.00" fill="#000000">IApply_TstrangeCharArr&lt;TChar&gt;</text>
</a>
</g>
</g>
<!-- Node18&#45;&gt;Node22 -->
<g id="edge24" class="edge">
<title>Node18&#45;&gt;Node22</title>
<path fill="none" stroke="#191970" d="M194.0472,-517.5285C208.9739,-515.9441 225.6292,-514.1762 241.8478,-512.4547"/>
<polygon fill="#191970" stroke="#191970" points="193.5908,-514.0572 184.0161,-518.5933 194.3297,-521.0181 193.5908,-514.0572"/>
</g>
<!-- Node23 -->
<g id="node8" class="node">
<title>Node23</title>
<g id="a_node8"><a xlink:href="classaworx_1_1lib_1_1strings_1_1boxing_1_1IApply__TwcharArr.html" target="_top" xlink:title="Implementation of IApply for boxable types wchar_t[] and wchar_t*. ">
<polygon fill="#ffffff" stroke="#000000" points="255.5,-456.5 255.5,-475.5 387.5,-475.5 387.5,-456.5 255.5,-456.5"/>
<text text-anchor="middle" x="321.5" y="-463.5" font-family="Helvetica,sans-Serif" font-size="10.00" fill="#000000">IApply_TwcharArr&lt;TChar&gt;</text>
</a>
</g>
</g>
<!-- Node18&#45;&gt;Node23 -->
<g id="edge25" class="edge">
<title>Node18&#45;&gt;Node23</title>
<path fill="none" stroke="#191970" d="M170.8062,-508.9439C187.6676,-501.02 209.6777,-491.4477 230,-485 241.5985,-481.3202 254.2544,-478.1657 266.3528,-475.5446"/>
<polygon fill="#191970" stroke="#191970" points="169.0362,-505.9107 161.5251,-513.3829 172.0565,-512.2256 169.0362,-505.9107"/>
</g>
<!-- Node26 -->
<g id="node27" class="node">
<title>Node26</title>
<g id="a_node27"><a xlink:href="classaworx_1_1lib_1_1time_1_1IFormat__DateTime.html" target="_top" xlink:title="IFormat_DateTime">
<polygon fill="#ffffff" stroke="#000000" points="272.5,-418.5 272.5,-437.5 370.5,-437.5 370.5,-418.5 272.5,-418.5"/>
<text text-anchor="middle" x="321.5" y="-425.5" font-family="Helvetica,sans-Serif" font-size="10.00" fill="#000000">IFormat_DateTime</text>
</a>
</g>
</g>
<!-- Node25&#45;&gt;Node26 -->
<g id="edge26" class="edge">
<title>Node25&#45;&gt;Node26</title>
<path fill="none" stroke="#191970" d="M188.4789,-328.6653C190.4316,-329.9905 192.286,-331.4321 194,-333 221.5773,-358.2276 200.625,-385.8905 230,-409 241.9862,-418.4296 257.5067,-423.4961 272.3499,-426.1322"/>
<polygon fill="#191970" stroke="#191970" points="189.8518,-325.422 179.4199,-323.571 186.4206,-331.5234 189.8518,-325.422"/>
</g>
<!-- Node1&#45;&gt;Node6 -->
<g id="edge14" class="edge">
<title>Node1&#45;&gt;Node6</title>
<path fill="none" stroke="#191970" d="M177.2265,-284.5846C183.3003,-287.21 189.2009,-290.6098 194,-295 221.5773,-320.2276 200.625,-347.8905 230,-371 234.8455,-374.812 240.2686,-377.9109 245.991,-380.4245"/>
<polygon fill="#191970" stroke="#191970" points="178.2665,-281.2378 167.673,-281.0653 175.8467,-287.8063 178.2665,-281.2378"/>
</g>
<!-- Node2 -->
<g id="node17" class="node">
<title>Node2</title>
<g id="a_node17"><a xlink:href="classaworx_1_1lib_1_1boxing_1_1ftypes_1_1IEquals__Tdouble.html" target="_top" xlink:title="Implements &#39;Equals&#39; &#45; interface for boxed double values. ">
<polygon fill="#ffffff" stroke="#000000" points="277,-342.5 277,-361.5 366,-361.5 366,-342.5 277,-342.5"/>
<text text-anchor="middle" x="321.5" y="-349.5" font-family="Helvetica,sans-Serif" font-size="10.00" fill="#000000">IEquals_Tdouble</text>
</a>
</g>
</g>
<!-- Node1&#45;&gt;Node2 -->
<g id="edge10" class="edge">
<title>Node1&#45;&gt;Node2</title>
<path fill="none" stroke="#191970" d="M177.3435,-286.3585C183.132,-288.7707 188.9031,-291.6393 194,-295 213.4224,-307.8064 209.68,-321.6717 230,-333 244.1709,-340.9002 261.2326,-345.5275 276.7643,-348.2335"/>
<polygon fill="#191970" stroke="#191970" points="178.293,-282.976 167.7011,-282.7233 175.8236,-289.526 178.293,-282.976"/>
</g>
<!-- Node3 -->
<g id="node18" class="node">
<title>Node3</title>
<g id="a_node18"><a xlink:href="classaworx_1_1lib_1_1boxing_1_1ftypes_1_1IEquals__TncharArr.html" target="_top" xlink:title="Implements &#39;Equals&#39; &#45; interface for boxed nchar[] values. ">
<polygon fill="#ffffff" stroke="#000000" points="272.5,-304.5 272.5,-323.5 370.5,-323.5 370.5,-304.5 272.5,-304.5"/>
<text text-anchor="middle" x="321.5" y="-311.5" font-family="Helvetica,sans-Serif" font-size="10.00" fill="#000000">IEquals_TncharArr</text>
</a>
</g>
</g>
<!-- Node1&#45;&gt;Node3 -->
<g id="edge11" class="edge">
<title>Node1&#45;&gt;Node3</title>
<path fill="none" stroke="#191970" d="M177.7351,-283.7274C193.6869,-287.2061 212.7866,-291.344 230,-295 244.6007,-298.1011 260.5243,-301.4271 274.9345,-304.4159"/>
<polygon fill="#191970" stroke="#191970" points="178.2751,-280.2629 167.7585,-281.5482 176.7812,-287.1016 178.2751,-280.2629"/>
</g>
<!-- Node4 -->
<g id="node19" class="node">
<title>Node4</title>
<g id="a_node19"><a xlink:href="classaworx_1_1lib_1_1boxing_1_1ftypes_1_1IEquals__TstrangeCharArr.html" target="_top" xlink:title="Implements &#39;Equals&#39; &#45; interface for boxed strangeChar[] values. ">
<polygon fill="#ffffff" stroke="#000000" points="258.5,-266.5 258.5,-285.5 384.5,-285.5 384.5,-266.5 258.5,-266.5"/>
<text text-anchor="middle" x="321.5" y="-273.5" font-family="Helvetica,sans-Serif" font-size="10.00" fill="#000000">IEquals_TstrangeCharArr</text>
</a>
</g>
</g>
<!-- Node1&#45;&gt;Node4 -->
<g id="edge12" class="edge">
<title>Node1&#45;&gt;Node4</title>
<path fill="none" stroke="#191970" d="M178.0235,-276C200.8918,-276 231.2648,-276 258.1758,-276"/>
<polygon fill="#191970" stroke="#191970" points="177.7667,-272.5001 167.7667,-276 177.7666,-279.5001 177.7667,-272.5001"/>
</g>
<!-- Node5 -->
<g id="node20" class="node">
<title>Node5</title>
<g id="a_node20"><a xlink:href="classaworx_1_1lib_1_1boxing_1_1ftypes_1_1IEquals__TwcharArr.html" target="_top" xlink:title="Implements &#39;Equals&#39; &#45; interface for boxed wchar[] values. ">
<polygon fill="#ffffff" stroke="#000000" points="272,-228.5 272,-247.5 371,-247.5 371,-228.5 272,-228.5"/>
<text text-anchor="middle" x="321.5" y="-235.5" font-family="Helvetica,sans-Serif" font-size="10.00" fill="#000000">IEquals_TwcharArr</text>
</a>
</g>
</g>
<!-- Node1&#45;&gt;Node5 -->
<g id="edge13" class="edge">
<title>Node1&#45;&gt;Node5</title>
<path fill="none" stroke="#191970" d="M177.7351,-268.2726C193.6869,-264.7939 212.7866,-260.656 230,-257 244.6007,-253.8989 260.5243,-250.5729 274.9345,-247.5841"/>
<polygon fill="#191970" stroke="#191970" points="176.7812,-264.8984 167.7585,-270.4518 178.2751,-271.7371 176.7812,-264.8984"/>
</g>
<!-- Node9 -->
<g id="node21" class="node">
<title>Node9</title>
<g id="a_node21"><a xlink:href="classaworx_1_1lib_1_1boxing_1_1ftypes_1_1IIsLess__boxed__int.html" target="_top" xlink:title="Implements &#39;IsLess&#39; &#45; interface for boxed boxed_int values. ">
<polygon fill="#ffffff" stroke="#000000" points="273.5,-190.5 273.5,-209.5 369.5,-209.5 369.5,-190.5 273.5,-190.5"/>
<text text-anchor="middle" x="321.5" y="-197.5" font-family="Helvetica,sans-Serif" font-size="10.00" fill="#000000">IIsLess_boxed_int</text>
</a>
</g>
</g>
<!-- Node8&#45;&gt;Node9 -->
<g id="edge15" class="edge">
<title>Node8&#45;&gt;Node9</title>
<path fill="none" stroke="#191970" d="M176.9203,-177.3842C204.313,-181.6691 242.9685,-187.7157 273.4182,-192.4788"/>
<polygon fill="#191970" stroke="#191970" points="177.4347,-173.9222 167.0139,-175.8346 176.3528,-180.8381 177.4347,-173.9222"/>
</g>
<!-- Node10 -->
<g id="node22" class="node">
<title>Node10</title>
<g id="a_node22"><a xlink:href="classaworx_1_1lib_1_1boxing_1_1ftypes_1_1IIsLess__boxed__uint.html" target="_top" xlink:title="Implements &#39;IsLess&#39; &#45; interface for boxed boxed_uint values. ">
<polygon fill="#ffffff" stroke="#000000" points="271,-152.5 271,-171.5 372,-171.5 372,-152.5 271,-152.5"/>
<text text-anchor="middle" x="321.5" y="-159.5" font-family="Helvetica,sans-Serif" font-size="10.00" fill="#000000">IIsLess_boxed_uint</text>
</a>
</g>
</g>
<!-- Node8&#45;&gt;Node10 -->
<g id="edge16" class="edge">
<title>Node8&#45;&gt;Node10</title>
<path fill="none" stroke="#191970" d="M177.0157,-170.0718C203.6432,-168.5842 240.8715,-166.5044 270.8694,-164.8285"/>
<polygon fill="#191970" stroke="#191970" points="176.803,-166.5781 167.0139,-170.6305 177.1936,-173.5672 176.803,-166.5781"/>
</g>
<!-- Node11 -->
<g id="node23" class="node">
<title>Node11</title>
<g id="a_node23"><a xlink:href="classaworx_1_1lib_1_1boxing_1_1ftypes_1_1IIsLess__double.html" target="_top" xlink:title="Implements &#39;IsLess&#39; &#45; interface for boxed double values. ">
<polygon fill="#ffffff" stroke="#000000" points="280,-114.5 280,-133.5 363,-133.5 363,-114.5 280,-114.5"/>
<text text-anchor="middle" x="321.5" y="-121.5" font-family="Helvetica,sans-Serif" font-size="10.00" fill="#000000">IIsLess_double</text>
</a>
</g>
</g>
<!-- Node8&#45;&gt;Node11 -->
<g id="edge17" class="edge">
<title>Node8&#45;&gt;Node11</title>
<path fill="none" stroke="#191970" d="M176.6704,-159.6589C192.7263,-154.1228 212.2089,-147.7783 230,-143 246.139,-138.6654 264.1033,-134.743 279.8114,-131.6029"/>
<polygon fill="#191970" stroke="#191970" points="175.4484,-156.3783 167.1619,-162.9802 177.7568,-162.9868 175.4484,-156.3783"/>
</g>
<!-- Node12 -->
<g id="node24" class="node">
<title>Node12</title>
<g id="a_node24"><a xlink:href="classaworx_1_1lib_1_1strings_1_1boxing_1_1IIsLess__Tchar__arr.html" target="_top" xlink:title="Implements &#39;IsLess&#39; &#45; interface for boxed char arrays. ">
<polygon fill="#ffffff" stroke="#000000" points="274,-76.5 274,-95.5 369,-95.5 369,-76.5 274,-76.5"/>
<text text-anchor="middle" x="321.5" y="-83.5" font-family="Helvetica,sans-Serif" font-size="10.00" fill="#000000">IIsLess_Tchar_arr</text>
</a>
</g>
</g>
<!-- Node8&#45;&gt;Node12 -->
<g id="edge18" class="edge">
<title>Node8&#45;&gt;Node12</title>
<path fill="none" stroke="#191970" d="M176.5544,-162.6022C182.6893,-160.0508 188.7844,-156.8862 194,-153 215.3834,-137.0669 207.4922,-119.3007 230,-105 243.0093,-96.7344 258.9638,-91.9869 273.886,-89.2847"/>
<polygon fill="#191970" stroke="#191970" points="175.1747,-159.3805 167.0018,-166.1225 177.5952,-165.9487 175.1747,-159.3805"/>
</g>
<!-- Node13 -->
<g id="node25" class="node">
<title>Node13</title>
<g id="a_node25"><a xlink:href="classaworx_1_1lib_1_1strings_1_1boxing_1_1IIsLess__Twchar__arr.html" target="_top" xlink:title="Implements &#39;IsLess&#39; &#45; interface for boxed wchar_t arrays. ">
<polygon fill="#ffffff" stroke="#000000" points="270.5,-38.5 270.5,-57.5 372.5,-57.5 372.5,-38.5 270.5,-38.5"/>
<text text-anchor="middle" x="321.5" y="-45.5" font-family="Helvetica,sans-Serif" font-size="10.00" fill="#000000">IIsLess_Twchar_arr</text>
</a>
</g>
</g>
<!-- Node8&#45;&gt;Node13 -->
<g id="edge19" class="edge">
<title>Node8&#45;&gt;Node13</title>
<path fill="none" stroke="#191970" d="M176.8664,-163.818C183.1114,-161.1482 189.1675,-157.6291 194,-153 223.9228,-124.337 198.0308,-93.3611 230,-67 241.2658,-57.7105 255.9194,-52.6043 270.1863,-49.8882"/>
<polygon fill="#191970" stroke="#191970" points="175.2706,-160.6725 167.0463,-167.3517 177.6408,-167.259 175.2706,-160.6725"/>
</g>
<!-- Node15 -->
<g id="node26" class="node">
<title>Node15</title>
<g id="a_node26"><a xlink:href="classaworx_1_1lib_1_1boxing_1_1IIsNull__false.html" target="_top" xlink:title="IIsNull_false">
<polygon fill="#ffffff" stroke="#000000" points="286,-.5 286,-19.5 357,-19.5 357,-.5 286,-.5"/>
<text text-anchor="middle" x="321.5" y="-7.5" font-family="Helvetica,sans-Serif" font-size="10.00" fill="#000000">IIsNull_false</text>
</a>
</g>
</g>
<!-- Node14&#45;&gt;Node15 -->
<g id="edge20" class="edge">
<title>Node14&#45;&gt;Node15</title>
<path fill="none" stroke="#191970" d="M175.1617,-126.5243C182.0016,-123.778 188.7288,-120.0493 194,-115 223.9228,-86.337 198.0308,-55.3611 230,-29 245.5218,-16.2011 267.4745,-11.3434 285.9865,-9.7367"/>
<polygon fill="#191970" stroke="#191970" points="173.5697,-123.3677 165.216,-129.8845 175.8102,-129.9995 173.5697,-123.3677"/>
</g>
</g>
</svg>
