<?xml version="1.0" encoding="UTF-8" standalone="no"?>
<!DOCTYPE svg PUBLIC "-//W3C//DTD SVG 1.1//EN"
 "http://www.w3.org/Graphics/SVG/1.1/DTD/svg11.dtd">
<!-- Generated by graphviz version 2.40.1 (20161225.0304)
 -->
<!-- Title: Directory Pages: 1 -->
<svg width="324pt" height="268pt"
 viewBox="0.00 0.00 323.50 268.00" xmlns="http://www.w3.org/2000/svg" xmlns:xlink="http://www.w3.org/1999/xlink">
<g id="graph0" class="graph" transform="scale(1 1) rotate(0) translate(4 264)">
<title>Directory</title>
<polygon fill="#ffffff" stroke="transparent" points="-4,4 -4,-264 319.5,-264 319.5,4 -4,4"/>
<!-- Node1 -->
<g id="node1" class="node">
<title>Node1</title>
<polygon fill="#bfbfbf" stroke="#000000" points="31,-.5 31,-19.5 87,-19.5 87,-.5 31,-.5"/>
<text text-anchor="middle" x="59" y="-7.5" font-family="Helvetica,sans-Serif" font-size="10.00" fill="#000000">Directory</text>
</g>
<!-- Node2 -->
<g id="node2" class="node">
<title>Node2</title>
<g id="a_node2"><a xlink:href="classaworx_1_1lib_1_1strings_1_1AStringBase.html" target="_top" xlink:title="AStringBase\&lt;TChar\&gt;">
<polygon fill="#ffffff" stroke="#000000" points="0,-126.5 0,-145.5 110,-145.5 110,-126.5 0,-126.5"/>
<text text-anchor="middle" x="55" y="-133.5" font-family="Helvetica,sans-Serif" font-size="10.00" fill="#000000">AStringBase&lt;TChar&gt;</text>
</a>
</g>
</g>
<!-- Node2&#45;&gt;Node1 -->
<g id="edge1" class="edge">
<title>Node2&#45;&gt;Node1</title>
<path fill="none" stroke="#9a32cd" stroke-dasharray="5,2" d="M53.9622,-116.0234C53.5773,-107.6742 53.1886,-97.8695 53,-89 52.7921,-79.2244 52.4875,-76.7643 53,-67 53.8762,-50.3061 56.1864,-30.9751 57.6711,-19.6577"/>
<polygon fill="#9a32cd" stroke="#9a32cd" points="50.4796,-116.4659 54.4657,-126.2822 57.4712,-116.1226 50.4796,-116.4659"/>
<text text-anchor="middle" x="101.5" y="-81" font-family="Helvetica,sans-Serif" font-size="10.00" fill="#000000"> evaluatedVarTempDir</text>
<text text-anchor="middle" x="101.5" y="-70" font-family="Helvetica,sans-Serif" font-size="10.00" fill="#000000">evaluatedTempDir</text>
</g>
<!-- Node6 -->
<g id="node5" class="node">
<title>Node6</title>
<g id="a_node5"><a xlink:href="classaworx_1_1lib_1_1strings_1_1PreallocatedStringBase.html" target="_top" xlink:title="PreallocatedStringBase\&lt;TChar\&gt;">
<polygon fill="#ffffff" stroke="#000000" points="158.5,-68.5 158.5,-87.5 315.5,-87.5 315.5,-68.5 158.5,-68.5"/>
<text text-anchor="middle" x="237" y="-75.5" font-family="Helvetica,sans-Serif" font-size="10.00" fill="#000000">PreallocatedStringBase&lt;TChar&gt;</text>
</a>
</g>
</g>
<!-- Node2&#45;&gt;Node6 -->
<g id="edge2" class="edge">
<title>Node2&#45;&gt;Node6</title>
<path fill="none" stroke="#191970" d="M94.6131,-123.376C128.3812,-112.6148 176.1932,-97.378 206.9018,-87.5917"/>
<polygon fill="#191970" stroke="#191970" points="93.5187,-120.0513 85.0536,-126.4225 95.6442,-126.7208 93.5187,-120.0513"/>
</g>
<!-- Node3 -->
<g id="node3" class="node">
<title>Node3</title>
<g id="a_node3"><a xlink:href="classaworx_1_1lib_1_1strings_1_1TStringBase.html" target="_top" xlink:title="TStringBase\&lt;TChar\&gt;">
<polygon fill="#ffffff" stroke="#000000" points=".5,-183.5 .5,-202.5 109.5,-202.5 109.5,-183.5 .5,-183.5"/>
<text text-anchor="middle" x="55" y="-190.5" font-family="Helvetica,sans-Serif" font-size="10.00" fill="#000000">TStringBase&lt;TChar&gt;</text>
</a>
</g>
</g>
<!-- Node3&#45;&gt;Node2 -->
<g id="edge3" class="edge">
<title>Node3&#45;&gt;Node2</title>
<path fill="none" stroke="#191970" d="M55,-173.2342C55,-163.8491 55,-153.0651 55,-145.5265"/>
<polygon fill="#191970" stroke="#191970" points="51.5001,-173.3307 55,-183.3307 58.5001,-173.3308 51.5001,-173.3307"/>
</g>
<!-- Node4 -->
<g id="node4" class="node">
<title>Node4</title>
<g id="a_node4"><a xlink:href="classaworx_1_1lib_1_1strings_1_1StringBase.html" target="_top" xlink:title="StringBase\&lt;TChar\&gt;">
<polygon fill="#ffffff" stroke="#ff0000" points="3.5,-240.5 3.5,-259.5 106.5,-259.5 106.5,-240.5 3.5,-240.5"/>
<text text-anchor="middle" x="55" y="-247.5" font-family="Helvetica,sans-Serif" font-size="10.00" fill="#000000">StringBase&lt;TChar&gt;</text>
</a>
</g>
</g>
<!-- Node4&#45;&gt;Node3 -->
<g id="edge4" class="edge">
<title>Node4&#45;&gt;Node3</title>
<path fill="none" stroke="#191970" d="M55,-230.2342C55,-220.8491 55,-210.0651 55,-202.5265"/>
<polygon fill="#191970" stroke="#191970" points="51.5001,-230.3307 55,-240.3307 58.5001,-230.3308 51.5001,-230.3307"/>
</g>
<!-- Node6&#45;&gt;Node1 -->
<g id="edge5" class="edge">
<title>Node6&#45;&gt;Node1</title>
<path fill="none" stroke="#9a32cd" stroke-dasharray="5,2" d="M202.1351,-64.6808C167.3637,-51.3974 114.8143,-31.3223 83.9977,-19.5497"/>
<polygon fill="#9a32cd" stroke="#9a32cd" points="201.2839,-68.1023 211.8745,-68.4015 203.782,-61.5632 201.2839,-68.1023"/>
<text text-anchor="middle" x="170" y="-41" font-family="Helvetica,sans-Serif" font-size="10.00" fill="#000000"> Path</text>
</g>
</g>
</svg>
