<?xml version="1.0" encoding="UTF-8" standalone="no"?>
<!DOCTYPE svg PUBLIC "-//W3C//DTD SVG 1.1//EN"
 "http://www.w3.org/Graphics/SVG/1.1/DTD/svg11.dtd">
<!-- Generated by graphviz version 2.40.1 (20161225.0304)
 -->
<!-- Title: AStringBase&lt;TChar&gt; Pages: 1 -->
<svg width="595pt" height="66pt"
 viewBox="0.00 0.00 595.00 66.00" xmlns="http://www.w3.org/2000/svg" xmlns:xlink="http://www.w3.org/1999/xlink">
<g id="graph0" class="graph" transform="scale(1 1) rotate(0) translate(4 62)">
<title>AStringBase&lt;TChar&gt;</title>
<polygon fill="#ffffff" stroke="transparent" points="-4,4 -4,-62 591,-62 591,4 -4,4"/>
<!-- Node0 -->
<g id="node1" class="node">
<title>Node0</title>
<polygon fill="#bfbfbf" stroke="#000000" points="284,-19.5 284,-38.5 394,-38.5 394,-19.5 284,-19.5"/>
<text text-anchor="middle" x="339" y="-26.5" font-family="Helvetica,sans-Serif" font-size="10.00" fill="#000000">AStringBase&lt;TChar&gt;</text>
</g>
<!-- Node3 -->
<g id="node4" class="node">
<title>Node3</title>
<g id="a_node4"><a xlink:href="classaworx_1_1lib_1_1strings_1_1PreallocatedStringBase.html" target="_top" xlink:title="PreallocatedStringBase\&lt;TChar\&gt;">
<polygon fill="#ffffff" stroke="#000000" points="430,-38.5 430,-57.5 587,-57.5 587,-38.5 430,-38.5"/>
<text text-anchor="middle" x="508.5" y="-45.5" font-family="Helvetica,sans-Serif" font-size="10.00" fill="#000000">PreallocatedStringBase&lt;TChar&gt;</text>
</a>
</g>
</g>
<!-- Node0&#45;&gt;Node3 -->
<g id="edge1" class="edge">
<title>Node0&#45;&gt;Node3</title>
<path fill="none" stroke="#191970" d="M404.1058,-36.298C412.4946,-37.2383 421.1552,-38.2091 429.7337,-39.1707"/>
<polygon fill="#191970" stroke="#191970" points="404.3595,-32.8046 394.0318,-35.1688 403.5796,-39.761 404.3595,-32.8046"/>
</g>
<!-- Node4 -->
<g id="node5" class="node">
<title>Node4</title>
<g id="a_node5"><a xlink:href="structaworx_1_1lib_1_1strings_1_1ResourceString.html" target="_top" xlink:title="ResourceString\&lt;character\&gt;">
<polygon fill="#ffffff" stroke="#000000" points="440,-.5 440,-19.5 577,-19.5 577,-.5 440,-.5"/>
<text text-anchor="middle" x="508.5" y="-7.5" font-family="Helvetica,sans-Serif" font-size="10.00" fill="#000000">ResourceString&lt;character&gt;</text>
</a>
</g>
</g>
<!-- Node0&#45;&gt;Node4 -->
<g id="edge2" class="edge">
<title>Node0&#45;&gt;Node4</title>
<path fill="none" stroke="#191970" d="M404.1362,-21.6986C415.8158,-20.3894 428.0211,-19.0212 439.7974,-17.7012"/>
<polygon fill="#191970" stroke="#191970" points="403.5796,-18.239 394.0318,-22.8312 404.3595,-25.1954 403.5796,-18.239"/>
</g>
<!-- Node1 -->
<g id="node2" class="node">
<title>Node1</title>
<g id="a_node2"><a xlink:href="classaworx_1_1lib_1_1strings_1_1TStringBase.html" target="_top" xlink:title="TStringBase\&lt;TChar\&gt;">
<polygon fill="#ffffff" stroke="#000000" points="139,-19.5 139,-38.5 248,-38.5 248,-19.5 139,-19.5"/>
<text text-anchor="middle" x="193.5" y="-26.5" font-family="Helvetica,sans-Serif" font-size="10.00" fill="#000000">TStringBase&lt;TChar&gt;</text>
</a>
</g>
</g>
<!-- Node1&#45;&gt;Node0 -->
<g id="edge3" class="edge">
<title>Node1&#45;&gt;Node0</title>
<path fill="none" stroke="#191970" d="M258.2965,-29C266.7461,-29 275.3406,-29 283.6166,-29"/>
<polygon fill="#191970" stroke="#191970" points="258.0928,-25.5001 248.0928,-29 258.0928,-32.5001 258.0928,-25.5001"/>
</g>
<!-- Node2 -->
<g id="node3" class="node">
<title>Node2</title>
<g id="a_node3"><a xlink:href="classaworx_1_1lib_1_1strings_1_1StringBase.html" target="_top" xlink:title="StringBase\&lt;TChar\&gt;">
<polygon fill="#ffffff" stroke="#000000" points="0,-19.5 0,-38.5 103,-38.5 103,-19.5 0,-19.5"/>
<text text-anchor="middle" x="51.5" y="-26.5" font-family="Helvetica,sans-Serif" font-size="10.00" fill="#000000">StringBase&lt;TChar&gt;</text>
</a>
</g>
</g>
<!-- Node2&#45;&gt;Node1 -->
<g id="edge4" class="edge">
<title>Node2&#45;&gt;Node1</title>
<path fill="none" stroke="#191970" d="M113.3601,-29C121.8152,-29 130.4462,-29 138.7625,-29"/>
<polygon fill="#191970" stroke="#191970" points="113.167,-25.5001 103.167,-29 113.1669,-32.5001 113.167,-25.5001"/>
</g>
</g>
</svg>
