<?xml version="1.0" encoding="UTF-8" standalone="no"?>
<!DOCTYPE svg PUBLIC "-//W3C//DTD SVG 1.1//EN"
 "http://www.w3.org/Graphics/SVG/1.1/DTD/svg11.dtd">
<!-- Generated by graphviz version 2.40.1 (20161225.0304)
 -->
<!-- Title: SimpleTextBase&lt;TChar&gt; Pages: 1 -->
<svg width="864pt" height="205pt"
 viewBox="0.00 0.00 864.00 205.00" xmlns="http://www.w3.org/2000/svg" xmlns:xlink="http://www.w3.org/1999/xlink">
<g id="graph0" class="graph" transform="scale(1 1) rotate(0) translate(4 201)">
<title>SimpleTextBase&lt;TChar&gt;</title>
<polygon fill="#ffffff" stroke="transparent" points="-4,4 -4,-201 860,-201 860,4 -4,4"/>
<!-- Node2 -->
<g id="node1" class="node">
<title>Node2</title>
<polygon fill="#ffffff" stroke="#bfbfbf" points="450,-173.5 450,-192.5 532,-192.5 532,-173.5 450,-173.5"/>
<text text-anchor="middle" x="491" y="-180.5" font-family="Helvetica,sans-Serif" font-size="10.00" fill="#000000">stack&lt;integer&gt;</text>
</g>
<!-- Node1 -->
<g id="node5" class="node">
<title>Node1</title>
<polygon fill="#bfbfbf" stroke="#000000" points="730,-94.5 730,-113.5 856,-113.5 856,-94.5 730,-94.5"/>
<text text-anchor="middle" x="793" y="-101.5" font-family="Helvetica,sans-Serif" font-size="10.00" fill="#000000">SimpleTextBase&lt;TChar&gt;</text>
</g>
<!-- Node2&#45;&gt;Node1 -->
<g id="edge1" class="edge">
<title>Node2&#45;&gt;Node1</title>
<path fill="none" stroke="#9a32cd" stroke-dasharray="5,2" d="M542.3801,-182.3333C588.1052,-180.332 656.1899,-173.8523 712,-154 738.7807,-144.4738 766.1396,-125.1776 781.2104,-113.5402"/>
<polygon fill="#9a32cd" stroke="#9a32cd" points="541.9779,-178.846 532.1182,-182.7237 542.2441,-185.8409 541.9779,-178.846"/>
<text text-anchor="middle" x="662" y="-189" font-family="Helvetica,sans-Serif" font-size="10.00" fill="#000000"> IndentSizesFirstLine</text>
<text text-anchor="middle" x="662" y="-178" font-family="Helvetica,sans-Serif" font-size="10.00" fill="#000000">IndentSizesOtherLines</text>
</g>
<!-- Node3 -->
<g id="node2" class="node">
<title>Node3</title>
<g id="a_node2"><a xlink:href="classaworx_1_1lib_1_1strings_1_1PreallocatedStringBase.html" target="_top" xlink:title="PreallocatedStringBase\&lt;TChar, TCapacity\&gt;">
<polygon fill="#ffffff" stroke="#000000" points="388,-134.5 388,-153.5 594,-153.5 594,-134.5 388,-134.5"/>
<text text-anchor="middle" x="491" y="-141.5" font-family="Helvetica,sans-Serif" font-size="10.00" fill="#000000">PreallocatedStringBase&lt;TChar, TCapacity&gt;</text>
</a>
</g>
</g>
<!-- Node3&#45;&gt;Node1 -->
<g id="edge2" class="edge">
<title>Node3&#45;&gt;Node1</title>
<path fill="none" stroke="#9a32cd" stroke-dasharray="5,2" d="M579.3977,-133.2324C619.8453,-128.1945 668.378,-121.994 712,-116 717.7743,-115.2066 723.7767,-114.3595 729.7859,-113.4963"/>
<polygon fill="#9a32cd" stroke="#9a32cd" points="578.7887,-129.7811 569.2965,-134.4874 579.6518,-136.7277 578.7887,-129.7811"/>
<text text-anchor="middle" x="662" y="-142" font-family="Helvetica,sans-Serif" font-size="10.00" fill="#000000"> IndentOtherLines</text>
<text text-anchor="middle" x="662" y="-131" font-family="Helvetica,sans-Serif" font-size="10.00" fill="#000000">IndentFirstLine</text>
</g>
<!-- Node8 -->
<g id="node3" class="node">
<title>Node8</title>
<polygon fill="#ffffff" stroke="#bfbfbf" points="450,-96.5 450,-115.5 532,-115.5 532,-96.5 450,-96.5"/>
<text text-anchor="middle" x="491" y="-103.5" font-family="Helvetica,sans-Serif" font-size="10.00" fill="#000000">vector&lt;TChar&gt;</text>
</g>
<!-- Node8&#45;&gt;Node1 -->
<g id="edge8" class="edge">
<title>Node8&#45;&gt;Node1</title>
<path fill="none" stroke="#9a32cd" stroke-dasharray="5,2" d="M542.3932,-105.5442C563.9016,-105.3615 589.1629,-105.1575 612,-105 651.1221,-104.7303 695.001,-104.4864 729.7571,-104.307"/>
<polygon fill="#9a32cd" stroke="#9a32cd" points="542.1326,-102.0462 532.163,-105.6319 542.1927,-109.0459 542.1326,-102.0462"/>
<text text-anchor="middle" x="662" y="-108" font-family="Helvetica,sans-Serif" font-size="10.00" fill="#000000"> MarkerBullets</text>
</g>
<!-- Node10 -->
<g id="node4" class="node">
<title>Node10</title>
<g id="a_node4"><a xlink:title="STL class. ">
<polygon fill="#ffffff" stroke="#bfbfbf" points="206.5,-.5 206.5,-19.5 279.5,-19.5 279.5,-.5 206.5,-.5"/>
<text text-anchor="middle" x="243" y="-7.5" font-family="Helvetica,sans-Serif" font-size="10.00" fill="#000000">vector&lt;Box&gt;</text>
</a>
</g>
</g>
<!-- Node9 -->
<g id="node9" class="node">
<title>Node9</title>
<g id="a_node9"><a xlink:href="classaworx_1_1lib_1_1boxing_1_1Boxes.html" target="_top" xlink:title="Boxes">
<polygon fill="#ffffff" stroke="#000000" points="469,-.5 469,-19.5 513,-19.5 513,-.5 469,-.5"/>
<text text-anchor="middle" x="491" y="-7.5" font-family="Helvetica,sans-Serif" font-size="10.00" fill="#000000">Boxes</text>
</a>
</g>
</g>
<!-- Node10&#45;&gt;Node9 -->
<g id="edge10" class="edge">
<title>Node10&#45;&gt;Node9</title>
<path fill="none" stroke="#191970" d="M289.839,-10C343.2986,-10 428.5129,-10 468.6742,-10"/>
<polygon fill="#191970" stroke="#191970" points="289.5933,-6.5001 279.5933,-10 289.5932,-13.5001 289.5933,-6.5001"/>
</g>
<!-- Node4 -->
<g id="node6" class="node">
<title>Node4</title>
<g id="a_node6"><a xlink:href="classaworx_1_1lib_1_1strings_1_1AStringBase.html" target="_top" xlink:title="AStringBase\&lt;TChar\&gt;">
<polygon fill="#ffffff" stroke="#000000" points="188,-147.5 188,-166.5 298,-166.5 298,-147.5 188,-147.5"/>
<text text-anchor="middle" x="243" y="-154.5" font-family="Helvetica,sans-Serif" font-size="10.00" fill="#000000">AStringBase&lt;TChar&gt;</text>
</a>
</g>
</g>
<!-- Node4&#45;&gt;Node3 -->
<g id="edge3" class="edge">
<title>Node4&#45;&gt;Node3</title>
<path fill="none" stroke="#191970" d="M308.2104,-153.5817C332.5401,-152.3064 360.7987,-150.8251 387.7168,-149.414"/>
<polygon fill="#191970" stroke="#191970" points="307.8423,-150.0961 298.0392,-154.1149 308.2088,-157.0865 307.8423,-150.0961"/>
</g>
<!-- Node5 -->
<g id="node7" class="node">
<title>Node5</title>
<g id="a_node7"><a xlink:href="classaworx_1_1lib_1_1strings_1_1TStringBase.html" target="_top" xlink:title="TStringBase\&lt;TChar\&gt;">
<polygon fill="#ffffff" stroke="#ff0000" points="0,-147.5 0,-166.5 109,-166.5 109,-147.5 0,-147.5"/>
<text text-anchor="middle" x="54.5" y="-154.5" font-family="Helvetica,sans-Serif" font-size="10.00" fill="#000000">TStringBase&lt;TChar&gt;</text>
</a>
</g>
</g>
<!-- Node5&#45;&gt;Node4 -->
<g id="edge4" class="edge">
<title>Node5&#45;&gt;Node4</title>
<path fill="none" stroke="#191970" d="M119.1164,-157C141.5125,-157 166.3939,-157 187.9475,-157"/>
<polygon fill="#191970" stroke="#191970" points="119.022,-153.5001 109.022,-157 119.022,-160.5001 119.022,-153.5001"/>
</g>
<!-- Node7 -->
<g id="node8" class="node">
<title>Node7</title>
<polygon fill="#ffffff" stroke="#bfbfbf" points="221.5,-87.5 221.5,-106.5 264.5,-106.5 264.5,-87.5 221.5,-87.5"/>
<text text-anchor="middle" x="243" y="-94.5" font-family="Helvetica,sans-Serif" font-size="10.00" fill="#000000">TChar</text>
</g>
<!-- Node7&#45;&gt;Node3 -->
<g id="edge6" class="edge">
<title>Node7&#45;&gt;Node3</title>
<path fill="none" stroke="#9a32cd" stroke-dasharray="5,2" d="M274.6835,-103.197C304.0492,-108.922 348.9577,-117.6295 388,-125 404.5279,-128.1202 422.5593,-131.4661 438.8498,-134.4673"/>
<polygon fill="#9a32cd" stroke="#9a32cd" points="275.0927,-99.7109 264.6074,-101.2308 273.7519,-106.5814 275.0927,-99.7109"/>
<text text-anchor="middle" x="343" y="-124" font-family="Helvetica,sans-Serif" font-size="10.00" fill="#000000"> preAllocBuf</text>
</g>
<!-- Node7&#45;&gt;Node8 -->
<g id="edge7" class="edge">
<title>Node7&#45;&gt;Node8</title>
<path fill="none" stroke="#9a32cd" stroke-dasharray="5,2" d="M274.8491,-96.7383C300.5422,-96.6507 337.6097,-96.8027 370,-98 396.6136,-98.9837 426.4707,-100.9487 449.8674,-102.6849"/>
<polygon fill="#9a32cd" stroke="#9a32cd" points="274.5637,-93.2396 264.5809,-96.7882 274.5978,-100.2395 274.5637,-93.2396"/>
<text text-anchor="middle" x="343" y="-101" font-family="Helvetica,sans-Serif" font-size="10.00" fill="#000000"> elements</text>
</g>
<!-- Node7&#45;&gt;Node1 -->
<g id="edge5" class="edge">
<title>Node7&#45;&gt;Node1</title>
<path fill="none" stroke="#9a32cd" stroke-dasharray="5,2" d="M274.8735,-87.8693C304.033,-80.02 348.5137,-69.3053 388,-65 479.0161,-55.0762 502.8727,-56.1546 594,-65 651.1171,-70.5442 716.1759,-84.8392 755.9072,-94.4938"/>
<polygon fill="#9a32cd" stroke="#9a32cd" points="273.58,-84.5947 264.8613,-90.6143 275.4309,-91.3456 273.58,-84.5947"/>
<text text-anchor="middle" x="491" y="-79" font-family="Helvetica,sans-Serif" font-size="10.00" fill="#000000"> JustifyChar</text>
<text text-anchor="middle" x="491" y="-68" font-family="Helvetica,sans-Serif" font-size="10.00" fill="#000000">MarkerChar</text>
</g>
<!-- Node9&#45;&gt;Node1 -->
<g id="edge9" class="edge">
<title>Node9&#45;&gt;Node1</title>
<path fill="none" stroke="#9a32cd" stroke-dasharray="5,2" d="M523.3722,-6.9189C567.8888,-4.0192 649.5796,-3.564 712,-31 744.5815,-45.3207 772.9928,-77.9773 785.7874,-94.3156"/>
<polygon fill="#9a32cd" stroke="#9a32cd" points="522.8664,-3.4466 513.1505,-7.6718 523.3807,-10.4277 522.8664,-3.4466"/>
<text text-anchor="middle" x="662" y="-34" font-family="Helvetica,sans-Serif" font-size="10.00" fill="#000000"> boxes</text>
</g>
<!-- Node11 -->
<g id="node10" class="node">
<title>Node11</title>
<polygon fill="#ffffff" stroke="#bfbfbf" points="40,-.5 40,-19.5 69,-19.5 69,-.5 40,-.5"/>
<text text-anchor="middle" x="54.5" y="-7.5" font-family="Helvetica,sans-Serif" font-size="10.00" fill="#000000">T</text>
</g>
<!-- Node11&#45;&gt;Node10 -->
<g id="edge11" class="edge">
<title>Node11&#45;&gt;Node10</title>
<path fill="none" stroke="#9a32cd" stroke-dasharray="5,2" d="M79.7006,-10C112.1918,-10 168.9397,-10 206.2428,-10"/>
<polygon fill="#9a32cd" stroke="#9a32cd" points="79.2913,-6.5001 69.2913,-10 79.2912,-13.5001 79.2913,-6.5001"/>
<text text-anchor="middle" x="148.5" y="-13" font-family="Helvetica,sans-Serif" font-size="10.00" fill="#000000"> elements</text>
</g>
</g>
</svg>
