<?xml version="1.0" encoding="UTF-8" standalone="no"?>
<!DOCTYPE svg PUBLIC "-//W3C//DTD SVG 1.1//EN"
 "http://www.w3.org/Graphics/SVG/1.1/DTD/svg11.dtd">
<!-- Generated by graphviz version 2.40.1 (20161225.0304)
 -->
<!-- Title: SmartLock Pages: 1 -->
<svg width="318pt" height="252pt"
 viewBox="0.00 0.00 318.00 252.00" xmlns="http://www.w3.org/2000/svg" xmlns:xlink="http://www.w3.org/1999/xlink">
<g id="graph0" class="graph" transform="scale(1 1) rotate(0) translate(4 248)">
<title>SmartLock</title>
<polygon fill="#ffffff" stroke="transparent" points="-4,4 -4,-248 314,-248 314,4 -4,4"/>
<!-- Node0 -->
<g id="node1" class="node">
<title>Node0</title>
<polygon fill="#bfbfbf" stroke="#000000" points="105,-168.5 105,-187.5 169,-187.5 169,-168.5 105,-168.5"/>
<text text-anchor="middle" x="137" y="-175.5" font-family="Helvetica,sans-Serif" font-size="10.00" fill="#000000">SmartLock</text>
</g>
<!-- Node2 -->
<g id="node2" class="node">
<title>Node2</title>
<g id="a_node2"><a xlink:href="classaworx_1_1lib_1_1lox_1_1core_1_1Logger.html" target="_top" xlink:title="Logger">
<polygon fill="#ffffff" stroke="#000000" points="114,-112.5 114,-131.5 160,-131.5 160,-112.5 114,-112.5"/>
<text text-anchor="middle" x="137" y="-119.5" font-family="Helvetica,sans-Serif" font-size="10.00" fill="#000000">Logger</text>
</a>
</g>
</g>
<!-- Node0&#45;&gt;Node2 -->
<g id="edge1" class="edge">
<title>Node0&#45;&gt;Node2</title>
<path fill="none" stroke="#191970" d="M137,-158.1575C137,-149.155 137,-138.9199 137,-131.6427"/>
<polygon fill="#191970" stroke="#191970" points="133.5001,-158.2455 137,-168.2455 140.5001,-158.2456 133.5001,-158.2455"/>
</g>
<!-- Node3 -->
<g id="node4" class="node">
<title>Node3</title>
<g id="a_node4"><a xlink:href="classaworx_1_1lib_1_1lox_1_1core_1_1textlogger_1_1TextLogger.html" target="_top" xlink:title="TextLogger">
<polygon fill="#ffffff" stroke="#000000" points="104.5,-56.5 104.5,-75.5 169.5,-75.5 169.5,-56.5 104.5,-56.5"/>
<text text-anchor="middle" x="137" y="-63.5" font-family="Helvetica,sans-Serif" font-size="10.00" fill="#000000">TextLogger</text>
</a>
</g>
</g>
<!-- Node2&#45;&gt;Node3 -->
<g id="edge3" class="edge">
<title>Node2&#45;&gt;Node3</title>
<path fill="none" stroke="#191970" d="M137,-102.1575C137,-93.155 137,-82.9199 137,-75.6427"/>
<polygon fill="#191970" stroke="#191970" points="133.5001,-102.2455 137,-112.2455 140.5001,-102.2456 133.5001,-102.2455"/>
</g>
<!-- Node1 -->
<g id="node3" class="node">
<title>Node1</title>
<g id="a_node3"><a xlink:href="classaworx_1_1lib_1_1threads_1_1ThreadLock.html" target="_top" xlink:title="ThreadLock">
<polygon fill="#ffffff" stroke="#000000" points="103,-224.5 103,-243.5 171,-243.5 171,-224.5 103,-224.5"/>
<text text-anchor="middle" x="137" y="-231.5" font-family="Helvetica,sans-Serif" font-size="10.00" fill="#000000">ThreadLock</text>
</a>
</g>
</g>
<!-- Node1&#45;&gt;Node0 -->
<g id="edge2" class="edge">
<title>Node1&#45;&gt;Node0</title>
<path fill="none" stroke="#191970" d="M137,-214.1575C137,-205.155 137,-194.9199 137,-187.6427"/>
<polygon fill="#191970" stroke="#191970" points="133.5001,-214.2455 137,-224.2455 140.5001,-214.2456 133.5001,-214.2455"/>
</g>
<!-- Node4 -->
<g id="node5" class="node">
<title>Node4</title>
<g id="a_node5"><a xlink:href="classaworx_1_1lib_1_1lox_1_1core_1_1textlogger_1_1PlainTextLogger.html" target="_top" xlink:title="PlainTextLogger">
<polygon fill="#ffffff" stroke="#ff0000" points="0,-.5 0,-19.5 86,-19.5 86,-.5 0,-.5"/>
<text text-anchor="middle" x="43" y="-7.5" font-family="Helvetica,sans-Serif" font-size="10.00" fill="#000000">PlainTextLogger</text>
</a>
</g>
</g>
<!-- Node3&#45;&gt;Node4 -->
<g id="edge4" class="edge">
<title>Node3&#45;&gt;Node4</title>
<path fill="none" stroke="#191970" d="M111.8995,-51.0465C95.174,-41.0824 73.6832,-28.2794 59.1859,-19.6427"/>
<polygon fill="#191970" stroke="#191970" points="110.2441,-54.1343 120.6264,-56.2455 113.8268,-48.1206 110.2441,-54.1343"/>
</g>
<!-- Node9 -->
<g id="node6" class="node">
<title>Node9</title>
<g id="a_node6"><a xlink:href="classaworx_1_1lib_1_1lox_1_1loggers_1_1AnsiLogger.html" target="_top" xlink:title="AnsiLogger">
<polygon fill="#ffffff" stroke="#ff0000" points="104.5,-.5 104.5,-19.5 169.5,-19.5 169.5,-.5 104.5,-.5"/>
<text text-anchor="middle" x="137" y="-7.5" font-family="Helvetica,sans-Serif" font-size="10.00" fill="#000000">AnsiLogger</text>
</a>
</g>
</g>
<!-- Node3&#45;&gt;Node9 -->
<g id="edge5" class="edge">
<title>Node3&#45;&gt;Node9</title>
<path fill="none" stroke="#191970" d="M137,-46.1575C137,-37.155 137,-26.9199 137,-19.6427"/>
<polygon fill="#191970" stroke="#191970" points="133.5001,-46.2455 137,-56.2455 140.5001,-46.2456 133.5001,-46.2455"/>
</g>
<!-- Node11 -->
<g id="node7" class="node">
<title>Node11</title>
<g id="a_node7"><a xlink:href="classaworx_1_1lib_1_1lox_1_1loggers_1_1WindowsConsoleLogger.html" target="_top" xlink:title="WindowsConsoleLogger">
<polygon fill="#ffffff" stroke="#000000" points="188,-.5 188,-19.5 310,-19.5 310,-.5 188,-.5"/>
<text text-anchor="middle" x="249" y="-7.5" font-family="Helvetica,sans-Serif" font-size="10.00" fill="#000000">WindowsConsoleLogger</text>
</a>
</g>
</g>
<!-- Node3&#45;&gt;Node11 -->
<g id="edge6" class="edge">
<title>Node3&#45;&gt;Node11</title>
<path fill="none" stroke="#191970" d="M165.3263,-51.8368C185.5721,-41.7139 212.2642,-28.3679 229.9978,-19.5011"/>
<polygon fill="#191970" stroke="#191970" points="163.6325,-48.7706 156.2535,-56.3733 166.763,-55.0316 163.6325,-48.7706"/>
</g>
</g>
</svg>
