<?xml version="1.0" encoding="UTF-8" standalone="no"?>
<!DOCTYPE svg PUBLIC "-//W3C//DTD SVG 1.1//EN"
 "http://www.w3.org/Graphics/SVG/1.1/DTD/svg11.dtd">
<!-- Generated by graphviz version 2.40.1 (20161225.0304)
 -->
<!-- Title: ESC Pages: 1 -->
<svg width="137pt" height="319pt"
 viewBox="0.00 0.00 137.00 319.00" xmlns="http://www.w3.org/2000/svg" xmlns:xlink="http://www.w3.org/1999/xlink">
<g id="graph0" class="graph" transform="scale(1 1) rotate(0) translate(4 315)">
<title>ESC</title>
<polygon fill="#ffffff" stroke="transparent" points="-4,4 -4,-315 133,-315 133,4 -4,4"/>
<!-- Node1 -->
<g id="node1" class="node">
<title>Node1</title>
<polygon fill="#bfbfbf" stroke="#000000" points="45.5,-.5 45.5,-19.5 83.5,-19.5 83.5,-.5 45.5,-.5"/>
<text text-anchor="middle" x="64.5" y="-7.5" font-family="Helvetica,sans-Serif" font-size="10.00" fill="#000000">ESC</text>
</g>
<!-- Node4 -->
<g id="node2" class="node">
<title>Node4</title>
<g id="a_node2"><a xlink:href="classaworx_1_1lib_1_1strings_1_1StringBase.html" target="_top" xlink:title="StringBase\&lt;TChar\&gt;">
<polygon fill="#ffffff" stroke="#ff0000" points="13,-291.5 13,-310.5 116,-310.5 116,-291.5 13,-291.5"/>
<text text-anchor="middle" x="64.5" y="-298.5" font-family="Helvetica,sans-Serif" font-size="10.00" fill="#000000">StringBase&lt;TChar&gt;</text>
</a>
</g>
</g>
<!-- Node3 -->
<g id="node4" class="node">
<title>Node3</title>
<g id="a_node4"><a xlink:href="classaworx_1_1lib_1_1strings_1_1TStringBase.html" target="_top" xlink:title="TStringBase\&lt;TChar\&gt;">
<polygon fill="#ffffff" stroke="#000000" points="10,-234.5 10,-253.5 119,-253.5 119,-234.5 10,-234.5"/>
<text text-anchor="middle" x="64.5" y="-241.5" font-family="Helvetica,sans-Serif" font-size="10.00" fill="#000000">TStringBase&lt;TChar&gt;</text>
</a>
</g>
</g>
<!-- Node4&#45;&gt;Node3 -->
<g id="edge3" class="edge">
<title>Node4&#45;&gt;Node3</title>
<path fill="none" stroke="#191970" d="M64.5,-281.2342C64.5,-271.8491 64.5,-261.0651 64.5,-253.5265"/>
<polygon fill="#191970" stroke="#191970" points="61.0001,-281.3307 64.5,-291.3307 68.0001,-281.3308 61.0001,-281.3307"/>
</g>
<!-- Node2 -->
<g id="node3" class="node">
<title>Node2</title>
<g id="a_node3"><a xlink:href="classaworx_1_1lib_1_1strings_1_1StringLiteralBase.html" target="_top" xlink:title="StringLiteralBase\&lt;TChar\&gt;">
<polygon fill="#ffffff" stroke="#000000" points="0,-177.5 0,-196.5 129,-196.5 129,-177.5 0,-177.5"/>
<text text-anchor="middle" x="64.5" y="-184.5" font-family="Helvetica,sans-Serif" font-size="10.00" fill="#000000">StringLiteralBase&lt;TChar&gt;</text>
</a>
</g>
</g>
<!-- Node2&#45;&gt;Node1 -->
<g id="edge1" class="edge">
<title>Node2&#45;&gt;Node1</title>
<path fill="none" stroke="#9a32cd" stroke-dasharray="5,2" d="M64.5,-167.2171C64.5,-129.2545 64.5,-47.4758 64.5,-19.5633"/>
<polygon fill="#9a32cd" stroke="#9a32cd" points="61.0001,-167.4837 64.5,-177.4837 68.0001,-167.4837 61.0001,-167.4837"/>
<text text-anchor="middle" x="95" y="-151" font-family="Helvetica,sans-Serif" font-size="10.00" fill="#000000"> EOMETA</text>
<text text-anchor="middle" x="95" y="-140" font-family="Helvetica,sans-Serif" font-size="10.00" fill="#000000">TAB</text>
<text text-anchor="middle" x="95" y="-129" font-family="Helvetica,sans-Serif" font-size="10.00" fill="#000000">BG_RESET</text>
<text text-anchor="middle" x="95" y="-118" font-family="Helvetica,sans-Serif" font-size="10.00" fill="#000000">BG_YELLOW</text>
<text text-anchor="middle" x="95" y="-107" font-family="Helvetica,sans-Serif" font-size="10.00" fill="#000000">GRAY</text>
<text text-anchor="middle" x="95" y="-96" font-family="Helvetica,sans-Serif" font-size="10.00" fill="#000000">CYAN</text>
<text text-anchor="middle" x="95" y="-85" font-family="Helvetica,sans-Serif" font-size="10.00" fill="#000000">BOLD</text>
<text text-anchor="middle" x="95" y="-74" font-family="Helvetica,sans-Serif" font-size="10.00" fill="#000000">WHITE</text>
<text text-anchor="middle" x="95" y="-63" font-family="Helvetica,sans-Serif" font-size="10.00" fill="#000000">MAGENTA</text>
<text text-anchor="middle" x="95" y="-52" font-family="Helvetica,sans-Serif" font-size="10.00" fill="#000000">YELLOW</text>
<text text-anchor="middle" x="95" y="-41" font-family="Helvetica,sans-Serif" font-size="10.00" fill="#000000">...</text>
</g>
<!-- Node3&#45;&gt;Node2 -->
<g id="edge2" class="edge">
<title>Node3&#45;&gt;Node2</title>
<path fill="none" stroke="#191970" d="M64.5,-224.2342C64.5,-214.8491 64.5,-204.0651 64.5,-196.5265"/>
<polygon fill="#191970" stroke="#191970" points="61.0001,-224.3307 64.5,-234.3307 68.0001,-224.3308 61.0001,-224.3307"/>
</g>
</g>
</svg>
