<?xml version="1.0" encoding="UTF-8" standalone="no"?>
<!DOCTYPE svg PUBLIC "-//W3C//DTD SVG 1.1//EN"
 "http://www.w3.org/Graphics/SVG/1.1/DTD/svg11.dtd">
<!-- Generated by graphviz version 2.40.1 (20161225.0304)
 -->
<!-- Title: StringLiteralBase&lt;TChar, TLength&gt; Pages: 1 -->
<svg width="178pt" height="220pt"
 viewBox="0.00 0.00 178.00 220.00" xmlns="http://www.w3.org/2000/svg" xmlns:xlink="http://www.w3.org/1999/xlink">
<g id="graph0" class="graph" transform="scale(1 1) rotate(0) translate(4 216)">
<title>StringLiteralBase&lt;TChar, TLength&gt;</title>
<polygon fill="#ffffff" stroke="transparent" points="-4,4 -4,-216 174,-216 174,4 -4,4"/>
<!-- Node3 -->
<g id="node1" class="node">
<title>Node3</title>
<polygon fill="#bfbfbf" stroke="#000000" points="0,-.5 0,-19.5 170,-19.5 170,-.5 0,-.5"/>
<text text-anchor="middle" x="85" y="-7.5" font-family="Helvetica,sans-Serif" font-size="10.00" fill="#000000">StringLiteralBase&lt;TChar, TLength&gt;</text>
</g>
<!-- Node4 -->
<g id="node2" class="node">
<title>Node4</title>
<g id="a_node2"><a xlink:href="classaworx_1_1lib_1_1strings_1_1TStringBase.html" target="_top" xlink:title="TStringBase\&lt;TChar\&gt;">
<polygon fill="#ffffff" stroke="#000000" points="30.5,-57.5 30.5,-76.5 139.5,-76.5 139.5,-57.5 30.5,-57.5"/>
<text text-anchor="middle" x="85" y="-64.5" font-family="Helvetica,sans-Serif" font-size="10.00" fill="#000000">TStringBase&lt;TChar&gt;</text>
</a>
</g>
</g>
<!-- Node4&#45;&gt;Node3 -->
<g id="edge1" class="edge">
<title>Node4&#45;&gt;Node3</title>
<path fill="none" stroke="#191970" d="M85,-47.2342C85,-37.8491 85,-27.0651 85,-19.5265"/>
<polygon fill="#191970" stroke="#191970" points="81.5001,-47.3307 85,-57.3307 88.5001,-47.3308 81.5001,-47.3307"/>
</g>
<!-- Node5 -->
<g id="node3" class="node">
<title>Node5</title>
<g id="a_node3"><a xlink:href="classaworx_1_1lib_1_1strings_1_1StringBase.html" target="_top" xlink:title="StringBase\&lt;TChar\&gt;">
<polygon fill="#ffffff" stroke="#000000" points="33.5,-114.5 33.5,-133.5 136.5,-133.5 136.5,-114.5 33.5,-114.5"/>
<text text-anchor="middle" x="85" y="-121.5" font-family="Helvetica,sans-Serif" font-size="10.00" fill="#000000">StringBase&lt;TChar&gt;</text>
</a>
</g>
</g>
<!-- Node5&#45;&gt;Node4 -->
<g id="edge2" class="edge">
<title>Node5&#45;&gt;Node4</title>
<path fill="none" stroke="#191970" d="M85,-104.2342C85,-94.8491 85,-84.0651 85,-76.5265"/>
<polygon fill="#191970" stroke="#191970" points="81.5001,-104.3307 85,-114.3307 88.5001,-104.3308 81.5001,-104.3307"/>
</g>
<!-- Node6 -->
<g id="node4" class="node">
<title>Node6</title>
<polygon fill="#ffffff" stroke="#bfbfbf" points="63.5,-192.5 63.5,-211.5 106.5,-211.5 106.5,-192.5 63.5,-192.5"/>
<text text-anchor="middle" x="85" y="-199.5" font-family="Helvetica,sans-Serif" font-size="10.00" fill="#000000">TChar</text>
</g>
<!-- Node6&#45;&gt;Node5 -->
<g id="edge3" class="edge">
<title>Node6&#45;&gt;Node5</title>
<path fill="none" stroke="#9a32cd" stroke-dasharray="5,2" d="M85,-182.2866C85,-166.7395 85,-145.7276 85,-133.6426"/>
<polygon fill="#9a32cd" stroke="#9a32cd" points="81.5001,-182.4356 85,-192.4357 88.5001,-182.4357 81.5001,-182.4356"/>
<text text-anchor="middle" x="101.5" y="-166" font-family="Helvetica,sans-Serif" font-size="10.00" fill="#000000"> vbuffer</text>
<text text-anchor="middle" x="101.5" y="-155" font-family="Helvetica,sans-Serif" font-size="10.00" fill="#000000">buffer</text>
</g>
</g>
</svg>
