<?xml version="1.0" encoding="UTF-8" standalone="no"?>
<!DOCTYPE svg PUBLIC "-//W3C//DTD SVG 1.1//EN"
 "http://www.w3.org/Graphics/SVG/1.1/DTD/svg11.dtd">
<!-- Generated by graphviz version 2.40.1 (20161225.0304)
 -->
<!-- Title: TStringBase&lt;TChar&gt; Pages: 1 -->
<svg width="614pt" height="85pt"
 viewBox="0.00 0.00 614.00 85.00" xmlns="http://www.w3.org/2000/svg" xmlns:xlink="http://www.w3.org/1999/xlink">
<g id="graph0" class="graph" transform="scale(1 1) rotate(0) translate(4 81)">
<title>TStringBase&lt;TChar&gt;</title>
<polygon fill="#ffffff" stroke="transparent" points="-4,4 -4,-81 610,-81 610,4 -4,4"/>
<!-- Node0 -->
<g id="node1" class="node">
<title>Node0</title>
<polygon fill="#bfbfbf" stroke="#000000" points="139,-19.5 139,-38.5 248,-38.5 248,-19.5 139,-19.5"/>
<text text-anchor="middle" x="193.5" y="-26.5" font-family="Helvetica,sans-Serif" font-size="10.00" fill="#000000">TStringBase&lt;TChar&gt;</text>
</g>
<!-- Node2 -->
<g id="node3" class="node">
<title>Node2</title>
<g id="a_node3"><a xlink:href="classaworx_1_1lib_1_1strings_1_1AStringBase.html" target="_top" xlink:title="AStringBase\&lt;TChar\&gt;">
<polygon fill="#ffffff" stroke="#000000" points="293.5,-38.5 293.5,-57.5 403.5,-57.5 403.5,-38.5 293.5,-38.5"/>
<text text-anchor="middle" x="348.5" y="-45.5" font-family="Helvetica,sans-Serif" font-size="10.00" fill="#000000">AStringBase&lt;TChar&gt;</text>
</a>
</g>
</g>
<!-- Node0&#45;&gt;Node2 -->
<g id="edge1" class="edge">
<title>Node0&#45;&gt;Node2</title>
<path fill="none" stroke="#191970" d="M258.2563,-36.9379C269.9067,-38.366 281.9522,-39.8425 293.3003,-41.2336"/>
<polygon fill="#191970" stroke="#191970" points="258.4988,-33.4415 248.1472,-35.6987 257.647,-40.3895 258.4988,-33.4415"/>
</g>
<!-- Node9 -->
<g id="node6" class="node">
<title>Node9</title>
<g id="a_node6"><a xlink:href="classaworx_1_1lib_1_1strings_1_1StringLiteralBase.html" target="_top" xlink:title="StringLiteralBase\&lt;TChar\&gt;">
<polygon fill="#ffffff" stroke="#000000" points="284,-.5 284,-19.5 413,-19.5 413,-.5 284,-.5"/>
<text text-anchor="middle" x="348.5" y="-7.5" font-family="Helvetica,sans-Serif" font-size="10.00" fill="#000000">StringLiteralBase&lt;TChar&gt;</text>
</a>
</g>
</g>
<!-- Node0&#45;&gt;Node9 -->
<g id="edge2" class="edge">
<title>Node0&#45;&gt;Node9</title>
<path fill="none" stroke="#191970" d="M258.0798,-21.0838C266.6479,-20.0335 275.4329,-18.9566 283.9997,-17.9065"/>
<polygon fill="#191970" stroke="#191970" points="257.647,-17.6105 248.1472,-22.3013 258.4988,-24.5585 257.647,-17.6105"/>
</g>
<!-- Node1 -->
<g id="node2" class="node">
<title>Node1</title>
<g id="a_node2"><a xlink:href="classaworx_1_1lib_1_1strings_1_1StringBase.html" target="_top" xlink:title="StringBase\&lt;TChar\&gt;">
<polygon fill="#ffffff" stroke="#000000" points="0,-19.5 0,-38.5 103,-38.5 103,-19.5 0,-19.5"/>
<text text-anchor="middle" x="51.5" y="-26.5" font-family="Helvetica,sans-Serif" font-size="10.00" fill="#000000">StringBase&lt;TChar&gt;</text>
</a>
</g>
</g>
<!-- Node1&#45;&gt;Node0 -->
<g id="edge3" class="edge">
<title>Node1&#45;&gt;Node0</title>
<path fill="none" stroke="#191970" d="M113.3601,-29C121.8152,-29 130.4462,-29 138.7625,-29"/>
<polygon fill="#191970" stroke="#191970" points="113.167,-25.5001 103.167,-29 113.1669,-32.5001 113.167,-25.5001"/>
</g>
<!-- Node3 -->
<g id="node4" class="node">
<title>Node3</title>
<g id="a_node4"><a xlink:href="classaworx_1_1lib_1_1strings_1_1PreallocatedStringBase.html" target="_top" xlink:title="PreallocatedStringBase\&lt;TChar\&gt;">
<polygon fill="#ffffff" stroke="#000000" points="449,-57.5 449,-76.5 606,-76.5 606,-57.5 449,-57.5"/>
<text text-anchor="middle" x="527.5" y="-64.5" font-family="Helvetica,sans-Serif" font-size="10.00" fill="#000000">PreallocatedStringBase&lt;TChar&gt;</text>
</a>
</g>
</g>
<!-- Node2&#45;&gt;Node3 -->
<g id="edge4" class="edge">
<title>Node2&#45;&gt;Node3</title>
<path fill="none" stroke="#191970" d="M413.9094,-54.9429C425.259,-56.1476 437.167,-57.4116 448.8262,-58.6492"/>
<polygon fill="#191970" stroke="#191970" points="413.9801,-51.4308 403.6665,-53.8557 413.2412,-58.3917 413.9801,-51.4308"/>
</g>
<!-- Node4 -->
<g id="node5" class="node">
<title>Node4</title>
<g id="a_node5"><a xlink:href="structaworx_1_1lib_1_1strings_1_1ResourceString.html" target="_top" xlink:title="ResourceString\&lt;character\&gt;">
<polygon fill="#ffffff" stroke="#000000" points="459,-19.5 459,-38.5 596,-38.5 596,-19.5 459,-19.5"/>
<text text-anchor="middle" x="527.5" y="-26.5" font-family="Helvetica,sans-Serif" font-size="10.00" fill="#000000">ResourceString&lt;character&gt;</text>
</a>
</g>
</g>
<!-- Node2&#45;&gt;Node4 -->
<g id="edge5" class="edge">
<title>Node2&#45;&gt;Node4</title>
<path fill="none" stroke="#191970" d="M413.6845,-41.081C428.4055,-39.5184 444.0762,-37.855 458.9317,-36.2782"/>
<polygon fill="#191970" stroke="#191970" points="413.2412,-37.6083 403.6665,-42.1443 413.9801,-44.5692 413.2412,-37.6083"/>
</g>
</g>
</svg>
