<?xml version="1.0" encoding="UTF-8" standalone="no"?>
<!DOCTYPE svg PUBLIC "-//W3C//DTD SVG 1.1//EN"
 "http://www.w3.org/Graphics/SVG/1.1/DTD/svg11.dtd">
<!-- Generated by graphviz version 2.40.1 (20161225.0304)
 -->
<!-- Title: Logger Pages: 1 -->
<svg width="1100pt" height="189pt"
 viewBox="0.00 0.00 1100.00 189.00" xmlns="http://www.w3.org/2000/svg" xmlns:xlink="http://www.w3.org/1999/xlink">
<g id="graph0" class="graph" transform="scale(1 1) rotate(0) translate(4 185)">
<title>Logger</title>
<polygon fill="#ffffff" stroke="transparent" points="-4,4 -4,-185 1096,-185 1096,4 -4,4"/>
<!-- Node12 -->
<g id="node1" class="node">
<title>Node12</title>
<polygon fill="#bfbfbf" stroke="#000000" points="1046,-76.5 1046,-95.5 1092,-95.5 1092,-76.5 1046,-76.5"/>
<text text-anchor="middle" x="1069" y="-83.5" font-family="Helvetica,sans-Serif" font-size="10.00" fill="#000000">Logger</text>
</g>
<!-- Node26 -->
<g id="node2" class="node">
<title>Node26</title>
<polygon fill="#ffffff" stroke="#bfbfbf" points="538.5,-38.5 538.5,-57.5 651.5,-57.5 651.5,-38.5 538.5,-38.5"/>
<text text-anchor="middle" x="595" y="-45.5" font-family="Helvetica,sans-Serif" font-size="10.00" fill="#000000">vector&lt;ThreadLock *&gt;</text>
</g>
<!-- Node13 -->
<g id="node8" class="node">
<title>Node13</title>
<g id="a_node8"><a xlink:href="classaworx_1_1lib_1_1threads_1_1SmartLock.html" target="_top" xlink:title="SmartLock">
<polygon fill="#ffffff" stroke="#000000" points="829.5,-76.5 829.5,-95.5 893.5,-95.5 893.5,-76.5 829.5,-76.5"/>
<text text-anchor="middle" x="861.5" y="-83.5" font-family="Helvetica,sans-Serif" font-size="10.00" fill="#000000">SmartLock</text>
</a>
</g>
</g>
<!-- Node26&#45;&gt;Node13 -->
<g id="edge9" class="edge">
<title>Node26&#45;&gt;Node13</title>
<path fill="none" stroke="#9a32cd" stroke-dasharray="5,2" d="M661.569,-50.3564C693.0817,-52.1684 731.144,-55.3657 765,-61 787.1933,-64.6934 811.7313,-71.0825 830.5096,-76.4771"/>
<polygon fill="#9a32cd" stroke="#9a32cd" points="661.756,-46.8615 651.5813,-49.8154 661.3774,-53.8512 661.756,-46.8615"/>
<text text-anchor="middle" x="743.5" y="-64" font-family="Helvetica,sans-Serif" font-size="10.00" fill="#000000"> acquirers</text>
</g>
<!-- Node28 -->
<g id="node3" class="node">
<title>Node28</title>
<g id="a_node3"><a xlink:href="classaworx_1_1lib_1_1time_1_1TimePointBase.html" target="_top" xlink:title="TimePointBase\&lt;chrono::steady_clock, Ticks\&gt;">
<polygon fill="#ffffff" stroke="#000000" points="486,-.5 486,-19.5 704,-19.5 704,-.5 486,-.5"/>
<text text-anchor="middle" x="595" y="-7.5" font-family="Helvetica,sans-Serif" font-size="10.00" fill="#000000">TimePointBase&lt;chrono::steady_clock, Ticks&gt;</text>
</a>
</g>
</g>
<!-- Node27 -->
<g id="node12" class="node">
<title>Node27</title>
<g id="a_node12"><a xlink:href="classaworx_1_1lib_1_1time_1_1Ticks.html" target="_top" xlink:title="Ticks">
<polygon fill="#ffffff" stroke="#000000" points="841,-19.5 841,-38.5 882,-38.5 882,-19.5 841,-19.5"/>
<text text-anchor="middle" x="861.5" y="-26.5" font-family="Helvetica,sans-Serif" font-size="10.00" fill="#000000">Ticks</text>
</a>
</g>
</g>
<!-- Node28&#45;&gt;Node27 -->
<g id="edge11" class="edge">
<title>Node28&#45;&gt;Node27</title>
<path fill="none" stroke="#191970" d="M714.415,-18.5136C762.668,-21.9538 813.3674,-25.5684 840.8341,-27.5266"/>
<polygon fill="#191970" stroke="#191970" points="714.3883,-15.0029 704.1647,-17.7828 713.8904,-21.9852 714.3883,-15.0029"/>
</g>
<!-- Node23 -->
<g id="node4" class="node">
<title>Node23</title>
<g id="a_node4"><a xlink:href="classaworx_1_1lib_1_1strings_1_1TStringBase.html" target="_top" xlink:title="TStringBase\&lt;nchar\&gt;">
<polygon fill="#ffffff" stroke="#ff0000" points="0,-101.5 0,-120.5 107,-120.5 107,-101.5 0,-101.5"/>
<text text-anchor="middle" x="53.5" y="-108.5" font-family="Helvetica,sans-Serif" font-size="10.00" fill="#000000">TStringBase&lt;nchar&gt;</text>
</a>
</g>
</g>
<!-- Node14 -->
<g id="node9" class="node">
<title>Node14</title>
<g id="a_node9"><a xlink:href="classaworx_1_1lib_1_1threads_1_1ThreadLock.html" target="_top" xlink:title="ThreadLock">
<polygon fill="#ffffff" stroke="#000000" points="278.5,-59.5 278.5,-78.5 346.5,-78.5 346.5,-59.5 278.5,-59.5"/>
<text text-anchor="middle" x="312.5" y="-66.5" font-family="Helvetica,sans-Serif" font-size="10.00" fill="#000000">ThreadLock</text>
</a>
</g>
</g>
<!-- Node23&#45;&gt;Node14 -->
<g id="edge6" class="edge">
<title>Node23&#45;&gt;Node14</title>
<path fill="none" stroke="#9a32cd" stroke-dasharray="5,2" d="M88.3329,-98.1753C99.8659,-94.3668 112.8576,-90.5387 125,-88 177.8434,-76.9517 240.4597,-72.2524 278.2988,-70.3075"/>
<polygon fill="#9a32cd" stroke="#9a32cd" points="86.9661,-94.9435 78.6314,-101.4843 89.2259,-101.5687 86.9661,-94.9435"/>
<text text-anchor="middle" x="182.5" y="-102" font-family="Helvetica,sans-Serif" font-size="10.00" fill="#000000"> acquirementMethodName</text>
<text text-anchor="middle" x="182.5" y="-91" font-family="Helvetica,sans-Serif" font-size="10.00" fill="#000000">acquirementSourcefile</text>
</g>
<!-- Node25 -->
<g id="node11" class="node">
<title>Node25</title>
<g id="a_node11"><a xlink:href="classaworx_1_1lib_1_1threads_1_1ThreadLockNR.html" target="_top" xlink:title="ThreadLockNR">
<polygon fill="#ffffff" stroke="#000000" points="385,-122.5 385,-141.5 468,-141.5 468,-122.5 385,-122.5"/>
<text text-anchor="middle" x="426.5" y="-129.5" font-family="Helvetica,sans-Serif" font-size="10.00" fill="#000000">ThreadLockNR</text>
</a>
</g>
</g>
<!-- Node23&#45;&gt;Node25 -->
<g id="edge7" class="edge">
<title>Node23&#45;&gt;Node25</title>
<path fill="none" stroke="#9a32cd" stroke-dasharray="5,2" d="M117.3327,-114.5938C193.8231,-118.9002 319.7839,-125.9919 384.7951,-129.652"/>
<polygon fill="#9a32cd" stroke="#9a32cd" points="117.52,-111.0989 107.339,-114.0312 117.1265,-118.0878 117.52,-111.0989"/>
<text text-anchor="middle" x="182.5" y="-135" font-family="Helvetica,sans-Serif" font-size="10.00" fill="#000000"> acquirementMethodName</text>
<text text-anchor="middle" x="182.5" y="-124" font-family="Helvetica,sans-Serif" font-size="10.00" fill="#000000">acquirementSourcefile</text>
</g>
<!-- Node19 -->
<g id="node5" class="node">
<title>Node19</title>
<g id="a_node5"><a xlink:href="classaworx_1_1lib_1_1strings_1_1TStringBase.html" target="_top" xlink:title="TStringBase\&lt;TChar\&gt;">
<polygon fill="#ffffff" stroke="#ff0000" points="258,-161.5 258,-180.5 367,-180.5 367,-161.5 258,-161.5"/>
<text text-anchor="middle" x="312.5" y="-168.5" font-family="Helvetica,sans-Serif" font-size="10.00" fill="#000000">TStringBase&lt;TChar&gt;</text>
</a>
</g>
</g>
<!-- Node30 -->
<g id="node7" class="node">
<title>Node30</title>
<g id="a_node7"><a xlink:href="classaworx_1_1lib_1_1strings_1_1AStringBase.html" target="_top" xlink:title="AStringBase\&lt;TChar\&gt;">
<polygon fill="#ffffff" stroke="#000000" points="540,-161.5 540,-180.5 650,-180.5 650,-161.5 540,-161.5"/>
<text text-anchor="middle" x="595" y="-168.5" font-family="Helvetica,sans-Serif" font-size="10.00" fill="#000000">AStringBase&lt;TChar&gt;</text>
</a>
</g>
</g>
<!-- Node19&#45;&gt;Node30 -->
<g id="edge5" class="edge">
<title>Node19&#45;&gt;Node30</title>
<path fill="none" stroke="#191970" d="M377.507,-171C426.6352,-171 493.334,-171 539.8671,-171"/>
<polygon fill="#191970" stroke="#191970" points="377.3038,-167.5001 367.3038,-171 377.3038,-174.5001 377.3038,-167.5001"/>
</g>
<!-- Node29 -->
<g id="node6" class="node">
<title>Node29</title>
<g id="a_node6"><a xlink:href="classaworx_1_1lib_1_1strings_1_1PreallocatedStringBase.html" target="_top" xlink:title="PreallocatedStringBase\&lt;TChar\&gt;">
<polygon fill="#ffffff" stroke="#000000" points="783,-130.5 783,-149.5 940,-149.5 940,-130.5 783,-130.5"/>
<text text-anchor="middle" x="861.5" y="-137.5" font-family="Helvetica,sans-Serif" font-size="10.00" fill="#000000">PreallocatedStringBase&lt;TChar&gt;</text>
</a>
</g>
</g>
<!-- Node29&#45;&gt;Node12 -->
<g id="edge12" class="edge">
<title>Node29&#45;&gt;Node12</title>
<path fill="none" stroke="#9a32cd" stroke-dasharray="5,2" d="M913.316,-128.1649C946.2913,-120.4053 989.8232,-109.7404 1028,-99 1033.7506,-97.3822 1039.911,-95.506 1045.6634,-93.6908"/>
<polygon fill="#9a32cd" stroke="#9a32cd" points="912.3781,-124.7897 903.4389,-130.4766 913.9734,-131.6055 912.3781,-124.7897"/>
<text text-anchor="middle" x="993" y="-130" font-family="Helvetica,sans-Serif" font-size="10.00" fill="#000000"> TypeName</text>
<text text-anchor="middle" x="993" y="-119" font-family="Helvetica,sans-Serif" font-size="10.00" fill="#000000">Name</text>
</g>
<!-- Node30&#45;&gt;Node29 -->
<g id="edge13" class="edge">
<title>Node30&#45;&gt;Node29</title>
<path fill="none" stroke="#191970" d="M660.3852,-163.3942C697.374,-159.0916 743.8803,-153.6818 782.852,-149.1485"/>
<polygon fill="#191970" stroke="#191970" points="659.7476,-159.9447 650.219,-164.5768 660.5564,-166.8978 659.7476,-159.9447"/>
</g>
<!-- Node13&#45;&gt;Node12 -->
<g id="edge1" class="edge">
<title>Node13&#45;&gt;Node12</title>
<path fill="none" stroke="#191970" d="M904.0605,-86C946.957,-86 1011.5691,-86 1045.8011,-86"/>
<polygon fill="#191970" stroke="#191970" points="903.9219,-82.5001 893.9219,-86 903.9218,-89.5001 903.9219,-82.5001"/>
</g>
<!-- Node14&#45;&gt;Node26 -->
<g id="edge3" class="edge">
<title>Node14&#45;&gt;Node26</title>
<path fill="none" stroke="#9a32cd" stroke-dasharray="5,2" d="M356.9701,-63.7513C366.226,-62.7549 375.925,-61.7811 385,-61 436.8608,-56.5361 496.0542,-53.0137 538.3479,-50.7679"/>
<polygon fill="#9a32cd" stroke="#9a32cd" points="356.3211,-60.3016 346.7651,-64.877 357.0886,-67.2594 356.3211,-60.3016"/>
<text text-anchor="middle" x="426.5" y="-64" font-family="Helvetica,sans-Serif" font-size="10.00" fill="#000000"> elements</text>
</g>
<!-- Node14&#45;&gt;Node13 -->
<g id="edge2" class="edge">
<title>Node14&#45;&gt;Node13</title>
<path fill="none" stroke="#191970" d="M357.0001,-70.9257C366.2537,-71.3024 375.9443,-71.6796 385,-72 552.2803,-77.9182 752.6577,-83.2234 829.4263,-85.1903"/>
<polygon fill="#191970" stroke="#191970" points="356.9313,-67.4199 346.7951,-70.5035 356.6419,-74.4139 356.9313,-67.4199"/>
</g>
<!-- Node15 -->
<g id="node10" class="node">
<title>Node15</title>
<g id="a_node10"><a xlink:href="classaworx_1_1lib_1_1threads_1_1Thread.html" target="_top" xlink:title="Thread">
<polygon fill="#ffffff" stroke="#ff0000" points="30,-43.5 30,-62.5 77,-62.5 77,-43.5 30,-43.5"/>
<text text-anchor="middle" x="53.5" y="-50.5" font-family="Helvetica,sans-Serif" font-size="10.00" fill="#000000">Thread</text>
</a>
</g>
</g>
<!-- Node15&#45;&gt;Node14 -->
<g id="edge4" class="edge">
<title>Node15&#45;&gt;Node14</title>
<path fill="none" stroke="#9a32cd" stroke-dasharray="5,2" d="M87.4807,-51.1655C124.947,-49.6117 186.9515,-48.426 240,-54 252.6552,-55.3297 266.3648,-57.8743 278.4208,-60.4952"/>
<polygon fill="#9a32cd" stroke="#9a32cd" points="86.9678,-47.6849 77.135,-51.6303 87.282,-54.6779 86.9678,-47.6849"/>
<text text-anchor="middle" x="182.5" y="-57" font-family="Helvetica,sans-Serif" font-size="10.00" fill="#000000"> owner</text>
</g>
<!-- Node25&#45;&gt;Node13 -->
<g id="edge8" class="edge">
<title>Node25&#45;&gt;Node13</title>
<path fill="none" stroke="#9a32cd" stroke-dasharray="5,2" d="M478.4779,-127.8955C544.9973,-122.457 663.7453,-112.1233 765,-100 786.5153,-97.424 810.6403,-93.924 829.3865,-91.068"/>
<polygon fill="#9a32cd" stroke="#9a32cd" points="477.9446,-124.4272 468.261,-128.7259 478.5117,-131.4042 477.9446,-124.4272"/>
<text text-anchor="middle" x="595" y="-130" font-family="Helvetica,sans-Serif" font-size="10.00" fill="#000000"> lock</text>
</g>
<!-- Node27&#45;&gt;Node12 -->
<g id="edge10" class="edge">
<title>Node27&#45;&gt;Node12</title>
<path fill="none" stroke="#9a32cd" stroke-dasharray="5,2" d="M892.4633,-31.2294C926.6457,-34.4891 982.8143,-42.2339 1028,-60 1038.3542,-64.0711 1048.9313,-70.8565 1056.7485,-76.4746"/>
<polygon fill="#9a32cd" stroke="#9a32cd" points="892.4485,-27.7146 882.1794,-30.3217 891.8329,-34.6875 892.4485,-27.7146"/>
<text text-anchor="middle" x="993" y="-74" font-family="Helvetica,sans-Serif" font-size="10.00" fill="#000000"> TimeOfLastLog</text>
<text text-anchor="middle" x="993" y="-63" font-family="Helvetica,sans-Serif" font-size="10.00" fill="#000000">TimeOfCreation</text>
</g>
</g>
</svg>
