<?xml version="1.0" encoding="UTF-8" standalone="no"?>
<!DOCTYPE svg PUBLIC "-//W3C//DTD SVG 1.1//EN"
 "http://www.w3.org/Graphics/SVG/1.1/DTD/svg11.dtd">
<!-- Generated by graphviz version 2.40.1 (20161225.0304)
 -->
<!-- Title: Compiler Pages: 1 -->
<svg width="252pt" height="140pt"
 viewBox="0.00 0.00 252.00 140.00" xmlns="http://www.w3.org/2000/svg" xmlns:xlink="http://www.w3.org/1999/xlink">
<g id="graph0" class="graph" transform="scale(1 1) rotate(0) translate(4 136)">
<title>Compiler</title>
<polygon fill="#ffffff" stroke="transparent" points="-4,4 -4,-136 248,-136 248,4 -4,4"/>
<!-- Node0 -->
<g id="node1" class="node">
<title>Node0</title>
<polygon fill="#bfbfbf" stroke="#000000" points="94,-.5 94,-19.5 150,-19.5 150,-.5 94,-.5"/>
<text text-anchor="middle" x="122" y="-7.5" font-family="Helvetica,sans-Serif" font-size="10.00" fill="#000000">Compiler</text>
</g>
<!-- Node1 -->
<g id="node2" class="node">
<title>Node1</title>
<g id="a_node2"><a xlink:href="classaworx_1_1lib_1_1util_1_1PluginContainer.html" target="_top" xlink:title="PluginContainer\&lt;CompilerPlugin, CompilePriorities\&gt;">
<polygon fill="#ffffff" stroke="#000000" points="0,-56.5 0,-75.5 244,-75.5 244,-56.5 0,-56.5"/>
<text text-anchor="middle" x="122" y="-63.5" font-family="Helvetica,sans-Serif" font-size="10.00" fill="#000000">PluginContainer&lt;CompilerPlugin, CompilePriorities&gt;</text>
</a>
</g>
</g>
<!-- Node1&#45;&gt;Node0 -->
<g id="edge1" class="edge">
<title>Node1&#45;&gt;Node0</title>
<path fill="none" stroke="#191970" d="M122,-46.1575C122,-37.155 122,-26.9199 122,-19.6427"/>
<polygon fill="#191970" stroke="#191970" points="118.5001,-46.2455 122,-56.2455 125.5001,-46.2456 118.5001,-46.2455"/>
</g>
<!-- Node2 -->
<g id="node3" class="node">
<title>Node2</title>
<g id="a_node3"><a xlink:href="classaworx_1_1lib_1_1threads_1_1ThreadLock.html" target="_top" xlink:title="ThreadLock">
<polygon fill="#ffffff" stroke="#000000" points="88,-112.5 88,-131.5 156,-131.5 156,-112.5 88,-112.5"/>
<text text-anchor="middle" x="122" y="-119.5" font-family="Helvetica,sans-Serif" font-size="10.00" fill="#000000">ThreadLock</text>
</a>
</g>
</g>
<!-- Node2&#45;&gt;Node1 -->
<g id="edge2" class="edge">
<title>Node2&#45;&gt;Node1</title>
<path fill="none" stroke="#191970" d="M122,-102.1575C122,-93.155 122,-82.9199 122,-75.6427"/>
<polygon fill="#191970" stroke="#191970" points="118.5001,-102.2455 122,-112.2455 125.5001,-102.2456 118.5001,-102.2455"/>
</g>
</g>
</svg>
