<?xml version="1.0" encoding="UTF-8" standalone="no"?>
<!DOCTYPE svg PUBLIC "-//W3C//DTD SVG 1.1//EN"
 "http://www.w3.org/Graphics/SVG/1.1/DTD/svg11.dtd">
<!-- Generated by graphviz version 2.40.1 (20161225.0304)
 -->
<!-- Title: IIsNull_false Pages: 1 -->
<svg width="201pt" height="152pt"
 viewBox="0.00 0.00 200.50 152.00" xmlns="http://www.w3.org/2000/svg" xmlns:xlink="http://www.w3.org/1999/xlink">
<g id="graph0" class="graph" transform="scale(1 1) rotate(0) translate(4 148)">
<title>IIsNull_false</title>
<polygon fill="#ffffff" stroke="transparent" points="-4,4 -4,-148 196.5,-148 196.5,4 -4,4"/>
<!-- Node4 -->
<g id="node1" class="node">
<title>Node4</title>
<polygon fill="#bfbfbf" stroke="#000000" points="77.5,-.5 77.5,-19.5 148.5,-19.5 148.5,-.5 77.5,-.5"/>
<text text-anchor="middle" x="113" y="-7.5" font-family="Helvetica,sans-Serif" font-size="10.00" fill="#000000">IIsNull_false</text>
</g>
<!-- Node7 -->
<g id="node2" class="node">
<title>Node7</title>
<g id="a_node2"><a xlink:href="classaworx_1_1lib_1_1lang_1_1Singleton.html" target="_top" xlink:title="Singleton\&lt;IIsNull_false\&gt;">
<polygon fill="#ffffff" stroke="#000000" points="0,-57.5 0,-76.5 124,-76.5 124,-57.5 0,-57.5"/>
<text text-anchor="middle" x="62" y="-64.5" font-family="Helvetica,sans-Serif" font-size="10.00" fill="#000000">Singleton&lt;IIsNull_false&gt;</text>
</a>
</g>
</g>
<!-- Node7&#45;&gt;Node4 -->
<g id="edge3" class="edge">
<title>Node7&#45;&gt;Node4</title>
<path fill="none" stroke="#191970" d="M77.5257,-49.6477C86.3824,-39.7491 97.1447,-27.7206 104.4763,-19.5265"/>
<polygon fill="#191970" stroke="#191970" points="74.7111,-47.5445 70.6515,-57.3307 79.9278,-52.2121 74.7111,-47.5445"/>
</g>
<!-- Node5 -->
<g id="node3" class="node">
<title>Node5</title>
<g id="a_node3"><a xlink:href="classaworx_1_1lib_1_1boxing_1_1IIsNull.html" target="_top" xlink:title="IIsNull">
<polygon fill="#ffffff" stroke="#000000" points="142.5,-57.5 142.5,-76.5 187.5,-76.5 187.5,-57.5 142.5,-57.5"/>
<text text-anchor="middle" x="165" y="-64.5" font-family="Helvetica,sans-Serif" font-size="10.00" fill="#000000">IIsNull</text>
</a>
</g>
</g>
<!-- Node5&#45;&gt;Node4 -->
<g id="edge1" class="edge">
<title>Node5&#45;&gt;Node4</title>
<path fill="none" stroke="#191970" d="M149.1698,-49.6477C140.1395,-39.7491 129.1662,-27.7206 121.6908,-19.5265"/>
<polygon fill="#191970" stroke="#191970" points="146.8536,-52.3019 156.1789,-57.3307 152.0249,-47.5842 146.8536,-52.3019"/>
</g>
<!-- Node6 -->
<g id="node4" class="node">
<title>Node6</title>
<g id="a_node4"><a xlink:href="classaworx_1_1lib_1_1boxing_1_1Interface.html" target="_top" xlink:title="Interface">
<polygon fill="#ffffff" stroke="#000000" points="137.5,-124.5 137.5,-143.5 192.5,-143.5 192.5,-124.5 137.5,-124.5"/>
<text text-anchor="middle" x="165" y="-131.5" font-family="Helvetica,sans-Serif" font-size="10.00" fill="#000000">Interface</text>
</a>
</g>
</g>
<!-- Node6&#45;&gt;Node5 -->
<g id="edge2" class="edge">
<title>Node6&#45;&gt;Node5</title>
<path fill="none" stroke="#191970" d="M165,-114.1079C165,-101.714 165,-86.3263 165,-76.5817"/>
<polygon fill="#191970" stroke="#191970" points="161.5001,-114.4005 165,-124.4005 168.5001,-114.4006 161.5001,-114.4005"/>
</g>
<!-- Node8 -->
<g id="node5" class="node">
<title>Node8</title>
<polygon fill="#ffffff" stroke="#bfbfbf" points="21,-124.5 21,-143.5 103,-143.5 103,-124.5 21,-124.5"/>
<text text-anchor="middle" x="62" y="-131.5" font-family="Helvetica,sans-Serif" font-size="10.00" fill="#000000">TDerivedClass</text>
</g>
<!-- Node8&#45;&gt;Node7 -->
<g id="edge4" class="edge">
<title>Node8&#45;&gt;Node7</title>
<path fill="none" stroke="#9a32cd" stroke-dasharray="5,2" d="M62,-114.1079C62,-101.714 62,-86.3263 62,-76.5817"/>
<polygon fill="#9a32cd" stroke="#9a32cd" points="58.5001,-114.4005 62,-124.4005 65.5001,-114.4006 58.5001,-114.4005"/>
<text text-anchor="middle" x="83.5" y="-98" font-family="Helvetica,sans-Serif" font-size="10.00" fill="#000000"> singleton</text>
</g>
</g>
</svg>
