<?xml version="1.0" encoding="UTF-8" standalone="no"?>
<!DOCTYPE svg PUBLIC "-//W3C//DTD SVG 1.1//EN"
 "http://www.w3.org/Graphics/SVG/1.1/DTD/svg11.dtd">
<!-- Generated by graphviz version 2.40.1 (20161225.0304)
 -->
<!-- Title: cliapp.hpp Pages: 1 -->
<svg width="439pt" height="196pt"
 viewBox="0.00 0.00 439.00 196.00" xmlns="http://www.w3.org/2000/svg" xmlns:xlink="http://www.w3.org/1999/xlink">
<g id="graph0" class="graph" transform="scale(1 1) rotate(0) translate(4 192)">
<title>cliapp.hpp</title>
<polygon fill="#ffffff" stroke="transparent" points="-4,4 -4,-192 435,-192 435,4 -4,4"/>
<!-- Node0 -->
<g id="node1" class="node">
<title>Node0</title>
<polygon fill="#bfbfbf" stroke="#000000" points="191,-168.5 191,-187.5 252,-187.5 252,-168.5 191,-168.5"/>
<text text-anchor="middle" x="221.5" y="-175.5" font-family="Helvetica,sans-Serif" font-size="10.00" fill="#000000">cliapp.hpp</text>
</g>
<!-- Node1 -->
<g id="node2" class="node">
<title>Node1</title>
<g id="a_node2"><a xlink:href="resourcestring_8hpp.html" target="_top" xlink:title="alib/strings/resourcestring.hpp">
<polygon fill="#ffffff" stroke="#000000" points="0,-112.5 0,-131.5 147,-131.5 147,-112.5 0,-112.5"/>
<text text-anchor="middle" x="73.5" y="-119.5" font-family="Helvetica,sans-Serif" font-size="10.00" fill="#000000">alib/strings/resourcestring.hpp</text>
</a>
</g>
</g>
<!-- Node0&#45;&gt;Node1 -->
<g id="edge1" class="edge">
<title>Node0&#45;&gt;Node1</title>
<path fill="none" stroke="#191970" d="M196.0579,-168.3733C171.7674,-159.1822 134.9792,-145.2624 108.0457,-135.0713"/>
<polygon fill="#191970" stroke="#191970" points="109.2016,-131.7666 98.6101,-131.5011 106.7243,-138.3136 109.2016,-131.7666"/>
</g>
<!-- Node2 -->
<g id="node3" class="node">
<title>Node2</title>
<g id="a_node3"><a xlink:href="arguments_8hpp.html" target="_top" xlink:title="alib/cli/arguments.hpp">
<polygon fill="#ffffff" stroke="#000000" points="165.5,-112.5 165.5,-131.5 277.5,-131.5 277.5,-112.5 165.5,-112.5"/>
<text text-anchor="middle" x="221.5" y="-119.5" font-family="Helvetica,sans-Serif" font-size="10.00" fill="#000000">alib/cli/arguments.hpp</text>
</a>
</g>
</g>
<!-- Node0&#45;&gt;Node2 -->
<g id="edge2" class="edge">
<title>Node0&#45;&gt;Node2</title>
<path fill="none" stroke="#191970" d="M221.5,-168.2455C221.5,-160.9382 221.5,-150.6944 221.5,-141.7046"/>
<polygon fill="#191970" stroke="#191970" points="225.0001,-141.6426 221.5,-131.6427 218.0001,-141.6427 225.0001,-141.6426"/>
</g>
<!-- Node4 -->
<g id="node4" class="node">
<title>Node4</title>
<g id="a_node4"><a xlink:href="inifile_8hpp.html" target="_top" xlink:title="alib/config/inifile.hpp">
<polygon fill="#ffffff" stroke="#000000" points="301,-112.5 301,-131.5 406,-131.5 406,-112.5 301,-112.5"/>
<text text-anchor="middle" x="353.5" y="-119.5" font-family="Helvetica,sans-Serif" font-size="10.00" fill="#000000">alib/config/inifile.hpp</text>
</a>
</g>
</g>
<!-- Node0&#45;&gt;Node4 -->
<g id="edge3" class="edge">
<title>Node0&#45;&gt;Node4</title>
<path fill="none" stroke="#191970" d="M244.1916,-168.3733C265.5711,-159.3032 297.8057,-145.6279 321.7362,-135.4755"/>
<polygon fill="#191970" stroke="#191970" points="323.2656,-138.6287 331.1045,-131.5011 320.5317,-132.1846 323.2656,-138.6287"/>
</g>
<!-- Node3 -->
<g id="node5" class="node">
<title>Node3</title>
<g id="a_node5"><a xlink:href="clilib_8hpp.html" target="_top" xlink:title="alib/cli/clilib.hpp">
<polygon fill="#ffffff" stroke="#000000" points="175.5,-56.5 175.5,-75.5 261.5,-75.5 261.5,-56.5 175.5,-56.5"/>
<text text-anchor="middle" x="218.5" y="-63.5" font-family="Helvetica,sans-Serif" font-size="10.00" fill="#000000">alib/cli/clilib.hpp</text>
</a>
</g>
</g>
<!-- Node2&#45;&gt;Node3 -->
<g id="edge4" class="edge">
<title>Node2&#45;&gt;Node3</title>
<path fill="none" stroke="#191970" d="M220.9774,-112.2455C220.586,-104.9382 220.0372,-94.6944 219.5556,-85.7046"/>
<polygon fill="#191970" stroke="#191970" points="223.0466,-85.4411 219.0166,-75.6427 216.0566,-85.8156 223.0466,-85.4411"/>
</g>
<!-- Node5 -->
<g id="node6" class="node">
<title>Node5</title>
<g id="a_node6"><a xlink:href="inmemoryplugin_8hpp.html" target="_top" xlink:title="alib/config/inmemoryplugin.hpp">
<polygon fill="#ffffff" stroke="#000000" points="280,-56.5 280,-75.5 431,-75.5 431,-56.5 280,-56.5"/>
<text text-anchor="middle" x="355.5" y="-63.5" font-family="Helvetica,sans-Serif" font-size="10.00" fill="#000000">alib/config/inmemoryplugin.hpp</text>
</a>
</g>
</g>
<!-- Node4&#45;&gt;Node5 -->
<g id="edge5" class="edge">
<title>Node4&#45;&gt;Node5</title>
<path fill="none" stroke="#191970" d="M353.8484,-112.2455C354.1093,-104.9382 354.4752,-94.6944 354.7963,-85.7046"/>
<polygon fill="#191970" stroke="#191970" points="358.2964,-85.7613 355.1556,-75.6427 351.3008,-85.5113 358.2964,-85.7613"/>
</g>
<!-- Node6 -->
<g id="node7" class="node">
<title>Node6</title>
<g id="a_node7"><a xlink:href="plugins_8hpp.html" target="_top" xlink:title="alib/config/plugins.hpp">
<polygon fill="#ffffff" stroke="#ff0000" points="250,-.5 250,-19.5 363,-19.5 363,-.5 250,-.5"/>
<text text-anchor="middle" x="306.5" y="-7.5" font-family="Helvetica,sans-Serif" font-size="10.00" fill="#000000">alib/config/plugins.hpp</text>
</a>
</g>
</g>
<!-- Node5&#45;&gt;Node6 -->
<g id="edge6" class="edge">
<title>Node5&#45;&gt;Node6</title>
<path fill="none" stroke="#191970" d="M346.9649,-56.2455C340.0088,-48.2958 330.0117,-36.8706 321.6949,-27.3656"/>
<polygon fill="#191970" stroke="#191970" points="324.1564,-24.8637 314.9373,-19.6427 318.8884,-29.4732 324.1564,-24.8637"/>
</g>
<!-- Node16 -->
<g id="node8" class="node">
<title>Node16</title>
<polygon fill="#ffffff" stroke="#bfbfbf" points="381.5,-.5 381.5,-19.5 425.5,-19.5 425.5,-.5 381.5,-.5"/>
<text text-anchor="middle" x="403.5" y="-7.5" font-family="Helvetica,sans-Serif" font-size="10.00" fill="#000000">vector</text>
</g>
<!-- Node5&#45;&gt;Node16 -->
<g id="edge7" class="edge">
<title>Node5&#45;&gt;Node16</title>
<path fill="none" stroke="#191970" d="M363.861,-56.2455C370.675,-48.2958 380.4681,-36.8706 388.6152,-27.3656"/>
<polygon fill="#191970" stroke="#191970" points="391.3843,-29.513 395.2349,-19.6427 386.0695,-24.9575 391.3843,-29.513"/>
</g>
</g>
</svg>
