<?xml version="1.0" encoding="UTF-8" standalone="no"?>
<!DOCTYPE svg PUBLIC "-//W3C//DTD SVG 1.1//EN"
 "http://www.w3.org/Graphics/SVG/1.1/DTD/svg11.dtd">
<!-- Generated by graphviz version 2.40.1 (20161225.0304)
 -->
<!-- Title: cliutil.hpp Pages: 1 -->
<svg width="798pt" height="196pt"
 viewBox="0.00 0.00 798.00 196.00" xmlns="http://www.w3.org/2000/svg" xmlns:xlink="http://www.w3.org/1999/xlink">
<g id="graph0" class="graph" transform="scale(1 1) rotate(0) translate(4 192)">
<title>cliutil.hpp</title>
<polygon fill="#ffffff" stroke="transparent" points="-4,4 -4,-192 794,-192 794,4 -4,4"/>
<!-- Node0 -->
<g id="node1" class="node">
<title>Node0</title>
<polygon fill="#bfbfbf" stroke="#000000" points="349.5,-168.5 349.5,-187.5 407.5,-187.5 407.5,-168.5 349.5,-168.5"/>
<text text-anchor="middle" x="378.5" y="-175.5" font-family="Helvetica,sans-Serif" font-size="10.00" fill="#000000">cliutil.hpp</text>
</g>
<!-- Node1 -->
<g id="node2" class="node">
<title>Node1</title>
<g id="a_node2"><a xlink:href="cliapp_8hpp.html" target="_top" xlink:title="alib/cli/cliapp.hpp">
<polygon fill="#ffffff" stroke="#000000" points="239.5,-112.5 239.5,-131.5 331.5,-131.5 331.5,-112.5 239.5,-112.5"/>
<text text-anchor="middle" x="285.5" y="-119.5" font-family="Helvetica,sans-Serif" font-size="10.00" fill="#000000">alib/cli/cliapp.hpp</text>
</a>
</g>
</g>
<!-- Node0&#45;&gt;Node1 -->
<g id="edge1" class="edge">
<title>Node0&#45;&gt;Node1</title>
<path fill="none" stroke="#191970" d="M362.3006,-168.2455C347.8982,-159.5731 326.6268,-146.7645 310.1201,-136.825"/>
<polygon fill="#191970" stroke="#191970" points="311.886,-133.8028 301.5137,-131.6427 308.275,-139.7996 311.886,-133.8028"/>
</g>
<!-- Node18 -->
<g id="node3" class="node">
<title>Node18</title>
<g id="a_node3"><a xlink:href="simpletext_8hpp.html" target="_top" xlink:title="alib/strings/format/simpletext.hpp">
<polygon fill="#ffffff" stroke="#000000" points="455,-112.5 455,-131.5 616,-131.5 616,-112.5 455,-112.5"/>
<text text-anchor="middle" x="535.5" y="-119.5" font-family="Helvetica,sans-Serif" font-size="10.00" fill="#000000">alib/strings/format/simpletext.hpp</text>
</a>
</g>
</g>
<!-- Node0&#45;&gt;Node18 -->
<g id="edge2" class="edge">
<title>Node0&#45;&gt;Node18</title>
<path fill="none" stroke="#191970" d="M405.4893,-168.3733C431.3699,-159.1419 470.6248,-145.1402 499.2289,-134.9375"/>
<polygon fill="#191970" stroke="#191970" points="500.62,-138.1573 508.8629,-131.5011 498.2683,-131.5642 500.62,-138.1573"/>
</g>
<!-- Node2 -->
<g id="node4" class="node">
<title>Node2</title>
<g id="a_node4"><a xlink:href="resourcestring_8hpp.html" target="_top" xlink:title="alib/strings/resourcestring.hpp">
<polygon fill="#ffffff" stroke="#000000" points="0,-56.5 0,-75.5 147,-75.5 147,-56.5 0,-56.5"/>
<text text-anchor="middle" x="73.5" y="-63.5" font-family="Helvetica,sans-Serif" font-size="10.00" fill="#000000">alib/strings/resourcestring.hpp</text>
</a>
</g>
</g>
<!-- Node1&#45;&gt;Node2 -->
<g id="edge3" class="edge">
<title>Node1&#45;&gt;Node2</title>
<path fill="none" stroke="#191970" d="M249.0559,-112.3733C213.1931,-102.9001 158.3122,-88.4032 119.4718,-78.1435"/>
<polygon fill="#191970" stroke="#191970" points="120.0308,-74.6712 109.4685,-75.5011 118.243,-81.439 120.0308,-74.6712"/>
</g>
<!-- Node3 -->
<g id="node5" class="node">
<title>Node3</title>
<g id="a_node5"><a xlink:href="arguments_8hpp.html" target="_top" xlink:title="alib/cli/arguments.hpp">
<polygon fill="#ffffff" stroke="#000000" points="165.5,-56.5 165.5,-75.5 277.5,-75.5 277.5,-56.5 165.5,-56.5"/>
<text text-anchor="middle" x="221.5" y="-63.5" font-family="Helvetica,sans-Serif" font-size="10.00" fill="#000000">alib/cli/arguments.hpp</text>
</a>
</g>
</g>
<!-- Node1&#45;&gt;Node3 -->
<g id="edge4" class="edge">
<title>Node1&#45;&gt;Node3</title>
<path fill="none" stroke="#191970" d="M274.3521,-112.2455C264.9913,-104.0549 251.4142,-92.1749 240.3651,-82.5069"/>
<polygon fill="#191970" stroke="#191970" points="242.3508,-79.5937 232.5202,-75.6427 237.7412,-84.8618 242.3508,-79.5937"/>
</g>
<!-- Node5 -->
<g id="node6" class="node">
<title>Node5</title>
<g id="a_node6"><a xlink:href="inifile_8hpp.html" target="_top" xlink:title="alib/config/inifile.hpp">
<polygon fill="#ffffff" stroke="#000000" points="296,-56.5 296,-75.5 401,-75.5 401,-56.5 296,-56.5"/>
<text text-anchor="middle" x="348.5" y="-63.5" font-family="Helvetica,sans-Serif" font-size="10.00" fill="#000000">alib/config/inifile.hpp</text>
</a>
</g>
</g>
<!-- Node1&#45;&gt;Node5 -->
<g id="edge5" class="edge">
<title>Node1&#45;&gt;Node5</title>
<path fill="none" stroke="#191970" d="M296.4738,-112.2455C305.6882,-104.0549 319.0532,-92.1749 329.9297,-82.5069"/>
<polygon fill="#191970" stroke="#191970" points="332.5032,-84.9023 337.652,-75.6427 327.8526,-79.6704 332.5032,-84.9023"/>
</g>
<!-- Node19 -->
<g id="node9" class="node">
<title>Node19</title>
<g id="a_node9"><a xlink:href="formatterpythonstyle_8hpp.html" target="_top" xlink:title="alib/strings/format/formatterpythonstyle.hpp">
<polygon fill="#ffffff" stroke="#000000" points="432.5,-56.5 432.5,-75.5 638.5,-75.5 638.5,-56.5 432.5,-56.5"/>
<text text-anchor="middle" x="535.5" y="-63.5" font-family="Helvetica,sans-Serif" font-size="10.00" fill="#000000">alib/strings/format/formatterpythonstyle.hpp</text>
</a>
</g>
</g>
<!-- Node18&#45;&gt;Node19 -->
<g id="edge8" class="edge">
<title>Node18&#45;&gt;Node19</title>
<path fill="none" stroke="#191970" d="M535.5,-112.2455C535.5,-104.9382 535.5,-94.6944 535.5,-85.7046"/>
<polygon fill="#191970" stroke="#191970" points="539.0001,-85.6426 535.5,-75.6427 532.0001,-85.6427 539.0001,-85.6426"/>
</g>
<!-- Node68 -->
<g id="node10" class="node">
<title>Node68</title>
<polygon fill="#ffffff" stroke="#bfbfbf" points="657,-56.5 657,-75.5 698,-75.5 698,-56.5 657,-56.5"/>
<text text-anchor="middle" x="677.5" y="-63.5" font-family="Helvetica,sans-Serif" font-size="10.00" fill="#000000">stack</text>
</g>
<!-- Node18&#45;&gt;Node68 -->
<g id="edge9" class="edge">
<title>Node18&#45;&gt;Node68</title>
<path fill="none" stroke="#191970" d="M559.9107,-112.3733C584.0986,-102.8343 621.2025,-88.2018 647.2475,-77.9306"/>
<polygon fill="#191970" stroke="#191970" points="648.6193,-81.152 656.638,-74.2273 646.0512,-74.6401 648.6193,-81.152"/>
</g>
<!-- Node4 -->
<g id="node7" class="node">
<title>Node4</title>
<g id="a_node7"><a xlink:href="clilib_8hpp.html" target="_top" xlink:title="alib/cli/clilib.hpp">
<polygon fill="#ffffff" stroke="#000000" points="168.5,-.5 168.5,-19.5 254.5,-19.5 254.5,-.5 168.5,-.5"/>
<text text-anchor="middle" x="211.5" y="-7.5" font-family="Helvetica,sans-Serif" font-size="10.00" fill="#000000">alib/cli/clilib.hpp</text>
</a>
</g>
</g>
<!-- Node3&#45;&gt;Node4 -->
<g id="edge6" class="edge">
<title>Node3&#45;&gt;Node4</title>
<path fill="none" stroke="#191970" d="M219.7581,-56.2455C218.4533,-48.9382 216.624,-38.6944 215.0187,-29.7046"/>
<polygon fill="#191970" stroke="#191970" points="218.4254,-28.8717 213.2219,-19.6427 211.5344,-30.1022 218.4254,-28.8717"/>
</g>
<!-- Node6 -->
<g id="node8" class="node">
<title>Node6</title>
<g id="a_node8"><a xlink:href="inmemoryplugin_8hpp.html" target="_top" xlink:title="alib/config/inmemoryplugin.hpp">
<polygon fill="#ffffff" stroke="#ff0000" points="273,-.5 273,-19.5 424,-19.5 424,-.5 273,-.5"/>
<text text-anchor="middle" x="348.5" y="-7.5" font-family="Helvetica,sans-Serif" font-size="10.00" fill="#000000">alib/config/inmemoryplugin.hpp</text>
</a>
</g>
</g>
<!-- Node5&#45;&gt;Node6 -->
<g id="edge7" class="edge">
<title>Node5&#45;&gt;Node6</title>
<path fill="none" stroke="#191970" d="M348.5,-56.2455C348.5,-48.9382 348.5,-38.6944 348.5,-29.7046"/>
<polygon fill="#191970" stroke="#191970" points="352.0001,-29.6426 348.5,-19.6427 345.0001,-29.6427 352.0001,-29.6426"/>
</g>
<!-- Node20 -->
<g id="node11" class="node">
<title>Node20</title>
<g id="a_node11"><a xlink:href="formatterstdimpl_8hpp.html" target="_top" xlink:title="alib/strings/format/formatterstdimpl.hpp">
<polygon fill="#ffffff" stroke="#ff0000" points="442,-.5 442,-19.5 629,-19.5 629,-.5 442,-.5"/>
<text text-anchor="middle" x="535.5" y="-7.5" font-family="Helvetica,sans-Serif" font-size="10.00" fill="#000000">alib/strings/format/formatterstdimpl.hpp</text>
</a>
</g>
</g>
<!-- Node19&#45;&gt;Node20 -->
<g id="edge10" class="edge">
<title>Node19&#45;&gt;Node20</title>
<path fill="none" stroke="#191970" d="M535.5,-56.2455C535.5,-48.9382 535.5,-38.6944 535.5,-29.7046"/>
<polygon fill="#191970" stroke="#191970" points="539.0001,-29.6426 535.5,-19.6427 532.0001,-29.6427 539.0001,-29.6426"/>
</g>
<!-- Node78 -->
<g id="node12" class="node">
<title>Node78</title>
<g id="a_node12"><a xlink:href="autosizes_8hpp.html" target="_top" xlink:title="alib/strings/util/autosizes.hpp">
<polygon fill="#ffffff" stroke="#ff0000" points="647,-.5 647,-19.5 790,-19.5 790,-.5 647,-.5"/>
<text text-anchor="middle" x="718.5" y="-7.5" font-family="Helvetica,sans-Serif" font-size="10.00" fill="#000000">alib/strings/util/autosizes.hpp</text>
</a>
</g>
</g>
<!-- Node19&#45;&gt;Node78 -->
<g id="edge11" class="edge">
<title>Node19&#45;&gt;Node78</title>
<path fill="none" stroke="#191970" d="M566.9588,-56.3733C597.5207,-47.021 644.0826,-32.7725 677.5261,-22.5385"/>
<polygon fill="#191970" stroke="#191970" points="678.9136,-25.7742 687.4517,-19.5011 676.8652,-19.0806 678.9136,-25.7742"/>
</g>
</g>
</svg>
