<?xml version="1.0" encoding="UTF-8" standalone="no"?>
<!DOCTYPE svg PUBLIC "-//W3C//DTD SVG 1.1//EN"
 "http://www.w3.org/Graphics/SVG/1.1/DTD/svg11.dtd">
<!-- Generated by graphviz version 2.40.1 (20161225.0304)
 -->
<!-- Title: configlib.hpp Pages: 1 -->
<svg width="1036pt" height="588pt"
 viewBox="0.00 0.00 1035.54 588.00" xmlns="http://www.w3.org/2000/svg" xmlns:xlink="http://www.w3.org/1999/xlink">
<g id="graph0" class="graph" transform="scale(1 1) rotate(0) translate(4 584)">
<title>configlib.hpp</title>
<polygon fill="#ffffff" stroke="transparent" points="-4,4 -4,-584 1031.5447,-584 1031.5447,4 -4,4"/>
<!-- Node6 -->
<g id="node1" class="node">
<title>Node6</title>
<polygon fill="#bfbfbf" stroke="#000000" points="371.5447,-560.5 371.5447,-579.5 442.5447,-579.5 442.5447,-560.5 371.5447,-560.5"/>
<text text-anchor="middle" x="407.0447" y="-567.5" font-family="Helvetica,sans-Serif" font-size="10.00" fill="#000000">configlib.hpp</text>
</g>
<!-- Node7 -->
<g id="node2" class="node">
<title>Node7</title>
<g id="a_node2"><a xlink:href="alib_8hpp.html" target="_top" xlink:title="alib.hpp">
<polygon fill="#ffffff" stroke="#000000" points="440.0447,-504.5 440.0447,-523.5 490.0447,-523.5 490.0447,-504.5 440.0447,-504.5"/>
<text text-anchor="middle" x="465.0447" y="-511.5" font-family="Helvetica,sans-Serif" font-size="10.00" fill="#000000">alib.hpp</text>
</a>
</g>
</g>
<!-- Node6&#45;&gt;Node7 -->
<g id="edge1" class="edge">
<title>Node6&#45;&gt;Node7</title>
<path fill="none" stroke="#191970" d="M424.574,-553.0751C434.553,-543.4402 446.6923,-531.7196 455.0576,-523.6427"/>
<polygon fill="#191970" stroke="#191970" points="421.9105,-550.7817 417.1475,-560.2455 426.7726,-555.8175 421.9105,-550.7817"/>
</g>
<!-- Node51 -->
<g id="node3" class="node">
<title>Node51</title>
<g id="a_node3"><a xlink:href="variable_8hpp.html" target="_top" xlink:title="variable.hpp">
<polygon fill="#ffffff" stroke="#000000" points="287.5447,-504.5 287.5447,-523.5 356.5447,-523.5 356.5447,-504.5 287.5447,-504.5"/>
<text text-anchor="middle" x="322.0447" y="-511.5" font-family="Helvetica,sans-Serif" font-size="10.00" fill="#000000">variable.hpp</text>
</a>
</g>
</g>
<!-- Node6&#45;&gt;Node51 -->
<g id="edge2" class="edge">
<title>Node6&#45;&gt;Node51</title>
<path fill="none" stroke="#191970" d="M383.5028,-554.49C368.5057,-544.6096 349.5474,-532.1194 336.6809,-523.6427"/>
<polygon fill="#191970" stroke="#191970" points="381.9626,-557.6666 392.2388,-560.2455 385.8137,-551.8212 381.9626,-557.6666"/>
</g>
<!-- Node8 -->
<g id="node4" class="node">
<title>Node8</title>
<g id="a_node4"><a xlink:href="alox_2alox_8hpp.html" target="_top" xlink:title="alox.hpp">
<polygon fill="#ffffff" stroke="#000000" points="510.5447,-280.5 510.5447,-299.5 563.5447,-299.5 563.5447,-280.5 510.5447,-280.5"/>
<text text-anchor="middle" x="537.0447" y="-287.5" font-family="Helvetica,sans-Serif" font-size="10.00" fill="#000000">alox.hpp</text>
</a>
</g>
</g>
<!-- Node7&#45;&gt;Node8 -->
<g id="edge3" class="edge">
<title>Node7&#45;&gt;Node8</title>
<path fill="none" stroke="#191970" d="M483.2503,-497.1606C491.028,-489.0434 499.56,-478.7461 505.0447,-468 534.8765,-409.5506 537.3272,-327.8977 537.2215,-299.8859"/>
<polygon fill="#191970" stroke="#191970" points="480.4993,-494.9596 475.8649,-504.487 485.4292,-499.9291 480.4993,-494.9596"/>
</g>
<!-- Node26 -->
<g id="node5" class="node">
<title>Node26</title>
<g id="a_node5"><a xlink:href="owner_8hpp.html" target="_top" xlink:title="owner.hpp">
<polygon fill="#ffffff" stroke="#000000" points="434.5447,-448.5 434.5447,-467.5 495.5447,-467.5 495.5447,-448.5 434.5447,-448.5"/>
<text text-anchor="middle" x="465.0447" y="-455.5" font-family="Helvetica,sans-Serif" font-size="10.00" fill="#000000">owner.hpp</text>
</a>
</g>
</g>
<!-- Node7&#45;&gt;Node26 -->
<g id="edge4" class="edge">
<title>Node7&#45;&gt;Node26</title>
<path fill="none" stroke="#191970" d="M465.0447,-494.1575C465.0447,-485.155 465.0447,-474.9199 465.0447,-467.6427"/>
<polygon fill="#191970" stroke="#191970" points="461.5448,-494.2455 465.0447,-504.2455 468.5448,-494.2456 461.5448,-494.2455"/>
</g>
<!-- Node29 -->
<g id="node24" class="node">
<title>Node29</title>
<g id="a_node24"><a xlink:href="configuration_8hpp.html" target="_top" xlink:title="configuration.hpp">
<polygon fill="#ffffff" stroke="#ff0000" points="225.5447,-336.5 225.5447,-355.5 316.5447,-355.5 316.5447,-336.5 225.5447,-336.5"/>
<text text-anchor="middle" x="271.0447" y="-343.5" font-family="Helvetica,sans-Serif" font-size="10.00" fill="#000000">configuration.hpp</text>
</a>
</g>
</g>
<!-- Node51&#45;&gt;Node29 -->
<g id="edge44" class="edge">
<title>Node51&#45;&gt;Node29</title>
<path fill="none" stroke="#191970" d="M301.711,-497.3018C293.4993,-489.347 284.8438,-479.1389 280.0447,-468 263.3218,-429.1853 267.1594,-376.9952 269.6974,-355.6786"/>
<polygon fill="#191970" stroke="#191970" points="299.5502,-500.0671 309.3078,-504.195 304.254,-494.8831 299.5502,-500.0671"/>
</g>
<!-- Node52 -->
<g id="node25" class="node">
<title>Node52</title>
<g id="a_node25"><a xlink:href="plugins_8hpp.html" target="_top" xlink:title="plugins.hpp">
<polygon fill="#ffffff" stroke="#000000" points="289.0447,-448.5 289.0447,-467.5 355.0447,-467.5 355.0447,-448.5 289.0447,-448.5"/>
<text text-anchor="middle" x="322.0447" y="-455.5" font-family="Helvetica,sans-Serif" font-size="10.00" fill="#000000">plugins.hpp</text>
</a>
</g>
</g>
<!-- Node51&#45;&gt;Node52 -->
<g id="edge45" class="edge">
<title>Node51&#45;&gt;Node52</title>
<path fill="none" stroke="#191970" d="M322.0447,-494.1575C322.0447,-485.155 322.0447,-474.9199 322.0447,-467.6427"/>
<polygon fill="#191970" stroke="#191970" points="318.5448,-494.2455 322.0447,-504.2455 325.5448,-494.2456 318.5448,-494.2455"/>
</g>
<!-- Node9 -->
<g id="node6" class="node">
<title>Node9</title>
<g id="a_node6"><a xlink:href="log_8hpp.html" target="_top" xlink:title="log.hpp">
<polygon fill="#ffffff" stroke="#000000" points="824.0447,-224.5 824.0447,-243.5 872.0447,-243.5 872.0447,-224.5 824.0447,-224.5"/>
<text text-anchor="middle" x="848.0447" y="-231.5" font-family="Helvetica,sans-Serif" font-size="10.00" fill="#000000">log.hpp</text>
</a>
</g>
</g>
<!-- Node8&#45;&gt;Node9 -->
<g id="edge5" class="edge">
<title>Node8&#45;&gt;Node9</title>
<path fill="none" stroke="#191970" d="M573.8527,-283.9694C625.135,-276.1311 720.3814,-261.3722 801.0447,-244 808.3805,-242.4201 816.4281,-240.3516 823.9353,-238.5061"/>
<polygon fill="#191970" stroke="#191970" points="573.2558,-280.5199 563.8988,-285.4895 574.3126,-287.4397 573.2558,-280.5199"/>
</g>
<!-- Node10 -->
<g id="node7" class="node">
<title>Node10</title>
<g id="a_node7"><a xlink:href="lox_8hpp.html" target="_top" xlink:title="lox.hpp">
<polygon fill="#ffffff" stroke="#000000" points="189.0447,-168.5 189.0447,-187.5 237.0447,-187.5 237.0447,-168.5 189.0447,-168.5"/>
<text text-anchor="middle" x="213.0447" y="-175.5" font-family="Helvetica,sans-Serif" font-size="10.00" fill="#000000">lox.hpp</text>
</a>
</g>
</g>
<!-- Node8&#45;&gt;Node10 -->
<g id="edge6" class="edge">
<title>Node8&#45;&gt;Node10</title>
<path fill="none" stroke="#191970" d="M500.1151,-288.8735C428.0166,-285.8885 272.7244,-275.6938 232.0447,-244 214.1748,-230.0775 207.5615,-202.5925 208.4654,-187.8661"/>
<polygon fill="#191970" stroke="#191970" points="500.4058,-292.3873 510.5341,-289.2781 500.6775,-285.3926 500.4058,-292.3873"/>
</g>
<!-- Node11 -->
<g id="node8" class="node">
<title>Node11</title>
<g id="a_node8"><a xlink:href="domain_8hpp.html" target="_top" xlink:title="domain.hpp">
<polygon fill="#ffffff" stroke="#000000" points="108.5447,-224.5 108.5447,-243.5 175.5447,-243.5 175.5447,-224.5 108.5447,-224.5"/>
<text text-anchor="middle" x="142.0447" y="-231.5" font-family="Helvetica,sans-Serif" font-size="10.00" fill="#000000">domain.hpp</text>
</a>
</g>
</g>
<!-- Node8&#45;&gt;Node11 -->
<g id="edge7" class="edge">
<title>Node8&#45;&gt;Node11</title>
<path fill="none" stroke="#191970" d="M500.0813,-286.0051C436.5097,-278.9326 302.4596,-263.1343 190.0447,-244 185.3454,-243.2001 180.4052,-242.2717 175.5543,-241.3092"/>
<polygon fill="#191970" stroke="#191970" points="500.065,-289.5246 510.3889,-287.144 500.8338,-282.5669 500.065,-289.5246"/>
</g>
<!-- Node12 -->
<g id="node9" class="node">
<title>Node12</title>
<g id="a_node9"><a xlink:href="logger_8hpp.html" target="_top" xlink:title="logger.hpp">
<polygon fill="#ffffff" stroke="#000000" points="428.5447,-224.5 428.5447,-243.5 489.5447,-243.5 489.5447,-224.5 428.5447,-224.5"/>
<text text-anchor="middle" x="459.0447" y="-231.5" font-family="Helvetica,sans-Serif" font-size="10.00" fill="#000000">logger.hpp</text>
</a>
</g>
</g>
<!-- Node8&#45;&gt;Node12 -->
<g id="edge8" class="edge">
<title>Node8&#45;&gt;Node12</title>
<path fill="none" stroke="#191970" d="M515.0511,-274.2097C501.3518,-264.3743 484.171,-252.0394 472.4755,-243.6427"/>
<polygon fill="#191970" stroke="#191970" points="513.2936,-277.2566 523.4581,-280.2455 517.3761,-271.5703 513.2936,-277.2566"/>
</g>
<!-- Node13 -->
<g id="node10" class="node">
<title>Node13</title>
<g id="a_node10"><a xlink:href="textlogger_8hpp.html" target="_top" xlink:title="textlogger.hpp">
<polygon fill="#ffffff" stroke="#000000" points="584.5447,-168.5 584.5447,-187.5 661.5447,-187.5 661.5447,-168.5 584.5447,-168.5"/>
<text text-anchor="middle" x="623.0447" y="-175.5" font-family="Helvetica,sans-Serif" font-size="10.00" fill="#000000">textlogger.hpp</text>
</a>
</g>
</g>
<!-- Node8&#45;&gt;Node13 -->
<g id="edge9" class="edge">
<title>Node8&#45;&gt;Node13</title>
<path fill="none" stroke="#191970" d="M550.704,-272.2111C569.1419,-248.1989 601.339,-206.2679 615.7309,-187.5249"/>
<polygon fill="#191970" stroke="#191970" points="547.6913,-270.3878 544.377,-280.4509 553.2433,-274.651 547.6913,-270.3878"/>
</g>
<!-- Node14 -->
<g id="node11" class="node">
<title>Node14</title>
<g id="a_node11"><a xlink:href="plaintextlogger_8hpp.html" target="_top" xlink:title="plaintextlogger.hpp">
<polygon fill="#ffffff" stroke="#000000" points="786.0447,-112.5 786.0447,-131.5 884.0447,-131.5 884.0447,-112.5 786.0447,-112.5"/>
<text text-anchor="middle" x="835.0447" y="-119.5" font-family="Helvetica,sans-Serif" font-size="10.00" fill="#000000">plaintextlogger.hpp</text>
</a>
</g>
</g>
<!-- Node8&#45;&gt;Node14 -->
<g id="edge10" class="edge">
<title>Node8&#45;&gt;Node14</title>
<path fill="none" stroke="#191970" d="M574.1613,-286.6722C632.2746,-280.8225 741.2878,-267.0777 772.0447,-244 810.7513,-214.9574 827.686,-155.261 833.039,-131.7878"/>
<polygon fill="#191970" stroke="#191970" points="573.5446,-283.2158 563.933,-287.6731 574.2264,-290.1825 573.5446,-283.2158"/>
</g>
<!-- Node15 -->
<g id="node12" class="node">
<title>Node15</title>
<g id="a_node12"><a xlink:href="consolelogger_8hpp.html" target="_top" xlink:title="consolelogger.hpp">
<polygon fill="#ffffff" stroke="#000000" points="932.5447,-56.5 932.5447,-75.5 1027.5447,-75.5 1027.5447,-56.5 932.5447,-56.5"/>
<text text-anchor="middle" x="980.0447" y="-63.5" font-family="Helvetica,sans-Serif" font-size="10.00" fill="#000000">consolelogger.hpp</text>
</a>
</g>
</g>
<!-- Node8&#45;&gt;Node15 -->
<g id="edge11" class="edge">
<title>Node8&#45;&gt;Node15</title>
<path fill="none" stroke="#191970" d="M573.544,-287.4411C660.7691,-281.0397 876.0152,-263.4441 902.0447,-244 959.6196,-200.9913 975.3838,-106.3266 979.0552,-75.7387"/>
<polygon fill="#191970" stroke="#191970" points="573.2831,-283.9508 563.5628,-288.1657 573.79,-290.9324 573.2831,-283.9508"/>
</g>
<!-- Node16 -->
<g id="node13" class="node">
<title>Node16</title>
<g id="a_node13"><a xlink:href="alox_8hpp_source.html" target="_top" xlink:title="alox.hpp">
<polygon fill="#ffffff" stroke="#000000" points="545.5447,-.5 545.5447,-19.5 598.5447,-19.5 598.5447,-.5 545.5447,-.5"/>
<text text-anchor="middle" x="572.0447" y="-7.5" font-family="Helvetica,sans-Serif" font-size="10.00" fill="#000000">alox.hpp</text>
</a>
</g>
</g>
<!-- Node8&#45;&gt;Node16 -->
<g id="edge12" class="edge">
<title>Node8&#45;&gt;Node16</title>
<path fill="none" stroke="#191970" d="M500.6799,-284.3257C474.8246,-278.4617 441.0816,-266.7993 420.0447,-244 399.2596,-221.4736 400.0447,-208.6506 400.0447,-178 400.0447,-178 400.0447,-178 400.0447,-122 400.0447,-53.583 496.7947,-24.7915 545.1697,-14.6718"/>
<polygon fill="#191970" stroke="#191970" points="500.0085,-287.7609 510.5112,-286.3669 501.4315,-280.907 500.0085,-287.7609"/>
</g>
<!-- Node17 -->
<g id="node14" class="node">
<title>Node17</title>
<g id="a_node14"><a xlink:href="memorylogger_8hpp.html" target="_top" xlink:title="memorylogger.hpp">
<polygon fill="#ffffff" stroke="#000000" points="710.0447,-56.5 710.0447,-75.5 806.0447,-75.5 806.0447,-56.5 710.0447,-56.5"/>
<text text-anchor="middle" x="758.0447" y="-63.5" font-family="Helvetica,sans-Serif" font-size="10.00" fill="#000000">memorylogger.hpp</text>
</a>
</g>
</g>
<!-- Node8&#45;&gt;Node17 -->
<g id="edge13" class="edge">
<title>Node8&#45;&gt;Node17</title>
<path fill="none" stroke="#191970" d="M574.1169,-286.6503C626.3163,-281.1206 717.5284,-268.2071 739.0447,-244 782.8157,-194.755 767.121,-105.0012 760.4329,-75.6031"/>
<polygon fill="#191970" stroke="#191970" points="573.5131,-283.1936 563.9194,-287.6893 574.2227,-290.1576 573.5131,-283.1936"/>
</g>
<!-- Node18 -->
<g id="node15" class="node">
<title>Node18</title>
<g id="a_node15"><a xlink:href="textfilelogger_8hpp.html" target="_top" xlink:title="textfilelogger.hpp">
<polygon fill="#ffffff" stroke="#000000" points="824.0447,-56.5 824.0447,-75.5 914.0447,-75.5 914.0447,-56.5 824.0447,-56.5"/>
<text text-anchor="middle" x="869.0447" y="-63.5" font-family="Helvetica,sans-Serif" font-size="10.00" fill="#000000">textfilelogger.hpp</text>
</a>
</g>
</g>
<!-- Node8&#45;&gt;Node18 -->
<g id="edge14" class="edge">
<title>Node8&#45;&gt;Node18</title>
<path fill="none" stroke="#191970" d="M573.8392,-287.6211C658.1735,-281.8144 859.8264,-265.7815 881.0447,-244 922.1502,-201.8033 907.0728,-169.2139 893.0447,-112 889.7413,-98.5272 881.7272,-84.6175 875.8655,-75.672"/>
<polygon fill="#191970" stroke="#191970" points="573.4257,-284.141 563.6854,-288.3097 573.8993,-291.125 573.4257,-284.141"/>
</g>
<!-- Node19 -->
<g id="node16" class="node">
<title>Node19</title>
<g id="a_node16"><a xlink:href="vstudiologger_8hpp.html" target="_top" xlink:title="vstudiologger.hpp">
<polygon fill="#ffffff" stroke="#000000" points="600.0447,-56.5 600.0447,-75.5 692.0447,-75.5 692.0447,-56.5 600.0447,-56.5"/>
<text text-anchor="middle" x="646.0447" y="-63.5" font-family="Helvetica,sans-Serif" font-size="10.00" fill="#000000">vstudiologger.hpp</text>
</a>
</g>
</g>
<!-- Node8&#45;&gt;Node19 -->
<g id="edge15" class="edge">
<title>Node8&#45;&gt;Node19</title>
<path fill="none" stroke="#191970" d="M528.3129,-271.0606C510.2677,-230.6141 472.0777,-137.4135 491.0447,-112 504.1821,-94.3974 559.1839,-81.1255 599.9546,-73.4679"/>
<polygon fill="#191970" stroke="#191970" points="525.2032,-272.6782 532.5164,-280.3443 531.58,-269.7909 525.2032,-272.6782"/>
</g>
<!-- Node20 -->
<g id="node17" class="node">
<title>Node20</title>
<g id="a_node17"><a xlink:href="ansilogger_8hpp.html" target="_top" xlink:title="ansilogger.hpp">
<polygon fill="#ffffff" stroke="#000000" points="650.5447,-112.5 650.5447,-131.5 729.5447,-131.5 729.5447,-112.5 650.5447,-112.5"/>
<text text-anchor="middle" x="690.0447" y="-119.5" font-family="Helvetica,sans-Serif" font-size="10.00" fill="#000000">ansilogger.hpp</text>
</a>
</g>
</g>
<!-- Node8&#45;&gt;Node20 -->
<g id="edge16" class="edge">
<title>Node8&#45;&gt;Node20</title>
<path fill="none" stroke="#191970" d="M565.5087,-275.5685C596.0428,-258.6508 643.8068,-227.7934 671.0447,-188 683.0328,-170.4858 687.5357,-145.4189 689.1667,-131.7698"/>
<polygon fill="#191970" stroke="#191970" points="563.7626,-272.5336 556.6275,-280.3657 567.0894,-278.6926 563.7626,-272.5336"/>
</g>
<!-- Node21 -->
<g id="node18" class="node">
<title>Node21</title>
<g id="a_node18"><a xlink:href="windowsconsolelogger_8hpp.html" target="_top" xlink:title="windowsconsolelogger.hpp">
<polygon fill="#ffffff" stroke="#000000" points="499.5447,-112.5 499.5447,-131.5 632.5447,-131.5 632.5447,-112.5 499.5447,-112.5"/>
<text text-anchor="middle" x="566.0447" y="-119.5" font-family="Helvetica,sans-Serif" font-size="10.00" fill="#000000">windowsconsolelogger.hpp</text>
</a>
</g>
</g>
<!-- Node8&#45;&gt;Node21 -->
<g id="edge17" class="edge">
<title>Node8&#45;&gt;Node21</title>
<path fill="none" stroke="#191970" d="M540.4522,-270.2601C546.6825,-234.1669 559.6982,-158.7656 564.3482,-131.8279"/>
<polygon fill="#191970" stroke="#191970" points="536.9391,-270.0366 538.6869,-280.4862 543.837,-271.2274 536.9391,-270.0366"/>
</g>
<!-- Node22 -->
<g id="node19" class="node">
<title>Node22</title>
<g id="a_node19"><a xlink:href="scopedump_8hpp.html" target="_top" xlink:title="scopedump.hpp">
<polygon fill="#ffffff" stroke="#000000" points="271.0447,-168.5 271.0447,-187.5 357.0447,-187.5 357.0447,-168.5 271.0447,-168.5"/>
<text text-anchor="middle" x="314.0447" y="-175.5" font-family="Helvetica,sans-Serif" font-size="10.00" fill="#000000">scopedump.hpp</text>
</a>
</g>
</g>
<!-- Node8&#45;&gt;Node22 -->
<g id="edge18" class="edge">
<title>Node8&#45;&gt;Node22</title>
<path fill="none" stroke="#191970" d="M500.3374,-283.5982C468.5687,-276.9725 422.1791,-264.6329 386.0447,-244 359.2441,-228.6968 334.1595,-201.7943 321.8968,-187.52"/>
<polygon fill="#191970" stroke="#191970" points="500.0229,-287.1044 510.5146,-285.6299 501.3933,-280.2399 500.0229,-287.1044"/>
</g>
<!-- Node23 -->
<g id="node20" class="node">
<title>Node23</title>
<g id="a_node20"><a xlink:href="scopestore_8hpp.html" target="_top" xlink:title="scopestore.hpp">
<polygon fill="#ffffff" stroke="#000000" points="250.5447,-224.5 250.5447,-243.5 333.5447,-243.5 333.5447,-224.5 250.5447,-224.5"/>
<text text-anchor="middle" x="292.0447" y="-231.5" font-family="Helvetica,sans-Serif" font-size="10.00" fill="#000000">scopestore.hpp</text>
</a>
</g>
</g>
<!-- Node8&#45;&gt;Node23 -->
<g id="edge19" class="edge">
<title>Node8&#45;&gt;Node23</title>
<path fill="none" stroke="#191970" d="M500.5225,-281.6521C455.9208,-271.4574 380.6485,-254.2523 333.7954,-243.543"/>
<polygon fill="#191970" stroke="#191970" points="499.8305,-285.0841 510.359,-283.9004 501.3903,-278.2601 499.8305,-285.0841"/>
</g>
<!-- Node24 -->
<g id="node21" class="node">
<title>Node24</title>
<g id="a_node21"><a xlink:href="scopeinfo_8hpp.html" target="_top" xlink:title="scopeinfo.hpp">
<polygon fill="#ffffff" stroke="#000000" points="13.5447,-224.5 13.5447,-243.5 90.5447,-243.5 90.5447,-224.5 13.5447,-224.5"/>
<text text-anchor="middle" x="52.0447" y="-231.5" font-family="Helvetica,sans-Serif" font-size="10.00" fill="#000000">scopeinfo.hpp</text>
</a>
</g>
</g>
<!-- Node8&#45;&gt;Node24 -->
<g id="edge20" class="edge">
<title>Node8&#45;&gt;Node24</title>
<path fill="none" stroke="#191970" d="M500.1056,-287.4373C424.4999,-281.9027 246.7793,-267.4079 99.0447,-244 96.3256,-243.5692 93.5266,-243.0833 90.7133,-242.5636"/>
<polygon fill="#191970" stroke="#191970" points="500.2776,-290.9588 510.5039,-288.1889 500.7822,-283.977 500.2776,-290.9588"/>
</g>
<!-- Node25 -->
<g id="node22" class="node">
<title>Node25</title>
<g id="a_node22"><a xlink:href="logtools_8hpp.html" target="_top" xlink:title="logtools.hpp">
<polygon fill="#ffffff" stroke="#000000" points="660.5447,-224.5 660.5447,-243.5 729.5447,-243.5 729.5447,-224.5 660.5447,-224.5"/>
<text text-anchor="middle" x="695.0447" y="-231.5" font-family="Helvetica,sans-Serif" font-size="10.00" fill="#000000">logtools.hpp</text>
</a>
</g>
</g>
<!-- Node8&#45;&gt;Node25 -->
<g id="edge21" class="edge">
<title>Node8&#45;&gt;Node25</title>
<path fill="none" stroke="#191970" d="M573.5692,-277.0546C602.4374,-266.8228 642.0748,-252.7741 668.1106,-243.5462"/>
<polygon fill="#191970" stroke="#191970" points="572.1035,-273.8607 563.8472,-280.5004 574.442,-280.4585 572.1035,-273.8607"/>
</g>
<!-- Node27 -->
<g id="node23" class="node">
<title>Node27</title>
<g id="a_node23"><a xlink:href="threadlocknr_8hpp.html" target="_top" xlink:title="threadlocknr.hpp">
<polygon fill="#ffffff" stroke="#ff0000" points="421.0447,-392.5 421.0447,-411.5 509.0447,-411.5 509.0447,-392.5 421.0447,-392.5"/>
<text text-anchor="middle" x="465.0447" y="-399.5" font-family="Helvetica,sans-Serif" font-size="10.00" fill="#000000">threadlocknr.hpp</text>
</a>
</g>
</g>
<!-- Node26&#45;&gt;Node27 -->
<g id="edge41" class="edge">
<title>Node26&#45;&gt;Node27</title>
<path fill="none" stroke="#191970" d="M465.0447,-438.1575C465.0447,-429.155 465.0447,-418.9199 465.0447,-411.6427"/>
<polygon fill="#191970" stroke="#191970" points="461.5448,-438.2455 465.0447,-448.2455 468.5448,-438.2456 461.5448,-438.2455"/>
</g>
<!-- Node9&#45;&gt;Node8 -->
<g id="edge22" class="edge">
<title>Node9&#45;&gt;Node8</title>
<path fill="none" stroke="#191970" d="M813.8572,-245.0491C718.655,-265.1038 612.4197,-280.7353 563.6267,-287.0225"/>
<polygon fill="#191970" stroke="#191970" points="814.8698,-248.4119 823.9201,-242.9035 813.4101,-241.5658 814.8698,-248.4119"/>
</g>
<!-- Node10&#45;&gt;Node8 -->
<g id="edge23" class="edge">
<title>Node10&#45;&gt;Node8</title>
<path fill="none" stroke="#191970" d="M223.3052,-197.3218C228.4373,-212.4226 235.5254,-232.6879 250.0447,-244 290.864,-275.8025 447.084,-285.9582 510.3995,-288.904"/>
<polygon fill="#191970" stroke="#191970" points="226.6031,-196.1495 219.9974,-187.8661 219.9958,-198.4609 226.6031,-196.1495"/>
</g>
<!-- Node11&#45;&gt;Node10 -->
<g id="edge24" class="edge">
<title>Node11&#45;&gt;Node10</title>
<path fill="none" stroke="#191970" d="M162.4216,-217.928C174.8318,-208.1397 190.2746,-195.9595 200.8191,-187.6427"/>
<polygon fill="#191970" stroke="#191970" points="160.0961,-215.3046 154.4119,-224.2455 164.4311,-220.8007 160.0961,-215.3046"/>
</g>
<!-- Node12&#45;&gt;Node10 -->
<g id="edge25" class="edge">
<title>Node12&#45;&gt;Node10</title>
<path fill="none" stroke="#191970" d="M418.5596,-224.7839C366.9044,-213.025 279.215,-193.0632 237.0669,-183.4685"/>
<polygon fill="#191970" stroke="#191970" points="417.8585,-228.2138 428.386,-227.0208 419.4123,-221.3884 417.8585,-228.2138"/>
</g>
<!-- Node12&#45;&gt;Node13 -->
<g id="edge26" class="edge">
<title>Node12&#45;&gt;Node13</title>
<path fill="none" stroke="#191970" d="M496.9491,-221.057C526.963,-210.8084 568.1954,-196.729 595.22,-187.5011"/>
<polygon fill="#191970" stroke="#191970" points="495.5698,-217.8295 487.2373,-224.3733 497.8318,-224.454 495.5698,-217.8295"/>
</g>
<!-- Node13&#45;&gt;Node14 -->
<g id="edge27" class="edge">
<title>Node13&#45;&gt;Node14</title>
<path fill="none" stroke="#191970" d="M669.5336,-165.7199C708.5155,-155.4228 763.3825,-140.9296 799.0761,-131.5011"/>
<polygon fill="#191970" stroke="#191970" points="668.2633,-162.4353 659.4888,-168.3733 670.051,-169.2032 668.2633,-162.4353"/>
</g>
<!-- Node13&#45;&gt;Node20 -->
<g id="edge28" class="edge">
<title>Node13&#45;&gt;Node20</title>
<path fill="none" stroke="#191970" d="M642.6122,-161.645C654.2645,-151.9058 668.6531,-139.8795 678.5079,-131.6427"/>
<polygon fill="#191970" stroke="#191970" points="640.1434,-159.1469 634.7152,-168.2455 644.6326,-164.5179 640.1434,-159.1469"/>
</g>
<!-- Node13&#45;&gt;Node21 -->
<g id="edge29" class="edge">
<title>Node13&#45;&gt;Node21</title>
<path fill="none" stroke="#191970" d="M605.8176,-161.0751C596.0106,-151.4402 584.0807,-139.7196 575.8595,-131.6427"/>
<polygon fill="#191970" stroke="#191970" points="603.5298,-163.734 613.116,-168.2455 608.4355,-158.7406 603.5298,-163.734"/>
</g>
<!-- Node14&#45;&gt;Node15 -->
<g id="edge30" class="edge">
<title>Node14&#45;&gt;Node15</title>
<path fill="none" stroke="#191970" d="M869.6011,-108.6541C896.0433,-98.4419 931.8616,-84.6086 955.4436,-75.5011"/>
<polygon fill="#191970" stroke="#191970" points="868.0386,-105.5055 859.9711,-112.3733 870.5605,-112.0354 868.0386,-105.5055"/>
</g>
<!-- Node14&#45;&gt;Node17 -->
<g id="edge31" class="edge">
<title>Node14&#45;&gt;Node17</title>
<path fill="none" stroke="#191970" d="M813.333,-106.2097C799.8094,-96.3743 782.8489,-84.0394 771.3034,-75.6427"/>
<polygon fill="#191970" stroke="#191970" points="811.4863,-109.1944 821.6323,-112.2455 815.6035,-103.5332 811.4863,-109.1944"/>
</g>
<!-- Node14&#45;&gt;Node18 -->
<g id="edge32" class="edge">
<title>Node14&#45;&gt;Node18</title>
<path fill="none" stroke="#191970" d="M846.1981,-103.6296C851.8694,-94.2887 858.5291,-83.3197 863.1902,-75.6427"/>
<polygon fill="#191970" stroke="#191970" points="843.1651,-101.8812 840.967,-112.2455 849.1486,-105.5141 843.1651,-101.8812"/>
</g>
<!-- Node14&#45;&gt;Node19 -->
<g id="edge33" class="edge">
<title>Node14&#45;&gt;Node19</title>
<path fill="none" stroke="#191970" d="M792.709,-109.4561C758.0153,-99.1765 709.6613,-84.8494 678.111,-75.5011"/>
<polygon fill="#191970" stroke="#191970" points="791.9721,-112.8881 802.5544,-112.3733 793.9608,-106.1765 791.9721,-112.8881"/>
</g>
<!-- Node15&#45;&gt;Node16 -->
<g id="edge34" class="edge">
<title>Node15&#45;&gt;Node16</title>
<path fill="none" stroke="#191970" d="M922.5532,-55.9811C795.1674,-36.6481 656.347,-19.8702 598.9623,-13.124"/>
<polygon fill="#191970" stroke="#191970" points="922.0706,-59.4479 932.4843,-57.4972 923.127,-52.5281 922.0706,-59.4479"/>
</g>
<!-- Node19&#45;&gt;Node16 -->
<g id="edge35" class="edge">
<title>Node19&#45;&gt;Node16</title>
<path fill="none" stroke="#191970" d="M625.179,-50.2097C612.1822,-40.3743 595.8825,-28.0394 584.7868,-19.6427"/>
<polygon fill="#191970" stroke="#191970" points="623.0687,-53.002 633.1549,-56.2455 627.2928,-47.4201 623.0687,-53.002"/>
</g>
<!-- Node20&#45;&gt;Node16 -->
<g id="edge36" class="edge">
<title>Node20&#45;&gt;Node16</title>
<path fill="none" stroke="#191970" d="M641.7762,-109.0069C623.6212,-101.9291 604.2093,-91.3762 591.0447,-76 577.0861,-59.6965 573.3635,-33.6904 572.3834,-19.6862"/>
<polygon fill="#191970" stroke="#191970" points="640.8052,-112.3778 651.3994,-112.4942 643.1901,-105.7965 640.8052,-112.3778"/>
</g>
<!-- Node21&#45;&gt;Node16 -->
<g id="edge37" class="edge">
<title>Node21&#45;&gt;Node16</title>
<path fill="none" stroke="#191970" d="M560.8924,-102.3063C558.1343,-89.1668 555.7353,-71.5193 558.0447,-56 559.9614,-43.1193 564.7408,-28.8554 568.1823,-19.6772"/>
<polygon fill="#191970" stroke="#191970" points="557.5072,-103.201 563.1983,-112.1376 564.3223,-101.6026 557.5072,-103.201"/>
</g>
<!-- Node23&#45;&gt;Node10 -->
<g id="edge38" class="edge">
<title>Node23&#45;&gt;Node10</title>
<path fill="none" stroke="#191970" d="M269.7691,-218.2097C255.8942,-208.3743 238.4932,-196.0394 226.6477,-187.6427"/>
<polygon fill="#191970" stroke="#191970" points="268.1016,-221.3178 278.2839,-224.2455 272.1498,-215.6071 268.1016,-221.3178"/>
</g>
<!-- Node23&#45;&gt;Node22 -->
<g id="edge39" class="edge">
<title>Node23&#45;&gt;Node22</title>
<path fill="none" stroke="#191970" d="M299.6075,-214.7493C303.1993,-205.6064 307.3347,-195.0798 310.2565,-187.6427"/>
<polygon fill="#191970" stroke="#191970" points="296.2757,-213.6582 295.8768,-224.2455 302.791,-216.2178 296.2757,-213.6582"/>
</g>
<!-- Node24&#45;&gt;Node10 -->
<g id="edge40" class="edge">
<title>Node24&#45;&gt;Node10</title>
<path fill="none" stroke="#191970" d="M89.2208,-221.0692C119.8808,-210.4048 162.4834,-195.5865 188.8801,-186.4051"/>
<polygon fill="#191970" stroke="#191970" points="88.0167,-217.7822 79.7216,-224.3733 90.3164,-224.3937 88.0167,-217.7822"/>
</g>
<!-- Node29&#45;&gt;Node8 -->
<g id="edge42" class="edge">
<title>Node29&#45;&gt;Node8</title>
<path fill="none" stroke="#191970" d="M326.2907,-334.3693C382.6228,-322.5099 467.6365,-304.6123 510.433,-295.6025"/>
<polygon fill="#191970" stroke="#191970" points="325.5339,-330.9518 316.4695,-336.4369 326.976,-337.8016 325.5339,-330.9518"/>
</g>
<!-- Node29&#45;&gt;Node10 -->
<g id="edge43" class="edge">
<title>Node29&#45;&gt;Node10</title>
<path fill="none" stroke="#191970" d="M220.7242,-333.9944C150.6281,-316.1357 29.3223,-280.716 4.0447,-244 -.9959,-236.6785 -1.5244,-230.9281 4.0447,-224 27.0308,-195.4045 138.9444,-183.5523 188.8921,-179.6287"/>
<polygon fill="#191970" stroke="#191970" points="220.1252,-337.4528 230.6771,-336.5 221.8341,-330.6646 220.1252,-337.4528"/>
</g>
<!-- Node52&#45;&gt;Node29 -->
<g id="edge46" class="edge">
<title>Node52&#45;&gt;Node29</title>
<path fill="none" stroke="#191970" d="M307.681,-440.2884C301.5669,-432.0697 294.7712,-421.9352 290.0447,-412 281.0292,-393.0495 275.4295,-368.9606 272.8102,-355.7557"/>
<polygon fill="#191970" stroke="#191970" points="305.0321,-442.5845 313.9179,-448.3546 310.5699,-438.3027 305.0321,-442.5845"/>
</g>
<!-- Node53 -->
<g id="node26" class="node">
<title>Node53</title>
<g id="a_node26"><a xlink:href="inmemoryplugin_8hpp.html" target="_top" xlink:title="inmemoryplugin.hpp">
<polygon fill="#ffffff" stroke="#ff0000" points="299.0447,-392.5 299.0447,-411.5 403.0447,-411.5 403.0447,-392.5 299.0447,-392.5"/>
<text text-anchor="middle" x="351.0447" y="-399.5" font-family="Helvetica,sans-Serif" font-size="10.00" fill="#000000">inmemoryplugin.hpp</text>
</a>
</g>
</g>
<!-- Node52&#45;&gt;Node53 -->
<g id="edge47" class="edge">
<title>Node52&#45;&gt;Node53</title>
<path fill="none" stroke="#191970" d="M331.7094,-439.3372C336.5133,-430.0605 342.1169,-419.2398 346.0511,-411.6427"/>
<polygon fill="#191970" stroke="#191970" points="328.5867,-437.7561 327.0961,-448.2455 334.8027,-440.9751 328.5867,-437.7561"/>
</g>
<!-- Node53&#45;&gt;Node29 -->
<g id="edge48" class="edge">
<title>Node53&#45;&gt;Node29</title>
<path fill="none" stroke="#191970" d="M328.8876,-386.49C314.7727,-376.6096 296.9295,-364.1194 284.8199,-355.6427"/>
<polygon fill="#191970" stroke="#191970" points="326.9103,-389.3782 337.1097,-392.2455 330.9245,-383.6436 326.9103,-389.3782"/>
</g>
</g>
</svg>
