<?xml version="1.0" encoding="UTF-8" standalone="no"?>
<!DOCTYPE svg PUBLIC "-//W3C//DTD SVG 1.1//EN"
 "http://www.w3.org/Graphics/SVG/1.1/DTD/svg11.dtd">
<!-- Generated by graphviz version 2.40.1 (20161225.0304)
 -->
<!-- Title: configuration.hpp Pages: 1 -->
<svg width="1273pt" height="364pt"
 viewBox="0.00 0.00 1272.60 364.00" xmlns="http://www.w3.org/2000/svg" xmlns:xlink="http://www.w3.org/1999/xlink">
<g id="graph0" class="graph" transform="scale(1 1) rotate(0) translate(4 360)">
<title>configuration.hpp</title>
<polygon fill="#ffffff" stroke="transparent" points="-4,4 -4,-360 1268.6031,-360 1268.6031,4 -4,4"/>
<!-- Node71 -->
<g id="node1" class="node">
<title>Node71</title>
<polygon fill="#bfbfbf" stroke="#000000" points="558.1031,-336.5 558.1031,-355.5 649.1031,-355.5 649.1031,-336.5 558.1031,-336.5"/>
<text text-anchor="middle" x="603.6031" y="-343.5" font-family="Helvetica,sans-Serif" font-size="10.00" fill="#000000">configuration.hpp</text>
</g>
<!-- Node72 -->
<g id="node2" class="node">
<title>Node72</title>
<g id="a_node2"><a xlink:href="alox_2alox_8hpp.html" target="_top" xlink:title="alox.hpp">
<polygon fill="#ffffff" stroke="#000000" points="577.1031,-280.5 577.1031,-299.5 630.1031,-299.5 630.1031,-280.5 577.1031,-280.5"/>
<text text-anchor="middle" x="603.6031" y="-287.5" font-family="Helvetica,sans-Serif" font-size="10.00" fill="#000000">alox.hpp</text>
</a>
</g>
</g>
<!-- Node71&#45;&gt;Node72 -->
<g id="edge1" class="edge">
<title>Node71&#45;&gt;Node72</title>
<path fill="none" stroke="#191970" d="M603.6031,-326.1575C603.6031,-317.155 603.6031,-306.9199 603.6031,-299.6427"/>
<polygon fill="#191970" stroke="#191970" points="600.1032,-326.2455 603.6031,-336.2455 607.1032,-326.2456 600.1032,-326.2455"/>
</g>
<!-- Node74 -->
<g id="node3" class="node">
<title>Node74</title>
<g id="a_node3"><a xlink:href="lox_8hpp.html" target="_top" xlink:title="lox.hpp">
<polygon fill="#ffffff" stroke="#000000" points="411.6031,-168.5 411.6031,-187.5 459.6031,-187.5 459.6031,-168.5 411.6031,-168.5"/>
<text text-anchor="middle" x="435.6031" y="-175.5" font-family="Helvetica,sans-Serif" font-size="10.00" fill="#000000">lox.hpp</text>
</a>
</g>
</g>
<!-- Node71&#45;&gt;Node74 -->
<g id="edge2" class="edge">
<title>Node71&#45;&gt;Node74</title>
<path fill="none" stroke="#191970" d="M547.7467,-339.2934C451.9881,-326.5222 262.9606,-295.3151 223.6031,-244 218.1934,-236.9468 218.0238,-230.9198 223.6031,-224 247.0062,-194.9743 361.0272,-183.3303 411.4917,-179.544"/>
<polygon fill="#191970" stroke="#191970" points="547.4608,-342.7858 557.831,-340.6161 548.3712,-335.8453 547.4608,-342.7858"/>
</g>
<!-- Node90 -->
<g id="node4" class="node">
<title>Node90</title>
<g id="a_node4"><a xlink:href="compiler_8hpp_source.html" target="_top" xlink:title="compiler.hpp">
<polygon fill="#ffffff" stroke="#000000" points="866.1031,-280.5 866.1031,-299.5 937.1031,-299.5 937.1031,-280.5 866.1031,-280.5"/>
<text text-anchor="middle" x="901.6031" y="-287.5" font-family="Helvetica,sans-Serif" font-size="10.00" fill="#000000">compiler.hpp</text>
</a>
</g>
</g>
<!-- Node71&#45;&gt;Node90 -->
<g id="edge3" class="edge">
<title>Node71&#45;&gt;Node90</title>
<path fill="none" stroke="#191970" d="M659.3254,-335.5287C719.812,-324.1621 814.6051,-306.3486 865.8465,-296.7194"/>
<polygon fill="#191970" stroke="#191970" points="658.3688,-332.1471 649.1873,-337.4338 659.6617,-339.0267 658.3688,-332.1471"/>
</g>
<!-- Node72&#45;&gt;Node74 -->
<g id="edge5" class="edge">
<title>Node72&#45;&gt;Node74</title>
<path fill="none" stroke="#191970" d="M615.4512,-272.4191C626.6471,-258.411 639.3727,-238.7675 627.6031,-224 606.4629,-197.4752 506.4828,-185.014 459.617,-180.3298"/>
<polygon fill="#191970" stroke="#191970" points="612.592,-270.3842 608.9105,-280.3189 617.9838,-274.8484 612.592,-270.3842"/>
</g>
<!-- Node73 -->
<g id="node5" class="node">
<title>Node73</title>
<g id="a_node5"><a xlink:href="log_8hpp.html" target="_top" xlink:title="log.hpp">
<polygon fill="#ffffff" stroke="#000000" points="579.6031,-224.5 579.6031,-243.5 627.6031,-243.5 627.6031,-224.5 579.6031,-224.5"/>
<text text-anchor="middle" x="603.6031" y="-231.5" font-family="Helvetica,sans-Serif" font-size="10.00" fill="#000000">log.hpp</text>
</a>
</g>
</g>
<!-- Node72&#45;&gt;Node73 -->
<g id="edge4" class="edge">
<title>Node72&#45;&gt;Node73</title>
<path fill="none" stroke="#191970" d="M597.1144,-270.1575C596.5221,-261.155 596.9366,-250.9199 598.358,-243.6427"/>
<polygon fill="#191970" stroke="#191970" points="593.6592,-270.739 598.3363,-280.2455 600.6084,-269.8972 593.6592,-270.739"/>
</g>
<!-- Node75 -->
<g id="node6" class="node">
<title>Node75</title>
<g id="a_node6"><a xlink:href="domain_8hpp.html" target="_top" xlink:title="domain.hpp">
<polygon fill="#ffffff" stroke="#000000" points="312.1031,-224.5 312.1031,-243.5 379.1031,-243.5 379.1031,-224.5 312.1031,-224.5"/>
<text text-anchor="middle" x="345.6031" y="-231.5" font-family="Helvetica,sans-Serif" font-size="10.00" fill="#000000">domain.hpp</text>
</a>
</g>
</g>
<!-- Node72&#45;&gt;Node75 -->
<g id="edge6" class="edge">
<title>Node72&#45;&gt;Node75</title>
<path fill="none" stroke="#191970" d="M566.9597,-282.4748C523.9451,-273.5768 450.4893,-258.1805 387.6031,-244 384.9708,-243.4064 382.2483,-242.7821 379.513,-242.1473"/>
<polygon fill="#191970" stroke="#191970" points="566.4546,-285.9443 576.9558,-284.539 567.8702,-279.0889 566.4546,-285.9443"/>
</g>
<!-- Node76 -->
<g id="node7" class="node">
<title>Node76</title>
<g id="a_node7"><a xlink:href="logger_8hpp.html" target="_top" xlink:title="logger.hpp">
<polygon fill="#ffffff" stroke="#000000" points="233.1031,-224.5 233.1031,-243.5 294.1031,-243.5 294.1031,-224.5 233.1031,-224.5"/>
<text text-anchor="middle" x="263.6031" y="-231.5" font-family="Helvetica,sans-Serif" font-size="10.00" fill="#000000">logger.hpp</text>
</a>
</g>
</g>
<!-- Node72&#45;&gt;Node76 -->
<g id="edge7" class="edge">
<title>Node72&#45;&gt;Node76</title>
<path fill="none" stroke="#191970" d="M566.9151,-285.5882C510.0188,-278.4779 397.1995,-263.3063 302.6031,-244 299.8636,-243.4409 297.0281,-242.8124 294.1934,-242.1498"/>
<polygon fill="#191970" stroke="#191970" points="566.5167,-289.0655 576.8711,-286.8212 567.3772,-282.1186 566.5167,-289.0655"/>
</g>
<!-- Node77 -->
<g id="node8" class="node">
<title>Node77</title>
<g id="a_node8"><a xlink:href="textlogger_8hpp.html" target="_top" xlink:title="textlogger.hpp">
<polygon fill="#ffffff" stroke="#000000" points="138.1031,-168.5 138.1031,-187.5 215.1031,-187.5 215.1031,-168.5 138.1031,-168.5"/>
<text text-anchor="middle" x="176.6031" y="-175.5" font-family="Helvetica,sans-Serif" font-size="10.00" fill="#000000">textlogger.hpp</text>
</a>
</g>
</g>
<!-- Node72&#45;&gt;Node77 -->
<g id="edge8" class="edge">
<title>Node72&#45;&gt;Node77</title>
<path fill="none" stroke="#191970" d="M566.8709,-289.0191C464.2505,-285.9028 180.212,-274.5681 152.6031,-244 137.8931,-227.7133 155.7343,-201.7004 167.6239,-187.6906"/>
<polygon fill="#191970" stroke="#191970" points="566.966,-292.5234 577.0648,-289.3196 567.1723,-285.5264 566.966,-292.5234"/>
</g>
<!-- Node78 -->
<g id="node9" class="node">
<title>Node78</title>
<g id="a_node9"><a xlink:href="plaintextlogger_8hpp.html" target="_top" xlink:title="plaintextlogger.hpp">
<polygon fill="#ffffff" stroke="#000000" points="373.6031,-112.5 373.6031,-131.5 471.6031,-131.5 471.6031,-112.5 373.6031,-112.5"/>
<text text-anchor="middle" x="422.6031" y="-119.5" font-family="Helvetica,sans-Serif" font-size="10.00" fill="#000000">plaintextlogger.hpp</text>
</a>
</g>
</g>
<!-- Node72&#45;&gt;Node78 -->
<g id="edge9" class="edge">
<title>Node72&#45;&gt;Node78</title>
<path fill="none" stroke="#191970" d="M640.5885,-287.049C694.0821,-281.9463 789.0196,-269.4784 810.6031,-244 832.4532,-218.2068 836.0664,-193.261 813.6031,-168 791.2339,-142.8449 571.7506,-129.1649 471.7706,-124.1954"/>
<polygon fill="#191970" stroke="#191970" points="640.1164,-283.5774 630.4764,-287.973 640.7534,-290.5484 640.1164,-283.5774"/>
</g>
<!-- Node79 -->
<g id="node10" class="node">
<title>Node79</title>
<g id="a_node10"><a xlink:href="consolelogger_8hpp.html" target="_top" xlink:title="consolelogger.hpp">
<polygon fill="#ffffff" stroke="#000000" points="205.1031,-56.5 205.1031,-75.5 300.1031,-75.5 300.1031,-56.5 205.1031,-56.5"/>
<text text-anchor="middle" x="252.6031" y="-63.5" font-family="Helvetica,sans-Serif" font-size="10.00" fill="#000000">consolelogger.hpp</text>
</a>
</g>
</g>
<!-- Node72&#45;&gt;Node79 -->
<g id="edge10" class="edge">
<title>Node72&#45;&gt;Node79</title>
<path fill="none" stroke="#191970" d="M566.7329,-288.2686C457.224,-282.9018 138.9304,-265.6 97.6031,-244 40.009,-213.8981 25.833,-193.0659 3.6031,-132 .5625,-123.6473 -2.0828,-118.8325 3.6031,-112 28.7002,-81.8419 139.8572,-71.3759 204.8593,-67.8031"/>
<polygon fill="#191970" stroke="#191970" points="566.8024,-291.776 576.9602,-288.7648 567.1416,-284.7842 566.8024,-291.776"/>
</g>
<!-- Node80 -->
<g id="node11" class="node">
<title>Node80</title>
<g id="a_node11"><a xlink:href="alox_8hpp_source.html" target="_top" xlink:title="alox.hpp">
<polygon fill="#ffffff" stroke="#000000" points="226.1031,-.5 226.1031,-19.5 279.1031,-19.5 279.1031,-.5 226.1031,-.5"/>
<text text-anchor="middle" x="252.6031" y="-7.5" font-family="Helvetica,sans-Serif" font-size="10.00" fill="#000000">alox.hpp</text>
</a>
</g>
</g>
<!-- Node72&#45;&gt;Node80 -->
<g id="edge11" class="edge">
<title>Node72&#45;&gt;Node80</title>
<path fill="none" stroke="#191970" d="M640.426,-285.8091C704.1209,-278.2158 832.0378,-261.3548 873.6031,-244 920.0403,-224.6111 965.6031,-228.3224 965.6031,-178 965.6031,-178 965.6031,-178 965.6031,-122 965.6031,-40.5356 873.9866,-74.295 794.6031,-56 694.6428,-32.9628 374.0054,-15.8977 279.2277,-11.2593"/>
<polygon fill="#191970" stroke="#191970" points="639.9328,-282.3429 630.4113,-286.9895 640.7523,-289.2947 639.9328,-282.3429"/>
</g>
<!-- Node81 -->
<g id="node12" class="node">
<title>Node81</title>
<g id="a_node12"><a xlink:href="memorylogger_8hpp.html" target="_top" xlink:title="memorylogger.hpp">
<polygon fill="#ffffff" stroke="#000000" points="318.6031,-56.5 318.6031,-75.5 414.6031,-75.5 414.6031,-56.5 318.6031,-56.5"/>
<text text-anchor="middle" x="366.6031" y="-63.5" font-family="Helvetica,sans-Serif" font-size="10.00" fill="#000000">memorylogger.hpp</text>
</a>
</g>
</g>
<!-- Node72&#45;&gt;Node81 -->
<g id="edge12" class="edge">
<title>Node72&#45;&gt;Node81</title>
<path fill="none" stroke="#191970" d="M566.9079,-288.2776C476.0266,-283.6375 246.1797,-269.4744 223.6031,-244 195.2739,-212.0347 315.9725,-107.7513 354.8713,-75.5554"/>
<polygon fill="#191970" stroke="#191970" points="566.8654,-291.7797 577.0279,-288.7841 567.2154,-284.7885 566.8654,-291.7797"/>
</g>
<!-- Node82 -->
<g id="node13" class="node">
<title>Node82</title>
<g id="a_node13"><a xlink:href="textfilelogger_8hpp.html" target="_top" xlink:title="textfilelogger.hpp">
<polygon fill="#ffffff" stroke="#000000" points="695.6031,-56.5 695.6031,-75.5 785.6031,-75.5 785.6031,-56.5 695.6031,-56.5"/>
<text text-anchor="middle" x="740.6031" y="-63.5" font-family="Helvetica,sans-Serif" font-size="10.00" fill="#000000">textfilelogger.hpp</text>
</a>
</g>
</g>
<!-- Node72&#45;&gt;Node82 -->
<g id="edge13" class="edge">
<title>Node72&#45;&gt;Node82</title>
<path fill="none" stroke="#191970" d="M640.6729,-288.6395C703.2102,-285.4924 825.5229,-275.3845 852.6031,-244 874.6771,-218.4174 868.3949,-198.8466 854.6031,-168 834.8744,-123.8752 785.5782,-90.9363 758.7273,-75.5804"/>
<polygon fill="#191970" stroke="#191970" points="640.2747,-285.1542 630.4495,-289.1186 640.6024,-292.1466 640.2747,-285.1542"/>
</g>
<!-- Node83 -->
<g id="node14" class="node">
<title>Node83</title>
<g id="a_node14"><a xlink:href="vstudiologger_8hpp.html" target="_top" xlink:title="vstudiologger.hpp">
<polygon fill="#ffffff" stroke="#000000" points="432.6031,-56.5 432.6031,-75.5 524.6031,-75.5 524.6031,-56.5 432.6031,-56.5"/>
<text text-anchor="middle" x="478.6031" y="-63.5" font-family="Helvetica,sans-Serif" font-size="10.00" fill="#000000">vstudiologger.hpp</text>
</a>
</g>
</g>
<!-- Node72&#45;&gt;Node83 -->
<g id="edge14" class="edge">
<title>Node72&#45;&gt;Node83</title>
<path fill="none" stroke="#191970" d="M640.4227,-287.9004C698.4528,-283.7561 807.1212,-272.3326 831.6031,-244 853.7048,-218.422 854.9498,-194.995 834.6031,-168 797.1149,-118.2623 612.4545,-85.3855 524.8656,-72.3375"/>
<polygon fill="#191970" stroke="#191970" points="639.949,-284.4244 630.2083,-288.592 640.4219,-291.4084 639.949,-284.4244"/>
</g>
<!-- Node84 -->
<g id="node15" class="node">
<title>Node84</title>
<g id="a_node15"><a xlink:href="ansilogger_8hpp.html" target="_top" xlink:title="ansilogger.hpp">
<polygon fill="#ffffff" stroke="#000000" points="13.1031,-112.5 13.1031,-131.5 92.1031,-131.5 92.1031,-112.5 13.1031,-112.5"/>
<text text-anchor="middle" x="52.6031" y="-119.5" font-family="Helvetica,sans-Serif" font-size="10.00" fill="#000000">ansilogger.hpp</text>
</a>
</g>
</g>
<!-- Node72&#45;&gt;Node84 -->
<g id="edge15" class="edge">
<title>Node72&#45;&gt;Node84</title>
<path fill="none" stroke="#191970" d="M566.6854,-288.3935C460.6955,-283.5143 160.6626,-267.7352 123.6031,-244 81.5045,-217.0374 61.4149,-155.5753 54.9904,-131.7187"/>
<polygon fill="#191970" stroke="#191970" points="566.7519,-291.9001 576.9004,-288.8575 567.0696,-284.9073 566.7519,-291.9001"/>
</g>
<!-- Node85 -->
<g id="node16" class="node">
<title>Node85</title>
<g id="a_node16"><a xlink:href="windowsconsolelogger_8hpp.html" target="_top" xlink:title="windowsconsolelogger.hpp">
<polygon fill="#ffffff" stroke="#000000" points="110.1031,-112.5 110.1031,-131.5 243.1031,-131.5 243.1031,-112.5 110.1031,-112.5"/>
<text text-anchor="middle" x="176.6031" y="-119.5" font-family="Helvetica,sans-Serif" font-size="10.00" fill="#000000">windowsconsolelogger.hpp</text>
</a>
</g>
</g>
<!-- Node72&#45;&gt;Node85 -->
<g id="edge16" class="edge">
<title>Node72&#45;&gt;Node85</title>
<path fill="none" stroke="#191970" d="M566.5213,-288.6835C462.8723,-284.6751 175.6109,-271.2001 143.6031,-244 117.3674,-221.705 115.09,-199.6667 128.6031,-168 135.2172,-152.5006 149.8994,-139.7184 161.2957,-131.5954"/>
<polygon fill="#191970" stroke="#191970" points="566.6908,-292.1923 576.8162,-289.0737 566.9559,-285.1974 566.6908,-292.1923"/>
</g>
<!-- Node86 -->
<g id="node17" class="node">
<title>Node86</title>
<g id="a_node17"><a xlink:href="scopedump_8hpp.html" target="_top" xlink:title="scopedump.hpp">
<polygon fill="#ffffff" stroke="#000000" points="718.6031,-168.5 718.6031,-187.5 804.6031,-187.5 804.6031,-168.5 718.6031,-168.5"/>
<text text-anchor="middle" x="761.6031" y="-175.5" font-family="Helvetica,sans-Serif" font-size="10.00" fill="#000000">scopedump.hpp</text>
</a>
</g>
</g>
<!-- Node72&#45;&gt;Node86 -->
<g id="edge17" class="edge">
<title>Node72&#45;&gt;Node86</title>
<path fill="none" stroke="#191970" d="M640.3033,-286.4328C690.0634,-280.7512 774.8924,-267.7812 793.6031,-244 807.6189,-226.186 786.6733,-201.2363 772.6084,-187.6863"/>
<polygon fill="#191970" stroke="#191970" points="639.8121,-282.9656 630.2537,-287.5359 640.5759,-289.9238 639.8121,-282.9656"/>
</g>
<!-- Node87 -->
<g id="node18" class="node">
<title>Node87</title>
<g id="a_node18"><a xlink:href="scopestore_8hpp.html" target="_top" xlink:title="scopestore.hpp">
<polygon fill="#ffffff" stroke="#000000" points="702.1031,-224.5 702.1031,-243.5 785.1031,-243.5 785.1031,-224.5 702.1031,-224.5"/>
<text text-anchor="middle" x="743.6031" y="-231.5" font-family="Helvetica,sans-Serif" font-size="10.00" fill="#000000">scopestore.hpp</text>
</a>
</g>
</g>
<!-- Node72&#45;&gt;Node87 -->
<g id="edge18" class="edge">
<title>Node72&#45;&gt;Node87</title>
<path fill="none" stroke="#191970" d="M636.968,-276.6541C662.4983,-266.4419 697.0815,-252.6086 719.8503,-243.5011"/>
<polygon fill="#191970" stroke="#191970" points="635.6548,-273.4096 627.67,-280.3733 638.2546,-279.909 635.6548,-273.4096"/>
</g>
<!-- Node88 -->
<g id="node19" class="node">
<title>Node88</title>
<g id="a_node19"><a xlink:href="scopeinfo_8hpp.html" target="_top" xlink:title="scopeinfo.hpp">
<polygon fill="#ffffff" stroke="#000000" points="397.1031,-224.5 397.1031,-243.5 474.1031,-243.5 474.1031,-224.5 397.1031,-224.5"/>
<text text-anchor="middle" x="435.6031" y="-231.5" font-family="Helvetica,sans-Serif" font-size="10.00" fill="#000000">scopeinfo.hpp</text>
</a>
</g>
</g>
<!-- Node72&#45;&gt;Node88 -->
<g id="edge19" class="edge">
<title>Node72&#45;&gt;Node88</title>
<path fill="none" stroke="#191970" d="M567.4584,-277.9518C536.6148,-267.6706 492.8537,-253.0835 464.3491,-243.582"/>
<polygon fill="#191970" stroke="#191970" points="566.3893,-281.2847 576.983,-281.1266 568.603,-274.6439 566.3893,-281.2847"/>
</g>
<!-- Node89 -->
<g id="node20" class="node">
<title>Node89</title>
<g id="a_node20"><a xlink:href="logtools_8hpp.html" target="_top" xlink:title="logtools.hpp">
<polygon fill="#ffffff" stroke="#000000" points="492.1031,-224.5 492.1031,-243.5 561.1031,-243.5 561.1031,-224.5 492.1031,-224.5"/>
<text text-anchor="middle" x="526.6031" y="-231.5" font-family="Helvetica,sans-Serif" font-size="10.00" fill="#000000">logtools.hpp</text>
</a>
</g>
</g>
<!-- Node72&#45;&gt;Node89 -->
<g id="edge20" class="edge">
<title>Node72&#45;&gt;Node89</title>
<path fill="none" stroke="#191970" d="M581.8915,-274.2097C568.3678,-264.3743 551.4073,-252.0394 539.8618,-243.6427"/>
<polygon fill="#191970" stroke="#191970" points="580.0447,-277.1944 590.1907,-280.2455 584.162,-271.5332 580.0447,-277.1944"/>
</g>
<!-- Node74&#45;&gt;Node72 -->
<g id="edge22" class="edge">
<title>Node74&#45;&gt;Node72</title>
<path fill="none" stroke="#191970" d="M470.0217,-180.3044C524.1198,-184.9688 624.4246,-197.4271 645.6031,-224 659.8155,-241.8324 638.3096,-266.775 620.8597,-280.3189"/>
<polygon fill="#191970" stroke="#191970" points="470.1072,-176.7998 459.8553,-179.4736 469.5369,-183.7766 470.1072,-176.7998"/>
</g>
<!-- Node91 -->
<g id="node21" class="node">
<title>Node91</title>
<g id="a_node21"><a xlink:href="compilerplugin_8hpp_source.html" target="_top" xlink:title="compilerplugin.hpp">
<polygon fill="#ffffff" stroke="#000000" points="1032.6031,-224.5 1032.6031,-243.5 1130.6031,-243.5 1130.6031,-224.5 1032.6031,-224.5"/>
<text text-anchor="middle" x="1081.6031" y="-231.5" font-family="Helvetica,sans-Serif" font-size="10.00" fill="#000000">compilerplugin.hpp</text>
</a>
</g>
</g>
<!-- Node90&#45;&gt;Node91 -->
<g id="edge40" class="edge">
<title>Node90&#45;&gt;Node91</title>
<path fill="none" stroke="#191970" d="M942.349,-277.3235C975.3594,-267.0536 1021.1448,-252.8093 1051.0638,-243.5011"/>
<polygon fill="#191970" stroke="#191970" points="941.055,-274.0605 932.5462,-280.3733 943.1345,-280.7445 941.055,-274.0605"/>
</g>
<!-- Node73&#45;&gt;Node72 -->
<g id="edge21" class="edge">
<title>Node73&#45;&gt;Node72</title>
<path fill="none" stroke="#191970" d="M610.0826,-253.7046C610.6852,-262.6944 610.281,-272.9382 608.8699,-280.2455"/>
<polygon fill="#191970" stroke="#191970" points="613.5399,-253.1421 608.8482,-243.6427 606.592,-253.9945 613.5399,-253.1421"/>
</g>
<!-- Node75&#45;&gt;Node74 -->
<g id="edge23" class="edge">
<title>Node75&#45;&gt;Node74</title>
<path fill="none" stroke="#191970" d="M370.0815,-218.769C386.0297,-208.8456 406.3541,-196.1994 420.1059,-187.6427"/>
<polygon fill="#191970" stroke="#191970" points="367.9214,-215.9908 361.2799,-224.2455 371.6196,-221.9342 367.9214,-215.9908"/>
</g>
<!-- Node76&#45;&gt;Node74 -->
<g id="edge24" class="edge">
<title>Node76&#45;&gt;Node74</title>
<path fill="none" stroke="#191970" d="M303.0732,-221.1493C336.4814,-210.2722 383.293,-195.0312 411.4125,-185.876"/>
<polygon fill="#191970" stroke="#191970" points="301.5961,-217.9493 293.171,-224.3733 303.7632,-224.6054 301.5961,-217.9493"/>
</g>
<!-- Node76&#45;&gt;Node77 -->
<g id="edge25" class="edge">
<title>Node76&#45;&gt;Node77</title>
<path fill="none" stroke="#191970" d="M239.9406,-218.769C224.524,-208.8456 204.8771,-196.1994 191.5837,-187.6427"/>
<polygon fill="#191970" stroke="#191970" points="238.1458,-221.7761 248.4489,-224.2455 241.9346,-215.89 238.1458,-221.7761"/>
</g>
<!-- Node77&#45;&gt;Node78 -->
<g id="edge26" class="edge">
<title>Node77&#45;&gt;Node78</title>
<path fill="none" stroke="#191970" d="M225.2269,-166.9312C270.6559,-156.5896 337.7596,-141.314 380.8307,-131.5092"/>
<polygon fill="#191970" stroke="#191970" points="224.2849,-163.556 215.3112,-169.1884 225.8387,-170.3814 224.2849,-163.556"/>
</g>
<!-- Node77&#45;&gt;Node84 -->
<g id="edge27" class="edge">
<title>Node77&#45;&gt;Node84</title>
<path fill="none" stroke="#191970" d="M146.1507,-164.2473C123.631,-154.0771 93.5414,-140.4883 73.6413,-131.5011"/>
<polygon fill="#191970" stroke="#191970" points="144.7325,-167.4471 155.2867,-168.3733 147.6136,-161.0675 144.7325,-167.4471"/>
</g>
<!-- Node77&#45;&gt;Node85 -->
<g id="edge28" class="edge">
<title>Node77&#45;&gt;Node85</title>
<path fill="none" stroke="#191970" d="M176.6031,-158.1575C176.6031,-149.155 176.6031,-138.9199 176.6031,-131.6427"/>
<polygon fill="#191970" stroke="#191970" points="173.1032,-158.2455 176.6031,-168.2455 180.1032,-158.2456 173.1032,-158.2455"/>
</g>
<!-- Node78&#45;&gt;Node79 -->
<g id="edge29" class="edge">
<title>Node78&#45;&gt;Node79</title>
<path fill="none" stroke="#191970" d="M383.7171,-109.1905C352.5719,-98.9309 309.5808,-84.7691 281.4458,-75.5011"/>
<polygon fill="#191970" stroke="#191970" points="382.786,-112.5687 393.3791,-112.3733 384.9762,-105.9202 382.786,-112.5687"/>
</g>
<!-- Node78&#45;&gt;Node81 -->
<g id="edge30" class="edge">
<title>Node78&#45;&gt;Node81</title>
<path fill="none" stroke="#191970" d="M405.6783,-105.0751C396.0433,-95.4402 384.3227,-83.7196 376.2458,-75.6427"/>
<polygon fill="#191970" stroke="#191970" points="403.3027,-107.6493 412.8486,-112.2455 408.2524,-102.6996 403.3027,-107.6493"/>
</g>
<!-- Node78&#45;&gt;Node82 -->
<g id="edge31" class="edge">
<title>Node78&#45;&gt;Node82</title>
<path fill="none" stroke="#191970" d="M481.9545,-111.5482C543.8631,-100.646 639.5376,-83.7977 695.5256,-73.9382"/>
<polygon fill="#191970" stroke="#191970" points="481.1831,-108.1301 471.9417,-113.3114 482.3972,-115.024 481.1831,-108.1301"/>
</g>
<!-- Node78&#45;&gt;Node83 -->
<g id="edge32" class="edge">
<title>Node78&#45;&gt;Node83</title>
<path fill="none" stroke="#191970" d="M439.528,-105.0751C449.1629,-95.4402 460.8835,-83.7196 468.9604,-75.6427"/>
<polygon fill="#191970" stroke="#191970" points="436.9538,-102.6996 432.3576,-112.2455 441.9035,-107.6493 436.9538,-102.6996"/>
</g>
<!-- Node79&#45;&gt;Node80 -->
<g id="edge33" class="edge">
<title>Node79&#45;&gt;Node80</title>
<path fill="none" stroke="#191970" d="M252.6031,-46.1575C252.6031,-37.155 252.6031,-26.9199 252.6031,-19.6427"/>
<polygon fill="#191970" stroke="#191970" points="249.1032,-46.2455 252.6031,-56.2455 256.1032,-46.2456 249.1032,-46.2455"/>
</g>
<!-- Node83&#45;&gt;Node80 -->
<g id="edge34" class="edge">
<title>Node83&#45;&gt;Node80</title>
<path fill="none" stroke="#191970" d="M430.2337,-54.0147C384.1462,-42.5947 316.4499,-25.8204 279.3525,-16.6282"/>
<polygon fill="#191970" stroke="#191970" points="429.4608,-57.4289 440.0091,-56.4369 431.1445,-50.6344 429.4608,-57.4289"/>
</g>
<!-- Node84&#45;&gt;Node80 -->
<g id="edge35" class="edge">
<title>Node84&#45;&gt;Node80</title>
<path fill="none" stroke="#191970" d="M78.6315,-107.4241C120.2324,-84.1276 200.5766,-39.1349 235.5944,-19.5249"/>
<polygon fill="#191970" stroke="#191970" points="76.6699,-104.5111 69.655,-112.4509 80.0902,-110.6186 76.6699,-104.5111"/>
</g>
<!-- Node85&#45;&gt;Node80 -->
<g id="edge36" class="edge">
<title>Node85&#45;&gt;Node80</title>
<path fill="none" stroke="#191970" d="M179.0603,-102.328C181.5226,-88.462 186.3407,-69.9527 195.6031,-56 205.8713,-40.5321 222.967,-27.7455 235.7627,-19.6129"/>
<polygon fill="#191970" stroke="#191970" points="175.5905,-101.8652 177.5506,-112.2771 182.5113,-102.9154 175.5905,-101.8652"/>
</g>
<!-- Node87&#45;&gt;Node74 -->
<g id="edge37" class="edge">
<title>Node87&#45;&gt;Node74</title>
<path fill="none" stroke="#191970" d="M692.0822,-224.6326C624.7017,-212.3816 509.3951,-191.4167 459.631,-182.3687"/>
<polygon fill="#191970" stroke="#191970" points="691.6,-228.1022 702.0649,-226.4476 692.8523,-221.2151 691.6,-228.1022"/>
</g>
<!-- Node87&#45;&gt;Node86 -->
<g id="edge38" class="edge">
<title>Node87&#45;&gt;Node86</title>
<path fill="none" stroke="#191970" d="M749.8858,-214.4538C752.8023,-205.3803 756.1389,-194.9998 758.5037,-187.6427"/>
<polygon fill="#191970" stroke="#191970" points="746.4665,-213.6542 746.7385,-224.2455 753.1307,-215.7963 746.4665,-213.6542"/>
</g>
<!-- Node88&#45;&gt;Node74 -->
<g id="edge39" class="edge">
<title>Node88&#45;&gt;Node74</title>
<path fill="none" stroke="#191970" d="M435.6031,-214.1575C435.6031,-205.155 435.6031,-194.9199 435.6031,-187.6427"/>
<polygon fill="#191970" stroke="#191970" points="432.1032,-214.2455 435.6031,-224.2455 439.1032,-214.2456 432.1032,-214.2455"/>
</g>
<!-- Node92 -->
<g id="node22" class="node">
<title>Node92</title>
<g id="a_node22"><a xlink:href="calculus_8hpp_source.html" target="_top" xlink:title="calculus.hpp">
<polygon fill="#ffffff" stroke="#ff0000" points="994.1031,-168.5 994.1031,-187.5 1065.1031,-187.5 1065.1031,-168.5 994.1031,-168.5"/>
<text text-anchor="middle" x="1029.6031" y="-175.5" font-family="Helvetica,sans-Serif" font-size="10.00" fill="#000000">calculus.hpp</text>
</a>
</g>
</g>
<!-- Node91&#45;&gt;Node92 -->
<g id="edge41" class="edge">
<title>Node91&#45;&gt;Node92</title>
<path fill="none" stroke="#191970" d="M1065.6209,-216.7884C1056.7253,-207.2085 1045.9827,-195.6396 1038.557,-187.6427"/>
<polygon fill="#191970" stroke="#191970" points="1063.1761,-219.2992 1072.5454,-224.2455 1068.3056,-214.536 1063.1761,-219.2992"/>
</g>
<!-- Node97 -->
<g id="node23" class="node">
<title>Node97</title>
<g id="a_node23"><a xlink:href="autocast_8hpp_source.html" target="_top" xlink:title="autocast.hpp">
<polygon fill="#ffffff" stroke="#000000" points="1083.1031,-168.5 1083.1031,-187.5 1156.1031,-187.5 1156.1031,-168.5 1083.1031,-168.5"/>
<text text-anchor="middle" x="1119.6031" y="-175.5" font-family="Helvetica,sans-Serif" font-size="10.00" fill="#000000">autocast.hpp</text>
</a>
</g>
</g>
<!-- Node91&#45;&gt;Node97 -->
<g id="edge42" class="edge">
<title>Node91&#45;&gt;Node97</title>
<path fill="none" stroke="#191970" d="M1093.871,-215.9209C1100.2519,-206.5176 1107.7962,-195.3997 1113.0599,-187.6427"/>
<polygon fill="#191970" stroke="#191970" points="1090.9411,-214.0055 1088.2222,-224.2455 1096.7334,-217.936 1090.9411,-214.0055"/>
</g>
<!-- Node98 -->
<g id="node24" class="node">
<title>Node98</title>
<g id="a_node24"><a xlink:href="elvisoperator_8hpp_source.html" target="_top" xlink:title="elvisoperator.hpp">
<polygon fill="#ffffff" stroke="#000000" points="1174.6031,-168.5 1174.6031,-187.5 1264.6031,-187.5 1264.6031,-168.5 1174.6031,-168.5"/>
<text text-anchor="middle" x="1219.6031" y="-175.5" font-family="Helvetica,sans-Serif" font-size="10.00" fill="#000000">elvisoperator.hpp</text>
</a>
</g>
</g>
<!-- Node91&#45;&gt;Node98 -->
<g id="edge43" class="edge">
<title>Node91&#45;&gt;Node98</title>
<path fill="none" stroke="#191970" d="M1114.8244,-220.5189C1139.9571,-210.3201 1173.8449,-196.5685 1196.1896,-187.5011"/>
<polygon fill="#191970" stroke="#191970" points="1113.2762,-217.3699 1105.3261,-224.3733 1115.9084,-223.8562 1113.2762,-217.3699"/>
</g>
</g>
</svg>
