<?xml version="1.0" encoding="UTF-8" standalone="no"?>
<!DOCTYPE svg PUBLIC "-//W3C//DTD SVG 1.1//EN"
 "http://www.w3.org/Graphics/SVG/1.1/DTD/svg11.dtd">
<!-- Generated by graphviz version 2.40.1 (20161225.0304)
 -->
<!-- Title: configuration.hpp Pages: 1 -->
<svg width="871pt" height="308pt"
 viewBox="0.00 0.00 870.50 308.00" xmlns="http://www.w3.org/2000/svg" xmlns:xlink="http://www.w3.org/1999/xlink">
<g id="graph0" class="graph" transform="scale(1 1) rotate(0) translate(4 304)">
<title>configuration.hpp</title>
<polygon fill="#ffffff" stroke="transparent" points="-4,4 -4,-304 866.5,-304 866.5,4 -4,4"/>
<!-- Node0 -->
<g id="node1" class="node">
<title>Node0</title>
<polygon fill="#bfbfbf" stroke="#000000" points="218.5,-280.5 218.5,-299.5 309.5,-299.5 309.5,-280.5 218.5,-280.5"/>
<text text-anchor="middle" x="264" y="-287.5" font-family="Helvetica,sans-Serif" font-size="10.00" fill="#000000">configuration.hpp</text>
</g>
<!-- Node1 -->
<g id="node2" class="node">
<title>Node1</title>
<g id="a_node2"><a xlink:href="enumbitwise_8hpp.html" target="_top" xlink:title="alib/lang/enumbitwise.hpp">
<polygon fill="#ffffff" stroke="#000000" points="169.5,-56.5 169.5,-75.5 298.5,-75.5 298.5,-56.5 169.5,-56.5"/>
<text text-anchor="middle" x="234" y="-63.5" font-family="Helvetica,sans-Serif" font-size="10.00" fill="#000000">alib/lang/enumbitwise.hpp</text>
</a>
</g>
</g>
<!-- Node0&#45;&gt;Node1 -->
<g id="edge1" class="edge">
<title>Node0&#45;&gt;Node1</title>
<path fill="none" stroke="#191970" d="M247.3268,-280.4836C234.389,-272.3199 216.8798,-259.445 206,-244 176.5125,-202.1393 182.6298,-183.075 179,-132 178.3699,-123.1335 175.2369,-120.053 179,-112 184.9463,-99.2749 196.3358,-88.8307 207.215,-81.129"/>
<polygon fill="#191970" stroke="#191970" points="209.277,-83.9622 215.7167,-75.5491 205.436,-78.1101 209.277,-83.9622"/>
</g>
<!-- Node3 -->
<g id="node3" class="node">
<title>Node3</title>
<g id="a_node3"><a xlink:href="threadlock_8hpp.html" target="_top" xlink:title="alib/threads/threadlock.hpp">
<polygon fill="#ffffff" stroke="#000000" points="546,-168.5 546,-187.5 680,-187.5 680,-168.5 546,-168.5"/>
<text text-anchor="middle" x="613" y="-175.5" font-family="Helvetica,sans-Serif" font-size="10.00" fill="#000000">alib/threads/threadlock.hpp</text>
</a>
</g>
</g>
<!-- Node0&#45;&gt;Node3 -->
<g id="edge2" class="edge">
<title>Node0&#45;&gt;Node3</title>
<path fill="none" stroke="#191970" d="M309.6764,-286.4287C380.2145,-280.3008 511.8229,-266.2505 553,-244 573.7591,-232.7826 591.0628,-211.5362 601.67,-196.1737"/>
<polygon fill="#191970" stroke="#191970" points="604.7987,-197.7866 607.3801,-187.511 598.9542,-193.9341 604.7987,-197.7866"/>
</g>
<!-- Node64 -->
<g id="node4" class="node">
<title>Node64</title>
<g id="a_node4"><a xlink:href="substring_8hpp.html" target="_top" xlink:title="alib/strings/substring.hpp">
<polygon fill="#ffffff" stroke="#000000" points="188.5,-112.5 188.5,-131.5 313.5,-131.5 313.5,-112.5 188.5,-112.5"/>
<text text-anchor="middle" x="251" y="-119.5" font-family="Helvetica,sans-Serif" font-size="10.00" fill="#000000">alib/strings/substring.hpp</text>
</a>
</g>
</g>
<!-- Node0&#45;&gt;Node64 -->
<g id="edge3" class="edge">
<title>Node0&#45;&gt;Node64</title>
<path fill="none" stroke="#191970" d="M253.6203,-280.2479C236.6072,-263.4089 203.616,-226.9255 193,-188 190.6612,-179.4243 189.1325,-176.0034 193,-168 199.2828,-154.9981 211.2235,-144.5481 222.6451,-136.9145"/>
<polygon fill="#191970" stroke="#191970" points="224.5177,-139.8718 231.1759,-131.6305 220.8316,-133.9209 224.5177,-139.8718"/>
</g>
<!-- Node65 -->
<g id="node5" class="node">
<title>Node65</title>
<g id="a_node5"><a xlink:href="numberformat_8hpp.html" target="_top" xlink:title="alib/strings/numberformat.hpp">
<polygon fill="#ffffff" stroke="#000000" points="600,-224.5 600,-243.5 746,-243.5 746,-224.5 600,-224.5"/>
<text text-anchor="middle" x="673" y="-231.5" font-family="Helvetica,sans-Serif" font-size="10.00" fill="#000000">alib/strings/numberformat.hpp</text>
</a>
</g>
</g>
<!-- Node0&#45;&gt;Node65 -->
<g id="edge4" class="edge">
<title>Node0&#45;&gt;Node65</title>
<path fill="none" stroke="#191970" d="M309.727,-283.7391C378.3327,-274.3456 508.8452,-256.476 593.3267,-244.9088"/>
<polygon fill="#191970" stroke="#191970" points="593.9611,-248.3547 603.3939,-243.5304 593.0115,-241.4194 593.9611,-248.3547"/>
</g>
<!-- Node66 -->
<g id="node6" class="node">
<title>Node66</title>
<g id="a_node6"><a xlink:href="variable_8hpp.html" target="_top" xlink:title="alib/config/variable.hpp">
<polygon fill="#ffffff" stroke="#000000" points="0,-112.5 0,-131.5 116,-131.5 116,-112.5 0,-112.5"/>
<text text-anchor="middle" x="58" y="-119.5" font-family="Helvetica,sans-Serif" font-size="10.00" fill="#000000">alib/config/variable.hpp</text>
</a>
</g>
</g>
<!-- Node0&#45;&gt;Node66 -->
<g id="edge5" class="edge">
<title>Node0&#45;&gt;Node66</title>
<path fill="none" stroke="#191970" d="M218.4009,-284.3195C188.1851,-278.5333 149.2418,-266.9675 122,-244 89.5348,-216.6287 71.3182,-168.545 63.2015,-141.6421"/>
<polygon fill="#191970" stroke="#191970" points="66.5149,-140.4977 60.411,-131.8379 59.7823,-142.4141 66.5149,-140.4977"/>
</g>
<!-- Node67 -->
<g id="node7" class="node">
<title>Node67</title>
<g id="a_node7"><a xlink:href="plugins_8hpp.html" target="_top" xlink:title="alib/config/plugins.hpp">
<polygon fill="#ffffff" stroke="#000000" points="202.5,-168.5 202.5,-187.5 315.5,-187.5 315.5,-168.5 202.5,-168.5"/>
<text text-anchor="middle" x="259" y="-175.5" font-family="Helvetica,sans-Serif" font-size="10.00" fill="#000000">alib/config/plugins.hpp</text>
</a>
</g>
</g>
<!-- Node0&#45;&gt;Node67 -->
<g id="edge6" class="edge">
<title>Node0&#45;&gt;Node67</title>
<path fill="none" stroke="#191970" d="M254.3508,-280.4346C246.35,-271.7723 235.5738,-258.2221 231,-244 225.6127,-227.2482 234.7149,-208.8703 243.9461,-195.7711"/>
<polygon fill="#191970" stroke="#191970" points="246.8791,-197.6978 250.1811,-187.6307 241.3218,-193.4414 246.8791,-197.6978"/>
</g>
<!-- Node68 -->
<g id="node8" class="node">
<title>Node68</title>
<g id="a_node8"><a xlink:href="plugincontainer_8hpp.html" target="_top" xlink:title="alib/util/plugincontainer.hpp">
<polygon fill="#ffffff" stroke="#000000" points="410,-224.5 410,-243.5 544,-243.5 544,-224.5 410,-224.5"/>
<text text-anchor="middle" x="477" y="-231.5" font-family="Helvetica,sans-Serif" font-size="10.00" fill="#000000">alib/util/plugincontainer.hpp</text>
</a>
</g>
</g>
<!-- Node0&#45;&gt;Node68 -->
<g id="edge7" class="edge">
<title>Node0&#45;&gt;Node68</title>
<path fill="none" stroke="#191970" d="M300.616,-280.3733C336.648,-270.9001 391.7878,-256.4032 430.8114,-246.1435"/>
<polygon fill="#191970" stroke="#191970" points="432.0804,-249.4289 440.8618,-243.5011 430.3005,-242.6589 432.0804,-249.4289"/>
</g>
<!-- Node70 -->
<g id="node9" class="node">
<title>Node70</title>
<g id="a_node9"><a xlink:href="inmemoryplugin_8hpp.html" target="_top" xlink:title="alib/config/inmemoryplugin.hpp">
<polygon fill="#ffffff" stroke="#000000" points="240.5,-224.5 240.5,-243.5 391.5,-243.5 391.5,-224.5 240.5,-224.5"/>
<text text-anchor="middle" x="316" y="-231.5" font-family="Helvetica,sans-Serif" font-size="10.00" fill="#000000">alib/config/inmemoryplugin.hpp</text>
</a>
</g>
</g>
<!-- Node0&#45;&gt;Node70 -->
<g id="edge8" class="edge">
<title>Node0&#45;&gt;Node70</title>
<path fill="none" stroke="#191970" d="M273.0577,-280.2455C280.5142,-272.2155 291.2634,-260.6394 300.1417,-251.0781"/>
<polygon fill="#191970" stroke="#191970" points="302.8063,-253.3522 307.0461,-243.6427 297.6768,-248.589 302.8063,-253.3522"/>
</g>
<!-- Node2 -->
<g id="node10" class="node">
<title>Node2</title>
<g id="a_node10"><a xlink:href="enumarithmetical_8hpp.html" target="_top" xlink:title="enumarithmetical.hpp">
<polygon fill="#ffffff" stroke="#000000" points="91,-.5 91,-19.5 201,-19.5 201,-.5 91,-.5"/>
<text text-anchor="middle" x="146" y="-7.5" font-family="Helvetica,sans-Serif" font-size="10.00" fill="#000000">enumarithmetical.hpp</text>
</a>
</g>
</g>
<!-- Node1&#45;&gt;Node2 -->
<g id="edge9" class="edge">
<title>Node1&#45;&gt;Node2</title>
<path fill="none" stroke="#191970" d="M218.6716,-56.2455C205.1697,-47.6534 185.2878,-35.0014 169.7314,-25.1018"/>
<polygon fill="#191970" stroke="#191970" points="171.4685,-22.0587 161.1528,-19.6427 167.7103,-27.9643 171.4685,-22.0587"/>
</g>
<!-- Node4 -->
<g id="node11" class="node">
<title>Node4</title>
<g id="a_node11"><a xlink:href="threadlocknr_8hpp.html" target="_top" xlink:title="alib/threads/threadlocknr.hpp">
<polygon fill="#ffffff" stroke="#000000" points="507.5,-112.5 507.5,-131.5 648.5,-131.5 648.5,-112.5 507.5,-112.5"/>
<text text-anchor="middle" x="578" y="-119.5" font-family="Helvetica,sans-Serif" font-size="10.00" fill="#000000">alib/threads/threadlocknr.hpp</text>
</a>
</g>
</g>
<!-- Node3&#45;&gt;Node4 -->
<g id="edge10" class="edge">
<title>Node3&#45;&gt;Node4</title>
<path fill="none" stroke="#191970" d="M606.9035,-168.2455C602.0855,-160.5367 595.2249,-149.5598 589.3968,-140.2348"/>
<polygon fill="#191970" stroke="#191970" points="592.2947,-138.2677 584.0267,-131.6427 586.3587,-141.9777 592.2947,-138.2677"/>
</g>
<!-- Node61 -->
<g id="node12" class="node">
<title>Node61</title>
<g id="a_node12"><a xlink:href="threadlib_8hpp.html" target="_top" xlink:title="threadlib.hpp">
<polygon fill="#ffffff" stroke="#000000" points="667,-112.5 667,-131.5 739,-131.5 739,-112.5 667,-112.5"/>
<text text-anchor="middle" x="703" y="-119.5" font-family="Helvetica,sans-Serif" font-size="10.00" fill="#000000">threadlib.hpp</text>
</a>
</g>
</g>
<!-- Node3&#45;&gt;Node61 -->
<g id="edge11" class="edge">
<title>Node3&#45;&gt;Node61</title>
<path fill="none" stroke="#191970" d="M628.6768,-168.2455C642.4856,-159.6534 662.8193,-147.0014 678.7292,-137.1018"/>
<polygon fill="#191970" stroke="#191970" points="680.8613,-139.8974 687.5028,-131.6427 677.1632,-133.954 680.8613,-139.8974"/>
</g>
<!-- Node64&#45;&gt;Node1 -->
<g id="edge19" class="edge">
<title>Node64&#45;&gt;Node1</title>
<path fill="none" stroke="#191970" d="M248.0388,-112.2455C245.7962,-104.8579 242.6423,-94.4689 239.8919,-85.4087"/>
<polygon fill="#191970" stroke="#191970" points="243.1812,-84.1948 236.9272,-75.6427 236.483,-86.2282 243.1812,-84.1948"/>
</g>
<!-- Node52 -->
<g id="node15" class="node">
<title>Node52</title>
<g id="a_node15"><a xlink:href="configlib_8hpp.html" target="_top" xlink:title="alib/config/configlib.hpp">
<polygon fill="#ffffff" stroke="#ff0000" points="15.5,-56.5 15.5,-75.5 134.5,-75.5 134.5,-56.5 15.5,-56.5"/>
<text text-anchor="middle" x="75" y="-63.5" font-family="Helvetica,sans-Serif" font-size="10.00" fill="#000000">alib/config/configlib.hpp</text>
</a>
</g>
</g>
<!-- Node66&#45;&gt;Node52 -->
<g id="edge20" class="edge">
<title>Node66&#45;&gt;Node52</title>
<path fill="none" stroke="#191970" d="M60.9612,-112.2455C63.2038,-104.8579 66.3577,-94.4689 69.1081,-85.4087"/>
<polygon fill="#191970" stroke="#191970" points="72.517,-86.2282 72.0728,-75.6427 65.8188,-84.1948 72.517,-86.2282"/>
</g>
<!-- Node67&#45;&gt;Node64 -->
<g id="edge21" class="edge">
<title>Node67&#45;&gt;Node64</title>
<path fill="none" stroke="#191970" d="M257.6065,-168.2455C256.5626,-160.9382 255.0992,-150.6944 253.8149,-141.7046"/>
<polygon fill="#191970" stroke="#191970" points="257.2566,-141.0472 252.3775,-131.6427 250.327,-142.0372 257.2566,-141.0472"/>
</g>
<!-- Node67&#45;&gt;Node66 -->
<g id="edge22" class="edge">
<title>Node67&#45;&gt;Node66</title>
<path fill="none" stroke="#191970" d="M224.4469,-168.3733C190.5896,-158.9404 138.854,-144.5265 102.0574,-134.2747"/>
<polygon fill="#191970" stroke="#191970" points="102.6747,-130.8135 92.1022,-131.5011 100.796,-137.5566 102.6747,-130.8135"/>
</g>
<!-- Node68&#45;&gt;Node1 -->
<g id="edge23" class="edge">
<title>Node68&#45;&gt;Node1</title>
<path fill="none" stroke="#191970" d="M469.4716,-224.2222C458.64,-210.5635 437.5778,-185.4854 416,-168 368.3383,-129.3776 304.081,-97.2145 266.048,-79.8686"/>
<polygon fill="#191970" stroke="#191970" points="267.0664,-76.489 256.5107,-75.5794 264.1952,-82.8731 267.0664,-76.489"/>
</g>
<!-- Node68&#45;&gt;Node3 -->
<g id="edge24" class="edge">
<title>Node68&#45;&gt;Node3</title>
<path fill="none" stroke="#191970" d="M500.3792,-224.3733C522.5045,-215.2629 555.9134,-201.5062 580.6019,-191.3404"/>
<polygon fill="#191970" stroke="#191970" points="582.0117,-194.5451 589.9258,-187.5011 579.3464,-188.0723 582.0117,-194.5451"/>
</g>
<!-- Node68&#45;&gt;Node64 -->
<g id="edge26" class="edge">
<title>Node68&#45;&gt;Node64</title>
<path fill="none" stroke="#191970" d="M466.3642,-224.4904C450.2227,-210.4722 418.1165,-184.1779 387,-168 359.1544,-153.5227 325.7997,-142.1585 299.0917,-134.3474"/>
<polygon fill="#191970" stroke="#191970" points="299.7828,-130.905 289.2063,-131.5286 297.8632,-137.6367 299.7828,-130.905"/>
</g>
<!-- Node18 -->
<g id="node19" class="node">
<title>Node18</title>
<polygon fill="#ffffff" stroke="#bfbfbf" points="334,-168.5 334,-187.5 378,-187.5 378,-168.5 334,-168.5"/>
<text text-anchor="middle" x="356" y="-175.5" font-family="Helvetica,sans-Serif" font-size="10.00" fill="#000000">vector</text>
</g>
<!-- Node68&#45;&gt;Node18 -->
<g id="edge25" class="edge">
<title>Node68&#45;&gt;Node18</title>
<path fill="none" stroke="#191970" d="M456.1994,-224.3733C436.7757,-215.3838 407.5776,-201.8706 385.7036,-191.7471"/>
<polygon fill="#191970" stroke="#191970" points="387.0745,-188.5249 376.5292,-187.5011 384.1344,-194.8776 387.0745,-188.5249"/>
</g>
<!-- Node69 -->
<g id="node20" class="node">
<title>Node69</title>
<polygon fill="#ffffff" stroke="#bfbfbf" points="472,-168.5 472,-187.5 528,-187.5 528,-168.5 472,-168.5"/>
<text text-anchor="middle" x="500" y="-175.5" font-family="Helvetica,sans-Serif" font-size="10.00" fill="#000000">algorithm</text>
</g>
<!-- Node68&#45;&gt;Node69 -->
<g id="edge27" class="edge">
<title>Node68&#45;&gt;Node69</title>
<path fill="none" stroke="#191970" d="M481.0063,-224.2455C484.0735,-216.7776 488.4003,-206.2427 492.1497,-197.1137"/>
<polygon fill="#191970" stroke="#191970" points="495.4779,-198.2226 496.0396,-187.6427 489.0028,-195.5631 495.4779,-198.2226"/>
</g>
<!-- Node70&#45;&gt;Node67 -->
<g id="edge29" class="edge">
<title>Node70&#45;&gt;Node67</title>
<path fill="none" stroke="#191970" d="M306.0714,-224.2455C297.8162,-216.1352 285.8791,-204.4075 276.0918,-194.7919"/>
<polygon fill="#191970" stroke="#191970" points="278.4011,-192.1542 268.8149,-187.6427 273.4954,-197.1476 278.4011,-192.1542"/>
</g>
<!-- Node70&#45;&gt;Node18 -->
<g id="edge28" class="edge">
<title>Node70&#45;&gt;Node18</title>
<path fill="none" stroke="#191970" d="M322.9675,-224.2455C328.5311,-216.4564 336.478,-205.3308 343.1829,-195.9439"/>
<polygon fill="#191970" stroke="#191970" points="346.148,-197.8144 349.1124,-187.6427 340.4519,-193.7457 346.148,-197.8144"/>
</g>
<!-- Node5 -->
<g id="node13" class="node">
<title>Node5</title>
<g id="a_node13"><a xlink:href="owner_8hpp.html" target="_top" xlink:title="alib/lang/owner.hpp">
<polygon fill="#ffffff" stroke="#ff0000" points="472,-56.5 472,-75.5 572,-75.5 572,-56.5 472,-56.5"/>
<text text-anchor="middle" x="522" y="-63.5" font-family="Helvetica,sans-Serif" font-size="10.00" fill="#000000">alib/lang/owner.hpp</text>
</a>
</g>
</g>
<!-- Node4&#45;&gt;Node5 -->
<g id="edge12" class="edge">
<title>Node4&#45;&gt;Node5</title>
<path fill="none" stroke="#191970" d="M568.2455,-112.2455C560.1352,-104.1352 548.4075,-92.4075 538.7919,-82.7919"/>
<polygon fill="#191970" stroke="#191970" points="541.1887,-80.2389 531.6427,-75.6427 536.2389,-85.1887 541.1887,-80.2389"/>
</g>
<!-- Node60 -->
<g id="node14" class="node">
<title>Node60</title>
<polygon fill="#ffffff" stroke="#bfbfbf" points="590,-56.5 590,-75.5 634,-75.5 634,-56.5 590,-56.5"/>
<text text-anchor="middle" x="612" y="-63.5" font-family="Helvetica,sans-Serif" font-size="10.00" fill="#000000">mutex</text>
</g>
<!-- Node4&#45;&gt;Node60 -->
<g id="edge13" class="edge">
<title>Node4&#45;&gt;Node60</title>
<path fill="none" stroke="#191970" d="M583.9223,-112.2455C588.6027,-104.5367 595.2673,-93.5598 600.9289,-84.2348"/>
<polygon fill="#191970" stroke="#191970" points="603.9475,-86.007 606.1455,-75.6427 597.9639,-82.3741 603.9475,-86.007"/>
</g>
<!-- Node61&#45;&gt;Node60 -->
<g id="edge16" class="edge">
<title>Node61&#45;&gt;Node60</title>
<path fill="none" stroke="#191970" d="M687.149,-112.2455C673.1868,-103.6534 652.6272,-91.0014 636.5404,-81.1018"/>
<polygon fill="#191970" stroke="#191970" points="638.0203,-77.9029 627.6693,-75.6427 634.3516,-83.8645 638.0203,-77.9029"/>
</g>
<!-- Node33 -->
<g id="node16" class="node">
<title>Node33</title>
<polygon fill="#ffffff" stroke="#bfbfbf" points="714.5,-56.5 714.5,-75.5 749.5,-75.5 749.5,-56.5 714.5,-56.5"/>
<text text-anchor="middle" x="732" y="-63.5" font-family="Helvetica,sans-Serif" font-size="10.00" fill="#000000">map</text>
</g>
<!-- Node61&#45;&gt;Node33 -->
<g id="edge15" class="edge">
<title>Node61&#45;&gt;Node33</title>
<path fill="none" stroke="#191970" d="M708.0514,-112.2455C712.0019,-104.617 717.6097,-93.7881 722.4058,-84.5267"/>
<polygon fill="#191970" stroke="#191970" points="725.5159,-86.1321 727.0065,-75.6427 719.2999,-82.9131 725.5159,-86.1321"/>
</g>
<!-- Node62 -->
<g id="node17" class="node">
<title>Node62</title>
<polygon fill="#ffffff" stroke="#bfbfbf" points="767.5,-56.5 767.5,-75.5 862.5,-75.5 862.5,-56.5 767.5,-56.5"/>
<text text-anchor="middle" x="815" y="-63.5" font-family="Helvetica,sans-Serif" font-size="10.00" fill="#000000">condition_variable</text>
</g>
<!-- Node61&#45;&gt;Node62 -->
<g id="edge17" class="edge">
<title>Node61&#45;&gt;Node62</title>
<path fill="none" stroke="#191970" d="M722.2535,-112.3733C740.0712,-103.4644 766.7747,-90.1127 786.9594,-80.0203"/>
<polygon fill="#191970" stroke="#191970" points="788.6187,-83.1038 795.9978,-75.5011 785.4882,-76.8428 788.6187,-83.1038"/>
</g>
<!-- Node63 -->
<g id="node18" class="node">
<title>Node63</title>
<polygon fill="#ffffff" stroke="#bfbfbf" points="652,-56.5 652,-75.5 696,-75.5 696,-56.5 652,-56.5"/>
<text text-anchor="middle" x="674" y="-63.5" font-family="Helvetica,sans-Serif" font-size="10.00" fill="#000000">thread</text>
</g>
<!-- Node61&#45;&gt;Node63 -->
<g id="edge18" class="edge">
<title>Node61&#45;&gt;Node63</title>
<path fill="none" stroke="#191970" d="M697.9486,-112.2455C693.9981,-104.617 688.3903,-93.7881 683.5942,-84.5267"/>
<polygon fill="#191970" stroke="#191970" points="686.7001,-82.9131 678.9935,-75.6427 680.4841,-86.1321 686.7001,-82.9131"/>
</g>
<!-- Node52&#45;&gt;Node2 -->
<g id="edge14" class="edge">
<title>Node52&#45;&gt;Node2</title>
<path fill="none" stroke="#191970" d="M87.3673,-56.2455C97.9554,-47.8943 113.4064,-35.7076 125.7893,-25.9408"/>
<polygon fill="#191970" stroke="#191970" points="128.0903,-28.5837 133.7745,-19.6427 123.7553,-23.0875 128.0903,-28.5837"/>
</g>
</g>
</svg>
