<?xml version="1.0" encoding="UTF-8" standalone="no"?>
<!DOCTYPE svg PUBLIC "-//W3C//DTD SVG 1.1//EN"
 "http://www.w3.org/Graphics/SVG/1.1/DTD/svg11.dtd">
<!-- Generated by graphviz version 2.40.1 (20161225.0304)
 -->
<!-- Title: consolelogger.hpp Pages: 1 -->
<svg width="3276pt" height="532pt"
 viewBox="0.00 0.00 3275.53 532.00" xmlns="http://www.w3.org/2000/svg" xmlns:xlink="http://www.w3.org/1999/xlink">
<g id="graph0" class="graph" transform="scale(1 1) rotate(0) translate(4 528)">
<title>consolelogger.hpp</title>
<polygon fill="#ffffff" stroke="transparent" points="-4,4 -4,-528 3271.5316,-528 3271.5316,4 -4,4"/>
<!-- Node0 -->
<g id="node1" class="node">
<title>Node0</title>
<polygon fill="#bfbfbf" stroke="#000000" points="857.5316,-504.5 857.5316,-523.5 952.5316,-523.5 952.5316,-504.5 857.5316,-504.5"/>
<text text-anchor="middle" x="905.0316" y="-511.5" font-family="Helvetica,sans-Serif" font-size="10.00" fill="#000000">consolelogger.hpp</text>
</g>
<!-- Node1 -->
<g id="node2" class="node">
<title>Node1</title>
<g id="a_node2"><a xlink:href="alox_2alox_8hpp.html" target="_top" xlink:title="alib/alox/alox.hpp">
<polygon fill="#ffffff" stroke="#000000" points="840.0316,-336.5 840.0316,-355.5 932.0316,-355.5 932.0316,-336.5 840.0316,-336.5"/>
<text text-anchor="middle" x="886.0316" y="-343.5" font-family="Helvetica,sans-Serif" font-size="10.00" fill="#000000">alib/alox/alox.hpp</text>
</a>
</g>
</g>
<!-- Node0&#45;&gt;Node1 -->
<g id="edge1" class="edge">
<title>Node0&#45;&gt;Node1</title>
<path fill="none" stroke="#191970" d="M903.9556,-504.4862C900.9522,-477.9293 892.4289,-402.5651 888.3122,-366.1655"/>
<polygon fill="#191970" stroke="#191970" points="891.7448,-365.3712 887.1431,-355.8279 884.7891,-366.1579 891.7448,-365.3712"/>
</g>
<!-- Node93 -->
<g id="node3" class="node">
<title>Node93</title>
<g id="a_node3"><a xlink:href="plaintextlogger_8hpp.html" target="_top" xlink:title="alib/alox/core/textlogger/plaintextlogger.hpp">
<polygon fill="#ffffff" stroke="#000000" points="673.0316,-448.5 673.0316,-467.5 877.0316,-467.5 877.0316,-448.5 673.0316,-448.5"/>
<text text-anchor="middle" x="775.0316" y="-455.5" font-family="Helvetica,sans-Serif" font-size="10.00" fill="#000000">alib/alox/core/textlogger/plaintextlogger.hpp</text>
</a>
</g>
</g>
<!-- Node0&#45;&gt;Node93 -->
<g id="edge2" class="edge">
<title>Node0&#45;&gt;Node93</title>
<path fill="none" stroke="#191970" d="M882.6838,-504.3733C861.6283,-495.3032 829.8821,-481.6279 806.3141,-471.4755"/>
<polygon fill="#191970" stroke="#191970" points="807.6566,-468.243 797.0878,-467.5011 804.8872,-474.6719 807.6566,-468.243"/>
</g>
<!-- Node103 -->
<g id="node4" class="node">
<title>Node103</title>
<g id="a_node4"><a xlink:href="stringio_8hpp.html" target="_top" xlink:title="alib/strings/util/stringio.hpp">
<polygon fill="#ffffff" stroke="#000000" points="941.5316,-448.5 941.5316,-467.5 1074.5316,-467.5 1074.5316,-448.5 941.5316,-448.5"/>
<text text-anchor="middle" x="1008.0316" y="-455.5" font-family="Helvetica,sans-Serif" font-size="10.00" fill="#000000">alib/strings/util/stringio.hpp</text>
</a>
</g>
</g>
<!-- Node0&#45;&gt;Node103 -->
<g id="edge3" class="edge">
<title>Node0&#45;&gt;Node103</title>
<path fill="none" stroke="#191970" d="M922.9728,-504.2455C939.0716,-495.4928 962.9195,-482.527 981.2707,-472.5496"/>
<polygon fill="#191970" stroke="#191970" points="983.1823,-475.4942 990.296,-467.6427 979.8387,-469.3444 983.1823,-475.4942"/>
</g>
<!-- Node2 -->
<g id="node5" class="node">
<title>Node2</title>
<g id="a_node5"><a xlink:href="alib_8hpp.html" target="_top" xlink:title="alib/alib.hpp">
<polygon fill="#ffffff" stroke="#000000" points="1775.0316,-56.5 1775.0316,-75.5 1843.0316,-75.5 1843.0316,-56.5 1775.0316,-56.5"/>
<text text-anchor="middle" x="1809.0316" y="-63.5" font-family="Helvetica,sans-Serif" font-size="10.00" fill="#000000">alib/alib.hpp</text>
</a>
</g>
</g>
<!-- Node1&#45;&gt;Node2 -->
<g id="edge4" class="edge">
<title>Node1&#45;&gt;Node2</title>
<path fill="none" stroke="#191970" d="M932.2362,-343.284C1085.286,-333.6791 1566.0316,-298.3846 1566.0316,-234 1566.0316,-234 1566.0316,-234 1566.0316,-178 1566.0316,-134.6654 1695.1029,-95.0062 1765.1097,-76.6825"/>
<polygon fill="#191970" stroke="#191970" points="1766.178,-80.0216 1774.9876,-74.136 1764.4305,-73.2433 1766.178,-80.0216"/>
</g>
<!-- Node58 -->
<g id="node6" class="node">
<title>Node58</title>
<g id="a_node6"><a xlink:href="alox__symbols_8hpp.html" target="_top" xlink:title="internals/alox_symbols.hpp">
<polygon fill="#ffffff" stroke="#000000" points="595.5316,-280.5 595.5316,-299.5 730.5316,-299.5 730.5316,-280.5 595.5316,-280.5"/>
<text text-anchor="middle" x="663.0316" y="-287.5" font-family="Helvetica,sans-Serif" font-size="10.00" fill="#000000">internals/alox_symbols.hpp</text>
</a>
</g>
</g>
<!-- Node1&#45;&gt;Node58 -->
<g id="edge5" class="edge">
<title>Node1&#45;&gt;Node58</title>
<path fill="none" stroke="#191970" d="M847.9499,-336.4369C810.0257,-326.9133 751.7027,-312.2672 710.719,-301.9753"/>
<polygon fill="#191970" stroke="#191970" points="711.5076,-298.5647 700.9562,-299.5237 709.8026,-305.3539 711.5076,-298.5647"/>
</g>
<!-- Node59 -->
<g id="node7" class="node">
<title>Node59</title>
<g id="a_node7"><a xlink:href="alox__macros_8hpp.html" target="_top" xlink:title="internals/alox_macros.hpp">
<polygon fill="#ffffff" stroke="#000000" points="748.5316,-280.5 748.5316,-299.5 879.5316,-299.5 879.5316,-280.5 748.5316,-280.5"/>
<text text-anchor="middle" x="814.0316" y="-287.5" font-family="Helvetica,sans-Serif" font-size="10.00" fill="#000000">internals/alox_macros.hpp</text>
</a>
</g>
</g>
<!-- Node1&#45;&gt;Node59 -->
<g id="edge6" class="edge">
<title>Node1&#45;&gt;Node59</title>
<path fill="none" stroke="#191970" d="M873.4902,-336.2455C862.7529,-327.8943 847.0843,-315.7076 834.5269,-305.9408"/>
<polygon fill="#191970" stroke="#191970" points="836.4717,-303.0194 826.4293,-299.6427 832.1741,-308.5449 836.4717,-303.0194"/>
</g>
<!-- Node60 -->
<g id="node8" class="node">
<title>Node60</title>
<g id="a_node8"><a xlink:href="configuration_8hpp.html" target="_top" xlink:title="alib/config/configuration.hpp">
<polygon fill="#ffffff" stroke="#000000" points="409.0316,-224.5 409.0316,-243.5 547.0316,-243.5 547.0316,-224.5 409.0316,-224.5"/>
<text text-anchor="middle" x="478.0316" y="-231.5" font-family="Helvetica,sans-Serif" font-size="10.00" fill="#000000">alib/config/configuration.hpp</text>
</a>
</g>
</g>
<!-- Node1&#45;&gt;Node60 -->
<g id="edge7" class="edge">
<title>Node1&#45;&gt;Node60</title>
<path fill="none" stroke="#191970" d="M839.93,-345.0211C753.7541,-342.4195 572.2422,-333.0651 520.0316,-300 502.8777,-289.1364 491.4354,-268.4526 484.8839,-253.1233"/>
<polygon fill="#191970" stroke="#191970" points="488.037,-251.5775 481.1195,-243.5526 481.5227,-254.1397 488.037,-251.5775"/>
</g>
<!-- Node75 -->
<g id="node9" class="node">
<title>Node75</title>
<g id="a_node9"><a xlink:href="aloxtypesandenums_8hpp.html" target="_top" xlink:title="aloxtypesandenums.hpp">
<polygon fill="#ffffff" stroke="#000000" points="898.0316,-280.5 898.0316,-299.5 1020.0316,-299.5 1020.0316,-280.5 898.0316,-280.5"/>
<text text-anchor="middle" x="959.0316" y="-287.5" font-family="Helvetica,sans-Serif" font-size="10.00" fill="#000000">aloxtypesandenums.hpp</text>
</a>
</g>
</g>
<!-- Node1&#45;&gt;Node75 -->
<g id="edge8" class="edge">
<title>Node1&#45;&gt;Node75</title>
<path fill="none" stroke="#191970" d="M898.7472,-336.2455C909.6336,-327.8943 925.5199,-315.7076 938.2516,-305.9408"/>
<polygon fill="#191970" stroke="#191970" points="940.6577,-308.5063 946.4617,-299.6427 936.397,-302.9523 940.6577,-308.5063"/>
</g>
<!-- Node76 -->
<g id="node10" class="node">
<title>Node76</title>
<g id="a_node10"><a xlink:href="log_8hpp.html" target="_top" xlink:title="log.hpp">
<polygon fill="#ffffff" stroke="#000000" points="1038.0316,-280.5 1038.0316,-299.5 1086.0316,-299.5 1086.0316,-280.5 1038.0316,-280.5"/>
<text text-anchor="middle" x="1062.0316" y="-287.5" font-family="Helvetica,sans-Serif" font-size="10.00" fill="#000000">log.hpp</text>
</a>
</g>
</g>
<!-- Node1&#45;&gt;Node76 -->
<g id="edge9" class="edge">
<title>Node1&#45;&gt;Node76</title>
<path fill="none" stroke="#191970" d="M911.0451,-336.3733C941.8309,-325.9276 993.8901,-309.3739 1028.2024,-299.1278"/>
<polygon fill="#191970" stroke="#191970" points="1029.2089,-302.4801 1037.8072,-296.2899 1027.2253,-295.767 1029.2089,-302.4801"/>
</g>
<!-- Node77 -->
<g id="node11" class="node">
<title>Node77</title>
<g id="a_node11"><a xlink:href="lox_8hpp.html" target="_top" xlink:title="lox.hpp">
<polygon fill="#ffffff" stroke="#ff0000" points="529.0316,-280.5 529.0316,-299.5 577.0316,-299.5 577.0316,-280.5 529.0316,-280.5"/>
<text text-anchor="middle" x="553.0316" y="-287.5" font-family="Helvetica,sans-Serif" font-size="10.00" fill="#000000">lox.hpp</text>
</a>
</g>
</g>
<!-- Node1&#45;&gt;Node77 -->
<g id="edge10" class="edge">
<title>Node1&#45;&gt;Node77</title>
<path fill="none" stroke="#191970" d="M839.9767,-341.6848C781.1774,-335.2817 676.6863,-321.8639 584.8932,-301.7304"/>
<polygon fill="#191970" stroke="#191970" points="585.4349,-298.2652 574.9126,-299.5028 583.91,-305.0971 585.4349,-298.2652"/>
</g>
<!-- Node93&#45;&gt;Node1 -->
<g id="edge66" class="edge">
<title>Node93&#45;&gt;Node1</title>
<path fill="none" stroke="#191970" d="M795.8147,-448.3887C811.5611,-440.3396 832.9819,-427.6622 848.0316,-412 861.1533,-398.3443 871.4875,-379.3083 878.0457,-365.1875"/>
<polygon fill="#191970" stroke="#191970" points="881.2997,-366.4828 882.1396,-355.9213 874.8968,-363.6539 881.2997,-366.4828"/>
</g>
<!-- Node94 -->
<g id="node49" class="node">
<title>Node94</title>
<g id="a_node49"><a xlink:href="textlogger_8hpp.html" target="_top" xlink:title="alib/alox/core/textlogger/textlogger.hpp">
<polygon fill="#ffffff" stroke="#ff0000" points="655.0316,-392.5 655.0316,-411.5 839.0316,-411.5 839.0316,-392.5 655.0316,-392.5"/>
<text text-anchor="middle" x="747.0316" y="-399.5" font-family="Helvetica,sans-Serif" font-size="10.00" fill="#000000">alib/alox/core/textlogger/textlogger.hpp</text>
</a>
</g>
</g>
<!-- Node93&#45;&gt;Node94 -->
<g id="edge67" class="edge">
<title>Node93&#45;&gt;Node94</title>
<path fill="none" stroke="#191970" d="M770.1544,-448.2455C766.3803,-440.6973 761.0395,-430.0158 756.4415,-420.8197"/>
<polygon fill="#191970" stroke="#191970" points="759.4556,-419.0217 751.8529,-411.6427 753.1946,-422.1522 759.4556,-419.0217"/>
</g>
<!-- Node104 -->
<g id="node50" class="node">
<title>Node104</title>
<g id="a_node50"><a xlink:href="std__iostream_8hpp.html" target="_top" xlink:title="alib/compatibility/std_iostream.hpp">
<polygon fill="#ffffff" stroke="#ff0000" points="932.5316,-392.5 932.5316,-411.5 1099.5316,-411.5 1099.5316,-392.5 932.5316,-392.5"/>
<text text-anchor="middle" x="1016.0316" y="-399.5" font-family="Helvetica,sans-Serif" font-size="10.00" fill="#000000">alib/compatibility/std_iostream.hpp</text>
</a>
</g>
</g>
<!-- Node103&#45;&gt;Node104 -->
<g id="edge70" class="edge">
<title>Node103&#45;&gt;Node104</title>
<path fill="none" stroke="#191970" d="M1009.4251,-448.2455C1010.469,-440.9382 1011.9324,-430.6944 1013.2167,-421.7046"/>
<polygon fill="#191970" stroke="#191970" points="1016.7046,-422.0372 1014.6541,-411.6427 1009.775,-421.0472 1016.7046,-422.0372"/>
</g>
<!-- Node3 -->
<g id="node12" class="node">
<title>Node3</title>
<polygon fill="#ffffff" stroke="#bfbfbf" points="2488.0316,-.5 2488.0316,-19.5 2540.0316,-19.5 2540.0316,-.5 2488.0316,-.5"/>
<text text-anchor="middle" x="2514.0316" y="-7.5" font-family="Helvetica,sans-Serif" font-size="10.00" fill="#000000">assert.h</text>
</g>
<!-- Node2&#45;&gt;Node3 -->
<g id="edge11" class="edge">
<title>Node2&#45;&gt;Node3</title>
<path fill="none" stroke="#191970" d="M1843.0832,-64.608C1958.5839,-59.7424 2335.6754,-42.6422 2477.5914,-19.856"/>
<polygon fill="#191970" stroke="#191970" points="2478.5175,-23.2493 2487.7961,-18.1348 2477.3532,-16.3468 2478.5175,-23.2493"/>
</g>
<!-- Node4 -->
<g id="node13" class="node">
<title>Node4</title>
<polygon fill="#ffffff" stroke="#bfbfbf" points="2558.5316,-.5 2558.5316,-19.5 2603.5316,-19.5 2603.5316,-.5 2558.5316,-.5"/>
<text text-anchor="middle" x="2581.0316" y="-7.5" font-family="Helvetica,sans-Serif" font-size="10.00" fill="#000000">iosfwd</text>
</g>
<!-- Node2&#45;&gt;Node4 -->
<g id="edge12" class="edge">
<title>Node2&#45;&gt;Node4</title>
<path fill="none" stroke="#191970" d="M1843.1134,-64.9708C1966.7207,-61.0726 2391.9228,-46.1792 2548.5532,-19.5579"/>
<polygon fill="#191970" stroke="#191970" points="2549.2461,-22.9897 2558.4758,-17.7875 2548.0164,-16.0985 2549.2461,-22.9897"/>
</g>
<!-- Node5 -->
<g id="node14" class="node">
<title>Node5</title>
<polygon fill="#ffffff" stroke="#bfbfbf" points="2622.0316,-.5 2622.0316,-19.5 2668.0316,-19.5 2668.0316,-.5 2622.0316,-.5"/>
<text text-anchor="middle" x="2645.0316" y="-7.5" font-family="Helvetica,sans-Serif" font-size="10.00" fill="#000000">cstdint</text>
</g>
<!-- Node2&#45;&gt;Node5 -->
<g id="edge13" class="edge">
<title>Node2&#45;&gt;Node5</title>
<path fill="none" stroke="#191970" d="M1843.2816,-65.1605C1974.0309,-61.7857 2442.4452,-48.0997 2611.7809,-19.7483"/>
<polygon fill="#191970" stroke="#191970" points="2612.5351,-23.1695 2621.7789,-17.9924 2611.3242,-16.275 2612.5351,-23.1695"/>
</g>
<!-- Node6 -->
<g id="node15" class="node">
<title>Node6</title>
<g id="a_node15"><a xlink:href="prepro_8hpp.html" target="_top" xlink:title="alib/lang/prepro.hpp">
<polygon fill="#ffffff" stroke="#000000" points="2686.5316,-.5 2686.5316,-19.5 2787.5316,-19.5 2787.5316,-.5 2686.5316,-.5"/>
<text text-anchor="middle" x="2737.0316" y="-7.5" font-family="Helvetica,sans-Serif" font-size="10.00" fill="#000000">alib/lang/prepro.hpp</text>
</a>
</g>
</g>
<!-- Node2&#45;&gt;Node6 -->
<g id="edge14" class="edge">
<title>Node2&#45;&gt;Node6</title>
<path fill="none" stroke="#191970" d="M1843.0587,-65.5678C1958.4672,-63.8131 2345.7081,-55.5638 2676.098,-19.9729"/>
<polygon fill="#191970" stroke="#191970" points="2676.7852,-23.4189 2686.348,-18.8579 2676.0281,-16.46 2676.7852,-23.4189"/>
</g>
<!-- Node7 -->
<g id="node16" class="node">
<title>Node7</title>
<g id="a_node16"><a xlink:href="types_8hpp.html" target="_top" xlink:title="alib/lang/types.hpp">
<polygon fill="#ffffff" stroke="#000000" points="2806.0316,-.5 2806.0316,-19.5 2904.0316,-19.5 2904.0316,-.5 2806.0316,-.5"/>
<text text-anchor="middle" x="2855.0316" y="-7.5" font-family="Helvetica,sans-Serif" font-size="10.00" fill="#000000">alib/lang/types.hpp</text>
</a>
</g>
</g>
<!-- Node2&#45;&gt;Node7 -->
<g id="edge15" class="edge">
<title>Node2&#45;&gt;Node7</title>
<path fill="none" stroke="#191970" d="M1843.2815,-64.9777C1992.4069,-60.4401 2586.5848,-41.4419 2795.7656,-19.9853"/>
<polygon fill="#191970" stroke="#191970" points="2796.1541,-23.4638 2805.7295,-18.9292 2795.4162,-16.5028 2796.1541,-23.4638"/>
</g>
<!-- Node8 -->
<g id="node17" class="node">
<title>Node8</title>
<g id="a_node17"><a xlink:href="assert_8hpp.html" target="_top" xlink:title="alib/debug/assert.hpp">
<polygon fill="#ffffff" stroke="#000000" points="2922.0316,-.5 2922.0316,-19.5 3032.0316,-19.5 3032.0316,-.5 2922.0316,-.5"/>
<text text-anchor="middle" x="2977.0316" y="-7.5" font-family="Helvetica,sans-Serif" font-size="10.00" fill="#000000">alib/debug/assert.hpp</text>
</a>
</g>
</g>
<!-- Node2&#45;&gt;Node8 -->
<g id="edge16" class="edge">
<title>Node2&#45;&gt;Node8</title>
<path fill="none" stroke="#191970" d="M1843.1437,-65.1009C2002.7611,-60.8148 2677.6059,-41.8001 2911.776,-19.9909"/>
<polygon fill="#191970" stroke="#191970" points="2912.3047,-23.4564 2921.9243,-19.0165 2911.6355,-16.4884 2912.3047,-23.4564"/>
</g>
<!-- Node9 -->
<g id="node18" class="node">
<title>Node9</title>
<g id="a_node18"><a xlink:href="rtti_8hpp.html" target="_top" xlink:title="alib/lang/rtti.hpp">
<polygon fill="#ffffff" stroke="#ff0000" points="3050.0316,-.5 3050.0316,-19.5 3136.0316,-19.5 3136.0316,-.5 3050.0316,-.5"/>
<text text-anchor="middle" x="3093.0316" y="-7.5" font-family="Helvetica,sans-Serif" font-size="10.00" fill="#000000">alib/lang/rtti.hpp</text>
</a>
</g>
</g>
<!-- Node2&#45;&gt;Node9 -->
<g id="edge17" class="edge">
<title>Node2&#45;&gt;Node9</title>
<path fill="none" stroke="#191970" d="M1843.3,-65.4285C2014.5136,-62.4664 2779.0004,-47.9559 3039.7991,-19.9343"/>
<polygon fill="#191970" stroke="#191970" points="3040.4267,-23.3862 3049.9794,-18.804 3039.6542,-16.429 3040.4267,-23.3862"/>
</g>
<!-- Node13 -->
<g id="node19" class="node">
<title>Node13</title>
<g id="a_node19"><a xlink:href="singleton_8hpp.html" target="_top" xlink:title="alib/lang/singleton.hpp">
<polygon fill="#ffffff" stroke="#ff0000" points="3154.5316,-.5 3154.5316,-19.5 3267.5316,-19.5 3267.5316,-.5 3154.5316,-.5"/>
<text text-anchor="middle" x="3211.0316" y="-7.5" font-family="Helvetica,sans-Serif" font-size="10.00" fill="#000000">alib/lang/singleton.hpp</text>
</a>
</g>
</g>
<!-- Node2&#45;&gt;Node13 -->
<g id="edge18" class="edge">
<title>Node2&#45;&gt;Node13</title>
<path fill="none" stroke="#191970" d="M1843.1273,-65.3628C2022.6417,-61.9273 2860.3484,-44.8741 3143.9434,-19.9653"/>
<polygon fill="#191970" stroke="#191970" points="3144.5568,-23.4243 3154.2012,-19.0383 3143.9267,-16.4527 3144.5568,-23.4243"/>
</g>
<!-- Node15 -->
<g id="node20" class="node">
<title>Node15</title>
<g id="a_node20"><a xlink:href="enums_8hpp.html" target="_top" xlink:title="alib/lang/enums.hpp">
<polygon fill="#ffffff" stroke="#000000" points="502.0316,-.5 502.0316,-19.5 606.0316,-19.5 606.0316,-.5 502.0316,-.5"/>
<text text-anchor="middle" x="554.0316" y="-7.5" font-family="Helvetica,sans-Serif" font-size="10.00" fill="#000000">alib/lang/enums.hpp</text>
</a>
</g>
</g>
<!-- Node2&#45;&gt;Node15 -->
<g id="edge19" class="edge">
<title>Node2&#45;&gt;Node15</title>
<path fill="none" stroke="#191970" d="M1774.9958,-65.2598C1607.566,-61.5326 869.6041,-44.0829 616.4629,-19.9973"/>
<polygon fill="#191970" stroke="#191970" points="616.5126,-16.4854 606.2185,-18.9919 615.8288,-23.452 616.5126,-16.4854"/>
</g>
<!-- Node16 -->
<g id="node21" class="node">
<title>Node16</title>
<g id="a_node21"><a xlink:href="strings_2strings_8hpp.html" target="_top" xlink:title="alib/strings/strings.hpp">
<polygon fill="#ffffff" stroke="#ff0000" points="624.5316,-.5 624.5316,-19.5 739.5316,-19.5 739.5316,-.5 624.5316,-.5"/>
<text text-anchor="middle" x="682.0316" y="-7.5" font-family="Helvetica,sans-Serif" font-size="10.00" fill="#000000">alib/strings/strings.hpp</text>
</a>
</g>
</g>
<!-- Node2&#45;&gt;Node16 -->
<g id="edge20" class="edge">
<title>Node2&#45;&gt;Node16</title>
<path fill="none" stroke="#191970" d="M1774.5888,-65.8449C1642.8934,-64.9712 1158.5117,-59.1867 749.8256,-20.0792"/>
<polygon fill="#191970" stroke="#191970" points="749.8693,-16.5672 739.5793,-19.0901 749.1967,-23.5348 749.8693,-16.5672"/>
</g>
<!-- Node25 -->
<g id="node22" class="node">
<title>Node25</title>
<g id="a_node22"><a xlink:href="astring_8hpp.html" target="_top" xlink:title="alib/strings/astring.hpp">
<polygon fill="#ffffff" stroke="#ff0000" points="757.5316,-.5 757.5316,-19.5 872.5316,-19.5 872.5316,-.5 757.5316,-.5"/>
<text text-anchor="middle" x="815.0316" y="-7.5" font-family="Helvetica,sans-Serif" font-size="10.00" fill="#000000">alib/strings/astring.hpp</text>
</a>
</g>
</g>
<!-- Node2&#45;&gt;Node25 -->
<g id="edge21" class="edge">
<title>Node2&#45;&gt;Node25</title>
<path fill="none" stroke="#191970" d="M1774.8504,-65.5189C1654.3003,-63.5662 1237.6255,-54.6477 882.9414,-19.9873"/>
<polygon fill="#191970" stroke="#191970" points="883.0253,-16.4787 872.7302,-18.9806 882.3385,-23.4449 883.0253,-16.4787"/>
</g>
<!-- Node27 -->
<g id="node23" class="node">
<title>Node27</title>
<g id="a_node23"><a xlink:href="preallocatedstring_8hpp.html" target="_top" xlink:title="alib/strings/preallocatedstring.hpp">
<polygon fill="#ffffff" stroke="#000000" points="891.0316,-.5 891.0316,-19.5 1053.0316,-19.5 1053.0316,-.5 891.0316,-.5"/>
<text text-anchor="middle" x="972.0316" y="-7.5" font-family="Helvetica,sans-Serif" font-size="10.00" fill="#000000">alib/strings/preallocatedstring.hpp</text>
</a>
</g>
</g>
<!-- Node2&#45;&gt;Node27 -->
<g id="edge22" class="edge">
<title>Node2&#45;&gt;Node27</title>
<path fill="none" stroke="#191970" d="M1774.7845,-64.4728C1670.0901,-59.6801 1344.8612,-43.8729 1063.3719,-19.9873"/>
<polygon fill="#191970" stroke="#191970" points="1063.6388,-16.4974 1053.3774,-19.1342 1063.0434,-23.4721 1063.6388,-16.4974"/>
</g>
<!-- Node28 -->
<g id="node24" class="node">
<title>Node28</title>
<g id="a_node24"><a xlink:href="resources_8hpp.html" target="_top" xlink:title="alib/lang/resources.hpp">
<polygon fill="#ffffff" stroke="#ff0000" points="1071.5316,-.5 1071.5316,-19.5 1188.5316,-19.5 1188.5316,-.5 1071.5316,-.5"/>
<text text-anchor="middle" x="1130.0316" y="-7.5" font-family="Helvetica,sans-Serif" font-size="10.00" fill="#000000">alib/lang/resources.hpp</text>
</a>
</g>
</g>
<!-- Node2&#45;&gt;Node28 -->
<g id="edge23" class="edge">
<title>Node2&#45;&gt;Node28</title>
<path fill="none" stroke="#191970" d="M1774.8374,-64.2777C1683.2979,-59.4858 1424.8711,-44.7688 1198.6692,-19.994"/>
<polygon fill="#191970" stroke="#191970" points="1198.9267,-16.5013 1188.6029,-18.8824 1198.1583,-23.459 1198.9267,-16.5013"/>
</g>
<!-- Node32 -->
<g id="node25" class="node">
<title>Node32</title>
<g id="a_node25"><a xlink:href="library_8hpp.html" target="_top" xlink:title="alib/lang/library.hpp">
<polygon fill="#ffffff" stroke="#000000" points="1207.0316,-.5 1207.0316,-19.5 1307.0316,-19.5 1307.0316,-.5 1207.0316,-.5"/>
<text text-anchor="middle" x="1257.0316" y="-7.5" font-family="Helvetica,sans-Serif" font-size="10.00" fill="#000000">alib/lang/library.hpp</text>
</a>
</g>
</g>
<!-- Node2&#45;&gt;Node32 -->
<g id="edge24" class="edge">
<title>Node2&#45;&gt;Node32</title>
<path fill="none" stroke="#191970" d="M1774.9382,-63.6612C1694.8353,-57.981 1488.4563,-42.2698 1317.0316,-20 1316.9302,-19.9868 1316.8286,-19.9736 1316.727,-19.9603"/>
<polygon fill="#191970" stroke="#191970" points="1317.4688,-16.5299 1307.0819,-18.6182 1316.504,-23.4631 1317.4688,-16.5299"/>
</g>
<!-- Node33 -->
<g id="node26" class="node">
<title>Node33</title>
<g id="a_node26"><a xlink:href="stringlib_8hpp.html" target="_top" xlink:title="alib/strings/stringlib.hpp">
<polygon fill="#ffffff" stroke="#000000" points="1325.5316,-.5 1325.5316,-19.5 1444.5316,-19.5 1444.5316,-.5 1325.5316,-.5"/>
<text text-anchor="middle" x="1385.0316" y="-7.5" font-family="Helvetica,sans-Serif" font-size="10.00" fill="#000000">alib/strings/stringlib.hpp</text>
</a>
</g>
</g>
<!-- Node2&#45;&gt;Node33 -->
<g id="edge25" class="edge">
<title>Node2&#45;&gt;Node33</title>
<path fill="none" stroke="#191970" d="M1774.7389,-61.7308C1713.0336,-54.0112 1578.946,-37.0644 1454.9159,-20.1052"/>
<polygon fill="#191970" stroke="#191970" points="1455.2456,-16.6177 1444.8629,-18.7275 1454.2951,-23.5529 1455.2456,-16.6177"/>
</g>
<!-- Node34 -->
<g id="node27" class="node">
<title>Node34</title>
<g id="a_node27"><a xlink:href="boxinglib_8hpp.html" target="_top" xlink:title="alib/boxing/boxinglib.hpp">
<polygon fill="#ffffff" stroke="#ff0000" points="1462.5316,-.5 1462.5316,-19.5 1585.5316,-19.5 1585.5316,-.5 1462.5316,-.5"/>
<text text-anchor="middle" x="1524.0316" y="-7.5" font-family="Helvetica,sans-Serif" font-size="10.00" fill="#000000">alib/boxing/boxinglib.hpp</text>
</a>
</g>
</g>
<!-- Node2&#45;&gt;Node34 -->
<g id="edge26" class="edge">
<title>Node2&#45;&gt;Node34</title>
<path fill="none" stroke="#191970" d="M1774.937,-59.3007C1727.4079,-49.9617 1640.558,-32.8964 1582.5593,-21.5002"/>
<polygon fill="#191970" stroke="#191970" points="1582.9263,-18.0054 1572.4391,-19.5117 1581.5766,-24.8741 1582.9263,-18.0054"/>
</g>
<!-- Node43 -->
<g id="node28" class="node">
<title>Node43</title>
<g id="a_node28"><a xlink:href="langlib_8hpp.html" target="_top" xlink:title="alib/lang/langlib.hpp">
<polygon fill="#ffffff" stroke="#000000" points="1604.0316,-.5 1604.0316,-19.5 1706.0316,-19.5 1706.0316,-.5 1604.0316,-.5"/>
<text text-anchor="middle" x="1655.0316" y="-7.5" font-family="Helvetica,sans-Serif" font-size="10.00" fill="#000000">alib/lang/langlib.hpp</text>
</a>
</g>
</g>
<!-- Node2&#45;&gt;Node43 -->
<g id="edge27" class="edge">
<title>Node2&#45;&gt;Node43</title>
<path fill="none" stroke="#191970" d="M1782.5581,-56.3733C1757.1719,-47.1419 1718.6672,-33.1402 1690.6096,-22.9375"/>
<polygon fill="#191970" stroke="#191970" points="1691.7538,-19.6293 1681.1597,-19.5011 1689.3615,-26.2079 1691.7538,-19.6293"/>
</g>
<!-- Node44 -->
<g id="node29" class="node">
<title>Node44</title>
<g id="a_node29"><a xlink:href="stringboxing_8hpp.html" target="_top" xlink:title="alib/strings/boxing/stringboxing.hpp">
<polygon fill="#ffffff" stroke="#000000" points="1724.0316,-.5 1724.0316,-19.5 1894.0316,-19.5 1894.0316,-.5 1724.0316,-.5"/>
<text text-anchor="middle" x="1809.0316" y="-7.5" font-family="Helvetica,sans-Serif" font-size="10.00" fill="#000000">alib/strings/boxing/stringboxing.hpp</text>
</a>
</g>
</g>
<!-- Node2&#45;&gt;Node44 -->
<g id="edge28" class="edge">
<title>Node2&#45;&gt;Node44</title>
<path fill="none" stroke="#191970" d="M1809.0316,-56.2455C1809.0316,-48.9382 1809.0316,-38.6944 1809.0316,-29.7046"/>
<polygon fill="#191970" stroke="#191970" points="1812.5317,-29.6426 1809.0316,-19.6427 1805.5317,-29.6427 1812.5317,-29.6426"/>
</g>
<!-- Node45 -->
<g id="node30" class="node">
<title>Node45</title>
<g id="a_node30"><a xlink:href="report_8hpp.html" target="_top" xlink:title="alib/lang/report.hpp">
<polygon fill="#ffffff" stroke="#ff0000" points="1912.5316,-.5 1912.5316,-19.5 2011.5316,-19.5 2011.5316,-.5 1912.5316,-.5"/>
<text text-anchor="middle" x="1962.0316" y="-7.5" font-family="Helvetica,sans-Serif" font-size="10.00" fill="#000000">alib/lang/report.hpp</text>
</a>
</g>
</g>
<!-- Node2&#45;&gt;Node45 -->
<g id="edge29" class="edge">
<title>Node2&#45;&gt;Node45</title>
<path fill="none" stroke="#191970" d="M1835.3332,-56.3733C1860.4444,-47.1822 1898.4754,-33.2624 1926.3188,-23.0713"/>
<polygon fill="#191970" stroke="#191970" points="1927.8855,-26.2251 1936.0732,-19.5011 1925.4794,-19.6516 1927.8855,-26.2251"/>
</g>
<!-- Node47 -->
<g id="node31" class="node">
<title>Node47</title>
<g id="a_node31"><a xlink:href="enumbitwise_8hpp.html" target="_top" xlink:title="alib/lang/enumbitwise.hpp">
<polygon fill="#ffffff" stroke="#ff0000" points="354.5316,-.5 354.5316,-19.5 483.5316,-19.5 483.5316,-.5 354.5316,-.5"/>
<text text-anchor="middle" x="419.0316" y="-7.5" font-family="Helvetica,sans-Serif" font-size="10.00" fill="#000000">alib/lang/enumbitwise.hpp</text>
</a>
</g>
</g>
<!-- Node2&#45;&gt;Node47 -->
<g id="edge30" class="edge">
<title>Node2&#45;&gt;Node47</title>
<path fill="none" stroke="#191970" d="M1774.8625,-65.2666C1596.8282,-61.3761 773.3111,-42.5106 493.6794,-19.9431"/>
<polygon fill="#191970" stroke="#191970" points="493.8188,-16.4428 483.5638,-19.1048 493.2406,-23.4189 493.8188,-16.4428"/>
</g>
<!-- Node49 -->
<g id="node32" class="node">
<title>Node49</title>
<g id="a_node32"><a xlink:href="enummetadata_8hpp.html" target="_top" xlink:title="alib/lang/enummetadata.hpp">
<polygon fill="#ffffff" stroke="#ff0000" points="2029.5316,-.5 2029.5316,-19.5 2168.5316,-19.5 2168.5316,-.5 2029.5316,-.5"/>
<text text-anchor="middle" x="2099.0316" y="-7.5" font-family="Helvetica,sans-Serif" font-size="10.00" fill="#000000">alib/lang/enummetadata.hpp</text>
</a>
</g>
</g>
<!-- Node2&#45;&gt;Node49 -->
<g id="edge31" class="edge">
<title>Node2&#45;&gt;Node49</title>
<path fill="none" stroke="#191970" d="M1843.1511,-59.4114C1891.4859,-50.0778 1980.5944,-32.8706 2039.8441,-21.4293"/>
<polygon fill="#191970" stroke="#191970" points="2040.6587,-24.8368 2049.8137,-19.5042 2039.3314,-17.9637 2040.6587,-24.8368"/>
</g>
<!-- Node50 -->
<g id="node33" class="node">
<title>Node50</title>
<g id="a_node33"><a xlink:href="configlib_8hpp.html" target="_top" xlink:title="alib/config/configlib.hpp">
<polygon fill="#ffffff" stroke="#ff0000" points="217.5316,-.5 217.5316,-19.5 336.5316,-19.5 336.5316,-.5 217.5316,-.5"/>
<text text-anchor="middle" x="277.0316" y="-7.5" font-family="Helvetica,sans-Serif" font-size="10.00" fill="#000000">alib/config/configlib.hpp</text>
</a>
</g>
</g>
<!-- Node2&#45;&gt;Node50 -->
<g id="edge32" class="edge">
<title>Node2&#45;&gt;Node50</title>
<path fill="none" stroke="#191970" d="M1774.8747,-65.4595C1584.9871,-62.3746 657.0177,-46.2345 347.0119,-20.0637"/>
<polygon fill="#191970" stroke="#191970" points="346.9551,-16.5457 336.6899,-19.1681 346.3499,-23.5195 346.9551,-16.5457"/>
</g>
<!-- Node55 -->
<g id="node34" class="node">
<title>Node55</title>
<g id="a_node34"><a xlink:href="systemlib_8hpp.html" target="_top" xlink:title="alib/system/systemlib.hpp">
<polygon fill="#ffffff" stroke="#ff0000" points="2186.5316,-.5 2186.5316,-19.5 2317.5316,-19.5 2317.5316,-.5 2186.5316,-.5"/>
<text text-anchor="middle" x="2252.0316" y="-7.5" font-family="Helvetica,sans-Serif" font-size="10.00" fill="#000000">alib/system/systemlib.hpp</text>
</a>
</g>
</g>
<!-- Node2&#45;&gt;Node55 -->
<g id="edge33" class="edge">
<title>Node2&#45;&gt;Node55</title>
<path fill="none" stroke="#191970" d="M1843.1314,-61.8681C1906.5949,-54.1525 2047.4029,-36.9129 2176.2264,-20.2256"/>
<polygon fill="#191970" stroke="#191970" points="2176.8022,-23.6803 2186.2688,-18.9226 2175.9015,-16.7384 2176.8022,-23.6803"/>
</g>
<!-- Node57 -->
<g id="node35" class="node">
<title>Node57</title>
<g id="a_node35"><a xlink:href="applicables_8hpp.html" target="_top" xlink:title="alib/strings/applicables.hpp">
<polygon fill="#ffffff" stroke="#000000" points="2336.0316,-.5 2336.0316,-19.5 2470.0316,-19.5 2470.0316,-.5 2336.0316,-.5"/>
<text text-anchor="middle" x="2403.0316" y="-7.5" font-family="Helvetica,sans-Serif" font-size="10.00" fill="#000000">alib/strings/applicables.hpp</text>
</a>
</g>
</g>
<!-- Node2&#45;&gt;Node57 -->
<g id="edge34" class="edge">
<title>Node2&#45;&gt;Node57</title>
<path fill="none" stroke="#191970" d="M1843.3274,-63.4584C1924.96,-57.3009 2137.4348,-40.6399 2325.8251,-20.0943"/>
<polygon fill="#191970" stroke="#191970" points="2326.3547,-23.5572 2335.9135,-18.9877 2325.5915,-16.599 2326.3547,-23.5572"/>
</g>
<!-- Node60&#45;&gt;Node47 -->
<g id="edge35" class="edge">
<title>Node60&#45;&gt;Node47</title>
<path fill="none" stroke="#191970" d="M472.5317,-224.3784C467.4753,-215.2394 460.0274,-201.0021 455.0316,-188 436.5068,-139.7871 432.9132,-126.88 424.0316,-76 421.3723,-60.7658 420.1272,-43.3092 419.5443,-30.1769"/>
<polygon fill="#191970" stroke="#191970" points="423.0328,-29.785 419.1837,-19.9141 416.0371,-30.0309 423.0328,-29.785"/>
</g>
<!-- Node61 -->
<g id="node36" class="node">
<title>Node61</title>
<g id="a_node36"><a xlink:href="threadlock_8hpp.html" target="_top" xlink:title="alib/threads/threadlock.hpp">
<polygon fill="#ffffff" stroke="#ff0000" points="471.0316,-112.5 471.0316,-131.5 605.0316,-131.5 605.0316,-112.5 471.0316,-112.5"/>
<text text-anchor="middle" x="538.0316" y="-119.5" font-family="Helvetica,sans-Serif" font-size="10.00" fill="#000000">alib/threads/threadlock.hpp</text>
</a>
</g>
</g>
<!-- Node60&#45;&gt;Node61 -->
<g id="edge36" class="edge">
<title>Node60&#45;&gt;Node61</title>
<path fill="none" stroke="#191970" d="M480.1151,-224.1395C483.1926,-210.8158 489.7266,-186.5927 500.0316,-168 505.7562,-157.6715 513.9178,-147.4199 521.2108,-139.2248"/>
<polygon fill="#191970" stroke="#191970" points="523.8689,-141.5055 528.0918,-131.7886 518.7311,-136.7513 523.8689,-141.5055"/>
</g>
<!-- Node68 -->
<g id="node37" class="node">
<title>Node68</title>
<g id="a_node37"><a xlink:href="substring_8hpp.html" target="_top" xlink:title="alib/strings/substring.hpp">
<polygon fill="#ffffff" stroke="#000000" points="433.5316,-56.5 433.5316,-75.5 558.5316,-75.5 558.5316,-56.5 433.5316,-56.5"/>
<text text-anchor="middle" x="496.0316" y="-63.5" font-family="Helvetica,sans-Serif" font-size="10.00" fill="#000000">alib/strings/substring.hpp</text>
</a>
</g>
</g>
<!-- Node60&#45;&gt;Node68 -->
<g id="edge37" class="edge">
<title>Node60&#45;&gt;Node68</title>
<path fill="none" stroke="#191970" d="M473.9018,-224.2369C465.6058,-203.1843 448.7966,-152.1726 462.0316,-112 465.5372,-101.3594 472.5557,-91.164 479.3103,-83.0877"/>
<polygon fill="#191970" stroke="#191970" points="482.033,-85.2937 486.0954,-75.5087 476.8176,-80.6247 482.033,-85.2937"/>
</g>
<!-- Node69 -->
<g id="node38" class="node">
<title>Node69</title>
<g id="a_node38"><a xlink:href="numberformat_8hpp.html" target="_top" xlink:title="alib/strings/numberformat.hpp">
<polygon fill="#ffffff" stroke="#000000" points="193.0316,-168.5 193.0316,-187.5 339.0316,-187.5 339.0316,-168.5 193.0316,-168.5"/>
<text text-anchor="middle" x="266.0316" y="-175.5" font-family="Helvetica,sans-Serif" font-size="10.00" fill="#000000">alib/strings/numberformat.hpp</text>
</a>
</g>
</g>
<!-- Node60&#45;&gt;Node69 -->
<g id="edge38" class="edge">
<title>Node60&#45;&gt;Node69</title>
<path fill="none" stroke="#191970" d="M441.5875,-224.3733C405.7247,-214.9001 350.8438,-200.4032 312.0034,-190.1435"/>
<polygon fill="#191970" stroke="#191970" points="312.5624,-186.6712 302.0001,-187.5011 310.7746,-193.439 312.5624,-186.6712"/>
</g>
<!-- Node70 -->
<g id="node39" class="node">
<title>Node70</title>
<g id="a_node39"><a xlink:href="variable_8hpp.html" target="_top" xlink:title="alib/config/variable.hpp">
<polygon fill="#ffffff" stroke="#000000" points="219.0316,-56.5 219.0316,-75.5 335.0316,-75.5 335.0316,-56.5 219.0316,-56.5"/>
<text text-anchor="middle" x="277.0316" y="-63.5" font-family="Helvetica,sans-Serif" font-size="10.00" fill="#000000">alib/config/variable.hpp</text>
</a>
</g>
</g>
<!-- Node60&#45;&gt;Node70 -->
<g id="edge39" class="edge">
<title>Node60&#45;&gt;Node70</title>
<path fill="none" stroke="#191970" d="M408.7239,-224.9883C405.7882,-224.6464 402.8812,-224.3155 400.0316,-224 357.2181,-219.2605 43.0416,-219.8415 14.0316,-188 -47.7642,-120.1726 111.8152,-87.0803 208.8217,-73.6478"/>
<polygon fill="#191970" stroke="#191970" points="209.4293,-77.0977 218.873,-72.2949 208.4955,-70.1603 209.4293,-77.0977"/>
</g>
<!-- Node71 -->
<g id="node40" class="node">
<title>Node71</title>
<g id="a_node40"><a xlink:href="plugins_8hpp.html" target="_top" xlink:title="alib/config/plugins.hpp">
<polygon fill="#ffffff" stroke="#000000" points="248.5316,-112.5 248.5316,-131.5 361.5316,-131.5 361.5316,-112.5 248.5316,-112.5"/>
<text text-anchor="middle" x="305.0316" y="-119.5" font-family="Helvetica,sans-Serif" font-size="10.00" fill="#000000">alib/config/plugins.hpp</text>
</a>
</g>
</g>
<!-- Node60&#45;&gt;Node71 -->
<g id="edge40" class="edge">
<title>Node60&#45;&gt;Node71</title>
<path fill="none" stroke="#191970" d="M457.4446,-224.3367C439.4617,-215.6117 412.8891,-202.0245 391.0316,-188 367.0212,-172.5941 341.2937,-152.2933 324.3002,-138.2953"/>
<polygon fill="#191970" stroke="#191970" points="326.1907,-135.3151 316.2652,-131.609 321.7132,-140.6959 326.1907,-135.3151"/>
</g>
<!-- Node72 -->
<g id="node41" class="node">
<title>Node72</title>
<g id="a_node41"><a xlink:href="plugincontainer_8hpp.html" target="_top" xlink:title="alib/util/plugincontainer.hpp">
<polygon fill="#ffffff" stroke="#ff0000" points="659.0316,-168.5 659.0316,-187.5 793.0316,-187.5 793.0316,-168.5 659.0316,-168.5"/>
<text text-anchor="middle" x="726.0316" y="-175.5" font-family="Helvetica,sans-Serif" font-size="10.00" fill="#000000">alib/util/plugincontainer.hpp</text>
</a>
</g>
</g>
<!-- Node60&#45;&gt;Node72 -->
<g id="edge41" class="edge">
<title>Node60&#45;&gt;Node72</title>
<path fill="none" stroke="#191970" d="M520.3825,-224.4369C562.8258,-214.8529 628.2435,-200.0812 673.863,-189.78"/>
<polygon fill="#191970" stroke="#191970" points="674.8719,-193.1404 683.8554,-187.5237 673.33,-186.3123 674.8719,-193.1404"/>
</g>
<!-- Node74 -->
<g id="node42" class="node">
<title>Node74</title>
<g id="a_node42"><a xlink:href="inmemoryplugin_8hpp.html" target="_top" xlink:title="alib/config/inmemoryplugin.hpp">
<polygon fill="#ffffff" stroke="#ff0000" points="23.5316,-168.5 23.5316,-187.5 174.5316,-187.5 174.5316,-168.5 23.5316,-168.5"/>
<text text-anchor="middle" x="99.0316" y="-175.5" font-family="Helvetica,sans-Serif" font-size="10.00" fill="#000000">alib/config/inmemoryplugin.hpp</text>
</a>
</g>
</g>
<!-- Node60&#45;&gt;Node74 -->
<g id="edge42" class="edge">
<title>Node60&#45;&gt;Node74</title>
<path fill="none" stroke="#191970" d="M413.3098,-224.4369C346.8117,-214.6113 243.411,-199.3331 173.5431,-189.0096"/>
<polygon fill="#191970" stroke="#191970" points="173.8907,-185.523 163.4864,-187.5237 172.8674,-192.4479 173.8907,-185.523"/>
</g>
<!-- Node76&#45;&gt;Node1 -->
<g id="edge51" class="edge">
<title>Node76&#45;&gt;Node1</title>
<path fill="none" stroke="#191970" d="M1037.9358,-299.315C1010.4747,-308.6528 965.2846,-323.0909 931.2531,-333.4376"/>
<polygon fill="#191970" stroke="#191970" points="930.0908,-330.1324 921.5291,-336.3733 932.1139,-336.8337 930.0908,-330.1324"/>
</g>
<!-- Node77&#45;&gt;Node1 -->
<g id="edge52" class="edge">
<title>Node77&#45;&gt;Node1</title>
<path fill="none" stroke="#191970" d="M577.1833,-295.2417C583.1335,-296.9316 589.3104,-298.7014 595.0316,-300 675.863,-318.3465 770.6302,-331.5147 829.5986,-338.9412"/>
<polygon fill="#191970" stroke="#191970" points="829.4659,-342.4517 839.8223,-340.2167 830.3325,-335.5056 829.4659,-342.4517"/>
</g>
<!-- Node77&#45;&gt;Node60 -->
<g id="edge53" class="edge">
<title>Node77&#45;&gt;Node60</title>
<path fill="none" stroke="#191970" d="M539.9676,-280.2455C528.6754,-271.814 512.1471,-259.4729 499.0045,-249.6598"/>
<polygon fill="#191970" stroke="#191970" points="501.0528,-246.8211 490.9459,-243.6427 496.8647,-252.4301 501.0528,-246.8211"/>
</g>
<!-- Node78 -->
<g id="node43" class="node">
<title>Node78</title>
<g id="a_node43"><a xlink:href="smartlock_8hpp.html" target="_top" xlink:title="alib/threads/smartlock.hpp">
<polygon fill="#ffffff" stroke="#ff0000" points="509.5316,-168.5 509.5316,-187.5 640.5316,-187.5 640.5316,-168.5 509.5316,-168.5"/>
<text text-anchor="middle" x="575.0316" y="-175.5" font-family="Helvetica,sans-Serif" font-size="10.00" fill="#000000">alib/threads/smartlock.hpp</text>
</a>
</g>
</g>
<!-- Node77&#45;&gt;Node78 -->
<g id="edge54" class="edge">
<title>Node77&#45;&gt;Node78</title>
<path fill="none" stroke="#191970" d="M554.9073,-280.4509C558.5117,-262.1013 566.4691,-221.5908 571.2269,-197.3693"/>
<polygon fill="#191970" stroke="#191970" points="574.6675,-198.012 573.1606,-187.5249 567.7987,-196.6627 574.6675,-198.012"/>
</g>
<!-- Node79 -->
<g id="node44" class="node">
<title>Node79</title>
<g id="a_node44"><a xlink:href="tokenizer_8hpp.html" target="_top" xlink:title="alib/strings/util/tokenizer.hpp">
<polygon fill="#ffffff" stroke="#000000" points="661.0316,-112.5 661.0316,-131.5 801.0316,-131.5 801.0316,-112.5 661.0316,-112.5"/>
<text text-anchor="middle" x="731.0316" y="-119.5" font-family="Helvetica,sans-Serif" font-size="10.00" fill="#000000">alib/strings/util/tokenizer.hpp</text>
</a>
</g>
</g>
<!-- Node77&#45;&gt;Node79 -->
<g id="edge55" class="edge">
<title>Node77&#45;&gt;Node79</title>
<path fill="none" stroke="#191970" d="M577.1528,-281.8355C637.045,-261.3288 788.6914,-207.8808 802.0316,-188 816.0841,-167.0578 789.3557,-148.0179 764.7753,-135.8293"/>
<polygon fill="#191970" stroke="#191970" points="766.0893,-132.5799 755.5492,-131.5037 763.1177,-138.9178 766.0893,-132.5799"/>
</g>
<!-- Node80 -->
<g id="node45" class="node">
<title>Node80</title>
<g id="a_node45"><a xlink:href="scopeinfo_8hpp.html" target="_top" xlink:title="alib/alox/core/scopeinfo.hpp">
<polygon fill="#ffffff" stroke="#ff0000" points="849.0316,-224.5 849.0316,-243.5 987.0316,-243.5 987.0316,-224.5 849.0316,-224.5"/>
<text text-anchor="middle" x="918.0316" y="-231.5" font-family="Helvetica,sans-Serif" font-size="10.00" fill="#000000">alib/alox/core/scopeinfo.hpp</text>
</a>
</g>
</g>
<!-- Node77&#45;&gt;Node80 -->
<g id="edge56" class="edge">
<title>Node77&#45;&gt;Node80</title>
<path fill="none" stroke="#191970" d="M577.0673,-282.2413C580.0674,-281.4137 583.1079,-280.6414 586.0316,-280 610.1709,-274.7044 748.4737,-256.1803 838.7921,-244.3166"/>
<polygon fill="#191970" stroke="#191970" points="839.279,-247.7828 848.7386,-243.0115 838.3682,-240.8423 839.279,-247.7828"/>
</g>
<!-- Node89 -->
<g id="node46" class="node">
<title>Node89</title>
<g id="a_node46"><a xlink:href="logger_8hpp.html" target="_top" xlink:title="alib/alox/core/logger.hpp">
<polygon fill="#ffffff" stroke="#ff0000" points="269.0316,-224.5 269.0316,-243.5 391.0316,-243.5 391.0316,-224.5 269.0316,-224.5"/>
<text text-anchor="middle" x="330.0316" y="-231.5" font-family="Helvetica,sans-Serif" font-size="10.00" fill="#000000">alib/alox/core/logger.hpp</text>
</a>
</g>
</g>
<!-- Node77&#45;&gt;Node89 -->
<g id="edge57" class="edge">
<title>Node77&#45;&gt;Node89</title>
<path fill="none" stroke="#191970" d="M528.7422,-283.9004C492.6697,-274.8419 424.2203,-257.6528 377.86,-246.0107"/>
<polygon fill="#191970" stroke="#191970" points="378.5846,-242.5841 368.0332,-243.543 376.8796,-249.3733 378.5846,-242.5841"/>
</g>
<!-- Node90 -->
<g id="node47" class="node">
<title>Node90</title>
<g id="a_node47"><a xlink:href="domain_8hpp.html" target="_top" xlink:title="alib/alox/core/domain.hpp">
<polygon fill="#ffffff" stroke="#ff0000" points="1005.0316,-224.5 1005.0316,-243.5 1133.0316,-243.5 1133.0316,-224.5 1005.0316,-224.5"/>
<text text-anchor="middle" x="1069.0316" y="-231.5" font-family="Helvetica,sans-Serif" font-size="10.00" fill="#000000">alib/alox/core/domain.hpp</text>
</a>
</g>
</g>
<!-- Node77&#45;&gt;Node90 -->
<g id="edge58" class="edge">
<title>Node77&#45;&gt;Node90</title>
<path fill="none" stroke="#191970" d="M577.0379,-282.0987C580.0431,-281.2955 583.0928,-280.568 586.0316,-280 762.3869,-245.9174 812.452,-263.7455 994.7608,-244.0803"/>
<polygon fill="#191970" stroke="#191970" points="995.4031,-247.5307 1004.9595,-242.9562 994.6362,-240.5729 995.4031,-247.5307"/>
</g>
<!-- Node91 -->
<g id="node48" class="node">
<title>Node91</title>
<g id="a_node48"><a xlink:href="scopestore_8hpp.html" target="_top" xlink:title="alib/alox/core/scopestore.hpp">
<polygon fill="#ffffff" stroke="#ff0000" points="1151.0316,-224.5 1151.0316,-243.5 1295.0316,-243.5 1295.0316,-224.5 1151.0316,-224.5"/>
<text text-anchor="middle" x="1223.0316" y="-231.5" font-family="Helvetica,sans-Serif" font-size="10.00" fill="#000000">alib/alox/core/scopestore.hpp</text>
</a>
</g>
</g>
<!-- Node77&#45;&gt;Node91 -->
<g id="edge59" class="edge">
<title>Node77&#45;&gt;Node91</title>
<path fill="none" stroke="#191970" d="M577.3867,-281.9386C580.277,-281.185 583.2043,-280.5129 586.0316,-280 826.4717,-236.3848 893.7243,-266.3661 1140.6377,-244.0719"/>
<polygon fill="#191970" stroke="#191970" points="1140.9947,-247.5539 1150.6309,-243.1501 1140.3516,-240.5835 1140.9947,-247.5539"/>
</g>
<!-- Node68&#45;&gt;Node47 -->
<g id="edge43" class="edge">
<title>Node68&#45;&gt;Node47</title>
<path fill="none" stroke="#191970" d="M482.6192,-56.2455C471.0259,-47.814 454.0569,-35.4729 440.5638,-25.6598"/>
<polygon fill="#191970" stroke="#191970" points="442.4363,-22.6938 432.2903,-19.6427 438.319,-28.355 442.4363,-22.6938"/>
</g>
<!-- Node70&#45;&gt;Node50 -->
<g id="edge44" class="edge">
<title>Node70&#45;&gt;Node50</title>
<path fill="none" stroke="#191970" d="M277.0316,-56.2455C277.0316,-48.9382 277.0316,-38.6944 277.0316,-29.7046"/>
<polygon fill="#191970" stroke="#191970" points="280.5317,-29.6426 277.0316,-19.6427 273.5317,-29.6427 280.5317,-29.6426"/>
</g>
<!-- Node71&#45;&gt;Node68 -->
<g id="edge45" class="edge">
<title>Node71&#45;&gt;Node68</title>
<path fill="none" stroke="#191970" d="M337.8657,-112.3733C369.9011,-102.9807 418.7803,-88.6496 453.7171,-78.4064"/>
<polygon fill="#191970" stroke="#191970" points="455.0147,-81.6733 463.626,-75.5011 453.0452,-74.9561 455.0147,-81.6733"/>
</g>
<!-- Node71&#45;&gt;Node70 -->
<g id="edge46" class="edge">
<title>Node71&#45;&gt;Node70</title>
<path fill="none" stroke="#191970" d="M300.1544,-112.2455C296.3803,-104.6973 291.0395,-94.0158 286.4415,-84.8197"/>
<polygon fill="#191970" stroke="#191970" points="289.4556,-83.0217 281.8529,-75.6427 283.1946,-86.1522 289.4556,-83.0217"/>
</g>
<!-- Node72&#45;&gt;Node47 -->
<g id="edge47" class="edge">
<title>Node72&#45;&gt;Node47</title>
<path fill="none" stroke="#191970" d="M756.5765,-168.3999C787.6997,-157.0047 828.9109,-136.4362 810.0316,-112 789.6405,-85.6071 583.7849,-42.1407 479.2585,-21.5306"/>
<polygon fill="#191970" stroke="#191970" points="479.651,-18.0409 469.164,-19.5491 478.3026,-24.9098 479.651,-18.0409"/>
</g>
<!-- Node72&#45;&gt;Node61 -->
<g id="edge48" class="edge">
<title>Node72&#45;&gt;Node61</title>
<path fill="none" stroke="#191970" d="M693.7133,-168.3733C662.181,-158.9807 614.0696,-144.6496 579.6815,-134.4064"/>
<polygon fill="#191970" stroke="#191970" points="580.5113,-131.0016 569.9282,-131.5011 578.5129,-137.7103 580.5113,-131.0016"/>
</g>
<!-- Node72&#45;&gt;Node68 -->
<g id="edge49" class="edge">
<title>Node72&#45;&gt;Node68</title>
<path fill="none" stroke="#191970" d="M711.5923,-168.469C690.6502,-154.8848 650.3719,-129.6489 614.0316,-112 587.8992,-99.3086 557.3093,-87.4645 533.8241,-78.9737"/>
<polygon fill="#191970" stroke="#191970" points="534.8223,-75.6137 524.2277,-75.5473 532.4685,-82.2061 534.8223,-75.6137"/>
</g>
<!-- Node74&#45;&gt;Node71 -->
<g id="edge50" class="edge">
<title>Node74&#45;&gt;Node71</title>
<path fill="none" stroke="#191970" d="M134.4443,-168.3733C169.2921,-158.9001 222.6198,-144.4032 260.3609,-134.1435"/>
<polygon fill="#191970" stroke="#191970" points="261.3494,-137.5019 270.081,-131.5011 259.5131,-130.747 261.3494,-137.5019"/>
</g>
<!-- Node78&#45;&gt;Node61 -->
<g id="edge60" class="edge">
<title>Node78&#45;&gt;Node61</title>
<path fill="none" stroke="#191970" d="M568.5867,-168.2455C563.4934,-160.5367 556.2408,-149.5598 550.0796,-140.2348"/>
<polygon fill="#191970" stroke="#191970" points="552.8355,-138.0566 544.4027,-131.6427 546.9951,-141.9155 552.8355,-138.0566"/>
</g>
<!-- Node79&#45;&gt;Node68 -->
<g id="edge61" class="edge">
<title>Node79&#45;&gt;Node68</title>
<path fill="none" stroke="#191970" d="M690.9007,-112.4369C650.7667,-102.8731 588.9541,-88.1432 545.7383,-77.845"/>
<polygon fill="#191970" stroke="#191970" points="546.536,-74.4372 535.997,-75.5237 544.9133,-81.2465 546.536,-74.4372"/>
</g>
<!-- Node80&#45;&gt;Node1 -->
<g id="edge62" class="edge">
<title>Node80&#45;&gt;Node1</title>
<path fill="none" stroke="#191970" d="M987.1657,-243.184C1030.877,-250.5699 1081.5812,-262.6072 1095.0316,-280 1100.4694,-287.0316 1100.6007,-293.0719 1095.0316,-300 1076.1862,-323.4442 997.5668,-335.6342 942.3278,-341.4274"/>
<polygon fill="#191970" stroke="#191970" points="941.9045,-337.9523 932.3052,-342.436 942.6055,-344.9171 941.9045,-337.9523"/>
</g>
<!-- Node89&#45;&gt;Node1 -->
<g id="edge63" class="edge">
<title>Node89&#45;&gt;Node1</title>
<path fill="none" stroke="#191970" d="M349.2807,-243.5163C379.809,-258.166 441.5619,-286.0112 497.0316,-300 612.9121,-329.2238 753.0061,-340.0021 829.4638,-343.8881"/>
<polygon fill="#191970" stroke="#191970" points="829.6626,-347.4018 839.8209,-344.3919 830.0028,-340.4101 829.6626,-347.4018"/>
</g>
<!-- Node90&#45;&gt;Node1 -->
<g id="edge64" class="edge">
<title>Node90&#45;&gt;Node1</title>
<path fill="none" stroke="#191970" d="M1082.9049,-243.6559C1100.3357,-256.9551 1126.2327,-281.3767 1111.0316,-300 1090.1183,-325.6215 1001.8163,-337.3536 942.2519,-342.4381"/>
<polygon fill="#191970" stroke="#191970" points="941.9042,-338.9547 932.2214,-343.2552 942.4726,-345.9316 941.9042,-338.9547"/>
</g>
<!-- Node91&#45;&gt;Node1 -->
<g id="edge65" class="edge">
<title>Node91&#45;&gt;Node1</title>
<path fill="none" stroke="#191970" d="M1212.3972,-243.5614C1195.5675,-258.1424 1161.1878,-285.742 1127.0316,-300 1066.721,-325.1757 992.1352,-336.6974 942.0491,-341.8885"/>
<polygon fill="#191970" stroke="#191970" points="941.667,-338.4091 932.0588,-342.8737 942.354,-345.3753 941.667,-338.4091"/>
</g>
<!-- Node94&#45;&gt;Node1 -->
<g id="edge68" class="edge">
<title>Node94&#45;&gt;Node1</title>
<path fill="none" stroke="#191970" d="M770.9266,-392.3733C793.5399,-383.2629 827.6858,-369.5062 852.9189,-359.3404"/>
<polygon fill="#191970" stroke="#191970" points="854.4809,-362.4845 862.4485,-355.5011 851.865,-355.9917 854.4809,-362.4845"/>
</g>
<!-- Node94&#45;&gt;Node89 -->
<g id="edge69" class="edge">
<title>Node94&#45;&gt;Node89</title>
<path fill="none" stroke="#191970" d="M706.4671,-392.4927C645.2128,-377.3409 526.2596,-344.7908 432.0316,-300 402.1626,-285.8019 370.618,-264.2368 350.6554,-249.6554"/>
<polygon fill="#191970" stroke="#191970" points="352.7162,-246.8263 342.597,-243.6873 348.5501,-252.4516 352.7162,-246.8263"/>
</g>
</g>
</svg>
