<?xml version="1.0" encoding="UTF-8" standalone="no"?>
<!DOCTYPE svg PUBLIC "-//W3C//DTD SVG 1.1//EN"
 "http://www.w3.org/Graphics/SVG/1.1/DTD/svg11.dtd">
<!-- Generated by graphviz version 2.40.1 (20161225.0304)
 -->
<!-- Title: cstring.hpp Pages: 1 -->
<svg width="140pt" height="196pt"
 viewBox="0.00 0.00 140.00 196.00" xmlns="http://www.w3.org/2000/svg" xmlns:xlink="http://www.w3.org/1999/xlink">
<g id="graph0" class="graph" transform="scale(1 1) rotate(0) translate(4 192)">
<title>cstring.hpp</title>
<polygon fill="#ffffff" stroke="transparent" points="-4,4 -4,-192 136,-192 136,4 -4,4"/>
<!-- Node4 -->
<g id="node1" class="node">
<title>Node4</title>
<polygon fill="#bfbfbf" stroke="#000000" points="31,-168.5 31,-187.5 96,-187.5 96,-168.5 31,-168.5"/>
<text text-anchor="middle" x="63.5" y="-175.5" font-family="Helvetica,sans-Serif" font-size="10.00" fill="#000000">cstring.hpp</text>
</g>
<!-- Node5 -->
<g id="node2" class="node">
<title>Node5</title>
<g id="a_node2"><a xlink:href="strings_2strings_8hpp.html" target="_top" xlink:title="strings.hpp">
<polygon fill="#ffffff" stroke="#000000" points="31,-112.5 31,-131.5 96,-131.5 96,-112.5 31,-112.5"/>
<text text-anchor="middle" x="63.5" y="-119.5" font-family="Helvetica,sans-Serif" font-size="10.00" fill="#000000">strings.hpp</text>
</a>
</g>
</g>
<!-- Node4&#45;&gt;Node5 -->
<g id="edge1" class="edge">
<title>Node4&#45;&gt;Node5</title>
<path fill="none" stroke="#191970" d="M63.5,-158.1575C63.5,-149.155 63.5,-138.9199 63.5,-131.6427"/>
<polygon fill="#191970" stroke="#191970" points="60.0001,-158.2455 63.5,-168.2455 67.0001,-158.2456 60.0001,-158.2455"/>
</g>
<!-- Node6 -->
<g id="node3" class="node">
<title>Node6</title>
<g id="a_node3"><a xlink:href="alib_8hpp.html" target="_top" xlink:title="alib.hpp">
<polygon fill="#ffffff" stroke="#000000" points="38.5,-56.5 38.5,-75.5 88.5,-75.5 88.5,-56.5 38.5,-56.5"/>
<text text-anchor="middle" x="63.5" y="-63.5" font-family="Helvetica,sans-Serif" font-size="10.00" fill="#000000">alib.hpp</text>
</a>
</g>
</g>
<!-- Node5&#45;&gt;Node6 -->
<g id="edge2" class="edge">
<title>Node5&#45;&gt;Node6</title>
<path fill="none" stroke="#191970" d="M63.5,-102.1575C63.5,-93.155 63.5,-82.9199 63.5,-75.6427"/>
<polygon fill="#191970" stroke="#191970" points="60.0001,-102.2455 63.5,-112.2455 67.0001,-102.2456 60.0001,-102.2455"/>
</g>
<!-- Node7 -->
<g id="node4" class="node">
<title>Node7</title>
<g id="a_node4"><a xlink:href="alox_2alox_8hpp.html" target="_top" xlink:title="alox.hpp">
<polygon fill="#ffffff" stroke="#ff0000" points="0,-.5 0,-19.5 53,-19.5 53,-.5 0,-.5"/>
<text text-anchor="middle" x="26.5" y="-7.5" font-family="Helvetica,sans-Serif" font-size="10.00" fill="#000000">alox.hpp</text>
</a>
</g>
</g>
<!-- Node6&#45;&gt;Node7 -->
<g id="edge3" class="edge">
<title>Node6&#45;&gt;Node7</title>
<path fill="none" stroke="#191970" d="M51.3624,-47.6296C45.1907,-38.2887 37.9434,-27.3197 32.8711,-19.6427"/>
<polygon fill="#191970" stroke="#191970" points="48.6223,-49.8316 57.0551,-56.2455 54.4627,-45.9728 48.6223,-49.8316"/>
</g>
<!-- Node25 -->
<g id="node5" class="node">
<title>Node25</title>
<g id="a_node5"><a xlink:href="owner_8hpp.html" target="_top" xlink:title="owner.hpp">
<polygon fill="#ffffff" stroke="#ff0000" points="71,-.5 71,-19.5 132,-19.5 132,-.5 71,-.5"/>
<text text-anchor="middle" x="101.5" y="-7.5" font-family="Helvetica,sans-Serif" font-size="10.00" fill="#000000">owner.hpp</text>
</a>
</g>
</g>
<!-- Node6&#45;&gt;Node25 -->
<g id="edge4" class="edge">
<title>Node6&#45;&gt;Node25</title>
<path fill="none" stroke="#191970" d="M75.7679,-47.9209C82.1488,-38.5176 89.6931,-27.3997 94.9568,-19.6427"/>
<polygon fill="#191970" stroke="#191970" points="72.838,-46.0055 70.1191,-56.2455 78.6303,-49.936 72.838,-46.0055"/>
</g>
</g>
</svg>
