<?xml version="1.0" encoding="UTF-8" standalone="no"?>
<!DOCTYPE svg PUBLIC "-//W3C//DTD SVG 1.1//EN"
 "http://www.w3.org/Graphics/SVG/1.1/DTD/svg11.dtd">
<!-- Generated by graphviz version 2.40.1 (20161225.0304)
 -->
<!-- Title: datetime.hpp Pages: 1 -->
<svg width="392pt" height="196pt"
 viewBox="0.00 0.00 392.00 196.00" xmlns="http://www.w3.org/2000/svg" xmlns:xlink="http://www.w3.org/1999/xlink">
<g id="graph0" class="graph" transform="scale(1 1) rotate(0) translate(4 192)">
<title>datetime.hpp</title>
<polygon fill="#ffffff" stroke="transparent" points="-4,4 -4,-192 388,-192 388,4 -4,4"/>
<!-- Node9 -->
<g id="node1" class="node">
<title>Node9</title>
<polygon fill="#bfbfbf" stroke="#000000" points="106,-168.5 106,-187.5 179,-187.5 179,-168.5 106,-168.5"/>
<text text-anchor="middle" x="142.5" y="-175.5" font-family="Helvetica,sans-Serif" font-size="10.00" fill="#000000">datetime.hpp</text>
</g>
<!-- Node10 -->
<g id="node2" class="node">
<title>Node10</title>
<g id="a_node2"><a xlink:href="dateandtime_8hpp_source.html" target="_top" xlink:title="dateandtime.hpp">
<polygon fill="#ffffff" stroke="#000000" points="0,-112.5 0,-131.5 89,-131.5 89,-112.5 0,-112.5"/>
<text text-anchor="middle" x="44.5" y="-119.5" font-family="Helvetica,sans-Serif" font-size="10.00" fill="#000000">dateandtime.hpp</text>
</a>
</g>
</g>
<!-- Node9&#45;&gt;Node10 -->
<g id="edge1" class="edge">
<title>Node9&#45;&gt;Node10</title>
<path fill="none" stroke="#191970" d="M116.3314,-163.0465C98.8942,-153.0824 76.4889,-140.2794 61.3747,-131.6427"/>
<polygon fill="#191970" stroke="#191970" points="115.0108,-166.323 125.4297,-168.2455 118.4838,-160.2453 115.0108,-166.323"/>
</g>
<!-- Node11 -->
<g id="node3" class="node">
<title>Node11</title>
<g id="a_node3"><a xlink:href="calendar_8hpp.html" target="_top" xlink:title="calendar.hpp">
<polygon fill="#ffffff" stroke="#000000" points="107,-112.5 107,-131.5 178,-131.5 178,-112.5 107,-112.5"/>
<text text-anchor="middle" x="142.5" y="-119.5" font-family="Helvetica,sans-Serif" font-size="10.00" fill="#000000">calendar.hpp</text>
</a>
</g>
</g>
<!-- Node9&#45;&gt;Node11 -->
<g id="edge2" class="edge">
<title>Node9&#45;&gt;Node11</title>
<path fill="none" stroke="#191970" d="M142.5,-158.1575C142.5,-149.155 142.5,-138.9199 142.5,-131.6427"/>
<polygon fill="#191970" stroke="#191970" points="139.0001,-158.2455 142.5,-168.2455 146.0001,-158.2456 139.0001,-158.2455"/>
</g>
<!-- Node21 -->
<g id="node4" class="node">
<title>Node21</title>
<g id="a_node4"><a xlink:href="ticksconverter_8hpp.html" target="_top" xlink:title="ticksconverter.hpp">
<polygon fill="#ffffff" stroke="#000000" points="196.5,-112.5 196.5,-131.5 292.5,-131.5 292.5,-112.5 196.5,-112.5"/>
<text text-anchor="middle" x="244.5" y="-119.5" font-family="Helvetica,sans-Serif" font-size="10.00" fill="#000000">ticksconverter.hpp</text>
</a>
</g>
</g>
<!-- Node9&#45;&gt;Node21 -->
<g id="edge3" class="edge">
<title>Node9&#45;&gt;Node21</title>
<path fill="none" stroke="#191970" d="M169.234,-163.3225C187.4532,-153.3198 211.0598,-140.3593 226.9366,-131.6427"/>
<polygon fill="#191970" stroke="#191970" points="167.3484,-160.3649 160.267,-168.2455 170.7173,-166.5009 167.3484,-160.3649"/>
</g>
<!-- Node12 -->
<g id="node5" class="node">
<title>Node12</title>
<g id="a_node5"><a xlink:href="textlogger_8hpp.html" target="_top" xlink:title="textlogger.hpp">
<polygon fill="#ffffff" stroke="#000000" points="155,-56.5 155,-75.5 232,-75.5 232,-56.5 155,-56.5"/>
<text text-anchor="middle" x="193.5" y="-63.5" font-family="Helvetica,sans-Serif" font-size="10.00" fill="#000000">textlogger.hpp</text>
</a>
</g>
</g>
<!-- Node11&#45;&gt;Node12 -->
<g id="edge4" class="edge">
<title>Node11&#45;&gt;Node12</title>
<path fill="none" stroke="#191970" d="M158.1749,-104.7884C166.8994,-95.2085 177.4354,-83.6396 184.7183,-75.6427"/>
<polygon fill="#191970" stroke="#191970" points="155.5291,-102.4954 151.3835,-112.2455 160.7046,-107.2088 155.5291,-102.4954"/>
</g>
<!-- Node21&#45;&gt;Node12 -->
<g id="edge8" class="edge">
<title>Node21&#45;&gt;Node12</title>
<path fill="none" stroke="#191970" d="M228.8251,-104.7884C220.1006,-95.2085 209.5646,-83.6396 202.2817,-75.6427"/>
<polygon fill="#191970" stroke="#191970" points="226.2954,-107.2088 235.6165,-112.2455 231.4709,-102.4954 226.2954,-107.2088"/>
</g>
<!-- Node13 -->
<g id="node6" class="node">
<title>Node13</title>
<g id="a_node6"><a xlink:href="plaintextlogger_8hpp.html" target="_top" xlink:title="plaintextlogger.hpp">
<polygon fill="#ffffff" stroke="#ff0000" points="37.5,-.5 37.5,-19.5 135.5,-19.5 135.5,-.5 37.5,-.5"/>
<text text-anchor="middle" x="86.5" y="-7.5" font-family="Helvetica,sans-Serif" font-size="10.00" fill="#000000">plaintextlogger.hpp</text>
</a>
</g>
</g>
<!-- Node12&#45;&gt;Node13 -->
<g id="edge5" class="edge">
<title>Node12&#45;&gt;Node13</title>
<path fill="none" stroke="#191970" d="M165.9801,-51.5971C146.7983,-41.558 121.7322,-28.4393 104.9244,-19.6427"/>
<polygon fill="#191970" stroke="#191970" points="164.3791,-54.7095 174.862,-56.2455 167.625,-48.5075 164.3791,-54.7095"/>
</g>
<!-- Node19 -->
<g id="node7" class="node">
<title>Node19</title>
<g id="a_node7"><a xlink:href="ansilogger_8hpp.html" target="_top" xlink:title="ansilogger.hpp">
<polygon fill="#ffffff" stroke="#ff0000" points="154,-.5 154,-19.5 233,-19.5 233,-.5 154,-.5"/>
<text text-anchor="middle" x="193.5" y="-7.5" font-family="Helvetica,sans-Serif" font-size="10.00" fill="#000000">ansilogger.hpp</text>
</a>
</g>
</g>
<!-- Node12&#45;&gt;Node19 -->
<g id="edge6" class="edge">
<title>Node12&#45;&gt;Node19</title>
<path fill="none" stroke="#191970" d="M193.5,-46.1575C193.5,-37.155 193.5,-26.9199 193.5,-19.6427"/>
<polygon fill="#191970" stroke="#191970" points="190.0001,-46.2455 193.5,-56.2455 197.0001,-46.2456 190.0001,-46.2455"/>
</g>
<!-- Node20 -->
<g id="node8" class="node">
<title>Node20</title>
<g id="a_node8"><a xlink:href="windowsconsolelogger_8hpp.html" target="_top" xlink:title="windowsconsolelogger.hpp">
<polygon fill="#ffffff" stroke="#ff0000" points="251,-.5 251,-19.5 384,-19.5 384,-.5 251,-.5"/>
<text text-anchor="middle" x="317.5" y="-7.5" font-family="Helvetica,sans-Serif" font-size="10.00" fill="#000000">windowsconsolelogger.hpp</text>
</a>
</g>
</g>
<!-- Node12&#45;&gt;Node20 -->
<g id="edge7" class="edge">
<title>Node12&#45;&gt;Node20</title>
<path fill="none" stroke="#191970" d="M223.9524,-52.2473C246.4722,-42.0771 276.5617,-28.4883 296.4618,-19.5011"/>
<polygon fill="#191970" stroke="#191970" points="222.4895,-49.0675 214.8164,-56.3733 225.3706,-55.4471 222.4895,-49.0675"/>
</g>
</g>
</svg>
