<?xml version="1.0" encoding="UTF-8" standalone="no"?>
<!DOCTYPE svg PUBLIC "-//W3C//DTD SVG 1.1//EN"
 "http://www.w3.org/Graphics/SVG/1.1/DTD/svg11.dtd">
<!-- Generated by graphviz version 2.40.1 (20161225.0304)
 -->
<!-- Title: datetime.hpp Pages: 1 -->
<svg width="286pt" height="196pt"
 viewBox="0.00 0.00 285.50 196.00" xmlns="http://www.w3.org/2000/svg" xmlns:xlink="http://www.w3.org/1999/xlink">
<g id="graph0" class="graph" transform="scale(1 1) rotate(0) translate(4 192)">
<title>datetime.hpp</title>
<polygon fill="#ffffff" stroke="transparent" points="-4,4 -4,-192 281.5,-192 281.5,4 -4,4"/>
<!-- Node0 -->
<g id="node1" class="node">
<title>Node0</title>
<polygon fill="#bfbfbf" stroke="#000000" points="173,-168.5 173,-187.5 246,-187.5 246,-168.5 173,-168.5"/>
<text text-anchor="middle" x="209.5" y="-175.5" font-family="Helvetica,sans-Serif" font-size="10.00" fill="#000000">datetime.hpp</text>
</g>
<!-- Node1 -->
<g id="node2" class="node">
<title>Node1</title>
<g id="a_node2"><a xlink:href="timepointbase_8hpp.html" target="_top" xlink:title="alib/time/timepointbase.hpp">
<polygon fill="#ffffff" stroke="#000000" points="141.5,-112.5 141.5,-131.5 277.5,-131.5 277.5,-112.5 141.5,-112.5"/>
<text text-anchor="middle" x="209.5" y="-119.5" font-family="Helvetica,sans-Serif" font-size="10.00" fill="#000000">alib/time/timepointbase.hpp</text>
</a>
</g>
</g>
<!-- Node0&#45;&gt;Node1 -->
<g id="edge1" class="edge">
<title>Node0&#45;&gt;Node1</title>
<path fill="none" stroke="#191970" d="M209.5,-168.2455C209.5,-160.9382 209.5,-150.6944 209.5,-141.7046"/>
<polygon fill="#191970" stroke="#191970" points="213.0001,-141.6426 209.5,-131.6427 206.0001,-141.6427 213.0001,-141.6426"/>
</g>
<!-- Node2 -->
<g id="node3" class="node">
<title>Node2</title>
<g id="a_node3"><a xlink:href="timelib_8hpp.html" target="_top" xlink:title="alib/time/timelib.hpp">
<polygon fill="#ffffff" stroke="#000000" points="111.5,-56.5 111.5,-75.5 215.5,-75.5 215.5,-56.5 111.5,-56.5"/>
<text text-anchor="middle" x="163.5" y="-63.5" font-family="Helvetica,sans-Serif" font-size="10.00" fill="#000000">alib/time/timelib.hpp</text>
</a>
</g>
</g>
<!-- Node1&#45;&gt;Node2 -->
<g id="edge2" class="edge">
<title>Node1&#45;&gt;Node2</title>
<path fill="none" stroke="#191970" d="M201.4874,-112.2455C195.0232,-104.3761 185.7615,-93.101 178.0017,-83.6542"/>
<polygon fill="#191970" stroke="#191970" points="180.4727,-81.1484 171.4208,-75.6427 175.0636,-85.5916 180.4727,-81.1484"/>
</g>
<!-- Node8 -->
<g id="node4" class="node">
<title>Node8</title>
<polygon fill="#ffffff" stroke="#bfbfbf" points="233.5,-56.5 233.5,-75.5 277.5,-75.5 277.5,-56.5 233.5,-56.5"/>
<text text-anchor="middle" x="255.5" y="-63.5" font-family="Helvetica,sans-Serif" font-size="10.00" fill="#000000">cmath</text>
</g>
<!-- Node1&#45;&gt;Node8 -->
<g id="edge3" class="edge">
<title>Node1&#45;&gt;Node8</title>
<path fill="none" stroke="#191970" d="M217.5126,-112.2455C223.9768,-104.3761 233.2385,-93.101 240.9983,-83.6542"/>
<polygon fill="#191970" stroke="#191970" points="243.9364,-85.5916 247.5792,-75.6427 238.5273,-81.1484 243.9364,-85.5916"/>
</g>
<!-- Node3 -->
<g id="node5" class="node">
<title>Node3</title>
<g id="a_node5"><a xlink:href="substring_8hpp.html" target="_top" xlink:title="alib/strings/substring.hpp">
<polygon fill="#ffffff" stroke="#ff0000" points="0,-.5 0,-19.5 125,-19.5 125,-.5 0,-.5"/>
<text text-anchor="middle" x="62.5" y="-7.5" font-family="Helvetica,sans-Serif" font-size="10.00" fill="#000000">alib/strings/substring.hpp</text>
</a>
</g>
</g>
<!-- Node2&#45;&gt;Node3 -->
<g id="edge4" class="edge">
<title>Node2&#45;&gt;Node3</title>
<path fill="none" stroke="#191970" d="M145.9071,-56.2455C130.121,-47.4928 106.7361,-34.527 88.7413,-24.5496"/>
<polygon fill="#191970" stroke="#191970" points="90.3341,-21.4308 79.8913,-19.6427 86.9397,-27.5528 90.3341,-21.4308"/>
</g>
<!-- Node6 -->
<g id="node6" class="node">
<title>Node6</title>
<polygon fill="#ffffff" stroke="#bfbfbf" points="143,-.5 143,-19.5 184,-19.5 184,-.5 143,-.5"/>
<text text-anchor="middle" x="163.5" y="-7.5" font-family="Helvetica,sans-Serif" font-size="10.00" fill="#000000">ctime</text>
</g>
<!-- Node2&#45;&gt;Node6 -->
<g id="edge5" class="edge">
<title>Node2&#45;&gt;Node6</title>
<path fill="none" stroke="#191970" d="M163.5,-56.2455C163.5,-48.9382 163.5,-38.6944 163.5,-29.7046"/>
<polygon fill="#191970" stroke="#191970" points="167.0001,-29.6426 163.5,-19.6427 160.0001,-29.6427 167.0001,-29.6426"/>
</g>
<!-- Node7 -->
<g id="node7" class="node">
<title>Node7</title>
<polygon fill="#ffffff" stroke="#bfbfbf" points="202.5,-.5 202.5,-19.5 248.5,-19.5 248.5,-.5 202.5,-.5"/>
<text text-anchor="middle" x="225.5" y="-7.5" font-family="Helvetica,sans-Serif" font-size="10.00" fill="#000000">chrono</text>
</g>
<!-- Node2&#45;&gt;Node7 -->
<g id="edge6" class="edge">
<title>Node2&#45;&gt;Node7</title>
<path fill="none" stroke="#191970" d="M174.2996,-56.2455C183.3678,-48.0549 196.5206,-36.1749 207.2245,-26.5069"/>
<polygon fill="#191970" stroke="#191970" points="209.7491,-28.9429 214.8242,-19.6427 205.0571,-23.7482 209.7491,-28.9429"/>
</g>
</g>
</svg>
