<?xml version="1.0" encoding="UTF-8" standalone="no"?>
<!DOCTYPE svg PUBLIC "-//W3C//DTD SVG 1.1//EN"
 "http://www.w3.org/Graphics/SVG/1.1/DTD/svg11.dtd">
<!-- Generated by graphviz version 2.40.1 (20161225.0304)
 -->
<!-- Title: domain.hpp Pages: 1 -->
<svg width="3815pt" height="420pt"
 viewBox="0.00 0.00 3815.27 420.00" xmlns="http://www.w3.org/2000/svg" xmlns:xlink="http://www.w3.org/1999/xlink">
<g id="graph0" class="graph" transform="scale(1 1) rotate(0) translate(4 416)">
<title>domain.hpp</title>
<polygon fill="#ffffff" stroke="transparent" points="-4,4 -4,-416 3811.2658,-416 3811.2658,4 -4,4"/>
<!-- Node0 -->
<g id="node1" class="node">
<title>Node0</title>
<polygon fill="#bfbfbf" stroke="#000000" points="919.5,-392.5 919.5,-411.5 986.5,-411.5 986.5,-392.5 919.5,-392.5"/>
<text text-anchor="middle" x="953" y="-399.5" font-family="Helvetica,sans-Serif" font-size="10.00" fill="#000000">domain.hpp</text>
</g>
<!-- Node1 -->
<g id="node2" class="node">
<title>Node1</title>
<g id="a_node2"><a xlink:href="alox_2alox_8hpp.html" target="_top" xlink:title="alib/alox/alox.hpp">
<polygon fill="#ffffff" stroke="#000000" points="907,-336.5 907,-355.5 999,-355.5 999,-336.5 907,-336.5"/>
<text text-anchor="middle" x="953" y="-343.5" font-family="Helvetica,sans-Serif" font-size="10.00" fill="#000000">alib/alox/alox.hpp</text>
</a>
</g>
</g>
<!-- Node0&#45;&gt;Node1 -->
<g id="edge1" class="edge">
<title>Node0&#45;&gt;Node1</title>
<path fill="none" stroke="#191970" d="M953,-392.2455C953,-384.9382 953,-374.6944 953,-365.7046"/>
<polygon fill="#191970" stroke="#191970" points="956.5001,-365.6426 953,-355.6427 949.5001,-365.6427 956.5001,-365.6426"/>
</g>
<!-- Node14 -->
<g id="node3" class="node">
<title>Node14</title>
<polygon fill="#ffffff" stroke="#bfbfbf" points="883,-112.5 883,-131.5 927,-131.5 927,-112.5 883,-112.5"/>
<text text-anchor="middle" x="905" y="-119.5" font-family="Helvetica,sans-Serif" font-size="10.00" fill="#000000">vector</text>
</g>
<!-- Node0&#45;&gt;Node14 -->
<g id="edge2" class="edge">
<title>Node0&#45;&gt;Node14</title>
<path fill="none" stroke="#191970" d="M986.5092,-401.4344C1298.4715,-396.0115 3685.7346,-351.0684 3787,-244 3793.108,-237.542 3793.1732,-230.3956 3787,-224 3734.8919,-170.0151 1251.9949,-127.6744 937.6081,-122.5263"/>
<polygon fill="#191970" stroke="#191970" points="937.4026,-119.0225 927.3468,-122.3589 937.2883,-126.0216 937.4026,-119.0225"/>
</g>
<!-- Node2 -->
<g id="node4" class="node">
<title>Node2</title>
<g id="a_node4"><a xlink:href="alib_8hpp.html" target="_top" xlink:title="alib/alib.hpp">
<polygon fill="#ffffff" stroke="#000000" points="2437,-280.5 2437,-299.5 2505,-299.5 2505,-280.5 2437,-280.5"/>
<text text-anchor="middle" x="2471" y="-287.5" font-family="Helvetica,sans-Serif" font-size="10.00" fill="#000000">alib/alib.hpp</text>
</a>
</g>
</g>
<!-- Node1&#45;&gt;Node2 -->
<g id="edge3" class="edge">
<title>Node1&#45;&gt;Node2</title>
<path fill="none" stroke="#191970" d="M999.2596,-344.2935C1224.6318,-335.9793 2205.7011,-299.787 2426.6807,-291.635"/>
<polygon fill="#191970" stroke="#191970" points="2427.0553,-295.1236 2436.9195,-291.2573 2426.7972,-288.1284 2427.0553,-295.1236"/>
</g>
<!-- Node58 -->
<g id="node5" class="node">
<title>Node58</title>
<g id="a_node5"><a xlink:href="alox__symbols_8hpp.html" target="_top" xlink:title="internals/alox_symbols.hpp">
<polygon fill="#ffffff" stroke="#000000" points="662.5,-280.5 662.5,-299.5 797.5,-299.5 797.5,-280.5 662.5,-280.5"/>
<text text-anchor="middle" x="730" y="-287.5" font-family="Helvetica,sans-Serif" font-size="10.00" fill="#000000">internals/alox_symbols.hpp</text>
</a>
</g>
</g>
<!-- Node1&#45;&gt;Node58 -->
<g id="edge4" class="edge">
<title>Node1&#45;&gt;Node58</title>
<path fill="none" stroke="#191970" d="M914.9183,-336.4369C876.9941,-326.9133 818.6711,-312.2672 777.6874,-301.9753"/>
<polygon fill="#191970" stroke="#191970" points="778.476,-298.5647 767.9246,-299.5237 776.771,-305.3539 778.476,-298.5647"/>
</g>
<!-- Node59 -->
<g id="node6" class="node">
<title>Node59</title>
<g id="a_node6"><a xlink:href="alox__macros_8hpp.html" target="_top" xlink:title="internals/alox_macros.hpp">
<polygon fill="#ffffff" stroke="#000000" points="815.5,-280.5 815.5,-299.5 946.5,-299.5 946.5,-280.5 815.5,-280.5"/>
<text text-anchor="middle" x="881" y="-287.5" font-family="Helvetica,sans-Serif" font-size="10.00" fill="#000000">internals/alox_macros.hpp</text>
</a>
</g>
</g>
<!-- Node1&#45;&gt;Node59 -->
<g id="edge5" class="edge">
<title>Node1&#45;&gt;Node59</title>
<path fill="none" stroke="#191970" d="M940.4586,-336.2455C929.7213,-327.8943 914.0527,-315.7076 901.4953,-305.9408"/>
<polygon fill="#191970" stroke="#191970" points="903.4401,-303.0194 893.3977,-299.6427 899.1425,-308.5449 903.4401,-303.0194"/>
</g>
<!-- Node60 -->
<g id="node7" class="node">
<title>Node60</title>
<g id="a_node7"><a xlink:href="configuration_8hpp.html" target="_top" xlink:title="alib/config/configuration.hpp">
<polygon fill="#ffffff" stroke="#000000" points="378,-224.5 378,-243.5 516,-243.5 516,-224.5 378,-224.5"/>
<text text-anchor="middle" x="447" y="-231.5" font-family="Helvetica,sans-Serif" font-size="10.00" fill="#000000">alib/config/configuration.hpp</text>
</a>
</g>
</g>
<!-- Node1&#45;&gt;Node60 -->
<g id="edge6" class="edge">
<title>Node1&#45;&gt;Node60</title>
<path fill="none" stroke="#191970" d="M906.8586,-343.4044C815.3167,-337.8216 613.9648,-323.2614 549,-300 517.172,-288.6036 485.215,-265.6058 465.7671,-250.0012"/>
<polygon fill="#191970" stroke="#191970" points="467.9457,-247.2614 457.996,-243.6208 463.5038,-252.6715 467.9457,-247.2614"/>
</g>
<!-- Node75 -->
<g id="node8" class="node">
<title>Node75</title>
<g id="a_node8"><a xlink:href="aloxtypesandenums_8hpp.html" target="_top" xlink:title="aloxtypesandenums.hpp">
<polygon fill="#ffffff" stroke="#000000" points="965,-280.5 965,-299.5 1087,-299.5 1087,-280.5 965,-280.5"/>
<text text-anchor="middle" x="1026" y="-287.5" font-family="Helvetica,sans-Serif" font-size="10.00" fill="#000000">aloxtypesandenums.hpp</text>
</a>
</g>
</g>
<!-- Node1&#45;&gt;Node75 -->
<g id="edge7" class="edge">
<title>Node1&#45;&gt;Node75</title>
<path fill="none" stroke="#191970" d="M965.7156,-336.2455C976.602,-327.8943 992.4883,-315.7076 1005.22,-305.9408"/>
<polygon fill="#191970" stroke="#191970" points="1007.6261,-308.5063 1013.4301,-299.6427 1003.3654,-302.9523 1007.6261,-308.5063"/>
</g>
<!-- Node76 -->
<g id="node9" class="node">
<title>Node76</title>
<g id="a_node9"><a xlink:href="log_8hpp.html" target="_top" xlink:title="log.hpp">
<polygon fill="#ffffff" stroke="#000000" points="1105,-280.5 1105,-299.5 1153,-299.5 1153,-280.5 1105,-280.5"/>
<text text-anchor="middle" x="1129" y="-287.5" font-family="Helvetica,sans-Serif" font-size="10.00" fill="#000000">log.hpp</text>
</a>
</g>
</g>
<!-- Node1&#45;&gt;Node76 -->
<g id="edge8" class="edge">
<title>Node1&#45;&gt;Node76</title>
<path fill="none" stroke="#191970" d="M978.0135,-336.3733C1008.7992,-325.9276 1060.8585,-309.3739 1095.1708,-299.1278"/>
<polygon fill="#191970" stroke="#191970" points="1096.1773,-302.4801 1104.7756,-296.2899 1094.1937,-295.767 1096.1773,-302.4801"/>
</g>
<!-- Node77 -->
<g id="node10" class="node">
<title>Node77</title>
<g id="a_node10"><a xlink:href="lox_8hpp.html" target="_top" xlink:title="lox.hpp">
<polygon fill="#ffffff" stroke="#000000" points="558,-280.5 558,-299.5 606,-299.5 606,-280.5 558,-280.5"/>
<text text-anchor="middle" x="582" y="-287.5" font-family="Helvetica,sans-Serif" font-size="10.00" fill="#000000">lox.hpp</text>
</a>
</g>
</g>
<!-- Node1&#45;&gt;Node77 -->
<g id="edge9" class="edge">
<title>Node1&#45;&gt;Node77</title>
<path fill="none" stroke="#191970" d="M906.774,-341.9919C842.555,-335.6054 723.0988,-321.7772 616.0954,-300.9346"/>
<polygon fill="#191970" stroke="#191970" points="616.6012,-297.4669 606.1124,-298.9621 615.2443,-304.3342 616.6012,-297.4669"/>
</g>
<!-- Node3 -->
<g id="node11" class="node">
<title>Node3</title>
<polygon fill="#ffffff" stroke="#bfbfbf" points="3273,-224.5 3273,-243.5 3325,-243.5 3325,-224.5 3273,-224.5"/>
<text text-anchor="middle" x="3299" y="-231.5" font-family="Helvetica,sans-Serif" font-size="10.00" fill="#000000">assert.h</text>
</g>
<!-- Node2&#45;&gt;Node3 -->
<g id="edge10" class="edge">
<title>Node2&#45;&gt;Node3</title>
<path fill="none" stroke="#191970" d="M2505.2122,-289.0193C2634.727,-285.1544 3095.6432,-269.9791 3262.8928,-243.7846"/>
<polygon fill="#191970" stroke="#191970" points="3263.4677,-247.2371 3272.7698,-242.1654 3262.3353,-240.3293 3263.4677,-247.2371"/>
</g>
<!-- Node4 -->
<g id="node12" class="node">
<title>Node4</title>
<polygon fill="#ffffff" stroke="#bfbfbf" points="3343.5,-224.5 3343.5,-243.5 3388.5,-243.5 3388.5,-224.5 3343.5,-224.5"/>
<text text-anchor="middle" x="3366" y="-231.5" font-family="Helvetica,sans-Serif" font-size="10.00" fill="#000000">iosfwd</text>
</g>
<!-- Node2&#45;&gt;Node4 -->
<g id="edge11" class="edge">
<title>Node2&#45;&gt;Node4</title>
<path fill="none" stroke="#191970" d="M2505.3578,-289.3125C2642.449,-286.3961 3151.2719,-273.8768 3333.4701,-243.552"/>
<polygon fill="#191970" stroke="#191970" points="3334.1982,-246.978 3343.4488,-241.813 3332.9963,-240.0819 3334.1982,-246.978"/>
</g>
<!-- Node5 -->
<g id="node13" class="node">
<title>Node5</title>
<polygon fill="#ffffff" stroke="#bfbfbf" points="2448,-224.5 2448,-243.5 2494,-243.5 2494,-224.5 2448,-224.5"/>
<text text-anchor="middle" x="2471" y="-231.5" font-family="Helvetica,sans-Serif" font-size="10.00" fill="#000000">cstdint</text>
</g>
<!-- Node2&#45;&gt;Node5 -->
<g id="edge12" class="edge">
<title>Node2&#45;&gt;Node5</title>
<path fill="none" stroke="#191970" d="M2471,-280.2455C2471,-272.9382 2471,-262.6944 2471,-253.7046"/>
<polygon fill="#191970" stroke="#191970" points="2474.5001,-253.6426 2471,-243.6427 2467.5001,-253.6427 2474.5001,-253.6426"/>
</g>
<!-- Node6 -->
<g id="node14" class="node">
<title>Node6</title>
<g id="a_node14"><a xlink:href="prepro_8hpp.html" target="_top" xlink:title="alib/lang/prepro.hpp">
<polygon fill="#ffffff" stroke="#000000" points="2512.5,-224.5 2512.5,-243.5 2613.5,-243.5 2613.5,-224.5 2512.5,-224.5"/>
<text text-anchor="middle" x="2563" y="-231.5" font-family="Helvetica,sans-Serif" font-size="10.00" fill="#000000">alib/lang/prepro.hpp</text>
</a>
</g>
</g>
<!-- Node2&#45;&gt;Node6 -->
<g id="edge13" class="edge">
<title>Node2&#45;&gt;Node6</title>
<path fill="none" stroke="#191970" d="M2487.0252,-280.2455C2501.1408,-271.6534 2521.9263,-259.0014 2538.1899,-249.1018"/>
<polygon fill="#191970" stroke="#191970" points="2540.4363,-251.8319 2547.1585,-243.6427 2536.7966,-245.8525 2540.4363,-251.8319"/>
</g>
<!-- Node7 -->
<g id="node15" class="node">
<title>Node7</title>
<g id="a_node15"><a xlink:href="types_8hpp.html" target="_top" xlink:title="alib/lang/types.hpp">
<polygon fill="#ffffff" stroke="#000000" points="2632,-224.5 2632,-243.5 2730,-243.5 2730,-224.5 2632,-224.5"/>
<text text-anchor="middle" x="2681" y="-231.5" font-family="Helvetica,sans-Serif" font-size="10.00" fill="#000000">alib/lang/types.hpp</text>
</a>
</g>
</g>
<!-- Node2&#45;&gt;Node7 -->
<g id="edge14" class="edge">
<title>Node2&#45;&gt;Node7</title>
<path fill="none" stroke="#191970" d="M2505.2075,-280.878C2540.5966,-271.4409 2596.0682,-256.6485 2635.2189,-246.2083"/>
<polygon fill="#191970" stroke="#191970" points="2636.2875,-249.5457 2645.048,-243.5872 2634.4838,-242.7821 2636.2875,-249.5457"/>
</g>
<!-- Node8 -->
<g id="node16" class="node">
<title>Node8</title>
<g id="a_node16"><a xlink:href="assert_8hpp.html" target="_top" xlink:title="alib/debug/assert.hpp">
<polygon fill="#ffffff" stroke="#000000" points="2748,-224.5 2748,-243.5 2858,-243.5 2858,-224.5 2748,-224.5"/>
<text text-anchor="middle" x="2803" y="-231.5" font-family="Helvetica,sans-Serif" font-size="10.00" fill="#000000">alib/debug/assert.hpp</text>
</a>
</g>
</g>
<!-- Node2&#45;&gt;Node8 -->
<g id="edge15" class="edge">
<title>Node2&#45;&gt;Node8</title>
<path fill="none" stroke="#191970" d="M2505.2794,-284.2179C2559.9947,-274.9888 2667.996,-256.7718 2737.7753,-245.0018"/>
<polygon fill="#191970" stroke="#191970" points="2738.5039,-248.4284 2747.7824,-243.3138 2737.3395,-241.5259 2738.5039,-248.4284"/>
</g>
<!-- Node9 -->
<g id="node17" class="node">
<title>Node9</title>
<g id="a_node17"><a xlink:href="rtti_8hpp.html" target="_top" xlink:title="alib/lang/rtti.hpp">
<polygon fill="#ffffff" stroke="#ff0000" points="2876,-224.5 2876,-243.5 2962,-243.5 2962,-224.5 2876,-224.5"/>
<text text-anchor="middle" x="2919" y="-231.5" font-family="Helvetica,sans-Serif" font-size="10.00" fill="#000000">alib/lang/rtti.hpp</text>
</a>
</g>
</g>
<!-- Node2&#45;&gt;Node9 -->
<g id="edge16" class="edge">
<title>Node2&#45;&gt;Node9</title>
<path fill="none" stroke="#191970" d="M2505.0161,-286.9087C2572.0565,-280.6313 2726.1617,-265.2862 2865.8792,-244.0788"/>
<polygon fill="#191970" stroke="#191970" points="2866.558,-247.5157 2875.9126,-242.5418 2865.4979,-240.5964 2866.558,-247.5157"/>
</g>
<!-- Node13 -->
<g id="node18" class="node">
<title>Node13</title>
<g id="a_node18"><a xlink:href="singleton_8hpp.html" target="_top" xlink:title="alib/lang/singleton.hpp">
<polygon fill="#ffffff" stroke="#000000" points="1021.5,-168.5 1021.5,-187.5 1134.5,-187.5 1134.5,-168.5 1021.5,-168.5"/>
<text text-anchor="middle" x="1078" y="-175.5" font-family="Helvetica,sans-Serif" font-size="10.00" fill="#000000">alib/lang/singleton.hpp</text>
</a>
</g>
</g>
<!-- Node2&#45;&gt;Node13 -->
<g id="edge17" class="edge">
<title>Node2&#45;&gt;Node13</title>
<path fill="none" stroke="#191970" d="M2436.9809,-289.9264C2231.0037,-289.348 1157.6636,-284.3985 1102,-244 1087.3899,-233.3966 1081.6516,-212.9808 1079.41,-197.65"/>
<polygon fill="#191970" stroke="#191970" points="1082.8777,-197.1623 1078.3189,-187.5985 1075.9186,-197.9178 1082.8777,-197.1623"/>
</g>
<!-- Node15 -->
<g id="node19" class="node">
<title>Node15</title>
<g id="a_node19"><a xlink:href="enums_8hpp.html" target="_top" xlink:title="alib/lang/enums.hpp">
<polygon fill="#ffffff" stroke="#000000" points="3407,-224.5 3407,-243.5 3511,-243.5 3511,-224.5 3407,-224.5"/>
<text text-anchor="middle" x="3459" y="-231.5" font-family="Helvetica,sans-Serif" font-size="10.00" fill="#000000">alib/lang/enums.hpp</text>
</a>
</g>
</g>
<!-- Node2&#45;&gt;Node15 -->
<g id="edge18" class="edge">
<title>Node2&#45;&gt;Node15</title>
<path fill="none" stroke="#191970" d="M2505.1992,-289.6944C2625.8092,-288.3239 3042.6586,-281.1041 3396.619,-244.031"/>
<polygon fill="#191970" stroke="#191970" points="3397.2326,-247.4858 3406.8092,-242.9536 3396.4965,-240.5246 3397.2326,-247.4858"/>
</g>
<!-- Node16 -->
<g id="node20" class="node">
<title>Node16</title>
<g id="a_node20"><a xlink:href="strings_2strings_8hpp.html" target="_top" xlink:title="alib/strings/strings.hpp">
<polygon fill="#ffffff" stroke="#ff0000" points="3529.5,-224.5 3529.5,-243.5 3644.5,-243.5 3644.5,-224.5 3529.5,-224.5"/>
<text text-anchor="middle" x="3587" y="-231.5" font-family="Helvetica,sans-Serif" font-size="10.00" fill="#000000">alib/strings/strings.hpp</text>
</a>
</g>
</g>
<!-- Node2&#45;&gt;Node16 -->
<g id="edge19" class="edge">
<title>Node2&#45;&gt;Node16</title>
<path fill="none" stroke="#191970" d="M2505.0507,-289.7965C2635.2473,-288.748 3114.1214,-282.4132 3519.1487,-243.9738"/>
<polygon fill="#191970" stroke="#191970" points="3519.6825,-247.4388 3529.3035,-243.0018 3519.0155,-240.4707 3519.6825,-247.4388"/>
</g>
<!-- Node25 -->
<g id="node21" class="node">
<title>Node25</title>
<g id="a_node21"><a xlink:href="astring_8hpp.html" target="_top" xlink:title="alib/strings/astring.hpp">
<polygon fill="#ffffff" stroke="#ff0000" points="3662.5,-224.5 3662.5,-243.5 3777.5,-243.5 3777.5,-224.5 3662.5,-224.5"/>
<text text-anchor="middle" x="3720" y="-231.5" font-family="Helvetica,sans-Serif" font-size="10.00" fill="#000000">alib/strings/astring.hpp</text>
</a>
</g>
</g>
<!-- Node2&#45;&gt;Node25 -->
<g id="edge20" class="edge">
<title>Node2&#45;&gt;Node25</title>
<path fill="none" stroke="#191970" d="M2505.2752,-289.1844C2672.2151,-285.1338 3401.9324,-266.5106 3652.3207,-244.0419"/>
<polygon fill="#191970" stroke="#191970" points="3652.8184,-247.5109 3662.4538,-243.1054 3652.1741,-240.5406 3652.8184,-247.5109"/>
</g>
<!-- Node27 -->
<g id="node22" class="node">
<title>Node27</title>
<g id="a_node22"><a xlink:href="preallocatedstring_8hpp.html" target="_top" xlink:title="alib/strings/preallocatedstring.hpp">
<polygon fill="#ffffff" stroke="#000000" points="1144,-224.5 1144,-243.5 1306,-243.5 1306,-224.5 1144,-224.5"/>
<text text-anchor="middle" x="1225" y="-231.5" font-family="Helvetica,sans-Serif" font-size="10.00" fill="#000000">alib/strings/preallocatedstring.hpp</text>
</a>
</g>
</g>
<!-- Node2&#45;&gt;Node27 -->
<g id="edge21" class="edge">
<title>Node2&#45;&gt;Node27</title>
<path fill="none" stroke="#191970" d="M2436.9055,-289.526C2298.6008,-287.4183 1765.7804,-277.5067 1316.6709,-244.0762"/>
<polygon fill="#191970" stroke="#191970" points="1316.6445,-240.5645 1306.4109,-243.3073 1316.1213,-247.5449 1316.6445,-240.5645"/>
</g>
<!-- Node28 -->
<g id="node23" class="node">
<title>Node28</title>
<g id="a_node23"><a xlink:href="resources_8hpp.html" target="_top" xlink:title="alib/lang/resources.hpp">
<polygon fill="#ffffff" stroke="#ff0000" points="2980.5,-224.5 2980.5,-243.5 3097.5,-243.5 3097.5,-224.5 2980.5,-224.5"/>
<text text-anchor="middle" x="3039" y="-231.5" font-family="Helvetica,sans-Serif" font-size="10.00" fill="#000000">alib/lang/resources.hpp</text>
</a>
</g>
</g>
<!-- Node2&#45;&gt;Node28 -->
<g id="edge22" class="edge">
<title>Node2&#45;&gt;Node28</title>
<path fill="none" stroke="#191970" d="M2505.0174,-287.5108C2584.4657,-281.5602 2788.6011,-265.4787 2970.41,-244.0109"/>
<polygon fill="#191970" stroke="#191970" points="2970.9048,-247.4768 2980.4216,-242.8205 2970.0782,-240.5258 2970.9048,-247.4768"/>
</g>
<!-- Node32 -->
<g id="node24" class="node">
<title>Node32</title>
<g id="a_node24"><a xlink:href="library_8hpp.html" target="_top" xlink:title="alib/lang/library.hpp">
<polygon fill="#ffffff" stroke="#000000" points="1324,-224.5 1324,-243.5 1424,-243.5 1424,-224.5 1324,-224.5"/>
<text text-anchor="middle" x="1374" y="-231.5" font-family="Helvetica,sans-Serif" font-size="10.00" fill="#000000">alib/lang/library.hpp</text>
</a>
</g>
</g>
<!-- Node2&#45;&gt;Node32 -->
<g id="edge23" class="edge">
<title>Node2&#45;&gt;Node32</title>
<path fill="none" stroke="#191970" d="M2436.8995,-289.0426C2281.0104,-284.5807 1635.1791,-265.1487 1434,-244 1433.8983,-243.9893 1433.7964,-243.9785 1433.6945,-243.9677"/>
<polygon fill="#191970" stroke="#191970" points="1434.3757,-240.5246 1424.0286,-242.8024 1433.5378,-247.4743 1434.3757,-240.5246"/>
</g>
<!-- Node33 -->
<g id="node25" class="node">
<title>Node33</title>
<g id="a_node25"><a xlink:href="stringlib_8hpp.html" target="_top" xlink:title="alib/strings/stringlib.hpp">
<polygon fill="#ffffff" stroke="#000000" points="1442.5,-224.5 1442.5,-243.5 1561.5,-243.5 1561.5,-224.5 1442.5,-224.5"/>
<text text-anchor="middle" x="1502" y="-231.5" font-family="Helvetica,sans-Serif" font-size="10.00" fill="#000000">alib/strings/stringlib.hpp</text>
</a>
</g>
</g>
<!-- Node2&#45;&gt;Node33 -->
<g id="edge24" class="edge">
<title>Node2&#45;&gt;Node33</title>
<path fill="none" stroke="#191970" d="M2436.9971,-289.3993C2318.9398,-287.0743 1915.706,-277.1306 1571.9504,-244"/>
<polygon fill="#191970" stroke="#191970" points="1572.0896,-240.4971 1561.7978,-243.013 1571.4122,-247.4642 1572.0896,-240.4971"/>
</g>
<!-- Node34 -->
<g id="node26" class="node">
<title>Node34</title>
<g id="a_node26"><a xlink:href="boxinglib_8hpp.html" target="_top" xlink:title="alib/boxing/boxinglib.hpp">
<polygon fill="#ffffff" stroke="#ff0000" points="1579.5,-224.5 1579.5,-243.5 1702.5,-243.5 1702.5,-224.5 1579.5,-224.5"/>
<text text-anchor="middle" x="1641" y="-231.5" font-family="Helvetica,sans-Serif" font-size="10.00" fill="#000000">alib/boxing/boxinglib.hpp</text>
</a>
</g>
</g>
<!-- Node2&#45;&gt;Node34 -->
<g id="edge25" class="edge">
<title>Node2&#45;&gt;Node34</title>
<path fill="none" stroke="#191970" d="M2436.8802,-288.8982C2331.0849,-285.2776 1999.0257,-272.3769 1712.7031,-243.9883"/>
<polygon fill="#191970" stroke="#191970" points="1712.8361,-240.4842 1702.5374,-242.9719 1712.1396,-247.4495 1712.8361,-240.4842"/>
</g>
<!-- Node43 -->
<g id="node27" class="node">
<title>Node43</title>
<g id="a_node27"><a xlink:href="langlib_8hpp.html" target="_top" xlink:title="alib/lang/langlib.hpp">
<polygon fill="#ffffff" stroke="#000000" points="1721,-224.5 1721,-243.5 1823,-243.5 1823,-224.5 1721,-224.5"/>
<text text-anchor="middle" x="1772" y="-231.5" font-family="Helvetica,sans-Serif" font-size="10.00" fill="#000000">alib/lang/langlib.hpp</text>
</a>
</g>
</g>
<!-- Node2&#45;&gt;Node43 -->
<g id="edge26" class="edge">
<title>Node2&#45;&gt;Node43</title>
<path fill="none" stroke="#191970" d="M2436.9497,-288.6685C2342.6787,-284.7443 2070.1427,-271.7916 1833.2039,-244.0404"/>
<polygon fill="#191970" stroke="#191970" points="1833.3586,-240.5344 1823.0167,-242.8354 1832.5363,-247.4859 1833.3586,-240.5344"/>
</g>
<!-- Node44 -->
<g id="node28" class="node">
<title>Node44</title>
<g id="a_node28"><a xlink:href="stringboxing_8hpp.html" target="_top" xlink:title="alib/strings/boxing/stringboxing.hpp">
<polygon fill="#ffffff" stroke="#000000" points="1841,-224.5 1841,-243.5 2011,-243.5 2011,-224.5 1841,-224.5"/>
<text text-anchor="middle" x="1926" y="-231.5" font-family="Helvetica,sans-Serif" font-size="10.00" fill="#000000">alib/strings/boxing/stringboxing.hpp</text>
</a>
</g>
</g>
<!-- Node2&#45;&gt;Node44 -->
<g id="edge27" class="edge">
<title>Node2&#45;&gt;Node44</title>
<path fill="none" stroke="#191970" d="M2436.8429,-286.5438C2363.215,-279.0861 2183.8083,-260.8733 2021.3738,-244.036"/>
<polygon fill="#191970" stroke="#191970" points="2021.5022,-240.5307 2011.1945,-242.9804 2020.7801,-247.4933 2021.5022,-240.5307"/>
</g>
<!-- Node45 -->
<g id="node29" class="node">
<title>Node45</title>
<g id="a_node29"><a xlink:href="report_8hpp.html" target="_top" xlink:title="alib/lang/report.hpp">
<polygon fill="#ffffff" stroke="#ff0000" points="2029.5,-224.5 2029.5,-243.5 2128.5,-243.5 2128.5,-224.5 2029.5,-224.5"/>
<text text-anchor="middle" x="2079" y="-231.5" font-family="Helvetica,sans-Serif" font-size="10.00" fill="#000000">alib/lang/report.hpp</text>
</a>
</g>
</g>
<!-- Node2&#45;&gt;Node45 -->
<g id="edge28" class="edge">
<title>Node2&#45;&gt;Node45</title>
<path fill="none" stroke="#191970" d="M2436.914,-285.6418C2378.2797,-278.0689 2254.3039,-261.7253 2138.6464,-244.0604"/>
<polygon fill="#191970" stroke="#191970" points="2138.9718,-240.5694 2128.5567,-242.5126 2137.9103,-247.4885 2138.9718,-240.5694"/>
</g>
<!-- Node47 -->
<g id="node30" class="node">
<title>Node47</title>
<g id="a_node30"><a xlink:href="enumbitwise_8hpp.html" target="_top" xlink:title="alib/lang/enumbitwise.hpp">
<polygon fill="#ffffff" stroke="#ff0000" points="346.5,-.5 346.5,-19.5 475.5,-19.5 475.5,-.5 346.5,-.5"/>
<text text-anchor="middle" x="411" y="-7.5" font-family="Helvetica,sans-Serif" font-size="10.00" fill="#000000">alib/lang/enumbitwise.hpp</text>
</a>
</g>
</g>
<!-- Node2&#45;&gt;Node47 -->
<g id="edge29" class="edge">
<title>Node2&#45;&gt;Node47</title>
<path fill="none" stroke="#191970" d="M2436.9403,-289.475C2230.8246,-286.2194 1158.3195,-268.1362 1135,-244 1128.8237,-237.6074 1130.5651,-231.7035 1135,-224 1150.8979,-196.3854 1181.1021,-215.6146 1197,-188 1201.4349,-180.2965 1200.8081,-176.0319 1197,-168 1163.307,-96.9362 1133.0932,-85.0289 1060,-56 1007.803,-35.27 645.0014,-18.9863 485.7088,-12.752"/>
<polygon fill="#191970" stroke="#191970" points="485.6446,-9.2469 475.5162,-12.3559 485.3728,-16.2417 485.6446,-9.2469"/>
</g>
<!-- Node49 -->
<g id="node31" class="node">
<title>Node49</title>
<g id="a_node31"><a xlink:href="enummetadata_8hpp.html" target="_top" xlink:title="alib/lang/enummetadata.hpp">
<polygon fill="#ffffff" stroke="#000000" points="3115.5,-224.5 3115.5,-243.5 3254.5,-243.5 3254.5,-224.5 3115.5,-224.5"/>
<text text-anchor="middle" x="3185" y="-231.5" font-family="Helvetica,sans-Serif" font-size="10.00" fill="#000000">alib/lang/enummetadata.hpp</text>
</a>
</g>
</g>
<!-- Node2&#45;&gt;Node49 -->
<g id="edge30" class="edge">
<title>Node2&#45;&gt;Node49</title>
<path fill="none" stroke="#191970" d="M2505.1841,-288.1946C2599.2052,-283.0872 2869.7954,-267.4346 3105.1611,-244.1409"/>
<polygon fill="#191970" stroke="#191970" points="3105.6771,-247.6069 3115.2807,-243.1324 3104.9829,-240.6414 3105.6771,-247.6069"/>
</g>
<!-- Node50 -->
<g id="node32" class="node">
<title>Node50</title>
<g id="a_node32"><a xlink:href="configlib_8hpp.html" target="_top" xlink:title="alib/config/configlib.hpp">
<polygon fill="#ffffff" stroke="#ff0000" points="2339.5,-.5 2339.5,-19.5 2458.5,-19.5 2458.5,-.5 2339.5,-.5"/>
<text text-anchor="middle" x="2399" y="-7.5" font-family="Helvetica,sans-Serif" font-size="10.00" fill="#000000">alib/config/configlib.hpp</text>
</a>
</g>
</g>
<!-- Node2&#45;&gt;Node50 -->
<g id="edge31" class="edge">
<title>Node2&#45;&gt;Node50</title>
<path fill="none" stroke="#191970" d="M2505.0374,-289.9307C2706.4312,-289.3817 3734.9897,-284.5925 3787,-244 3811.0633,-225.2194 3806,-208.5246 3806,-178 3806,-178 3806,-178 3806,-122 3806,-54.1497 2752.5573,-19.8628 2468.725,-11.8561"/>
<polygon fill="#191970" stroke="#191970" points="2468.6525,-8.3528 2458.5584,-11.5713 2468.4564,-15.35 2468.6525,-8.3528"/>
</g>
<!-- Node55 -->
<g id="node33" class="node">
<title>Node55</title>
<g id="a_node33"><a xlink:href="systemlib_8hpp.html" target="_top" xlink:title="alib/system/systemlib.hpp">
<polygon fill="#ffffff" stroke="#ff0000" points="2146.5,-224.5 2146.5,-243.5 2277.5,-243.5 2277.5,-224.5 2146.5,-224.5"/>
<text text-anchor="middle" x="2212" y="-231.5" font-family="Helvetica,sans-Serif" font-size="10.00" fill="#000000">alib/system/systemlib.hpp</text>
</a>
</g>
</g>
<!-- Node2&#45;&gt;Node55 -->
<g id="edge32" class="edge">
<title>Node2&#45;&gt;Node55</title>
<path fill="none" stroke="#191970" d="M2436.8739,-282.6214C2393.3471,-273.2102 2317.5634,-256.8245 2266.1223,-245.7021"/>
<polygon fill="#191970" stroke="#191970" points="2266.6893,-242.2439 2256.1754,-243.5514 2265.2099,-249.0858 2266.6893,-242.2439"/>
</g>
<!-- Node57 -->
<g id="node34" class="node">
<title>Node57</title>
<g id="a_node34"><a xlink:href="applicables_8hpp.html" target="_top" xlink:title="alib/strings/applicables.hpp">
<polygon fill="#ffffff" stroke="#000000" points="2296,-224.5 2296,-243.5 2430,-243.5 2430,-224.5 2296,-224.5"/>
<text text-anchor="middle" x="2363" y="-231.5" font-family="Helvetica,sans-Serif" font-size="10.00" fill="#000000">alib/strings/applicables.hpp</text>
</a>
</g>
</g>
<!-- Node2&#45;&gt;Node57 -->
<g id="edge33" class="edge">
<title>Node2&#45;&gt;Node57</title>
<path fill="none" stroke="#191970" d="M2452.1878,-280.2455C2435.1527,-271.4125 2409.8425,-258.2887 2390.5319,-248.2758"/>
<polygon fill="#191970" stroke="#191970" points="2392.0853,-245.1388 2381.5966,-243.6427 2388.863,-251.353 2392.0853,-245.1388"/>
</g>
<!-- Node60&#45;&gt;Node47 -->
<g id="edge37" class="edge">
<title>Node60&#45;&gt;Node47</title>
<path fill="none" stroke="#191970" d="M377.9354,-227.5831C325.561,-221.1198 259.8067,-209.0185 243,-188 203.8216,-139.0035 244.9545,-96.339 293,-56 311.6187,-40.3677 336.166,-29.6579 358.0477,-22.5345"/>
<polygon fill="#191970" stroke="#191970" points="359.354,-25.7946 367.883,-19.5091 357.2959,-19.1039 359.354,-25.7946"/>
</g>
<!-- Node61 -->
<g id="node36" class="node">
<title>Node61</title>
<g id="a_node36"><a xlink:href="threadlock_8hpp.html" target="_top" xlink:title="alib/threads/threadlock.hpp">
<polygon fill="#ffffff" stroke="#ff0000" points="484,-112.5 484,-131.5 618,-131.5 618,-112.5 484,-112.5"/>
<text text-anchor="middle" x="551" y="-119.5" font-family="Helvetica,sans-Serif" font-size="10.00" fill="#000000">alib/threads/threadlock.hpp</text>
</a>
</g>
</g>
<!-- Node60&#45;&gt;Node61 -->
<g id="edge38" class="edge">
<title>Node60&#45;&gt;Node61</title>
<path fill="none" stroke="#191970" d="M377.6162,-225.5689C331.6534,-218.3936 277.2861,-206.2974 263,-188 257.5297,-180.9937 257.2315,-174.7629 263,-168 276.6089,-152.045 393.2112,-137.4762 473.8082,-129.1811"/>
<polygon fill="#191970" stroke="#191970" points="474.3461,-132.6446 483.9411,-128.1516 473.6385,-125.6804 474.3461,-132.6446"/>
</g>
<!-- Node68 -->
<g id="node37" class="node">
<title>Node68</title>
<g id="a_node37"><a xlink:href="substring_8hpp.html" target="_top" xlink:title="alib/strings/substring.hpp">
<polygon fill="#ffffff" stroke="#000000" points="302.5,-56.5 302.5,-75.5 427.5,-75.5 427.5,-56.5 302.5,-56.5"/>
<text text-anchor="middle" x="365" y="-63.5" font-family="Helvetica,sans-Serif" font-size="10.00" fill="#000000">alib/strings/substring.hpp</text>
</a>
</g>
</g>
<!-- Node60&#45;&gt;Node68 -->
<g id="edge39" class="edge">
<title>Node60&#45;&gt;Node68</title>
<path fill="none" stroke="#191970" d="M377.935,-226.4528C329.3273,-219.552 270.3098,-207.411 255,-188 222.7362,-147.0933 292.5358,-102.4424 335.1622,-80.2224"/>
<polygon fill="#191970" stroke="#191970" points="336.9794,-83.225 344.3115,-75.5771 333.8104,-76.9834 336.9794,-83.225"/>
</g>
<!-- Node69 -->
<g id="node38" class="node">
<title>Node69</title>
<g id="a_node38"><a xlink:href="numberformat_8hpp.html" target="_top" xlink:title="alib/strings/numberformat.hpp">
<polygon fill="#ffffff" stroke="#000000" points="272,-168.5 272,-187.5 418,-187.5 418,-168.5 272,-168.5"/>
<text text-anchor="middle" x="345" y="-175.5" font-family="Helvetica,sans-Serif" font-size="10.00" fill="#000000">alib/strings/numberformat.hpp</text>
</a>
</g>
</g>
<!-- Node60&#45;&gt;Node69 -->
<g id="edge40" class="edge">
<title>Node60&#45;&gt;Node69</title>
<path fill="none" stroke="#191970" d="M429.233,-224.2455C413.2905,-215.4928 389.6741,-202.527 371.5011,-192.5496"/>
<polygon fill="#191970" stroke="#191970" points="373.0137,-189.3873 362.5634,-187.6427 369.6448,-195.5233 373.0137,-189.3873"/>
</g>
<!-- Node70 -->
<g id="node39" class="node">
<title>Node70</title>
<g id="a_node39"><a xlink:href="variable_8hpp.html" target="_top" xlink:title="alib/config/variable.hpp">
<polygon fill="#ffffff" stroke="#000000" points="935,-56.5 935,-75.5 1051,-75.5 1051,-56.5 935,-56.5"/>
<text text-anchor="middle" x="993" y="-63.5" font-family="Helvetica,sans-Serif" font-size="10.00" fill="#000000">alib/config/variable.hpp</text>
</a>
</g>
</g>
<!-- Node60&#45;&gt;Node70 -->
<g id="edge41" class="edge">
<title>Node60&#45;&gt;Node70</title>
<path fill="none" stroke="#191970" d="M516.1254,-228.3869C648.9416,-217.482 927.5152,-193.9777 936,-188 970.2663,-163.8585 984.4941,-113.6887 989.9437,-85.7921"/>
<polygon fill="#191970" stroke="#191970" points="993.4412,-86.1112 991.7258,-75.6562 986.547,-84.899 993.4412,-86.1112"/>
</g>
<!-- Node71 -->
<g id="node40" class="node">
<title>Node71</title>
<g id="a_node40"><a xlink:href="plugins_8hpp.html" target="_top" xlink:title="alib/config/plugins.hpp">
<polygon fill="#ffffff" stroke="#000000" points="675.5,-112.5 675.5,-131.5 788.5,-131.5 788.5,-112.5 675.5,-112.5"/>
<text text-anchor="middle" x="732" y="-119.5" font-family="Helvetica,sans-Serif" font-size="10.00" fill="#000000">alib/config/plugins.hpp</text>
</a>
</g>
</g>
<!-- Node60&#45;&gt;Node71 -->
<g id="edge42" class="edge">
<title>Node60&#45;&gt;Node71</title>
<path fill="none" stroke="#191970" d="M478.1331,-224.4976C505.1775,-215.9259 545.2018,-202.4728 579,-188 596.907,-180.332 600.283,-176.0973 618,-168 644.0395,-156.099 674.0924,-144.0394 696.8023,-135.2552"/>
<polygon fill="#191970" stroke="#191970" points="698.2851,-138.4351 706.365,-131.5819 695.775,-131.9006 698.2851,-138.4351"/>
</g>
<!-- Node72 -->
<g id="node41" class="node">
<title>Node72</title>
<g id="a_node41"><a xlink:href="plugincontainer_8hpp.html" target="_top" xlink:title="alib/util/plugincontainer.hpp">
<polygon fill="#ffffff" stroke="#ff0000" points="436,-168.5 436,-187.5 570,-187.5 570,-168.5 436,-168.5"/>
<text text-anchor="middle" x="503" y="-175.5" font-family="Helvetica,sans-Serif" font-size="10.00" fill="#000000">alib/util/plugincontainer.hpp</text>
</a>
</g>
</g>
<!-- Node60&#45;&gt;Node72 -->
<g id="edge43" class="edge">
<title>Node60&#45;&gt;Node72</title>
<path fill="none" stroke="#191970" d="M456.7545,-224.2455C464.8648,-216.1352 476.5925,-204.4075 486.2081,-194.7919"/>
<polygon fill="#191970" stroke="#191970" points="488.7611,-197.1887 493.3573,-187.6427 483.8113,-192.2389 488.7611,-197.1887"/>
</g>
<!-- Node74 -->
<g id="node42" class="node">
<title>Node74</title>
<g id="a_node42"><a xlink:href="inmemoryplugin_8hpp.html" target="_top" xlink:title="alib/config/inmemoryplugin.hpp">
<polygon fill="#ffffff" stroke="#000000" points="775.5,-168.5 775.5,-187.5 926.5,-187.5 926.5,-168.5 775.5,-168.5"/>
<text text-anchor="middle" x="851" y="-175.5" font-family="Helvetica,sans-Serif" font-size="10.00" fill="#000000">alib/config/inmemoryplugin.hpp</text>
</a>
</g>
</g>
<!-- Node60&#45;&gt;Node74 -->
<g id="edge44" class="edge">
<title>Node60&#45;&gt;Node74</title>
<path fill="none" stroke="#191970" d="M515.991,-224.4369C587.0208,-214.5912 697.5488,-199.2705 772.0309,-188.9462"/>
<polygon fill="#191970" stroke="#191970" points="772.8688,-192.3636 782.2935,-187.5237 771.9076,-185.4299 772.8688,-192.3636"/>
</g>
<!-- Node76&#45;&gt;Node1 -->
<g id="edge55" class="edge">
<title>Node76&#45;&gt;Node1</title>
<path fill="none" stroke="#191970" d="M1104.9042,-299.315C1077.443,-308.6528 1032.253,-323.0909 998.2215,-333.4376"/>
<polygon fill="#191970" stroke="#191970" points="997.0592,-330.1324 988.4975,-336.3733 999.0823,-336.8337 997.0592,-330.1324"/>
</g>
<!-- Node77&#45;&gt;Node0 -->
<g id="edge56" class="edge">
<title>Node77&#45;&gt;Node0</title>
<path fill="none" stroke="#191970" d="M606.0966,-297.2744C668.0713,-315.9838 833.5775,-365.9479 911.4299,-389.4505"/>
<polygon fill="#191970" stroke="#191970" points="910.7839,-392.9115 921.3687,-392.4509 912.807,-386.2102 910.7839,-392.9115"/>
</g>
<!-- Node77&#45;&gt;Node1 -->
<g id="edge57" class="edge">
<title>Node77&#45;&gt;Node1</title>
<path fill="none" stroke="#191970" d="M606.0873,-294.6124C613.5908,-296.4759 621.6416,-298.5291 629,-300 722.2999,-318.6504 831.8163,-332.2019 896.7325,-339.5851"/>
<polygon fill="#191970" stroke="#191970" points="896.4294,-343.073 906.7589,-340.7169 897.2147,-336.1172 896.4294,-343.073"/>
</g>
<!-- Node77&#45;&gt;Node60 -->
<g id="edge59" class="edge">
<title>Node77&#45;&gt;Node60</title>
<path fill="none" stroke="#191970" d="M558.7927,-280.3733C536.8301,-271.2629 503.6668,-257.5062 479.1599,-247.3404"/>
<polygon fill="#191970" stroke="#191970" points="480.4824,-244.0999 469.9045,-243.5011 477.8003,-250.5657 480.4824,-244.0999"/>
</g>
<!-- Node29 -->
<g id="node35" class="node">
<title>Node29</title>
<polygon fill="#ffffff" stroke="#bfbfbf" points="1152.5,-168.5 1152.5,-187.5 1187.5,-187.5 1187.5,-168.5 1152.5,-168.5"/>
<text text-anchor="middle" x="1170" y="-175.5" font-family="Helvetica,sans-Serif" font-size="10.00" fill="#000000">map</text>
</g>
<!-- Node77&#45;&gt;Node29 -->
<g id="edge58" class="edge">
<title>Node77&#45;&gt;Node29</title>
<path fill="none" stroke="#191970" d="M581.6094,-280.0575C581.6284,-265.2312 584.1033,-237.6176 601,-224 646.1483,-187.6135 1049.767,-199.8631 1142.2135,-187.3567"/>
<polygon fill="#191970" stroke="#191970" points="1143.0577,-190.7628 1152.3153,-185.6104 1141.8652,-183.8651 1143.0577,-190.7628"/>
</g>
<!-- Node78 -->
<g id="node43" class="node">
<title>Node78</title>
<g id="a_node43"><a xlink:href="smartlock_8hpp.html" target="_top" xlink:title="alib/threads/smartlock.hpp">
<polygon fill="#ffffff" stroke="#000000" points="626.5,-168.5 626.5,-187.5 757.5,-187.5 757.5,-168.5 626.5,-168.5"/>
<text text-anchor="middle" x="692" y="-175.5" font-family="Helvetica,sans-Serif" font-size="10.00" fill="#000000">alib/threads/smartlock.hpp</text>
</a>
</g>
</g>
<!-- Node77&#45;&gt;Node78 -->
<g id="edge60" class="edge">
<title>Node77&#45;&gt;Node78</title>
<path fill="none" stroke="#191970" d="M575.577,-280.1193C567.5131,-266.3383 556.0938,-241.1158 568,-224 576.992,-211.0735 611.9425,-198.794 642.4549,-190.1788"/>
<polygon fill="#191970" stroke="#191970" points="643.4495,-193.5354 652.1671,-187.5143 641.5974,-186.7848 643.4495,-193.5354"/>
</g>
<!-- Node79 -->
<g id="node44" class="node">
<title>Node79</title>
<g id="a_node44"><a xlink:href="tokenizer_8hpp.html" target="_top" xlink:title="alib/strings/util/tokenizer.hpp">
<polygon fill="#ffffff" stroke="#000000" points="0,-112.5 0,-131.5 140,-131.5 140,-112.5 0,-112.5"/>
<text text-anchor="middle" x="70" y="-119.5" font-family="Helvetica,sans-Serif" font-size="10.00" fill="#000000">alib/strings/util/tokenizer.hpp</text>
</a>
</g>
</g>
<!-- Node77&#45;&gt;Node79 -->
<g id="edge61" class="edge">
<title>Node77&#45;&gt;Node79</title>
<path fill="none" stroke="#191970" d="M557.9997,-288.0767C490.8558,-281.919 296.6833,-258.7609 154,-188 128.2489,-175.2292 102.89,-153.7313 86.8868,-138.7539"/>
<polygon fill="#191970" stroke="#191970" points="89.06,-135.9888 79.4184,-131.5968 84.2167,-141.0428 89.06,-135.9888"/>
</g>
<!-- Node80 -->
<g id="node45" class="node">
<title>Node80</title>
<g id="a_node45"><a xlink:href="scopeinfo_8hpp.html" target="_top" xlink:title="alib/alox/core/scopeinfo.hpp">
<polygon fill="#ffffff" stroke="#ff0000" points="912,-224.5 912,-243.5 1050,-243.5 1050,-224.5 912,-224.5"/>
<text text-anchor="middle" x="981" y="-231.5" font-family="Helvetica,sans-Serif" font-size="10.00" fill="#000000">alib/alox/core/scopeinfo.hpp</text>
</a>
</g>
</g>
<!-- Node77&#45;&gt;Node80 -->
<g id="edge62" class="edge">
<title>Node77&#45;&gt;Node80</title>
<path fill="none" stroke="#191970" d="M606.0607,-286.6231C663.5492,-278.5545 810.9326,-257.8691 902.8629,-244.9666"/>
<polygon fill="#191970" stroke="#191970" points="903.5436,-248.4055 912.9601,-243.5495 902.5706,-241.4734 903.5436,-248.4055"/>
</g>
<!-- Node89 -->
<g id="node46" class="node">
<title>Node89</title>
<g id="a_node46"><a xlink:href="logger_8hpp.html" target="_top" xlink:title="alib/alox/core/logger.hpp">
<polygon fill="#ffffff" stroke="#000000" points="610,-224.5 610,-243.5 732,-243.5 732,-224.5 610,-224.5"/>
<text text-anchor="middle" x="671" y="-231.5" font-family="Helvetica,sans-Serif" font-size="10.00" fill="#000000">alib/alox/core/logger.hpp</text>
</a>
</g>
</g>
<!-- Node77&#45;&gt;Node89 -->
<g id="edge63" class="edge">
<title>Node77&#45;&gt;Node89</title>
<path fill="none" stroke="#191970" d="M597.5026,-280.2455C611.158,-271.6534 631.2657,-259.0014 646.9989,-249.1018"/>
<polygon fill="#191970" stroke="#191970" points="649.0751,-251.9307 655.675,-243.6427 645.3471,-246.006 649.0751,-251.9307"/>
</g>
<!-- Node90 -->
<g id="node47" class="node">
<title>Node90</title>
<g id="a_node47"><a xlink:href="scopestore_8hpp.html" target="_top" xlink:title="alib/alox/core/scopestore.hpp">
<polygon fill="#ffffff" stroke="#ff0000" points="750,-224.5 750,-243.5 894,-243.5 894,-224.5 750,-224.5"/>
<text text-anchor="middle" x="822" y="-231.5" font-family="Helvetica,sans-Serif" font-size="10.00" fill="#000000">alib/alox/core/scopestore.hpp</text>
</a>
</g>
</g>
<!-- Node77&#45;&gt;Node90 -->
<g id="edge64" class="edge">
<title>Node77&#45;&gt;Node90</title>
<path fill="none" stroke="#191970" d="M606.3332,-284.3222C644.8772,-275.3286 720.7882,-257.6161 771.4742,-245.7894"/>
<polygon fill="#191970" stroke="#191970" points="772.3134,-249.1876 781.2565,-243.5068 770.7227,-242.3707 772.3134,-249.1876"/>
</g>
<!-- Node13&#45;&gt;Node14 -->
<g id="edge34" class="edge">
<title>Node13&#45;&gt;Node14</title>
<path fill="none" stroke="#191970" d="M1048.2602,-168.3733C1017.2265,-158.3276 968.7409,-142.6329 936.9188,-132.3321"/>
<polygon fill="#191970" stroke="#191970" points="937.8076,-128.941 927.2157,-129.1912 935.6518,-135.6008 937.8076,-128.941"/>
</g>
<!-- Node28&#45;&gt;Node29 -->
<g id="edge35" class="edge">
<title>Node28&#45;&gt;Node29</title>
<path fill="none" stroke="#191970" d="M2980.4486,-224.9127C2977.2569,-224.5663 2974.0917,-224.2578 2971,-224 2579.1669,-191.332 1590.0686,-251.27 1202,-188 1200.5279,-187.76 1199.0299,-187.4678 1197.526,-187.1364"/>
<polygon fill="#191970" stroke="#191970" points="1198.2899,-183.7178 1187.7251,-184.5149 1196.4811,-190.48 1198.2899,-183.7178"/>
</g>
<!-- Node49&#45;&gt;Node29 -->
<g id="edge36" class="edge">
<title>Node49&#45;&gt;Node29</title>
<path fill="none" stroke="#191970" d="M3115.2968,-224.6827C3112.497,-224.4292 3109.7232,-224.1997 3107,-224 2684.725,-193.0331 1619.9406,-255.8288 1202,-188 1200.5278,-187.7611 1199.0296,-187.4698 1197.5255,-187.139"/>
<polygon fill="#191970" stroke="#191970" points="1198.289,-183.7203 1187.7244,-184.5196 1196.4816,-190.4829 1198.289,-183.7203"/>
</g>
<!-- Node68&#45;&gt;Node47 -->
<g id="edge45" class="edge">
<title>Node68&#45;&gt;Node47</title>
<path fill="none" stroke="#191970" d="M373.0126,-56.2455C379.4768,-48.3761 388.7385,-37.101 396.4983,-27.6542"/>
<polygon fill="#191970" stroke="#191970" points="399.4364,-29.5916 403.0792,-19.6427 394.0273,-25.1484 399.4364,-29.5916"/>
</g>
<!-- Node70&#45;&gt;Node50 -->
<g id="edge46" class="edge">
<title>Node70&#45;&gt;Node50</title>
<path fill="none" stroke="#191970" d="M1051.1803,-63.6827C1275.7187,-54.7395 2085.4401,-22.4889 2329.1318,-12.7828"/>
<polygon fill="#191970" stroke="#191970" points="2329.4261,-16.274 2339.2789,-12.3787 2329.1475,-9.2795 2329.4261,-16.274"/>
</g>
<!-- Node71&#45;&gt;Node68 -->
<g id="edge47" class="edge">
<title>Node71&#45;&gt;Node68</title>
<path fill="none" stroke="#191970" d="M675.4605,-113.3727C611.5479,-103.6204 507.3311,-87.7181 437.4888,-77.061"/>
<polygon fill="#191970" stroke="#191970" points="437.856,-73.5766 427.4425,-75.528 436.8001,-80.4965 437.856,-73.5766"/>
</g>
<!-- Node71&#45;&gt;Node70 -->
<g id="edge48" class="edge">
<title>Node71&#45;&gt;Node70</title>
<path fill="none" stroke="#191970" d="M776.5709,-112.4369C821.4268,-102.8127 890.6649,-87.957 938.7008,-77.6504"/>
<polygon fill="#191970" stroke="#191970" points="939.5697,-81.0437 948.6129,-75.5237 938.1011,-74.1995 939.5697,-81.0437"/>
</g>
<!-- Node72&#45;&gt;Node14 -->
<g id="edge49" class="edge">
<title>Node72&#45;&gt;Node14</title>
<path fill="none" stroke="#191970" d="M570.2858,-168.6269C657.7294,-156.4457 806.9652,-135.6566 872.5077,-126.5263"/>
<polygon fill="#191970" stroke="#191970" points="873.2293,-129.9597 882.6508,-125.1133 872.2635,-123.0266 873.2293,-129.9597"/>
</g>
<!-- Node72&#45;&gt;Node47 -->
<g id="edge50" class="edge">
<title>Node72&#45;&gt;Node47</title>
<path fill="none" stroke="#191970" d="M496.7824,-168.2518C490.9645,-159.0234 482.1258,-144.7256 475,-132 456.4511,-98.8742 453.7324,-89.57 436,-56 431.2399,-46.9885 425.8537,-37.0465 421.303,-28.7179"/>
<polygon fill="#191970" stroke="#191970" points="424.3089,-26.92 416.4322,-19.8342 418.1709,-30.2854 424.3089,-26.92"/>
</g>
<!-- Node72&#45;&gt;Node61 -->
<g id="edge51" class="edge">
<title>Node72&#45;&gt;Node61</title>
<path fill="none" stroke="#191970" d="M511.361,-168.2455C518.175,-160.2958 527.9681,-148.8706 536.1152,-139.3656"/>
<polygon fill="#191970" stroke="#191970" points="538.8843,-141.513 542.7349,-131.6427 533.5695,-136.9575 538.8843,-141.513"/>
</g>
<!-- Node72&#45;&gt;Node68 -->
<g id="edge52" class="edge">
<title>Node72&#45;&gt;Node68</title>
<path fill="none" stroke="#191970" d="M489.7289,-168.363C477.2481,-159.2132 458.1235,-144.9685 442,-132 421.6264,-115.613 398.9796,-96.0291 383.5524,-82.4713"/>
<polygon fill="#191970" stroke="#191970" points="385.5989,-79.6094 375.7847,-75.6177 380.9676,-84.8583 385.5989,-79.6094"/>
</g>
<!-- Node74&#45;&gt;Node14 -->
<g id="edge53" class="edge">
<title>Node74&#45;&gt;Node14</title>
<path fill="none" stroke="#191970" d="M860.4061,-168.2455C868.1493,-160.2155 879.312,-148.6394 888.5318,-139.0781"/>
<polygon fill="#191970" stroke="#191970" points="891.2798,-141.2706 895.7017,-131.6427 886.2409,-136.4117 891.2798,-141.2706"/>
</g>
<!-- Node74&#45;&gt;Node71 -->
<g id="edge54" class="edge">
<title>Node74&#45;&gt;Node71</title>
<path fill="none" stroke="#191970" d="M830.5432,-168.3733C811.5262,-159.4241 782.9825,-145.9917 761.5024,-135.8835"/>
<polygon fill="#191970" stroke="#191970" points="762.7284,-132.5923 752.1899,-131.5011 759.7478,-138.926 762.7284,-132.5923"/>
</g>
<!-- Node78&#45;&gt;Node14 -->
<g id="edge65" class="edge">
<title>Node78&#45;&gt;Node14</title>
<path fill="none" stroke="#191970" d="M728.616,-168.3733C769.3431,-157.6657 834.482,-140.5399 873.1672,-130.3692"/>
<polygon fill="#191970" stroke="#191970" points="874.0868,-133.7465 882.8681,-127.8187 872.3068,-126.9765 874.0868,-133.7465"/>
</g>
<!-- Node78&#45;&gt;Node61 -->
<g id="edge66" class="edge">
<title>Node78&#45;&gt;Node61</title>
<path fill="none" stroke="#191970" d="M667.7612,-168.3733C644.7211,-159.2226 609.8786,-145.3844 584.2499,-135.2057"/>
<polygon fill="#191970" stroke="#191970" points="585.5082,-131.9395 574.9225,-131.5011 582.9244,-138.4452 585.5082,-131.9395"/>
</g>
<!-- Node79&#45;&gt;Node68 -->
<g id="edge67" class="edge">
<title>Node79&#45;&gt;Node68</title>
<path fill="none" stroke="#191970" d="M120.3771,-112.4369C171.5005,-102.7321 250.6455,-87.708 304.9853,-77.3926"/>
<polygon fill="#191970" stroke="#191970" points="305.6589,-80.8273 314.8307,-75.5237 304.3533,-73.9502 305.6589,-80.8273"/>
</g>
<!-- Node80&#45;&gt;Node1 -->
<g id="edge68" class="edge">
<title>Node80&#45;&gt;Node1</title>
<path fill="none" stroke="#191970" d="M1044.402,-243.5215C1103.9879,-253.1163 1185.4326,-268.1575 1195,-280 1200.586,-286.9144 1200.6682,-293.1528 1195,-300 1171.9119,-327.8901 1073.4961,-339.01 1009.4998,-343.3427"/>
<polygon fill="#191970" stroke="#191970" points="1008.9068,-339.8734 999.1507,-344.0049 1009.3538,-346.8591 1008.9068,-339.8734"/>
</g>
<!-- Node80&#45;&gt;Node29 -->
<g id="edge69" class="edge">
<title>Node80&#45;&gt;Node29</title>
<path fill="none" stroke="#191970" d="M1018.5217,-224.463C1049.6758,-216.3111 1095.3032,-203.8355 1142.9126,-188.1735"/>
<polygon fill="#191970" stroke="#191970" points="1144.0729,-191.4762 1152.4572,-184.999 1141.8637,-184.8339 1144.0729,-191.4762"/>
</g>
<!-- Node89&#45;&gt;Node1 -->
<g id="edge70" class="edge">
<title>Node89&#45;&gt;Node1</title>
<path fill="none" stroke="#191970" d="M663.728,-243.7229C654.1705,-257.7729 640.1321,-283.8354 654,-300 669.5776,-318.1575 814.4489,-333.7707 896.6738,-341.2632"/>
<polygon fill="#191970" stroke="#191970" points="896.592,-344.7698 906.8653,-342.1795 897.2189,-337.798 896.592,-344.7698"/>
</g>
<!-- Node89&#45;&gt;Node14 -->
<g id="edge71" class="edge">
<title>Node89&#45;&gt;Node14</title>
<path fill="none" stroke="#191970" d="M731.4936,-224.4825C808.6793,-212.1987 932.6931,-191.9303 936,-188 948.1272,-173.5864 935.6838,-153.631 923.1356,-139.4454"/>
<polygon fill="#191970" stroke="#191970" points="925.3437,-136.6878 915.9202,-131.8455 920.2672,-141.5075 925.3437,-136.6878"/>
</g>
<!-- Node90&#45;&gt;Node1 -->
<g id="edge72" class="edge">
<title>Node90&#45;&gt;Node1</title>
<path fill="none" stroke="#191970" d="M894.3496,-243.1941C993.5277,-255.8807 1159.8015,-277.484 1162,-280 1167.8489,-286.6935 1167.569,-293.0719 1162,-300 1143.1546,-323.4442 1064.5352,-335.6342 1009.2962,-341.4274"/>
<polygon fill="#191970" stroke="#191970" points="1008.8729,-337.9523 999.2736,-342.436 1009.5739,-344.9171 1008.8729,-337.9523"/>
</g>
</g>
</svg>
