<?xml version="1.0" encoding="UTF-8" standalone="no"?>
<!DOCTYPE svg PUBLIC "-//W3C//DTD SVG 1.1//EN"
 "http://www.w3.org/Graphics/SVG/1.1/DTD/svg11.dtd">
<!-- Generated by graphviz version 2.40.1 (20161225.0304)
 -->
<!-- Title: enumiterators.hpp Pages: 1 -->
<svg width="202pt" height="140pt"
 viewBox="0.00 0.00 201.50 140.00" xmlns="http://www.w3.org/2000/svg" xmlns:xlink="http://www.w3.org/1999/xlink">
<g id="graph0" class="graph" transform="scale(1 1) rotate(0) translate(4 136)">
<title>enumiterators.hpp</title>
<polygon fill="#ffffff" stroke="transparent" points="-4,4 -4,-136 197.5,-136 197.5,4 -4,4"/>
<!-- Node0 -->
<g id="node1" class="node">
<title>Node0</title>
<polygon fill="#bfbfbf" stroke="#000000" points="70,-112.5 70,-131.5 165,-131.5 165,-112.5 70,-112.5"/>
<text text-anchor="middle" x="117.5" y="-119.5" font-family="Helvetica,sans-Serif" font-size="10.00" fill="#000000">enumiterators.hpp</text>
</g>
<!-- Node1 -->
<g id="node2" class="node">
<title>Node1</title>
<g id="a_node2"><a xlink:href="enumbitwise_8hpp.html" target="_top" xlink:title="alib/lang/enumbitwise.hpp">
<polygon fill="#ffffff" stroke="#000000" points="0,-56.5 0,-75.5 129,-75.5 129,-56.5 0,-56.5"/>
<text text-anchor="middle" x="64.5" y="-63.5" font-family="Helvetica,sans-Serif" font-size="10.00" fill="#000000">alib/lang/enumbitwise.hpp</text>
</a>
</g>
</g>
<!-- Node0&#45;&gt;Node1 -->
<g id="edge1" class="edge">
<title>Node0&#45;&gt;Node1</title>
<path fill="none" stroke="#191970" d="M108.2681,-112.2455C100.6683,-104.2155 89.7123,-92.6394 80.6632,-83.0781"/>
<polygon fill="#191970" stroke="#191970" points="83.042,-80.4998 73.6261,-75.6427 77.9579,-85.3115 83.042,-80.4998"/>
</g>
<!-- Node3 -->
<g id="node3" class="node">
<title>Node3</title>
<polygon fill="#ffffff" stroke="#bfbfbf" points="147.5,-56.5 147.5,-75.5 193.5,-75.5 193.5,-56.5 147.5,-56.5"/>
<text text-anchor="middle" x="170.5" y="-63.5" font-family="Helvetica,sans-Serif" font-size="10.00" fill="#000000">intrin.h</text>
</g>
<!-- Node0&#45;&gt;Node3 -->
<g id="edge2" class="edge">
<title>Node0&#45;&gt;Node3</title>
<path fill="none" stroke="#191970" d="M126.7319,-112.2455C134.3317,-104.2155 145.2877,-92.6394 154.3368,-83.0781"/>
<polygon fill="#191970" stroke="#191970" points="157.0421,-85.3115 161.3739,-75.6427 151.958,-80.4998 157.0421,-85.3115"/>
</g>
<!-- Node2 -->
<g id="node4" class="node">
<title>Node2</title>
<g id="a_node4"><a xlink:href="enumarithmetical_8hpp.html" target="_top" xlink:title="enumarithmetical.hpp">
<polygon fill="#ffffff" stroke="#000000" points="9.5,-.5 9.5,-19.5 119.5,-19.5 119.5,-.5 9.5,-.5"/>
<text text-anchor="middle" x="64.5" y="-7.5" font-family="Helvetica,sans-Serif" font-size="10.00" fill="#000000">enumarithmetical.hpp</text>
</a>
</g>
</g>
<!-- Node1&#45;&gt;Node2 -->
<g id="edge3" class="edge">
<title>Node1&#45;&gt;Node2</title>
<path fill="none" stroke="#191970" d="M64.5,-56.2455C64.5,-48.9382 64.5,-38.6944 64.5,-29.7046"/>
<polygon fill="#191970" stroke="#191970" points="68.0001,-29.6426 64.5,-19.6427 61.0001,-29.6427 68.0001,-29.6426"/>
</g>
</g>
</svg>
