<?xml version="1.0" encoding="UTF-8" standalone="no"?>
<!DOCTYPE svg PUBLIC "-//W3C//DTD SVG 1.1//EN"
 "http://www.w3.org/Graphics/SVG/1.1/DTD/svg11.dtd">
<!-- Generated by graphviz version 2.40.1 (20161225.0304)
 -->
<!-- Title: enumarithmetical.hpp Pages: 1 -->
<svg width="817pt" height="308pt"
 viewBox="0.00 0.00 816.50 308.00" xmlns="http://www.w3.org/2000/svg" xmlns:xlink="http://www.w3.org/1999/xlink">
<g id="graph0" class="graph" transform="scale(1 1) rotate(0) translate(4 304)">
<title>enumarithmetical.hpp</title>
<polygon fill="#ffffff" stroke="transparent" points="-4,4 -4,-304 812.5,-304 812.5,4 -4,4"/>
<!-- Node1 -->
<g id="node1" class="node">
<title>Node1</title>
<polygon fill="#bfbfbf" stroke="#000000" points="97,-280.5 97,-299.5 207,-299.5 207,-280.5 97,-280.5"/>
<text text-anchor="middle" x="152" y="-287.5" font-family="Helvetica,sans-Serif" font-size="10.00" fill="#000000">enumarithmetical.hpp</text>
</g>
<!-- Node2 -->
<g id="node2" class="node">
<title>Node2</title>
<g id="a_node2"><a xlink:href="configlib_8hpp.html" target="_top" xlink:title="configlib.hpp">
<polygon fill="#ffffff" stroke="#000000" points="67.5,-224.5 67.5,-243.5 138.5,-243.5 138.5,-224.5 67.5,-224.5"/>
<text text-anchor="middle" x="103" y="-231.5" font-family="Helvetica,sans-Serif" font-size="10.00" fill="#000000">configlib.hpp</text>
</a>
</g>
</g>
<!-- Node1&#45;&gt;Node2 -->
<g id="edge1" class="edge">
<title>Node1&#45;&gt;Node2</title>
<path fill="none" stroke="#191970" d="M136.6878,-272.5004C128.3553,-262.9775 118.3647,-251.5596 111.4373,-243.6427"/>
<polygon fill="#191970" stroke="#191970" points="134.2457,-275.0245 143.4649,-280.2455 139.5138,-270.415 134.2457,-275.0245"/>
</g>
<!-- Node52 -->
<g id="node3" class="node">
<title>Node52</title>
<g id="a_node3"><a xlink:href="enumbitwise_8hpp.html" target="_top" xlink:title="enumbitwise.hpp">
<polygon fill="#ffffff" stroke="#000000" points="207,-224.5 207,-243.5 297,-243.5 297,-224.5 207,-224.5"/>
<text text-anchor="middle" x="252" y="-231.5" font-family="Helvetica,sans-Serif" font-size="10.00" fill="#000000">enumbitwise.hpp</text>
</a>
</g>
</g>
<!-- Node1&#45;&gt;Node52 -->
<g id="edge2" class="edge">
<title>Node1&#45;&gt;Node52</title>
<path fill="none" stroke="#191970" d="M178.2098,-275.3225C196.0717,-265.3198 219.2155,-252.3593 234.7809,-243.6427"/>
<polygon fill="#191970" stroke="#191970" points="176.4336,-272.3057 169.4187,-280.2455 179.8539,-278.4132 176.4336,-272.3057"/>
</g>
<!-- Node3 -->
<g id="node4" class="node">
<title>Node3</title>
<g id="a_node4"><a xlink:href="alib_8hpp.html" target="_top" xlink:title="alib.hpp">
<polygon fill="#ffffff" stroke="#000000" points="0,-168.5 0,-187.5 50,-187.5 50,-168.5 0,-168.5"/>
<text text-anchor="middle" x="25" y="-175.5" font-family="Helvetica,sans-Serif" font-size="10.00" fill="#000000">alib.hpp</text>
</a>
</g>
</g>
<!-- Node2&#45;&gt;Node3 -->
<g id="edge3" class="edge">
<title>Node2&#45;&gt;Node3</title>
<path fill="none" stroke="#191970" d="M81.0064,-218.2097C67.3071,-208.3743 50.1264,-196.0394 38.4309,-187.6427"/>
<polygon fill="#191970" stroke="#191970" points="79.2489,-221.2566 89.4134,-224.2455 83.3314,-215.5703 79.2489,-221.2566"/>
</g>
<!-- Node47 -->
<g id="node5" class="node">
<title>Node47</title>
<g id="a_node5"><a xlink:href="variable_8hpp.html" target="_top" xlink:title="variable.hpp">
<polygon fill="#ffffff" stroke="#000000" points="68.5,-168.5 68.5,-187.5 137.5,-187.5 137.5,-168.5 68.5,-168.5"/>
<text text-anchor="middle" x="103" y="-175.5" font-family="Helvetica,sans-Serif" font-size="10.00" fill="#000000">variable.hpp</text>
</a>
</g>
</g>
<!-- Node2&#45;&gt;Node47 -->
<g id="edge4" class="edge">
<title>Node2&#45;&gt;Node47</title>
<path fill="none" stroke="#191970" d="M103,-214.1575C103,-205.155 103,-194.9199 103,-187.6427"/>
<polygon fill="#191970" stroke="#191970" points="99.5001,-214.2455 103,-224.2455 106.5001,-214.2456 99.5001,-214.2455"/>
</g>
<!-- Node52&#45;&gt;Node3 -->
<g id="edge12" class="edge">
<title>Node52&#45;&gt;Node3</title>
<path fill="none" stroke="#191970" d="M199.2464,-222.2068C160.3477,-213.3217 106.2106,-200.5598 59,-188 56.1459,-187.2407 53.1668,-186.4146 50.2099,-185.5734"/>
<polygon fill="#191970" stroke="#191970" points="198.7664,-225.687 209.2937,-224.493 200.3195,-218.8614 198.7664,-225.687"/>
</g>
<!-- Node25 -->
<g id="node8" class="node">
<title>Node25</title>
<g id="a_node8"><a xlink:href="configuration_8hpp.html" target="_top" xlink:title="configuration.hpp">
<polygon fill="#ffffff" stroke="#ff0000" points="125.5,-56.5 125.5,-75.5 216.5,-75.5 216.5,-56.5 125.5,-56.5"/>
<text text-anchor="middle" x="171" y="-63.5" font-family="Helvetica,sans-Serif" font-size="10.00" fill="#000000">configuration.hpp</text>
</a>
</g>
</g>
<!-- Node52&#45;&gt;Node25 -->
<g id="edge13" class="edge">
<title>Node52&#45;&gt;Node25</title>
<path fill="none" stroke="#191970" d="M230.3487,-218.1068C207.8596,-200.1161 174.035,-168.5156 160,-132 152.665,-112.9162 160.6149,-88.8773 166.2998,-75.7167"/>
<polygon fill="#191970" stroke="#191970" points="228.3027,-220.9493 238.348,-224.3174 232.5956,-215.4201 228.3027,-220.9493"/>
</g>
<!-- Node46 -->
<g id="node9" class="node">
<title>Node46</title>
<g id="a_node9"><a xlink:href="plugincontainer_8hpp.html" target="_top" xlink:title="plugincontainer.hpp">
<polygon fill="#ffffff" stroke="#ff0000" points="253,-112.5 253,-131.5 353,-131.5 353,-112.5 253,-112.5"/>
<text text-anchor="middle" x="303" y="-119.5" font-family="Helvetica,sans-Serif" font-size="10.00" fill="#000000">plugincontainer.hpp</text>
</a>
</g>
</g>
<!-- Node52&#45;&gt;Node46 -->
<g id="edge14" class="edge">
<title>Node52&#45;&gt;Node46</title>
<path fill="none" stroke="#191970" d="M260.538,-215.2498C271.5373,-191.0946 290.2408,-150.0202 298.6628,-131.5249"/>
<polygon fill="#191970" stroke="#191970" points="257.3071,-213.8996 256.3482,-224.4509 263.6778,-216.8005 257.3071,-213.8996"/>
</g>
<!-- Node53 -->
<g id="node11" class="node">
<title>Node53</title>
<g id="a_node11"><a xlink:href="enumiterators_8hpp.html" target="_top" xlink:title="enumiterators.hpp">
<polygon fill="#ffffff" stroke="#000000" points="466.5,-168.5 466.5,-187.5 561.5,-187.5 561.5,-168.5 466.5,-168.5"/>
<text text-anchor="middle" x="514" y="-175.5" font-family="Helvetica,sans-Serif" font-size="10.00" fill="#000000">enumiterators.hpp</text>
</a>
</g>
</g>
<!-- Node52&#45;&gt;Node53 -->
<g id="edge15" class="edge">
<title>Node52&#45;&gt;Node53</title>
<path fill="none" stroke="#191970" d="M306.7052,-222.3073C354.9832,-211.9883 424.4822,-197.1336 469.4428,-187.5237"/>
<polygon fill="#191970" stroke="#191970" points="305.7892,-218.9239 296.7417,-224.4369 307.2524,-225.7693 305.7892,-218.9239"/>
</g>
<!-- Node54 -->
<g id="node12" class="node">
<title>Node54</title>
<g id="a_node12"><a xlink:href="substring_8hpp.html" target="_top" xlink:title="substring.hpp">
<polygon fill="#ffffff" stroke="#000000" points="373.5,-168.5 373.5,-187.5 448.5,-187.5 448.5,-168.5 373.5,-168.5"/>
<text text-anchor="middle" x="411" y="-175.5" font-family="Helvetica,sans-Serif" font-size="10.00" fill="#000000">substring.hpp</text>
</a>
</g>
</g>
<!-- Node52&#45;&gt;Node54 -->
<g id="edge16" class="edge">
<title>Node52&#45;&gt;Node54</title>
<path fill="none" stroke="#191970" d="M289.129,-220.9231C318.195,-210.686 357.9369,-196.6889 384.0236,-187.5011"/>
<polygon fill="#191970" stroke="#191970" points="287.6025,-217.75 279.3331,-224.3733 289.9279,-224.3524 287.6025,-217.75"/>
</g>
<!-- Node4 -->
<g id="node6" class="node">
<title>Node4</title>
<g id="a_node6"><a xlink:href="alox_2alox_8hpp.html" target="_top" xlink:title="alox.hpp">
<polygon fill="#ffffff" stroke="#ff0000" points="36.5,-.5 36.5,-19.5 89.5,-19.5 89.5,-.5 36.5,-.5"/>
<text text-anchor="middle" x="63" y="-7.5" font-family="Helvetica,sans-Serif" font-size="10.00" fill="#000000">alox.hpp</text>
</a>
</g>
</g>
<!-- Node3&#45;&gt;Node4 -->
<g id="edge5" class="edge">
<title>Node3&#45;&gt;Node4</title>
<path fill="none" stroke="#191970" d="M13.0841,-159.2613C6.1986,-146.1238 -.3217,-128.1027 4,-112 14.0222,-74.657 41.4045,-36.8573 55.0509,-19.6293"/>
<polygon fill="#191970" stroke="#191970" points="10.2291,-161.3177 18.2472,-168.2431 16.2979,-157.8291 10.2291,-161.3177"/>
</g>
<!-- Node22 -->
<g id="node7" class="node">
<title>Node22</title>
<g id="a_node7"><a xlink:href="owner_8hpp.html" target="_top" xlink:title="owner.hpp">
<polygon fill="#ffffff" stroke="#ff0000" points="13.5,-112.5 13.5,-131.5 74.5,-131.5 74.5,-112.5 13.5,-112.5"/>
<text text-anchor="middle" x="44" y="-119.5" font-family="Helvetica,sans-Serif" font-size="10.00" fill="#000000">owner.hpp</text>
</a>
</g>
</g>
<!-- Node3&#45;&gt;Node22 -->
<g id="edge6" class="edge">
<title>Node3&#45;&gt;Node22</title>
<path fill="none" stroke="#191970" d="M31.5315,-158.7493C34.6336,-149.6064 38.2051,-139.0798 40.7284,-131.6427"/>
<polygon fill="#191970" stroke="#191970" points="28.2082,-157.6512 28.3095,-168.2455 34.837,-159.9003 28.2082,-157.6512"/>
</g>
<!-- Node47&#45;&gt;Node25 -->
<g id="edge9" class="edge">
<title>Node47&#45;&gt;Node25</title>
<path fill="none" stroke="#191970" d="M107.7307,-158.6903C111.6171,-144.997 117.9621,-126.5454 127,-112 135.8655,-97.7321 149.7149,-84.1905 159.5044,-75.5428"/>
<polygon fill="#191970" stroke="#191970" points="104.3131,-157.9235 105.1364,-168.4863 111.0799,-159.7156 104.3131,-157.9235"/>
</g>
<!-- Node48 -->
<g id="node10" class="node">
<title>Node48</title>
<g id="a_node10"><a xlink:href="plugins_8hpp.html" target="_top" xlink:title="plugins.hpp">
<polygon fill="#ffffff" stroke="#ff0000" points="169,-112.5 169,-131.5 235,-131.5 235,-112.5 169,-112.5"/>
<text text-anchor="middle" x="202" y="-119.5" font-family="Helvetica,sans-Serif" font-size="10.00" fill="#000000">plugins.hpp</text>
</a>
</g>
</g>
<!-- Node47&#45;&gt;Node48 -->
<g id="edge10" class="edge">
<title>Node47&#45;&gt;Node48</title>
<path fill="none" stroke="#191970" d="M129.4357,-163.0465C147.0508,-153.0824 169.6847,-140.2794 184.9531,-131.6427"/>
<polygon fill="#191970" stroke="#191970" points="127.2253,-160.2756 120.2445,-168.2455 130.6717,-166.3684 127.2253,-160.2756"/>
</g>
<!-- Node25&#45;&gt;Node4 -->
<g id="edge7" class="edge">
<title>Node25&#45;&gt;Node4</title>
<path fill="none" stroke="#191970" d="M143.2229,-51.5971C123.8618,-41.558 98.5615,-28.4393 81.5966,-19.6427"/>
<polygon fill="#191970" stroke="#191970" points="141.6992,-54.7495 152.1878,-56.2455 144.9214,-48.5352 141.6992,-54.7495"/>
</g>
<!-- Node46&#45;&gt;Node25 -->
<g id="edge8" class="edge">
<title>Node46&#45;&gt;Node25</title>
<path fill="none" stroke="#191970" d="M270.9035,-108.3833C246.8965,-98.1985 214.6741,-84.5284 193.3955,-75.5011"/>
<polygon fill="#191970" stroke="#191970" points="269.7356,-111.6897 280.3084,-112.3733 272.4695,-105.2457 269.7356,-111.6897"/>
</g>
<!-- Node48&#45;&gt;Node25 -->
<g id="edge11" class="edge">
<title>Node48&#45;&gt;Node25</title>
<path fill="none" stroke="#191970" d="M191.6688,-103.3372C186.5335,-94.0605 180.5434,-83.2398 176.3379,-75.6427"/>
<polygon fill="#191970" stroke="#191970" points="188.6949,-105.1917 196.6002,-112.2455 194.8191,-101.8015 188.6949,-105.1917"/>
</g>
<!-- Node54&#45;&gt;Node25 -->
<g id="edge17" class="edge">
<title>Node54&#45;&gt;Node25</title>
<path fill="none" stroke="#191970" d="M401.8207,-159.2849C393.4806,-144.244 379.772,-123.7519 362,-112 338.4574,-96.4323 265.5277,-81.7678 216.9063,-73.3451"/>
<polygon fill="#191970" stroke="#191970" points="398.7706,-161.0049 406.5149,-168.2351 404.9697,-157.7535 398.7706,-161.0049"/>
</g>
<!-- Node54&#45;&gt;Node46 -->
<g id="edge19" class="edge">
<title>Node54&#45;&gt;Node46</title>
<path fill="none" stroke="#191970" d="M383.2229,-163.5971C363.8618,-153.558 338.5615,-140.4393 321.5966,-131.6427"/>
<polygon fill="#191970" stroke="#191970" points="381.6992,-166.7495 392.1878,-168.2455 384.9214,-160.5352 381.6992,-166.7495"/>
</g>
<!-- Node54&#45;&gt;Node48 -->
<g id="edge20" class="edge">
<title>Node54&#45;&gt;Node48</title>
<path fill="none" stroke="#191970" d="M365.2008,-165.7285C325.8808,-155.193 270.1494,-140.2601 235.0509,-130.8557"/>
<polygon fill="#191970" stroke="#191970" points="364.5065,-169.1658 375.0716,-168.3733 366.3182,-162.4043 364.5065,-169.1658"/>
</g>
<!-- Node35 -->
<g id="node13" class="node">
<title>Node35</title>
<g id="a_node13"><a xlink:href="formatter_8hpp.html" target="_top" xlink:title="formatter.hpp">
<polygon fill="#ffffff" stroke="#ff0000" points="585,-112.5 585,-131.5 659,-131.5 659,-112.5 585,-112.5"/>
<text text-anchor="middle" x="622" y="-119.5" font-family="Helvetica,sans-Serif" font-size="10.00" fill="#000000">formatter.hpp</text>
</a>
</g>
</g>
<!-- Node54&#45;&gt;Node35 -->
<g id="edge18" class="edge">
<title>Node54&#45;&gt;Node35</title>
<path fill="none" stroke="#191970" d="M457.2697,-165.7199C496.0676,-155.4228 550.6759,-140.9296 586.2011,-131.5011"/>
<polygon fill="#191970" stroke="#191970" points="456.0397,-162.4251 447.2722,-168.3733 457.8354,-169.1909 456.0397,-162.4251"/>
</g>
<!-- Node55 -->
<g id="node14" class="node">
<title>Node55</title>
<g id="a_node14"><a xlink:href="resourcedtupleloader_8hpp.html" target="_top" xlink:title="resourcedtupleloader.hpp">
<polygon fill="#ffffff" stroke="#000000" points="683.5,-56.5 683.5,-75.5 808.5,-75.5 808.5,-56.5 683.5,-56.5"/>
<text text-anchor="middle" x="746" y="-63.5" font-family="Helvetica,sans-Serif" font-size="10.00" fill="#000000">resourcedtupleloader.hpp</text>
</a>
</g>
</g>
<!-- Node54&#45;&gt;Node55 -->
<g id="edge21" class="edge">
<title>Node54&#45;&gt;Node55</title>
<path fill="none" stroke="#191970" d="M458.9229,-168.0826C540.0258,-158.8703 716.9053,-180.518 760,-132 774.0015,-116.2365 761.392,-90.011 752.6711,-75.829"/>
<polygon fill="#191970" stroke="#191970" points="458.021,-164.6743 448.5988,-169.5192 458.9858,-171.6075 458.021,-164.6743"/>
</g>
<!-- Node56 -->
<g id="node15" class="node">
<title>Node56</title>
<g id="a_node15"><a xlink:href="tokenizer_8hpp.html" target="_top" xlink:title="tokenizer.hpp">
<polygon fill="#ffffff" stroke="#ff0000" points="677,-112.5 677,-131.5 751,-131.5 751,-112.5 677,-112.5"/>
<text text-anchor="middle" x="714" y="-119.5" font-family="Helvetica,sans-Serif" font-size="10.00" fill="#000000">tokenizer.hpp</text>
</a>
</g>
</g>
<!-- Node54&#45;&gt;Node56 -->
<g id="edge22" class="edge">
<title>Node54&#45;&gt;Node56</title>
<path fill="none" stroke="#191970" d="M458.5128,-167.7696C552.0776,-149.8852 577.7075,-149.5078 668,-132 670.8884,-131.4399 673.874,-130.8396 676.8725,-130.2215"/>
<polygon fill="#191970" stroke="#191970" points="457.7836,-164.3457 448.6271,-169.6756 459.1089,-171.2191 457.7836,-164.3457"/>
</g>
<!-- Node57 -->
<g id="node16" class="node">
<title>Node57</title>
<g id="a_node16"><a xlink:href="timelib_8hpp.html" target="_top" xlink:title="timelib.hpp">
<polygon fill="#ffffff" stroke="#ff0000" points="409,-112.5 409,-131.5 473,-131.5 473,-112.5 409,-112.5"/>
<text text-anchor="middle" x="441" y="-119.5" font-family="Helvetica,sans-Serif" font-size="10.00" fill="#000000">timelib.hpp</text>
</a>
</g>
</g>
<!-- Node54&#45;&gt;Node57 -->
<g id="edge23" class="edge">
<title>Node54&#45;&gt;Node57</title>
<path fill="none" stroke="#191970" d="M420.998,-159.3372C425.9676,-150.0605 431.7644,-139.2398 435.8343,-131.6427"/>
<polygon fill="#191970" stroke="#191970" points="417.8627,-157.7779 416.2256,-168.2455 424.0331,-161.0835 417.8627,-157.7779"/>
</g>
<!-- Node65 -->
<g id="node17" class="node">
<title>Node65</title>
<g id="a_node17"><a xlink:href="stringtree_8hpp.html" target="_top" xlink:title="stringtree.hpp">
<polygon fill="#ffffff" stroke="#ff0000" points="491,-112.5 491,-131.5 567,-131.5 567,-112.5 491,-112.5"/>
<text text-anchor="middle" x="529" y="-119.5" font-family="Helvetica,sans-Serif" font-size="10.00" fill="#000000">stringtree.hpp</text>
</a>
</g>
</g>
<!-- Node54&#45;&gt;Node65 -->
<g id="edge24" class="edge">
<title>Node54&#45;&gt;Node65</title>
<path fill="none" stroke="#191970" d="M440.5547,-163.9741C461.9195,-153.8348 490.2116,-140.408 508.9798,-131.5011"/>
<polygon fill="#191970" stroke="#191970" points="438.8186,-160.9238 431.2849,-168.3733 441.8198,-167.2478 438.8186,-160.9238"/>
</g>
<!-- Node56&#45;&gt;Node55 -->
<g id="edge25" class="edge">
<title>Node56&#45;&gt;Node55</title>
<path fill="none" stroke="#191970" d="M724.6645,-103.3372C729.9654,-94.0605 736.1487,-83.2398 740.4899,-75.6427"/>
<polygon fill="#191970" stroke="#191970" points="721.4966,-101.8266 719.574,-112.2455 727.5743,-105.2996 721.4966,-101.8266"/>
</g>
</g>
</svg>
