<?xml version="1.0" encoding="UTF-8" standalone="no"?>
<!DOCTYPE svg PUBLIC "-//W3C//DTD SVG 1.1//EN"
 "http://www.w3.org/Graphics/SVG/1.1/DTD/svg11.dtd">
<!-- Generated by graphviz version 2.40.1 (20161225.0304)
 -->
<!-- Title: enumbitwise.hpp Pages: 1 -->
<svg width="1228pt" height="588pt"
 viewBox="0.00 0.00 1228.00 588.00" xmlns="http://www.w3.org/2000/svg" xmlns:xlink="http://www.w3.org/1999/xlink">
<g id="graph0" class="graph" transform="scale(1 1) rotate(0) translate(4 584)">
<title>enumbitwise.hpp</title>
<polygon fill="#ffffff" stroke="transparent" points="-4,4 -4,-584 1224,-584 1224,4 -4,4"/>
<!-- Node2 -->
<g id="node1" class="node">
<title>Node2</title>
<polygon fill="#bfbfbf" stroke="#000000" points="588.5,-560.5 588.5,-579.5 678.5,-579.5 678.5,-560.5 588.5,-560.5"/>
<text text-anchor="middle" x="633.5" y="-567.5" font-family="Helvetica,sans-Serif" font-size="10.00" fill="#000000">enumbitwise.hpp</text>
</g>
<!-- Node3 -->
<g id="node2" class="node">
<title>Node3</title>
<g id="a_node2"><a xlink:href="alib_8hpp.html" target="_top" xlink:title="alib.hpp">
<polygon fill="#ffffff" stroke="#000000" points="478.5,-504.5 478.5,-523.5 528.5,-523.5 528.5,-504.5 478.5,-504.5"/>
<text text-anchor="middle" x="503.5" y="-511.5" font-family="Helvetica,sans-Serif" font-size="10.00" fill="#000000">alib.hpp</text>
</a>
</g>
</g>
<!-- Node2&#45;&gt;Node3 -->
<g id="edge1" class="edge">
<title>Node2&#45;&gt;Node3</title>
<path fill="none" stroke="#191970" d="M601.8898,-556.3833C578.2465,-546.1985 546.5124,-532.5284 525.5562,-523.5011"/>
<polygon fill="#191970" stroke="#191970" points="600.5834,-559.6314 611.1522,-560.3733 603.3528,-553.2025 600.5834,-559.6314"/>
</g>
<!-- Node25 -->
<g id="node3" class="node">
<title>Node25</title>
<g id="a_node3"><a xlink:href="configuration_8hpp.html" target="_top" xlink:title="configuration.hpp">
<polygon fill="#ffffff" stroke="#ff0000" points="814,-336.5 814,-355.5 905,-355.5 905,-336.5 814,-336.5"/>
<text text-anchor="middle" x="859.5" y="-343.5" font-family="Helvetica,sans-Serif" font-size="10.00" fill="#000000">configuration.hpp</text>
</a>
</g>
</g>
<!-- Node2&#45;&gt;Node25 -->
<g id="edge2" class="edge">
<title>Node2&#45;&gt;Node25</title>
<path fill="none" stroke="#191970" d="M619.5859,-552.2102C602.3909,-527.9043 577.3806,-483.3062 594.5,-448 612.0347,-411.8373 629.317,-409.4928 665.5,-392 713.1803,-368.9488 773.1632,-357.0201 813.7121,-351.1528"/>
<polygon fill="#191970" stroke="#191970" points="616.9316,-554.5076 625.6892,-560.4705 622.5615,-550.3478 616.9316,-554.5076"/>
</g>
<!-- Node46 -->
<g id="node4" class="node">
<title>Node46</title>
<g id="a_node4"><a xlink:href="plugincontainer_8hpp.html" target="_top" xlink:title="plugincontainer.hpp">
<polygon fill="#ffffff" stroke="#ff0000" points="603.5,-448.5 603.5,-467.5 703.5,-467.5 703.5,-448.5 603.5,-448.5"/>
<text text-anchor="middle" x="653.5" y="-455.5" font-family="Helvetica,sans-Serif" font-size="10.00" fill="#000000">plugincontainer.hpp</text>
</a>
</g>
</g>
<!-- Node2&#45;&gt;Node46 -->
<g id="edge3" class="edge">
<title>Node2&#45;&gt;Node46</title>
<path fill="none" stroke="#191970" d="M636.9645,-550.5987C641.2923,-526.363 648.5259,-485.8551 651.7991,-467.5249"/>
<polygon fill="#191970" stroke="#191970" points="633.5177,-549.9914 635.2052,-560.4509 640.4087,-551.222 633.5177,-549.9914"/>
</g>
<!-- Node47 -->
<g id="node5" class="node">
<title>Node47</title>
<g id="a_node5"><a xlink:href="enumiterators_8hpp.html" target="_top" xlink:title="enumiterators.hpp">
<polygon fill="#ffffff" stroke="#000000" points="662,-504.5 662,-523.5 757,-523.5 757,-504.5 662,-504.5"/>
<text text-anchor="middle" x="709.5" y="-511.5" font-family="Helvetica,sans-Serif" font-size="10.00" fill="#000000">enumiterators.hpp</text>
</a>
</g>
</g>
<!-- Node2&#45;&gt;Node47 -->
<g id="edge4" class="edge">
<title>Node2&#45;&gt;Node47</title>
<path fill="none" stroke="#191970" d="M654.9297,-554.2097C668.2777,-544.3743 685.0179,-532.0394 696.4135,-523.6427"/>
<polygon fill="#191970" stroke="#191970" points="652.7126,-551.4958 646.7382,-560.2455 656.865,-557.1312 652.7126,-551.4958"/>
</g>
<!-- Node48 -->
<g id="node6" class="node">
<title>Node48</title>
<g id="a_node6"><a xlink:href="substring_8hpp.html" target="_top" xlink:title="substring.hpp">
<polygon fill="#ffffff" stroke="#000000" points="891,-504.5 891,-523.5 966,-523.5 966,-504.5 891,-504.5"/>
<text text-anchor="middle" x="928.5" y="-511.5" font-family="Helvetica,sans-Serif" font-size="10.00" fill="#000000">substring.hpp</text>
</a>
</g>
</g>
<!-- Node2&#45;&gt;Node48 -->
<g id="edge5" class="edge">
<title>Node2&#45;&gt;Node48</title>
<path fill="none" stroke="#191970" d="M688.5191,-559.5557C747.5233,-548.3549 839.6241,-530.8714 890.8712,-521.1431"/>
<polygon fill="#191970" stroke="#191970" points="687.797,-556.1302 678.6253,-561.4338 689.1026,-563.0074 687.797,-556.1302"/>
</g>
<!-- Node4 -->
<g id="node7" class="node">
<title>Node4</title>
<g id="a_node7"><a xlink:href="alox_2alox_8hpp.html" target="_top" xlink:title="alox.hpp">
<polygon fill="#ffffff" stroke="#000000" points="497,-280.5 497,-299.5 550,-299.5 550,-280.5 497,-280.5"/>
<text text-anchor="middle" x="523.5" y="-287.5" font-family="Helvetica,sans-Serif" font-size="10.00" fill="#000000">alox.hpp</text>
</a>
</g>
</g>
<!-- Node3&#45;&gt;Node4 -->
<g id="edge6" class="edge">
<title>Node3&#45;&gt;Node4</title>
<path fill="none" stroke="#191970" d="M485.2944,-497.1606C477.5167,-489.0434 468.9847,-478.7461 463.5,-468 447.9216,-437.4773 440.0269,-424.6288 450.5,-392 463.0118,-353.0194 496.5163,-316.2823 513.4327,-299.516"/>
<polygon fill="#191970" stroke="#191970" points="483.1155,-499.9291 492.6798,-504.487 488.0453,-494.9596 483.1155,-499.9291"/>
</g>
<!-- Node22 -->
<g id="node8" class="node">
<title>Node22</title>
<g id="a_node8"><a xlink:href="owner_8hpp.html" target="_top" xlink:title="owner.hpp">
<polygon fill="#ffffff" stroke="#000000" points="473,-448.5 473,-467.5 534,-467.5 534,-448.5 473,-448.5"/>
<text text-anchor="middle" x="503.5" y="-455.5" font-family="Helvetica,sans-Serif" font-size="10.00" fill="#000000">owner.hpp</text>
</a>
</g>
</g>
<!-- Node3&#45;&gt;Node22 -->
<g id="edge7" class="edge">
<title>Node3&#45;&gt;Node22</title>
<path fill="none" stroke="#191970" d="M503.5,-494.1575C503.5,-485.155 503.5,-474.9199 503.5,-467.6427"/>
<polygon fill="#191970" stroke="#191970" points="500.0001,-494.2455 503.5,-504.2455 507.0001,-494.2456 500.0001,-494.2455"/>
</g>
<!-- Node25&#45;&gt;Node4 -->
<g id="edge45" class="edge">
<title>Node25&#45;&gt;Node4</title>
<path fill="none" stroke="#191970" d="M803.8609,-336.7268C730.6014,-324.5169 604.708,-303.5347 550.0808,-294.4301"/>
<polygon fill="#191970" stroke="#191970" points="803.3965,-340.1976 813.8359,-338.3893 804.5473,-333.2929 803.3965,-340.1976"/>
</g>
<!-- Node6 -->
<g id="node10" class="node">
<title>Node6</title>
<g id="a_node10"><a xlink:href="lox_8hpp.html" target="_top" xlink:title="lox.hpp">
<polygon fill="#ffffff" stroke="#000000" points="752.5,-168.5 752.5,-187.5 800.5,-187.5 800.5,-168.5 752.5,-168.5"/>
<text text-anchor="middle" x="776.5" y="-175.5" font-family="Helvetica,sans-Serif" font-size="10.00" fill="#000000">lox.hpp</text>
</a>
</g>
</g>
<!-- Node25&#45;&gt;Node6 -->
<g id="edge46" class="edge">
<title>Node25&#45;&gt;Node6</title>
<path fill="none" stroke="#191970" d="M867.6358,-326.9178C877.1362,-301.4093 889.2078,-255.7348 869.5,-224 854.5803,-199.9754 822.982,-188.1173 800.7739,-182.5386"/>
<polygon fill="#191970" stroke="#191970" points="864.3783,-325.6378 863.9451,-336.2238 870.8852,-328.2184 864.3783,-325.6378"/>
</g>
<!-- Node46&#45;&gt;Node25 -->
<g id="edge47" class="edge">
<title>Node46&#45;&gt;Node25</title>
<path fill="none" stroke="#191970" d="M657.8448,-438.6039C662.1611,-423.7537 670.2527,-403.8637 684.5,-392 704.0538,-375.7176 768.9388,-361.6218 813.9524,-353.4656"/>
<polygon fill="#191970" stroke="#191970" points="654.4422,-437.7825 655.3351,-448.3396 661.2206,-439.5299 654.4422,-437.7825"/>
</g>
<!-- Node48&#45;&gt;Node25 -->
<g id="edge48" class="edge">
<title>Node48&#45;&gt;Node25</title>
<path fill="none" stroke="#191970" d="M949.2251,-497.4619C957.5098,-489.537 966.1142,-479.308 970.5,-468 973.7143,-459.7126 972.8388,-456.5757 970.5,-448 962.8988,-420.129 957.9241,-412.431 937.5,-392 921.4949,-375.9895 898.8159,-363.4361 882.0352,-355.5164"/>
<polygon fill="#191970" stroke="#191970" points="946.6699,-495.0506 941.528,-504.3141 951.3244,-500.279 946.6699,-495.0506"/>
</g>
<!-- Node48&#45;&gt;Node46 -->
<g id="edge50" class="edge">
<title>Node48&#45;&gt;Node46</title>
<path fill="none" stroke="#191970" d="M880.8045,-504.2875C830.1721,-493.9769 750.6626,-477.7858 700.3533,-467.541"/>
<polygon fill="#191970" stroke="#191970" points="880.3417,-507.765 890.839,-506.3309 881.7386,-500.9058 880.3417,-507.765"/>
</g>
<!-- Node35 -->
<g id="node27" class="node">
<title>Node35</title>
<g id="a_node27"><a xlink:href="formatter_8hpp.html" target="_top" xlink:title="formatter.hpp">
<polygon fill="#ffffff" stroke="#ff0000" points="803.5,-448.5 803.5,-467.5 877.5,-467.5 877.5,-448.5 803.5,-448.5"/>
<text text-anchor="middle" x="840.5" y="-455.5" font-family="Helvetica,sans-Serif" font-size="10.00" fill="#000000">formatter.hpp</text>
</a>
</g>
</g>
<!-- Node48&#45;&gt;Node35 -->
<g id="edge49" class="edge">
<title>Node48&#45;&gt;Node35</title>
<path fill="none" stroke="#191970" d="M904.5655,-498.769C888.9717,-488.8456 869.099,-476.1994 855.6528,-467.6427"/>
<polygon fill="#191970" stroke="#191970" points="902.8559,-501.8296 913.1716,-504.2455 906.614,-495.9239 902.8559,-501.8296"/>
</g>
<!-- Node49 -->
<g id="node28" class="node">
<title>Node49</title>
<g id="a_node28"><a xlink:href="plugins_8hpp.html" target="_top" xlink:title="plugins.hpp">
<polygon fill="#ffffff" stroke="#000000" points="895.5,-448.5 895.5,-467.5 961.5,-467.5 961.5,-448.5 895.5,-448.5"/>
<text text-anchor="middle" x="928.5" y="-455.5" font-family="Helvetica,sans-Serif" font-size="10.00" fill="#000000">plugins.hpp</text>
</a>
</g>
</g>
<!-- Node48&#45;&gt;Node49 -->
<g id="edge51" class="edge">
<title>Node48&#45;&gt;Node49</title>
<path fill="none" stroke="#191970" d="M928.5,-494.1575C928.5,-485.155 928.5,-474.9199 928.5,-467.6427"/>
<polygon fill="#191970" stroke="#191970" points="925.0001,-494.2455 928.5,-504.2455 932.0001,-494.2456 925.0001,-494.2455"/>
</g>
<!-- Node53 -->
<g id="node29" class="node">
<title>Node53</title>
<g id="a_node29"><a xlink:href="resourcedtupleloader_8hpp.html" target="_top" xlink:title="resourcedtupleloader.hpp">
<polygon fill="#ffffff" stroke="#000000" points="1095,-392.5 1095,-411.5 1220,-411.5 1220,-392.5 1095,-392.5"/>
<text text-anchor="middle" x="1157.5" y="-399.5" font-family="Helvetica,sans-Serif" font-size="10.00" fill="#000000">resourcedtupleloader.hpp</text>
</a>
</g>
</g>
<!-- Node48&#45;&gt;Node53 -->
<g id="edge52" class="edge">
<title>Node48&#45;&gt;Node53</title>
<path fill="none" stroke="#191970" d="M976.2517,-509.2108C1030.7717,-502.7954 1115.4125,-489.641 1138.5,-468 1154.333,-453.159 1157.2567,-426.0615 1157.6239,-411.6359"/>
<polygon fill="#191970" stroke="#191970" points="975.6491,-505.7568 966.1102,-510.3678 976.4425,-512.7117 975.6491,-505.7568"/>
</g>
<!-- Node54 -->
<g id="node30" class="node">
<title>Node54</title>
<g id="a_node30"><a xlink:href="tokenizer_8hpp.html" target="_top" xlink:title="tokenizer.hpp">
<polygon fill="#ffffff" stroke="#000000" points="1055.5,-448.5 1055.5,-467.5 1129.5,-467.5 1129.5,-448.5 1055.5,-448.5"/>
<text text-anchor="middle" x="1092.5" y="-455.5" font-family="Helvetica,sans-Serif" font-size="10.00" fill="#000000">tokenizer.hpp</text>
</a>
</g>
</g>
<!-- Node48&#45;&gt;Node54 -->
<g id="edge53" class="edge">
<title>Node48&#45;&gt;Node54</title>
<path fill="none" stroke="#191970" d="M966.4044,-501.057C996.4184,-490.8084 1037.6507,-476.729 1064.6753,-467.5011"/>
<polygon fill="#191970" stroke="#191970" points="965.0251,-497.8295 956.6926,-504.3733 967.2871,-504.454 965.0251,-497.8295"/>
</g>
<!-- Node55 -->
<g id="node31" class="node">
<title>Node55</title>
<g id="a_node31"><a xlink:href="timelib_8hpp.html" target="_top" xlink:title="timelib.hpp">
<polygon fill="#ffffff" stroke="#000000" points="721.5,-448.5 721.5,-467.5 785.5,-467.5 785.5,-448.5 721.5,-448.5"/>
<text text-anchor="middle" x="753.5" y="-455.5" font-family="Helvetica,sans-Serif" font-size="10.00" fill="#000000">timelib.hpp</text>
</a>
</g>
</g>
<!-- Node48&#45;&gt;Node55 -->
<g id="edge54" class="edge">
<title>Node48&#45;&gt;Node55</title>
<path fill="none" stroke="#191970" d="M888.886,-501.3235C856.7925,-491.0536 812.2789,-476.8093 783.191,-467.5011"/>
<polygon fill="#191970" stroke="#191970" points="887.8254,-504.6589 898.4164,-504.3733 889.9589,-497.9919 887.8254,-504.6589"/>
</g>
<!-- Node63 -->
<g id="node32" class="node">
<title>Node63</title>
<g id="a_node32"><a xlink:href="stringtree_8hpp.html" target="_top" xlink:title="stringtree.hpp">
<polygon fill="#ffffff" stroke="#000000" points="960.5,-336.5 960.5,-355.5 1036.5,-355.5 1036.5,-336.5 960.5,-336.5"/>
<text text-anchor="middle" x="998.5" y="-343.5" font-family="Helvetica,sans-Serif" font-size="10.00" fill="#000000">stringtree.hpp</text>
</a>
</g>
</g>
<!-- Node48&#45;&gt;Node63 -->
<g id="edge55" class="edge">
<title>Node48&#45;&gt;Node63</title>
<path fill="none" stroke="#191970" d="M955.5988,-498.7528C966.7468,-491.0284 978.6338,-480.5991 985.5,-468 1005.8856,-430.5932 1002.3533,-377.1716 999.8324,-355.5897"/>
<polygon fill="#191970" stroke="#191970" points="953.4256,-495.99 946.9269,-504.3576 957.2253,-501.869 953.4256,-495.99"/>
</g>
<!-- Node5 -->
<g id="node9" class="node">
<title>Node5</title>
<g id="a_node9"><a xlink:href="log_8hpp.html" target="_top" xlink:title="log.hpp">
<polygon fill="#ffffff" stroke="#000000" points="499.5,-224.5 499.5,-243.5 547.5,-243.5 547.5,-224.5 499.5,-224.5"/>
<text text-anchor="middle" x="523.5" y="-231.5" font-family="Helvetica,sans-Serif" font-size="10.00" fill="#000000">log.hpp</text>
</a>
</g>
</g>
<!-- Node4&#45;&gt;Node5 -->
<g id="edge8" class="edge">
<title>Node4&#45;&gt;Node5</title>
<path fill="none" stroke="#191970" d="M517.0113,-270.1575C516.419,-261.155 516.8335,-250.9199 518.2549,-243.6427"/>
<polygon fill="#191970" stroke="#191970" points="513.5561,-270.739 518.2332,-280.2455 520.5053,-269.8972 513.5561,-270.739"/>
</g>
<!-- Node4&#45;&gt;Node6 -->
<g id="edge9" class="edge">
<title>Node4&#45;&gt;Node6</title>
<path fill="none" stroke="#191970" d="M547.1536,-276.1482C566.4722,-267.0197 594.0983,-254.8009 618.5,-244 665.5855,-223.1585 721.0307,-198.5925 752.3846,-186.1317"/>
<polygon fill="#191970" stroke="#191970" points="545.6239,-273.0001 538.129,-280.4886 548.6579,-279.3084 545.6239,-273.0001"/>
</g>
<!-- Node7 -->
<g id="node11" class="node">
<title>Node7</title>
<g id="a_node11"><a xlink:href="domain_8hpp.html" target="_top" xlink:title="domain.hpp">
<polygon fill="#ffffff" stroke="#000000" points="698,-224.5 698,-243.5 765,-243.5 765,-224.5 698,-224.5"/>
<text text-anchor="middle" x="731.5" y="-231.5" font-family="Helvetica,sans-Serif" font-size="10.00" fill="#000000">domain.hpp</text>
</a>
</g>
</g>
<!-- Node4&#45;&gt;Node7 -->
<g id="edge10" class="edge">
<title>Node4&#45;&gt;Node7</title>
<path fill="none" stroke="#191970" d="M560.1504,-280.1326C599.1178,-269.6414 660.2202,-253.1907 697.9585,-243.0304"/>
<polygon fill="#191970" stroke="#191970" points="559.0128,-276.8142 550.2665,-282.7936 560.8326,-283.5735 559.0128,-276.8142"/>
</g>
<!-- Node8 -->
<g id="node12" class="node">
<title>Node8</title>
<g id="a_node12"><a xlink:href="logger_8hpp.html" target="_top" xlink:title="logger.hpp">
<polygon fill="#ffffff" stroke="#000000" points="294,-224.5 294,-243.5 355,-243.5 355,-224.5 294,-224.5"/>
<text text-anchor="middle" x="324.5" y="-231.5" font-family="Helvetica,sans-Serif" font-size="10.00" fill="#000000">logger.hpp</text>
</a>
</g>
</g>
<!-- Node4&#45;&gt;Node8 -->
<g id="edge11" class="edge">
<title>Node4&#45;&gt;Node8</title>
<path fill="none" stroke="#191970" d="M486.5604,-279.6049C448.7076,-268.9529 390.5297,-252.5812 355.1457,-242.6239"/>
<polygon fill="#191970" stroke="#191970" points="486.0877,-283.1078 496.662,-282.4476 487.984,-276.3695 486.0877,-283.1078"/>
</g>
<!-- Node9 -->
<g id="node13" class="node">
<title>Node9</title>
<g id="a_node13"><a xlink:href="textlogger_8hpp.html" target="_top" xlink:title="textlogger.hpp">
<polygon fill="#ffffff" stroke="#000000" points="256,-168.5 256,-187.5 333,-187.5 333,-168.5 256,-168.5"/>
<text text-anchor="middle" x="294.5" y="-175.5" font-family="Helvetica,sans-Serif" font-size="10.00" fill="#000000">textlogger.hpp</text>
</a>
</g>
</g>
<!-- Node4&#45;&gt;Node9 -->
<g id="edge12" class="edge">
<title>Node4&#45;&gt;Node9</title>
<path fill="none" stroke="#191970" d="M486.5043,-288.4293C425.9072,-284.9947 309.6928,-274.5041 284.5,-244 271.2163,-227.9158 281.5567,-201.8206 288.867,-187.7442"/>
<polygon fill="#191970" stroke="#191970" points="486.6147,-291.94 496.786,-288.9744 486.9854,-284.9498 486.6147,-291.94"/>
</g>
<!-- Node10 -->
<g id="node14" class="node">
<title>Node10</title>
<g id="a_node14"><a xlink:href="plaintextlogger_8hpp.html" target="_top" xlink:title="plaintextlogger.hpp">
<polygon fill="#ffffff" stroke="#000000" points="214.5,-112.5 214.5,-131.5 312.5,-131.5 312.5,-112.5 214.5,-112.5"/>
<text text-anchor="middle" x="263.5" y="-119.5" font-family="Helvetica,sans-Serif" font-size="10.00" fill="#000000">plaintextlogger.hpp</text>
</a>
</g>
</g>
<!-- Node4&#45;&gt;Node10 -->
<g id="edge13" class="edge">
<title>Node4&#45;&gt;Node10</title>
<path fill="none" stroke="#191970" d="M486.4618,-287.1898C408.0819,-280.8668 231.1493,-264.4614 213.5,-244 191.4379,-218.4226 199.9269,-198.9307 213.5,-168 220.3253,-152.4464 235.2924,-139.8359 247.0823,-131.7788"/>
<polygon fill="#191970" stroke="#191970" points="486.5948,-290.7113 496.8406,-288.0144 487.1493,-283.7333 486.5948,-290.7113"/>
</g>
<!-- Node11 -->
<g id="node15" class="node">
<title>Node11</title>
<g id="a_node15"><a xlink:href="consolelogger_8hpp.html" target="_top" xlink:title="consolelogger.hpp">
<polygon fill="#ffffff" stroke="#000000" points="0,-56.5 0,-75.5 95,-75.5 95,-56.5 0,-56.5"/>
<text text-anchor="middle" x="47.5" y="-63.5" font-family="Helvetica,sans-Serif" font-size="10.00" fill="#000000">consolelogger.hpp</text>
</a>
</g>
</g>
<!-- Node4&#45;&gt;Node11 -->
<g id="edge14" class="edge">
<title>Node4&#45;&gt;Node11</title>
<path fill="none" stroke="#191970" d="M486.8196,-288.6278C401.5893,-284.9768 192.6424,-273.2322 129.5,-244 73.2763,-217.9708 58.4963,-192.7841 46.5,-132 42.5948,-112.2127 44.5319,-88.4376 46.124,-75.5106"/>
<polygon fill="#191970" stroke="#191970" points="486.6823,-292.125 496.819,-289.043 486.9728,-285.131 486.6823,-292.125"/>
</g>
<!-- Node12 -->
<g id="node16" class="node">
<title>Node12</title>
<g id="a_node16"><a xlink:href="alox_8hpp_source.html" target="_top" xlink:title="alox.hpp">
<polygon fill="#ffffff" stroke="#000000" points="357,-.5 357,-19.5 410,-19.5 410,-.5 357,-.5"/>
<text text-anchor="middle" x="383.5" y="-7.5" font-family="Helvetica,sans-Serif" font-size="10.00" fill="#000000">alox.hpp</text>
</a>
</g>
</g>
<!-- Node4&#45;&gt;Node12 -->
<g id="edge15" class="edge">
<title>Node4&#45;&gt;Node12</title>
<path fill="none" stroke="#191970" d="M486.9199,-284.9746C460.0057,-279.4059 424.4285,-267.8283 402.5,-244 381.8298,-221.539 383.5,-208.5246 383.5,-178 383.5,-178 383.5,-178 383.5,-122 383.5,-84.0833 383.5,-38.9462 383.5,-19.5884"/>
<polygon fill="#191970" stroke="#191970" points="486.2894,-288.4174 496.7643,-286.8277 487.5843,-281.5382 486.2894,-288.4174"/>
</g>
<!-- Node13 -->
<g id="node17" class="node">
<title>Node13</title>
<g id="a_node17"><a xlink:href="memorylogger_8hpp.html" target="_top" xlink:title="memorylogger.hpp">
<polygon fill="#ffffff" stroke="#000000" points="151.5,-56.5 151.5,-75.5 247.5,-75.5 247.5,-56.5 151.5,-56.5"/>
<text text-anchor="middle" x="199.5" y="-63.5" font-family="Helvetica,sans-Serif" font-size="10.00" fill="#000000">memorylogger.hpp</text>
</a>
</g>
</g>
<!-- Node4&#45;&gt;Node13 -->
<g id="edge16" class="edge">
<title>Node4&#45;&gt;Node13</title>
<path fill="none" stroke="#191970" d="M486.4059,-287.9855C408.0605,-283.2718 228.4232,-269.9108 173.5,-244 107.5199,-212.873 82.5757,-198.9095 53.5,-132 35.0967,-89.6499 101.9489,-74.4715 151.229,-69.0335"/>
<polygon fill="#191970" stroke="#191970" points="486.577,-291.5015 496.765,-288.5937 486.9873,-284.5135 486.577,-291.5015"/>
</g>
<!-- Node14 -->
<g id="node18" class="node">
<title>Node14</title>
<g id="a_node18"><a xlink:href="textfilelogger_8hpp.html" target="_top" xlink:title="textfilelogger.hpp">
<polygon fill="#ffffff" stroke="#000000" points="265.5,-56.5 265.5,-75.5 355.5,-75.5 355.5,-56.5 265.5,-56.5"/>
<text text-anchor="middle" x="310.5" y="-63.5" font-family="Helvetica,sans-Serif" font-size="10.00" fill="#000000">textfilelogger.hpp</text>
</a>
</g>
</g>
<!-- Node4&#45;&gt;Node14 -->
<g id="edge17" class="edge">
<title>Node4&#45;&gt;Node14</title>
<path fill="none" stroke="#191970" d="M486.394,-287.1829C425.3931,-281.9004 307.3928,-268.7423 274.5,-244 245.7327,-222.361 227.3288,-198.4675 246.5,-168 266.1916,-136.7054 301.8084,-163.2946 321.5,-132 332.5121,-114.4992 322.8925,-89.4271 316.0082,-75.7735"/>
<polygon fill="#191970" stroke="#191970" points="486.477,-290.702 496.7345,-288.05 487.062,-283.7265 486.477,-290.702"/>
</g>
<!-- Node15 -->
<g id="node19" class="node">
<title>Node15</title>
<g id="a_node19"><a xlink:href="vstudiologger_8hpp.html" target="_top" xlink:title="vstudiologger.hpp">
<polygon fill="#ffffff" stroke="#000000" points="411.5,-56.5 411.5,-75.5 503.5,-75.5 503.5,-56.5 411.5,-56.5"/>
<text text-anchor="middle" x="457.5" y="-63.5" font-family="Helvetica,sans-Serif" font-size="10.00" fill="#000000">vstudiologger.hpp</text>
</a>
</g>
</g>
<!-- Node4&#45;&gt;Node15 -->
<g id="edge18" class="edge">
<title>Node4&#45;&gt;Node15</title>
<path fill="none" stroke="#191970" d="M547.0533,-274.1275C556.6969,-266.2773 566.8915,-255.9227 572.5,-244 597.5072,-190.839 612.9198,-160.3174 579.5,-112 569.6815,-97.8047 528.2676,-84.1981 496.3855,-75.5162"/>
<polygon fill="#191970" stroke="#191970" points="544.6965,-271.5225 538.8496,-280.3579 548.9302,-277.0971 544.6965,-271.5225"/>
</g>
<!-- Node16 -->
<g id="node20" class="node">
<title>Node16</title>
<g id="a_node20"><a xlink:href="ansilogger_8hpp.html" target="_top" xlink:title="ansilogger.hpp">
<polygon fill="#ffffff" stroke="#000000" points="492,-112.5 492,-131.5 571,-131.5 571,-112.5 492,-112.5"/>
<text text-anchor="middle" x="531.5" y="-119.5" font-family="Helvetica,sans-Serif" font-size="10.00" fill="#000000">ansilogger.hpp</text>
</a>
</g>
</g>
<!-- Node4&#45;&gt;Node16 -->
<g id="edge19" class="edge">
<title>Node4&#45;&gt;Node16</title>
<path fill="none" stroke="#191970" d="M539.7369,-272.8324C546.2942,-264.7408 553.1054,-254.5555 556.5,-244 569.6062,-203.2467 547.4836,-152.5526 536.7866,-131.6737"/>
<polygon fill="#191970" stroke="#191970" points="537.053,-270.5851 533.1492,-280.4346 542.3431,-275.1693 537.053,-270.5851"/>
</g>
<!-- Node17 -->
<g id="node21" class="node">
<title>Node17</title>
<g id="a_node21"><a xlink:href="windowsconsolelogger_8hpp.html" target="_top" xlink:title="windowsconsolelogger.hpp">
<polygon fill="#ffffff" stroke="#000000" points="63,-112.5 63,-131.5 196,-131.5 196,-112.5 63,-112.5"/>
<text text-anchor="middle" x="129.5" y="-119.5" font-family="Helvetica,sans-Serif" font-size="10.00" fill="#000000">windowsconsolelogger.hpp</text>
</a>
</g>
</g>
<!-- Node4&#45;&gt;Node17 -->
<g id="edge20" class="edge">
<title>Node4&#45;&gt;Node17</title>
<path fill="none" stroke="#191970" d="M486.3097,-288.8039C411.2217,-285.7455 244.7251,-275.5118 198.5,-244 157.4837,-216.0391 138.0214,-155.1697 131.8072,-131.5952"/>
<polygon fill="#191970" stroke="#191970" points="486.5723,-292.3166 496.6998,-289.2048 486.8422,-285.3218 486.5723,-292.3166"/>
</g>
<!-- Node18 -->
<g id="node22" class="node">
<title>Node18</title>
<g id="a_node22"><a xlink:href="scopedump_8hpp.html" target="_top" xlink:title="scopedump.hpp">
<polygon fill="#ffffff" stroke="#000000" points="918.5,-168.5 918.5,-187.5 1004.5,-187.5 1004.5,-168.5 918.5,-168.5"/>
<text text-anchor="middle" x="961.5" y="-175.5" font-family="Helvetica,sans-Serif" font-size="10.00" fill="#000000">scopedump.hpp</text>
</a>
</g>
</g>
<!-- Node4&#45;&gt;Node18 -->
<g id="edge21" class="edge">
<title>Node4&#45;&gt;Node18</title>
<path fill="none" stroke="#191970" d="M560.215,-287.3839C637.3555,-281.5214 813.7432,-266.0916 869.5,-244 903.126,-230.6769 935.942,-202.4101 951.7411,-187.5638"/>
<polygon fill="#191970" stroke="#191970" points="559.7226,-283.9109 550.0117,-288.1474 560.245,-290.8914 559.7226,-283.9109"/>
</g>
<!-- Node19 -->
<g id="node23" class="node">
<title>Node19</title>
<g id="a_node23"><a xlink:href="scopestore_8hpp.html" target="_top" xlink:title="scopestore.hpp">
<polygon fill="#ffffff" stroke="#000000" points="955,-224.5 955,-243.5 1038,-243.5 1038,-224.5 955,-224.5"/>
<text text-anchor="middle" x="996.5" y="-231.5" font-family="Helvetica,sans-Serif" font-size="10.00" fill="#000000">scopestore.hpp</text>
</a>
</g>
</g>
<!-- Node4&#45;&gt;Node19 -->
<g id="edge22" class="edge">
<title>Node4&#45;&gt;Node19</title>
<path fill="none" stroke="#191970" d="M560.4649,-286.7591C633.352,-280.1838 800.6764,-264.1733 940.5,-244 945.1919,-243.3231 950.0931,-242.5484 954.9601,-241.7365"/>
<polygon fill="#191970" stroke="#191970" points="560.0584,-283.2814 550.4108,-287.6601 560.6833,-290.2534 560.0584,-283.2814"/>
</g>
<!-- Node20 -->
<g id="node24" class="node">
<title>Node20</title>
<g id="a_node24"><a xlink:href="scopeinfo_8hpp.html" target="_top" xlink:title="scopeinfo.hpp">
<polygon fill="#ffffff" stroke="#000000" points="783,-224.5 783,-243.5 860,-243.5 860,-224.5 783,-224.5"/>
<text text-anchor="middle" x="821.5" y="-231.5" font-family="Helvetica,sans-Serif" font-size="10.00" fill="#000000">scopeinfo.hpp</text>
</a>
</g>
</g>
<!-- Node4&#45;&gt;Node20 -->
<g id="edge23" class="edge">
<title>Node4&#45;&gt;Node20</title>
<path fill="none" stroke="#191970" d="M560.2506,-283.5158C609.0394,-274.8441 697.8515,-258.8376 773.5,-244 776.5071,-243.4102 779.6177,-242.7885 782.7432,-242.1556"/>
<polygon fill="#191970" stroke="#191970" points="559.4132,-280.1097 550.1784,-285.3029 560.6361,-287.002 559.4132,-280.1097"/>
</g>
<!-- Node21 -->
<g id="node25" class="node">
<title>Node21</title>
<g id="a_node25"><a xlink:href="logtools_8hpp.html" target="_top" xlink:title="logtools.hpp">
<polygon fill="#ffffff" stroke="#000000" points="412,-224.5 412,-243.5 481,-243.5 481,-224.5 412,-224.5"/>
<text text-anchor="middle" x="446.5" y="-231.5" font-family="Helvetica,sans-Serif" font-size="10.00" fill="#000000">logtools.hpp</text>
</a>
</g>
</g>
<!-- Node4&#45;&gt;Node21 -->
<g id="edge24" class="edge">
<title>Node4&#45;&gt;Node21</title>
<path fill="none" stroke="#191970" d="M501.7884,-274.2097C488.2647,-264.3743 471.3042,-252.0394 459.7587,-243.6427"/>
<polygon fill="#191970" stroke="#191970" points="499.9416,-277.1944 510.0876,-280.2455 504.0589,-271.5332 499.9416,-277.1944"/>
</g>
<!-- Node23 -->
<g id="node26" class="node">
<title>Node23</title>
<g id="a_node26"><a xlink:href="threadlocknr_8hpp.html" target="_top" xlink:title="threadlocknr.hpp">
<polygon fill="#ffffff" stroke="#ff0000" points="459.5,-392.5 459.5,-411.5 547.5,-411.5 547.5,-392.5 459.5,-392.5"/>
<text text-anchor="middle" x="503.5" y="-399.5" font-family="Helvetica,sans-Serif" font-size="10.00" fill="#000000">threadlocknr.hpp</text>
</a>
</g>
</g>
<!-- Node22&#45;&gt;Node23 -->
<g id="edge44" class="edge">
<title>Node22&#45;&gt;Node23</title>
<path fill="none" stroke="#191970" d="M503.5,-438.1575C503.5,-429.155 503.5,-418.9199 503.5,-411.6427"/>
<polygon fill="#191970" stroke="#191970" points="500.0001,-438.2455 503.5,-448.2455 507.0001,-438.2456 500.0001,-438.2455"/>
</g>
<!-- Node5&#45;&gt;Node4 -->
<g id="edge25" class="edge">
<title>Node5&#45;&gt;Node4</title>
<path fill="none" stroke="#191970" d="M529.9795,-253.7046C530.5821,-262.6944 530.1779,-272.9382 528.7668,-280.2455"/>
<polygon fill="#191970" stroke="#191970" points="533.4368,-253.1421 528.7451,-243.6427 526.4889,-253.9945 533.4368,-253.1421"/>
</g>
<!-- Node6&#45;&gt;Node4 -->
<g id="edge26" class="edge">
<title>Node6&#45;&gt;Node4</title>
<path fill="none" stroke="#191970" d="M751.7868,-192.0277C723.6836,-205.3919 676.9995,-226.0737 636.5,-244 607.2535,-256.9454 573.3751,-271.9275 550.1582,-281.1847"/>
<polygon fill="#191970" stroke="#191970" points="753.4281,-195.122 760.9118,-187.6223 750.3846,-188.8182 753.4281,-195.122"/>
</g>
<!-- Node7&#45;&gt;Node6 -->
<g id="edge27" class="edge">
<title>Node7&#45;&gt;Node6</title>
<path fill="none" stroke="#191970" d="M745.7946,-216.2112C753.3996,-206.7472 762.4538,-195.4797 768.7514,-187.6427"/>
<polygon fill="#191970" stroke="#191970" points="742.8741,-214.2581 739.3384,-224.2455 748.3306,-218.6428 742.8741,-214.2581"/>
</g>
<!-- Node8&#45;&gt;Node6 -->
<g id="edge28" class="edge">
<title>Node8&#45;&gt;Node6</title>
<path fill="none" stroke="#191970" d="M365.4033,-228.7159C377.3593,-227.1822 390.4514,-225.5133 402.5,-224 534.5916,-207.4094 693.0091,-188.1278 752.4296,-180.9171"/>
<polygon fill="#191970" stroke="#191970" points="364.716,-225.2753 355.2438,-230.0215 365.6084,-232.2182 364.716,-225.2753"/>
</g>
<!-- Node8&#45;&gt;Node9 -->
<g id="edge29" class="edge">
<title>Node8&#45;&gt;Node9</title>
<path fill="none" stroke="#191970" d="M314.502,-215.3372C309.5324,-206.0605 303.7356,-195.2398 299.6657,-187.6427"/>
<polygon fill="#191970" stroke="#191970" points="311.4669,-217.0835 319.2744,-224.2455 317.6373,-213.7779 311.4669,-217.0835"/>
</g>
<!-- Node9&#45;&gt;Node10 -->
<g id="edge30" class="edge">
<title>Node9&#45;&gt;Node10</title>
<path fill="none" stroke="#191970" d="M284.1688,-159.3372C279.0335,-150.0605 273.0434,-139.2398 268.8379,-131.6427"/>
<polygon fill="#191970" stroke="#191970" points="281.1949,-161.1917 289.1002,-168.2455 287.3191,-157.8015 281.1949,-161.1917"/>
</g>
<!-- Node9&#45;&gt;Node16 -->
<g id="edge31" class="edge">
<title>Node9&#45;&gt;Node16</title>
<path fill="none" stroke="#191970" d="M342.9793,-166.545C386.8753,-156.1729 450.7595,-141.0779 491.724,-131.3985"/>
<polygon fill="#191970" stroke="#191970" points="342.0328,-163.1722 333.1056,-168.878 343.6425,-169.9846 342.0328,-163.1722"/>
</g>
<!-- Node9&#45;&gt;Node17 -->
<g id="edge32" class="edge">
<title>Node9&#45;&gt;Node17</title>
<path fill="none" stroke="#191970" d="M256.3644,-165.057C226.1675,-154.8084 184.6837,-140.729 157.4944,-131.5011"/>
<polygon fill="#191970" stroke="#191970" points="255.5411,-168.4736 266.1355,-168.3733 257.7909,-161.845 255.5411,-168.4736"/>
</g>
<!-- Node10&#45;&gt;Node11 -->
<g id="edge33" class="edge">
<title>Node10&#45;&gt;Node11</title>
<path fill="none" stroke="#191970" d="M216.64,-109.8511C176.8927,-99.5462 120.669,-84.9697 84.1472,-75.5011"/>
<polygon fill="#191970" stroke="#191970" points="215.8099,-113.2516 226.3683,-112.3733 217.5667,-106.4756 215.8099,-113.2516"/>
</g>
<!-- Node10&#45;&gt;Node13 -->
<g id="edge34" class="edge">
<title>Node10&#45;&gt;Node13</title>
<path fill="none" stroke="#191970" d="M244.8086,-105.645C233.6781,-95.9058 219.9337,-83.8795 210.5202,-75.6427"/>
<polygon fill="#191970" stroke="#191970" points="242.5215,-108.2945 252.3521,-112.2455 247.131,-103.0264 242.5215,-108.2945"/>
</g>
<!-- Node10&#45;&gt;Node14 -->
<g id="edge35" class="edge">
<title>Node10&#45;&gt;Node14</title>
<path fill="none" stroke="#191970" d="M278.1872,-104.5004C286.1796,-94.9775 295.7625,-83.5596 302.407,-75.6427"/>
<polygon fill="#191970" stroke="#191970" points="275.4346,-102.3357 271.6868,-112.2455 280.7964,-106.8358 275.4346,-102.3357"/>
</g>
<!-- Node10&#45;&gt;Node15 -->
<g id="edge36" class="edge">
<title>Node10&#45;&gt;Node15</title>
<path fill="none" stroke="#191970" d="M306.498,-109.5882C342.1408,-99.2996 392.0614,-84.8895 424.5854,-75.5011"/>
<polygon fill="#191970" stroke="#191970" points="305.4868,-106.2371 296.8498,-112.3733 307.4282,-112.9625 305.4868,-106.2371"/>
</g>
<!-- Node11&#45;&gt;Node12 -->
<g id="edge37" class="edge">
<title>Node11&#45;&gt;Node12</title>
<path fill="none" stroke="#191970" d="M105.3122,-56.3646C178.8413,-44.1098 302.752,-23.458 356.8692,-14.4385"/>
<polygon fill="#191970" stroke="#191970" points="104.5723,-52.9396 95.2838,-58.036 105.7231,-59.8443 104.5723,-52.9396"/>
</g>
<!-- Node15&#45;&gt;Node12 -->
<g id="edge38" class="edge">
<title>Node15&#45;&gt;Node12</title>
<path fill="none" stroke="#191970" d="M436.6343,-50.2097C423.6375,-40.3743 407.3378,-28.0394 396.2421,-19.6427"/>
<polygon fill="#191970" stroke="#191970" points="434.524,-53.002 444.6102,-56.2455 438.7482,-47.4201 434.524,-53.002"/>
</g>
<!-- Node16&#45;&gt;Node12 -->
<g id="edge39" class="edge">
<title>Node16&#45;&gt;Node12</title>
<path fill="none" stroke="#191970" d="M530.503,-102.1702C528.7639,-87.6808 524.2116,-68.4641 512.5,-56 485.4723,-27.2357 439.2554,-16.4334 410.0996,-12.3932"/>
<polygon fill="#191970" stroke="#191970" points="527.0161,-102.4738 531.3565,-112.1387 533.9906,-101.8765 527.0161,-102.4738"/>
</g>
<!-- Node17&#45;&gt;Node12 -->
<g id="edge40" class="edge">
<title>Node17&#45;&gt;Node12</title>
<path fill="none" stroke="#191970" d="M127.9394,-102.2787C127.9141,-87.5355 130.4883,-67.9413 142.5,-56 172.406,-26.2693 300.2187,-15.0108 356.5987,-11.4354"/>
<polygon fill="#191970" stroke="#191970" points="124.4475,-102.5513 128.3522,-112.4003 131.4417,-102.2659 124.4475,-102.5513"/>
</g>
<!-- Node19&#45;&gt;Node6 -->
<g id="edge41" class="edge">
<title>Node19&#45;&gt;Node6</title>
<path fill="none" stroke="#191970" d="M948.7067,-221.8344C903.0349,-210.2089 836.0488,-193.1579 800.5867,-184.1312"/>
<polygon fill="#191970" stroke="#191970" points="948.1263,-225.2982 958.6807,-224.3733 949.8531,-218.5145 948.1263,-225.2982"/>
</g>
<!-- Node19&#45;&gt;Node18 -->
<g id="edge42" class="edge">
<title>Node19&#45;&gt;Node18</title>
<path fill="none" stroke="#191970" d="M985.0185,-215.6296C979.1804,-206.2887 972.3248,-195.3197 967.5267,-187.6427"/>
<polygon fill="#191970" stroke="#191970" points="982.1354,-217.6206 990.4035,-224.2455 988.0714,-213.9105 982.1354,-217.6206"/>
</g>
<!-- Node20&#45;&gt;Node6 -->
<g id="edge43" class="edge">
<title>Node20&#45;&gt;Node6</title>
<path fill="none" stroke="#191970" d="M807.2054,-216.2112C799.6004,-206.7472 790.5462,-195.4797 784.2486,-187.6427"/>
<polygon fill="#191970" stroke="#191970" points="804.6694,-218.6428 813.6616,-224.2455 810.1259,-214.2581 804.6694,-218.6428"/>
</g>
<!-- Node49&#45;&gt;Node25 -->
<g id="edge56" class="edge">
<title>Node49&#45;&gt;Node25</title>
<path fill="none" stroke="#191970" d="M930.0326,-437.9734C930.1804,-424.1813 928.5123,-405.9081 920.5,-392 911.0981,-375.6797 893.358,-363.3115 879.4228,-355.5325"/>
<polygon fill="#191970" stroke="#191970" points="926.5209,-438.1671 929.5808,-448.3105 933.5142,-438.4729 926.5209,-438.1671"/>
</g>
<!-- Node50 -->
<g id="node33" class="node">
<title>Node50</title>
<g id="a_node33"><a xlink:href="inmemoryplugin_8hpp.html" target="_top" xlink:title="inmemoryplugin.hpp">
<polygon fill="#ffffff" stroke="#ff0000" points="807.5,-392.5 807.5,-411.5 911.5,-411.5 911.5,-392.5 807.5,-392.5"/>
<text text-anchor="middle" x="859.5" y="-399.5" font-family="Helvetica,sans-Serif" font-size="10.00" fill="#000000">inmemoryplugin.hpp</text>
</a>
</g>
</g>
<!-- Node49&#45;&gt;Node50 -->
<g id="edge57" class="edge">
<title>Node49&#45;&gt;Node50</title>
<path fill="none" stroke="#191970" d="M908.697,-441.928C896.6364,-432.1397 881.6286,-419.9595 871.3812,-411.6427"/>
<polygon fill="#191970" stroke="#191970" points="906.5109,-444.6614 916.4811,-448.2455 910.9221,-439.2262 906.5109,-444.6614"/>
</g>
<!-- Node54&#45;&gt;Node6 -->
<g id="edge59" class="edge">
<title>Node54&#45;&gt;Node6</title>
<path fill="none" stroke="#191970" d="M1085.2187,-438.7776C1077.5271,-416.7143 1066.5,-379.2796 1066.5,-346 1066.5,-346 1066.5,-346 1066.5,-290 1066.5,-259.4754 1070.2601,-244.3404 1047.5,-224 1029.1305,-207.5833 864.0648,-187.7206 800.9177,-180.6531"/>
<polygon fill="#191970" stroke="#191970" points="1081.9671,-440.0781 1088.6636,-448.2883 1088.5487,-437.6941 1081.9671,-440.0781"/>
</g>
<!-- Node54&#45;&gt;Node53 -->
<g id="edge60" class="edge">
<title>Node54&#45;&gt;Node53</title>
<path fill="none" stroke="#191970" d="M1111.4835,-441.645C1122.7879,-431.9058 1136.747,-419.8795 1146.3076,-411.6427"/>
<polygon fill="#191970" stroke="#191970" points="1109.1138,-439.0668 1103.8221,-448.2455 1113.6827,-444.3701 1109.1138,-439.0668"/>
</g>
<!-- Node56 -->
<g id="node34" class="node">
<title>Node56</title>
<g id="a_node34"><a xlink:href="timepointbase_8hpp.html" target="_top" xlink:title="timepointbase.hpp">
<polygon fill="#ffffff" stroke="#ff0000" points="693.5,-392.5 693.5,-411.5 789.5,-411.5 789.5,-392.5 693.5,-392.5"/>
<text text-anchor="middle" x="741.5" y="-399.5" font-family="Helvetica,sans-Serif" font-size="10.00" fill="#000000">timepointbase.hpp</text>
</a>
</g>
</g>
<!-- Node55&#45;&gt;Node56 -->
<g id="edge61" class="edge">
<title>Node55&#45;&gt;Node56</title>
<path fill="none" stroke="#191970" d="M749.3115,-438.4538C747.3672,-429.3803 745.1428,-418.9998 743.5663,-411.6427"/>
<polygon fill="#191970" stroke="#191970" points="745.8921,-439.2009 751.4098,-448.2455 752.7367,-437.7341 745.8921,-439.2009"/>
</g>
<!-- Node63&#45;&gt;Node19 -->
<g id="edge62" class="edge">
<title>Node63&#45;&gt;Node19</title>
<path fill="none" stroke="#191970" d="M998.1477,-326.2702C997.7143,-301.9985 996.9959,-261.7725 996.6701,-243.5249"/>
<polygon fill="#191970" stroke="#191970" points="994.6514,-326.5151 998.3295,-336.4509 1001.6503,-326.39 994.6514,-326.5151"/>
</g>
<!-- Node50&#45;&gt;Node25 -->
<g id="edge58" class="edge">
<title>Node50&#45;&gt;Node25</title>
<path fill="none" stroke="#191970" d="M859.5,-382.1575C859.5,-373.155 859.5,-362.9199 859.5,-355.6427"/>
<polygon fill="#191970" stroke="#191970" points="856.0001,-382.2455 859.5,-392.2455 863.0001,-382.2456 856.0001,-382.2455"/>
</g>
</g>
</svg>
