<?xml version="1.0" encoding="UTF-8" standalone="no"?>
<!DOCTYPE svg PUBLIC "-//W3C//DTD SVG 1.1//EN"
 "http://www.w3.org/Graphics/SVG/1.1/DTD/svg11.dtd">
<!-- Generated by graphviz version 2.40.1 (20161225.0304)
 -->
<!-- Title: enummetadataspec.hpp Pages: 1 -->
<svg width="557pt" height="196pt"
 viewBox="0.00 0.00 557.00 196.00" xmlns="http://www.w3.org/2000/svg" xmlns:xlink="http://www.w3.org/1999/xlink">
<g id="graph0" class="graph" transform="scale(1 1) rotate(0) translate(4 192)">
<title>enummetadataspec.hpp</title>
<polygon fill="#ffffff" stroke="transparent" points="-4,4 -4,-192 553,-192 553,4 -4,4"/>
<!-- Node1 -->
<g id="node1" class="node">
<title>Node1</title>
<polygon fill="#bfbfbf" stroke="#000000" points="176,-168.5 176,-187.5 297,-187.5 297,-168.5 176,-168.5"/>
<text text-anchor="middle" x="236.5" y="-175.5" font-family="Helvetica,sans-Serif" font-size="10.00" fill="#000000">enummetadataspec.hpp</text>
</g>
<!-- Node2 -->
<g id="node2" class="node">
<title>Node2</title>
<g id="a_node2"><a xlink:href="exception_8hpp.html" target="_top" xlink:title="exception.hpp">
<polygon fill="#ffffff" stroke="#000000" points="198,-112.5 198,-131.5 275,-131.5 275,-112.5 198,-112.5"/>
<text text-anchor="middle" x="236.5" y="-119.5" font-family="Helvetica,sans-Serif" font-size="10.00" fill="#000000">exception.hpp</text>
</a>
</g>
</g>
<!-- Node1&#45;&gt;Node2 -->
<g id="edge1" class="edge">
<title>Node1&#45;&gt;Node2</title>
<path fill="none" stroke="#191970" d="M236.5,-158.1575C236.5,-149.155 236.5,-138.9199 236.5,-131.6427"/>
<polygon fill="#191970" stroke="#191970" points="233.0001,-158.2455 236.5,-168.2455 240.0001,-158.2456 233.0001,-158.2455"/>
</g>
<!-- Node3 -->
<g id="node3" class="node">
<title>Node3</title>
<g id="a_node3"><a xlink:href="configlib_8hpp.html" target="_top" xlink:title="configlib.hpp">
<polygon fill="#ffffff" stroke="#000000" points="0,-56.5 0,-75.5 71,-75.5 71,-56.5 0,-56.5"/>
<text text-anchor="middle" x="35.5" y="-63.5" font-family="Helvetica,sans-Serif" font-size="10.00" fill="#000000">configlib.hpp</text>
</a>
</g>
</g>
<!-- Node2&#45;&gt;Node3 -->
<g id="edge2" class="edge">
<title>Node2&#45;&gt;Node3</title>
<path fill="none" stroke="#191970" d="M191.9506,-109.5882C155.0216,-99.2996 103.2998,-84.8895 69.6022,-75.5011"/>
<polygon fill="#191970" stroke="#191970" points="191.3744,-113.0609 201.9469,-112.3733 193.2531,-106.3177 191.3744,-113.0609"/>
</g>
<!-- Node36 -->
<g id="node4" class="node">
<title>Node36</title>
<g id="a_node4"><a xlink:href="formatter_8hpp.html" target="_top" xlink:title="formatter.hpp">
<polygon fill="#ffffff" stroke="#ff0000" points="89.5,-56.5 89.5,-75.5 163.5,-75.5 163.5,-56.5 89.5,-56.5"/>
<text text-anchor="middle" x="126.5" y="-63.5" font-family="Helvetica,sans-Serif" font-size="10.00" fill="#000000">formatter.hpp</text>
</a>
</g>
</g>
<!-- Node2&#45;&gt;Node36 -->
<g id="edge3" class="edge">
<title>Node2&#45;&gt;Node36</title>
<path fill="none" stroke="#191970" d="M208.2086,-107.5971C188.4889,-97.558 162.72,-84.4393 145.441,-75.6427"/>
<polygon fill="#191970" stroke="#191970" points="206.8399,-110.8277 217.3395,-112.2455 210.0157,-104.5896 206.8399,-110.8277"/>
</g>
<!-- Node44 -->
<g id="node5" class="node">
<title>Node44</title>
<g id="a_node5"><a xlink:href="propertyformatter_8hpp_source.html" target="_top" xlink:title="propertyformatter.hpp">
<polygon fill="#ffffff" stroke="#ff0000" points="182,-56.5 182,-75.5 291,-75.5 291,-56.5 182,-56.5"/>
<text text-anchor="middle" x="236.5" y="-63.5" font-family="Helvetica,sans-Serif" font-size="10.00" fill="#000000">propertyformatter.hpp</text>
</a>
</g>
</g>
<!-- Node2&#45;&gt;Node44 -->
<g id="edge4" class="edge">
<title>Node2&#45;&gt;Node44</title>
<path fill="none" stroke="#191970" d="M236.5,-102.1575C236.5,-93.155 236.5,-82.9199 236.5,-75.6427"/>
<polygon fill="#191970" stroke="#191970" points="233.0001,-102.2455 236.5,-112.2455 240.0001,-102.2456 233.0001,-102.2455"/>
</g>
<!-- Node53 -->
<g id="node6" class="node">
<title>Node53</title>
<g id="a_node6"><a xlink:href="expressionslib_8hpp.html" target="_top" xlink:title="expressionslib.hpp">
<polygon fill="#ffffff" stroke="#000000" points="404.5,-56.5 404.5,-75.5 502.5,-75.5 502.5,-56.5 404.5,-56.5"/>
<text text-anchor="middle" x="453.5" y="-63.5" font-family="Helvetica,sans-Serif" font-size="10.00" fill="#000000">expressionslib.hpp</text>
</a>
</g>
</g>
<!-- Node2&#45;&gt;Node53 -->
<g id="edge5" class="edge">
<title>Node2&#45;&gt;Node53</title>
<path fill="none" stroke="#191970" d="M283.5769,-109.8511C323.5083,-99.5462 379.9923,-84.9697 416.6831,-75.5011"/>
<polygon fill="#191970" stroke="#191970" points="282.6118,-106.4854 273.8036,-112.3733 284.361,-113.2634 282.6118,-106.4854"/>
</g>
<!-- Node55 -->
<g id="node7" class="node">
<title>Node55</title>
<g id="a_node7"><a xlink:href="systemlib_8hpp.html" target="_top" xlink:title="systemlib.hpp">
<polygon fill="#ffffff" stroke="#000000" points="309,-56.5 309,-75.5 386,-75.5 386,-56.5 309,-56.5"/>
<text text-anchor="middle" x="347.5" y="-63.5" font-family="Helvetica,sans-Serif" font-size="10.00" fill="#000000">systemlib.hpp</text>
</a>
</g>
</g>
<!-- Node2&#45;&gt;Node55 -->
<g id="edge6" class="edge">
<title>Node2&#45;&gt;Node55</title>
<path fill="none" stroke="#191970" d="M264.5734,-107.8368C284.6385,-97.7139 311.0922,-84.3679 328.6674,-75.5011"/>
<polygon fill="#191970" stroke="#191970" points="262.9332,-104.7441 255.5816,-112.3733 266.0862,-110.9938 262.9332,-104.7441"/>
</g>
<!-- Node4 -->
<g id="node8" class="node">
<title>Node4</title>
<g id="a_node8"><a xlink:href="alib_8hpp.html" target="_top" xlink:title="alib.hpp">
<polygon fill="#ffffff" stroke="#ff0000" points="212.5,-.5 212.5,-19.5 262.5,-19.5 262.5,-.5 212.5,-.5"/>
<text text-anchor="middle" x="237.5" y="-7.5" font-family="Helvetica,sans-Serif" font-size="10.00" fill="#000000">alib.hpp</text>
</a>
</g>
</g>
<!-- Node3&#45;&gt;Node4 -->
<g id="edge7" class="edge">
<title>Node3&#45;&gt;Node4</title>
<path fill="none" stroke="#191970" d="M79.8974,-53.6918C120.5926,-42.41 179.3939,-26.1086 212.464,-16.9407"/>
<polygon fill="#191970" stroke="#191970" points="78.9265,-50.3289 70.225,-56.3733 80.7966,-57.0745 78.9265,-50.3289"/>
</g>
<!-- Node48 -->
<g id="node9" class="node">
<title>Node48</title>
<g id="a_node9"><a xlink:href="variable_8hpp.html" target="_top" xlink:title="variable.hpp">
<polygon fill="#ffffff" stroke="#ff0000" points="1,-.5 1,-19.5 70,-19.5 70,-.5 1,-.5"/>
<text text-anchor="middle" x="35.5" y="-7.5" font-family="Helvetica,sans-Serif" font-size="10.00" fill="#000000">variable.hpp</text>
</a>
</g>
</g>
<!-- Node3&#45;&gt;Node48 -->
<g id="edge8" class="edge">
<title>Node3&#45;&gt;Node48</title>
<path fill="none" stroke="#191970" d="M35.5,-46.1575C35.5,-37.155 35.5,-26.9199 35.5,-19.6427"/>
<polygon fill="#191970" stroke="#191970" points="32.0001,-46.2455 35.5,-56.2455 39.0001,-46.2456 32.0001,-46.2455"/>
</g>
<!-- Node28 -->
<g id="node10" class="node">
<title>Node28</title>
<g id="a_node10"><a xlink:href="compilerplugin_8hpp_source.html" target="_top" xlink:title="compilerplugin.hpp">
<polygon fill="#ffffff" stroke="#ff0000" points="349.5,-.5 349.5,-19.5 447.5,-19.5 447.5,-.5 349.5,-.5"/>
<text text-anchor="middle" x="398.5" y="-7.5" font-family="Helvetica,sans-Serif" font-size="10.00" fill="#000000">compilerplugin.hpp</text>
</a>
</g>
</g>
<!-- Node53&#45;&gt;Node28 -->
<g id="edge9" class="edge">
<title>Node53&#45;&gt;Node28</title>
<path fill="none" stroke="#191970" d="M436.8774,-49.0751C427.4145,-39.4402 415.9031,-27.7196 407.9705,-19.6427"/>
<polygon fill="#191970" stroke="#191970" points="434.4155,-51.5635 443.9197,-56.2455 439.4097,-46.6585 434.4155,-51.5635"/>
</g>
<!-- Node54 -->
<g id="node11" class="node">
<title>Node54</title>
<g id="a_node11"><a xlink:href="expression_8hpp_source.html" target="_top" xlink:title="expression.hpp">
<polygon fill="#ffffff" stroke="#ff0000" points="466,-.5 466,-19.5 549,-19.5 549,-.5 466,-.5"/>
<text text-anchor="middle" x="507.5" y="-7.5" font-family="Helvetica,sans-Serif" font-size="10.00" fill="#000000">expression.hpp</text>
</a>
</g>
</g>
<!-- Node53&#45;&gt;Node54 -->
<g id="edge10" class="edge">
<title>Node53&#45;&gt;Node54</title>
<path fill="none" stroke="#191970" d="M470.0969,-48.7884C479.3347,-39.2085 490.4904,-27.6396 498.2017,-19.6427"/>
<polygon fill="#191970" stroke="#191970" points="467.328,-46.6176 462.9061,-56.2455 472.3669,-51.4766 467.328,-46.6176"/>
</g>
<!-- Node55&#45;&gt;Node4 -->
<g id="edge11" class="edge">
<title>Node55&#45;&gt;Node4</title>
<path fill="none" stroke="#191970" d="M319.2086,-51.5971C299.4889,-41.558 273.72,-28.4393 256.441,-19.6427"/>
<polygon fill="#191970" stroke="#191970" points="317.8399,-54.8277 328.3395,-56.2455 321.0157,-48.5896 317.8399,-54.8277"/>
</g>
</g>
</svg>
