<?xml version="1.0" encoding="UTF-8" standalone="no"?>
<!DOCTYPE svg PUBLIC "-//W3C//DTD SVG 1.1//EN"
 "http://www.w3.org/Graphics/SVG/1.1/DTD/svg11.dtd">
<!-- Generated by graphviz version 2.40.1 (20161225.0304)
 -->
<!-- Title: exception.hpp Pages: 1 -->
<svg width="483pt" height="364pt"
 viewBox="0.00 0.00 483.00 364.00" xmlns="http://www.w3.org/2000/svg" xmlns:xlink="http://www.w3.org/1999/xlink">
<g id="graph0" class="graph" transform="scale(1 1) rotate(0) translate(4 360)">
<title>exception.hpp</title>
<polygon fill="#ffffff" stroke="transparent" points="-4,4 -4,-360 479,-360 479,4 -4,4"/>
<!-- Node4 -->
<g id="node1" class="node">
<title>Node4</title>
<polygon fill="#bfbfbf" stroke="#000000" points="207,-336.5 207,-355.5 284,-355.5 284,-336.5 207,-336.5"/>
<text text-anchor="middle" x="245.5" y="-343.5" font-family="Helvetica,sans-Serif" font-size="10.00" fill="#000000">exception.hpp</text>
</g>
<!-- Node5 -->
<g id="node2" class="node">
<title>Node5</title>
<g id="a_node2"><a xlink:href="configlib_8hpp.html" target="_top" xlink:title="configlib.hpp">
<polygon fill="#ffffff" stroke="#000000" points="146,-280.5 146,-299.5 217,-299.5 217,-280.5 146,-280.5"/>
<text text-anchor="middle" x="181.5" y="-287.5" font-family="Helvetica,sans-Serif" font-size="10.00" fill="#000000">configlib.hpp</text>
</a>
</g>
</g>
<!-- Node4&#45;&gt;Node5 -->
<g id="edge1" class="edge">
<title>Node4&#45;&gt;Node5</title>
<path fill="none" stroke="#191970" d="M226.8086,-329.645C215.6781,-319.9058 201.9337,-307.8795 192.5202,-299.6427"/>
<polygon fill="#191970" stroke="#191970" points="224.5215,-332.2945 234.3521,-336.2455 229.131,-327.0264 224.5215,-332.2945"/>
</g>
<!-- Node38 -->
<g id="node3" class="node">
<title>Node38</title>
<g id="a_node3"><a xlink:href="formatter_8hpp.html" target="_top" xlink:title="formatter.hpp">
<polygon fill="#ffffff" stroke="#ff0000" points="273.5,-280.5 273.5,-299.5 347.5,-299.5 347.5,-280.5 273.5,-280.5"/>
<text text-anchor="middle" x="310.5" y="-287.5" font-family="Helvetica,sans-Serif" font-size="10.00" fill="#000000">formatter.hpp</text>
</a>
</g>
</g>
<!-- Node4&#45;&gt;Node38 -->
<g id="edge2" class="edge">
<title>Node4&#45;&gt;Node38</title>
<path fill="none" stroke="#191970" d="M264.4835,-329.645C275.7879,-319.9058 289.747,-307.8795 299.3076,-299.6427"/>
<polygon fill="#191970" stroke="#191970" points="262.1138,-327.0668 256.8221,-336.2455 266.6827,-332.3701 262.1138,-327.0668"/>
</g>
<!-- Node46 -->
<g id="node4" class="node">
<title>Node46</title>
<g id="a_node4"><a xlink:href="propertyformatter_8hpp_source.html" target="_top" xlink:title="propertyformatter.hpp">
<polygon fill="#ffffff" stroke="#ff0000" points="366,-280.5 366,-299.5 475,-299.5 475,-280.5 366,-280.5"/>
<text text-anchor="middle" x="420.5" y="-287.5" font-family="Helvetica,sans-Serif" font-size="10.00" fill="#000000">propertyformatter.hpp</text>
</a>
</g>
</g>
<!-- Node4&#45;&gt;Node46 -->
<g id="edge3" class="edge">
<title>Node4&#45;&gt;Node46</title>
<path fill="none" stroke="#191970" d="M285.114,-333.3235C317.2075,-323.0536 361.7211,-308.8093 390.809,-299.5011"/>
<polygon fill="#191970" stroke="#191970" points="284.0411,-329.9919 275.5836,-336.3733 286.1746,-336.6589 284.0411,-329.9919"/>
</g>
<!-- Node55 -->
<g id="node5" class="node">
<title>Node55</title>
<g id="a_node5"><a xlink:href="expressionslib_8hpp.html" target="_top" xlink:title="expressionslib.hpp">
<polygon fill="#ffffff" stroke="#000000" points="239.5,-168.5 239.5,-187.5 337.5,-187.5 337.5,-168.5 239.5,-168.5"/>
<text text-anchor="middle" x="288.5" y="-175.5" font-family="Helvetica,sans-Serif" font-size="10.00" fill="#000000">expressionslib.hpp</text>
</a>
</g>
</g>
<!-- Node4&#45;&gt;Node55 -->
<g id="edge4" class="edge">
<title>Node4&#45;&gt;Node55</title>
<path fill="none" stroke="#191970" d="M250.4331,-326.7267C259.6233,-290.8207 279.0599,-214.8822 285.9845,-187.8279"/>
<polygon fill="#191970" stroke="#191970" points="247.024,-325.9306 247.9351,-336.4862 253.8054,-327.6664 247.024,-325.9306"/>
</g>
<!-- Node57 -->
<g id="node6" class="node">
<title>Node57</title>
<g id="a_node6"><a xlink:href="systemlib_8hpp.html" target="_top" xlink:title="systemlib.hpp">
<polygon fill="#ffffff" stroke="#000000" points="51,-280.5 51,-299.5 128,-299.5 128,-280.5 51,-280.5"/>
<text text-anchor="middle" x="89.5" y="-287.5" font-family="Helvetica,sans-Serif" font-size="10.00" fill="#000000">systemlib.hpp</text>
</a>
</g>
</g>
<!-- Node4&#45;&gt;Node57 -->
<g id="edge5" class="edge">
<title>Node4&#45;&gt;Node57</title>
<path fill="none" stroke="#191970" d="M209.0716,-332.9231C180.5539,-322.686 141.5619,-308.6889 115.9674,-299.5011"/>
<polygon fill="#191970" stroke="#191970" points="208.0881,-336.2887 218.6826,-336.3733 210.4532,-329.7004 208.0881,-336.2887"/>
</g>
<!-- Node6 -->
<g id="node7" class="node">
<title>Node6</title>
<g id="a_node7"><a xlink:href="alib_8hpp.html" target="_top" xlink:title="alib.hpp">
<polygon fill="#ffffff" stroke="#000000" points="64.5,-224.5 64.5,-243.5 114.5,-243.5 114.5,-224.5 64.5,-224.5"/>
<text text-anchor="middle" x="89.5" y="-231.5" font-family="Helvetica,sans-Serif" font-size="10.00" fill="#000000">alib.hpp</text>
</a>
</g>
</g>
<!-- Node5&#45;&gt;Node6 -->
<g id="edge6" class="edge">
<title>Node5&#45;&gt;Node6</title>
<path fill="none" stroke="#191970" d="M156.4776,-274.769C140.175,-264.8456 119.399,-252.1994 105.3415,-243.6427"/>
<polygon fill="#191970" stroke="#191970" points="155.113,-278.0357 165.4748,-280.2455 158.7527,-272.0563 155.113,-278.0357"/>
</g>
<!-- Node50 -->
<g id="node8" class="node">
<title>Node50</title>
<g id="a_node8"><a xlink:href="variable_8hpp.html" target="_top" xlink:title="variable.hpp">
<polygon fill="#ffffff" stroke="#000000" points="147,-224.5 147,-243.5 216,-243.5 216,-224.5 147,-224.5"/>
<text text-anchor="middle" x="181.5" y="-231.5" font-family="Helvetica,sans-Serif" font-size="10.00" fill="#000000">variable.hpp</text>
</a>
</g>
</g>
<!-- Node5&#45;&gt;Node50 -->
<g id="edge7" class="edge">
<title>Node5&#45;&gt;Node50</title>
<path fill="none" stroke="#191970" d="M181.5,-270.1575C181.5,-261.155 181.5,-250.9199 181.5,-243.6427"/>
<polygon fill="#191970" stroke="#191970" points="178.0001,-270.2455 181.5,-280.2455 185.0001,-270.2456 178.0001,-270.2455"/>
</g>
<!-- Node30 -->
<g id="node13" class="node">
<title>Node30</title>
<g id="a_node13"><a xlink:href="compilerplugin_8hpp_source.html" target="_top" xlink:title="compilerplugin.hpp">
<polygon fill="#ffffff" stroke="#ff0000" points="254.5,-.5 254.5,-19.5 352.5,-19.5 352.5,-.5 254.5,-.5"/>
<text text-anchor="middle" x="303.5" y="-7.5" font-family="Helvetica,sans-Serif" font-size="10.00" fill="#000000">compilerplugin.hpp</text>
</a>
</g>
</g>
<!-- Node55&#45;&gt;Node30 -->
<g id="edge16" class="edge">
<title>Node55&#45;&gt;Node30</title>
<path fill="none" stroke="#191970" d="M303.9612,-160.4201C310.0634,-152.3418 316.3591,-142.2808 319.5,-132 331.8581,-91.549 315.5285,-40.6896 307.4948,-19.7203"/>
<polygon fill="#191970" stroke="#191970" points="301.137,-158.3465 297.5741,-168.3243 306.5816,-162.7461 301.137,-158.3465"/>
</g>
<!-- Node56 -->
<g id="node15" class="node">
<title>Node56</title>
<g id="a_node15"><a xlink:href="expression_8hpp_source.html" target="_top" xlink:title="expression.hpp">
<polygon fill="#ffffff" stroke="#000000" points="227,-112.5 227,-131.5 310,-131.5 310,-112.5 227,-112.5"/>
<text text-anchor="middle" x="268.5" y="-119.5" font-family="Helvetica,sans-Serif" font-size="10.00" fill="#000000">expression.hpp</text>
</a>
</g>
</g>
<!-- Node55&#45;&gt;Node56 -->
<g id="edge17" class="edge">
<title>Node55&#45;&gt;Node56</title>
<path fill="none" stroke="#191970" d="M281.6247,-158.7493C278.3594,-149.6064 274.5999,-139.0798 271.9438,-131.6427"/>
<polygon fill="#191970" stroke="#191970" points="278.3567,-160.0053 285.0163,-168.2455 284.9489,-157.6509 278.3567,-160.0053"/>
</g>
<!-- Node57&#45;&gt;Node6 -->
<g id="edge19" class="edge">
<title>Node57&#45;&gt;Node6</title>
<path fill="none" stroke="#191970" d="M89.5,-270.1575C89.5,-261.155 89.5,-250.9199 89.5,-243.6427"/>
<polygon fill="#191970" stroke="#191970" points="86.0001,-270.2455 89.5,-280.2455 93.0001,-270.2456 86.0001,-270.2455"/>
</g>
<!-- Node7 -->
<g id="node9" class="node">
<title>Node7</title>
<g id="a_node9"><a xlink:href="alox_2alox_8hpp.html" target="_top" xlink:title="alox.hpp">
<polygon fill="#ffffff" stroke="#ff0000" points="100,-56.5 100,-75.5 153,-75.5 153,-56.5 100,-56.5"/>
<text text-anchor="middle" x="126.5" y="-63.5" font-family="Helvetica,sans-Serif" font-size="10.00" fill="#000000">alox.hpp</text>
</a>
</g>
</g>
<!-- Node6&#45;&gt;Node7 -->
<g id="edge8" class="edge">
<title>Node6&#45;&gt;Node7</title>
<path fill="none" stroke="#191970" d="M91.2355,-214.2559C93.6812,-189.899 98.9481,-147.3733 108.5,-112 111.9876,-99.0844 117.9088,-84.8282 122.0025,-75.6612"/>
<polygon fill="#191970" stroke="#191970" points="87.7371,-214.0754 90.28,-224.3605 94.706,-214.7344 87.7371,-214.0754"/>
</g>
<!-- Node25 -->
<g id="node10" class="node">
<title>Node25</title>
<g id="a_node10"><a xlink:href="owner_8hpp.html" target="_top" xlink:title="owner.hpp">
<polygon fill="#ffffff" stroke="#ff0000" points="0,-168.5 0,-187.5 61,-187.5 61,-168.5 0,-168.5"/>
<text text-anchor="middle" x="30.5" y="-175.5" font-family="Helvetica,sans-Serif" font-size="10.00" fill="#000000">owner.hpp</text>
</a>
</g>
</g>
<!-- Node6&#45;&gt;Node25 -->
<g id="edge9" class="edge">
<title>Node6&#45;&gt;Node25</title>
<path fill="none" stroke="#191970" d="M71.9693,-217.3607C61.7623,-207.6727 49.2531,-195.7995 40.6592,-187.6427"/>
<polygon fill="#191970" stroke="#191970" points="69.5604,-219.8998 79.223,-224.2455 74.3794,-214.8227 69.5604,-219.8998"/>
</g>
<!-- Node28 -->
<g id="node11" class="node">
<title>Node28</title>
<g id="a_node11"><a xlink:href="configuration_8hpp.html" target="_top" xlink:title="configuration.hpp">
<polygon fill="#ffffff" stroke="#ff0000" points="118,-112.5 118,-131.5 209,-131.5 209,-112.5 118,-112.5"/>
<text text-anchor="middle" x="163.5" y="-119.5" font-family="Helvetica,sans-Serif" font-size="10.00" fill="#000000">configuration.hpp</text>
</a>
</g>
</g>
<!-- Node50&#45;&gt;Node28 -->
<g id="edge13" class="edge">
<title>Node50&#45;&gt;Node28</title>
<path fill="none" stroke="#191970" d="M189.1126,-214.928C193.36,-201.6045 196.9776,-183.4984 192.5,-168 188.5171,-154.214 179.0403,-140.5821 171.9977,-131.7814"/>
<polygon fill="#191970" stroke="#191970" points="185.7804,-213.8521 185.7137,-224.4467 192.3727,-216.2061 185.7804,-213.8521"/>
</g>
<!-- Node51 -->
<g id="node14" class="node">
<title>Node51</title>
<g id="a_node14"><a xlink:href="plugins_8hpp.html" target="_top" xlink:title="plugins.hpp">
<polygon fill="#ffffff" stroke="#ff0000" points="117.5,-168.5 117.5,-187.5 183.5,-187.5 183.5,-168.5 117.5,-168.5"/>
<text text-anchor="middle" x="150.5" y="-175.5" font-family="Helvetica,sans-Serif" font-size="10.00" fill="#000000">plugins.hpp</text>
</a>
</g>
</g>
<!-- Node50&#45;&gt;Node51 -->
<g id="edge14" class="edge">
<title>Node50&#45;&gt;Node51</title>
<path fill="none" stroke="#191970" d="M171.1688,-215.3372C166.0335,-206.0605 160.0434,-195.2398 155.8379,-187.6427"/>
<polygon fill="#191970" stroke="#191970" points="168.1949,-217.1917 176.1002,-224.2455 174.3191,-213.8015 168.1949,-217.1917"/>
</g>
<!-- Node28&#45;&gt;Node7 -->
<g id="edge10" class="edge">
<title>Node28&#45;&gt;Node7</title>
<path fill="none" stroke="#191970" d="M151.3624,-103.6296C145.1907,-94.2887 137.9434,-83.3197 132.8711,-75.6427"/>
<polygon fill="#191970" stroke="#191970" points="148.6223,-105.8316 157.0551,-112.2455 154.4627,-101.9728 148.6223,-105.8316"/>
</g>
<!-- Node29 -->
<g id="node12" class="node">
<title>Node29</title>
<g id="a_node12"><a xlink:href="compiler_8hpp_source.html" target="_top" xlink:title="compiler.hpp">
<polygon fill="#ffffff" stroke="#000000" points="233,-56.5 233,-75.5 304,-75.5 304,-56.5 233,-56.5"/>
<text text-anchor="middle" x="268.5" y="-63.5" font-family="Helvetica,sans-Serif" font-size="10.00" fill="#000000">compiler.hpp</text>
</a>
</g>
</g>
<!-- Node28&#45;&gt;Node29 -->
<g id="edge11" class="edge">
<title>Node28&#45;&gt;Node29</title>
<path fill="none" stroke="#191970" d="M190.7625,-107.46C209.5522,-97.4388 234.0013,-84.3993 250.42,-75.6427"/>
<polygon fill="#191970" stroke="#191970" points="188.9661,-104.4514 181.7896,-112.2455 192.2602,-110.6278 188.9661,-104.4514"/>
</g>
<!-- Node29&#45;&gt;Node30 -->
<g id="edge12" class="edge">
<title>Node29&#45;&gt;Node30</title>
<path fill="none" stroke="#191970" d="M279.9815,-47.6296C285.8196,-38.2887 292.6752,-27.3197 297.4733,-19.6427"/>
<polygon fill="#191970" stroke="#191970" points="276.9286,-45.9105 274.5965,-56.2455 282.8646,-49.6206 276.9286,-45.9105"/>
</g>
<!-- Node51&#45;&gt;Node28 -->
<g id="edge15" class="edge">
<title>Node51&#45;&gt;Node28</title>
<path fill="none" stroke="#191970" d="M155.0375,-158.4538C157.1439,-149.3803 159.5536,-138.9998 161.2615,-131.6427"/>
<polygon fill="#191970" stroke="#191970" points="151.6165,-157.7131 152.7644,-168.2455 158.4351,-159.2961 151.6165,-157.7131"/>
</g>
<!-- Node56&#45;&gt;Node29 -->
<g id="edge18" class="edge">
<title>Node56&#45;&gt;Node29</title>
<path fill="none" stroke="#191970" d="M268.5,-102.1575C268.5,-93.155 268.5,-82.9199 268.5,-75.6427"/>
<polygon fill="#191970" stroke="#191970" points="265.0001,-102.2455 268.5,-112.2455 272.0001,-102.2456 265.0001,-102.2455"/>
</g>
</g>
</svg>
