<?xml version="1.0" encoding="UTF-8" standalone="no"?>
<!DOCTYPE svg PUBLIC "-//W3C//DTD SVG 1.1//EN"
 "http://www.w3.org/Graphics/SVG/1.1/DTD/svg11.dtd">
<!-- Generated by graphviz version 2.40.1 (20161225.0304)
 -->
<!-- Title: expressionslib.hpp Pages: 1 -->
<svg width="134pt" height="196pt"
 viewBox="0.00 0.00 133.50 196.00" xmlns="http://www.w3.org/2000/svg" xmlns:xlink="http://www.w3.org/1999/xlink">
<g id="graph0" class="graph" transform="scale(1 1) rotate(0) translate(4 192)">
<title>expressionslib.hpp</title>
<polygon fill="#ffffff" stroke="transparent" points="-4,4 -4,-192 129.5,-192 129.5,4 -4,4"/>
<!-- Node5 -->
<g id="node1" class="node">
<title>Node5</title>
<polygon fill="#bfbfbf" stroke="#000000" points="27.5,-168.5 27.5,-187.5 125.5,-187.5 125.5,-168.5 27.5,-168.5"/>
<text text-anchor="middle" x="76.5" y="-175.5" font-family="Helvetica,sans-Serif" font-size="10.00" fill="#000000">expressionslib.hpp</text>
</g>
<!-- Node6 -->
<g id="node2" class="node">
<title>Node6</title>
<g id="a_node2"><a xlink:href="expression_8hpp_source.html" target="_top" xlink:title="expression.hpp">
<polygon fill="#ffffff" stroke="#000000" points="0,-112.5 0,-131.5 83,-131.5 83,-112.5 0,-112.5"/>
<text text-anchor="middle" x="41.5" y="-119.5" font-family="Helvetica,sans-Serif" font-size="10.00" fill="#000000">expression.hpp</text>
</a>
</g>
</g>
<!-- Node5&#45;&gt;Node6 -->
<g id="edge1" class="edge">
<title>Node5&#45;&gt;Node6</title>
<path fill="none" stroke="#191970" d="M65.0185,-159.6296C59.1804,-150.2887 52.3248,-139.3197 47.5267,-131.6427"/>
<polygon fill="#191970" stroke="#191970" points="62.1354,-161.6206 70.4035,-168.2455 68.0714,-157.9105 62.1354,-161.6206"/>
</g>
<!-- Node8 -->
<g id="node3" class="node">
<title>Node8</title>
<g id="a_node3"><a xlink:href="compilerplugin_8hpp_source.html" target="_top" xlink:title="compilerplugin.hpp">
<polygon fill="#ffffff" stroke="#ff0000" points="27.5,-.5 27.5,-19.5 125.5,-19.5 125.5,-.5 27.5,-.5"/>
<text text-anchor="middle" x="76.5" y="-7.5" font-family="Helvetica,sans-Serif" font-size="10.00" fill="#000000">compilerplugin.hpp</text>
</a>
</g>
</g>
<!-- Node5&#45;&gt;Node8 -->
<g id="edge2" class="edge">
<title>Node5&#45;&gt;Node8</title>
<path fill="none" stroke="#191970" d="M84.691,-159.0595C87.7966,-150.8981 90.955,-141.1449 92.5,-132 95.1301,-116.4326 92.3993,-73.4686 89.5,-56 87.3803,-43.2284 83.0166,-28.9407 79.9309,-19.7271"/>
<polygon fill="#191970" stroke="#191970" points="81.4258,-157.7979 80.911,-168.3802 87.9127,-160.4287 81.4258,-157.7979"/>
</g>
<!-- Node7 -->
<g id="node4" class="node">
<title>Node7</title>
<g id="a_node4"><a xlink:href="compiler_8hpp_source.html" target="_top" xlink:title="compiler.hpp">
<polygon fill="#ffffff" stroke="#000000" points="9,-56.5 9,-75.5 80,-75.5 80,-56.5 9,-56.5"/>
<text text-anchor="middle" x="44.5" y="-63.5" font-family="Helvetica,sans-Serif" font-size="10.00" fill="#000000">compiler.hpp</text>
</a>
</g>
</g>
<!-- Node6&#45;&gt;Node7 -->
<g id="edge3" class="edge">
<title>Node6&#45;&gt;Node7</title>
<path fill="none" stroke="#191970" d="M42.563,-102.1575C43.0453,-93.155 43.5936,-82.9199 43.9834,-75.6427"/>
<polygon fill="#191970" stroke="#191970" points="39.0626,-102.0726 42.0226,-112.2455 46.0526,-102.4471 39.0626,-102.0726"/>
</g>
<!-- Node7&#45;&gt;Node8 -->
<g id="edge4" class="edge">
<title>Node7&#45;&gt;Node8</title>
<path fill="none" stroke="#191970" d="M55.1645,-47.3372C60.4654,-38.0605 66.6487,-27.2398 70.9899,-19.6427"/>
<polygon fill="#191970" stroke="#191970" points="51.9966,-45.8266 50.074,-56.2455 58.0743,-49.2996 51.9966,-45.8266"/>
</g>
</g>
</svg>
