<?xml version="1.0" encoding="UTF-8" standalone="no"?>
<!DOCTYPE svg PUBLIC "-//W3C//DTD SVG 1.1//EN"
 "http://www.w3.org/Graphics/SVG/1.1/DTD/svg11.dtd">
<!-- Generated by graphviz version 2.40.1 (20161225.0304)
 -->
<!-- Title: formatter.hpp Pages: 1 -->
<svg width="591pt" height="196pt"
 viewBox="0.00 0.00 590.50 196.00" xmlns="http://www.w3.org/2000/svg" xmlns:xlink="http://www.w3.org/1999/xlink">
<g id="graph0" class="graph" transform="scale(1 1) rotate(0) translate(4 192)">
<title>formatter.hpp</title>
<polygon fill="#ffffff" stroke="transparent" points="-4,4 -4,-192 586.5,-192 586.5,4 -4,4"/>
<!-- Node66 -->
<g id="node1" class="node">
<title>Node66</title>
<polygon fill="#bfbfbf" stroke="#000000" points="284,-168.5 284,-187.5 358,-187.5 358,-168.5 284,-168.5"/>
<text text-anchor="middle" x="321" y="-175.5" font-family="Helvetica,sans-Serif" font-size="10.00" fill="#000000">formatter.hpp</text>
</g>
<!-- Node67 -->
<g id="node2" class="node">
<title>Node67</title>
<g id="a_node2"><a xlink:href="formatterstdimpl_8hpp.html" target="_top" xlink:title="formatterstdimpl.hpp">
<polygon fill="#ffffff" stroke="#000000" points="268,-112.5 268,-131.5 374,-131.5 374,-112.5 268,-112.5"/>
<text text-anchor="middle" x="321" y="-119.5" font-family="Helvetica,sans-Serif" font-size="10.00" fill="#000000">formatterstdimpl.hpp</text>
</a>
</g>
</g>
<!-- Node66&#45;&gt;Node67 -->
<g id="edge1" class="edge">
<title>Node66&#45;&gt;Node67</title>
<path fill="none" stroke="#191970" d="M321,-158.1575C321,-149.155 321,-138.9199 321,-131.6427"/>
<polygon fill="#191970" stroke="#191970" points="317.5001,-158.2455 321,-168.2455 324.5001,-158.2456 317.5001,-158.2455"/>
</g>
<!-- Node68 -->
<g id="node3" class="node">
<title>Node68</title>
<g id="a_node3"><a xlink:href="scope_8hpp_source.html" target="_top" xlink:title="scope.hpp">
<polygon fill="#ffffff" stroke="#000000" points="116,-56.5 116,-75.5 178,-75.5 178,-56.5 116,-56.5"/>
<text text-anchor="middle" x="147" y="-63.5" font-family="Helvetica,sans-Serif" font-size="10.00" fill="#000000">scope.hpp</text>
</a>
</g>
</g>
<!-- Node67&#45;&gt;Node68 -->
<g id="edge2" class="edge">
<title>Node67&#45;&gt;Node68</title>
<path fill="none" stroke="#191970" d="M281.199,-109.1905C249.321,-98.9309 205.3184,-84.7691 176.5213,-75.5011"/>
<polygon fill="#191970" stroke="#191970" points="280.4969,-112.6413 291.0883,-112.3733 282.6415,-105.9779 280.4969,-112.6413"/>
</g>
<!-- Node78 -->
<g id="node4" class="node">
<title>Node78</title>
<g id="a_node4"><a xlink:href="formatterjavastyle_8hpp.html" target="_top" xlink:title="formatterjavastyle.hpp">
<polygon fill="#ffffff" stroke="#000000" points="196.5,-56.5 196.5,-75.5 309.5,-75.5 309.5,-56.5 196.5,-56.5"/>
<text text-anchor="middle" x="253" y="-63.5" font-family="Helvetica,sans-Serif" font-size="10.00" fill="#000000">formatterjavastyle.hpp</text>
</a>
</g>
</g>
<!-- Node67&#45;&gt;Node78 -->
<g id="edge3" class="edge">
<title>Node67&#45;&gt;Node78</title>
<path fill="none" stroke="#191970" d="M301.1404,-105.645C289.3142,-95.9058 274.7108,-83.8795 264.709,-75.6427"/>
<polygon fill="#191970" stroke="#191970" points="299.211,-108.5902 309.1553,-112.2455 303.661,-103.1867 299.211,-108.5902"/>
</g>
<!-- Node88 -->
<g id="node5" class="node">
<title>Node88</title>
<g id="a_node5"><a xlink:href="formatterpythonstyle_8hpp.html" target="_top" xlink:title="formatterpythonstyle.hpp">
<polygon fill="#ffffff" stroke="#000000" points="327.5,-56.5 327.5,-75.5 452.5,-75.5 452.5,-56.5 327.5,-56.5"/>
<text text-anchor="middle" x="390" y="-63.5" font-family="Helvetica,sans-Serif" font-size="10.00" fill="#000000">formatterpythonstyle.hpp</text>
</a>
</g>
</g>
<!-- Node67&#45;&gt;Node88 -->
<g id="edge4" class="edge">
<title>Node67&#45;&gt;Node88</title>
<path fill="none" stroke="#191970" d="M340.803,-105.928C352.8636,-96.1397 367.8714,-83.9595 378.1188,-75.6427"/>
<polygon fill="#191970" stroke="#191970" points="338.5779,-103.2262 333.0189,-112.2455 342.9891,-108.6614 338.5779,-103.2262"/>
</g>
<!-- Node91 -->
<g id="node6" class="node">
<title>Node91</title>
<g id="a_node6"><a xlink:href="propertyformatter_8hpp_source.html" target="_top" xlink:title="propertyformatter.hpp">
<polygon fill="#ffffff" stroke="#000000" points="470.5,-56.5 470.5,-75.5 579.5,-75.5 579.5,-56.5 470.5,-56.5"/>
<text text-anchor="middle" x="525" y="-63.5" font-family="Helvetica,sans-Serif" font-size="10.00" fill="#000000">propertyformatter.hpp</text>
</a>
</g>
</g>
<!-- Node67&#45;&gt;Node91 -->
<g id="edge5" class="edge">
<title>Node67&#45;&gt;Node91</title>
<path fill="none" stroke="#191970" d="M365.7347,-109.7199C403.2455,-99.4228 456.0421,-84.9296 490.3888,-75.5011"/>
<polygon fill="#191970" stroke="#191970" points="364.7856,-106.3509 356.0689,-112.3733 366.6387,-113.1012 364.7856,-106.3509"/>
</g>
<!-- Node69 -->
<g id="node7" class="node">
<title>Node69</title>
<g id="a_node7"><a xlink:href="compilerplugin_8hpp_source.html" target="_top" xlink:title="compilerplugin.hpp">
<polygon fill="#ffffff" stroke="#ff0000" points="0,-.5 0,-19.5 98,-19.5 98,-.5 0,-.5"/>
<text text-anchor="middle" x="49" y="-7.5" font-family="Helvetica,sans-Serif" font-size="10.00" fill="#000000">compilerplugin.hpp</text>
</a>
</g>
</g>
<!-- Node68&#45;&gt;Node69 -->
<g id="edge6" class="edge">
<title>Node68&#45;&gt;Node69</title>
<path fill="none" stroke="#191970" d="M120.8314,-51.0465C103.3942,-41.0824 80.9889,-28.2794 65.8747,-19.6427"/>
<polygon fill="#191970" stroke="#191970" points="119.5108,-54.323 129.9297,-56.2455 122.9838,-48.2453 119.5108,-54.323"/>
</g>
<!-- Node77 -->
<g id="node8" class="node">
<title>Node77</title>
<g id="a_node8"><a xlink:href="scopestring_8hpp_source.html" target="_top" xlink:title="scopestring.hpp">
<polygon fill="#ffffff" stroke="#000000" points="116,-.5 116,-19.5 202,-19.5 202,-.5 116,-.5"/>
<text text-anchor="middle" x="159" y="-7.5" font-family="Helvetica,sans-Serif" font-size="10.00" fill="#000000">scopestring.hpp</text>
</a>
</g>
</g>
<!-- Node68&#45;&gt;Node77 -->
<g id="edge7" class="edge">
<title>Node68&#45;&gt;Node77</title>
<path fill="none" stroke="#191970" d="M151.1885,-46.4538C153.1328,-37.3803 155.3572,-26.9998 156.9337,-19.6427"/>
<polygon fill="#191970" stroke="#191970" points="147.7633,-45.7341 149.0902,-56.2455 154.6079,-47.2009 147.7633,-45.7341"/>
</g>
<!-- Node79 -->
<g id="node9" class="node">
<title>Node79</title>
<g id="a_node9"><a xlink:href="textlogger_8hpp.html" target="_top" xlink:title="textlogger.hpp">
<polygon fill="#ffffff" stroke="#ff0000" points="243.5,-.5 243.5,-19.5 320.5,-19.5 320.5,-.5 243.5,-.5"/>
<text text-anchor="middle" x="282" y="-7.5" font-family="Helvetica,sans-Serif" font-size="10.00" fill="#000000">textlogger.hpp</text>
</a>
</g>
</g>
<!-- Node78&#45;&gt;Node79 -->
<g id="edge8" class="edge">
<title>Node78&#45;&gt;Node79</title>
<path fill="none" stroke="#191970" d="M262.6647,-47.3372C267.4687,-38.0605 273.0723,-27.2398 277.0065,-19.6427"/>
<polygon fill="#191970" stroke="#191970" points="259.542,-45.7561 258.0514,-56.2455 265.758,-48.9751 259.542,-45.7561"/>
</g>
<!-- Node88&#45;&gt;Node79 -->
<g id="edge9" class="edge">
<title>Node88&#45;&gt;Node79</title>
<path fill="none" stroke="#191970" d="M362.2229,-51.5971C342.8618,-41.558 317.5615,-28.4393 300.5966,-19.6427"/>
<polygon fill="#191970" stroke="#191970" points="360.6992,-54.7495 371.1878,-56.2455 363.9214,-48.5352 360.6992,-54.7495"/>
</g>
<!-- Node89 -->
<g id="node10" class="node">
<title>Node89</title>
<g id="a_node10"><a xlink:href="simpletext_8hpp.html" target="_top" xlink:title="simpletext.hpp">
<polygon fill="#ffffff" stroke="#ff0000" points="350,-.5 350,-19.5 430,-19.5 430,-.5 350,-.5"/>
<text text-anchor="middle" x="390" y="-7.5" font-family="Helvetica,sans-Serif" font-size="10.00" fill="#000000">simpletext.hpp</text>
</a>
</g>
</g>
<!-- Node88&#45;&gt;Node89 -->
<g id="edge10" class="edge">
<title>Node88&#45;&gt;Node89</title>
<path fill="none" stroke="#191970" d="M390,-46.1575C390,-37.155 390,-26.9199 390,-19.6427"/>
<polygon fill="#191970" stroke="#191970" points="386.5001,-46.2455 390,-56.2455 393.5001,-46.2456 386.5001,-46.2455"/>
</g>
<!-- Node92 -->
<g id="node11" class="node">
<title>Node92</title>
<g id="a_node11"><a xlink:href="propertyformatters_8hpp_source.html" target="_top" xlink:title="propertyformatters.hpp">
<polygon fill="#ffffff" stroke="#000000" points="467.5,-.5 467.5,-19.5 582.5,-19.5 582.5,-.5 467.5,-.5"/>
<text text-anchor="middle" x="525" y="-7.5" font-family="Helvetica,sans-Serif" font-size="10.00" fill="#000000">propertyformatters.hpp</text>
</a>
</g>
</g>
<!-- Node91&#45;&gt;Node92 -->
<g id="edge11" class="edge">
<title>Node91&#45;&gt;Node92</title>
<path fill="none" stroke="#191970" d="M525,-46.1575C525,-37.155 525,-26.9199 525,-19.6427"/>
<polygon fill="#191970" stroke="#191970" points="521.5001,-46.2455 525,-56.2455 528.5001,-46.2456 521.5001,-46.2455"/>
</g>
</g>
</svg>
