<?xml version="1.0" encoding="UTF-8" standalone="no"?>
<!DOCTYPE svg PUBLIC "-//W3C//DTD SVG 1.1//EN"
 "http://www.w3.org/Graphics/SVG/1.1/DTD/svg11.dtd">
<!-- Generated by graphviz version 2.40.1 (20161225.0304)
 -->
<!-- Title: formatterpythonstyle.hpp Pages: 1 -->
<svg width="652pt" height="252pt"
 viewBox="0.00 0.00 651.50 252.00" xmlns="http://www.w3.org/2000/svg" xmlns:xlink="http://www.w3.org/1999/xlink">
<g id="graph0" class="graph" transform="scale(1 1) rotate(0) translate(4 248)">
<title>formatterpythonstyle.hpp</title>
<polygon fill="#ffffff" stroke="transparent" points="-4,4 -4,-248 647.5,-248 647.5,4 -4,4"/>
<!-- Node69 -->
<g id="node1" class="node">
<title>Node69</title>
<polygon fill="#bfbfbf" stroke="#000000" points="424,-224.5 424,-243.5 549,-243.5 549,-224.5 424,-224.5"/>
<text text-anchor="middle" x="486.5" y="-231.5" font-family="Helvetica,sans-Serif" font-size="10.00" fill="#000000">formatterpythonstyle.hpp</text>
</g>
<!-- Node70 -->
<g id="node2" class="node">
<title>Node70</title>
<g id="a_node2"><a xlink:href="textlogger_8hpp.html" target="_top" xlink:title="textlogger.hpp">
<polygon fill="#ffffff" stroke="#000000" points="400,-168.5 400,-187.5 477,-187.5 477,-168.5 400,-168.5"/>
<text text-anchor="middle" x="438.5" y="-175.5" font-family="Helvetica,sans-Serif" font-size="10.00" fill="#000000">textlogger.hpp</text>
</a>
</g>
</g>
<!-- Node69&#45;&gt;Node70 -->
<g id="edge1" class="edge">
<title>Node69&#45;&gt;Node70</title>
<path fill="none" stroke="#191970" d="M471.5003,-216.5004C463.3378,-206.9775 453.5511,-195.5596 446.7651,-187.6427"/>
<polygon fill="#191970" stroke="#191970" points="468.9737,-218.9307 478.139,-224.2455 474.2885,-214.3752 468.9737,-218.9307"/>
</g>
<!-- Node79 -->
<g id="node3" class="node">
<title>Node79</title>
<g id="a_node3"><a xlink:href="simpletext_8hpp.html" target="_top" xlink:title="simpletext.hpp">
<polygon fill="#ffffff" stroke="#000000" points="534.5,-168.5 534.5,-187.5 614.5,-187.5 614.5,-168.5 534.5,-168.5"/>
<text text-anchor="middle" x="574.5" y="-175.5" font-family="Helvetica,sans-Serif" font-size="10.00" fill="#000000">simpletext.hpp</text>
</a>
</g>
</g>
<!-- Node69&#45;&gt;Node79 -->
<g id="edge2" class="edge">
<title>Node69&#45;&gt;Node79</title>
<path fill="none" stroke="#191970" d="M510.4345,-218.769C526.0283,-208.8456 545.901,-196.1994 559.3472,-187.6427"/>
<polygon fill="#191970" stroke="#191970" points="508.386,-215.9239 501.8284,-224.2455 512.1441,-221.8296 508.386,-215.9239"/>
</g>
<!-- Node71 -->
<g id="node4" class="node">
<title>Node71</title>
<g id="a_node4"><a xlink:href="plaintextlogger_8hpp.html" target="_top" xlink:title="plaintextlogger.hpp">
<polygon fill="#ffffff" stroke="#000000" points="220.5,-112.5 220.5,-131.5 318.5,-131.5 318.5,-112.5 220.5,-112.5"/>
<text text-anchor="middle" x="269.5" y="-119.5" font-family="Helvetica,sans-Serif" font-size="10.00" fill="#000000">plaintextlogger.hpp</text>
</a>
</g>
</g>
<!-- Node70&#45;&gt;Node71 -->
<g id="edge3" class="edge">
<title>Node70&#45;&gt;Node71</title>
<path fill="none" stroke="#191970" d="M399.8427,-165.1905C368.8807,-154.9309 326.1426,-140.7691 298.173,-131.5011"/>
<polygon fill="#191970" stroke="#191970" points="398.8545,-168.5501 409.4479,-168.3733 401.0563,-161.9054 398.8545,-168.5501"/>
</g>
<!-- Node77 -->
<g id="node5" class="node">
<title>Node77</title>
<g id="a_node5"><a xlink:href="ansilogger_8hpp.html" target="_top" xlink:title="ansilogger.hpp">
<polygon fill="#ffffff" stroke="#000000" points="337,-112.5 337,-131.5 416,-131.5 416,-112.5 337,-112.5"/>
<text text-anchor="middle" x="376.5" y="-119.5" font-family="Helvetica,sans-Serif" font-size="10.00" fill="#000000">ansilogger.hpp</text>
</a>
</g>
</g>
<!-- Node70&#45;&gt;Node77 -->
<g id="edge4" class="edge">
<title>Node70&#45;&gt;Node77</title>
<path fill="none" stroke="#191970" d="M420.0779,-161.3607C409.3519,-151.6727 396.2066,-139.7995 387.1758,-131.6427"/>
<polygon fill="#191970" stroke="#191970" points="417.9334,-164.14 427.7004,-168.2455 422.6254,-158.9453 417.9334,-164.14"/>
</g>
<!-- Node78 -->
<g id="node6" class="node">
<title>Node78</title>
<g id="a_node6"><a xlink:href="windowsconsolelogger_8hpp.html" target="_top" xlink:title="windowsconsolelogger.hpp">
<polygon fill="#ffffff" stroke="#000000" points="434,-112.5 434,-131.5 567,-131.5 567,-112.5 434,-112.5"/>
<text text-anchor="middle" x="500.5" y="-119.5" font-family="Helvetica,sans-Serif" font-size="10.00" fill="#000000">windowsconsolelogger.hpp</text>
</a>
</g>
</g>
<!-- Node70&#45;&gt;Node78 -->
<g id="edge5" class="edge">
<title>Node70&#45;&gt;Node78</title>
<path fill="none" stroke="#191970" d="M456.9221,-161.3607C467.6481,-151.6727 480.7934,-139.7995 489.8242,-131.6427"/>
<polygon fill="#191970" stroke="#191970" points="454.3746,-158.9453 449.2996,-168.2455 459.0666,-164.14 454.3746,-158.9453"/>
</g>
<!-- Node80 -->
<g id="node12" class="node">
<title>Node80</title>
<g id="a_node12"><a xlink:href="cliutil_8hpp.html" target="_top" xlink:title="cliutil.hpp">
<polygon fill="#ffffff" stroke="#000000" points="585.5,-112.5 585.5,-131.5 643.5,-131.5 643.5,-112.5 585.5,-112.5"/>
<text text-anchor="middle" x="614.5" y="-119.5" font-family="Helvetica,sans-Serif" font-size="10.00" fill="#000000">cliutil.hpp</text>
</a>
</g>
</g>
<!-- Node79&#45;&gt;Node80 -->
<g id="edge14" class="edge">
<title>Node79&#45;&gt;Node80</title>
<path fill="none" stroke="#191970" d="M587.4136,-159.9209C594.1303,-150.5176 602.0717,-139.3997 607.6124,-131.6427"/>
<polygon fill="#191970" stroke="#191970" points="584.4318,-158.0738 581.4675,-168.2455 590.128,-162.1425 584.4318,-158.0738"/>
</g>
<!-- Node72 -->
<g id="node7" class="node">
<title>Node72</title>
<g id="a_node7"><a xlink:href="consolelogger_8hpp.html" target="_top" xlink:title="consolelogger.hpp">
<polygon fill="#ffffff" stroke="#000000" points="0,-56.5 0,-75.5 95,-75.5 95,-56.5 0,-56.5"/>
<text text-anchor="middle" x="47.5" y="-63.5" font-family="Helvetica,sans-Serif" font-size="10.00" fill="#000000">consolelogger.hpp</text>
</a>
</g>
</g>
<!-- Node71&#45;&gt;Node72 -->
<g id="edge6" class="edge">
<title>Node71&#45;&gt;Node72</title>
<path fill="none" stroke="#191970" d="M221.8572,-109.982C181.0097,-99.6781 122.9525,-85.0331 85.2546,-75.5237"/>
<polygon fill="#191970" stroke="#191970" points="221.0367,-113.3846 231.5891,-112.4369 222.7489,-106.5972 221.0367,-113.3846"/>
</g>
<!-- Node74 -->
<g id="node8" class="node">
<title>Node74</title>
<g id="a_node8"><a xlink:href="memorylogger_8hpp.html" target="_top" xlink:title="memorylogger.hpp">
<polygon fill="#ffffff" stroke="#000000" points="113.5,-56.5 113.5,-75.5 209.5,-75.5 209.5,-56.5 113.5,-56.5"/>
<text text-anchor="middle" x="161.5" y="-63.5" font-family="Helvetica,sans-Serif" font-size="10.00" fill="#000000">memorylogger.hpp</text>
</a>
</g>
</g>
<!-- Node71&#45;&gt;Node74 -->
<g id="edge7" class="edge">
<title>Node71&#45;&gt;Node74</title>
<path fill="none" stroke="#191970" d="M241.7229,-107.5971C222.3618,-97.558 197.0615,-84.4393 180.0966,-75.6427"/>
<polygon fill="#191970" stroke="#191970" points="240.1992,-110.7495 250.6878,-112.2455 243.4214,-104.5352 240.1992,-110.7495"/>
</g>
<!-- Node75 -->
<g id="node9" class="node">
<title>Node75</title>
<g id="a_node9"><a xlink:href="textfilelogger_8hpp.html" target="_top" xlink:title="textfilelogger.hpp">
<polygon fill="#ffffff" stroke="#000000" points="227.5,-56.5 227.5,-75.5 317.5,-75.5 317.5,-56.5 227.5,-56.5"/>
<text text-anchor="middle" x="272.5" y="-63.5" font-family="Helvetica,sans-Serif" font-size="10.00" fill="#000000">textfilelogger.hpp</text>
</a>
</g>
</g>
<!-- Node71&#45;&gt;Node75 -->
<g id="edge8" class="edge">
<title>Node71&#45;&gt;Node75</title>
<path fill="none" stroke="#191970" d="M270.563,-102.1575C271.0453,-93.155 271.5936,-82.9199 271.9834,-75.6427"/>
<polygon fill="#191970" stroke="#191970" points="267.0626,-102.0726 270.0226,-112.2455 274.0526,-102.4471 267.0626,-102.0726"/>
</g>
<!-- Node76 -->
<g id="node10" class="node">
<title>Node76</title>
<g id="a_node10"><a xlink:href="vstudiologger_8hpp.html" target="_top" xlink:title="vstudiologger.hpp">
<polygon fill="#ffffff" stroke="#000000" points="335.5,-56.5 335.5,-75.5 427.5,-75.5 427.5,-56.5 335.5,-56.5"/>
<text text-anchor="middle" x="381.5" y="-63.5" font-family="Helvetica,sans-Serif" font-size="10.00" fill="#000000">vstudiologger.hpp</text>
</a>
</g>
</g>
<!-- Node71&#45;&gt;Node76 -->
<g id="edge9" class="edge">
<title>Node71&#45;&gt;Node76</title>
<path fill="none" stroke="#191970" d="M297.8263,-107.8368C318.0721,-97.7139 344.7642,-84.3679 362.4978,-75.5011"/>
<polygon fill="#191970" stroke="#191970" points="296.1325,-104.7706 288.7535,-112.3733 299.263,-111.0316 296.1325,-104.7706"/>
</g>
<!-- Node73 -->
<g id="node11" class="node">
<title>Node73</title>
<g id="a_node11"><a xlink:href="alox_8hpp_source.html" target="_top" xlink:title="alox.hpp">
<polygon fill="#ffffff" stroke="#000000" points="392,-.5 392,-19.5 445,-19.5 445,-.5 392,-.5"/>
<text text-anchor="middle" x="418.5" y="-7.5" font-family="Helvetica,sans-Serif" font-size="10.00" fill="#000000">alox.hpp</text>
</a>
</g>
</g>
<!-- Node77&#45;&gt;Node73 -->
<g id="edge12" class="edge">
<title>Node77&#45;&gt;Node73</title>
<path fill="none" stroke="#191970" d="M406.0593,-107.1349C417.7938,-99.5543 430.0207,-89.1319 436.5,-76 445.7492,-57.2544 433.7729,-33.0887 425.3845,-19.8157"/>
<polygon fill="#191970" stroke="#191970" points="404.0756,-104.2428 397.2852,-112.3756 407.6652,-110.2525 404.0756,-104.2428"/>
</g>
<!-- Node78&#45;&gt;Node73 -->
<g id="edge13" class="edge">
<title>Node78&#45;&gt;Node73</title>
<path fill="none" stroke="#191970" d="M487.3714,-103.8692C477.7449,-90.5941 464.3436,-72.1537 452.5,-56 443.3398,-43.5063 432.7181,-29.1577 425.8176,-19.8543"/>
<polygon fill="#191970" stroke="#191970" points="484.6651,-106.0993 493.3673,-112.1428 490.3332,-101.9916 484.6651,-106.0993"/>
</g>
<!-- Node72&#45;&gt;Node73 -->
<g id="edge10" class="edge">
<title>Node72&#45;&gt;Node73</title>
<path fill="none" stroke="#191970" d="M105.2713,-55.9132C218.2252,-37.8514 339.4724,-20.8653 391.9957,-13.6255"/>
<polygon fill="#191970" stroke="#191970" points="104.3875,-52.5101 95.0689,-57.5512 105.4973,-59.4216 104.3875,-52.5101"/>
</g>
<!-- Node76&#45;&gt;Node73 -->
<g id="edge11" class="edge">
<title>Node76&#45;&gt;Node73</title>
<path fill="none" stroke="#191970" d="M393.6376,-47.6296C399.8093,-38.2887 407.0566,-27.3197 412.1289,-19.6427"/>
<polygon fill="#191970" stroke="#191970" points="390.5373,-45.9728 387.9449,-56.2455 396.3777,-49.8316 390.5373,-45.9728"/>
</g>
</g>
</svg>
