<?xml version="1.0" encoding="UTF-8" standalone="no"?>
<!DOCTYPE svg PUBLIC "-//W3C//DTD SVG 1.1//EN"
 "http://www.w3.org/Graphics/SVG/1.1/DTD/svg11.dtd">
<!-- Generated by graphviz version 2.40.1 (20161225.0304)
 -->
<!-- Title: formatterstdimpl.hpp Pages: 1 -->
<svg width="761pt" height="196pt"
 viewBox="0.00 0.00 761.00 196.00" xmlns="http://www.w3.org/2000/svg" xmlns:xlink="http://www.w3.org/1999/xlink">
<g id="graph0" class="graph" transform="scale(1 1) rotate(0) translate(4 192)">
<title>formatterstdimpl.hpp</title>
<polygon fill="#ffffff" stroke="transparent" points="-4,4 -4,-192 757,-192 757,4 -4,4"/>
<!-- Node67 -->
<g id="node1" class="node">
<title>Node67</title>
<polygon fill="#bfbfbf" stroke="#000000" points="438.5,-168.5 438.5,-187.5 544.5,-187.5 544.5,-168.5 438.5,-168.5"/>
<text text-anchor="middle" x="491.5" y="-175.5" font-family="Helvetica,sans-Serif" font-size="10.00" fill="#000000">formatterstdimpl.hpp</text>
</g>
<!-- Node68 -->
<g id="node2" class="node">
<title>Node68</title>
<g id="a_node2"><a xlink:href="scope_8hpp_source.html" target="_top" xlink:title="scope.hpp">
<polygon fill="#ffffff" stroke="#000000" points="237.5,-112.5 237.5,-131.5 299.5,-131.5 299.5,-112.5 237.5,-112.5"/>
<text text-anchor="middle" x="268.5" y="-119.5" font-family="Helvetica,sans-Serif" font-size="10.00" fill="#000000">scope.hpp</text>
</a>
</g>
</g>
<!-- Node67&#45;&gt;Node68 -->
<g id="edge1" class="edge">
<title>Node67&#45;&gt;Node68</title>
<path fill="none" stroke="#191970" d="M443.6087,-165.9735C400.0212,-155.0277 336.9463,-139.1883 299.592,-129.8078"/>
<polygon fill="#191970" stroke="#191970" points="442.867,-169.3958 453.4183,-168.4369 444.5719,-162.6066 442.867,-169.3958"/>
</g>
<!-- Node78 -->
<g id="node3" class="node">
<title>Node78</title>
<g id="a_node3"><a xlink:href="formatterjavastyle_8hpp.html" target="_top" xlink:title="formatterjavastyle.hpp">
<polygon fill="#ffffff" stroke="#000000" points="367,-112.5 367,-131.5 480,-131.5 480,-112.5 367,-112.5"/>
<text text-anchor="middle" x="423.5" y="-119.5" font-family="Helvetica,sans-Serif" font-size="10.00" fill="#000000">formatterjavastyle.hpp</text>
</a>
</g>
</g>
<!-- Node67&#45;&gt;Node78 -->
<g id="edge2" class="edge">
<title>Node67&#45;&gt;Node78</title>
<path fill="none" stroke="#191970" d="M471.6404,-161.645C459.8142,-151.9058 445.2108,-139.8795 435.209,-131.6427"/>
<polygon fill="#191970" stroke="#191970" points="469.711,-164.5902 479.6553,-168.2455 474.161,-159.1867 469.711,-164.5902"/>
</g>
<!-- Node88 -->
<g id="node4" class="node">
<title>Node88</title>
<g id="a_node4"><a xlink:href="formatterpythonstyle_8hpp.html" target="_top" xlink:title="formatterpythonstyle.hpp">
<polygon fill="#ffffff" stroke="#000000" points="498,-112.5 498,-131.5 623,-131.5 623,-112.5 498,-112.5"/>
<text text-anchor="middle" x="560.5" y="-119.5" font-family="Helvetica,sans-Serif" font-size="10.00" fill="#000000">formatterpythonstyle.hpp</text>
</a>
</g>
</g>
<!-- Node67&#45;&gt;Node88 -->
<g id="edge3" class="edge">
<title>Node67&#45;&gt;Node88</title>
<path fill="none" stroke="#191970" d="M511.303,-161.928C523.3636,-152.1397 538.3714,-139.9595 548.6188,-131.6427"/>
<polygon fill="#191970" stroke="#191970" points="509.0779,-159.2262 503.5189,-168.2455 513.4891,-164.6614 509.0779,-159.2262"/>
</g>
<!-- Node91 -->
<g id="node5" class="node">
<title>Node91</title>
<g id="a_node5"><a xlink:href="propertyformatter_8hpp_source.html" target="_top" xlink:title="propertyformatter.hpp">
<polygon fill="#ffffff" stroke="#000000" points="641,-112.5 641,-131.5 750,-131.5 750,-112.5 641,-112.5"/>
<text text-anchor="middle" x="695.5" y="-119.5" font-family="Helvetica,sans-Serif" font-size="10.00" fill="#000000">propertyformatter.hpp</text>
</a>
</g>
</g>
<!-- Node67&#45;&gt;Node91 -->
<g id="edge4" class="edge">
<title>Node67&#45;&gt;Node91</title>
<path fill="none" stroke="#191970" d="M536.2347,-165.7199C573.7455,-155.4228 626.5421,-140.9296 660.8888,-131.5011"/>
<polygon fill="#191970" stroke="#191970" points="535.2856,-162.3509 526.5689,-168.3733 537.1387,-169.1012 535.2856,-162.3509"/>
</g>
<!-- Node69 -->
<g id="node6" class="node">
<title>Node69</title>
<g id="a_node6"><a xlink:href="compilerplugin_8hpp_source.html" target="_top" xlink:title="compilerplugin.hpp">
<polygon fill="#ffffff" stroke="#000000" points="87.5,-56.5 87.5,-75.5 185.5,-75.5 185.5,-56.5 87.5,-56.5"/>
<text text-anchor="middle" x="136.5" y="-63.5" font-family="Helvetica,sans-Serif" font-size="10.00" fill="#000000">compilerplugin.hpp</text>
</a>
</g>
</g>
<!-- Node68&#45;&gt;Node69 -->
<g id="edge5" class="edge">
<title>Node68&#45;&gt;Node69</title>
<path fill="none" stroke="#191970" d="M236.4035,-108.3833C212.3965,-98.1985 180.1741,-84.5284 158.8955,-75.5011"/>
<polygon fill="#191970" stroke="#191970" points="235.2356,-111.6897 245.8084,-112.3733 237.9695,-105.2457 235.2356,-111.6897"/>
</g>
<!-- Node77 -->
<g id="node7" class="node">
<title>Node77</title>
<g id="a_node7"><a xlink:href="scopestring_8hpp_source.html" target="_top" xlink:title="scopestring.hpp">
<polygon fill="#ffffff" stroke="#000000" points="225.5,-56.5 225.5,-75.5 311.5,-75.5 311.5,-56.5 225.5,-56.5"/>
<text text-anchor="middle" x="268.5" y="-63.5" font-family="Helvetica,sans-Serif" font-size="10.00" fill="#000000">scopestring.hpp</text>
</a>
</g>
</g>
<!-- Node68&#45;&gt;Node77 -->
<g id="edge6" class="edge">
<title>Node68&#45;&gt;Node77</title>
<path fill="none" stroke="#191970" d="M268.5,-102.1575C268.5,-93.155 268.5,-82.9199 268.5,-75.6427"/>
<polygon fill="#191970" stroke="#191970" points="265.0001,-102.2455 268.5,-112.2455 272.0001,-102.2456 265.0001,-102.2455"/>
</g>
<!-- Node79 -->
<g id="node11" class="node">
<title>Node79</title>
<g id="a_node11"><a xlink:href="textlogger_8hpp.html" target="_top" xlink:title="textlogger.hpp">
<polygon fill="#ffffff" stroke="#000000" points="406,-56.5 406,-75.5 483,-75.5 483,-56.5 406,-56.5"/>
<text text-anchor="middle" x="444.5" y="-63.5" font-family="Helvetica,sans-Serif" font-size="10.00" fill="#000000">textlogger.hpp</text>
</a>
</g>
</g>
<!-- Node78&#45;&gt;Node79 -->
<g id="edge10" class="edge">
<title>Node78&#45;&gt;Node79</title>
<path fill="none" stroke="#191970" d="M430.719,-102.7493C434.1476,-93.6064 438.0951,-83.0798 440.884,-75.6427"/>
<polygon fill="#191970" stroke="#191970" points="427.3921,-101.6533 427.1579,-112.2455 433.9464,-104.1112 427.3921,-101.6533"/>
</g>
<!-- Node88&#45;&gt;Node79 -->
<g id="edge14" class="edge">
<title>Node88&#45;&gt;Node79</title>
<path fill="none" stroke="#191970" d="M531.4463,-107.9741C510.4435,-97.8348 482.6309,-84.408 464.1809,-75.5011"/>
<polygon fill="#191970" stroke="#191970" points="530.0317,-111.1776 540.5589,-112.3733 533.075,-104.8738 530.0317,-111.1776"/>
</g>
<!-- Node89 -->
<g id="node15" class="node">
<title>Node89</title>
<g id="a_node15"><a xlink:href="simpletext_8hpp.html" target="_top" xlink:title="simpletext.hpp">
<polygon fill="#ffffff" stroke="#000000" points="530.5,-56.5 530.5,-75.5 610.5,-75.5 610.5,-56.5 530.5,-56.5"/>
<text text-anchor="middle" x="570.5" y="-63.5" font-family="Helvetica,sans-Serif" font-size="10.00" fill="#000000">simpletext.hpp</text>
</a>
</g>
</g>
<!-- Node88&#45;&gt;Node89 -->
<g id="edge15" class="edge">
<title>Node88&#45;&gt;Node89</title>
<path fill="none" stroke="#191970" d="M564.0433,-102.1575C565.6509,-93.155 567.4786,-82.9199 568.7781,-75.6427"/>
<polygon fill="#191970" stroke="#191970" points="560.5544,-101.786 562.2419,-112.2455 567.4454,-103.0166 560.5544,-101.786"/>
</g>
<!-- Node92 -->
<g id="node17" class="node">
<title>Node92</title>
<g id="a_node17"><a xlink:href="propertyformatters_8hpp_source.html" target="_top" xlink:title="propertyformatters.hpp">
<polygon fill="#ffffff" stroke="#000000" points="638,-56.5 638,-75.5 753,-75.5 753,-56.5 638,-56.5"/>
<text text-anchor="middle" x="695.5" y="-63.5" font-family="Helvetica,sans-Serif" font-size="10.00" fill="#000000">propertyformatters.hpp</text>
</a>
</g>
</g>
<!-- Node91&#45;&gt;Node92 -->
<g id="edge17" class="edge">
<title>Node91&#45;&gt;Node92</title>
<path fill="none" stroke="#191970" d="M695.5,-102.1575C695.5,-93.155 695.5,-82.9199 695.5,-75.6427"/>
<polygon fill="#191970" stroke="#191970" points="692.0001,-102.2455 695.5,-112.2455 699.0001,-102.2456 692.0001,-102.2455"/>
</g>
<!-- Node70 -->
<g id="node8" class="node">
<title>Node70</title>
<g id="a_node8"><a xlink:href="calculus_8hpp_source.html" target="_top" xlink:title="calculus.hpp">
<polygon fill="#ffffff" stroke="#ff0000" points="0,-.5 0,-19.5 71,-19.5 71,-.5 0,-.5"/>
<text text-anchor="middle" x="35.5" y="-7.5" font-family="Helvetica,sans-Serif" font-size="10.00" fill="#000000">calculus.hpp</text>
</a>
</g>
</g>
<!-- Node69&#45;&gt;Node70 -->
<g id="edge7" class="edge">
<title>Node69&#45;&gt;Node70</title>
<path fill="none" stroke="#191970" d="M110.0281,-51.3225C91.9875,-41.3198 68.6123,-28.3593 52.8913,-19.6427"/>
<polygon fill="#191970" stroke="#191970" points="108.4643,-54.4574 118.9071,-56.2455 111.8587,-48.3354 108.4643,-54.4574"/>
</g>
<!-- Node75 -->
<g id="node9" class="node">
<title>Node75</title>
<g id="a_node9"><a xlink:href="autocast_8hpp_source.html" target="_top" xlink:title="autocast.hpp">
<polygon fill="#ffffff" stroke="#000000" points="89,-.5 89,-19.5 162,-19.5 162,-.5 89,-.5"/>
<text text-anchor="middle" x="125.5" y="-7.5" font-family="Helvetica,sans-Serif" font-size="10.00" fill="#000000">autocast.hpp</text>
</a>
</g>
</g>
<!-- Node69&#45;&gt;Node75 -->
<g id="edge8" class="edge">
<title>Node69&#45;&gt;Node75</title>
<path fill="none" stroke="#191970" d="M132.6024,-46.1575C130.834,-37.155 128.8235,-26.9199 127.3941,-19.6427"/>
<polygon fill="#191970" stroke="#191970" points="129.222,-47.1077 134.5839,-56.2455 136.0908,-45.7584 129.222,-47.1077"/>
</g>
<!-- Node76 -->
<g id="node10" class="node">
<title>Node76</title>
<g id="a_node10"><a xlink:href="elvisoperator_8hpp_source.html" target="_top" xlink:title="elvisoperator.hpp">
<polygon fill="#ffffff" stroke="#000000" points="180.5,-.5 180.5,-19.5 270.5,-19.5 270.5,-.5 180.5,-.5"/>
<text text-anchor="middle" x="225.5" y="-7.5" font-family="Helvetica,sans-Serif" font-size="10.00" fill="#000000">elvisoperator.hpp</text>
</a>
</g>
</g>
<!-- Node69&#45;&gt;Node76 -->
<g id="edge9" class="edge">
<title>Node69&#45;&gt;Node76</title>
<path fill="none" stroke="#191970" d="M160.7064,-50.769C176.4775,-40.8456 196.576,-28.1994 210.175,-19.6427"/>
<polygon fill="#191970" stroke="#191970" points="158.6026,-47.9575 152.0026,-56.2455 162.3305,-53.8823 158.6026,-47.9575"/>
</g>
<!-- Node80 -->
<g id="node12" class="node">
<title>Node80</title>
<g id="a_node12"><a xlink:href="plaintextlogger_8hpp.html" target="_top" xlink:title="plaintextlogger.hpp">
<polygon fill="#ffffff" stroke="#ff0000" points="288.5,-.5 288.5,-19.5 386.5,-19.5 386.5,-.5 288.5,-.5"/>
<text text-anchor="middle" x="337.5" y="-7.5" font-family="Helvetica,sans-Serif" font-size="10.00" fill="#000000">plaintextlogger.hpp</text>
</a>
</g>
</g>
<!-- Node79&#45;&gt;Node80 -->
<g id="edge11" class="edge">
<title>Node79&#45;&gt;Node80</title>
<path fill="none" stroke="#191970" d="M416.9801,-51.5971C397.7983,-41.558 372.7322,-28.4393 355.9244,-19.6427"/>
<polygon fill="#191970" stroke="#191970" points="415.3791,-54.7095 425.862,-56.2455 418.625,-48.5075 415.3791,-54.7095"/>
</g>
<!-- Node86 -->
<g id="node13" class="node">
<title>Node86</title>
<g id="a_node13"><a xlink:href="ansilogger_8hpp.html" target="_top" xlink:title="ansilogger.hpp">
<polygon fill="#ffffff" stroke="#ff0000" points="405,-.5 405,-19.5 484,-19.5 484,-.5 405,-.5"/>
<text text-anchor="middle" x="444.5" y="-7.5" font-family="Helvetica,sans-Serif" font-size="10.00" fill="#000000">ansilogger.hpp</text>
</a>
</g>
</g>
<!-- Node79&#45;&gt;Node86 -->
<g id="edge12" class="edge">
<title>Node79&#45;&gt;Node86</title>
<path fill="none" stroke="#191970" d="M444.5,-46.1575C444.5,-37.155 444.5,-26.9199 444.5,-19.6427"/>
<polygon fill="#191970" stroke="#191970" points="441.0001,-46.2455 444.5,-56.2455 448.0001,-46.2456 441.0001,-46.2455"/>
</g>
<!-- Node87 -->
<g id="node14" class="node">
<title>Node87</title>
<g id="a_node14"><a xlink:href="windowsconsolelogger_8hpp.html" target="_top" xlink:title="windowsconsolelogger.hpp">
<polygon fill="#ffffff" stroke="#ff0000" points="502,-.5 502,-19.5 635,-19.5 635,-.5 502,-.5"/>
<text text-anchor="middle" x="568.5" y="-7.5" font-family="Helvetica,sans-Serif" font-size="10.00" fill="#000000">windowsconsolelogger.hpp</text>
</a>
</g>
</g>
<!-- Node79&#45;&gt;Node87 -->
<g id="edge13" class="edge">
<title>Node79&#45;&gt;Node87</title>
<path fill="none" stroke="#191970" d="M474.9524,-52.2473C497.4722,-42.0771 527.5617,-28.4883 547.4618,-19.5011"/>
<polygon fill="#191970" stroke="#191970" points="473.4895,-49.0675 465.8164,-56.3733 476.3706,-55.4471 473.4895,-49.0675"/>
</g>
<!-- Node90 -->
<g id="node16" class="node">
<title>Node90</title>
<g id="a_node16"><a xlink:href="cliutil_8hpp.html" target="_top" xlink:title="cliutil.hpp">
<polygon fill="#ffffff" stroke="#000000" points="653.5,-.5 653.5,-19.5 711.5,-19.5 711.5,-.5 653.5,-.5"/>
<text text-anchor="middle" x="682.5" y="-7.5" font-family="Helvetica,sans-Serif" font-size="10.00" fill="#000000">cliutil.hpp</text>
</a>
</g>
</g>
<!-- Node89&#45;&gt;Node90 -->
<g id="edge16" class="edge">
<title>Node89&#45;&gt;Node90</title>
<path fill="none" stroke="#191970" d="M598.8263,-51.8368C619.0721,-41.7139 645.7642,-28.3679 663.4978,-19.5011"/>
<polygon fill="#191970" stroke="#191970" points="597.1325,-48.7706 589.7535,-56.3733 600.263,-55.0316 597.1325,-48.7706"/>
</g>
</g>
</svg>
