<?xml version="1.0" encoding="UTF-8" standalone="no"?>
<!DOCTYPE svg PUBLIC "-//W3C//DTD SVG 1.1//EN"
 "http://www.w3.org/Graphics/SVG/1.1/DTD/svg11.dtd">
<!-- Generated by graphviz version 2.40.1 (20161225.0304)
 -->
<!-- Title: Graphical Class Hierarchy Pages: 1 -->
<svg width="560pt" height="66pt"
 viewBox="0.00 0.00 560.00 66.00" xmlns="http://www.w3.org/2000/svg" xmlns:xlink="http://www.w3.org/1999/xlink">
<g id="graph0" class="graph" transform="scale(1 1) rotate(0) translate(4 62)">
<title>Graphical Class Hierarchy</title>
<polygon fill="#ffffff" stroke="transparent" points="-4,4 -4,-62 556,-62 556,4 -4,4"/>
<!-- Node0 -->
<g id="node1" class="node">
<title>Node0</title>
<g id="a_node1"><a xlink:href="classaworx_1_1lib_1_1strings_1_1StringBase.html" target="_top" xlink:title="StringBase\&lt;character\&gt;">
<polygon fill="#ffffff" stroke="#000000" points="0,-19.5 0,-38.5 117,-38.5 117,-19.5 0,-19.5"/>
<text text-anchor="middle" x="58.5" y="-26.5" font-family="Helvetica,sans-Serif" font-size="10.00" fill="#000000">StringBase&lt;character&gt;</text>
</a>
</g>
</g>
<!-- Node1 -->
<g id="node2" class="node">
<title>Node1</title>
<g id="a_node2"><a xlink:href="classaworx_1_1lib_1_1strings_1_1SubstringBase.html" target="_top" xlink:title="SubstringBase\&lt;character\&gt;">
<polygon fill="#ffffff" stroke="#000000" points="153,-38.5 153,-57.5 286,-57.5 286,-38.5 153,-38.5"/>
<text text-anchor="middle" x="219.5" y="-45.5" font-family="Helvetica,sans-Serif" font-size="10.00" fill="#000000">SubstringBase&lt;character&gt;</text>
</a>
</g>
</g>
<!-- Node0&#45;&gt;Node1 -->
<g id="edge1" class="edge">
<title>Node0&#45;&gt;Node1</title>
<path fill="none" stroke="#191970" d="M127.2771,-37.1165C135.7295,-38.114 144.3581,-39.1323 152.7793,-40.1261"/>
<polygon fill="#191970" stroke="#191970" points="127.4214,-33.6094 117.0801,-35.9132 126.601,-40.5611 127.4214,-33.6094"/>
</g>
<!-- Node2 -->
<g id="node3" class="node">
<title>Node2</title>
<g id="a_node3"><a xlink:href="classaworx_1_1lib_1_1strings_1_1TStringBase.html" target="_top" xlink:title="TStringBase\&lt;character\&gt;">
<polygon fill="#ffffff" stroke="#000000" points="158,-.5 158,-19.5 281,-19.5 281,-.5 158,-.5"/>
<text text-anchor="middle" x="219.5" y="-7.5" font-family="Helvetica,sans-Serif" font-size="10.00" fill="#000000">TStringBase&lt;character&gt;</text>
</a>
</g>
</g>
<!-- Node0&#45;&gt;Node2 -->
<g id="edge2" class="edge">
<title>Node0&#45;&gt;Node2</title>
<path fill="none" stroke="#191970" d="M127.1971,-20.8929C137.4259,-19.6858 147.9146,-18.448 157.9832,-17.2597"/>
<polygon fill="#191970" stroke="#191970" points="126.601,-17.4389 117.0801,-22.0868 127.4214,-24.3906 126.601,-17.4389"/>
</g>
<!-- Node3 -->
<g id="node4" class="node">
<title>Node3</title>
<g id="a_node4"><a xlink:href="classaworx_1_1lib_1_1strings_1_1AStringBase.html" target="_top" xlink:title="AStringBase\&lt;character\&gt;">
<polygon fill="#ffffff" stroke="#000000" points="322,-.5 322,-19.5 446,-19.5 446,-.5 322,-.5"/>
<text text-anchor="middle" x="384" y="-7.5" font-family="Helvetica,sans-Serif" font-size="10.00" fill="#000000">AStringBase&lt;character&gt;</text>
</a>
</g>
</g>
<!-- Node2&#45;&gt;Node3 -->
<g id="edge3" class="edge">
<title>Node2&#45;&gt;Node3</title>
<path fill="none" stroke="#191970" d="M291.3245,-10C301.5234,-10 311.9397,-10 321.9323,-10"/>
<polygon fill="#191970" stroke="#191970" points="291.2218,-6.5001 281.2217,-10 291.2217,-13.5001 291.2218,-6.5001"/>
</g>
<!-- Node4 -->
<g id="node5" class="node">
<title>Node4</title>
<g id="a_node5"><a xlink:href="classaworx_1_1lib_1_1expressions_1_1plugins_1_1ScopeString.html" target="_top" xlink:title="ScopeString">
<polygon fill="#ffffff" stroke="#000000" points="482,-.5 482,-19.5 552,-19.5 552,-.5 482,-.5"/>
<text text-anchor="middle" x="517" y="-7.5" font-family="Helvetica,sans-Serif" font-size="10.00" fill="#000000">ScopeString</text>
</a>
</g>
</g>
<!-- Node3&#45;&gt;Node4 -->
<g id="edge4" class="edge">
<title>Node3&#45;&gt;Node4</title>
<path fill="none" stroke="#191970" d="M456.4934,-10C465.2245,-10 473.8167,-10 481.6613,-10"/>
<polygon fill="#191970" stroke="#191970" points="456.2165,-6.5001 446.2165,-10 456.2165,-13.5001 456.2165,-6.5001"/>
</g>
</g>
</svg>
