<?xml version="1.0" encoding="UTF-8" standalone="no"?>
<!DOCTYPE svg PUBLIC "-//W3C//DTD SVG 1.1//EN"
 "http://www.w3.org/Graphics/SVG/1.1/DTD/svg11.dtd">
<!-- Generated by graphviz version 2.40.1 (20161225.0304)
 -->
<!-- Title: Graphical Class Hierarchy Pages: 1 -->
<svg width="316pt" height="142pt"
 viewBox="0.00 0.00 316.00 142.00" xmlns="http://www.w3.org/2000/svg" xmlns:xlink="http://www.w3.org/1999/xlink">
<g id="graph0" class="graph" transform="scale(1 1) rotate(0) translate(4 138)">
<title>Graphical Class Hierarchy</title>
<polygon fill="#ffffff" stroke="transparent" points="-4,4 -4,-138 312,-138 312,4 -4,4"/>
<!-- Node0 -->
<g id="node1" class="node">
<title>Node0</title>
<g id="a_node1"><a xlink:href="structaworx_1_1lib_1_1expressions_1_1CompilerPlugin.html" target="_top" xlink:title="CompilerPlugin">
<polygon fill="#ffffff" stroke="#000000" points="0,-57.5 0,-76.5 83,-76.5 83,-57.5 0,-57.5"/>
<text text-anchor="middle" x="41.5" y="-64.5" font-family="Helvetica,sans-Serif" font-size="10.00" fill="#000000">CompilerPlugin</text>
</a>
</g>
</g>
<!-- Node1 -->
<g id="node2" class="node">
<title>Node1</title>
<g id="a_node2"><a xlink:href="structaworx_1_1lib_1_1expressions_1_1plugins_1_1AutoCast.html" target="_top" xlink:title="AutoCast">
<polygon fill="#ffffff" stroke="#000000" points="128,-95.5 128,-114.5 186,-114.5 186,-95.5 128,-95.5"/>
<text text-anchor="middle" x="157" y="-102.5" font-family="Helvetica,sans-Serif" font-size="10.00" fill="#000000">AutoCast</text>
</a>
</g>
</g>
<!-- Node0&#45;&gt;Node1 -->
<g id="edge1" class="edge">
<title>Node0&#45;&gt;Node1</title>
<path fill="none" stroke="#191970" d="M80.4841,-79.8259C95.9817,-84.9247 113.5024,-90.6891 127.8638,-95.4141"/>
<polygon fill="#191970" stroke="#191970" points="81.2385,-76.3896 70.6455,-76.589 79.0508,-83.039 81.2385,-76.3896"/>
</g>
<!-- Node2 -->
<g id="node3" class="node">
<title>Node2</title>
<g id="a_node3"><a xlink:href="structaworx_1_1lib_1_1expressions_1_1plugins_1_1Calculus.html" target="_top" xlink:title="Calculus">
<polygon fill="#ffffff" stroke="#000000" points="129.5,-57.5 129.5,-76.5 184.5,-76.5 184.5,-57.5 129.5,-57.5"/>
<text text-anchor="middle" x="157" y="-64.5" font-family="Helvetica,sans-Serif" font-size="10.00" fill="#000000">Calculus</text>
</a>
</g>
</g>
<!-- Node0&#45;&gt;Node2 -->
<g id="edge2" class="edge">
<title>Node0&#45;&gt;Node2</title>
<path fill="none" stroke="#191970" d="M93.4764,-67C105.8733,-67 118.6287,-67 129.4266,-67"/>
<polygon fill="#191970" stroke="#191970" points="93.1982,-63.5001 83.1982,-67 93.1981,-70.5001 93.1982,-63.5001"/>
</g>
<!-- Node7 -->
<g id="node4" class="node">
<title>Node7</title>
<g id="a_node4"><a xlink:href="structaworx_1_1lib_1_1expressions_1_1plugins_1_1ElvisOperator.html" target="_top" xlink:title="ElvisOperator">
<polygon fill="#ffffff" stroke="#000000" points="119,-19.5 119,-38.5 195,-38.5 195,-19.5 119,-19.5"/>
<text text-anchor="middle" x="157" y="-26.5" font-family="Helvetica,sans-Serif" font-size="10.00" fill="#000000">ElvisOperator</text>
</a>
</g>
</g>
<!-- Node0&#45;&gt;Node7 -->
<g id="edge3" class="edge">
<title>Node0&#45;&gt;Node7</title>
<path fill="none" stroke="#191970" d="M80.4841,-54.1741C95.9817,-49.0753 113.5024,-43.3109 127.8638,-38.5859"/>
<polygon fill="#191970" stroke="#191970" points="79.0508,-50.961 70.6455,-57.411 81.2385,-57.6104 79.0508,-50.961"/>
</g>
<!-- Node3 -->
<g id="node5" class="node">
<title>Node3</title>
<g id="a_node5"><a xlink:href="structaworx_1_1lib_1_1expressions_1_1plugins_1_1Arithmetics.html" target="_top" xlink:title="Arithmetics">
<polygon fill="#ffffff" stroke="#000000" points="236.5,-114.5 236.5,-133.5 302.5,-133.5 302.5,-114.5 236.5,-114.5"/>
<text text-anchor="middle" x="269.5" y="-121.5" font-family="Helvetica,sans-Serif" font-size="10.00" fill="#000000">Arithmetics</text>
</a>
</g>
</g>
<!-- Node2&#45;&gt;Node3 -->
<g id="edge4" class="edge">
<title>Node2&#45;&gt;Node3</title>
<path fill="none" stroke="#191970" d="M185.3722,-81.1005C188.6242,-82.7421 191.8878,-84.4009 195,-86 211.0918,-94.2681 214.8867,-96.7738 231,-105 237.1075,-108.118 243.7975,-111.4488 249.8626,-114.4368"/>
<polygon fill="#191970" stroke="#191970" points="186.8806,-77.9415 176.3731,-76.5839 183.7406,-84.1978 186.8806,-77.9415"/>
</g>
<!-- Node4 -->
<g id="node6" class="node">
<title>Node4</title>
<g id="a_node6"><a xlink:href="structaworx_1_1lib_1_1expressions_1_1plugins_1_1DateAndTime.html" target="_top" xlink:title="DateAndTime">
<polygon fill="#ffffff" stroke="#000000" points="231,-76.5 231,-95.5 308,-95.5 308,-76.5 231,-76.5"/>
<text text-anchor="middle" x="269.5" y="-83.5" font-family="Helvetica,sans-Serif" font-size="10.00" fill="#000000">DateAndTime</text>
</a>
</g>
</g>
<!-- Node2&#45;&gt;Node4 -->
<g id="edge5" class="edge">
<title>Node2&#45;&gt;Node4</title>
<path fill="none" stroke="#191970" d="M194.417,-73.3193C206.1053,-75.2933 219.02,-77.4745 230.795,-79.4631"/>
<polygon fill="#191970" stroke="#191970" points="194.9638,-69.8622 184.5206,-71.6479 193.7981,-76.7644 194.9638,-69.8622"/>
</g>
<!-- Node5 -->
<g id="node7" class="node">
<title>Node5</title>
<g id="a_node7"><a xlink:href="structaworx_1_1lib_1_1expressions_1_1plugins_1_1Math.html" target="_top" xlink:title="Math">
<polygon fill="#ffffff" stroke="#000000" points="250.5,-38.5 250.5,-57.5 288.5,-57.5 288.5,-38.5 250.5,-38.5"/>
<text text-anchor="middle" x="269.5" y="-45.5" font-family="Helvetica,sans-Serif" font-size="10.00" fill="#000000">Math</text>
</a>
</g>
</g>
<!-- Node2&#45;&gt;Node5 -->
<g id="edge6" class="edge">
<title>Node2&#45;&gt;Node5</title>
<path fill="none" stroke="#191970" d="M194.5395,-60.66C213.2624,-57.4979 235.1065,-53.8087 250.3671,-51.2313"/>
<polygon fill="#191970" stroke="#191970" points="193.7981,-57.2356 184.5206,-62.3521 194.9638,-64.1378 193.7981,-57.2356"/>
</g>
<!-- Node6 -->
<g id="node8" class="node">
<title>Node6</title>
<g id="a_node8"><a xlink:href="structaworx_1_1lib_1_1expressions_1_1plugins_1_1Strings.html" target="_top" xlink:title="Strings">
<polygon fill="#ffffff" stroke="#000000" points="246,-.5 246,-19.5 293,-19.5 293,-.5 246,-.5"/>
<text text-anchor="middle" x="269.5" y="-7.5" font-family="Helvetica,sans-Serif" font-size="10.00" fill="#000000">Strings</text>
</a>
</g>
</g>
<!-- Node2&#45;&gt;Node6 -->
<g id="edge7" class="edge">
<title>Node2&#45;&gt;Node6</title>
<path fill="none" stroke="#191970" d="M185.3722,-52.8995C188.6242,-51.2579 191.8878,-49.5991 195,-48 211.0918,-39.7319 214.8867,-37.2262 231,-29 237.1075,-25.882 243.7975,-22.5512 249.8626,-19.5632"/>
<polygon fill="#191970" stroke="#191970" points="183.7406,-49.8022 176.3731,-57.4161 186.8806,-56.0585 183.7406,-49.8022"/>
</g>
</g>
</svg>
