<?xml version="1.0" encoding="UTF-8" standalone="no"?>
<!DOCTYPE svg PUBLIC "-//W3C//DTD SVG 1.1//EN"
 "http://www.w3.org/Graphics/SVG/1.1/DTD/svg11.dtd">
<!-- Generated by graphviz version 2.40.1 (20161225.0304)
 -->
<!-- Title: Graphical Class Hierarchy Pages: 1 -->
<svg width="180pt" height="104pt"
 viewBox="0.00 0.00 180.00 104.00" xmlns="http://www.w3.org/2000/svg" xmlns:xlink="http://www.w3.org/1999/xlink">
<g id="graph0" class="graph" transform="scale(1 1) rotate(0) translate(4 100)">
<title>Graphical Class Hierarchy</title>
<polygon fill="#ffffff" stroke="transparent" points="-4,4 -4,-100 176,-100 176,4 -4,4"/>
<!-- Node0 -->
<g id="node1" class="node">
<title>Node0</title>
<g id="a_node1"><a xlink:href="structaworx_1_1lib_1_1cli_1_1ArgumentDef.html" target="_top" xlink:title="ArgumentDef">
<polygon fill="#ffffff" stroke="#000000" points="0,-38.5 0,-57.5 74,-57.5 74,-38.5 0,-38.5"/>
<text text-anchor="middle" x="37" y="-45.5" font-family="Helvetica,sans-Serif" font-size="10.00" fill="#000000">ArgumentDef</text>
</a>
</g>
</g>
<!-- Node1 -->
<g id="node2" class="node">
<title>Node1</title>
<g id="a_node2"><a xlink:href="structaworx_1_1lib_1_1cli_1_1Command.html" target="_top" xlink:title="Command">
<polygon fill="#ffffff" stroke="#000000" points="110,-76.5 110,-95.5 172,-95.5 172,-76.5 110,-76.5"/>
<text text-anchor="middle" x="141" y="-83.5" font-family="Helvetica,sans-Serif" font-size="10.00" fill="#000000">Command</text>
</a>
</g>
</g>
<!-- Node0&#45;&gt;Node1 -->
<g id="edge1" class="edge">
<title>Node0&#45;&gt;Node1</title>
<path fill="none" stroke="#191970" d="M72.9019,-61.118C86.6571,-66.1439 102.0796,-71.7791 114.7648,-76.4141"/>
<polygon fill="#191970" stroke="#191970" points="73.8374,-57.7336 63.2436,-57.589 71.435,-64.3084 73.8374,-57.7336"/>
</g>
<!-- Node2 -->
<g id="node3" class="node">
<title>Node2</title>
<g id="a_node3"><a xlink:href="structaworx_1_1lib_1_1cli_1_1Option.html" target="_top" xlink:title="Option">
<polygon fill="#ffffff" stroke="#000000" points="118.5,-38.5 118.5,-57.5 163.5,-57.5 163.5,-38.5 118.5,-38.5"/>
<text text-anchor="middle" x="141" y="-45.5" font-family="Helvetica,sans-Serif" font-size="10.00" fill="#000000">Option</text>
</a>
</g>
</g>
<!-- Node0&#45;&gt;Node2 -->
<g id="edge2" class="edge">
<title>Node0&#45;&gt;Node2</title>
<path fill="none" stroke="#191970" d="M84.4382,-48C96.1899,-48 108.2546,-48 118.2069,-48"/>
<polygon fill="#191970" stroke="#191970" points="84.2527,-44.5001 74.2526,-48 84.2526,-51.5001 84.2527,-44.5001"/>
</g>
<!-- Node3 -->
<g id="node4" class="node">
<title>Node3</title>
<g id="a_node4"><a xlink:href="structaworx_1_1lib_1_1cli_1_1Parameter.html" target="_top" xlink:title="Parameter">
<polygon fill="#ffffff" stroke="#000000" points="110,-.5 110,-19.5 172,-19.5 172,-.5 110,-.5"/>
<text text-anchor="middle" x="141" y="-7.5" font-family="Helvetica,sans-Serif" font-size="10.00" fill="#000000">Parameter</text>
</a>
</g>
</g>
<!-- Node0&#45;&gt;Node3 -->
<g id="edge3" class="edge">
<title>Node0&#45;&gt;Node3</title>
<path fill="none" stroke="#191970" d="M72.9019,-34.882C86.6571,-29.8561 102.0796,-24.2209 114.7648,-19.5859"/>
<polygon fill="#191970" stroke="#191970" points="71.435,-31.6916 63.2436,-38.411 73.8374,-38.2664 71.435,-31.6916"/>
</g>
</g>
</svg>
