<?xml version="1.0" encoding="UTF-8" standalone="no"?>
<!DOCTYPE svg PUBLIC "-//W3C//DTD SVG 1.1//EN"
 "http://www.w3.org/Graphics/SVG/1.1/DTD/svg11.dtd">
<!-- Generated by graphviz version 2.40.1 (20161225.0304)
 -->
<!-- Title: Graphical Class Hierarchy Pages: 1 -->
<svg width="292pt" height="66pt"
 viewBox="0.00 0.00 292.00 66.00" xmlns="http://www.w3.org/2000/svg" xmlns:xlink="http://www.w3.org/1999/xlink">
<g id="graph0" class="graph" transform="scale(1 1) rotate(0) translate(4 62)">
<title>Graphical Class Hierarchy</title>
<polygon fill="#ffffff" stroke="transparent" points="-4,4 -4,-62 288,-62 288,4 -4,4"/>
<!-- Node205 -->
<g id="node1" class="node">
<title>Node205</title>
<g id="a_node1"><a xlink:href="classaworx_1_1lib_1_1lang_1_1ReportWriter.html" target="_top" xlink:title="ReportWriter">
<polygon fill="#ffffff" stroke="#000000" points="39,-.5 39,-19.5 111,-19.5 111,-.5 39,-.5"/>
<text text-anchor="middle" x="75" y="-7.5" font-family="Helvetica,sans-Serif" font-size="10.00" fill="#000000">ReportWriter</text>
</a>
</g>
</g>
<!-- Node1 -->
<g id="node3" class="node">
<title>Node1</title>
<g id="a_node3"><a xlink:href="classaworx_1_1lib_1_1lang_1_1ReportWriterStdIO.html" target="_top" xlink:title="ReportWriterStdIO">
<polygon fill="#ffffff" stroke="#000000" points="186,-38.5 186,-57.5 284,-57.5 284,-38.5 186,-38.5"/>
<text text-anchor="middle" x="235" y="-45.5" font-family="Helvetica,sans-Serif" font-size="10.00" fill="#000000">ReportWriterStdIO</text>
</a>
</g>
</g>
<!-- Node205&#45;&gt;Node1 -->
<g id="edge2" class="edge">
<title>Node205&#45;&gt;Node1</title>
<path fill="none" stroke="#191970" d="M121.3062,-20.9977C144.5955,-26.5289 172.5462,-33.1672 194.9059,-38.4777"/>
<polygon fill="#191970" stroke="#191970" points="121.8446,-17.5283 111.3065,-18.6228 120.2271,-24.3389 121.8446,-17.5283"/>
</g>
<!-- Node206 -->
<g id="node4" class="node">
<title>Node206</title>
<g id="a_node4"><a xlink:href="classaworx_1_1lib_1_1lox_1_1ALoxReportWriter.html" target="_top" xlink:title="ALoxReportWriter">
<polygon fill="#ffffff" stroke="#000000" points="187.5,-.5 187.5,-19.5 282.5,-19.5 282.5,-.5 187.5,-.5"/>
<text text-anchor="middle" x="235" y="-7.5" font-family="Helvetica,sans-Serif" font-size="10.00" fill="#000000">ALoxReportWriter</text>
</a>
</g>
</g>
<!-- Node205&#45;&gt;Node206 -->
<g id="edge3" class="edge">
<title>Node205&#45;&gt;Node206</title>
<path fill="none" stroke="#191970" d="M121.4432,-10C142.1285,-10 166.4694,-10 187.2994,-10"/>
<polygon fill="#191970" stroke="#191970" points="121.3065,-6.5001 111.3065,-10 121.3064,-13.5001 121.3065,-6.5001"/>
</g>
<!-- Node0 -->
<g id="node2" class="node">
<title>Node0</title>
<g id="a_node2"><a xlink:href="classaworx_1_1lib_1_1lang_1_1Singleton.html" target="_top" xlink:title="Singleton\&lt;ReportWriterStdIO\&gt;">
<polygon fill="#ffffff" stroke="#000000" points="0,-38.5 0,-57.5 150,-57.5 150,-38.5 0,-38.5"/>
<text text-anchor="middle" x="75" y="-45.5" font-family="Helvetica,sans-Serif" font-size="10.00" fill="#000000">Singleton&lt;ReportWriterStdIO&gt;</text>
</a>
</g>
</g>
<!-- Node0&#45;&gt;Node1 -->
<g id="edge1" class="edge">
<title>Node0&#45;&gt;Node1</title>
<path fill="none" stroke="#191970" d="M160.4457,-48C169.0631,-48 177.5958,-48 185.6414,-48"/>
<polygon fill="#191970" stroke="#191970" points="160.3149,-44.5001 150.3149,-48 160.3148,-51.5001 160.3149,-44.5001"/>
</g>
</g>
</svg>
