<?xml version="1.0" encoding="UTF-8" standalone="no"?>
<!DOCTYPE svg PUBLIC "-//W3C//DTD SVG 1.1//EN"
 "http://www.w3.org/Graphics/SVG/1.1/DTD/svg11.dtd">
<!-- Generated by graphviz version 2.40.1 (20161225.0304)
 -->
<!-- Title: Graphical Class Hierarchy Pages: 1 -->
<svg width="489pt" height="104pt"
 viewBox="0.00 0.00 489.00 104.00" xmlns="http://www.w3.org/2000/svg" xmlns:xlink="http://www.w3.org/1999/xlink">
<g id="graph0" class="graph" transform="scale(1 1) rotate(0) translate(4 100)">
<title>Graphical Class Hierarchy</title>
<polygon fill="#ffffff" stroke="transparent" points="-4,4 -4,-100 485,-100 485,4 -4,4"/>
<!-- Node246 -->
<g id="node1" class="node">
<title>Node246</title>
<polygon fill="#ffffff" stroke="#bfbfbf" points="0,-38.5 0,-57.5 47,-57.5 47,-38.5 0,-38.5"/>
<text text-anchor="middle" x="23.5" y="-45.5" font-family="Helvetica,sans-Serif" font-size="10.00" fill="#000000">iterator</text>
</g>
<!-- Node0 -->
<g id="node2" class="node">
<title>Node0</title>
<g id="a_node2"><a xlink:href="classaworx_1_1lib_1_1lang_1_1EnumIterator_1_1RandomAccessIteratorBase.html" target="_top" xlink:title="EnumIterator\&lt;TEnum, TEnableIf\&gt;::RandomAccessIteratorBase\&lt;TPointer, TReference\&gt;">
<polygon fill="#ffffff" stroke="#000000" points="83,-76.5 83,-95.5 481,-95.5 481,-76.5 83,-76.5"/>
<text text-anchor="middle" x="282" y="-83.5" font-family="Helvetica,sans-Serif" font-size="10.00" fill="#000000">EnumIterator&lt;TEnum, TEnableIf&gt;::RandomAccessIteratorBase&lt;TPointer, TReference&gt;</text>
</a>
</g>
</g>
<!-- Node246&#45;&gt;Node0 -->
<g id="edge1" class="edge">
<title>Node246&#45;&gt;Node0</title>
<path fill="none" stroke="#191970" d="M56.7682,-60.0035C65.2299,-62.6731 74.3722,-65.2318 83,-67 102.0395,-70.902 122.2717,-74.006 142.2636,-76.4745"/>
<polygon fill="#191970" stroke="#191970" points="57.8119,-56.6624 47.2189,-56.8594 55.6227,-63.3113 57.8119,-56.6624"/>
</g>
<!-- Node248 -->
<g id="node3" class="node">
<title>Node248</title>
<g id="a_node3"><a xlink:href="classaworx_1_1lib_1_1strings_1_1StringBase_1_1RandomAccessIteratorBase.html" target="_top" xlink:title="StringBase\&lt;TChar\&gt;::RandomAccessIteratorBase\&lt;TPointer, TReference\&gt;">
<polygon fill="#ffffff" stroke="#000000" points="113.5,-38.5 113.5,-57.5 450.5,-57.5 450.5,-38.5 113.5,-38.5"/>
<text text-anchor="middle" x="282" y="-45.5" font-family="Helvetica,sans-Serif" font-size="10.00" fill="#000000">StringBase&lt;TChar&gt;::RandomAccessIteratorBase&lt;TPointer, TReference&gt;</text>
</a>
</g>
</g>
<!-- Node246&#45;&gt;Node248 -->
<g id="edge2" class="edge">
<title>Node246&#45;&gt;Node248</title>
<path fill="none" stroke="#191970" d="M57.7986,-48C73.1572,-48 92.5052,-48 113.3665,-48"/>
<polygon fill="#191970" stroke="#191970" points="57.3557,-44.5001 47.3557,-48 57.3557,-51.5001 57.3557,-44.5001"/>
</g>
<!-- Node249 -->
<g id="node4" class="node">
<title>Node249</title>
<g id="a_node4"><a xlink:href="classaworx_1_1lib_1_1util_1_1StringTree_1_1StdIterator.html" target="_top" xlink:title="StringTree\&lt;T, TAllocator, TSeparator\&gt;::StdIterator">
<polygon fill="#ffffff" stroke="#000000" points="165.5,-.5 165.5,-19.5 398.5,-19.5 398.5,-.5 165.5,-.5"/>
<text text-anchor="middle" x="282" y="-7.5" font-family="Helvetica,sans-Serif" font-size="10.00" fill="#000000">StringTree&lt;T, TAllocator, TSeparator&gt;::StdIterator</text>
</a>
</g>
</g>
<!-- Node246&#45;&gt;Node249 -->
<g id="edge3" class="edge">
<title>Node246&#45;&gt;Node249</title>
<path fill="none" stroke="#191970" d="M56.7682,-35.9965C65.2299,-33.3269 74.3722,-30.7682 83,-29 109.4343,-23.5826 138.1676,-19.7032 165.3652,-16.9274"/>
<polygon fill="#191970" stroke="#191970" points="55.6227,-32.6887 47.2189,-39.1406 57.8119,-39.3376 55.6227,-32.6887"/>
</g>
</g>
</svg>
