<?xml version="1.0" encoding="UTF-8" standalone="no"?>
<!DOCTYPE svg PUBLIC "-//W3C//DTD SVG 1.1//EN"
 "http://www.w3.org/Graphics/SVG/1.1/DTD/svg11.dtd">
<!-- Generated by graphviz version 2.40.1 (20161225.0304)
 -->
<!-- Title: Graphical Class Hierarchy Pages: 1 -->
<svg width="714pt" height="104pt"
 viewBox="0.00 0.00 714.00 104.00" xmlns="http://www.w3.org/2000/svg" xmlns:xlink="http://www.w3.org/1999/xlink">
<g id="graph0" class="graph" transform="scale(1 1) rotate(0) translate(4 100)">
<title>Graphical Class Hierarchy</title>
<polygon fill="#ffffff" stroke="transparent" points="-4,4 -4,-100 710,-100 710,4 -4,4"/>
<!-- Node4 -->
<g id="node1" class="node">
<title>Node4</title>
<g id="a_node1"><a xlink:href="classaworx_1_1lib_1_1strings_1_1PreallocatedStringBase.html" target="_top" xlink:title="PreallocatedStringBase\&lt;TChar, TCapacity\&gt;">
<polygon fill="#ffffff" stroke="#000000" points="500,-76.5 500,-95.5 706,-95.5 706,-76.5 500,-76.5"/>
<text text-anchor="middle" x="603" y="-83.5" font-family="Helvetica,sans-Serif" font-size="10.00" fill="#000000">PreallocatedStringBase&lt;TChar, TCapacity&gt;</text>
</a>
</g>
</g>
<!-- Node10 -->
<g id="node2" class="node">
<title>Node10</title>
<g id="a_node2"><a xlink:href="classaworx_1_1lib_1_1strings_1_1StringLiteralBase.html" target="_top" xlink:title="StringLiteralBase\&lt;TChar, TLength\&gt;">
<polygon fill="#ffffff" stroke="#000000" points="294,-76.5 294,-95.5 464,-95.5 464,-76.5 294,-76.5"/>
<text text-anchor="middle" x="379" y="-83.5" font-family="Helvetica,sans-Serif" font-size="10.00" fill="#000000">StringLiteralBase&lt;TChar, TLength&gt;</text>
</a>
</g>
</g>
<!-- Node0 -->
<g id="node3" class="node">
<title>Node0</title>
<g id="a_node3"><a xlink:href="classaworx_1_1lib_1_1strings_1_1StringBase.html" target="_top" xlink:title="StringBase\&lt;TChar\&gt;">
<polygon fill="#ffffff" stroke="#000000" points="0,-57.5 0,-76.5 103,-76.5 103,-57.5 0,-57.5"/>
<text text-anchor="middle" x="51.5" y="-64.5" font-family="Helvetica,sans-Serif" font-size="10.00" fill="#000000">StringBase&lt;TChar&gt;</text>
</a>
</g>
</g>
<!-- Node1 -->
<g id="node4" class="node">
<title>Node1</title>
<g id="a_node4"><a xlink:href="classaworx_1_1lib_1_1strings_1_1SubstringBase.html" target="_top" xlink:title="SubstringBase\&lt;TChar\&gt;">
<polygon fill="#ffffff" stroke="#000000" points="139,-76.5 139,-95.5 258,-95.5 258,-76.5 139,-76.5"/>
<text text-anchor="middle" x="198.5" y="-83.5" font-family="Helvetica,sans-Serif" font-size="10.00" fill="#000000">SubstringBase&lt;TChar&gt;</text>
</a>
</g>
</g>
<!-- Node0&#45;&gt;Node1 -->
<g id="edge1" class="edge">
<title>Node0&#45;&gt;Node1</title>
<path fill="none" stroke="#191970" d="M113.4544,-75.0077C121.8666,-76.095 130.4857,-77.209 138.856,-78.2909"/>
<polygon fill="#191970" stroke="#191970" points="113.6929,-71.5095 103.3267,-73.6987 112.7955,-78.4518 113.6929,-71.5095"/>
</g>
<!-- Node2 -->
<g id="node5" class="node">
<title>Node2</title>
<g id="a_node5"><a xlink:href="classaworx_1_1lib_1_1strings_1_1TStringBase.html" target="_top" xlink:title="TStringBase\&lt;TChar\&gt;">
<polygon fill="#ffffff" stroke="#000000" points="144,-38.5 144,-57.5 253,-57.5 253,-38.5 144,-38.5"/>
<text text-anchor="middle" x="198.5" y="-45.5" font-family="Helvetica,sans-Serif" font-size="10.00" fill="#000000">TStringBase&lt;TChar&gt;</text>
</a>
</g>
</g>
<!-- Node0&#45;&gt;Node2 -->
<g id="edge2" class="edge">
<title>Node0&#45;&gt;Node2</title>
<path fill="none" stroke="#191970" d="M113.3447,-59.0065C123.4938,-57.6947 133.9471,-56.3436 143.9038,-55.0567"/>
<polygon fill="#191970" stroke="#191970" points="112.7955,-55.5482 103.3267,-60.3013 113.6929,-62.4905 112.7955,-55.5482"/>
</g>
<!-- Node2&#45;&gt;Node10 -->
<g id="edge4" class="edge">
<title>Node2&#45;&gt;Node10</title>
<path fill="none" stroke="#191970" d="M253.9847,-59.681C279.582,-65.0699 309.5838,-71.3861 333.7798,-76.4799"/>
<polygon fill="#191970" stroke="#191970" points="254.5543,-56.2243 244.0478,-57.589 253.1122,-63.0741 254.5543,-56.2243"/>
</g>
<!-- Node3 -->
<g id="node6" class="node">
<title>Node3</title>
<g id="a_node6"><a xlink:href="classaworx_1_1lib_1_1strings_1_1AStringBase.html" target="_top" xlink:title="AStringBase\&lt;TChar\&gt;">
<polygon fill="#ffffff" stroke="#000000" points="324,-38.5 324,-57.5 434,-57.5 434,-38.5 324,-38.5"/>
<text text-anchor="middle" x="379" y="-45.5" font-family="Helvetica,sans-Serif" font-size="10.00" fill="#000000">AStringBase&lt;TChar&gt;</text>
</a>
</g>
</g>
<!-- Node2&#45;&gt;Node3 -->
<g id="edge3" class="edge">
<title>Node2&#45;&gt;Node3</title>
<path fill="none" stroke="#191970" d="M263.3343,-48C283.1718,-48 304.7931,-48 323.917,-48"/>
<polygon fill="#191970" stroke="#191970" points="263.1458,-44.5001 253.1458,-48 263.1458,-51.5001 263.1458,-44.5001"/>
</g>
<!-- Node11 -->
<g id="node8" class="node">
<title>Node11</title>
<g id="a_node8"><a xlink:href="classaworx_1_1lib_1_1strings_1_1StringLiteralBase.html" target="_top" xlink:title="StringLiteralBase\&lt;TChar\&gt;">
<polygon fill="#ffffff" stroke="#000000" points="314.5,-.5 314.5,-19.5 443.5,-19.5 443.5,-.5 314.5,-.5"/>
<text text-anchor="middle" x="379" y="-7.5" font-family="Helvetica,sans-Serif" font-size="10.00" fill="#000000">StringLiteralBase&lt;TChar&gt;</text>
</a>
</g>
</g>
<!-- Node2&#45;&gt;Node11 -->
<g id="edge5" class="edge">
<title>Node2&#45;&gt;Node11</title>
<path fill="none" stroke="#191970" d="M253.9847,-36.319C279.582,-30.9301 309.5838,-24.6139 333.7798,-19.5201"/>
<polygon fill="#191970" stroke="#191970" points="253.1122,-32.9259 244.0478,-38.411 254.5543,-39.7757 253.1122,-32.9259"/>
</g>
<!-- Node3&#45;&gt;Node4 -->
<g id="edge6" class="edge">
<title>Node3&#45;&gt;Node4</title>
<path fill="none" stroke="#191970" d="M443.9785,-59.0231C476.5858,-64.5547 515.6901,-71.1885 546.9613,-76.4934"/>
<polygon fill="#191970" stroke="#191970" points="444.528,-55.5664 434.0835,-57.3445 443.3572,-62.4678 444.528,-55.5664"/>
</g>
<!-- Node6 -->
<g id="node7" class="node">
<title>Node6</title>
<g id="a_node7"><a xlink:href="classaworx_1_1lib_1_1strings_1_1PreallocatedStringBase.html" target="_top" xlink:title="PreallocatedStringBase\&lt;TChar\&gt;">
<polygon fill="#ffffff" stroke="#000000" points="524.5,-38.5 524.5,-57.5 681.5,-57.5 681.5,-38.5 524.5,-38.5"/>
<text text-anchor="middle" x="603" y="-45.5" font-family="Helvetica,sans-Serif" font-size="10.00" fill="#000000">PreallocatedStringBase&lt;TChar&gt;</text>
</a>
</g>
</g>
<!-- Node3&#45;&gt;Node6 -->
<g id="edge8" class="edge">
<title>Node3&#45;&gt;Node6</title>
<path fill="none" stroke="#191970" d="M444.2173,-48C469.3017,-48 498.203,-48 524.416,-48"/>
<polygon fill="#191970" stroke="#191970" points="444.0835,-44.5001 434.0835,-48 444.0834,-51.5001 444.0835,-44.5001"/>
</g>
<!-- Node5 -->
<g id="node9" class="node">
<title>Node5</title>
<g id="a_node9"><a xlink:href="structaworx_1_1lib_1_1strings_1_1ResourceString.html" target="_top" xlink:title="ResourceString">
<polygon fill="#ffffff" stroke="#000000" points="561,-.5 561,-19.5 645,-19.5 645,-.5 561,-.5"/>
<text text-anchor="middle" x="603" y="-7.5" font-family="Helvetica,sans-Serif" font-size="10.00" fill="#000000">ResourceString</text>
</a>
</g>
</g>
<!-- Node3&#45;&gt;Node5 -->
<g id="edge7" class="edge">
<title>Node3&#45;&gt;Node5</title>
<path fill="none" stroke="#191970" d="M443.9499,-36.9817C481.586,-30.597 527.8853,-22.7427 560.8046,-17.1581"/>
<polygon fill="#191970" stroke="#191970" points="443.3572,-33.5322 434.0835,-38.6555 444.528,-40.4336 443.3572,-33.5322"/>
</g>
</g>
</svg>
