<?xml version="1.0" encoding="UTF-8" standalone="no"?>
<!DOCTYPE svg PUBLIC "-//W3C//DTD SVG 1.1//EN"
 "http://www.w3.org/Graphics/SVG/1.1/DTD/svg11.dtd">
<!-- Generated by graphviz version 2.40.1 (20161225.0304)
 -->
<!-- Title: Graphical Class Hierarchy Pages: 1 -->
<svg width="369pt" height="142pt"
 viewBox="0.00 0.00 369.00 142.00" xmlns="http://www.w3.org/2000/svg" xmlns:xlink="http://www.w3.org/1999/xlink">
<g id="graph0" class="graph" transform="scale(1 1) rotate(0) translate(4 138)">
<title>Graphical Class Hierarchy</title>
<polygon fill="#ffffff" stroke="transparent" points="-4,4 -4,-138 365,-138 365,4 -4,4"/>
<!-- Node0 -->
<g id="node1" class="node">
<title>Node0</title>
<g id="a_node1"><a xlink:href="structaworx_1_1lib_1_1expressions_1_1CompilerPlugin_1_1CompilationInfo.html" target="_top" xlink:title="CompilerPlugin::CompilationInfo">
<polygon fill="#ffffff" stroke="#000000" points="0,-57.5 0,-76.5 157,-76.5 157,-57.5 0,-57.5"/>
<text text-anchor="middle" x="78.5" y="-64.5" font-family="Helvetica,sans-Serif" font-size="10.00" fill="#000000">CompilerPlugin::CompilationInfo</text>
</a>
</g>
</g>
<!-- Node1 -->
<g id="node2" class="node">
<title>Node1</title>
<g id="a_node2"><a xlink:href="structaworx_1_1lib_1_1expressions_1_1CompilerPlugin_1_1CIBinaryAutoCast.html" target="_top" xlink:title="CompilerPlugin::CIBinaryAutoCast">
<polygon fill="#ffffff" stroke="#000000" points="193,-114.5 193,-133.5 361,-133.5 361,-114.5 193,-114.5"/>
<text text-anchor="middle" x="277" y="-121.5" font-family="Helvetica,sans-Serif" font-size="10.00" fill="#000000">CompilerPlugin::CIBinaryAutoCast</text>
</a>
</g>
</g>
<!-- Node0&#45;&gt;Node1 -->
<g id="edge1" class="edge">
<title>Node0&#45;&gt;Node1</title>
<path fill="none" stroke="#191970" d="M114.5576,-79.9749C136.9642,-87.7854 166.4592,-97.6134 193,-105 205.2436,-108.4076 218.6173,-111.6469 231.0208,-114.4542"/>
<polygon fill="#191970" stroke="#191970" points="115.7033,-76.6677 105.1085,-76.6544 113.3826,-83.2718 115.7033,-76.6677"/>
</g>
<!-- Node2 -->
<g id="node3" class="node">
<title>Node2</title>
<g id="a_node3"><a xlink:href="structaworx_1_1lib_1_1expressions_1_1CompilerPlugin_1_1CIBinaryOp.html" target="_top" xlink:title="CompilerPlugin::CIBinaryOp">
<polygon fill="#ffffff" stroke="#000000" points="207,-76.5 207,-95.5 347,-95.5 347,-76.5 207,-76.5"/>
<text text-anchor="middle" x="277" y="-83.5" font-family="Helvetica,sans-Serif" font-size="10.00" fill="#000000">CompilerPlugin::CIBinaryOp</text>
</a>
</g>
</g>
<!-- Node0&#45;&gt;Node2 -->
<g id="edge2" class="edge">
<title>Node0&#45;&gt;Node2</title>
<path fill="none" stroke="#191970" d="M167.2778,-75.4976C180.4919,-76.7624 193.9563,-78.0512 206.7201,-79.273"/>
<polygon fill="#191970" stroke="#191970" points="167.5256,-72.0054 157.2376,-74.5366 166.8585,-78.9736 167.5256,-72.0054"/>
</g>
<!-- Node3 -->
<g id="node4" class="node">
<title>Node3</title>
<g id="a_node4"><a xlink:href="structaworx_1_1lib_1_1expressions_1_1CompilerPlugin_1_1CIFunction.html" target="_top" xlink:title="CompilerPlugin::CIFunction">
<polygon fill="#ffffff" stroke="#000000" points="208.5,-38.5 208.5,-57.5 345.5,-57.5 345.5,-38.5 208.5,-38.5"/>
<text text-anchor="middle" x="277" y="-45.5" font-family="Helvetica,sans-Serif" font-size="10.00" fill="#000000">CompilerPlugin::CIFunction</text>
</a>
</g>
</g>
<!-- Node0&#45;&gt;Node3 -->
<g id="edge3" class="edge">
<title>Node0&#45;&gt;Node3</title>
<path fill="none" stroke="#191970" d="M167.2109,-58.5088C180.9954,-57.1894 195.0542,-55.8437 208.3075,-54.5751"/>
<polygon fill="#191970" stroke="#191970" points="166.8585,-55.0264 157.2376,-59.4634 167.5256,-61.9946 166.8585,-55.0264"/>
</g>
<!-- Node4 -->
<g id="node5" class="node">
<title>Node4</title>
<g id="a_node5"><a xlink:href="structaworx_1_1lib_1_1expressions_1_1CompilerPlugin_1_1CIUnaryOp.html" target="_top" xlink:title="CompilerPlugin::CIUnaryOp">
<polygon fill="#ffffff" stroke="#000000" points="208,-.5 208,-19.5 346,-19.5 346,-.5 208,-.5"/>
<text text-anchor="middle" x="277" y="-7.5" font-family="Helvetica,sans-Serif" font-size="10.00" fill="#000000">CompilerPlugin::CIUnaryOp</text>
</a>
</g>
</g>
<!-- Node0&#45;&gt;Node4 -->
<g id="edge4" class="edge">
<title>Node0&#45;&gt;Node4</title>
<path fill="none" stroke="#191970" d="M114.5576,-54.0251C136.9642,-46.2146 166.4592,-36.3866 193,-29 205.2436,-25.5924 218.6173,-22.3531 231.0208,-19.5458"/>
<polygon fill="#191970" stroke="#191970" points="113.3826,-50.7282 105.1085,-57.3456 115.7033,-57.3323 113.3826,-50.7282"/>
</g>
</g>
</svg>
