<?xml version="1.0" encoding="UTF-8" standalone="no"?>
<!DOCTYPE svg PUBLIC "-//W3C//DTD SVG 1.1//EN"
 "http://www.w3.org/Graphics/SVG/1.1/DTD/svg11.dtd">
<!-- Generated by graphviz version 2.40.1 (20161225.0304)
 -->
<!-- Title: Graphical Class Hierarchy Pages: 1 -->
<svg width="401pt" height="66pt"
 viewBox="0.00 0.00 401.00 66.00" xmlns="http://www.w3.org/2000/svg" xmlns:xlink="http://www.w3.org/1999/xlink">
<g id="graph0" class="graph" transform="scale(1 1) rotate(0) translate(4 62)">
<title>Graphical Class Hierarchy</title>
<polygon fill="#ffffff" stroke="transparent" points="-4,4 -4,-62 397,-62 397,4 -4,4"/>
<!-- Node1 -->
<g id="node1" class="node">
<title>Node1</title>
<g id="a_node1"><a xlink:href="structaworx_1_1lib_1_1lang_1_1EnumMetaData.html" target="_top" xlink:title="EnumMetaData\&lt;TEnum, TEnableIf\&gt;">
<polygon fill="#ffffff" stroke="#000000" points="217,-38.5 217,-57.5 393,-57.5 393,-38.5 217,-38.5"/>
<text text-anchor="middle" x="305" y="-45.5" font-family="Helvetica,sans-Serif" font-size="10.00" fill="#000000">EnumMetaData&lt;TEnum, TEnableIf&gt;</text>
</a>
</g>
</g>
<!-- Node0 -->
<g id="node2" class="node">
<title>Node0</title>
<g id="a_node2"><a xlink:href="classaworx_1_1lib_1_1lang_1_1Singleton.html" target="_top" xlink:title="Singleton\&lt;EnumMetaData\&lt;TEnum\&gt;\&gt;">
<polygon fill="#ffffff" stroke="#000000" points="0,-19.5 0,-38.5 181,-38.5 181,-19.5 0,-19.5"/>
<text text-anchor="middle" x="90.5" y="-26.5" font-family="Helvetica,sans-Serif" font-size="10.00" fill="#000000">Singleton&lt;EnumMetaData&lt;TEnum&gt;&gt;</text>
</a>
</g>
</g>
<!-- Node0&#45;&gt;Node1 -->
<g id="edge1" class="edge">
<title>Node0&#45;&gt;Node1</title>
<path fill="none" stroke="#191970" d="M191.1451,-37.915C199.6871,-38.6716 208.2851,-39.4332 216.7214,-40.1804"/>
<polygon fill="#191970" stroke="#191970" points="191.4263,-34.4262 181.1564,-37.0302 190.8086,-41.3989 191.4263,-34.4262"/>
</g>
<!-- Node2 -->
<g id="node3" class="node">
<title>Node2</title>
<g id="a_node3"><a xlink:href="structaworx_1_1lib_1_1lang_1_1EnumMetaData.html" target="_top" xlink:title="EnumMetaData\&lt;TEnum\&gt;">
<polygon fill="#ffffff" stroke="#000000" points="241,-.5 241,-19.5 369,-19.5 369,-.5 241,-.5"/>
<text text-anchor="middle" x="305" y="-7.5" font-family="Helvetica,sans-Serif" font-size="10.00" fill="#000000">EnumMetaData&lt;TEnum&gt;</text>
</a>
</g>
</g>
<!-- Node0&#45;&gt;Node2 -->
<g id="edge2" class="edge">
<title>Node0&#45;&gt;Node2</title>
<path fill="none" stroke="#191970" d="M191.5887,-20.0458C208.4094,-18.5558 225.433,-17.0479 240.997,-15.6693"/>
<polygon fill="#191970" stroke="#191970" points="190.8086,-16.6011 181.1564,-20.9698 191.4262,-23.5738 190.8086,-16.6011"/>
</g>
</g>
</svg>
