<?xml version="1.0" encoding="UTF-8" standalone="no"?>
<!DOCTYPE svg PUBLIC "-//W3C//DTD SVG 1.1//EN"
 "http://www.w3.org/Graphics/SVG/1.1/DTD/svg11.dtd">
<!-- Generated by graphviz version 2.40.1 (20161225.0304)
 -->
<!-- Title: Graphical Class Hierarchy Pages: 1 -->
<svg width="395pt" height="28pt"
 viewBox="0.00 0.00 395.00 28.00" xmlns="http://www.w3.org/2000/svg" xmlns:xlink="http://www.w3.org/1999/xlink">
<g id="graph0" class="graph" transform="scale(1 1) rotate(0) translate(4 24)">
<title>Graphical Class Hierarchy</title>
<polygon fill="#ffffff" stroke="transparent" points="-4,4 -4,-24 391,-24 391,4 -4,4"/>
<!-- Node0 -->
<g id="node1" class="node">
<title>Node0</title>
<g id="a_node1"><a xlink:href="classaworx_1_1lib_1_1strings_1_1StringBase.html" target="_top" xlink:title="StringBase\&lt;nchar\&gt;">
<polygon fill="#ffffff" stroke="#000000" points="0,-.5 0,-19.5 101,-19.5 101,-.5 0,-.5"/>
<text text-anchor="middle" x="50.5" y="-7.5" font-family="Helvetica,sans-Serif" font-size="10.00" fill="#000000">StringBase&lt;nchar&gt;</text>
</a>
</g>
</g>
<!-- Node1 -->
<g id="node2" class="node">
<title>Node1</title>
<g id="a_node2"><a xlink:href="classaworx_1_1lib_1_1strings_1_1TStringBase.html" target="_top" xlink:title="TStringBase\&lt;nchar\&gt;">
<polygon fill="#ffffff" stroke="#000000" points="137,-.5 137,-19.5 244,-19.5 244,-.5 137,-.5"/>
<text text-anchor="middle" x="190.5" y="-7.5" font-family="Helvetica,sans-Serif" font-size="10.00" fill="#000000">TStringBase&lt;nchar&gt;</text>
</a>
</g>
</g>
<!-- Node0&#45;&gt;Node1 -->
<g id="edge1" class="edge">
<title>Node0&#45;&gt;Node1</title>
<path fill="none" stroke="#191970" d="M111.2551,-10C119.7299,-10 128.3886,-10 136.7227,-10"/>
<polygon fill="#191970" stroke="#191970" points="111.0432,-6.5001 101.0432,-10 111.0432,-13.5001 111.0432,-6.5001"/>
</g>
<!-- Node2 -->
<g id="node3" class="node">
<title>Node2</title>
<g id="a_node3"><a xlink:href="classaworx_1_1lib_1_1strings_1_1AStringBase.html" target="_top" xlink:title="AStringBase\&lt;nchar\&gt;">
<polygon fill="#ffffff" stroke="#000000" points="280,-.5 280,-19.5 387,-19.5 387,-.5 280,-.5"/>
<text text-anchor="middle" x="333.5" y="-7.5" font-family="Helvetica,sans-Serif" font-size="10.00" fill="#000000">AStringBase&lt;nchar&gt;</text>
</a>
</g>
</g>
<!-- Node1&#45;&gt;Node2 -->
<g id="edge2" class="edge">
<title>Node1&#45;&gt;Node2</title>
<path fill="none" stroke="#191970" d="M254.3238,-10C262.7452,-10 271.3103,-10 279.5445,-10"/>
<polygon fill="#191970" stroke="#191970" points="254.1548,-6.5001 244.1548,-10 254.1547,-13.5001 254.1548,-6.5001"/>
</g>
</g>
</svg>
