<?xml version="1.0" encoding="UTF-8" standalone="no"?>
<!DOCTYPE svg PUBLIC "-//W3C//DTD SVG 1.1//EN"
 "http://www.w3.org/Graphics/SVG/1.1/DTD/svg11.dtd">
<!-- Generated by graphviz version 2.40.1 (20161225.0304)
 -->
<!-- Title: Graphical Class Hierarchy Pages: 1 -->
<svg width="164pt" height="218pt"
 viewBox="0.00 0.00 164.00 218.00" xmlns="http://www.w3.org/2000/svg" xmlns:xlink="http://www.w3.org/1999/xlink">
<g id="graph0" class="graph" transform="scale(1 1) rotate(0) translate(4 214)">
<title>Graphical Class Hierarchy</title>
<polygon fill="#ffffff" stroke="transparent" points="-4,4 -4,-214 160,-214 160,4 -4,4"/>
<!-- Node0 -->
<g id="node1" class="node">
<title>Node0</title>
<g id="a_node1"><a xlink:href="structaworx_1_1lib_1_1expressions_1_1detail_1_1AST.html" target="_top" xlink:title="AST">
<polygon fill="#ffffff" stroke="#000000" points="0,-95.5 0,-114.5 36,-114.5 36,-95.5 0,-95.5"/>
<text text-anchor="middle" x="18" y="-102.5" font-family="Helvetica,sans-Serif" font-size="10.00" fill="#000000">AST</text>
</a>
</g>
</g>
<!-- Node1 -->
<g id="node2" class="node">
<title>Node1</title>
<g id="a_node2"><a xlink:href="structaworx_1_1lib_1_1expressions_1_1detail_1_1ASTBinaryOp.html" target="_top" xlink:title="ASTBinaryOp">
<polygon fill="#ffffff" stroke="#000000" points="75.5,-190.5 75.5,-209.5 152.5,-209.5 152.5,-190.5 75.5,-190.5"/>
<text text-anchor="middle" x="114" y="-197.5" font-family="Helvetica,sans-Serif" font-size="10.00" fill="#000000">ASTBinaryOp</text>
</a>
</g>
</g>
<!-- Node0&#45;&gt;Node1 -->
<g id="edge1" class="edge">
<title>Node0&#45;&gt;Node1</title>
<path fill="none" stroke="#191970" d="M27.4527,-123.5496C36.8248,-140.4011 52.5734,-165.0012 72,-181 76.448,-184.6631 81.7162,-187.7687 86.9915,-190.3405"/>
<polygon fill="#191970" stroke="#191970" points="30.4939,-121.8145 22.6917,-114.6467 24.3211,-125.1155 30.4939,-121.8145"/>
</g>
<!-- Node2 -->
<g id="node3" class="node">
<title>Node2</title>
<g id="a_node3"><a xlink:href="structaworx_1_1lib_1_1expressions_1_1detail_1_1ASTConditional.html" target="_top" xlink:title="ASTConditional">
<polygon fill="#ffffff" stroke="#000000" points="72,-152.5 72,-171.5 156,-171.5 156,-152.5 72,-152.5"/>
<text text-anchor="middle" x="114" y="-159.5" font-family="Helvetica,sans-Serif" font-size="10.00" fill="#000000">ASTConditional</text>
</a>
</g>
</g>
<!-- Node0&#45;&gt;Node2 -->
<g id="edge2" class="edge">
<title>Node0&#45;&gt;Node2</title>
<path fill="none" stroke="#191970" d="M38.7215,-120.9627C48.5261,-128.151 60.5686,-136.4697 72,-143 77.8373,-146.3346 84.3658,-149.5265 90.5035,-152.3104"/>
<polygon fill="#191970" stroke="#191970" points="40.533,-117.9471 30.428,-114.7627 36.3417,-123.5536 40.533,-117.9471"/>
</g>
<!-- Node3 -->
<g id="node4" class="node">
<title>Node3</title>
<g id="a_node4"><a xlink:href="structaworx_1_1lib_1_1expressions_1_1detail_1_1ASTFunction.html" target="_top" xlink:title="ASTFunction">
<polygon fill="#ffffff" stroke="#000000" points="77,-114.5 77,-133.5 151,-133.5 151,-114.5 77,-114.5"/>
<text text-anchor="middle" x="114" y="-121.5" font-family="Helvetica,sans-Serif" font-size="10.00" fill="#000000">ASTFunction</text>
</a>
</g>
</g>
<!-- Node0&#45;&gt;Node3 -->
<g id="edge3" class="edge">
<title>Node0&#45;&gt;Node3</title>
<path fill="none" stroke="#191970" d="M45.9464,-110.5311C55.6292,-112.4474 66.6394,-114.6265 76.9397,-116.6651"/>
<polygon fill="#191970" stroke="#191970" points="46.5461,-107.0819 36.0569,-108.5738 45.187,-113.9487 46.5461,-107.0819"/>
</g>
<!-- Node4 -->
<g id="node5" class="node">
<title>Node4</title>
<g id="a_node5"><a xlink:href="structaworx_1_1lib_1_1expressions_1_1detail_1_1ASTIdentifier.html" target="_top" xlink:title="ASTIdentifier">
<polygon fill="#ffffff" stroke="#000000" points="77,-76.5 77,-95.5 151,-95.5 151,-76.5 77,-76.5"/>
<text text-anchor="middle" x="114" y="-83.5" font-family="Helvetica,sans-Serif" font-size="10.00" fill="#000000">ASTIdentifier</text>
</a>
</g>
</g>
<!-- Node0&#45;&gt;Node4 -->
<g id="edge4" class="edge">
<title>Node0&#45;&gt;Node4</title>
<path fill="none" stroke="#191970" d="M45.9464,-99.4689C55.6292,-97.5526 66.6394,-95.3735 76.9397,-93.3349"/>
<polygon fill="#191970" stroke="#191970" points="45.187,-96.0513 36.0569,-101.4262 46.5461,-102.9181 45.187,-96.0513"/>
</g>
<!-- Node5 -->
<g id="node6" class="node">
<title>Node5</title>
<g id="a_node6"><a xlink:href="structaworx_1_1lib_1_1expressions_1_1detail_1_1ASTLiteral.html" target="_top" xlink:title="ASTLiteral">
<polygon fill="#ffffff" stroke="#000000" points="83,-38.5 83,-57.5 145,-57.5 145,-38.5 83,-38.5"/>
<text text-anchor="middle" x="114" y="-45.5" font-family="Helvetica,sans-Serif" font-size="10.00" fill="#000000">ASTLiteral</text>
</a>
</g>
</g>
<!-- Node0&#45;&gt;Node5 -->
<g id="edge5" class="edge">
<title>Node0&#45;&gt;Node5</title>
<path fill="none" stroke="#191970" d="M38.7215,-89.0373C48.5261,-81.849 60.5686,-73.5303 72,-67 77.8373,-63.6654 84.3658,-60.4735 90.5035,-57.6896"/>
<polygon fill="#191970" stroke="#191970" points="36.3417,-86.4464 30.428,-95.2373 40.533,-92.0529 36.3417,-86.4464"/>
</g>
<!-- Node6 -->
<g id="node7" class="node">
<title>Node6</title>
<g id="a_node7"><a xlink:href="structaworx_1_1lib_1_1expressions_1_1detail_1_1ASTUnaryOp.html" target="_top" xlink:title="ASTUnaryOp">
<polygon fill="#ffffff" stroke="#000000" points="76.5,-.5 76.5,-19.5 151.5,-19.5 151.5,-.5 76.5,-.5"/>
<text text-anchor="middle" x="114" y="-7.5" font-family="Helvetica,sans-Serif" font-size="10.00" fill="#000000">ASTUnaryOp</text>
</a>
</g>
</g>
<!-- Node0&#45;&gt;Node6 -->
<g id="edge6" class="edge">
<title>Node0&#45;&gt;Node6</title>
<path fill="none" stroke="#191970" d="M27.4527,-86.4504C36.8248,-69.5989 52.5734,-44.9988 72,-29 76.448,-25.3369 81.7162,-22.2313 86.9915,-19.6595"/>
<polygon fill="#191970" stroke="#191970" points="24.3211,-84.8845 22.6917,-95.3533 30.4939,-88.1855 24.3211,-84.8845"/>
</g>
</g>
</svg>
