<?xml version="1.0" encoding="UTF-8" standalone="no"?>
<!DOCTYPE svg PUBLIC "-//W3C//DTD SVG 1.1//EN"
 "http://www.w3.org/Graphics/SVG/1.1/DTD/svg11.dtd">
<!-- Generated by graphviz version 2.40.1 (20161225.0304)
 -->
<!-- Title: Graphical Class Hierarchy Pages: 1 -->
<svg width="392pt" height="104pt"
 viewBox="0.00 0.00 392.00 104.00" xmlns="http://www.w3.org/2000/svg" xmlns:xlink="http://www.w3.org/1999/xlink">
<g id="graph0" class="graph" transform="scale(1 1) rotate(0) translate(4 100)">
<title>Graphical Class Hierarchy</title>
<polygon fill="#ffffff" stroke="transparent" points="-4,4 -4,-100 388,-100 388,4 -4,4"/>
<!-- Node7 -->
<g id="node1" class="node">
<title>Node7</title>
<g id="a_node1"><a xlink:title="STL class. ">
<polygon fill="#ffffff" stroke="#bfbfbf" points="0,-38.5 0,-57.5 62,-57.5 62,-38.5 0,-38.5"/>
<text text-anchor="middle" x="31" y="-45.5" font-family="Helvetica,sans-Serif" font-size="10.00" fill="#000000">vector&lt;T&gt;</text>
</a>
</g>
</g>
<!-- Node11 -->
<g id="node2" class="node">
<title>Node11</title>
<g id="a_node2"><a xlink:href="classaworx_1_1lib_1_1strings_1_1util_1_1StringTable.html" target="_top" xlink:title="StringTable\&lt;TAssociatedTypes\&gt;">
<polygon fill="#ffffff" stroke="#000000" points="98,-76.5 98,-95.5 256,-95.5 256,-76.5 98,-76.5"/>
<text text-anchor="middle" x="177" y="-83.5" font-family="Helvetica,sans-Serif" font-size="10.00" fill="#000000">StringTable&lt;TAssociatedTypes&gt;</text>
</a>
</g>
</g>
<!-- Node7&#45;&gt;Node11 -->
<g id="edge4" class="edge">
<title>Node7&#45;&gt;Node11</title>
<path fill="none" stroke="#191970" d="M72.0752,-59.9307C80.626,-62.3349 89.5935,-64.7981 98,-67 110.2814,-70.2169 123.6916,-73.5202 135.9189,-76.4516"/>
<polygon fill="#191970" stroke="#191970" points="72.8629,-56.5161 62.2873,-57.1546 70.9528,-63.2505 72.8629,-56.5161"/>
</g>
<!-- Node0 -->
<g id="node3" class="node">
<title>Node0</title>
<g id="a_node3"><a xlink:href="classaworx_1_1lib_1_1boxing_1_1Boxes.html" target="_top" xlink:title="Boxes">
<polygon fill="#ffffff" stroke="#000000" points="155,-38.5 155,-57.5 199,-57.5 199,-38.5 155,-38.5"/>
<text text-anchor="middle" x="177" y="-45.5" font-family="Helvetica,sans-Serif" font-size="10.00" fill="#000000">Boxes</text>
</a>
</g>
</g>
<!-- Node7&#45;&gt;Node0 -->
<g id="edge2" class="edge">
<title>Node7&#45;&gt;Node0</title>
<path fill="none" stroke="#191970" d="M72.5564,-48C99.2941,-48 132.9891,-48 154.7587,-48"/>
<polygon fill="#191970" stroke="#191970" points="72.3207,-44.5001 62.3207,-48 72.3206,-51.5001 72.3207,-44.5001"/>
</g>
<!-- Node10 -->
<g id="node5" class="node">
<title>Node10</title>
<g id="a_node5"><a xlink:href="classaworx_1_1lib_1_1expressions_1_1detail_1_1Program.html" target="_top" xlink:title="Program">
<polygon fill="#ffffff" stroke="#000000" points="150.5,-.5 150.5,-19.5 203.5,-19.5 203.5,-.5 150.5,-.5"/>
<text text-anchor="middle" x="177" y="-7.5" font-family="Helvetica,sans-Serif" font-size="10.00" fill="#000000">Program</text>
</a>
</g>
</g>
<!-- Node7&#45;&gt;Node10 -->
<g id="edge3" class="edge">
<title>Node7&#45;&gt;Node10</title>
<path fill="none" stroke="#006400" d="M72.0752,-36.0693C80.626,-33.6651 89.5935,-31.2019 98,-29 115.3305,-24.4606 134.9085,-19.7491 150.2388,-16.1534"/>
<polygon fill="#006400" stroke="#006400" points="70.9528,-32.7495 62.2873,-38.8454 72.8629,-39.4839 70.9528,-32.7495"/>
</g>
<!-- Node1 -->
<g id="node4" class="node">
<title>Node1</title>
<g id="a_node4"><a xlink:href="classaworx_1_1lib_1_1lang_1_1Report_1_1Message.html" target="_top" xlink:title="Report::Message">
<polygon fill="#ffffff" stroke="#000000" points="292,-38.5 292,-57.5 384,-57.5 384,-38.5 292,-38.5"/>
<text text-anchor="middle" x="338" y="-45.5" font-family="Helvetica,sans-Serif" font-size="10.00" fill="#000000">Report::Message</text>
</a>
</g>
</g>
<!-- Node0&#45;&gt;Node1 -->
<g id="edge1" class="edge">
<title>Node0&#45;&gt;Node1</title>
<path fill="none" stroke="#191970" d="M209.2465,-48C232.908,-48 265.3844,-48 291.7998,-48"/>
<polygon fill="#191970" stroke="#191970" points="209.0488,-44.5001 199.0488,-48 209.0487,-51.5001 209.0488,-44.5001"/>
</g>
</g>
</svg>
