<?xml version="1.0" encoding="UTF-8" standalone="no"?>
<!DOCTYPE svg PUBLIC "-//W3C//DTD SVG 1.1//EN"
 "http://www.w3.org/Graphics/SVG/1.1/DTD/svg11.dtd">
<!-- Generated by graphviz version 2.40.1 (20161225.0304)
 -->
<!-- Title: Graphical Class Hierarchy Pages: 1 -->
<svg width="360pt" height="522pt"
 viewBox="0.00 0.00 360.00 522.00" xmlns="http://www.w3.org/2000/svg" xmlns:xlink="http://www.w3.org/1999/xlink">
<g id="graph0" class="graph" transform="scale(1 1) rotate(0) translate(4 518)">
<title>Graphical Class Hierarchy</title>
<polygon fill="#ffffff" stroke="transparent" points="-4,4 -4,-518 356,-518 356,4 -4,4"/>
<!-- Node267 -->
<g id="node1" class="node">
<title>Node267</title>
<polygon fill="#ffffff" stroke="#bfbfbf" points="0,-247.5 0,-266.5 62,-266.5 62,-247.5 0,-247.5"/>
<text text-anchor="middle" x="31" y="-254.5" font-family="Helvetica,sans-Serif" font-size="10.00" fill="#000000">false_type</text>
</g>
<!-- Node269 -->
<g id="node2" class="node">
<title>Node269</title>
<g id="a_node2"><a xlink:href="structaworx_1_1lib_1_1lang_1_1T__EnumIsArithmetical.html" target="_top" xlink:title="T_EnumIsArithmetical\&lt;TEnum, TCheckEnum\&gt;">
<polygon fill="#ffffff" stroke="#000000" points="114,-494.5 114,-513.5 336,-513.5 336,-494.5 114,-494.5"/>
<text text-anchor="middle" x="225" y="-501.5" font-family="Helvetica,sans-Serif" font-size="10.00" fill="#000000">T_EnumIsArithmetical&lt;TEnum, TCheckEnum&gt;</text>
</a>
</g>
</g>
<!-- Node267&#45;&gt;Node269 -->
<g id="edge2" class="edge">
<title>Node267&#45;&gt;Node269</title>
<path fill="none" stroke="#191970" d="M34.0114,-276.5543C42.118,-326.5543 65.9727,-457.0939 98,-485 102.7904,-489.174 108.0883,-492.6541 113.7212,-495.5431"/>
<polygon fill="#191970" stroke="#191970" points="37.4673,-276.0002 32.4455,-266.6711 30.5535,-277.0956 37.4673,-276.0002"/>
</g>
<!-- Node270 -->
<g id="node3" class="node">
<title>Node270</title>
<g id="a_node3"><a xlink:href="structaworx_1_1lib_1_1lang_1_1T__EnumIsBitwise.html" target="_top" xlink:title="T_EnumIsBitwise\&lt;TEnum, TCheckEnum\&gt;">
<polygon fill="#ffffff" stroke="#000000" points="123.5,-456.5 123.5,-475.5 326.5,-475.5 326.5,-456.5 123.5,-456.5"/>
<text text-anchor="middle" x="225" y="-463.5" font-family="Helvetica,sans-Serif" font-size="10.00" fill="#000000">T_EnumIsBitwise&lt;TEnum, TCheckEnum&gt;</text>
</a>
</g>
</g>
<!-- Node267&#45;&gt;Node270 -->
<g id="edge3" class="edge">
<title>Node267&#45;&gt;Node270</title>
<path fill="none" stroke="#191970" d="M35.2627,-276.7425C45.1663,-320.7287 70.9541,-424.6716 98,-447 105.4786,-453.1741 114.0825,-457.7986 123.2135,-461.2218"/>
<polygon fill="#191970" stroke="#191970" points="38.6216,-275.7217 33.0471,-266.712 31.7864,-277.2315 38.6216,-275.7217"/>
</g>
<!-- Node271 -->
<g id="node4" class="node">
<title>Node271</title>
<g id="a_node4"><a xlink:href="structaworx_1_1lib_1_1lang_1_1T__EnumIsIteratable.html" target="_top" xlink:title="T_EnumIsIteratable\&lt;TEnum, TCheckEnum\&gt;">
<polygon fill="#ffffff" stroke="#000000" points="119.5,-418.5 119.5,-437.5 330.5,-437.5 330.5,-418.5 119.5,-418.5"/>
<text text-anchor="middle" x="225" y="-425.5" font-family="Helvetica,sans-Serif" font-size="10.00" fill="#000000">T_EnumIsIteratable&lt;TEnum, TCheckEnum&gt;</text>
</a>
</g>
</g>
<!-- Node267&#45;&gt;Node271 -->
<g id="edge4" class="edge">
<title>Node267&#45;&gt;Node271</title>
<path fill="none" stroke="#191970" d="M33.6402,-277.0652C39.1508,-310.2844 55.1458,-376.2821 98,-409 104.4678,-413.938 111.673,-417.8541 119.2738,-420.9393"/>
<polygon fill="#191970" stroke="#191970" points="37.044,-276.1618 32.1015,-266.7905 30.1212,-277.1986 37.044,-276.1618"/>
</g>
<!-- Node272 -->
<g id="node5" class="node">
<title>Node272</title>
<g id="a_node5"><a xlink:href="structaworx_1_1lib_1_1lang_1_1T__EnumMetaDataDecl.html" target="_top" xlink:title="T_EnumMetaDataDecl\&lt;TEnum, TCheckEnum\&gt;">
<polygon fill="#ffffff" stroke="#000000" points="112.5,-380.5 112.5,-399.5 337.5,-399.5 337.5,-380.5 112.5,-380.5"/>
<text text-anchor="middle" x="225" y="-387.5" font-family="Helvetica,sans-Serif" font-size="10.00" fill="#000000">T_EnumMetaDataDecl&lt;TEnum, TCheckEnum&gt;</text>
</a>
</g>
</g>
<!-- Node267&#45;&gt;Node272 -->
<g id="edge5" class="edge">
<title>Node267&#45;&gt;Node272</title>
<path fill="none" stroke="#191970" d="M36.6196,-276.4822C45.2422,-302.5969 64.3738,-348.291 98,-371 103.5426,-374.7431 109.5303,-377.8699 115.7826,-380.4734"/>
<polygon fill="#191970" stroke="#191970" points="39.8634,-275.1257 33.556,-266.6129 33.1781,-277.201 39.8634,-275.1257"/>
</g>
<!-- Node273 -->
<g id="node6" class="node">
<title>Node273</title>
<g id="a_node6"><a xlink:href="structaworx_1_1lib_1_1lang_1_1T__EnumMetaDataDeclReadWrite.html" target="_top" xlink:title="T_EnumMetaDataDeclReadWrite\&lt;TEnum, TEnableIf\&gt;">
<polygon fill="#ffffff" stroke="#000000" points="98,-342.5 98,-361.5 352,-361.5 352,-342.5 98,-342.5"/>
<text text-anchor="middle" x="225" y="-349.5" font-family="Helvetica,sans-Serif" font-size="10.00" fill="#000000">T_EnumMetaDataDeclReadWrite&lt;TEnum, TEnableIf&gt;</text>
</a>
</g>
</g>
<!-- Node267&#45;&gt;Node273 -->
<g id="edge6" class="edge">
<title>Node267&#45;&gt;Node273</title>
<path fill="none" stroke="#191970" d="M41.8855,-275.5497C53.4209,-293.3977 73.3621,-319.5921 98,-333 104.9517,-336.7831 112.4175,-339.8823 120.1213,-342.4146"/>
<polygon fill="#191970" stroke="#191970" points="44.6029,-273.2896 36.3652,-266.6269 38.6501,-276.9725 44.6029,-273.2896"/>
</g>
<!-- Node274 -->
<g id="node7" class="node">
<title>Node274</title>
<g id="a_node7"><a xlink:href="structaworx_1_1lib_1_1lang_1_1T__EnumMetaDataPreAndPostFix.html" target="_top" xlink:title="T_EnumMetaDataPreAndPostFix\&lt;TEnum, TEnableIf\&gt;">
<polygon fill="#ffffff" stroke="#000000" points="98,-304.5 98,-323.5 352,-323.5 352,-304.5 98,-304.5"/>
<text text-anchor="middle" x="225" y="-311.5" font-family="Helvetica,sans-Serif" font-size="10.00" fill="#000000">T_EnumMetaDataPreAndPostFix&lt;TEnum, TEnableIf&gt;</text>
</a>
</g>
</g>
<!-- Node267&#45;&gt;Node274 -->
<g id="edge7" class="edge">
<title>Node267&#45;&gt;Node274</title>
<path fill="none" stroke="#191970" d="M53.1039,-272.2836C65.7149,-280.2825 82.1311,-289.5252 98,-295 109.2751,-298.8899 121.3843,-301.9838 133.4864,-304.4445"/>
<polygon fill="#191970" stroke="#191970" points="54.9389,-269.3016 44.6558,-266.7506 51.1037,-275.1575 54.9389,-269.3016"/>
</g>
<!-- Node276 -->
<g id="node8" class="node">
<title>Node276</title>
<g id="a_node8"><a xlink:href="structaworx_1_1lib_1_1strings_1_1T__Apply.html" target="_top" xlink:title="T_Apply\&lt;TApplicable, TChar, TEnableIf\&gt;">
<polygon fill="#ffffff" stroke="#000000" points="128,-266.5 128,-285.5 322,-285.5 322,-266.5 128,-266.5"/>
<text text-anchor="middle" x="225" y="-273.5" font-family="Helvetica,sans-Serif" font-size="10.00" fill="#000000">T_Apply&lt;TApplicable, TChar, TEnableIf&gt;</text>
</a>
</g>
</g>
<!-- Node267&#45;&gt;Node276 -->
<g id="edge9" class="edge">
<title>Node267&#45;&gt;Node276</title>
<path fill="none" stroke="#191970" d="M72.3907,-261.0537C88.6878,-262.6498 108.1474,-264.5557 127.627,-266.4635"/>
<polygon fill="#191970" stroke="#191970" points="72.463,-257.5442 62.1695,-260.0527 71.7807,-264.5108 72.463,-257.5442"/>
</g>
<!-- Node278 -->
<g id="node9" class="node">
<title>Node278</title>
<g id="a_node9"><a xlink:href="structaworx_1_1lib_1_1strings_1_1T__String.html" target="_top" xlink:title="T_String\&lt;TStringLike, TChar\&gt;">
<polygon fill="#ffffff" stroke="#000000" points="151.5,-228.5 151.5,-247.5 298.5,-247.5 298.5,-228.5 151.5,-228.5"/>
<text text-anchor="middle" x="225" y="-235.5" font-family="Helvetica,sans-Serif" font-size="10.00" fill="#000000">T_String&lt;TStringLike, TChar&gt;</text>
</a>
</g>
</g>
<!-- Node267&#45;&gt;Node278 -->
<g id="edge11" class="edge">
<title>Node267&#45;&gt;Node278</title>
<path fill="none" stroke="#191970" d="M72.2356,-252.9615C95.1784,-250.7145 124.4241,-247.8502 151.1727,-245.2305"/>
<polygon fill="#191970" stroke="#191970" points="71.7807,-249.4892 62.1695,-253.9473 72.463,-256.4558 71.7807,-249.4892"/>
</g>
<!-- Node279 -->
<g id="node10" class="node">
<title>Node279</title>
<g id="a_node10"><a xlink:href="structaworx_1_1lib_1_1strings_1_1T__StringLiteral.html" target="_top" xlink:title="T_StringLiteral\&lt;TLiteral, TChar\&gt;">
<polygon fill="#ffffff" stroke="#000000" points="147,-190.5 147,-209.5 303,-209.5 303,-190.5 147,-190.5"/>
<text text-anchor="middle" x="225" y="-197.5" font-family="Helvetica,sans-Serif" font-size="10.00" fill="#000000">T_StringLiteral&lt;TLiteral, TChar&gt;</text>
</a>
</g>
</g>
<!-- Node267&#45;&gt;Node279 -->
<g id="edge12" class="edge">
<title>Node267&#45;&gt;Node279</title>
<path fill="none" stroke="#191970" d="M53.1039,-241.7164C65.7149,-233.7175 82.1311,-224.4748 98,-219 113.3848,-213.6922 130.3223,-209.8666 146.676,-207.1094"/>
<polygon fill="#191970" stroke="#191970" points="51.1037,-238.8425 44.6558,-247.2494 54.9389,-244.6984 51.1037,-238.8425"/>
</g>
<!-- Node0 -->
<g id="node11" class="node">
<title>Node0</title>
<g id="a_node11"><a xlink:href="structaworx_1_1lib_1_1boxing_1_1T__Boxing.html" target="_top" xlink:title="T_Boxing\&lt;TBoxable\&gt;">
<polygon fill="#ffffff" stroke="#000000" points="169.5,-152.5 169.5,-171.5 280.5,-171.5 280.5,-152.5 169.5,-152.5"/>
<text text-anchor="middle" x="225" y="-159.5" font-family="Helvetica,sans-Serif" font-size="10.00" fill="#000000">T_Boxing&lt;TBoxable&gt;</text>
</a>
</g>
</g>
<!-- Node267&#45;&gt;Node0 -->
<g id="edge1" class="edge">
<title>Node267&#45;&gt;Node0</title>
<path fill="none" stroke="#191970" d="M41.8855,-238.4503C53.4209,-220.6023 73.3621,-194.4079 98,-181 119.5403,-169.2778 146.0176,-164.1213 169.2122,-162.0525"/>
<polygon fill="#191970" stroke="#191970" points="38.6501,-237.0275 36.3652,-247.3731 44.6029,-240.7104 38.6501,-237.0275"/>
</g>
<!-- Node275 -->
<g id="node12" class="node">
<title>Node275</title>
<g id="a_node12"><a xlink:href="structaworx_1_1lib_1_1lang_1_1T__Resourced.html" target="_top" xlink:title="T_Resourced\&lt;TResourced\&gt;">
<polygon fill="#ffffff" stroke="#000000" points="155,-114.5 155,-133.5 295,-133.5 295,-114.5 155,-114.5"/>
<text text-anchor="middle" x="225" y="-121.5" font-family="Helvetica,sans-Serif" font-size="10.00" fill="#000000">T_Resourced&lt;TResourced&gt;</text>
</a>
</g>
</g>
<!-- Node267&#45;&gt;Node275 -->
<g id="edge8" class="edge">
<title>Node267&#45;&gt;Node275</title>
<path fill="none" stroke="#191970" d="M36.6196,-237.5178C45.2422,-211.4031 64.3738,-165.709 98,-143 114.5355,-131.833 135.0319,-126.1518 154.6986,-123.4856"/>
<polygon fill="#191970" stroke="#191970" points="33.1781,-236.799 33.556,-247.3871 39.8634,-238.8743 33.1781,-236.799"/>
</g>
<!-- Node277 -->
<g id="node13" class="node">
<title>Node277</title>
<g id="a_node13"><a xlink:href="structaworx_1_1lib_1_1strings_1_1T__IsTerminatable.html" target="_top" xlink:title="T_IsTerminatable\&lt;Type\&gt;">
<polygon fill="#ffffff" stroke="#000000" points="162.5,-76.5 162.5,-95.5 287.5,-95.5 287.5,-76.5 162.5,-76.5"/>
<text text-anchor="middle" x="225" y="-83.5" font-family="Helvetica,sans-Serif" font-size="10.00" fill="#000000">T_IsTerminatable&lt;Type&gt;</text>
</a>
</g>
</g>
<!-- Node267&#45;&gt;Node277 -->
<g id="edge10" class="edge">
<title>Node267&#45;&gt;Node277</title>
<path fill="none" stroke="#191970" d="M33.6402,-236.9348C39.1508,-203.7156 55.1458,-137.7179 98,-105 116.163,-91.1331 140.1411,-85.3246 162.3659,-83.3446"/>
<polygon fill="#191970" stroke="#191970" points="30.1212,-236.8014 32.1015,-247.2095 37.044,-237.8382 30.1212,-236.8014"/>
</g>
<!-- Node280 -->
<g id="node14" class="node">
<title>Node280</title>
<g id="a_node14"><a xlink:href="structaworx_1_1lib_1_1strings_1_1thirdparty_1_1std_1_1T__SuppressStdOstreamOperator.html" target="_top" xlink:title="T_SuppressStdOstreamOperator\&lt;T\&gt;">
<polygon fill="#ffffff" stroke="#000000" points="136.5,-38.5 136.5,-57.5 313.5,-57.5 313.5,-38.5 136.5,-38.5"/>
<text text-anchor="middle" x="225" y="-45.5" font-family="Helvetica,sans-Serif" font-size="10.00" fill="#000000">T_SuppressStdOstreamOperator&lt;T&gt;</text>
</a>
</g>
</g>
<!-- Node267&#45;&gt;Node280 -->
<g id="edge13" class="edge">
<title>Node267&#45;&gt;Node280</title>
<path fill="none" stroke="#191970" d="M35.2627,-237.2575C45.1663,-193.2713 70.9541,-89.3284 98,-67 109.003,-57.9162 122.442,-52.1868 136.4113,-48.7024"/>
<polygon fill="#191970" stroke="#191970" points="31.7864,-236.7685 33.0471,-247.288 38.6216,-238.2783 31.7864,-236.7685"/>
</g>
<!-- Node281 -->
<g id="node15" class="node">
<title>Node281</title>
<g id="a_node15"><a xlink:href="structaworx_1_1lib_1_1lang_1_1T__EnumMetaDataDecl.html" target="_top" xlink:title="T_EnumMetaDataDecl\&lt;TEnum\&gt;">
<polygon fill="#ffffff" stroke="#000000" points="145,-.5 145,-19.5 305,-19.5 305,-.5 145,-.5"/>
<text text-anchor="middle" x="225" y="-7.5" font-family="Helvetica,sans-Serif" font-size="10.00" fill="#000000">T_EnumMetaDataDecl&lt;TEnum&gt;</text>
</a>
</g>
</g>
<!-- Node267&#45;&gt;Node281 -->
<g id="edge14" class="edge">
<title>Node267&#45;&gt;Node281</title>
<path fill="none" stroke="#191970" d="M34.0114,-237.4457C42.118,-187.4457 65.9727,-56.9061 98,-29 111.0266,-17.6496 127.8053,-11.4302 144.8705,-8.2754"/>
<polygon fill="#191970" stroke="#191970" points="30.5535,-236.9044 32.4455,-247.3289 37.4673,-237.9998 30.5535,-236.9044"/>
</g>
</g>
</svg>
