<?xml version="1.0" encoding="UTF-8" standalone="no"?>
<!DOCTYPE svg PUBLIC "-//W3C//DTD SVG 1.1//EN"
 "http://www.w3.org/Graphics/SVG/1.1/DTD/svg11.dtd">
<!-- Generated by graphviz version 2.40.1 (20161225.0304)
 -->
<!-- Title: Graphical Class Hierarchy Pages: 1 -->
<svg width="1041pt" height="256pt"
 viewBox="0.00 0.00 1041.00 256.00" xmlns="http://www.w3.org/2000/svg" xmlns:xlink="http://www.w3.org/1999/xlink">
<g id="graph0" class="graph" transform="scale(1 1) rotate(0) translate(4 252)">
<title>Graphical Class Hierarchy</title>
<polygon fill="#ffffff" stroke="transparent" points="-4,4 -4,-252 1037,-252 1037,4 -4,4"/>
<!-- Node0 -->
<g id="node1" class="node">
<title>Node0</title>
<g id="a_node1"><a xlink:href="classaworx_1_1lib_1_1threads_1_1ThreadLock.html" target="_top" xlink:title="ThreadLock">
<polygon fill="#ffffff" stroke="#000000" points="0,-152.5 0,-171.5 68,-171.5 68,-152.5 0,-152.5"/>
<text text-anchor="middle" x="34" y="-159.5" font-family="Helvetica,sans-Serif" font-size="10.00" fill="#000000">ThreadLock</text>
</a>
</g>
</g>
<!-- Node18 -->
<g id="node2" class="node">
<title>Node18</title>
<g id="a_node2"><a xlink:href="classaworx_1_1lib_1_1util_1_1PluginContainer.html" target="_top" xlink:title="PluginContainer\&lt;pTPlugin, pTPriorities\&gt;">
<polygon fill="#ffffff" stroke="#000000" points="130.5,-228.5 130.5,-247.5 321.5,-247.5 321.5,-228.5 130.5,-228.5"/>
<text text-anchor="middle" x="226" y="-235.5" font-family="Helvetica,sans-Serif" font-size="10.00" fill="#000000">PluginContainer&lt;pTPlugin, pTPriorities&gt;</text>
</a>
</g>
</g>
<!-- Node0&#45;&gt;Node18 -->
<g id="edge3" class="edge">
<title>Node0&#45;&gt;Node18</title>
<path fill="none" stroke="#191970" d="M50.1558,-179.4395C63.3368,-192.5203 83.1332,-209.7079 104,-219 112.714,-222.8804 122.0849,-225.9859 131.6211,-228.4686"/>
<polygon fill="#191970" stroke="#191970" points="52.335,-176.6602 42.8532,-171.9329 47.3175,-181.5413 52.335,-176.6602"/>
</g>
<!-- Node19 -->
<g id="node3" class="node">
<title>Node19</title>
<g id="a_node3"><a xlink:href="classaworx_1_1lib_1_1util_1_1PluginContainer.html" target="_top" xlink:title="PluginContainer\&lt;CompilerPlugin, CompilePriorities\&gt;">
<polygon fill="#ffffff" stroke="#000000" points="104,-190.5 104,-209.5 348,-209.5 348,-190.5 104,-190.5"/>
<text text-anchor="middle" x="226" y="-197.5" font-family="Helvetica,sans-Serif" font-size="10.00" fill="#000000">PluginContainer&lt;CompilerPlugin, CompilePriorities&gt;</text>
</a>
</g>
</g>
<!-- Node0&#45;&gt;Node19 -->
<g id="edge4" class="edge">
<title>Node0&#45;&gt;Node19</title>
<path fill="none" stroke="#191970" d="M75.9507,-174.1958C85.1468,-176.6422 94.8647,-179.0551 104,-181 120.7728,-184.571 138.9766,-187.7655 156.0792,-190.4702"/>
<polygon fill="#191970" stroke="#191970" points="76.7974,-170.799 66.2292,-171.5486 74.9583,-177.5531 76.7974,-170.799"/>
</g>
<!-- Node21 -->
<g id="node4" class="node">
<title>Node21</title>
<g id="a_node4"><a xlink:href="classaworx_1_1lib_1_1util_1_1PluginContainer.html" target="_top" xlink:title="PluginContainer\&lt;ConfigurationPlugin, Priorities\&gt;">
<polygon fill="#ffffff" stroke="#000000" points="112.5,-152.5 112.5,-171.5 339.5,-171.5 339.5,-152.5 112.5,-152.5"/>
<text text-anchor="middle" x="226" y="-159.5" font-family="Helvetica,sans-Serif" font-size="10.00" fill="#000000">PluginContainer&lt;ConfigurationPlugin, Priorities&gt;</text>
</a>
</g>
</g>
<!-- Node0&#45;&gt;Node21 -->
<g id="edge5" class="edge">
<title>Node0&#45;&gt;Node21</title>
<path fill="none" stroke="#191970" d="M78.6387,-162C88.9547,-162 100.3921,-162 112.2019,-162"/>
<polygon fill="#191970" stroke="#191970" points="78.3258,-158.5001 68.3258,-162 78.3257,-165.5001 78.3258,-158.5001"/>
</g>
<!-- Node1 -->
<g id="node5" class="node">
<title>Node1</title>
<g id="a_node5"><a xlink:href="classaworx_1_1lib_1_1strings_1_1format_1_1FormatterBase.html" target="_top" xlink:title="[DOX_ALIB_ENUM_META_DATA_SPECIFCATION_using_enum] ">
<polygon fill="#ffffff" stroke="#000000" points="166.5,-114.5 166.5,-133.5 285.5,-133.5 285.5,-114.5 166.5,-114.5"/>
<text text-anchor="middle" x="226" y="-121.5" font-family="Helvetica,sans-Serif" font-size="10.00" fill="#000000">FormatterBase&lt;TChar&gt;</text>
</a>
</g>
</g>
<!-- Node0&#45;&gt;Node1 -->
<g id="edge1" class="edge">
<title>Node0&#45;&gt;Node1</title>
<path fill="none" stroke="#191970" d="M75.9507,-149.8042C85.1468,-147.3578 94.8647,-144.9449 104,-143 124.2322,-138.6925 146.5466,-134.9327 166.4986,-131.9197"/>
<polygon fill="#191970" stroke="#191970" points="74.9583,-146.4469 66.2292,-152.4514 76.7974,-153.201 74.9583,-146.4469"/>
</g>
<!-- Node7 -->
<g id="node11" class="node">
<title>Node7</title>
<g id="a_node11"><a xlink:href="classaworx_1_1lib_1_1threads_1_1SmartLock.html" target="_top" xlink:title="SmartLock">
<polygon fill="#ffffff" stroke="#000000" points="194,-67.5 194,-86.5 258,-86.5 258,-67.5 194,-67.5"/>
<text text-anchor="middle" x="226" y="-74.5" font-family="Helvetica,sans-Serif" font-size="10.00" fill="#000000">SmartLock</text>
</a>
</g>
</g>
<!-- Node0&#45;&gt;Node7 -->
<g id="edge2" class="edge">
<title>Node0&#45;&gt;Node7</title>
<path fill="none" stroke="#191970" d="M50.3469,-144.9699C63.6326,-132.1135 83.4767,-115.028 104,-105 132.6043,-91.0236 168.4236,-83.8739 193.8326,-80.3147"/>
<polygon fill="#191970" stroke="#191970" points="47.5805,-142.786 42.9747,-152.3274 52.5253,-147.7407 47.5805,-142.786"/>
</g>
<!-- Node20 -->
<g id="node22" class="node">
<title>Node20</title>
<g id="a_node22"><a xlink:href="classaworx_1_1lib_1_1expressions_1_1Compiler.html" target="_top" xlink:title="Compiler">
<polygon fill="#ffffff" stroke="#000000" points="421.5,-190.5 421.5,-209.5 477.5,-209.5 477.5,-190.5 421.5,-190.5"/>
<text text-anchor="middle" x="449.5" y="-197.5" font-family="Helvetica,sans-Serif" font-size="10.00" fill="#000000">Compiler</text>
</a>
</g>
</g>
<!-- Node19&#45;&gt;Node20 -->
<g id="edge21" class="edge">
<title>Node19&#45;&gt;Node20</title>
<path fill="none" stroke="#191970" d="M358.4782,-200C382.2755,-200 404.7732,-200 421.4481,-200"/>
<polygon fill="#191970" stroke="#191970" points="358.213,-196.5001 348.2129,-200 358.2129,-203.5001 358.213,-196.5001"/>
</g>
<!-- Node22 -->
<g id="node23" class="node">
<title>Node22</title>
<g id="a_node23"><a xlink:href="classaworx_1_1lib_1_1config_1_1Configuration.html" target="_top" xlink:title="Configuration">
<polygon fill="#ffffff" stroke="#000000" points="412.5,-152.5 412.5,-171.5 486.5,-171.5 486.5,-152.5 412.5,-152.5"/>
<text text-anchor="middle" x="449.5" y="-159.5" font-family="Helvetica,sans-Serif" font-size="10.00" fill="#000000">Configuration</text>
</a>
</g>
</g>
<!-- Node21&#45;&gt;Node22 -->
<g id="edge22" class="edge">
<title>Node21&#45;&gt;Node22</title>
<path fill="none" stroke="#191970" d="M349.87,-162C372.6733,-162 394.7955,-162 412.3779,-162"/>
<polygon fill="#191970" stroke="#191970" points="349.7143,-158.5001 339.7143,-162 349.7142,-165.5001 349.7143,-158.5001"/>
</g>
<!-- Node2 -->
<g id="node6" class="node">
<title>Node2</title>
<g id="a_node6"><a xlink:href="classaworx_1_1lib_1_1strings_1_1format_1_1FormatterStdImpl.html" target="_top" xlink:title="FormatterStdImpl\&lt;TChar\&gt;">
<polygon fill="#ffffff" stroke="#000000" points="384,-114.5 384,-133.5 515,-133.5 515,-114.5 384,-114.5"/>
<text text-anchor="middle" x="449.5" y="-121.5" font-family="Helvetica,sans-Serif" font-size="10.00" fill="#000000">FormatterStdImpl&lt;TChar&gt;</text>
</a>
</g>
</g>
<!-- Node1&#45;&gt;Node2 -->
<g id="edge6" class="edge">
<title>Node1&#45;&gt;Node2</title>
<path fill="none" stroke="#191970" d="M295.749,-124C323.8486,-124 356.0945,-124 383.7751,-124"/>
<polygon fill="#191970" stroke="#191970" points="295.6003,-120.5001 285.6003,-124 295.6003,-127.5001 295.6003,-120.5001"/>
</g>
<!-- Node3 -->
<g id="node7" class="node">
<title>Node3</title>
<g id="a_node7"><a xlink:href="classaworx_1_1lib_1_1strings_1_1format_1_1FormatterJavaStyleBase.html" target="_top" xlink:title="FormatterJavaStyleBase\&lt;TChar\&gt;">
<polygon fill="#ffffff" stroke="#000000" points="563,-190.5 563,-209.5 726,-209.5 726,-190.5 563,-190.5"/>
<text text-anchor="middle" x="644.5" y="-197.5" font-family="Helvetica,sans-Serif" font-size="10.00" fill="#000000">FormatterJavaStyleBase&lt;TChar&gt;</text>
</a>
</g>
</g>
<!-- Node2&#45;&gt;Node3 -->
<g id="edge7" class="edge">
<title>Node2&#45;&gt;Node3</title>
<path fill="none" stroke="#191970" d="M504.117,-137.3707C507.903,-139.0414 511.572,-140.9106 515,-143 534.8654,-155.1079 530.6559,-169.715 551,-181 557.9529,-184.8568 565.5855,-187.9352 573.3986,-190.3917"/>
<polygon fill="#191970" stroke="#191970" points="505.1234,-134.0059 494.5358,-133.6142 502.5682,-140.5229 505.1234,-134.0059"/>
</g>
<!-- Node4 -->
<g id="node8" class="node">
<title>Node4</title>
<g id="a_node8"><a xlink:href="classaworx_1_1lib_1_1strings_1_1format_1_1FormatterPythonStyleBase.html" target="_top" xlink:title="FormatterPythonStyleBase\&lt;TChar\&gt;">
<polygon fill="#ffffff" stroke="#000000" points="558,-152.5 558,-171.5 731,-171.5 731,-152.5 558,-152.5"/>
<text text-anchor="middle" x="644.5" y="-159.5" font-family="Helvetica,sans-Serif" font-size="10.00" fill="#000000">FormatterPythonStyleBase&lt;TChar&gt;</text>
</a>
</g>
</g>
<!-- Node2&#45;&gt;Node4 -->
<g id="edge8" class="edge">
<title>Node2&#45;&gt;Node4</title>
<path fill="none" stroke="#191970" d="M508.4588,-135.4894C536.282,-140.9114 569.0957,-147.3058 595.5248,-152.4561"/>
<polygon fill="#191970" stroke="#191970" points="508.9399,-132.0174 498.455,-133.54 507.6009,-138.8882 508.9399,-132.0174"/>
</g>
<!-- Node5 -->
<g id="node9" class="node">
<title>Node5</title>
<g id="a_node9"><a xlink:href="classaworx_1_1lib_1_1strings_1_1format_1_1FormatterJavaStyleBase.html" target="_top" xlink:title="FormatterJavaStyleBase\&lt;character\&gt;">
<polygon fill="#ffffff" stroke="#000000" points="556,-114.5 556,-133.5 733,-133.5 733,-114.5 556,-114.5"/>
<text text-anchor="middle" x="644.5" y="-121.5" font-family="Helvetica,sans-Serif" font-size="10.00" fill="#000000">FormatterJavaStyleBase&lt;character&gt;</text>
</a>
</g>
</g>
<!-- Node2&#45;&gt;Node5 -->
<g id="edge9" class="edge">
<title>Node2&#45;&gt;Node5</title>
<path fill="none" stroke="#191970" d="M525.4885,-124C535.4441,-124 545.7147,-124 555.8564,-124"/>
<polygon fill="#191970" stroke="#191970" points="525.2463,-120.5001 515.2463,-124 525.2462,-127.5001 525.2463,-120.5001"/>
</g>
<!-- Node6 -->
<g id="node10" class="node">
<title>Node6</title>
<g id="a_node10"><a xlink:href="classaworx_1_1lib_1_1strings_1_1format_1_1FormatterPythonStyleBase.html" target="_top" xlink:title="FormatterPythonStyleBase\&lt;character\&gt;">
<polygon fill="#ffffff" stroke="#000000" points="551,-76.5 551,-95.5 738,-95.5 738,-76.5 551,-76.5"/>
<text text-anchor="middle" x="644.5" y="-83.5" font-family="Helvetica,sans-Serif" font-size="10.00" fill="#000000">FormatterPythonStyleBase&lt;character&gt;</text>
</a>
</g>
</g>
<!-- Node2&#45;&gt;Node6 -->
<g id="edge10" class="edge">
<title>Node2&#45;&gt;Node6</title>
<path fill="none" stroke="#191970" d="M508.4588,-112.5106C536.282,-107.0886 569.0957,-100.6942 595.5248,-95.5439"/>
<polygon fill="#191970" stroke="#191970" points="507.6009,-109.1118 498.455,-114.46 508.9399,-115.9826 507.6009,-109.1118"/>
</g>
<!-- Node8 -->
<g id="node12" class="node">
<title>Node8</title>
<g id="a_node12"><a xlink:href="classaworx_1_1lib_1_1lox_1_1core_1_1Logger.html" target="_top" xlink:title="Logger">
<polygon fill="#ffffff" stroke="#000000" points="426.5,-48.5 426.5,-67.5 472.5,-67.5 472.5,-48.5 426.5,-48.5"/>
<text text-anchor="middle" x="449.5" y="-55.5" font-family="Helvetica,sans-Serif" font-size="10.00" fill="#000000">Logger</text>
</a>
</g>
</g>
<!-- Node7&#45;&gt;Node8 -->
<g id="edge11" class="edge">
<title>Node7&#45;&gt;Node8</title>
<path fill="none" stroke="#191970" d="M268.1673,-73.4153C315.0565,-69.4292 389.0922,-63.1353 426.394,-59.9643"/>
<polygon fill="#191970" stroke="#191970" points="267.6897,-69.9432 258.0221,-74.2778 268.2827,-76.918 267.6897,-69.9432"/>
</g>
<!-- Node9 -->
<g id="node13" class="node">
<title>Node9</title>
<g id="a_node13"><a xlink:href="classaworx_1_1lib_1_1lox_1_1core_1_1textlogger_1_1TextLogger.html" target="_top" xlink:title="TextLogger">
<polygon fill="#ffffff" stroke="#000000" points="612,-38.5 612,-57.5 677,-57.5 677,-38.5 612,-38.5"/>
<text text-anchor="middle" x="644.5" y="-45.5" font-family="Helvetica,sans-Serif" font-size="10.00" fill="#000000">TextLogger</text>
</a>
</g>
</g>
<!-- Node8&#45;&gt;Node9 -->
<g id="edge12" class="edge">
<title>Node8&#45;&gt;Node9</title>
<path fill="none" stroke="#191970" d="M482.6655,-56.2992C518.7754,-54.4474 576.1496,-51.5051 611.9969,-49.6668"/>
<polygon fill="#191970" stroke="#191970" points="482.4424,-52.806 472.6348,-56.8136 482.801,-59.7968 482.4424,-52.806"/>
</g>
<!-- Node10 -->
<g id="node14" class="node">
<title>Node10</title>
<g id="a_node14"><a xlink:href="classaworx_1_1lib_1_1lox_1_1core_1_1textlogger_1_1PlainTextLogger.html" target="_top" xlink:title="PlainTextLogger">
<polygon fill="#ffffff" stroke="#000000" points="792,-95.5 792,-114.5 878,-114.5 878,-95.5 792,-95.5"/>
<text text-anchor="middle" x="835" y="-102.5" font-family="Helvetica,sans-Serif" font-size="10.00" fill="#000000">PlainTextLogger</text>
</a>
</g>
</g>
<!-- Node9&#45;&gt;Node10 -->
<g id="edge13" class="edge">
<title>Node9&#45;&gt;Node10</title>
<path fill="none" stroke="#191970" d="M687.4528,-55.1151C703.4683,-58.1887 721.7094,-62.1931 738,-67 764.7144,-74.8826 794.3901,-87.0328 813.797,-95.4636"/>
<polygon fill="#191970" stroke="#191970" points="687.7633,-51.6131 677.2926,-53.2307 686.4866,-58.4957 687.7633,-51.6131"/>
</g>
<!-- Node15 -->
<g id="node15" class="node">
<title>Node15</title>
<g id="a_node15"><a xlink:href="classaworx_1_1lib_1_1lox_1_1loggers_1_1AnsiLogger.html" target="_top" xlink:title="AnsiLogger">
<polygon fill="#ffffff" stroke="#000000" points="802.5,-38.5 802.5,-57.5 867.5,-57.5 867.5,-38.5 802.5,-38.5"/>
<text text-anchor="middle" x="835" y="-45.5" font-family="Helvetica,sans-Serif" font-size="10.00" fill="#000000">AnsiLogger</text>
</a>
</g>
</g>
<!-- Node9&#45;&gt;Node15 -->
<g id="edge14" class="edge">
<title>Node9&#45;&gt;Node15</title>
<path fill="none" stroke="#191970" d="M687.5899,-48C722.4116,-48 770.6811,-48 802.361,-48"/>
<polygon fill="#191970" stroke="#191970" points="687.2482,-44.5001 677.2481,-48 687.2481,-51.5001 687.2482,-44.5001"/>
</g>
<!-- Node17 -->
<g id="node16" class="node">
<title>Node17</title>
<g id="a_node16"><a xlink:href="classaworx_1_1lib_1_1lox_1_1loggers_1_1WindowsConsoleLogger.html" target="_top" xlink:title="WindowsConsoleLogger">
<polygon fill="#ffffff" stroke="#000000" points="774,-.5 774,-19.5 896,-19.5 896,-.5 774,-.5"/>
<text text-anchor="middle" x="835" y="-7.5" font-family="Helvetica,sans-Serif" font-size="10.00" fill="#000000">WindowsConsoleLogger</text>
</a>
</g>
</g>
<!-- Node9&#45;&gt;Node17 -->
<g id="edge15" class="edge">
<title>Node9&#45;&gt;Node17</title>
<path fill="none" stroke="#191970" d="M687.3151,-39.4595C717.029,-33.5323 756.6327,-25.6323 787.3483,-19.5053"/>
<polygon fill="#191970" stroke="#191970" points="686.3702,-36.0789 677.2481,-41.4676 687.7396,-42.9437 686.3702,-36.0789"/>
</g>
<!-- Node11 -->
<g id="node17" class="node">
<title>Node11</title>
<g id="a_node17"><a xlink:href="classaworx_1_1lib_1_1lox_1_1loggers_1_1ConsoleLogger.html" target="_top" xlink:title="ConsoleLogger">
<polygon fill="#ffffff" stroke="#000000" points="941.5,-171.5 941.5,-190.5 1023.5,-190.5 1023.5,-171.5 941.5,-171.5"/>
<text text-anchor="middle" x="982.5" y="-178.5" font-family="Helvetica,sans-Serif" font-size="10.00" fill="#000000">ConsoleLogger</text>
</a>
</g>
</g>
<!-- Node10&#45;&gt;Node11 -->
<g id="edge16" class="edge">
<title>Node10&#45;&gt;Node11</title>
<path fill="none" stroke="#191970" d="M858.1082,-120.1029C877.3843,-132.3251 905.8288,-149.5007 932,-162 939.1849,-165.4315 947.1659,-168.6789 954.6223,-171.4862"/>
<polygon fill="#191970" stroke="#191970" points="859.9935,-117.1541 849.6852,-114.7069 856.2175,-123.0483 859.9935,-117.1541"/>
</g>
<!-- Node12 -->
<g id="node18" class="node">
<title>Node12</title>
<g id="a_node18"><a xlink:href="classaworx_1_1lib_1_1lox_1_1loggers_1_1MemoryLogger.html" target="_top" xlink:title="MemoryLogger">
<polygon fill="#ffffff" stroke="#000000" points="942,-133.5 942,-152.5 1023,-152.5 1023,-133.5 942,-133.5"/>
<text text-anchor="middle" x="982.5" y="-140.5" font-family="Helvetica,sans-Serif" font-size="10.00" fill="#000000">MemoryLogger</text>
</a>
</g>
</g>
<!-- Node10&#45;&gt;Node12 -->
<g id="edge17" class="edge">
<title>Node10&#45;&gt;Node12</title>
<path fill="none" stroke="#191970" d="M882.0141,-117.1121C902.5566,-122.4044 926.2998,-128.5213 945.5472,-133.4799"/>
<polygon fill="#191970" stroke="#191970" points="882.7775,-113.6946 872.2205,-114.589 881.0311,-120.4732 882.7775,-113.6946"/>
</g>
<!-- Node13 -->
<g id="node19" class="node">
<title>Node13</title>
<g id="a_node19"><a xlink:href="classaworx_1_1lib_1_1lox_1_1loggers_1_1TextFileLogger.html" target="_top" xlink:title="TextFileLogger">
<polygon fill="#ffffff" stroke="#000000" points="942.5,-95.5 942.5,-114.5 1022.5,-114.5 1022.5,-95.5 942.5,-95.5"/>
<text text-anchor="middle" x="982.5" y="-102.5" font-family="Helvetica,sans-Serif" font-size="10.00" fill="#000000">TextFileLogger</text>
</a>
</g>
</g>
<!-- Node10&#45;&gt;Node13 -->
<g id="edge18" class="edge">
<title>Node10&#45;&gt;Node13</title>
<path fill="none" stroke="#191970" d="M888.0826,-105C905.997,-105 925.6814,-105 942.4195,-105"/>
<polygon fill="#191970" stroke="#191970" points="888.0597,-101.5001 878.0596,-105 888.0596,-108.5001 888.0597,-101.5001"/>
</g>
<!-- Node14 -->
<g id="node20" class="node">
<title>Node14</title>
<g id="a_node20"><a xlink:href="classaworx_1_1lib_1_1lox_1_1loggers_1_1VStudioLogger.html" target="_top" xlink:title="VStudioLogger">
<polygon fill="#ffffff" stroke="#000000" points="942.5,-57.5 942.5,-76.5 1022.5,-76.5 1022.5,-57.5 942.5,-57.5"/>
<text text-anchor="middle" x="982.5" y="-64.5" font-family="Helvetica,sans-Serif" font-size="10.00" fill="#000000">VStudioLogger</text>
</a>
</g>
</g>
<!-- Node10&#45;&gt;Node14 -->
<g id="edge19" class="edge">
<title>Node10&#45;&gt;Node14</title>
<path fill="none" stroke="#191970" d="M882.0141,-92.8879C902.5566,-87.5956 926.2998,-81.4787 945.5472,-76.5201"/>
<polygon fill="#191970" stroke="#191970" points="881.0311,-89.5268 872.2205,-95.411 882.7775,-96.3054 881.0311,-89.5268"/>
</g>
<!-- Node16 -->
<g id="node21" class="node">
<title>Node16</title>
<g id="a_node21"><a xlink:href="classaworx_1_1lib_1_1lox_1_1loggers_1_1AnsiConsoleLogger.html" target="_top" xlink:title="AnsiConsoleLogger">
<polygon fill="#ffffff" stroke="#000000" points="932,-19.5 932,-38.5 1033,-38.5 1033,-19.5 932,-19.5"/>
<text text-anchor="middle" x="982.5" y="-26.5" font-family="Helvetica,sans-Serif" font-size="10.00" fill="#000000">AnsiConsoleLogger</text>
</a>
</g>
</g>
<!-- Node15&#45;&gt;Node16 -->
<g id="edge20" class="edge">
<title>Node15&#45;&gt;Node16</title>
<path fill="none" stroke="#191970" d="M877.8733,-42.4773C894.7696,-40.3009 914.3046,-37.7845 931.8872,-35.5196"/>
<polygon fill="#191970" stroke="#191970" points="877.2059,-39.0343 867.735,-43.7833 878.1003,-45.9769 877.2059,-39.0343"/>
</g>
</g>
</svg>
