<?xml version="1.0" encoding="UTF-8" standalone="no"?>
<!DOCTYPE svg PUBLIC "-//W3C//DTD SVG 1.1//EN"
 "http://www.w3.org/Graphics/SVG/1.1/DTD/svg11.dtd">
<!-- Generated by graphviz version 2.40.1 (20161225.0304)
 -->
<!-- Title: Graphical Class Hierarchy Pages: 1 -->
<svg width="508pt" height="712pt"
 viewBox="0.00 0.00 508.00 712.00" xmlns="http://www.w3.org/2000/svg" xmlns:xlink="http://www.w3.org/1999/xlink">
<g id="graph0" class="graph" transform="scale(1 1) rotate(0) translate(4 708)">
<title>Graphical Class Hierarchy</title>
<polygon fill="#ffffff" stroke="transparent" points="-4,4 -4,-708 504,-708 504,4 -4,4"/>
<!-- Node325 -->
<g id="node1" class="node">
<title>Node325</title>
<g id="a_node1"><a xlink:href="classaworx_1_1lib_1_1boxing_1_1Boxer.html" target="_top" xlink:title="Boxer">
<polygon fill="#ffffff" stroke="#000000" points="137,-665.5 137,-684.5 179,-684.5 179,-665.5 137,-665.5"/>
<text text-anchor="middle" x="158" y="-672.5" font-family="Helvetica,sans-Serif" font-size="10.00" fill="#000000">Boxer</text>
</a>
</g>
</g>
<!-- Node1 -->
<g id="node4" class="node">
<title>Node1</title>
<g id="a_node4"><a xlink:href="classaworx_1_1lib_1_1boxing_1_1ArrayBoxerT.html" target="_top" xlink:title="ArrayBoxerT\&lt;TElementType\&gt;">
<polygon fill="#ffffff" stroke="#000000" points="307.5,-684.5 307.5,-703.5 453.5,-703.5 453.5,-684.5 307.5,-684.5"/>
<text text-anchor="middle" x="380.5" y="-691.5" font-family="Helvetica,sans-Serif" font-size="10.00" fill="#000000">ArrayBoxerT&lt;TElementType&gt;</text>
</a>
</g>
</g>
<!-- Node325&#45;&gt;Node1 -->
<g id="edge46" class="edge">
<title>Node325&#45;&gt;Node1</title>
<path fill="none" stroke="#191970" d="M189.379,-677.6796C219.8891,-680.2849 267.3516,-684.3379 307.3442,-687.753"/>
<polygon fill="#191970" stroke="#191970" points="189.5958,-674.1854 179.3342,-676.8218 189.0001,-681.16 189.5958,-674.1854"/>
</g>
<!-- Node2 -->
<g id="node5" class="node">
<title>Node2</title>
<g id="a_node5"><a xlink:href="classaworx_1_1lib_1_1boxing_1_1BoxerT.html" target="_top" xlink:title="BoxerT\&lt;TBoxable\&gt;">
<polygon fill="#ffffff" stroke="#000000" points="330,-646.5 330,-665.5 431,-665.5 431,-646.5 330,-646.5"/>
<text text-anchor="middle" x="380.5" y="-653.5" font-family="Helvetica,sans-Serif" font-size="10.00" fill="#000000">BoxerT&lt;TBoxable&gt;</text>
</a>
</g>
</g>
<!-- Node325&#45;&gt;Node2 -->
<g id="edge47" class="edge">
<title>Node325&#45;&gt;Node2</title>
<path fill="none" stroke="#191970" d="M189.3864,-672.3198C225.8566,-669.2055 286.5421,-664.0234 329.7416,-660.3344"/>
<polygon fill="#191970" stroke="#191970" points="189.0001,-668.84 179.3342,-673.1782 189.5958,-675.8146 189.0001,-668.84"/>
</g>
<!-- Node12 -->
<g id="node2" class="node">
<title>Node12</title>
<g id="a_node2"><a xlink:href="classaworx_1_1lib_1_1strings_1_1boxing_1_1IApply__BoxedAs__TApplicable.html" target="_top" xlink:title="IApply_BoxedAs_TApplicable\&lt;TChar, TApplicable\&gt;">
<polygon fill="#ffffff" stroke="#000000" points="261,-342.5 261,-361.5 500,-361.5 500,-342.5 261,-342.5"/>
<text text-anchor="middle" x="380.5" y="-349.5" font-family="Helvetica,sans-Serif" font-size="10.00" fill="#000000">IApply_BoxedAs_TApplicable&lt;TChar, TApplicable&gt;</text>
</a>
</g>
</g>
<!-- Node13 -->
<g id="node3" class="node">
<title>Node13</title>
<g id="a_node3"><a xlink:href="classaworx_1_1lib_1_1strings_1_1boxing_1_1IApply__TApplicable.html" target="_top" xlink:title="IApply_TApplicable\&lt;TChar, TApplicable\&gt;">
<polygon fill="#ffffff" stroke="#000000" points="283.5,-304.5 283.5,-323.5 477.5,-323.5 477.5,-304.5 283.5,-304.5"/>
<text text-anchor="middle" x="380.5" y="-311.5" font-family="Helvetica,sans-Serif" font-size="10.00" fill="#000000">IApply_TApplicable&lt;TChar, TApplicable&gt;</text>
</a>
</g>
</g>
<!-- Node10 -->
<g id="node6" class="node">
<title>Node10</title>
<g id="a_node6"><a xlink:href="classaworx_1_1lib_1_1boxing_1_1IEquals__TComparable.html" target="_top" xlink:title="IEquals_TComparable\&lt;TComparable\&gt;">
<polygon fill="#ffffff" stroke="#000000" points="289.5,-114.5 289.5,-133.5 471.5,-133.5 471.5,-114.5 289.5,-114.5"/>
<text text-anchor="middle" x="380.5" y="-121.5" font-family="Helvetica,sans-Serif" font-size="10.00" fill="#000000">IEquals_TComparable&lt;TComparable&gt;</text>
</a>
</g>
</g>
<!-- Node259 -->
<g id="node7" class="node">
<title>Node259</title>
<g id="a_node7"><a xlink:href="classaworx_1_1lib_1_1strings_1_1boxing_1_1IApply.html" target="_top" xlink:title="IApply\&lt;TChar\&gt;">
<polygon fill="#ffffff" stroke="#000000" points="116.5,-266.5 116.5,-285.5 199.5,-285.5 199.5,-266.5 116.5,-266.5"/>
<text text-anchor="middle" x="158" y="-273.5" font-family="Helvetica,sans-Serif" font-size="10.00" fill="#000000">IApply&lt;TChar&gt;</text>
</a>
</g>
</g>
<!-- Node259&#45;&gt;Node12 -->
<g id="edge40" class="edge">
<title>Node259&#45;&gt;Node12</title>
<path fill="none" stroke="#191970" d="M209.5958,-287.5314C214.9744,-289.6343 220.2164,-292.1041 225,-295 244.9016,-307.0482 240.419,-322.1529 261,-333 268.2478,-336.8199 276.0607,-339.9169 284.0983,-342.4225"/>
<polygon fill="#191970" stroke="#191970" points="210.431,-284.116 199.8362,-284.1293 208.1268,-290.7259 210.431,-284.116"/>
</g>
<!-- Node259&#45;&gt;Node13 -->
<g id="edge41" class="edge">
<title>Node259&#45;&gt;Node13</title>
<path fill="none" stroke="#191970" d="M209.521,-285.7623C225.9568,-288.8073 244.2295,-292.1204 261,-295 279.7372,-298.2173 300.161,-301.5343 318.7372,-304.4785"/>
<polygon fill="#191970" stroke="#191970" points="210.0262,-282.2963 199.5546,-283.9073 208.7453,-289.1781 210.0262,-282.2963"/>
</g>
<!-- Node14 -->
<g id="node8" class="node">
<title>Node14</title>
<g id="a_node8"><a xlink:href="classaworx_1_1lib_1_1strings_1_1boxing_1_1IApply__TncharArr.html" target="_top" xlink:title="Implementation of IApply for boxable types char[] and char*. ">
<polygon fill="#ffffff" stroke="#000000" points="315,-266.5 315,-285.5 446,-285.5 446,-266.5 315,-266.5"/>
<text text-anchor="middle" x="380.5" y="-273.5" font-family="Helvetica,sans-Serif" font-size="10.00" fill="#000000">IApply_TncharArr&lt;TChar&gt;</text>
</a>
</g>
</g>
<!-- Node259&#45;&gt;Node14 -->
<g id="edge42" class="edge">
<title>Node259&#45;&gt;Node14</title>
<path fill="none" stroke="#191970" d="M209.8227,-276C241.0637,-276 281.1546,-276 314.6299,-276"/>
<polygon fill="#191970" stroke="#191970" points="209.5896,-272.5001 199.5895,-276 209.5895,-279.5001 209.5896,-272.5001"/>
</g>
<!-- Node15 -->
<g id="node9" class="node">
<title>Node15</title>
<g id="a_node9"><a xlink:href="classaworx_1_1lib_1_1strings_1_1boxing_1_1IApply__TstrangeCharArr.html" target="_top" xlink:title="Implementation of IApply for boxable types strangeChar[] and strangeChar*. ">
<polygon fill="#ffffff" stroke="#000000" points="301,-228.5 301,-247.5 460,-247.5 460,-228.5 301,-228.5"/>
<text text-anchor="middle" x="380.5" y="-235.5" font-family="Helvetica,sans-Serif" font-size="10.00" fill="#000000">IApply_TstrangeCharArr&lt;TChar&gt;</text>
</a>
</g>
</g>
<!-- Node259&#45;&gt;Node15 -->
<g id="edge43" class="edge">
<title>Node259&#45;&gt;Node15</title>
<path fill="none" stroke="#191970" d="M209.521,-266.2377C225.9568,-263.1927 244.2295,-259.8796 261,-257 279.7372,-253.7827 300.161,-250.4657 318.7372,-247.5215"/>
<polygon fill="#191970" stroke="#191970" points="208.7453,-262.8219 199.5546,-268.0927 210.0262,-269.7037 208.7453,-262.8219"/>
</g>
<!-- Node16 -->
<g id="node10" class="node">
<title>Node16</title>
<g id="a_node10"><a xlink:href="classaworx_1_1lib_1_1strings_1_1boxing_1_1IApply__TwcharArr.html" target="_top" xlink:title="Implementation of IApply for boxable types wchar_t[] and wchar_t*. ">
<polygon fill="#ffffff" stroke="#000000" points="314.5,-380.5 314.5,-399.5 446.5,-399.5 446.5,-380.5 314.5,-380.5"/>
<text text-anchor="middle" x="380.5" y="-387.5" font-family="Helvetica,sans-Serif" font-size="10.00" fill="#000000">IApply_TwcharArr&lt;TChar&gt;</text>
</a>
</g>
</g>
<!-- Node259&#45;&gt;Node16 -->
<g id="edge44" class="edge">
<title>Node259&#45;&gt;Node16</title>
<path fill="none" stroke="#191970" d="M209.3776,-285.5268C215.0245,-287.9937 220.3884,-291.097 225,-295 253.5292,-319.1459 231.0894,-348.5881 261,-371 276.2143,-382.4 295.6059,-388.1143 314.32,-390.7382"/>
<polygon fill="#191970" stroke="#191970" points="210.2832,-282.1301 199.6899,-281.9468 207.8568,-288.6962 210.2832,-282.1301"/>
</g>
<!-- Node260 -->
<g id="node11" class="node">
<title>Node260</title>
<g id="a_node11"><a xlink:href="classaworx_1_1lib_1_1strings_1_1boxing_1_1IFormat.html" target="_top" xlink:title="IFormat\&lt;TChar\&gt;">
<polygon fill="#ffffff" stroke="#000000" points="113.5,-190.5 113.5,-209.5 202.5,-209.5 202.5,-190.5 113.5,-190.5"/>
<text text-anchor="middle" x="158" y="-197.5" font-family="Helvetica,sans-Serif" font-size="10.00" fill="#000000">IFormat&lt;TChar&gt;</text>
</a>
</g>
</g>
<!-- Node261 -->
<g id="node12" class="node">
<title>Node261</title>
<g id="a_node12"><a xlink:href="classaworx_1_1lib_1_1strings_1_1boxing_1_1IFormat.html" target="_top" xlink:title="IFormat\&lt;character\&gt;">
<polygon fill="#ffffff" stroke="#000000" points="106.5,-228.5 106.5,-247.5 209.5,-247.5 209.5,-228.5 106.5,-228.5"/>
<text text-anchor="middle" x="158" y="-235.5" font-family="Helvetica,sans-Serif" font-size="10.00" fill="#000000">IFormat&lt;character&gt;</text>
</a>
</g>
</g>
<!-- Node19 -->
<g id="node24" class="node">
<title>Node19</title>
<g id="a_node24"><a xlink:href="classaworx_1_1lib_1_1time_1_1IFormat__DateTime.html" target="_top" xlink:title="IFormat_DateTime">
<polygon fill="#ffffff" stroke="#000000" points="331.5,-190.5 331.5,-209.5 429.5,-209.5 429.5,-190.5 331.5,-190.5"/>
<text text-anchor="middle" x="380.5" y="-197.5" font-family="Helvetica,sans-Serif" font-size="10.00" fill="#000000">IFormat_DateTime</text>
</a>
</g>
</g>
<!-- Node261&#45;&gt;Node19 -->
<g id="edge45" class="edge">
<title>Node261&#45;&gt;Node19</title>
<path fill="none" stroke="#191970" d="M218.2745,-226.623C232.2877,-224.0497 247.1557,-221.3771 261,-219 284.0851,-215.0362 309.7302,-210.9209 331.326,-207.538"/>
<polygon fill="#191970" stroke="#191970" points="217.4472,-223.2165 208.2486,-228.4735 218.7178,-230.1002 217.4472,-223.2165"/>
</g>
<!-- Node0 -->
<g id="node13" class="node">
<title>Node0</title>
<g id="a_node13"><a xlink:href="classaworx_1_1lib_1_1lang_1_1Singleton.html" target="_top" xlink:title="Singleton\&lt;TDerivedClass\&gt;">
<polygon fill="#ffffff" stroke="#000000" points="91,-342.5 91,-361.5 225,-361.5 225,-342.5 91,-342.5"/>
<text text-anchor="middle" x="158" y="-349.5" font-family="Helvetica,sans-Serif" font-size="10.00" fill="#000000">Singleton&lt;TDerivedClass&gt;</text>
</a>
</g>
</g>
<!-- Node0&#45;&gt;Node12 -->
<g id="edge12" class="edge">
<title>Node0&#45;&gt;Node12</title>
<path fill="none" stroke="#191970" d="M235.1051,-352C243.4688,-352 252.1177,-352 260.8359,-352"/>
<polygon fill="#191970" stroke="#191970" points="235.0591,-348.5001 225.0591,-352 235.059,-355.5001 235.0591,-348.5001"/>
</g>
<!-- Node0&#45;&gt;Node13 -->
<g id="edge13" class="edge">
<title>Node0&#45;&gt;Node13</title>
<path fill="none" stroke="#191970" d="M218.2745,-340.623C232.2877,-338.0497 247.1557,-335.3771 261,-333 279.7372,-329.7827 300.161,-326.4657 318.7372,-323.5215"/>
<polygon fill="#191970" stroke="#191970" points="217.4472,-337.2165 208.2486,-342.4735 218.7178,-344.1002 217.4472,-337.2165"/>
</g>
<!-- Node0&#45;&gt;Node1 -->
<g id="edge1" class="edge">
<title>Node0&#45;&gt;Node1</title>
<path fill="none" stroke="#191970" d="M221.709,-367.595C222.8699,-368.6591 223.9702,-369.7926 225,-371 313.2896,-474.5179 166.7281,-576.899 261,-675 273.154,-687.6477 290.0928,-694.0661 307.402,-696.9733"/>
<polygon fill="#191970" stroke="#191970" points="223.4368,-364.5266 213.2734,-361.5339 219.3522,-370.2114 223.4368,-364.5266"/>
</g>
<!-- Node0&#45;&gt;Node2 -->
<g id="edge2" class="edge">
<title>Node0&#45;&gt;Node2</title>
<path fill="none" stroke="#191970" d="M221.682,-367.6183C222.8509,-368.6754 223.9602,-369.8012 225,-371 303.1697,-461.1221 177.6244,-551.6712 261,-637 278.5442,-654.9552 305.7482,-660.2876 329.7708,-660.8694"/>
<polygon fill="#191970" stroke="#191970" points="223.3843,-364.5341 213.2062,-361.5917 219.3279,-370.239 223.3843,-364.5341"/>
</g>
<!-- Node0&#45;&gt;Node10 -->
<g id="edge10" class="edge">
<title>Node0&#45;&gt;Node10</title>
<path fill="none" stroke="#191970" d="M221.1429,-336.6952C222.5036,-335.5485 223.7938,-334.3187 225,-333 283.0076,-269.5809 199.3343,-202.8682 261,-143 268.9883,-135.2445 278.791,-129.8859 289.3144,-126.2641"/>
<polygon fill="#191970" stroke="#191970" points="219.0171,-333.9071 212.6767,-342.3953 222.9266,-339.7136 219.0171,-333.9071"/>
</g>
<!-- Node0&#45;&gt;Node14 -->
<g id="edge14" class="edge">
<title>Node0&#45;&gt;Node14</title>
<path fill="none" stroke="#191970" d="M213.5347,-338.8495C217.5252,-337.125 221.3929,-335.1837 225,-333 244.9016,-320.9518 240.419,-305.8471 261,-295 277.3539,-286.3808 296.5851,-281.4421 314.7831,-278.6722"/>
<polygon fill="#191970" stroke="#191970" points="212.1427,-335.6349 204.066,-342.4918 214.6559,-342.1682 212.1427,-335.6349"/>
</g>
<!-- Node0&#45;&gt;Node15 -->
<g id="edge15" class="edge">
<title>Node0&#45;&gt;Node15</title>
<path fill="none" stroke="#191970" d="M218.5503,-337.6798C220.8182,-336.264 222.9812,-334.7086 225,-333 253.5292,-308.8541 231.0894,-279.4119 261,-257 272.5999,-248.3083 286.628,-242.9217 300.9327,-239.6899"/>
<polygon fill="#191970" stroke="#191970" points="216.6094,-334.7449 209.367,-342.4779 219.851,-340.9492 216.6094,-334.7449"/>
</g>
<!-- Node0&#45;&gt;Node16 -->
<g id="edge16" class="edge">
<title>Node0&#45;&gt;Node16</title>
<path fill="none" stroke="#191970" d="M218.2745,-363.377C232.2877,-365.9503 247.1557,-368.6229 261,-371 279.7372,-374.2173 300.161,-377.5343 318.7372,-380.4785"/>
<polygon fill="#191970" stroke="#191970" points="218.7178,-359.8998 208.2486,-361.5265 217.4472,-366.7835 218.7178,-359.8998"/>
</g>
<!-- Node3 -->
<g id="node14" class="node">
<title>Node3</title>
<g id="a_node14"><a xlink:href="classaworx_1_1lib_1_1boxing_1_1ftypes_1_1IEquals__Tdouble.html" target="_top" xlink:title="Implements &#39;Equals&#39; &#45; interface for boxed double values. ">
<polygon fill="#ffffff" stroke="#000000" points="336,-76.5 336,-95.5 425,-95.5 425,-76.5 336,-76.5"/>
<text text-anchor="middle" x="380.5" y="-83.5" font-family="Helvetica,sans-Serif" font-size="10.00" fill="#000000">IEquals_Tdouble</text>
</a>
</g>
</g>
<!-- Node0&#45;&gt;Node3 -->
<g id="edge3" class="edge">
<title>Node0&#45;&gt;Node3</title>
<path fill="none" stroke="#191970" d="M221.6464,-336.3505C222.8259,-335.3027 223.947,-334.1872 225,-333 293.0713,-256.2488 188.4978,-177.5801 261,-105 280.226,-85.7534 310.58,-81.1169 335.8837,-81.2344"/>
<polygon fill="#191970" stroke="#191970" points="219.2961,-333.7238 213.1178,-342.3308 223.315,-339.4552 219.2961,-333.7238"/>
</g>
<!-- Node4 -->
<g id="node15" class="node">
<title>Node4</title>
<g id="a_node15"><a xlink:href="classaworx_1_1lib_1_1boxing_1_1ftypes_1_1IEquals__TncharArr.html" target="_top" xlink:title="Implements &#39;Equals&#39; &#45; interface for boxed nchar[] values. ">
<polygon fill="#ffffff" stroke="#000000" points="331.5,-38.5 331.5,-57.5 429.5,-57.5 429.5,-38.5 331.5,-38.5"/>
<text text-anchor="middle" x="380.5" y="-45.5" font-family="Helvetica,sans-Serif" font-size="10.00" fill="#000000">IEquals_TncharArr</text>
</a>
</g>
</g>
<!-- Node0&#45;&gt;Node4 -->
<g id="edge4" class="edge">
<title>Node0&#45;&gt;Node4</title>
<path fill="none" stroke="#191970" d="M221.682,-336.3817C222.8509,-335.3246 223.9602,-334.1988 225,-333 303.1697,-242.8779 177.6244,-152.3288 261,-67 278.9112,-48.6692 306.8907,-43.4948 331.2742,-43.1003"/>
<polygon fill="#191970" stroke="#191970" points="219.3279,-333.761 213.2062,-342.4083 223.3843,-339.4659 219.3279,-333.761"/>
</g>
<!-- Node5 -->
<g id="node16" class="node">
<title>Node5</title>
<g id="a_node16"><a xlink:href="classaworx_1_1lib_1_1boxing_1_1ftypes_1_1IEquals__TstrangeCharArr.html" target="_top" xlink:title="Implements &#39;Equals&#39; &#45; interface for boxed strangeChar[] values. ">
<polygon fill="#ffffff" stroke="#000000" points="317.5,-.5 317.5,-19.5 443.5,-19.5 443.5,-.5 317.5,-.5"/>
<text text-anchor="middle" x="380.5" y="-7.5" font-family="Helvetica,sans-Serif" font-size="10.00" fill="#000000">IEquals_TstrangeCharArr</text>
</a>
</g>
</g>
<!-- Node0&#45;&gt;Node5 -->
<g id="edge5" class="edge">
<title>Node0&#45;&gt;Node5</title>
<path fill="none" stroke="#191970" d="M221.709,-336.405C222.8699,-335.3409 223.9702,-334.2074 225,-333 313.2896,-229.4821 166.7281,-127.101 261,-29 275.4829,-13.9288 296.76,-7.7028 317.362,-5.7231"/>
<polygon fill="#191970" stroke="#191970" points="219.3522,-333.7886 213.2734,-342.4661 223.4368,-339.4734 219.3522,-333.7886"/>
</g>
<!-- Node6 -->
<g id="node17" class="node">
<title>Node6</title>
<g id="a_node17"><a xlink:href="classaworx_1_1lib_1_1boxing_1_1ftypes_1_1IEquals__TwcharArr.html" target="_top" xlink:title="Implements &#39;Equals&#39; &#45; interface for boxed wchar[] values. ">
<polygon fill="#ffffff" stroke="#000000" points="331,-152.5 331,-171.5 430,-171.5 430,-152.5 331,-152.5"/>
<text text-anchor="middle" x="380.5" y="-159.5" font-family="Helvetica,sans-Serif" font-size="10.00" fill="#000000">IEquals_TwcharArr</text>
</a>
</g>
</g>
<!-- Node0&#45;&gt;Node6 -->
<g id="edge6" class="edge">
<title>Node0&#45;&gt;Node6</title>
<path fill="none" stroke="#191970" d="M220.9676,-336.6999C222.3866,-335.5524 223.7355,-334.3211 225,-333 273.0045,-282.847 210.1064,-228.2185 261,-181 279.4799,-163.8546 306.8922,-158.6082 330.8023,-157.8728"/>
<polygon fill="#191970" stroke="#191970" points="218.6634,-334.0223 212.1746,-342.3977 222.4701,-339.8968 218.6634,-334.0223"/>
</g>
<!-- Node7 -->
<g id="node18" class="node">
<title>Node7</title>
<g id="a_node18"><a xlink:href="classaworx_1_1lib_1_1boxing_1_1ftypes_1_1IIsLess__boxed__int.html" target="_top" xlink:title="Implements &#39;IsLess&#39; &#45; interface for boxed boxed_int values. ">
<polygon fill="#ffffff" stroke="#000000" points="332.5,-532.5 332.5,-551.5 428.5,-551.5 428.5,-532.5 332.5,-532.5"/>
<text text-anchor="middle" x="380.5" y="-539.5" font-family="Helvetica,sans-Serif" font-size="10.00" fill="#000000">IIsLess_boxed_int</text>
</a>
</g>
</g>
<!-- Node0&#45;&gt;Node7 -->
<g id="edge7" class="edge">
<title>Node0&#45;&gt;Node7</title>
<path fill="none" stroke="#191970" d="M220.9676,-367.3001C222.3866,-368.4476 223.7355,-369.6789 225,-371 273.0045,-421.153 210.1064,-475.7815 261,-523 279.8649,-540.5026 308.0382,-545.6052 332.292,-546.1674"/>
<polygon fill="#191970" stroke="#191970" points="222.4701,-364.1032 212.1746,-361.6023 218.6634,-369.9777 222.4701,-364.1032"/>
</g>
<!-- Node8 -->
<g id="node19" class="node">
<title>Node8</title>
<g id="a_node19"><a xlink:href="classaworx_1_1lib_1_1boxing_1_1ftypes_1_1IIsLess__boxed__uint.html" target="_top" xlink:title="Implements &#39;IsLess&#39; &#45; interface for boxed boxed_uint values. ">
<polygon fill="#ffffff" stroke="#000000" points="330,-494.5 330,-513.5 431,-513.5 431,-494.5 330,-494.5"/>
<text text-anchor="middle" x="380.5" y="-501.5" font-family="Helvetica,sans-Serif" font-size="10.00" fill="#000000">IIsLess_boxed_uint</text>
</a>
</g>
</g>
<!-- Node0&#45;&gt;Node8 -->
<g id="edge8" class="edge">
<title>Node0&#45;&gt;Node8</title>
<path fill="none" stroke="#191970" d="M220.2238,-366.962C221.9047,-368.2039 223.5036,-369.5472 225,-371 263.1217,-408.0115 220.7509,-450.3139 261,-485 279.698,-501.1137 306.4065,-506.4382 329.8331,-507.483"/>
<polygon fill="#191970" stroke="#191970" points="221.6064,-363.7095 211.2321,-361.5591 218.0011,-369.7097 221.6064,-363.7095"/>
</g>
<!-- Node9 -->
<g id="node20" class="node">
<title>Node9</title>
<g id="a_node20"><a xlink:href="classaworx_1_1lib_1_1boxing_1_1ftypes_1_1IIsLess__double.html" target="_top" xlink:title="Implements &#39;IsLess&#39; &#45; interface for boxed double values. ">
<polygon fill="#ffffff" stroke="#000000" points="339,-456.5 339,-475.5 422,-475.5 422,-456.5 339,-456.5"/>
<text text-anchor="middle" x="380.5" y="-463.5" font-family="Helvetica,sans-Serif" font-size="10.00" fill="#000000">IIsLess_double</text>
</a>
</g>
</g>
<!-- Node0&#45;&gt;Node9 -->
<g id="edge9" class="edge">
<title>Node0&#45;&gt;Node9</title>
<path fill="none" stroke="#191970" d="M218.5503,-366.3202C220.8182,-367.736 222.9812,-369.2914 225,-371 253.5292,-395.1459 231.0894,-424.5881 261,-447 283.107,-463.5646 314.0336,-468.125 338.886,-468.6429"/>
<polygon fill="#191970" stroke="#191970" points="219.851,-363.0508 209.367,-361.5221 216.6094,-369.2551 219.851,-363.0508"/>
</g>
<!-- Node11 -->
<g id="node21" class="node">
<title>Node11</title>
<g id="a_node21"><a xlink:href="classaworx_1_1lib_1_1boxing_1_1IIsNull__false.html" target="_top" xlink:title="IIsNull_false">
<polygon fill="#ffffff" stroke="#000000" points="345,-418.5 345,-437.5 416,-437.5 416,-418.5 345,-418.5"/>
<text text-anchor="middle" x="380.5" y="-425.5" font-family="Helvetica,sans-Serif" font-size="10.00" fill="#000000">IIsNull_false</text>
</a>
</g>
</g>
<!-- Node0&#45;&gt;Node11 -->
<g id="edge11" class="edge">
<title>Node0&#45;&gt;Node11</title>
<path fill="none" stroke="#191970" d="M213.5347,-365.1505C217.5252,-366.875 221.3929,-368.8163 225,-371 244.9016,-383.0482 240.419,-398.1529 261,-409 286.9247,-422.6634 320.0798,-427.0777 344.8873,-428.2658"/>
<polygon fill="#191970" stroke="#191970" points="214.6559,-361.8318 204.066,-361.5082 212.1427,-368.3651 214.6559,-361.8318"/>
</g>
<!-- Node17 -->
<g id="node22" class="node">
<title>Node17</title>
<g id="a_node22"><a xlink:href="classaworx_1_1lib_1_1strings_1_1boxing_1_1IIsLess__Tchar__arr.html" target="_top" xlink:title="Implements &#39;IsLess&#39; &#45; interface for boxed char arrays. ">
<polygon fill="#ffffff" stroke="#000000" points="333,-608.5 333,-627.5 428,-627.5 428,-608.5 333,-608.5"/>
<text text-anchor="middle" x="380.5" y="-615.5" font-family="Helvetica,sans-Serif" font-size="10.00" fill="#000000">IIsLess_Tchar_arr</text>
</a>
</g>
</g>
<!-- Node0&#45;&gt;Node17 -->
<g id="edge17" class="edge">
<title>Node0&#45;&gt;Node17</title>
<path fill="none" stroke="#191970" d="M221.6464,-367.6495C222.8259,-368.6973 223.947,-369.8128 225,-371 293.0713,-447.7512 188.4978,-526.4199 261,-599 279.4836,-617.5035 308.2526,-622.5032 332.9311,-622.7574"/>
<polygon fill="#191970" stroke="#191970" points="223.315,-364.5448 213.1178,-361.6692 219.2961,-370.2762 223.315,-364.5448"/>
</g>
<!-- Node18 -->
<g id="node23" class="node">
<title>Node18</title>
<g id="a_node23"><a xlink:href="classaworx_1_1lib_1_1strings_1_1boxing_1_1IIsLess__Twchar__arr.html" target="_top" xlink:title="Implements &#39;IsLess&#39; &#45; interface for boxed wchar_t arrays. ">
<polygon fill="#ffffff" stroke="#000000" points="329.5,-570.5 329.5,-589.5 431.5,-589.5 431.5,-570.5 329.5,-570.5"/>
<text text-anchor="middle" x="380.5" y="-577.5" font-family="Helvetica,sans-Serif" font-size="10.00" fill="#000000">IIsLess_Twchar_arr</text>
</a>
</g>
</g>
<!-- Node0&#45;&gt;Node18 -->
<g id="edge18" class="edge">
<title>Node0&#45;&gt;Node18</title>
<path fill="none" stroke="#191970" d="M221.1429,-367.3048C222.5036,-368.4515 223.7938,-369.6813 225,-371 283.0076,-434.4191 199.3343,-501.1318 261,-561 278.7853,-578.2669 305.5642,-583.6527 329.2669,-584.4417"/>
<polygon fill="#191970" stroke="#191970" points="222.9266,-364.2864 212.6767,-361.6047 219.0171,-370.0929 222.9266,-364.2864"/>
</g>
<!-- Node0&#45;&gt;Node19 -->
<g id="edge19" class="edge">
<title>Node0&#45;&gt;Node19</title>
<path fill="none" stroke="#191970" d="M220.2238,-337.038C221.9047,-335.7961 223.5036,-334.4528 225,-333 263.1217,-295.9885 220.7509,-253.6861 261,-219 280.0959,-202.5434 307.5467,-197.3401 331.3238,-196.456"/>
<polygon fill="#191970" stroke="#191970" points="218.0011,-334.2903 211.2321,-342.4409 221.6064,-340.2905 218.0011,-334.2903"/>
</g>
<!-- Node252 -->
<g id="node25" class="node">
<title>Node252</title>
<g id="a_node25"><a xlink:href="classaworx_1_1lib_1_1boxing_1_1Interface.html" target="_top" xlink:title="Interface">
<polygon fill="#ffffff" stroke="#000000" points="0,-266.5 0,-285.5 55,-285.5 55,-266.5 0,-266.5"/>
<text text-anchor="middle" x="27.5" y="-273.5" font-family="Helvetica,sans-Serif" font-size="10.00" fill="#000000">Interface</text>
</a>
</g>
</g>
<!-- Node252&#45;&gt;Node259 -->
<g id="edge26" class="edge">
<title>Node252&#45;&gt;Node259</title>
<path fill="none" stroke="#191970" d="M65.2704,-276C81.3058,-276 100.0503,-276 116.4736,-276"/>
<polygon fill="#191970" stroke="#191970" points="65.1757,-272.5001 55.1757,-276 65.1757,-279.5001 65.1757,-272.5001"/>
</g>
<!-- Node252&#45;&gt;Node260 -->
<g id="edge27" class="edge">
<title>Node252&#45;&gt;Node260</title>
<path fill="none" stroke="#191970" d="M42.5076,-258.8297C54.47,-246.1355 72.2705,-229.3275 91,-219 97.882,-215.2053 105.5886,-212.1126 113.2575,-209.6102"/>
<polygon fill="#191970" stroke="#191970" points="39.693,-256.7218 35.5387,-266.4682 44.8642,-261.4397 39.693,-256.7218"/>
</g>
<!-- Node252&#45;&gt;Node261 -->
<g id="edge28" class="edge">
<title>Node252&#45;&gt;Node261</title>
<path fill="none" stroke="#191970" d="M65.0172,-264.6768C73.5517,-262.1282 82.583,-259.4526 91,-257 101.6793,-253.8883 113.3359,-250.5592 123.8881,-247.571"/>
<polygon fill="#191970" stroke="#191970" points="63.8685,-261.3672 55.2933,-267.5894 65.8772,-268.0728 63.8685,-261.3672"/>
</g>
<!-- Node253 -->
<g id="node26" class="node">
<title>Node253</title>
<g id="a_node26"><a xlink:href="classaworx_1_1lib_1_1boxing_1_1IEquals.html" target="_top" xlink:title="IEquals">
<polygon fill="#ffffff" stroke="#000000" points="133,-114.5 133,-133.5 183,-133.5 183,-114.5 133,-114.5"/>
<text text-anchor="middle" x="158" y="-121.5" font-family="Helvetica,sans-Serif" font-size="10.00" fill="#000000">IEquals</text>
</a>
</g>
</g>
<!-- Node252&#45;&gt;Node253 -->
<g id="edge20" class="edge">
<title>Node252&#45;&gt;Node253</title>
<path fill="none" stroke="#191970" d="M37.6149,-257.7887C49.1446,-237.8441 69.2313,-205.4454 91,-181 107.6564,-162.2955 130.4686,-144.1633 144.7137,-133.5465"/>
<polygon fill="#191970" stroke="#191970" points="34.5682,-256.066 32.6723,-266.4898 40.6548,-259.5234 34.5682,-256.066"/>
</g>
<!-- Node254 -->
<g id="node27" class="node">
<title>Node254</title>
<g id="a_node27"><a xlink:href="classaworx_1_1lib_1_1boxing_1_1IIsEmpty.html" target="_top" xlink:title="IIsEmpty">
<polygon fill="#ffffff" stroke="#000000" points="130,-76.5 130,-95.5 186,-95.5 186,-76.5 130,-76.5"/>
<text text-anchor="middle" x="158" y="-83.5" font-family="Helvetica,sans-Serif" font-size="10.00" fill="#000000">IIsEmpty</text>
</a>
</g>
</g>
<!-- Node252&#45;&gt;Node254 -->
<g id="edge21" class="edge">
<title>Node252&#45;&gt;Node254</title>
<path fill="none" stroke="#191970" d="M29.1474,-256.1256C33.1756,-220.5551 46.71,-145.9127 91,-105 101.4799,-95.3192 116.5337,-90.5261 129.7182,-88.1717"/>
<polygon fill="#191970" stroke="#191970" points="25.6514,-255.9125 28.1466,-266.2093 32.6172,-256.6039 25.6514,-255.9125"/>
</g>
<!-- Node255 -->
<g id="node28" class="node">
<title>Node255</title>
<g id="a_node28"><a xlink:href="classaworx_1_1lib_1_1boxing_1_1IIsLess.html" target="_top" xlink:title="IIsLess">
<polygon fill="#ffffff" stroke="#000000" points="133.5,-513.5 133.5,-532.5 182.5,-532.5 182.5,-513.5 133.5,-513.5"/>
<text text-anchor="middle" x="158" y="-520.5" font-family="Helvetica,sans-Serif" font-size="10.00" fill="#000000">IIsLess</text>
</a>
</g>
</g>
<!-- Node252&#45;&gt;Node255 -->
<g id="edge22" class="edge">
<title>Node252&#45;&gt;Node255</title>
<path fill="none" stroke="#191970" d="M32.2444,-295.5611C40.757,-328.4514 60.6214,-396.2119 91,-447 106.8914,-473.5678 132.6001,-499.5268 147.1161,-513.1566"/>
<polygon fill="#191970" stroke="#191970" points="35.6276,-294.6628 29.7939,-285.8187 28.839,-296.3704 35.6276,-294.6628"/>
</g>
<!-- Node256 -->
<g id="node29" class="node">
<title>Node256</title>
<g id="a_node29"><a xlink:href="classaworx_1_1lib_1_1boxing_1_1IIsNull.html" target="_top" xlink:title="IIsNull">
<polygon fill="#ffffff" stroke="#000000" points="135.5,-418.5 135.5,-437.5 180.5,-437.5 180.5,-418.5 135.5,-418.5"/>
<text text-anchor="middle" x="158" y="-425.5" font-family="Helvetica,sans-Serif" font-size="10.00" fill="#000000">IIsNull</text>
</a>
</g>
</g>
<!-- Node252&#45;&gt;Node256 -->
<g id="edge23" class="edge">
<title>Node252&#45;&gt;Node256</title>
<path fill="none" stroke="#191970" d="M31.4536,-295.4935C38.3701,-324.5498 55.4513,-379.0066 91,-409 103.3827,-419.4477 121.1594,-424.1637 135.2905,-426.2858"/>
<polygon fill="#191970" stroke="#191970" points="34.865,-294.7102 29.2831,-285.705 28.031,-296.2256 34.865,-294.7102"/>
</g>
<!-- Node257 -->
<g id="node30" class="node">
<title>Node257</title>
<g id="a_node30"><a xlink:href="classaworx_1_1lib_1_1boxing_1_1IIsTrue.html" target="_top" xlink:title="IIsTrue">
<polygon fill="#ffffff" stroke="#000000" points="134.5,-380.5 134.5,-399.5 181.5,-399.5 181.5,-380.5 134.5,-380.5"/>
<text text-anchor="middle" x="158" y="-387.5" font-family="Helvetica,sans-Serif" font-size="10.00" fill="#000000">IIsTrue</text>
</a>
</g>
</g>
<!-- Node252&#45;&gt;Node257 -->
<g id="edge24" class="edge">
<title>Node252&#45;&gt;Node257</title>
<path fill="none" stroke="#191970" d="M35.372,-295.1716C45.2193,-316.7817 64.117,-351.4423 91,-371 103.6123,-380.1756 120.5265,-384.9285 134.2046,-387.3859"/>
<polygon fill="#191970" stroke="#191970" points="38.4663,-293.5102 31.2696,-285.7347 32.0467,-296.301 38.4663,-293.5102"/>
</g>
<!-- Node258 -->
<g id="node31" class="node">
<title>Node258</title>
<g id="a_node31"><a xlink:href="structaworx_1_1lib_1_1expressions_1_1IToLiteral.html" target="_top" xlink:title="IToLiteral">
<polygon fill="#ffffff" stroke="#000000" points="130,-304.5 130,-323.5 186,-323.5 186,-304.5 130,-304.5"/>
<text text-anchor="middle" x="158" y="-311.5" font-family="Helvetica,sans-Serif" font-size="10.00" fill="#000000">IToLiteral</text>
</a>
</g>
</g>
<!-- Node252&#45;&gt;Node258 -->
<g id="edge25" class="edge">
<title>Node252&#45;&gt;Node258</title>
<path fill="none" stroke="#191970" d="M65.0172,-287.3232C73.5517,-289.8718 82.583,-292.5474 91,-295 103.7687,-298.7205 117.9346,-302.7517 129.9394,-306.1397"/>
<polygon fill="#191970" stroke="#191970" points="65.8772,-283.9272 55.2933,-284.4106 63.8685,-290.6328 65.8772,-283.9272"/>
</g>
<!-- Node253&#45;&gt;Node10 -->
<g id="edge33" class="edge">
<title>Node253&#45;&gt;Node10</title>
<path fill="none" stroke="#191970" d="M193.1534,-124C219.0344,-124 255.4662,-124 289.3305,-124"/>
<polygon fill="#191970" stroke="#191970" points="193.0911,-120.5001 183.0911,-124 193.091,-127.5001 193.0911,-120.5001"/>
</g>
<!-- Node253&#45;&gt;Node3 -->
<g id="edge29" class="edge">
<title>Node253&#45;&gt;Node3</title>
<path fill="none" stroke="#191970" d="M193.2231,-117.2796C213.1021,-113.5429 238.4135,-108.8782 261,-105 285.7414,-100.7518 313.4234,-96.3296 335.9095,-92.8215"/>
<polygon fill="#191970" stroke="#191970" points="192.5433,-113.8461 183.366,-119.1401 193.8417,-120.7246 192.5433,-113.8461"/>
</g>
<!-- Node253&#45;&gt;Node4 -->
<g id="edge30" class="edge">
<title>Node253&#45;&gt;Node4</title>
<path fill="none" stroke="#191970" d="M193.1261,-117.8024C203.8566,-114.9416 215.3592,-110.8364 225,-105 244.9016,-92.9518 240.419,-77.8471 261,-67 282.4645,-55.6873 308.8856,-50.7149 331.4215,-48.6646"/>
<polygon fill="#191970" stroke="#191970" points="192.0753,-114.4548 183.1605,-120.18 193.6998,-121.2637 192.0753,-114.4548"/>
</g>
<!-- Node253&#45;&gt;Node5 -->
<g id="edge31" class="edge">
<title>Node253&#45;&gt;Node5</title>
<path fill="none" stroke="#191970" d="M193.2559,-119.8392C204.3898,-117.0893 216.097,-112.5351 225,-105 253.5292,-80.8541 231.0894,-51.4119 261,-29 277.0549,-16.9702 297.7614,-11.2716 317.4148,-8.8547"/>
<polygon fill="#191970" stroke="#191970" points="192.3779,-116.4465 183.2891,-121.8912 193.7895,-123.3027 192.3779,-116.4465"/>
</g>
<!-- Node253&#45;&gt;Node6 -->
<g id="edge32" class="edge">
<title>Node253&#45;&gt;Node6</title>
<path fill="none" stroke="#191970" d="M193.2231,-130.7204C213.1021,-134.4571 238.4135,-139.1218 261,-143 283.8781,-146.9283 309.2704,-151.0053 330.744,-154.3708"/>
<polygon fill="#191970" stroke="#191970" points="193.8417,-127.2754 183.366,-128.8599 192.5433,-134.1539 193.8417,-127.2754"/>
</g>
<!-- Node255&#45;&gt;Node7 -->
<g id="edge34" class="edge">
<title>Node255&#45;&gt;Node7</title>
<path fill="none" stroke="#191970" d="M193.0866,-525.9962C230.6155,-529.2009 290.3842,-534.3047 332.3108,-537.885"/>
<polygon fill="#191970" stroke="#191970" points="192.9231,-522.4695 182.6615,-525.1059 192.3274,-529.4442 192.9231,-522.4695"/>
</g>
<!-- Node255&#45;&gt;Node8 -->
<g id="edge35" class="edge">
<title>Node255&#45;&gt;Node8</title>
<path fill="none" stroke="#191970" d="M192.8771,-520.0217C229.6166,-516.8844 287.8363,-511.9129 329.6806,-508.3396"/>
<polygon fill="#191970" stroke="#191970" points="192.3274,-516.5558 182.6615,-520.8941 192.9231,-523.5305 192.3274,-516.5558"/>
</g>
<!-- Node255&#45;&gt;Node9 -->
<g id="edge36" class="edge">
<title>Node255&#45;&gt;Node9</title>
<path fill="none" stroke="#191970" d="M189.4058,-509.5879C209.5484,-501.445 236.4359,-491.4179 261,-485 286.5077,-478.3356 315.7253,-473.6392 338.8851,-470.5828"/>
<polygon fill="#191970" stroke="#191970" points="188.0199,-506.3733 180.0992,-513.4099 190.6792,-512.8486 188.0199,-506.3733"/>
</g>
<!-- Node255&#45;&gt;Node17 -->
<g id="edge37" class="edge">
<title>Node255&#45;&gt;Node17</title>
<path fill="none" stroke="#191970" d="M174.8407,-539.4912C194.0174,-557.2312 227.1027,-584.8008 261,-599 283.5729,-608.4555 310.3489,-613.2399 332.8278,-615.6463"/>
<polygon fill="#191970" stroke="#191970" points="177.1816,-536.8876 167.5119,-532.5577 172.3709,-541.9727 177.1816,-536.8876"/>
</g>
<!-- Node255&#45;&gt;Node18 -->
<g id="edge38" class="edge">
<title>Node255&#45;&gt;Node18</title>
<path fill="none" stroke="#191970" d="M189.4058,-536.4121C209.5484,-544.555 236.4359,-554.5821 261,-561 283.1541,-566.7882 308.1067,-571.0919 329.4584,-574.1259"/>
<polygon fill="#191970" stroke="#191970" points="190.6792,-533.1514 180.0992,-532.5901 188.0199,-539.6267 190.6792,-533.1514"/>
</g>
<!-- Node256&#45;&gt;Node11 -->
<g id="edge39" class="edge">
<title>Node256&#45;&gt;Node11</title>
<path fill="none" stroke="#191970" d="M190.591,-428C231.7055,-428 302.1663,-428 344.7303,-428"/>
<polygon fill="#191970" stroke="#191970" points="190.559,-424.5001 180.5589,-428 190.5589,-431.5001 190.559,-424.5001"/>
</g>
</g>
</svg>
