<?xml version="1.0" encoding="UTF-8" standalone="no"?>
<!DOCTYPE svg PUBLIC "-//W3C//DTD SVG 1.1//EN"
 "http://www.w3.org/Graphics/SVG/1.1/DTD/svg11.dtd">
<!-- Generated by graphviz version 2.40.1 (20161225.0304)
 -->
<!-- Title: Graphical Class Hierarchy Pages: 1 -->
<svg width="161pt" height="408pt"
 viewBox="0.00 0.00 161.00 408.00" xmlns="http://www.w3.org/2000/svg" xmlns:xlink="http://www.w3.org/1999/xlink">
<g id="graph0" class="graph" transform="scale(1 1) rotate(0) translate(4 404)">
<title>Graphical Class Hierarchy</title>
<polygon fill="#ffffff" stroke="transparent" points="-4,4 -4,-404 157,-404 157,4 -4,4"/>
<!-- Node0 -->
<g id="node1" class="node">
<title>Node0</title>
<g id="a_node1"><a xlink:href="classaworx_1_1lib_1_1lang_1_1Library.html" target="_top" xlink:title="Library">
<polygon fill="#ffffff" stroke="#000000" points="0,-190.5 0,-209.5 46,-209.5 46,-190.5 0,-190.5"/>
<text text-anchor="middle" x="23" y="-197.5" font-family="Helvetica,sans-Serif" font-size="10.00" fill="#000000">Library</text>
</a>
</g>
</g>
<!-- Node1 -->
<g id="node2" class="node">
<title>Node1</title>
<g id="a_node2"><a xlink:href="classaworx_1_1lib_1_1ALib.html" target="_top" xlink:title="ALib">
<polygon fill="#ffffff" stroke="#000000" points="99.5,-380.5 99.5,-399.5 135.5,-399.5 135.5,-380.5 99.5,-380.5"/>
<text text-anchor="middle" x="117.5" y="-387.5" font-family="Helvetica,sans-Serif" font-size="10.00" fill="#000000">ALib</text>
</a>
</g>
</g>
<!-- Node0&#45;&gt;Node1 -->
<g id="edge1" class="edge">
<title>Node0&#45;&gt;Node1</title>
<path fill="none" stroke="#191970" d="M25.121,-219.9045C29.7368,-254.3976 43.5661,-325.9039 82,-371 86.625,-376.4267 93.2002,-380.5453 99.4372,-383.5367"/>
<polygon fill="#191970" stroke="#191970" points="28.5642,-219.2238 23.8866,-209.7174 21.615,-220.0659 28.5642,-219.2238"/>
</g>
<!-- Node2 -->
<g id="node3" class="node">
<title>Node2</title>
<g id="a_node3"><a xlink:href="classaworx_1_1lib_1_1boxing_1_1Boxing.html" target="_top" xlink:title="Boxing">
<polygon fill="#ffffff" stroke="#000000" points="94,-342.5 94,-361.5 141,-361.5 141,-342.5 94,-342.5"/>
<text text-anchor="middle" x="117.5" y="-349.5" font-family="Helvetica,sans-Serif" font-size="10.00" fill="#000000">Boxing</text>
</a>
</g>
</g>
<!-- Node0&#45;&gt;Node2 -->
<g id="edge2" class="edge">
<title>Node0&#45;&gt;Node2</title>
<path fill="none" stroke="#191970" d="M27.3202,-219.353C34.4425,-247.4106 51.0423,-299.6659 82,-333 85.425,-336.688 89.7316,-339.8044 94.1529,-342.379"/>
<polygon fill="#191970" stroke="#191970" points="30.7074,-218.4686 24.9735,-209.5596 23.9001,-220.0999 30.7074,-218.4686"/>
</g>
<!-- Node3 -->
<g id="node4" class="node">
<title>Node3</title>
<g id="a_node4"><a xlink:href="classaworx_1_1lib_1_1cli_1_1CLILib.html" target="_top" xlink:title="CLILib">
<polygon fill="#ffffff" stroke="#000000" points="95,-304.5 95,-323.5 140,-323.5 140,-304.5 95,-304.5"/>
<text text-anchor="middle" x="117.5" y="-311.5" font-family="Helvetica,sans-Serif" font-size="10.00" fill="#000000">CLILib</text>
</a>
</g>
</g>
<!-- Node0&#45;&gt;Node3 -->
<g id="edge3" class="edge">
<title>Node0&#45;&gt;Node3</title>
<path fill="none" stroke="#191970" d="M31.1882,-219.1319C40.8537,-239.9149 58.6163,-273.0743 82,-295 85.8755,-298.6339 90.5788,-301.7847 95.2767,-304.419"/>
<polygon fill="#191970" stroke="#191970" points="34.2774,-217.4667 26.9945,-209.7718 27.8893,-220.3288 34.2774,-217.4667"/>
</g>
<!-- Node4 -->
<g id="node5" class="node">
<title>Node4</title>
<g id="a_node5"><a xlink:href="classaworx_1_1lib_1_1config_1_1Config.html" target="_top" xlink:title="Config">
<polygon fill="#ffffff" stroke="#000000" points="95,-266.5 95,-285.5 140,-285.5 140,-266.5 95,-266.5"/>
<text text-anchor="middle" x="117.5" y="-273.5" font-family="Helvetica,sans-Serif" font-size="10.00" fill="#000000">Config</text>
</a>
</g>
</g>
<!-- Node0&#45;&gt;Node4 -->
<g id="edge4" class="edge">
<title>Node0&#45;&gt;Node4</title>
<path fill="none" stroke="#191970" d="M38.4986,-217.3347C49.809,-229.367 65.9147,-245.2772 82,-257 86.7454,-260.4584 92.1988,-263.6929 97.3846,-266.4781"/>
<polygon fill="#191970" stroke="#191970" points="40.8409,-214.7113 31.4937,-209.7233 35.6902,-219.4516 40.8409,-214.7113"/>
</g>
<!-- Node5 -->
<g id="node6" class="node">
<title>Node5</title>
<g id="a_node6"><a xlink:href="classaworx_1_1lib_1_1expressions_1_1Expressions.html" target="_top" xlink:title="Expressions">
<polygon fill="#ffffff" stroke="#000000" points="82,-228.5 82,-247.5 153,-247.5 153,-228.5 82,-228.5"/>
<text text-anchor="middle" x="117.5" y="-235.5" font-family="Helvetica,sans-Serif" font-size="10.00" fill="#000000">Expressions</text>
</a>
</g>
</g>
<!-- Node0&#45;&gt;Node5 -->
<g id="edge5" class="edge">
<title>Node0&#45;&gt;Node5</title>
<path fill="none" stroke="#191970" d="M55.954,-213.2514C68.4017,-218.2568 82.3108,-223.8498 93.7528,-228.4509"/>
<polygon fill="#191970" stroke="#191970" points="56.9434,-209.8769 46.3596,-209.3933 54.3317,-216.3714 56.9434,-209.8769"/>
</g>
<!-- Node6 -->
<g id="node7" class="node">
<title>Node6</title>
<g id="a_node7"><a xlink:href="classaworx_1_1lib_1_1lang_1_1Lang.html" target="_top" xlink:title="Lang">
<polygon fill="#ffffff" stroke="#000000" points="98.5,-190.5 98.5,-209.5 136.5,-209.5 136.5,-190.5 98.5,-190.5"/>
<text text-anchor="middle" x="117.5" y="-197.5" font-family="Helvetica,sans-Serif" font-size="10.00" fill="#000000">Lang</text>
</a>
</g>
</g>
<!-- Node0&#45;&gt;Node6 -->
<g id="edge6" class="edge">
<title>Node0&#45;&gt;Node6</title>
<path fill="none" stroke="#191970" d="M56.6052,-200C70.5649,-200 86.2626,-200 98.2234,-200"/>
<polygon fill="#191970" stroke="#191970" points="56.3596,-196.5001 46.3596,-200 56.3595,-203.5001 56.3596,-196.5001"/>
</g>
<!-- Node7 -->
<g id="node8" class="node">
<title>Node7</title>
<g id="a_node8"><a xlink:href="classaworx_1_1lib_1_1lox_1_1ALox.html" target="_top" xlink:title="ALox">
<polygon fill="#ffffff" stroke="#000000" points="98,-152.5 98,-171.5 137,-171.5 137,-152.5 98,-152.5"/>
<text text-anchor="middle" x="117.5" y="-159.5" font-family="Helvetica,sans-Serif" font-size="10.00" fill="#000000">ALox</text>
</a>
</g>
</g>
<!-- Node0&#45;&gt;Node7 -->
<g id="edge7" class="edge">
<title>Node0&#45;&gt;Node7</title>
<path fill="none" stroke="#191970" d="M55.7189,-186.8432C69.7777,-181.1899 85.7378,-174.7721 97.9142,-169.8758"/>
<polygon fill="#191970" stroke="#191970" points="54.3317,-183.6286 46.3596,-190.6067 56.9434,-190.1231 54.3317,-183.6286"/>
</g>
<!-- Node8 -->
<g id="node9" class="node">
<title>Node8</title>
<g id="a_node9"><a xlink:href="classaworx_1_1lib_1_1strings_1_1Strings.html" target="_top" xlink:title="Strings">
<polygon fill="#ffffff" stroke="#000000" points="94,-114.5 94,-133.5 141,-133.5 141,-114.5 94,-114.5"/>
<text text-anchor="middle" x="117.5" y="-121.5" font-family="Helvetica,sans-Serif" font-size="10.00" fill="#000000">Strings</text>
</a>
</g>
</g>
<!-- Node0&#45;&gt;Node8 -->
<g id="edge8" class="edge">
<title>Node0&#45;&gt;Node8</title>
<path fill="none" stroke="#191970" d="M38.4986,-182.6653C49.809,-170.633 65.9147,-154.7228 82,-143 86.7454,-139.5416 92.1988,-136.3071 97.3846,-133.5219"/>
<polygon fill="#191970" stroke="#191970" points="35.6902,-180.5484 31.4937,-190.2767 40.8409,-185.2887 35.6902,-180.5484"/>
</g>
<!-- Node9 -->
<g id="node10" class="node">
<title>Node9</title>
<g id="a_node10"><a xlink:href="classaworx_1_1lib_1_1system_1_1System.html" target="_top" xlink:title="System">
<polygon fill="#ffffff" stroke="#000000" points="92.5,-76.5 92.5,-95.5 142.5,-95.5 142.5,-76.5 92.5,-76.5"/>
<text text-anchor="middle" x="117.5" y="-83.5" font-family="Helvetica,sans-Serif" font-size="10.00" fill="#000000">System</text>
</a>
</g>
</g>
<!-- Node0&#45;&gt;Node9 -->
<g id="edge9" class="edge">
<title>Node0&#45;&gt;Node9</title>
<path fill="none" stroke="#191970" d="M31.1882,-180.8681C40.8537,-160.0851 58.6163,-126.9257 82,-105 85.8755,-101.3661 90.5788,-98.2153 95.2767,-95.581"/>
<polygon fill="#191970" stroke="#191970" points="27.8893,-179.6712 26.9945,-190.2282 34.2774,-182.5333 27.8893,-179.6712"/>
</g>
<!-- Node10 -->
<g id="node11" class="node">
<title>Node10</title>
<g id="a_node11"><a xlink:href="classaworx_1_1lib_1_1threads_1_1Threads.html" target="_top" xlink:title="Threads">
<polygon fill="#ffffff" stroke="#000000" points="91.5,-38.5 91.5,-57.5 143.5,-57.5 143.5,-38.5 91.5,-38.5"/>
<text text-anchor="middle" x="117.5" y="-45.5" font-family="Helvetica,sans-Serif" font-size="10.00" fill="#000000">Threads</text>
</a>
</g>
</g>
<!-- Node0&#45;&gt;Node10 -->
<g id="edge10" class="edge">
<title>Node0&#45;&gt;Node10</title>
<path fill="none" stroke="#191970" d="M27.3202,-180.647C34.4425,-152.5894 51.0423,-100.3341 82,-67 85.425,-63.312 89.7316,-60.1956 94.1529,-57.621"/>
<polygon fill="#191970" stroke="#191970" points="23.9001,-179.9001 24.9735,-190.4404 30.7074,-181.5314 23.9001,-179.9001"/>
</g>
<!-- Node11 -->
<g id="node12" class="node">
<title>Node11</title>
<g id="a_node12"><a xlink:href="classaworx_1_1lib_1_1time_1_1TimeLib.html" target="_top" xlink:title="TimeLib">
<polygon fill="#ffffff" stroke="#000000" points="92,-.5 92,-19.5 143,-19.5 143,-.5 92,-.5"/>
<text text-anchor="middle" x="117.5" y="-7.5" font-family="Helvetica,sans-Serif" font-size="10.00" fill="#000000">TimeLib</text>
</a>
</g>
</g>
<!-- Node0&#45;&gt;Node11 -->
<g id="edge11" class="edge">
<title>Node0&#45;&gt;Node11</title>
<path fill="none" stroke="#191970" d="M25.121,-180.0955C29.7368,-145.6024 43.5661,-74.0961 82,-29 85.174,-25.2758 89.2665,-22.1677 93.5379,-19.6171"/>
<polygon fill="#191970" stroke="#191970" points="21.615,-179.9341 23.8866,-190.2826 28.5642,-180.7762 21.615,-179.9341"/>
</g>
</g>
</svg>
