<?xml version="1.0" encoding="UTF-8" standalone="no"?>
<!DOCTYPE svg PUBLIC "-//W3C//DTD SVG 1.1//EN"
 "http://www.w3.org/Graphics/SVG/1.1/DTD/svg11.dtd">
<!-- Generated by graphviz version 2.40.1 (20161225.0304)
 -->
<!-- Title: inifile.hpp Pages: 1 -->
<svg width="268pt" height="196pt"
 viewBox="0.00 0.00 267.50 196.00" xmlns="http://www.w3.org/2000/svg" xmlns:xlink="http://www.w3.org/1999/xlink">
<g id="graph0" class="graph" transform="scale(1 1) rotate(0) translate(4 192)">
<title>inifile.hpp</title>
<polygon fill="#ffffff" stroke="transparent" points="-4,4 -4,-192 263.5,-192 263.5,4 -4,4"/>
<!-- Node0 -->
<g id="node1" class="node">
<title>Node0</title>
<polygon fill="#bfbfbf" stroke="#000000" points="146,-168.5 146,-187.5 204,-187.5 204,-168.5 146,-168.5"/>
<text text-anchor="middle" x="175" y="-175.5" font-family="Helvetica,sans-Serif" font-size="10.00" fill="#000000">inifile.hpp</text>
</g>
<!-- Node1 -->
<g id="node2" class="node">
<title>Node1</title>
<g id="a_node2"><a xlink:href="inmemoryplugin_8hpp.html" target="_top" xlink:title="alib/config/inmemoryplugin.hpp">
<polygon fill="#ffffff" stroke="#000000" points="99.5,-112.5 99.5,-131.5 250.5,-131.5 250.5,-112.5 99.5,-112.5"/>
<text text-anchor="middle" x="175" y="-119.5" font-family="Helvetica,sans-Serif" font-size="10.00" fill="#000000">alib/config/inmemoryplugin.hpp</text>
</a>
</g>
</g>
<!-- Node0&#45;&gt;Node1 -->
<g id="edge1" class="edge">
<title>Node0&#45;&gt;Node1</title>
<path fill="none" stroke="#191970" d="M175,-168.2455C175,-160.9382 175,-150.6944 175,-141.7046"/>
<polygon fill="#191970" stroke="#191970" points="178.5001,-141.6426 175,-131.6427 171.5001,-141.6427 178.5001,-141.6426"/>
</g>
<!-- Node2 -->
<g id="node3" class="node">
<title>Node2</title>
<g id="a_node3"><a xlink:href="plugins_8hpp.html" target="_top" xlink:title="alib/config/plugins.hpp">
<polygon fill="#ffffff" stroke="#000000" points="70.5,-56.5 70.5,-75.5 183.5,-75.5 183.5,-56.5 70.5,-56.5"/>
<text text-anchor="middle" x="127" y="-63.5" font-family="Helvetica,sans-Serif" font-size="10.00" fill="#000000">alib/config/plugins.hpp</text>
</a>
</g>
</g>
<!-- Node1&#45;&gt;Node2 -->
<g id="edge2" class="edge">
<title>Node1&#45;&gt;Node2</title>
<path fill="none" stroke="#191970" d="M166.639,-112.2455C159.825,-104.2958 150.0319,-92.8706 141.8848,-83.3656"/>
<polygon fill="#191970" stroke="#191970" points="144.4305,-80.9575 135.2651,-75.6427 139.1157,-85.513 144.4305,-80.9575"/>
</g>
<!-- Node12 -->
<g id="node4" class="node">
<title>Node12</title>
<polygon fill="#ffffff" stroke="#bfbfbf" points="202,-56.5 202,-75.5 246,-75.5 246,-56.5 202,-56.5"/>
<text text-anchor="middle" x="224" y="-63.5" font-family="Helvetica,sans-Serif" font-size="10.00" fill="#000000">vector</text>
</g>
<!-- Node1&#45;&gt;Node12 -->
<g id="edge3" class="edge">
<title>Node1&#45;&gt;Node12</title>
<path fill="none" stroke="#191970" d="M183.5351,-112.2455C190.4912,-104.2958 200.4883,-92.8706 208.8051,-83.3656"/>
<polygon fill="#191970" stroke="#191970" points="211.6116,-85.4732 215.5627,-75.6427 206.3436,-80.8637 211.6116,-85.4732"/>
</g>
<!-- Node3 -->
<g id="node5" class="node">
<title>Node3</title>
<g id="a_node5"><a xlink:href="variable_8hpp.html" target="_top" xlink:title="alib/config/variable.hpp">
<polygon fill="#ffffff" stroke="#ff0000" points="0,-.5 0,-19.5 116,-19.5 116,-.5 0,-.5"/>
<text text-anchor="middle" x="58" y="-7.5" font-family="Helvetica,sans-Serif" font-size="10.00" fill="#000000">alib/config/variable.hpp</text>
</a>
</g>
</g>
<!-- Node2&#45;&gt;Node3 -->
<g id="edge4" class="edge">
<title>Node2&#45;&gt;Node3</title>
<path fill="none" stroke="#191970" d="M114.9811,-56.2455C104.7902,-47.9746 89.9638,-35.9416 77.9893,-26.2232"/>
<polygon fill="#191970" stroke="#191970" points="79.8514,-23.2268 69.8812,-19.6427 75.4402,-28.662 79.8514,-23.2268"/>
</g>
<!-- Node10 -->
<g id="node6" class="node">
<title>Node10</title>
<g id="a_node6"><a xlink:href="substring_8hpp.html" target="_top" xlink:title="alib/strings/substring.hpp">
<polygon fill="#ffffff" stroke="#ff0000" points="134.5,-.5 134.5,-19.5 259.5,-19.5 259.5,-.5 134.5,-.5"/>
<text text-anchor="middle" x="197" y="-7.5" font-family="Helvetica,sans-Serif" font-size="10.00" fill="#000000">alib/strings/substring.hpp</text>
</a>
</g>
</g>
<!-- Node2&#45;&gt;Node10 -->
<g id="edge5" class="edge">
<title>Node2&#45;&gt;Node10</title>
<path fill="none" stroke="#191970" d="M139.1931,-56.2455C149.6321,-47.8943 164.8655,-35.7076 177.074,-25.9408"/>
<polygon fill="#191970" stroke="#191970" points="179.3244,-28.6227 184.9467,-19.6427 174.9515,-23.1566 179.3244,-28.6227"/>
</g>
</g>
</svg>
