<?xml version="1.0" encoding="UTF-8" standalone="no"?>
<!DOCTYPE svg PUBLIC "-//W3C//DTD SVG 1.1//EN"
 "http://www.w3.org/Graphics/SVG/1.1/DTD/svg11.dtd">
<!-- Generated by graphviz version 2.40.1 (20161225.0304)
 -->
<!-- Title: inifile.hpp Pages: 1 -->
<svg width="69pt" height="140pt"
 viewBox="0.00 0.00 69.00 140.00" xmlns="http://www.w3.org/2000/svg" xmlns:xlink="http://www.w3.org/1999/xlink">
<g id="graph0" class="graph" transform="scale(1 1) rotate(0) translate(4 136)">
<title>inifile.hpp</title>
<polygon fill="#ffffff" stroke="transparent" points="-4,4 -4,-136 65,-136 65,4 -4,4"/>
<!-- Node13 -->
<g id="node1" class="node">
<title>Node13</title>
<polygon fill="#bfbfbf" stroke="#000000" points="1.5,-112.5 1.5,-131.5 59.5,-131.5 59.5,-112.5 1.5,-112.5"/>
<text text-anchor="middle" x="30.5" y="-119.5" font-family="Helvetica,sans-Serif" font-size="10.00" fill="#000000">inifile.hpp</text>
</g>
<!-- Node14 -->
<g id="node2" class="node">
<title>Node14</title>
<g id="a_node2"><a xlink:href="cliapp_8hpp.html" target="_top" xlink:title="cliapp.hpp">
<polygon fill="#ffffff" stroke="#000000" points="0,-56.5 0,-75.5 61,-75.5 61,-56.5 0,-56.5"/>
<text text-anchor="middle" x="30.5" y="-63.5" font-family="Helvetica,sans-Serif" font-size="10.00" fill="#000000">cliapp.hpp</text>
</a>
</g>
</g>
<!-- Node13&#45;&gt;Node14 -->
<g id="edge1" class="edge">
<title>Node13&#45;&gt;Node14</title>
<path fill="none" stroke="#191970" d="M30.5,-102.1575C30.5,-93.155 30.5,-82.9199 30.5,-75.6427"/>
<polygon fill="#191970" stroke="#191970" points="27.0001,-102.2455 30.5,-112.2455 34.0001,-102.2456 27.0001,-102.2455"/>
</g>
<!-- Node15 -->
<g id="node3" class="node">
<title>Node15</title>
<g id="a_node3"><a xlink:href="cliutil_8hpp.html" target="_top" xlink:title="cliutil.hpp">
<polygon fill="#ffffff" stroke="#000000" points="1.5,-.5 1.5,-19.5 59.5,-19.5 59.5,-.5 1.5,-.5"/>
<text text-anchor="middle" x="30.5" y="-7.5" font-family="Helvetica,sans-Serif" font-size="10.00" fill="#000000">cliutil.hpp</text>
</a>
</g>
</g>
<!-- Node14&#45;&gt;Node15 -->
<g id="edge2" class="edge">
<title>Node14&#45;&gt;Node15</title>
<path fill="none" stroke="#191970" d="M30.5,-46.1575C30.5,-37.155 30.5,-26.9199 30.5,-19.6427"/>
<polygon fill="#191970" stroke="#191970" points="27.0001,-46.2455 30.5,-56.2455 34.0001,-46.2456 27.0001,-46.2455"/>
</g>
</g>
</svg>
