<?xml version="1.0" encoding="UTF-8" standalone="no"?>
<!DOCTYPE svg PUBLIC "-//W3C//DTD SVG 1.1//EN"
 "http://www.w3.org/Graphics/SVG/1.1/DTD/svg11.dtd">
<!-- Generated by graphviz version 2.40.1 (20161225.0304)
 -->
<!-- Title: inmemoryplugin.hpp Pages: 1 -->
<svg width="274pt" height="196pt"
 viewBox="0.00 0.00 274.00 196.00" xmlns="http://www.w3.org/2000/svg" xmlns:xlink="http://www.w3.org/1999/xlink">
<g id="graph0" class="graph" transform="scale(1 1) rotate(0) translate(4 192)">
<title>inmemoryplugin.hpp</title>
<polygon fill="#ffffff" stroke="transparent" points="-4,4 -4,-192 270,-192 270,4 -4,4"/>
<!-- Node0 -->
<g id="node1" class="node">
<title>Node0</title>
<polygon fill="#bfbfbf" stroke="#000000" points="125.5,-168.5 125.5,-187.5 229.5,-187.5 229.5,-168.5 125.5,-168.5"/>
<text text-anchor="middle" x="177.5" y="-175.5" font-family="Helvetica,sans-Serif" font-size="10.00" fill="#000000">inmemoryplugin.hpp</text>
</g>
<!-- Node1 -->
<g id="node2" class="node">
<title>Node1</title>
<g id="a_node2"><a xlink:href="plugins_8hpp.html" target="_top" xlink:title="alib/config/plugins.hpp">
<polygon fill="#ffffff" stroke="#000000" points="73,-112.5 73,-131.5 186,-131.5 186,-112.5 73,-112.5"/>
<text text-anchor="middle" x="129.5" y="-119.5" font-family="Helvetica,sans-Serif" font-size="10.00" fill="#000000">alib/config/plugins.hpp</text>
</a>
</g>
</g>
<!-- Node0&#45;&gt;Node1 -->
<g id="edge1" class="edge">
<title>Node0&#45;&gt;Node1</title>
<path fill="none" stroke="#191970" d="M169.139,-168.2455C162.325,-160.2958 152.5319,-148.8706 144.3848,-139.3656"/>
<polygon fill="#191970" stroke="#191970" points="146.9305,-136.9575 137.7651,-131.6427 141.6157,-141.513 146.9305,-136.9575"/>
</g>
<!-- Node11 -->
<g id="node3" class="node">
<title>Node11</title>
<polygon fill="#ffffff" stroke="#bfbfbf" points="204.5,-112.5 204.5,-131.5 248.5,-131.5 248.5,-112.5 204.5,-112.5"/>
<text text-anchor="middle" x="226.5" y="-119.5" font-family="Helvetica,sans-Serif" font-size="10.00" fill="#000000">vector</text>
</g>
<!-- Node0&#45;&gt;Node11 -->
<g id="edge2" class="edge">
<title>Node0&#45;&gt;Node11</title>
<path fill="none" stroke="#191970" d="M186.0351,-168.2455C192.9912,-160.2958 202.9883,-148.8706 211.3051,-139.3656"/>
<polygon fill="#191970" stroke="#191970" points="214.1116,-141.4732 218.0627,-131.6427 208.8436,-136.8637 214.1116,-141.4732"/>
</g>
<!-- Node2 -->
<g id="node4" class="node">
<title>Node2</title>
<g id="a_node4"><a xlink:href="variable_8hpp.html" target="_top" xlink:title="alib/config/variable.hpp">
<polygon fill="#ffffff" stroke="#000000" points="2.5,-56.5 2.5,-75.5 118.5,-75.5 118.5,-56.5 2.5,-56.5"/>
<text text-anchor="middle" x="60.5" y="-63.5" font-family="Helvetica,sans-Serif" font-size="10.00" fill="#000000">alib/config/variable.hpp</text>
</a>
</g>
</g>
<!-- Node1&#45;&gt;Node2 -->
<g id="edge3" class="edge">
<title>Node1&#45;&gt;Node2</title>
<path fill="none" stroke="#191970" d="M117.4811,-112.2455C107.2902,-103.9746 92.4638,-91.9416 80.4893,-82.2232"/>
<polygon fill="#191970" stroke="#191970" points="82.3514,-79.2268 72.3812,-75.6427 77.9402,-84.662 82.3514,-79.2268"/>
</g>
<!-- Node9 -->
<g id="node5" class="node">
<title>Node9</title>
<g id="a_node5"><a xlink:href="substring_8hpp.html" target="_top" xlink:title="alib/strings/substring.hpp">
<polygon fill="#ffffff" stroke="#000000" points="138,-56.5 138,-75.5 263,-75.5 263,-56.5 138,-56.5"/>
<text text-anchor="middle" x="200.5" y="-63.5" font-family="Helvetica,sans-Serif" font-size="10.00" fill="#000000">alib/strings/substring.hpp</text>
</a>
</g>
</g>
<!-- Node1&#45;&gt;Node9 -->
<g id="edge4" class="edge">
<title>Node1&#45;&gt;Node9</title>
<path fill="none" stroke="#191970" d="M141.8673,-112.2455C152.4554,-103.8943 167.9064,-91.7076 180.2893,-81.9408"/>
<polygon fill="#191970" stroke="#191970" points="182.5903,-84.5837 188.2745,-75.6427 178.2553,-79.0875 182.5903,-84.5837"/>
</g>
<!-- Node3 -->
<g id="node6" class="node">
<title>Node3</title>
<g id="a_node6"><a xlink:href="configlib_8hpp.html" target="_top" xlink:title="alib/config/configlib.hpp">
<polygon fill="#ffffff" stroke="#ff0000" points="0,-.5 0,-19.5 119,-19.5 119,-.5 0,-.5"/>
<text text-anchor="middle" x="59.5" y="-7.5" font-family="Helvetica,sans-Serif" font-size="10.00" fill="#000000">alib/config/configlib.hpp</text>
</a>
</g>
</g>
<!-- Node2&#45;&gt;Node3 -->
<g id="edge5" class="edge">
<title>Node2&#45;&gt;Node3</title>
<path fill="none" stroke="#191970" d="M60.3258,-56.2455C60.1953,-48.9382 60.0124,-38.6944 59.8519,-29.7046"/>
<polygon fill="#191970" stroke="#191970" points="63.3503,-29.5786 59.6722,-19.6427 56.3514,-29.7036 63.3503,-29.5786"/>
</g>
<!-- Node10 -->
<g id="node7" class="node">
<title>Node10</title>
<g id="a_node7"><a xlink:href="enumbitwise_8hpp.html" target="_top" xlink:title="alib/lang/enumbitwise.hpp">
<polygon fill="#ffffff" stroke="#ff0000" points="137,-.5 137,-19.5 266,-19.5 266,-.5 137,-.5"/>
<text text-anchor="middle" x="201.5" y="-7.5" font-family="Helvetica,sans-Serif" font-size="10.00" fill="#000000">alib/lang/enumbitwise.hpp</text>
</a>
</g>
</g>
<!-- Node9&#45;&gt;Node10 -->
<g id="edge6" class="edge">
<title>Node9&#45;&gt;Node10</title>
<path fill="none" stroke="#191970" d="M200.6742,-56.2455C200.8047,-48.9382 200.9876,-38.6944 201.1481,-29.7046"/>
<polygon fill="#191970" stroke="#191970" points="204.6486,-29.7036 201.3278,-19.6427 197.6497,-29.5786 204.6486,-29.7036"/>
</g>
</g>
</svg>
