<?xml version="1.0" encoding="UTF-8" standalone="no"?>
<!DOCTYPE svg PUBLIC "-//W3C//DTD SVG 1.1//EN"
 "http://www.w3.org/Graphics/SVG/1.1/DTD/svg11.dtd">
<!-- Generated by graphviz version 2.40.1 (20161225.0304)
 -->
<!-- Title: inmemoryplugin.hpp Pages: 1 -->
<svg width="1390pt" height="420pt"
 viewBox="0.00 0.00 1390.00 420.00" xmlns="http://www.w3.org/2000/svg" xmlns:xlink="http://www.w3.org/1999/xlink">
<g id="graph0" class="graph" transform="scale(1 1) rotate(0) translate(4 416)">
<title>inmemoryplugin.hpp</title>
<polygon fill="#ffffff" stroke="transparent" points="-4,4 -4,-416 1386,-416 1386,4 -4,4"/>
<!-- Node12 -->
<g id="node1" class="node">
<title>Node12</title>
<polygon fill="#bfbfbf" stroke="#000000" points="1163,-392.5 1163,-411.5 1267,-411.5 1267,-392.5 1163,-392.5"/>
<text text-anchor="middle" x="1215" y="-399.5" font-family="Helvetica,sans-Serif" font-size="10.00" fill="#000000">inmemoryplugin.hpp</text>
</g>
<!-- Node13 -->
<g id="node2" class="node">
<title>Node13</title>
<g id="a_node2"><a xlink:href="configuration_8hpp.html" target="_top" xlink:title="configuration.hpp">
<polygon fill="#ffffff" stroke="#000000" points="1123.5,-336.5 1123.5,-355.5 1214.5,-355.5 1214.5,-336.5 1123.5,-336.5"/>
<text text-anchor="middle" x="1169" y="-343.5" font-family="Helvetica,sans-Serif" font-size="10.00" fill="#000000">configuration.hpp</text>
</a>
</g>
</g>
<!-- Node12&#45;&gt;Node13 -->
<g id="edge1" class="edge">
<title>Node12&#45;&gt;Node13</title>
<path fill="none" stroke="#191970" d="M1200.6253,-384.5004C1192.8029,-374.9775 1183.424,-363.5596 1176.9208,-355.6427"/>
<polygon fill="#191970" stroke="#191970" points="1197.9354,-386.7399 1206.9874,-392.2455 1203.3445,-382.2967 1197.9354,-386.7399"/>
</g>
<!-- Node41 -->
<g id="node3" class="node">
<title>Node41</title>
<g id="a_node3"><a xlink:href="inifile_8hpp.html" target="_top" xlink:title="inifile.hpp">
<polygon fill="#ffffff" stroke="#000000" points="1247,-336.5 1247,-355.5 1305,-355.5 1305,-336.5 1247,-336.5"/>
<text text-anchor="middle" x="1276" y="-343.5" font-family="Helvetica,sans-Serif" font-size="10.00" fill="#000000">inifile.hpp</text>
</a>
</g>
</g>
<!-- Node12&#45;&gt;Node41 -->
<g id="edge2" class="edge">
<title>Node12&#45;&gt;Node41</title>
<path fill="none" stroke="#191970" d="M1233.1249,-385.3607C1243.678,-375.6727 1256.6112,-363.7995 1265.4964,-355.6427"/>
<polygon fill="#191970" stroke="#191970" points="1230.625,-382.9045 1225.6254,-392.2455 1235.3589,-388.0611 1230.625,-382.9045"/>
</g>
<!-- Node14 -->
<g id="node4" class="node">
<title>Node14</title>
<g id="a_node4"><a xlink:href="alox_2alox_8hpp.html" target="_top" xlink:title="alox.hpp">
<polygon fill="#ffffff" stroke="#000000" points="608.5,-280.5 608.5,-299.5 661.5,-299.5 661.5,-280.5 608.5,-280.5"/>
<text text-anchor="middle" x="635" y="-287.5" font-family="Helvetica,sans-Serif" font-size="10.00" fill="#000000">alox.hpp</text>
</a>
</g>
</g>
<!-- Node13&#45;&gt;Node14 -->
<g id="edge3" class="edge">
<title>Node13&#45;&gt;Node14</title>
<path fill="none" stroke="#191970" d="M1113.2472,-340.1533C999.57,-328.2321 744.7464,-301.509 661.7125,-292.8013"/>
<polygon fill="#191970" stroke="#191970" points="1113.1609,-343.6633 1123.4715,-341.2255 1113.8911,-336.7015 1113.1609,-343.6633"/>
</g>
<!-- Node16 -->
<g id="node5" class="node">
<title>Node16</title>
<g id="a_node5"><a xlink:href="lox_8hpp.html" target="_top" xlink:title="lox.hpp">
<polygon fill="#ffffff" stroke="#000000" points="646,-168.5 646,-187.5 694,-187.5 694,-168.5 646,-168.5"/>
<text text-anchor="middle" x="670" y="-175.5" font-family="Helvetica,sans-Serif" font-size="10.00" fill="#000000">lox.hpp</text>
</a>
</g>
</g>
<!-- Node13&#45;&gt;Node16 -->
<g id="edge4" class="edge">
<title>Node13&#45;&gt;Node16</title>
<path fill="none" stroke="#191970" d="M1156.8709,-327.883C1137.2254,-300.199 1095.6007,-248.0533 1046,-224 1014.3051,-208.6299 772.3022,-186.7672 694.2106,-180.0449"/>
<polygon fill="#191970" stroke="#191970" points="1154.0998,-330.0291 1162.6704,-336.2577 1159.8546,-326.0439 1154.0998,-330.0291"/>
</g>
<!-- Node32 -->
<g id="node6" class="node">
<title>Node32</title>
<g id="a_node6"><a xlink:href="compiler_8hpp_source.html" target="_top" xlink:title="compiler.hpp">
<polygon fill="#ffffff" stroke="#000000" points="1195.5,-280.5 1195.5,-299.5 1266.5,-299.5 1266.5,-280.5 1195.5,-280.5"/>
<text text-anchor="middle" x="1231" y="-287.5" font-family="Helvetica,sans-Serif" font-size="10.00" fill="#000000">compiler.hpp</text>
</a>
</g>
</g>
<!-- Node13&#45;&gt;Node32 -->
<g id="edge5" class="edge">
<title>Node13&#45;&gt;Node32</title>
<path fill="none" stroke="#191970" d="M1187.4221,-329.3607C1198.1481,-319.6727 1211.2934,-307.7995 1220.3242,-299.6427"/>
<polygon fill="#191970" stroke="#191970" points="1184.8746,-326.9453 1179.7996,-336.2455 1189.5666,-332.14 1184.8746,-326.9453"/>
</g>
<!-- Node42 -->
<g id="node24" class="node">
<title>Node42</title>
<g id="a_node24"><a xlink:href="cliapp_8hpp.html" target="_top" xlink:title="cliapp.hpp">
<polygon fill="#ffffff" stroke="#000000" points="1303.5,-280.5 1303.5,-299.5 1364.5,-299.5 1364.5,-280.5 1303.5,-280.5"/>
<text text-anchor="middle" x="1334" y="-287.5" font-family="Helvetica,sans-Serif" font-size="10.00" fill="#000000">cliapp.hpp</text>
</a>
</g>
</g>
<!-- Node41&#45;&gt;Node42 -->
<g id="edge43" class="edge">
<title>Node41&#45;&gt;Node42</title>
<path fill="none" stroke="#191970" d="M1293.5293,-329.0751C1303.5083,-319.4402 1315.6476,-307.7196 1324.0129,-299.6427"/>
<polygon fill="#191970" stroke="#191970" points="1290.8658,-326.7817 1286.1028,-336.2455 1295.728,-331.8175 1290.8658,-326.7817"/>
</g>
<!-- Node14&#45;&gt;Node16 -->
<g id="edge7" class="edge">
<title>Node14&#45;&gt;Node16</title>
<path fill="none" stroke="#191970" d="M620.408,-270.9581C615.0278,-257.4262 612.058,-239.0579 618,-224 623.9389,-208.9501 637.3827,-195.9271 649.4081,-187.6175"/>
<polygon fill="#191970" stroke="#191970" points="617.3843,-272.7453 624.8845,-280.2284 623.6878,-269.7013 617.3843,-272.7453"/>
</g>
<!-- Node15 -->
<g id="node7" class="node">
<title>Node15</title>
<g id="a_node7"><a xlink:href="log_8hpp.html" target="_top" xlink:title="log.hpp">
<polygon fill="#ffffff" stroke="#000000" points="809,-224.5 809,-243.5 857,-243.5 857,-224.5 809,-224.5"/>
<text text-anchor="middle" x="833" y="-231.5" font-family="Helvetica,sans-Serif" font-size="10.00" fill="#000000">log.hpp</text>
</a>
</g>
</g>
<!-- Node14&#45;&gt;Node15 -->
<g id="edge6" class="edge">
<title>Node14&#45;&gt;Node15</title>
<path fill="none" stroke="#191970" d="M671.4501,-277.8536C702.9339,-268.6651 749.3513,-255.678 790,-244 795.9136,-242.3011 802.3952,-240.4036 808.6351,-238.7218"/>
<polygon fill="#191970" stroke="#191970" points="670.3857,-274.5183 661.779,-280.6969 672.3602,-281.234 670.3857,-274.5183"/>
</g>
<!-- Node17 -->
<g id="node8" class="node">
<title>Node17</title>
<g id="a_node8"><a xlink:href="domain_8hpp.html" target="_top" xlink:title="domain.hpp">
<polygon fill="#ffffff" stroke="#000000" points="636.5,-224.5 636.5,-243.5 703.5,-243.5 703.5,-224.5 636.5,-224.5"/>
<text text-anchor="middle" x="670" y="-231.5" font-family="Helvetica,sans-Serif" font-size="10.00" fill="#000000">domain.hpp</text>
</a>
</g>
</g>
<!-- Node14&#45;&gt;Node17 -->
<g id="edge8" class="edge">
<title>Node14&#45;&gt;Node17</title>
<path fill="none" stroke="#191970" d="M646.4815,-271.6296C652.3196,-262.2887 659.1752,-251.3197 663.9733,-243.6427"/>
<polygon fill="#191970" stroke="#191970" points="643.4286,-269.9105 641.0965,-280.2455 649.3646,-273.6206 643.4286,-269.9105"/>
</g>
<!-- Node18 -->
<g id="node9" class="node">
<title>Node18</title>
<g id="a_node9"><a xlink:href="logger_8hpp.html" target="_top" xlink:title="logger.hpp">
<polygon fill="#ffffff" stroke="#000000" points="875.5,-224.5 875.5,-243.5 936.5,-243.5 936.5,-224.5 875.5,-224.5"/>
<text text-anchor="middle" x="906" y="-231.5" font-family="Helvetica,sans-Serif" font-size="10.00" fill="#000000">logger.hpp</text>
</a>
</g>
</g>
<!-- Node14&#45;&gt;Node18 -->
<g id="edge9" class="edge">
<title>Node14&#45;&gt;Node18</title>
<path fill="none" stroke="#191970" d="M671.7893,-283.2431C717.468,-274.7227 797.7059,-259.3272 866,-244 869.0732,-243.3103 872.2715,-242.5623 875.4614,-241.7963"/>
<polygon fill="#191970" stroke="#191970" points="670.9581,-279.8375 661.7659,-285.1057 672.2371,-286.7197 670.9581,-279.8375"/>
</g>
<!-- Node19 -->
<g id="node10" class="node">
<title>Node19</title>
<g id="a_node10"><a xlink:href="textlogger_8hpp.html" target="_top" xlink:title="textlogger.hpp">
<polygon fill="#ffffff" stroke="#000000" points="826.5,-168.5 826.5,-187.5 903.5,-187.5 903.5,-168.5 826.5,-168.5"/>
<text text-anchor="middle" x="865" y="-175.5" font-family="Helvetica,sans-Serif" font-size="10.00" fill="#000000">textlogger.hpp</text>
</a>
</g>
</g>
<!-- Node14&#45;&gt;Node19 -->
<g id="edge10" class="edge">
<title>Node14&#45;&gt;Node19</title>
<path fill="none" stroke="#191970" d="M671.6993,-288.6328C767.8197,-284.6771 1021.2319,-271.6949 1046,-244 1088.3083,-196.6923 968.4576,-183.2546 903.592,-179.4678"/>
<polygon fill="#191970" stroke="#191970" points="671.4242,-285.141 661.5729,-289.0399 671.7054,-292.1353 671.4242,-285.141"/>
</g>
<!-- Node20 -->
<g id="node11" class="node">
<title>Node20</title>
<g id="a_node11"><a xlink:href="plaintextlogger_8hpp.html" target="_top" xlink:title="plaintextlogger.hpp">
<polygon fill="#ffffff" stroke="#000000" points="216,-112.5 216,-131.5 314,-131.5 314,-112.5 216,-112.5"/>
<text text-anchor="middle" x="265" y="-119.5" font-family="Helvetica,sans-Serif" font-size="10.00" fill="#000000">plaintextlogger.hpp</text>
</a>
</g>
</g>
<!-- Node14&#45;&gt;Node20 -->
<g id="edge11" class="edge">
<title>Node14&#45;&gt;Node20</title>
<path fill="none" stroke="#191970" d="M597.7538,-288.595C525.7115,-285.2157 370.6164,-274.516 328,-244 288.462,-215.6883 271.9321,-155.0272 266.8481,-131.5517"/>
<polygon fill="#191970" stroke="#191970" points="598.0195,-292.1103 608.1655,-289.0593 598.3314,-285.1172 598.0195,-292.1103"/>
</g>
<!-- Node21 -->
<g id="node12" class="node">
<title>Node21</title>
<g id="a_node12"><a xlink:href="consolelogger_8hpp.html" target="_top" xlink:title="consolelogger.hpp">
<polygon fill="#ffffff" stroke="#000000" points="332.5,-56.5 332.5,-75.5 427.5,-75.5 427.5,-56.5 332.5,-56.5"/>
<text text-anchor="middle" x="380" y="-63.5" font-family="Helvetica,sans-Serif" font-size="10.00" fill="#000000">consolelogger.hpp</text>
</a>
</g>
</g>
<!-- Node14&#45;&gt;Node21 -->
<g id="edge12" class="edge">
<title>Node14&#45;&gt;Node21</title>
<path fill="none" stroke="#191970" d="M597.9594,-287.742C539.5398,-283.3729 429.9608,-271.6374 404,-244 358.7398,-195.8169 371.9828,-105.3663 377.8721,-75.6972"/>
<polygon fill="#191970" stroke="#191970" points="598.0172,-291.2549 608.2406,-288.4743 598.5145,-284.2726 598.0172,-291.2549"/>
</g>
<!-- Node22 -->
<g id="node13" class="node">
<title>Node22</title>
<g id="a_node13"><a xlink:href="alox_8hpp_source.html" target="_top" xlink:title="alox.hpp">
<polygon fill="#ffffff" stroke="#000000" points="429.5,-.5 429.5,-19.5 482.5,-19.5 482.5,-.5 429.5,-.5"/>
<text text-anchor="middle" x="456" y="-7.5" font-family="Helvetica,sans-Serif" font-size="10.00" fill="#000000">alox.hpp</text>
</a>
</g>
</g>
<!-- Node14&#45;&gt;Node22 -->
<g id="edge13" class="edge">
<title>Node14&#45;&gt;Node22</title>
<path fill="none" stroke="#191970" d="M598.5123,-284.9465C553.5745,-277.9546 480.9686,-263.9012 463,-244 403.6233,-178.2372 440.2964,-54.7895 452.4921,-19.59"/>
<polygon fill="#191970" stroke="#191970" points="598.0603,-288.4178 608.471,-286.4513 599.1062,-281.4964 598.0603,-288.4178"/>
</g>
<!-- Node23 -->
<g id="node14" class="node">
<title>Node23</title>
<g id="a_node14"><a xlink:href="memorylogger_8hpp.html" target="_top" xlink:title="memorylogger.hpp">
<polygon fill="#ffffff" stroke="#000000" points="0,-56.5 0,-75.5 96,-75.5 96,-56.5 0,-56.5"/>
<text text-anchor="middle" x="48" y="-63.5" font-family="Helvetica,sans-Serif" font-size="10.00" fill="#000000">memorylogger.hpp</text>
</a>
</g>
</g>
<!-- Node14&#45;&gt;Node23 -->
<g id="edge14" class="edge">
<title>Node14&#45;&gt;Node23</title>
<path fill="none" stroke="#191970" d="M598.3423,-287.8655C518.3042,-282.8019 330.4066,-268.6084 272,-244 174.499,-202.9199 84.1759,-106.9745 56.5839,-75.9019"/>
<polygon fill="#191970" stroke="#191970" points="598.2516,-291.3665 608.4492,-288.4924 598.6851,-284.3799 598.2516,-291.3665"/>
</g>
<!-- Node24 -->
<g id="node15" class="node">
<title>Node24</title>
<g id="a_node15"><a xlink:href="textfilelogger_8hpp.html" target="_top" xlink:title="textfilelogger.hpp">
<polygon fill="#ffffff" stroke="#000000" points="114,-56.5 114,-75.5 204,-75.5 204,-56.5 114,-56.5"/>
<text text-anchor="middle" x="159" y="-63.5" font-family="Helvetica,sans-Serif" font-size="10.00" fill="#000000">textfilelogger.hpp</text>
</a>
</g>
</g>
<!-- Node14&#45;&gt;Node24 -->
<g id="edge15" class="edge">
<title>Node14&#45;&gt;Node24</title>
<path fill="none" stroke="#191970" d="M598.0707,-288.1258C522.7231,-283.7803 354.1532,-271.2406 304,-244 229.0456,-203.2887 178.0808,-106.2567 163.3755,-75.5139"/>
<polygon fill="#191970" stroke="#191970" points="597.8818,-291.6206 608.0619,-288.6852 598.2732,-284.6315 597.8818,-291.6206"/>
</g>
<!-- Node25 -->
<g id="node16" class="node">
<title>Node25</title>
<g id="a_node16"><a xlink:href="vstudiologger_8hpp.html" target="_top" xlink:title="vstudiologger.hpp">
<polygon fill="#ffffff" stroke="#000000" points="222,-56.5 222,-75.5 314,-75.5 314,-56.5 222,-56.5"/>
<text text-anchor="middle" x="268" y="-63.5" font-family="Helvetica,sans-Serif" font-size="10.00" fill="#000000">vstudiologger.hpp</text>
</a>
</g>
</g>
<!-- Node14&#45;&gt;Node25 -->
<g id="edge16" class="edge">
<title>Node14&#45;&gt;Node25</title>
<path fill="none" stroke="#191970" d="M598.0094,-287.2077C537.2036,-281.9621 419.6052,-268.8573 387,-244 335.1506,-204.4715 363.1217,-163.3918 323,-112 311.5097,-97.282 294.6018,-84.0188 282.57,-75.5586"/>
<polygon fill="#191970" stroke="#191970" points="598.0605,-290.7241 608.3171,-288.0685 598.643,-283.7484 598.0605,-290.7241"/>
</g>
<!-- Node26 -->
<g id="node17" class="node">
<title>Node26</title>
<g id="a_node17"><a xlink:href="ansilogger_8hpp.html" target="_top" xlink:title="ansilogger.hpp">
<polygon fill="#ffffff" stroke="#000000" points="454.5,-112.5 454.5,-131.5 533.5,-131.5 533.5,-112.5 454.5,-112.5"/>
<text text-anchor="middle" x="494" y="-119.5" font-family="Helvetica,sans-Serif" font-size="10.00" fill="#000000">ansilogger.hpp</text>
</a>
</g>
</g>
<!-- Node14&#45;&gt;Node26 -->
<g id="edge17" class="edge">
<title>Node14&#45;&gt;Node26</title>
<path fill="none" stroke="#191970" d="M598.2993,-284.6142C555.8311,-277.5437 489.8171,-263.6772 475,-244 449.0821,-209.5809 475.5764,-154.0011 488.1569,-131.7079"/>
<polygon fill="#191970" stroke="#191970" points="597.8523,-288.0873 608.282,-286.224 598.9668,-281.1766 597.8523,-288.0873"/>
</g>
<!-- Node27 -->
<g id="node18" class="node">
<title>Node27</title>
<g id="a_node18"><a xlink:href="windowsconsolelogger_8hpp.html" target="_top" xlink:title="windowsconsolelogger.hpp">
<polygon fill="#ffffff" stroke="#000000" points="798.5,-112.5 798.5,-131.5 931.5,-131.5 931.5,-112.5 798.5,-112.5"/>
<text text-anchor="middle" x="865" y="-119.5" font-family="Helvetica,sans-Serif" font-size="10.00" fill="#000000">windowsconsolelogger.hpp</text>
</a>
</g>
</g>
<!-- Node14&#45;&gt;Node27 -->
<g id="edge18" class="edge">
<title>Node14&#45;&gt;Node27</title>
<path fill="none" stroke="#191970" d="M671.9285,-288.793C773.7456,-285.1103 1052.8838,-272.488 1082,-244 1106.2457,-220.2774 1110.4378,-194.2876 1089,-168 1069.398,-143.9635 990.2777,-132.1321 931.5956,-126.5613"/>
<polygon fill="#191970" stroke="#191970" points="671.6742,-285.2997 661.804,-289.1507 671.9214,-292.2953 671.6742,-285.2997"/>
</g>
<!-- Node28 -->
<g id="node19" class="node">
<title>Node28</title>
<g id="a_node19"><a xlink:href="scopedump_8hpp.html" target="_top" xlink:title="scopedump.hpp">
<polygon fill="#ffffff" stroke="#000000" points="994,-168.5 994,-187.5 1080,-187.5 1080,-168.5 994,-168.5"/>
<text text-anchor="middle" x="1037" y="-175.5" font-family="Helvetica,sans-Serif" font-size="10.00" fill="#000000">scopedump.hpp</text>
</a>
</g>
</g>
<!-- Node14&#45;&gt;Node28 -->
<g id="edge19" class="edge">
<title>Node14&#45;&gt;Node28</title>
<path fill="none" stroke="#191970" d="M671.6939,-288.8259C770.9218,-285.2755 1038.8827,-273.0603 1065,-244 1079.976,-227.3365 1060.0492,-201.4766 1046.8978,-187.591"/>
<polygon fill="#191970" stroke="#191970" points="671.411,-285.3335 661.5391,-289.1798 671.655,-292.3293 671.411,-285.3335"/>
</g>
<!-- Node29 -->
<g id="node20" class="node">
<title>Node29</title>
<g id="a_node20"><a xlink:href="scopestore_8hpp.html" target="_top" xlink:title="scopestore.hpp">
<polygon fill="#ffffff" stroke="#000000" points="954.5,-224.5 954.5,-243.5 1037.5,-243.5 1037.5,-224.5 954.5,-224.5"/>
<text text-anchor="middle" x="996" y="-231.5" font-family="Helvetica,sans-Serif" font-size="10.00" fill="#000000">scopestore.hpp</text>
</a>
</g>
</g>
<!-- Node14&#45;&gt;Node29 -->
<g id="edge20" class="edge">
<title>Node14&#45;&gt;Node29</title>
<path fill="none" stroke="#191970" d="M671.762,-285.1064C729.898,-277.2412 846.5673,-260.944 945,-244 948.0233,-243.4796 951.1431,-242.921 954.2805,-242.3436"/>
<polygon fill="#191970" stroke="#191970" points="671.0484,-281.6708 661.6055,-286.4751 671.9834,-288.6081 671.0484,-281.6708"/>
</g>
<!-- Node30 -->
<g id="node21" class="node">
<title>Node30</title>
<g id="a_node21"><a xlink:href="scopeinfo_8hpp.html" target="_top" xlink:title="scopeinfo.hpp">
<polygon fill="#ffffff" stroke="#000000" points="484.5,-224.5 484.5,-243.5 561.5,-243.5 561.5,-224.5 484.5,-224.5"/>
<text text-anchor="middle" x="523" y="-231.5" font-family="Helvetica,sans-Serif" font-size="10.00" fill="#000000">scopeinfo.hpp</text>
</a>
</g>
</g>
<!-- Node14&#45;&gt;Node30 -->
<g id="edge21" class="edge">
<title>Node14&#45;&gt;Node30</title>
<path fill="none" stroke="#191970" d="M606.6737,-275.8368C586.4279,-265.7139 559.7358,-252.3679 542.0022,-243.5011"/>
<polygon fill="#191970" stroke="#191970" points="605.237,-279.0316 615.7465,-280.3733 608.3675,-272.7706 605.237,-279.0316"/>
</g>
<!-- Node31 -->
<g id="node22" class="node">
<title>Node31</title>
<g id="a_node22"><a xlink:href="logtools_8hpp.html" target="_top" xlink:title="logtools.hpp">
<polygon fill="#ffffff" stroke="#000000" points="721.5,-224.5 721.5,-243.5 790.5,-243.5 790.5,-224.5 721.5,-224.5"/>
<text text-anchor="middle" x="756" y="-231.5" font-family="Helvetica,sans-Serif" font-size="10.00" fill="#000000">logtools.hpp</text>
</a>
</g>
</g>
<!-- Node14&#45;&gt;Node31 -->
<g id="edge22" class="edge">
<title>Node14&#45;&gt;Node31</title>
<path fill="none" stroke="#191970" d="M665.0104,-276.1109C686.9525,-265.9559 716.1388,-252.4482 735.4708,-243.5011"/>
<polygon fill="#191970" stroke="#191970" points="663.4058,-272.9968 655.8006,-280.3733 666.3459,-279.3494 663.4058,-272.9968"/>
</g>
<!-- Node16&#45;&gt;Node14 -->
<g id="edge24" class="edge">
<title>Node16&#45;&gt;Node14</title>
<path fill="none" stroke="#191970" d="M656.7952,-194.6915C649.1299,-202.5653 640.4541,-212.7125 636,-224 628.5433,-242.8962 635.1208,-267.0055 637.0354,-280.2284"/>
<polygon fill="#191970" stroke="#191970" points="659.293,-197.1438 663.93,-187.6175 654.3644,-192.1728 659.293,-197.1438"/>
</g>
<!-- Node33 -->
<g id="node23" class="node">
<title>Node33</title>
<g id="a_node23"><a xlink:href="compilerplugin_8hpp_source.html" target="_top" xlink:title="compilerplugin.hpp">
<polygon fill="#ffffff" stroke="#ff0000" points="1208,-224.5 1208,-243.5 1306,-243.5 1306,-224.5 1208,-224.5"/>
<text text-anchor="middle" x="1257" y="-231.5" font-family="Helvetica,sans-Serif" font-size="10.00" fill="#000000">compilerplugin.hpp</text>
</a>
</g>
</g>
<!-- Node32&#45;&gt;Node33 -->
<g id="edge42" class="edge">
<title>Node32&#45;&gt;Node33</title>
<path fill="none" stroke="#191970" d="M1239.8011,-271.0437C1244.0775,-261.8331 1249.033,-251.1598 1252.523,-243.6427"/>
<polygon fill="#191970" stroke="#191970" points="1236.5655,-269.7015 1235.5289,-280.2455 1242.9146,-272.6494 1236.5655,-269.7015"/>
</g>
<!-- Node15&#45;&gt;Node14 -->
<g id="edge23" class="edge">
<title>Node15&#45;&gt;Node14</title>
<path fill="none" stroke="#191970" d="M799.7472,-246.3642C749.3057,-260.7923 693.7973,-276.1765 661.5539,-284.2742"/>
<polygon fill="#191970" stroke="#191970" points="800.7809,-249.7089 809.4292,-243.5887 798.8519,-242.9799 800.7809,-249.7089"/>
</g>
<!-- Node17&#45;&gt;Node16 -->
<g id="edge25" class="edge">
<title>Node17&#45;&gt;Node16</title>
<path fill="none" stroke="#191970" d="M670,-214.1575C670,-205.155 670,-194.9199 670,-187.6427"/>
<polygon fill="#191970" stroke="#191970" points="666.5001,-214.2455 670,-224.2455 673.5001,-214.2456 666.5001,-214.2455"/>
</g>
<!-- Node18&#45;&gt;Node16 -->
<g id="edge26" class="edge">
<title>Node18&#45;&gt;Node16</title>
<path fill="none" stroke="#191970" d="M865.4079,-223.8822C797.413,-207.4493 729.4577,-191.6886 694.166,-183.5532"/>
<polygon fill="#191970" stroke="#191970" points="864.8935,-227.3588 875.4363,-226.3108 866.5411,-220.5554 864.8935,-227.3588"/>
</g>
<!-- Node18&#45;&gt;Node19 -->
<g id="edge27" class="edge">
<title>Node18&#45;&gt;Node19</title>
<path fill="none" stroke="#191970" d="M892.7636,-215.9209C885.8789,-206.5176 877.7391,-195.3997 872.0598,-187.6427"/>
<polygon fill="#191970" stroke="#191970" points="890.1269,-218.2445 898.8583,-224.2455 895.7749,-214.1093 890.1269,-218.2445"/>
</g>
<!-- Node19&#45;&gt;Node20 -->
<g id="edge28" class="edge">
<title>Node19&#45;&gt;Node20</title>
<path fill="none" stroke="#191970" d="M816.0321,-173.4297C703.3674,-162.9143 426.8202,-137.1032 314.0632,-126.5792"/>
<polygon fill="#191970" stroke="#191970" points="815.8126,-176.9243 826.0946,-174.3688 816.4632,-169.9546 815.8126,-176.9243"/>
</g>
<!-- Node19&#45;&gt;Node26 -->
<g id="edge29" class="edge">
<title>Node19&#45;&gt;Node26</title>
<path fill="none" stroke="#191970" d="M816.3269,-170.6531C742.1228,-159.4525 602.1232,-138.3205 533.6856,-127.9903"/>
<polygon fill="#191970" stroke="#191970" points="815.936,-174.1337 826.3464,-172.1655 816.9808,-167.2121 815.936,-174.1337"/>
</g>
<!-- Node19&#45;&gt;Node27 -->
<g id="edge30" class="edge">
<title>Node19&#45;&gt;Node27</title>
<path fill="none" stroke="#191970" d="M865,-158.1575C865,-149.155 865,-138.9199 865,-131.6427"/>
<polygon fill="#191970" stroke="#191970" points="861.5001,-158.2455 865,-168.2455 868.5001,-158.2456 861.5001,-158.2455"/>
</g>
<!-- Node20&#45;&gt;Node21 -->
<g id="edge31" class="edge">
<title>Node20&#45;&gt;Node21</title>
<path fill="none" stroke="#191970" d="M293.8033,-107.9741C314.625,-97.8348 342.1978,-84.408 360.4888,-75.5011"/>
<polygon fill="#191970" stroke="#191970" points="292.2276,-104.8484 284.7692,-112.3733 295.2922,-111.1419 292.2276,-104.8484"/>
</g>
<!-- Node20&#45;&gt;Node23 -->
<g id="edge32" class="edge">
<title>Node20&#45;&gt;Node23</title>
<path fill="none" stroke="#191970" d="M217.9231,-109.8511C177.9917,-99.5462 121.5077,-84.9697 84.8169,-75.5011"/>
<polygon fill="#191970" stroke="#191970" points="217.139,-113.2634 227.6964,-112.3733 218.8882,-106.4854 217.139,-113.2634"/>
</g>
<!-- Node20&#45;&gt;Node24 -->
<g id="edge33" class="edge">
<title>Node20&#45;&gt;Node24</title>
<path fill="none" stroke="#191970" d="M237.4778,-107.46C218.5092,-97.4388 193.8273,-84.3993 177.2522,-75.6427"/>
<polygon fill="#191970" stroke="#191970" points="236.0593,-110.669 246.5362,-112.2455 239.3292,-104.4796 236.0593,-110.669"/>
</g>
<!-- Node20&#45;&gt;Node25 -->
<g id="edge34" class="edge">
<title>Node20&#45;&gt;Node25</title>
<path fill="none" stroke="#191970" d="M266.063,-102.1575C266.5453,-93.155 267.0936,-82.9199 267.4834,-75.6427"/>
<polygon fill="#191970" stroke="#191970" points="262.5626,-102.0726 265.5226,-112.2455 269.5526,-102.4471 262.5626,-102.0726"/>
</g>
<!-- Node21&#45;&gt;Node22 -->
<g id="edge35" class="edge">
<title>Node21&#45;&gt;Node22</title>
<path fill="none" stroke="#191970" d="M401.4297,-50.2097C414.7777,-40.3743 431.5179,-28.0394 442.9135,-19.6427"/>
<polygon fill="#191970" stroke="#191970" points="399.2126,-47.4958 393.2382,-56.2455 403.365,-53.1312 399.2126,-47.4958"/>
</g>
<!-- Node25&#45;&gt;Node22 -->
<g id="edge36" class="edge">
<title>Node25&#45;&gt;Node22</title>
<path fill="none" stroke="#191970" d="M310.171,-53.4384C346.631,-42.578 398.225,-27.2096 429.2662,-17.9633"/>
<polygon fill="#191970" stroke="#191970" points="308.903,-50.1641 300.3184,-56.3733 310.9014,-56.8728 308.903,-50.1641"/>
</g>
<!-- Node26&#45;&gt;Node22 -->
<g id="edge37" class="edge">
<title>Node26&#45;&gt;Node22</title>
<path fill="none" stroke="#191970" d="M487.5282,-102.9253C479.3185,-78.7284 465.4788,-37.9376 459.2317,-19.5249"/>
<polygon fill="#191970" stroke="#191970" points="484.2327,-104.1057 490.7601,-112.4509 490.8615,-101.8566 484.2327,-104.1057"/>
</g>
<!-- Node27&#45;&gt;Node22 -->
<g id="edge38" class="edge">
<title>Node27&#45;&gt;Node22</title>
<path fill="none" stroke="#191970" d="M820.4781,-109.8082C735.2103,-86.4586 551.2358,-36.0792 482.5647,-17.2744"/>
<polygon fill="#191970" stroke="#191970" points="819.5595,-113.1854 830.1289,-112.4509 821.4084,-106.434 819.5595,-113.1854"/>
</g>
<!-- Node29&#45;&gt;Node16 -->
<g id="edge39" class="edge">
<title>Node29&#45;&gt;Node16</title>
<path fill="none" stroke="#191970" d="M944.4159,-223.933C845.5599,-206.0828 740.7716,-189.2084 694.3187,-181.8343"/>
<polygon fill="#191970" stroke="#191970" points="943.8054,-227.3794 954.2694,-225.7192 945.054,-220.4916 943.8054,-227.3794"/>
</g>
<!-- Node29&#45;&gt;Node28 -->
<g id="edge40" class="edge">
<title>Node29&#45;&gt;Node28</title>
<path fill="none" stroke="#191970" d="M1009.2364,-215.9209C1016.1211,-206.5176 1024.2609,-195.3997 1029.9402,-187.6427"/>
<polygon fill="#191970" stroke="#191970" points="1006.2251,-214.1093 1003.1417,-224.2455 1011.8731,-218.2445 1006.2251,-214.1093"/>
</g>
<!-- Node30&#45;&gt;Node16 -->
<g id="edge41" class="edge">
<title>Node30&#45;&gt;Node16</title>
<path fill="none" stroke="#191970" d="M557.7393,-220.766C584.7569,-210.4735 621.5623,-196.4525 645.548,-187.315"/>
<polygon fill="#191970" stroke="#191970" points="556.3691,-217.5425 548.2702,-224.3733 558.8611,-224.0839 556.3691,-217.5425"/>
</g>
<!-- Node43 -->
<g id="node25" class="node">
<title>Node43</title>
<g id="a_node25"><a xlink:href="cliutil_8hpp.html" target="_top" xlink:title="cliutil.hpp">
<polygon fill="#ffffff" stroke="#000000" points="1324,-224.5 1324,-243.5 1382,-243.5 1382,-224.5 1324,-224.5"/>
<text text-anchor="middle" x="1353" y="-231.5" font-family="Helvetica,sans-Serif" font-size="10.00" fill="#000000">cliutil.hpp</text>
</a>
</g>
</g>
<!-- Node42&#45;&gt;Node43 -->
<g id="edge44" class="edge">
<title>Node42&#45;&gt;Node43</title>
<path fill="none" stroke="#191970" d="M1340.5315,-270.7493C1343.6336,-261.6064 1347.2051,-251.0798 1349.7284,-243.6427"/>
<polygon fill="#191970" stroke="#191970" points="1337.2082,-269.6512 1337.3095,-280.2455 1343.837,-271.9003 1337.2082,-269.6512"/>
</g>
</g>
</svg>
