<?xml version="1.0" encoding="UTF-8" standalone="no"?>
<!DOCTYPE svg PUBLIC "-//W3C//DTD SVG 1.1//EN"
 "http://www.w3.org/Graphics/SVG/1.1/DTD/svg11.dtd">
<!-- Generated by graphviz version 2.40.1 (20161225.0304)
 -->
<!-- Title: log.hpp Pages: 1 -->
<svg width="962pt" height="364pt"
 viewBox="0.00 0.00 962.48 364.00" xmlns="http://www.w3.org/2000/svg" xmlns:xlink="http://www.w3.org/1999/xlink">
<g id="graph0" class="graph" transform="scale(1 1) rotate(0) translate(4 360)">
<title>log.hpp</title>
<polygon fill="#ffffff" stroke="transparent" points="-4,4 -4,-360 958.4834,-360 958.4834,4 -4,4"/>
<!-- Node92 -->
<g id="node1" class="node">
<title>Node92</title>
<polygon fill="#bfbfbf" stroke="#000000" points="446.9834,-336.5 446.9834,-355.5 494.9834,-355.5 494.9834,-336.5 446.9834,-336.5"/>
<text text-anchor="middle" x="470.9834" y="-343.5" font-family="Helvetica,sans-Serif" font-size="10.00" fill="#000000">log.hpp</text>
</g>
<!-- Node93 -->
<g id="node2" class="node">
<title>Node93</title>
<g id="a_node2"><a xlink:href="alox_2alox_8hpp.html" target="_top" xlink:title="alox.hpp">
<polygon fill="#ffffff" stroke="#000000" points="444.4834,-280.5 444.4834,-299.5 497.4834,-299.5 497.4834,-280.5 444.4834,-280.5"/>
<text text-anchor="middle" x="470.9834" y="-287.5" font-family="Helvetica,sans-Serif" font-size="10.00" fill="#000000">alox.hpp</text>
</a>
</g>
</g>
<!-- Node92&#45;&gt;Node93 -->
<g id="edge1" class="edge">
<title>Node92&#45;&gt;Node93</title>
<path fill="none" stroke="#191970" d="M464.4948,-326.1575C463.9025,-317.155 464.317,-306.9199 465.7383,-299.6427"/>
<polygon fill="#191970" stroke="#191970" points="461.0395,-326.739 465.7166,-336.2455 467.9887,-325.8972 461.0395,-326.739"/>
</g>
<!-- Node93&#45;&gt;Node92 -->
<g id="edge2" class="edge">
<title>Node93&#45;&gt;Node92</title>
<path fill="none" stroke="#191970" d="M477.4629,-309.7046C478.0655,-318.6944 477.6613,-328.9382 476.2503,-336.2455"/>
<polygon fill="#191970" stroke="#191970" points="480.9202,-309.1421 476.2286,-299.6427 473.9723,-309.9945 480.9202,-309.1421"/>
</g>
<!-- Node94 -->
<g id="node3" class="node">
<title>Node94</title>
<g id="a_node3"><a xlink:href="lox_8hpp.html" target="_top" xlink:title="lox.hpp">
<polygon fill="#ffffff" stroke="#000000" points="78.9834,-168.5 78.9834,-187.5 126.9834,-187.5 126.9834,-168.5 78.9834,-168.5"/>
<text text-anchor="middle" x="102.9834" y="-175.5" font-family="Helvetica,sans-Serif" font-size="10.00" fill="#000000">lox.hpp</text>
</a>
</g>
</g>
<!-- Node93&#45;&gt;Node94 -->
<g id="edge3" class="edge">
<title>Node93&#45;&gt;Node94</title>
<path fill="none" stroke="#191970" d="M434.1352,-289.1712C329.015,-286.321 34.2953,-275.3116 5.9834,-244 -18.4802,-216.9444 42.5462,-193.5215 78.8512,-183.3713"/>
<polygon fill="#191970" stroke="#191970" points="434.1883,-292.6737 444.2764,-289.4365 434.3714,-285.6761 434.1883,-292.6737"/>
</g>
<!-- Node95 -->
<g id="node4" class="node">
<title>Node95</title>
<g id="a_node4"><a xlink:href="domain_8hpp.html" target="_top" xlink:title="domain.hpp">
<polygon fill="#ffffff" stroke="#000000" points="24.4834,-224.5 24.4834,-243.5 91.4834,-243.5 91.4834,-224.5 24.4834,-224.5"/>
<text text-anchor="middle" x="57.9834" y="-231.5" font-family="Helvetica,sans-Serif" font-size="10.00" fill="#000000">domain.hpp</text>
</a>
</g>
</g>
<!-- Node93&#45;&gt;Node95 -->
<g id="edge4" class="edge">
<title>Node93&#45;&gt;Node95</title>
<path fill="none" stroke="#191970" d="M434.2549,-286.802C367.4076,-280.681 221.5419,-265.9381 99.9834,-244 97.3279,-243.5208 94.5887,-242.9785 91.8419,-242.4006"/>
<polygon fill="#191970" stroke="#191970" points="434.0144,-290.2944 444.2892,-287.7101 434.6454,-283.3229 434.0144,-290.2944"/>
</g>
<!-- Node96 -->
<g id="node5" class="node">
<title>Node96</title>
<g id="a_node5"><a xlink:href="logger_8hpp.html" target="_top" xlink:title="logger.hpp">
<polygon fill="#ffffff" stroke="#000000" points="305.4834,-224.5 305.4834,-243.5 366.4834,-243.5 366.4834,-224.5 305.4834,-224.5"/>
<text text-anchor="middle" x="335.9834" y="-231.5" font-family="Helvetica,sans-Serif" font-size="10.00" fill="#000000">logger.hpp</text>
</a>
</g>
</g>
<!-- Node93&#45;&gt;Node96 -->
<g id="edge5" class="edge">
<title>Node93&#45;&gt;Node96</title>
<path fill="none" stroke="#191970" d="M438.4843,-276.5189C413.898,-266.3201 380.7468,-252.5685 358.8879,-243.5011"/>
<polygon fill="#191970" stroke="#191970" points="437.1982,-279.7745 447.7761,-280.3733 439.8803,-273.3087 437.1982,-279.7745"/>
</g>
<!-- Node97 -->
<g id="node6" class="node">
<title>Node97</title>
<g id="a_node6"><a xlink:href="textlogger_8hpp.html" target="_top" xlink:title="textlogger.hpp">
<polygon fill="#ffffff" stroke="#000000" points="403.4834,-168.5 403.4834,-187.5 480.4834,-187.5 480.4834,-168.5 403.4834,-168.5"/>
<text text-anchor="middle" x="441.9834" y="-175.5" font-family="Helvetica,sans-Serif" font-size="10.00" fill="#000000">textlogger.hpp</text>
</a>
</g>
</g>
<!-- Node93&#45;&gt;Node97 -->
<g id="edge6" class="edge">
<title>Node93&#45;&gt;Node97</title>
<path fill="none" stroke="#191970" d="M465.9599,-270.5987C459.6845,-246.363 449.1959,-205.8551 444.4497,-187.5249"/>
<polygon fill="#191970" stroke="#191970" points="462.6159,-271.6475 468.5109,-280.4509 469.3925,-269.8929 462.6159,-271.6475"/>
</g>
<!-- Node98 -->
<g id="node7" class="node">
<title>Node98</title>
<g id="a_node7"><a xlink:href="plaintextlogger_8hpp.html" target="_top" xlink:title="plaintextlogger.hpp">
<polygon fill="#ffffff" stroke="#000000" points="612.9834,-112.5 612.9834,-131.5 710.9834,-131.5 710.9834,-112.5 612.9834,-112.5"/>
<text text-anchor="middle" x="661.9834" y="-119.5" font-family="Helvetica,sans-Serif" font-size="10.00" fill="#000000">plaintextlogger.hpp</text>
</a>
</g>
</g>
<!-- Node93&#45;&gt;Node98 -->
<g id="edge7" class="edge">
<title>Node93&#45;&gt;Node98</title>
<path fill="none" stroke="#191970" d="M507.7966,-284.2799C535.5987,-278.3229 573.2356,-266.5626 598.9834,-244 635.1987,-212.2648 653.4868,-154.6521 659.5907,-131.7588"/>
<polygon fill="#191970" stroke="#191970" points="506.7958,-280.9101 497.668,-286.2892 508.1579,-287.7763 506.7958,-280.9101"/>
</g>
<!-- Node99 -->
<g id="node8" class="node">
<title>Node99</title>
<g id="a_node8"><a xlink:href="consolelogger_8hpp.html" target="_top" xlink:title="consolelogger.hpp">
<polygon fill="#ffffff" stroke="#000000" points="363.4834,-56.5 363.4834,-75.5 458.4834,-75.5 458.4834,-56.5 363.4834,-56.5"/>
<text text-anchor="middle" x="410.9834" y="-63.5" font-family="Helvetica,sans-Serif" font-size="10.00" fill="#000000">consolelogger.hpp</text>
</a>
</g>
</g>
<!-- Node93&#45;&gt;Node99 -->
<g id="edge8" class="edge">
<title>Node93&#45;&gt;Node99</title>
<path fill="none" stroke="#191970" d="M454.5123,-273.3219C415.353,-233.627 319.8052,-136.5002 317.9834,-132 306.5052,-103.6465 342.755,-85.4773 373.3044,-75.5269"/>
<polygon fill="#191970" stroke="#191970" points="452.0324,-275.7917 461.5479,-280.4506 457.0146,-270.8746 452.0324,-275.7917"/>
</g>
<!-- Node100 -->
<g id="node9" class="node">
<title>Node100</title>
<g id="a_node9"><a xlink:href="alox_8hpp_source.html" target="_top" xlink:title="alox.hpp">
<polygon fill="#ffffff" stroke="#000000" points="460.4834,-.5 460.4834,-19.5 513.4834,-19.5 513.4834,-.5 460.4834,-.5"/>
<text text-anchor="middle" x="486.9834" y="-7.5" font-family="Helvetica,sans-Serif" font-size="10.00" fill="#000000">alox.hpp</text>
</a>
</g>
</g>
<!-- Node93&#45;&gt;Node100 -->
<g id="edge9" class="edge">
<title>Node93&#45;&gt;Node100</title>
<path fill="none" stroke="#191970" d="M507.6712,-287.2265C604.0427,-278.939 856.9834,-250.3008 856.9834,-178 856.9834,-178 856.9834,-178 856.9834,-122 856.9834,-91.4754 861.1241,-75.9063 837.9834,-56 813.4354,-34.8831 591.4229,-17.3594 513.705,-11.8242"/>
<polygon fill="#191970" stroke="#191970" points="507.1891,-283.7544 497.5148,-288.0739 507.7712,-290.7302 507.1891,-283.7544"/>
</g>
<!-- Node101 -->
<g id="node10" class="node">
<title>Node101</title>
<g id="a_node10"><a xlink:href="memorylogger_8hpp.html" target="_top" xlink:title="memorylogger.hpp">
<polygon fill="#ffffff" stroke="#000000" points="514.9834,-56.5 514.9834,-75.5 610.9834,-75.5 610.9834,-56.5 514.9834,-56.5"/>
<text text-anchor="middle" x="562.9834" y="-63.5" font-family="Helvetica,sans-Serif" font-size="10.00" fill="#000000">memorylogger.hpp</text>
</a>
</g>
</g>
<!-- Node93&#45;&gt;Node101 -->
<g id="edge10" class="edge">
<title>Node93&#45;&gt;Node101</title>
<path fill="none" stroke="#191970" d="M502.5874,-275.6482C516.0023,-268.0469 530.6629,-257.4658 539.9834,-244 577.402,-189.9398 568.7631,-104.0725 564.5698,-75.5553"/>
<polygon fill="#191970" stroke="#191970" points="500.7691,-272.6509 493.5801,-280.4335 504.0533,-278.8327 500.7691,-272.6509"/>
</g>
<!-- Node102 -->
<g id="node11" class="node">
<title>Node102</title>
<g id="a_node11"><a xlink:href="textfilelogger_8hpp.html" target="_top" xlink:title="textfilelogger.hpp">
<polygon fill="#ffffff" stroke="#000000" points="628.9834,-56.5 628.9834,-75.5 718.9834,-75.5 718.9834,-56.5 628.9834,-56.5"/>
<text text-anchor="middle" x="673.9834" y="-63.5" font-family="Helvetica,sans-Serif" font-size="10.00" fill="#000000">textfilelogger.hpp</text>
</a>
</g>
</g>
<!-- Node93&#45;&gt;Node102 -->
<g id="edge11" class="edge">
<title>Node93&#45;&gt;Node102</title>
<path fill="none" stroke="#191970" d="M507.7239,-284.5278C539.6481,-278.4785 586.1113,-266.4626 620.9834,-244 676.8358,-208.0231 696.4594,-194.1325 719.9834,-132 723.1308,-123.687 723.3851,-120.2123 719.9834,-112 713.6732,-96.7658 699.5988,-83.9464 688.6687,-75.7423"/>
<polygon fill="#191970" stroke="#191970" points="506.7205,-281.1516 497.4926,-286.357 507.9525,-288.0423 506.7205,-281.1516"/>
</g>
<!-- Node103 -->
<g id="node12" class="node">
<title>Node103</title>
<g id="a_node12"><a xlink:href="vstudiologger_8hpp.html" target="_top" xlink:title="vstudiologger.hpp">
<polygon fill="#ffffff" stroke="#000000" points="736.9834,-56.5 736.9834,-75.5 828.9834,-75.5 828.9834,-56.5 736.9834,-56.5"/>
<text text-anchor="middle" x="782.9834" y="-63.5" font-family="Helvetica,sans-Serif" font-size="10.00" fill="#000000">vstudiologger.hpp</text>
</a>
</g>
</g>
<!-- Node93&#45;&gt;Node103 -->
<g id="edge12" class="edge">
<title>Node93&#45;&gt;Node103</title>
<path fill="none" stroke="#191970" d="M507.7207,-285.7461C545.0872,-280.2509 603.7681,-268.3352 648.9834,-244 721.8735,-204.77 766.5385,-106.7428 779.2323,-75.6335"/>
<polygon fill="#191970" stroke="#191970" points="507.1973,-282.2851 497.7755,-287.1308 508.1627,-289.2183 507.1973,-282.2851"/>
</g>
<!-- Node104 -->
<g id="node13" class="node">
<title>Node104</title>
<g id="a_node13"><a xlink:href="ansilogger_8hpp.html" target="_top" xlink:title="ansilogger.hpp">
<polygon fill="#ffffff" stroke="#000000" points="326.4834,-112.5 326.4834,-131.5 405.4834,-131.5 405.4834,-112.5 326.4834,-112.5"/>
<text text-anchor="middle" x="365.9834" y="-119.5" font-family="Helvetica,sans-Serif" font-size="10.00" fill="#000000">ansilogger.hpp</text>
</a>
</g>
</g>
<!-- Node93&#45;&gt;Node104 -->
<g id="edge13" class="edge">
<title>Node93&#45;&gt;Node104</title>
<path fill="none" stroke="#191970" d="M481.3883,-271.408C494.1852,-245.7782 511.7044,-199.2252 489.9834,-168 479.9855,-153.6274 437.8962,-140.0547 405.4974,-131.4293"/>
<polygon fill="#191970" stroke="#191970" points="478.2036,-269.9442 476.6446,-280.4237 484.3984,-273.2037 478.2036,-269.9442"/>
</g>
<!-- Node105 -->
<g id="node14" class="node">
<title>Node105</title>
<g id="a_node14"><a xlink:href="windowsconsolelogger_8hpp.html" target="_top" xlink:title="windowsconsolelogger.hpp">
<polygon fill="#ffffff" stroke="#000000" points="423.4834,-112.5 423.4834,-131.5 556.4834,-131.5 556.4834,-112.5 423.4834,-112.5"/>
<text text-anchor="middle" x="489.9834" y="-119.5" font-family="Helvetica,sans-Serif" font-size="10.00" fill="#000000">windowsconsolelogger.hpp</text>
</a>
</g>
</g>
<!-- Node93&#45;&gt;Node105 -->
<g id="edge14" class="edge">
<title>Node93&#45;&gt;Node105</title>
<path fill="none" stroke="#191970" d="M496.4328,-274.4967C506.6971,-266.7437 517.4138,-256.3631 522.9834,-244 536.8575,-213.2031 533.3247,-200.1558 522.9834,-168 518.4096,-153.7779 507.6334,-140.2277 499.6326,-131.5654"/>
<polygon fill="#191970" stroke="#191970" points="494.2216,-271.7723 488.0401,-280.377 498.2384,-277.5052 494.2216,-271.7723"/>
</g>
<!-- Node106 -->
<g id="node15" class="node">
<title>Node106</title>
<g id="a_node15"><a xlink:href="scopedump_8hpp.html" target="_top" xlink:title="scopedump.hpp">
<polygon fill="#ffffff" stroke="#000000" points="216.9834,-168.5 216.9834,-187.5 302.9834,-187.5 302.9834,-168.5 216.9834,-168.5"/>
<text text-anchor="middle" x="259.9834" y="-175.5" font-family="Helvetica,sans-Serif" font-size="10.00" fill="#000000">scopedump.hpp</text>
</a>
</g>
</g>
<!-- Node93&#45;&gt;Node106 -->
<g id="edge15" class="edge">
<title>Node93&#45;&gt;Node106</title>
<path fill="none" stroke="#191970" d="M450.9282,-274.0262C432.2772,-259.6771 403.3306,-238.6696 375.9834,-224 347.7284,-208.8434 313.3727,-195.8371 289.4139,-187.5606"/>
<polygon fill="#191970" stroke="#191970" points="448.9283,-276.905 458.9675,-280.291 453.231,-271.3835 448.9283,-276.905"/>
</g>
<!-- Node107 -->
<g id="node16" class="node">
<title>Node107</title>
<g id="a_node16"><a xlink:href="scopestore_8hpp.html" target="_top" xlink:title="scopestore.hpp">
<polygon fill="#ffffff" stroke="#000000" points="204.4834,-224.5 204.4834,-243.5 287.4834,-243.5 287.4834,-224.5 204.4834,-224.5"/>
<text text-anchor="middle" x="245.9834" y="-231.5" font-family="Helvetica,sans-Serif" font-size="10.00" fill="#000000">scopestore.hpp</text>
</a>
</g>
</g>
<!-- Node93&#45;&gt;Node107 -->
<g id="edge16" class="edge">
<title>Node93&#45;&gt;Node107</title>
<path fill="none" stroke="#191970" d="M434.3742,-280.8884C393.0883,-270.6128 326.254,-253.9785 284.285,-243.5328"/>
<polygon fill="#191970" stroke="#191970" points="433.7401,-284.3373 444.2894,-283.3562 435.4308,-277.5445 433.7401,-284.3373"/>
</g>
<!-- Node108 -->
<g id="node17" class="node">
<title>Node108</title>
<g id="a_node17"><a xlink:href="scopeinfo_8hpp.html" target="_top" xlink:title="scopeinfo.hpp">
<polygon fill="#ffffff" stroke="#000000" points="109.4834,-224.5 109.4834,-243.5 186.4834,-243.5 186.4834,-224.5 109.4834,-224.5"/>
<text text-anchor="middle" x="147.9834" y="-231.5" font-family="Helvetica,sans-Serif" font-size="10.00" fill="#000000">scopeinfo.hpp</text>
</a>
</g>
</g>
<!-- Node93&#45;&gt;Node108 -->
<g id="edge17" class="edge">
<title>Node93&#45;&gt;Node108</title>
<path fill="none" stroke="#191970" d="M434.4808,-284.3663C381.732,-276.118 281.173,-259.9923 195.9834,-244 192.9716,-243.4346 189.8577,-242.8305 186.7299,-242.2097"/>
<polygon fill="#191970" stroke="#191970" points="433.9546,-287.8264 444.3744,-285.9085 435.0329,-280.91 433.9546,-287.8264"/>
</g>
<!-- Node109 -->
<g id="node18" class="node">
<title>Node109</title>
<g id="a_node18"><a xlink:href="logtools_8hpp.html" target="_top" xlink:title="logtools.hpp">
<polygon fill="#ffffff" stroke="#000000" points="885.4834,-224.5 885.4834,-243.5 954.4834,-243.5 954.4834,-224.5 885.4834,-224.5"/>
<text text-anchor="middle" x="919.9834" y="-231.5" font-family="Helvetica,sans-Serif" font-size="10.00" fill="#000000">logtools.hpp</text>
</a>
</g>
</g>
<!-- Node93&#45;&gt;Node109 -->
<g id="edge18" class="edge">
<title>Node93&#45;&gt;Node109</title>
<path fill="none" stroke="#191970" d="M507.9544,-286.8301C578.6996,-280.5252 738.0184,-265.1724 870.9834,-244 875.6135,-243.2627 880.4705,-242.3916 885.2527,-241.4758"/>
<polygon fill="#191970" stroke="#191970" points="507.4284,-283.3628 497.7751,-287.7291 508.0443,-290.3357 507.4284,-283.3628"/>
</g>
<!-- Node94&#45;&gt;Node93 -->
<g id="edge19" class="edge">
<title>Node94&#45;&gt;Node93</title>
<path fill="none" stroke="#191970" d="M69.5033,-190.8357C39.8313,-202.8847 4.3359,-222.2707 23.9834,-244 52.5338,-275.5754 352.0004,-286.5051 444.2371,-289.2415"/>
<polygon fill="#191970" stroke="#191970" points="70.8107,-194.0826 78.8551,-187.1878 68.2668,-187.5612 70.8107,-194.0826"/>
</g>
<!-- Node95&#45;&gt;Node94 -->
<g id="edge20" class="edge">
<title>Node95&#45;&gt;Node94</title>
<path fill="none" stroke="#191970" d="M72.278,-216.2112C79.883,-206.7472 88.9373,-195.4797 95.2348,-187.6427"/>
<polygon fill="#191970" stroke="#191970" points="69.3575,-214.2581 65.8218,-224.2455 74.8141,-218.6428 69.3575,-214.2581"/>
</g>
<!-- Node96&#45;&gt;Node94 -->
<g id="edge21" class="edge">
<title>Node96&#45;&gt;Node94</title>
<path fill="none" stroke="#191970" d="M295.5735,-223.6796C229.313,-207.3901 162.2433,-191.7186 127.2131,-183.596"/>
<polygon fill="#191970" stroke="#191970" points="294.7928,-227.0919 305.3399,-226.0866 296.468,-220.2952 294.7928,-227.0919"/>
</g>
<!-- Node96&#45;&gt;Node97 -->
<g id="edge22" class="edge">
<title>Node96&#45;&gt;Node97</title>
<path fill="none" stroke="#191970" d="M363.5056,-219.46C382.4742,-209.4388 407.1562,-196.3993 423.7312,-187.6427"/>
<polygon fill="#191970" stroke="#191970" points="361.6542,-216.4796 354.4472,-224.2455 364.9241,-222.669 361.6542,-216.4796"/>
</g>
<!-- Node97&#45;&gt;Node98 -->
<g id="edge23" class="edge">
<title>Node97&#45;&gt;Node98</title>
<path fill="none" stroke="#191970" d="M489.7112,-165.8511C530.1946,-155.5462 587.4594,-140.9697 624.6576,-131.5011"/>
<polygon fill="#191970" stroke="#191970" points="488.6303,-162.5145 479.8028,-168.3733 490.3571,-169.2982 488.6303,-162.5145"/>
</g>
<!-- Node97&#45;&gt;Node104 -->
<g id="edge24" class="edge">
<title>Node97&#45;&gt;Node104</title>
<path fill="none" stroke="#191970" d="M420.5538,-162.2097C407.2057,-152.3743 390.4655,-140.0394 379.0699,-131.6427"/>
<polygon fill="#191970" stroke="#191970" points="418.6184,-165.1312 428.7452,-168.2455 422.7709,-159.4958 418.6184,-165.1312"/>
</g>
<!-- Node97&#45;&gt;Node105 -->
<g id="edge25" class="edge">
<title>Node97&#45;&gt;Node105</title>
<path fill="none" stroke="#191970" d="M456.9831,-160.5004C465.1456,-150.9775 474.9323,-139.5596 481.7183,-131.6427"/>
<polygon fill="#191970" stroke="#191970" points="454.1949,-158.3752 450.3444,-168.2455 459.5097,-162.9307 454.1949,-158.3752"/>
</g>
<!-- Node98&#45;&gt;Node99 -->
<g id="edge26" class="edge">
<title>Node98&#45;&gt;Node99</title>
<path fill="none" stroke="#191970" d="M609.2845,-110.2425C563.0454,-99.9262 496.6528,-85.1135 453.6699,-75.5237"/>
<polygon fill="#191970" stroke="#191970" points="608.598,-113.6753 619.1202,-112.4369 610.1223,-106.8433 608.598,-113.6753"/>
</g>
<!-- Node98&#45;&gt;Node101 -->
<g id="edge27" class="edge">
<title>Node98&#45;&gt;Node101</title>
<path fill="none" stroke="#191970" d="M635.5477,-107.0465C617.9326,-97.0824 595.2987,-84.2794 580.0303,-75.6427"/>
<polygon fill="#191970" stroke="#191970" points="634.3117,-110.3684 644.7389,-112.2455 637.7582,-104.2756 634.3117,-110.3684"/>
</g>
<!-- Node98&#45;&gt;Node102 -->
<g id="edge28" class="edge">
<title>Node98&#45;&gt;Node102</title>
<path fill="none" stroke="#191970" d="M666.1719,-102.4538C668.1162,-93.3803 670.3406,-82.9998 671.9171,-75.6427"/>
<polygon fill="#191970" stroke="#191970" points="662.7467,-101.7341 664.0737,-112.2455 669.5913,-103.2009 662.7467,-101.7341"/>
</g>
<!-- Node98&#45;&gt;Node103 -->
<g id="edge29" class="edge">
<title>Node98&#45;&gt;Node103</title>
<path fill="none" stroke="#191970" d="M691.9939,-108.1109C713.9359,-97.9559 743.1222,-84.4482 762.4542,-75.5011"/>
<polygon fill="#191970" stroke="#191970" points="690.3892,-104.9968 682.7841,-112.3733 693.3293,-111.3494 690.3892,-104.9968"/>
</g>
<!-- Node99&#45;&gt;Node100 -->
<g id="edge30" class="edge">
<title>Node99&#45;&gt;Node100</title>
<path fill="none" stroke="#191970" d="M432.4131,-50.2097C445.7611,-40.3743 462.5013,-28.0394 473.8969,-19.6427"/>
<polygon fill="#191970" stroke="#191970" points="430.196,-47.4958 424.2216,-56.2455 434.3484,-53.1312 430.196,-47.4958"/>
</g>
<!-- Node103&#45;&gt;Node100 -->
<g id="edge31" class="edge">
<title>Node103&#45;&gt;Node100</title>
<path fill="none" stroke="#191970" d="M726.8199,-55.3745C662.9447,-43.29 561.3325,-24.066 513.5119,-15.0189"/>
<polygon fill="#191970" stroke="#191970" points="726.2571,-58.83 736.7334,-57.25 727.5584,-51.952 726.2571,-58.83"/>
</g>
<!-- Node104&#45;&gt;Node100 -->
<g id="edge32" class="edge">
<title>Node104&#45;&gt;Node100</title>
<path fill="none" stroke="#191970" d="M355.8511,-102.759C349.937,-88.6107 345.3465,-69.5637 354.9834,-56 367.3878,-38.5412 425.4333,-23.2906 460.2888,-15.5022"/>
<polygon fill="#191970" stroke="#191970" points="352.7919,-104.4792 360.2068,-112.0469 359.1296,-101.5069 352.7919,-104.4792"/>
</g>
<!-- Node105&#45;&gt;Node100 -->
<g id="edge33" class="edge">
<title>Node105&#45;&gt;Node100</title>
<path fill="none" stroke="#191970" d="M489.4549,-102.2702C488.8048,-77.9985 487.7273,-37.7725 487.2386,-19.5249"/>
<polygon fill="#191970" stroke="#191970" points="485.961,-102.5483 489.7276,-112.4509 492.9585,-102.3608 485.961,-102.5483"/>
</g>
<!-- Node107&#45;&gt;Node94 -->
<g id="edge34" class="edge">
<title>Node107&#45;&gt;Node94</title>
<path fill="none" stroke="#191970" d="M211.9036,-220.6541C185.8261,-210.4419 150.5019,-196.6086 127.2452,-187.5011"/>
<polygon fill="#191970" stroke="#191970" points="210.8131,-223.9858 221.4008,-224.3733 213.3657,-217.4677 210.8131,-223.9858"/>
</g>
<!-- Node107&#45;&gt;Node106 -->
<g id="edge35" class="edge">
<title>Node107&#45;&gt;Node106</title>
<path fill="none" stroke="#191970" d="M250.87,-214.4538C253.1383,-205.3803 255.7335,-194.9998 257.5728,-187.6427"/>
<polygon fill="#191970" stroke="#191970" points="247.452,-213.6952 248.422,-224.2455 254.243,-215.393 247.452,-213.6952"/>
</g>
<!-- Node108&#45;&gt;Node94 -->
<g id="edge36" class="edge">
<title>Node108&#45;&gt;Node94</title>
<path fill="none" stroke="#191970" d="M133.6889,-216.2112C126.0838,-206.7472 117.0296,-195.4797 110.732,-187.6427"/>
<polygon fill="#191970" stroke="#191970" points="131.1528,-218.6428 140.145,-224.2455 136.6094,-214.2581 131.1528,-218.6428"/>
</g>
</g>
</svg>
