<?xml version="1.0" encoding="UTF-8" standalone="no"?>
<!DOCTYPE svg PUBLIC "-//W3C//DTD SVG 1.1//EN"
 "http://www.w3.org/Graphics/SVG/1.1/DTD/svg11.dtd">
<!-- Generated by graphviz version 2.40.1 (20161225.0304)
 -->
<!-- Title: log.hpp Pages: 1 -->
<svg width="3869pt" height="420pt"
 viewBox="0.00 0.00 3869.00 420.00" xmlns="http://www.w3.org/2000/svg" xmlns:xlink="http://www.w3.org/1999/xlink">
<g id="graph0" class="graph" transform="scale(1 1) rotate(0) translate(4 416)">
<title>log.hpp</title>
<polygon fill="#ffffff" stroke="transparent" points="-4,4 -4,-416 3865,-416 3865,4 -4,4"/>
<!-- Node0 -->
<g id="node1" class="node">
<title>Node0</title>
<polygon fill="#bfbfbf" stroke="#000000" points="3308,-392.5 3308,-411.5 3356,-411.5 3356,-392.5 3308,-392.5"/>
<text text-anchor="middle" x="3332" y="-399.5" font-family="Helvetica,sans-Serif" font-size="10.00" fill="#000000">log.hpp</text>
</g>
<!-- Node1 -->
<g id="node2" class="node">
<title>Node1</title>
<g id="a_node2"><a xlink:href="alox_2alox_8hpp.html" target="_top" xlink:title="alib/alox/alox.hpp">
<polygon fill="#ffffff" stroke="#000000" points="3286,-336.5 3286,-355.5 3378,-355.5 3378,-336.5 3286,-336.5"/>
<text text-anchor="middle" x="3332" y="-343.5" font-family="Helvetica,sans-Serif" font-size="10.00" fill="#000000">alib/alox/alox.hpp</text>
</a>
</g>
</g>
<!-- Node0&#45;&gt;Node1 -->
<g id="edge1" class="edge">
<title>Node0&#45;&gt;Node1</title>
<path fill="none" stroke="#191970" d="M3326.7332,-392.2455C3325.3221,-384.9382 3324.9179,-374.6944 3325.5205,-365.7046"/>
<polygon fill="#191970" stroke="#191970" points="3329.0111,-365.9945 3326.7549,-355.6427 3322.0632,-365.1421 3329.0111,-365.9945"/>
</g>
<!-- Node1&#45;&gt;Node0 -->
<g id="edge2" class="edge">
<title>Node1&#45;&gt;Node0</title>
<path fill="none" stroke="#191970" d="M3337.2451,-355.6427C3338.6665,-362.9199 3339.081,-373.155 3338.4887,-382.1575"/>
<polygon fill="#191970" stroke="#191970" points="3334.9947,-381.8972 3337.2668,-392.2455 3341.9439,-382.739 3334.9947,-381.8972"/>
</g>
<!-- Node2 -->
<g id="node3" class="node">
<title>Node2</title>
<g id="a_node3"><a xlink:href="alib_8hpp.html" target="_top" xlink:title="alib/alib.hpp">
<polygon fill="#ffffff" stroke="#000000" points="1483,-280.5 1483,-299.5 1551,-299.5 1551,-280.5 1483,-280.5"/>
<text text-anchor="middle" x="1517" y="-287.5" font-family="Helvetica,sans-Serif" font-size="10.00" fill="#000000">alib/alib.hpp</text>
</a>
</g>
</g>
<!-- Node1&#45;&gt;Node2 -->
<g id="edge3" class="edge">
<title>Node1&#45;&gt;Node2</title>
<path fill="none" stroke="#191970" d="M3285.7698,-344.5736C3031.8921,-336.7405 1809.5876,-299.0275 1561.1282,-291.3615"/>
<polygon fill="#191970" stroke="#191970" points="1561.1336,-287.8601 1551.0304,-291.05 1560.9177,-294.8568 1561.1336,-287.8601"/>
</g>
<!-- Node58 -->
<g id="node4" class="node">
<title>Node58</title>
<g id="a_node4"><a xlink:href="alox__symbols_8hpp.html" target="_top" xlink:title="internals/alox_symbols.hpp">
<polygon fill="#ffffff" stroke="#000000" points="3436.5,-280.5 3436.5,-299.5 3571.5,-299.5 3571.5,-280.5 3436.5,-280.5"/>
<text text-anchor="middle" x="3504" y="-287.5" font-family="Helvetica,sans-Serif" font-size="10.00" fill="#000000">internals/alox_symbols.hpp</text>
</a>
</g>
</g>
<!-- Node1&#45;&gt;Node58 -->
<g id="edge4" class="edge">
<title>Node1&#45;&gt;Node58</title>
<path fill="none" stroke="#191970" d="M3361.5679,-336.3733C3390.1688,-327.0613 3433.6788,-312.8953 3465.0819,-302.671"/>
<polygon fill="#191970" stroke="#191970" points="3466.3928,-305.9251 3474.818,-299.5011 3464.2257,-299.269 3466.3928,-305.9251"/>
</g>
<!-- Node59 -->
<g id="node5" class="node">
<title>Node59</title>
<g id="a_node5"><a xlink:href="alox__macros_8hpp.html" target="_top" xlink:title="internals/alox_macros.hpp">
<polygon fill="#ffffff" stroke="#000000" points="3589.5,-280.5 3589.5,-299.5 3720.5,-299.5 3720.5,-280.5 3589.5,-280.5"/>
<text text-anchor="middle" x="3655" y="-287.5" font-family="Helvetica,sans-Serif" font-size="10.00" fill="#000000">internals/alox_macros.hpp</text>
</a>
</g>
</g>
<!-- Node1&#45;&gt;Node59 -->
<g id="edge5" class="edge">
<title>Node1&#45;&gt;Node59</title>
<path fill="none" stroke="#191970" d="M3378.278,-337.9766C3433.7984,-328.3507 3527.2276,-312.1525 3589.9787,-301.273"/>
<polygon fill="#191970" stroke="#191970" points="3590.9066,-304.6645 3600.1617,-299.5076 3589.7108,-297.7674 3590.9066,-304.6645"/>
</g>
<!-- Node60 -->
<g id="node6" class="node">
<title>Node60</title>
<g id="a_node6"><a xlink:href="configuration_8hpp.html" target="_top" xlink:title="alib/config/configuration.hpp">
<polygon fill="#ffffff" stroke="#000000" points="3095,-224.5 3095,-243.5 3233,-243.5 3233,-224.5 3095,-224.5"/>
<text text-anchor="middle" x="3164" y="-231.5" font-family="Helvetica,sans-Serif" font-size="10.00" fill="#000000">alib/config/configuration.hpp</text>
</a>
</g>
</g>
<!-- Node1&#45;&gt;Node60 -->
<g id="edge6" class="edge">
<title>Node1&#45;&gt;Node60</title>
<path fill="none" stroke="#191970" d="M3311.8485,-336.3546C3294.2547,-327.641 3268.2787,-314.0606 3247,-300 3223.718,-284.6156 3198.9081,-264.3109 3182.542,-250.306"/>
<polygon fill="#191970" stroke="#191970" points="3184.6594,-247.5099 3174.806,-243.6161 3180.0805,-252.8047 3184.6594,-247.5099"/>
</g>
<!-- Node75 -->
<g id="node7" class="node">
<title>Node75</title>
<g id="a_node7"><a xlink:href="aloxtypesandenums_8hpp.html" target="_top" xlink:title="aloxtypesandenums.hpp">
<polygon fill="#ffffff" stroke="#000000" points="3739,-280.5 3739,-299.5 3861,-299.5 3861,-280.5 3739,-280.5"/>
<text text-anchor="middle" x="3800" y="-287.5" font-family="Helvetica,sans-Serif" font-size="10.00" fill="#000000">aloxtypesandenums.hpp</text>
</a>
</g>
</g>
<!-- Node1&#45;&gt;Node75 -->
<g id="edge7" class="edge">
<title>Node1&#45;&gt;Node75</title>
<path fill="none" stroke="#191970" d="M3378.0126,-341.0875C3450.3678,-333.2736 3595.4194,-317.2503 3728.9295,-300.1114"/>
<polygon fill="#191970" stroke="#191970" points="3729.4591,-303.5722 3738.9298,-298.8227 3728.5644,-296.6296 3729.4591,-303.5722"/>
</g>
<!-- Node76 -->
<g id="node8" class="node">
<title>Node76</title>
<g id="a_node8"><a xlink:href="lox_8hpp.html" target="_top" xlink:title="lox.hpp">
<polygon fill="#ffffff" stroke="#000000" points="3256,-280.5 3256,-299.5 3304,-299.5 3304,-280.5 3256,-280.5"/>
<text text-anchor="middle" x="3280" y="-287.5" font-family="Helvetica,sans-Serif" font-size="10.00" fill="#000000">lox.hpp</text>
</a>
</g>
</g>
<!-- Node1&#45;&gt;Node76 -->
<g id="edge8" class="edge">
<title>Node1&#45;&gt;Node76</title>
<path fill="none" stroke="#191970" d="M3317.6754,-336.2455C3308.8486,-328.3761 3298.0269,-317.101 3290.0706,-307.6542"/>
<polygon fill="#191970" stroke="#191970" points="3292.6684,-305.2974 3283.7088,-299.6427 3287.1865,-309.6505 3292.6684,-305.2974"/>
</g>
<!-- Node3 -->
<g id="node9" class="node">
<title>Node3</title>
<polygon fill="#ffffff" stroke="#bfbfbf" points="2531,-224.5 2531,-243.5 2583,-243.5 2583,-224.5 2531,-224.5"/>
<text text-anchor="middle" x="2557" y="-231.5" font-family="Helvetica,sans-Serif" font-size="10.00" fill="#000000">assert.h</text>
</g>
<!-- Node2&#45;&gt;Node3 -->
<g id="edge9" class="edge">
<title>Node2&#45;&gt;Node3</title>
<path fill="none" stroke="#191970" d="M1551.0946,-289.4681C1704.0671,-286.9237 2328.0185,-274.8197 2521,-244 2521.1001,-243.984 2521.2003,-243.9679 2521.3006,-243.9515"/>
<polygon fill="#191970" stroke="#191970" points="2521.7073,-247.4408 2530.805,-242.011 2520.3069,-240.5823 2521.7073,-247.4408"/>
</g>
<!-- Node4 -->
<g id="node10" class="node">
<title>Node4</title>
<polygon fill="#ffffff" stroke="#bfbfbf" points="2601.5,-224.5 2601.5,-243.5 2646.5,-243.5 2646.5,-224.5 2601.5,-224.5"/>
<text text-anchor="middle" x="2624" y="-231.5" font-family="Helvetica,sans-Serif" font-size="10.00" fill="#000000">iosfwd</text>
</g>
<!-- Node2&#45;&gt;Node4 -->
<g id="edge10" class="edge">
<title>Node2&#45;&gt;Node4</title>
<path fill="none" stroke="#191970" d="M1551.0992,-289.732C1708.2855,-288.3171 2364.5713,-280.404 2591.3076,-243.5626"/>
<polygon fill="#191970" stroke="#191970" points="2592.1794,-246.9648 2601.4542,-241.8433 2591.01,-240.0632 2592.1794,-246.9648"/>
</g>
<!-- Node5 -->
<g id="node11" class="node">
<title>Node5</title>
<polygon fill="#ffffff" stroke="#bfbfbf" points="0,-224.5 0,-243.5 46,-243.5 46,-224.5 0,-224.5"/>
<text text-anchor="middle" x="23" y="-231.5" font-family="Helvetica,sans-Serif" font-size="10.00" fill="#000000">cstdint</text>
</g>
<!-- Node2&#45;&gt;Node5 -->
<g id="edge11" class="edge">
<title>Node2&#45;&gt;Node5</title>
<path fill="none" stroke="#191970" d="M1482.7059,-289.4782C1280.0035,-286.3217 241.4728,-269.1192 56.2784,-243.5989"/>
<polygon fill="#191970" stroke="#191970" points="56.6544,-240.1158 46.2402,-242.0639 55.5962,-247.0354 56.6544,-240.1158"/>
</g>
<!-- Node6 -->
<g id="node12" class="node">
<title>Node6</title>
<g id="a_node12"><a xlink:href="prepro_8hpp.html" target="_top" xlink:title="alib/lang/prepro.hpp">
<polygon fill="#ffffff" stroke="#000000" points="64.5,-224.5 64.5,-243.5 165.5,-243.5 165.5,-224.5 64.5,-224.5"/>
<text text-anchor="middle" x="115" y="-231.5" font-family="Helvetica,sans-Serif" font-size="10.00" fill="#000000">alib/lang/prepro.hpp</text>
</a>
</g>
</g>
<!-- Node2&#45;&gt;Node6 -->
<g id="edge12" class="edge">
<title>Node2&#45;&gt;Node6</title>
<path fill="none" stroke="#191970" d="M1482.8778,-289.3738C1301.0039,-285.953 444.0477,-268.7661 180,-244 178.6892,-243.8771 177.3646,-243.7449 176.03,-243.6046"/>
<polygon fill="#191970" stroke="#191970" points="176.0102,-240.0783 165.6702,-242.3876 175.1935,-247.0305 176.0102,-240.0783"/>
</g>
<!-- Node7 -->
<g id="node13" class="node">
<title>Node7</title>
<g id="a_node13"><a xlink:href="types_8hpp.html" target="_top" xlink:title="alib/lang/types.hpp">
<polygon fill="#ffffff" stroke="#000000" points="1346,-224.5 1346,-243.5 1444,-243.5 1444,-224.5 1346,-224.5"/>
<text text-anchor="middle" x="1395" y="-231.5" font-family="Helvetica,sans-Serif" font-size="10.00" fill="#000000">alib/lang/types.hpp</text>
</a>
</g>
</g>
<!-- Node2&#45;&gt;Node7 -->
<g id="edge13" class="edge">
<title>Node2&#45;&gt;Node7</title>
<path fill="none" stroke="#191970" d="M1496.0275,-280.3733C1476.4433,-271.3838 1447.0039,-257.8706 1424.949,-247.7471"/>
<polygon fill="#191970" stroke="#191970" points="1426.2473,-244.4919 1415.6989,-243.5011 1423.3271,-250.8538 1426.2473,-244.4919"/>
</g>
<!-- Node8 -->
<g id="node14" class="node">
<title>Node8</title>
<g id="a_node14"><a xlink:href="assert_8hpp.html" target="_top" xlink:title="alib/debug/assert.hpp">
<polygon fill="#ffffff" stroke="#000000" points="1462,-224.5 1462,-243.5 1572,-243.5 1572,-224.5 1462,-224.5"/>
<text text-anchor="middle" x="1517" y="-231.5" font-family="Helvetica,sans-Serif" font-size="10.00" fill="#000000">alib/debug/assert.hpp</text>
</a>
</g>
</g>
<!-- Node2&#45;&gt;Node8 -->
<g id="edge14" class="edge">
<title>Node2&#45;&gt;Node8</title>
<path fill="none" stroke="#191970" d="M1517,-280.2455C1517,-272.9382 1517,-262.6944 1517,-253.7046"/>
<polygon fill="#191970" stroke="#191970" points="1520.5001,-253.6426 1517,-243.6427 1513.5001,-253.6427 1520.5001,-253.6426"/>
</g>
<!-- Node9 -->
<g id="node15" class="node">
<title>Node9</title>
<g id="a_node15"><a xlink:href="rtti_8hpp.html" target="_top" xlink:title="alib/lang/rtti.hpp">
<polygon fill="#ffffff" stroke="#ff0000" points="1590,-224.5 1590,-243.5 1676,-243.5 1676,-224.5 1590,-224.5"/>
<text text-anchor="middle" x="1633" y="-231.5" font-family="Helvetica,sans-Serif" font-size="10.00" fill="#000000">alib/lang/rtti.hpp</text>
</a>
</g>
</g>
<!-- Node2&#45;&gt;Node9 -->
<g id="edge15" class="edge">
<title>Node2&#45;&gt;Node9</title>
<path fill="none" stroke="#191970" d="M1536.9411,-280.3733C1555.4786,-271.4241 1583.3028,-257.9917 1604.2413,-247.8835"/>
<polygon fill="#191970" stroke="#191970" points="1605.8352,-251.0006 1613.3191,-243.5011 1602.7919,-244.6967 1605.8352,-251.0006"/>
</g>
<!-- Node13 -->
<g id="node16" class="node">
<title>Node13</title>
<g id="a_node16"><a xlink:href="singleton_8hpp.html" target="_top" xlink:title="alib/lang/singleton.hpp">
<polygon fill="#ffffff" stroke="#ff0000" points="1694.5,-224.5 1694.5,-243.5 1807.5,-243.5 1807.5,-224.5 1694.5,-224.5"/>
<text text-anchor="middle" x="1751" y="-231.5" font-family="Helvetica,sans-Serif" font-size="10.00" fill="#000000">alib/lang/singleton.hpp</text>
</a>
</g>
</g>
<!-- Node2&#45;&gt;Node13 -->
<g id="edge16" class="edge">
<title>Node2&#45;&gt;Node13</title>
<path fill="none" stroke="#191970" d="M1551.0256,-281.8571C1590.5033,-272.4095 1655.9474,-256.7476 1701.1601,-245.9275"/>
<polygon fill="#191970" stroke="#191970" points="1702.1405,-249.2918 1711.0513,-243.5604 1700.5112,-242.484 1702.1405,-249.2918"/>
</g>
<!-- Node15 -->
<g id="node17" class="node">
<title>Node15</title>
<g id="a_node17"><a xlink:href="enums_8hpp.html" target="_top" xlink:title="alib/lang/enums.hpp">
<polygon fill="#ffffff" stroke="#000000" points="1826,-224.5 1826,-243.5 1930,-243.5 1930,-224.5 1826,-224.5"/>
<text text-anchor="middle" x="1878" y="-231.5" font-family="Helvetica,sans-Serif" font-size="10.00" fill="#000000">alib/lang/enums.hpp</text>
</a>
</g>
</g>
<!-- Node2&#45;&gt;Node15 -->
<g id="edge17" class="edge">
<title>Node2&#45;&gt;Node15</title>
<path fill="none" stroke="#191970" d="M1551.0917,-284.8375C1606.6144,-276.4112 1720.0213,-259.123 1816,-244 1816.101,-243.9841 1816.202,-243.9682 1816.3032,-243.9522"/>
<polygon fill="#191970" stroke="#191970" points="1816.5803,-247.4521 1825.9092,-242.4299 1815.4846,-240.5384 1816.5803,-247.4521"/>
</g>
<!-- Node16 -->
<g id="node18" class="node">
<title>Node16</title>
<g id="a_node18"><a xlink:href="strings_2strings_8hpp.html" target="_top" xlink:title="alib/strings/strings.hpp">
<polygon fill="#ffffff" stroke="#ff0000" points="1948.5,-224.5 1948.5,-243.5 2063.5,-243.5 2063.5,-224.5 1948.5,-224.5"/>
<text text-anchor="middle" x="2006" y="-231.5" font-family="Helvetica,sans-Serif" font-size="10.00" fill="#000000">alib/strings/strings.hpp</text>
</a>
</g>
</g>
<!-- Node2&#45;&gt;Node16 -->
<g id="edge18" class="edge">
<title>Node2&#45;&gt;Node16</title>
<path fill="none" stroke="#191970" d="M1551.242,-286.7313C1621.5519,-279.92 1787.5153,-263.3299 1937.9341,-244.0937"/>
<polygon fill="#191970" stroke="#191970" points="1938.8048,-247.5106 1948.2767,-242.7636 1937.9119,-240.5678 1938.8048,-247.5106"/>
</g>
<!-- Node25 -->
<g id="node19" class="node">
<title>Node25</title>
<g id="a_node19"><a xlink:href="astring_8hpp.html" target="_top" xlink:title="alib/strings/astring.hpp">
<polygon fill="#ffffff" stroke="#ff0000" points="2081.5,-224.5 2081.5,-243.5 2196.5,-243.5 2196.5,-224.5 2081.5,-224.5"/>
<text text-anchor="middle" x="2139" y="-231.5" font-family="Helvetica,sans-Serif" font-size="10.00" fill="#000000">alib/strings/astring.hpp</text>
</a>
</g>
</g>
<!-- Node2&#45;&gt;Node25 -->
<g id="edge19" class="edge">
<title>Node2&#45;&gt;Node25</title>
<path fill="none" stroke="#191970" d="M1551.1807,-287.9486C1636.8361,-282.6412 1867.7532,-267.3044 2071.3101,-244.0096"/>
<polygon fill="#191970" stroke="#191970" points="2071.7553,-247.4815 2081.2883,-242.8587 2070.9531,-240.5277 2071.7553,-247.4815"/>
</g>
<!-- Node27 -->
<g id="node20" class="node">
<title>Node27</title>
<g id="a_node20"><a xlink:href="preallocatedstring_8hpp.html" target="_top" xlink:title="alib/strings/preallocatedstring.hpp">
<polygon fill="#ffffff" stroke="#000000" points="2215,-224.5 2215,-243.5 2377,-243.5 2377,-224.5 2215,-224.5"/>
<text text-anchor="middle" x="2296" y="-231.5" font-family="Helvetica,sans-Serif" font-size="10.00" fill="#000000">alib/strings/preallocatedstring.hpp</text>
</a>
</g>
</g>
<!-- Node2&#45;&gt;Node27 -->
<g id="edge20" class="edge">
<title>Node2&#45;&gt;Node27</title>
<path fill="none" stroke="#191970" d="M1551.0437,-288.2397C1649.9996,-283.0134 1946.3306,-266.5878 2204.333,-244.021"/>
<polygon fill="#191970" stroke="#191970" points="2204.9976,-247.4762 2214.6524,-243.1133 2204.3842,-240.5031 2204.9976,-247.4762"/>
</g>
<!-- Node28 -->
<g id="node21" class="node">
<title>Node28</title>
<g id="a_node21"><a xlink:href="resources_8hpp.html" target="_top" xlink:title="alib/lang/resources.hpp">
<polygon fill="#ffffff" stroke="#ff0000" points="2395.5,-224.5 2395.5,-243.5 2512.5,-243.5 2512.5,-224.5 2395.5,-224.5"/>
<text text-anchor="middle" x="2454" y="-231.5" font-family="Helvetica,sans-Serif" font-size="10.00" fill="#000000">alib/lang/resources.hpp</text>
</a>
</g>
</g>
<!-- Node2&#45;&gt;Node28 -->
<g id="edge21" class="edge">
<title>Node2&#45;&gt;Node28</title>
<path fill="none" stroke="#191970" d="M1551.0419,-289.3375C1666.506,-286.8501 2053.9751,-276.5392 2385.1625,-243.9846"/>
<polygon fill="#191970" stroke="#191970" points="2385.8317,-247.4355 2395.4375,-242.9656 2385.1408,-240.4696 2385.8317,-247.4355"/>
</g>
<!-- Node32 -->
<g id="node22" class="node">
<title>Node32</title>
<g id="a_node22"><a xlink:href="library_8hpp.html" target="_top" xlink:title="alib/lang/library.hpp">
<polygon fill="#ffffff" stroke="#000000" points="222,-224.5 222,-243.5 322,-243.5 322,-224.5 222,-224.5"/>
<text text-anchor="middle" x="272" y="-231.5" font-family="Helvetica,sans-Serif" font-size="10.00" fill="#000000">alib/lang/library.hpp</text>
</a>
</g>
</g>
<!-- Node2&#45;&gt;Node32 -->
<g id="edge22" class="edge">
<title>Node2&#45;&gt;Node32</title>
<path fill="none" stroke="#191970" d="M1482.9103,-289.2733C1316.049,-285.6266 583.6562,-268.5595 332.323,-243.9797"/>
<polygon fill="#191970" stroke="#191970" points="332.4525,-240.4751 322.1516,-242.9533 331.7496,-247.4397 332.4525,-240.4751"/>
</g>
<!-- Node33 -->
<g id="node23" class="node">
<title>Node33</title>
<g id="a_node23"><a xlink:href="stringlib_8hpp.html" target="_top" xlink:title="alib/strings/stringlib.hpp">
<polygon fill="#ffffff" stroke="#000000" points="340.5,-224.5 340.5,-243.5 459.5,-243.5 459.5,-224.5 340.5,-224.5"/>
<text text-anchor="middle" x="400" y="-231.5" font-family="Helvetica,sans-Serif" font-size="10.00" fill="#000000">alib/strings/stringlib.hpp</text>
</a>
</g>
</g>
<!-- Node2&#45;&gt;Node33 -->
<g id="edge23" class="edge">
<title>Node2&#45;&gt;Node33</title>
<path fill="none" stroke="#191970" d="M1482.9518,-289.7701C1352.7644,-288.6261 873.919,-281.991 469.7941,-244.0844"/>
<polygon fill="#191970" stroke="#191970" points="469.9474,-240.5833 459.6622,-243.1259 469.2881,-247.5522 469.9474,-240.5833"/>
</g>
<!-- Node34 -->
<g id="node24" class="node">
<title>Node34</title>
<g id="a_node24"><a xlink:href="boxinglib_8hpp.html" target="_top" xlink:title="alib/boxing/boxinglib.hpp">
<polygon fill="#ffffff" stroke="#ff0000" points="477.5,-224.5 477.5,-243.5 600.5,-243.5 600.5,-224.5 477.5,-224.5"/>
<text text-anchor="middle" x="539" y="-231.5" font-family="Helvetica,sans-Serif" font-size="10.00" fill="#000000">alib/boxing/boxinglib.hpp</text>
</a>
</g>
</g>
<!-- Node2&#45;&gt;Node34 -->
<g id="edge24" class="edge">
<title>Node2&#45;&gt;Node34</title>
<path fill="none" stroke="#191970" d="M1482.7374,-289.3639C1363.7479,-286.9226 957.2511,-276.642 610.5164,-243.958"/>
<polygon fill="#191970" stroke="#191970" points="610.8201,-240.4712 600.5338,-243.0092 610.1577,-247.4398 610.8201,-240.4712"/>
</g>
<!-- Node43 -->
<g id="node25" class="node">
<title>Node43</title>
<g id="a_node25"><a xlink:href="langlib_8hpp.html" target="_top" xlink:title="alib/lang/langlib.hpp">
<polygon fill="#ffffff" stroke="#000000" points="619,-224.5 619,-243.5 721,-243.5 721,-224.5 619,-224.5"/>
<text text-anchor="middle" x="670" y="-231.5" font-family="Helvetica,sans-Serif" font-size="10.00" fill="#000000">alib/lang/langlib.hpp</text>
</a>
</g>
</g>
<!-- Node2&#45;&gt;Node43 -->
<g id="edge25" class="edge">
<title>Node2&#45;&gt;Node43</title>
<path fill="none" stroke="#191970" d="M1482.7549,-289.3034C1374.2039,-286.8198 1027.9403,-276.7817 731.106,-244.008"/>
<polygon fill="#191970" stroke="#191970" points="731.3375,-240.5123 721.0112,-242.8825 730.5618,-247.4691 731.3375,-240.5123"/>
</g>
<!-- Node44 -->
<g id="node26" class="node">
<title>Node44</title>
<g id="a_node26"><a xlink:href="stringboxing_8hpp.html" target="_top" xlink:title="alib/strings/boxing/stringboxing.hpp">
<polygon fill="#ffffff" stroke="#000000" points="739,-224.5 739,-243.5 909,-243.5 909,-224.5 739,-224.5"/>
<text text-anchor="middle" x="824" y="-231.5" font-family="Helvetica,sans-Serif" font-size="10.00" fill="#000000">alib/strings/boxing/stringboxing.hpp</text>
</a>
</g>
</g>
<!-- Node2&#45;&gt;Node44 -->
<g id="edge26" class="edge">
<title>Node2&#45;&gt;Node44</title>
<path fill="none" stroke="#191970" d="M1482.8645,-287.7308C1392.7054,-281.6624 1140.5301,-264.2029 919.2247,-244.0894"/>
<polygon fill="#191970" stroke="#191970" points="919.3201,-240.5836 909.0433,-243.1602 918.6838,-247.5547 919.3201,-240.5836"/>
</g>
<!-- Node45 -->
<g id="node27" class="node">
<title>Node45</title>
<g id="a_node27"><a xlink:href="report_8hpp.html" target="_top" xlink:title="alib/lang/report.hpp">
<polygon fill="#ffffff" stroke="#ff0000" points="927.5,-224.5 927.5,-243.5 1026.5,-243.5 1026.5,-224.5 927.5,-224.5"/>
<text text-anchor="middle" x="977" y="-231.5" font-family="Helvetica,sans-Serif" font-size="10.00" fill="#000000">alib/lang/report.hpp</text>
</a>
</g>
</g>
<!-- Node2&#45;&gt;Node45 -->
<g id="edge27" class="edge">
<title>Node2&#45;&gt;Node45</title>
<path fill="none" stroke="#191970" d="M1482.7108,-287.6226C1405.1041,-282.0503 1209.8867,-266.9577 1036.6965,-244.1489"/>
<polygon fill="#191970" stroke="#191970" points="1037.0102,-240.6599 1026.6362,-242.8119 1036.0879,-247.5989 1037.0102,-240.6599"/>
</g>
<!-- Node47 -->
<g id="node28" class="node">
<title>Node47</title>
<g id="a_node28"><a xlink:href="enumbitwise_8hpp.html" target="_top" xlink:title="alib/lang/enumbitwise.hpp">
<polygon fill="#ffffff" stroke="#ff0000" points="2967.5,-.5 2967.5,-19.5 3096.5,-19.5 3096.5,-.5 2967.5,-.5"/>
<text text-anchor="middle" x="3032" y="-7.5" font-family="Helvetica,sans-Serif" font-size="10.00" fill="#000000">alib/lang/enumbitwise.hpp</text>
</a>
</g>
</g>
<!-- Node2&#45;&gt;Node47 -->
<g id="edge28" class="edge">
<title>Node2&#45;&gt;Node47</title>
<path fill="none" stroke="#191970" d="M1551.1142,-289.726C1735.9005,-288.104 2610.2579,-278.6158 2655,-244 2679.2422,-225.2444 2675,-208.6506 2675,-178 2675,-178 2675,-178 2675,-122 2675,-90.6328 2675.476,-75.557 2700,-56 2719.7602,-40.2419 2865.612,-24.6859 2957.3075,-16.3156"/>
<polygon fill="#191970" stroke="#191970" points="2957.7377,-19.7911 2967.382,-15.4049 2957.1074,-12.8195 2957.7377,-19.7911"/>
</g>
<!-- Node49 -->
<g id="node29" class="node">
<title>Node49</title>
<g id="a_node29"><a xlink:href="enummetadata_8hpp.html" target="_top" xlink:title="alib/lang/enummetadata.hpp">
<polygon fill="#ffffff" stroke="#000000" points="2703.5,-224.5 2703.5,-243.5 2842.5,-243.5 2842.5,-224.5 2703.5,-224.5"/>
<text text-anchor="middle" x="2773" y="-231.5" font-family="Helvetica,sans-Serif" font-size="10.00" fill="#000000">alib/lang/enummetadata.hpp</text>
</a>
</g>
</g>
<!-- Node2&#45;&gt;Node49 -->
<g id="edge29" class="edge">
<title>Node2&#45;&gt;Node49</title>
<path fill="none" stroke="#191970" d="M1551.096,-289.6492C1691.653,-287.9947 2239.8712,-279.4917 2689,-244 2690.3177,-243.8959 2691.6465,-243.7867 2692.9841,-243.673"/>
<polygon fill="#191970" stroke="#191970" points="2693.7319,-247.1192 2703.3703,-242.72 2693.0923,-240.1484 2693.7319,-247.1192"/>
</g>
<!-- Node50 -->
<g id="node30" class="node">
<title>Node50</title>
<g id="a_node30"><a xlink:href="configlib_8hpp.html" target="_top" xlink:title="alib/config/configlib.hpp">
<polygon fill="#ffffff" stroke="#ff0000" points="1421.5,-.5 1421.5,-19.5 1540.5,-19.5 1540.5,-.5 1421.5,-.5"/>
<text text-anchor="middle" x="1481" y="-7.5" font-family="Helvetica,sans-Serif" font-size="10.00" fill="#000000">alib/config/configlib.hpp</text>
</a>
</g>
</g>
<!-- Node2&#45;&gt;Node50 -->
<g id="edge30" class="edge">
<title>Node2&#45;&gt;Node50</title>
<path fill="none" stroke="#191970" d="M1482.948,-289.9193C1282.6111,-289.3052 264.5023,-284.2093 213,-244 188.9398,-225.2155 194,-208.5246 194,-178 194,-178 194,-178 194,-122 194,-60.3789 1142.7436,-22.0086 1411.0698,-12.3889"/>
<polygon fill="#191970" stroke="#191970" points="1411.2108,-15.8862 1421.0797,-12.0321 1410.9613,-8.8906 1411.2108,-15.8862"/>
</g>
<!-- Node55 -->
<g id="node31" class="node">
<title>Node55</title>
<g id="a_node31"><a xlink:href="systemlib_8hpp.html" target="_top" xlink:title="alib/system/systemlib.hpp">
<polygon fill="#ffffff" stroke="#ff0000" points="1044.5,-224.5 1044.5,-243.5 1175.5,-243.5 1175.5,-224.5 1044.5,-224.5"/>
<text text-anchor="middle" x="1110" y="-231.5" font-family="Helvetica,sans-Serif" font-size="10.00" fill="#000000">alib/system/systemlib.hpp</text>
</a>
</g>
</g>
<!-- Node2&#45;&gt;Node55 -->
<g id="edge31" class="edge">
<title>Node2&#45;&gt;Node55</title>
<path fill="none" stroke="#191970" d="M1482.9994,-285.3218C1417.969,-276.3741 1274.5496,-256.6407 1185.7099,-244.4171"/>
<polygon fill="#191970" stroke="#191970" points="1186.073,-240.9341 1175.6892,-243.0383 1185.1188,-247.8688 1186.073,-240.9341"/>
</g>
<!-- Node57 -->
<g id="node32" class="node">
<title>Node57</title>
<g id="a_node32"><a xlink:href="applicables_8hpp.html" target="_top" xlink:title="alib/strings/applicables.hpp">
<polygon fill="#ffffff" stroke="#000000" points="1194,-224.5 1194,-243.5 1328,-243.5 1328,-224.5 1194,-224.5"/>
<text text-anchor="middle" x="1261" y="-231.5" font-family="Helvetica,sans-Serif" font-size="10.00" fill="#000000">alib/strings/applicables.hpp</text>
</a>
</g>
</g>
<!-- Node2&#45;&gt;Node57 -->
<g id="edge32" class="edge">
<title>Node2&#45;&gt;Node57</title>
<path fill="none" stroke="#191970" d="M1482.7403,-282.5057C1439.5676,-273.0617 1364.8999,-256.7281 1314.2581,-245.6502"/>
<polygon fill="#191970" stroke="#191970" points="1314.9835,-242.2262 1304.4665,-243.5083 1313.4876,-249.0645 1314.9835,-242.2262"/>
</g>
<!-- Node60&#45;&gt;Node47 -->
<g id="edge35" class="edge">
<title>Node60&#45;&gt;Node47</title>
<path fill="none" stroke="#191970" d="M3119.9278,-224.4185C3085.759,-215.9919 3042.5069,-202.788 3032,-188 2997.7745,-139.8288 3014.6784,-64.3085 3025.4251,-29.1721"/>
<polygon fill="#191970" stroke="#191970" points="3028.7611,-30.2308 3028.4992,-19.6392 3022.0989,-28.0824 3028.7611,-30.2308"/>
</g>
<!-- Node61 -->
<g id="node34" class="node">
<title>Node61</title>
<g id="a_node34"><a xlink:href="threadlock_8hpp.html" target="_top" xlink:title="alib/threads/threadlock.hpp">
<polygon fill="#ffffff" stroke="#ff0000" points="3136,-112.5 3136,-131.5 3270,-131.5 3270,-112.5 3136,-112.5"/>
<text text-anchor="middle" x="3203" y="-119.5" font-family="Helvetica,sans-Serif" font-size="10.00" fill="#000000">alib/threads/threadlock.hpp</text>
</a>
</g>
</g>
<!-- Node60&#45;&gt;Node61 -->
<g id="edge36" class="edge">
<title>Node60&#45;&gt;Node61</title>
<path fill="none" stroke="#191970" d="M3168.6667,-224.2783C3172.9818,-215.0686 3179.4029,-200.7835 3184,-188 3189.5481,-172.5722 3194.6175,-154.6771 3198.122,-141.4159"/>
<polygon fill="#191970" stroke="#191970" points="3201.5653,-142.0794 3200.6738,-131.5222 3194.7871,-140.3312 3201.5653,-142.0794"/>
</g>
<!-- Node68 -->
<g id="node35" class="node">
<title>Node68</title>
<g id="a_node35"><a xlink:href="substring_8hpp.html" target="_top" xlink:title="alib/strings/substring.hpp">
<polygon fill="#ffffff" stroke="#000000" points="3079.5,-56.5 3079.5,-75.5 3204.5,-75.5 3204.5,-56.5 3079.5,-56.5"/>
<text text-anchor="middle" x="3142" y="-63.5" font-family="Helvetica,sans-Serif" font-size="10.00" fill="#000000">alib/strings/substring.hpp</text>
</a>
</g>
</g>
<!-- Node60&#45;&gt;Node68 -->
<g id="edge37" class="edge">
<title>Node60&#45;&gt;Node68</title>
<path fill="none" stroke="#191970" d="M3233.373,-227.7919C3338.2483,-218.0716 3526.0872,-199.2141 3536,-188 3581.1935,-136.8738 3340.7164,-94.2534 3214.8757,-75.8111"/>
<polygon fill="#191970" stroke="#191970" points="3215.3109,-72.3377 3204.9121,-74.3663 3214.3063,-79.2652 3215.3109,-72.3377"/>
</g>
<!-- Node69 -->
<g id="node36" class="node">
<title>Node69</title>
<g id="a_node36"><a xlink:href="numberformat_8hpp.html" target="_top" xlink:title="alib/strings/numberformat.hpp">
<polygon fill="#ffffff" stroke="#000000" points="3231,-168.5 3231,-187.5 3377,-187.5 3377,-168.5 3231,-168.5"/>
<text text-anchor="middle" x="3304" y="-175.5" font-family="Helvetica,sans-Serif" font-size="10.00" fill="#000000">alib/strings/numberformat.hpp</text>
</a>
</g>
</g>
<!-- Node60&#45;&gt;Node69 -->
<g id="edge38" class="edge">
<title>Node60&#45;&gt;Node69</title>
<path fill="none" stroke="#191970" d="M3188.0669,-224.3733C3210.8428,-215.2629 3245.2344,-201.5062 3270.649,-191.3404"/>
<polygon fill="#191970" stroke="#191970" points="3272.2623,-194.4648 3280.2472,-187.5011 3269.6625,-187.9654 3272.2623,-194.4648"/>
</g>
<!-- Node70 -->
<g id="node37" class="node">
<title>Node70</title>
<g id="a_node37"><a xlink:href="variable_8hpp.html" target="_top" xlink:title="alib/config/variable.hpp">
<polygon fill="#ffffff" stroke="#000000" points="2709,-56.5 2709,-75.5 2825,-75.5 2825,-56.5 2709,-56.5"/>
<text text-anchor="middle" x="2767" y="-63.5" font-family="Helvetica,sans-Serif" font-size="10.00" fill="#000000">alib/config/variable.hpp</text>
</a>
</g>
</g>
<!-- Node60&#45;&gt;Node70 -->
<g id="edge39" class="edge">
<title>Node60&#45;&gt;Node70</title>
<path fill="none" stroke="#191970" d="M3094.6782,-225.2765C2993.9536,-212.5401 2818.7416,-190.1284 2816,-188 2783.6736,-162.9036 2772.5927,-113.1165 2768.8545,-85.5349"/>
<polygon fill="#191970" stroke="#191970" points="2772.3219,-85.051 2767.6912,-75.5217 2765.3687,-85.8588 2772.3219,-85.051"/>
</g>
<!-- Node71 -->
<g id="node38" class="node">
<title>Node71</title>
<g id="a_node38"><a xlink:href="plugins_8hpp.html" target="_top" xlink:title="alib/config/plugins.hpp">
<polygon fill="#ffffff" stroke="#000000" points="2824.5,-112.5 2824.5,-131.5 2937.5,-131.5 2937.5,-112.5 2824.5,-112.5"/>
<text text-anchor="middle" x="2881" y="-119.5" font-family="Helvetica,sans-Serif" font-size="10.00" fill="#000000">alib/config/plugins.hpp</text>
</a>
</g>
</g>
<!-- Node60&#45;&gt;Node71 -->
<g id="edge40" class="edge">
<title>Node60&#45;&gt;Node71</title>
<path fill="none" stroke="#191970" d="M3094.7361,-225.1726C2996.2246,-212.5383 2827.2131,-190.5337 2825,-188 2809.8626,-170.6699 2832.8694,-150.4583 2853.8048,-137.0127"/>
<polygon fill="#191970" stroke="#191970" points="2855.8157,-139.8859 2862.533,-131.6926 2852.1725,-133.9087 2855.8157,-139.8859"/>
</g>
<!-- Node72 -->
<g id="node39" class="node">
<title>Node72</title>
<g id="a_node39"><a xlink:href="plugincontainer_8hpp.html" target="_top" xlink:title="alib/util/plugincontainer.hpp">
<polygon fill="#ffffff" stroke="#ff0000" points="3041,-168.5 3041,-187.5 3175,-187.5 3175,-168.5 3041,-168.5"/>
<text text-anchor="middle" x="3108" y="-175.5" font-family="Helvetica,sans-Serif" font-size="10.00" fill="#000000">alib/util/plugincontainer.hpp</text>
</a>
</g>
</g>
<!-- Node60&#45;&gt;Node72 -->
<g id="edge41" class="edge">
<title>Node60&#45;&gt;Node72</title>
<path fill="none" stroke="#191970" d="M3154.2455,-224.2455C3146.1352,-216.1352 3134.4075,-204.4075 3124.7919,-194.7919"/>
<polygon fill="#191970" stroke="#191970" points="3127.1887,-192.2389 3117.6427,-187.6427 3122.2389,-197.1887 3127.1887,-192.2389"/>
</g>
<!-- Node74 -->
<g id="node40" class="node">
<title>Node74</title>
<g id="a_node40"><a xlink:href="inmemoryplugin_8hpp.html" target="_top" xlink:title="alib/config/inmemoryplugin.hpp">
<polygon fill="#ffffff" stroke="#ff0000" points="2833.5,-168.5 2833.5,-187.5 2984.5,-187.5 2984.5,-168.5 2833.5,-168.5"/>
<text text-anchor="middle" x="2909" y="-175.5" font-family="Helvetica,sans-Serif" font-size="10.00" fill="#000000">alib/config/inmemoryplugin.hpp</text>
</a>
</g>
</g>
<!-- Node60&#45;&gt;Node74 -->
<g id="edge42" class="edge">
<title>Node60&#45;&gt;Node74</title>
<path fill="none" stroke="#191970" d="M3120.4537,-224.4369C3076.7207,-214.8328 3009.2655,-200.0191 2962.3458,-189.7152"/>
<polygon fill="#191970" stroke="#191970" points="2962.8847,-186.2502 2952.3667,-187.5237 2961.3832,-193.0872 2962.8847,-186.2502"/>
</g>
<!-- Node76&#45;&gt;Node1 -->
<g id="edge51" class="edge">
<title>Node76&#45;&gt;Node1</title>
<path fill="none" stroke="#191970" d="M3294.199,-299.6427C3303.0069,-307.4797 3313.8326,-318.7472 3321.816,-328.2112"/>
<polygon fill="#191970" stroke="#191970" points="3319.2438,-330.5999 3328.2091,-336.2455 3324.7213,-326.2413 3319.2438,-330.5999"/>
</g>
<!-- Node76&#45;&gt;Node60 -->
<g id="edge53" class="edge">
<title>Node76&#45;&gt;Node60</title>
<path fill="none" stroke="#191970" d="M3260.0589,-280.3733C3241.5214,-271.4241 3213.6972,-257.9917 3192.7587,-247.8835"/>
<polygon fill="#191970" stroke="#191970" points="3194.2081,-244.6967 3183.6809,-243.5011 3191.1648,-251.0006 3194.2081,-244.6967"/>
</g>
<!-- Node29 -->
<g id="node33" class="node">
<title>Node29</title>
<polygon fill="#ffffff" stroke="#bfbfbf" points="2703.5,-168.5 2703.5,-187.5 2738.5,-187.5 2738.5,-168.5 2703.5,-168.5"/>
<text text-anchor="middle" x="2721" y="-175.5" font-family="Helvetica,sans-Serif" font-size="10.00" fill="#000000">map</text>
</g>
<!-- Node76&#45;&gt;Node29 -->
<g id="edge52" class="edge">
<title>Node76&#45;&gt;Node29</title>
<path fill="none" stroke="#191970" d="M3255.8355,-286.2852C3218.5595,-280.1103 3145.1519,-266.1735 3086,-244 3068.1291,-237.301 3066.2161,-229.6939 3048,-224 2921.9315,-184.5938 2882.1223,-215.813 2753,-188 2751.5419,-187.6859 2750.0551,-187.3345 2748.56,-186.9565"/>
<polygon fill="#191970" stroke="#191970" points="2749.3627,-183.5462 2738.7872,-184.1864 2747.4537,-190.2809 2749.3627,-183.5462"/>
</g>
<!-- Node77 -->
<g id="node41" class="node">
<title>Node77</title>
<g id="a_node41"><a xlink:href="smartlock_8hpp.html" target="_top" xlink:title="alib/threads/smartlock.hpp">
<polygon fill="#ffffff" stroke="#ff0000" points="3395.5,-168.5 3395.5,-187.5 3526.5,-187.5 3526.5,-168.5 3395.5,-168.5"/>
<text text-anchor="middle" x="3461" y="-175.5" font-family="Helvetica,sans-Serif" font-size="10.00" fill="#000000">alib/threads/smartlock.hpp</text>
</a>
</g>
</g>
<!-- Node76&#45;&gt;Node77 -->
<g id="edge54" class="edge">
<title>Node76&#45;&gt;Node77</title>
<path fill="none" stroke="#191970" d="M3277.5565,-280.2022C3274.6598,-266.059 3271.7481,-239.8814 3285,-224 3298.253,-208.1172 3344.0279,-196.4442 3385.5708,-188.8315"/>
<polygon fill="#191970" stroke="#191970" points="3386.2257,-192.27 3395.4615,-187.0788 3385.0042,-185.3774 3386.2257,-192.27"/>
</g>
<!-- Node78 -->
<g id="node42" class="node">
<title>Node78</title>
<g id="a_node42"><a xlink:href="tokenizer_8hpp.html" target="_top" xlink:title="alib/strings/util/tokenizer.hpp">
<polygon fill="#ffffff" stroke="#000000" points="3583,-112.5 3583,-131.5 3723,-131.5 3723,-112.5 3583,-112.5"/>
<text text-anchor="middle" x="3653" y="-119.5" font-family="Helvetica,sans-Serif" font-size="10.00" fill="#000000">alib/strings/util/tokenizer.hpp</text>
</a>
</g>
</g>
<!-- Node76&#45;&gt;Node78 -->
<g id="edge55" class="edge">
<title>Node76&#45;&gt;Node78</title>
<path fill="none" stroke="#191970" d="M3282.7131,-280.0525C3287.3157,-265.2197 3298.1464,-237.5978 3318,-224 3404.8138,-164.5411 3453.7355,-225.6311 3552,-188 3583.0428,-176.1119 3614.4108,-153.6003 3633.7717,-138.2046"/>
<polygon fill="#191970" stroke="#191970" points="3636.2268,-140.7194 3641.7781,-131.6953 3631.8109,-135.288 3636.2268,-140.7194"/>
</g>
<!-- Node79 -->
<g id="node43" class="node">
<title>Node79</title>
<g id="a_node43"><a xlink:href="scopeinfo_8hpp.html" target="_top" xlink:title="alib/alox/core/scopeinfo.hpp">
<polygon fill="#ffffff" stroke="#ff0000" points="2901,-224.5 2901,-243.5 3039,-243.5 3039,-224.5 2901,-224.5"/>
<text text-anchor="middle" x="2970" y="-231.5" font-family="Helvetica,sans-Serif" font-size="10.00" fill="#000000">alib/alox/core/scopeinfo.hpp</text>
</a>
</g>
</g>
<!-- Node76&#45;&gt;Node79 -->
<g id="edge56" class="edge">
<title>Node76&#45;&gt;Node79</title>
<path fill="none" stroke="#191970" d="M3255.9328,-285.6524C3208.4765,-277.0796 3101.477,-257.7507 3032.6711,-245.3212"/>
<polygon fill="#191970" stroke="#191970" points="3033.2711,-241.873 3022.8082,-243.5395 3032.0267,-248.7616 3033.2711,-241.873"/>
</g>
<!-- Node88 -->
<g id="node44" class="node">
<title>Node88</title>
<g id="a_node44"><a xlink:href="logger_8hpp.html" target="_top" xlink:title="alib/alox/core/logger.hpp">
<polygon fill="#ffffff" stroke="#ff0000" points="3327,-224.5 3327,-243.5 3449,-243.5 3449,-224.5 3327,-224.5"/>
<text text-anchor="middle" x="3388" y="-231.5" font-family="Helvetica,sans-Serif" font-size="10.00" fill="#000000">alib/alox/core/logger.hpp</text>
</a>
</g>
</g>
<!-- Node76&#45;&gt;Node88 -->
<g id="edge57" class="edge">
<title>Node76&#45;&gt;Node88</title>
<path fill="none" stroke="#191970" d="M3298.8122,-280.2455C3315.8473,-271.4125 3341.1575,-258.2887 3360.4681,-248.2758"/>
<polygon fill="#191970" stroke="#191970" points="3362.137,-251.353 3369.4034,-243.6427 3358.9147,-245.1388 3362.137,-251.353"/>
</g>
<!-- Node89 -->
<g id="node45" class="node">
<title>Node89</title>
<g id="a_node45"><a xlink:href="domain_8hpp.html" target="_top" xlink:title="alib/alox/core/domain.hpp">
<polygon fill="#ffffff" stroke="#ff0000" points="3467,-224.5 3467,-243.5 3595,-243.5 3595,-224.5 3467,-224.5"/>
<text text-anchor="middle" x="3531" y="-231.5" font-family="Helvetica,sans-Serif" font-size="10.00" fill="#000000">alib/alox/core/domain.hpp</text>
</a>
</g>
</g>
<!-- Node76&#45;&gt;Node89 -->
<g id="edge58" class="edge">
<title>Node76&#45;&gt;Node89</title>
<path fill="none" stroke="#191970" d="M3304.0669,-284.6305C3343.9512,-275.732 3424.6594,-257.7254 3478.2806,-245.7621"/>
<polygon fill="#191970" stroke="#191970" points="3479.2946,-249.122 3488.2924,-243.5284 3477.7702,-242.29 3479.2946,-249.122"/>
</g>
<!-- Node90 -->
<g id="node46" class="node">
<title>Node90</title>
<g id="a_node46"><a xlink:href="scopestore_8hpp.html" target="_top" xlink:title="alib/alox/core/scopestore.hpp">
<polygon fill="#ffffff" stroke="#ff0000" points="3613,-224.5 3613,-243.5 3757,-243.5 3757,-224.5 3613,-224.5"/>
<text text-anchor="middle" x="3685" y="-231.5" font-family="Helvetica,sans-Serif" font-size="10.00" fill="#000000">alib/alox/core/scopestore.hpp</text>
</a>
</g>
</g>
<!-- Node76&#45;&gt;Node90 -->
<g id="edge59" class="edge">
<title>Node76&#45;&gt;Node90</title>
<path fill="none" stroke="#191970" d="M3304.1217,-286.6646C3362.3676,-278.6109 3512.7702,-257.8145 3606.2066,-244.8949"/>
<polygon fill="#191970" stroke="#191970" points="3606.7599,-248.3518 3616.1862,-243.515 3605.801,-241.4178 3606.7599,-248.3518"/>
</g>
<!-- Node28&#45;&gt;Node29 -->
<g id="edge33" class="edge">
<title>Node28&#45;&gt;Node29</title>
<path fill="none" stroke="#191970" d="M2499.5956,-224.4369C2555.2816,-212.7574 2647.7009,-193.3736 2693.5124,-183.7652"/>
<polygon fill="#191970" stroke="#191970" points="2694.2615,-187.1843 2703.33,-181.7061 2692.8245,-180.3334 2694.2615,-187.1843"/>
</g>
<!-- Node49&#45;&gt;Node29 -->
<g id="edge34" class="edge">
<title>Node49&#45;&gt;Node29</title>
<path fill="none" stroke="#191970" d="M2763.9423,-224.2455C2756.4858,-216.2155 2745.7366,-204.6394 2736.8583,-195.0781"/>
<polygon fill="#191970" stroke="#191970" points="2739.3232,-192.589 2729.9539,-187.6427 2734.1937,-197.3522 2739.3232,-192.589"/>
</g>
<!-- Node68&#45;&gt;Node47 -->
<g id="edge43" class="edge">
<title>Node68&#45;&gt;Node47</title>
<path fill="none" stroke="#191970" d="M3122.8395,-56.2455C3105.4889,-47.4125 3079.7099,-34.2887 3060.0417,-24.2758"/>
<polygon fill="#191970" stroke="#191970" points="3061.4405,-21.0605 3050.941,-19.6427 3058.2647,-27.2986 3061.4405,-21.0605"/>
</g>
<!-- Node70&#45;&gt;Node50 -->
<g id="edge44" class="edge">
<title>Node70&#45;&gt;Node50</title>
<path fill="none" stroke="#191970" d="M2708.8239,-63.4667C2498.6362,-54.3139 1778.9645,-22.9751 1550.9105,-13.0443"/>
<polygon fill="#191970" stroke="#191970" points="1550.8903,-9.5402 1540.7474,-12.6018 1550.5857,-16.5336 1550.8903,-9.5402"/>
</g>
<!-- Node71&#45;&gt;Node68 -->
<g id="edge45" class="edge">
<title>Node71&#45;&gt;Node68</title>
<path fill="none" stroke="#191970" d="M2925.5709,-112.4369C2970.4268,-102.8127 3039.6649,-87.957 3087.7008,-77.6504"/>
<polygon fill="#191970" stroke="#191970" points="3088.5697,-81.0437 3097.6129,-75.5237 3087.1011,-74.1995 3088.5697,-81.0437"/>
</g>
<!-- Node71&#45;&gt;Node70 -->
<g id="edge46" class="edge">
<title>Node71&#45;&gt;Node70</title>
<path fill="none" stroke="#191970" d="M2861.4027,-112.3733C2843.2669,-103.4644 2816.0865,-90.1127 2795.5413,-80.0203"/>
<polygon fill="#191970" stroke="#191970" points="2796.8603,-76.7688 2786.3416,-75.5011 2793.7739,-83.0517 2796.8603,-76.7688"/>
</g>
<!-- Node72&#45;&gt;Node47 -->
<g id="edge47" class="edge">
<title>Node72&#45;&gt;Node47</title>
<path fill="none" stroke="#191970" d="M3103.6962,-168.4862C3091.5783,-141.6994 3056.997,-65.2565 3040.6988,-29.2289"/>
<polygon fill="#191970" stroke="#191970" points="3043.7566,-27.4964 3036.4459,-19.8279 3037.3788,-30.3816 3043.7566,-27.4964"/>
</g>
<!-- Node72&#45;&gt;Node61 -->
<g id="edge48" class="edge">
<title>Node72&#45;&gt;Node61</title>
<path fill="none" stroke="#191970" d="M3124.5477,-168.2455C3139.2599,-159.5731 3160.9888,-146.7645 3177.8505,-136.825"/>
<polygon fill="#191970" stroke="#191970" points="3179.8046,-139.736 3186.6419,-131.6427 3176.2498,-133.7057 3179.8046,-139.736"/>
</g>
<!-- Node72&#45;&gt;Node68 -->
<g id="edge49" class="edge">
<title>Node72&#45;&gt;Node68</title>
<path fill="none" stroke="#191970" d="M3110.7259,-168.1282C3114.3231,-155.1967 3120.9132,-131.8343 3127,-112 3129.6731,-103.2896 3132.7738,-93.7022 3135.46,-85.5448"/>
<polygon fill="#191970" stroke="#191970" points="3138.8531,-86.4324 3138.6815,-75.8389 3132.2095,-84.2272 3138.8531,-86.4324"/>
</g>
<!-- Node74&#45;&gt;Node71 -->
<g id="edge50" class="edge">
<title>Node74&#45;&gt;Node71</title>
<path fill="none" stroke="#191970" d="M2904.1228,-168.2455C2900.3487,-160.6973 2895.0079,-150.0158 2890.4099,-140.8197"/>
<polygon fill="#191970" stroke="#191970" points="2893.424,-139.0217 2885.8213,-131.6427 2887.163,-142.1522 2893.424,-139.0217"/>
</g>
<!-- Node77&#45;&gt;Node61 -->
<g id="edge60" class="edge">
<title>Node77&#45;&gt;Node61</title>
<path fill="none" stroke="#191970" d="M3416.9414,-168.4369C3372.6011,-158.8127 3304.1589,-143.957 3256.6751,-133.6504"/>
<polygon fill="#191970" stroke="#191970" points="3257.3918,-130.2245 3246.8769,-131.5237 3255.9069,-137.0653 3257.3918,-130.2245"/>
</g>
<!-- Node78&#45;&gt;Node68 -->
<g id="edge61" class="edge">
<title>Node78&#45;&gt;Node68</title>
<path fill="none" stroke="#191970" d="M3582.8805,-113.5931C3578.1837,-113.0483 3573.5238,-112.5129 3569,-112 3444.5917,-97.894 3299.6684,-82.5012 3214.6735,-73.5791"/>
<polygon fill="#191970" stroke="#191970" points="3214.9213,-70.086 3204.6107,-72.5237 3214.191,-77.0478 3214.9213,-70.086"/>
</g>
<!-- Node79&#45;&gt;Node1 -->
<g id="edge62" class="edge">
<title>Node79&#45;&gt;Node1</title>
<path fill="none" stroke="#191970" d="M3000.7858,-243.5249C3066.0361,-263.7128 3218.2345,-310.8018 3291.3599,-333.4263"/>
<polygon fill="#191970" stroke="#191970" points="3290.5483,-336.8388 3301.1361,-336.4509 3292.6174,-330.1516 3290.5483,-336.8388"/>
</g>
<!-- Node79&#45;&gt;Node29 -->
<g id="edge63" class="edge">
<title>Node79&#45;&gt;Node29</title>
<path fill="none" stroke="#191970" d="M2918.3823,-224.4762C2874.2137,-215.9892 2809.0715,-202.6696 2753,-188 2751.5219,-187.6133 2750.0104,-187.2007 2748.488,-186.7717"/>
<polygon fill="#191970" stroke="#191970" points="2749.1025,-183.3028 2738.5194,-183.8007 2747.1032,-190.0112 2749.1025,-183.3028"/>
</g>
<!-- Node88&#45;&gt;Node1 -->
<g id="edge64" class="edge">
<title>Node88&#45;&gt;Node1</title>
<path fill="none" stroke="#191970" d="M3380.092,-243.7541C3373.0749,-252.7547 3362.8955,-266.6994 3356,-280 3348.2068,-295.0321 3341.8061,-313.1778 3337.5805,-326.6352"/>
<polygon fill="#191970" stroke="#191970" points="3334.2102,-325.6889 3334.6729,-336.2736 3340.9119,-327.7106 3334.2102,-325.6889"/>
</g>
<!-- Node89&#45;&gt;Node1 -->
<g id="edge65" class="edge">
<title>Node89&#45;&gt;Node1</title>
<path fill="none" stroke="#191970" d="M3484.3774,-243.5816C3456.6231,-250.7151 3421.5604,-262.3234 3394,-280 3374.2742,-292.6516 3356.4994,-312.9467 3345.0914,-327.6946"/>
<polygon fill="#191970" stroke="#191970" points="3342.035,-325.9376 3338.8506,-336.0425 3347.6415,-330.129 3342.035,-325.9376"/>
</g>
<!-- Node90&#45;&gt;Node1 -->
<g id="edge66" class="edge">
<title>Node90&#45;&gt;Node1</title>
<path fill="none" stroke="#191970" d="M3612.9624,-243.4249C3548.9841,-252.4249 3460.7043,-266.5682 3428,-280 3412.3228,-286.4387 3376.0295,-312.7325 3352.8314,-330.1257"/>
<polygon fill="#191970" stroke="#191970" points="3350.5274,-327.4796 3344.652,-336.2961 3354.7431,-333.0679 3350.5274,-327.4796"/>
</g>
</g>
</svg>
