<?xml version="1.0" encoding="UTF-8" standalone="no"?>
<!DOCTYPE svg PUBLIC "-//W3C//DTD SVG 1.1//EN"
 "http://www.w3.org/Graphics/SVG/1.1/DTD/svg11.dtd">
<!-- Generated by graphviz version 2.40.1 (20161225.0304)
 -->
<!-- Title: logger.hpp Pages: 1 -->
<svg width="864pt" height="364pt"
 viewBox="0.00 0.00 864.00 364.00" xmlns="http://www.w3.org/2000/svg" xmlns:xlink="http://www.w3.org/1999/xlink">
<g id="graph0" class="graph" transform="scale(1 1) rotate(0) translate(4 360)">
<title>logger.hpp</title>
<polygon fill="#ffffff" stroke="transparent" points="-4,4 -4,-360 860,-360 860,4 -4,4"/>
<!-- Node92 -->
<g id="node1" class="node">
<title>Node92</title>
<polygon fill="#bfbfbf" stroke="#000000" points="394,-336.5 394,-355.5 455,-355.5 455,-336.5 394,-336.5"/>
<text text-anchor="middle" x="424.5" y="-343.5" font-family="Helvetica,sans-Serif" font-size="10.00" fill="#000000">logger.hpp</text>
</g>
<!-- Node93 -->
<g id="node2" class="node">
<title>Node93</title>
<g id="a_node2"><a xlink:href="lox_8hpp.html" target="_top" xlink:title="lox.hpp">
<polygon fill="#ffffff" stroke="#000000" points="347.5,-280.5 347.5,-299.5 395.5,-299.5 395.5,-280.5 347.5,-280.5"/>
<text text-anchor="middle" x="371.5" y="-287.5" font-family="Helvetica,sans-Serif" font-size="10.00" fill="#000000">lox.hpp</text>
</a>
</g>
</g>
<!-- Node92&#45;&gt;Node93 -->
<g id="edge1" class="edge">
<title>Node92&#45;&gt;Node93</title>
<path fill="none" stroke="#191970" d="M408.2104,-328.7884C399.1438,-319.2085 388.1946,-307.6396 380.6261,-299.6427"/>
<polygon fill="#191970" stroke="#191970" points="405.8522,-331.3884 415.2681,-336.2455 410.9363,-326.5767 405.8522,-331.3884"/>
</g>
<!-- Node106 -->
<g id="node3" class="node">
<title>Node106</title>
<g id="a_node3"><a xlink:href="textlogger_8hpp.html" target="_top" xlink:title="textlogger.hpp">
<polygon fill="#ffffff" stroke="#000000" points="740,-168.5 740,-187.5 817,-187.5 817,-168.5 740,-168.5"/>
<text text-anchor="middle" x="778.5" y="-175.5" font-family="Helvetica,sans-Serif" font-size="10.00" fill="#000000">textlogger.hpp</text>
</a>
</g>
</g>
<!-- Node92&#45;&gt;Node106 -->
<g id="edge2" class="edge">
<title>Node92&#45;&gt;Node106</title>
<path fill="none" stroke="#191970" d="M453.6694,-332.1569C523.4395,-299.0457 698.5815,-215.9274 758.2342,-187.6177"/>
<polygon fill="#191970" stroke="#191970" points="452.0805,-329.0367 444.5469,-336.4862 455.0817,-335.3607 452.0805,-329.0367"/>
</g>
<!-- Node94 -->
<g id="node4" class="node">
<title>Node94</title>
<g id="a_node4"><a xlink:href="alox_2alox_8hpp.html" target="_top" xlink:title="alox.hpp">
<polygon fill="#ffffff" stroke="#000000" points="398,-224.5 398,-243.5 451,-243.5 451,-224.5 398,-224.5"/>
<text text-anchor="middle" x="424.5" y="-231.5" font-family="Helvetica,sans-Serif" font-size="10.00" fill="#000000">alox.hpp</text>
</a>
</g>
</g>
<!-- Node93&#45;&gt;Node94 -->
<g id="edge3" class="edge">
<title>Node93&#45;&gt;Node94</title>
<path fill="none" stroke="#191970" d="M382.0017,-272.2112C390.1541,-262.7472 401.181,-251.4797 410.1288,-243.6427"/>
<polygon fill="#191970" stroke="#191970" points="379.0612,-270.2797 375.465,-280.2455 384.4911,-274.6974 379.0612,-270.2797"/>
</g>
<!-- Node100 -->
<g id="node10" class="node">
<title>Node100</title>
<g id="a_node10"><a xlink:href="plaintextlogger_8hpp.html" target="_top" xlink:title="plaintextlogger.hpp">
<polygon fill="#ffffff" stroke="#000000" points="433.5,-112.5 433.5,-131.5 531.5,-131.5 531.5,-112.5 433.5,-112.5"/>
<text text-anchor="middle" x="482.5" y="-119.5" font-family="Helvetica,sans-Serif" font-size="10.00" fill="#000000">plaintextlogger.hpp</text>
</a>
</g>
</g>
<!-- Node106&#45;&gt;Node100 -->
<g id="edge32" class="edge">
<title>Node106&#45;&gt;Node100</title>
<path fill="none" stroke="#191970" d="M729.6824,-167.8709C654.9622,-153.2222 579.9141,-139.492 531.9673,-130.8448"/>
<polygon fill="#191970" stroke="#191970" points="729.2548,-171.3538 739.7422,-169.8492 730.6055,-164.4854 729.2548,-171.3538"/>
</g>
<!-- Node107 -->
<g id="node16" class="node">
<title>Node107</title>
<g id="a_node16"><a xlink:href="ansilogger_8hpp.html" target="_top" xlink:title="ansilogger.hpp">
<polygon fill="#ffffff" stroke="#000000" points="777,-112.5 777,-131.5 856,-131.5 856,-112.5 777,-112.5"/>
<text text-anchor="middle" x="816.5" y="-119.5" font-family="Helvetica,sans-Serif" font-size="10.00" fill="#000000">ansilogger.hpp</text>
</a>
</g>
</g>
<!-- Node106&#45;&gt;Node107 -->
<g id="edge33" class="edge">
<title>Node106&#45;&gt;Node107</title>
<path fill="none" stroke="#191970" d="M790.7679,-159.9209C797.1488,-150.5176 804.6931,-139.3997 809.9568,-131.6427"/>
<polygon fill="#191970" stroke="#191970" points="787.838,-158.0055 785.1191,-168.2455 793.6303,-161.936 787.838,-158.0055"/>
</g>
<!-- Node108 -->
<g id="node17" class="node">
<title>Node108</title>
<g id="a_node17"><a xlink:href="windowsconsolelogger_8hpp.html" target="_top" xlink:title="windowsconsolelogger.hpp">
<polygon fill="#ffffff" stroke="#000000" points="626,-112.5 626,-131.5 759,-131.5 759,-112.5 626,-112.5"/>
<text text-anchor="middle" x="692.5" y="-119.5" font-family="Helvetica,sans-Serif" font-size="10.00" fill="#000000">windowsconsolelogger.hpp</text>
</a>
</g>
</g>
<!-- Node106&#45;&gt;Node108 -->
<g id="edge34" class="edge">
<title>Node106&#45;&gt;Node108</title>
<path fill="none" stroke="#191970" d="M755.1095,-162.769C739.8701,-152.8456 720.4491,-140.1994 707.3084,-131.6427"/>
<polygon fill="#191970" stroke="#191970" points="753.2301,-165.7218 763.5199,-168.2455 757.0498,-159.8558 753.2301,-165.7218"/>
</g>
<!-- Node94&#45;&gt;Node92 -->
<g id="edge4" class="edge">
<title>Node94&#45;&gt;Node92</title>
<path fill="none" stroke="#191970" d="M424.5,-253.6976C424.5,-277.9553 424.5,-318.184 424.5,-336.4509"/>
<polygon fill="#191970" stroke="#191970" points="428.0001,-253.5249 424.5,-243.5249 421.0001,-253.5249 428.0001,-253.5249"/>
</g>
<!-- Node94&#45;&gt;Node93 -->
<g id="edge5" class="edge">
<title>Node94&#45;&gt;Node93</title>
<path fill="none" stroke="#191970" d="M414.1141,-251.6542C405.9892,-261.101 394.9662,-272.3761 385.9987,-280.2455"/>
<polygon fill="#191970" stroke="#191970" points="417.0328,-253.6121 420.619,-243.6427 411.5985,-249.1998 417.0328,-253.6121"/>
</g>
<!-- Node94&#45;&gt;Node106 -->
<g id="edge17" class="edge">
<title>Node94&#45;&gt;Node106</title>
<path fill="none" stroke="#191970" d="M461.2518,-229.1549C518.8146,-221.4132 633.6754,-205.3494 730.5,-188 733.5164,-187.4595 736.6336,-186.8733 739.7637,-186.2649"/>
<polygon fill="#191970" stroke="#191970" points="460.6349,-225.7062 451.1876,-230.502 461.5636,-232.6443 460.6349,-225.7062"/>
</g>
<!-- Node95 -->
<g id="node5" class="node">
<title>Node95</title>
<g id="a_node5"><a xlink:href="log_8hpp.html" target="_top" xlink:title="log.hpp">
<polygon fill="#ffffff" stroke="#000000" points="673.5,-168.5 673.5,-187.5 721.5,-187.5 721.5,-168.5 673.5,-168.5"/>
<text text-anchor="middle" x="697.5" y="-175.5" font-family="Helvetica,sans-Serif" font-size="10.00" fill="#000000">log.hpp</text>
</a>
</g>
</g>
<!-- Node94&#45;&gt;Node95 -->
<g id="edge6" class="edge">
<title>Node94&#45;&gt;Node95</title>
<path fill="none" stroke="#191970" d="M461.0639,-227.1363C506.8973,-219.1299 587.2877,-204.8231 655.5,-188 661.196,-186.5952 667.367,-184.8005 673.3195,-183.1203"/>
<polygon fill="#191970" stroke="#191970" points="460.2544,-223.7246 451.0045,-228.8908 461.4572,-230.6205 460.2544,-223.7246"/>
</g>
<!-- Node96 -->
<g id="node6" class="node">
<title>Node96</title>
<g id="a_node6"><a xlink:href="domain_8hpp.html" target="_top" xlink:title="domain.hpp">
<polygon fill="#ffffff" stroke="#000000" points="0,-168.5 0,-187.5 67,-187.5 67,-168.5 0,-168.5"/>
<text text-anchor="middle" x="33.5" y="-175.5" font-family="Helvetica,sans-Serif" font-size="10.00" fill="#000000">domain.hpp</text>
</a>
</g>
</g>
<!-- Node94&#45;&gt;Node96 -->
<g id="edge7" class="edge">
<title>Node94&#45;&gt;Node96</title>
<path fill="none" stroke="#191970" d="M387.6581,-230.4021C323.7898,-223.8847 188.5084,-208.844 75.5,-188 72.8464,-187.5105 70.1085,-186.961 67.3626,-186.3779"/>
<polygon fill="#191970" stroke="#191970" points="387.3434,-233.888 397.6446,-231.4108 388.047,-226.9234 387.3434,-233.888"/>
</g>
<!-- Node97 -->
<g id="node7" class="node">
<title>Node97</title>
<g id="a_node7"><a xlink:href="scopedump_8hpp.html" target="_top" xlink:title="scopedump.hpp">
<polygon fill="#ffffff" stroke="#000000" points="253.5,-112.5 253.5,-131.5 339.5,-131.5 339.5,-112.5 253.5,-112.5"/>
<text text-anchor="middle" x="296.5" y="-119.5" font-family="Helvetica,sans-Serif" font-size="10.00" fill="#000000">scopedump.hpp</text>
</a>
</g>
</g>
<!-- Node94&#45;&gt;Node97 -->
<g id="edge8" class="edge">
<title>Node94&#45;&gt;Node97</title>
<path fill="none" stroke="#191970" d="M398.2444,-219.4373C384.2826,-211.1056 367.2174,-199.9503 353.5,-188 333.1802,-170.2978 313.5604,-145.3044 303.491,-131.7174"/>
<polygon fill="#191970" stroke="#191970" points="396.5026,-222.4732 406.9048,-224.4848 400.0274,-216.4254 396.5026,-222.4732"/>
</g>
<!-- Node98 -->
<g id="node8" class="node">
<title>Node98</title>
<g id="a_node8"><a xlink:href="scopestore_8hpp.html" target="_top" xlink:title="scopestore.hpp">
<polygon fill="#ffffff" stroke="#000000" points="85,-168.5 85,-187.5 168,-187.5 168,-168.5 85,-168.5"/>
<text text-anchor="middle" x="126.5" y="-175.5" font-family="Helvetica,sans-Serif" font-size="10.00" fill="#000000">scopestore.hpp</text>
</a>
</g>
</g>
<!-- Node94&#45;&gt;Node98 -->
<g id="edge9" class="edge">
<title>Node94&#45;&gt;Node98</title>
<path fill="none" stroke="#191970" d="M387.6761,-227.336C339.2184,-218.5286 251.4108,-202.4377 176.5,-188 173.8053,-187.4806 171.0301,-186.9404 168.2333,-186.392"/>
<polygon fill="#191970" stroke="#191970" points="387.2222,-230.8107 397.6867,-229.1536 388.4728,-223.9234 387.2222,-230.8107"/>
</g>
<!-- Node99 -->
<g id="node9" class="node">
<title>Node99</title>
<g id="a_node9"><a xlink:href="scopeinfo_8hpp.html" target="_top" xlink:title="scopeinfo.hpp">
<polygon fill="#ffffff" stroke="#000000" points="186,-168.5 186,-187.5 263,-187.5 263,-168.5 186,-168.5"/>
<text text-anchor="middle" x="224.5" y="-175.5" font-family="Helvetica,sans-Serif" font-size="10.00" fill="#000000">scopeinfo.hpp</text>
</a>
</g>
</g>
<!-- Node94&#45;&gt;Node99 -->
<g id="edge10" class="edge">
<title>Node94&#45;&gt;Node99</title>
<path fill="none" stroke="#191970" d="M388.0916,-223.8057C351.1944,-213.4744 294.5569,-197.6159 258.5352,-187.5299"/>
<polygon fill="#191970" stroke="#191970" points="387.3682,-227.2376 397.9415,-226.5636 389.2556,-220.4969 387.3682,-227.2376"/>
</g>
<!-- Node94&#45;&gt;Node100 -->
<g id="edge11" class="edge">
<title>Node94&#45;&gt;Node100</title>
<path fill="none" stroke="#191970" d="M434.2099,-215.2498C446.7188,-191.0946 467.9895,-150.0202 477.5675,-131.5249"/>
<polygon fill="#191970" stroke="#191970" points="430.9357,-213.9615 429.445,-224.4509 437.1516,-217.1805 430.9357,-213.9615"/>
</g>
<!-- Node101 -->
<g id="node11" class="node">
<title>Node101</title>
<g id="a_node11"><a xlink:href="consolelogger_8hpp.html" target="_top" xlink:title="consolelogger.hpp">
<polygon fill="#ffffff" stroke="#000000" points="399,-56.5 399,-75.5 494,-75.5 494,-56.5 399,-56.5"/>
<text text-anchor="middle" x="446.5" y="-63.5" font-family="Helvetica,sans-Serif" font-size="10.00" fill="#000000">consolelogger.hpp</text>
</a>
</g>
</g>
<!-- Node94&#45;&gt;Node101 -->
<g id="edge12" class="edge">
<title>Node94&#45;&gt;Node101</title>
<path fill="none" stroke="#191970" d="M421.8469,-214.2339C419.1774,-189.8549 416.4914,-147.307 424.5,-112 427.5157,-98.7049 434.8644,-84.7591 440.2417,-75.7567"/>
<polygon fill="#191970" stroke="#191970" points="418.3949,-214.8418 423.0714,-224.3487 425.3441,-214.0005 418.3949,-214.8418"/>
</g>
<!-- Node102 -->
<g id="node12" class="node">
<title>Node102</title>
<g id="a_node12"><a xlink:href="alox_8hpp_source.html" target="_top" xlink:title="alox.hpp">
<polygon fill="#ffffff" stroke="#000000" points="610,-.5 610,-19.5 663,-19.5 663,-.5 610,-.5"/>
<text text-anchor="middle" x="636.5" y="-7.5" font-family="Helvetica,sans-Serif" font-size="10.00" fill="#000000">alox.hpp</text>
</a>
</g>
</g>
<!-- Node94&#45;&gt;Node102 -->
<g id="edge13" class="edge">
<title>Node94&#45;&gt;Node102</title>
<path fill="none" stroke="#191970" d="M454.0899,-219.6578C469.9759,-211.3626 489.5192,-200.1724 505.5,-188 561.5013,-145.3444 581.7394,-136.6369 617.5,-76 628.2816,-57.7183 633.2558,-32.9513 635.286,-19.556"/>
<polygon fill="#191970" stroke="#191970" points="452.052,-216.7683 444.7359,-224.4315 455.234,-223.0033 452.052,-216.7683"/>
</g>
<!-- Node103 -->
<g id="node13" class="node">
<title>Node103</title>
<g id="a_node13"><a xlink:href="memorylogger_8hpp.html" target="_top" xlink:title="memorylogger.hpp">
<polygon fill="#ffffff" stroke="#000000" points="512.5,-56.5 512.5,-75.5 608.5,-75.5 608.5,-56.5 512.5,-56.5"/>
<text text-anchor="middle" x="560.5" y="-63.5" font-family="Helvetica,sans-Serif" font-size="10.00" fill="#000000">memorylogger.hpp</text>
</a>
</g>
</g>
<!-- Node94&#45;&gt;Node103 -->
<g id="edge14" class="edge">
<title>Node94&#45;&gt;Node103</title>
<path fill="none" stroke="#191970" d="M444.4877,-217.456C475.8518,-191.3447 533.7672,-142.4607 540.5,-132 552.0342,-114.0793 557.1979,-89.1713 559.2737,-75.6566"/>
<polygon fill="#191970" stroke="#191970" points="441.8659,-215.0839 436.4101,-224.1661 446.3388,-220.4684 441.8659,-215.0839"/>
</g>
<!-- Node104 -->
<g id="node14" class="node">
<title>Node104</title>
<g id="a_node14"><a xlink:href="textfilelogger_8hpp.html" target="_top" xlink:title="textfilelogger.hpp">
<polygon fill="#ffffff" stroke="#000000" points="180.5,-56.5 180.5,-75.5 270.5,-75.5 270.5,-56.5 180.5,-56.5"/>
<text text-anchor="middle" x="225.5" y="-63.5" font-family="Helvetica,sans-Serif" font-size="10.00" fill="#000000">textfilelogger.hpp</text>
</a>
</g>
</g>
<!-- Node94&#45;&gt;Node104 -->
<g id="edge15" class="edge">
<title>Node94&#45;&gt;Node104</title>
<path fill="none" stroke="#191970" d="M388.1827,-223.3255C346.889,-209.2605 280.5461,-180.4553 244.5,-132 231.832,-114.971 227.5947,-89.7146 226.1886,-75.9049"/>
<polygon fill="#191970" stroke="#191970" points="387.2621,-226.7071 397.8551,-226.5066 389.4492,-220.0575 387.2621,-226.7071"/>
</g>
<!-- Node105 -->
<g id="node15" class="node">
<title>Node105</title>
<g id="a_node15"><a xlink:href="vstudiologger_8hpp.html" target="_top" xlink:title="vstudiologger.hpp">
<polygon fill="#ffffff" stroke="#000000" points="288.5,-56.5 288.5,-75.5 380.5,-75.5 380.5,-56.5 288.5,-56.5"/>
<text text-anchor="middle" x="334.5" y="-63.5" font-family="Helvetica,sans-Serif" font-size="10.00" fill="#000000">vstudiologger.hpp</text>
</a>
</g>
</g>
<!-- Node94&#45;&gt;Node105 -->
<g id="edge16" class="edge">
<title>Node94&#45;&gt;Node105</title>
<path fill="none" stroke="#191970" d="M414.6677,-215.6463C395.643,-180.1336 354.3832,-103.1154 339.7649,-75.8279"/>
<polygon fill="#191970" stroke="#191970" points="411.5959,-217.3242 419.4033,-224.4862 417.7663,-214.0186 411.5959,-217.3242"/>
</g>
<!-- Node94&#45;&gt;Node107 -->
<g id="edge18" class="edge">
<title>Node94&#45;&gt;Node107</title>
<path fill="none" stroke="#191970" d="M461.3456,-232.5288C556.0744,-228.3701 802.3818,-215.0354 826.5,-188 840.3868,-172.4336 829.8014,-146.128 822.2925,-131.8811"/>
<polygon fill="#191970" stroke="#191970" points="460.9307,-229.0433 451.09,-232.969 461.2309,-236.0368 460.9307,-229.0433"/>
</g>
<!-- Node94&#45;&gt;Node108 -->
<g id="edge19" class="edge">
<title>Node94&#45;&gt;Node108</title>
<path fill="none" stroke="#191970" d="M456.9607,-220.5733C478.6872,-211.5197 507.8865,-199.2234 533.5,-188 553.175,-179.3787 557.7447,-176.4356 577.5,-168 608.3503,-154.8268 644.3056,-140.6269 667.6884,-131.5433"/>
<polygon fill="#191970" stroke="#191970" points="455.4334,-217.4178 447.5439,-224.4893 458.1212,-223.8812 455.4334,-217.4178"/>
</g>
<!-- Node109 -->
<g id="node18" class="node">
<title>Node109</title>
<g id="a_node18"><a xlink:href="logtools_8hpp.html" target="_top" xlink:title="logtools.hpp">
<polygon fill="#ffffff" stroke="#000000" points="586,-168.5 586,-187.5 655,-187.5 655,-168.5 586,-168.5"/>
<text text-anchor="middle" x="620.5" y="-175.5" font-family="Helvetica,sans-Serif" font-size="10.00" fill="#000000">logtools.hpp</text>
</a>
</g>
</g>
<!-- Node94&#45;&gt;Node109 -->
<g id="edge20" class="edge">
<title>Node94&#45;&gt;Node109</title>
<path fill="none" stroke="#191970" d="M461.0121,-223.568C497.1727,-213.2364 552.073,-197.5506 587.1064,-187.541"/>
<polygon fill="#191970" stroke="#191970" points="459.9957,-220.2182 451.342,-226.3309 461.9188,-226.9489 459.9957,-220.2182"/>
</g>
<!-- Node95&#45;&gt;Node94 -->
<g id="edge21" class="edge">
<title>Node95&#45;&gt;Node94</title>
<path fill="none" stroke="#191970" d="M665.1626,-190.0115C585.9779,-208.9721 495.5705,-224.156 451.2916,-230.6283"/>
<polygon fill="#191970" stroke="#191970" points="666.3661,-193.321 675.2567,-187.5583 664.713,-186.5189 666.3661,-193.321"/>
</g>
<!-- Node96&#45;&gt;Node93 -->
<g id="edge22" class="edge">
<title>Node96&#45;&gt;Node93</title>
<path fill="none" stroke="#191970" d="M71.3916,-190.7937C111.0355,-204.1557 175.0929,-225.6809 230.5,-244 271.4493,-257.539 319.1753,-273.0537 347.2795,-282.1627"/>
<polygon fill="#191970" stroke="#191970" points="72.4529,-187.458 61.8588,-187.5793 70.2163,-194.091 72.4529,-187.458"/>
</g>
<!-- Node98&#45;&gt;Node93 -->
<g id="edge23" class="edge">
<title>Node98&#45;&gt;Node93</title>
<path fill="none" stroke="#191970" d="M156.7299,-191.8194C207.1659,-214.8758 307.217,-260.6135 350.6114,-280.4509"/>
<polygon fill="#191970" stroke="#191970" points="157.8856,-188.4994 147.3357,-187.5249 154.9753,-194.8657 157.8856,-188.4994"/>
</g>
<!-- Node98&#45;&gt;Node97 -->
<g id="edge24" class="edge">
<title>Node98&#45;&gt;Node97</title>
<path fill="none" stroke="#191970" d="M165.386,-165.1905C196.5312,-154.9309 239.5223,-140.7691 267.6573,-131.5011"/>
<polygon fill="#191970" stroke="#191970" points="164.1269,-161.9202 155.724,-168.3733 166.3171,-168.5687 164.1269,-161.9202"/>
</g>
<!-- Node99&#45;&gt;Node93 -->
<g id="edge25" class="edge">
<title>Node99&#45;&gt;Node93</title>
<path fill="none" stroke="#191970" d="M244.9624,-193.5904C275.8798,-217.1465 333.5811,-261.1094 358.9669,-280.4509"/>
<polygon fill="#191970" stroke="#191970" points="247.0769,-190.8013 237.0014,-187.5249 242.8346,-196.3694 247.0769,-190.8013"/>
</g>
<!-- Node100&#45;&gt;Node101 -->
<g id="edge26" class="edge">
<title>Node100&#45;&gt;Node101</title>
<path fill="none" stroke="#191970" d="M470.6904,-103.6296C464.6856,-94.2887 457.6341,-83.3197 452.6989,-75.6427"/>
<polygon fill="#191970" stroke="#191970" points="467.8775,-105.7264 476.2293,-112.2455 473.7658,-101.9411 467.8775,-105.7264"/>
</g>
<!-- Node100&#45;&gt;Node103 -->
<g id="edge27" class="edge">
<title>Node100&#45;&gt;Node103</title>
<path fill="none" stroke="#191970" d="M504.4936,-106.2097C518.1929,-96.3743 535.3736,-84.0394 547.0691,-75.6427"/>
<polygon fill="#191970" stroke="#191970" points="502.1686,-103.5703 496.0866,-112.2455 506.2511,-109.2566 502.1686,-103.5703"/>
</g>
<!-- Node100&#45;&gt;Node104 -->
<g id="edge28" class="edge">
<title>Node100&#45;&gt;Node104</title>
<path fill="none" stroke="#191970" d="M428.8388,-110.3073C381.4821,-99.9883 313.3095,-85.1336 269.2068,-75.5237"/>
<polygon fill="#191970" stroke="#191970" points="428.0962,-113.7275 438.6121,-112.4369 429.5866,-106.888 428.0962,-113.7275"/>
</g>
<!-- Node100&#45;&gt;Node105 -->
<g id="edge29" class="edge">
<title>Node100&#45;&gt;Node105</title>
<path fill="none" stroke="#191970" d="M447.5847,-108.7888C420.5617,-98.5639 383.786,-84.6488 359.6101,-75.5011"/>
<polygon fill="#191970" stroke="#191970" points="446.4664,-112.1078 457.0579,-112.3733 448.9437,-105.5608 446.4664,-112.1078"/>
</g>
<!-- Node101&#45;&gt;Node102 -->
<g id="edge30" class="edge">
<title>Node101&#45;&gt;Node102</title>
<path fill="none" stroke="#191970" d="M489.1496,-53.4296C526.112,-42.5354 578.4478,-27.1101 609.7779,-17.876"/>
<polygon fill="#191970" stroke="#191970" points="487.7647,-50.1888 479.1622,-56.3733 489.7437,-56.9033 487.7647,-50.1888"/>
</g>
<!-- Node105&#45;&gt;Node102 -->
<g id="edge31" class="edge">
<title>Node105&#45;&gt;Node102</title>
<path fill="none" stroke="#191970" d="M390.8059,-55.5592C456.0014,-43.4699 560.6849,-24.0584 609.6378,-14.9811"/>
<polygon fill="#191970" stroke="#191970" points="389.8903,-52.1692 380.696,-57.4338 391.1666,-59.0519 389.8903,-52.1692"/>
</g>
<!-- Node107&#45;&gt;Node102 -->
<g id="edge35" class="edge">
<title>Node107&#45;&gt;Node102</title>
<path fill="none" stroke="#191970" d="M792.3609,-106.9801C754.7219,-83.5603 683.1248,-39.011 651.8079,-19.5249"/>
<polygon fill="#191970" stroke="#191970" points="790.8136,-110.1396 801.1533,-112.4509 794.5118,-104.1962 790.8136,-110.1396"/>
</g>
<!-- Node108&#45;&gt;Node102 -->
<g id="edge36" class="edge">
<title>Node108&#45;&gt;Node102</title>
<path fill="none" stroke="#191970" d="M683.1249,-103.2498C671.0473,-79.0946 650.5101,-38.0202 641.2624,-19.5249"/>
<polygon fill="#191970" stroke="#191970" points="680.1228,-105.0719 687.7255,-112.4509 686.3838,-101.9414 680.1228,-105.0719"/>
</g>
</g>
</svg>
