<?xml version="1.0" encoding="UTF-8" standalone="no"?>
<!DOCTYPE svg PUBLIC "-//W3C//DTD SVG 1.1//EN"
 "http://www.w3.org/Graphics/SVG/1.1/DTD/svg11.dtd">
<!-- Generated by graphviz version 2.40.1 (20161225.0304)
 -->
<!-- Title: memorylogger.hpp Pages: 1 -->
<svg width="4010pt" height="532pt"
 viewBox="0.00 0.00 4009.50 532.00" xmlns="http://www.w3.org/2000/svg" xmlns:xlink="http://www.w3.org/1999/xlink">
<g id="graph0" class="graph" transform="scale(1 1) rotate(0) translate(4 528)">
<title>memorylogger.hpp</title>
<polygon fill="#ffffff" stroke="transparent" points="-4,4 -4,-528 4005.5,-528 4005.5,4 -4,4"/>
<!-- Node0 -->
<g id="node1" class="node">
<title>Node0</title>
<polygon fill="#bfbfbf" stroke="#000000" points="1036,-504.5 1036,-523.5 1132,-523.5 1132,-504.5 1036,-504.5"/>
<text text-anchor="middle" x="1084" y="-511.5" font-family="Helvetica,sans-Serif" font-size="10.00" fill="#000000">memorylogger.hpp</text>
</g>
<!-- Node1 -->
<g id="node2" class="node">
<title>Node1</title>
<g id="a_node2"><a xlink:href="alox_2alox_8hpp.html" target="_top" xlink:title="alib/alox/alox.hpp">
<polygon fill="#ffffff" stroke="#000000" points="973,-336.5 973,-355.5 1065,-355.5 1065,-336.5 973,-336.5"/>
<text text-anchor="middle" x="1019" y="-343.5" font-family="Helvetica,sans-Serif" font-size="10.00" fill="#000000">alib/alox/alox.hpp</text>
</a>
</g>
</g>
<!-- Node0&#45;&gt;Node1 -->
<g id="edge1" class="edge">
<title>Node0&#45;&gt;Node1</title>
<path fill="none" stroke="#191970" d="M1070.3883,-504.3041C1059.7611,-495.9491 1045.5693,-482.9032 1038,-468 1021.2486,-435.0183 1018.4476,-391.0641 1018.4012,-365.918"/>
<polygon fill="#191970" stroke="#191970" points="1021.9024,-365.8397 1018.5334,-355.7948 1014.903,-365.7482 1021.9024,-365.8397"/>
</g>
<!-- Node93 -->
<g id="node3" class="node">
<title>Node93</title>
<g id="a_node3"><a xlink:href="plaintextlogger_8hpp.html" target="_top" xlink:title="alib/alox/core/textlogger/plaintextlogger.hpp">
<polygon fill="#ffffff" stroke="#000000" points="1047,-448.5 1047,-467.5 1251,-467.5 1251,-448.5 1047,-448.5"/>
<text text-anchor="middle" x="1149" y="-455.5" font-family="Helvetica,sans-Serif" font-size="10.00" fill="#000000">alib/alox/core/textlogger/plaintextlogger.hpp</text>
</a>
</g>
</g>
<!-- Node0&#45;&gt;Node93 -->
<g id="edge2" class="edge">
<title>Node0&#45;&gt;Node93</title>
<path fill="none" stroke="#191970" d="M1095.3221,-504.2455C1104.9223,-495.9746 1118.8892,-483.9416 1130.1695,-474.2232"/>
<polygon fill="#191970" stroke="#191970" points="1132.516,-476.8214 1137.8076,-467.6427 1127.947,-471.5182 1132.516,-476.8214"/>
</g>
<!-- Node2 -->
<g id="node4" class="node">
<title>Node2</title>
<g id="a_node4"><a xlink:href="alib_8hpp.html" target="_top" xlink:title="alib/alib.hpp">
<polygon fill="#ffffff" stroke="#000000" points="2331,-280.5 2331,-299.5 2399,-299.5 2399,-280.5 2331,-280.5"/>
<text text-anchor="middle" x="2365" y="-287.5" font-family="Helvetica,sans-Serif" font-size="10.00" fill="#000000">alib/alib.hpp</text>
</a>
</g>
</g>
<!-- Node1&#45;&gt;Node2 -->
<g id="edge3" class="edge">
<title>Node1&#45;&gt;Node2</title>
<path fill="none" stroke="#191970" d="M1065.3324,-344.0724C1273.0916,-335.4286 2117.5529,-300.295 2320.8301,-291.8377"/>
<polygon fill="#191970" stroke="#191970" points="2320.9992,-295.3338 2330.8451,-291.421 2320.7082,-288.3398 2320.9992,-295.3338"/>
</g>
<!-- Node58 -->
<g id="node5" class="node">
<title>Node58</title>
<g id="a_node5"><a xlink:href="alox__symbols_8hpp.html" target="_top" xlink:title="internals/alox_symbols.hpp">
<polygon fill="#ffffff" stroke="#000000" points="616.5,-280.5 616.5,-299.5 751.5,-299.5 751.5,-280.5 616.5,-280.5"/>
<text text-anchor="middle" x="684" y="-287.5" font-family="Helvetica,sans-Serif" font-size="10.00" fill="#000000">internals/alox_symbols.hpp</text>
</a>
</g>
</g>
<!-- Node1&#45;&gt;Node58 -->
<g id="edge4" class="edge">
<title>Node1&#45;&gt;Node58</title>
<path fill="none" stroke="#191970" d="M972.7714,-338.2722C915.3547,-328.6742 816.962,-312.2265 751.2077,-301.2347"/>
<polygon fill="#191970" stroke="#191970" points="751.3862,-297.7161 740.946,-299.5193 750.2321,-304.6203 751.3862,-297.7161"/>
</g>
<!-- Node59 -->
<g id="node6" class="node">
<title>Node59</title>
<g id="a_node6"><a xlink:href="alox__macros_8hpp.html" target="_top" xlink:title="internals/alox_macros.hpp">
<polygon fill="#ffffff" stroke="#000000" points="808.5,-280.5 808.5,-299.5 939.5,-299.5 939.5,-280.5 808.5,-280.5"/>
<text text-anchor="middle" x="874" y="-287.5" font-family="Helvetica,sans-Serif" font-size="10.00" fill="#000000">internals/alox_macros.hpp</text>
</a>
</g>
</g>
<!-- Node1&#45;&gt;Node59 -->
<g id="edge5" class="edge">
<title>Node1&#45;&gt;Node59</title>
<path fill="none" stroke="#191970" d="M994.0736,-336.3733C970.3798,-327.2226 934.5489,-313.3844 908.1932,-303.2057"/>
<polygon fill="#191970" stroke="#191970" points="909.1906,-299.8389 898.6011,-299.5011 906.6686,-306.3689 909.1906,-299.8389"/>
</g>
<!-- Node60 -->
<g id="node7" class="node">
<title>Node60</title>
<g id="a_node7"><a xlink:href="configuration_8hpp.html" target="_top" xlink:title="alib/config/configuration.hpp">
<polygon fill="#ffffff" stroke="#000000" points="446,-224.5 446,-243.5 584,-243.5 584,-224.5 446,-224.5"/>
<text text-anchor="middle" x="515" y="-231.5" font-family="Helvetica,sans-Serif" font-size="10.00" fill="#000000">alib/config/configuration.hpp</text>
</a>
</g>
</g>
<!-- Node1&#45;&gt;Node60 -->
<g id="edge6" class="edge">
<title>Node1&#45;&gt;Node60</title>
<path fill="none" stroke="#191970" d="M972.882,-344.2783C859.7206,-339.6738 575.041,-325.6496 541,-300 526.5952,-289.1461 520.1626,-269.1105 517.2951,-253.9508"/>
<polygon fill="#191970" stroke="#191970" points="520.7415,-253.3332 515.7742,-243.9749 513.8214,-254.3883 520.7415,-253.3332"/>
</g>
<!-- Node75 -->
<g id="node8" class="node">
<title>Node75</title>
<g id="a_node8"><a xlink:href="aloxtypesandenums_8hpp.html" target="_top" xlink:title="aloxtypesandenums.hpp">
<polygon fill="#ffffff" stroke="#000000" points="958,-280.5 958,-299.5 1080,-299.5 1080,-280.5 958,-280.5"/>
<text text-anchor="middle" x="1019" y="-287.5" font-family="Helvetica,sans-Serif" font-size="10.00" fill="#000000">aloxtypesandenums.hpp</text>
</a>
</g>
</g>
<!-- Node1&#45;&gt;Node75 -->
<g id="edge7" class="edge">
<title>Node1&#45;&gt;Node75</title>
<path fill="none" stroke="#191970" d="M1019,-336.2455C1019,-328.9382 1019,-318.6944 1019,-309.7046"/>
<polygon fill="#191970" stroke="#191970" points="1022.5001,-309.6426 1019,-299.6427 1015.5001,-309.6427 1022.5001,-309.6426"/>
</g>
<!-- Node76 -->
<g id="node9" class="node">
<title>Node76</title>
<g id="a_node9"><a xlink:href="log_8hpp.html" target="_top" xlink:title="log.hpp">
<polygon fill="#ffffff" stroke="#000000" points="1136,-280.5 1136,-299.5 1184,-299.5 1184,-280.5 1136,-280.5"/>
<text text-anchor="middle" x="1160" y="-287.5" font-family="Helvetica,sans-Serif" font-size="10.00" fill="#000000">log.hpp</text>
</a>
</g>
</g>
<!-- Node1&#45;&gt;Node76 -->
<g id="edge8" class="edge">
<title>Node1&#45;&gt;Node76</title>
<path fill="none" stroke="#191970" d="M1037.9967,-336.3733C1060.6339,-326.6252 1098.4733,-311.5578 1126.1085,-301.2614"/>
<polygon fill="#191970" stroke="#191970" points="1127.6048,-304.4403 1135.7812,-297.7026 1125.1877,-297.8709 1127.6048,-304.4403"/>
</g>
<!-- Node77 -->
<g id="node10" class="node">
<title>Node77</title>
<g id="a_node10"><a xlink:href="lox_8hpp.html" target="_top" xlink:title="lox.hpp">
<polygon fill="#ffffff" stroke="#000000" points="550,-280.5 550,-299.5 598,-299.5 598,-280.5 550,-280.5"/>
<text text-anchor="middle" x="574" y="-287.5" font-family="Helvetica,sans-Serif" font-size="10.00" fill="#000000">lox.hpp</text>
</a>
</g>
</g>
<!-- Node1&#45;&gt;Node77 -->
<g id="edge9" class="edge">
<title>Node1&#45;&gt;Node77</title>
<path fill="none" stroke="#191970" d="M972.7859,-343.793C896.6825,-339.3705 740.7634,-327.5667 606.8238,-301.5211"/>
<polygon fill="#191970" stroke="#191970" points="607.3006,-298.0476 596.8112,-299.5388 605.9411,-304.9143 607.3006,-298.0476"/>
</g>
<!-- Node93&#45;&gt;Node1 -->
<g id="edge69" class="edge">
<title>Node93&#45;&gt;Node1</title>
<path fill="none" stroke="#191970" d="M1137.9163,-448.4509C1115.6582,-429.2747 1065.3081,-385.8962 1037.8022,-362.1988"/>
<polygon fill="#191970" stroke="#191970" points="1039.9163,-359.4004 1030.0557,-355.5249 1035.3473,-364.7036 1039.9163,-359.4004"/>
</g>
<!-- Node94 -->
<g id="node49" class="node">
<title>Node94</title>
<g id="a_node49"><a xlink:href="textlogger_8hpp.html" target="_top" xlink:title="alib/alox/core/textlogger/textlogger.hpp">
<polygon fill="#ffffff" stroke="#ff0000" points="1140,-392.5 1140,-411.5 1324,-411.5 1324,-392.5 1140,-392.5"/>
<text text-anchor="middle" x="1232" y="-399.5" font-family="Helvetica,sans-Serif" font-size="10.00" fill="#000000">alib/alox/core/textlogger/textlogger.hpp</text>
</a>
</g>
</g>
<!-- Node93&#45;&gt;Node94 -->
<g id="edge70" class="edge">
<title>Node93&#45;&gt;Node94</title>
<path fill="none" stroke="#191970" d="M1163.4575,-448.2455C1176.0732,-439.7337 1194.5944,-427.2375 1209.2045,-417.3801"/>
<polygon fill="#191970" stroke="#191970" points="1211.3761,-420.1371 1217.7082,-411.6427 1207.4609,-414.3343 1211.3761,-420.1371"/>
</g>
<!-- Node3 -->
<g id="node11" class="node">
<title>Node3</title>
<polygon fill="#ffffff" stroke="#bfbfbf" points="1506,-224.5 1506,-243.5 1558,-243.5 1558,-224.5 1506,-224.5"/>
<text text-anchor="middle" x="1532" y="-231.5" font-family="Helvetica,sans-Serif" font-size="10.00" fill="#000000">assert.h</text>
</g>
<!-- Node2&#45;&gt;Node3 -->
<g id="edge10" class="edge">
<title>Node2&#45;&gt;Node3</title>
<path fill="none" stroke="#191970" d="M2330.6209,-288.9925C2197.8145,-284.949 1718.2341,-268.9079 1568,-244 1567.9,-243.9834 1567.7999,-243.9667 1567.6997,-243.9498"/>
<polygon fill="#191970" stroke="#191970" points="1568.7043,-240.5839 1558.201,-241.9741 1567.2788,-247.4372 1568.7043,-240.5839"/>
</g>
<!-- Node4 -->
<g id="node12" class="node">
<title>Node4</title>
<polygon fill="#ffffff" stroke="#bfbfbf" points="1576.5,-224.5 1576.5,-243.5 1621.5,-243.5 1621.5,-224.5 1576.5,-224.5"/>
<text text-anchor="middle" x="1599" y="-231.5" font-family="Helvetica,sans-Serif" font-size="10.00" fill="#000000">iosfwd</text>
</g>
<!-- Node2&#45;&gt;Node4 -->
<g id="edge11" class="edge">
<title>Node2&#45;&gt;Node4</title>
<path fill="none" stroke="#191970" d="M2330.7631,-288.9459C2207.7228,-284.992 1787.4803,-270.0136 1631.8574,-243.6232"/>
<polygon fill="#191970" stroke="#191970" points="1632.0153,-240.0962 1621.5561,-241.786 1630.7862,-246.9875 1632.0153,-240.0962"/>
</g>
<!-- Node5 -->
<g id="node13" class="node">
<title>Node5</title>
<polygon fill="#ffffff" stroke="#bfbfbf" points="1640,-224.5 1640,-243.5 1686,-243.5 1686,-224.5 1640,-224.5"/>
<text text-anchor="middle" x="1663" y="-231.5" font-family="Helvetica,sans-Serif" font-size="10.00" fill="#000000">cstdint</text>
</g>
<!-- Node2&#45;&gt;Node5 -->
<g id="edge12" class="edge">
<title>Node2&#45;&gt;Node5</title>
<path fill="none" stroke="#191970" d="M2330.9866,-288.6767C2215.6172,-284.0338 1838.9707,-267.5723 1696.522,-243.5787"/>
<polygon fill="#191970" stroke="#191970" points="1696.7327,-240.0616 1686.2754,-241.7633 1695.5115,-246.9542 1696.7327,-240.0616"/>
</g>
<!-- Node6 -->
<g id="node14" class="node">
<title>Node6</title>
<g id="a_node14"><a xlink:href="prepro_8hpp.html" target="_top" xlink:title="alib/lang/prepro.hpp">
<polygon fill="#ffffff" stroke="#000000" points="1704.5,-224.5 1704.5,-243.5 1805.5,-243.5 1805.5,-224.5 1704.5,-224.5"/>
<text text-anchor="middle" x="1755" y="-231.5" font-family="Helvetica,sans-Serif" font-size="10.00" fill="#000000">alib/lang/prepro.hpp</text>
</a>
</g>
</g>
<!-- Node2&#45;&gt;Node6 -->
<g id="edge13" class="edge">
<title>Node2&#45;&gt;Node6</title>
<path fill="none" stroke="#191970" d="M2330.7868,-288.1136C2245.6383,-283.2108 2017.1931,-268.783 1815.8686,-244.0119"/>
<polygon fill="#191970" stroke="#191970" points="1816.0516,-240.5078 1805.6964,-242.7485 1815.1888,-247.4544 1816.0516,-240.5078"/>
</g>
<!-- Node7 -->
<g id="node15" class="node">
<title>Node7</title>
<g id="a_node15"><a xlink:href="types_8hpp.html" target="_top" xlink:title="alib/lang/types.hpp">
<polygon fill="#ffffff" stroke="#000000" points="1824,-224.5 1824,-243.5 1922,-243.5 1922,-224.5 1824,-224.5"/>
<text text-anchor="middle" x="1873" y="-231.5" font-family="Helvetica,sans-Serif" font-size="10.00" fill="#000000">alib/lang/types.hpp</text>
</a>
</g>
</g>
<!-- Node2&#45;&gt;Node7 -->
<g id="edge14" class="edge">
<title>Node2&#45;&gt;Node7</title>
<path fill="none" stroke="#191970" d="M2330.8665,-287.1442C2259.0785,-280.9745 2087.0101,-265.3278 1932.1846,-244.0885"/>
<polygon fill="#191970" stroke="#191970" points="1932.398,-240.5847 1922.0127,-242.6814 1931.4388,-247.5187 1932.398,-240.5847"/>
</g>
<!-- Node8 -->
<g id="node16" class="node">
<title>Node8</title>
<g id="a_node16"><a xlink:href="assert_8hpp.html" target="_top" xlink:title="alib/debug/assert.hpp">
<polygon fill="#ffffff" stroke="#000000" points="1940,-224.5 1940,-243.5 2050,-243.5 2050,-224.5 1940,-224.5"/>
<text text-anchor="middle" x="1995" y="-231.5" font-family="Helvetica,sans-Serif" font-size="10.00" fill="#000000">alib/debug/assert.hpp</text>
</a>
</g>
</g>
<!-- Node2&#45;&gt;Node8 -->
<g id="edge15" class="edge">
<title>Node2&#45;&gt;Node8</title>
<path fill="none" stroke="#191970" d="M2330.6897,-284.8591C2275.9955,-276.6567 2165.3964,-260.0403 2060.4528,-244.0653"/>
<polygon fill="#191970" stroke="#191970" points="2060.7296,-240.5672 2050.3166,-242.5216 2059.6757,-247.4874 2060.7296,-240.5672"/>
</g>
<!-- Node9 -->
<g id="node17" class="node">
<title>Node9</title>
<g id="a_node17"><a xlink:href="rtti_8hpp.html" target="_top" xlink:title="alib/lang/rtti.hpp">
<polygon fill="#ffffff" stroke="#ff0000" points="2204,-224.5 2204,-243.5 2290,-243.5 2290,-224.5 2204,-224.5"/>
<text text-anchor="middle" x="2247" y="-231.5" font-family="Helvetica,sans-Serif" font-size="10.00" fill="#000000">alib/lang/rtti.hpp</text>
</a>
</g>
</g>
<!-- Node2&#45;&gt;Node9 -->
<g id="edge16" class="edge">
<title>Node2&#45;&gt;Node9</title>
<path fill="none" stroke="#191970" d="M2344.7151,-280.3733C2325.8579,-271.4241 2297.554,-257.9917 2276.2545,-247.8835"/>
<polygon fill="#191970" stroke="#191970" points="2277.5551,-244.6266 2267.0202,-243.5011 2274.5539,-250.9506 2277.5551,-244.6266"/>
</g>
<!-- Node13 -->
<g id="node18" class="node">
<title>Node13</title>
<g id="a_node18"><a xlink:href="singleton_8hpp.html" target="_top" xlink:title="alib/lang/singleton.hpp">
<polygon fill="#ffffff" stroke="#ff0000" points="2308.5,-224.5 2308.5,-243.5 2421.5,-243.5 2421.5,-224.5 2308.5,-224.5"/>
<text text-anchor="middle" x="2365" y="-231.5" font-family="Helvetica,sans-Serif" font-size="10.00" fill="#000000">alib/lang/singleton.hpp</text>
</a>
</g>
</g>
<!-- Node2&#45;&gt;Node13 -->
<g id="edge17" class="edge">
<title>Node2&#45;&gt;Node13</title>
<path fill="none" stroke="#191970" d="M2365,-280.2455C2365,-272.9382 2365,-262.6944 2365,-253.7046"/>
<polygon fill="#191970" stroke="#191970" points="2368.5001,-253.6426 2365,-243.6427 2361.5001,-253.6427 2368.5001,-253.6426"/>
</g>
<!-- Node15 -->
<g id="node19" class="node">
<title>Node15</title>
<g id="a_node19"><a xlink:href="enums_8hpp.html" target="_top" xlink:title="alib/lang/enums.hpp">
<polygon fill="#ffffff" stroke="#000000" points="2440,-224.5 2440,-243.5 2544,-243.5 2544,-224.5 2440,-224.5"/>
<text text-anchor="middle" x="2492" y="-231.5" font-family="Helvetica,sans-Serif" font-size="10.00" fill="#000000">alib/lang/enums.hpp</text>
</a>
</g>
</g>
<!-- Node2&#45;&gt;Node15 -->
<g id="edge18" class="edge">
<title>Node2&#45;&gt;Node15</title>
<path fill="none" stroke="#191970" d="M2386.8321,-280.3733C2407.3103,-271.3435 2438.1399,-257.7494 2461.1319,-247.6111"/>
<polygon fill="#191970" stroke="#191970" points="2462.715,-250.7383 2470.4528,-243.5011 2459.8907,-244.3333 2462.715,-250.7383"/>
</g>
<!-- Node16 -->
<g id="node20" class="node">
<title>Node16</title>
<g id="a_node20"><a xlink:href="strings_2strings_8hpp.html" target="_top" xlink:title="alib/strings/strings.hpp">
<polygon fill="#ffffff" stroke="#ff0000" points="2562.5,-224.5 2562.5,-243.5 2677.5,-243.5 2677.5,-224.5 2562.5,-224.5"/>
<text text-anchor="middle" x="2620" y="-231.5" font-family="Helvetica,sans-Serif" font-size="10.00" fill="#000000">alib/strings/strings.hpp</text>
</a>
</g>
</g>
<!-- Node2&#45;&gt;Node16 -->
<g id="edge19" class="edge">
<title>Node2&#45;&gt;Node16</title>
<path fill="none" stroke="#191970" d="M2399.1258,-282.5057C2442.0404,-273.0813 2516.1962,-256.7961 2566.6343,-245.7195"/>
<polygon fill="#191970" stroke="#191970" points="2567.6868,-249.0719 2576.7032,-243.5083 2566.1852,-242.2348 2567.6868,-249.0719"/>
</g>
<!-- Node25 -->
<g id="node21" class="node">
<title>Node25</title>
<g id="a_node21"><a xlink:href="astring_8hpp.html" target="_top" xlink:title="alib/strings/astring.hpp">
<polygon fill="#ffffff" stroke="#ff0000" points="2695.5,-224.5 2695.5,-243.5 2810.5,-243.5 2810.5,-224.5 2695.5,-224.5"/>
<text text-anchor="middle" x="2753" y="-231.5" font-family="Helvetica,sans-Serif" font-size="10.00" fill="#000000">alib/strings/astring.hpp</text>
</a>
</g>
</g>
<!-- Node2&#45;&gt;Node25 -->
<g id="edge20" class="edge">
<title>Node2&#45;&gt;Node25</title>
<path fill="none" stroke="#191970" d="M2399.3255,-285.1937C2456.4813,-277.1695 2575.0346,-260.436 2685.4392,-244.2214"/>
<polygon fill="#191970" stroke="#191970" points="2686.027,-247.6727 2695.4114,-242.7549 2685.0086,-240.7471 2686.027,-247.6727"/>
</g>
<!-- Node27 -->
<g id="node22" class="node">
<title>Node27</title>
<g id="a_node22"><a xlink:href="preallocatedstring_8hpp.html" target="_top" xlink:title="alib/strings/preallocatedstring.hpp">
<polygon fill="#ffffff" stroke="#000000" points="2829,-224.5 2829,-243.5 2991,-243.5 2991,-224.5 2829,-224.5"/>
<text text-anchor="middle" x="2910" y="-231.5" font-family="Helvetica,sans-Serif" font-size="10.00" fill="#000000">alib/strings/preallocatedstring.hpp</text>
</a>
</g>
</g>
<!-- Node2&#45;&gt;Node27 -->
<g id="edge21" class="edge">
<title>Node2&#45;&gt;Node27</title>
<path fill="none" stroke="#191970" d="M2399.2587,-286.6534C2473.5394,-279.3721 2655.2292,-261.4265 2818.3487,-244.1675"/>
<polygon fill="#191970" stroke="#191970" points="2818.9934,-247.6189 2828.5689,-243.0844 2818.2557,-240.6578 2818.9934,-247.6189"/>
</g>
<!-- Node28 -->
<g id="node23" class="node">
<title>Node28</title>
<g id="a_node23"><a xlink:href="resources_8hpp.html" target="_top" xlink:title="alib/lang/resources.hpp">
<polygon fill="#ffffff" stroke="#ff0000" points="2068.5,-224.5 2068.5,-243.5 2185.5,-243.5 2185.5,-224.5 2068.5,-224.5"/>
<text text-anchor="middle" x="2127" y="-231.5" font-family="Helvetica,sans-Serif" font-size="10.00" fill="#000000">alib/lang/resources.hpp</text>
</a>
</g>
</g>
<!-- Node2&#45;&gt;Node28 -->
<g id="edge22" class="edge">
<title>Node2&#45;&gt;Node28</title>
<path fill="none" stroke="#191970" d="M2330.9004,-281.9766C2290.6654,-272.5095 2223.4116,-256.6851 2177.2167,-245.8157"/>
<polygon fill="#191970" stroke="#191970" points="2177.943,-242.3911 2167.4071,-243.5076 2176.3397,-249.205 2177.943,-242.3911"/>
</g>
<!-- Node32 -->
<g id="node24" class="node">
<title>Node32</title>
<g id="a_node24"><a xlink:href="library_8hpp.html" target="_top" xlink:title="alib/lang/library.hpp">
<polygon fill="#ffffff" stroke="#000000" points="3009,-224.5 3009,-243.5 3109,-243.5 3109,-224.5 3009,-224.5"/>
<text text-anchor="middle" x="3059" y="-231.5" font-family="Helvetica,sans-Serif" font-size="10.00" fill="#000000">alib/lang/library.hpp</text>
</a>
</g>
</g>
<!-- Node2&#45;&gt;Node32 -->
<g id="edge23" class="edge">
<title>Node2&#45;&gt;Node32</title>
<path fill="none" stroke="#191970" d="M2399.1836,-288.6744C2493.1918,-284.7846 2763.669,-271.9503 2998.7291,-244.0495"/>
<polygon fill="#191970" stroke="#191970" points="2999.3232,-247.5034 3008.8354,-242.8379 2998.4899,-240.5532 2999.3232,-247.5034"/>
</g>
<!-- Node33 -->
<g id="node25" class="node">
<title>Node33</title>
<g id="a_node25"><a xlink:href="stringlib_8hpp.html" target="_top" xlink:title="alib/strings/stringlib.hpp">
<polygon fill="#ffffff" stroke="#000000" points="3127.5,-224.5 3127.5,-243.5 3246.5,-243.5 3246.5,-224.5 3127.5,-224.5"/>
<text text-anchor="middle" x="3187" y="-231.5" font-family="Helvetica,sans-Serif" font-size="10.00" fill="#000000">alib/strings/stringlib.hpp</text>
</a>
</g>
</g>
<!-- Node2&#45;&gt;Node33 -->
<g id="edge24" class="edge">
<title>Node2&#45;&gt;Node33</title>
<path fill="none" stroke="#191970" d="M2399.2307,-288.9202C2504.6134,-285.382 2833.6339,-272.7368 3117.1332,-244.0053"/>
<polygon fill="#191970" stroke="#191970" points="3117.6063,-247.4753 3127.1985,-242.9764 3116.8944,-240.5115 3117.6063,-247.4753"/>
</g>
<!-- Node34 -->
<g id="node26" class="node">
<title>Node34</title>
<g id="a_node26"><a xlink:href="boxinglib_8hpp.html" target="_top" xlink:title="alib/boxing/boxinglib.hpp">
<polygon fill="#ffffff" stroke="#ff0000" points="3264.5,-224.5 3264.5,-243.5 3387.5,-243.5 3387.5,-224.5 3264.5,-224.5"/>
<text text-anchor="middle" x="3326" y="-231.5" font-family="Helvetica,sans-Serif" font-size="10.00" fill="#000000">alib/boxing/boxinglib.hpp</text>
</a>
</g>
</g>
<!-- Node2&#45;&gt;Node34 -->
<g id="edge25" class="edge">
<title>Node2&#45;&gt;Node34</title>
<path fill="none" stroke="#191970" d="M2399.0709,-289.3487C2516.4626,-286.8711 2915.1042,-276.5205 3254.1856,-244.1028"/>
<polygon fill="#191970" stroke="#191970" points="3254.582,-247.5809 3264.1999,-243.1373 3253.9101,-240.6133 3254.582,-247.5809"/>
</g>
<!-- Node43 -->
<g id="node27" class="node">
<title>Node43</title>
<g id="a_node27"><a xlink:href="langlib_8hpp.html" target="_top" xlink:title="alib/lang/langlib.hpp">
<polygon fill="#ffffff" stroke="#000000" points="3406,-224.5 3406,-243.5 3508,-243.5 3508,-224.5 3406,-224.5"/>
<text text-anchor="middle" x="3457" y="-231.5" font-family="Helvetica,sans-Serif" font-size="10.00" fill="#000000">alib/lang/langlib.hpp</text>
</a>
</g>
</g>
<!-- Node2&#45;&gt;Node43 -->
<g id="edge26" class="edge">
<title>Node2&#45;&gt;Node43</title>
<path fill="none" stroke="#191970" d="M2399.1957,-289.0315C2552.358,-284.6094 3176.9554,-265.6619 3395.8792,-243.9661"/>
<polygon fill="#191970" stroke="#191970" points="3396.4023,-247.4309 3405.994,-242.9309 3395.6896,-240.4673 3396.4023,-247.4309"/>
</g>
<!-- Node44 -->
<g id="node28" class="node">
<title>Node44</title>
<g id="a_node28"><a xlink:href="stringboxing_8hpp.html" target="_top" xlink:title="alib/strings/boxing/stringboxing.hpp">
<polygon fill="#ffffff" stroke="#000000" points="3526,-224.5 3526,-243.5 3696,-243.5 3696,-224.5 3526,-224.5"/>
<text text-anchor="middle" x="3611" y="-231.5" font-family="Helvetica,sans-Serif" font-size="10.00" fill="#000000">alib/strings/boxing/stringboxing.hpp</text>
</a>
</g>
</g>
<!-- Node2&#45;&gt;Node44 -->
<g id="edge27" class="edge">
<title>Node2&#45;&gt;Node44</title>
<path fill="none" stroke="#191970" d="M2399.445,-289.4554C2537.9933,-287.0907 3068.2135,-276.3672 3515.7442,-244.0437"/>
<polygon fill="#191970" stroke="#191970" points="3516.2484,-247.5163 3525.9682,-243.3004 3515.7407,-240.5348 3516.2484,-247.5163"/>
</g>
<!-- Node45 -->
<g id="node29" class="node">
<title>Node45</title>
<g id="a_node29"><a xlink:href="report_8hpp.html" target="_top" xlink:title="alib/lang/report.hpp">
<polygon fill="#ffffff" stroke="#ff0000" points="3714.5,-224.5 3714.5,-243.5 3813.5,-243.5 3813.5,-224.5 3714.5,-224.5"/>
<text text-anchor="middle" x="3764" y="-231.5" font-family="Helvetica,sans-Serif" font-size="10.00" fill="#000000">alib/lang/report.hpp</text>
</a>
</g>
</g>
<!-- Node2&#45;&gt;Node45 -->
<g id="edge28" class="edge">
<title>Node2&#45;&gt;Node45</title>
<path fill="none" stroke="#191970" d="M2399.2057,-289.4459C2579.2976,-286.4352 3419.6847,-271.2064 3704.1997,-243.9025"/>
<polygon fill="#191970" stroke="#191970" points="3704.8838,-247.352 3714.4908,-242.8847 3704.1948,-240.386 3704.8838,-247.352"/>
</g>
<!-- Node47 -->
<g id="node30" class="node">
<title>Node47</title>
<g id="a_node30"><a xlink:href="enumbitwise_8hpp.html" target="_top" xlink:title="alib/lang/enumbitwise.hpp">
<polygon fill="#ffffff" stroke="#ff0000" points="622.5,-.5 622.5,-19.5 751.5,-19.5 751.5,-.5 622.5,-.5"/>
<text text-anchor="middle" x="687" y="-7.5" font-family="Helvetica,sans-Serif" font-size="10.00" fill="#000000">alib/lang/enumbitwise.hpp</text>
</a>
</g>
</g>
<!-- Node2&#45;&gt;Node47 -->
<g id="edge29" class="edge">
<title>Node2&#45;&gt;Node47</title>
<path fill="none" stroke="#191970" d="M2399.2178,-289.4739C2616.3277,-286.0692 3793.9665,-266.5805 3823,-244 3847.0952,-225.2603 3842,-208.5246 3842,-178 3842,-178 3842,-178 3842,-122 3842,-42.3655 1240.2731,-15.0031 762.0485,-10.6462"/>
<polygon fill="#191970" stroke="#191970" points="761.8431,-7.1443 751.8118,-10.5536 761.7796,-14.1441 761.8431,-7.1443"/>
</g>
<!-- Node49 -->
<g id="node31" class="node">
<title>Node49</title>
<g id="a_node31"><a xlink:href="enummetadata_8hpp.html" target="_top" xlink:title="alib/lang/enummetadata.hpp">
<polygon fill="#ffffff" stroke="#000000" points="1158.5,-224.5 1158.5,-243.5 1297.5,-243.5 1297.5,-224.5 1158.5,-224.5"/>
<text text-anchor="middle" x="1228" y="-231.5" font-family="Helvetica,sans-Serif" font-size="10.00" fill="#000000">alib/lang/enummetadata.hpp</text>
</a>
</g>
</g>
<!-- Node2&#45;&gt;Node49 -->
<g id="edge30" class="edge">
<title>Node2&#45;&gt;Node49</title>
<path fill="none" stroke="#191970" d="M2330.852,-289.437C2199.1835,-287.0694 1711.8809,-276.4909 1312,-244 1310.6826,-243.893 1309.354,-243.7811 1308.0166,-243.6648"/>
<polygon fill="#191970" stroke="#191970" points="1307.9135,-240.1401 1297.6316,-242.6961 1307.2633,-247.1099 1307.9135,-240.1401"/>
</g>
<!-- Node50 -->
<g id="node32" class="node">
<title>Node50</title>
<g id="a_node32"><a xlink:href="configlib_8hpp.html" target="_top" xlink:title="alib/config/configlib.hpp">
<polygon fill="#ffffff" stroke="#ff0000" points="441.5,-.5 441.5,-19.5 560.5,-19.5 560.5,-.5 441.5,-.5"/>
<text text-anchor="middle" x="501" y="-7.5" font-family="Helvetica,sans-Serif" font-size="10.00" fill="#000000">alib/config/configlib.hpp</text>
</a>
</g>
</g>
<!-- Node2&#45;&gt;Node50 -->
<g id="edge31" class="edge">
<title>Node2&#45;&gt;Node50</title>
<path fill="none" stroke="#191970" d="M2330.7917,-289.5696C2157.6436,-287.2518 1384.5377,-275.1814 1345,-244 1321.0322,-225.0977 1326,-208.5246 1326,-178 1326,-178 1326,-178 1326,-122 1326,-103.0089 769.6838,-39.6835 570.7134,-17.6421"/>
<polygon fill="#191970" stroke="#191970" points="570.9881,-14.1513 560.6638,-16.5303 570.2183,-21.1088 570.9881,-14.1513"/>
</g>
<!-- Node55 -->
<g id="node33" class="node">
<title>Node55</title>
<g id="a_node33"><a xlink:href="systemlib_8hpp.html" target="_top" xlink:title="alib/system/systemlib.hpp">
<polygon fill="#ffffff" stroke="#ff0000" points="3870.5,-224.5 3870.5,-243.5 4001.5,-243.5 4001.5,-224.5 3870.5,-224.5"/>
<text text-anchor="middle" x="3936" y="-231.5" font-family="Helvetica,sans-Serif" font-size="10.00" fill="#000000">alib/system/systemlib.hpp</text>
</a>
</g>
</g>
<!-- Node2&#45;&gt;Node55 -->
<g id="edge32" class="edge">
<title>Node2&#45;&gt;Node55</title>
<path fill="none" stroke="#191970" d="M2399.1423,-289.3815C2593.2171,-285.8 3559.2337,-267.075 3856,-244 3857.2952,-243.8993 3858.6016,-243.7927 3859.9168,-243.6809"/>
<polygon fill="#191970" stroke="#191970" points="3860.4964,-247.1421 3870.1284,-242.7292 3859.8468,-240.1724 3860.4964,-247.1421"/>
</g>
<!-- Node57 -->
<g id="node34" class="node">
<title>Node57</title>
<g id="a_node34"><a xlink:href="applicables_8hpp.html" target="_top" xlink:title="alib/strings/applicables.hpp">
<polygon fill="#ffffff" stroke="#000000" points="1354,-224.5 1354,-243.5 1488,-243.5 1488,-224.5 1354,-224.5"/>
<text text-anchor="middle" x="1421" y="-231.5" font-family="Helvetica,sans-Serif" font-size="10.00" fill="#000000">alib/strings/applicables.hpp</text>
</a>
</g>
</g>
<!-- Node2&#45;&gt;Node57 -->
<g id="edge33" class="edge">
<title>Node2&#45;&gt;Node57</title>
<path fill="none" stroke="#191970" d="M2330.6085,-289.14C2214.8319,-286.0419 1828.4888,-274.0544 1498.3474,-244.0559"/>
<polygon fill="#191970" stroke="#191970" points="1498.3826,-240.5446 1488.105,-243.1178 1497.744,-247.5154 1498.3826,-240.5446"/>
</g>
<!-- Node60&#45;&gt;Node47 -->
<g id="edge36" class="edge">
<title>Node60&#45;&gt;Node47</title>
<path fill="none" stroke="#191970" d="M584.0789,-226.3073C650.4383,-218.1434 745.4269,-204.2001 779,-188 812.7401,-171.7193 826.6532,-166.175 842,-132 866.4327,-77.5923 785.8836,-40.7484 731.8856,-22.7518"/>
<polygon fill="#191970" stroke="#191970" points="732.7349,-19.3482 722.1433,-19.6108 730.5868,-26.0105 732.7349,-19.3482"/>
</g>
<!-- Node61 -->
<g id="node36" class="node">
<title>Node61</title>
<g id="a_node36"><a xlink:href="threadlock_8hpp.html" target="_top" xlink:title="alib/threads/threadlock.hpp">
<polygon fill="#ffffff" stroke="#ff0000" points="541,-112.5 541,-131.5 675,-131.5 675,-112.5 541,-112.5"/>
<text text-anchor="middle" x="608" y="-119.5" font-family="Helvetica,sans-Serif" font-size="10.00" fill="#000000">alib/threads/threadlock.hpp</text>
</a>
</g>
</g>
<!-- Node60&#45;&gt;Node61 -->
<g id="edge37" class="edge">
<title>Node60&#45;&gt;Node61</title>
<path fill="none" stroke="#191970" d="M540.8266,-224.4138C557.5139,-216.9385 578.3933,-204.9567 591,-188 600.9155,-174.6632 605.068,-156.094 606.7965,-142.0484"/>
<polygon fill="#191970" stroke="#191970" points="610.2955,-142.219 607.7269,-131.9402 603.325,-141.5773 610.2955,-142.219"/>
</g>
<!-- Node68 -->
<g id="node37" class="node">
<title>Node68</title>
<g id="a_node37"><a xlink:href="substring_8hpp.html" target="_top" xlink:title="alib/strings/substring.hpp">
<polygon fill="#ffffff" stroke="#000000" points="359.5,-56.5 359.5,-75.5 484.5,-75.5 484.5,-56.5 359.5,-56.5"/>
<text text-anchor="middle" x="422" y="-63.5" font-family="Helvetica,sans-Serif" font-size="10.00" fill="#000000">alib/strings/substring.hpp</text>
</a>
</g>
</g>
<!-- Node60&#45;&gt;Node68 -->
<g id="edge38" class="edge">
<title>Node60&#45;&gt;Node68</title>
<path fill="none" stroke="#191970" d="M487.4159,-224.3751C470.659,-217.0533 450.3689,-205.2589 439,-188 418.4024,-156.7311 418.0278,-111.1654 419.8485,-85.4863"/>
<polygon fill="#191970" stroke="#191970" points="423.3365,-85.7758 420.7426,-75.5034 416.3644,-85.1513 423.3365,-85.7758"/>
</g>
<!-- Node69 -->
<g id="node38" class="node">
<title>Node69</title>
<g id="a_node38"><a xlink:href="numberformat_8hpp.html" target="_top" xlink:title="alib/strings/numberformat.hpp">
<polygon fill="#ffffff" stroke="#000000" points="0,-168.5 0,-187.5 146,-187.5 146,-168.5 0,-168.5"/>
<text text-anchor="middle" x="73" y="-175.5" font-family="Helvetica,sans-Serif" font-size="10.00" fill="#000000">alib/strings/numberformat.hpp</text>
</a>
</g>
</g>
<!-- Node60&#45;&gt;Node69 -->
<g id="edge39" class="edge">
<title>Node60&#45;&gt;Node69</title>
<path fill="none" stroke="#191970" d="M445.6783,-225.106C442.7464,-224.7319 439.8441,-224.362 437,-224 340.7438,-211.7476 230.1533,-197.7887 156.3718,-188.4926"/>
<polygon fill="#191970" stroke="#191970" points="156.5696,-184.99 146.2105,-187.2125 155.6946,-191.9351 156.5696,-184.99"/>
</g>
<!-- Node70 -->
<g id="node39" class="node">
<title>Node70</title>
<g id="a_node39"><a xlink:href="variable_8hpp.html" target="_top" xlink:title="alib/config/variable.hpp">
<polygon fill="#ffffff" stroke="#000000" points="225,-56.5 225,-75.5 341,-75.5 341,-56.5 225,-56.5"/>
<text text-anchor="middle" x="283" y="-63.5" font-family="Helvetica,sans-Serif" font-size="10.00" fill="#000000">alib/config/variable.hpp</text>
</a>
</g>
</g>
<!-- Node60&#45;&gt;Node70 -->
<g id="edge40" class="edge">
<title>Node60&#45;&gt;Node70</title>
<path fill="none" stroke="#191970" d="M445.6925,-224.6664C351.673,-211.9252 195.0697,-190.3863 193,-188 161.3634,-151.5226 221.2874,-104.6743 257.7914,-81.0514"/>
<polygon fill="#191970" stroke="#191970" points="259.9023,-83.8583 266.4975,-75.5664 256.1709,-77.9357 259.9023,-83.8583"/>
</g>
<!-- Node71 -->
<g id="node40" class="node">
<title>Node71</title>
<g id="a_node40"><a xlink:href="plugins_8hpp.html" target="_top" xlink:title="alib/config/plugins.hpp">
<polygon fill="#ffffff" stroke="#000000" points="252.5,-112.5 252.5,-131.5 365.5,-131.5 365.5,-112.5 252.5,-112.5"/>
<text text-anchor="middle" x="309" y="-119.5" font-family="Helvetica,sans-Serif" font-size="10.00" fill="#000000">alib/config/plugins.hpp</text>
</a>
</g>
</g>
<!-- Node60&#45;&gt;Node71 -->
<g id="edge41" class="edge">
<title>Node60&#45;&gt;Node71</title>
<path fill="none" stroke="#191970" d="M488.3314,-224.4464C465.8325,-215.9892 433.0616,-202.7277 406,-188 378.2286,-172.886 348.4723,-151.835 329.3487,-137.6037"/>
<polygon fill="#191970" stroke="#191970" points="331.4511,-134.8055 321.3558,-131.5907 327.2429,-140.3994 331.4511,-134.8055"/>
</g>
<!-- Node72 -->
<g id="node41" class="node">
<title>Node72</title>
<g id="a_node41"><a xlink:href="plugincontainer_8hpp.html" target="_top" xlink:title="alib/util/plugincontainer.hpp">
<polygon fill="#ffffff" stroke="#ff0000" points="448,-168.5 448,-187.5 582,-187.5 582,-168.5 448,-168.5"/>
<text text-anchor="middle" x="515" y="-175.5" font-family="Helvetica,sans-Serif" font-size="10.00" fill="#000000">alib/util/plugincontainer.hpp</text>
</a>
</g>
</g>
<!-- Node60&#45;&gt;Node72 -->
<g id="edge42" class="edge">
<title>Node60&#45;&gt;Node72</title>
<path fill="none" stroke="#191970" d="M515,-224.2455C515,-216.9382 515,-206.6944 515,-197.7046"/>
<polygon fill="#191970" stroke="#191970" points="518.5001,-197.6426 515,-187.6427 511.5001,-197.6427 518.5001,-197.6426"/>
</g>
<!-- Node74 -->
<g id="node42" class="node">
<title>Node74</title>
<g id="a_node42"><a xlink:href="inmemoryplugin_8hpp.html" target="_top" xlink:title="alib/config/inmemoryplugin.hpp">
<polygon fill="#ffffff" stroke="#ff0000" points="202.5,-168.5 202.5,-187.5 353.5,-187.5 353.5,-168.5 202.5,-168.5"/>
<text text-anchor="middle" x="278" y="-175.5" font-family="Helvetica,sans-Serif" font-size="10.00" fill="#000000">alib/config/inmemoryplugin.hpp</text>
</a>
</g>
</g>
<!-- Node60&#45;&gt;Node74 -->
<g id="edge43" class="edge">
<title>Node60&#45;&gt;Node74</title>
<path fill="none" stroke="#191970" d="M474.5275,-224.4369C434.052,-214.8731 371.7133,-200.1432 328.1297,-189.845"/>
<polygon fill="#191970" stroke="#191970" points="328.8424,-186.4171 318.3055,-187.5237 327.2327,-193.2295 328.8424,-186.4171"/>
</g>
<!-- Node76&#45;&gt;Node1 -->
<g id="edge52" class="edge">
<title>Node76&#45;&gt;Node1</title>
<path fill="none" stroke="#191970" d="M1141.2948,-299.5011C1120.0751,-308.6488 1085.2436,-322.5639 1058.0956,-332.7888"/>
<polygon fill="#191970" stroke="#191970" points="1056.6282,-329.6005 1048.4808,-336.3733 1059.0735,-336.1595 1056.6282,-329.6005"/>
</g>
<!-- Node77&#45;&gt;Node1 -->
<g id="edge53" class="edge">
<title>Node77&#45;&gt;Node1</title>
<path fill="none" stroke="#191970" d="M598.2334,-295.2611C604.4609,-296.9935 610.9683,-298.7851 617,-300 739.0932,-324.5913 884.4285,-336.9768 962.6533,-342.407"/>
<polygon fill="#191970" stroke="#191970" points="962.5608,-345.9088 972.7756,-343.0969 963.0368,-338.925 962.5608,-345.9088"/>
</g>
<!-- Node77&#45;&gt;Node60 -->
<g id="edge55" class="edge">
<title>Node77&#45;&gt;Node60</title>
<path fill="none" stroke="#191970" d="M563.723,-280.2455C555.1782,-272.1352 542.8222,-260.4075 532.6915,-250.7919"/>
<polygon fill="#191970" stroke="#191970" points="534.8218,-247.9884 525.1592,-243.6427 530.0028,-253.0655 534.8218,-247.9884"/>
</g>
<!-- Node29 -->
<g id="node35" class="node">
<title>Node29</title>
<polygon fill="#ffffff" stroke="#bfbfbf" points="1062.5,-168.5 1062.5,-187.5 1097.5,-187.5 1097.5,-168.5 1062.5,-168.5"/>
<text text-anchor="middle" x="1080" y="-175.5" font-family="Helvetica,sans-Serif" font-size="10.00" fill="#000000">map</text>
</g>
<!-- Node77&#45;&gt;Node29 -->
<g id="edge54" class="edge">
<title>Node77&#45;&gt;Node29</title>
<path fill="none" stroke="#191970" d="M592.8437,-280.4397C628.0982,-262.5828 701.0285,-225.7928 707,-224 771.9231,-204.508 977.1777,-186.3538 1052.1957,-180.2065"/>
<polygon fill="#191970" stroke="#191970" points="1052.6025,-183.6851 1062.2867,-179.3879 1052.0364,-176.708 1052.6025,-183.6851"/>
</g>
<!-- Node78 -->
<g id="node43" class="node">
<title>Node78</title>
<g id="a_node43"><a xlink:href="smartlock_8hpp.html" target="_top" xlink:title="alib/threads/smartlock.hpp">
<polygon fill="#ffffff" stroke="#ff0000" points="638.5,-168.5 638.5,-187.5 769.5,-187.5 769.5,-168.5 638.5,-168.5"/>
<text text-anchor="middle" x="704" y="-175.5" font-family="Helvetica,sans-Serif" font-size="10.00" fill="#000000">alib/threads/smartlock.hpp</text>
</a>
</g>
</g>
<!-- Node77&#45;&gt;Node78 -->
<g id="edge56" class="edge">
<title>Node77&#45;&gt;Node78</title>
<path fill="none" stroke="#191970" d="M581.8277,-280.4071C593.0458,-266.968 614.7,-242.1492 636,-224 649.3983,-212.5836 665.695,-201.4766 678.9755,-193.0375"/>
<polygon fill="#191970" stroke="#191970" points="680.9815,-195.9114 687.615,-187.6502 677.2776,-189.9715 680.9815,-195.9114"/>
</g>
<!-- Node79 -->
<g id="node44" class="node">
<title>Node79</title>
<g id="a_node44"><a xlink:href="tokenizer_8hpp.html" target="_top" xlink:title="alib/strings/util/tokenizer.hpp">
<polygon fill="#ffffff" stroke="#000000" points="693,-112.5 693,-131.5 833,-131.5 833,-112.5 693,-112.5"/>
<text text-anchor="middle" x="763" y="-119.5" font-family="Helvetica,sans-Serif" font-size="10.00" fill="#000000">alib/strings/util/tokenizer.hpp</text>
</a>
</g>
</g>
<!-- Node77&#45;&gt;Node79 -->
<g id="edge57" class="edge">
<title>Node77&#45;&gt;Node79</title>
<path fill="none" stroke="#191970" d="M586.9109,-280.448C611.2992,-262.4159 661.9033,-225.0599 664,-224 711.7965,-199.8373 747.287,-231.1582 779,-188 789.0969,-174.2592 782.6789,-154.9794 775.1835,-140.8045"/>
<polygon fill="#191970" stroke="#191970" points="778.0734,-138.8123 770.0119,-131.9375 772.0267,-142.3391 778.0734,-138.8123"/>
</g>
<!-- Node80 -->
<g id="node45" class="node">
<title>Node80</title>
<g id="a_node45"><a xlink:href="scopeinfo_8hpp.html" target="_top" xlink:title="alib/alox/core/scopeinfo.hpp">
<polygon fill="#ffffff" stroke="#ff0000" points="862,-224.5 862,-243.5 1000,-243.5 1000,-224.5 862,-224.5"/>
<text text-anchor="middle" x="931" y="-231.5" font-family="Helvetica,sans-Serif" font-size="10.00" fill="#000000">alib/alox/core/scopeinfo.hpp</text>
</a>
</g>
</g>
<!-- Node77&#45;&gt;Node80 -->
<g id="edge58" class="edge">
<title>Node77&#45;&gt;Node80</title>
<path fill="none" stroke="#191970" d="M598.035,-282.4636C601.3632,-281.5572 604.7531,-280.7048 608,-280 631.3183,-274.9382 763.8826,-256.61 851.7729,-244.673"/>
<polygon fill="#191970" stroke="#191970" points="852.2882,-248.1353 861.7268,-243.3225 851.347,-241.1988 852.2882,-248.1353"/>
</g>
<!-- Node89 -->
<g id="node46" class="node">
<title>Node89</title>
<g id="a_node46"><a xlink:href="logger_8hpp.html" target="_top" xlink:title="alib/alox/core/logger.hpp">
<polygon fill="#ffffff" stroke="#ff0000" points="1018,-224.5 1018,-243.5 1140,-243.5 1140,-224.5 1018,-224.5"/>
<text text-anchor="middle" x="1079" y="-231.5" font-family="Helvetica,sans-Serif" font-size="10.00" fill="#000000">alib/alox/core/logger.hpp</text>
</a>
</g>
</g>
<!-- Node77&#45;&gt;Node89 -->
<g id="edge59" class="edge">
<title>Node77&#45;&gt;Node89</title>
<path fill="none" stroke="#191970" d="M598.0029,-282.3057C601.336,-281.4238 604.7359,-280.6203 608,-280 780.617,-247.1971 829.5008,-264.024 1007.9577,-244.0548"/>
<polygon fill="#191970" stroke="#191970" points="1008.4028,-247.5268 1017.941,-242.9147 1007.6085,-240.572 1008.4028,-247.5268"/>
</g>
<!-- Node90 -->
<g id="node47" class="node">
<title>Node90</title>
<g id="a_node47"><a xlink:href="domain_8hpp.html" target="_top" xlink:title="alib/alox/core/domain.hpp">
<polygon fill="#ffffff" stroke="#ff0000" points="716,-224.5 716,-243.5 844,-243.5 844,-224.5 716,-224.5"/>
<text text-anchor="middle" x="780" y="-231.5" font-family="Helvetica,sans-Serif" font-size="10.00" fill="#000000">alib/alox/core/domain.hpp</text>
</a>
</g>
</g>
<!-- Node77&#45;&gt;Node90 -->
<g id="edge60" class="edge">
<title>Node77&#45;&gt;Node90</title>
<path fill="none" stroke="#191970" d="M598.1248,-282.8245C601.439,-281.8621 604.8012,-280.898 608,-280 650.3901,-268.0997 698.8569,-255.2012 733.5148,-246.0995"/>
<polygon fill="#191970" stroke="#191970" points="734.5699,-249.4412 743.3555,-243.5197 732.7948,-242.67 734.5699,-249.4412"/>
</g>
<!-- Node91 -->
<g id="node48" class="node">
<title>Node91</title>
<g id="a_node48"><a xlink:href="scopestore_8hpp.html" target="_top" xlink:title="alib/alox/core/scopestore.hpp">
<polygon fill="#ffffff" stroke="#ff0000" points="284,-224.5 284,-243.5 428,-243.5 428,-224.5 284,-224.5"/>
<text text-anchor="middle" x="356" y="-231.5" font-family="Helvetica,sans-Serif" font-size="10.00" fill="#000000">alib/alox/core/scopestore.hpp</text>
</a>
</g>
</g>
<!-- Node77&#45;&gt;Node91 -->
<g id="edge61" class="edge">
<title>Node77&#45;&gt;Node91</title>
<path fill="none" stroke="#191970" d="M549.8373,-283.7931C514.4867,-274.7122 447.9802,-257.6279 402.8392,-246.0321"/>
<polygon fill="#191970" stroke="#191970" points="403.5429,-242.5993 392.9865,-243.5011 401.8012,-249.3792 403.5429,-242.5993"/>
</g>
<!-- Node28&#45;&gt;Node29 -->
<g id="edge34" class="edge">
<title>Node28&#45;&gt;Node29</title>
<path fill="none" stroke="#191970" d="M2068.4396,-225.0122C2065.2502,-224.6402 2062.088,-224.2989 2059,-224 1683.6924,-187.6767 1224.5591,-179.77 1107.9488,-178.3009"/>
<polygon fill="#191970" stroke="#191970" points="1107.789,-174.7989 1097.7475,-178.1781 1107.7047,-181.7984 1107.789,-174.7989"/>
</g>
<!-- Node49&#45;&gt;Node29 -->
<g id="edge35" class="edge">
<title>Node49&#45;&gt;Node29</title>
<path fill="none" stroke="#191970" d="M1202.5579,-224.3733C1176.0288,-214.3352 1134.5924,-198.6566 1107.3678,-188.3554"/>
<polygon fill="#191970" stroke="#191970" points="1108.2819,-184.9591 1097.6903,-184.6936 1105.8046,-191.5061 1108.2819,-184.9591"/>
</g>
<!-- Node68&#45;&gt;Node47 -->
<g id="edge44" class="edge">
<title>Node68&#45;&gt;Node47</title>
<path fill="none" stroke="#191970" d="M467.254,-56.4369C512.7973,-46.8127 583.0965,-31.957 631.8686,-21.6504"/>
<polygon fill="#191970" stroke="#191970" points="632.8724,-25.0157 641.9326,-19.5237 631.425,-18.1669 632.8724,-25.0157"/>
</g>
<!-- Node70&#45;&gt;Node50 -->
<g id="edge45" class="edge">
<title>Node70&#45;&gt;Node50</title>
<path fill="none" stroke="#191970" d="M320.4755,-56.3733C357.5103,-46.8598 414.2682,-32.2797 454.2361,-22.0127"/>
<polygon fill="#191970" stroke="#191970" points="455.1988,-25.3792 464.0135,-19.5011 453.4571,-18.5993 455.1988,-25.3792"/>
</g>
<!-- Node71&#45;&gt;Node68 -->
<g id="edge46" class="edge">
<title>Node71&#45;&gt;Node68</title>
<path fill="none" stroke="#191970" d="M328.4254,-112.3733C346.4021,-103.4644 373.3441,-90.1127 393.709,-80.0203"/>
<polygon fill="#191970" stroke="#191970" points="395.4222,-83.0776 402.8281,-75.5011 392.3139,-76.8055 395.4222,-83.0776"/>
</g>
<!-- Node71&#45;&gt;Node70 -->
<g id="edge47" class="edge">
<title>Node71&#45;&gt;Node70</title>
<path fill="none" stroke="#191970" d="M304.4711,-112.2455C300.9666,-104.6973 296.0073,-94.0158 291.7377,-84.8197"/>
<polygon fill="#191970" stroke="#191970" points="294.8627,-83.2389 287.477,-75.6427 288.5136,-86.1867 294.8627,-83.2389"/>
</g>
<!-- Node72&#45;&gt;Node47 -->
<g id="edge48" class="edge">
<title>Node72&#45;&gt;Node47</title>
<path fill="none" stroke="#191970" d="M515.3626,-168.125C516.3194,-154.3507 519.7551,-129.1362 532,-112 562.5577,-69.236 617.126,-39.5496 652.6862,-23.642"/>
<polygon fill="#191970" stroke="#191970" points="654.3976,-26.7146 662.1762,-19.5212 651.6095,-20.2938 654.3976,-26.7146"/>
</g>
<!-- Node72&#45;&gt;Node61 -->
<g id="edge49" class="edge">
<title>Node72&#45;&gt;Node61</title>
<path fill="none" stroke="#191970" d="M531.1994,-168.2455C545.6018,-159.5731 566.8732,-146.7645 583.3799,-136.825"/>
<polygon fill="#191970" stroke="#191970" points="585.225,-139.7996 591.9863,-131.6427 581.614,-133.8028 585.225,-139.7996"/>
</g>
<!-- Node72&#45;&gt;Node68 -->
<g id="edge50" class="edge">
<title>Node72&#45;&gt;Node68</title>
<path fill="none" stroke="#191970" d="M507.0709,-168.4509C491.4223,-149.6054 456.3642,-107.3849 436.483,-83.4419"/>
<polygon fill="#191970" stroke="#191970" points="438.9901,-80.9824 429.9091,-75.5249 433.6047,-85.4543 438.9901,-80.9824"/>
</g>
<!-- Node74&#45;&gt;Node71 -->
<g id="edge51" class="edge">
<title>Node74&#45;&gt;Node71</title>
<path fill="none" stroke="#191970" d="M283.3998,-168.2455C287.6227,-160.617 293.6173,-149.7881 298.7441,-140.5267"/>
<polygon fill="#191970" stroke="#191970" points="301.881,-142.0867 303.6621,-131.6427 295.7568,-138.6965 301.881,-142.0867"/>
</g>
<!-- Node78&#45;&gt;Node61 -->
<g id="edge62" class="edge">
<title>Node78&#45;&gt;Node61</title>
<path fill="none" stroke="#191970" d="M687.2781,-168.2455C672.4111,-159.5731 650.4534,-146.7645 633.4142,-136.825"/>
<polygon fill="#191970" stroke="#191970" points="634.9317,-133.6582 624.5303,-131.6427 631.4045,-139.7047 634.9317,-133.6582"/>
</g>
<!-- Node79&#45;&gt;Node68 -->
<g id="edge63" class="edge">
<title>Node79&#45;&gt;Node68</title>
<path fill="none" stroke="#191970" d="M704.7675,-112.4369C645.3045,-102.6717 553.0459,-87.5207 490.2035,-77.2006"/>
<polygon fill="#191970" stroke="#191970" points="490.4274,-73.6905 479.9924,-75.5237 489.293,-80.598 490.4274,-73.6905"/>
</g>
<!-- Node80&#45;&gt;Node1 -->
<g id="edge64" class="edge">
<title>Node80&#45;&gt;Node1</title>
<path fill="none" stroke="#191970" d="M997.7008,-243.5415C1073.2234,-254.6656 1186.6892,-272.4846 1193,-280 1228.524,-322.3044 1138.9765,-337.5406 1075.5802,-342.9946"/>
<polygon fill="#191970" stroke="#191970" points="1074.9517,-339.5335 1065.2617,-343.8175 1075.5083,-346.5114 1074.9517,-339.5335"/>
</g>
<!-- Node80&#45;&gt;Node29 -->
<g id="edge65" class="edge">
<title>Node80&#45;&gt;Node29</title>
<path fill="none" stroke="#191970" d="M956.614,-224.3733C983.44,-214.291 1025.4066,-198.5183 1052.8086,-188.2196"/>
<polygon fill="#191970" stroke="#191970" points="1054.0608,-191.4881 1062.1901,-184.6936 1051.598,-184.9356 1054.0608,-191.4881"/>
</g>
<!-- Node89&#45;&gt;Node1 -->
<g id="edge66" class="edge">
<title>Node89&#45;&gt;Node1</title>
<path fill="none" stroke="#191970" d="M1083.947,-243.5912C1090.1336,-257.0282 1098.7939,-281.8446 1089,-300 1081.427,-314.0383 1067.4927,-324.4916 1054.0386,-331.8547"/>
<polygon fill="#191970" stroke="#191970" points="1052.242,-328.8407 1044.885,-336.4647 1055.3906,-335.0926 1052.242,-328.8407"/>
</g>
<!-- Node90&#45;&gt;Node1 -->
<g id="edge67" class="edge">
<title>Node90&#45;&gt;Node1</title>
<path fill="none" stroke="#191970" d="M780.0202,-243.6657C780.6036,-258.1303 783.9348,-285.2779 800,-300 823.3242,-321.3742 905.6075,-334.1701 962.3921,-340.6517"/>
<polygon fill="#191970" stroke="#191970" points="962.3542,-344.1688 972.6783,-341.7892 963.1236,-337.2112 962.3542,-344.1688"/>
</g>
<!-- Node91&#45;&gt;Node1 -->
<g id="edge68" class="edge">
<title>Node91&#45;&gt;Node1</title>
<path fill="none" stroke="#191970" d="M374.7166,-243.5716C404.7158,-258.4285 465.809,-286.7097 521,-300 603.5742,-319.8844 850.7914,-336.2424 962.7751,-342.8506"/>
<polygon fill="#191970" stroke="#191970" points="962.671,-346.3504 972.8585,-343.4408 963.0801,-339.3624 962.671,-346.3504"/>
</g>
<!-- Node94&#45;&gt;Node1 -->
<g id="edge71" class="edge">
<title>Node94&#45;&gt;Node1</title>
<path fill="none" stroke="#191970" d="M1195.384,-392.3733C1159.352,-382.9001 1104.2122,-368.4032 1065.1886,-358.1435"/>
<polygon fill="#191970" stroke="#191970" points="1065.6995,-354.6589 1055.1382,-355.5011 1063.9196,-361.4289 1065.6995,-354.6589"/>
</g>
<!-- Node94&#45;&gt;Node89 -->
<g id="edge72" class="edge">
<title>Node94&#45;&gt;Node89</title>
<path fill="none" stroke="#191970" d="M1233.3374,-392.4263C1235.9155,-369.9328 1239.0664,-313.1217 1211,-280 1200.1586,-267.2059 1162.5521,-254.8193 1130.2388,-246.129"/>
<polygon fill="#191970" stroke="#191970" points="1130.9766,-242.7042 1120.416,-243.5543 1129.2018,-249.4754 1130.9766,-242.7042"/>
</g>
<!-- Node95 -->
<g id="node50" class="node">
<title>Node95</title>
<g id="a_node50"><a xlink:href="calendar_8hpp.html" target="_top" xlink:title="alib/time/calendar.hpp">
<polygon fill="#ffffff" stroke="#ff0000" points="1278.5,-336.5 1278.5,-355.5 1389.5,-355.5 1389.5,-336.5 1278.5,-336.5"/>
<text text-anchor="middle" x="1334" y="-343.5" font-family="Helvetica,sans-Serif" font-size="10.00" fill="#000000">alib/time/calendar.hpp</text>
</a>
</g>
</g>
<!-- Node94&#45;&gt;Node95 -->
<g id="edge73" class="edge">
<title>Node94&#45;&gt;Node95</title>
<path fill="none" stroke="#191970" d="M1249.767,-392.2455C1265.7095,-383.4928 1289.3259,-370.527 1307.4989,-360.5496"/>
<polygon fill="#191970" stroke="#191970" points="1309.3552,-363.5233 1316.4366,-355.6427 1305.9863,-357.3873 1309.3552,-363.5233"/>
</g>
</g>
</svg>
