<?xml version="1.0" encoding="UTF-8" standalone="no"?>
<!DOCTYPE svg PUBLIC "-//W3C//DTD SVG 1.1//EN"
 "http://www.w3.org/Graphics/SVG/1.1/DTD/svg11.dtd">
<!-- Generated by graphviz version 2.40.1 (20161225.0304)
 -->
<!-- Title: numberformat.hpp Pages: 1 -->
<svg width="1423pt" height="420pt"
 viewBox="0.00 0.00 1423.00 420.00" xmlns="http://www.w3.org/2000/svg" xmlns:xlink="http://www.w3.org/1999/xlink">
<g id="graph0" class="graph" transform="scale(1 1) rotate(0) translate(4 416)">
<title>numberformat.hpp</title>
<polygon fill="#ffffff" stroke="transparent" points="-4,4 -4,-416 1419,-416 1419,4 -4,4"/>
<!-- Node1 -->
<g id="node1" class="node">
<title>Node1</title>
<polygon fill="#bfbfbf" stroke="#000000" points="765.5,-392.5 765.5,-411.5 860.5,-411.5 860.5,-392.5 765.5,-392.5"/>
<text text-anchor="middle" x="813" y="-399.5" font-family="Helvetica,sans-Serif" font-size="10.00" fill="#000000">numberformat.hpp</text>
</g>
<!-- Node2 -->
<g id="node2" class="node">
<title>Node2</title>
<g id="a_node2"><a xlink:href="configuration_8hpp.html" target="_top" xlink:title="configuration.hpp">
<polygon fill="#ffffff" stroke="#000000" points="717.5,-336.5 717.5,-355.5 808.5,-355.5 808.5,-336.5 717.5,-336.5"/>
<text text-anchor="middle" x="763" y="-343.5" font-family="Helvetica,sans-Serif" font-size="10.00" fill="#000000">configuration.hpp</text>
</a>
</g>
</g>
<!-- Node1&#45;&gt;Node2 -->
<g id="edge1" class="edge">
<title>Node1&#45;&gt;Node2</title>
<path fill="none" stroke="#191970" d="M797.3753,-384.5004C788.8727,-374.9775 778.6782,-363.5596 771.6095,-355.6427"/>
<polygon fill="#191970" stroke="#191970" points="795.0197,-387.1172 804.2907,-392.2455 800.2413,-382.4551 795.0197,-387.1172"/>
</g>
<!-- Node30 -->
<g id="node3" class="node">
<title>Node30</title>
<g id="a_node3"><a xlink:href="formatter_8hpp.html" target="_top" xlink:title="formatter.hpp">
<polygon fill="#ffffff" stroke="#000000" points="961,-336.5 961,-355.5 1035,-355.5 1035,-336.5 961,-336.5"/>
<text text-anchor="middle" x="998" y="-343.5" font-family="Helvetica,sans-Serif" font-size="10.00" fill="#000000">formatter.hpp</text>
</a>
</g>
</g>
<!-- Node1&#45;&gt;Node30 -->
<g id="edge2" class="edge">
<title>Node1&#45;&gt;Node30</title>
<path fill="none" stroke="#191970" d="M854.4397,-389.4561C888.3991,-379.1765 935.7297,-364.8494 966.6124,-355.5011"/>
<polygon fill="#191970" stroke="#191970" points="853.3597,-386.1261 844.8026,-392.3733 855.3878,-392.8259 853.3597,-386.1261"/>
</g>
<!-- Node3 -->
<g id="node4" class="node">
<title>Node3</title>
<g id="a_node4"><a xlink:href="alox_2alox_8hpp.html" target="_top" xlink:title="alox.hpp">
<polygon fill="#ffffff" stroke="#000000" points="467.5,-280.5 467.5,-299.5 520.5,-299.5 520.5,-280.5 467.5,-280.5"/>
<text text-anchor="middle" x="494" y="-287.5" font-family="Helvetica,sans-Serif" font-size="10.00" fill="#000000">alox.hpp</text>
</a>
</g>
</g>
<!-- Node2&#45;&gt;Node3 -->
<g id="edge3" class="edge">
<title>Node2&#45;&gt;Node3</title>
<path fill="none" stroke="#191970" d="M707.4165,-334.4287C650.3195,-322.5423 563.8648,-304.5443 520.6119,-295.54"/>
<polygon fill="#191970" stroke="#191970" points="706.8643,-337.8887 717.3678,-336.5004 708.2911,-331.0357 706.8643,-337.8887"/>
</g>
<!-- Node5 -->
<g id="node5" class="node">
<title>Node5</title>
<g id="a_node5"><a xlink:href="lox_8hpp.html" target="_top" xlink:title="lox.hpp">
<polygon fill="#ffffff" stroke="#000000" points="247,-168.5 247,-187.5 295,-187.5 295,-168.5 247,-168.5"/>
<text text-anchor="middle" x="271" y="-175.5" font-family="Helvetica,sans-Serif" font-size="10.00" fill="#000000">lox.hpp</text>
</a>
</g>
</g>
<!-- Node2&#45;&gt;Node5 -->
<g id="edge4" class="edge">
<title>Node2&#45;&gt;Node5</title>
<path fill="none" stroke="#191970" d="M707.0037,-341.9482C549.0768,-329.9573 108.8572,-292.4385 67,-244 61.1881,-237.2743 61.4488,-230.9424 67,-224 89.2767,-196.1408 197.5471,-183.9477 246.6726,-179.7848"/>
<polygon fill="#191970" stroke="#191970" points="707.1997,-345.4728 717.4344,-342.7341 707.7257,-338.4926 707.1997,-345.4728"/>
</g>
<!-- Node21 -->
<g id="node6" class="node">
<title>Node21</title>
<g id="a_node6"><a xlink:href="compiler_8hpp_source.html" target="_top" xlink:title="compiler.hpp">
<polygon fill="#ffffff" stroke="#000000" points="1264.5,-280.5 1264.5,-299.5 1335.5,-299.5 1335.5,-280.5 1264.5,-280.5"/>
<text text-anchor="middle" x="1300" y="-287.5" font-family="Helvetica,sans-Serif" font-size="10.00" fill="#000000">compiler.hpp</text>
</a>
</g>
</g>
<!-- Node2&#45;&gt;Node21 -->
<g id="edge5" class="edge">
<title>Node2&#45;&gt;Node21</title>
<path fill="none" stroke="#191970" d="M819.0624,-340.1536C929.6539,-328.6208 1173.0968,-303.2339 1264.4412,-293.7082"/>
<polygon fill="#191970" stroke="#191970" points="818.3673,-336.7071 808.7843,-341.2255 819.0934,-343.6693 818.3673,-336.7071"/>
</g>
<!-- Node31 -->
<g id="node24" class="node">
<title>Node31</title>
<g id="a_node24"><a xlink:href="formatterstdimpl_8hpp.html" target="_top" xlink:title="formatterstdimpl.hpp">
<polygon fill="#ffffff" stroke="#000000" points="1045,-280.5 1045,-299.5 1151,-299.5 1151,-280.5 1045,-280.5"/>
<text text-anchor="middle" x="1098" y="-287.5" font-family="Helvetica,sans-Serif" font-size="10.00" fill="#000000">formatterstdimpl.hpp</text>
</a>
</g>
</g>
<!-- Node30&#45;&gt;Node31 -->
<g id="edge43" class="edge">
<title>Node30&#45;&gt;Node31</title>
<path fill="none" stroke="#191970" d="M1024.2098,-331.3225C1042.0717,-321.3198 1065.2155,-308.3593 1080.7809,-299.6427"/>
<polygon fill="#191970" stroke="#191970" points="1022.4336,-328.3057 1015.4187,-336.2455 1025.8539,-334.4132 1022.4336,-328.3057"/>
</g>
<!-- Node3&#45;&gt;Node5 -->
<g id="edge7" class="edge">
<title>Node3&#45;&gt;Node5</title>
<path fill="none" stroke="#191970" d="M457.2045,-288.8667C358.0155,-285.2763 91.6826,-272.6565 66,-244 60.0675,-237.3805 60.4792,-230.9665 66,-224 87.9258,-196.3326 197.2834,-183.6873 246.8646,-179.5836"/>
<polygon fill="#191970" stroke="#191970" points="457.2448,-292.3701 467.3616,-289.2235 457.4907,-285.3744 457.2448,-292.3701"/>
</g>
<!-- Node4 -->
<g id="node7" class="node">
<title>Node4</title>
<g id="a_node7"><a xlink:href="log_8hpp.html" target="_top" xlink:title="log.hpp">
<polygon fill="#ffffff" stroke="#000000" points="84,-224.5 84,-243.5 132,-243.5 132,-224.5 84,-224.5"/>
<text text-anchor="middle" x="108" y="-231.5" font-family="Helvetica,sans-Serif" font-size="10.00" fill="#000000">log.hpp</text>
</a>
</g>
</g>
<!-- Node3&#45;&gt;Node4 -->
<g id="edge6" class="edge">
<title>Node3&#45;&gt;Node4</title>
<path fill="none" stroke="#191970" d="M457.1658,-287.6278C391.0803,-282.5923 249.0439,-269.1806 132,-244 131.2977,-243.8489 130.5887,-243.69 129.8762,-243.5244"/>
<polygon fill="#191970" stroke="#191970" points="457.248,-291.1434 467.4792,-288.3915 457.765,-284.1625 457.248,-291.1434"/>
</g>
<!-- Node6 -->
<g id="node8" class="node">
<title>Node6</title>
<g id="a_node8"><a xlink:href="domain_8hpp.html" target="_top" xlink:title="domain.hpp">
<polygon fill="#ffffff" stroke="#000000" points="237.5,-224.5 237.5,-243.5 304.5,-243.5 304.5,-224.5 237.5,-224.5"/>
<text text-anchor="middle" x="271" y="-231.5" font-family="Helvetica,sans-Serif" font-size="10.00" fill="#000000">domain.hpp</text>
</a>
</g>
</g>
<!-- Node3&#45;&gt;Node6 -->
<g id="edge8" class="edge">
<title>Node3&#45;&gt;Node6</title>
<path fill="none" stroke="#191970" d="M457.1763,-280.7528C414.7251,-270.0924 345.546,-252.7201 304.5362,-242.4216"/>
<polygon fill="#191970" stroke="#191970" points="456.5496,-284.204 467.101,-283.2451 458.2546,-277.4148 456.5496,-284.204"/>
</g>
<!-- Node7 -->
<g id="node9" class="node">
<title>Node7</title>
<g id="a_node9"><a xlink:href="logger_8hpp.html" target="_top" xlink:title="logger.hpp">
<polygon fill="#ffffff" stroke="#000000" points="557.5,-224.5 557.5,-243.5 618.5,-243.5 618.5,-224.5 557.5,-224.5"/>
<text text-anchor="middle" x="588" y="-231.5" font-family="Helvetica,sans-Serif" font-size="10.00" fill="#000000">logger.hpp</text>
</a>
</g>
</g>
<!-- Node3&#45;&gt;Node7 -->
<g id="edge9" class="edge">
<title>Node3&#45;&gt;Node7</title>
<path fill="none" stroke="#191970" d="M519.1005,-275.0465C535.826,-265.0824 557.3168,-252.2794 571.8141,-243.6427"/>
<polygon fill="#191970" stroke="#191970" points="517.1732,-272.1206 510.3736,-280.2455 520.7559,-278.1343 517.1732,-272.1206"/>
</g>
<!-- Node8 -->
<g id="node10" class="node">
<title>Node8</title>
<g id="a_node10"><a xlink:href="textlogger_8hpp.html" target="_top" xlink:title="textlogger.hpp">
<polygon fill="#ffffff" stroke="#000000" points="827.5,-168.5 827.5,-187.5 904.5,-187.5 904.5,-168.5 827.5,-168.5"/>
<text text-anchor="middle" x="866" y="-175.5" font-family="Helvetica,sans-Serif" font-size="10.00" fill="#000000">textlogger.hpp</text>
</a>
</g>
</g>
<!-- Node3&#45;&gt;Node8 -->
<g id="edge10" class="edge">
<title>Node3&#45;&gt;Node8</title>
<path fill="none" stroke="#191970" d="M530.6565,-288.075C603.9041,-283.6906 765.4098,-271.167 813,-244 836.4829,-230.5947 853.589,-202.3638 861.3537,-187.5443"/>
<polygon fill="#191970" stroke="#191970" points="530.2944,-284.59 520.514,-288.6636 530.7,-291.5783 530.2944,-284.59"/>
</g>
<!-- Node9 -->
<g id="node11" class="node">
<title>Node9</title>
<g id="a_node11"><a xlink:href="plaintextlogger_8hpp.html" target="_top" xlink:title="plaintextlogger.hpp">
<polygon fill="#ffffff" stroke="#000000" points="597,-112.5 597,-131.5 695,-131.5 695,-112.5 597,-112.5"/>
<text text-anchor="middle" x="646" y="-119.5" font-family="Helvetica,sans-Serif" font-size="10.00" fill="#000000">plaintextlogger.hpp</text>
</a>
</g>
</g>
<!-- Node3&#45;&gt;Node9 -->
<g id="edge11" class="edge">
<title>Node3&#45;&gt;Node9</title>
<path fill="none" stroke="#191970" d="M530.9283,-285.0604C575.1695,-278.2973 645.3098,-264.5964 661,-244 686.9929,-209.8793 662.9218,-154.1294 651.3789,-131.7493"/>
<polygon fill="#191970" stroke="#191970" points="530.2096,-281.6285 520.8288,-286.5531 531.2332,-288.5532 530.2096,-281.6285"/>
</g>
<!-- Node10 -->
<g id="node12" class="node">
<title>Node10</title>
<g id="a_node12"><a xlink:href="consolelogger_8hpp.html" target="_top" xlink:title="consolelogger.hpp">
<polygon fill="#ffffff" stroke="#000000" points="400.5,-56.5 400.5,-75.5 495.5,-75.5 495.5,-56.5 400.5,-56.5"/>
<text text-anchor="middle" x="448" y="-63.5" font-family="Helvetica,sans-Serif" font-size="10.00" fill="#000000">consolelogger.hpp</text>
</a>
</g>
</g>
<!-- Node3&#45;&gt;Node10 -->
<g id="edge12" class="edge">
<title>Node3&#45;&gt;Node10</title>
<path fill="none" stroke="#191970" d="M457.218,-288.7933C358.4069,-285.1756 92.8964,-272.836 67,-244 -33.9784,-131.5591 277.4511,-84.5756 400.3697,-70.7091"/>
<polygon fill="#191970" stroke="#191970" points="457.2171,-292.2954 467.3356,-289.1544 457.4668,-285.2999 457.2171,-292.2954"/>
</g>
<!-- Node11 -->
<g id="node13" class="node">
<title>Node11</title>
<g id="a_node13"><a xlink:href="alox_8hpp_source.html" target="_top" xlink:title="alox.hpp">
<polygon fill="#ffffff" stroke="#000000" points="533.5,-.5 533.5,-19.5 586.5,-19.5 586.5,-.5 533.5,-.5"/>
<text text-anchor="middle" x="560" y="-7.5" font-family="Helvetica,sans-Serif" font-size="10.00" fill="#000000">alox.hpp</text>
</a>
</g>
</g>
<!-- Node3&#45;&gt;Node11 -->
<g id="edge13" class="edge">
<title>Node3&#45;&gt;Node11</title>
<path fill="none" stroke="#191970" d="M457.3512,-289.1248C366.9874,-286.4822 135.8609,-276.6371 67,-244 29.2286,-226.098 0,-219.799 0,-178 0,-178 0,-178 0,-122 0,-66.9111 422.077,-23.0592 533.3668,-12.4542"/>
<polygon fill="#191970" stroke="#191970" points="457.31,-292.6249 467.404,-289.4058 457.5057,-285.6277 457.31,-292.6249"/>
</g>
<!-- Node12 -->
<g id="node14" class="node">
<title>Node12</title>
<g id="a_node14"><a xlink:href="memorylogger_8hpp.html" target="_top" xlink:title="memorylogger.hpp">
<polygon fill="#ffffff" stroke="#000000" points="624,-56.5 624,-75.5 720,-75.5 720,-56.5 624,-56.5"/>
<text text-anchor="middle" x="672" y="-63.5" font-family="Helvetica,sans-Serif" font-size="10.00" fill="#000000">memorylogger.hpp</text>
</a>
</g>
</g>
<!-- Node3&#45;&gt;Node12 -->
<g id="edge14" class="edge">
<title>Node3&#45;&gt;Node12</title>
<path fill="none" stroke="#191970" d="M530.5026,-285.4986C578.3476,-278.854 658.5923,-264.9054 679,-244 720.7094,-201.2734 721.8678,-168.9735 704,-112 699.575,-97.8904 689.1234,-84.3192 681.3618,-75.6212"/>
<polygon fill="#191970" stroke="#191970" points="529.9731,-282.0382 520.5305,-286.8431 530.9085,-288.9754 529.9731,-282.0382"/>
</g>
<!-- Node13 -->
<g id="node15" class="node">
<title>Node13</title>
<g id="a_node15"><a xlink:href="textfilelogger_8hpp.html" target="_top" xlink:title="textfilelogger.hpp">
<polygon fill="#ffffff" stroke="#000000" points="738,-56.5 738,-75.5 828,-75.5 828,-56.5 738,-56.5"/>
<text text-anchor="middle" x="783" y="-63.5" font-family="Helvetica,sans-Serif" font-size="10.00" fill="#000000">textfilelogger.hpp</text>
</a>
</g>
</g>
<!-- Node3&#45;&gt;Node13 -->
<g id="edge15" class="edge">
<title>Node3&#45;&gt;Node13</title>
<path fill="none" stroke="#191970" d="M530.9526,-285.6958C583.1492,-278.9745 675.0186,-264.5882 701,-244 757.8002,-198.9903 776.848,-105.6544 781.6443,-75.5693"/>
<polygon fill="#191970" stroke="#191970" points="530.2499,-282.2565 520.764,-286.9753 531.1222,-289.2019 530.2499,-282.2565"/>
</g>
<!-- Node14 -->
<g id="node16" class="node">
<title>Node14</title>
<g id="a_node16"><a xlink:href="vstudiologger_8hpp.html" target="_top" xlink:title="vstudiologger.hpp">
<polygon fill="#ffffff" stroke="#000000" points="514,-56.5 514,-75.5 606,-75.5 606,-56.5 514,-56.5"/>
<text text-anchor="middle" x="560" y="-63.5" font-family="Helvetica,sans-Serif" font-size="10.00" fill="#000000">vstudiologger.hpp</text>
</a>
</g>
</g>
<!-- Node3&#45;&gt;Node14 -->
<g id="edge16" class="edge">
<title>Node3&#45;&gt;Node14</title>
<path fill="none" stroke="#191970" d="M530.8459,-282.3697C566.3999,-274.1709 616.4875,-260.124 628,-244 647.1946,-217.1167 627.4022,-223.7393 588,-132 579.453,-112.1003 569.5893,-88.7614 564.1473,-75.8516"/>
<polygon fill="#191970" stroke="#191970" points="529.7853,-279.0205 520.793,-284.6231 531.3164,-285.851 529.7853,-279.0205"/>
</g>
<!-- Node15 -->
<g id="node17" class="node">
<title>Node15</title>
<g id="a_node17"><a xlink:href="ansilogger_8hpp.html" target="_top" xlink:title="ansilogger.hpp">
<polygon fill="#ffffff" stroke="#000000" points="940.5,-112.5 940.5,-131.5 1019.5,-131.5 1019.5,-112.5 940.5,-112.5"/>
<text text-anchor="middle" x="980" y="-119.5" font-family="Helvetica,sans-Serif" font-size="10.00" fill="#000000">ansilogger.hpp</text>
</a>
</g>
</g>
<!-- Node3&#45;&gt;Node15 -->
<g id="edge17" class="edge">
<title>Node3&#45;&gt;Node15</title>
<path fill="none" stroke="#191970" d="M530.8748,-289.3637C640.2755,-287.0976 957.3309,-277.6576 988,-244 1016.8787,-212.3073 995.2022,-154.6701 984.7725,-131.7645"/>
<polygon fill="#191970" stroke="#191970" points="530.5832,-285.8687 520.6548,-289.5668 530.7224,-292.8673 530.5832,-285.8687"/>
</g>
<!-- Node16 -->
<g id="node18" class="node">
<title>Node16</title>
<g id="a_node18"><a xlink:href="windowsconsolelogger_8hpp.html" target="_top" xlink:title="windowsconsolelogger.hpp">
<polygon fill="#ffffff" stroke="#000000" points="789.5,-112.5 789.5,-131.5 922.5,-131.5 922.5,-112.5 789.5,-112.5"/>
<text text-anchor="middle" x="856" y="-119.5" font-family="Helvetica,sans-Serif" font-size="10.00" fill="#000000">windowsconsolelogger.hpp</text>
</a>
</g>
</g>
<!-- Node3&#45;&gt;Node16 -->
<g id="edge18" class="edge">
<title>Node3&#45;&gt;Node16</title>
<path fill="none" stroke="#191970" d="M530.8527,-287.8488C597.781,-283.3205 735.9958,-270.9215 775,-244 807.1217,-221.829 796.9267,-200.189 819,-168 828.0421,-154.8141 839.8036,-140.617 847.6126,-131.5375"/>
<polygon fill="#191970" stroke="#191970" points="530.4998,-284.3643 520.7493,-288.509 530.9563,-291.3494 530.4998,-284.3643"/>
</g>
<!-- Node17 -->
<g id="node19" class="node">
<title>Node17</title>
<g id="a_node19"><a xlink:href="scopedump_8hpp.html" target="_top" xlink:title="scopedump.hpp">
<polygon fill="#ffffff" stroke="#000000" points="451,-168.5 451,-187.5 537,-187.5 537,-168.5 451,-168.5"/>
<text text-anchor="middle" x="494" y="-175.5" font-family="Helvetica,sans-Serif" font-size="10.00" fill="#000000">scopedump.hpp</text>
</a>
</g>
</g>
<!-- Node3&#45;&gt;Node17 -->
<g id="edge19" class="edge">
<title>Node3&#45;&gt;Node17</title>
<path fill="none" stroke="#191970" d="M502.8693,-270.8842C507.8986,-257.786 512.6967,-239.9614 510,-224 507.8026,-210.9939 502.3419,-196.7574 498.411,-187.6198"/>
<polygon fill="#191970" stroke="#191970" points="499.5809,-269.675 498.9251,-280.2495 506.0321,-272.392 499.5809,-269.675"/>
</g>
<!-- Node18 -->
<g id="node20" class="node">
<title>Node18</title>
<g id="a_node20"><a xlink:href="scopestore_8hpp.html" target="_top" xlink:title="scopestore.hpp">
<polygon fill="#ffffff" stroke="#000000" points="417.5,-224.5 417.5,-243.5 500.5,-243.5 500.5,-224.5 417.5,-224.5"/>
<text text-anchor="middle" x="459" y="-231.5" font-family="Helvetica,sans-Serif" font-size="10.00" fill="#000000">scopestore.hpp</text>
</a>
</g>
</g>
<!-- Node3&#45;&gt;Node18 -->
<g id="edge20" class="edge">
<title>Node3&#45;&gt;Node18</title>
<path fill="none" stroke="#191970" d="M482.5185,-271.6296C476.6804,-262.2887 469.8248,-251.3197 465.0267,-243.6427"/>
<polygon fill="#191970" stroke="#191970" points="479.6354,-273.6206 487.9035,-280.2455 485.5714,-269.9105 479.6354,-273.6206"/>
</g>
<!-- Node19 -->
<g id="node21" class="node">
<title>Node19</title>
<g id="a_node21"><a xlink:href="scopeinfo_8hpp.html" target="_top" xlink:title="scopeinfo.hpp">
<polygon fill="#ffffff" stroke="#000000" points="322.5,-224.5 322.5,-243.5 399.5,-243.5 399.5,-224.5 322.5,-224.5"/>
<text text-anchor="middle" x="361" y="-231.5" font-family="Helvetica,sans-Serif" font-size="10.00" fill="#000000">scopeinfo.hpp</text>
</a>
</g>
</g>
<!-- Node3&#45;&gt;Node19 -->
<g id="edge21" class="edge">
<title>Node3&#45;&gt;Node19</title>
<path fill="none" stroke="#191970" d="M461.6603,-276.3833C437.4715,-266.1985 405.005,-252.5284 383.5652,-243.5011"/>
<polygon fill="#191970" stroke="#191970" points="460.5619,-279.7184 471.1365,-280.3733 463.2783,-273.2669 460.5619,-279.7184"/>
</g>
<!-- Node20 -->
<g id="node22" class="node">
<title>Node20</title>
<g id="a_node22"><a xlink:href="logtools_8hpp.html" target="_top" xlink:title="logtools.hpp">
<polygon fill="#ffffff" stroke="#000000" points="150.5,-224.5 150.5,-243.5 219.5,-243.5 219.5,-224.5 150.5,-224.5"/>
<text text-anchor="middle" x="185" y="-231.5" font-family="Helvetica,sans-Serif" font-size="10.00" fill="#000000">logtools.hpp</text>
</a>
</g>
</g>
<!-- Node3&#45;&gt;Node20 -->
<g id="edge22" class="edge">
<title>Node3&#45;&gt;Node20</title>
<path fill="none" stroke="#191970" d="M457.5235,-284.3703C406.1559,-276.2883 309.6478,-260.5396 228,-244 225.2957,-243.4522 222.5017,-242.8607 219.6966,-242.2486"/>
<polygon fill="#191970" stroke="#191970" points="457.0567,-287.8398 467.4779,-285.9293 458.1399,-280.9241 457.0567,-287.8398"/>
</g>
<!-- Node5&#45;&gt;Node3 -->
<g id="edge24" class="edge">
<title>Node5&#45;&gt;Node3</title>
<path fill="none" stroke="#191970" d="M236.8929,-181.6434C188.206,-187.2472 103.0618,-199.9466 84,-224 78.4792,-230.9665 78.0675,-237.3805 84,-244 109.8858,-272.8832 380.2447,-285.475 467.3046,-288.9502"/>
<polygon fill="#191970" stroke="#191970" points="237.4284,-185.1055 246.9808,-180.5228 236.6555,-178.1483 237.4284,-185.1055"/>
</g>
<!-- Node22 -->
<g id="node23" class="node">
<title>Node22</title>
<g id="a_node23"><a xlink:href="compilerplugin_8hpp_source.html" target="_top" xlink:title="compilerplugin.hpp">
<polygon fill="#ffffff" stroke="#ff0000" points="1317,-168.5 1317,-187.5 1415,-187.5 1415,-168.5 1317,-168.5"/>
<text text-anchor="middle" x="1366" y="-175.5" font-family="Helvetica,sans-Serif" font-size="10.00" fill="#000000">compilerplugin.hpp</text>
</a>
</g>
</g>
<!-- Node21&#45;&gt;Node22 -->
<g id="edge42" class="edge">
<title>Node21&#45;&gt;Node22</title>
<path fill="none" stroke="#191970" d="M1339.3459,-276.2109C1353.8484,-268.9946 1368.7414,-258.5537 1377,-244 1387.2048,-226.0165 1377.9005,-201.133 1371.2833,-187.6391"/>
<polygon fill="#191970" stroke="#191970" points="1337.5917,-273.1641 1329.9458,-280.4983 1340.4966,-279.5329 1337.5917,-273.1641"/>
</g>
<!-- Node4&#45;&gt;Node3 -->
<g id="edge23" class="edge">
<title>Node4&#45;&gt;Node3</title>
<path fill="none" stroke="#191970" d="M141.9923,-242.0558C144.7109,-242.7748 147.4011,-243.4409 150,-244 266.9135,-269.1525 408.7638,-282.5624 467.1715,-287.611"/>
<polygon fill="#191970" stroke="#191970" points="142.7075,-238.622 132.1354,-239.3156 140.8325,-245.3662 142.7075,-238.622"/>
</g>
<!-- Node6&#45;&gt;Node5 -->
<g id="edge25" class="edge">
<title>Node6&#45;&gt;Node5</title>
<path fill="none" stroke="#191970" d="M271,-214.1575C271,-205.155 271,-194.9199 271,-187.6427"/>
<polygon fill="#191970" stroke="#191970" points="267.5001,-214.2455 271,-224.2455 274.5001,-214.2456 267.5001,-214.2455"/>
</g>
<!-- Node7&#45;&gt;Node5 -->
<g id="edge26" class="edge">
<title>Node7&#45;&gt;Node5</title>
<path fill="none" stroke="#191970" d="M547.1357,-226.7811C480.1335,-214.9447 348.9788,-191.7754 295.0424,-182.2472"/>
<polygon fill="#191970" stroke="#191970" points="546.8603,-230.2865 557.3167,-228.5796 548.078,-223.3933 546.8603,-230.2865"/>
</g>
<!-- Node7&#45;&gt;Node8 -->
<g id="edge27" class="edge">
<title>Node7&#45;&gt;Node8</title>
<path fill="none" stroke="#191970" d="M628.6697,-225.8075C682.0504,-215.0546 775.0865,-196.3135 827.4121,-185.7731"/>
<polygon fill="#191970" stroke="#191970" points="627.658,-222.4409 618.5461,-227.8468 629.0404,-229.3031 627.658,-222.4409"/>
</g>
<!-- Node8&#45;&gt;Node9 -->
<g id="edge28" class="edge">
<title>Node8&#45;&gt;Node9</title>
<path fill="none" stroke="#191970" d="M818.2722,-165.8511C777.7888,-155.5462 720.524,-140.9697 683.3258,-131.5011"/>
<polygon fill="#191970" stroke="#191970" points="817.6263,-169.2982 828.1807,-168.3733 819.3531,-162.5145 817.6263,-169.2982"/>
</g>
<!-- Node8&#45;&gt;Node15 -->
<g id="edge29" class="edge">
<title>Node8&#45;&gt;Node15</title>
<path fill="none" stroke="#191970" d="M894.8321,-163.8368C915.4395,-153.7139 942.6082,-140.3679 960.6584,-131.5011"/>
<polygon fill="#191970" stroke="#191970" points="893.0297,-160.8227 885.5973,-168.3733 896.116,-167.1056 893.0297,-160.8227"/>
</g>
<!-- Node8&#45;&gt;Node16 -->
<g id="edge30" class="edge">
<title>Node8&#45;&gt;Node16</title>
<path fill="none" stroke="#191970" d="M862.4567,-158.1575C860.8491,-149.155 859.0214,-138.9199 857.7219,-131.6427"/>
<polygon fill="#191970" stroke="#191970" points="859.0546,-159.0166 864.2581,-168.2455 865.9456,-157.786 859.0546,-159.0166"/>
</g>
<!-- Node9&#45;&gt;Node10 -->
<g id="edge31" class="edge">
<title>Node9&#45;&gt;Node10</title>
<path fill="none" stroke="#191970" d="M602.1155,-109.5882C565.7377,-99.2996 514.7879,-84.8895 481.5933,-75.5011"/>
<polygon fill="#191970" stroke="#191970" points="601.3875,-113.0195 611.9626,-112.3733 603.2926,-106.2838 601.3875,-113.0195"/>
</g>
<!-- Node9&#45;&gt;Node12 -->
<g id="edge32" class="edge">
<title>Node9&#45;&gt;Node12</title>
<path fill="none" stroke="#191970" d="M654.8011,-103.0437C659.0775,-93.8331 664.033,-83.1598 667.523,-75.6427"/>
<polygon fill="#191970" stroke="#191970" points="651.5655,-101.7015 650.5289,-112.2455 657.9146,-104.6494 651.5655,-101.7015"/>
</g>
<!-- Node9&#45;&gt;Node13 -->
<g id="edge33" class="edge">
<title>Node9&#45;&gt;Node13</title>
<path fill="none" stroke="#191970" d="M678.9806,-108.5189C703.9311,-98.3201 737.5734,-84.5685 759.7562,-75.5011"/>
<polygon fill="#191970" stroke="#191970" points="677.4834,-105.3497 669.5511,-112.3733 680.132,-111.8293 677.4834,-105.3497"/>
</g>
<!-- Node9&#45;&gt;Node14 -->
<g id="edge34" class="edge">
<title>Node9&#45;&gt;Node14</title>
<path fill="none" stroke="#191970" d="M622.6095,-106.769C607.3701,-96.8456 587.9491,-84.1994 574.8084,-75.6427"/>
<polygon fill="#191970" stroke="#191970" points="620.7301,-109.7218 631.0199,-112.2455 624.5498,-103.8558 620.7301,-109.7218"/>
</g>
<!-- Node10&#45;&gt;Node11 -->
<g id="edge35" class="edge">
<title>Node10&#45;&gt;Node11</title>
<path fill="none" stroke="#191970" d="M476.3263,-51.8368C496.5721,-41.7139 523.2642,-28.3679 540.9978,-19.5011"/>
<polygon fill="#191970" stroke="#191970" points="474.6325,-48.7706 467.2535,-56.3733 477.763,-55.0316 474.6325,-48.7706"/>
</g>
<!-- Node14&#45;&gt;Node11 -->
<g id="edge36" class="edge">
<title>Node14&#45;&gt;Node11</title>
<path fill="none" stroke="#191970" d="M560,-46.1575C560,-37.155 560,-26.9199 560,-19.6427"/>
<polygon fill="#191970" stroke="#191970" points="556.5001,-46.2455 560,-56.2455 563.5001,-46.2456 556.5001,-46.2455"/>
</g>
<!-- Node15&#45;&gt;Node11 -->
<g id="edge37" class="edge">
<title>Node15&#45;&gt;Node11</title>
<path fill="none" stroke="#191970" d="M957.2883,-106.7544C933.3786,-91.4561 894.1259,-68.4299 857,-56 760.7656,-23.7803 639.321,-13.9662 586.5245,-11.1104"/>
<polygon fill="#191970" stroke="#191970" points="955.6671,-109.8752 965.9579,-112.3952 959.4847,-104.0078 955.6671,-109.8752"/>
</g>
<!-- Node16&#45;&gt;Node11 -->
<g id="edge38" class="edge">
<title>Node16&#45;&gt;Node11</title>
<path fill="none" stroke="#191970" d="M855.6648,-102.0301C854.2945,-87.1531 849.9148,-67.5004 837,-56 800.2293,-23.2565 649.0217,-13.5458 586.8671,-10.9061"/>
<polygon fill="#191970" stroke="#191970" points="852.1831,-102.465 856.2176,-112.2616 859.173,-102.0873 852.1831,-102.465"/>
</g>
<!-- Node18&#45;&gt;Node5 -->
<g id="edge39" class="edge">
<title>Node18&#45;&gt;Node5</title>
<path fill="none" stroke="#191970" d="M417.0417,-221.5018C379.537,-210.3302 325.8929,-194.3511 295.1419,-185.1912"/>
<polygon fill="#191970" stroke="#191970" points="416.0986,-224.8728 426.6816,-224.3733 418.097,-218.1641 416.0986,-224.8728"/>
</g>
<!-- Node18&#45;&gt;Node17 -->
<g id="edge40" class="edge">
<title>Node18&#45;&gt;Node17</title>
<path fill="none" stroke="#191970" d="M470.4815,-215.6296C476.3196,-206.2887 483.1752,-195.3197 487.9733,-187.6427"/>
<polygon fill="#191970" stroke="#191970" points="467.4286,-213.9105 465.0965,-224.2455 473.3646,-217.6206 467.4286,-213.9105"/>
</g>
<!-- Node19&#45;&gt;Node5 -->
<g id="edge41" class="edge">
<title>Node19&#45;&gt;Node5</title>
<path fill="none" stroke="#191970" d="M336.5216,-218.769C320.5734,-208.8456 300.249,-196.1994 286.4972,-187.6427"/>
<polygon fill="#191970" stroke="#191970" points="334.9835,-221.9342 345.3232,-224.2455 338.6817,-215.9908 334.9835,-221.9342"/>
</g>
<!-- Node32 -->
<g id="node25" class="node">
<title>Node32</title>
<g id="a_node25"><a xlink:href="scope_8hpp_source.html" target="_top" xlink:title="scope.hpp">
<polygon fill="#ffffff" stroke="#ff0000" points="1306,-224.5 1306,-243.5 1368,-243.5 1368,-224.5 1306,-224.5"/>
<text text-anchor="middle" x="1337" y="-231.5" font-family="Helvetica,sans-Serif" font-size="10.00" fill="#000000">scope.hpp</text>
</a>
</g>
</g>
<!-- Node31&#45;&gt;Node32 -->
<g id="edge44" class="edge">
<title>Node31&#45;&gt;Node32</title>
<path fill="none" stroke="#191970" d="M1150.2049,-278.1998C1190.3797,-269.0541 1247.2601,-255.9653 1297,-244 1299.7839,-243.3303 1302.6743,-242.6258 1305.5701,-241.9136"/>
<polygon fill="#191970" stroke="#191970" points="1149.3405,-274.8069 1140.3654,-280.4369 1150.8925,-281.6327 1149.3405,-274.8069"/>
</g>
<!-- Node34 -->
<g id="node26" class="node">
<title>Node34</title>
<g id="a_node26"><a xlink:href="formatterjavastyle_8hpp.html" target="_top" xlink:title="formatterjavastyle.hpp">
<polygon fill="#ffffff" stroke="#000000" points="865.5,-224.5 865.5,-243.5 978.5,-243.5 978.5,-224.5 865.5,-224.5"/>
<text text-anchor="middle" x="922" y="-231.5" font-family="Helvetica,sans-Serif" font-size="10.00" fill="#000000">formatterjavastyle.hpp</text>
</a>
</g>
</g>
<!-- Node31&#45;&gt;Node34 -->
<g id="edge45" class="edge">
<title>Node31&#45;&gt;Node34</title>
<path fill="none" stroke="#191970" d="M1058.1596,-277.3235C1025.8827,-267.0536 981.1148,-252.8093 951.8607,-243.5011"/>
<polygon fill="#191970" stroke="#191970" points="1057.154,-280.6764 1067.7445,-280.3733 1059.2765,-274.0059 1057.154,-280.6764"/>
</g>
<!-- Node35 -->
<g id="node27" class="node">
<title>Node35</title>
<g id="a_node27"><a xlink:href="formatterpythonstyle_8hpp.html" target="_top" xlink:title="formatterpythonstyle.hpp">
<polygon fill="#ffffff" stroke="#ff0000" points="1035.5,-224.5 1035.5,-243.5 1160.5,-243.5 1160.5,-224.5 1035.5,-224.5"/>
<text text-anchor="middle" x="1098" y="-231.5" font-family="Helvetica,sans-Serif" font-size="10.00" fill="#000000">formatterpythonstyle.hpp</text>
</a>
</g>
</g>
<!-- Node31&#45;&gt;Node35 -->
<g id="edge46" class="edge">
<title>Node31&#45;&gt;Node35</title>
<path fill="none" stroke="#191970" d="M1098,-270.1575C1098,-261.155 1098,-250.9199 1098,-243.6427"/>
<polygon fill="#191970" stroke="#191970" points="1094.5001,-270.2455 1098,-280.2455 1101.5001,-270.2456 1094.5001,-270.2455"/>
</g>
<!-- Node38 -->
<g id="node28" class="node">
<title>Node38</title>
<g id="a_node28"><a xlink:href="propertyformatter_8hpp_source.html" target="_top" xlink:title="propertyformatter.hpp">
<polygon fill="#ffffff" stroke="#ff0000" points="1178.5,-224.5 1178.5,-243.5 1287.5,-243.5 1287.5,-224.5 1178.5,-224.5"/>
<text text-anchor="middle" x="1233" y="-231.5" font-family="Helvetica,sans-Serif" font-size="10.00" fill="#000000">propertyformatter.hpp</text>
</a>
</g>
</g>
<!-- Node31&#45;&gt;Node38 -->
<g id="edge47" class="edge">
<title>Node31&#45;&gt;Node38</title>
<path fill="none" stroke="#191970" d="M1130.4991,-276.5189C1155.0854,-266.3201 1188.2366,-252.5685 1210.0955,-243.5011"/>
<polygon fill="#191970" stroke="#191970" points="1129.1031,-273.3087 1121.2073,-280.3733 1131.7852,-279.7745 1129.1031,-273.3087"/>
</g>
<!-- Node32&#45;&gt;Node22 -->
<g id="edge48" class="edge">
<title>Node32&#45;&gt;Node22</title>
<path fill="none" stroke="#191970" d="M1346.6647,-215.3372C1351.4687,-206.0605 1357.0723,-195.2398 1361.0065,-187.6427"/>
<polygon fill="#191970" stroke="#191970" points="1343.542,-213.7561 1342.0514,-224.2455 1349.758,-216.9751 1343.542,-213.7561"/>
</g>
<!-- Node34&#45;&gt;Node8 -->
<g id="edge49" class="edge">
<title>Node34&#45;&gt;Node8</title>
<path fill="none" stroke="#191970" d="M905.0751,-217.0751C895.4402,-207.4402 883.7196,-195.7196 875.6427,-187.6427"/>
<polygon fill="#191970" stroke="#191970" points="902.6996,-219.6493 912.2455,-224.2455 907.6493,-214.6996 902.6996,-219.6493"/>
</g>
<!-- Node35&#45;&gt;Node8 -->
<g id="edge50" class="edge">
<title>Node35&#45;&gt;Node8</title>
<path fill="none" stroke="#191970" d="M1048.4194,-222.0323C1005.4415,-211.6583 944.1181,-196.8561 904.6826,-187.3372"/>
<polygon fill="#191970" stroke="#191970" points="1047.8393,-225.4927 1058.3814,-224.4369 1049.4818,-218.6881 1047.8393,-225.4927"/>
</g>
</g>
</svg>
