<?xml version="1.0" encoding="UTF-8" standalone="no"?>
<!DOCTYPE svg PUBLIC "-//W3C//DTD SVG 1.1//EN"
 "http://www.w3.org/Graphics/SVG/1.1/DTD/svg11.dtd">
<!-- Generated by graphviz version 2.40.1 (20161225.0304)
 -->
<!-- Title: owner.hpp Pages: 1 -->
<svg width="2998pt" height="252pt"
 viewBox="0.00 0.00 2998.00 252.00" xmlns="http://www.w3.org/2000/svg" xmlns:xlink="http://www.w3.org/1999/xlink">
<g id="graph0" class="graph" transform="scale(1 1) rotate(0) translate(4 248)">
<title>owner.hpp</title>
<polygon fill="#ffffff" stroke="transparent" points="-4,4 -4,-248 2994,-248 2994,4 -4,4"/>
<!-- Node0 -->
<g id="node1" class="node">
<title>Node0</title>
<polygon fill="#bfbfbf" stroke="#000000" points="1222.5,-224.5 1222.5,-243.5 1283.5,-243.5 1283.5,-224.5 1222.5,-224.5"/>
<text text-anchor="middle" x="1253" y="-231.5" font-family="Helvetica,sans-Serif" font-size="10.00" fill="#000000">owner.hpp</text>
</g>
<!-- Node1 -->
<g id="node2" class="node">
<title>Node1</title>
<g id="a_node2"><a xlink:href="alib_8hpp.html" target="_top" xlink:title="alib/alib.hpp">
<polygon fill="#ffffff" stroke="#000000" points="1219,-168.5 1219,-187.5 1287,-187.5 1287,-168.5 1219,-168.5"/>
<text text-anchor="middle" x="1253" y="-175.5" font-family="Helvetica,sans-Serif" font-size="10.00" fill="#000000">alib/alib.hpp</text>
</a>
</g>
</g>
<!-- Node0&#45;&gt;Node1 -->
<g id="edge1" class="edge">
<title>Node0&#45;&gt;Node1</title>
<path fill="none" stroke="#191970" d="M1253,-224.2455C1253,-216.9382 1253,-206.6944 1253,-197.7046"/>
<polygon fill="#191970" stroke="#191970" points="1256.5001,-197.6426 1253,-187.6427 1249.5001,-197.6427 1256.5001,-197.6426"/>
</g>
<!-- Node2 -->
<g id="node3" class="node">
<title>Node2</title>
<polygon fill="#ffffff" stroke="#bfbfbf" points="0,-112.5 0,-131.5 52,-131.5 52,-112.5 0,-112.5"/>
<text text-anchor="middle" x="26" y="-119.5" font-family="Helvetica,sans-Serif" font-size="10.00" fill="#000000">assert.h</text>
</g>
<!-- Node1&#45;&gt;Node2 -->
<g id="edge2" class="edge">
<title>Node1&#45;&gt;Node2</title>
<path fill="none" stroke="#191970" d="M1218.9525,-177.7865C1051.4752,-176.571 313.4275,-169.2491 62.3772,-131.7964"/>
<polygon fill="#191970" stroke="#191970" points="62.6392,-128.2953 52.221,-130.2215 61.5665,-135.2126 62.6392,-128.2953"/>
</g>
<!-- Node3 -->
<g id="node4" class="node">
<title>Node3</title>
<polygon fill="#ffffff" stroke="#bfbfbf" points="70.5,-112.5 70.5,-131.5 115.5,-131.5 115.5,-112.5 70.5,-112.5"/>
<text text-anchor="middle" x="93" y="-119.5" font-family="Helvetica,sans-Serif" font-size="10.00" fill="#000000">iosfwd</text>
</g>
<!-- Node1&#45;&gt;Node3 -->
<g id="edge3" class="edge">
<title>Node1&#45;&gt;Node3</title>
<path fill="none" stroke="#191970" d="M1218.8762,-177.8112C1056.8002,-176.7335 363.1305,-170.0397 125.4993,-131.5283"/>
<polygon fill="#191970" stroke="#191970" points="125.9877,-128.0614 115.5448,-129.8491 124.8233,-134.9638 125.9877,-128.0614"/>
</g>
<!-- Node4 -->
<g id="node5" class="node">
<title>Node4</title>
<polygon fill="#ffffff" stroke="#bfbfbf" points="134,-112.5 134,-131.5 180,-131.5 180,-112.5 134,-112.5"/>
<text text-anchor="middle" x="157" y="-119.5" font-family="Helvetica,sans-Serif" font-size="10.00" fill="#000000">cstdint</text>
</g>
<!-- Node1&#45;&gt;Node4 -->
<g id="edge4" class="edge">
<title>Node1&#45;&gt;Node4</title>
<path fill="none" stroke="#191970" d="M1218.9859,-177.7153C1062.9373,-176.2307 413.965,-168.0677 190.2559,-131.7268"/>
<polygon fill="#191970" stroke="#191970" points="190.6899,-128.2506 180.2458,-130.0312 189.5208,-135.1523 190.6899,-128.2506"/>
</g>
<!-- Node5 -->
<g id="node6" class="node">
<title>Node5</title>
<g id="a_node6"><a xlink:href="prepro_8hpp.html" target="_top" xlink:title="alib/lang/prepro.hpp">
<polygon fill="#ffffff" stroke="#000000" points="198.5,-112.5 198.5,-131.5 299.5,-131.5 299.5,-112.5 198.5,-112.5"/>
<text text-anchor="middle" x="249" y="-119.5" font-family="Helvetica,sans-Serif" font-size="10.00" fill="#000000">alib/lang/prepro.hpp</text>
</a>
</g>
</g>
<!-- Node1&#45;&gt;Node5 -->
<g id="edge5" class="edge">
<title>Node1&#45;&gt;Node5</title>
<path fill="none" stroke="#191970" d="M1218.598,-177.7681C1096.297,-176.6399 671.019,-170.1199 309.8121,-131.9537"/>
<polygon fill="#191970" stroke="#191970" points="309.9968,-128.4537 299.682,-130.8732 309.2543,-135.4142 309.9968,-128.4537"/>
</g>
<!-- Node6 -->
<g id="node7" class="node">
<title>Node6</title>
<g id="a_node7"><a xlink:href="types_8hpp.html" target="_top" xlink:title="alib/lang/types.hpp">
<polygon fill="#ffffff" stroke="#000000" points="318,-112.5 318,-131.5 416,-131.5 416,-112.5 318,-112.5"/>
<text text-anchor="middle" x="367" y="-119.5" font-family="Helvetica,sans-Serif" font-size="10.00" fill="#000000">alib/lang/types.hpp</text>
</a>
</g>
</g>
<!-- Node1&#45;&gt;Node6 -->
<g id="edge6" class="edge">
<title>Node1&#45;&gt;Node6</title>
<path fill="none" stroke="#191970" d="M1218.9678,-177.5135C1107.0071,-175.6171 739.8495,-167.0452 426.4941,-132.0482"/>
<polygon fill="#191970" stroke="#191970" points="426.6349,-128.542 416.3055,-130.8988 425.8501,-135.4979 426.6349,-128.542"/>
</g>
<!-- Node7 -->
<g id="node8" class="node">
<title>Node7</title>
<g id="a_node8"><a xlink:href="assert_8hpp.html" target="_top" xlink:title="alib/debug/assert.hpp">
<polygon fill="#ffffff" stroke="#000000" points="434,-112.5 434,-131.5 544,-131.5 544,-112.5 434,-112.5"/>
<text text-anchor="middle" x="489" y="-119.5" font-family="Helvetica,sans-Serif" font-size="10.00" fill="#000000">alib/debug/assert.hpp</text>
</a>
</g>
</g>
<!-- Node1&#45;&gt;Node7 -->
<g id="edge7" class="edge">
<title>Node1&#45;&gt;Node7</title>
<path fill="none" stroke="#191970" d="M1218.6703,-176.8318C1118.1539,-173.1806 815.6232,-160.5485 554.1806,-132.0397"/>
<polygon fill="#191970" stroke="#191970" points="554.439,-128.5471 544.1161,-130.932 553.6732,-135.5051 554.439,-128.5471"/>
</g>
<!-- Node8 -->
<g id="node9" class="node">
<title>Node8</title>
<g id="a_node9"><a xlink:href="rtti_8hpp.html" target="_top" xlink:title="alib/lang/rtti.hpp">
<polygon fill="#ffffff" stroke="#000000" points="562,-112.5 562,-131.5 648,-131.5 648,-112.5 562,-112.5"/>
<text text-anchor="middle" x="605" y="-119.5" font-family="Helvetica,sans-Serif" font-size="10.00" fill="#000000">alib/lang/rtti.hpp</text>
</a>
</g>
</g>
<!-- Node1&#45;&gt;Node8 -->
<g id="edge8" class="edge">
<title>Node1&#45;&gt;Node8</title>
<path fill="none" stroke="#191970" d="M1218.9052,-176.4934C1128.0821,-172.2321 872.8424,-158.6379 662,-132 660.7385,-131.8406 659.4623,-131.6726 658.1762,-131.4971"/>
<polygon fill="#191970" stroke="#191970" points="658.5973,-128.0214 648.194,-130.0267 657.5772,-134.9467 658.5973,-128.0214"/>
</g>
<!-- Node12 -->
<g id="node10" class="node">
<title>Node12</title>
<g id="a_node10"><a xlink:href="singleton_8hpp.html" target="_top" xlink:title="alib/lang/singleton.hpp">
<polygon fill="#ffffff" stroke="#000000" points="462.5,-56.5 462.5,-75.5 575.5,-75.5 575.5,-56.5 462.5,-56.5"/>
<text text-anchor="middle" x="519" y="-63.5" font-family="Helvetica,sans-Serif" font-size="10.00" fill="#000000">alib/lang/singleton.hpp</text>
</a>
</g>
</g>
<!-- Node1&#45;&gt;Node12 -->
<g id="edge9" class="edge">
<title>Node1&#45;&gt;Node12</title>
<path fill="none" stroke="#191970" d="M1218.7305,-176.968C1113.1775,-173.5085 794.1601,-160.8755 695,-132 676.6759,-126.664 674.5555,-119.4869 657,-112 626.0696,-98.8091 589.9825,-86.896 562.4701,-78.4998"/>
<polygon fill="#191970" stroke="#191970" points="563.3319,-75.1041 552.7473,-75.5697 561.312,-81.8063 563.3319,-75.1041"/>
</g>
<!-- Node14 -->
<g id="node11" class="node">
<title>Node14</title>
<g id="a_node11"><a xlink:href="enums_8hpp.html" target="_top" xlink:title="alib/lang/enums.hpp">
<polygon fill="#ffffff" stroke="#000000" points="704,-112.5 704,-131.5 808,-131.5 808,-112.5 704,-112.5"/>
<text text-anchor="middle" x="756" y="-119.5" font-family="Helvetica,sans-Serif" font-size="10.00" fill="#000000">alib/lang/enums.hpp</text>
</a>
</g>
</g>
<!-- Node1&#45;&gt;Node14 -->
<g id="edge10" class="edge">
<title>Node1&#45;&gt;Node14</title>
<path fill="none" stroke="#191970" d="M1218.7219,-175.0578C1146.6269,-168.7248 973.8086,-152.7841 818.4225,-132.1291"/>
<polygon fill="#191970" stroke="#191970" points="818.5901,-128.6204 808.214,-130.7618 817.6608,-135.5584 818.5901,-128.6204"/>
</g>
<!-- Node15 -->
<g id="node12" class="node">
<title>Node15</title>
<g id="a_node12"><a xlink:href="strings_2strings_8hpp.html" target="_top" xlink:title="alib/strings/strings.hpp">
<polygon fill="#ffffff" stroke="#000000" points="826.5,-112.5 826.5,-131.5 941.5,-131.5 941.5,-112.5 826.5,-112.5"/>
<text text-anchor="middle" x="884" y="-119.5" font-family="Helvetica,sans-Serif" font-size="10.00" fill="#000000">alib/strings/strings.hpp</text>
</a>
</g>
</g>
<!-- Node1&#45;&gt;Node15 -->
<g id="edge11" class="edge">
<title>Node1&#45;&gt;Node15</title>
<path fill="none" stroke="#191970" d="M1218.9468,-172.832C1158.4159,-163.6458 1031.0356,-144.3143 951.977,-132.3163"/>
<polygon fill="#191970" stroke="#191970" points="952.0429,-128.7863 941.6309,-130.7462 950.9925,-135.707 952.0429,-128.7863"/>
</g>
<!-- Node24 -->
<g id="node13" class="node">
<title>Node24</title>
<g id="a_node13"><a xlink:href="astring_8hpp.html" target="_top" xlink:title="alib/strings/astring.hpp">
<polygon fill="#ffffff" stroke="#000000" points="959.5,-112.5 959.5,-131.5 1074.5,-131.5 1074.5,-112.5 959.5,-112.5"/>
<text text-anchor="middle" x="1017" y="-119.5" font-family="Helvetica,sans-Serif" font-size="10.00" fill="#000000">alib/strings/astring.hpp</text>
</a>
</g>
</g>
<!-- Node1&#45;&gt;Node24 -->
<g id="edge12" class="edge">
<title>Node1&#45;&gt;Node24</title>
<path fill="none" stroke="#191970" d="M1218.9356,-169.9169C1179.1803,-160.4835 1113.0707,-144.7964 1067.3792,-133.9544"/>
<polygon fill="#191970" stroke="#191970" points="1067.9207,-130.4858 1057.3828,-131.5824 1066.3045,-137.2966 1067.9207,-130.4858"/>
</g>
<!-- Node26 -->
<g id="node14" class="node">
<title>Node26</title>
<g id="a_node14"><a xlink:href="preallocatedstring_8hpp.html" target="_top" xlink:title="alib/strings/preallocatedstring.hpp">
<polygon fill="#ffffff" stroke="#000000" points="1093,-112.5 1093,-131.5 1255,-131.5 1255,-112.5 1093,-112.5"/>
<text text-anchor="middle" x="1174" y="-119.5" font-family="Helvetica,sans-Serif" font-size="10.00" fill="#000000">alib/strings/preallocatedstring.hpp</text>
</a>
</g>
</g>
<!-- Node1&#45;&gt;Node26 -->
<g id="edge13" class="edge">
<title>Node1&#45;&gt;Node26</title>
<path fill="none" stroke="#191970" d="M1239.2393,-168.2455C1227.3448,-159.814 1209.935,-147.4729 1196.0915,-137.6598"/>
<polygon fill="#191970" stroke="#191970" points="1197.7854,-134.5704 1187.6031,-131.6427 1193.7372,-140.2811 1197.7854,-134.5704"/>
</g>
<!-- Node27 -->
<g id="node15" class="node">
<title>Node27</title>
<g id="a_node15"><a xlink:href="resources_8hpp.html" target="_top" xlink:title="alib/lang/resources.hpp">
<polygon fill="#ffffff" stroke="#000000" points="1273.5,-112.5 1273.5,-131.5 1390.5,-131.5 1390.5,-112.5 1273.5,-112.5"/>
<text text-anchor="middle" x="1332" y="-119.5" font-family="Helvetica,sans-Serif" font-size="10.00" fill="#000000">alib/lang/resources.hpp</text>
</a>
</g>
</g>
<!-- Node1&#45;&gt;Node27 -->
<g id="edge14" class="edge">
<title>Node1&#45;&gt;Node27</title>
<path fill="none" stroke="#191970" d="M1266.7607,-168.2455C1278.6552,-159.814 1296.065,-147.4729 1309.9085,-137.6598"/>
<polygon fill="#191970" stroke="#191970" points="1312.2628,-140.2811 1318.3969,-131.6427 1308.2146,-134.5704 1312.2628,-140.2811"/>
</g>
<!-- Node31 -->
<g id="node16" class="node">
<title>Node31</title>
<g id="a_node16"><a xlink:href="library_8hpp.html" target="_top" xlink:title="alib/lang/library.hpp">
<polygon fill="#ffffff" stroke="#000000" points="1409,-112.5 1409,-131.5 1509,-131.5 1509,-112.5 1409,-112.5"/>
<text text-anchor="middle" x="1459" y="-119.5" font-family="Helvetica,sans-Serif" font-size="10.00" fill="#000000">alib/lang/library.hpp</text>
</a>
</g>
</g>
<!-- Node1&#45;&gt;Node31 -->
<g id="edge15" class="edge">
<title>Node1&#45;&gt;Node31</title>
<path fill="none" stroke="#191970" d="M1287.0167,-168.7527C1321.7395,-159.3135 1375.8197,-144.6121 1414.053,-134.2186"/>
<polygon fill="#191970" stroke="#191970" points="1415.1664,-137.543 1423.8981,-131.5423 1413.3301,-130.7882 1415.1664,-137.543"/>
</g>
<!-- Node32 -->
<g id="node17" class="node">
<title>Node32</title>
<g id="a_node17"><a xlink:href="stringlib_8hpp.html" target="_top" xlink:title="alib/strings/stringlib.hpp">
<polygon fill="#ffffff" stroke="#000000" points="1527.5,-112.5 1527.5,-131.5 1646.5,-131.5 1646.5,-112.5 1527.5,-112.5"/>
<text text-anchor="middle" x="1587" y="-119.5" font-family="Helvetica,sans-Serif" font-size="10.00" fill="#000000">alib/strings/stringlib.hpp</text>
</a>
</g>
</g>
<!-- Node1&#45;&gt;Node32 -->
<g id="edge16" class="edge">
<title>Node1&#45;&gt;Node32</title>
<path fill="none" stroke="#191970" d="M1287.1742,-172.2702C1341.7661,-163.1171 1449.6497,-145.0288 1520.0192,-133.2303"/>
<polygon fill="#191970" stroke="#191970" points="1520.8351,-136.6425 1530.1186,-131.537 1519.6775,-129.7388 1520.8351,-136.6425"/>
</g>
<!-- Node33 -->
<g id="node18" class="node">
<title>Node33</title>
<g id="a_node18"><a xlink:href="boxinglib_8hpp.html" target="_top" xlink:title="alib/boxing/boxinglib.hpp">
<polygon fill="#ffffff" stroke="#000000" points="2130.5,-112.5 2130.5,-131.5 2253.5,-131.5 2253.5,-112.5 2130.5,-112.5"/>
<text text-anchor="middle" x="2192" y="-119.5" font-family="Helvetica,sans-Serif" font-size="10.00" fill="#000000">alib/boxing/boxinglib.hpp</text>
</a>
</g>
</g>
<!-- Node1&#45;&gt;Node33 -->
<g id="edge17" class="edge">
<title>Node1&#45;&gt;Node33</title>
<path fill="none" stroke="#191970" d="M1287.4021,-177.2518C1403.212,-174.5065 1789.6481,-163.5049 2120.2098,-131.9868"/>
<polygon fill="#191970" stroke="#191970" points="2120.8464,-135.4418 2130.4654,-131.0006 2120.1762,-128.474 2120.8464,-135.4418"/>
</g>
<!-- Node42 -->
<g id="node19" class="node">
<title>Node42</title>
<g id="a_node19"><a xlink:href="langlib_8hpp.html" target="_top" xlink:title="alib/lang/langlib.hpp">
<polygon fill="#ffffff" stroke="#000000" points="1822,-112.5 1822,-131.5 1924,-131.5 1924,-112.5 1822,-112.5"/>
<text text-anchor="middle" x="1873" y="-119.5" font-family="Helvetica,sans-Serif" font-size="10.00" fill="#000000">alib/lang/langlib.hpp</text>
</a>
</g>
</g>
<!-- Node1&#45;&gt;Node42 -->
<g id="edge18" class="edge">
<title>Node1&#45;&gt;Node42</title>
<path fill="none" stroke="#191970" d="M1287.127,-176.1499C1373.1886,-171.2802 1606.1974,-156.8283 1811.7135,-131.9334"/>
<polygon fill="#191970" stroke="#191970" points="1812.2866,-135.3895 1821.788,-130.7019 1811.4371,-128.4413 1812.2866,-135.3895"/>
</g>
<!-- Node43 -->
<g id="node20" class="node">
<title>Node43</title>
<g id="a_node20"><a xlink:href="stringboxing_8hpp.html" target="_top" xlink:title="alib/strings/boxing/stringboxing.hpp">
<polygon fill="#ffffff" stroke="#000000" points="1942,-112.5 1942,-131.5 2112,-131.5 2112,-112.5 1942,-112.5"/>
<text text-anchor="middle" x="2027" y="-119.5" font-family="Helvetica,sans-Serif" font-size="10.00" fill="#000000">alib/strings/boxing/stringboxing.hpp</text>
</a>
</g>
</g>
<!-- Node1&#45;&gt;Node43 -->
<g id="edge19" class="edge">
<title>Node1&#45;&gt;Node43</title>
<path fill="none" stroke="#191970" d="M1287.3542,-176.1442C1385.8526,-170.7237 1677.908,-153.9568 1931.8048,-132.0746"/>
<polygon fill="#191970" stroke="#191970" points="1932.2992,-135.545 1941.9598,-131.1949 1931.695,-128.5711 1932.2992,-135.545"/>
</g>
<!-- Node44 -->
<g id="node21" class="node">
<title>Node44</title>
<g id="a_node21"><a xlink:href="report_8hpp.html" target="_top" xlink:title="alib/lang/report.hpp">
<polygon fill="#ffffff" stroke="#000000" points="2287.5,-112.5 2287.5,-131.5 2386.5,-131.5 2386.5,-112.5 2287.5,-112.5"/>
<text text-anchor="middle" x="2337" y="-119.5" font-family="Helvetica,sans-Serif" font-size="10.00" fill="#000000">alib/lang/report.hpp</text>
</a>
</g>
</g>
<!-- Node1&#45;&gt;Node44 -->
<g id="edge20" class="edge">
<title>Node1&#45;&gt;Node44</title>
<path fill="none" stroke="#191970" d="M1287.0425,-177.5216C1415.148,-175.4938 1880.3664,-166.0764 2262,-132 2267.023,-131.5515 2272.2262,-131.0126 2277.4425,-130.4205"/>
<polygon fill="#191970" stroke="#191970" points="2277.9316,-133.8871 2287.4461,-129.2262 2277.1017,-126.9365 2277.9316,-133.8871"/>
</g>
<!-- Node46 -->
<g id="node22" class="node">
<title>Node46</title>
<g id="a_node22"><a xlink:href="enumbitwise_8hpp.html" target="_top" xlink:title="alib/lang/enumbitwise.hpp">
<polygon fill="#ffffff" stroke="#000000" points="2416.5,-112.5 2416.5,-131.5 2545.5,-131.5 2545.5,-112.5 2416.5,-112.5"/>
<text text-anchor="middle" x="2481" y="-119.5" font-family="Helvetica,sans-Serif" font-size="10.00" fill="#000000">alib/lang/enumbitwise.hpp</text>
</a>
</g>
</g>
<!-- Node1&#45;&gt;Node46 -->
<g id="edge21" class="edge">
<title>Node1&#45;&gt;Node46</title>
<path fill="none" stroke="#191970" d="M1287.1552,-177.5653C1425.5833,-175.6046 1958.3096,-166.135 2395,-132 2398.6621,-131.7137 2402.4086,-131.391 2406.1902,-131.0414"/>
<polygon fill="#191970" stroke="#191970" points="2406.6354,-134.5147 2416.2481,-130.0596 2405.9553,-127.5478 2406.6354,-134.5147"/>
</g>
<!-- Node48 -->
<g id="node23" class="node">
<title>Node48</title>
<g id="a_node23"><a xlink:href="enummetadata_8hpp.html" target="_top" xlink:title="alib/lang/enummetadata.hpp">
<polygon fill="#ffffff" stroke="#000000" points="1664.5,-112.5 1664.5,-131.5 1803.5,-131.5 1803.5,-112.5 1664.5,-112.5"/>
<text text-anchor="middle" x="1734" y="-119.5" font-family="Helvetica,sans-Serif" font-size="10.00" fill="#000000">alib/lang/enummetadata.hpp</text>
</a>
</g>
</g>
<!-- Node1&#45;&gt;Node48 -->
<g id="edge22" class="edge">
<title>Node1&#45;&gt;Node48</title>
<path fill="none" stroke="#191970" d="M1287.1648,-174.2303C1354.9006,-166.7263 1511.2708,-149.2533 1653.9695,-132.1125"/>
<polygon fill="#191970" stroke="#191970" points="1654.7086,-135.5489 1664.2187,-130.8791 1653.8722,-128.5991 1654.7086,-135.5489"/>
</g>
<!-- Node49 -->
<g id="node24" class="node">
<title>Node49</title>
<g id="a_node24"><a xlink:href="configlib_8hpp.html" target="_top" xlink:title="alib/config/configlib.hpp">
<polygon fill="#ffffff" stroke="#000000" points="2569.5,-112.5 2569.5,-131.5 2688.5,-131.5 2688.5,-112.5 2569.5,-112.5"/>
<text text-anchor="middle" x="2629" y="-119.5" font-family="Helvetica,sans-Serif" font-size="10.00" fill="#000000">alib/config/configlib.hpp</text>
</a>
</g>
</g>
<!-- Node1&#45;&gt;Node49 -->
<g id="edge23" class="edge">
<title>Node1&#45;&gt;Node49</title>
<path fill="none" stroke="#191970" d="M1287.0724,-177.2448C1465.8675,-173.2136 2297.2568,-153.6036 2554,-132 2555.7099,-131.8561 2557.4405,-131.7009 2559.1853,-131.5358"/>
<polygon fill="#191970" stroke="#191970" points="2559.7,-135.0014 2569.2881,-130.4939 2558.9817,-128.0384 2559.7,-135.0014"/>
</g>
<!-- Node54 -->
<g id="node25" class="node">
<title>Node54</title>
<g id="a_node25"><a xlink:href="systemlib_8hpp.html" target="_top" xlink:title="alib/system/systemlib.hpp">
<polygon fill="#ffffff" stroke="#000000" points="2706.5,-112.5 2706.5,-131.5 2837.5,-131.5 2837.5,-112.5 2706.5,-112.5"/>
<text text-anchor="middle" x="2772" y="-119.5" font-family="Helvetica,sans-Serif" font-size="10.00" fill="#000000">alib/system/systemlib.hpp</text>
</a>
</g>
</g>
<!-- Node1&#45;&gt;Node54 -->
<g id="edge24" class="edge">
<title>Node1&#45;&gt;Node54</title>
<path fill="none" stroke="#191970" d="M1287.0192,-177.3916C1475.117,-173.9563 2390.0978,-156.3016 2696.0823,-132.0664"/>
<polygon fill="#191970" stroke="#191970" points="2696.5873,-135.537 2706.2708,-131.2381 2696.02,-128.56 2696.5873,-135.537"/>
</g>
<!-- Node56 -->
<g id="node26" class="node">
<title>Node56</title>
<g id="a_node26"><a xlink:href="applicables_8hpp.html" target="_top" xlink:title="alib/strings/applicables.hpp">
<polygon fill="#ffffff" stroke="#000000" points="2856,-112.5 2856,-131.5 2990,-131.5 2990,-112.5 2856,-112.5"/>
<text text-anchor="middle" x="2923" y="-119.5" font-family="Helvetica,sans-Serif" font-size="10.00" fill="#000000">alib/strings/applicables.hpp</text>
</a>
</g>
</g>
<!-- Node1&#45;&gt;Node56 -->
<g id="edge25" class="edge">
<title>Node1&#45;&gt;Node56</title>
<path fill="none" stroke="#191970" d="M1287.1697,-177.4892C1487.1034,-174.4295 2507.8744,-157.8122 2845.8614,-131.9919"/>
<polygon fill="#191970" stroke="#191970" points="2846.2063,-135.4757 2855.9026,-131.2059 2845.6599,-128.497 2846.2063,-135.4757"/>
</g>
<!-- Node9 -->
<g id="node27" class="node">
<title>Node9</title>
<polygon fill="#ffffff" stroke="#bfbfbf" points="215.5,-56.5 215.5,-75.5 266.5,-75.5 266.5,-56.5 215.5,-56.5"/>
<text text-anchor="middle" x="241" y="-63.5" font-family="Helvetica,sans-Serif" font-size="10.00" fill="#000000">typeinfo</text>
</g>
<!-- Node8&#45;&gt;Node9 -->
<g id="edge26" class="edge">
<title>Node8&#45;&gt;Node9</title>
<path fill="none" stroke="#191970" d="M561.9057,-113.5021C558.8954,-112.9733 555.9045,-112.4669 553,-112 433.2353,-92.7481 398.7236,-101.1795 276.6259,-76.0846"/>
<polygon fill="#191970" stroke="#191970" points="277.0145,-72.5903 266.51,-73.9708 275.5827,-79.4423 277.0145,-72.5903"/>
</g>
<!-- Node10 -->
<g id="node28" class="node">
<title>Node10</title>
<polygon fill="#ffffff" stroke="#bfbfbf" points="284.5,-56.5 284.5,-75.5 343.5,-75.5 343.5,-56.5 284.5,-56.5"/>
<text text-anchor="middle" x="314" y="-63.5" font-family="Helvetica,sans-Serif" font-size="10.00" fill="#000000">functional</text>
</g>
<!-- Node8&#45;&gt;Node10 -->
<g id="edge27" class="edge">
<title>Node8&#45;&gt;Node10</title>
<path fill="none" stroke="#191970" d="M561.8778,-113.6634C558.8742,-113.0962 555.8924,-112.5371 553,-112 466.9076,-96.0128 442.3305,-95.5752 353.7588,-76.2742"/>
<polygon fill="#191970" stroke="#191970" points="354.3343,-72.8172 343.8159,-74.0876 352.8307,-79.6538 354.3343,-72.8172"/>
</g>
<!-- Node11 -->
<g id="node29" class="node">
<title>Node11</title>
<polygon fill="#ffffff" stroke="#bfbfbf" points="361.5,-56.5 361.5,-75.5 444.5,-75.5 444.5,-56.5 361.5,-56.5"/>
<text text-anchor="middle" x="403" y="-63.5" font-family="Helvetica,sans-Serif" font-size="10.00" fill="#000000">unordered_map</text>
</g>
<!-- Node8&#45;&gt;Node11 -->
<g id="edge28" class="edge">
<title>Node8&#45;&gt;Node11</title>
<path fill="none" stroke="#191970" d="M570.275,-112.3733C536.2492,-102.9404 484.2563,-88.5265 447.2766,-78.2747"/>
<polygon fill="#191970" stroke="#191970" points="447.8435,-74.7999 437.2719,-75.5011 445.9734,-81.5455 447.8435,-74.7999"/>
</g>
<!-- Node13 -->
<g id="node30" class="node">
<title>Node13</title>
<polygon fill="#ffffff" stroke="#bfbfbf" points="1601,-.5 1601,-19.5 1645,-19.5 1645,-.5 1601,-.5"/>
<text text-anchor="middle" x="1623" y="-7.5" font-family="Helvetica,sans-Serif" font-size="10.00" fill="#000000">vector</text>
</g>
<!-- Node12&#45;&gt;Node13 -->
<g id="edge29" class="edge">
<title>Node12&#45;&gt;Node13</title>
<path fill="none" stroke="#191970" d="M575.6745,-56.9108C578.4862,-56.576 581.2731,-56.2693 584,-56 979.0227,-16.9851 1461.8159,-11.0555 1590.3152,-10.1588"/>
<polygon fill="#191970" stroke="#191970" points="1590.6597,-13.6568 1600.637,-10.0925 1590.6147,-6.6569 1590.6597,-13.6568"/>
</g>
<!-- Node16 -->
<g id="node31" class="node">
<title>Node16</title>
<polygon fill="#ffffff" stroke="#bfbfbf" points="745,-56.5 745,-75.5 797,-75.5 797,-56.5 745,-56.5"/>
<text text-anchor="middle" x="771" y="-63.5" font-family="Helvetica,sans-Serif" font-size="10.00" fill="#000000">memory</text>
</g>
<!-- Node15&#45;&gt;Node16 -->
<g id="edge30" class="edge">
<title>Node15&#45;&gt;Node16</title>
<path fill="none" stroke="#191970" d="M864.5746,-112.3733C846.5979,-103.4644 819.6559,-90.1127 799.291,-80.0203"/>
<polygon fill="#191970" stroke="#191970" points="800.6861,-76.8055 790.1719,-75.5011 797.5778,-83.0776 800.6861,-76.8055"/>
</g>
<!-- Node17 -->
<g id="node32" class="node">
<title>Node17</title>
<g id="a_node32"><a xlink:href="cstring_8hpp.html" target="_top" xlink:title="alib/strings/cstring.hpp">
<polygon fill="#ffffff" stroke="#ff0000" points="815.5,-56.5 815.5,-75.5 930.5,-75.5 930.5,-56.5 815.5,-56.5"/>
<text text-anchor="middle" x="873" y="-63.5" font-family="Helvetica,sans-Serif" font-size="10.00" fill="#000000">alib/strings/cstring.hpp</text>
</a>
</g>
</g>
<!-- Node15&#45;&gt;Node17 -->
<g id="edge31" class="edge">
<title>Node15&#45;&gt;Node17</title>
<path fill="none" stroke="#191970" d="M882.0839,-112.2455C880.6486,-104.9382 878.6364,-94.6944 876.8705,-85.7046"/>
<polygon fill="#191970" stroke="#191970" points="880.256,-84.7805 874.8941,-75.6427 873.3873,-86.1298 880.256,-84.7805"/>
</g>
<!-- Node21 -->
<g id="node33" class="node">
<title>Node21</title>
<g id="a_node33"><a xlink:href="string_8hpp.html" target="_top" xlink:title="alib/strings/string.hpp">
<polygon fill="#ffffff" stroke="#000000" points="949,-56.5 949,-75.5 1059,-75.5 1059,-56.5 949,-56.5"/>
<text text-anchor="middle" x="1004" y="-63.5" font-family="Helvetica,sans-Serif" font-size="10.00" fill="#000000">alib/strings/string.hpp</text>
</a>
</g>
</g>
<!-- Node15&#45;&gt;Node21 -->
<g id="edge32" class="edge">
<title>Node15&#45;&gt;Node21</title>
<path fill="none" stroke="#191970" d="M904.6287,-112.3733C923.8919,-103.3838 952.8486,-89.8706 974.5419,-79.7471"/>
<polygon fill="#191970" stroke="#191970" points="976.0587,-82.9017 983.6405,-75.5011 973.0985,-76.5584 976.0587,-82.9017"/>
</g>
<!-- Node22 -->
<g id="node34" class="node">
<title>Node22</title>
<g id="a_node34"><a xlink:href="tstring_8hpp.html" target="_top" xlink:title="alib/strings/tstring.hpp">
<polygon fill="#ffffff" stroke="#000000" points="1077.5,-56.5 1077.5,-75.5 1190.5,-75.5 1190.5,-56.5 1077.5,-56.5"/>
<text text-anchor="middle" x="1134" y="-63.5" font-family="Helvetica,sans-Serif" font-size="10.00" fill="#000000">alib/strings/tstring.hpp</text>
</a>
</g>
</g>
<!-- Node15&#45;&gt;Node22 -->
<g id="edge33" class="edge">
<title>Node15&#45;&gt;Node22</title>
<path fill="none" stroke="#191970" d="M926.6925,-112.4369C969.5679,-102.8328 1035.7005,-88.0191 1081.7002,-77.7152"/>
<polygon fill="#191970" stroke="#191970" points="1082.4905,-81.1249 1091.4836,-75.5237 1080.9604,-74.2942 1082.4905,-81.1249"/>
</g>
<!-- Node23 -->
<g id="node35" class="node">
<title>Node23</title>
<g id="a_node35"><a xlink:href="stringliteral_8hpp.html" target="_top" xlink:title="alib/strings/stringliteral.hpp">
<polygon fill="#ffffff" stroke="#000000" points="593.5,-56.5 593.5,-75.5 726.5,-75.5 726.5,-56.5 593.5,-56.5"/>
<text text-anchor="middle" x="660" y="-63.5" font-family="Helvetica,sans-Serif" font-size="10.00" fill="#000000">alib/strings/stringliteral.hpp</text>
</a>
</g>
</g>
<!-- Node15&#45;&gt;Node23 -->
<g id="edge34" class="edge">
<title>Node15&#45;&gt;Node23</title>
<path fill="none" stroke="#191970" d="M845.7475,-112.4369C807.6533,-102.9133 749.0687,-88.2672 707.9013,-77.9753"/>
<polygon fill="#191970" stroke="#191970" points="708.645,-74.5536 698.0947,-75.5237 706.9472,-81.3446 708.645,-74.5536"/>
</g>
<!-- Node25 -->
<g id="node36" class="node">
<title>Node25</title>
<polygon fill="#ffffff" stroke="#bfbfbf" points="1209,-56.5 1209,-75.5 1257,-75.5 1257,-56.5 1209,-56.5"/>
<text text-anchor="middle" x="1233" y="-63.5" font-family="Helvetica,sans-Serif" font-size="10.00" fill="#000000">stdlib.h</text>
</g>
<!-- Node24&#45;&gt;Node25 -->
<g id="edge35" class="edge">
<title>Node24&#45;&gt;Node25</title>
<path fill="none" stroke="#191970" d="M1056.5226,-112.4758C1093.4662,-103.4632 1150.1144,-89.3616 1199,-76 1199.1002,-75.9726 1199.2005,-75.9452 1199.3009,-75.9177"/>
<polygon fill="#191970" stroke="#191970" points="1200.2107,-79.2977 1208.8866,-73.2166 1198.3122,-72.56 1200.2107,-79.2977"/>
</g>
<!-- Node28 -->
<g id="node37" class="node">
<title>Node28</title>
<polygon fill="#ffffff" stroke="#bfbfbf" points="1589.5,-56.5 1589.5,-75.5 1624.5,-75.5 1624.5,-56.5 1589.5,-56.5"/>
<text text-anchor="middle" x="1607" y="-63.5" font-family="Helvetica,sans-Serif" font-size="10.00" fill="#000000">map</text>
</g>
<!-- Node27&#45;&gt;Node28 -->
<g id="edge36" class="edge">
<title>Node27&#45;&gt;Node28</title>
<path fill="none" stroke="#191970" d="M1389.6906,-112.4766C1447.1533,-102.7956 1532.3611,-87.866 1579.6516,-75.6456"/>
<polygon fill="#191970" stroke="#191970" points="1580.6839,-78.9922 1589.4231,-73.0025 1578.8561,-72.235 1580.6839,-78.9922"/>
</g>
<!-- Node29 -->
<g id="node38" class="node">
<title>Node29</title>
<g id="a_node38"><a xlink:href="memoryblocks_8hpp.html" target="_top" xlink:title="alib/util/memoryblocks.hpp">
<polygon fill="#ffffff" stroke="#000000" points="1275.5,-56.5 1275.5,-75.5 1408.5,-75.5 1408.5,-56.5 1275.5,-56.5"/>
<text text-anchor="middle" x="1342" y="-63.5" font-family="Helvetica,sans-Serif" font-size="10.00" fill="#000000">alib/util/memoryblocks.hpp</text>
</a>
</g>
</g>
<!-- Node27&#45;&gt;Node29 -->
<g id="edge37" class="edge">
<title>Node27&#45;&gt;Node29</title>
<path fill="none" stroke="#191970" d="M1333.7419,-112.2455C1335.0467,-104.9382 1336.876,-94.6944 1338.4813,-85.7046"/>
<polygon fill="#191970" stroke="#191970" points="1341.9656,-86.1022 1340.2781,-75.6427 1335.0746,-84.8717 1341.9656,-86.1022"/>
</g>
<!-- Node30 -->
<g id="node39" class="node">
<title>Node30</title>
<g id="a_node39"><a xlink:href="stringmap_8hpp.html" target="_top" xlink:title="alib/strings/util/stringmap.hpp">
<polygon fill="#ffffff" stroke="#000000" points="1427,-56.5 1427,-75.5 1571,-75.5 1571,-56.5 1427,-56.5"/>
<text text-anchor="middle" x="1499" y="-63.5" font-family="Helvetica,sans-Serif" font-size="10.00" fill="#000000">alib/strings/util/stringmap.hpp</text>
</a>
</g>
</g>
<!-- Node27&#45;&gt;Node30 -->
<g id="edge38" class="edge">
<title>Node27&#45;&gt;Node30</title>
<path fill="none" stroke="#191970" d="M1360.7083,-112.3733C1388.3577,-103.1016 1430.3576,-89.0178 1460.8166,-78.804"/>
<polygon fill="#191970" stroke="#191970" points="1462.2979,-81.9989 1470.6663,-75.5011 1460.0724,-75.3621 1462.2979,-81.9989"/>
</g>
<!-- Node34 -->
<g id="node40" class="node">
<title>Node34</title>
<polygon fill="#ffffff" stroke="#bfbfbf" points="1642.5,-56.5 1642.5,-75.5 1691.5,-75.5 1691.5,-56.5 1642.5,-56.5"/>
<text text-anchor="middle" x="1667" y="-63.5" font-family="Helvetica,sans-Serif" font-size="10.00" fill="#000000">string.h</text>
</g>
<!-- Node33&#45;&gt;Node34 -->
<g id="edge40" class="edge">
<title>Node33&#45;&gt;Node34</title>
<path fill="none" stroke="#191970" d="M2130.4525,-113.1225C2127.2577,-112.7271 2124.0923,-112.35 2121,-112 1938.1101,-91.2978 1886.9171,-109.9267 1701.8088,-75.7846"/>
<polygon fill="#191970" stroke="#191970" points="1702.2156,-72.3001 1691.7424,-73.9007 1700.9279,-79.1806 1702.2156,-72.3001"/>
</g>
<!-- Node35 -->
<g id="node41" class="node">
<title>Node35</title>
<g id="a_node41"><a xlink:href="interface_8hpp.html" target="_top" xlink:title="alib/boxing/interface.hpp">
<polygon fill="#ffffff" stroke="#000000" points="1710,-56.5 1710,-75.5 1832,-75.5 1832,-56.5 1710,-56.5"/>
<text text-anchor="middle" x="1771" y="-63.5" font-family="Helvetica,sans-Serif" font-size="10.00" fill="#000000">alib/boxing/interface.hpp</text>
</a>
</g>
</g>
<!-- Node33&#45;&gt;Node35 -->
<g id="edge41" class="edge">
<title>Node33&#45;&gt;Node35</title>
<path fill="none" stroke="#191970" d="M2130.4327,-113.2823C2127.243,-112.8451 2124.0842,-112.4154 2121,-112 1999.8115,-95.6755 1966.9799,-93.0024 1842.0325,-76.1251"/>
<polygon fill="#191970" stroke="#191970" points="1842.4557,-72.6505 1832.0764,-74.7766 1841.5161,-79.5872 1842.4557,-72.6505"/>
</g>
<!-- Node36 -->
<g id="node42" class="node">
<title>Node36</title>
<g id="a_node42"><a xlink:href="boxer_8hpp.html" target="_top" xlink:title="alib/boxing/boxer.hpp">
<polygon fill="#ffffff" stroke="#ff0000" points="1850,-56.5 1850,-75.5 1958,-75.5 1958,-56.5 1850,-56.5"/>
<text text-anchor="middle" x="1904" y="-63.5" font-family="Helvetica,sans-Serif" font-size="10.00" fill="#000000">alib/boxing/boxer.hpp</text>
</a>
</g>
</g>
<!-- Node33&#45;&gt;Node36 -->
<g id="edge42" class="edge">
<title>Node33&#45;&gt;Node36</title>
<path fill="none" stroke="#191970" d="M2142.8183,-112.4369C2093.0116,-102.7522 2015.9615,-87.7703 1962.9212,-77.4569"/>
<polygon fill="#191970" stroke="#191970" points="1963.4631,-73.9968 1952.9789,-75.5237 1962.127,-80.8681 1963.4631,-73.9968"/>
</g>
<!-- Node38 -->
<g id="node43" class="node">
<title>Node38</title>
<g id="a_node43"><a xlink:href="box_8hpp.html" target="_top" xlink:title="alib/boxing/box.hpp">
<polygon fill="#ffffff" stroke="#ff0000" points="1976.5,-56.5 1976.5,-75.5 2077.5,-75.5 2077.5,-56.5 1976.5,-56.5"/>
<text text-anchor="middle" x="2027" y="-63.5" font-family="Helvetica,sans-Serif" font-size="10.00" fill="#000000">alib/boxing/box.hpp</text>
</a>
</g>
</g>
<!-- Node33&#45;&gt;Node38 -->
<g id="edge43" class="edge">
<title>Node33&#45;&gt;Node38</title>
<path fill="none" stroke="#191970" d="M2163.6355,-112.3733C2136.3173,-103.1016 2094.8204,-89.0178 2064.7262,-78.804"/>
<polygon fill="#191970" stroke="#191970" points="2065.5887,-75.4008 2054.9944,-75.5011 2063.339,-82.0294 2065.5887,-75.4008"/>
</g>
<!-- Node39 -->
<g id="node44" class="node">
<title>Node39</title>
<g id="a_node44"><a xlink:href="boxes_8hpp.html" target="_top" xlink:title="alib/boxing/boxes.hpp">
<polygon fill="#ffffff" stroke="#ff0000" points="2095.5,-56.5 2095.5,-75.5 2206.5,-75.5 2206.5,-56.5 2095.5,-56.5"/>
<text text-anchor="middle" x="2151" y="-63.5" font-family="Helvetica,sans-Serif" font-size="10.00" fill="#000000">alib/boxing/boxes.hpp</text>
</a>
</g>
</g>
<!-- Node33&#45;&gt;Node39 -->
<g id="edge44" class="edge">
<title>Node33&#45;&gt;Node39</title>
<path fill="none" stroke="#191970" d="M2184.8583,-112.2455C2179.1556,-104.4564 2171.01,-93.3308 2164.1375,-83.9439"/>
<polygon fill="#191970" stroke="#191970" points="2166.7913,-81.6437 2158.0598,-75.6427 2161.1432,-85.7789 2166.7913,-81.6437"/>
</g>
<!-- Node40 -->
<g id="node45" class="node">
<title>Node40</title>
<g id="a_node45"><a xlink:href="interface__builtin_8hpp.html" target="_top" xlink:title="alib/boxing/interface_builtin.hpp">
<polygon fill="#ffffff" stroke="#000000" points="2224.5,-56.5 2224.5,-75.5 2377.5,-75.5 2377.5,-56.5 2224.5,-56.5"/>
<text text-anchor="middle" x="2301" y="-63.5" font-family="Helvetica,sans-Serif" font-size="10.00" fill="#000000">alib/boxing/interface_builtin.hpp</text>
</a>
</g>
</g>
<!-- Node33&#45;&gt;Node40 -->
<g id="edge45" class="edge">
<title>Node33&#45;&gt;Node40</title>
<path fill="none" stroke="#191970" d="M2210.9864,-112.2455C2228.1792,-103.4125 2253.7238,-90.2887 2273.2132,-80.2758"/>
<polygon fill="#191970" stroke="#191970" points="2274.9359,-83.3257 2282.2312,-75.6427 2271.737,-77.0993 2274.9359,-83.3257"/>
</g>
<!-- Node41 -->
<g id="node46" class="node">
<title>Node41</title>
<g id="a_node46"><a xlink:href="ftypes_8hpp.html" target="_top" xlink:title="alib/boxing/ftypes.hpp">
<polygon fill="#ffffff" stroke="#ff0000" points="2396,-56.5 2396,-75.5 2508,-75.5 2508,-56.5 2396,-56.5"/>
<text text-anchor="middle" x="2452" y="-63.5" font-family="Helvetica,sans-Serif" font-size="10.00" fill="#000000">alib/boxing/ftypes.hpp</text>
</a>
</g>
</g>
<!-- Node33&#45;&gt;Node41 -->
<g id="edge46" class="edge">
<title>Node33&#45;&gt;Node41</title>
<path fill="none" stroke="#191970" d="M2236.4002,-112.4369C2281.0841,-102.8127 2350.057,-87.957 2397.9088,-77.6504"/>
<polygon fill="#191970" stroke="#191970" points="2398.7441,-81.0508 2407.783,-75.5237 2397.2702,-74.2078 2398.7441,-81.0508"/>
</g>
<!-- Node45 -->
<g id="node47" class="node">
<title>Node45</title>
<polygon fill="#ffffff" stroke="#bfbfbf" points="2526.5,-56.5 2526.5,-75.5 2567.5,-75.5 2567.5,-56.5 2526.5,-56.5"/>
<text text-anchor="middle" x="2547" y="-63.5" font-family="Helvetica,sans-Serif" font-size="10.00" fill="#000000">stack</text>
</g>
<!-- Node44&#45;&gt;Node45 -->
<g id="edge49" class="edge">
<title>Node44&#45;&gt;Node45</title>
<path fill="none" stroke="#191970" d="M2377.6169,-112.4992C2412.1728,-104.2197 2463.301,-91.5089 2516.7541,-75.9195"/>
<polygon fill="#191970" stroke="#191970" points="2517.7986,-79.2606 2526.4044,-73.0807 2515.8231,-72.5451 2517.7986,-79.2606"/>
</g>
<!-- Node47 -->
<g id="node48" class="node">
<title>Node47</title>
<g id="a_node48"><a xlink:href="enumarithmetical_8hpp.html" target="_top" xlink:title="enumarithmetical.hpp">
<polygon fill="#ffffff" stroke="#000000" points="2586,-56.5 2586,-75.5 2696,-75.5 2696,-56.5 2586,-56.5"/>
<text text-anchor="middle" x="2641" y="-63.5" font-family="Helvetica,sans-Serif" font-size="10.00" fill="#000000">enumarithmetical.hpp</text>
</a>
</g>
</g>
<!-- Node46&#45;&gt;Node47 -->
<g id="edge50" class="edge">
<title>Node46&#45;&gt;Node47</title>
<path fill="none" stroke="#191970" d="M2508.505,-112.3733C2534.8802,-103.1419 2574.8851,-89.1402 2604.0358,-78.9375"/>
<polygon fill="#191970" stroke="#191970" points="2605.5716,-82.1082 2613.8539,-75.5011 2603.2591,-75.5012 2605.5716,-82.1082"/>
</g>
<!-- Node48&#45;&gt;Node28 -->
<g id="edge51" class="edge">
<title>Node48&#45;&gt;Node28</title>
<path fill="none" stroke="#191970" d="M1712.1679,-112.3733C1690.5727,-102.851 1657.4661,-88.2528 1634.1786,-77.9843"/>
<polygon fill="#191970" stroke="#191970" points="1635.4237,-74.7082 1624.8616,-73.876 1632.5995,-81.1132 1635.4237,-74.7082"/>
</g>
<!-- Node49&#45;&gt;Node47 -->
<g id="edge52" class="edge">
<title>Node49&#45;&gt;Node47</title>
<path fill="none" stroke="#191970" d="M2631.0902,-112.2455C2632.6561,-104.9382 2634.8512,-94.6944 2636.7776,-85.7046"/>
<polygon fill="#191970" stroke="#191970" points="2640.2607,-86.1541 2638.9337,-75.6427 2633.416,-84.6873 2640.2607,-86.1541"/>
</g>
<!-- Node50 -->
<g id="node49" class="node">
<title>Node50</title>
<g id="a_node49"><a xlink:href="exception_8hpp.html" target="_top" xlink:title="alib/lang/exception.hpp">
<polygon fill="#ffffff" stroke="#ff0000" points="2714,-56.5 2714,-75.5 2830,-75.5 2830,-56.5 2714,-56.5"/>
<text text-anchor="middle" x="2772" y="-63.5" font-family="Helvetica,sans-Serif" font-size="10.00" fill="#000000">alib/lang/exception.hpp</text>
</a>
</g>
</g>
<!-- Node49&#45;&gt;Node50 -->
<g id="edge53" class="edge">
<title>Node49&#45;&gt;Node50</title>
<path fill="none" stroke="#191970" d="M2653.5826,-112.3733C2676.9496,-103.2226 2712.2862,-89.3844 2738.2784,-79.2057"/>
<polygon fill="#191970" stroke="#191970" points="2739.703,-82.4066 2747.7382,-75.5011 2737.1505,-75.8886 2739.703,-82.4066"/>
</g>
<!-- Node54&#45;&gt;Node50 -->
<g id="edge54" class="edge">
<title>Node54&#45;&gt;Node50</title>
<path fill="none" stroke="#191970" d="M2772,-112.2455C2772,-104.9382 2772,-94.6944 2772,-85.7046"/>
<polygon fill="#191970" stroke="#191970" points="2775.5001,-85.6426 2772,-75.6427 2768.5001,-85.6427 2775.5001,-85.6426"/>
</g>
<!-- Node55 -->
<g id="node50" class="node">
<title>Node55</title>
<polygon fill="#ffffff" stroke="#bfbfbf" points="2848.5,-56.5 2848.5,-75.5 2895.5,-75.5 2895.5,-56.5 2848.5,-56.5"/>
<text text-anchor="middle" x="2872" y="-63.5" font-family="Helvetica,sans-Serif" font-size="10.00" fill="#000000">errno.h</text>
</g>
<!-- Node54&#45;&gt;Node55 -->
<g id="edge55" class="edge">
<title>Node54&#45;&gt;Node55</title>
<path fill="none" stroke="#191970" d="M2789.4187,-112.2455C2805.0485,-103.4928 2828.2019,-90.527 2846.0185,-80.5496"/>
<polygon fill="#191970" stroke="#191970" points="2847.766,-83.5825 2854.7809,-75.6427 2844.3457,-77.475 2847.766,-83.5825"/>
</g>
<!-- Node29&#45;&gt;Node13 -->
<g id="edge39" class="edge">
<title>Node29&#45;&gt;Node13</title>
<path fill="none" stroke="#191970" d="M1389.9863,-56.4369C1447.2326,-45.0284 1541.3652,-26.2689 1590.6374,-16.4495"/>
<polygon fill="#191970" stroke="#191970" points="1591.6035,-19.8259 1600.7266,-14.4388 1590.2353,-12.9609 1591.6035,-19.8259"/>
</g>
<!-- Node36&#45;&gt;Node13 -->
<g id="edge47" class="edge">
<title>Node36&#45;&gt;Node13</title>
<path fill="none" stroke="#191970" d="M1856.0137,-56.4369C1798.7674,-45.0284 1704.6348,-26.2689 1655.3626,-16.4495"/>
<polygon fill="#191970" stroke="#191970" points="1655.7647,-12.9609 1645.2734,-14.4388 1654.3965,-19.8259 1655.7647,-12.9609"/>
</g>
<!-- Node39&#45;&gt;Node13 -->
<g id="edge48" class="edge">
<title>Node39&#45;&gt;Node13</title>
<path fill="none" stroke="#191970" d="M2095.3583,-57.239C2092.1946,-56.8034 2089.0583,-56.3869 2086,-56 1924.833,-35.6113 1731.1498,-18.8681 1655.5016,-12.6255"/>
<polygon fill="#191970" stroke="#191970" points="1655.4675,-9.111 1645.2148,-11.7814 1654.895,-16.0876 1655.4675,-9.111"/>
</g>
</g>
</svg>
