<?xml version="1.0" encoding="UTF-8" standalone="no"?>
<!DOCTYPE svg PUBLIC "-//W3C//DTD SVG 1.1//EN"
 "http://www.w3.org/Graphics/SVG/1.1/DTD/svg11.dtd">
<!-- Generated by graphviz version 2.40.1 (20161225.0304)
 -->
<!-- Title: plugincontainer.hpp Pages: 1 -->
<svg width="625pt" height="196pt"
 viewBox="0.00 0.00 625.00 196.00" xmlns="http://www.w3.org/2000/svg" xmlns:xlink="http://www.w3.org/1999/xlink">
<g id="graph0" class="graph" transform="scale(1 1) rotate(0) translate(4 192)">
<title>plugincontainer.hpp</title>
<polygon fill="#ffffff" stroke="transparent" points="-4,4 -4,-192 621,-192 621,4 -4,4"/>
<!-- Node0 -->
<g id="node1" class="node">
<title>Node0</title>
<polygon fill="#bfbfbf" stroke="#000000" points="327,-168.5 327,-187.5 427,-187.5 427,-168.5 327,-168.5"/>
<text text-anchor="middle" x="377" y="-175.5" font-family="Helvetica,sans-Serif" font-size="10.00" fill="#000000">plugincontainer.hpp</text>
</g>
<!-- Node1 -->
<g id="node2" class="node">
<title>Node1</title>
<g id="a_node2"><a xlink:href="enumbitwise_8hpp.html" target="_top" xlink:title="alib/lang/enumbitwise.hpp">
<polygon fill="#ffffff" stroke="#000000" points="410.5,-56.5 410.5,-75.5 539.5,-75.5 539.5,-56.5 410.5,-56.5"/>
<text text-anchor="middle" x="475" y="-63.5" font-family="Helvetica,sans-Serif" font-size="10.00" fill="#000000">alib/lang/enumbitwise.hpp</text>
</a>
</g>
</g>
<!-- Node0&#45;&gt;Node1 -->
<g id="edge1" class="edge">
<title>Node0&#45;&gt;Node1</title>
<path fill="none" stroke="#191970" d="M366.5037,-168.4814C353.0745,-155.1307 333.015,-130.4161 346,-112 355.3035,-98.8051 391.0381,-86.6647 422.5433,-78.1731"/>
<polygon fill="#191970" stroke="#191970" points="423.7955,-81.4635 432.5849,-75.5476 422.0247,-74.6911 423.7955,-81.4635"/>
</g>
<!-- Node3 -->
<g id="node3" class="node">
<title>Node3</title>
<g id="a_node3"><a xlink:href="threadlock_8hpp.html" target="_top" xlink:title="alib/threads/threadlock.hpp">
<polygon fill="#ffffff" stroke="#000000" points="165,-112.5 165,-131.5 299,-131.5 299,-112.5 165,-112.5"/>
<text text-anchor="middle" x="232" y="-119.5" font-family="Helvetica,sans-Serif" font-size="10.00" fill="#000000">alib/threads/threadlock.hpp</text>
</a>
</g>
</g>
<!-- Node0&#45;&gt;Node3 -->
<g id="edge2" class="edge">
<title>Node0&#45;&gt;Node3</title>
<path fill="none" stroke="#191970" d="M352.0736,-168.3733C328.3798,-159.2226 292.5489,-145.3844 266.1932,-135.2057"/>
<polygon fill="#191970" stroke="#191970" points="267.1906,-131.8389 256.6011,-131.5011 264.6686,-138.3689 267.1906,-131.8389"/>
</g>
<!-- Node18 -->
<g id="node4" class="node">
<title>Node18</title>
<polygon fill="#ffffff" stroke="#bfbfbf" points="355,-112.5 355,-131.5 399,-131.5 399,-112.5 355,-112.5"/>
<text text-anchor="middle" x="377" y="-119.5" font-family="Helvetica,sans-Serif" font-size="10.00" fill="#000000">vector</text>
</g>
<!-- Node0&#45;&gt;Node18 -->
<g id="edge3" class="edge">
<title>Node0&#45;&gt;Node18</title>
<path fill="none" stroke="#191970" d="M377,-168.2455C377,-160.9382 377,-150.6944 377,-141.7046"/>
<polygon fill="#191970" stroke="#191970" points="380.5001,-141.6426 377,-131.6427 373.5001,-141.6427 380.5001,-141.6426"/>
</g>
<!-- Node64 -->
<g id="node5" class="node">
<title>Node64</title>
<g id="a_node5"><a xlink:href="substring_8hpp.html" target="_top" xlink:title="alib/strings/substring.hpp">
<polygon fill="#ffffff" stroke="#000000" points="417.5,-112.5 417.5,-131.5 542.5,-131.5 542.5,-112.5 417.5,-112.5"/>
<text text-anchor="middle" x="480" y="-119.5" font-family="Helvetica,sans-Serif" font-size="10.00" fill="#000000">alib/strings/substring.hpp</text>
</a>
</g>
</g>
<!-- Node0&#45;&gt;Node64 -->
<g id="edge4" class="edge">
<title>Node0&#45;&gt;Node64</title>
<path fill="none" stroke="#191970" d="M394.9412,-168.2455C411.04,-159.4928 434.8879,-146.527 453.2391,-136.5496"/>
<polygon fill="#191970" stroke="#191970" points="455.1507,-139.4942 462.2644,-131.6427 451.8071,-133.3444 455.1507,-139.4942"/>
</g>
<!-- Node65 -->
<g id="node6" class="node">
<title>Node65</title>
<polygon fill="#ffffff" stroke="#bfbfbf" points="561,-112.5 561,-131.5 617,-131.5 617,-112.5 561,-112.5"/>
<text text-anchor="middle" x="589" y="-119.5" font-family="Helvetica,sans-Serif" font-size="10.00" fill="#000000">algorithm</text>
</g>
<!-- Node0&#45;&gt;Node65 -->
<g id="edge5" class="edge">
<title>Node0&#45;&gt;Node65</title>
<path fill="none" stroke="#191970" d="M413.5535,-168.4703C446.8954,-159.7604 497.789,-146.422 550.8037,-132.3074"/>
<polygon fill="#191970" stroke="#191970" points="551.9622,-135.6209 560.7237,-129.6638 550.1596,-128.857 551.9622,-135.6209"/>
</g>
<!-- Node2 -->
<g id="node7" class="node">
<title>Node2</title>
<g id="a_node7"><a xlink:href="enumarithmetical_8hpp.html" target="_top" xlink:title="enumarithmetical.hpp">
<polygon fill="#ffffff" stroke="#000000" points="420,-.5 420,-19.5 530,-19.5 530,-.5 420,-.5"/>
<text text-anchor="middle" x="475" y="-7.5" font-family="Helvetica,sans-Serif" font-size="10.00" fill="#000000">enumarithmetical.hpp</text>
</a>
</g>
</g>
<!-- Node1&#45;&gt;Node2 -->
<g id="edge6" class="edge">
<title>Node1&#45;&gt;Node2</title>
<path fill="none" stroke="#191970" d="M475,-56.2455C475,-48.9382 475,-38.6944 475,-29.7046"/>
<polygon fill="#191970" stroke="#191970" points="478.5001,-29.6426 475,-19.6427 471.5001,-29.6427 478.5001,-29.6426"/>
</g>
<!-- Node4 -->
<g id="node8" class="node">
<title>Node4</title>
<g id="a_node8"><a xlink:href="threadlocknr_8hpp.html" target="_top" xlink:title="alib/threads/threadlocknr.hpp">
<polygon fill="#ffffff" stroke="#000000" points="58.5,-56.5 58.5,-75.5 199.5,-75.5 199.5,-56.5 58.5,-56.5"/>
<text text-anchor="middle" x="129" y="-63.5" font-family="Helvetica,sans-Serif" font-size="10.00" fill="#000000">alib/threads/threadlocknr.hpp</text>
</a>
</g>
</g>
<!-- Node3&#45;&gt;Node4 -->
<g id="edge7" class="edge">
<title>Node3&#45;&gt;Node4</title>
<path fill="none" stroke="#191970" d="M214.0588,-112.2455C197.96,-103.4928 174.1121,-90.527 155.7609,-80.5496"/>
<polygon fill="#191970" stroke="#191970" points="157.1929,-77.3444 146.7356,-75.6427 153.8493,-83.4942 157.1929,-77.3444"/>
</g>
<!-- Node61 -->
<g id="node9" class="node">
<title>Node61</title>
<g id="a_node9"><a xlink:href="threadlib_8hpp.html" target="_top" xlink:title="threadlib.hpp">
<polygon fill="#ffffff" stroke="#000000" points="218,-56.5 218,-75.5 290,-75.5 290,-56.5 218,-56.5"/>
<text text-anchor="middle" x="254" y="-63.5" font-family="Helvetica,sans-Serif" font-size="10.00" fill="#000000">threadlib.hpp</text>
</a>
</g>
</g>
<!-- Node3&#45;&gt;Node61 -->
<g id="edge8" class="edge">
<title>Node3&#45;&gt;Node61</title>
<path fill="none" stroke="#191970" d="M235.8321,-112.2455C238.7659,-104.7776 242.9047,-94.2427 246.491,-85.1137"/>
<polygon fill="#191970" stroke="#191970" points="249.8129,-86.23 250.2118,-75.6427 243.2976,-83.6704 249.8129,-86.23"/>
</g>
<!-- Node64&#45;&gt;Node1 -->
<g id="edge15" class="edge">
<title>Node64&#45;&gt;Node1</title>
<path fill="none" stroke="#191970" d="M479.1291,-112.2455C478.4766,-104.9382 477.562,-94.6944 476.7593,-85.7046"/>
<polygon fill="#191970" stroke="#191970" points="480.2365,-85.2918 475.861,-75.6427 473.2642,-85.9143 480.2365,-85.2918"/>
</g>
<!-- Node5 -->
<g id="node10" class="node">
<title>Node5</title>
<g id="a_node10"><a xlink:href="owner_8hpp.html" target="_top" xlink:title="alib/lang/owner.hpp">
<polygon fill="#ffffff" stroke="#ff0000" points="0,-.5 0,-19.5 100,-19.5 100,-.5 0,-.5"/>
<text text-anchor="middle" x="50" y="-7.5" font-family="Helvetica,sans-Serif" font-size="10.00" fill="#000000">alib/lang/owner.hpp</text>
</a>
</g>
</g>
<!-- Node4&#45;&gt;Node5 -->
<g id="edge9" class="edge">
<title>Node4&#45;&gt;Node5</title>
<path fill="none" stroke="#191970" d="M115.2393,-56.2455C103.3448,-47.814 85.935,-35.4729 72.0915,-25.6598"/>
<polygon fill="#191970" stroke="#191970" points="73.7854,-22.5704 63.6031,-19.6427 69.7372,-28.2811 73.7854,-22.5704"/>
</g>
<!-- Node60 -->
<g id="node11" class="node">
<title>Node60</title>
<polygon fill="#ffffff" stroke="#bfbfbf" points="118,-.5 118,-19.5 162,-19.5 162,-.5 118,-.5"/>
<text text-anchor="middle" x="140" y="-7.5" font-family="Helvetica,sans-Serif" font-size="10.00" fill="#000000">mutex</text>
</g>
<!-- Node4&#45;&gt;Node60 -->
<g id="edge10" class="edge">
<title>Node4&#45;&gt;Node60</title>
<path fill="none" stroke="#191970" d="M130.9161,-56.2455C132.3514,-48.9382 134.3636,-38.6944 136.1295,-29.7046"/>
<polygon fill="#191970" stroke="#191970" points="139.6127,-30.1298 138.1059,-19.6427 132.744,-28.7805 139.6127,-30.1298"/>
</g>
<!-- Node61&#45;&gt;Node60 -->
<g id="edge12" class="edge">
<title>Node61&#45;&gt;Node60</title>
<path fill="none" stroke="#191970" d="M234.4027,-56.3733C216.2669,-47.4644 189.0865,-34.1127 168.5413,-24.0203"/>
<polygon fill="#191970" stroke="#191970" points="169.8603,-20.7688 159.3416,-19.5011 166.7739,-27.0517 169.8603,-20.7688"/>
</g>
<!-- Node33 -->
<g id="node12" class="node">
<title>Node33</title>
<polygon fill="#ffffff" stroke="#bfbfbf" points="242.5,-.5 242.5,-19.5 277.5,-19.5 277.5,-.5 242.5,-.5"/>
<text text-anchor="middle" x="260" y="-7.5" font-family="Helvetica,sans-Serif" font-size="10.00" fill="#000000">map</text>
</g>
<!-- Node61&#45;&gt;Node33 -->
<g id="edge11" class="edge">
<title>Node61&#45;&gt;Node33</title>
<path fill="none" stroke="#191970" d="M255.0451,-56.2455C255.828,-48.9382 256.9256,-38.6944 257.8888,-29.7046"/>
<polygon fill="#191970" stroke="#191970" points="261.3815,-29.9587 258.9669,-19.6427 254.4214,-29.2129 261.3815,-29.9587"/>
</g>
<!-- Node62 -->
<g id="node13" class="node">
<title>Node62</title>
<polygon fill="#ffffff" stroke="#bfbfbf" points="295.5,-.5 295.5,-19.5 390.5,-19.5 390.5,-.5 295.5,-.5"/>
<text text-anchor="middle" x="343" y="-7.5" font-family="Helvetica,sans-Serif" font-size="10.00" fill="#000000">condition_variable</text>
</g>
<!-- Node61&#45;&gt;Node62 -->
<g id="edge13" class="edge">
<title>Node61&#45;&gt;Node62</title>
<path fill="none" stroke="#191970" d="M269.5026,-56.2455C283.158,-47.6534 303.2657,-35.0014 318.9989,-25.1018"/>
<polygon fill="#191970" stroke="#191970" points="321.0751,-27.9307 327.675,-19.6427 317.3471,-22.006 321.0751,-27.9307"/>
</g>
<!-- Node63 -->
<g id="node14" class="node">
<title>Node63</title>
<polygon fill="#ffffff" stroke="#bfbfbf" points="180,-.5 180,-19.5 224,-19.5 224,-.5 180,-.5"/>
<text text-anchor="middle" x="202" y="-7.5" font-family="Helvetica,sans-Serif" font-size="10.00" fill="#000000">thread</text>
</g>
<!-- Node61&#45;&gt;Node63 -->
<g id="edge14" class="edge">
<title>Node61&#45;&gt;Node63</title>
<path fill="none" stroke="#191970" d="M244.9423,-56.2455C237.4858,-48.2155 226.7366,-36.6394 217.8583,-27.0781"/>
<polygon fill="#191970" stroke="#191970" points="220.3232,-24.589 210.9539,-19.6427 215.1937,-29.3522 220.3232,-24.589"/>
</g>
</g>
</svg>
