<?xml version="1.0" encoding="UTF-8" standalone="no"?>
<!DOCTYPE svg PUBLIC "-//W3C//DTD SVG 1.1//EN"
 "http://www.w3.org/Graphics/SVG/1.1/DTD/svg11.dtd">
<!-- Generated by graphviz version 2.40.1 (20161225.0304)
 -->
<!-- Title: plugins.hpp Pages: 1 -->
<svg width="1211pt" height="476pt"
 viewBox="0.00 0.00 1210.64 476.00" xmlns="http://www.w3.org/2000/svg" xmlns:xlink="http://www.w3.org/1999/xlink">
<g id="graph0" class="graph" transform="scale(1 1) rotate(0) translate(4 472)">
<title>plugins.hpp</title>
<polygon fill="#ffffff" stroke="transparent" points="-4,4 -4,-472 1206.643,-472 1206.643,4 -4,4"/>
<!-- Node10 -->
<g id="node1" class="node">
<title>Node10</title>
<polygon fill="#bfbfbf" stroke="#000000" points="577.643,-448.5 577.643,-467.5 643.643,-467.5 643.643,-448.5 577.643,-448.5"/>
<text text-anchor="middle" x="610.643" y="-455.5" font-family="Helvetica,sans-Serif" font-size="10.00" fill="#000000">plugins.hpp</text>
</g>
<!-- Node11 -->
<g id="node2" class="node">
<title>Node11</title>
<g id="a_node2"><a xlink:href="configuration_8hpp.html" target="_top" xlink:title="configuration.hpp">
<polygon fill="#ffffff" stroke="#000000" points="525.143,-336.5 525.143,-355.5 616.143,-355.5 616.143,-336.5 525.143,-336.5"/>
<text text-anchor="middle" x="570.643" y="-343.5" font-family="Helvetica,sans-Serif" font-size="10.00" fill="#000000">configuration.hpp</text>
</a>
</g>
</g>
<!-- Node10&#45;&gt;Node11 -->
<g id="edge1" class="edge">
<title>Node10&#45;&gt;Node11</title>
<path fill="none" stroke="#191970" d="M601.3073,-439.2203C597.4132,-430.9848 593.0207,-421.1317 589.643,-412 582.3627,-392.3176 576.1124,-368.5032 572.9169,-355.5413"/>
<polygon fill="#191970" stroke="#191970" points="598.199,-440.8322 605.7082,-448.3063 604.4989,-437.7807 598.199,-440.8322"/>
</g>
<!-- Node39 -->
<g id="node3" class="node">
<title>Node39</title>
<g id="a_node3"><a xlink:href="inmemoryplugin_8hpp.html" target="_top" xlink:title="inmemoryplugin.hpp">
<polygon fill="#ffffff" stroke="#000000" points="598.643,-392.5 598.643,-411.5 702.643,-411.5 702.643,-392.5 598.643,-392.5"/>
<text text-anchor="middle" x="650.643" y="-399.5" font-family="Helvetica,sans-Serif" font-size="10.00" fill="#000000">inmemoryplugin.hpp</text>
</a>
</g>
</g>
<!-- Node10&#45;&gt;Node39 -->
<g id="edge2" class="edge">
<title>Node10&#45;&gt;Node39</title>
<path fill="none" stroke="#191970" d="M623.5566,-439.9209C630.2733,-430.5176 638.2147,-419.3997 643.7554,-411.6427"/>
<polygon fill="#191970" stroke="#191970" points="620.5748,-438.0738 617.6105,-448.2455 626.271,-442.1425 620.5748,-438.0738"/>
</g>
<!-- Node12 -->
<g id="node4" class="node">
<title>Node12</title>
<g id="a_node4"><a xlink:href="alox_2alox_8hpp.html" target="_top" xlink:title="alox.hpp">
<polygon fill="#ffffff" stroke="#000000" points="509.143,-280.5 509.143,-299.5 562.143,-299.5 562.143,-280.5 509.143,-280.5"/>
<text text-anchor="middle" x="535.643" y="-287.5" font-family="Helvetica,sans-Serif" font-size="10.00" fill="#000000">alox.hpp</text>
</a>
</g>
</g>
<!-- Node11&#45;&gt;Node12 -->
<g id="edge3" class="edge">
<title>Node11&#45;&gt;Node12</title>
<path fill="none" stroke="#191970" d="M559.1615,-327.6296C553.3234,-318.2887 546.4678,-307.3197 541.6697,-299.6427"/>
<polygon fill="#191970" stroke="#191970" points="556.2784,-329.6206 564.5465,-336.2455 562.2144,-325.9105 556.2784,-329.6206"/>
</g>
<!-- Node14 -->
<g id="node5" class="node">
<title>Node14</title>
<g id="a_node5"><a xlink:href="lox_8hpp.html" target="_top" xlink:title="lox.hpp">
<polygon fill="#ffffff" stroke="#000000" points="106.643,-168.5 106.643,-187.5 154.643,-187.5 154.643,-168.5 106.643,-168.5"/>
<text text-anchor="middle" x="130.643" y="-175.5" font-family="Helvetica,sans-Serif" font-size="10.00" fill="#000000">lox.hpp</text>
</a>
</g>
</g>
<!-- Node11&#45;&gt;Node14 -->
<g id="edge4" class="edge">
<title>Node11&#45;&gt;Node14</title>
<path fill="none" stroke="#191970" d="M514.601,-344.5967C385.072,-340.0514 71.0835,-321.14 6.643,-244 -23.5322,-207.878 62.2696,-188.7085 106.3276,-181.4611"/>
<polygon fill="#191970" stroke="#191970" points="514.5984,-348.0985 524.71,-344.9353 514.8327,-341.1024 514.5984,-348.0985"/>
</g>
<!-- Node30 -->
<g id="node6" class="node">
<title>Node30</title>
<g id="a_node6"><a xlink:href="compiler_8hpp_source.html" target="_top" xlink:title="compiler.hpp">
<polygon fill="#ffffff" stroke="#000000" points="580.143,-280.5 580.143,-299.5 651.143,-299.5 651.143,-280.5 580.143,-280.5"/>
<text text-anchor="middle" x="615.643" y="-287.5" font-family="Helvetica,sans-Serif" font-size="10.00" fill="#000000">compiler.hpp</text>
</a>
</g>
</g>
<!-- Node11&#45;&gt;Node30 -->
<g id="edge5" class="edge">
<title>Node11&#45;&gt;Node30</title>
<path fill="none" stroke="#191970" d="M584.9376,-328.2112C592.5426,-318.7472 601.5969,-307.4797 607.8944,-299.6427"/>
<polygon fill="#191970" stroke="#191970" points="582.0171,-326.2581 578.4814,-336.2455 587.4736,-330.6428 582.0171,-326.2581"/>
</g>
<!-- Node39&#45;&gt;Node11 -->
<g id="edge43" class="edge">
<title>Node39&#45;&gt;Node11</title>
<path fill="none" stroke="#191970" d="M628.4859,-386.49C614.371,-376.6096 596.5279,-364.1194 584.4183,-355.6427"/>
<polygon fill="#191970" stroke="#191970" points="626.5086,-389.3782 636.7081,-392.2455 630.5229,-383.6436 626.5086,-389.3782"/>
</g>
<!-- Node40 -->
<g id="node24" class="node">
<title>Node40</title>
<g id="a_node24"><a xlink:href="inifile_8hpp.html" target="_top" xlink:title="inifile.hpp">
<polygon fill="#ffffff" stroke="#000000" points="652.643,-336.5 652.643,-355.5 710.643,-355.5 710.643,-336.5 652.643,-336.5"/>
<text text-anchor="middle" x="681.643" y="-343.5" font-family="Helvetica,sans-Serif" font-size="10.00" fill="#000000">inifile.hpp</text>
</a>
</g>
</g>
<!-- Node39&#45;&gt;Node40 -->
<g id="edge44" class="edge">
<title>Node39&#45;&gt;Node40</title>
<path fill="none" stroke="#191970" d="M660.9742,-383.3372C666.1095,-374.0605 672.0996,-363.2398 676.3051,-355.6427"/>
<polygon fill="#191970" stroke="#191970" points="657.8239,-381.8015 656.0428,-392.2455 663.9481,-385.1917 657.8239,-381.8015"/>
</g>
<!-- Node12&#45;&gt;Node14 -->
<g id="edge7" class="edge">
<title>Node12&#45;&gt;Node14</title>
<path fill="none" stroke="#191970" d="M498.9539,-287.8909C407.7529,-282.0238 176.9702,-264.5805 149.643,-244 131.5475,-230.372 125.0294,-202.7628 126.0072,-187.9399"/>
<polygon fill="#191970" stroke="#191970" points="498.9083,-291.3949 509.1092,-288.5329 499.35,-284.4089 498.9083,-291.3949"/>
</g>
<!-- Node13 -->
<g id="node7" class="node">
<title>Node13</title>
<g id="a_node7"><a xlink:href="log_8hpp.html" target="_top" xlink:title="log.hpp">
<polygon fill="#ffffff" stroke="#000000" points="371.643,-224.5 371.643,-243.5 419.643,-243.5 419.643,-224.5 371.643,-224.5"/>
<text text-anchor="middle" x="395.643" y="-231.5" font-family="Helvetica,sans-Serif" font-size="10.00" fill="#000000">log.hpp</text>
</a>
</g>
</g>
<!-- Node12&#45;&gt;Node13 -->
<g id="edge6" class="edge">
<title>Node12&#45;&gt;Node13</title>
<path fill="none" stroke="#191970" d="M499.4749,-277.8067C472.3208,-267.5661 436.376,-253.1303 414.5712,-243.6716"/>
<polygon fill="#191970" stroke="#191970" points="498.4461,-281.1584 509.0388,-281.3727 500.8917,-274.5995 498.4461,-281.1584"/>
</g>
<!-- Node15 -->
<g id="node8" class="node">
<title>Node15</title>
<g id="a_node8"><a xlink:href="domain_8hpp.html" target="_top" xlink:title="domain.hpp">
<polygon fill="#ffffff" stroke="#000000" points="168.143,-224.5 168.143,-243.5 235.143,-243.5 235.143,-224.5 168.143,-224.5"/>
<text text-anchor="middle" x="201.643" y="-231.5" font-family="Helvetica,sans-Serif" font-size="10.00" fill="#000000">domain.hpp</text>
</a>
</g>
</g>
<!-- Node12&#45;&gt;Node15 -->
<g id="edge8" class="edge">
<title>Node12&#45;&gt;Node15</title>
<path fill="none" stroke="#191970" d="M498.5274,-284.5869C443.8935,-276.493 338.6644,-260.4232 249.643,-244 244.9553,-243.1352 240.0215,-242.1702 235.1737,-241.1903"/>
<polygon fill="#191970" stroke="#191970" points="498.3559,-288.0995 508.7598,-286.0971 499.378,-281.1745 498.3559,-288.0995"/>
</g>
<!-- Node16 -->
<g id="node9" class="node">
<title>Node16</title>
<g id="a_node9"><a xlink:href="logger_8hpp.html" target="_top" xlink:title="logger.hpp">
<polygon fill="#ffffff" stroke="#000000" points="292.143,-224.5 292.143,-243.5 353.143,-243.5 353.143,-224.5 292.143,-224.5"/>
<text text-anchor="middle" x="322.643" y="-231.5" font-family="Helvetica,sans-Serif" font-size="10.00" fill="#000000">logger.hpp</text>
</a>
</g>
</g>
<!-- Node12&#45;&gt;Node16 -->
<g id="edge9" class="edge">
<title>Node12&#45;&gt;Node16</title>
<path fill="none" stroke="#191970" d="M499.2142,-280.4225C458.0919,-269.611 391.9098,-252.211 353.3193,-242.0651"/>
<polygon fill="#191970" stroke="#191970" points="498.5358,-283.863 509.0971,-283.0208 500.3157,-277.0931 498.5358,-283.863"/>
</g>
<!-- Node17 -->
<g id="node10" class="node">
<title>Node17</title>
<g id="a_node10"><a xlink:href="textlogger_8hpp.html" target="_top" xlink:title="textlogger.hpp">
<polygon fill="#ffffff" stroke="#000000" points="497.143,-168.5 497.143,-187.5 574.143,-187.5 574.143,-168.5 497.143,-168.5"/>
<text text-anchor="middle" x="535.643" y="-175.5" font-family="Helvetica,sans-Serif" font-size="10.00" fill="#000000">textlogger.hpp</text>
</a>
</g>
</g>
<!-- Node12&#45;&gt;Node17 -->
<g id="edge10" class="edge">
<title>Node12&#45;&gt;Node17</title>
<path fill="none" stroke="#191970" d="M535.643,-270.2702C535.643,-245.9985 535.643,-205.7725 535.643,-187.5249"/>
<polygon fill="#191970" stroke="#191970" points="532.1431,-270.4509 535.643,-280.4509 539.1431,-270.451 532.1431,-270.4509"/>
</g>
<!-- Node18 -->
<g id="node11" class="node">
<title>Node18</title>
<g id="a_node11"><a xlink:href="plaintextlogger_8hpp.html" target="_top" xlink:title="plaintextlogger.hpp">
<polygon fill="#ffffff" stroke="#000000" points="817.643,-112.5 817.643,-131.5 915.643,-131.5 915.643,-112.5 817.643,-112.5"/>
<text text-anchor="middle" x="866.643" y="-119.5" font-family="Helvetica,sans-Serif" font-size="10.00" fill="#000000">plaintextlogger.hpp</text>
</a>
</g>
</g>
<!-- Node12&#45;&gt;Node18 -->
<g id="edge11" class="edge">
<title>Node12&#45;&gt;Node18</title>
<path fill="none" stroke="#191970" d="M572.1853,-279.9826C675.7935,-260.3474 721.1625,-303.3464 803.643,-244 843.1163,-215.5981 859.6847,-154.9906 864.7869,-131.5406"/>
<polygon fill="#191970" stroke="#191970" points="571.4007,-276.5705 562.3086,-282.0096 572.8081,-283.4276 571.4007,-276.5705"/>
</g>
<!-- Node19 -->
<g id="node12" class="node">
<title>Node19</title>
<g id="a_node12"><a xlink:href="consolelogger_8hpp.html" target="_top" xlink:title="consolelogger.hpp">
<polygon fill="#ffffff" stroke="#000000" points="621.143,-56.5 621.143,-75.5 716.143,-75.5 716.143,-56.5 621.143,-56.5"/>
<text text-anchor="middle" x="668.643" y="-63.5" font-family="Helvetica,sans-Serif" font-size="10.00" fill="#000000">consolelogger.hpp</text>
</a>
</g>
</g>
<!-- Node12&#45;&gt;Node19 -->
<g id="edge12" class="edge">
<title>Node12&#45;&gt;Node19</title>
<path fill="none" stroke="#191970" d="M572.2959,-279.516C619.0797,-266.1174 694.0943,-244.5692 694.643,-244 740.5944,-196.3333 692.6082,-105.5438 674.7555,-75.743"/>
<polygon fill="#191970" stroke="#191970" points="571.1445,-276.205 562.4942,-282.3223 573.0713,-282.9346 571.1445,-276.205"/>
</g>
<!-- Node20 -->
<g id="node13" class="node">
<title>Node20</title>
<g id="a_node13"><a xlink:href="alox_8hpp_source.html" target="_top" xlink:title="alox.hpp">
<polygon fill="#ffffff" stroke="#000000" points="642.143,-.5 642.143,-19.5 695.143,-19.5 695.143,-.5 642.143,-.5"/>
<text text-anchor="middle" x="668.643" y="-7.5" font-family="Helvetica,sans-Serif" font-size="10.00" fill="#000000">alox.hpp</text>
</a>
</g>
</g>
<!-- Node12&#45;&gt;Node20 -->
<g id="edge13" class="edge">
<title>Node12&#45;&gt;Node20</title>
<path fill="none" stroke="#191970" d="M572.4027,-280.1018C703.6327,-259.4194 1076.643,-289.6818 1076.643,-178 1076.643,-178 1076.643,-178 1076.643,-122 1076.643,-91.4754 1080.9087,-75.7601 1057.643,-56 1030.0094,-32.5302 778.4859,-16.2419 695.2516,-11.4564"/>
<polygon fill="#191970" stroke="#191970" points="571.5195,-276.7038 562.2853,-281.898 572.7432,-283.596 571.5195,-276.7038"/>
</g>
<!-- Node21 -->
<g id="node14" class="node">
<title>Node21</title>
<g id="a_node14"><a xlink:href="memorylogger_8hpp.html" target="_top" xlink:title="memorylogger.hpp">
<polygon fill="#ffffff" stroke="#000000" points="734.643,-56.5 734.643,-75.5 830.643,-75.5 830.643,-56.5 734.643,-56.5"/>
<text text-anchor="middle" x="782.643" y="-63.5" font-family="Helvetica,sans-Serif" font-size="10.00" fill="#000000">memorylogger.hpp</text>
</a>
</g>
</g>
<!-- Node12&#45;&gt;Node21 -->
<g id="edge14" class="edge">
<title>Node12&#45;&gt;Node21</title>
<path fill="none" stroke="#191970" d="M572.2305,-279.8259C637.3065,-265.1133 667.5973,-285.7165 714.643,-244 767.1165,-197.4705 779.3146,-105.9347 781.9575,-75.8438"/>
<polygon fill="#191970" stroke="#191970" points="571.2378,-276.4658 562.3706,-282.2644 572.9184,-283.2611 571.2378,-276.4658"/>
</g>
<!-- Node22 -->
<g id="node15" class="node">
<title>Node22</title>
<g id="a_node15"><a xlink:href="textfilelogger_8hpp.html" target="_top" xlink:title="textfilelogger.hpp">
<polygon fill="#ffffff" stroke="#000000" points="848.643,-56.5 848.643,-75.5 938.643,-75.5 938.643,-56.5 848.643,-56.5"/>
<text text-anchor="middle" x="893.643" y="-63.5" font-family="Helvetica,sans-Serif" font-size="10.00" fill="#000000">textfilelogger.hpp</text>
</a>
</g>
</g>
<!-- Node12&#45;&gt;Node22 -->
<g id="edge15" class="edge">
<title>Node12&#45;&gt;Node22</title>
<path fill="none" stroke="#191970" d="M572.3735,-279.9393C685.4965,-258.49 728.4448,-297.1164 826.643,-244 884.8206,-212.5312 901.3787,-193.9168 924.643,-132 932.3906,-111.3802 915.2851,-88.3001 903.5319,-75.63"/>
<polygon fill="#191970" stroke="#191970" points="571.4106,-276.563 562.3004,-281.9717 572.7951,-283.4247 571.4106,-276.563"/>
</g>
<!-- Node23 -->
<g id="node16" class="node">
<title>Node23</title>
<g id="a_node16"><a xlink:href="vstudiologger_8hpp.html" target="_top" xlink:title="vstudiologger.hpp">
<polygon fill="#ffffff" stroke="#000000" points="956.643,-56.5 956.643,-75.5 1048.643,-75.5 1048.643,-56.5 956.643,-56.5"/>
<text text-anchor="middle" x="1002.643" y="-63.5" font-family="Helvetica,sans-Serif" font-size="10.00" fill="#000000">vstudiologger.hpp</text>
</a>
</g>
</g>
<!-- Node12&#45;&gt;Node23 -->
<g id="edge16" class="edge">
<title>Node12&#45;&gt;Node23</title>
<path fill="none" stroke="#191970" d="M572.3185,-279.9642C698.4627,-256.4989 743.5723,-296.9655 856.643,-244 934.0984,-207.7177 984.0816,-107.71 998.3975,-75.8715"/>
<polygon fill="#191970" stroke="#191970" points="571.4311,-276.5714 562.2919,-281.9311 572.7787,-283.4405 571.4311,-276.5714"/>
</g>
<!-- Node24 -->
<g id="node17" class="node">
<title>Node24</title>
<g id="a_node17"><a xlink:href="ansilogger_8hpp.html" target="_top" xlink:title="ansilogger.hpp">
<polygon fill="#ffffff" stroke="#000000" points="590.143,-112.5 590.143,-131.5 669.143,-131.5 669.143,-112.5 590.143,-112.5"/>
<text text-anchor="middle" x="629.643" y="-119.5" font-family="Helvetica,sans-Serif" font-size="10.00" fill="#000000">ansilogger.hpp</text>
</a>
</g>
</g>
<!-- Node12&#45;&gt;Node24 -->
<g id="edge17" class="edge">
<title>Node12&#45;&gt;Node24</title>
<path fill="none" stroke="#191970" d="M572.0121,-279.605C610.0581,-268.4469 665.2825,-251.3373 672.643,-244 697.3014,-219.4193 707.2944,-199.1011 691.643,-168 683.2682,-151.3584 665.7094,-139.227 651.4088,-131.6143"/>
<polygon fill="#191970" stroke="#191970" points="570.8926,-276.2856 562.2704,-282.4426 572.8503,-283.0063 570.8926,-276.2856"/>
</g>
<!-- Node25 -->
<g id="node18" class="node">
<title>Node25</title>
<g id="a_node18"><a xlink:href="windowsconsolelogger_8hpp.html" target="_top" xlink:title="windowsconsolelogger.hpp">
<polygon fill="#ffffff" stroke="#000000" points="439.143,-112.5 439.143,-131.5 572.143,-131.5 572.143,-112.5 439.143,-112.5"/>
<text text-anchor="middle" x="505.643" y="-119.5" font-family="Helvetica,sans-Serif" font-size="10.00" fill="#000000">windowsconsolelogger.hpp</text>
</a>
</g>
</g>
<!-- Node12&#45;&gt;Node25 -->
<g id="edge18" class="edge">
<title>Node12&#45;&gt;Node25</title>
<path fill="none" stroke="#191970" d="M498.3429,-288.8554C434.7753,-286.0333 309.684,-276.4009 282.643,-244 231.5334,-182.7598 363.7646,-147.1788 445.9181,-131.5525"/>
<polygon fill="#191970" stroke="#191970" points="498.592,-292.3684 508.7267,-289.2799 498.878,-285.3742 498.592,-292.3684"/>
</g>
<!-- Node26 -->
<g id="node19" class="node">
<title>Node26</title>
<g id="a_node19"><a xlink:href="scopedump_8hpp.html" target="_top" xlink:title="scopedump.hpp">
<polygon fill="#ffffff" stroke="#000000" points="596.643,-168.5 596.643,-187.5 682.643,-187.5 682.643,-168.5 596.643,-168.5"/>
<text text-anchor="middle" x="639.643" y="-175.5" font-family="Helvetica,sans-Serif" font-size="10.00" fill="#000000">scopedump.hpp</text>
</a>
</g>
</g>
<!-- Node12&#45;&gt;Node26 -->
<g id="edge19" class="edge">
<title>Node12&#45;&gt;Node26</title>
<path fill="none" stroke="#191970" d="M571.9331,-278.3975C605.3867,-267.3386 650.6092,-251.3206 655.643,-244 667.534,-226.7071 655.1537,-201.5538 646.5056,-187.8314"/>
<polygon fill="#191970" stroke="#191970" points="570.8334,-275.0747 562.4202,-281.5143 573.013,-281.7267 570.8334,-275.0747"/>
</g>
<!-- Node27 -->
<g id="node20" class="node">
<title>Node27</title>
<g id="a_node20"><a xlink:href="scopestore_8hpp.html" target="_top" xlink:title="scopestore.hpp">
<polygon fill="#ffffff" stroke="#000000" points="564.143,-224.5 564.143,-243.5 647.143,-243.5 647.143,-224.5 564.143,-224.5"/>
<text text-anchor="middle" x="605.643" y="-231.5" font-family="Helvetica,sans-Serif" font-size="10.00" fill="#000000">scopestore.hpp</text>
</a>
</g>
</g>
<!-- Node12&#45;&gt;Node27 -->
<g id="edge20" class="edge">
<title>Node12&#45;&gt;Node27</title>
<path fill="none" stroke="#191970" d="M555.733,-273.928C567.9684,-264.1397 583.1937,-251.9595 593.5897,-243.6427"/>
<polygon fill="#191970" stroke="#191970" points="553.4583,-271.2655 547.8361,-280.2455 557.8312,-276.7316 553.4583,-271.2655"/>
</g>
<!-- Node28 -->
<g id="node21" class="node">
<title>Node28</title>
<g id="a_node21"><a xlink:href="scopeinfo_8hpp.html" target="_top" xlink:title="scopeinfo.hpp">
<polygon fill="#ffffff" stroke="#000000" points="16.143,-224.5 16.143,-243.5 93.143,-243.5 93.143,-224.5 16.143,-224.5"/>
<text text-anchor="middle" x="54.643" y="-231.5" font-family="Helvetica,sans-Serif" font-size="10.00" fill="#000000">scopeinfo.hpp</text>
</a>
</g>
</g>
<!-- Node12&#45;&gt;Node28 -->
<g id="edge21" class="edge">
<title>Node12&#45;&gt;Node28</title>
<path fill="none" stroke="#191970" d="M498.7788,-287.0315C424.5257,-280.8332 251.7428,-265.3036 107.643,-244 103.0115,-243.3153 98.1674,-242.5166 93.3704,-241.6745"/>
<polygon fill="#191970" stroke="#191970" points="498.7494,-290.5409 509.0041,-287.8778 499.3269,-283.5648 498.7494,-290.5409"/>
</g>
<!-- Node29 -->
<g id="node22" class="node">
<title>Node29</title>
<g id="a_node22"><a xlink:href="logtools_8hpp.html" target="_top" xlink:title="logtools.hpp">
<polygon fill="#ffffff" stroke="#000000" points="438.143,-224.5 438.143,-243.5 507.143,-243.5 507.143,-224.5 438.143,-224.5"/>
<text text-anchor="middle" x="472.643" y="-231.5" font-family="Helvetica,sans-Serif" font-size="10.00" fill="#000000">logtools.hpp</text>
</a>
</g>
</g>
<!-- Node12&#45;&gt;Node29 -->
<g id="edge22" class="edge">
<title>Node12&#45;&gt;Node29</title>
<path fill="none" stroke="#191970" d="M516.9238,-273.3607C506.0248,-263.6727 492.6675,-251.7995 483.491,-243.6427"/>
<polygon fill="#191970" stroke="#191970" points="514.8698,-276.2178 524.6692,-280.2455 519.5204,-270.9859 514.8698,-276.2178"/>
</g>
<!-- Node14&#45;&gt;Node12 -->
<g id="edge24" class="edge">
<title>Node14&#45;&gt;Node12</title>
<path fill="none" stroke="#191970" d="M140.8054,-197.4499C145.8807,-212.6247 152.9404,-232.9273 167.643,-244 195.1634,-264.726 429.0259,-282.2702 509.0723,-288.0136"/>
<polygon fill="#191970" stroke="#191970" points="144.0978,-196.2608 137.5392,-187.9399 137.4773,-198.5346 144.0978,-196.2608"/>
</g>
<!-- Node31 -->
<g id="node23" class="node">
<title>Node31</title>
<g id="a_node23"><a xlink:href="compilerplugin_8hpp_source.html" target="_top" xlink:title="compilerplugin.hpp">
<polygon fill="#ffffff" stroke="#ff0000" points="1104.643,-224.5 1104.643,-243.5 1202.643,-243.5 1202.643,-224.5 1104.643,-224.5"/>
<text text-anchor="middle" x="1153.643" y="-231.5" font-family="Helvetica,sans-Serif" font-size="10.00" fill="#000000">compilerplugin.hpp</text>
</a>
</g>
</g>
<!-- Node30&#45;&gt;Node31 -->
<g id="edge42" class="edge">
<title>Node30&#45;&gt;Node31</title>
<path fill="none" stroke="#191970" d="M661.6071,-279.8637C851.3653,-251.1785 903.0727,-266.6885 1090.643,-244 1095.1507,-243.4548 1099.8304,-242.8277 1104.5115,-242.1589"/>
<polygon fill="#191970" stroke="#191970" points="660.9366,-276.4255 651.5825,-281.4005 661.9974,-283.3447 660.9366,-276.4255"/>
</g>
<!-- Node13&#45;&gt;Node12 -->
<g id="edge23" class="edge">
<title>Node13&#45;&gt;Node12</title>
<path fill="none" stroke="#191970" d="M429.3334,-245.2614C456.7848,-255.5578 494.3551,-270.6252 516.8182,-280.3733"/>
<polygon fill="#191970" stroke="#191970" points="430.3174,-241.8936 419.7243,-241.7026 427.8862,-248.4578 430.3174,-241.8936"/>
</g>
<!-- Node15&#45;&gt;Node14 -->
<g id="edge25" class="edge">
<title>Node15&#45;&gt;Node14</title>
<path fill="none" stroke="#191970" d="M181.2661,-217.928C168.8559,-208.1397 153.4131,-195.9595 142.8685,-187.6427"/>
<polygon fill="#191970" stroke="#191970" points="179.2566,-220.8007 189.2758,-224.2455 183.5916,-215.3046 179.2566,-220.8007"/>
</g>
<!-- Node16&#45;&gt;Node14 -->
<g id="edge26" class="edge">
<title>Node16&#45;&gt;Node14</title>
<path fill="none" stroke="#191970" d="M281.9092,-222.1193C243.304,-210.8595 186.6161,-194.3255 154.7291,-185.0251"/>
<polygon fill="#191970" stroke="#191970" points="281.2149,-225.5626 291.7949,-225.0026 283.1749,-218.8426 281.2149,-225.5626"/>
</g>
<!-- Node16&#45;&gt;Node17 -->
<g id="edge27" class="edge">
<title>Node16&#45;&gt;Node17</title>
<path fill="none" stroke="#191970" d="M362.9546,-223.4017C402.3009,-213.0571 461.6176,-197.4621 499.4803,-187.5076"/>
<polygon fill="#191970" stroke="#191970" points="361.9421,-220.0488 353.1607,-225.9766 363.722,-226.8188 361.9421,-220.0488"/>
</g>
<!-- Node17&#45;&gt;Node18 -->
<g id="edge28" class="edge">
<title>Node17&#45;&gt;Node18</title>
<path fill="none" stroke="#191970" d="M584.3512,-168.5923C585.4586,-168.3916 586.557,-168.1939 587.643,-168 667.9868,-153.6539 761.6429,-138.541 817.4368,-129.7075"/>
<polygon fill="#191970" stroke="#191970" points="583.4393,-165.2015 574.241,-170.459 584.7103,-172.0851 583.4393,-165.2015"/>
</g>
<!-- Node17&#45;&gt;Node24 -->
<g id="edge29" class="edge">
<title>Node17&#45;&gt;Node24</title>
<path fill="none" stroke="#191970" d="M560.7436,-163.0465C577.469,-153.0824 598.9598,-140.2794 613.4571,-131.6427"/>
<polygon fill="#191970" stroke="#191970" points="558.8163,-160.1206 552.0166,-168.2455 562.3989,-166.1343 558.8163,-160.1206"/>
</g>
<!-- Node17&#45;&gt;Node25 -->
<g id="edge30" class="edge">
<title>Node17&#45;&gt;Node25</title>
<path fill="none" stroke="#191970" d="M525.6451,-159.3372C520.6754,-150.0605 514.8786,-139.2398 510.8087,-131.6427"/>
<polygon fill="#191970" stroke="#191970" points="522.61,-161.0835 530.4174,-168.2455 528.7803,-157.7779 522.61,-161.0835"/>
</g>
<!-- Node18&#45;&gt;Node19 -->
<g id="edge31" class="edge">
<title>Node18&#45;&gt;Node19</title>
<path fill="none" stroke="#191970" d="M822.7585,-109.5882C786.3807,-99.2996 735.4309,-84.8895 702.2363,-75.5011"/>
<polygon fill="#191970" stroke="#191970" points="822.0305,-113.0195 832.6056,-112.3733 823.9356,-106.2838 822.0305,-113.0195"/>
</g>
<!-- Node18&#45;&gt;Node21 -->
<g id="edge32" class="edge">
<title>Node18&#45;&gt;Node21</title>
<path fill="none" stroke="#191970" d="M843.3781,-106.49C828.5574,-96.6096 809.8221,-84.1194 797.107,-75.6427"/>
<polygon fill="#191970" stroke="#191970" points="841.7493,-109.6107 852.0113,-112.2455 845.6323,-103.7863 841.7493,-109.6107"/>
</g>
<!-- Node18&#45;&gt;Node22 -->
<g id="edge33" class="edge">
<title>Node18&#45;&gt;Node22</title>
<path fill="none" stroke="#191970" d="M875.7827,-103.0437C880.2235,-93.8331 885.3695,-83.1598 888.9939,-75.6427"/>
<polygon fill="#191970" stroke="#191970" points="872.5364,-101.7178 871.3461,-112.2455 878.8418,-104.7579 872.5364,-101.7178"/>
</g>
<!-- Node18&#45;&gt;Node23 -->
<g id="edge34" class="edge">
<title>Node18&#45;&gt;Node23</title>
<path fill="none" stroke="#191970" d="M899.3829,-108.5189C924.1513,-98.3201 957.548,-84.5685 979.5689,-75.5011"/>
<polygon fill="#191970" stroke="#191970" points="897.9364,-105.3293 890.0222,-112.3733 900.6017,-111.8021 897.9364,-105.3293"/>
</g>
<!-- Node19&#45;&gt;Node20 -->
<g id="edge35" class="edge">
<title>Node19&#45;&gt;Node20</title>
<path fill="none" stroke="#191970" d="M668.643,-46.1575C668.643,-37.155 668.643,-26.9199 668.643,-19.6427"/>
<polygon fill="#191970" stroke="#191970" points="665.1431,-46.2455 668.643,-56.2455 672.1431,-46.2456 665.1431,-46.2455"/>
</g>
<!-- Node23&#45;&gt;Node20 -->
<g id="edge36" class="edge">
<title>Node23&#45;&gt;Node20</title>
<path fill="none" stroke="#191970" d="M946.31,-55.7893C847.765,-38.7747 743.1975,-21.9054 695.211,-14.2312"/>
<polygon fill="#191970" stroke="#191970" points="945.9889,-59.2856 956.4393,-57.5424 947.1827,-52.3882 945.9889,-59.2856"/>
</g>
<!-- Node24&#45;&gt;Node20 -->
<g id="edge37" class="edge">
<title>Node24&#45;&gt;Node20</title>
<path fill="none" stroke="#191970" d="M617.7306,-103.3369C610.67,-89.7602 604.3889,-71.1759 611.643,-56 619.4305,-39.7083 636.1164,-27.337 649.433,-19.5495"/>
<polygon fill="#191970" stroke="#191970" points="614.814,-105.2865 622.8271,-112.2176 620.8852,-101.8022 614.814,-105.2865"/>
</g>
<!-- Node25&#45;&gt;Node20 -->
<g id="edge38" class="edge">
<title>Node25&#45;&gt;Node20</title>
<path fill="none" stroke="#191970" d="M527.9372,-106.6813C562.1353,-83.1832 626.5418,-38.9284 654.7809,-19.5249"/>
<polygon fill="#191970" stroke="#191970" points="525.8001,-103.9031 519.5403,-112.4509 529.7643,-109.6724 525.8001,-103.9031"/>
</g>
<!-- Node27&#45;&gt;Node14 -->
<g id="edge39" class="edge">
<title>Node27&#45;&gt;Node14</title>
<path fill="none" stroke="#191970" d="M553.8373,-227.8924C451.8356,-215.8669 228.4854,-189.5351 154.7767,-180.8452"/>
<polygon fill="#191970" stroke="#191970" points="553.5652,-231.3845 563.9062,-229.0795 554.3848,-224.4326 553.5652,-231.3845"/>
</g>
<!-- Node27&#45;&gt;Node26 -->
<g id="edge40" class="edge">
<title>Node27&#45;&gt;Node26</title>
<path fill="none" stroke="#191970" d="M616.7965,-215.6296C622.4677,-206.2887 629.1275,-195.3197 633.7885,-187.6427"/>
<polygon fill="#191970" stroke="#191970" points="613.7634,-213.8812 611.5654,-224.2455 619.7469,-217.5141 613.7634,-213.8812"/>
</g>
<!-- Node28&#45;&gt;Node14 -->
<g id="edge41" class="edge">
<title>Node28&#45;&gt;Node14</title>
<path fill="none" stroke="#191970" d="M76.0727,-218.2097C89.4207,-208.3743 106.1609,-196.0394 117.5565,-187.6427"/>
<polygon fill="#191970" stroke="#191970" points="73.8556,-215.4958 67.8812,-224.2455 78.008,-221.1312 73.8556,-215.4958"/>
</g>
<!-- Node41 -->
<g id="node25" class="node">
<title>Node41</title>
<g id="a_node25"><a xlink:href="cliapp_8hpp.html" target="_top" xlink:title="cliapp.hpp">
<polygon fill="#ffffff" stroke="#ff0000" points="669.143,-280.5 669.143,-299.5 730.143,-299.5 730.143,-280.5 669.143,-280.5"/>
<text text-anchor="middle" x="699.643" y="-287.5" font-family="Helvetica,sans-Serif" font-size="10.00" fill="#000000">cliapp.hpp</text>
</a>
</g>
</g>
<!-- Node40&#45;&gt;Node41 -->
<g id="edge45" class="edge">
<title>Node40&#45;&gt;Node41</title>
<path fill="none" stroke="#191970" d="M687.9257,-326.4538C690.8422,-317.3803 694.1788,-306.9998 696.5436,-299.6427"/>
<polygon fill="#191970" stroke="#191970" points="684.5064,-325.6542 684.7784,-336.2455 691.1706,-327.7963 684.5064,-325.6542"/>
</g>
</g>
</svg>
