<?xml version="1.0" encoding="UTF-8" standalone="no"?>
<!DOCTYPE svg PUBLIC "-//W3C//DTD SVG 1.1//EN"
 "http://www.w3.org/Graphics/SVG/1.1/DTD/svg11.dtd">
<!-- Generated by graphviz version 2.40.1 (20161225.0304)
 -->
<!-- Title: plugincontainer.hpp Pages: 1 -->
<svg width="1231pt" height="420pt"
 viewBox="0.00 0.00 1231.07 420.00" xmlns="http://www.w3.org/2000/svg" xmlns:xlink="http://www.w3.org/1999/xlink">
<g id="graph0" class="graph" transform="scale(1 1) rotate(0) translate(4 416)">
<title>plugincontainer.hpp</title>
<polygon fill="#ffffff" stroke="transparent" points="-4,4 -4,-416 1227.0664,-416 1227.0664,4 -4,4"/>
<!-- Node66 -->
<g id="node1" class="node">
<title>Node66</title>
<polygon fill="#bfbfbf" stroke="#000000" points="39,-392.5 39,-411.5 139,-411.5 139,-392.5 39,-392.5"/>
<text text-anchor="middle" x="89" y="-399.5" font-family="Helvetica,sans-Serif" font-size="10.00" fill="#000000">plugincontainer.hpp</text>
</g>
<!-- Node67 -->
<g id="node2" class="node">
<title>Node67</title>
<g id="a_node2"><a xlink:href="configuration_8hpp.html" target="_top" xlink:title="configuration.hpp">
<polygon fill="#ffffff" stroke="#000000" points="80.5,-336.5 80.5,-355.5 171.5,-355.5 171.5,-336.5 80.5,-336.5"/>
<text text-anchor="middle" x="126" y="-343.5" font-family="Helvetica,sans-Serif" font-size="10.00" fill="#000000">configuration.hpp</text>
</a>
</g>
</g>
<!-- Node66&#45;&gt;Node67 -->
<g id="edge1" class="edge">
<title>Node66&#45;&gt;Node67</title>
<path fill="none" stroke="#191970" d="M101.1376,-383.6296C107.3093,-374.2887 114.5566,-363.3197 119.6289,-355.6427"/>
<polygon fill="#191970" stroke="#191970" points="98.0373,-381.9728 95.4449,-392.2455 103.8777,-385.8316 98.0373,-381.9728"/>
</g>
<!-- Node86 -->
<g id="node3" class="node">
<title>Node86</title>
<g id="a_node3"><a xlink:href="compiler_8hpp_source.html" target="_top" xlink:title="compiler.hpp">
<polygon fill="#ffffff" stroke="#000000" points="16.5,-280.5 16.5,-299.5 87.5,-299.5 87.5,-280.5 16.5,-280.5"/>
<text text-anchor="middle" x="52" y="-287.5" font-family="Helvetica,sans-Serif" font-size="10.00" fill="#000000">compiler.hpp</text>
</a>
</g>
</g>
<!-- Node66&#45;&gt;Node86 -->
<g id="edge2" class="edge">
<title>Node66&#45;&gt;Node86</title>
<path fill="none" stroke="#191970" d="M81.0395,-382.8284C77.7546,-374.6286 74.0182,-364.9092 71,-356 64.3429,-336.3498 57.9578,-312.9212 54.5503,-299.9284"/>
<polygon fill="#191970" stroke="#191970" points="77.8548,-384.288 84.871,-392.2267 84.3368,-381.6454 77.8548,-384.288"/>
</g>
<!-- Node67&#45;&gt;Node86 -->
<g id="edge5" class="edge">
<title>Node67&#45;&gt;Node86</title>
<path fill="none" stroke="#191970" d="M105.1343,-330.2097C92.1375,-320.3743 75.8378,-308.0394 64.7421,-299.6427"/>
<polygon fill="#191970" stroke="#191970" points="103.024,-333.002 113.1102,-336.2455 107.2482,-327.4201 103.024,-333.002"/>
</g>
<!-- Node68 -->
<g id="node4" class="node">
<title>Node68</title>
<g id="a_node4"><a xlink:href="alox_2alox_8hpp.html" target="_top" xlink:title="alox.hpp">
<polygon fill="#ffffff" stroke="#000000" points="615.5,-280.5 615.5,-299.5 668.5,-299.5 668.5,-280.5 615.5,-280.5"/>
<text text-anchor="middle" x="642" y="-287.5" font-family="Helvetica,sans-Serif" font-size="10.00" fill="#000000">alox.hpp</text>
</a>
</g>
</g>
<!-- Node67&#45;&gt;Node68 -->
<g id="edge3" class="edge">
<title>Node67&#45;&gt;Node68</title>
<path fill="none" stroke="#191970" d="M182.0611,-339.9159C292.5269,-327.9273 534.605,-301.6553 615.2586,-292.9022"/>
<polygon fill="#191970" stroke="#191970" points="181.3555,-336.4718 171.7916,-341.0304 182.1108,-343.4309 181.3555,-336.4718"/>
</g>
<!-- Node70 -->
<g id="node5" class="node">
<title>Node70</title>
<g id="a_node5"><a xlink:href="lox_8hpp.html" target="_top" xlink:title="lox.hpp">
<polygon fill="#ffffff" stroke="#000000" points="245,-168.5 245,-187.5 293,-187.5 293,-168.5 245,-168.5"/>
<text text-anchor="middle" x="269" y="-175.5" font-family="Helvetica,sans-Serif" font-size="10.00" fill="#000000">lox.hpp</text>
</a>
</g>
</g>
<!-- Node67&#45;&gt;Node70 -->
<g id="edge4" class="edge">
<title>Node67&#45;&gt;Node70</title>
<path fill="none" stroke="#191970" d="M123.4121,-326.2459C121.1009,-299.9033 121.1354,-253.2094 145,-224 169.6969,-193.7719 216.2746,-183.4054 244.7819,-179.8519"/>
<polygon fill="#191970" stroke="#191970" points="119.9643,-326.9169 124.5226,-336.481 126.9234,-326.1618 119.9643,-326.9169"/>
</g>
<!-- Node87 -->
<g id="node22" class="node">
<title>Node87</title>
<g id="a_node22"><a xlink:href="compilerplugin_8hpp_source.html" target="_top" xlink:title="compilerplugin.hpp">
<polygon fill="#ffffff" stroke="#ff0000" points="0,-224.5 0,-243.5 98,-243.5 98,-224.5 0,-224.5"/>
<text text-anchor="middle" x="49" y="-231.5" font-family="Helvetica,sans-Serif" font-size="10.00" fill="#000000">compilerplugin.hpp</text>
</a>
</g>
</g>
<!-- Node86&#45;&gt;Node87 -->
<g id="edge42" class="edge">
<title>Node86&#45;&gt;Node87</title>
<path fill="none" stroke="#191970" d="M50.937,-270.1575C50.4547,-261.155 49.9064,-250.9199 49.5166,-243.6427"/>
<polygon fill="#191970" stroke="#191970" points="47.4474,-270.4471 51.4774,-280.2455 54.4374,-270.0726 47.4474,-270.4471"/>
</g>
<!-- Node68&#45;&gt;Node70 -->
<g id="edge7" class="edge">
<title>Node68&#45;&gt;Node70</title>
<path fill="none" stroke="#191970" d="M605.1734,-287.5032C519.4325,-281.0093 312.6565,-262.7852 288,-244 269.9807,-230.2715 263.4305,-202.7047 264.3833,-187.9147"/>
<polygon fill="#191970" stroke="#191970" points="605.0159,-291.0011 615.2483,-288.2538 605.5359,-284.0205 605.0159,-291.0011"/>
</g>
<!-- Node69 -->
<g id="node6" class="node">
<title>Node69</title>
<g id="a_node6"><a xlink:href="log_8hpp.html" target="_top" xlink:title="log.hpp">
<polygon fill="#ffffff" stroke="#000000" points="510,-224.5 510,-243.5 558,-243.5 558,-224.5 510,-224.5"/>
<text text-anchor="middle" x="534" y="-231.5" font-family="Helvetica,sans-Serif" font-size="10.00" fill="#000000">log.hpp</text>
</a>
</g>
</g>
<!-- Node68&#45;&gt;Node69 -->
<g id="edge6" class="edge">
<title>Node68&#45;&gt;Node69</title>
<path fill="none" stroke="#191970" d="M609.0108,-275.9741C588.1728,-265.8348 562.5189,-252.408 547.1063,-243.5011"/>
<polygon fill="#191970" stroke="#191970" points="607.6615,-279.2085 618.1921,-280.3733 610.6863,-272.8958 607.6615,-279.2085"/>
</g>
<!-- Node71 -->
<g id="node7" class="node">
<title>Node71</title>
<g id="a_node7"><a xlink:href="domain_8hpp.html" target="_top" xlink:title="domain.hpp">
<polygon fill="#ffffff" stroke="#000000" points="306.5,-224.5 306.5,-243.5 373.5,-243.5 373.5,-224.5 306.5,-224.5"/>
<text text-anchor="middle" x="340" y="-231.5" font-family="Helvetica,sans-Serif" font-size="10.00" fill="#000000">domain.hpp</text>
</a>
</g>
</g>
<!-- Node68&#45;&gt;Node71 -->
<g id="edge8" class="edge">
<title>Node68&#45;&gt;Node71</title>
<path fill="none" stroke="#191970" d="M605.3623,-283.6757C555.9413,-275.0739 465.207,-259.0309 388,-244 383.321,-243.0891 378.3922,-242.0982 373.5467,-241.1058"/>
<polygon fill="#191970" stroke="#191970" points="604.8099,-287.1321 615.2614,-285.3953 606.008,-280.2354 604.8099,-287.1321"/>
</g>
<!-- Node72 -->
<g id="node8" class="node">
<title>Node72</title>
<g id="a_node8"><a xlink:href="logger_8hpp.html" target="_top" xlink:title="logger.hpp">
<polygon fill="#ffffff" stroke="#000000" points="430.5,-224.5 430.5,-243.5 491.5,-243.5 491.5,-224.5 430.5,-224.5"/>
<text text-anchor="middle" x="461" y="-231.5" font-family="Helvetica,sans-Serif" font-size="10.00" fill="#000000">logger.hpp</text>
</a>
</g>
</g>
<!-- Node68&#45;&gt;Node72 -->
<g id="edge9" class="edge">
<title>Node68&#45;&gt;Node72</title>
<path fill="none" stroke="#191970" d="M605.4591,-278.6945C572.0574,-268.3603 523.2091,-253.247 491.7586,-243.5165"/>
<polygon fill="#191970" stroke="#191970" points="604.7051,-282.1249 615.2928,-281.737 606.7741,-275.4376 604.7051,-282.1249"/>
</g>
<!-- Node73 -->
<g id="node9" class="node">
<title>Node73</title>
<g id="a_node9"><a xlink:href="textlogger_8hpp.html" target="_top" xlink:title="textlogger.hpp">
<polygon fill="#ffffff" stroke="#000000" points="635.5,-168.5 635.5,-187.5 712.5,-187.5 712.5,-168.5 635.5,-168.5"/>
<text text-anchor="middle" x="674" y="-175.5" font-family="Helvetica,sans-Serif" font-size="10.00" fill="#000000">textlogger.hpp</text>
</a>
</g>
</g>
<!-- Node68&#45;&gt;Node73 -->
<g id="edge10" class="edge">
<title>Node68&#45;&gt;Node73</title>
<path fill="none" stroke="#191970" d="M647.5432,-270.5987C654.4677,-246.363 666.0414,-205.8551 671.2786,-187.5249"/>
<polygon fill="#191970" stroke="#191970" points="644.1102,-269.8742 644.7283,-280.4509 650.8409,-271.7972 644.1102,-269.8742"/>
</g>
<!-- Node74 -->
<g id="node10" class="node">
<title>Node74</title>
<g id="a_node10"><a xlink:href="plaintextlogger_8hpp.html" target="_top" xlink:title="plaintextlogger.hpp">
<polygon fill="#ffffff" stroke="#000000" points="956,-112.5 956,-131.5 1054,-131.5 1054,-112.5 956,-112.5"/>
<text text-anchor="middle" x="1005" y="-119.5" font-family="Helvetica,sans-Serif" font-size="10.00" fill="#000000">plaintextlogger.hpp</text>
</a>
</g>
</g>
<!-- Node68&#45;&gt;Node74 -->
<g id="edge11" class="edge">
<title>Node68&#45;&gt;Node74</title>
<path fill="none" stroke="#191970" d="M678.92,-288.4633C749.5513,-284.8691 900.4866,-273.8337 942,-244 981.4896,-215.6208 998.0483,-154.9997 1003.1459,-131.5434"/>
<polygon fill="#191970" stroke="#191970" points="678.5214,-284.9785 668.703,-288.9596 678.861,-291.9702 678.5214,-284.9785"/>
</g>
<!-- Node75 -->
<g id="node11" class="node">
<title>Node75</title>
<g id="a_node11"><a xlink:href="consolelogger_8hpp.html" target="_top" xlink:title="consolelogger.hpp">
<polygon fill="#ffffff" stroke="#000000" points="766.5,-56.5 766.5,-75.5 861.5,-75.5 861.5,-56.5 766.5,-56.5"/>
<text text-anchor="middle" x="814" y="-63.5" font-family="Helvetica,sans-Serif" font-size="10.00" fill="#000000">consolelogger.hpp</text>
</a>
</g>
</g>
<!-- Node68&#45;&gt;Node75 -->
<g id="edge12" class="edge">
<title>Node68&#45;&gt;Node75</title>
<path fill="none" stroke="#191970" d="M678.5099,-285.7268C727.6644,-279.2392 811.4607,-265.3539 833,-244 879.7893,-197.6133 836.0538,-105.9838 819.6375,-75.8564"/>
<polygon fill="#191970" stroke="#191970" points="678.0556,-282.2563 668.5815,-286.999 678.9453,-289.1996 678.0556,-282.2563"/>
</g>
<!-- Node76 -->
<g id="node12" class="node">
<title>Node76</title>
<g id="a_node12"><a xlink:href="alox_8hpp_source.html" target="_top" xlink:title="alox.hpp">
<polygon fill="#ffffff" stroke="#000000" points="787.5,-.5 787.5,-19.5 840.5,-19.5 840.5,-.5 787.5,-.5"/>
<text text-anchor="middle" x="814" y="-7.5" font-family="Helvetica,sans-Serif" font-size="10.00" fill="#000000">alox.hpp</text>
</a>
</g>
</g>
<!-- Node68&#45;&gt;Node76 -->
<g id="edge13" class="edge">
<title>Node68&#45;&gt;Node76</title>
<path fill="none" stroke="#191970" d="M678.882,-286.8135C806.5658,-275.2946 1222,-233.5485 1222,-178 1222,-178 1222,-178 1222,-122 1222,-91.4754 1226.2657,-75.7601 1203,-56 1175.3664,-32.5302 923.8429,-16.2419 840.6086,-11.4564"/>
<polygon fill="#191970" stroke="#191970" points="678.4603,-283.3371 668.8114,-287.7129 679.0831,-290.3093 678.4603,-283.3371"/>
</g>
<!-- Node77 -->
<g id="node13" class="node">
<title>Node77</title>
<g id="a_node13"><a xlink:href="memorylogger_8hpp.html" target="_top" xlink:title="memorylogger.hpp">
<polygon fill="#ffffff" stroke="#000000" points="880,-56.5 880,-75.5 976,-75.5 976,-56.5 880,-56.5"/>
<text text-anchor="middle" x="928" y="-63.5" font-family="Helvetica,sans-Serif" font-size="10.00" fill="#000000">memorylogger.hpp</text>
</a>
</g>
</g>
<!-- Node68&#45;&gt;Node77 -->
<g id="edge14" class="edge">
<title>Node68&#45;&gt;Node77</title>
<path fill="none" stroke="#191970" d="M678.6419,-286.0952C731.8062,-279.7642 826.8448,-265.734 853,-244 907.936,-198.3503 923.3758,-105.4394 927.0126,-75.5151"/>
<polygon fill="#191970" stroke="#191970" points="678.1308,-282.6309 668.6001,-287.2588 678.9365,-289.5844 678.1308,-282.6309"/>
</g>
<!-- Node78 -->
<g id="node14" class="node">
<title>Node78</title>
<g id="a_node14"><a xlink:href="textfilelogger_8hpp.html" target="_top" xlink:title="textfilelogger.hpp">
<polygon fill="#ffffff" stroke="#000000" points="994,-56.5 994,-75.5 1084,-75.5 1084,-56.5 994,-56.5"/>
<text text-anchor="middle" x="1039" y="-63.5" font-family="Helvetica,sans-Serif" font-size="10.00" fill="#000000">textfilelogger.hpp</text>
</a>
</g>
</g>
<!-- Node68&#45;&gt;Node78 -->
<g id="edge15" class="edge">
<title>Node68&#45;&gt;Node78</title>
<path fill="none" stroke="#191970" d="M679.02,-287.9538C753.0092,-283.3464 916.2319,-270.4345 965,-244 1023.1499,-212.4801 1039.7357,-193.9168 1063,-132 1070.4618,-112.1408 1056.6928,-88.7873 1047.1065,-75.8641"/>
<polygon fill="#191970" stroke="#191970" points="678.5455,-284.476 668.7752,-288.5739 678.9685,-291.4632 678.5455,-284.476"/>
</g>
<!-- Node79 -->
<g id="node15" class="node">
<title>Node79</title>
<g id="a_node15"><a xlink:href="vstudiologger_8hpp.html" target="_top" xlink:title="vstudiologger.hpp">
<polygon fill="#ffffff" stroke="#000000" points="1102,-56.5 1102,-75.5 1194,-75.5 1194,-56.5 1102,-56.5"/>
<text text-anchor="middle" x="1148" y="-63.5" font-family="Helvetica,sans-Serif" font-size="10.00" fill="#000000">vstudiologger.hpp</text>
</a>
</g>
</g>
<!-- Node68&#45;&gt;Node79 -->
<g id="edge16" class="edge">
<title>Node68&#45;&gt;Node79</title>
<path fill="none" stroke="#191970" d="M679.1259,-288.0311C757.9894,-283.3886 939.5329,-270.1301 995,-244 1073.889,-206.836 1127.8006,-107.4207 1143.3669,-75.8003"/>
<polygon fill="#191970" stroke="#191970" points="678.4862,-284.562 668.7032,-288.6294 678.8874,-291.5504 678.4862,-284.562"/>
</g>
<!-- Node80 -->
<g id="node16" class="node">
<title>Node80</title>
<g id="a_node16"><a xlink:href="ansilogger_8hpp.html" target="_top" xlink:title="ansilogger.hpp">
<polygon fill="#ffffff" stroke="#000000" points="728.5,-112.5 728.5,-131.5 807.5,-131.5 807.5,-112.5 728.5,-112.5"/>
<text text-anchor="middle" x="768" y="-119.5" font-family="Helvetica,sans-Serif" font-size="10.00" fill="#000000">ansilogger.hpp</text>
</a>
</g>
</g>
<!-- Node68&#45;&gt;Node80 -->
<g id="edge17" class="edge">
<title>Node68&#45;&gt;Node80</title>
<path fill="none" stroke="#191970" d="M678.697,-284.1431C722.4262,-276.4767 791.9799,-261.8876 811,-244 836.363,-220.1471 845.6514,-199.1011 830,-168 821.6252,-151.3584 804.0664,-139.227 789.7658,-131.6143"/>
<polygon fill="#191970" stroke="#191970" points="677.9832,-280.7143 668.7172,-285.8516 679.1644,-287.614 677.9832,-280.7143"/>
</g>
<!-- Node81 -->
<g id="node17" class="node">
<title>Node81</title>
<g id="a_node17"><a xlink:href="windowsconsolelogger_8hpp.html" target="_top" xlink:title="windowsconsolelogger.hpp">
<polygon fill="#ffffff" stroke="#000000" points="577.5,-112.5 577.5,-131.5 710.5,-131.5 710.5,-112.5 577.5,-112.5"/>
<text text-anchor="middle" x="644" y="-119.5" font-family="Helvetica,sans-Serif" font-size="10.00" fill="#000000">windowsconsolelogger.hpp</text>
</a>
</g>
</g>
<!-- Node68&#45;&gt;Node81 -->
<g id="edge18" class="edge">
<title>Node68&#45;&gt;Node81</title>
<path fill="none" stroke="#191970" d="M605.0763,-287.7516C548.5361,-283.4522 444.6544,-271.8812 422,-244 372.0113,-182.478 502.4753,-147.1089 584.0604,-131.5642"/>
<polygon fill="#191970" stroke="#191970" points="605.1581,-291.2665 615.3839,-288.4947 605.6615,-284.2846 605.1581,-291.2665"/>
</g>
<!-- Node82 -->
<g id="node18" class="node">
<title>Node82</title>
<g id="a_node18"><a xlink:href="scopedump_8hpp.html" target="_top" xlink:title="scopedump.hpp">
<polygon fill="#ffffff" stroke="#000000" points="735,-168.5 735,-187.5 821,-187.5 821,-168.5 735,-168.5"/>
<text text-anchor="middle" x="778" y="-175.5" font-family="Helvetica,sans-Serif" font-size="10.00" fill="#000000">scopedump.hpp</text>
</a>
</g>
</g>
<!-- Node68&#45;&gt;Node82 -->
<g id="edge19" class="edge">
<title>Node68&#45;&gt;Node82</title>
<path fill="none" stroke="#191970" d="M678.6288,-284.1038C719.297,-276.7221 781.069,-262.7354 795,-244 807.5672,-227.0987 794.4393,-201.7924 785.2729,-187.9405"/>
<polygon fill="#191970" stroke="#191970" points="677.7758,-280.7 668.5337,-285.8801 678.989,-287.5941 677.7758,-280.7"/>
</g>
<!-- Node83 -->
<g id="node19" class="node">
<title>Node83</title>
<g id="a_node19"><a xlink:href="scopestore_8hpp.html" target="_top" xlink:title="scopestore.hpp">
<polygon fill="#ffffff" stroke="#000000" points="702.5,-224.5 702.5,-243.5 785.5,-243.5 785.5,-224.5 702.5,-224.5"/>
<text text-anchor="middle" x="744" y="-231.5" font-family="Helvetica,sans-Serif" font-size="10.00" fill="#000000">scopestore.hpp</text>
</a>
</g>
</g>
<!-- Node68&#45;&gt;Node83 -->
<g id="edge20" class="edge">
<title>Node68&#45;&gt;Node83</title>
<path fill="none" stroke="#191970" d="M668.734,-275.3225C686.9532,-265.3198 710.5598,-252.3593 726.4366,-243.6427"/>
<polygon fill="#191970" stroke="#191970" points="666.8484,-272.3649 659.767,-280.2455 670.2173,-278.5009 666.8484,-272.3649"/>
</g>
<!-- Node84 -->
<g id="node20" class="node">
<title>Node84</title>
<g id="a_node20"><a xlink:href="scopeinfo_8hpp.html" target="_top" xlink:title="scopeinfo.hpp">
<polygon fill="#ffffff" stroke="#000000" points="154.5,-224.5 154.5,-243.5 231.5,-243.5 231.5,-224.5 154.5,-224.5"/>
<text text-anchor="middle" x="193" y="-231.5" font-family="Helvetica,sans-Serif" font-size="10.00" fill="#000000">scopeinfo.hpp</text>
</a>
</g>
</g>
<!-- Node68&#45;&gt;Node84 -->
<g id="edge21" class="edge">
<title>Node68&#45;&gt;Node84</title>
<path fill="none" stroke="#191970" d="M605.4278,-286.6259C535.4391,-279.9754 377.7931,-264.0622 246,-244 241.3714,-243.2954 236.5291,-242.4846 231.7331,-241.6359"/>
<polygon fill="#191970" stroke="#191970" points="605.2133,-290.1211 615.498,-287.5762 605.8711,-283.1521 605.2133,-290.1211"/>
</g>
<!-- Node85 -->
<g id="node21" class="node">
<title>Node85</title>
<g id="a_node21"><a xlink:href="logtools_8hpp.html" target="_top" xlink:title="logtools.hpp">
<polygon fill="#ffffff" stroke="#000000" points="576.5,-224.5 576.5,-243.5 645.5,-243.5 645.5,-224.5 576.5,-224.5"/>
<text text-anchor="middle" x="611" y="-231.5" font-family="Helvetica,sans-Serif" font-size="10.00" fill="#000000">logtools.hpp</text>
</a>
</g>
</g>
<!-- Node68&#45;&gt;Node85 -->
<g id="edge22" class="edge">
<title>Node68&#45;&gt;Node85</title>
<path fill="none" stroke="#191970" d="M631.6688,-271.3372C626.5335,-262.0605 620.5434,-251.2398 616.3379,-243.6427"/>
<polygon fill="#191970" stroke="#191970" points="628.6949,-273.1917 636.6002,-280.2455 634.8191,-269.8015 628.6949,-273.1917"/>
</g>
<!-- Node70&#45;&gt;Node68 -->
<g id="edge24" class="edge">
<title>Node70&#45;&gt;Node68</title>
<path fill="none" stroke="#191970" d="M279.1955,-197.4062C284.29,-212.5557 291.3593,-232.8456 306,-244 330.8137,-262.905 540.0768,-281.2417 615.3513,-287.626"/>
<polygon fill="#191970" stroke="#191970" points="282.4898,-196.223 275.9153,-187.9147 275.8738,-198.5095 282.4898,-196.223"/>
</g>
<!-- Node69&#45;&gt;Node68 -->
<g id="edge23" class="edge">
<title>Node69&#45;&gt;Node68</title>
<path fill="none" stroke="#191970" d="M566.943,-248.0035C587.5928,-258.0497 612.9859,-271.3322 628.4547,-280.2455"/>
<polygon fill="#191970" stroke="#191970" points="568.3724,-244.8074 557.8417,-243.6427 565.3476,-251.1201 568.3724,-244.8074"/>
</g>
<!-- Node71&#45;&gt;Node70 -->
<g id="edge25" class="edge">
<title>Node71&#45;&gt;Node70</title>
<path fill="none" stroke="#191970" d="M319.623,-217.928C307.2129,-208.1397 291.77,-195.9595 281.2255,-187.6427"/>
<polygon fill="#191970" stroke="#191970" points="317.6136,-220.8007 327.6327,-224.2455 321.9486,-215.3046 317.6136,-220.8007"/>
</g>
<!-- Node72&#45;&gt;Node70 -->
<g id="edge26" class="edge">
<title>Node72&#45;&gt;Node70</title>
<path fill="none" stroke="#191970" d="M420.2662,-222.1193C381.661,-210.8595 324.9731,-194.3255 293.0861,-185.0251"/>
<polygon fill="#191970" stroke="#191970" points="419.5719,-225.5626 430.1519,-225.0026 421.5319,-218.8426 419.5719,-225.5626"/>
</g>
<!-- Node72&#45;&gt;Node73 -->
<g id="edge27" class="edge">
<title>Node72&#45;&gt;Node73</title>
<path fill="none" stroke="#191970" d="M501.3116,-223.4017C540.6579,-213.0571 599.9746,-197.4621 637.8373,-187.5076"/>
<polygon fill="#191970" stroke="#191970" points="500.2991,-220.0488 491.5177,-225.9766 502.079,-226.8188 500.2991,-220.0488"/>
</g>
<!-- Node73&#45;&gt;Node74 -->
<g id="edge28" class="edge">
<title>Node73&#45;&gt;Node74</title>
<path fill="none" stroke="#191970" d="M722.7082,-168.5923C723.8155,-168.3916 724.914,-168.1939 726,-168 806.3438,-153.6539 899.9999,-138.541 955.7938,-129.7075"/>
<polygon fill="#191970" stroke="#191970" points="721.7963,-165.2015 712.598,-170.459 723.0673,-172.0851 721.7963,-165.2015"/>
</g>
<!-- Node73&#45;&gt;Node80 -->
<g id="edge29" class="edge">
<title>Node73&#45;&gt;Node80</title>
<path fill="none" stroke="#191970" d="M699.1005,-163.0465C715.826,-153.0824 737.3168,-140.2794 751.8141,-131.6427"/>
<polygon fill="#191970" stroke="#191970" points="697.1732,-160.1206 690.3736,-168.2455 700.7559,-166.1343 697.1732,-160.1206"/>
</g>
<!-- Node73&#45;&gt;Node81 -->
<g id="edge30" class="edge">
<title>Node73&#45;&gt;Node81</title>
<path fill="none" stroke="#191970" d="M664.002,-159.3372C659.0324,-150.0605 653.2356,-139.2398 649.1657,-131.6427"/>
<polygon fill="#191970" stroke="#191970" points="660.9669,-161.0835 668.7744,-168.2455 667.1373,-157.7779 660.9669,-161.0835"/>
</g>
<!-- Node74&#45;&gt;Node75 -->
<g id="edge31" class="edge">
<title>Node74&#45;&gt;Node75</title>
<path fill="none" stroke="#191970" d="M962.2163,-109.4561C927.1555,-99.1765 878.2898,-84.8494 846.4056,-75.5011"/>
<polygon fill="#191970" stroke="#191970" points="961.5851,-112.9183 972.1659,-112.3733 963.5546,-106.2011 961.5851,-112.9183"/>
</g>
<!-- Node74&#45;&gt;Node77 -->
<g id="edge32" class="edge">
<title>Node74&#45;&gt;Node77</title>
<path fill="none" stroke="#191970" d="M983.2884,-106.2097C969.7647,-96.3743 952.8042,-84.0394 941.2587,-75.6427"/>
<polygon fill="#191970" stroke="#191970" points="981.4416,-109.1944 991.5876,-112.2455 985.5589,-103.5332 981.4416,-109.1944"/>
</g>
<!-- Node74&#45;&gt;Node78 -->
<g id="edge33" class="edge">
<title>Node74&#45;&gt;Node78</title>
<path fill="none" stroke="#191970" d="M1016.1535,-103.6296C1021.8247,-94.2887 1028.4845,-83.3197 1033.1455,-75.6427"/>
<polygon fill="#191970" stroke="#191970" points="1013.1204,-101.8812 1010.9223,-112.2455 1019.1039,-105.5141 1013.1204,-101.8812"/>
</g>
<!-- Node74&#45;&gt;Node79 -->
<g id="edge34" class="edge">
<title>Node74&#45;&gt;Node79</title>
<path fill="none" stroke="#191970" d="M1039.0798,-108.6541C1065.1573,-98.4419 1100.4815,-84.6086 1123.7382,-75.5011"/>
<polygon fill="#191970" stroke="#191970" points="1037.6178,-105.4677 1029.5826,-112.3733 1040.1703,-111.9858 1037.6178,-105.4677"/>
</g>
<!-- Node75&#45;&gt;Node76 -->
<g id="edge35" class="edge">
<title>Node75&#45;&gt;Node76</title>
<path fill="none" stroke="#191970" d="M814,-46.1575C814,-37.155 814,-26.9199 814,-19.6427"/>
<polygon fill="#191970" stroke="#191970" points="810.5001,-46.2455 814,-56.2455 817.5001,-46.2456 810.5001,-46.2455"/>
</g>
<!-- Node79&#45;&gt;Node76 -->
<g id="edge36" class="edge">
<title>Node79&#45;&gt;Node76</title>
<path fill="none" stroke="#191970" d="M1091.667,-55.7893C993.122,-38.7747 888.5545,-21.9054 840.568,-14.2312"/>
<polygon fill="#191970" stroke="#191970" points="1091.3459,-59.2856 1101.7963,-57.5424 1092.5397,-52.3882 1091.3459,-59.2856"/>
</g>
<!-- Node80&#45;&gt;Node76 -->
<g id="edge37" class="edge">
<title>Node80&#45;&gt;Node76</title>
<path fill="none" stroke="#191970" d="M759.4555,-102.7353C754.7201,-89.0977 751.0539,-70.6948 758,-56 765.6351,-39.8476 782.03,-27.4611 795.1176,-19.6324"/>
<polygon fill="#191970" stroke="#191970" points="756.2168,-104.0637 763.127,-112.0949 762.7333,-101.5073 756.2168,-104.0637"/>
</g>
<!-- Node81&#45;&gt;Node76 -->
<g id="edge38" class="edge">
<title>Node81&#45;&gt;Node76</title>
<path fill="none" stroke="#191970" d="M667.2517,-106.6813C702.9184,-83.1832 770.0908,-38.9284 799.5426,-19.5249"/>
<polygon fill="#191970" stroke="#191970" points="664.9192,-104.0266 658.4941,-112.4509 668.7703,-109.872 664.9192,-104.0266"/>
</g>
<!-- Node83&#45;&gt;Node70 -->
<g id="edge39" class="edge">
<title>Node83&#45;&gt;Node70</title>
<path fill="none" stroke="#191970" d="M692.1943,-227.8924C590.1926,-215.8669 366.8424,-189.5351 293.1337,-180.8452"/>
<polygon fill="#191970" stroke="#191970" points="691.9222,-231.3845 702.2632,-229.0795 692.7418,-224.4326 691.9222,-231.3845"/>
</g>
<!-- Node83&#45;&gt;Node82 -->
<g id="edge40" class="edge">
<title>Node83&#45;&gt;Node82</title>
<path fill="none" stroke="#191970" d="M755.1535,-215.6296C760.8247,-206.2887 767.4845,-195.3197 772.1455,-187.6427"/>
<polygon fill="#191970" stroke="#191970" points="752.1204,-213.8812 749.9223,-224.2455 758.1039,-217.5141 752.1204,-213.8812"/>
</g>
<!-- Node84&#45;&gt;Node70 -->
<g id="edge41" class="edge">
<title>Node84&#45;&gt;Node70</title>
<path fill="none" stroke="#191970" d="M214.4297,-218.2097C227.7777,-208.3743 244.5179,-196.0394 255.9135,-187.6427"/>
<polygon fill="#191970" stroke="#191970" points="212.2126,-215.4958 206.2382,-224.2455 216.365,-221.1312 212.2126,-215.4958"/>
</g>
</g>
</svg>
