<?xml version="1.0" encoding="UTF-8" standalone="no"?>
<!DOCTYPE svg PUBLIC "-//W3C//DTD SVG 1.1//EN"
 "http://www.w3.org/Graphics/SVG/1.1/DTD/svg11.dtd">
<!-- Generated by graphviz version 2.40.1 (20161225.0304)
 -->
<!-- Title: plugins.hpp Pages: 1 -->
<svg width="292pt" height="196pt"
 viewBox="0.00 0.00 291.50 196.00" xmlns="http://www.w3.org/2000/svg" xmlns:xlink="http://www.w3.org/1999/xlink">
<g id="graph0" class="graph" transform="scale(1 1) rotate(0) translate(4 192)">
<title>plugins.hpp</title>
<polygon fill="#ffffff" stroke="transparent" points="-4,4 -4,-192 287.5,-192 287.5,4 -4,4"/>
<!-- Node0 -->
<g id="node1" class="node">
<title>Node0</title>
<polygon fill="#bfbfbf" stroke="#000000" points="104,-168.5 104,-187.5 170,-187.5 170,-168.5 104,-168.5"/>
<text text-anchor="middle" x="137" y="-175.5" font-family="Helvetica,sans-Serif" font-size="10.00" fill="#000000">plugins.hpp</text>
</g>
<!-- Node1 -->
<g id="node2" class="node">
<title>Node1</title>
<g id="a_node2"><a xlink:href="variable_8hpp.html" target="_top" xlink:title="alib/config/variable.hpp">
<polygon fill="#ffffff" stroke="#000000" points="10,-112.5 10,-131.5 126,-131.5 126,-112.5 10,-112.5"/>
<text text-anchor="middle" x="68" y="-119.5" font-family="Helvetica,sans-Serif" font-size="10.00" fill="#000000">alib/config/variable.hpp</text>
</a>
</g>
</g>
<!-- Node0&#45;&gt;Node1 -->
<g id="edge1" class="edge">
<title>Node0&#45;&gt;Node1</title>
<path fill="none" stroke="#191970" d="M124.9811,-168.2455C114.7902,-159.9746 99.9638,-147.9416 87.9893,-138.2232"/>
<polygon fill="#191970" stroke="#191970" points="89.8514,-135.2268 79.8812,-131.6427 85.4402,-140.662 89.8514,-135.2268"/>
</g>
<!-- Node8 -->
<g id="node3" class="node">
<title>Node8</title>
<g id="a_node3"><a xlink:href="substring_8hpp.html" target="_top" xlink:title="alib/strings/substring.hpp">
<polygon fill="#ffffff" stroke="#000000" points="145.5,-112.5 145.5,-131.5 270.5,-131.5 270.5,-112.5 145.5,-112.5"/>
<text text-anchor="middle" x="208" y="-119.5" font-family="Helvetica,sans-Serif" font-size="10.00" fill="#000000">alib/strings/substring.hpp</text>
</a>
</g>
</g>
<!-- Node0&#45;&gt;Node8 -->
<g id="edge2" class="edge">
<title>Node0&#45;&gt;Node8</title>
<path fill="none" stroke="#191970" d="M149.3673,-168.2455C159.9554,-159.8943 175.4064,-147.7076 187.7893,-137.9408"/>
<polygon fill="#191970" stroke="#191970" points="190.0903,-140.5837 195.7745,-131.6427 185.7553,-135.0875 190.0903,-140.5837"/>
</g>
<!-- Node2 -->
<g id="node4" class="node">
<title>Node2</title>
<g id="a_node4"><a xlink:href="configlib_8hpp.html" target="_top" xlink:title="alib/config/configlib.hpp">
<polygon fill="#ffffff" stroke="#000000" points="7.5,-56.5 7.5,-75.5 126.5,-75.5 126.5,-56.5 7.5,-56.5"/>
<text text-anchor="middle" x="67" y="-63.5" font-family="Helvetica,sans-Serif" font-size="10.00" fill="#000000">alib/config/configlib.hpp</text>
</a>
</g>
</g>
<!-- Node1&#45;&gt;Node2 -->
<g id="edge3" class="edge">
<title>Node1&#45;&gt;Node2</title>
<path fill="none" stroke="#191970" d="M67.8258,-112.2455C67.6953,-104.9382 67.5124,-94.6944 67.3519,-85.7046"/>
<polygon fill="#191970" stroke="#191970" points="70.8503,-85.5786 67.1722,-75.6427 63.8514,-85.7036 70.8503,-85.5786"/>
</g>
<!-- Node9 -->
<g id="node7" class="node">
<title>Node9</title>
<g id="a_node7"><a xlink:href="enumbitwise_8hpp.html" target="_top" xlink:title="alib/lang/enumbitwise.hpp">
<polygon fill="#ffffff" stroke="#000000" points="144.5,-56.5 144.5,-75.5 273.5,-75.5 273.5,-56.5 144.5,-56.5"/>
<text text-anchor="middle" x="209" y="-63.5" font-family="Helvetica,sans-Serif" font-size="10.00" fill="#000000">alib/lang/enumbitwise.hpp</text>
</a>
</g>
</g>
<!-- Node8&#45;&gt;Node9 -->
<g id="edge6" class="edge">
<title>Node8&#45;&gt;Node9</title>
<path fill="none" stroke="#191970" d="M208.1742,-112.2455C208.3047,-104.9382 208.4876,-94.6944 208.6481,-85.7046"/>
<polygon fill="#191970" stroke="#191970" points="212.1486,-85.7036 208.8278,-75.6427 205.1497,-85.5786 212.1486,-85.7036"/>
</g>
<!-- Node3 -->
<g id="node5" class="node">
<title>Node3</title>
<g id="a_node5"><a xlink:href="exception_8hpp.html" target="_top" xlink:title="alib/lang/exception.hpp">
<polygon fill="#ffffff" stroke="#ff0000" points="0,-.5 0,-19.5 116,-19.5 116,-.5 0,-.5"/>
<text text-anchor="middle" x="58" y="-7.5" font-family="Helvetica,sans-Serif" font-size="10.00" fill="#000000">alib/lang/exception.hpp</text>
</a>
</g>
</g>
<!-- Node2&#45;&gt;Node3 -->
<g id="edge4" class="edge">
<title>Node2&#45;&gt;Node3</title>
<path fill="none" stroke="#191970" d="M65.4323,-56.2455C64.2579,-48.9382 62.6116,-38.6944 61.1668,-29.7046"/>
<polygon fill="#191970" stroke="#191970" points="64.5922,-28.9606 59.5497,-19.6427 57.6809,-30.0714 64.5922,-28.9606"/>
</g>
<!-- Node7 -->
<g id="node6" class="node">
<title>Node7</title>
<g id="a_node6"><a xlink:href="enumarithmetical_8hpp.html" target="_top" xlink:title="alib/lang/enumarithmetical.hpp">
<polygon fill="#ffffff" stroke="#000000" points="134.5,-.5 134.5,-19.5 283.5,-19.5 283.5,-.5 134.5,-.5"/>
<text text-anchor="middle" x="209" y="-7.5" font-family="Helvetica,sans-Serif" font-size="10.00" fill="#000000">alib/lang/enumarithmetical.hpp</text>
</a>
</g>
</g>
<!-- Node2&#45;&gt;Node7 -->
<g id="edge5" class="edge">
<title>Node2&#45;&gt;Node7</title>
<path fill="none" stroke="#191970" d="M91.4107,-56.3733C114.6142,-47.2226 149.7038,-33.3844 175.5142,-23.2057"/>
<polygon fill="#191970" stroke="#191970" points="176.8892,-26.4258 184.9079,-19.5011 174.3211,-19.9139 176.8892,-26.4258"/>
</g>
<!-- Node9&#45;&gt;Node7 -->
<g id="edge7" class="edge">
<title>Node9&#45;&gt;Node7</title>
<path fill="none" stroke="#191970" d="M209,-56.2455C209,-48.9382 209,-38.6944 209,-29.7046"/>
<polygon fill="#191970" stroke="#191970" points="212.5001,-29.6426 209,-19.6427 205.5001,-29.6427 212.5001,-29.6426"/>
</g>
</g>
</svg>
