<?xml version="1.0" encoding="UTF-8" standalone="no"?>
<!DOCTYPE svg PUBLIC "-//W3C//DTD SVG 1.1//EN"
 "http://www.w3.org/Graphics/SVG/1.1/DTD/svg11.dtd">
<!-- Generated by graphviz version 2.40.1 (20161225.0304)
 -->
<!-- Title: resources.hpp Pages: 1 -->
<svg width="357pt" height="140pt"
 viewBox="0.00 0.00 356.50 140.00" xmlns="http://www.w3.org/2000/svg" xmlns:xlink="http://www.w3.org/1999/xlink">
<g id="graph0" class="graph" transform="scale(1 1) rotate(0) translate(4 136)">
<title>resources.hpp</title>
<polygon fill="#ffffff" stroke="transparent" points="-4,4 -4,-136 352.5,-136 352.5,4 -4,4"/>
<!-- Node0 -->
<g id="node1" class="node">
<title>Node0</title>
<polygon fill="#bfbfbf" stroke="#000000" points="80.5,-112.5 80.5,-131.5 158.5,-131.5 158.5,-112.5 80.5,-112.5"/>
<text text-anchor="middle" x="119.5" y="-119.5" font-family="Helvetica,sans-Serif" font-size="10.00" fill="#000000">resources.hpp</text>
</g>
<!-- Node1 -->
<g id="node2" class="node">
<title>Node1</title>
<polygon fill="#ffffff" stroke="#bfbfbf" points="0,-56.5 0,-75.5 35,-75.5 35,-56.5 0,-56.5"/>
<text text-anchor="middle" x="17.5" y="-63.5" font-family="Helvetica,sans-Serif" font-size="10.00" fill="#000000">map</text>
</g>
<!-- Node0&#45;&gt;Node1 -->
<g id="edge1" class="edge">
<title>Node0&#45;&gt;Node1</title>
<path fill="none" stroke="#191970" d="M101.733,-112.2455C85.7905,-103.4928 62.1741,-90.527 44.0011,-80.5496"/>
<polygon fill="#191970" stroke="#191970" points="45.5137,-77.3873 35.0634,-75.6427 42.1448,-83.5233 45.5137,-77.3873"/>
</g>
<!-- Node2 -->
<g id="node3" class="node">
<title>Node2</title>
<g id="a_node3"><a xlink:href="memoryblocks_8hpp.html" target="_top" xlink:title="alib/util/memoryblocks.hpp">
<polygon fill="#ffffff" stroke="#000000" points="53,-56.5 53,-75.5 186,-75.5 186,-56.5 53,-56.5"/>
<text text-anchor="middle" x="119.5" y="-63.5" font-family="Helvetica,sans-Serif" font-size="10.00" fill="#000000">alib/util/memoryblocks.hpp</text>
</a>
</g>
</g>
<!-- Node0&#45;&gt;Node2 -->
<g id="edge2" class="edge">
<title>Node0&#45;&gt;Node2</title>
<path fill="none" stroke="#191970" d="M119.5,-112.2455C119.5,-104.9382 119.5,-94.6944 119.5,-85.7046"/>
<polygon fill="#191970" stroke="#191970" points="123.0001,-85.6426 119.5,-75.6427 116.0001,-85.6427 123.0001,-85.6426"/>
</g>
<!-- Node4 -->
<g id="node4" class="node">
<title>Node4</title>
<g id="a_node4"><a xlink:href="stringmap_8hpp.html" target="_top" xlink:title="alib/strings/util/stringmap.hpp">
<polygon fill="#ffffff" stroke="#000000" points="204.5,-56.5 204.5,-75.5 348.5,-75.5 348.5,-56.5 204.5,-56.5"/>
<text text-anchor="middle" x="276.5" y="-63.5" font-family="Helvetica,sans-Serif" font-size="10.00" fill="#000000">alib/strings/util/stringmap.hpp</text>
</a>
</g>
</g>
<!-- Node0&#45;&gt;Node4 -->
<g id="edge3" class="edge">
<title>Node0&#45;&gt;Node4</title>
<path fill="none" stroke="#191970" d="M146.4893,-112.3733C172.3699,-103.1419 211.6248,-89.1402 240.2289,-78.9375"/>
<polygon fill="#191970" stroke="#191970" points="241.62,-82.1573 249.8629,-75.5011 239.2683,-75.5642 241.62,-82.1573"/>
</g>
<!-- Node3 -->
<g id="node5" class="node">
<title>Node3</title>
<polygon fill="#ffffff" stroke="#bfbfbf" points="97.5,-.5 97.5,-19.5 141.5,-19.5 141.5,-.5 97.5,-.5"/>
<text text-anchor="middle" x="119.5" y="-7.5" font-family="Helvetica,sans-Serif" font-size="10.00" fill="#000000">vector</text>
</g>
<!-- Node2&#45;&gt;Node3 -->
<g id="edge4" class="edge">
<title>Node2&#45;&gt;Node3</title>
<path fill="none" stroke="#191970" d="M119.5,-56.2455C119.5,-48.9382 119.5,-38.6944 119.5,-29.7046"/>
<polygon fill="#191970" stroke="#191970" points="123.0001,-29.6426 119.5,-19.6427 116.0001,-29.6427 123.0001,-29.6426"/>
</g>
</g>
</svg>
