<?xml version="1.0" encoding="UTF-8" standalone="no"?>
<!DOCTYPE svg PUBLIC "-//W3C//DTD SVG 1.1//EN"
 "http://www.w3.org/Graphics/SVG/1.1/DTD/svg11.dtd">
<!-- Generated by graphviz version 2.40.1 (20161225.0304)
 -->
<!-- Title: scopestore.hpp Pages: 1 -->
<svg width="945pt" height="420pt"
 viewBox="0.00 0.00 944.50 420.00" xmlns="http://www.w3.org/2000/svg" xmlns:xlink="http://www.w3.org/1999/xlink">
<g id="graph0" class="graph" transform="scale(1 1) rotate(0) translate(4 416)">
<title>scopestore.hpp</title>
<polygon fill="#ffffff" stroke="transparent" points="-4,4 -4,-416 940.5,-416 940.5,4 -4,4"/>
<!-- Node92 -->
<g id="node1" class="node">
<title>Node92</title>
<polygon fill="#bfbfbf" stroke="#000000" points="394,-392.5 394,-411.5 477,-411.5 477,-392.5 394,-392.5"/>
<text text-anchor="middle" x="435.5" y="-399.5" font-family="Helvetica,sans-Serif" font-size="10.00" fill="#000000">scopestore.hpp</text>
</g>
<!-- Node93 -->
<g id="node2" class="node">
<title>Node93</title>
<g id="a_node2"><a xlink:href="lox_8hpp.html" target="_top" xlink:title="lox.hpp">
<polygon fill="#ffffff" stroke="#000000" points="358.5,-336.5 358.5,-355.5 406.5,-355.5 406.5,-336.5 358.5,-336.5"/>
<text text-anchor="middle" x="382.5" y="-343.5" font-family="Helvetica,sans-Serif" font-size="10.00" fill="#000000">lox.hpp</text>
</a>
</g>
</g>
<!-- Node92&#45;&gt;Node93 -->
<g id="edge1" class="edge">
<title>Node92&#45;&gt;Node93</title>
<path fill="none" stroke="#191970" d="M419.2104,-384.7884C410.1438,-375.2085 399.1946,-363.6396 391.6261,-355.6427"/>
<polygon fill="#191970" stroke="#191970" points="416.8522,-387.3884 426.2681,-392.2455 421.9363,-382.5767 416.8522,-387.3884"/>
</g>
<!-- Node107 -->
<g id="node3" class="node">
<title>Node107</title>
<g id="a_node3"><a xlink:href="scopedump_8hpp.html" target="_top" xlink:title="scopedump.hpp">
<polygon fill="#ffffff" stroke="#000000" points="850.5,-224.5 850.5,-243.5 936.5,-243.5 936.5,-224.5 850.5,-224.5"/>
<text text-anchor="middle" x="893.5" y="-231.5" font-family="Helvetica,sans-Serif" font-size="10.00" fill="#000000">scopedump.hpp</text>
</a>
</g>
</g>
<!-- Node92&#45;&gt;Node107 -->
<g id="edge2" class="edge">
<title>Node92&#45;&gt;Node107</title>
<path fill="none" stroke="#191970" d="M471.0634,-388.9549C559.9186,-356.3617 790.0363,-271.9518 867.565,-243.5133"/>
<polygon fill="#191970" stroke="#191970" points="469.6193,-385.7565 461.4363,-392.4862 472.03,-392.3283 469.6193,-385.7565"/>
</g>
<!-- Node94 -->
<g id="node4" class="node">
<title>Node94</title>
<g id="a_node4"><a xlink:href="alox_2alox_8hpp.html" target="_top" xlink:title="alox.hpp">
<polygon fill="#ffffff" stroke="#000000" points="409,-280.5 409,-299.5 462,-299.5 462,-280.5 409,-280.5"/>
<text text-anchor="middle" x="435.5" y="-287.5" font-family="Helvetica,sans-Serif" font-size="10.00" fill="#000000">alox.hpp</text>
</a>
</g>
</g>
<!-- Node93&#45;&gt;Node94 -->
<g id="edge3" class="edge">
<title>Node93&#45;&gt;Node94</title>
<path fill="none" stroke="#191970" d="M393.0017,-328.2112C401.1541,-318.7472 412.181,-307.4797 421.1288,-299.6427"/>
<polygon fill="#191970" stroke="#191970" points="390.0612,-326.2797 386.465,-336.2455 395.4911,-330.6974 390.0612,-326.2797"/>
</g>
<!-- Node94&#45;&gt;Node92 -->
<g id="edge4" class="edge">
<title>Node94&#45;&gt;Node92</title>
<path fill="none" stroke="#191970" d="M435.5,-309.6976C435.5,-333.9553 435.5,-374.184 435.5,-392.4509"/>
<polygon fill="#191970" stroke="#191970" points="439.0001,-309.5249 435.5,-299.5249 432.0001,-309.5249 439.0001,-309.5249"/>
</g>
<!-- Node94&#45;&gt;Node93 -->
<g id="edge5" class="edge">
<title>Node94&#45;&gt;Node93</title>
<path fill="none" stroke="#191970" d="M425.1141,-307.6542C416.9892,-317.101 405.9662,-328.3761 396.9987,-336.2455"/>
<polygon fill="#191970" stroke="#191970" points="428.0328,-309.6121 431.619,-299.6427 422.5985,-305.1998 428.0328,-309.6121"/>
</g>
<!-- Node94&#45;&gt;Node107 -->
<g id="edge18" class="edge">
<title>Node94&#45;&gt;Node107</title>
<path fill="none" stroke="#191970" d="M472.512,-286.497C543.3473,-279.6283 702.9235,-263.3612 836.5,-244 840.9744,-243.3515 845.637,-242.6219 850.2834,-241.8599"/>
<polygon fill="#191970" stroke="#191970" points="471.9381,-283.036 462.3202,-287.4796 472.61,-290.0037 471.9381,-283.036"/>
</g>
<!-- Node95 -->
<g id="node5" class="node">
<title>Node95</title>
<g id="a_node5"><a xlink:href="log_8hpp.html" target="_top" xlink:title="log.hpp">
<polygon fill="#ffffff" stroke="#000000" points="385.5,-224.5 385.5,-243.5 433.5,-243.5 433.5,-224.5 385.5,-224.5"/>
<text text-anchor="middle" x="409.5" y="-231.5" font-family="Helvetica,sans-Serif" font-size="10.00" fill="#000000">log.hpp</text>
</a>
</g>
</g>
<!-- Node94&#45;&gt;Node95 -->
<g id="edge6" class="edge">
<title>Node94&#45;&gt;Node95</title>
<path fill="none" stroke="#191970" d="M420.589,-271.6296C415.5106,-262.2887 410.7967,-251.3197 408.7318,-243.6427"/>
<polygon fill="#191970" stroke="#191970" points="417.5896,-273.4336 425.7043,-280.2455 423.6087,-269.86 417.5896,-273.4336"/>
</g>
<!-- Node96 -->
<g id="node6" class="node">
<title>Node96</title>
<g id="a_node6"><a xlink:href="domain_8hpp.html" target="_top" xlink:title="domain.hpp">
<polygon fill="#ffffff" stroke="#000000" points="0,-224.5 0,-243.5 67,-243.5 67,-224.5 0,-224.5"/>
<text text-anchor="middle" x="33.5" y="-231.5" font-family="Helvetica,sans-Serif" font-size="10.00" fill="#000000">domain.hpp</text>
</a>
</g>
</g>
<!-- Node94&#45;&gt;Node96 -->
<g id="edge7" class="edge">
<title>Node94&#45;&gt;Node96</title>
<path fill="none" stroke="#191970" d="M398.4833,-286.5857C333.0129,-280.2546 192.6398,-265.3662 75.5,-244 72.8454,-243.5158 70.1069,-242.97 67.3605,-242.3896"/>
<polygon fill="#191970" stroke="#191970" points="398.4164,-290.0952 408.7042,-287.5631 399.0828,-283.127 398.4164,-290.0952"/>
</g>
<!-- Node97 -->
<g id="node7" class="node">
<title>Node97</title>
<g id="a_node7"><a xlink:href="logger_8hpp.html" target="_top" xlink:title="logger.hpp">
<polygon fill="#ffffff" stroke="#000000" points="219,-224.5 219,-243.5 280,-243.5 280,-224.5 219,-224.5"/>
<text text-anchor="middle" x="249.5" y="-231.5" font-family="Helvetica,sans-Serif" font-size="10.00" fill="#000000">logger.hpp</text>
</a>
</g>
</g>
<!-- Node94&#45;&gt;Node97 -->
<g id="edge8" class="edge">
<title>Node94&#45;&gt;Node97</title>
<path fill="none" stroke="#191970" d="M399.1074,-279.0431C364.4146,-268.598 312.7592,-253.0458 280.1213,-243.2193"/>
<polygon fill="#191970" stroke="#191970" points="398.2663,-282.445 408.8507,-281.9766 400.2844,-275.7422 398.2663,-282.445"/>
</g>
<!-- Node98 -->
<g id="node8" class="node">
<title>Node98</title>
<g id="a_node8"><a xlink:href="textlogger_8hpp.html" target="_top" xlink:title="textlogger.hpp">
<polygon fill="#ffffff" stroke="#000000" points="432,-168.5 432,-187.5 509,-187.5 509,-168.5 432,-168.5"/>
<text text-anchor="middle" x="470.5" y="-175.5" font-family="Helvetica,sans-Serif" font-size="10.00" fill="#000000">textlogger.hpp</text>
</a>
</g>
</g>
<!-- Node94&#45;&gt;Node98 -->
<g id="edge9" class="edge">
<title>Node94&#45;&gt;Node98</title>
<path fill="none" stroke="#191970" d="M455.5006,-273.0348C463.3185,-265.1126 471.3851,-255.0031 475.5,-244 482.5843,-225.0569 477.5644,-200.9652 473.7351,-187.7579"/>
<polygon fill="#191970" stroke="#191970" points="452.7968,-270.7736 447.9212,-280.18 457.5985,-275.8671 452.7968,-270.7736"/>
</g>
<!-- Node99 -->
<g id="node9" class="node">
<title>Node99</title>
<g id="a_node9"><a xlink:href="plaintextlogger_8hpp.html" target="_top" xlink:title="plaintextlogger.hpp">
<polygon fill="#ffffff" stroke="#000000" points="449.5,-112.5 449.5,-131.5 547.5,-131.5 547.5,-112.5 449.5,-112.5"/>
<text text-anchor="middle" x="498.5" y="-119.5" font-family="Helvetica,sans-Serif" font-size="10.00" fill="#000000">plaintextlogger.hpp</text>
</a>
</g>
</g>
<!-- Node94&#45;&gt;Node99 -->
<g id="edge10" class="edge">
<title>Node94&#45;&gt;Node99</title>
<path fill="none" stroke="#191970" d="M458.1769,-274.4298C468.9178,-266.2613 481.3628,-255.5579 490.5,-244 507.7572,-222.1709 512.1068,-215.0822 518.5,-188 523.2864,-167.7245 512.3268,-144.5206 504.8147,-131.736"/>
<polygon fill="#191970" stroke="#191970" points="456.0206,-271.6707 450.0239,-280.4052 460.1586,-277.3167 456.0206,-271.6707"/>
</g>
<!-- Node100 -->
<g id="node10" class="node">
<title>Node100</title>
<g id="a_node10"><a xlink:href="consolelogger_8hpp.html" target="_top" xlink:title="consolelogger.hpp">
<polygon fill="#ffffff" stroke="#000000" points="329,-56.5 329,-75.5 424,-75.5 424,-56.5 329,-56.5"/>
<text text-anchor="middle" x="376.5" y="-63.5" font-family="Helvetica,sans-Serif" font-size="10.00" fill="#000000">consolelogger.hpp</text>
</a>
</g>
</g>
<!-- Node94&#45;&gt;Node100 -->
<g id="edge11" class="edge">
<title>Node94&#45;&gt;Node100</title>
<path fill="none" stroke="#191970" d="M398.8264,-287.9963C341.0543,-283.988 232.9905,-272.7535 209.5,-244 154.0053,-176.072 297.4445,-101.6157 354.388,-75.6015"/>
<polygon fill="#191970" stroke="#191970" points="398.7891,-291.5013 408.9968,-288.6632 399.2473,-284.5163 398.7891,-291.5013"/>
</g>
<!-- Node101 -->
<g id="node11" class="node">
<title>Node101</title>
<g id="a_node11"><a xlink:href="alox_8hpp_source.html" target="_top" xlink:title="alox.hpp">
<polygon fill="#ffffff" stroke="#000000" points="576,-.5 576,-19.5 629,-19.5 629,-.5 576,-.5"/>
<text text-anchor="middle" x="602.5" y="-7.5" font-family="Helvetica,sans-Serif" font-size="10.00" fill="#000000">alox.hpp</text>
</a>
</g>
</g>
<!-- Node94&#45;&gt;Node101 -->
<g id="edge12" class="edge">
<title>Node94&#45;&gt;Node101</title>
<path fill="none" stroke="#191970" d="M472.2829,-287.2453C568.904,-279.0049 822.5,-250.4736 822.5,-178 822.5,-178 822.5,-178 822.5,-122 822.5,-91.4754 825.6728,-76.979 803.5,-56 778.5368,-32.3808 677.9559,-18.3154 629.2256,-12.7589"/>
<polygon fill="#191970" stroke="#191970" points="471.7774,-283.775 462.1001,-288.0877 472.3546,-290.7512 471.7774,-283.775"/>
</g>
<!-- Node102 -->
<g id="node12" class="node">
<title>Node102</title>
<g id="a_node12"><a xlink:href="memorylogger_8hpp.html" target="_top" xlink:title="memorylogger.hpp">
<polygon fill="#ffffff" stroke="#000000" points="442.5,-56.5 442.5,-75.5 538.5,-75.5 538.5,-56.5 442.5,-56.5"/>
<text text-anchor="middle" x="490.5" y="-63.5" font-family="Helvetica,sans-Serif" font-size="10.00" fill="#000000">memorylogger.hpp</text>
</a>
</g>
</g>
<!-- Node94&#45;&gt;Node102 -->
<g id="edge13" class="edge">
<title>Node94&#45;&gt;Node102</title>
<path fill="none" stroke="#191970" d="M468.8776,-275.7782C483.5577,-268.1431 500.0315,-257.4983 511.5,-244 546.2346,-203.118 546.3147,-184.6696 556.5,-132 558.1877,-123.2728 560.613,-119.8801 556.5,-112 547.6462,-95.0371 529.3669,-83.0558 514.2859,-75.5822"/>
<polygon fill="#191970" stroke="#191970" points="466.989,-272.8066 459.5603,-280.3606 470.0784,-279.088 466.989,-272.8066"/>
</g>
<!-- Node103 -->
<g id="node13" class="node">
<title>Node103</title>
<g id="a_node13"><a xlink:href="textfilelogger_8hpp.html" target="_top" xlink:title="textfilelogger.hpp">
<polygon fill="#ffffff" stroke="#000000" points="704.5,-56.5 704.5,-75.5 794.5,-75.5 794.5,-56.5 704.5,-56.5"/>
<text text-anchor="middle" x="749.5" y="-63.5" font-family="Helvetica,sans-Serif" font-size="10.00" fill="#000000">textfilelogger.hpp</text>
</a>
</g>
</g>
<!-- Node94&#45;&gt;Node103 -->
<g id="edge14" class="edge">
<title>Node94&#45;&gt;Node103</title>
<path fill="none" stroke="#191970" d="M472.0672,-285.3574C525.2203,-278.0762 620.6344,-262.8375 649.5,-244 700.9458,-210.4269 703.6015,-187.2295 730.5,-132 739.6888,-113.133 745.2235,-89.0128 747.7853,-75.7802"/>
<polygon fill="#191970" stroke="#191970" points="471.4769,-281.9052 462.0323,-286.7063 472.4094,-288.8428 471.4769,-281.9052"/>
</g>
<!-- Node104 -->
<g id="node14" class="node">
<title>Node104</title>
<g id="a_node14"><a xlink:href="vstudiologger_8hpp.html" target="_top" xlink:title="vstudiologger.hpp">
<polygon fill="#ffffff" stroke="#000000" points="556.5,-56.5 556.5,-75.5 648.5,-75.5 648.5,-56.5 556.5,-56.5"/>
<text text-anchor="middle" x="602.5" y="-63.5" font-family="Helvetica,sans-Serif" font-size="10.00" fill="#000000">vstudiologger.hpp</text>
</a>
</g>
</g>
<!-- Node94&#45;&gt;Node104 -->
<g id="edge15" class="edge">
<title>Node94&#45;&gt;Node104</title>
<path fill="none" stroke="#191970" d="M471.8701,-279.2791C491.7321,-271.942 515.6413,-260.5112 532.5,-244 582.7945,-194.7424 597.7941,-104.9969 601.4645,-75.602"/>
<polygon fill="#191970" stroke="#191970" points="470.4917,-276.053 462.203,-282.6521 472.7979,-282.6623 470.4917,-276.053"/>
</g>
<!-- Node105 -->
<g id="node15" class="node">
<title>Node105</title>
<g id="a_node15"><a xlink:href="ansilogger_8hpp.html" target="_top" xlink:title="ansilogger.hpp">
<polygon fill="#ffffff" stroke="#000000" points="642,-112.5 642,-131.5 721,-131.5 721,-112.5 642,-112.5"/>
<text text-anchor="middle" x="681.5" y="-119.5" font-family="Helvetica,sans-Serif" font-size="10.00" fill="#000000">ansilogger.hpp</text>
</a>
</g>
</g>
<!-- Node94&#45;&gt;Node105 -->
<g id="edge16" class="edge">
<title>Node94&#45;&gt;Node105</title>
<path fill="none" stroke="#191970" d="M472.3997,-285.1106C521.3206,-277.9759 604.1923,-263.4185 627.5,-244 663.6253,-213.9026 676.4133,-154.8243 680.1599,-131.6522"/>
<polygon fill="#191970" stroke="#191970" points="471.6232,-281.6858 462.2163,-286.5602 472.6098,-288.6159 471.6232,-281.6858"/>
</g>
<!-- Node106 -->
<g id="node16" class="node">
<title>Node106</title>
<g id="a_node16"><a xlink:href="windowsconsolelogger_8hpp.html" target="_top" xlink:title="windowsconsolelogger.hpp">
<polygon fill="#ffffff" stroke="#000000" points="298,-112.5 298,-131.5 431,-131.5 431,-112.5 298,-112.5"/>
<text text-anchor="middle" x="364.5" y="-119.5" font-family="Helvetica,sans-Serif" font-size="10.00" fill="#000000">windowsconsolelogger.hpp</text>
</a>
</g>
</g>
<!-- Node94&#45;&gt;Node106 -->
<g id="edge17" class="edge">
<title>Node94&#45;&gt;Node106</title>
<path fill="none" stroke="#191970" d="M441.8767,-270.3136C445.1839,-256.9333 447.5804,-239.007 442.5,-224 435.3874,-202.9901 392.2002,-153.0092 373.3209,-131.7936"/>
<polygon fill="#191970" stroke="#191970" points="438.4,-269.7438 439.0287,-280.32 445.1326,-271.6601 438.4,-269.7438"/>
</g>
<!-- Node108 -->
<g id="node17" class="node">
<title>Node108</title>
<g id="a_node17"><a xlink:href="scopeinfo_8hpp.html" target="_top" xlink:title="scopeinfo.hpp">
<polygon fill="#ffffff" stroke="#000000" points="85,-224.5 85,-243.5 162,-243.5 162,-224.5 85,-224.5"/>
<text text-anchor="middle" x="123.5" y="-231.5" font-family="Helvetica,sans-Serif" font-size="10.00" fill="#000000">scopeinfo.hpp</text>
</a>
</g>
</g>
<!-- Node94&#45;&gt;Node108 -->
<g id="edge19" class="edge">
<title>Node94&#45;&gt;Node108</title>
<path fill="none" stroke="#191970" d="M398.577,-283.5704C348.3135,-274.7885 255.5546,-258.4778 176.5,-244 171.8947,-243.1566 167.0666,-242.2612 162.2783,-241.3662"/>
<polygon fill="#191970" stroke="#191970" points="398.1845,-287.0547 408.6374,-285.3267 399.3884,-280.159 398.1845,-287.0547"/>
</g>
<!-- Node109 -->
<g id="node18" class="node">
<title>Node109</title>
<g id="a_node18"><a xlink:href="logtools_8hpp.html" target="_top" xlink:title="logtools.hpp">
<polygon fill="#ffffff" stroke="#000000" points="298,-224.5 298,-243.5 367,-243.5 367,-224.5 298,-224.5"/>
<text text-anchor="middle" x="332.5" y="-231.5" font-family="Helvetica,sans-Serif" font-size="10.00" fill="#000000">logtools.hpp</text>
</a>
</g>
</g>
<!-- Node94&#45;&gt;Node109 -->
<g id="edge20" class="edge">
<title>Node94&#45;&gt;Node109</title>
<path fill="none" stroke="#191970" d="M408.7568,-275.46C390.325,-265.4388 366.3416,-252.3993 350.2356,-243.6427"/>
<polygon fill="#191970" stroke="#191970" points="407.1015,-278.5438 417.5588,-280.2455 410.4451,-272.394 407.1015,-278.5438"/>
</g>
<!-- Node95&#45;&gt;Node94 -->
<g id="edge21" class="edge">
<title>Node95&#45;&gt;Node94</title>
<path fill="none" stroke="#191970" d="M424.4959,-252.5267C429.5173,-261.7881 434.1692,-272.617 436.238,-280.2455"/>
<polygon fill="#191970" stroke="#191970" points="427.3364,-250.4551 419.2221,-243.6427 421.3171,-254.0283 427.3364,-250.4551"/>
</g>
<!-- Node96&#45;&gt;Node93 -->
<g id="edge22" class="edge">
<title>Node96&#45;&gt;Node93</title>
<path fill="none" stroke="#191970" d="M71.584,-246.8103C111.7705,-260.2709 176.9864,-281.9535 233.5,-300 277.4715,-314.0414 328.9646,-329.7838 358.4555,-338.7329"/>
<polygon fill="#191970" stroke="#191970" points="72.5208,-243.433 61.9269,-243.5725 70.2955,-250.0699 72.5208,-243.433"/>
</g>
<!-- Node97&#45;&gt;Node93 -->
<g id="edge23" class="edge">
<title>Node97&#45;&gt;Node93</title>
<path fill="none" stroke="#191970" d="M268.7361,-250.1988C296.8768,-273.8962 348.3888,-317.2747 371.1605,-336.4509"/>
<polygon fill="#191970" stroke="#191970" points="270.7144,-247.2891 260.8108,-243.5249 266.2055,-252.6435 270.7144,-247.2891"/>
</g>
<!-- Node97&#45;&gt;Node98 -->
<g id="edge24" class="edge">
<title>Node97&#45;&gt;Node98</title>
<path fill="none" stroke="#191970" d="M290.0149,-223.6195C344.683,-209.7112 397.7548,-196.3178 432.4949,-187.5652"/>
<polygon fill="#191970" stroke="#191970" points="288.9819,-220.2707 280.1543,-226.1293 290.7086,-227.0544 288.9819,-220.2707"/>
</g>
<!-- Node98&#45;&gt;Node99 -->
<g id="edge25" class="edge">
<title>Node98&#45;&gt;Node99</title>
<path fill="none" stroke="#191970" d="M479.9781,-159.0437C484.5835,-149.8331 489.9201,-139.1598 493.6787,-131.6427"/>
<polygon fill="#191970" stroke="#191970" points="476.7189,-157.736 475.3772,-168.2455 482.9799,-160.8665 476.7189,-157.736"/>
</g>
<!-- Node98&#45;&gt;Node105 -->
<g id="edge26" class="edge">
<title>Node98&#45;&gt;Node105</title>
<path fill="none" stroke="#191970" d="M516.7697,-165.7199C555.5676,-155.4228 610.1759,-140.9296 645.7011,-131.5011"/>
<polygon fill="#191970" stroke="#191970" points="515.5397,-162.4251 506.7722,-168.3733 517.3354,-169.1909 515.5397,-162.4251"/>
</g>
<!-- Node98&#45;&gt;Node106 -->
<g id="edge27" class="edge">
<title>Node98&#45;&gt;Node106</title>
<path fill="none" stroke="#191970" d="M442.9778,-163.46C424.0092,-153.4388 399.3273,-140.3993 382.7522,-131.6427"/>
<polygon fill="#191970" stroke="#191970" points="441.5593,-166.669 452.0362,-168.2455 444.8292,-160.4796 441.5593,-166.669"/>
</g>
<!-- Node99&#45;&gt;Node100 -->
<g id="edge28" class="edge">
<title>Node99&#45;&gt;Node100</title>
<path fill="none" stroke="#191970" d="M468.2416,-108.1109C446.1181,-97.9559 416.6906,-84.4482 397.1989,-75.5011"/>
<polygon fill="#191970" stroke="#191970" points="466.979,-111.3824 477.5275,-112.3733 469.8993,-105.0206 466.979,-111.3824"/>
</g>
<!-- Node99&#45;&gt;Node102 -->
<g id="edge29" class="edge">
<title>Node99&#45;&gt;Node102</title>
<path fill="none" stroke="#191970" d="M495.6654,-102.1575C494.3793,-93.155 492.9171,-82.9199 491.8775,-75.6427"/>
<polygon fill="#191970" stroke="#191970" points="492.2274,-102.8411 497.1065,-112.2455 499.157,-101.851 492.2274,-102.8411"/>
</g>
<!-- Node99&#45;&gt;Node103 -->
<g id="edge30" class="edge">
<title>Node99&#45;&gt;Node103</title>
<path fill="none" stroke="#191970" d="M551.1989,-110.2425C597.438,-99.9262 663.8307,-85.1135 706.8135,-75.5237"/>
<polygon fill="#191970" stroke="#191970" points="550.3611,-106.8433 541.3632,-112.4369 551.8854,-113.6753 550.3611,-106.8433"/>
</g>
<!-- Node99&#45;&gt;Node104 -->
<g id="edge31" class="edge">
<title>Node99&#45;&gt;Node104</title>
<path fill="none" stroke="#191970" d="M525.5029,-107.46C544.1136,-97.4388 568.3299,-84.3993 584.5922,-75.6427"/>
<polygon fill="#191970" stroke="#191970" points="523.7608,-104.4228 516.6154,-112.2455 527.0795,-110.5861 523.7608,-104.4228"/>
</g>
<!-- Node100&#45;&gt;Node101 -->
<g id="edge32" class="edge">
<title>Node100&#45;&gt;Node101</title>
<path fill="none" stroke="#191970" d="M424.8694,-54.0147C470.9569,-42.5947 538.6532,-25.8204 575.7506,-16.6282"/>
<polygon fill="#191970" stroke="#191970" points="423.9586,-50.6344 415.094,-56.4369 425.6423,-57.4289 423.9586,-50.6344"/>
</g>
<!-- Node104&#45;&gt;Node101 -->
<g id="edge33" class="edge">
<title>Node104&#45;&gt;Node101</title>
<path fill="none" stroke="#191970" d="M602.5,-46.1575C602.5,-37.155 602.5,-26.9199 602.5,-19.6427"/>
<polygon fill="#191970" stroke="#191970" points="599.0001,-46.2455 602.5,-56.2455 606.0001,-46.2456 599.0001,-46.2455"/>
</g>
<!-- Node105&#45;&gt;Node101 -->
<g id="edge34" class="edge">
<title>Node105&#45;&gt;Node101</title>
<path fill="none" stroke="#191970" d="M677.2543,-102.3699C673.5992,-88.5238 667.3315,-70.0212 657.5,-56 646.923,-40.9156 630.1931,-27.898 617.9597,-19.5992"/>
<polygon fill="#191970" stroke="#191970" points="673.9016,-103.3974 679.6437,-112.3013 680.7074,-101.76 673.9016,-103.3974"/>
</g>
<!-- Node106&#45;&gt;Node101 -->
<g id="edge35" class="edge">
<title>Node106&#45;&gt;Node101</title>
<path fill="none" stroke="#191970" d="M341.529,-106.1523C324.2939,-92.343 305.8325,-72.0684 319.5,-56 336.0687,-36.5206 508.3971,-18.6732 575.7413,-12.3898"/>
<polygon fill="#191970" stroke="#191970" points="339.6579,-109.1254 349.7452,-112.3654 343.88,-103.5421 339.6579,-109.1254"/>
</g>
<!-- Node108&#45;&gt;Node93 -->
<g id="edge36" class="edge">
<title>Node108&#45;&gt;Node93</title>
<path fill="none" stroke="#191970" d="M154.7936,-247.5323C207.8929,-270.4942 314.3526,-316.5308 360.4178,-336.4509"/>
<polygon fill="#191970" stroke="#191970" points="156.0941,-244.2816 145.5263,-243.5249 153.3157,-250.7066 156.0941,-244.2816"/>
</g>
</g>
</svg>
