<?xml version="1.0" encoding="UTF-8" standalone="no"?>
<!DOCTYPE svg PUBLIC "-//W3C//DTD SVG 1.1//EN"
 "http://www.w3.org/Graphics/SVG/1.1/DTD/svg11.dtd">
<!-- Generated by graphviz version 2.40.1 (20161225.0304)
 -->
<!-- Title: scopeinfo.hpp Pages: 1 -->
<svg width="783pt" height="420pt"
 viewBox="0.00 0.00 783.00 420.00" xmlns="http://www.w3.org/2000/svg" xmlns:xlink="http://www.w3.org/1999/xlink">
<g id="graph0" class="graph" transform="scale(1 1) rotate(0) translate(4 416)">
<title>scopeinfo.hpp</title>
<polygon fill="#ffffff" stroke="transparent" points="-4,4 -4,-416 779,-416 779,4 -4,4"/>
<!-- Node92 -->
<g id="node1" class="node">
<title>Node92</title>
<polygon fill="#bfbfbf" stroke="#000000" points="300,-392.5 300,-411.5 377,-411.5 377,-392.5 300,-392.5"/>
<text text-anchor="middle" x="338.5" y="-399.5" font-family="Helvetica,sans-Serif" font-size="10.00" fill="#000000">scopeinfo.hpp</text>
</g>
<!-- Node93 -->
<g id="node2" class="node">
<title>Node93</title>
<g id="a_node2"><a xlink:href="lox_8hpp.html" target="_top" xlink:title="lox.hpp">
<polygon fill="#ffffff" stroke="#000000" points="340.5,-336.5 340.5,-355.5 388.5,-355.5 388.5,-336.5 340.5,-336.5"/>
<text text-anchor="middle" x="364.5" y="-343.5" font-family="Helvetica,sans-Serif" font-size="10.00" fill="#000000">lox.hpp</text>
</a>
</g>
</g>
<!-- Node92&#45;&gt;Node93 -->
<g id="edge1" class="edge">
<title>Node92&#45;&gt;Node93</title>
<path fill="none" stroke="#191970" d="M347.3011,-383.0437C351.5775,-373.8331 356.533,-363.1598 360.023,-355.6427"/>
<polygon fill="#191970" stroke="#191970" points="344.0655,-381.7015 343.0289,-392.2455 350.4146,-384.6494 344.0655,-381.7015"/>
</g>
<!-- Node94 -->
<g id="node3" class="node">
<title>Node94</title>
<g id="a_node3"><a xlink:href="alox_2alox_8hpp.html" target="_top" xlink:title="alox.hpp">
<polygon fill="#ffffff" stroke="#000000" points="312,-280.5 312,-299.5 365,-299.5 365,-280.5 312,-280.5"/>
<text text-anchor="middle" x="338.5" y="-287.5" font-family="Helvetica,sans-Serif" font-size="10.00" fill="#000000">alox.hpp</text>
</a>
</g>
</g>
<!-- Node93&#45;&gt;Node94 -->
<g id="edge2" class="edge">
<title>Node93&#45;&gt;Node94</title>
<path fill="none" stroke="#191970" d="M349.589,-327.6296C344.5106,-318.2887 339.7967,-307.3197 337.7318,-299.6427"/>
<polygon fill="#191970" stroke="#191970" points="346.5896,-329.4336 354.7043,-336.2455 352.6087,-325.86 346.5896,-329.4336"/>
</g>
<!-- Node94&#45;&gt;Node92 -->
<g id="edge3" class="edge">
<title>Node94&#45;&gt;Node92</title>
<path fill="none" stroke="#191970" d="M334.4801,-310.0227C332.3248,-323.0924 330.3302,-340.5373 331.5,-356 332.4506,-368.5658 334.842,-382.8986 336.5653,-392.1787"/>
<polygon fill="#191970" stroke="#191970" points="337.9892,-310.2888 336.34,-299.8232 331.1028,-309.033 337.9892,-310.2888"/>
</g>
<!-- Node94&#45;&gt;Node93 -->
<g id="edge4" class="edge">
<title>Node94&#45;&gt;Node93</title>
<path fill="none" stroke="#191970" d="M353.4959,-308.5267C358.5173,-317.7881 363.1692,-328.617 365.238,-336.2455"/>
<polygon fill="#191970" stroke="#191970" points="356.3364,-306.4551 348.2221,-299.6427 350.3171,-310.0283 356.3364,-306.4551"/>
</g>
<!-- Node95 -->
<g id="node4" class="node">
<title>Node95</title>
<g id="a_node4"><a xlink:href="log_8hpp.html" target="_top" xlink:title="log.hpp">
<polygon fill="#ffffff" stroke="#000000" points="186.5,-224.5 186.5,-243.5 234.5,-243.5 234.5,-224.5 186.5,-224.5"/>
<text text-anchor="middle" x="210.5" y="-231.5" font-family="Helvetica,sans-Serif" font-size="10.00" fill="#000000">log.hpp</text>
</a>
</g>
</g>
<!-- Node94&#45;&gt;Node95 -->
<g id="edge5" class="edge">
<title>Node94&#45;&gt;Node95</title>
<path fill="none" stroke="#191970" d="M302.4543,-276.7818C277.7639,-266.5911 246.2989,-252.7381 227.1882,-243.5914"/>
<polygon fill="#191970" stroke="#191970" points="301.3026,-280.0919 311.8839,-280.6269 303.9457,-273.6101 301.3026,-280.0919"/>
</g>
<!-- Node96 -->
<g id="node5" class="node">
<title>Node96</title>
<g id="a_node5"><a xlink:href="domain_8hpp.html" target="_top" xlink:title="domain.hpp">
<polygon fill="#ffffff" stroke="#000000" points="708,-224.5 708,-243.5 775,-243.5 775,-224.5 708,-224.5"/>
<text text-anchor="middle" x="741.5" y="-231.5" font-family="Helvetica,sans-Serif" font-size="10.00" fill="#000000">domain.hpp</text>
</a>
</g>
</g>
<!-- Node94&#45;&gt;Node96 -->
<g id="edge6" class="edge">
<title>Node94&#45;&gt;Node96</title>
<path fill="none" stroke="#191970" d="M375.6198,-286.5935C441.2726,-280.2745 582.0363,-265.4042 699.5,-244 702.1547,-243.5163 704.8933,-242.9708 707.6397,-242.3906"/>
<polygon fill="#191970" stroke="#191970" points="374.9938,-283.1372 365.3705,-287.569 375.6571,-290.1057 374.9938,-283.1372"/>
</g>
<!-- Node97 -->
<g id="node6" class="node">
<title>Node97</title>
<g id="a_node6"><a xlink:href="logger_8hpp.html" target="_top" xlink:title="logger.hpp">
<polygon fill="#ffffff" stroke="#000000" points="31,-224.5 31,-243.5 92,-243.5 92,-224.5 31,-224.5"/>
<text text-anchor="middle" x="61.5" y="-231.5" font-family="Helvetica,sans-Serif" font-size="10.00" fill="#000000">logger.hpp</text>
</a>
</g>
</g>
<!-- Node94&#45;&gt;Node97 -->
<g id="edge7" class="edge">
<title>Node94&#45;&gt;Node97</title>
<path fill="none" stroke="#191970" d="M301.6145,-282.9571C255.8017,-274.1474 175.281,-258.4592 106.5,-244 101.9575,-243.0451 97.1634,-242.0095 92.465,-240.979"/>
<polygon fill="#191970" stroke="#191970" points="301.1859,-286.4387 311.6664,-284.8868 302.5056,-279.5642 301.1859,-286.4387"/>
</g>
<!-- Node98 -->
<g id="node7" class="node">
<title>Node98</title>
<g id="a_node7"><a xlink:href="textlogger_8hpp.html" target="_top" xlink:title="textlogger.hpp">
<polygon fill="#ffffff" stroke="#000000" points="53,-168.5 53,-187.5 130,-187.5 130,-168.5 53,-168.5"/>
<text text-anchor="middle" x="91.5" y="-175.5" font-family="Helvetica,sans-Serif" font-size="10.00" fill="#000000">textlogger.hpp</text>
</a>
</g>
</g>
<!-- Node94&#45;&gt;Node98 -->
<g id="edge8" class="edge">
<title>Node94&#45;&gt;Node98</title>
<path fill="none" stroke="#191970" d="M301.5019,-284.1739C252.7991,-276.0085 170.3309,-260.3213 144.5,-244 121.8894,-229.7135 104.6404,-202.3821 96.5575,-187.7749"/>
<polygon fill="#191970" stroke="#191970" points="301.2051,-287.6721 311.6415,-285.8471 302.3448,-280.7655 301.2051,-287.6721"/>
</g>
<!-- Node99 -->
<g id="node8" class="node">
<title>Node99</title>
<g id="a_node8"><a xlink:href="plaintextlogger_8hpp.html" target="_top" xlink:title="plaintextlogger.hpp">
<polygon fill="#ffffff" stroke="#000000" points="366.5,-112.5 366.5,-131.5 464.5,-131.5 464.5,-112.5 366.5,-112.5"/>
<text text-anchor="middle" x="415.5" y="-119.5" font-family="Helvetica,sans-Serif" font-size="10.00" fill="#000000">plaintextlogger.hpp</text>
</a>
</g>
</g>
<!-- Node94&#45;&gt;Node99 -->
<g id="edge9" class="edge">
<title>Node94&#45;&gt;Node99</title>
<path fill="none" stroke="#191970" d="M347.1218,-271.1887C363.4901,-235.4762 398.5422,-158.9988 410.9956,-131.8279"/>
<polygon fill="#191970" stroke="#191970" points="343.8453,-269.9373 342.8605,-280.4862 350.2088,-272.8539 343.8453,-269.9373"/>
</g>
<!-- Node100 -->
<g id="node9" class="node">
<title>Node100</title>
<g id="a_node9"><a xlink:href="consolelogger_8hpp.html" target="_top" xlink:title="consolelogger.hpp">
<polygon fill="#ffffff" stroke="#000000" points="458,-56.5 458,-75.5 553,-75.5 553,-56.5 458,-56.5"/>
<text text-anchor="middle" x="505.5" y="-63.5" font-family="Helvetica,sans-Serif" font-size="10.00" fill="#000000">consolelogger.hpp</text>
</a>
</g>
</g>
<!-- Node94&#45;&gt;Node100 -->
<g id="edge10" class="edge">
<title>Node94&#45;&gt;Node100</title>
<path fill="none" stroke="#191970" d="M375.4877,-282.9791C413.6839,-274.9425 469.6154,-260.7109 483.5,-244 525.4874,-193.466 513.2066,-105.3122 507.5918,-75.8821"/>
<polygon fill="#191970" stroke="#191970" points="374.3291,-279.6436 365.2345,-285.0784 375.7333,-286.5013 374.3291,-279.6436"/>
</g>
<!-- Node101 -->
<g id="node10" class="node">
<title>Node101</title>
<g id="a_node10"><a xlink:href="alox_8hpp_source.html" target="_top" xlink:title="alox.hpp">
<polygon fill="#ffffff" stroke="#000000" points="181,-.5 181,-19.5 234,-19.5 234,-.5 181,-.5"/>
<text text-anchor="middle" x="207.5" y="-7.5" font-family="Helvetica,sans-Serif" font-size="10.00" fill="#000000">alox.hpp</text>
</a>
</g>
</g>
<!-- Node94&#45;&gt;Node101 -->
<g id="edge11" class="edge">
<title>Node94&#45;&gt;Node101</title>
<path fill="none" stroke="#191970" d="M327.1957,-271.5374C305.3254,-235.2042 256.7196,-151.3904 226.5,-76 218.692,-56.5209 212.6395,-32.6303 209.6192,-19.6009"/>
<polygon fill="#191970" stroke="#191970" points="324.2095,-273.363 332.3862,-280.1005 330.1957,-269.7345 324.2095,-273.363"/>
</g>
<!-- Node102 -->
<g id="node11" class="node">
<title>Node102</title>
<g id="a_node11"><a xlink:href="memorylogger_8hpp.html" target="_top" xlink:title="memorylogger.hpp">
<polygon fill="#ffffff" stroke="#000000" points="235.5,-56.5 235.5,-75.5 331.5,-75.5 331.5,-56.5 235.5,-56.5"/>
<text text-anchor="middle" x="283.5" y="-63.5" font-family="Helvetica,sans-Serif" font-size="10.00" fill="#000000">memorylogger.hpp</text>
</a>
</g>
</g>
<!-- Node94&#45;&gt;Node102 -->
<g id="edge12" class="edge">
<title>Node94&#45;&gt;Node102</title>
<path fill="none" stroke="#191970" d="M332.2375,-270.4929C329.7056,-262.3414 326.8358,-252.7483 324.5,-244 307.4844,-180.2716 291.0528,-102.594 285.4891,-75.7054"/>
<polygon fill="#191970" stroke="#191970" points="328.9495,-271.7039 335.298,-280.186 335.6247,-269.5962 328.9495,-271.7039"/>
</g>
<!-- Node103 -->
<g id="node12" class="node">
<title>Node103</title>
<g id="a_node12"><a xlink:href="textfilelogger_8hpp.html" target="_top" xlink:title="textfilelogger.hpp">
<polygon fill="#ffffff" stroke="#000000" points="349.5,-56.5 349.5,-75.5 439.5,-75.5 439.5,-56.5 349.5,-56.5"/>
<text text-anchor="middle" x="394.5" y="-63.5" font-family="Helvetica,sans-Serif" font-size="10.00" fill="#000000">textfilelogger.hpp</text>
</a>
</g>
</g>
<!-- Node94&#45;&gt;Node103 -->
<g id="edge13" class="edge">
<title>Node94&#45;&gt;Node103</title>
<path fill="none" stroke="#191970" d="M337.0584,-269.8596C335.3972,-235.8995 335.3098,-165.6989 357.5,-112 363.3713,-97.7919 375.0651,-84.4411 383.7424,-75.8209"/>
<polygon fill="#191970" stroke="#191970" points="333.5902,-270.4994 337.6777,-280.2739 340.5778,-270.0838 333.5902,-270.4994"/>
</g>
<!-- Node104 -->
<g id="node13" class="node">
<title>Node104</title>
<g id="a_node13"><a xlink:href="vstudiologger_8hpp.html" target="_top" xlink:title="vstudiologger.hpp">
<polygon fill="#ffffff" stroke="#000000" points="571.5,-56.5 571.5,-75.5 663.5,-75.5 663.5,-56.5 571.5,-56.5"/>
<text text-anchor="middle" x="617.5" y="-63.5" font-family="Helvetica,sans-Serif" font-size="10.00" fill="#000000">vstudiologger.hpp</text>
</a>
</g>
</g>
<!-- Node94&#45;&gt;Node104 -->
<g id="edge14" class="edge">
<title>Node94&#45;&gt;Node104</title>
<path fill="none" stroke="#191970" d="M375.0508,-287.3197C410.845,-283.0818 465.4096,-272.1547 503.5,-244 566.0628,-197.7564 603.1861,-106.033 614.0991,-75.8691"/>
<polygon fill="#191970" stroke="#191970" points="374.6053,-283.8473 365.0334,-288.3893 375.3485,-290.8077 374.6053,-283.8473"/>
</g>
<!-- Node105 -->
<g id="node14" class="node">
<title>Node105</title>
<g id="a_node14"><a xlink:href="ansilogger_8hpp.html" target="_top" xlink:title="ansilogger.hpp">
<polygon fill="#ffffff" stroke="#000000" points="0,-112.5 0,-131.5 79,-131.5 79,-112.5 0,-112.5"/>
<text text-anchor="middle" x="39.5" y="-119.5" font-family="Helvetica,sans-Serif" font-size="10.00" fill="#000000">ansilogger.hpp</text>
</a>
</g>
</g>
<!-- Node94&#45;&gt;Node105 -->
<g id="edge15" class="edge">
<title>Node94&#45;&gt;Node105</title>
<path fill="none" stroke="#191970" d="M301.694,-287.3357C222.1016,-281.2004 39.6533,-264.9777 21.5,-244 -6.8,-211.297 20.7681,-154.2438 33.6576,-131.6296"/>
<polygon fill="#191970" stroke="#191970" points="301.5321,-290.8334 311.7684,-288.1006 302.0621,-283.8535 301.5321,-290.8334"/>
</g>
<!-- Node106 -->
<g id="node15" class="node">
<title>Node106</title>
<g id="a_node15"><a xlink:href="windowsconsolelogger_8hpp.html" target="_top" xlink:title="windowsconsolelogger.hpp">
<polygon fill="#ffffff" stroke="#000000" points="97,-112.5 97,-131.5 230,-131.5 230,-112.5 97,-112.5"/>
<text text-anchor="middle" x="163.5" y="-119.5" font-family="Helvetica,sans-Serif" font-size="10.00" fill="#000000">windowsconsolelogger.hpp</text>
</a>
</g>
</g>
<!-- Node94&#45;&gt;Node106 -->
<g id="edge16" class="edge">
<title>Node94&#45;&gt;Node106</title>
<path fill="none" stroke="#191970" d="M301.9433,-284.352C259.5811,-277.0205 193.5239,-262.8944 177.5,-244 149.6454,-211.1555 157.0322,-154.1841 161.3878,-131.6107"/>
<polygon fill="#191970" stroke="#191970" points="301.4553,-287.819 311.8973,-286.0257 302.6161,-280.9159 301.4553,-287.819"/>
</g>
<!-- Node107 -->
<g id="node16" class="node">
<title>Node107</title>
<g id="a_node16"><a xlink:href="scopedump_8hpp.html" target="_top" xlink:title="scopedump.hpp">
<polygon fill="#ffffff" stroke="#000000" points="586.5,-168.5 586.5,-187.5 672.5,-187.5 672.5,-168.5 586.5,-168.5"/>
<text text-anchor="middle" x="629.5" y="-175.5" font-family="Helvetica,sans-Serif" font-size="10.00" fill="#000000">scopedump.hpp</text>
</a>
</g>
</g>
<!-- Node94&#45;&gt;Node107 -->
<g id="edge17" class="edge">
<title>Node94&#45;&gt;Node107</title>
<path fill="none" stroke="#191970" d="M375.2645,-287.8476C419.8124,-283.9947 496.145,-273.3304 554.5,-244 582.7049,-229.8236 608.7134,-202.4458 621.3928,-187.8025"/>
<polygon fill="#191970" stroke="#191970" points="374.8799,-284.367 365.1889,-288.649 375.4349,-291.345 374.8799,-284.367"/>
</g>
<!-- Node108 -->
<g id="node17" class="node">
<title>Node108</title>
<g id="a_node17"><a xlink:href="scopestore_8hpp.html" target="_top" xlink:title="scopestore.hpp">
<polygon fill="#ffffff" stroke="#000000" points="607,-224.5 607,-243.5 690,-243.5 690,-224.5 607,-224.5"/>
<text text-anchor="middle" x="648.5" y="-231.5" font-family="Helvetica,sans-Serif" font-size="10.00" fill="#000000">scopestore.hpp</text>
</a>
</g>
</g>
<!-- Node94&#45;&gt;Node108 -->
<g id="edge18" class="edge">
<title>Node94&#45;&gt;Node108</title>
<path fill="none" stroke="#191970" d="M375.3955,-283.335C433.5287,-272.8335 546.0769,-252.5022 606.9657,-241.503"/>
<polygon fill="#191970" stroke="#191970" points="374.4172,-279.955 365.1987,-285.177 375.6617,-286.8435 374.4172,-279.955"/>
</g>
<!-- Node109 -->
<g id="node18" class="node">
<title>Node109</title>
<g id="a_node18"><a xlink:href="logtools_8hpp.html" target="_top" xlink:title="logtools.hpp">
<polygon fill="#ffffff" stroke="#000000" points="405,-224.5 405,-243.5 474,-243.5 474,-224.5 405,-224.5"/>
<text text-anchor="middle" x="439.5" y="-231.5" font-family="Helvetica,sans-Serif" font-size="10.00" fill="#000000">logtools.hpp</text>
</a>
</g>
</g>
<!-- Node94&#45;&gt;Node109 -->
<g id="edge19" class="edge">
<title>Node94&#45;&gt;Node109</title>
<path fill="none" stroke="#191970" d="M364.9719,-275.3225C383.0125,-265.3198 406.3877,-252.3593 422.1087,-243.6427"/>
<polygon fill="#191970" stroke="#191970" points="363.1413,-272.3354 356.0929,-280.2455 366.5357,-278.4574 363.1413,-272.3354"/>
</g>
<!-- Node95&#45;&gt;Node94 -->
<g id="edge20" class="edge">
<title>Node95&#45;&gt;Node94</title>
<path fill="none" stroke="#191970" d="M244.1837,-246.246C269.167,-256.4996 302.0041,-270.9316 321.738,-280.3733"/>
<polygon fill="#191970" stroke="#191970" points="245.2814,-242.9145 234.6988,-242.4051 242.6539,-249.4027 245.2814,-242.9145"/>
</g>
<!-- Node96&#45;&gt;Node93 -->
<g id="edge21" class="edge">
<title>Node96&#45;&gt;Node93</title>
<path fill="none" stroke="#191970" d="M699.8169,-246.4952C655.396,-259.8002 583.0021,-281.4521 520.5,-300 473.8052,-313.857 419.208,-329.9256 388.5597,-338.9336"/>
<polygon fill="#191970" stroke="#191970" points="701.0953,-249.766 709.6703,-243.5434 699.0865,-243.0604 701.0953,-249.766"/>
</g>
<!-- Node97&#45;&gt;Node93 -->
<g id="edge22" class="edge">
<title>Node97&#45;&gt;Node93</title>
<path fill="none" stroke="#191970" d="M96.6471,-246.9917C158.9472,-270.0201 287.1921,-317.4242 340.4708,-337.1179"/>
<polygon fill="#191970" stroke="#191970" points="97.8293,-243.6973 87.2361,-243.513 95.4023,-250.2631 97.8293,-243.6973"/>
</g>
<!-- Node97&#45;&gt;Node98 -->
<g id="edge23" class="edge">
<title>Node97&#45;&gt;Node98</title>
<path fill="none" stroke="#191970" d="M71.498,-215.3372C76.4676,-206.0605 82.2644,-195.2398 86.3343,-187.6427"/>
<polygon fill="#191970" stroke="#191970" points="68.3627,-213.7779 66.7256,-224.2455 74.5331,-217.0835 68.3627,-213.7779"/>
</g>
<!-- Node98&#45;&gt;Node99 -->
<g id="edge24" class="edge">
<title>Node98&#45;&gt;Node99</title>
<path fill="none" stroke="#191970" d="M140.4089,-169.5466C201.4535,-158.9957 305.2507,-141.0554 366.3894,-130.4883"/>
<polygon fill="#191970" stroke="#191970" points="139.5179,-166.1486 130.2601,-171.3007 140.7102,-173.0464 139.5179,-166.1486"/>
</g>
<!-- Node98&#45;&gt;Node105 -->
<g id="edge25" class="edge">
<title>Node98&#45;&gt;Node105</title>
<path fill="none" stroke="#191970" d="M75.5178,-160.7884C66.6222,-151.2085 55.8796,-139.6396 48.4539,-131.6427"/>
<polygon fill="#191970" stroke="#191970" points="73.073,-163.2992 82.4423,-168.2455 78.2025,-158.536 73.073,-163.2992"/>
</g>
<!-- Node98&#45;&gt;Node106 -->
<g id="edge26" class="edge">
<title>Node98&#45;&gt;Node106</title>
<path fill="none" stroke="#191970" d="M112.164,-161.928C124.7489,-152.1397 140.4092,-139.9595 151.1023,-131.6427"/>
<polygon fill="#191970" stroke="#191970" points="109.7862,-159.3434 104.0414,-168.2455 114.0838,-164.8688 109.7862,-159.3434"/>
</g>
<!-- Node99&#45;&gt;Node100 -->
<g id="edge27" class="edge">
<title>Node99&#45;&gt;Node100</title>
<path fill="none" stroke="#191970" d="M439.9784,-106.769C455.9266,-96.8456 476.251,-84.1994 490.0028,-75.6427"/>
<polygon fill="#191970" stroke="#191970" points="437.8183,-103.9908 431.1768,-112.2455 441.5165,-109.9342 437.8183,-103.9908"/>
</g>
<!-- Node99&#45;&gt;Node102 -->
<g id="edge28" class="edge">
<title>Node99&#45;&gt;Node102</title>
<path fill="none" stroke="#191970" d="M383.4035,-108.3833C359.3965,-98.1985 327.1741,-84.5284 305.8955,-75.5011"/>
<polygon fill="#191970" stroke="#191970" points="382.2356,-111.6897 392.8084,-112.3733 384.9695,-105.2457 382.2356,-111.6897"/>
</g>
<!-- Node99&#45;&gt;Node103 -->
<g id="edge29" class="edge">
<title>Node99&#45;&gt;Node103</title>
<path fill="none" stroke="#191970" d="M408.281,-102.7493C404.8524,-93.6064 400.9049,-83.0798 398.116,-75.6427"/>
<polygon fill="#191970" stroke="#191970" points="405.0536,-104.1112 411.8421,-112.2455 411.6079,-101.6533 405.0536,-104.1112"/>
</g>
<!-- Node99&#45;&gt;Node104 -->
<g id="edge30" class="edge">
<title>Node99&#45;&gt;Node104</title>
<path fill="none" stroke="#191970" d="M460.2711,-109.5882C497.3838,-99.2996 549.3629,-84.8895 583.2281,-75.5011"/>
<polygon fill="#191970" stroke="#191970" points="458.9265,-106.3289 450.225,-112.3733 460.7966,-113.0745 458.9265,-106.3289"/>
</g>
<!-- Node100&#45;&gt;Node101 -->
<g id="edge31" class="edge">
<title>Node100&#45;&gt;Node101</title>
<path fill="none" stroke="#191970" d="M447.9411,-55.1836C383.4907,-43.0721 281.8246,-23.967 234.014,-14.9825"/>
<polygon fill="#191970" stroke="#191970" points="447.4771,-58.6576 457.9515,-57.0647 448.77,-51.778 447.4771,-58.6576"/>
</g>
<!-- Node104&#45;&gt;Node101 -->
<g id="edge32" class="edge">
<title>Node104&#45;&gt;Node101</title>
<path fill="none" stroke="#191970" d="M561.3068,-55.8757C432.9027,-36.1168 292.063,-19.5656 234.2861,-12.998"/>
<polygon fill="#191970" stroke="#191970" points="560.8974,-59.354 571.3154,-57.4264 561.9692,-52.4365 560.8974,-59.354"/>
</g>
<!-- Node105&#45;&gt;Node101 -->
<g id="edge33" class="edge">
<title>Node105&#45;&gt;Node101</title>
<path fill="none" stroke="#191970" d="M62.4781,-106.6813C97.7252,-83.1832 164.1073,-38.9284 193.2127,-19.5249"/>
<polygon fill="#191970" stroke="#191970" points="60.2026,-103.9917 53.8236,-112.4509 64.0856,-109.8161 60.2026,-103.9917"/>
</g>
<!-- Node106&#45;&gt;Node101 -->
<g id="edge34" class="edge">
<title>Node106&#45;&gt;Node101</title>
<path fill="none" stroke="#191970" d="M170.9936,-102.9253C180.4996,-78.7284 196.5245,-37.9376 203.7581,-19.5249"/>
<polygon fill="#191970" stroke="#191970" points="167.6504,-101.8636 167.2514,-112.4509 174.1656,-104.4232 167.6504,-101.8636"/>
</g>
<!-- Node108&#45;&gt;Node93 -->
<g id="edge35" class="edge">
<title>Node108&#45;&gt;Node93</title>
<path fill="none" stroke="#191970" d="M614.9076,-247.2477C556.9309,-270.1117 439.435,-316.4482 388.7137,-336.4509"/>
<polygon fill="#191970" stroke="#191970" points="616.3289,-250.4496 624.3476,-243.5249 613.7608,-243.9377 616.3289,-250.4496"/>
</g>
<!-- Node108&#45;&gt;Node107 -->
<g id="edge36" class="edge">
<title>Node108&#45;&gt;Node107</title>
<path fill="none" stroke="#191970" d="M641.9685,-214.7493C638.8664,-205.6064 635.2949,-195.0798 632.7716,-187.6427"/>
<polygon fill="#191970" stroke="#191970" points="638.663,-215.9003 645.1905,-224.2455 645.2918,-213.6512 638.663,-215.9003"/>
</g>
</g>
</svg>
