<?xml version="1.0" encoding="UTF-8" standalone="no"?>
<!DOCTYPE svg PUBLIC "-//W3C//DTD SVG 1.1//EN"
 "http://www.w3.org/Graphics/SVG/1.1/DTD/svg11.dtd">
<!-- Generated by graphviz version 2.40.1 (20161225.0304)
 -->
<!-- Title: scopeinfo.hpp Pages: 1 -->
<svg width="4229pt" height="420pt"
 viewBox="0.00 0.00 4228.50 420.00" xmlns="http://www.w3.org/2000/svg" xmlns:xlink="http://www.w3.org/1999/xlink">
<g id="graph0" class="graph" transform="scale(1 1) rotate(0) translate(4 416)">
<title>scopeinfo.hpp</title>
<polygon fill="#ffffff" stroke="transparent" points="-4,4 -4,-416 4224.5,-416 4224.5,4 -4,4"/>
<!-- Node0 -->
<g id="node1" class="node">
<title>Node0</title>
<polygon fill="#bfbfbf" stroke="#000000" points="3872.5,-392.5 3872.5,-411.5 3949.5,-411.5 3949.5,-392.5 3872.5,-392.5"/>
<text text-anchor="middle" x="3911" y="-399.5" font-family="Helvetica,sans-Serif" font-size="10.00" fill="#000000">scopeinfo.hpp</text>
</g>
<!-- Node1 -->
<g id="node2" class="node">
<title>Node1</title>
<g id="a_node2"><a xlink:href="alox_2alox_8hpp.html" target="_top" xlink:title="alib/alox/alox.hpp">
<polygon fill="#ffffff" stroke="#000000" points="884,-336.5 884,-355.5 976,-355.5 976,-336.5 884,-336.5"/>
<text text-anchor="middle" x="930" y="-343.5" font-family="Helvetica,sans-Serif" font-size="10.00" fill="#000000">alib/alox/alox.hpp</text>
</a>
</g>
</g>
<!-- Node0&#45;&gt;Node1 -->
<g id="edge1" class="edge">
<title>Node0&#45;&gt;Node1</title>
<path fill="none" stroke="#191970" d="M3872.4928,-401.2766C3554.6021,-395.3048 1366.3185,-354.1965 986.2211,-347.0561"/>
<polygon fill="#191970" stroke="#191970" points="986.0858,-343.5531 976.0218,-346.8645 985.9543,-350.5519 986.0858,-343.5531"/>
</g>
<!-- Node29 -->
<g id="node3" class="node">
<title>Node29</title>
<polygon fill="#ffffff" stroke="#bfbfbf" points="1724.5,-168.5 1724.5,-187.5 1759.5,-187.5 1759.5,-168.5 1724.5,-168.5"/>
<text text-anchor="middle" x="1742" y="-175.5" font-family="Helvetica,sans-Serif" font-size="10.00" fill="#000000">map</text>
</g>
<!-- Node0&#45;&gt;Node29 -->
<g id="edge2" class="edge">
<title>Node0&#45;&gt;Node29</title>
<path fill="none" stroke="#191970" d="M3906.6222,-392.2446C3902.5622,-383.0111 3896.4887,-368.7099 3892,-356 3871.6287,-298.3178 3901.6011,-261.1505 3853,-224 3809.5944,-190.821 2015.4149,-179.5409 1769.7603,-178.151"/>
<polygon fill="#191970" stroke="#191970" points="1769.5624,-174.6499 1759.5429,-178.0938 1769.5232,-181.6498 1769.5624,-174.6499"/>
</g>
<!-- Node84 -->
<g id="node4" class="node">
<title>Node84</title>
<g id="a_node4"><a xlink:href="ticks_8hpp.html" target="_top" xlink:title="alib/time/ticks.hpp">
<polygon fill="#ffffff" stroke="#000000" points="3901,-336.5 3901,-355.5 3997,-355.5 3997,-336.5 3901,-336.5"/>
<text text-anchor="middle" x="3949" y="-343.5" font-family="Helvetica,sans-Serif" font-size="10.00" fill="#000000">alib/time/ticks.hpp</text>
</a>
</g>
</g>
<!-- Node0&#45;&gt;Node84 -->
<g id="edge3" class="edge">
<title>Node0&#45;&gt;Node84</title>
<path fill="none" stroke="#191970" d="M3917.6191,-392.2455C3922.9046,-384.4564 3930.4541,-373.3308 3936.8238,-363.9439"/>
<polygon fill="#191970" stroke="#191970" points="3939.7379,-365.8827 3942.4568,-355.6427 3933.9455,-361.9522 3939.7379,-365.8827"/>
</g>
<!-- Node90 -->
<g id="node5" class="node">
<title>Node90</title>
<polygon fill="#ffffff" stroke="#bfbfbf" points="4015,-336.5 4015,-355.5 4077,-355.5 4077,-336.5 4015,-336.5"/>
<text text-anchor="middle" x="4046" y="-343.5" font-family="Helvetica,sans-Serif" font-size="10.00" fill="#000000">thread.hpp</text>
</g>
<!-- Node0&#45;&gt;Node90 -->
<g id="edge4" class="edge">
<title>Node0&#45;&gt;Node90</title>
<path fill="none" stroke="#191970" d="M3934.2073,-392.3733C3956.1699,-383.2629 3989.3332,-369.5062 4013.8401,-359.3404"/>
<polygon fill="#191970" stroke="#191970" points="4015.1997,-362.5657 4023.0955,-355.5011 4012.5176,-356.0999 4015.1997,-362.5657"/>
</g>
<!-- Node91 -->
<g id="node6" class="node">
<title>Node91</title>
<g id="a_node6"><a xlink:href="directory_8hpp.html" target="_top" xlink:title="alib/system/directory.hpp">
<polygon fill="#ffffff" stroke="#000000" points="4095.5,-336.5 4095.5,-355.5 4220.5,-355.5 4220.5,-336.5 4095.5,-336.5"/>
<text text-anchor="middle" x="4158" y="-343.5" font-family="Helvetica,sans-Serif" font-size="10.00" fill="#000000">alib/system/directory.hpp</text>
</a>
</g>
</g>
<!-- Node0&#45;&gt;Node91 -->
<g id="edge5" class="edge">
<title>Node0&#45;&gt;Node91</title>
<path fill="none" stroke="#191970" d="M3949.5938,-393.25C3991.687,-383.7066 4059.2858,-368.3806 4106.0263,-357.7835"/>
<polygon fill="#191970" stroke="#191970" points="4106.9813,-361.1559 4115.9599,-355.5314 4105.4335,-354.3292 4106.9813,-361.1559"/>
</g>
<!-- Node2 -->
<g id="node7" class="node">
<title>Node2</title>
<g id="a_node7"><a xlink:href="alib_8hpp.html" target="_top" xlink:title="alib/alib.hpp">
<polygon fill="#ffffff" stroke="#000000" points="2355,-280.5 2355,-299.5 2423,-299.5 2423,-280.5 2355,-280.5"/>
<text text-anchor="middle" x="2389" y="-287.5" font-family="Helvetica,sans-Serif" font-size="10.00" fill="#000000">alib/alib.hpp</text>
</a>
</g>
</g>
<!-- Node1&#45;&gt;Node2 -->
<g id="edge6" class="edge">
<title>Node1&#45;&gt;Node2</title>
<path fill="none" stroke="#191970" d="M976.0747,-344.2315C1195.0703,-335.826 2129.0481,-299.9776 2344.525,-291.7071"/>
<polygon fill="#191970" stroke="#191970" points="2344.9584,-295.1931 2354.8168,-291.312 2344.6898,-288.1982 2344.9584,-295.1931"/>
</g>
<!-- Node58 -->
<g id="node8" class="node">
<title>Node58</title>
<g id="a_node8"><a xlink:href="alox__symbols_8hpp.html" target="_top" xlink:title="internals/alox_symbols.hpp">
<polygon fill="#ffffff" stroke="#000000" points="711.5,-280.5 711.5,-299.5 846.5,-299.5 846.5,-280.5 711.5,-280.5"/>
<text text-anchor="middle" x="779" y="-287.5" font-family="Helvetica,sans-Serif" font-size="10.00" fill="#000000">internals/alox_symbols.hpp</text>
</a>
</g>
</g>
<!-- Node1&#45;&gt;Node58 -->
<g id="edge7" class="edge">
<title>Node1&#45;&gt;Node58</title>
<path fill="none" stroke="#191970" d="M904.0422,-336.3733C879.2593,-327.1822 841.7254,-313.2624 814.246,-303.0713"/>
<polygon fill="#191970" stroke="#191970" points="815.2121,-299.6968 804.6191,-299.5011 812.7781,-306.26 815.2121,-299.6968"/>
</g>
<!-- Node59 -->
<g id="node9" class="node">
<title>Node59</title>
<g id="a_node9"><a xlink:href="alox__macros_8hpp.html" target="_top" xlink:title="internals/alox_macros.hpp">
<polygon fill="#ffffff" stroke="#000000" points="864.5,-280.5 864.5,-299.5 995.5,-299.5 995.5,-280.5 864.5,-280.5"/>
<text text-anchor="middle" x="930" y="-287.5" font-family="Helvetica,sans-Serif" font-size="10.00" fill="#000000">internals/alox_macros.hpp</text>
</a>
</g>
</g>
<!-- Node1&#45;&gt;Node59 -->
<g id="edge8" class="edge">
<title>Node1&#45;&gt;Node59</title>
<path fill="none" stroke="#191970" d="M930,-336.2455C930,-328.9382 930,-318.6944 930,-309.7046"/>
<polygon fill="#191970" stroke="#191970" points="933.5001,-309.6426 930,-299.6427 926.5001,-309.6427 933.5001,-309.6426"/>
</g>
<!-- Node60 -->
<g id="node10" class="node">
<title>Node60</title>
<g id="a_node10"><a xlink:href="configuration_8hpp.html" target="_top" xlink:title="alib/config/configuration.hpp">
<polygon fill="#ffffff" stroke="#000000" points="361,-224.5 361,-243.5 499,-243.5 499,-224.5 361,-224.5"/>
<text text-anchor="middle" x="430" y="-231.5" font-family="Helvetica,sans-Serif" font-size="10.00" fill="#000000">alib/config/configuration.hpp</text>
</a>
</g>
</g>
<!-- Node1&#45;&gt;Node60 -->
<g id="edge9" class="edge">
<title>Node1&#45;&gt;Node60</title>
<path fill="none" stroke="#191970" d="M883.9958,-342.2759C798.7678,-335.0475 619.5803,-318.2175 560,-300 520.5491,-287.9374 478.6384,-264.4823 453.3907,-249.0303"/>
<polygon fill="#191970" stroke="#191970" points="455.2182,-246.0453 444.8782,-243.7355 451.521,-251.9893 455.2182,-246.0453"/>
</g>
<!-- Node75 -->
<g id="node11" class="node">
<title>Node75</title>
<g id="a_node11"><a xlink:href="aloxtypesandenums_8hpp.html" target="_top" xlink:title="aloxtypesandenums.hpp">
<polygon fill="#ffffff" stroke="#000000" points="1014,-280.5 1014,-299.5 1136,-299.5 1136,-280.5 1014,-280.5"/>
<text text-anchor="middle" x="1075" y="-287.5" font-family="Helvetica,sans-Serif" font-size="10.00" fill="#000000">aloxtypesandenums.hpp</text>
</a>
</g>
</g>
<!-- Node1&#45;&gt;Node75 -->
<g id="edge10" class="edge">
<title>Node1&#45;&gt;Node75</title>
<path fill="none" stroke="#191970" d="M954.9264,-336.3733C978.6202,-327.2226 1014.4511,-313.3844 1040.8068,-303.2057"/>
<polygon fill="#191970" stroke="#191970" points="1042.3314,-306.3689 1050.3989,-299.5011 1039.8094,-299.8389 1042.3314,-306.3689"/>
</g>
<!-- Node76 -->
<g id="node12" class="node">
<title>Node76</title>
<g id="a_node12"><a xlink:href="log_8hpp.html" target="_top" xlink:title="log.hpp">
<polygon fill="#ffffff" stroke="#000000" points="1154,-280.5 1154,-299.5 1202,-299.5 1202,-280.5 1154,-280.5"/>
<text text-anchor="middle" x="1178" y="-287.5" font-family="Helvetica,sans-Serif" font-size="10.00" fill="#000000">log.hpp</text>
</a>
</g>
</g>
<!-- Node1&#45;&gt;Node76 -->
<g id="edge11" class="edge">
<title>Node1&#45;&gt;Node76</title>
<path fill="none" stroke="#191970" d="M973.1019,-336.485C1014.9869,-327.9053 1080.0045,-314.4475 1136,-300 1138.5741,-299.3359 1141.248,-298.6012 1143.9568,-297.8406"/>
<polygon fill="#191970" stroke="#191970" points="1145.1351,-301.1446 1153.802,-295.0507 1143.2266,-294.4098 1145.1351,-301.1446"/>
</g>
<!-- Node77 -->
<g id="node13" class="node">
<title>Node77</title>
<g id="a_node13"><a xlink:href="lox_8hpp.html" target="_top" xlink:title="lox.hpp">
<polygon fill="#ffffff" stroke="#000000" points="569,-280.5 569,-299.5 617,-299.5 617,-280.5 569,-280.5"/>
<text text-anchor="middle" x="593" y="-287.5" font-family="Helvetica,sans-Serif" font-size="10.00" fill="#000000">lox.hpp</text>
</a>
</g>
</g>
<!-- Node1&#45;&gt;Node77 -->
<g id="edge12" class="edge">
<title>Node1&#45;&gt;Node77</title>
<path fill="none" stroke="#191970" d="M883.9251,-341.1822C825.3211,-334.2068 721.3318,-320.1159 627.0855,-300.982"/>
<polygon fill="#191970" stroke="#191970" points="627.6187,-297.5184 617.1186,-298.9317 626.2083,-304.3749 627.6187,-297.5184"/>
</g>
<!-- Node85 -->
<g id="node50" class="node">
<title>Node85</title>
<g id="a_node50"><a xlink:href="timepointbase_8hpp.html" target="_top" xlink:title="alib/time/timepointbase.hpp">
<polygon fill="#ffffff" stroke="#ff0000" points="3901,-280.5 3901,-299.5 4037,-299.5 4037,-280.5 3901,-280.5"/>
<text text-anchor="middle" x="3969" y="-287.5" font-family="Helvetica,sans-Serif" font-size="10.00" fill="#000000">alib/time/timepointbase.hpp</text>
</a>
</g>
</g>
<!-- Node84&#45;&gt;Node85 -->
<g id="edge70" class="edge">
<title>Node84&#45;&gt;Node85</title>
<path fill="none" stroke="#191970" d="M3952.4837,-336.2455C3955.1508,-328.7776 3958.9133,-318.2427 3962.1737,-309.1137"/>
<polygon fill="#191970" stroke="#191970" points="3965.4889,-310.2373 3965.5562,-299.6427 3958.8967,-307.8829 3965.4889,-310.2373"/>
</g>
<!-- Node3 -->
<g id="node14" class="node">
<title>Node3</title>
<polygon fill="#ffffff" stroke="#bfbfbf" points="3065,-224.5 3065,-243.5 3117,-243.5 3117,-224.5 3065,-224.5"/>
<text text-anchor="middle" x="3091" y="-231.5" font-family="Helvetica,sans-Serif" font-size="10.00" fill="#000000">assert.h</text>
</g>
<!-- Node2&#45;&gt;Node3 -->
<g id="edge13" class="edge">
<title>Node2&#45;&gt;Node3</title>
<path fill="none" stroke="#191970" d="M2423.3085,-288.585C2538.7746,-283.678 2913.4656,-266.541 3054.6141,-243.8479"/>
<polygon fill="#191970" stroke="#191970" points="3055.4867,-247.2502 3064.7643,-242.1339 3054.3211,-240.3479 3055.4867,-247.2502"/>
</g>
<!-- Node4 -->
<g id="node15" class="node">
<title>Node4</title>
<polygon fill="#ffffff" stroke="#bfbfbf" points="3135.5,-224.5 3135.5,-243.5 3180.5,-243.5 3180.5,-224.5 3135.5,-224.5"/>
<text text-anchor="middle" x="3158" y="-231.5" font-family="Helvetica,sans-Serif" font-size="10.00" fill="#000000">iosfwd</text>
</g>
<!-- Node2&#45;&gt;Node4 -->
<g id="edge14" class="edge">
<title>Node2&#45;&gt;Node4</title>
<path fill="none" stroke="#191970" d="M2423.3768,-288.9515C2547.0432,-285.0128 2969.7225,-270.0667 3125.5705,-243.5501"/>
<polygon fill="#191970" stroke="#191970" points="3126.2151,-246.9904 3135.444,-241.7868 3124.9844,-240.0995 3126.2151,-246.9904"/>
</g>
<!-- Node5 -->
<g id="node16" class="node">
<title>Node5</title>
<polygon fill="#ffffff" stroke="#bfbfbf" points="3199,-224.5 3199,-243.5 3245,-243.5 3245,-224.5 3199,-224.5"/>
<text text-anchor="middle" x="3222" y="-231.5" font-family="Helvetica,sans-Serif" font-size="10.00" fill="#000000">cstdint</text>
</g>
<!-- Node2&#45;&gt;Node5 -->
<g id="edge15" class="edge">
<title>Node2&#45;&gt;Node5</title>
<path fill="none" stroke="#191970" d="M2423.0728,-289.115C2553.1464,-285.5735 3019.1498,-271.3551 3188.7152,-243.5196"/>
<polygon fill="#191970" stroke="#191970" points="3189.4688,-246.9415 3198.7306,-241.7966 3188.2819,-240.0428 3189.4688,-246.9415"/>
</g>
<!-- Node6 -->
<g id="node17" class="node">
<title>Node6</title>
<g id="a_node17"><a xlink:href="prepro_8hpp.html" target="_top" xlink:title="alib/lang/prepro.hpp">
<polygon fill="#ffffff" stroke="#000000" points="3263.5,-224.5 3263.5,-243.5 3364.5,-243.5 3364.5,-224.5 3263.5,-224.5"/>
<text text-anchor="middle" x="3314" y="-231.5" font-family="Helvetica,sans-Serif" font-size="10.00" fill="#000000">alib/lang/prepro.hpp</text>
</a>
</g>
</g>
<!-- Node2&#45;&gt;Node6 -->
<g id="edge16" class="edge">
<title>Node2&#45;&gt;Node6</title>
<path fill="none" stroke="#191970" d="M2423.315,-289.5546C2538.8251,-287.7645 2924.2063,-279.4321 3253.1123,-243.9682"/>
<polygon fill="#191970" stroke="#191970" points="3253.7539,-247.4192 3263.3163,-242.8573 3252.9962,-240.4603 3253.7539,-247.4192"/>
</g>
<!-- Node7 -->
<g id="node18" class="node">
<title>Node7</title>
<g id="a_node18"><a xlink:href="types_8hpp.html" target="_top" xlink:title="alib/lang/types.hpp">
<polygon fill="#ffffff" stroke="#000000" points="3383,-224.5 3383,-243.5 3481,-243.5 3481,-224.5 3383,-224.5"/>
<text text-anchor="middle" x="3432" y="-231.5" font-family="Helvetica,sans-Serif" font-size="10.00" fill="#000000">alib/lang/types.hpp</text>
</a>
</g>
</g>
<!-- Node2&#45;&gt;Node7 -->
<g id="edge17" class="edge">
<title>Node2&#45;&gt;Node7</title>
<path fill="none" stroke="#191970" d="M2423.1099,-288.9616C2571.6256,-284.3563 3163.3769,-265.1139 3372.8272,-243.8429"/>
<polygon fill="#191970" stroke="#191970" points="3373.2263,-247.3203 3382.8066,-242.7963 3372.496,-240.3585 3373.2263,-247.3203"/>
</g>
<!-- Node8 -->
<g id="node19" class="node">
<title>Node8</title>
<g id="a_node19"><a xlink:href="assert_8hpp.html" target="_top" xlink:title="alib/debug/assert.hpp">
<polygon fill="#ffffff" stroke="#000000" points="3499,-224.5 3499,-243.5 3609,-243.5 3609,-224.5 3499,-224.5"/>
<text text-anchor="middle" x="3554" y="-231.5" font-family="Helvetica,sans-Serif" font-size="10.00" fill="#000000">alib/debug/assert.hpp</text>
</a>
</g>
</g>
<!-- Node2&#45;&gt;Node8 -->
<g id="edge18" class="edge">
<title>Node2&#45;&gt;Node8</title>
<path fill="none" stroke="#191970" d="M2423.0195,-289.0989C2582.2031,-284.8041 3255.2142,-265.7557 3488.7709,-243.9886"/>
<polygon fill="#191970" stroke="#191970" points="3489.2733,-247.4565 3498.8927,-243.0161 3488.6037,-240.4886 3489.2733,-247.4565"/>
</g>
<!-- Node9 -->
<g id="node20" class="node">
<title>Node9</title>
<g id="a_node20"><a xlink:href="rtti_8hpp.html" target="_top" xlink:title="alib/lang/rtti.hpp">
<polygon fill="#ffffff" stroke="#ff0000" points="3627,-224.5 3627,-243.5 3713,-243.5 3713,-224.5 3627,-224.5"/>
<text text-anchor="middle" x="3670" y="-231.5" font-family="Helvetica,sans-Serif" font-size="10.00" fill="#000000">alib/lang/rtti.hpp</text>
</a>
</g>
</g>
<!-- Node2&#45;&gt;Node9 -->
<g id="edge19" class="edge">
<title>Node2&#45;&gt;Node9</title>
<path fill="none" stroke="#191970" d="M2423.185,-289.4263C2593.9817,-286.4539 3356.6073,-271.901 3616.7914,-243.9319"/>
<polygon fill="#191970" stroke="#191970" points="3617.3953,-247.3864 3626.9477,-242.8037 3616.6224,-240.4292 3617.3953,-247.3864"/>
</g>
<!-- Node13 -->
<g id="node21" class="node">
<title>Node13</title>
<g id="a_node21"><a xlink:href="singleton_8hpp.html" target="_top" xlink:title="alib/lang/singleton.hpp">
<polygon fill="#ffffff" stroke="#ff0000" points="3731.5,-224.5 3731.5,-243.5 3844.5,-243.5 3844.5,-224.5 3731.5,-224.5"/>
<text text-anchor="middle" x="3788" y="-231.5" font-family="Helvetica,sans-Serif" font-size="10.00" fill="#000000">alib/lang/singleton.hpp</text>
</a>
</g>
</g>
<!-- Node2&#45;&gt;Node13 -->
<g id="edge20" class="edge">
<title>Node2&#45;&gt;Node13</title>
<path fill="none" stroke="#191970" d="M2423.0192,-289.3612C2602.1305,-285.9178 3437.9563,-268.8303 3720.9341,-243.9635"/>
<polygon fill="#191970" stroke="#191970" points="3721.5254,-247.4244 3731.1695,-243.038 3720.8949,-240.4528 3721.5254,-247.4244"/>
</g>
<!-- Node15 -->
<g id="node22" class="node">
<title>Node15</title>
<g id="a_node22"><a xlink:href="enums_8hpp.html" target="_top" xlink:title="alib/lang/enums.hpp">
<polygon fill="#ffffff" stroke="#000000" points="1041,-224.5 1041,-243.5 1145,-243.5 1145,-224.5 1041,-224.5"/>
<text text-anchor="middle" x="1093" y="-231.5" font-family="Helvetica,sans-Serif" font-size="10.00" fill="#000000">alib/lang/enums.hpp</text>
</a>
</g>
</g>
<!-- Node2&#45;&gt;Node15 -->
<g id="edge21" class="edge">
<title>Node2&#45;&gt;Node15</title>
<path fill="none" stroke="#191970" d="M2354.9483,-289.3094C2183.9533,-285.7546 1417.1718,-268.7609 1155.4048,-243.9931"/>
<polygon fill="#191970" stroke="#191970" points="1155.479,-240.4838 1145.1864,-242.9963 1154.7993,-247.4508 1155.479,-240.4838"/>
</g>
<!-- Node16 -->
<g id="node23" class="node">
<title>Node16</title>
<g id="a_node23"><a xlink:href="strings_2strings_8hpp.html" target="_top" xlink:title="alib/strings/strings.hpp">
<polygon fill="#ffffff" stroke="#ff0000" points="1163.5,-224.5 1163.5,-243.5 1278.5,-243.5 1278.5,-224.5 1163.5,-224.5"/>
<text text-anchor="middle" x="1221" y="-231.5" font-family="Helvetica,sans-Serif" font-size="10.00" fill="#000000">alib/strings/strings.hpp</text>
</a>
</g>
</g>
<!-- Node2&#45;&gt;Node16 -->
<g id="edge22" class="edge">
<title>Node2&#45;&gt;Node16</title>
<path fill="none" stroke="#191970" d="M2354.9517,-289.0784C2195.6328,-284.6907 1522.0465,-265.2846 1288.6608,-244.0441"/>
<polygon fill="#191970" stroke="#191970" points="1288.8303,-240.5447 1278.5471,-243.0956 1288.1766,-247.5141 1288.8303,-240.5447"/>
</g>
<!-- Node25 -->
<g id="node24" class="node">
<title>Node25</title>
<g id="a_node24"><a xlink:href="astring_8hpp.html" target="_top" xlink:title="alib/strings/astring.hpp">
<polygon fill="#ffffff" stroke="#ff0000" points="1296.5,-224.5 1296.5,-243.5 1411.5,-243.5 1411.5,-224.5 1296.5,-224.5"/>
<text text-anchor="middle" x="1354" y="-231.5" font-family="Helvetica,sans-Serif" font-size="10.00" fill="#000000">alib/strings/astring.hpp</text>
</a>
</g>
</g>
<!-- Node2&#45;&gt;Node25 -->
<g id="edge23" class="edge">
<title>Node2&#45;&gt;Node25</title>
<path fill="none" stroke="#191970" d="M2354.615,-289.6167C2230.4092,-287.9692 1793.181,-279.8873 1421.8361,-243.9773"/>
<polygon fill="#191970" stroke="#191970" points="1421.9904,-240.4758 1411.6978,-242.9883 1421.3107,-247.4427 1421.9904,-240.4758"/>
</g>
<!-- Node27 -->
<g id="node25" class="node">
<title>Node27</title>
<g id="a_node25"><a xlink:href="preallocatedstring_8hpp.html" target="_top" xlink:title="alib/strings/preallocatedstring.hpp">
<polygon fill="#ffffff" stroke="#000000" points="1430,-224.5 1430,-243.5 1592,-243.5 1592,-224.5 1430,-224.5"/>
<text text-anchor="middle" x="1511" y="-231.5" font-family="Helvetica,sans-Serif" font-size="10.00" fill="#000000">alib/strings/preallocatedstring.hpp</text>
</a>
</g>
</g>
<!-- Node2&#45;&gt;Node27 -->
<g id="edge24" class="edge">
<title>Node2&#45;&gt;Node27</title>
<path fill="none" stroke="#191970" d="M2354.7766,-288.6431C2246.2807,-284.2058 1900.087,-269.0063 1602.5359,-244.0922"/>
<polygon fill="#191970" stroke="#191970" points="1602.6749,-240.5916 1592.4163,-243.2395 1602.0871,-247.5668 1602.6749,-240.5916"/>
</g>
<!-- Node28 -->
<g id="node26" class="node">
<title>Node28</title>
<g id="a_node26"><a xlink:href="resources_8hpp.html" target="_top" xlink:title="alib/lang/resources.hpp">
<polygon fill="#ffffff" stroke="#ff0000" points="1610.5,-224.5 1610.5,-243.5 1727.5,-243.5 1727.5,-224.5 1610.5,-224.5"/>
<text text-anchor="middle" x="1669" y="-231.5" font-family="Helvetica,sans-Serif" font-size="10.00" fill="#000000">alib/lang/resources.hpp</text>
</a>
</g>
</g>
<!-- Node2&#45;&gt;Node28 -->
<g id="edge25" class="edge">
<title>Node2&#45;&gt;Node28</title>
<path fill="none" stroke="#191970" d="M2354.9261,-288.5365C2259.2599,-284.2286 1979.8906,-270.2851 1737.836,-244.134"/>
<polygon fill="#191970" stroke="#191970" points="1738.1129,-240.6435 1727.7925,-243.0394 1737.3544,-247.6023 1738.1129,-240.6435"/>
</g>
<!-- Node32 -->
<g id="node27" class="node">
<title>Node32</title>
<g id="a_node27"><a xlink:href="library_8hpp.html" target="_top" xlink:title="alib/lang/library.hpp">
<polygon fill="#ffffff" stroke="#000000" points="1941,-224.5 1941,-243.5 2041,-243.5 2041,-224.5 1941,-224.5"/>
<text text-anchor="middle" x="1991" y="-231.5" font-family="Helvetica,sans-Serif" font-size="10.00" fill="#000000">alib/lang/library.hpp</text>
</a>
</g>
</g>
<!-- Node2&#45;&gt;Node32 -->
<g id="edge26" class="edge">
<title>Node2&#45;&gt;Node32</title>
<path fill="none" stroke="#191970" d="M2354.7826,-285.7366C2295.2928,-278.2421 2168.6998,-261.9315 2051.4226,-244.1791"/>
<polygon fill="#191970" stroke="#191970" points="2051.6065,-240.6669 2041.1939,-242.6234 2050.5539,-247.5873 2051.6065,-240.6669"/>
</g>
<!-- Node33 -->
<g id="node28" class="node">
<title>Node33</title>
<g id="a_node28"><a xlink:href="stringlib_8hpp.html" target="_top" xlink:title="alib/strings/stringlib.hpp">
<polygon fill="#ffffff" stroke="#000000" points="2059.5,-224.5 2059.5,-243.5 2178.5,-243.5 2178.5,-224.5 2059.5,-224.5"/>
<text text-anchor="middle" x="2119" y="-231.5" font-family="Helvetica,sans-Serif" font-size="10.00" fill="#000000">alib/strings/stringlib.hpp</text>
</a>
</g>
</g>
<!-- Node2&#45;&gt;Node33 -->
<g id="edge27" class="edge">
<title>Node2&#45;&gt;Node33</title>
<path fill="none" stroke="#191970" d="M2354.8043,-282.9076C2309.5186,-273.515 2229.0725,-256.8299 2174.8924,-245.5925"/>
<polygon fill="#191970" stroke="#191970" points="2175.5983,-242.1645 2165.0959,-243.5606 2174.1767,-249.0186 2175.5983,-242.1645"/>
</g>
<!-- Node34 -->
<g id="node29" class="node">
<title>Node34</title>
<g id="a_node29"><a xlink:href="boxinglib_8hpp.html" target="_top" xlink:title="alib/boxing/boxinglib.hpp">
<polygon fill="#ffffff" stroke="#ff0000" points="2196.5,-224.5 2196.5,-243.5 2319.5,-243.5 2319.5,-224.5 2196.5,-224.5"/>
<text text-anchor="middle" x="2258" y="-231.5" font-family="Helvetica,sans-Serif" font-size="10.00" fill="#000000">alib/boxing/boxinglib.hpp</text>
</a>
</g>
</g>
<!-- Node2&#45;&gt;Node34 -->
<g id="edge28" class="edge">
<title>Node2&#45;&gt;Node34</title>
<path fill="none" stroke="#191970" d="M2366.4803,-280.3733C2345.2628,-271.3032 2313.2724,-257.6279 2289.5231,-247.4755"/>
<polygon fill="#191970" stroke="#191970" points="2290.7967,-244.2136 2280.2258,-243.5011 2288.0452,-250.6502 2290.7967,-244.2136"/>
</g>
<!-- Node43 -->
<g id="node30" class="node">
<title>Node43</title>
<g id="a_node30"><a xlink:href="langlib_8hpp.html" target="_top" xlink:title="alib/lang/langlib.hpp">
<polygon fill="#ffffff" stroke="#000000" points="2338,-224.5 2338,-243.5 2440,-243.5 2440,-224.5 2338,-224.5"/>
<text text-anchor="middle" x="2389" y="-231.5" font-family="Helvetica,sans-Serif" font-size="10.00" fill="#000000">alib/lang/langlib.hpp</text>
</a>
</g>
</g>
<!-- Node2&#45;&gt;Node43 -->
<g id="edge29" class="edge">
<title>Node2&#45;&gt;Node43</title>
<path fill="none" stroke="#191970" d="M2389,-280.2455C2389,-272.9382 2389,-262.6944 2389,-253.7046"/>
<polygon fill="#191970" stroke="#191970" points="2392.5001,-253.6426 2389,-243.6427 2385.5001,-253.6427 2392.5001,-253.6426"/>
</g>
<!-- Node44 -->
<g id="node31" class="node">
<title>Node44</title>
<g id="a_node31"><a xlink:href="stringboxing_8hpp.html" target="_top" xlink:title="alib/strings/boxing/stringboxing.hpp">
<polygon fill="#ffffff" stroke="#000000" points="2458,-224.5 2458,-243.5 2628,-243.5 2628,-224.5 2458,-224.5"/>
<text text-anchor="middle" x="2543" y="-231.5" font-family="Helvetica,sans-Serif" font-size="10.00" fill="#000000">alib/strings/boxing/stringboxing.hpp</text>
</a>
</g>
</g>
<!-- Node2&#45;&gt;Node44 -->
<g id="edge30" class="edge">
<title>Node2&#45;&gt;Node44</title>
<path fill="none" stroke="#191970" d="M2415.4735,-280.3733C2440.8597,-271.1419 2479.3645,-257.1402 2507.422,-246.9375"/>
<polygon fill="#191970" stroke="#191970" points="2508.6701,-250.2079 2516.8719,-243.5011 2506.2778,-243.6293 2508.6701,-250.2079"/>
</g>
<!-- Node45 -->
<g id="node32" class="node">
<title>Node45</title>
<g id="a_node32"><a xlink:href="report_8hpp.html" target="_top" xlink:title="alib/lang/report.hpp">
<polygon fill="#ffffff" stroke="#ff0000" points="2646.5,-224.5 2646.5,-243.5 2745.5,-243.5 2745.5,-224.5 2646.5,-224.5"/>
<text text-anchor="middle" x="2696" y="-231.5" font-family="Helvetica,sans-Serif" font-size="10.00" fill="#000000">alib/lang/report.hpp</text>
</a>
</g>
</g>
<!-- Node2&#45;&gt;Node45 -->
<g id="edge31" class="edge">
<title>Node2&#45;&gt;Node45</title>
<path fill="none" stroke="#191970" d="M2423.0274,-283.7931C2474.5227,-274.3998 2572.9646,-256.4429 2636.4896,-244.8553"/>
<polygon fill="#191970" stroke="#191970" points="2637.1631,-248.2903 2646.3726,-243.0525 2635.9069,-241.4039 2637.1631,-248.2903"/>
</g>
<!-- Node47 -->
<g id="node33" class="node">
<title>Node47</title>
<g id="a_node33"><a xlink:href="enumbitwise_8hpp.html" target="_top" xlink:title="alib/lang/enumbitwise.hpp">
<polygon fill="#ffffff" stroke="#ff0000" points="659.5,-.5 659.5,-19.5 788.5,-19.5 788.5,-.5 659.5,-.5"/>
<text text-anchor="middle" x="724" y="-7.5" font-family="Helvetica,sans-Serif" font-size="10.00" fill="#000000">alib/lang/enumbitwise.hpp</text>
</a>
</g>
</g>
<!-- Node2&#45;&gt;Node47 -->
<g id="edge32" class="edge">
<title>Node2&#45;&gt;Node47</title>
<path fill="none" stroke="#191970" d="M2354.8314,-289.3929C2146.8391,-285.6305 1058.898,-264.9703 1032,-244 1007.9268,-225.232 1013,-208.5246 1013,-178 1013,-178 1013,-178 1013,-122 1013,-91.4754 1016.7538,-76.3474 994,-56 965.8328,-30.8117 868.5724,-19.1689 798.8663,-13.9611"/>
<polygon fill="#191970" stroke="#191970" points="799.018,-10.463 788.7932,-13.2385 798.5171,-17.4451 799.018,-10.463"/>
</g>
<!-- Node49 -->
<g id="node34" class="node">
<title>Node49</title>
<g id="a_node34"><a xlink:href="enummetadata_8hpp.html" target="_top" xlink:title="alib/lang/enummetadata.hpp">
<polygon fill="#ffffff" stroke="#000000" points="1745.5,-224.5 1745.5,-243.5 1884.5,-243.5 1884.5,-224.5 1745.5,-224.5"/>
<text text-anchor="middle" x="1815" y="-231.5" font-family="Helvetica,sans-Serif" font-size="10.00" fill="#000000">alib/lang/enummetadata.hpp</text>
</a>
</g>
</g>
<!-- Node2&#45;&gt;Node49 -->
<g id="edge33" class="edge">
<title>Node2&#45;&gt;Node49</title>
<path fill="none" stroke="#191970" d="M2354.8126,-287.0855C2274.9602,-280.2134 2069.989,-262.2011 1899,-244 1897.6857,-243.8601 1896.3599,-243.7177 1895.0252,-243.5731"/>
<polygon fill="#191970" stroke="#191970" points="1894.9807,-240.0469 1884.6568,-242.4277 1894.2121,-247.0046 1894.9807,-240.0469"/>
</g>
<!-- Node50 -->
<g id="node35" class="node">
<title>Node50</title>
<g id="a_node35"><a xlink:href="configlib_8hpp.html" target="_top" xlink:title="alib/config/configlib.hpp">
<polygon fill="#ffffff" stroke="#ff0000" points="983.5,-.5 983.5,-19.5 1102.5,-19.5 1102.5,-.5 983.5,-.5"/>
<text text-anchor="middle" x="1043" y="-7.5" font-family="Helvetica,sans-Serif" font-size="10.00" fill="#000000">alib/config/configlib.hpp</text>
</a>
</g>
</g>
<!-- Node2&#45;&gt;Node50 -->
<g id="edge34" class="edge">
<title>Node2&#45;&gt;Node50</title>
<path fill="none" stroke="#191970" d="M2354.953,-288.748C2254.4973,-284.7567 1964.3343,-270.9819 1932,-244 1908.5634,-224.4429 1913,-208.5246 1913,-178 1913,-178 1913,-178 1913,-122 1913,-41.5041 1319.5621,-17.5749 1112.9283,-11.6827"/>
<polygon fill="#191970" stroke="#191970" points="1112.8926,-8.1804 1102.7986,-11.3995 1112.6969,-15.1776 1112.8926,-8.1804"/>
</g>
<!-- Node55 -->
<g id="node36" class="node">
<title>Node55</title>
<g id="a_node36"><a xlink:href="systemlib_8hpp.html" target="_top" xlink:title="alib/system/systemlib.hpp">
<polygon fill="#ffffff" stroke="#ff0000" points="2763.5,-224.5 2763.5,-243.5 2894.5,-243.5 2894.5,-224.5 2763.5,-224.5"/>
<text text-anchor="middle" x="2829" y="-231.5" font-family="Helvetica,sans-Serif" font-size="10.00" fill="#000000">alib/system/systemlib.hpp</text>
</a>
</g>
</g>
<!-- Node2&#45;&gt;Node55 -->
<g id="edge35" class="edge">
<title>Node2&#45;&gt;Node55</title>
<path fill="none" stroke="#191970" d="M2423.2292,-285.7694C2486.2405,-277.9635 2625.1024,-260.6774 2753.1678,-244.1007"/>
<polygon fill="#191970" stroke="#191970" points="2753.6861,-247.5629 2763.1534,-242.8068 2752.7865,-240.6209 2753.6861,-247.5629"/>
</g>
<!-- Node57 -->
<g id="node37" class="node">
<title>Node57</title>
<g id="a_node37"><a xlink:href="applicables_8hpp.html" target="_top" xlink:title="alib/strings/applicables.hpp">
<polygon fill="#ffffff" stroke="#000000" points="2913,-224.5 2913,-243.5 3047,-243.5 3047,-224.5 2913,-224.5"/>
<text text-anchor="middle" x="2980" y="-231.5" font-family="Helvetica,sans-Serif" font-size="10.00" fill="#000000">alib/strings/applicables.hpp</text>
</a>
</g>
</g>
<!-- Node2&#45;&gt;Node57 -->
<g id="edge36" class="edge">
<title>Node2&#45;&gt;Node57</title>
<path fill="none" stroke="#191970" d="M2423.0282,-287.4268C2504.0246,-281.2008 2714.8468,-264.4016 2902.7631,-243.9835"/>
<polygon fill="#191970" stroke="#191970" points="2903.2665,-247.4494 2912.8272,-242.8841 2902.5062,-240.4908 2903.2665,-247.4494"/>
</g>
<!-- Node60&#45;&gt;Node47 -->
<g id="edge39" class="edge">
<title>Node60&#45;&gt;Node47</title>
<path fill="none" stroke="#191970" d="M499.3676,-227.0348C610.5179,-215.7123 816.6844,-193.9758 822,-188 868.0761,-136.2008 785.6586,-59.0339 744.8739,-25.9724"/>
<polygon fill="#191970" stroke="#191970" points="746.8718,-23.0897 736.864,-19.6119 742.5187,-28.5716 746.8718,-23.0897"/>
</g>
<!-- Node61 -->
<g id="node38" class="node">
<title>Node61</title>
<g id="a_node38"><a xlink:href="threadlock_8hpp.html" target="_top" xlink:title="alib/threads/threadlock.hpp">
<polygon fill="#ffffff" stroke="#ff0000" points="174,-112.5 174,-131.5 308,-131.5 308,-112.5 174,-112.5"/>
<text text-anchor="middle" x="241" y="-119.5" font-family="Helvetica,sans-Serif" font-size="10.00" fill="#000000">alib/threads/threadlock.hpp</text>
</a>
</g>
</g>
<!-- Node60&#45;&gt;Node61 -->
<g id="edge40" class="edge">
<title>Node60&#45;&gt;Node61</title>
<path fill="none" stroke="#191970" d="M371.6232,-224.4911C328.9651,-216.4157 275.9087,-203.6555 260,-188 247.6743,-175.8704 243.2162,-156.3013 241.6672,-141.6152"/>
<polygon fill="#191970" stroke="#191970" points="245.152,-141.274 240.9677,-131.5405 238.1689,-141.759 245.152,-141.274"/>
</g>
<!-- Node68 -->
<g id="node39" class="node">
<title>Node68</title>
<g id="a_node39"><a xlink:href="substring_8hpp.html" target="_top" xlink:title="alib/strings/substring.hpp">
<polygon fill="#ffffff" stroke="#000000" points="368.5,-56.5 368.5,-75.5 493.5,-75.5 493.5,-56.5 368.5,-56.5"/>
<text text-anchor="middle" x="431" y="-63.5" font-family="Helvetica,sans-Serif" font-size="10.00" fill="#000000">alib/strings/substring.hpp</text>
</a>
</g>
</g>
<!-- Node60&#45;&gt;Node68 -->
<g id="edge41" class="edge">
<title>Node60&#45;&gt;Node68</title>
<path fill="none" stroke="#191970" d="M430.0566,-224.4862C430.2147,-197.9293 430.6633,-122.5651 430.88,-86.1655"/>
<polygon fill="#191970" stroke="#191970" points="434.3818,-85.8486 430.9415,-75.8279 427.3819,-85.8068 434.3818,-85.8486"/>
</g>
<!-- Node69 -->
<g id="node40" class="node">
<title>Node69</title>
<g id="a_node40"><a xlink:href="numberformat_8hpp.html" target="_top" xlink:title="alib/strings/numberformat.hpp">
<polygon fill="#ffffff" stroke="#000000" points="667,-168.5 667,-187.5 813,-187.5 813,-168.5 667,-168.5"/>
<text text-anchor="middle" x="740" y="-175.5" font-family="Helvetica,sans-Serif" font-size="10.00" fill="#000000">alib/strings/numberformat.hpp</text>
</a>
</g>
</g>
<!-- Node60&#45;&gt;Node69 -->
<g id="edge42" class="edge">
<title>Node60&#45;&gt;Node69</title>
<path fill="none" stroke="#191970" d="M482.9387,-224.4369C536.773,-214.712 620.1761,-199.6456 677.2887,-189.3285"/>
<polygon fill="#191970" stroke="#191970" points="678.0612,-192.7457 687.2797,-187.5237 676.8167,-185.8572 678.0612,-192.7457"/>
</g>
<!-- Node70 -->
<g id="node41" class="node">
<title>Node70</title>
<g id="a_node41"><a xlink:href="variable_8hpp.html" target="_top" xlink:title="alib/config/variable.hpp">
<polygon fill="#ffffff" stroke="#000000" points="869,-56.5 869,-75.5 985,-75.5 985,-56.5 869,-56.5"/>
<text text-anchor="middle" x="927" y="-63.5" font-family="Helvetica,sans-Serif" font-size="10.00" fill="#000000">alib/config/variable.hpp</text>
</a>
</g>
</g>
<!-- Node60&#45;&gt;Node70 -->
<g id="edge43" class="edge">
<title>Node60&#45;&gt;Node70</title>
<path fill="none" stroke="#191970" d="M499.171,-227.3107C617.6792,-215.7408 847.603,-192.7698 855,-188 892.2244,-163.9968 912.7075,-113.3879 921.5817,-85.4862"/>
<polygon fill="#191970" stroke="#191970" points="924.9991,-86.2744 924.514,-75.6906 918.2932,-84.2669 924.9991,-86.2744"/>
</g>
<!-- Node71 -->
<g id="node42" class="node">
<title>Node71</title>
<g id="a_node42"><a xlink:href="plugins_8hpp.html" target="_top" xlink:title="alib/config/plugins.hpp">
<polygon fill="#ffffff" stroke="#000000" points="488.5,-112.5 488.5,-131.5 601.5,-131.5 601.5,-112.5 488.5,-112.5"/>
<text text-anchor="middle" x="545" y="-119.5" font-family="Helvetica,sans-Serif" font-size="10.00" fill="#000000">alib/config/plugins.hpp</text>
</a>
</g>
</g>
<!-- Node60&#45;&gt;Node71 -->
<g id="edge44" class="edge">
<title>Node60&#45;&gt;Node71</title>
<path fill="none" stroke="#191970" d="M437.775,-224.1361C448.4747,-210.8087 468.622,-186.5813 488,-168 499.1533,-157.3052 512.5611,-146.3991 523.5701,-137.8919"/>
<polygon fill="#191970" stroke="#191970" points="525.9568,-140.474 531.796,-131.6335 521.7183,-134.903 525.9568,-140.474"/>
</g>
<!-- Node72 -->
<g id="node43" class="node">
<title>Node72</title>
<g id="a_node43"><a xlink:href="plugincontainer_8hpp.html" target="_top" xlink:title="alib/util/plugincontainer.hpp">
<polygon fill="#ffffff" stroke="#ff0000" points="269,-168.5 269,-187.5 403,-187.5 403,-168.5 269,-168.5"/>
<text text-anchor="middle" x="336" y="-175.5" font-family="Helvetica,sans-Serif" font-size="10.00" fill="#000000">alib/util/plugincontainer.hpp</text>
</a>
</g>
</g>
<!-- Node60&#45;&gt;Node72 -->
<g id="edge45" class="edge">
<title>Node60&#45;&gt;Node72</title>
<path fill="none" stroke="#191970" d="M413.6264,-224.2455C399.0692,-215.5731 377.569,-202.7645 360.8848,-192.825"/>
<polygon fill="#191970" stroke="#191970" points="362.5683,-189.7539 352.1859,-187.6427 358.9856,-195.7676 362.5683,-189.7539"/>
</g>
<!-- Node74 -->
<g id="node44" class="node">
<title>Node74</title>
<g id="a_node44"><a xlink:href="inmemoryplugin_8hpp.html" target="_top" xlink:title="alib/config/inmemoryplugin.hpp">
<polygon fill="#ffffff" stroke="#ff0000" points="497.5,-168.5 497.5,-187.5 648.5,-187.5 648.5,-168.5 497.5,-168.5"/>
<text text-anchor="middle" x="573" y="-175.5" font-family="Helvetica,sans-Serif" font-size="10.00" fill="#000000">alib/config/inmemoryplugin.hpp</text>
</a>
</g>
</g>
<!-- Node60&#45;&gt;Node74 -->
<g id="edge46" class="edge">
<title>Node60&#45;&gt;Node74</title>
<path fill="none" stroke="#191970" d="M454.5826,-224.3733C477.9496,-215.2226 513.2862,-201.3844 539.2784,-191.2057"/>
<polygon fill="#191970" stroke="#191970" points="540.703,-194.4066 548.7382,-187.5011 538.1505,-187.8886 540.703,-194.4066"/>
</g>
<!-- Node76&#45;&gt;Node1 -->
<g id="edge55" class="edge">
<title>Node76&#45;&gt;Node1</title>
<path fill="none" stroke="#191970" d="M1155.7524,-299.5411C1155.1644,-299.6973 1154.5797,-299.8504 1154,-300 1097.4746,-314.5842 1031.7556,-328.1599 986.0815,-336.7272"/>
<polygon fill="#191970" stroke="#191970" points="985.269,-333.3182 976.0751,-338.5834 986.5458,-340.2007 985.269,-333.3182"/>
</g>
<!-- Node77&#45;&gt;Node0 -->
<g id="edge56" class="edge">
<title>Node77&#45;&gt;Node0</title>
<path fill="none" stroke="#191970" d="M617.1998,-297.5275C665.581,-312.1589 777.936,-344.0471 875,-356 1183.1781,-393.9504 3495.8021,-401.0097 3862.1712,-401.8933"/>
<polygon fill="#191970" stroke="#191970" points="3862.4306,-405.3938 3872.4389,-401.9177 3862.4473,-398.3939 3862.4306,-405.3938"/>
</g>
<!-- Node77&#45;&gt;Node1 -->
<g id="edge57" class="edge">
<title>Node77&#45;&gt;Node1</title>
<path fill="none" stroke="#191970" d="M617.0985,-294.5573C624.6039,-296.4114 632.6531,-298.4725 640,-300 720.7664,-316.7919 814.9814,-330.2949 873.6593,-338.2236"/>
<polygon fill="#191970" stroke="#191970" points="873.4565,-341.7277 883.8336,-339.591 874.389,-334.7901 873.4565,-341.7277"/>
</g>
<!-- Node77&#45;&gt;Node29 -->
<g id="edge58" class="edge">
<title>Node77&#45;&gt;Node29</title>
<path fill="none" stroke="#191970" d="M577.7339,-280.3773C558.1429,-266.9028 528.6384,-242.0422 546,-224 566.9263,-202.2534 1535.3813,-182.0832 1713.8792,-178.5469"/>
<polygon fill="#191970" stroke="#191970" points="1714.107,-182.0432 1724.0361,-178.3468 1713.9691,-175.0446 1714.107,-182.0432"/>
</g>
<!-- Node77&#45;&gt;Node60 -->
<g id="edge59" class="edge">
<title>Node77&#45;&gt;Node60</title>
<path fill="none" stroke="#191970" d="M568.9488,-281.737C542.1793,-272.5401 498.5855,-257.5631 467.3646,-246.8369"/>
<polygon fill="#191970" stroke="#191970" points="468.2944,-243.4556 457.6998,-243.5165 466.02,-250.0758 468.2944,-243.4556"/>
</g>
<!-- Node78 -->
<g id="node45" class="node">
<title>Node78</title>
<g id="a_node45"><a xlink:href="smartlock_8hpp.html" target="_top" xlink:title="alib/threads/smartlock.hpp">
<polygon fill="#ffffff" stroke="#ff0000" points="81.5,-168.5 81.5,-187.5 212.5,-187.5 212.5,-168.5 81.5,-168.5"/>
<text text-anchor="middle" x="147" y="-175.5" font-family="Helvetica,sans-Serif" font-size="10.00" fill="#000000">alib/threads/smartlock.hpp</text>
</a>
</g>
</g>
<!-- Node77&#45;&gt;Node78 -->
<g id="edge60" class="edge">
<title>Node77&#45;&gt;Node78</title>
<path fill="none" stroke="#191970" d="M568.8398,-286.3972C525.1857,-279.6645 430.415,-264.0257 352,-244 291.7591,-228.6156 223.2821,-205.3697 182.6867,-190.9668"/>
<polygon fill="#191970" stroke="#191970" points="183.8286,-187.6582 173.234,-187.5938 181.4761,-194.251 183.8286,-187.6582"/>
</g>
<!-- Node79 -->
<g id="node46" class="node">
<title>Node79</title>
<g id="a_node46"><a xlink:href="tokenizer_8hpp.html" target="_top" xlink:title="alib/strings/util/tokenizer.hpp">
<polygon fill="#ffffff" stroke="#000000" points="0,-112.5 0,-131.5 140,-131.5 140,-112.5 0,-112.5"/>
<text text-anchor="middle" x="70" y="-119.5" font-family="Helvetica,sans-Serif" font-size="10.00" fill="#000000">alib/strings/util/tokenizer.hpp</text>
</a>
</g>
</g>
<!-- Node77&#45;&gt;Node79 -->
<g id="edge61" class="edge">
<title>Node77&#45;&gt;Node79</title>
<path fill="none" stroke="#191970" d="M568.7194,-289.2341C474.4576,-285.6968 134.8832,-267.528 72,-188 61.8013,-175.1018 62.4035,-155.9374 64.9047,-141.578"/>
<polygon fill="#191970" stroke="#191970" points="68.3443,-142.2315 67.0402,-131.7173 61.5029,-140.7499 68.3443,-142.2315"/>
</g>
<!-- Node80 -->
<g id="node47" class="node">
<title>Node80</title>
<g id="a_node47"><a xlink:href="logger_8hpp.html" target="_top" xlink:title="alib/alox/core/logger.hpp">
<polygon fill="#ffffff" stroke="#ff0000" points="863,-224.5 863,-243.5 985,-243.5 985,-224.5 863,-224.5"/>
<text text-anchor="middle" x="924" y="-231.5" font-family="Helvetica,sans-Serif" font-size="10.00" fill="#000000">alib/alox/core/logger.hpp</text>
</a>
</g>
</g>
<!-- Node77&#45;&gt;Node80 -->
<g id="edge62" class="edge">
<title>Node77&#45;&gt;Node80</title>
<path fill="none" stroke="#191970" d="M617.0713,-285.9275C667.0139,-277.478 783.4185,-257.7842 857.6576,-245.2241"/>
<polygon fill="#191970" stroke="#191970" points="858.5659,-248.6202 867.8419,-243.5011 857.3982,-241.7183 858.5659,-248.6202"/>
</g>
<!-- Node81 -->
<g id="node48" class="node">
<title>Node81</title>
<g id="a_node48"><a xlink:href="domain_8hpp.html" target="_top" xlink:title="alib/alox/core/domain.hpp">
<polygon fill="#ffffff" stroke="#ff0000" points="555,-224.5 555,-243.5 683,-243.5 683,-224.5 555,-224.5"/>
<text text-anchor="middle" x="619" y="-231.5" font-family="Helvetica,sans-Serif" font-size="10.00" fill="#000000">alib/alox/core/domain.hpp</text>
</a>
</g>
</g>
<!-- Node77&#45;&gt;Node81 -->
<g id="edge63" class="edge">
<title>Node77&#45;&gt;Node81</title>
<path fill="none" stroke="#191970" d="M597.5289,-280.2455C601.0334,-272.6973 605.9927,-262.0158 610.2623,-252.8197"/>
<polygon fill="#191970" stroke="#191970" points="613.4864,-254.1867 614.523,-243.6427 607.1373,-251.2389 613.4864,-254.1867"/>
</g>
<!-- Node82 -->
<g id="node49" class="node">
<title>Node82</title>
<g id="a_node49"><a xlink:href="scopestore_8hpp.html" target="_top" xlink:title="alib/alox/core/scopestore.hpp">
<polygon fill="#ffffff" stroke="#ff0000" points="701,-224.5 701,-243.5 845,-243.5 845,-224.5 701,-224.5"/>
<text text-anchor="middle" x="773" y="-231.5" font-family="Helvetica,sans-Serif" font-size="10.00" fill="#000000">alib/alox/core/scopestore.hpp</text>
</a>
</g>
</g>
<!-- Node77&#45;&gt;Node82 -->
<g id="edge64" class="edge">
<title>Node77&#45;&gt;Node82</title>
<path fill="none" stroke="#191970" d="M617.2756,-282.4476C646.8355,-273.2512 697.1941,-257.5841 732.625,-246.5611"/>
<polygon fill="#191970" stroke="#191970" points="733.684,-249.8972 742.1928,-243.5845 731.6044,-243.2132 733.684,-249.8972"/>
</g>
<!-- Node28&#45;&gt;Node29 -->
<g id="edge37" class="edge">
<title>Node28&#45;&gt;Node29</title>
<path fill="none" stroke="#191970" d="M1681.7156,-224.2455C1692.602,-215.8943 1708.4883,-203.7076 1721.22,-193.9408"/>
<polygon fill="#191970" stroke="#191970" points="1723.6261,-196.5063 1729.4301,-187.6427 1719.3654,-190.9523 1723.6261,-196.5063"/>
</g>
<!-- Node49&#45;&gt;Node29 -->
<g id="edge38" class="edge">
<title>Node49&#45;&gt;Node29</title>
<path fill="none" stroke="#191970" d="M1802.2844,-224.2455C1791.398,-215.8943 1775.5117,-203.7076 1762.78,-193.9408"/>
<polygon fill="#191970" stroke="#191970" points="1764.6346,-190.9523 1754.5699,-187.6427 1760.3739,-196.5063 1764.6346,-190.9523"/>
</g>
<!-- Node68&#45;&gt;Node47 -->
<g id="edge47" class="edge">
<title>Node68&#45;&gt;Node47</title>
<path fill="none" stroke="#191970" d="M481.0356,-56.4369C531.707,-46.7522 610.0948,-31.7703 664.0559,-21.4569"/>
<polygon fill="#191970" stroke="#191970" points="665.0057,-24.8388 674.1708,-19.5237 663.6915,-17.9633 665.0057,-24.8388"/>
</g>
<!-- Node70&#45;&gt;Node50 -->
<g id="edge48" class="edge">
<title>Node70&#45;&gt;Node50</title>
<path fill="none" stroke="#191970" d="M946.9411,-56.3733C965.4786,-47.4241 993.3028,-33.9917 1014.2413,-23.8835"/>
<polygon fill="#191970" stroke="#191970" points="1015.8352,-27.0006 1023.3191,-19.5011 1012.7919,-20.6967 1015.8352,-27.0006"/>
</g>
<!-- Node71&#45;&gt;Node68 -->
<g id="edge49" class="edge">
<title>Node71&#45;&gt;Node68</title>
<path fill="none" stroke="#191970" d="M525.4027,-112.3733C507.2669,-103.4644 480.0865,-90.1127 459.5413,-80.0203"/>
<polygon fill="#191970" stroke="#191970" points="460.8603,-76.7688 450.3416,-75.5011 457.7739,-83.0517 460.8603,-76.7688"/>
</g>
<!-- Node71&#45;&gt;Node70 -->
<g id="edge50" class="edge">
<title>Node71&#45;&gt;Node70</title>
<path fill="none" stroke="#191970" d="M601.7768,-113.6767C670.3593,-103.6227 785.6277,-86.7247 858.9178,-75.9806"/>
<polygon fill="#191970" stroke="#191970" points="859.5849,-79.4203 868.9715,-74.5068 858.5695,-72.4944 859.5849,-79.4203"/>
</g>
<!-- Node72&#45;&gt;Node47 -->
<g id="edge51" class="edge">
<title>Node72&#45;&gt;Node47</title>
<path fill="none" stroke="#191970" d="M334.4516,-168.3329C331.3425,-145.1277 327.1326,-85.9813 359,-56 379.7159,-36.5102 548.3275,-21.8713 648.9843,-14.7691"/>
<polygon fill="#191970" stroke="#191970" points="649.3732,-18.2506 659.1058,-14.0641 648.8867,-11.2675 649.3732,-18.2506"/>
</g>
<!-- Node72&#45;&gt;Node61 -->
<g id="edge52" class="edge">
<title>Node72&#45;&gt;Node61</title>
<path fill="none" stroke="#191970" d="M319.4523,-168.2455C304.7401,-159.5731 283.0112,-146.7645 266.1495,-136.825"/>
<polygon fill="#191970" stroke="#191970" points="267.7502,-133.7057 257.3581,-131.6427 264.1954,-139.736 267.7502,-133.7057"/>
</g>
<!-- Node72&#45;&gt;Node68 -->
<g id="edge53" class="edge">
<title>Node72&#45;&gt;Node68</title>
<path fill="none" stroke="#191970" d="M344.0996,-168.4509C360.0847,-149.6054 395.8968,-107.3849 416.2056,-83.4419"/>
<polygon fill="#191970" stroke="#191970" points="419.1214,-85.415 422.9209,-75.5249 413.7831,-80.887 419.1214,-85.415"/>
</g>
<!-- Node74&#45;&gt;Node71 -->
<g id="edge54" class="edge">
<title>Node74&#45;&gt;Node71</title>
<path fill="none" stroke="#191970" d="M568.1228,-168.2455C564.3487,-160.6973 559.0079,-150.0158 554.4099,-140.8197"/>
<polygon fill="#191970" stroke="#191970" points="557.424,-139.0217 549.8213,-131.6427 551.163,-142.1522 557.424,-139.0217"/>
</g>
<!-- Node78&#45;&gt;Node61 -->
<g id="edge65" class="edge">
<title>Node78&#45;&gt;Node61</title>
<path fill="none" stroke="#191970" d="M163.3736,-168.2455C177.9308,-159.5731 199.431,-146.7645 216.1152,-136.825"/>
<polygon fill="#191970" stroke="#191970" points="218.0144,-139.7676 224.8141,-131.6427 214.4317,-133.7539 218.0144,-139.7676"/>
</g>
<!-- Node79&#45;&gt;Node68 -->
<g id="edge66" class="edge">
<title>Node79&#45;&gt;Node68</title>
<path fill="none" stroke="#191970" d="M131.6479,-112.4369C194.858,-102.6314 293.0742,-87.3957 359.6178,-77.0731"/>
<polygon fill="#191970" stroke="#191970" points="360.2611,-80.5153 369.6063,-75.5237 359.188,-73.598 360.2611,-80.5153"/>
</g>
<!-- Node80&#45;&gt;Node1 -->
<g id="edge67" class="edge">
<title>Node80&#45;&gt;Node1</title>
<path fill="none" stroke="#191970" d="M985.2807,-242.8153C1068.4805,-254.9258 1207.3375,-275.7038 1211,-280 1216.7666,-286.7645 1216.7553,-293.2259 1211,-300 1196.6221,-316.923 1063.9948,-332.7515 986.1963,-340.685"/>
<polygon fill="#191970" stroke="#191970" points="985.6636,-337.2209 976.0646,-341.7053 986.365,-344.1857 985.6636,-337.2209"/>
</g>
<!-- Node81&#45;&gt;Node1 -->
<g id="edge68" class="edge">
<title>Node81&#45;&gt;Node1</title>
<path fill="none" stroke="#191970" d="M627.0767,-243.8639C639.7162,-258.5873 665.6733,-286.0685 694,-300 724.9835,-315.2381 814.4738,-329.9912 873.9173,-338.5229"/>
<polygon fill="#191970" stroke="#191970" points="873.5229,-342.0019 883.9152,-339.94 874.5054,-335.0711 873.5229,-342.0019"/>
</g>
<!-- Node82&#45;&gt;Node1 -->
<g id="edge69" class="edge">
<title>Node82&#45;&gt;Node1</title>
<path fill="none" stroke="#191970" d="M748.6876,-243.6309C721.5754,-255.7626 683.7735,-277.729 702,-300 723.3052,-326.0329 813.4533,-337.6644 873.8105,-342.6133"/>
<polygon fill="#191970" stroke="#191970" points="873.7254,-346.1172 883.9676,-343.4066 874.2705,-339.1385 873.7254,-346.1172"/>
</g>
</g>
</svg>
