<?xml version="1.0" encoding="UTF-8" standalone="no"?>
<!DOCTYPE svg PUBLIC "-//W3C//DTD SVG 1.1//EN"
 "http://www.w3.org/Graphics/SVG/1.1/DTD/svg11.dtd">
<!-- Generated by graphviz version 2.40.1 (20161225.0304)
 -->
<!-- Title: smartlock.hpp Pages: 1 -->
<svg width="399pt" height="196pt"
 viewBox="0.00 0.00 399.00 196.00" xmlns="http://www.w3.org/2000/svg" xmlns:xlink="http://www.w3.org/1999/xlink">
<g id="graph0" class="graph" transform="scale(1 1) rotate(0) translate(4 192)">
<title>smartlock.hpp</title>
<polygon fill="#ffffff" stroke="transparent" points="-4,4 -4,-192 395,-192 395,4 -4,4"/>
<!-- Node0 -->
<g id="node1" class="node">
<title>Node0</title>
<polygon fill="#bfbfbf" stroke="#000000" points="182,-168.5 182,-187.5 260,-187.5 260,-168.5 182,-168.5"/>
<text text-anchor="middle" x="221" y="-175.5" font-family="Helvetica,sans-Serif" font-size="10.00" fill="#000000">smartlock.hpp</text>
</g>
<!-- Node1 -->
<g id="node2" class="node">
<title>Node1</title>
<g id="a_node2"><a xlink:href="threadlock_8hpp.html" target="_top" xlink:title="alib/threads/threadlock.hpp">
<polygon fill="#ffffff" stroke="#000000" points="101,-112.5 101,-131.5 235,-131.5 235,-112.5 101,-112.5"/>
<text text-anchor="middle" x="168" y="-119.5" font-family="Helvetica,sans-Serif" font-size="10.00" fill="#000000">alib/threads/threadlock.hpp</text>
</a>
</g>
</g>
<!-- Node0&#45;&gt;Node1 -->
<g id="edge1" class="edge">
<title>Node0&#45;&gt;Node1</title>
<path fill="none" stroke="#191970" d="M211.7681,-168.2455C204.1683,-160.2155 193.2123,-148.6394 184.1632,-139.0781"/>
<polygon fill="#191970" stroke="#191970" points="186.542,-136.4998 177.1261,-131.6427 181.4579,-141.3115 186.542,-136.4998"/>
</g>
<!-- Node16 -->
<g id="node3" class="node">
<title>Node16</title>
<polygon fill="#ffffff" stroke="#bfbfbf" points="253,-112.5 253,-131.5 297,-131.5 297,-112.5 253,-112.5"/>
<text text-anchor="middle" x="275" y="-119.5" font-family="Helvetica,sans-Serif" font-size="10.00" fill="#000000">vector</text>
</g>
<!-- Node0&#45;&gt;Node16 -->
<g id="edge2" class="edge">
<title>Node0&#45;&gt;Node16</title>
<path fill="none" stroke="#191970" d="M230.4061,-168.2455C238.1493,-160.2155 249.312,-148.6394 258.5318,-139.0781"/>
<polygon fill="#191970" stroke="#191970" points="261.2798,-141.2706 265.7017,-131.6427 256.2409,-136.4117 261.2798,-141.2706"/>
</g>
<!-- Node2 -->
<g id="node4" class="node">
<title>Node2</title>
<g id="a_node4"><a xlink:href="threadlocknr_8hpp.html" target="_top" xlink:title="alib/threads/threadlocknr.hpp">
<polygon fill="#ffffff" stroke="#000000" points="35.5,-56.5 35.5,-75.5 176.5,-75.5 176.5,-56.5 35.5,-56.5"/>
<text text-anchor="middle" x="106" y="-63.5" font-family="Helvetica,sans-Serif" font-size="10.00" fill="#000000">alib/threads/threadlocknr.hpp</text>
</a>
</g>
</g>
<!-- Node1&#45;&gt;Node2 -->
<g id="edge3" class="edge">
<title>Node1&#45;&gt;Node2</title>
<path fill="none" stroke="#191970" d="M157.2004,-112.2455C148.1322,-104.0549 134.9794,-92.1749 124.2755,-82.5069"/>
<polygon fill="#191970" stroke="#191970" points="126.4429,-79.7482 116.6758,-75.6427 121.7509,-84.9429 126.4429,-79.7482"/>
</g>
<!-- Node61 -->
<g id="node5" class="node">
<title>Node61</title>
<g id="a_node5"><a xlink:href="threadlib_8hpp.html" target="_top" xlink:title="threadlib.hpp">
<polygon fill="#ffffff" stroke="#000000" points="195,-56.5 195,-75.5 267,-75.5 267,-56.5 195,-56.5"/>
<text text-anchor="middle" x="231" y="-63.5" font-family="Helvetica,sans-Serif" font-size="10.00" fill="#000000">threadlib.hpp</text>
</a>
</g>
</g>
<!-- Node1&#45;&gt;Node61 -->
<g id="edge4" class="edge">
<title>Node1&#45;&gt;Node61</title>
<path fill="none" stroke="#191970" d="M178.9738,-112.2455C188.1882,-104.0549 201.5532,-92.1749 212.4297,-82.5069"/>
<polygon fill="#191970" stroke="#191970" points="215.0032,-84.9023 220.152,-75.6427 210.3526,-79.6704 215.0032,-84.9023"/>
</g>
<!-- Node3 -->
<g id="node6" class="node">
<title>Node3</title>
<g id="a_node6"><a xlink:href="owner_8hpp.html" target="_top" xlink:title="alib/lang/owner.hpp">
<polygon fill="#ffffff" stroke="#ff0000" points="0,-.5 0,-19.5 100,-19.5 100,-.5 0,-.5"/>
<text text-anchor="middle" x="50" y="-7.5" font-family="Helvetica,sans-Serif" font-size="10.00" fill="#000000">alib/lang/owner.hpp</text>
</a>
</g>
</g>
<!-- Node2&#45;&gt;Node3 -->
<g id="edge5" class="edge">
<title>Node2&#45;&gt;Node3</title>
<path fill="none" stroke="#191970" d="M96.2455,-56.2455C88.1352,-48.1352 76.4075,-36.4075 66.7919,-26.7919"/>
<polygon fill="#191970" stroke="#191970" points="69.1887,-24.2389 59.6427,-19.6427 64.2389,-29.1887 69.1887,-24.2389"/>
</g>
<!-- Node60 -->
<g id="node7" class="node">
<title>Node60</title>
<polygon fill="#ffffff" stroke="#bfbfbf" points="118,-.5 118,-19.5 162,-19.5 162,-.5 118,-.5"/>
<text text-anchor="middle" x="140" y="-7.5" font-family="Helvetica,sans-Serif" font-size="10.00" fill="#000000">mutex</text>
</g>
<!-- Node2&#45;&gt;Node60 -->
<g id="edge6" class="edge">
<title>Node2&#45;&gt;Node60</title>
<path fill="none" stroke="#191970" d="M111.9223,-56.2455C116.6027,-48.5367 123.2673,-37.5598 128.9289,-28.2348"/>
<polygon fill="#191970" stroke="#191970" points="131.9475,-30.007 134.1455,-19.6427 125.9639,-26.3741 131.9475,-30.007"/>
</g>
<!-- Node61&#45;&gt;Node60 -->
<g id="edge8" class="edge">
<title>Node61&#45;&gt;Node60</title>
<path fill="none" stroke="#191970" d="M215.149,-56.2455C201.1868,-47.6534 180.6272,-35.0014 164.5404,-25.1018"/>
<polygon fill="#191970" stroke="#191970" points="166.0203,-21.9029 155.6693,-19.6427 162.3516,-27.8645 166.0203,-21.9029"/>
</g>
<!-- Node31 -->
<g id="node8" class="node">
<title>Node31</title>
<polygon fill="#ffffff" stroke="#bfbfbf" points="180.5,-.5 180.5,-19.5 215.5,-19.5 215.5,-.5 180.5,-.5"/>
<text text-anchor="middle" x="198" y="-7.5" font-family="Helvetica,sans-Serif" font-size="10.00" fill="#000000">map</text>
</g>
<!-- Node61&#45;&gt;Node31 -->
<g id="edge7" class="edge">
<title>Node61&#45;&gt;Node31</title>
<path fill="none" stroke="#191970" d="M225.2518,-56.2455C220.7565,-48.617 214.3752,-37.7881 208.9175,-28.5267"/>
<polygon fill="#191970" stroke="#191970" points="211.7747,-26.4811 203.6823,-19.6427 205.7439,-30.035 211.7747,-26.4811"/>
</g>
<!-- Node62 -->
<g id="node9" class="node">
<title>Node62</title>
<polygon fill="#ffffff" stroke="#bfbfbf" points="233.5,-.5 233.5,-19.5 328.5,-19.5 328.5,-.5 233.5,-.5"/>
<text text-anchor="middle" x="281" y="-7.5" font-family="Helvetica,sans-Serif" font-size="10.00" fill="#000000">condition_variable</text>
</g>
<!-- Node61&#45;&gt;Node62 -->
<g id="edge9" class="edge">
<title>Node61&#45;&gt;Node62</title>
<path fill="none" stroke="#191970" d="M239.7093,-56.2455C246.8073,-48.2958 257.0084,-36.8706 265.495,-27.3656"/>
<polygon fill="#191970" stroke="#191970" points="268.3411,-29.4331 272.3905,-19.6427 263.1195,-24.771 268.3411,-29.4331"/>
</g>
<!-- Node63 -->
<g id="node10" class="node">
<title>Node63</title>
<polygon fill="#ffffff" stroke="#bfbfbf" points="347,-.5 347,-19.5 391,-19.5 391,-.5 347,-.5"/>
<text text-anchor="middle" x="369" y="-7.5" font-family="Helvetica,sans-Serif" font-size="10.00" fill="#000000">thread</text>
</g>
<!-- Node61&#45;&gt;Node63 -->
<g id="edge10" class="edge">
<title>Node61&#45;&gt;Node63</title>
<path fill="none" stroke="#191970" d="M254.723,-56.3733C277.5818,-47.0972 312.3104,-33.0045 337.483,-22.7895"/>
<polygon fill="#191970" stroke="#191970" points="339.0022,-25.9503 346.9522,-18.9469 336.37,-19.464 339.0022,-25.9503"/>
</g>
</g>
</svg>
