<?xml version="1.0" encoding="UTF-8" standalone="no"?>
<!DOCTYPE svg PUBLIC "-//W3C//DTD SVG 1.1//EN"
 "http://www.w3.org/Graphics/SVG/1.1/DTD/svg11.dtd">
<!-- Generated by graphviz version 2.40.1 (20161225.0304)
 -->
<!-- Title: smartlock.hpp Pages: 1 -->
<svg width="943pt" height="420pt"
 viewBox="0.00 0.00 943.00 420.00" xmlns="http://www.w3.org/2000/svg" xmlns:xlink="http://www.w3.org/1999/xlink">
<g id="graph0" class="graph" transform="scale(1 1) rotate(0) translate(4 416)">
<title>smartlock.hpp</title>
<polygon fill="#ffffff" stroke="transparent" points="-4,4 -4,-416 939,-416 939,4 -4,4"/>
<!-- Node64 -->
<g id="node1" class="node">
<title>Node64</title>
<polygon fill="#bfbfbf" stroke="#000000" points="403.5,-392.5 403.5,-411.5 481.5,-411.5 481.5,-392.5 403.5,-392.5"/>
<text text-anchor="middle" x="442.5" y="-399.5" font-family="Helvetica,sans-Serif" font-size="10.00" fill="#000000">smartlock.hpp</text>
</g>
<!-- Node65 -->
<g id="node2" class="node">
<title>Node65</title>
<g id="a_node2"><a xlink:href="lox_8hpp.html" target="_top" xlink:title="lox.hpp">
<polygon fill="#ffffff" stroke="#000000" points="418.5,-336.5 418.5,-355.5 466.5,-355.5 466.5,-336.5 418.5,-336.5"/>
<text text-anchor="middle" x="442.5" y="-343.5" font-family="Helvetica,sans-Serif" font-size="10.00" fill="#000000">lox.hpp</text>
</a>
</g>
</g>
<!-- Node64&#45;&gt;Node65 -->
<g id="edge1" class="edge">
<title>Node64&#45;&gt;Node65</title>
<path fill="none" stroke="#191970" d="M442.5,-382.1575C442.5,-373.155 442.5,-362.9199 442.5,-355.6427"/>
<polygon fill="#191970" stroke="#191970" points="439.0001,-382.2455 442.5,-392.2455 446.0001,-382.2456 439.0001,-382.2455"/>
</g>
<!-- Node66 -->
<g id="node3" class="node">
<title>Node66</title>
<g id="a_node3"><a xlink:href="alox_2alox_8hpp.html" target="_top" xlink:title="alox.hpp">
<polygon fill="#ffffff" stroke="#000000" points="416,-280.5 416,-299.5 469,-299.5 469,-280.5 416,-280.5"/>
<text text-anchor="middle" x="442.5" y="-287.5" font-family="Helvetica,sans-Serif" font-size="10.00" fill="#000000">alox.hpp</text>
</a>
</g>
</g>
<!-- Node65&#45;&gt;Node66 -->
<g id="edge2" class="edge">
<title>Node65&#45;&gt;Node66</title>
<path fill="none" stroke="#191970" d="M436.0113,-326.1575C435.419,-317.155 435.8335,-306.9199 437.2549,-299.6427"/>
<polygon fill="#191970" stroke="#191970" points="432.5561,-326.739 437.2332,-336.2455 439.5053,-325.8972 432.5561,-326.739"/>
</g>
<!-- Node66&#45;&gt;Node65 -->
<g id="edge3" class="edge">
<title>Node66&#45;&gt;Node65</title>
<path fill="none" stroke="#191970" d="M448.9795,-309.7046C449.5821,-318.6944 449.1779,-328.9382 447.7668,-336.2455"/>
<polygon fill="#191970" stroke="#191970" points="452.4368,-309.1421 447.7451,-299.6427 445.4889,-309.9945 452.4368,-309.1421"/>
</g>
<!-- Node67 -->
<g id="node4" class="node">
<title>Node67</title>
<g id="a_node4"><a xlink:href="log_8hpp.html" target="_top" xlink:title="log.hpp">
<polygon fill="#ffffff" stroke="#000000" points="290.5,-224.5 290.5,-243.5 338.5,-243.5 338.5,-224.5 290.5,-224.5"/>
<text text-anchor="middle" x="314.5" y="-231.5" font-family="Helvetica,sans-Serif" font-size="10.00" fill="#000000">log.hpp</text>
</a>
</g>
</g>
<!-- Node66&#45;&gt;Node67 -->
<g id="edge4" class="edge">
<title>Node66&#45;&gt;Node67</title>
<path fill="none" stroke="#191970" d="M406.4543,-276.7818C381.7639,-266.5911 350.2989,-252.7381 331.1882,-243.5914"/>
<polygon fill="#191970" stroke="#191970" points="405.3026,-280.0919 415.8839,-280.6269 407.9457,-273.6101 405.3026,-280.0919"/>
</g>
<!-- Node68 -->
<g id="node5" class="node">
<title>Node68</title>
<g id="a_node5"><a xlink:href="domain_8hpp.html" target="_top" xlink:title="domain.hpp">
<polygon fill="#ffffff" stroke="#000000" points="0,-224.5 0,-243.5 67,-243.5 67,-224.5 0,-224.5"/>
<text text-anchor="middle" x="33.5" y="-231.5" font-family="Helvetica,sans-Serif" font-size="10.00" fill="#000000">domain.hpp</text>
</a>
</g>
</g>
<!-- Node66&#45;&gt;Node68 -->
<g id="edge5" class="edge">
<title>Node66&#45;&gt;Node68</title>
<path fill="none" stroke="#191970" d="M405.6724,-286.7255C339.3242,-280.5286 195.4534,-265.7308 75.5,-244 72.8448,-243.519 70.1059,-242.9755 67.3592,-242.3966"/>
<polygon fill="#191970" stroke="#191970" points="405.3602,-290.2115 415.6397,-287.6459 406.004,-283.2411 405.3602,-290.2115"/>
</g>
<!-- Node69 -->
<g id="node6" class="node">
<title>Node69</title>
<g id="a_node6"><a xlink:href="logger_8hpp.html" target="_top" xlink:title="logger.hpp">
<polygon fill="#ffffff" stroke="#000000" points="85,-224.5 85,-243.5 146,-243.5 146,-224.5 85,-224.5"/>
<text text-anchor="middle" x="115.5" y="-231.5" font-family="Helvetica,sans-Serif" font-size="10.00" fill="#000000">logger.hpp</text>
</a>
</g>
</g>
<!-- Node66&#45;&gt;Node69 -->
<g id="edge6" class="edge">
<title>Node66&#45;&gt;Node69</title>
<path fill="none" stroke="#191970" d="M405.878,-284.7075C351.9764,-276.7637 248.1798,-260.8792 160.5,-244 155.9419,-243.1225 151.1393,-242.1294 146.437,-241.1179"/>
<polygon fill="#191970" stroke="#191970" points="405.5714,-288.1999 415.9735,-286.1883 406.5873,-281.274 405.5714,-288.1999"/>
</g>
<!-- Node70 -->
<g id="node7" class="node">
<title>Node70</title>
<g id="a_node7"><a xlink:href="textlogger_8hpp.html" target="_top" xlink:title="textlogger.hpp">
<polygon fill="#ffffff" stroke="#000000" points="309,-168.5 309,-187.5 386,-187.5 386,-168.5 309,-168.5"/>
<text text-anchor="middle" x="347.5" y="-175.5" font-family="Helvetica,sans-Serif" font-size="10.00" fill="#000000">textlogger.hpp</text>
</a>
</g>
</g>
<!-- Node66&#45;&gt;Node70 -->
<g id="edge7" class="edge">
<title>Node66&#45;&gt;Node70</title>
<path fill="none" stroke="#191970" d="M427.6795,-272.5274C407.3575,-248.5688 371.5473,-206.3505 355.5791,-187.5249"/>
<polygon fill="#191970" stroke="#191970" points="425.2626,-275.0888 434.4004,-280.4509 430.6009,-270.5608 425.2626,-275.0888"/>
</g>
<!-- Node71 -->
<g id="node8" class="node">
<title>Node71</title>
<g id="a_node8"><a xlink:href="plaintextlogger_8hpp.html" target="_top" xlink:title="plaintextlogger.hpp">
<polygon fill="#ffffff" stroke="#000000" points="298.5,-112.5 298.5,-131.5 396.5,-131.5 396.5,-112.5 298.5,-112.5"/>
<text text-anchor="middle" x="347.5" y="-119.5" font-family="Helvetica,sans-Serif" font-size="10.00" fill="#000000">plaintextlogger.hpp</text>
</a>
</g>
</g>
<!-- Node66&#45;&gt;Node71 -->
<g id="edge8" class="edge">
<title>Node66&#45;&gt;Node71</title>
<path fill="none" stroke="#191970" d="M437.643,-270.7216C430.7313,-245.6183 416.4132,-201.049 394.5,-168 385.0358,-153.7263 370.5263,-140.3868 360.1332,-131.7871"/>
<polygon fill="#191970" stroke="#191970" points="434.2851,-271.714 440.2255,-280.4868 441.0524,-269.9243 434.2851,-271.714"/>
</g>
<!-- Node72 -->
<g id="node9" class="node">
<title>Node72</title>
<g id="a_node9"><a xlink:href="consolelogger_8hpp.html" target="_top" xlink:title="consolelogger.hpp">
<polygon fill="#ffffff" stroke="#000000" points="570,-56.5 570,-75.5 665,-75.5 665,-56.5 570,-56.5"/>
<text text-anchor="middle" x="617.5" y="-63.5" font-family="Helvetica,sans-Serif" font-size="10.00" fill="#000000">consolelogger.hpp</text>
</a>
</g>
</g>
<!-- Node66&#45;&gt;Node72 -->
<g id="edge9" class="edge">
<title>Node66&#45;&gt;Node72</title>
<path fill="none" stroke="#191970" d="M478.768,-276.6379C497.5945,-268.7398 520.382,-257.6137 538.5,-244 565.1749,-223.9567 571.0147,-216.4174 588.5,-188 602.5133,-165.2253 604.1437,-157.9742 610.5,-132 615.3205,-112.3015 616.8214,-88.4931 617.2887,-75.5366"/>
<polygon fill="#191970" stroke="#191970" points="477.2785,-273.4651 469.3297,-280.4699 479.9118,-279.9509 477.2785,-273.4651"/>
</g>
<!-- Node73 -->
<g id="node10" class="node">
<title>Node73</title>
<g id="a_node10"><a xlink:href="alox_8hpp_source.html" target="_top" xlink:title="alox.hpp">
<polygon fill="#ffffff" stroke="#000000" points="407,-.5 407,-19.5 460,-19.5 460,-.5 407,-.5"/>
<text text-anchor="middle" x="433.5" y="-7.5" font-family="Helvetica,sans-Serif" font-size="10.00" fill="#000000">alox.hpp</text>
</a>
</g>
</g>
<!-- Node66&#45;&gt;Node73 -->
<g id="edge10" class="edge">
<title>Node66&#45;&gt;Node73</title>
<path fill="none" stroke="#191970" d="M479.0035,-281.8229C504.6738,-274.8027 538.8766,-262.7885 564.5,-244 642.3885,-186.888 735.0322,-130.4459 673.5,-56 646.6742,-23.5443 517.154,-13.7637 460.3244,-11.0074"/>
<polygon fill="#191970" stroke="#191970" points="478.0662,-278.4502 469.2719,-284.3587 479.8313,-285.224 478.0662,-278.4502"/>
</g>
<!-- Node74 -->
<g id="node11" class="node">
<title>Node74</title>
<g id="a_node11"><a xlink:href="memorylogger_8hpp.html" target="_top" xlink:title="memorylogger.hpp">
<polygon fill="#ffffff" stroke="#000000" points="199.5,-56.5 199.5,-75.5 295.5,-75.5 295.5,-56.5 199.5,-56.5"/>
<text text-anchor="middle" x="247.5" y="-63.5" font-family="Helvetica,sans-Serif" font-size="10.00" fill="#000000">memorylogger.hpp</text>
</a>
</g>
</g>
<!-- Node66&#45;&gt;Node74 -->
<g id="edge11" class="edge">
<title>Node66&#45;&gt;Node74</title>
<path fill="none" stroke="#191970" d="M419.9445,-274.3887C380.8101,-247.2362 304.0434,-193.6523 299.5,-188 270.6504,-152.109 255.14,-97.8348 249.7347,-75.8073"/>
<polygon fill="#191970" stroke="#191970" points="418.3619,-277.5504 428.5744,-280.3711 422.35,-271.7975 418.3619,-277.5504"/>
</g>
<!-- Node75 -->
<g id="node12" class="node">
<title>Node75</title>
<g id="a_node12"><a xlink:href="textfilelogger_8hpp.html" target="_top" xlink:title="textfilelogger.hpp">
<polygon fill="#ffffff" stroke="#000000" points="461.5,-56.5 461.5,-75.5 551.5,-75.5 551.5,-56.5 461.5,-56.5"/>
<text text-anchor="middle" x="506.5" y="-63.5" font-family="Helvetica,sans-Serif" font-size="10.00" fill="#000000">textfilelogger.hpp</text>
</a>
</g>
</g>
<!-- Node66&#45;&gt;Node75 -->
<g id="edge12" class="edge">
<title>Node66&#45;&gt;Node75</title>
<path fill="none" stroke="#191970" d="M470.4187,-275.1753C484.2546,-267.0506 500.6955,-256.1645 513.5,-244 558.0373,-201.6886 575.5804,-190.4455 594.5,-132 597.2376,-123.5432 599.1049,-119.6031 594.5,-112 583.5152,-93.863 562.7713,-82.5354 544.182,-75.6607"/>
<polygon fill="#191970" stroke="#191970" points="468.2965,-272.3557 461.3329,-280.3407 471.7561,-278.441 468.2965,-272.3557"/>
</g>
<!-- Node76 -->
<g id="node13" class="node">
<title>Node76</title>
<g id="a_node13"><a xlink:href="vstudiologger_8hpp.html" target="_top" xlink:title="vstudiologger.hpp">
<polygon fill="#ffffff" stroke="#000000" points="313.5,-56.5 313.5,-75.5 405.5,-75.5 405.5,-56.5 313.5,-56.5"/>
<text text-anchor="middle" x="359.5" y="-63.5" font-family="Helvetica,sans-Serif" font-size="10.00" fill="#000000">vstudiologger.hpp</text>
</a>
</g>
</g>
<!-- Node66&#45;&gt;Node76 -->
<g id="edge13" class="edge">
<title>Node66&#45;&gt;Node76</title>
<path fill="none" stroke="#191970" d="M443.3035,-269.8094C443.4794,-256.6715 443.0582,-239.2139 440.5,-224 431.8522,-172.5703 432.4981,-156.6196 405.5,-112 396.7299,-97.5057 382.4444,-84.204 372.1178,-75.6736"/>
<polygon fill="#191970" stroke="#191970" points="439.7977,-269.9894 443.0339,-280.0778 446.7953,-270.1732 439.7977,-269.9894"/>
</g>
<!-- Node77 -->
<g id="node14" class="node">
<title>Node77</title>
<g id="a_node14"><a xlink:href="ansilogger_8hpp.html" target="_top" xlink:title="ansilogger.hpp">
<polygon fill="#ffffff" stroke="#000000" points="135,-112.5 135,-131.5 214,-131.5 214,-112.5 135,-112.5"/>
<text text-anchor="middle" x="174.5" y="-119.5" font-family="Helvetica,sans-Serif" font-size="10.00" fill="#000000">ansilogger.hpp</text>
</a>
</g>
</g>
<!-- Node66&#45;&gt;Node77 -->
<g id="edge14" class="edge">
<title>Node66&#45;&gt;Node77</title>
<path fill="none" stroke="#191970" d="M405.8078,-288.2936C343.8489,-284.6166 222.3955,-273.7216 193.5,-244 163.167,-212.7999 168.9931,-154.3677 172.7055,-131.5104"/>
<polygon fill="#191970" stroke="#191970" points="405.7539,-291.796 415.9342,-288.8615 406.1459,-284.807 405.7539,-291.796"/>
</g>
<!-- Node78 -->
<g id="node15" class="node">
<title>Node78</title>
<g id="a_node15"><a xlink:href="windowsconsolelogger_8hpp.html" target="_top" xlink:title="windowsconsolelogger.hpp">
<polygon fill="#ffffff" stroke="#000000" points="453,-112.5 453,-131.5 586,-131.5 586,-112.5 453,-112.5"/>
<text text-anchor="middle" x="519.5" y="-119.5" font-family="Helvetica,sans-Serif" font-size="10.00" fill="#000000">windowsconsolelogger.hpp</text>
</a>
</g>
</g>
<!-- Node66&#45;&gt;Node78 -->
<g id="edge15" class="edge">
<title>Node66&#45;&gt;Node78</title>
<path fill="none" stroke="#191970" d="M466.3823,-274.2338C476.5447,-266.329 487.6172,-255.9012 494.5,-244 516.1482,-206.5678 519.2299,-153.1605 519.5422,-131.586"/>
<polygon fill="#191970" stroke="#191970" points="464.1644,-271.52 458.172,-280.2573 468.3052,-277.164 464.1644,-271.52"/>
</g>
<!-- Node79 -->
<g id="node16" class="node">
<title>Node79</title>
<g id="a_node16"><a xlink:href="scopedump_8hpp.html" target="_top" xlink:title="scopedump.hpp">
<polygon fill="#ffffff" stroke="#000000" points="737.5,-168.5 737.5,-187.5 823.5,-187.5 823.5,-168.5 737.5,-168.5"/>
<text text-anchor="middle" x="780.5" y="-175.5" font-family="Helvetica,sans-Serif" font-size="10.00" fill="#000000">scopedump.hpp</text>
</a>
</g>
</g>
<!-- Node66&#45;&gt;Node79 -->
<g id="edge16" class="edge">
<title>Node66&#45;&gt;Node79</title>
<path fill="none" stroke="#191970" d="M479.254,-286.0059C541.6079,-278.8246 665.1835,-262.7235 704.5,-244 733.2152,-230.3251 759.5138,-202.7357 772.3183,-187.9282"/>
<polygon fill="#191970" stroke="#191970" points="478.6164,-282.5557 469.0751,-287.1614 479.4061,-289.511 478.6164,-282.5557"/>
</g>
<!-- Node80 -->
<g id="node17" class="node">
<title>Node80</title>
<g id="a_node17"><a xlink:href="scopestore_8hpp.html" target="_top" xlink:title="scopestore.hpp">
<polygon fill="#ffffff" stroke="#000000" points="757,-224.5 757,-243.5 840,-243.5 840,-224.5 757,-224.5"/>
<text text-anchor="middle" x="798.5" y="-231.5" font-family="Helvetica,sans-Serif" font-size="10.00" fill="#000000">scopestore.hpp</text>
</a>
</g>
</g>
<!-- Node66&#45;&gt;Node80 -->
<g id="edge17" class="edge">
<title>Node66&#45;&gt;Node80</title>
<path fill="none" stroke="#191970" d="M479.2575,-284.6609C535.8645,-276.3715 647.762,-259.7196 742.5,-244 747.1765,-243.224 752.0681,-242.3875 756.9297,-241.5404"/>
<polygon fill="#191970" stroke="#191970" points="478.4098,-281.2475 469.0211,-286.1569 479.4222,-288.1739 478.4098,-281.2475"/>
</g>
<!-- Node81 -->
<g id="node18" class="node">
<title>Node81</title>
<g id="a_node18"><a xlink:href="scopeinfo_8hpp.html" target="_top" xlink:title="scopeinfo.hpp">
<polygon fill="#ffffff" stroke="#000000" points="858,-224.5 858,-243.5 935,-243.5 935,-224.5 858,-224.5"/>
<text text-anchor="middle" x="896.5" y="-231.5" font-family="Helvetica,sans-Serif" font-size="10.00" fill="#000000">scopeinfo.hpp</text>
</a>
</g>
</g>
<!-- Node66&#45;&gt;Node81 -->
<g id="edge18" class="edge">
<title>Node66&#45;&gt;Node81</title>
<path fill="none" stroke="#191970" d="M479.6044,-287.0213C551.3495,-280.9934 713.9737,-266.0231 849.5,-244 852.2173,-243.5584 855.0151,-243.0645 857.8274,-242.5391"/>
<polygon fill="#191970" stroke="#191970" points="478.9655,-283.5622 469.2898,-287.8787 479.5454,-290.5382 478.9655,-283.5622"/>
</g>
<!-- Node82 -->
<g id="node19" class="node">
<title>Node82</title>
<g id="a_node19"><a xlink:href="logtools_8hpp.html" target="_top" xlink:title="logtools.hpp">
<polygon fill="#ffffff" stroke="#000000" points="203,-224.5 203,-243.5 272,-243.5 272,-224.5 203,-224.5"/>
<text text-anchor="middle" x="237.5" y="-231.5" font-family="Helvetica,sans-Serif" font-size="10.00" fill="#000000">logtools.hpp</text>
</a>
</g>
</g>
<!-- Node66&#45;&gt;Node82 -->
<g id="edge19" class="edge">
<title>Node66&#45;&gt;Node82</title>
<path fill="none" stroke="#191970" d="M405.598,-279.9194C367.7207,-269.5725 309.2326,-253.5953 272.1848,-243.4749"/>
<polygon fill="#191970" stroke="#191970" points="405.1309,-283.42 415.6998,-282.679 406.9756,-276.6675 405.1309,-283.42"/>
</g>
<!-- Node67&#45;&gt;Node66 -->
<g id="edge20" class="edge">
<title>Node67&#45;&gt;Node66</title>
<path fill="none" stroke="#191970" d="M348.1837,-246.246C373.167,-256.4996 406.0041,-270.9316 425.738,-280.3733"/>
<polygon fill="#191970" stroke="#191970" points="349.2814,-242.9145 338.6988,-242.4051 346.6539,-249.4027 349.2814,-242.9145"/>
</g>
<!-- Node68&#45;&gt;Node65 -->
<g id="edge21" class="edge">
<title>Node68&#45;&gt;Node65</title>
<path fill="none" stroke="#191970" d="M73.7045,-246.5826C118.0496,-260.3136 191.5998,-282.6526 255.5,-300 313.7388,-315.8105 382.8161,-332.1939 418.4953,-340.4824"/>
<polygon fill="#191970" stroke="#191970" points="74.4798,-243.1586 63.8917,-243.5371 72.4048,-249.844 74.4798,-243.1586"/>
</g>
<!-- Node69&#45;&gt;Node65 -->
<g id="edge22" class="edge">
<title>Node69&#45;&gt;Node65</title>
<path fill="none" stroke="#191970" d="M153.1697,-246.9022C221.052,-270.1524 362.0825,-318.4564 418.4549,-337.7644"/>
<polygon fill="#191970" stroke="#191970" points="154.2985,-243.5892 143.7039,-243.66 152.0302,-250.2116 154.2985,-243.5892"/>
</g>
<!-- Node69&#45;&gt;Node70 -->
<g id="edge23" class="edge">
<title>Node69&#45;&gt;Node70</title>
<path fill="none" stroke="#191970" d="M156.1597,-224.1856C199.1827,-213.8007 266.5737,-197.5339 308.8276,-187.3347"/>
<polygon fill="#191970" stroke="#191970" points="155.2074,-220.8149 146.3078,-226.5636 156.8499,-227.6194 155.2074,-220.8149"/>
</g>
<!-- Node70&#45;&gt;Node71 -->
<g id="edge24" class="edge">
<title>Node70&#45;&gt;Node71</title>
<path fill="none" stroke="#191970" d="M347.5,-158.1575C347.5,-149.155 347.5,-138.9199 347.5,-131.6427"/>
<polygon fill="#191970" stroke="#191970" points="344.0001,-158.2455 347.5,-168.2455 351.0001,-158.2456 344.0001,-158.2455"/>
</g>
<!-- Node70&#45;&gt;Node77 -->
<g id="edge25" class="edge">
<title>Node70&#45;&gt;Node77</title>
<path fill="none" stroke="#191970" d="M307.9277,-165.1905C276.2329,-154.9309 232.4832,-140.7691 203.8517,-131.5011"/>
<polygon fill="#191970" stroke="#191970" points="307.1684,-168.6234 317.7602,-168.3733 309.3242,-161.9636 307.1684,-168.6234"/>
</g>
<!-- Node70&#45;&gt;Node78 -->
<g id="edge26" class="edge">
<title>Node70&#45;&gt;Node78</title>
<path fill="none" stroke="#191970" d="M386.8435,-165.1905C418.3551,-154.9309 461.8519,-140.7691 490.318,-131.5011"/>
<polygon fill="#191970" stroke="#191970" points="385.493,-161.9493 377.0679,-168.3733 387.6601,-168.6054 385.493,-161.9493"/>
</g>
<!-- Node71&#45;&gt;Node72 -->
<g id="edge27" class="edge">
<title>Node71&#45;&gt;Node72</title>
<path fill="none" stroke="#191970" d="M403.5636,-110.372C453.328,-100.0505 525.1519,-85.1537 571.5823,-75.5237"/>
<polygon fill="#191970" stroke="#191970" points="402.6887,-106.9789 393.6079,-112.4369 404.1103,-113.833 402.6887,-106.9789"/>
</g>
<!-- Node71&#45;&gt;Node74 -->
<g id="edge28" class="edge">
<title>Node71&#45;&gt;Node74</title>
<path fill="none" stroke="#191970" d="M321.2902,-107.3225C303.4283,-97.3198 280.2845,-84.3593 264.7191,-75.6427"/>
<polygon fill="#191970" stroke="#191970" points="319.6461,-110.4132 330.0813,-112.2455 323.0664,-104.3057 319.6461,-110.4132"/>
</g>
<!-- Node71&#45;&gt;Node75 -->
<g id="edge29" class="edge">
<title>Node71&#45;&gt;Node75</title>
<path fill="none" stroke="#191970" d="M384.629,-108.9231C413.695,-98.686 453.4369,-84.6889 479.5236,-75.5011"/>
<polygon fill="#191970" stroke="#191970" points="383.1025,-105.75 374.8331,-112.3733 385.4279,-112.3524 383.1025,-105.75"/>
</g>
<!-- Node71&#45;&gt;Node76 -->
<g id="edge30" class="edge">
<title>Node71&#45;&gt;Node76</title>
<path fill="none" stroke="#191970" d="M351.6885,-102.4538C353.6328,-93.3803 355.8572,-82.9998 357.4337,-75.6427"/>
<polygon fill="#191970" stroke="#191970" points="348.2633,-101.7341 349.5902,-112.2455 355.1079,-103.2009 348.2633,-101.7341"/>
</g>
<!-- Node72&#45;&gt;Node73 -->
<g id="edge31" class="edge">
<title>Node72&#45;&gt;Node73</title>
<path fill="none" stroke="#191970" d="M576.2843,-53.4561C540.8216,-42.6631 490.6985,-27.4082 460.2421,-18.1389"/>
<polygon fill="#191970" stroke="#191970" points="575.2834,-56.8099 585.8693,-56.3733 577.3216,-50.1132 575.2834,-56.8099"/>
</g>
<!-- Node76&#45;&gt;Node73 -->
<g id="edge32" class="edge">
<title>Node76&#45;&gt;Node73</title>
<path fill="none" stroke="#191970" d="M380.3657,-50.2097C393.3625,-40.3743 409.6622,-28.0394 420.7579,-19.6427"/>
<polygon fill="#191970" stroke="#191970" points="378.2518,-47.4201 372.3898,-56.2455 382.476,-53.002 378.2518,-47.4201"/>
</g>
<!-- Node77&#45;&gt;Node73 -->
<g id="edge33" class="edge">
<title>Node77&#45;&gt;Node73</title>
<path fill="none" stroke="#191970" d="M173.9263,-102.188C174.6198,-87.396 178.1059,-67.7805 190.5,-56 221.388,-26.6411 350.4745,-15.1548 406.9043,-11.4761"/>
<polygon fill="#191970" stroke="#191970" points="170.4251,-102.32 173.8391,-112.3497 177.4249,-102.3801 170.4251,-102.32"/>
</g>
<!-- Node78&#45;&gt;Node73 -->
<g id="edge34" class="edge">
<title>Node78&#45;&gt;Node73</title>
<path fill="none" stroke="#191970" d="M489.6787,-107.5613C476.5689,-99.85 462.0211,-89.2043 452.5,-76 440.0866,-58.7845 435.7499,-33.601 434.2595,-19.853"/>
<polygon fill="#191970" stroke="#191970" points="488.0033,-110.6343 498.4455,-112.4265 491.4,-104.5137 488.0033,-110.6343"/>
</g>
<!-- Node80&#45;&gt;Node65 -->
<g id="edge35" class="edge">
<title>Node80&#45;&gt;Node65</title>
<path fill="none" stroke="#191970" d="M758.166,-246.6893C683.722,-270.1099 526.8496,-319.4631 466.6894,-338.3898"/>
<polygon fill="#191970" stroke="#191970" points="759.616,-249.9024 768.1047,-243.5626 757.5152,-243.225 759.616,-249.9024"/>
</g>
<!-- Node80&#45;&gt;Node79 -->
<g id="edge36" class="edge">
<title>Node80&#45;&gt;Node79</title>
<path fill="none" stroke="#191970" d="M792.2173,-214.4538C789.3008,-205.3803 785.9642,-194.9998 783.5994,-187.6427"/>
<polygon fill="#191970" stroke="#191970" points="788.9724,-215.7963 795.3646,-224.2455 795.6366,-213.6542 788.9724,-215.7963"/>
</g>
<!-- Node81&#45;&gt;Node65 -->
<g id="edge37" class="edge">
<title>Node81&#45;&gt;Node65</title>
<path fill="none" stroke="#191970" d="M849.2102,-246.0885C796.7747,-259.4514 709.6607,-281.5302 634.5,-300 574.2517,-314.8052 503.2188,-331.67 466.7691,-340.281"/>
<polygon fill="#191970" stroke="#191970" points="850.396,-249.3982 859.2211,-243.5358 848.6663,-242.6153 850.396,-249.3982"/>
</g>
</g>
</svg>
