<?xml version="1.0" encoding="UTF-8" standalone="no"?>
<!DOCTYPE svg PUBLIC "-//W3C//DTD SVG 1.1//EN"
 "http://www.w3.org/Graphics/SVG/1.1/DTD/svg11.dtd">
<!-- Generated by graphviz version 2.40.1 (20161225.0304)
 -->
<!-- Title: stopwatch.hpp Pages: 1 -->
<svg width="174pt" height="196pt"
 viewBox="0.00 0.00 174.00 196.00" xmlns="http://www.w3.org/2000/svg" xmlns:xlink="http://www.w3.org/1999/xlink">
<g id="graph0" class="graph" transform="scale(1 1) rotate(0) translate(4 192)">
<title>stopwatch.hpp</title>
<polygon fill="#ffffff" stroke="transparent" points="-4,4 -4,-192 170,-192 170,4 -4,4"/>
<!-- Node0 -->
<g id="node1" class="node">
<title>Node0</title>
<polygon fill="#bfbfbf" stroke="#000000" points="58,-168.5 58,-187.5 138,-187.5 138,-168.5 58,-168.5"/>
<text text-anchor="middle" x="98" y="-175.5" font-family="Helvetica,sans-Serif" font-size="10.00" fill="#000000">stopwatch.hpp</text>
</g>
<!-- Node1 -->
<g id="node2" class="node">
<title>Node1</title>
<g id="a_node2"><a xlink:href="ticks_8hpp.html" target="_top" xlink:title="alib/time/ticks.hpp">
<polygon fill="#ffffff" stroke="#000000" points="50,-112.5 50,-131.5 146,-131.5 146,-112.5 50,-112.5"/>
<text text-anchor="middle" x="98" y="-119.5" font-family="Helvetica,sans-Serif" font-size="10.00" fill="#000000">alib/time/ticks.hpp</text>
</a>
</g>
</g>
<!-- Node0&#45;&gt;Node1 -->
<g id="edge1" class="edge">
<title>Node0&#45;&gt;Node1</title>
<path fill="none" stroke="#191970" d="M98,-168.2455C98,-160.9382 98,-150.6944 98,-141.7046"/>
<polygon fill="#191970" stroke="#191970" points="101.5001,-141.6426 98,-131.6427 94.5001,-141.6427 101.5001,-141.6426"/>
</g>
<!-- Node2 -->
<g id="node3" class="node">
<title>Node2</title>
<g id="a_node3"><a xlink:href="timepointbase_8hpp.html" target="_top" xlink:title="alib/time/timepointbase.hpp">
<polygon fill="#ffffff" stroke="#000000" points="30,-56.5 30,-75.5 166,-75.5 166,-56.5 30,-56.5"/>
<text text-anchor="middle" x="98" y="-63.5" font-family="Helvetica,sans-Serif" font-size="10.00" fill="#000000">alib/time/timepointbase.hpp</text>
</a>
</g>
</g>
<!-- Node1&#45;&gt;Node2 -->
<g id="edge2" class="edge">
<title>Node1&#45;&gt;Node2</title>
<path fill="none" stroke="#191970" d="M98,-112.2455C98,-104.9382 98,-94.6944 98,-85.7046"/>
<polygon fill="#191970" stroke="#191970" points="101.5001,-85.6426 98,-75.6427 94.5001,-85.6427 101.5001,-85.6426"/>
</g>
<!-- Node3 -->
<g id="node4" class="node">
<title>Node3</title>
<g id="a_node4"><a xlink:href="timelib_8hpp.html" target="_top" xlink:title="alib/time/timelib.hpp">
<polygon fill="#ffffff" stroke="#ff0000" points="0,-.5 0,-19.5 104,-19.5 104,-.5 0,-.5"/>
<text text-anchor="middle" x="52" y="-7.5" font-family="Helvetica,sans-Serif" font-size="10.00" fill="#000000">alib/time/timelib.hpp</text>
</a>
</g>
</g>
<!-- Node2&#45;&gt;Node3 -->
<g id="edge3" class="edge">
<title>Node2&#45;&gt;Node3</title>
<path fill="none" stroke="#191970" d="M89.9874,-56.2455C83.5232,-48.3761 74.2615,-37.101 66.5017,-27.6542"/>
<polygon fill="#191970" stroke="#191970" points="68.9727,-25.1484 59.9208,-19.6427 63.5636,-29.5916 68.9727,-25.1484"/>
</g>
<!-- Node9 -->
<g id="node5" class="node">
<title>Node9</title>
<polygon fill="#ffffff" stroke="#bfbfbf" points="122,-.5 122,-19.5 166,-19.5 166,-.5 122,-.5"/>
<text text-anchor="middle" x="144" y="-7.5" font-family="Helvetica,sans-Serif" font-size="10.00" fill="#000000">cmath</text>
</g>
<!-- Node2&#45;&gt;Node9 -->
<g id="edge4" class="edge">
<title>Node2&#45;&gt;Node9</title>
<path fill="none" stroke="#191970" d="M106.0126,-56.2455C112.4768,-48.3761 121.7385,-37.101 129.4983,-27.6542"/>
<polygon fill="#191970" stroke="#191970" points="132.4364,-29.5916 136.0792,-19.6427 127.0273,-25.1484 132.4364,-29.5916"/>
</g>
</g>
</svg>
