<?xml version="1.0" encoding="UTF-8" standalone="no"?>
<!DOCTYPE svg PUBLIC "-//W3C//DTD SVG 1.1//EN"
 "http://www.w3.org/Graphics/SVG/1.1/DTD/svg11.dtd">
<!-- Generated by graphviz version 2.40.1 (20161225.0304)
 -->
<!-- Title: stringmap.hpp Pages: 1 -->
<svg width="484pt" height="252pt"
 viewBox="0.00 0.00 483.50 252.00" xmlns="http://www.w3.org/2000/svg" xmlns:xlink="http://www.w3.org/1999/xlink">
<g id="graph0" class="graph" transform="scale(1 1) rotate(0) translate(4 248)">
<title>stringmap.hpp</title>
<polygon fill="#ffffff" stroke="transparent" points="-4,4 -4,-248 479.5,-248 479.5,4 -4,4"/>
<!-- Node1 -->
<g id="node1" class="node">
<title>Node1</title>
<polygon fill="#bfbfbf" stroke="#000000" points="262.5,-224.5 262.5,-243.5 340.5,-243.5 340.5,-224.5 262.5,-224.5"/>
<text text-anchor="middle" x="301.5" y="-231.5" font-family="Helvetica,sans-Serif" font-size="10.00" fill="#000000">stringmap.hpp</text>
</g>
<!-- Node2 -->
<g id="node2" class="node">
<title>Node2</title>
<g id="a_node2"><a xlink:href="scope_8hpp_source.html" target="_top" xlink:title="scope.hpp">
<polygon fill="#ffffff" stroke="#000000" points="226.5,-168.5 226.5,-187.5 288.5,-187.5 288.5,-168.5 226.5,-168.5"/>
<text text-anchor="middle" x="257.5" y="-175.5" font-family="Helvetica,sans-Serif" font-size="10.00" fill="#000000">scope.hpp</text>
</a>
</g>
</g>
<!-- Node1&#45;&gt;Node2 -->
<g id="edge1" class="edge">
<title>Node1&#45;&gt;Node2</title>
<path fill="none" stroke="#191970" d="M287.5231,-216.2112C280.0871,-206.7472 271.234,-195.4797 265.0764,-187.6427"/>
<polygon fill="#191970" stroke="#191970" points="284.9054,-218.5447 293.8358,-224.2455 290.4097,-214.22 284.9054,-218.5447"/>
</g>
<!-- Node12 -->
<g id="node3" class="node">
<title>Node12</title>
<g id="a_node3"><a xlink:href="compiler_8hpp_source.html" target="_top" xlink:title="compiler.hpp">
<polygon fill="#ffffff" stroke="#000000" points="126,-168.5 126,-187.5 197,-187.5 197,-168.5 126,-168.5"/>
<text text-anchor="middle" x="161.5" y="-175.5" font-family="Helvetica,sans-Serif" font-size="10.00" fill="#000000">compiler.hpp</text>
</a>
</g>
</g>
<!-- Node1&#45;&gt;Node12 -->
<g id="edge2" class="edge">
<title>Node1&#45;&gt;Node12</title>
<path fill="none" stroke="#191970" d="M268.1351,-220.6541C242.6048,-210.4419 208.0216,-196.6086 185.2528,-187.5011"/>
<polygon fill="#191970" stroke="#191970" points="266.8485,-223.909 277.4331,-224.3733 269.4483,-217.4096 266.8485,-223.909"/>
</g>
<!-- Node13 -->
<g id="node4" class="node">
<title>Node13</title>
<g id="a_node4"><a xlink:href="resources_8hpp.html" target="_top" xlink:title="resources.hpp">
<polygon fill="#ffffff" stroke="#000000" points="306.5,-168.5 306.5,-187.5 384.5,-187.5 384.5,-168.5 306.5,-168.5"/>
<text text-anchor="middle" x="345.5" y="-175.5" font-family="Helvetica,sans-Serif" font-size="10.00" fill="#000000">resources.hpp</text>
</a>
</g>
</g>
<!-- Node1&#45;&gt;Node13 -->
<g id="edge3" class="edge">
<title>Node1&#45;&gt;Node13</title>
<path fill="none" stroke="#191970" d="M315.4769,-216.2112C322.9129,-206.7472 331.766,-195.4797 337.9236,-187.6427"/>
<polygon fill="#191970" stroke="#191970" points="312.5903,-214.22 309.1642,-224.2455 318.0946,-218.5447 312.5903,-214.22"/>
</g>
<!-- Node47 -->
<g id="node5" class="node">
<title>Node47</title>
<g id="a_node5"><a xlink:href="stringtree_8hpp.html" target="_top" xlink:title="stringtree.hpp">
<polygon fill="#ffffff" stroke="#000000" points="399.5,-112.5 399.5,-131.5 475.5,-131.5 475.5,-112.5 399.5,-112.5"/>
<text text-anchor="middle" x="437.5" y="-119.5" font-family="Helvetica,sans-Serif" font-size="10.00" fill="#000000">stringtree.hpp</text>
</a>
</g>
</g>
<!-- Node1&#45;&gt;Node47 -->
<g id="edge4" class="edge">
<title>Node1&#45;&gt;Node47</title>
<path fill="none" stroke="#191970" d="M339.0517,-220.4916C356.8781,-212.8312 377.6862,-201.9602 393.5,-188 412.0831,-171.5951 426.2867,-145.6302 433.0822,-131.6594"/>
<polygon fill="#191970" stroke="#191970" points="337.4235,-217.3767 329.5056,-224.4163 340.0853,-223.8509 337.4235,-217.3767"/>
</g>
<!-- Node3 -->
<g id="node6" class="node">
<title>Node3</title>
<g id="a_node6"><a xlink:href="compilerplugin_8hpp_source.html" target="_top" xlink:title="compilerplugin.hpp">
<polygon fill="#ffffff" stroke="#000000" points="99.5,-112.5 99.5,-131.5 197.5,-131.5 197.5,-112.5 99.5,-112.5"/>
<text text-anchor="middle" x="148.5" y="-119.5" font-family="Helvetica,sans-Serif" font-size="10.00" fill="#000000">compilerplugin.hpp</text>
</a>
</g>
</g>
<!-- Node2&#45;&gt;Node3 -->
<g id="edge5" class="edge">
<title>Node2&#45;&gt;Node3</title>
<path fill="none" stroke="#191970" d="M229.4658,-163.5971C209.9254,-153.558 184.3908,-140.4393 167.2688,-131.6427"/>
<polygon fill="#191970" stroke="#191970" points="228.0194,-166.7889 238.5136,-168.2455 231.2183,-160.5625 228.0194,-166.7889"/>
</g>
<!-- Node11 -->
<g id="node7" class="node">
<title>Node11</title>
<g id="a_node7"><a xlink:href="scopestring_8hpp_source.html" target="_top" xlink:title="scopestring.hpp">
<polygon fill="#ffffff" stroke="#000000" points="215.5,-112.5 215.5,-131.5 301.5,-131.5 301.5,-112.5 215.5,-112.5"/>
<text text-anchor="middle" x="258.5" y="-119.5" font-family="Helvetica,sans-Serif" font-size="10.00" fill="#000000">scopestring.hpp</text>
</a>
</g>
</g>
<!-- Node2&#45;&gt;Node11 -->
<g id="edge6" class="edge">
<title>Node2&#45;&gt;Node11</title>
<path fill="none" stroke="#191970" d="M257.8543,-158.1575C258.0151,-149.155 258.1979,-138.9199 258.3278,-131.6427"/>
<polygon fill="#191970" stroke="#191970" points="254.3534,-158.1846 257.6742,-168.2455 261.3523,-158.3097 254.3534,-158.1846"/>
</g>
<!-- Node12&#45;&gt;Node3 -->
<g id="edge10" class="edge">
<title>Node12&#45;&gt;Node3</title>
<path fill="none" stroke="#191970" d="M156.9625,-158.4538C154.8561,-149.3803 152.4464,-138.9998 150.7385,-131.6427"/>
<polygon fill="#191970" stroke="#191970" points="153.5649,-159.2961 159.2356,-168.2455 160.3835,-157.7131 153.5649,-159.2961"/>
</g>
<!-- Node14 -->
<g id="node11" class="node">
<title>Node14</title>
<g id="a_node11"><a xlink:href="alib_8hpp.html" target="_top" xlink:title="alib.hpp">
<polygon fill="#ffffff" stroke="#000000" points="320.5,-112.5 320.5,-131.5 370.5,-131.5 370.5,-112.5 320.5,-112.5"/>
<text text-anchor="middle" x="345.5" y="-119.5" font-family="Helvetica,sans-Serif" font-size="10.00" fill="#000000">alib.hpp</text>
</a>
</g>
</g>
<!-- Node13&#45;&gt;Node14 -->
<g id="edge11" class="edge">
<title>Node13&#45;&gt;Node14</title>
<path fill="none" stroke="#191970" d="M345.5,-158.1575C345.5,-149.155 345.5,-138.9199 345.5,-131.6427"/>
<polygon fill="#191970" stroke="#191970" points="342.0001,-158.2455 345.5,-168.2455 349.0001,-158.2456 342.0001,-158.2455"/>
</g>
<!-- Node30 -->
<g id="node14" class="node">
<title>Node30</title>
<g id="a_node14"><a xlink:href="scopestore_8hpp.html" target="_top" xlink:title="scopestore.hpp">
<polygon fill="#ffffff" stroke="#ff0000" points="341,-.5 341,-19.5 424,-19.5 424,-.5 341,-.5"/>
<text text-anchor="middle" x="382.5" y="-7.5" font-family="Helvetica,sans-Serif" font-size="10.00" fill="#000000">scopestore.hpp</text>
</a>
</g>
</g>
<!-- Node47&#45;&gt;Node30 -->
<g id="edge15" class="edge">
<title>Node47&#45;&gt;Node30</title>
<path fill="none" stroke="#191970" d="M438.4632,-102.2775C438.3493,-88.6252 436.6025,-70.3939 429.5,-56 422.0226,-40.8465 407.4822,-27.8397 396.5446,-19.5623"/>
<polygon fill="#191970" stroke="#191970" points="434.9598,-102.4148 438.2565,-112.4837 441.9584,-102.5566 434.9598,-102.4148"/>
</g>
<!-- Node4 -->
<g id="node8" class="node">
<title>Node4</title>
<g id="a_node8"><a xlink:href="calculus_8hpp_source.html" target="_top" xlink:title="calculus.hpp">
<polygon fill="#ffffff" stroke="#ff0000" points="0,-56.5 0,-75.5 71,-75.5 71,-56.5 0,-56.5"/>
<text text-anchor="middle" x="35.5" y="-63.5" font-family="Helvetica,sans-Serif" font-size="10.00" fill="#000000">calculus.hpp</text>
</a>
</g>
</g>
<!-- Node3&#45;&gt;Node4 -->
<g id="edge7" class="edge">
<title>Node3&#45;&gt;Node4</title>
<path fill="none" stroke="#191970" d="M119.9208,-107.8368C99.4942,-97.7139 72.5638,-84.3679 54.6719,-75.5011"/>
<polygon fill="#191970" stroke="#191970" points="118.5604,-111.0688 129.0746,-112.3733 121.6687,-104.7968 118.5604,-111.0688"/>
</g>
<!-- Node9 -->
<g id="node9" class="node">
<title>Node9</title>
<g id="a_node9"><a xlink:href="autocast_8hpp_source.html" target="_top" xlink:title="autocast.hpp">
<polygon fill="#ffffff" stroke="#000000" points="89,-56.5 89,-75.5 162,-75.5 162,-56.5 89,-56.5"/>
<text text-anchor="middle" x="125.5" y="-63.5" font-family="Helvetica,sans-Serif" font-size="10.00" fill="#000000">autocast.hpp</text>
</a>
</g>
</g>
<!-- Node3&#45;&gt;Node9 -->
<g id="edge8" class="edge">
<title>Node3&#45;&gt;Node9</title>
<path fill="none" stroke="#191970" d="M140.5934,-102.7493C136.8383,-93.6064 132.5149,-83.0798 129.4604,-75.6427"/>
<polygon fill="#191970" stroke="#191970" points="137.4569,-104.3251 144.4937,-112.2455 143.932,-101.6656 137.4569,-104.3251"/>
</g>
<!-- Node10 -->
<g id="node10" class="node">
<title>Node10</title>
<g id="a_node10"><a xlink:href="elvisoperator_8hpp_source.html" target="_top" xlink:title="elvisoperator.hpp">
<polygon fill="#ffffff" stroke="#000000" points="180.5,-56.5 180.5,-75.5 270.5,-75.5 270.5,-56.5 180.5,-56.5"/>
<text text-anchor="middle" x="225.5" y="-63.5" font-family="Helvetica,sans-Serif" font-size="10.00" fill="#000000">elvisoperator.hpp</text>
</a>
</g>
</g>
<!-- Node3&#45;&gt;Node10 -->
<g id="edge9" class="edge">
<title>Node3&#45;&gt;Node10</title>
<path fill="none" stroke="#191970" d="M170.2116,-106.2097C183.7353,-96.3743 200.6958,-84.0394 212.2413,-75.6427"/>
<polygon fill="#191970" stroke="#191970" points="167.9411,-103.5332 161.9124,-112.2455 172.0584,-109.1944 167.9411,-103.5332"/>
</g>
<!-- Node15 -->
<g id="node12" class="node">
<title>Node15</title>
<g id="a_node12"><a xlink:href="alox_2alox_8hpp.html" target="_top" xlink:title="alox.hpp">
<polygon fill="#ffffff" stroke="#ff0000" points="289,-56.5 289,-75.5 342,-75.5 342,-56.5 289,-56.5"/>
<text text-anchor="middle" x="315.5" y="-63.5" font-family="Helvetica,sans-Serif" font-size="10.00" fill="#000000">alox.hpp</text>
</a>
</g>
</g>
<!-- Node14&#45;&gt;Node15 -->
<g id="edge12" class="edge">
<title>Node14&#45;&gt;Node15</title>
<path fill="none" stroke="#191970" d="M335.502,-103.3372C330.5324,-94.0605 324.7356,-83.2398 320.6657,-75.6427"/>
<polygon fill="#191970" stroke="#191970" points="332.4669,-105.0835 340.2744,-112.2455 338.6373,-101.7779 332.4669,-105.0835"/>
</g>
<!-- Node33 -->
<g id="node13" class="node">
<title>Node33</title>
<g id="a_node13"><a xlink:href="owner_8hpp.html" target="_top" xlink:title="owner.hpp">
<polygon fill="#ffffff" stroke="#ff0000" points="360,-56.5 360,-75.5 421,-75.5 421,-56.5 360,-56.5"/>
<text text-anchor="middle" x="390.5" y="-63.5" font-family="Helvetica,sans-Serif" font-size="10.00" fill="#000000">owner.hpp</text>
</a>
</g>
</g>
<!-- Node14&#45;&gt;Node33 -->
<g id="edge13" class="edge">
<title>Node14&#45;&gt;Node33</title>
<path fill="none" stroke="#191970" d="M359.7946,-104.2112C367.3996,-94.7472 376.4538,-83.4797 382.7514,-75.6427"/>
<polygon fill="#191970" stroke="#191970" points="356.8741,-102.2581 353.3384,-112.2455 362.3306,-106.6428 356.8741,-102.2581"/>
</g>
<!-- Node15&#45;&gt;Node30 -->
<g id="edge14" class="edge">
<title>Node15&#45;&gt;Node30</title>
<path fill="none" stroke="#191970" d="M335.0676,-49.645C346.7198,-39.9058 361.1084,-27.8795 370.9632,-19.6427"/>
<polygon fill="#191970" stroke="#191970" points="332.5988,-47.1469 327.1705,-56.2455 337.0879,-52.5179 332.5988,-47.1469"/>
</g>
</g>
</svg>
