<?xml version="1.0" encoding="UTF-8" standalone="no"?>
<!DOCTYPE svg PUBLIC "-//W3C//DTD SVG 1.1//EN"
 "http://www.w3.org/Graphics/SVG/1.1/DTD/svg11.dtd">
<!-- Generated by graphviz version 2.40.1 (20161225.0304)
 -->
<!-- Title: strings.hpp Pages: 1 -->
<svg width="605pt" height="140pt"
 viewBox="0.00 0.00 604.50 140.00" xmlns="http://www.w3.org/2000/svg" xmlns:xlink="http://www.w3.org/1999/xlink">
<g id="graph0" class="graph" transform="scale(1 1) rotate(0) translate(4 136)">
<title>strings.hpp</title>
<polygon fill="#ffffff" stroke="transparent" points="-4,4 -4,-136 600.5,-136 600.5,4 -4,4"/>
<!-- Node0 -->
<g id="node1" class="node">
<title>Node0</title>
<polygon fill="#bfbfbf" stroke="#000000" points="226.5,-112.5 226.5,-131.5 291.5,-131.5 291.5,-112.5 226.5,-112.5"/>
<text text-anchor="middle" x="259" y="-119.5" font-family="Helvetica,sans-Serif" font-size="10.00" fill="#000000">strings.hpp</text>
</g>
<!-- Node1 -->
<g id="node2" class="node">
<title>Node1</title>
<polygon fill="#ffffff" stroke="#bfbfbf" points="0,-56.5 0,-75.5 52,-75.5 52,-56.5 0,-56.5"/>
<text text-anchor="middle" x="26" y="-63.5" font-family="Helvetica,sans-Serif" font-size="10.00" fill="#000000">memory</text>
</g>
<!-- Node0&#45;&gt;Node1 -->
<g id="edge1" class="edge">
<title>Node0&#45;&gt;Node1</title>
<path fill="none" stroke="#191970" d="M226.48,-114.8415C187.34,-106.1255 119.6776,-90.7379 62,-76 61.9018,-75.9749 61.8035,-75.9497 61.705,-75.9245"/>
<polygon fill="#191970" stroke="#191970" points="62.8745,-72.6134 52.3123,-73.4448 61.0876,-79.3815 62.8745,-72.6134"/>
</g>
<!-- Node2 -->
<g id="node3" class="node">
<title>Node2</title>
<g id="a_node3"><a xlink:href="cstring_8hpp.html" target="_top" xlink:title="alib/strings/cstring.hpp">
<polygon fill="#ffffff" stroke="#000000" points="70.5,-56.5 70.5,-75.5 185.5,-75.5 185.5,-56.5 70.5,-56.5"/>
<text text-anchor="middle" x="128" y="-63.5" font-family="Helvetica,sans-Serif" font-size="10.00" fill="#000000">alib/strings/cstring.hpp</text>
</a>
</g>
</g>
<!-- Node0&#45;&gt;Node2 -->
<g id="edge2" class="edge">
<title>Node0&#45;&gt;Node2</title>
<path fill="none" stroke="#191970" d="M236.4803,-112.3733C215.2628,-103.3032 183.2724,-89.6279 159.5231,-79.4755"/>
<polygon fill="#191970" stroke="#191970" points="160.7967,-76.2136 150.2258,-75.5011 158.0452,-82.6502 160.7967,-76.2136"/>
</g>
<!-- Node6 -->
<g id="node4" class="node">
<title>Node6</title>
<g id="a_node4"><a xlink:href="string_8hpp.html" target="_top" xlink:title="alib/strings/string.hpp">
<polygon fill="#ffffff" stroke="#000000" points="204,-56.5 204,-75.5 314,-75.5 314,-56.5 204,-56.5"/>
<text text-anchor="middle" x="259" y="-63.5" font-family="Helvetica,sans-Serif" font-size="10.00" fill="#000000">alib/strings/string.hpp</text>
</a>
</g>
</g>
<!-- Node0&#45;&gt;Node6 -->
<g id="edge3" class="edge">
<title>Node0&#45;&gt;Node6</title>
<path fill="none" stroke="#191970" d="M259,-112.2455C259,-104.9382 259,-94.6944 259,-85.7046"/>
<polygon fill="#191970" stroke="#191970" points="262.5001,-85.6426 259,-75.6427 255.5001,-85.6427 262.5001,-85.6426"/>
</g>
<!-- Node7 -->
<g id="node5" class="node">
<title>Node7</title>
<g id="a_node5"><a xlink:href="tstring_8hpp.html" target="_top" xlink:title="alib/strings/tstring.hpp">
<polygon fill="#ffffff" stroke="#000000" points="332.5,-56.5 332.5,-75.5 445.5,-75.5 445.5,-56.5 332.5,-56.5"/>
<text text-anchor="middle" x="389" y="-63.5" font-family="Helvetica,sans-Serif" font-size="10.00" fill="#000000">alib/strings/tstring.hpp</text>
</a>
</g>
</g>
<!-- Node0&#45;&gt;Node7 -->
<g id="edge4" class="edge">
<title>Node0&#45;&gt;Node7</title>
<path fill="none" stroke="#191970" d="M281.3478,-112.3733C302.4033,-103.3032 334.1495,-89.6279 357.7175,-79.4755"/>
<polygon fill="#191970" stroke="#191970" points="359.1444,-82.6719 366.9438,-75.5011 356.375,-76.243 359.1444,-82.6719"/>
</g>
<!-- Node8 -->
<g id="node6" class="node">
<title>Node8</title>
<g id="a_node6"><a xlink:href="stringliteral_8hpp.html" target="_top" xlink:title="alib/strings/stringliteral.hpp">
<polygon fill="#ffffff" stroke="#000000" points="463.5,-56.5 463.5,-75.5 596.5,-75.5 596.5,-56.5 463.5,-56.5"/>
<text text-anchor="middle" x="530" y="-63.5" font-family="Helvetica,sans-Serif" font-size="10.00" fill="#000000">alib/strings/stringliteral.hpp</text>
</a>
</g>
</g>
<!-- Node0&#45;&gt;Node8 -->
<g id="edge5" class="edge">
<title>Node0&#45;&gt;Node8</title>
<path fill="none" stroke="#191970" d="M291.6889,-115.2451C336.7485,-105.9339 418.6056,-89.0188 473.6421,-77.6459"/>
<polygon fill="#191970" stroke="#191970" points="474.5068,-81.0413 483.5915,-75.5899 473.0901,-74.1861 474.5068,-81.0413"/>
</g>
<!-- Node3 -->
<g id="node7" class="node">
<title>Node3</title>
<polygon fill="#ffffff" stroke="#bfbfbf" points="47,-.5 47,-19.5 87,-19.5 87,-.5 47,-.5"/>
<text text-anchor="middle" x="67" y="-7.5" font-family="Helvetica,sans-Serif" font-size="10.00" fill="#000000">limits</text>
</g>
<!-- Node2&#45;&gt;Node3 -->
<g id="edge6" class="edge">
<title>Node2&#45;&gt;Node3</title>
<path fill="none" stroke="#191970" d="M117.3746,-56.2455C108.4527,-48.0549 95.512,-36.1749 84.9808,-26.5069"/>
<polygon fill="#191970" stroke="#191970" points="87.2371,-23.8271 77.5036,-19.6427 82.5032,-28.9837 87.2371,-23.8271"/>
</g>
<!-- Node4 -->
<g id="node8" class="node">
<title>Node4</title>
<polygon fill="#ffffff" stroke="#bfbfbf" points="105,-.5 105,-19.5 151,-19.5 151,-.5 105,-.5"/>
<text text-anchor="middle" x="128" y="-7.5" font-family="Helvetica,sans-Serif" font-size="10.00" fill="#000000">cstring</text>
</g>
<!-- Node2&#45;&gt;Node4 -->
<g id="edge7" class="edge">
<title>Node2&#45;&gt;Node4</title>
<path fill="none" stroke="#191970" d="M128,-56.2455C128,-48.9382 128,-38.6944 128,-29.7046"/>
<polygon fill="#191970" stroke="#191970" points="131.5001,-29.6426 128,-19.6427 124.5001,-29.6427 131.5001,-29.6426"/>
</g>
<!-- Node5 -->
<g id="node9" class="node">
<title>Node5</title>
<polygon fill="#ffffff" stroke="#bfbfbf" points="169.5,-.5 169.5,-19.5 222.5,-19.5 222.5,-.5 169.5,-.5"/>
<text text-anchor="middle" x="196" y="-7.5" font-family="Helvetica,sans-Serif" font-size="10.00" fill="#000000">cwctype</text>
</g>
<!-- Node2&#45;&gt;Node5 -->
<g id="edge8" class="edge">
<title>Node2&#45;&gt;Node5</title>
<path fill="none" stroke="#191970" d="M139.8447,-56.2455C149.888,-47.9746 164.4995,-35.9416 176.3004,-26.2232"/>
<polygon fill="#191970" stroke="#191970" points="178.7967,-28.7015 184.291,-19.6427 174.3467,-23.298 178.7967,-28.7015"/>
</g>
</g>
</svg>
