<?xml version="1.0" encoding="UTF-8" standalone="no"?>
<!DOCTYPE svg PUBLIC "-//W3C//DTD SVG 1.1//EN"
 "http://www.w3.org/Graphics/SVG/1.1/DTD/svg11.dtd">
<!-- Generated by graphviz version 2.40.1 (20161225.0304)
 -->
<!-- Title: stringio.hpp Pages: 1 -->
<svg width="309pt" height="140pt"
 viewBox="0.00 0.00 308.50 140.00" xmlns="http://www.w3.org/2000/svg" xmlns:xlink="http://www.w3.org/1999/xlink">
<g id="graph0" class="graph" transform="scale(1 1) rotate(0) translate(4 136)">
<title>stringio.hpp</title>
<polygon fill="#ffffff" stroke="transparent" points="-4,4 -4,-136 304.5,-136 304.5,4 -4,4"/>
<!-- Node3 -->
<g id="node1" class="node">
<title>Node3</title>
<polygon fill="#bfbfbf" stroke="#000000" points="111,-112.5 111,-131.5 178,-131.5 178,-112.5 111,-112.5"/>
<text text-anchor="middle" x="144.5" y="-119.5" font-family="Helvetica,sans-Serif" font-size="10.00" fill="#000000">stringio.hpp</text>
</g>
<!-- Node4 -->
<g id="node2" class="node">
<title>Node4</title>
<g id="a_node2"><a xlink:href="ansilogger_8hpp.html" target="_top" xlink:title="ansilogger.hpp">
<polygon fill="#ffffff" stroke="#000000" points="0,-56.5 0,-75.5 79,-75.5 79,-56.5 0,-56.5"/>
<text text-anchor="middle" x="39.5" y="-63.5" font-family="Helvetica,sans-Serif" font-size="10.00" fill="#000000">ansilogger.hpp</text>
</a>
</g>
</g>
<!-- Node3&#45;&gt;Node4 -->
<g id="edge1" class="edge">
<title>Node3&#45;&gt;Node4</title>
<path fill="none" stroke="#191970" d="M117.2375,-107.46C98.4478,-97.4388 73.9987,-84.3993 57.58,-75.6427"/>
<polygon fill="#191970" stroke="#191970" points="115.7398,-110.6278 126.2104,-112.2455 119.0339,-104.4514 115.7398,-110.6278"/>
</g>
<!-- Node6 -->
<g id="node3" class="node">
<title>Node6</title>
<g id="a_node3"><a xlink:href="consolelogger_8hpp.html" target="_top" xlink:title="consolelogger.hpp">
<polygon fill="#ffffff" stroke="#000000" points="97,-56.5 97,-75.5 192,-75.5 192,-56.5 97,-56.5"/>
<text text-anchor="middle" x="144.5" y="-63.5" font-family="Helvetica,sans-Serif" font-size="10.00" fill="#000000">consolelogger.hpp</text>
</a>
</g>
</g>
<!-- Node3&#45;&gt;Node6 -->
<g id="edge2" class="edge">
<title>Node3&#45;&gt;Node6</title>
<path fill="none" stroke="#191970" d="M144.5,-102.1575C144.5,-93.155 144.5,-82.9199 144.5,-75.6427"/>
<polygon fill="#191970" stroke="#191970" points="141.0001,-102.2455 144.5,-112.2455 148.0001,-102.2456 141.0001,-102.2455"/>
</g>
<!-- Node7 -->
<g id="node4" class="node">
<title>Node7</title>
<g id="a_node4"><a xlink:href="textfilelogger_8hpp.html" target="_top" xlink:title="textfilelogger.hpp">
<polygon fill="#ffffff" stroke="#000000" points="210.5,-56.5 210.5,-75.5 300.5,-75.5 300.5,-56.5 210.5,-56.5"/>
<text text-anchor="middle" x="255.5" y="-63.5" font-family="Helvetica,sans-Serif" font-size="10.00" fill="#000000">textfilelogger.hpp</text>
</a>
</g>
</g>
<!-- Node3&#45;&gt;Node7 -->
<g id="edge3" class="edge">
<title>Node3&#45;&gt;Node7</title>
<path fill="none" stroke="#191970" d="M172.5734,-107.8368C192.6385,-97.7139 219.0922,-84.3679 236.6674,-75.5011"/>
<polygon fill="#191970" stroke="#191970" points="170.9332,-104.7441 163.5816,-112.3733 174.0862,-110.9938 170.9332,-104.7441"/>
</g>
<!-- Node5 -->
<g id="node5" class="node">
<title>Node5</title>
<g id="a_node5"><a xlink:href="alox_8hpp_source.html" target="_top" xlink:title="alox.hpp">
<polygon fill="#ffffff" stroke="#000000" points="65,-.5 65,-19.5 118,-19.5 118,-.5 65,-.5"/>
<text text-anchor="middle" x="91.5" y="-7.5" font-family="Helvetica,sans-Serif" font-size="10.00" fill="#000000">alox.hpp</text>
</a>
</g>
</g>
<!-- Node4&#45;&gt;Node5 -->
<g id="edge4" class="edge">
<title>Node4&#45;&gt;Node5</title>
<path fill="none" stroke="#191970" d="M55.4822,-48.7884C64.3778,-39.2085 75.1204,-27.6396 82.5461,-19.6427"/>
<polygon fill="#191970" stroke="#191970" points="52.7975,-46.536 48.5577,-56.2455 57.927,-51.2992 52.7975,-46.536"/>
</g>
<!-- Node6&#45;&gt;Node5 -->
<g id="edge5" class="edge">
<title>Node6&#45;&gt;Node5</title>
<path fill="none" stroke="#191970" d="M128.2104,-48.7884C119.1438,-39.2085 108.1946,-27.6396 100.6261,-19.6427"/>
<polygon fill="#191970" stroke="#191970" points="125.8522,-51.3884 135.2681,-56.2455 130.9363,-46.5767 125.8522,-51.3884"/>
</g>
</g>
</svg>
