<?xml version="1.0" encoding="UTF-8" standalone="no"?>
<!DOCTYPE svg PUBLIC "-//W3C//DTD SVG 1.1//EN"
 "http://www.w3.org/Graphics/SVG/1.1/DTD/svg11.dtd">
<!-- Generated by graphviz version 2.40.1 (20161225.0304)
 -->
<!-- Title: stringtree.hpp Pages: 1 -->
<svg width="431pt" height="196pt"
 viewBox="0.00 0.00 431.00 196.00" xmlns="http://www.w3.org/2000/svg" xmlns:xlink="http://www.w3.org/1999/xlink">
<g id="graph0" class="graph" transform="scale(1 1) rotate(0) translate(4 192)">
<title>stringtree.hpp</title>
<polygon fill="#ffffff" stroke="transparent" points="-4,4 -4,-192 427,-192 427,4 -4,4"/>
<!-- Node0 -->
<g id="node1" class="node">
<title>Node0</title>
<polygon fill="#bfbfbf" stroke="#000000" points="238.5,-168.5 238.5,-187.5 314.5,-187.5 314.5,-168.5 238.5,-168.5"/>
<text text-anchor="middle" x="276.5" y="-175.5" font-family="Helvetica,sans-Serif" font-size="10.00" fill="#000000">stringtree.hpp</text>
</g>
<!-- Node1 -->
<g id="node2" class="node">
<title>Node1</title>
<g id="a_node2"><a xlink:href="substring_8hpp.html" target="_top" xlink:title="alib/strings/substring.hpp">
<polygon fill="#ffffff" stroke="#000000" points="2,-112.5 2,-131.5 127,-131.5 127,-112.5 2,-112.5"/>
<text text-anchor="middle" x="64.5" y="-119.5" font-family="Helvetica,sans-Serif" font-size="10.00" fill="#000000">alib/strings/substring.hpp</text>
</a>
</g>
</g>
<!-- Node0&#45;&gt;Node1 -->
<g id="edge1" class="edge">
<title>Node0&#45;&gt;Node1</title>
<path fill="none" stroke="#191970" d="M240.0559,-168.3733C204.1931,-158.9001 149.3122,-144.4032 110.4718,-134.1435"/>
<polygon fill="#191970" stroke="#191970" points="111.0308,-130.6712 100.4685,-131.5011 109.243,-137.439 111.0308,-130.6712"/>
</g>
<!-- Node4 -->
<g id="node3" class="node">
<title>Node4</title>
<g id="a_node3"><a xlink:href="stringmap_8hpp.html" target="_top" xlink:title="alib/strings/util/stringmap.hpp">
<polygon fill="#ffffff" stroke="#000000" points="145.5,-112.5 145.5,-131.5 289.5,-131.5 289.5,-112.5 145.5,-112.5"/>
<text text-anchor="middle" x="217.5" y="-119.5" font-family="Helvetica,sans-Serif" font-size="10.00" fill="#000000">alib/strings/util/stringmap.hpp</text>
</a>
</g>
</g>
<!-- Node0&#45;&gt;Node4 -->
<g id="edge2" class="edge">
<title>Node0&#45;&gt;Node4</title>
<path fill="none" stroke="#191970" d="M266.223,-168.2455C257.6782,-160.1352 245.3222,-148.4075 235.1915,-138.7919"/>
<polygon fill="#191970" stroke="#191970" points="237.3218,-135.9884 227.6592,-131.6427 232.5028,-141.0655 237.3218,-135.9884"/>
</g>
<!-- Node5 -->
<g id="node4" class="node">
<title>Node5</title>
<polygon fill="#ffffff" stroke="#bfbfbf" points="307.5,-112.5 307.5,-131.5 363.5,-131.5 363.5,-112.5 307.5,-112.5"/>
<text text-anchor="middle" x="335.5" y="-119.5" font-family="Helvetica,sans-Serif" font-size="10.00" fill="#000000">algorithm</text>
</g>
<!-- Node0&#45;&gt;Node5 -->
<g id="edge3" class="edge">
<title>Node0&#45;&gt;Node5</title>
<path fill="none" stroke="#191970" d="M286.777,-168.2455C295.3218,-160.1352 307.6778,-148.4075 317.8085,-138.7919"/>
<polygon fill="#191970" stroke="#191970" points="320.4972,-141.0655 325.3408,-131.6427 315.6782,-135.9884 320.4972,-141.0655"/>
</g>
<!-- Node6 -->
<g id="node5" class="node">
<title>Node6</title>
<polygon fill="#ffffff" stroke="#bfbfbf" points="382,-112.5 382,-131.5 423,-131.5 423,-112.5 382,-112.5"/>
<text text-anchor="middle" x="402.5" y="-119.5" font-family="Helvetica,sans-Serif" font-size="10.00" fill="#000000">stack</text>
</g>
<!-- Node0&#45;&gt;Node6 -->
<g id="edge4" class="edge">
<title>Node0&#45;&gt;Node6</title>
<path fill="none" stroke="#191970" d="M298.1602,-168.3733C318.7234,-159.234 349.807,-145.4191 372.701,-135.244"/>
<polygon fill="#191970" stroke="#191970" points="374.2402,-138.3901 381.9568,-131.1303 371.3972,-131.9934 374.2402,-138.3901"/>
</g>
<!-- Node2 -->
<g id="node6" class="node">
<title>Node2</title>
<g id="a_node6"><a xlink:href="enumbitwise_8hpp.html" target="_top" xlink:title="alib/lang/enumbitwise.hpp">
<polygon fill="#ffffff" stroke="#000000" points="0,-56.5 0,-75.5 129,-75.5 129,-56.5 0,-56.5"/>
<text text-anchor="middle" x="64.5" y="-63.5" font-family="Helvetica,sans-Serif" font-size="10.00" fill="#000000">alib/lang/enumbitwise.hpp</text>
</a>
</g>
</g>
<!-- Node1&#45;&gt;Node2 -->
<g id="edge5" class="edge">
<title>Node1&#45;&gt;Node2</title>
<path fill="none" stroke="#191970" d="M64.5,-112.2455C64.5,-104.9382 64.5,-94.6944 64.5,-85.7046"/>
<polygon fill="#191970" stroke="#191970" points="68.0001,-85.6426 64.5,-75.6427 61.0001,-85.6427 68.0001,-85.6426"/>
</g>
<!-- Node3 -->
<g id="node7" class="node">
<title>Node3</title>
<g id="a_node7"><a xlink:href="enumarithmetical_8hpp.html" target="_top" xlink:title="enumarithmetical.hpp">
<polygon fill="#ffffff" stroke="#000000" points="9.5,-.5 9.5,-19.5 119.5,-19.5 119.5,-.5 9.5,-.5"/>
<text text-anchor="middle" x="64.5" y="-7.5" font-family="Helvetica,sans-Serif" font-size="10.00" fill="#000000">enumarithmetical.hpp</text>
</a>
</g>
</g>
<!-- Node2&#45;&gt;Node3 -->
<g id="edge6" class="edge">
<title>Node2&#45;&gt;Node3</title>
<path fill="none" stroke="#191970" d="M64.5,-56.2455C64.5,-48.9382 64.5,-38.6944 64.5,-29.7046"/>
<polygon fill="#191970" stroke="#191970" points="68.0001,-29.6426 64.5,-19.6427 61.0001,-29.6427 68.0001,-29.6426"/>
</g>
</g>
</svg>
