<?xml version="1.0" encoding="UTF-8" standalone="no"?>
<!DOCTYPE svg PUBLIC "-//W3C//DTD SVG 1.1//EN"
 "http://www.w3.org/Graphics/SVG/1.1/DTD/svg11.dtd">
<!-- Generated by graphviz version 2.40.1 (20161225.0304)
 -->
<!-- Title: CompilerPlugin::CIBinaryOp Pages: 1 -->
<svg width="946pt" height="228pt"
 viewBox="0.00 0.00 946.00 228.00" xmlns="http://www.w3.org/2000/svg" xmlns:xlink="http://www.w3.org/1999/xlink">
<g id="graph0" class="graph" transform="scale(1 1) rotate(0) translate(4 224)">
<title>CompilerPlugin::CIBinaryOp</title>
<polygon fill="#ffffff" stroke="transparent" points="-4,4 -4,-224 942,-224 942,4 -4,4"/>
<!-- Node2 -->
<g id="node1" class="node">
<title>Node2</title>
<polygon fill="#bfbfbf" stroke="#000000" points="798,-171.5 798,-190.5 938,-190.5 938,-171.5 798,-171.5"/>
<text text-anchor="middle" x="868" y="-178.5" font-family="Helvetica,sans-Serif" font-size="10.00" fill="#000000">CompilerPlugin::CIBinaryOp</text>
</g>
<!-- Node4 -->
<g id="node2" class="node">
<title>Node4</title>
<polygon fill="#ffffff" stroke="#bfbfbf" points="339,-196.5 339,-215.5 412,-215.5 412,-196.5 339,-196.5"/>
<text text-anchor="middle" x="375.5" y="-203.5" font-family="Helvetica,sans-Serif" font-size="10.00" fill="#000000">vector&lt;Box&gt;</text>
</g>
<!-- Node3 -->
<g id="node7" class="node">
<title>Node3</title>
<g id="a_node7"><a xlink:href="structaworx_1_1lib_1_1expressions_1_1CompilerPlugin_1_1CompilationInfo.html" target="_top" xlink:title="CompilationInfo">
<polygon fill="#ffffff" stroke="#000000" points="627,-152.5 627,-171.5 712,-171.5 712,-152.5 627,-152.5"/>
<text text-anchor="middle" x="669.5" y="-159.5" font-family="Helvetica,sans-Serif" font-size="10.00" fill="#000000">CompilationInfo</text>
</a>
</g>
</g>
<!-- Node4&#45;&gt;Node3 -->
<g id="edge2" class="edge">
<title>Node4&#45;&gt;Node3</title>
<path fill="none" stroke="#9a32cd" stroke-dasharray="5,2" d="M422.3168,-200.6558C467.8251,-195.2462 538.8337,-186.236 600,-176 608.7405,-174.5373 618.062,-172.79 626.9463,-171.0338"/>
<polygon fill="#9a32cd" stroke="#9a32cd" points="421.6843,-197.2061 412.1631,-201.8533 422.5042,-204.1579 421.6843,-197.2061"/>
<text text-anchor="middle" x="470" y="-212" font-family="Helvetica,sans-Serif" font-size="10.00" fill="#000000"> ArgsEnd</text>
<text text-anchor="middle" x="470" y="-201" font-family="Helvetica,sans-Serif" font-size="10.00" fill="#000000">ArgsBegin</text>
</g>
<!-- Node12 -->
<g id="node3" class="node">
<title>Node12</title>
<polygon fill="#ffffff" stroke="#bfbfbf" points="113,-.5 113,-19.5 304,-19.5 304,-.5 113,-.5"/>
<text text-anchor="middle" x="208.5" y="-7.5" font-family="Helvetica,sans-Serif" font-size="10.00" fill="#000000">vector&lt;expressions::ScopeResource *&gt;</text>
</g>
<!-- Node8 -->
<g id="node9" class="node">
<title>Node8</title>
<g id="a_node9"><a xlink:href="structaworx_1_1lib_1_1expressions_1_1Scope.html" target="_top" xlink:title="Scope">
<polygon fill="#ffffff" stroke="#000000" points="448,-76.5 448,-95.5 492,-95.5 492,-76.5 448,-76.5"/>
<text text-anchor="middle" x="470" y="-83.5" font-family="Helvetica,sans-Serif" font-size="10.00" fill="#000000">Scope</text>
</a>
</g>
</g>
<!-- Node12&#45;&gt;Node8 -->
<g id="edge9" class="edge">
<title>Node12&#45;&gt;Node8</title>
<path fill="none" stroke="#9a32cd" stroke-dasharray="5,2" d="M314.2308,-9.4218C352.2278,-12.9834 394.248,-21.5076 429,-40 444.866,-48.4427 457.5651,-65.6149 464.4209,-76.4232"/>
<polygon fill="#9a32cd" stroke="#9a32cd" points="314.4048,-5.9243 304.1488,-8.5823 313.8239,-12.9001 314.4048,-5.9243"/>
<text text-anchor="middle" x="375.5" y="-43" font-family="Helvetica,sans-Serif" font-size="10.00" fill="#000000"> Resources</text>
</g>
<!-- Node14 -->
<g id="node4" class="node">
<title>Node14</title>
<polygon fill="#ffffff" stroke="#bfbfbf" points="123.5,-114.5 123.5,-133.5 293.5,-133.5 293.5,-114.5 123.5,-114.5"/>
<text text-anchor="middle" x="208.5" y="-121.5" font-family="Helvetica,sans-Serif" font-size="10.00" fill="#000000">vector&lt;expressions::Expression *&gt;</text>
</g>
<!-- Node14&#45;&gt;Node8 -->
<g id="edge10" class="edge">
<title>Node14&#45;&gt;Node8</title>
<path fill="none" stroke="#9a32cd" stroke-dasharray="5,2" d="M303.9231,-119.2076C343.0463,-115.9116 388.5534,-110.3565 429,-101 435.2029,-99.5651 441.7495,-97.4568 447.7464,-95.2716"/>
<polygon fill="#9a32cd" stroke="#9a32cd" points="303.283,-115.7477 293.5958,-120.0382 303.8443,-122.7251 303.283,-115.7477"/>
<text text-anchor="middle" x="375.5" y="-121" font-family="Helvetica,sans-Serif" font-size="10.00" fill="#000000"> nestedExpressionStack</text>
</g>
<!-- Node57 -->
<g id="node5" class="node">
<title>Node57</title>
<polygon fill="#ffffff" stroke="#bfbfbf" points="172,-76.5 172,-95.5 245,-95.5 245,-76.5 172,-76.5"/>
<text text-anchor="middle" x="208.5" y="-83.5" font-family="Helvetica,sans-Serif" font-size="10.00" fill="#000000">vector&lt;Box&gt;</text>
</g>
<!-- Node57&#45;&gt;Node8 -->
<g id="edge12" class="edge">
<title>Node57&#45;&gt;Node8</title>
<path fill="none" stroke="#9a32cd" stroke-dasharray="5,2" d="M255.289,-86C312.0555,-86 405.4146,-86 447.8139,-86"/>
<polygon fill="#9a32cd" stroke="#9a32cd" points="255.1358,-82.5001 245.1358,-86 255.1358,-89.5001 255.1358,-82.5001"/>
<text text-anchor="middle" x="375.5" y="-89" font-family="Helvetica,sans-Serif" font-size="10.00" fill="#000000"> Stack</text>
</g>
<!-- Node46 -->
<g id="node6" class="node">
<title>Node46</title>
<g id="a_node6"><a xlink:href="classaworx_1_1lib_1_1strings_1_1StringBase.html" target="_top" xlink:title="StringBase\&lt;TChar\&gt;">
<polygon fill="#ffffff" stroke="#ff0000" points="618,-190.5 618,-209.5 721,-209.5 721,-190.5 618,-190.5"/>
<text text-anchor="middle" x="669.5" y="-197.5" font-family="Helvetica,sans-Serif" font-size="10.00" fill="#000000">StringBase&lt;TChar&gt;</text>
</a>
</g>
</g>
<!-- Node46&#45;&gt;Node2 -->
<g id="edge11" class="edge">
<title>Node46&#45;&gt;Node2</title>
<path fill="none" stroke="#9a32cd" stroke-dasharray="5,2" d="M731.2763,-194.0869C752.4105,-192.064 776.2019,-189.7867 797.9421,-187.7058"/>
<polygon fill="#9a32cd" stroke="#9a32cd" points="730.7563,-190.6206 721.1354,-195.0576 731.4234,-197.5887 730.7563,-190.6206"/>
<text text-anchor="middle" x="759.5" y="-197" font-family="Helvetica,sans-Serif" font-size="10.00" fill="#000000"> Operator</text>
</g>
<!-- Node3&#45;&gt;Node2 -->
<g id="edge1" class="edge">
<title>Node3&#45;&gt;Node2</title>
<path fill="none" stroke="#191970" d="M722.0663,-167.0315C745.2566,-169.2513 772.8504,-171.8925 797.7686,-174.2776"/>
<polygon fill="#191970" stroke="#191970" points="722.3713,-163.5448 712.0832,-166.076 721.7042,-170.513 722.3713,-163.5448"/>
</g>
<!-- Node5 -->
<g id="node8" class="node">
<title>Node5</title>
<g id="a_node8"><a xlink:href="classaworx_1_1lib_1_1boxing_1_1Box.html" target="_top" xlink:title="Box">
<polygon fill="#ffffff" stroke="#ff0000" points="0,-152.5 0,-171.5 34,-171.5 34,-152.5 0,-152.5"/>
<text text-anchor="middle" x="17" y="-159.5" font-family="Helvetica,sans-Serif" font-size="10.00" fill="#000000">Box</text>
</a>
</g>
</g>
<!-- Node5&#45;&gt;Node4 -->
<g id="edge4" class="edge">
<title>Node5&#45;&gt;Node4</title>
<path fill="none" stroke="#9a32cd" stroke-dasharray="5,2" d="M43.7661,-173.6047C46.513,-174.5236 49.2901,-175.3469 52,-176 153.7175,-200.5138 277.8806,-205.2535 338.5531,-206.0049"/>
<polygon fill="#9a32cd" stroke="#9a32cd" points="44.7162,-170.2232 34.1239,-169.9919 42.2601,-176.7781 44.7162,-170.2232"/>
<text text-anchor="middle" x="73.5" y="-187" font-family="Helvetica,sans-Serif" font-size="10.00" fill="#000000"> elements</text>
</g>
<!-- Node5&#45;&gt;Node57 -->
<g id="edge5" class="edge">
<title>Node5&#45;&gt;Node57</title>
<path fill="none" stroke="#9a32cd" stroke-dasharray="5,2" d="M37.9449,-146.3355C42.5002,-143.1287 47.3496,-139.862 52,-137 78.0731,-120.9539 84.135,-115.2027 113,-105 131.8074,-98.3523 153.567,-93.7961 171.5613,-90.8158"/>
<polygon fill="#9a32cd" stroke="#9a32cd" points="35.7352,-143.6141 29.6772,-152.3061 39.8334,-149.289 35.7352,-143.6141"/>
<text text-anchor="middle" x="73.5" y="-140" font-family="Helvetica,sans-Serif" font-size="10.00" fill="#000000"> elements</text>
</g>
<!-- Node5&#45;&gt;Node3 -->
<g id="edge3" class="edge">
<title>Node5&#45;&gt;Node3</title>
<path fill="none" stroke="#9a32cd" stroke-dasharray="5,2" d="M44.1645,-162C145.6114,-162 502.7852,-162 626.7442,-162"/>
<polygon fill="#9a32cd" stroke="#9a32cd" points="44.1174,-158.5001 34.1174,-162 44.1174,-165.5001 44.1174,-158.5001"/>
<text text-anchor="middle" x="375.5" y="-176" font-family="Helvetica,sans-Serif" font-size="10.00" fill="#000000"> TypeOrValue</text>
<text text-anchor="middle" x="375.5" y="-165" font-family="Helvetica,sans-Serif" font-size="10.00" fill="#000000">Callback</text>
</g>
<!-- Node8&#45;&gt;Node3 -->
<g id="edge6" class="edge">
<title>Node8&#45;&gt;Node3</title>
<path fill="none" stroke="#9a32cd" stroke-dasharray="5,2" d="M501.5496,-98.0189C541.1403,-113.1011 608.2323,-138.6599 644.4777,-152.4677"/>
<polygon fill="#9a32cd" stroke="#9a32cd" points="502.7031,-94.713 492.1122,-94.4237 500.2111,-101.2544 502.7031,-94.713"/>
<text text-anchor="middle" x="555.5" y="-139" font-family="Helvetica,sans-Serif" font-size="10.00" fill="#000000"> CompileTimeScope</text>
</g>
<!-- Node8&#45;&gt;Node8 -->
<g id="edge7" class="edge">
<title>Node8&#45;&gt;Node8</title>
<path fill="none" stroke="#9a32cd" stroke-dasharray="5,2" d="M454.5309,-105.7663C455.7459,-110.4965 460.9022,-114 470,-114 484.9297,-114 489.2453,-104.5653 482.9468,-95.7571"/>
<polygon fill="#9a32cd" stroke="#9a32cd" points="458.0034,-106.3092 457.0532,-95.7571 451.2156,-104.5986 458.0034,-106.3092"/>
<text text-anchor="middle" x="470" y="-117" font-family="Helvetica,sans-Serif" font-size="10.00" fill="#000000"> CTScope</text>
</g>
<!-- Node9 -->
<g id="node10" class="node">
<title>Node9</title>
<g id="a_node10"><a xlink:href="classaworx_1_1lib_1_1util_1_1MemoryBlocks.html" target="_top" xlink:title="MemoryBlocks">
<polygon fill="#ffffff" stroke="#ff0000" points="167.5,-38.5 167.5,-57.5 249.5,-57.5 249.5,-38.5 167.5,-38.5"/>
<text text-anchor="middle" x="208.5" y="-45.5" font-family="Helvetica,sans-Serif" font-size="10.00" fill="#000000">MemoryBlocks</text>
</a>
</g>
</g>
<!-- Node9&#45;&gt;Node8 -->
<g id="edge8" class="edge">
<title>Node9&#45;&gt;Node8</title>
<path fill="none" stroke="#9a32cd" stroke-dasharray="5,2" d="M259.7529,-49.7682C304.8233,-52.1676 371.9463,-57.8018 429,-71 435.2029,-72.4349 441.7495,-74.5432 447.7464,-76.7284"/>
<polygon fill="#9a32cd" stroke="#9a32cd" points="259.799,-46.2663 249.6373,-49.2644 259.4507,-53.2576 259.799,-46.2663"/>
<text text-anchor="middle" x="375.5" y="-74" font-family="Helvetica,sans-Serif" font-size="10.00" fill="#000000"> Memory</text>
</g>
</g>
</svg>
