<?xml version="1.0" encoding="UTF-8" standalone="no"?>
<!DOCTYPE svg PUBLIC "-//W3C//DTD SVG 1.1//EN"
 "http://www.w3.org/Graphics/SVG/1.1/DTD/svg11.dtd">
<!-- Generated by graphviz version 2.40.1 (20161225.0304)
 -->
<!-- Title: AutoCast Pages: 1 -->
<svg width="1495pt" height="416pt"
 viewBox="0.00 0.00 1495.00 416.15" xmlns="http://www.w3.org/2000/svg" xmlns:xlink="http://www.w3.org/1999/xlink">
<g id="graph0" class="graph" transform="scale(1 1) rotate(0) translate(4 412.1528)">
<title>AutoCast</title>
<polygon fill="#ffffff" stroke="transparent" points="-4,4 -4,-412.1528 1491,-412.1528 1491,4 -4,4"/>
<!-- Node2 -->
<g id="node1" class="node">
<title>Node2</title>
<polygon fill="#bfbfbf" stroke="#000000" points="1429,-307.6528 1429,-326.6528 1487,-326.6528 1487,-307.6528 1429,-307.6528"/>
<text text-anchor="middle" x="1458" y="-314.6528" font-family="Helvetica,sans-Serif" font-size="10.00" fill="#000000">AutoCast</text>
</g>
<!-- Node5 -->
<g id="node2" class="node">
<title>Node5</title>
<g id="a_node2"><a xlink:href="classaworx_1_1lib_1_1util_1_1PluginContainer.html" target="_top" xlink:title="PluginContainer\&lt;CompilerPlugin, CompilePriorities\&gt;">
<polygon fill="#ffffff" stroke="#ff0000" points="801,-188.6528 801,-207.6528 1045,-207.6528 1045,-188.6528 801,-188.6528"/>
<text text-anchor="middle" x="923" y="-195.6528" font-family="Helvetica,sans-Serif" font-size="10.00" fill="#000000">PluginContainer&lt;CompilerPlugin, CompilePriorities&gt;</text>
</a>
</g>
</g>
<!-- Node4 -->
<g id="node9" class="node">
<title>Node4</title>
<g id="a_node9"><a xlink:href="classaworx_1_1lib_1_1expressions_1_1Compiler.html" target="_top" xlink:title="Compiler">
<polygon fill="#ffffff" stroke="#000000" points="1185,-207.6528 1185,-226.6528 1241,-226.6528 1241,-207.6528 1185,-207.6528"/>
<text text-anchor="middle" x="1213" y="-214.6528" font-family="Helvetica,sans-Serif" font-size="10.00" fill="#000000">Compiler</text>
</a>
</g>
</g>
<!-- Node5&#45;&gt;Node4 -->
<g id="edge3" class="edge">
<title>Node5&#45;&gt;Node4</title>
<path fill="none" stroke="#191970" d="M1055.1848,-206.8132C1103.9279,-210.0067 1154.6176,-213.3278 1184.9899,-215.3177"/>
<polygon fill="#191970" stroke="#191970" points="1055.3531,-203.3168 1045.1456,-206.1555 1054.8954,-210.3019 1055.3531,-203.3168"/>
</g>
<!-- Node22 -->
<g id="node3" class="node">
<title>Node22</title>
<polygon fill="#ffffff" stroke="#bfbfbf" points="466,-156.6528 466,-175.6528 576,-175.6528 576,-156.6528 466,-156.6528"/>
<text text-anchor="middle" x="521" y="-163.6528" font-family="Helvetica,sans-Serif" font-size="10.00" fill="#000000">vector&lt;AStringBase&gt;</text>
</g>
<!-- Node22&#45;&gt;Node4 -->
<g id="edge8" class="edge">
<title>Node22&#45;&gt;Node4</title>
<path fill="none" stroke="#9a32cd" stroke-dasharray="5,2" d="M586.3628,-155.9618C690.7233,-141.7199 900.8665,-121.3811 1074,-157.1528 1120.8477,-166.8322 1171.3389,-193.0747 1196.6147,-207.4373"/>
<polygon fill="#9a32cd" stroke="#9a32cd" points="585.717,-152.5179 576.2945,-157.362 586.6813,-159.4511 585.717,-152.5179"/>
<text text-anchor="middle" x="923" y="-171.1528" font-family="Helvetica,sans-Serif" font-size="10.00" fill="#000000"> CfgNormalizationDisallowed</text>
<text text-anchor="middle" x="923" y="-160.1528" font-family="Helvetica,sans-Serif" font-size="10.00" fill="#000000">DefaultCategories</text>
</g>
<!-- Node24 -->
<g id="node13" class="node">
<title>Node24</title>
<g id="a_node13"><a xlink:href="classaworx_1_1lib_1_1config_1_1Variable.html" target="_top" xlink:title="Variable">
<polygon fill="#ffffff" stroke="#ff0000" points="897.5,-264.6528 897.5,-283.6528 948.5,-283.6528 948.5,-264.6528 897.5,-264.6528"/>
<text text-anchor="middle" x="923" y="-271.6528" font-family="Helvetica,sans-Serif" font-size="10.00" fill="#000000">Variable</text>
</a>
</g>
</g>
<!-- Node22&#45;&gt;Node24 -->
<g id="edge9" class="edge">
<title>Node22&#45;&gt;Node24</title>
<path fill="none" stroke="#9a32cd" stroke-dasharray="5,2" d="M552.3128,-179.7336C599.1717,-199.4833 690.733,-235.8708 772,-255.1528 815.3184,-265.4309 867.0301,-270.4103 897.3193,-272.6134"/>
<polygon fill="#9a32cd" stroke="#9a32cd" points="553.5845,-176.4711 543.0119,-175.7839 550.8483,-182.9142 553.5845,-176.4711"/>
<text text-anchor="middle" x="674" y="-252.1528" font-family="Helvetica,sans-Serif" font-size="10.00" fill="#000000"> values</text>
</g>
<!-- Node30 -->
<g id="node4" class="node">
<title>Node30</title>
<polygon fill="#ffffff" stroke="#bfbfbf" points="188.5,-349.6528 188.5,-368.6528 292.5,-368.6528 292.5,-349.6528 188.5,-349.6528"/>
<text text-anchor="middle" x="240.5" y="-356.6528" font-family="Helvetica,sans-Serif" font-size="10.00" fill="#000000">vector&lt;StringBase&gt;</text>
</g>
<!-- Node30&#45;&gt;Node4 -->
<g id="edge13" class="edge">
<title>Node30&#45;&gt;Node4</title>
<path fill="none" stroke="#9a32cd" stroke-dasharray="5,2" d="M302.6313,-358.8733C469.7322,-357.7617 926.0969,-352.2592 1074,-325.1528 1116.8554,-317.2987 1133.0403,-321.4477 1167,-294.1528 1189.8183,-275.8128 1203.9303,-242.8831 1209.8174,-226.6832"/>
<polygon fill="#9a32cd" stroke="#9a32cd" points="302.4988,-355.3739 292.5213,-358.9375 302.5433,-362.3738 302.4988,-355.3739"/>
<text text-anchor="middle" x="674" y="-357.1528" font-family="Helvetica,sans-Serif" font-size="10.00" fill="#000000"> UnaryOperators</text>
</g>
<!-- Node25 -->
<g id="node10" class="node">
<title>Node25</title>
<g id="a_node10"><a xlink:href="classaworx_1_1lib_1_1config_1_1Configuration.html" target="_top" xlink:title="Configuration">
<polygon fill="#ffffff" stroke="#ff0000" points="484,-292.6528 484,-311.6528 558,-311.6528 558,-292.6528 484,-292.6528"/>
<text text-anchor="middle" x="521" y="-299.6528" font-family="Helvetica,sans-Serif" font-size="10.00" fill="#000000">Configuration</text>
</a>
</g>
</g>
<!-- Node30&#45;&gt;Node25 -->
<g id="edge14" class="edge">
<title>Node30&#45;&gt;Node25</title>
<path fill="none" stroke="#9a32cd" stroke-dasharray="5,2" d="M276.1878,-346.1773C288.9383,-341.8923 303.4925,-337.3972 317,-334.1528 374.5162,-320.3379 442.6362,-311.0379 483.7977,-306.1717"/>
<polygon fill="#9a32cd" stroke="#9a32cd" points="274.7223,-342.98 266.4032,-349.5408 276.9979,-349.5998 274.7223,-342.98"/>
<text text-anchor="middle" x="382.5" y="-337.1528" font-family="Helvetica,sans-Serif" font-size="10.00" fill="#000000"> TrueValues</text>
</g>
<!-- Node35 -->
<g id="node5" class="node">
<title>Node35</title>
<polygon fill="#ffffff" stroke="#bfbfbf" points="772,-7.6528 772,-26.6528 1074,-26.6528 1074,-7.6528 772,-7.6528"/>
<text text-anchor="middle" x="923" y="-14.6528" font-family="Helvetica,sans-Serif" font-size="10.00" fill="#000000">vector&lt;tuple&lt;Priorities, AStringBase, AStringBase, StringBase&gt;&gt;</text>
</g>
<!-- Node35&#45;&gt;Node4 -->
<g id="edge17" class="edge">
<title>Node35&#45;&gt;Node4</title>
<path fill="none" stroke="#9a32cd" stroke-dasharray="5,2" d="M974.3345,-5.8722C1028.6807,2.8534 1113.8045,6.886 1167,-38.1528 1193.5694,-60.6482 1208.1473,-173.6222 1211.9724,-207.5218"/>
<polygon fill="#9a32cd" stroke="#9a32cd" points="973.4915,-2.4656 964.2271,-7.6059 974.6749,-9.3648 973.4915,-2.4656"/>
<text text-anchor="middle" x="1129.5" y="-41.1528" font-family="Helvetica,sans-Serif" font-size="10.00" fill="#000000"> VariablesLoaded</text>
</g>
<!-- Node20 -->
<g id="node6" class="node">
<title>Node20</title>
<g id="a_node6"><a xlink:href="classaworx_1_1lib_1_1strings_1_1StringBase.html" target="_top" xlink:title="StringBase\&lt;character\&gt;">
<polygon fill="#ffffff" stroke="#000000" points="182,-92.6528 182,-111.6528 299,-111.6528 299,-92.6528 182,-92.6528"/>
<text text-anchor="middle" x="240.5" y="-99.6528" font-family="Helvetica,sans-Serif" font-size="10.00" fill="#000000">StringBase&lt;character&gt;</text>
</a>
</g>
</g>
<!-- Node20&#45;&gt;Node4 -->
<g id="edge4" class="edge">
<title>Node20&#45;&gt;Node4</title>
<path fill="none" stroke="#9a32cd" stroke-dasharray="5,2" d="M309.4241,-99.5222C452.7481,-95.2073 792.9788,-90.9811 1074,-134.1528 1116.0849,-140.6181 1131.3748,-133.8337 1167,-157.1528 1186.5483,-169.9486 1201.1514,-193.9578 1208.2354,-207.4005"/>
<polygon fill="#9a32cd" stroke="#9a32cd" points="308.9242,-96.036 299.038,-99.8456 309.1421,-103.0326 308.9242,-96.036"/>
<text text-anchor="middle" x="674" y="-118.1528" font-family="Helvetica,sans-Serif" font-size="10.00" fill="#000000"> CfgNestedExpressionOperator</text>
<text text-anchor="middle" x="674" y="-107.1528" font-family="Helvetica,sans-Serif" font-size="10.00" fill="#000000">CfgNestedExpressionThrowIdentifier</text>
</g>
<!-- Node20&#45;&gt;Node25 -->
<g id="edge5" class="edge">
<title>Node20&#45;&gt;Node25</title>
<path fill="none" stroke="#9a32cd" stroke-dasharray="5,2" d="M262.4389,-117.7955C317.9624,-157.3845 462.8178,-260.6682 507.6067,-292.6032"/>
<polygon fill="#9a32cd" stroke="#9a32cd" points="264.2033,-114.755 254.0291,-111.7993 260.1394,-120.4546 264.2033,-114.755"/>
<text text-anchor="middle" x="382.5" y="-273.1528" font-family="Helvetica,sans-Serif" font-size="10.00" fill="#000000"> SubstitutionVariableStart</text>
<text text-anchor="middle" x="382.5" y="-262.1528" font-family="Helvetica,sans-Serif" font-size="10.00" fill="#000000">SubstitutionVariableEnd</text>
<text text-anchor="middle" x="382.5" y="-251.1528" font-family="Helvetica,sans-Serif" font-size="10.00" fill="#000000">SubstitutionVariableDelimiters</text>
</g>
<!-- Node36 -->
<g id="node11" class="node">
<title>Node36</title>
<g id="a_node11"><a xlink:href="structaworx_1_1lib_1_1expressions_1_1FunctionNameDescriptor.html" target="_top" xlink:title="FunctionNameDescriptor">
<polygon fill="#ffffff" stroke="#000000" points="611.5,-54.6528 611.5,-73.6528 736.5,-73.6528 736.5,-54.6528 611.5,-54.6528"/>
<text text-anchor="middle" x="674" y="-61.6528" font-family="Helvetica,sans-Serif" font-size="10.00" fill="#000000">FunctionNameDescriptor</text>
</a>
</g>
</g>
<!-- Node20&#45;&gt;Node36 -->
<g id="edge6" class="edge">
<title>Node20&#45;&gt;Node36</title>
<path fill="none" stroke="#9a32cd" stroke-dasharray="5,2" d="M273.5014,-89.1328C286.8009,-84.4788 302.4205,-79.7476 317,-77.1528 418.8188,-59.032 539.4624,-59.0021 611.2075,-61.1839"/>
<polygon fill="#9a32cd" stroke="#9a32cd" points="272.0448,-85.938 263.8391,-92.6399 274.4332,-92.5179 272.0448,-85.938"/>
<text text-anchor="middle" x="382.5" y="-80.1528" font-family="Helvetica,sans-Serif" font-size="10.00" fill="#000000"> Name</text>
</g>
<!-- Node31 -->
<g id="node7" class="node">
<title>Node31</title>
<g id="a_node7"><a xlink:href="classaworx_1_1lib_1_1strings_1_1StringBase.html" target="_top" xlink:title="StringBase\&lt;TChar\&gt;">
<polygon fill="#ffffff" stroke="#ff0000" points="0,-371.6528 0,-390.6528 103,-390.6528 103,-371.6528 0,-371.6528"/>
<text text-anchor="middle" x="51.5" y="-378.6528" font-family="Helvetica,sans-Serif" font-size="10.00" fill="#000000">StringBase&lt;TChar&gt;</text>
</a>
</g>
</g>
<!-- Node31&#45;&gt;Node30 -->
<g id="edge16" class="edge">
<title>Node31&#45;&gt;Node30</title>
<path fill="none" stroke="#9a32cd" stroke-dasharray="5,2" d="M113.26,-373.0886C115.8744,-372.7683 118.4629,-372.4551 121,-372.1528 143.0694,-369.5237 167.4581,-366.8322 188.4168,-364.5853"/>
<polygon fill="#9a32cd" stroke="#9a32cd" points="112.5932,-369.6445 103.1014,-374.3516 113.4568,-376.591 112.5932,-369.6445"/>
<text text-anchor="middle" x="142.5" y="-375.1528" font-family="Helvetica,sans-Serif" font-size="10.00" fill="#000000"> elements</text>
</g>
<!-- Node3 -->
<g id="node8" class="node">
<title>Node3</title>
<g id="a_node8"><a xlink:href="structaworx_1_1lib_1_1expressions_1_1CompilerPlugin.html" target="_top" xlink:title="CompilerPlugin">
<polygon fill="#ffffff" stroke="#000000" points="1309,-307.6528 1309,-326.6528 1392,-326.6528 1392,-307.6528 1309,-307.6528"/>
<text text-anchor="middle" x="1350.5" y="-314.6528" font-family="Helvetica,sans-Serif" font-size="10.00" fill="#000000">CompilerPlugin</text>
</a>
</g>
</g>
<!-- Node31&#45;&gt;Node3 -->
<g id="edge15" class="edge">
<title>Node31&#45;&gt;Node3</title>
<path fill="none" stroke="#9a32cd" stroke-dasharray="5,2" d="M113.2379,-389.0272C150.11,-393.0687 197.9086,-397.1528 240.5,-397.1528 240.5,-397.1528 240.5,-397.1528 1213,-397.1528 1268.2359,-397.1528 1321.089,-348.3247 1341.5692,-326.9624"/>
<polygon fill="#9a32cd" stroke="#9a32cd" points="113.4698,-385.5313 103.1413,-387.8919 112.6875,-392.4875 113.4698,-385.5313"/>
<text text-anchor="middle" x="674" y="-400.1528" font-family="Helvetica,sans-Serif" font-size="10.00" fill="#000000"> Name</text>
</g>
<!-- Node3&#45;&gt;Node2 -->
<g id="edge1" class="edge">
<title>Node3&#45;&gt;Node2</title>
<path fill="none" stroke="#191970" d="M1402.2882,-317.1528C1411.4239,-317.1528 1420.6352,-317.1528 1428.8647,-317.1528"/>
<polygon fill="#191970" stroke="#191970" points="1402.0623,-313.6529 1392.0623,-317.1528 1402.0623,-320.6529 1402.0623,-313.6529"/>
</g>
<!-- Node4&#45;&gt;Node3 -->
<g id="edge2" class="edge">
<title>Node4&#45;&gt;Node3</title>
<path fill="none" stroke="#9a32cd" stroke-dasharray="5,2" d="M1234.3529,-232.6822C1263.0685,-253.5663 1313.277,-290.0816 1337.1538,-307.4465"/>
<polygon fill="#9a32cd" stroke="#9a32cd" points="1236.3301,-229.7924 1226.1841,-226.7413 1232.2128,-235.4536 1236.3301,-229.7924"/>
<text text-anchor="middle" x="1275" y="-275.1528" font-family="Helvetica,sans-Serif" font-size="10.00" fill="#000000"> Parent</text>
</g>
<!-- Node25&#45;&gt;Node4 -->
<g id="edge11" class="edge">
<title>Node25&#45;&gt;Node4</title>
<path fill="none" stroke="#9a32cd" stroke-dasharray="5,2" d="M568.3644,-305.1866C664.3192,-310.4969 888.3277,-318.6454 1074,-293.1528 1116.0793,-287.3754 1130.7623,-293.3085 1167,-271.1528 1185.2824,-259.975 1199.963,-239.0454 1207.492,-226.7842"/>
<polygon fill="#9a32cd" stroke="#9a32cd" points="568.3046,-301.6776 558.1218,-304.6033 567.9066,-308.6663 568.3046,-301.6776"/>
<text text-anchor="middle" x="923" y="-313.1528" font-family="Helvetica,sans-Serif" font-size="10.00" fill="#000000"> Config</text>
</g>
<!-- Node25&#45;&gt;Node24 -->
<g id="edge12" class="edge">
<title>Node25&#45;&gt;Node24</title>
<path fill="none" stroke="#9a32cd" stroke-dasharray="5,2" d="M568.3359,-297.3922C576.8746,-296.5966 585.6991,-295.8156 594,-295.1528 706.9644,-286.1338 841.9966,-278.5038 897.3846,-275.5094"/>
<polygon fill="#9a32cd" stroke="#9a32cd" points="567.741,-293.9329 558.1169,-298.363 568.4031,-300.9015 567.741,-293.9329"/>
<text text-anchor="middle" x="674" y="-298.1528" font-family="Helvetica,sans-Serif" font-size="10.00" fill="#000000"> Config</text>
</g>
<!-- Node36&#45;&gt;Node4 -->
<g id="edge18" class="edge">
<title>Node36&#45;&gt;Node4</title>
<path fill="none" stroke="#9a32cd" stroke-dasharray="5,2" d="M746.973,-57.6728C868.2204,-48.5106 1104.088,-38.0028 1167,-88.1528 1186.4293,-103.6409 1204.7941,-179.8208 1210.8825,-207.2711"/>
<polygon fill="#9a32cd" stroke="#9a32cd" points="746.3712,-54.2088 736.6706,-58.469 746.9106,-61.188 746.3712,-54.2088"/>
<text text-anchor="middle" x="923" y="-60.1528" font-family="Helvetica,sans-Serif" font-size="10.00" fill="#000000"> CfgNestedExpressionFunction</text>
</g>
<!-- Node21 -->
<g id="node12" class="node">
<title>Node21</title>
<g id="a_node12"><a xlink:href="structaworx_1_1lib_1_1expressions_1_1detail_1_1Parser.html" target="_top" xlink:title="Parser">
<polygon fill="#ffffff" stroke="#000000" points="900.5,-226.6528 900.5,-245.6528 945.5,-245.6528 945.5,-226.6528 900.5,-226.6528"/>
<text text-anchor="middle" x="923" y="-233.6528" font-family="Helvetica,sans-Serif" font-size="10.00" fill="#000000">Parser</text>
</a>
</g>
</g>
<!-- Node21&#45;&gt;Node4 -->
<g id="edge7" class="edge">
<title>Node21&#45;&gt;Node4</title>
<path fill="none" stroke="#9a32cd" stroke-dasharray="5,2" d="M955.742,-234.0077C1013.1444,-230.2468 1130.9601,-222.5279 1184.9053,-218.9935"/>
<polygon fill="#9a32cd" stroke="#9a32cd" points="955.5056,-230.5156 945.7558,-234.6619 955.9633,-237.5006 955.5056,-230.5156"/>
<text text-anchor="middle" x="1129.5" y="-227.1528" font-family="Helvetica,sans-Serif" font-size="10.00" fill="#000000"> parser</text>
</g>
<!-- Node24&#45;&gt;Node4 -->
<g id="edge10" class="edge">
<title>Node24&#45;&gt;Node4</title>
<path fill="none" stroke="#9a32cd" stroke-dasharray="5,2" d="M958.8038,-272.716C1007.1067,-269.951 1095.3491,-261.9657 1167,-239.1528 1176.9536,-235.9837 1187.5045,-231.062 1195.9874,-226.6766"/>
<polygon fill="#9a32cd" stroke="#9a32cd" points="958.3554,-269.2347 948.5542,-273.2579 958.725,-276.225 958.3554,-269.2347"/>
<text text-anchor="middle" x="1129.5" y="-259.1528" font-family="Helvetica,sans-Serif" font-size="10.00" fill="#000000"> var</text>
</g>
</g>
</svg>
