<?xml version="1.0" encoding="UTF-8" standalone="no"?>
<!DOCTYPE svg PUBLIC "-//W3C//DTD SVG 1.1//EN"
 "http://www.w3.org/Graphics/SVG/1.1/DTD/svg11.dtd">
<!-- Generated by graphviz version 2.40.1 (20161225.0304)
 -->
<!-- Title: ParameterDecl Pages: 1 -->
<svg width="899pt" height="189pt"
 viewBox="0.00 0.00 899.00 189.00" xmlns="http://www.w3.org/2000/svg" xmlns:xlink="http://www.w3.org/1999/xlink">
<g id="graph0" class="graph" transform="scale(1 1) rotate(0) translate(4 185)">
<title>ParameterDecl</title>
<polygon fill="#ffffff" stroke="transparent" points="-4,4 -4,-185 895,-185 895,4 -4,4"/>
<!-- Node2 -->
<g id="node1" class="node">
<title>Node2</title>
<polygon fill="#bfbfbf" stroke="#000000" points="809,-39.5 809,-58.5 891,-58.5 891,-39.5 809,-39.5"/>
<text text-anchor="middle" x="850" y="-46.5" font-family="Helvetica,sans-Serif" font-size="10.00" fill="#000000">ParameterDecl</text>
</g>
<!-- Node37 -->
<g id="node2" class="node">
<title>Node37</title>
<polygon fill="#ffffff" stroke="#bfbfbf" points="648,-92.5 648,-111.5 740,-111.5 740,-92.5 648,-92.5"/>
<text text-anchor="middle" x="694" y="-99.5" font-family="Helvetica,sans-Serif" font-size="10.00" fill="#000000">vector&lt;Library *&gt;</text>
</g>
<!-- Node4 -->
<g id="node6" class="node">
<title>Node4</title>
<g id="a_node6"><a xlink:href="classaworx_1_1lib_1_1lang_1_1Library.html" target="_top" xlink:title="Library">
<polygon fill="#ffffff" stroke="#000000" points="470,-84.5 470,-103.5 516,-103.5 516,-84.5 470,-84.5"/>
<text text-anchor="middle" x="493" y="-91.5" font-family="Helvetica,sans-Serif" font-size="10.00" fill="#000000">Library</text>
</a>
</g>
</g>
<!-- Node37&#45;&gt;Node4 -->
<g id="edge8" class="edge">
<title>Node37&#45;&gt;Node4</title>
<path fill="none" stroke="#9a32cd" stroke-dasharray="5,2" d="M637.4958,-95.128C624.5391,-93.8267 610.8083,-92.6653 598,-92 569.5939,-90.5245 562.436,-91.3069 534,-92 528.3005,-92.1389 522.1593,-92.3863 516.409,-92.6609"/>
<polygon fill="#9a32cd" stroke="#9a32cd" points="637.3785,-98.6348 647.6886,-96.1949 638.1073,-91.6728 637.3785,-98.6348"/>
<text text-anchor="middle" x="566" y="-95" font-family="Helvetica,sans-Serif" font-size="10.00" fill="#000000"> dependencies</text>
</g>
<!-- Node38 -->
<g id="node3" class="node">
<title>Node38</title>
<polygon fill="#ffffff" stroke="#bfbfbf" points="142,-161.5 142,-180.5 318,-180.5 318,-161.5 142,-161.5"/>
<text text-anchor="middle" x="230" y="-168.5" font-family="Helvetica,sans-Serif" font-size="10.00" fill="#000000">vector&lt;pair&lt;const char *, uint64_t&gt;&gt;</text>
</g>
<!-- Node38&#45;&gt;Node4 -->
<g id="edge9" class="edge">
<title>Node38&#45;&gt;Node4</title>
<path fill="none" stroke="#9a32cd" stroke-dasharray="5,2" d="M328.2584,-171.8716C368.5855,-168.6176 414.5055,-160.0364 452,-140 467.8511,-131.5294 480.5549,-114.3659 487.4157,-103.5669"/>
<polygon fill="#9a32cd" stroke="#9a32cd" points="327.8628,-168.3908 318.1348,-172.5878 328.3569,-175.3733 327.8628,-168.3908"/>
<text text-anchor="middle" x="394" y="-173" font-family="Helvetica,sans-Serif" font-size="10.00" fill="#000000"> CompilationFlagMeanings</text>
</g>
<!-- Node3 -->
<g id="node4" class="node">
<title>Node3</title>
<g id="a_node4"><a xlink:href="structaworx_1_1lib_1_1cli_1_1ArgumentDecl.html" target="_top" xlink:title="ArgumentDecl\&lt;ParameterDecl\&gt;">
<polygon fill="#ffffff" stroke="#000000" points="616,-39.5 616,-58.5 772,-58.5 772,-39.5 616,-39.5"/>
<text text-anchor="middle" x="694" y="-46.5" font-family="Helvetica,sans-Serif" font-size="10.00" fill="#000000">ArgumentDecl&lt;ParameterDecl&gt;</text>
</a>
</g>
</g>
<!-- Node3&#45;&gt;Node2 -->
<g id="edge1" class="edge">
<title>Node3&#45;&gt;Node2</title>
<path fill="none" stroke="#191970" d="M782.4656,-49C791.6408,-49 800.6192,-49 808.8806,-49"/>
<polygon fill="#191970" stroke="#191970" points="782.4571,-45.5001 772.457,-49 782.457,-52.5001 782.4571,-45.5001"/>
</g>
<!-- Node5 -->
<g id="node5" class="node">
<title>Node5</title>
<g id="a_node5"><a xlink:href="classaworx_1_1lib_1_1strings_1_1TStringBase.html" target="_top" xlink:title="TStringBase\&lt;character\&gt;">
<polygon fill="#ffffff" stroke="#ff0000" points="168.5,-123.5 168.5,-142.5 291.5,-142.5 291.5,-123.5 168.5,-123.5"/>
<text text-anchor="middle" x="230" y="-130.5" font-family="Helvetica,sans-Serif" font-size="10.00" fill="#000000">TStringBase&lt;character&gt;</text>
</a>
</g>
</g>
<!-- Node5&#45;&gt;Node4 -->
<g id="edge4" class="edge">
<title>Node5&#45;&gt;Node4</title>
<path fill="none" stroke="#9a32cd" stroke-dasharray="5,2" d="M301.828,-128.8761C345.6172,-125.3851 402.4942,-119.1014 452,-108 457.8715,-106.6834 464.0772,-104.8224 469.8348,-102.886"/>
<polygon fill="#9a32cd" stroke="#9a32cd" points="301.546,-125.3873 291.843,-129.642 302.0814,-132.3668 301.546,-125.3873"/>
<text text-anchor="middle" x="394" y="-128" font-family="Helvetica,sans-Serif" font-size="10.00" fill="#000000"> ResourceCategory</text>
</g>
<!-- Node4&#45;&gt;Node37 -->
<g id="edge3" class="edge">
<title>Node4&#45;&gt;Node37</title>
<path fill="none" stroke="#9a32cd" stroke-dasharray="5,2" d="M526.1929,-103.6857C528.8183,-104.2124 531.4427,-104.6629 534,-105 572.149,-110.0286 615.8512,-108.738 647.9318,-106.4939"/>
<polygon fill="#9a32cd" stroke="#9a32cd" points="526.7359,-100.2185 516.2023,-101.3562 525.1463,-107.0356 526.7359,-100.2185"/>
<text text-anchor="middle" x="566" y="-111" font-family="Helvetica,sans-Serif" font-size="10.00" fill="#000000"> elements</text>
</g>
<!-- Node4&#45;&gt;Node3 -->
<g id="edge2" class="edge">
<title>Node4&#45;&gt;Node3</title>
<path fill="none" stroke="#9a32cd" stroke-dasharray="5,2" d="M521.5315,-80.4111C525.6555,-78.7605 529.8941,-77.2272 534,-76 560.181,-68.1749 589.4929,-62.4034 615.8043,-58.2527"/>
<polygon fill="#9a32cd" stroke="#9a32cd" points="520.0523,-77.2371 512.2337,-84.387 522.8045,-83.6733 520.0523,-77.2371"/>
<text text-anchor="middle" x="566" y="-79" font-family="Helvetica,sans-Serif" font-size="10.00" fill="#000000"> ResLib</text>
</g>
<!-- Node7 -->
<g id="node7" class="node">
<title>Node7</title>
<g id="a_node7"><a xlink:href="classaworx_1_1lib_1_1lang_1_1Resources.html" target="_top" xlink:title="Resources">
<polygon fill="#ffffff" stroke="#ff0000" points="198,-38.5 198,-57.5 262,-57.5 262,-38.5 198,-38.5"/>
<text text-anchor="middle" x="230" y="-45.5" font-family="Helvetica,sans-Serif" font-size="10.00" fill="#000000">Resources</text>
</a>
</g>
</g>
<!-- Node7&#45;&gt;Node4 -->
<g id="edge5" class="edge">
<title>Node7&#45;&gt;Node4</title>
<path fill="none" stroke="#9a32cd" stroke-dasharray="5,2" d="M272.2756,-46.425C317.8179,-45.9954 391.845,-49.0026 452,-69 462.2846,-72.4189 472.6968,-78.8124 480.4547,-84.2776"/>
<polygon fill="#9a32cd" stroke="#9a32cd" points="272.1162,-42.927 262.1717,-46.5815 272.2247,-49.9261 272.1162,-42.927"/>
<text text-anchor="middle" x="394" y="-72" font-family="Helvetica,sans-Serif" font-size="10.00" fill="#000000"> Res</text>
</g>
<!-- Node19 -->
<g id="node8" class="node">
<title>Node19</title>
<g id="a_node8"><a xlink:href="classaworx_1_1lib_1_1config_1_1Configuration.html" target="_top" xlink:title="Configuration">
<polygon fill="#ffffff" stroke="#ff0000" points="0,-66.5 0,-85.5 74,-85.5 74,-66.5 0,-66.5"/>
<text text-anchor="middle" x="37" y="-73.5" font-family="Helvetica,sans-Serif" font-size="10.00" fill="#000000">Configuration</text>
</a>
</g>
</g>
<!-- Node19&#45;&gt;Node4 -->
<g id="edge6" class="edge">
<title>Node19&#45;&gt;Node4</title>
<path fill="none" stroke="#9a32cd" stroke-dasharray="5,2" d="M84.32,-79.5562C86.9174,-79.7156 89.4905,-79.865 92,-80 235.6411,-87.728 408.467,-92.0979 469.9316,-93.4989"/>
<polygon fill="#9a32cd" stroke="#9a32cd" points="84.4719,-76.0588 74.2655,-78.9011 84.0167,-83.044 84.4719,-76.0588"/>
<text text-anchor="middle" x="230" y="-92" font-family="Helvetica,sans-Serif" font-size="10.00" fill="#000000"> Config</text>
</g>
<!-- Node19&#45;&gt;Node7 -->
<g id="edge7" class="edge">
<title>Node19&#45;&gt;Node7</title>
<path fill="none" stroke="#9a32cd" stroke-dasharray="5,2" d="M84.2705,-69.1421C119.5069,-64.0301 166.7039,-57.1829 197.7097,-52.6846"/>
<polygon fill="#9a32cd" stroke="#9a32cd" points="83.6062,-65.7017 74.2123,-70.6013 84.6113,-72.6292 83.6062,-65.7017"/>
<text text-anchor="middle" x="108" y="-70" font-family="Helvetica,sans-Serif" font-size="10.00" fill="#000000"> Config</text>
</g>
<!-- Node39 -->
<g id="node9" class="node">
<title>Node39</title>
<g id="a_node9"><a xlink:href="structaworx_1_1lib_1_1lang_1_1Enum.html" target="_top" xlink:title="Enum">
<polygon fill="#ffffff" stroke="#000000" points="472,-1.5 472,-20.5 514,-20.5 514,-1.5 472,-1.5"/>
<text text-anchor="middle" x="493" y="-8.5" font-family="Helvetica,sans-Serif" font-size="10.00" fill="#000000">Enum</text>
</a>
</g>
</g>
<!-- Node39&#45;&gt;Node3 -->
<g id="edge10" class="edge">
<title>Node39&#45;&gt;Node3</title>
<path fill="none" stroke="#9a32cd" stroke-dasharray="5,2" d="M524.0072,-13.7571C545.0017,-15.8883 573.3059,-19.2772 598,-24 619.4832,-28.1087 643.2776,-34.2935 661.8027,-39.4834"/>
<polygon fill="#9a32cd" stroke="#9a32cd" points="524.3376,-10.2728 514.0447,-12.7842 523.6572,-17.2397 524.3376,-10.2728"/>
<text text-anchor="middle" x="566" y="-27" font-family="Helvetica,sans-Serif" font-size="10.00" fill="#000000"> EnumBox</text>
</g>
<!-- Node40 -->
<g id="node10" class="node">
<title>Node40</title>
<g id="a_node10"><a xlink:href="classaworx_1_1lib_1_1boxing_1_1Box.html" target="_top" xlink:title="Box">
<polygon fill="#ffffff" stroke="#ff0000" points="213,-.5 213,-19.5 247,-19.5 247,-.5 213,-.5"/>
<text text-anchor="middle" x="230" y="-7.5" font-family="Helvetica,sans-Serif" font-size="10.00" fill="#000000">Box</text>
</a>
</g>
</g>
<!-- Node40&#45;&gt;Node39 -->
<g id="edge11" class="edge">
<title>Node40&#45;&gt;Node39</title>
<path fill="none" stroke="#191970" d="M257.524,-10.1047C310.2274,-10.305 424.3603,-10.739 471.7282,-10.9191"/>
<polygon fill="#191970" stroke="#191970" points="257.2694,-6.6038 247.2562,-10.0656 257.2428,-13.6037 257.2694,-6.6038"/>
</g>
</g>
</svg>
