<?xml version="1.0" encoding="UTF-8" standalone="no"?>
<!DOCTYPE svg PUBLIC "-//W3C//DTD SVG 1.1//EN"
 "http://www.w3.org/Graphics/SVG/1.1/DTD/svg11.dtd">
<!-- Generated by graphviz version 2.40.1 (20161225.0304)
 -->
<!-- Title: CompilerPlugin::CompilationInfo Pages: 1 -->
<svg width="358pt" height="84pt"
 viewBox="0.00 0.00 358.00 84.00" xmlns="http://www.w3.org/2000/svg" xmlns:xlink="http://www.w3.org/1999/xlink">
<g id="graph0" class="graph" transform="scale(1 1) rotate(0) translate(4 80)">
<title>CompilerPlugin::CompilationInfo</title>
<polygon fill="#ffffff" stroke="transparent" points="-4,4 -4,-80 354,-80 354,4 -4,4"/>
<!-- Node0 -->
<g id="node1" class="node">
<title>Node0</title>
<polygon fill="#bfbfbf" stroke="#000000" points="111.5,-56.5 111.5,-75.5 268.5,-75.5 268.5,-56.5 111.5,-56.5"/>
<text text-anchor="middle" x="190" y="-63.5" font-family="Helvetica,sans-Serif" font-size="10.00" fill="#000000">CompilerPlugin::CompilationInfo</text>
</g>
<!-- Node1 -->
<g id="node2" class="node">
<title>Node1</title>
<g id="a_node2"><a xlink:href="structaworx_1_1lib_1_1expressions_1_1CompilerPlugin_1_1CIBinaryAutoCast.html" target="_top" xlink:title="CIBinaryAutoCast">
<polygon fill="#ffffff" stroke="#000000" points="0,-.5 0,-19.5 96,-19.5 96,-.5 0,-.5"/>
<text text-anchor="middle" x="48" y="-7.5" font-family="Helvetica,sans-Serif" font-size="10.00" fill="#000000">CIBinaryAutoCast</text>
</a>
</g>
</g>
<!-- Node0&#45;&gt;Node1 -->
<g id="edge1" class="edge">
<title>Node0&#45;&gt;Node1</title>
<path fill="none" stroke="#191970" d="M156.1585,-52.6541C130.2634,-42.4419 95.1862,-28.6086 72.0921,-19.5011"/>
<polygon fill="#191970" stroke="#191970" points="155.0025,-55.9605 165.5893,-56.3733 157.5707,-49.4486 155.0025,-55.9605"/>
</g>
<!-- Node2 -->
<g id="node3" class="node">
<title>Node2</title>
<g id="a_node3"><a xlink:href="structaworx_1_1lib_1_1expressions_1_1CompilerPlugin_1_1CIBinaryOp.html" target="_top" xlink:title="CIBinaryOp">
<polygon fill="#ffffff" stroke="#000000" points="114,-.5 114,-19.5 182,-19.5 182,-.5 114,-.5"/>
<text text-anchor="middle" x="148" y="-7.5" font-family="Helvetica,sans-Serif" font-size="10.00" fill="#000000">CIBinaryOp</text>
</a>
</g>
</g>
<!-- Node0&#45;&gt;Node2 -->
<g id="edge2" class="edge">
<title>Node0&#45;&gt;Node2</title>
<path fill="none" stroke="#191970" d="M176.6584,-48.2112C169.5604,-38.7472 161.1097,-27.4797 155.232,-19.6427"/>
<polygon fill="#191970" stroke="#191970" points="173.8841,-50.3455 182.6842,-56.2455 179.4841,-46.1455 173.8841,-50.3455"/>
</g>
<!-- Node3 -->
<g id="node4" class="node">
<title>Node3</title>
<g id="a_node4"><a xlink:href="structaworx_1_1lib_1_1expressions_1_1CompilerPlugin_1_1CIFunction.html" target="_top" xlink:title="CIFunction">
<polygon fill="#ffffff" stroke="#000000" points="200.5,-.5 200.5,-19.5 265.5,-19.5 265.5,-.5 200.5,-.5"/>
<text text-anchor="middle" x="233" y="-7.5" font-family="Helvetica,sans-Serif" font-size="10.00" fill="#000000">CIFunction</text>
</a>
</g>
</g>
<!-- Node0&#45;&gt;Node3 -->
<g id="edge3" class="edge">
<title>Node0&#45;&gt;Node3</title>
<path fill="none" stroke="#191970" d="M203.6592,-48.2112C210.9263,-38.7472 219.5781,-27.4797 225.5958,-19.6427"/>
<polygon fill="#191970" stroke="#191970" points="200.8043,-46.1824 197.49,-56.2455 206.3564,-50.4456 200.8043,-46.1824"/>
</g>
<!-- Node4 -->
<g id="node5" class="node">
<title>Node4</title>
<g id="a_node5"><a xlink:href="structaworx_1_1lib_1_1expressions_1_1CompilerPlugin_1_1CIUnaryOp.html" target="_top" xlink:title="CIUnaryOp">
<polygon fill="#ffffff" stroke="#000000" points="284,-.5 284,-19.5 350,-19.5 350,-.5 284,-.5"/>
<text text-anchor="middle" x="317" y="-7.5" font-family="Helvetica,sans-Serif" font-size="10.00" fill="#000000">CIUnaryOp</text>
</a>
</g>
</g>
<!-- Node0&#45;&gt;Node4 -->
<g id="edge4" class="edge">
<title>Node0&#45;&gt;Node4</title>
<path fill="none" stroke="#191970" d="M221.1892,-52.2473C244.2537,-42.0771 275.0712,-28.4883 295.4528,-19.5011"/>
<polygon fill="#191970" stroke="#191970" points="219.5699,-49.1361 211.8321,-56.3733 222.3942,-55.5411 219.5699,-49.1361"/>
</g>
</g>
</svg>
