<?xml version="1.0" encoding="UTF-8" standalone="no"?>
<!DOCTYPE svg PUBLIC "-//W3C//DTD SVG 1.1//EN"
 "http://www.w3.org/Graphics/SVG/1.1/DTD/svg11.dtd">
<!-- Generated by graphviz version 2.40.1 (20161225.0304)
 -->
<!-- Title: ASTLiteral Pages: 1 -->
<svg width="287pt" height="219pt"
 viewBox="0.00 0.00 287.00 219.00" xmlns="http://www.w3.org/2000/svg" xmlns:xlink="http://www.w3.org/1999/xlink">
<g id="graph0" class="graph" transform="scale(1 1) rotate(0) translate(4 215)">
<title>ASTLiteral</title>
<polygon fill="#ffffff" stroke="transparent" points="-4,4 -4,-215 283,-215 283,4 -4,4"/>
<!-- Node2 -->
<g id="node1" class="node">
<title>Node2</title>
<polygon fill="#bfbfbf" stroke="#000000" points="129,-.5 129,-19.5 191,-19.5 191,-.5 129,-.5"/>
<text text-anchor="middle" x="160" y="-7.5" font-family="Helvetica,sans-Serif" font-size="10.00" fill="#000000">ASTLiteral</text>
</g>
<!-- Node7 -->
<g id="node2" class="node">
<title>Node7</title>
<g id="a_node2"><a xlink:href="classaworx_1_1lib_1_1strings_1_1AStringBase.html" target="_top" xlink:title="AStringBase\&lt;character\&gt;">
<polygon fill="#ffffff" stroke="#000000" points="0,-67.5 0,-86.5 124,-86.5 124,-67.5 0,-67.5"/>
<text text-anchor="middle" x="62" y="-74.5" font-family="Helvetica,sans-Serif" font-size="10.00" fill="#000000">AStringBase&lt;character&gt;</text>
</a>
</g>
</g>
<!-- Node7&#45;&gt;Node2 -->
<g id="edge5" class="edge">
<title>Node7&#45;&gt;Node2</title>
<path fill="none" stroke="#9a32cd" stroke-dasharray="5,2" d="M78.2969,-59.8151C85.7174,-52.5509 94.8707,-44.3266 104,-38 114.3636,-30.818 126.8332,-24.3957 137.3724,-19.5192"/>
<polygon fill="#9a32cd" stroke="#9a32cd" points="75.551,-57.6142 71.0079,-67.1855 80.5282,-62.5363 75.551,-57.6142"/>
<text text-anchor="middle" x="130" y="-41" font-family="Helvetica,sans-Serif" font-size="10.00" fill="#000000"> stringValue</text>
</g>
<!-- Node8 -->
<g id="node3" class="node">
<title>Node8</title>
<g id="a_node3"><a xlink:href="classaworx_1_1lib_1_1strings_1_1TStringBase.html" target="_top" xlink:title="TStringBase\&lt;character\&gt;">
<polygon fill="#ffffff" stroke="#000000" points=".5,-134.5 .5,-153.5 123.5,-153.5 123.5,-134.5 .5,-134.5"/>
<text text-anchor="middle" x="62" y="-141.5" font-family="Helvetica,sans-Serif" font-size="10.00" fill="#000000">TStringBase&lt;character&gt;</text>
</a>
</g>
</g>
<!-- Node8&#45;&gt;Node7 -->
<g id="edge6" class="edge">
<title>Node8&#45;&gt;Node7</title>
<path fill="none" stroke="#191970" d="M62,-124.1079C62,-111.714 62,-96.3263 62,-86.5817"/>
<polygon fill="#191970" stroke="#191970" points="58.5001,-124.4005 62,-134.4005 65.5001,-124.4006 58.5001,-124.4005"/>
</g>
<!-- Node9 -->
<g id="node4" class="node">
<title>Node9</title>
<g id="a_node4"><a xlink:href="classaworx_1_1lib_1_1strings_1_1StringBase.html" target="_top" xlink:title="StringBase\&lt;character\&gt;">
<polygon fill="#ffffff" stroke="#000000" points="3.5,-191.5 3.5,-210.5 120.5,-210.5 120.5,-191.5 3.5,-191.5"/>
<text text-anchor="middle" x="62" y="-198.5" font-family="Helvetica,sans-Serif" font-size="10.00" fill="#000000">StringBase&lt;character&gt;</text>
</a>
</g>
</g>
<!-- Node9&#45;&gt;Node8 -->
<g id="edge7" class="edge">
<title>Node9&#45;&gt;Node8</title>
<path fill="none" stroke="#191970" d="M62,-181.2342C62,-171.8491 62,-161.0651 62,-153.5265"/>
<polygon fill="#191970" stroke="#191970" points="58.5001,-181.3307 62,-191.3307 65.5001,-181.3308 58.5001,-181.3307"/>
</g>
<!-- Node3 -->
<g id="node5" class="node">
<title>Node3</title>
<g id="a_node5"><a xlink:href="structaworx_1_1lib_1_1expressions_1_1detail_1_1AST.html" target="_top" xlink:title="AST">
<polygon fill="#ffffff" stroke="#000000" points="142,-67.5 142,-86.5 178,-86.5 178,-67.5 142,-67.5"/>
<text text-anchor="middle" x="160" y="-74.5" font-family="Helvetica,sans-Serif" font-size="10.00" fill="#000000">AST</text>
</a>
</g>
</g>
<!-- Node3&#45;&gt;Node2 -->
<g id="edge1" class="edge">
<title>Node3&#45;&gt;Node2</title>
<path fill="none" stroke="#191970" d="M160,-57.1079C160,-44.714 160,-29.3263 160,-19.5817"/>
<polygon fill="#191970" stroke="#191970" points="156.5001,-57.4005 160,-67.4005 163.5001,-57.4006 156.5001,-57.4005"/>
</g>
<!-- Node4 -->
<g id="node6" class="node">
<title>Node4</title>
<g id="a_node6"><a xlink:href="classaworx_1_1lib_1_1boxing_1_1Box.html" target="_top" xlink:title="Box">
<polygon fill="#ffffff" stroke="#000000" points="196,-67.5 196,-86.5 230,-86.5 230,-67.5 196,-67.5"/>
<text text-anchor="middle" x="213" y="-74.5" font-family="Helvetica,sans-Serif" font-size="10.00" fill="#000000">Box</text>
</a>
</g>
</g>
<!-- Node4&#45;&gt;Node2 -->
<g id="edge2" class="edge">
<title>Node4&#45;&gt;Node2</title>
<path fill="none" stroke="#9a32cd" stroke-dasharray="5,2" d="M199.037,-59.3486C188.9676,-46.6194 175.7599,-29.9229 167.5795,-19.5817"/>
<polygon fill="#9a32cd" stroke="#9a32cd" points="196.4573,-61.7291 205.4064,-67.4005 201.9473,-57.3863 196.4573,-61.7291"/>
<text text-anchor="middle" x="204" y="-41" font-family="Helvetica,sans-Serif" font-size="10.00" fill="#000000"> Value</text>
</g>
<!-- Node5 -->
<g id="node7" class="node">
<title>Node5</title>
<g id="a_node7"><a xlink:href="structaworx_1_1lib_1_1boxing_1_1BoxData.html" target="_top" xlink:title="BoxData">
<polygon fill="#ffffff" stroke="#000000" points="163.5,-134.5 163.5,-153.5 218.5,-153.5 218.5,-134.5 163.5,-134.5"/>
<text text-anchor="middle" x="191" y="-141.5" font-family="Helvetica,sans-Serif" font-size="10.00" fill="#000000">BoxData</text>
</a>
</g>
</g>
<!-- Node5&#45;&gt;Node4 -->
<g id="edge3" class="edge">
<title>Node5&#45;&gt;Node4</title>
<path fill="none" stroke="#9a32cd" stroke-dasharray="5,2" d="M197.2838,-124.8628C201.3944,-112.3444 206.5887,-96.5252 209.8538,-86.5817"/>
<polygon fill="#9a32cd" stroke="#9a32cd" points="193.9465,-123.8077 194.1521,-134.4005 200.5972,-125.9915 193.9465,-123.8077"/>
<text text-anchor="middle" x="215" y="-108" font-family="Helvetica,sans-Serif" font-size="10.00" fill="#000000"> data</text>
</g>
<!-- Node6 -->
<g id="node8" class="node">
<title>Node6</title>
<g id="a_node8"><a xlink:href="classaworx_1_1lib_1_1boxing_1_1Boxer.html" target="_top" xlink:title="Boxer">
<polygon fill="#ffffff" stroke="#000000" points="237,-134.5 237,-153.5 279,-153.5 279,-134.5 237,-134.5"/>
<text text-anchor="middle" x="258" y="-141.5" font-family="Helvetica,sans-Serif" font-size="10.00" fill="#000000">Boxer</text>
</a>
</g>
</g>
<!-- Node6&#45;&gt;Node4 -->
<g id="edge4" class="edge">
<title>Node6&#45;&gt;Node4</title>
<path fill="none" stroke="#9a32cd" stroke-dasharray="5,2" d="M245.8972,-125.9803C237.3798,-113.2989 226.3143,-96.8235 219.4354,-86.5817"/>
<polygon fill="#9a32cd" stroke="#9a32cd" points="243.0715,-128.0506 251.5526,-134.4005 248.8825,-124.1477 243.0715,-128.0506"/>
<text text-anchor="middle" x="253" y="-108" font-family="Helvetica,sans-Serif" font-size="10.00" fill="#000000"> boxer</text>
</g>
</g>
</svg>
