<?xml version="1.0" encoding="UTF-8" standalone="no"?>
<!DOCTYPE svg PUBLIC "-//W3C//DTD SVG 1.1//EN"
 "http://www.w3.org/Graphics/SVG/1.1/DTD/svg11.dtd">
<!-- Generated by graphviz version 2.40.1 (20161225.0304)
 -->
<!-- Title: Calculus::ConstantIdentifierEntry Pages: 1 -->
<svg width="263pt" height="162pt"
 viewBox="0.00 0.00 263.00 162.00" xmlns="http://www.w3.org/2000/svg" xmlns:xlink="http://www.w3.org/1999/xlink">
<g id="graph0" class="graph" transform="scale(1 1) rotate(0) translate(4 158)">
<title>Calculus::ConstantIdentifierEntry</title>
<polygon fill="#ffffff" stroke="transparent" points="-4,4 -4,-158 259,-158 259,4 -4,4"/>
<!-- Node1 -->
<g id="node1" class="node">
<title>Node1</title>
<polygon fill="#bfbfbf" stroke="#000000" points="62,-.5 62,-19.5 223,-19.5 223,-.5 62,-.5"/>
<text text-anchor="middle" x="142.5" y="-7.5" font-family="Helvetica,sans-Serif" font-size="10.00" fill="#000000">Calculus::ConstantIdentifierEntry</text>
</g>
<!-- Node6 -->
<g id="node2" class="node">
<title>Node6</title>
<g id="a_node2"><a xlink:href="classaworx_1_1lib_1_1strings_1_1StringBase.html" target="_top" xlink:title="StringBase\&lt;character\&gt;">
<polygon fill="#ffffff" stroke="#000000" points="134,-134.5 134,-153.5 251,-153.5 251,-134.5 134,-134.5"/>
<text text-anchor="middle" x="192.5" y="-141.5" font-family="Helvetica,sans-Serif" font-size="10.00" fill="#000000">StringBase&lt;character&gt;</text>
</a>
</g>
</g>
<!-- Node5 -->
<g id="node6" class="node">
<title>Node5</title>
<g id="a_node6"><a xlink:href="structaworx_1_1lib_1_1expressions_1_1FunctionNameDescriptor.html" target="_top" xlink:title="FunctionNameDescriptor">
<polygon fill="#ffffff" stroke="#000000" points="130,-67.5 130,-86.5 255,-86.5 255,-67.5 130,-67.5"/>
<text text-anchor="middle" x="192.5" y="-74.5" font-family="Helvetica,sans-Serif" font-size="10.00" fill="#000000">FunctionNameDescriptor</text>
</a>
</g>
</g>
<!-- Node6&#45;&gt;Node5 -->
<g id="edge5" class="edge">
<title>Node6&#45;&gt;Node5</title>
<path fill="none" stroke="#9a32cd" stroke-dasharray="5,2" d="M192.5,-124.1079C192.5,-111.714 192.5,-96.3263 192.5,-86.5817"/>
<polygon fill="#9a32cd" stroke="#9a32cd" points="189.0001,-124.4005 192.5,-134.4005 196.0001,-124.4006 189.0001,-124.4005"/>
<text text-anchor="middle" x="207.5" y="-108" font-family="Helvetica,sans-Serif" font-size="10.00" fill="#000000"> Name</text>
</g>
<!-- Node2 -->
<g id="node3" class="node">
<title>Node2</title>
<g id="a_node3"><a xlink:href="classaworx_1_1lib_1_1boxing_1_1Box.html" target="_top" xlink:title="Box">
<polygon fill="#ffffff" stroke="#000000" points="77.5,-67.5 77.5,-86.5 111.5,-86.5 111.5,-67.5 77.5,-67.5"/>
<text text-anchor="middle" x="94.5" y="-74.5" font-family="Helvetica,sans-Serif" font-size="10.00" fill="#000000">Box</text>
</a>
</g>
</g>
<!-- Node2&#45;&gt;Node1 -->
<g id="edge1" class="edge">
<title>Node2&#45;&gt;Node1</title>
<path fill="none" stroke="#9a32cd" stroke-dasharray="5,2" d="M107.4096,-58.9803C116.4948,-46.2989 128.2981,-29.8235 135.6355,-19.5817"/>
<polygon fill="#9a32cd" stroke="#9a32cd" points="104.3559,-57.233 101.3772,-67.4005 110.0463,-61.3097 104.3559,-57.233"/>
<text text-anchor="middle" x="137.5" y="-41" font-family="Helvetica,sans-Serif" font-size="10.00" fill="#000000"> Result</text>
</g>
<!-- Node3 -->
<g id="node4" class="node">
<title>Node3</title>
<g id="a_node4"><a xlink:href="structaworx_1_1lib_1_1boxing_1_1BoxData.html" target="_top" xlink:title="BoxData">
<polygon fill="#ffffff" stroke="#000000" points="0,-134.5 0,-153.5 55,-153.5 55,-134.5 0,-134.5"/>
<text text-anchor="middle" x="27.5" y="-141.5" font-family="Helvetica,sans-Serif" font-size="10.00" fill="#000000">BoxData</text>
</a>
</g>
</g>
<!-- Node3&#45;&gt;Node2 -->
<g id="edge2" class="edge">
<title>Node3&#45;&gt;Node2</title>
<path fill="none" stroke="#9a32cd" stroke-dasharray="5,2" d="M44.4215,-127.0785C57.2361,-114.2639 74.3782,-97.1218 84.9183,-86.5817"/>
<polygon fill="#9a32cd" stroke="#9a32cd" points="41.6957,-124.8546 37.0995,-134.4005 46.6454,-129.8043 41.6957,-124.8546"/>
<text text-anchor="middle" x="76.5" y="-108" font-family="Helvetica,sans-Serif" font-size="10.00" fill="#000000"> data</text>
</g>
<!-- Node4 -->
<g id="node5" class="node">
<title>Node4</title>
<g id="a_node5"><a xlink:href="classaworx_1_1lib_1_1boxing_1_1Boxer.html" target="_top" xlink:title="Boxer">
<polygon fill="#ffffff" stroke="#000000" points="73.5,-134.5 73.5,-153.5 115.5,-153.5 115.5,-134.5 73.5,-134.5"/>
<text text-anchor="middle" x="94.5" y="-141.5" font-family="Helvetica,sans-Serif" font-size="10.00" fill="#000000">Boxer</text>
</a>
</g>
</g>
<!-- Node4&#45;&gt;Node2 -->
<g id="edge3" class="edge">
<title>Node4&#45;&gt;Node2</title>
<path fill="none" stroke="#9a32cd" stroke-dasharray="5,2" d="M94.5,-124.1079C94.5,-111.714 94.5,-96.3263 94.5,-86.5817"/>
<polygon fill="#9a32cd" stroke="#9a32cd" points="91.0001,-124.4005 94.5,-134.4005 98.0001,-124.4006 91.0001,-124.4005"/>
<text text-anchor="middle" x="108.5" y="-108" font-family="Helvetica,sans-Serif" font-size="10.00" fill="#000000"> boxer</text>
</g>
<!-- Node5&#45;&gt;Node1 -->
<g id="edge4" class="edge">
<title>Node5&#45;&gt;Node1</title>
<path fill="none" stroke="#9a32cd" stroke-dasharray="5,2" d="M179.3273,-59.3486C169.8279,-46.6194 157.3679,-29.9229 149.6505,-19.5817"/>
<polygon fill="#9a32cd" stroke="#9a32cd" points="176.5503,-61.4795 185.3362,-67.4005 182.1604,-57.2929 176.5503,-61.4795"/>
<text text-anchor="middle" x="195" y="-41" font-family="Helvetica,sans-Serif" font-size="10.00" fill="#000000"> Descriptor</text>
</g>
</g>
</svg>
