<?xml version="1.0" encoding="UTF-8" standalone="no"?>
<!DOCTYPE svg PUBLIC "-//W3C//DTD SVG 1.1//EN"
 "http://www.w3.org/Graphics/SVG/1.1/DTD/svg11.dtd">
<!-- Generated by graphviz version 2.40.1 (20161225.0304)
 -->
<!-- Title: CompilerPlugin::CompilationInfo Pages: 1 -->
<svg width="1020pt" height="236pt"
 viewBox="0.00 0.00 1020.00 236.00" xmlns="http://www.w3.org/2000/svg" xmlns:xlink="http://www.w3.org/1999/xlink">
<g id="graph0" class="graph" transform="scale(1 1) rotate(0) translate(4 232)">
<title>CompilerPlugin::CompilationInfo</title>
<polygon fill="#ffffff" stroke="transparent" points="-4,4 -4,-232 1016,-232 1016,4 -4,4"/>
<!-- Node5 -->
<g id="node1" class="node">
<title>Node5</title>
<polygon fill="#bfbfbf" stroke="#000000" points="855,-44.5 855,-63.5 1012,-63.5 1012,-44.5 855,-44.5"/>
<text text-anchor="middle" x="933.5" y="-51.5" font-family="Helvetica,sans-Serif" font-size="10.00" fill="#000000">CompilerPlugin::CompilationInfo</text>
</g>
<!-- Node6 -->
<g id="node2" class="node">
<title>Node6</title>
<polygon fill="#ffffff" stroke="#bfbfbf" points="576,-.5 576,-19.5 649,-19.5 649,-.5 576,-.5"/>
<text text-anchor="middle" x="612.5" y="-7.5" font-family="Helvetica,sans-Serif" font-size="10.00" fill="#000000">vector&lt;Box&gt;</text>
</g>
<!-- Node6&#45;&gt;Node5 -->
<g id="edge1" class="edge">
<title>Node6&#45;&gt;Node5</title>
<path fill="none" stroke="#9a32cd" stroke-dasharray="5,2" d="M659.3257,-12.0356C680.8971,-13.2687 706.8026,-15.1667 730,-18 784.4891,-24.6552 846.5354,-36.2143 887.6427,-44.4384"/>
<polygon fill="#9a32cd" stroke="#9a32cd" points="659.2899,-8.5286 649.1151,-11.4825 658.9112,-15.5183 659.2899,-8.5286"/>
<text text-anchor="middle" x="707" y="-32" font-family="Helvetica,sans-Serif" font-size="10.00" fill="#000000"> ArgsEnd</text>
<text text-anchor="middle" x="707" y="-21" font-family="Helvetica,sans-Serif" font-size="10.00" fill="#000000">ArgsBegin</text>
</g>
<!-- Node12 -->
<g id="node3" class="node">
<title>Node12</title>
<polygon fill="#ffffff" stroke="#bfbfbf" points="119,-196.5 119,-215.5 271,-215.5 271,-196.5 119,-196.5"/>
<text text-anchor="middle" x="195" y="-203.5" font-family="Helvetica,sans-Serif" font-size="10.00" fill="#000000">vector&lt;MemoryBlocks::Block&gt;</text>
</g>
<!-- Node11 -->
<g id="node11" class="node">
<title>Node11</title>
<g id="a_node11"><a xlink:href="classaworx_1_1lib_1_1util_1_1MemoryBlocks.html" target="_top" xlink:title="MemoryBlocks">
<polygon fill="#ffffff" stroke="#000000" points="404.5,-196.5 404.5,-215.5 486.5,-215.5 486.5,-196.5 404.5,-196.5"/>
<text text-anchor="middle" x="445.5" y="-203.5" font-family="Helvetica,sans-Serif" font-size="10.00" fill="#000000">MemoryBlocks</text>
</a>
</g>
</g>
<!-- Node12&#45;&gt;Node11 -->
<g id="edge10" class="edge">
<title>Node12&#45;&gt;Node11</title>
<path fill="none" stroke="#9a32cd" stroke-dasharray="5,2" d="M281.3315,-206C322.9495,-206 370.933,-206 404.2315,-206"/>
<polygon fill="#9a32cd" stroke="#9a32cd" points="281.1786,-202.5001 271.1785,-206 281.1785,-209.5001 281.1786,-202.5001"/>
<text text-anchor="middle" x="310.5" y="-220" font-family="Helvetica,sans-Serif" font-size="10.00" fill="#000000"> blocks</text>
<text text-anchor="middle" x="310.5" y="-209" font-family="Helvetica,sans-Serif" font-size="10.00" fill="#000000">actBlock</text>
</g>
<!-- Node14 -->
<g id="node4" class="node">
<title>Node14</title>
<polygon fill="#ffffff" stroke="#bfbfbf" points="350,-158.5 350,-177.5 541,-177.5 541,-158.5 350,-158.5"/>
<text text-anchor="middle" x="445.5" y="-165.5" font-family="Helvetica,sans-Serif" font-size="10.00" fill="#000000">vector&lt;expressions::ScopeResource *&gt;</text>
</g>
<!-- Node10 -->
<g id="node10" class="node">
<title>Node10</title>
<g id="a_node10"><a xlink:href="structaworx_1_1lib_1_1expressions_1_1Scope.html" target="_top" xlink:title="Scope">
<polygon fill="#ffffff" stroke="#000000" points="685,-123.5 685,-142.5 729,-142.5 729,-123.5 685,-123.5"/>
<text text-anchor="middle" x="707" y="-130.5" font-family="Helvetica,sans-Serif" font-size="10.00" fill="#000000">Scope</text>
</a>
</g>
</g>
<!-- Node14&#45;&gt;Node10 -->
<g id="edge11" class="edge">
<title>Node14&#45;&gt;Node10</title>
<path fill="none" stroke="#9a32cd" stroke-dasharray="5,2" d="M551.2151,-160.8829C587.7846,-157.3888 628.892,-152.3034 666,-145 672.1127,-143.7969 678.6283,-142.0914 684.6242,-140.3426"/>
<polygon fill="#9a32cd" stroke="#9a32cd" points="550.6625,-157.419 541.0281,-161.8267 551.3083,-164.3891 550.6625,-157.419"/>
<text text-anchor="middle" x="612.5" y="-162" font-family="Helvetica,sans-Serif" font-size="10.00" fill="#000000"> Resources</text>
</g>
<!-- Node16 -->
<g id="node5" class="node">
<title>Node16</title>
<polygon fill="#ffffff" stroke="#bfbfbf" points="360.5,-120.5 360.5,-139.5 530.5,-139.5 530.5,-120.5 360.5,-120.5"/>
<text text-anchor="middle" x="445.5" y="-127.5" font-family="Helvetica,sans-Serif" font-size="10.00" fill="#000000">vector&lt;expressions::Expression *&gt;</text>
</g>
<!-- Node16&#45;&gt;Node10 -->
<g id="edge13" class="edge">
<title>Node16&#45;&gt;Node10</title>
<path fill="none" stroke="#9a32cd" stroke-dasharray="5,2" d="M541.0644,-131.0963C593.162,-131.694 653.3117,-132.3841 684.9353,-132.7469"/>
<polygon fill="#9a32cd" stroke="#9a32cd" points="540.8026,-127.5932 530.763,-130.9782 540.7222,-134.5927 540.8026,-127.5932"/>
<text text-anchor="middle" x="612.5" y="-135" font-family="Helvetica,sans-Serif" font-size="10.00" fill="#000000"> nestedExpressionStack</text>
</g>
<!-- Node59 -->
<g id="node6" class="node">
<title>Node59</title>
<polygon fill="#ffffff" stroke="#bfbfbf" points="409,-82.5 409,-101.5 482,-101.5 482,-82.5 409,-82.5"/>
<text text-anchor="middle" x="445.5" y="-89.5" font-family="Helvetica,sans-Serif" font-size="10.00" fill="#000000">vector&lt;Box&gt;</text>
</g>
<!-- Node59&#45;&gt;Node10 -->
<g id="edge15" class="edge">
<title>Node59&#45;&gt;Node10</title>
<path fill="none" stroke="#9a32cd" stroke-dasharray="5,2" d="M492.4312,-93.2516C537.547,-95.3534 607.3403,-100.9756 666,-116 673.0168,-117.7972 680.4086,-120.5666 686.9538,-123.352"/>
<polygon fill="#9a32cd" stroke="#9a32cd" points="492.4946,-89.7512 482.3545,-92.8217 492.1962,-96.7448 492.4946,-89.7512"/>
<text text-anchor="middle" x="612.5" y="-119" font-family="Helvetica,sans-Serif" font-size="10.00" fill="#000000"> Stack</text>
</g>
<!-- Node7 -->
<g id="node7" class="node">
<title>Node7</title>
<g id="a_node7"><a xlink:href="classaworx_1_1lib_1_1boxing_1_1Box.html" target="_top" xlink:title="Box">
<polygon fill="#ffffff" stroke="#000000" points="178,-44.5 178,-63.5 212,-63.5 212,-44.5 178,-44.5"/>
<text text-anchor="middle" x="195" y="-51.5" font-family="Helvetica,sans-Serif" font-size="10.00" fill="#000000">Box</text>
</a>
</g>
</g>
<!-- Node7&#45;&gt;Node5 -->
<g id="edge2" class="edge">
<title>Node7&#45;&gt;Node5</title>
<path fill="none" stroke="#9a32cd" stroke-dasharray="5,2" d="M222.3551,-54C325.376,-54 692.3506,-54 854.9622,-54"/>
<polygon fill="#9a32cd" stroke="#9a32cd" points="222.1678,-50.5001 212.1677,-54 222.1677,-57.5001 222.1678,-50.5001"/>
<text text-anchor="middle" x="612.5" y="-68" font-family="Helvetica,sans-Serif" font-size="10.00" fill="#000000"> TypeOrValue</text>
<text text-anchor="middle" x="612.5" y="-57" font-family="Helvetica,sans-Serif" font-size="10.00" fill="#000000">Callback</text>
</g>
<!-- Node7&#45;&gt;Node6 -->
<g id="edge3" class="edge">
<title>Node7&#45;&gt;Node6</title>
<path fill="none" stroke="#9a32cd" stroke-dasharray="5,2" d="M221.6861,-45.3641C240.3349,-39.7105 265.9288,-32.7067 289,-29 392.0408,-12.445 515.6095,-9.9057 575.8541,-9.7626"/>
<polygon fill="#9a32cd" stroke="#9a32cd" points="220.6151,-42.0317 212.1004,-48.3365 222.6884,-48.7176 220.6151,-42.0317"/>
<text text-anchor="middle" x="310.5" y="-32" font-family="Helvetica,sans-Serif" font-size="10.00" fill="#000000"> elements</text>
</g>
<!-- Node7&#45;&gt;Node59 -->
<g id="edge4" class="edge">
<title>Node7&#45;&gt;Node59</title>
<path fill="none" stroke="#9a32cd" stroke-dasharray="5,2" d="M222.1658,-58.121C267.3562,-64.9762 358.0161,-78.729 408.83,-86.4373"/>
<polygon fill="#9a32cd" stroke="#9a32cd" points="222.6297,-54.6514 212.2179,-56.6119 221.5798,-61.5722 222.6297,-54.6514"/>
<text text-anchor="middle" x="310.5" y="-77" font-family="Helvetica,sans-Serif" font-size="10.00" fill="#000000"> elements</text>
</g>
<!-- Node8 -->
<g id="node8" class="node">
<title>Node8</title>
<g id="a_node8"><a xlink:href="structaworx_1_1lib_1_1boxing_1_1BoxData.html" target="_top" xlink:title="BoxData">
<polygon fill="#ffffff" stroke="#000000" points="0,-63.5 0,-82.5 55,-82.5 55,-63.5 0,-63.5"/>
<text text-anchor="middle" x="27.5" y="-70.5" font-family="Helvetica,sans-Serif" font-size="10.00" fill="#000000">BoxData</text>
</a>
</g>
</g>
<!-- Node8&#45;&gt;Node7 -->
<g id="edge5" class="edge">
<title>Node8&#45;&gt;Node7</title>
<path fill="none" stroke="#9a32cd" stroke-dasharray="5,2" d="M65.518,-68.6875C100.6387,-64.7037 151.2342,-58.9645 177.5731,-55.9768"/>
<polygon fill="#9a32cd" stroke="#9a32cd" points="64.701,-65.2577 55.1592,-69.8625 65.49,-72.213 64.701,-65.2577"/>
<text text-anchor="middle" x="87" y="-70" font-family="Helvetica,sans-Serif" font-size="10.00" fill="#000000"> data</text>
</g>
<!-- Node9 -->
<g id="node9" class="node">
<title>Node9</title>
<g id="a_node9"><a xlink:href="classaworx_1_1lib_1_1boxing_1_1Boxer.html" target="_top" xlink:title="Boxer">
<polygon fill="#ffffff" stroke="#000000" points="6.5,-25.5 6.5,-44.5 48.5,-44.5 48.5,-25.5 6.5,-25.5"/>
<text text-anchor="middle" x="27.5" y="-32.5" font-family="Helvetica,sans-Serif" font-size="10.00" fill="#000000">Boxer</text>
</a>
</g>
</g>
<!-- Node9&#45;&gt;Node7 -->
<g id="edge6" class="edge">
<title>Node9&#45;&gt;Node7</title>
<path fill="none" stroke="#9a32cd" stroke-dasharray="5,2" d="M58.8847,-38.5601C93.9429,-42.5368 149.4466,-48.8328 177.5142,-52.0165"/>
<polygon fill="#9a32cd" stroke="#9a32cd" points="59.0448,-35.0559 48.714,-37.4064 58.2558,-42.0112 59.0448,-35.0559"/>
<text text-anchor="middle" x="87" y="-45" font-family="Helvetica,sans-Serif" font-size="10.00" fill="#000000"> boxer</text>
</g>
<!-- Node10&#45;&gt;Node5 -->
<g id="edge7" class="edge">
<title>Node10&#45;&gt;Node5</title>
<path fill="none" stroke="#9a32cd" stroke-dasharray="5,2" d="M738.595,-121.9801C783.1787,-106.43 863.8142,-78.3054 906.0361,-63.579"/>
<polygon fill="#9a32cd" stroke="#9a32cd" points="737.4197,-118.6832 729.1302,-125.2813 739.725,-125.2927 737.4197,-118.6832"/>
<text text-anchor="middle" x="792.5" y="-120" font-family="Helvetica,sans-Serif" font-size="10.00" fill="#000000"> CompileTimeScope</text>
</g>
<!-- Node10&#45;&gt;Node10 -->
<g id="edge8" class="edge">
<title>Node10&#45;&gt;Node10</title>
<path fill="none" stroke="#9a32cd" stroke-dasharray="5,2" d="M691.5309,-152.7663C692.7459,-157.4965 697.9022,-161 707,-161 721.9297,-161 726.2453,-151.5653 719.9468,-142.7571"/>
<polygon fill="#9a32cd" stroke="#9a32cd" points="695.0034,-153.3092 694.0532,-142.7571 688.2156,-151.5986 695.0034,-153.3092"/>
<text text-anchor="middle" x="707" y="-164" font-family="Helvetica,sans-Serif" font-size="10.00" fill="#000000"> CTScope</text>
</g>
<!-- Node11&#45;&gt;Node10 -->
<g id="edge9" class="edge">
<title>Node11&#45;&gt;Node10</title>
<path fill="none" stroke="#9a32cd" stroke-dasharray="5,2" d="M496.9615,-207.5282C543.4768,-206.8828 612.6345,-200.7569 666,-174 680.5779,-166.6908 693.1242,-152.2138 700.3723,-142.5677"/>
<polygon fill="#9a32cd" stroke="#9a32cd" points="496.7923,-204.029 486.8128,-207.5872 496.833,-211.0289 496.7923,-204.029"/>
<text text-anchor="middle" x="612.5" y="-206" font-family="Helvetica,sans-Serif" font-size="10.00" fill="#000000"> Memory</text>
</g>
<!-- Node15 -->
<g id="node12" class="node">
<title>Node15</title>
<g id="a_node12"><a xlink:href="structaworx_1_1lib_1_1expressions_1_1ScopeResource.html" target="_top" xlink:title="ScopeResource">
<polygon fill="#ffffff" stroke="#000000" points="152,-158.5 152,-177.5 238,-177.5 238,-158.5 152,-158.5"/>
<text text-anchor="middle" x="195" y="-165.5" font-family="Helvetica,sans-Serif" font-size="10.00" fill="#000000">ScopeResource</text>
</a>
</g>
</g>
<!-- Node15&#45;&gt;Node14 -->
<g id="edge12" class="edge">
<title>Node15&#45;&gt;Node14</title>
<path fill="none" stroke="#9a32cd" stroke-dasharray="5,2" d="M248.153,-168C277.689,-168 315.3359,-168 349.8132,-168"/>
<polygon fill="#9a32cd" stroke="#9a32cd" points="248.0625,-164.5001 238.0625,-168 248.0625,-171.5001 248.0625,-164.5001"/>
<text text-anchor="middle" x="310.5" y="-171" font-family="Helvetica,sans-Serif" font-size="10.00" fill="#000000"> elements</text>
</g>
<!-- Node17 -->
<g id="node13" class="node">
<title>Node17</title>
<g id="a_node13"><a xlink:href="classaworx_1_1lib_1_1expressions_1_1Expression.html" target="_top" xlink:title="Expression">
<polygon fill="#ffffff" stroke="#ff0000" points="162.5,-120.5 162.5,-139.5 227.5,-139.5 227.5,-120.5 162.5,-120.5"/>
<text text-anchor="middle" x="195" y="-127.5" font-family="Helvetica,sans-Serif" font-size="10.00" fill="#000000">Expression</text>
</a>
</g>
</g>
<!-- Node17&#45;&gt;Node16 -->
<g id="edge14" class="edge">
<title>Node17&#45;&gt;Node16</title>
<path fill="none" stroke="#9a32cd" stroke-dasharray="5,2" d="M238.1248,-130C271.6867,-130 319.3174,-130 360.4682,-130"/>
<polygon fill="#9a32cd" stroke="#9a32cd" points="237.7485,-126.5001 227.7485,-130 237.7485,-133.5001 237.7485,-126.5001"/>
<text text-anchor="middle" x="310.5" y="-133" font-family="Helvetica,sans-Serif" font-size="10.00" fill="#000000"> elements</text>
</g>
</g>
</svg>
