<?xml version="1.0" encoding="UTF-8" standalone="no"?>
<!DOCTYPE svg PUBLIC "-//W3C//DTD SVG 1.1//EN"
 "http://www.w3.org/Graphics/SVG/1.1/DTD/svg11.dtd">
<!-- Generated by graphviz version 2.40.1 (20161225.0304)
 -->
<!-- Title: ArgumentDef Pages: 1 -->
<svg width="1004pt" height="467pt"
 viewBox="0.00 0.00 1004.00 467.34" xmlns="http://www.w3.org/2000/svg" xmlns:xlink="http://www.w3.org/1999/xlink">
<g id="graph0" class="graph" transform="scale(1 1) rotate(0) translate(4 463.3406)">
<title>ArgumentDef</title>
<polygon fill="#ffffff" stroke="transparent" points="-4,4 -4,-463.3406 1000,-463.3406 1000,4 -4,4"/>
<!-- Node4 -->
<g id="node1" class="node">
<title>Node4</title>
<polygon fill="#bfbfbf" stroke="#000000" points="0,-228.2778 0,-247.2778 74,-247.2778 74,-228.2778 0,-228.2778"/>
<text text-anchor="middle" x="37" y="-235.2778" font-family="Helvetica,sans-Serif" font-size="10.00" fill="#000000">ArgumentDef</text>
</g>
<!-- Node53 -->
<g id="node12" class="node">
<title>Node53</title>
<g id="a_node12"><a xlink:href="structaworx_1_1lib_1_1cli_1_1Command.html" target="_top" xlink:title="Command">
<polygon fill="#ffffff" stroke="#ff0000" points="130,-76.2778 130,-95.2778 192,-95.2778 192,-76.2778 130,-76.2778"/>
<text text-anchor="middle" x="161" y="-83.2778" font-family="Helvetica,sans-Serif" font-size="10.00" fill="#000000">Command</text>
</a>
</g>
</g>
<!-- Node4&#45;&gt;Node53 -->
<g id="edge1" class="edge">
<title>Node4&#45;&gt;Node53</title>
<path fill="none" stroke="#191970" d="M42.893,-218.6445C52.6239,-190.0563 74.6715,-136.1997 111,-104.7778 116.4081,-100.1001 123.0863,-96.5175 129.7814,-93.7943"/>
<polygon fill="#191970" stroke="#191970" points="39.5288,-217.6723 39.7626,-228.2646 46.1852,-219.8384 39.5288,-217.6723"/>
</g>
<!-- Node6 -->
<g id="node2" class="node">
<title>Node6</title>
<polygon fill="#ffffff" stroke="#bfbfbf" points="311,-342.2778 311,-361.2778 431,-361.2778 431,-342.2778 311,-342.2778"/>
<text text-anchor="middle" x="371" y="-349.2778" font-family="Helvetica,sans-Serif" font-size="10.00" fill="#000000">vector&lt;cli::OptionDecl&gt;</text>
</g>
<!-- Node5 -->
<g id="node13" class="node">
<title>Node5</title>
<g id="a_node13"><a xlink:href="classaworx_1_1lib_1_1cli_1_1CLIApp.html" target="_top" xlink:title="CLIApp">
<polygon fill="#ffffff" stroke="#000000" points="580,-187.2778 580,-206.2778 630,-206.2778 630,-187.2778 580,-187.2778"/>
<text text-anchor="middle" x="605" y="-194.2778" font-family="Helvetica,sans-Serif" font-size="10.00" fill="#000000">CLIApp</text>
</a>
</g>
</g>
<!-- Node6&#45;&gt;Node5 -->
<g id="edge4" class="edge">
<title>Node6&#45;&gt;Node5</title>
<path fill="none" stroke="#9a32cd" stroke-dasharray="5,2" d="M436.0486,-362.1115C476.5241,-364.8142 527.2966,-360.9478 562,-332.7778 582.2836,-316.3127 598.3424,-234.5995 603.3614,-206.381"/>
<polygon fill="#9a32cd" stroke="#9a32cd" points="436.247,-358.6162 425.9961,-361.2936 435.6793,-365.5931 436.247,-358.6162"/>
<text text-anchor="middle" x="516" y="-364.7778" font-family="Helvetica,sans-Serif" font-size="10.00" fill="#000000"> OptionDecls</text>
</g>
<!-- Node48 -->
<g id="node3" class="node">
<title>Node48</title>
<polygon fill="#ffffff" stroke="#bfbfbf" points="290,-304.2778 290,-323.2778 452,-323.2778 452,-304.2778 290,-304.2778"/>
<text text-anchor="middle" x="371" y="-311.2778" font-family="Helvetica,sans-Serif" font-size="10.00" fill="#000000">map&lt;Enum, vector&lt;cli::Option&gt;&gt;</text>
</g>
<!-- Node48&#45;&gt;Node5 -->
<g id="edge11" class="edge">
<title>Node48&#45;&gt;Node5</title>
<path fill="none" stroke="#9a32cd" stroke-dasharray="5,2" d="M462.1021,-309.5765C503.0836,-306.0605 545.8521,-299.6092 562,-287.7778 589.4855,-267.6394 600.0478,-225.381 603.5209,-206.3856"/>
<polygon fill="#9a32cd" stroke="#9a32cd" points="461.7045,-306.097 452.0173,-310.3877 462.2658,-313.0745 461.7045,-306.097"/>
<text text-anchor="middle" x="516" y="-321.7778" font-family="Helvetica,sans-Serif" font-size="10.00" fill="#000000"> OptionsOverwritten</text>
<text text-anchor="middle" x="516" y="-310.7778" font-family="Helvetica,sans-Serif" font-size="10.00" fill="#000000">OptionsFound</text>
</g>
<!-- Node49 -->
<g id="node4" class="node">
<title>Node49</title>
<polygon fill="#ffffff" stroke="#bfbfbf" points="111,-304.2778 111,-323.2778 211,-323.2778 211,-304.2778 111,-304.2778"/>
<text text-anchor="middle" x="161" y="-311.2778" font-family="Helvetica,sans-Serif" font-size="10.00" fill="#000000">vector&lt;cli::Option&gt;</text>
</g>
<!-- Node49&#45;&gt;Node48 -->
<g id="edge12" class="edge">
<title>Node49&#45;&gt;Node48</title>
<path fill="none" stroke="#9a32cd" stroke-dasharray="5,2" d="M221.2466,-313.7778C242.5888,-313.7778 266.9658,-313.7778 289.7651,-313.7778"/>
<polygon fill="#9a32cd" stroke="#9a32cd" points="221.0335,-310.2779 211.0334,-313.7778 221.0334,-317.2779 221.0335,-310.2779"/>
<text text-anchor="middle" x="250.5" y="-316.7778" font-family="Helvetica,sans-Serif" font-size="10.00" fill="#000000"> elements</text>
</g>
<!-- Node17 -->
<g id="node5" class="node">
<title>Node17</title>
<polygon fill="#ffffff" stroke="#bfbfbf" points="316,-266.2778 316,-285.2778 426,-285.2778 426,-266.2778 316,-266.2778"/>
<text text-anchor="middle" x="371" y="-273.2778" font-family="Helvetica,sans-Serif" font-size="10.00" fill="#000000">vector&lt;AStringBase&gt;</text>
</g>
<!-- Node17&#45;&gt;Node5 -->
<g id="edge7" class="edge">
<title>Node17&#45;&gt;Node5</title>
<path fill="none" stroke="#9a32cd" stroke-dasharray="5,2" d="M436.389,-278.5879C475.1542,-277.507 523.9762,-271.1588 562,-249.7778 579.9708,-239.6727 593.3775,-218.8195 600.1223,-206.4972"/>
<polygon fill="#9a32cd" stroke="#9a32cd" points="436.192,-275.0906 426.2524,-278.7585 436.3099,-282.0897 436.192,-275.0906"/>
<text text-anchor="middle" x="516" y="-278.7778" font-family="Helvetica,sans-Serif" font-size="10.00" fill="#000000"> convertedArgStrings</text>
</g>
<!-- Node37 -->
<g id="node6" class="node">
<title>Node37</title>
<polygon fill="#ffffff" stroke="#bfbfbf" points="319,-228.2778 319,-247.2778 423,-247.2778 423,-228.2778 319,-228.2778"/>
<text text-anchor="middle" x="371" y="-235.2778" font-family="Helvetica,sans-Serif" font-size="10.00" fill="#000000">vector&lt;StringBase&gt;</text>
</g>
<!-- Node37&#45;&gt;Node5 -->
<g id="edge8" class="edge">
<title>Node37&#45;&gt;Node5</title>
<path fill="none" stroke="#9a32cd" stroke-dasharray="5,2" d="M433.4559,-230.2435C470.9332,-225.2397 519.4357,-217.913 562,-208.7778 567.7593,-207.5417 573.8887,-205.9819 579.6611,-204.3996"/>
<polygon fill="#9a32cd" stroke="#9a32cd" points="432.6504,-226.8191 423.1919,-231.5927 433.5628,-233.7594 432.6504,-226.8191"/>
<text text-anchor="middle" x="516" y="-237.7778" font-family="Helvetica,sans-Serif" font-size="10.00" fill="#000000"> OptionArgsIgnored</text>
<text text-anchor="middle" x="516" y="-226.7778" font-family="Helvetica,sans-Serif" font-size="10.00" fill="#000000">ArgStrings</text>
</g>
<!-- Node51 -->
<g id="node7" class="node">
<title>Node51</title>
<polygon fill="#ffffff" stroke="#bfbfbf" points="330,-190.2778 330,-209.2778 412,-209.2778 412,-190.2778 330,-190.2778"/>
<text text-anchor="middle" x="371" y="-197.2778" font-family="Helvetica,sans-Serif" font-size="10.00" fill="#000000">vector&lt;size_t&gt;</text>
</g>
<!-- Node51&#45;&gt;Node5 -->
<g id="edge13" class="edge">
<title>Node51&#45;&gt;Node5</title>
<path fill="none" stroke="#9a32cd" stroke-dasharray="5,2" d="M422.7002,-198.6084C437.9344,-198.2976 454.637,-197.9898 470,-197.7778 508.3177,-197.2488 552.7573,-196.9876 579.8691,-196.8679"/>
<polygon fill="#9a32cd" stroke="#9a32cd" points="422.3472,-195.1149 412.4224,-198.8229 422.4933,-202.1134 422.3472,-195.1149"/>
<text text-anchor="middle" x="516" y="-200.7778" font-family="Helvetica,sans-Serif" font-size="10.00" fill="#000000"> ArgsLeft</text>
</g>
<!-- Node52 -->
<g id="node8" class="node">
<title>Node52</title>
<polygon fill="#ffffff" stroke="#bfbfbf" points="313,-76.2778 313,-95.2778 429,-95.2778 429,-76.2778 313,-76.2778"/>
<text text-anchor="middle" x="371" y="-83.2778" font-family="Helvetica,sans-Serif" font-size="10.00" fill="#000000">vector&lt;cli::Command&gt;</text>
</g>
<!-- Node52&#45;&gt;Node5 -->
<g id="edge14" class="edge">
<title>Node52&#45;&gt;Node5</title>
<path fill="none" stroke="#9a32cd" stroke-dasharray="5,2" d="M439.1916,-80.1337C478.4257,-80.3028 526.7683,-86.6854 562,-111.7778 587.9982,-130.2939 599.2361,-169.203 603.1927,-187.2322"/>
<polygon fill="#9a32cd" stroke="#9a32cd" points="439.1361,-76.634 429.1675,-80.2225 439.1982,-83.6337 439.1361,-76.634"/>
<text text-anchor="middle" x="516" y="-114.7778" font-family="Helvetica,sans-Serif" font-size="10.00" fill="#000000"> CommandsParsed</text>
</g>
<!-- Node61 -->
<g id="node9" class="node">
<title>Node61</title>
<polygon fill="#ffffff" stroke="#bfbfbf" points="293.5,-152.2778 293.5,-171.2778 448.5,-171.2778 448.5,-152.2778 293.5,-152.2778"/>
<text text-anchor="middle" x="371" y="-159.2778" font-family="Helvetica,sans-Serif" font-size="10.00" fill="#000000">map&lt;Enum, cli::ExitCodeDecl&gt;</text>
</g>
<!-- Node61&#45;&gt;Node5 -->
<g id="edge19" class="edge">
<title>Node61&#45;&gt;Node5</title>
<path fill="none" stroke="#9a32cd" stroke-dasharray="5,2" d="M458.7781,-166.6911C491.4533,-169.637 528.6795,-174.3272 562,-181.7778 568.1727,-183.158 574.6867,-185.1404 580.7259,-187.2139"/>
<polygon fill="#9a32cd" stroke="#9a32cd" points="459.0563,-163.2022 448.793,-165.8317 458.456,-170.1764 459.0563,-163.2022"/>
<text text-anchor="middle" x="516" y="-184.7778" font-family="Helvetica,sans-Serif" font-size="10.00" fill="#000000"> ExitCodeDecls</text>
</g>
<!-- Node64 -->
<g id="node10" class="node">
<title>Node64</title>
<polygon fill="#ffffff" stroke="#bfbfbf" points="302.5,-114.2778 302.5,-133.2778 439.5,-133.2778 439.5,-114.2778 302.5,-114.2778"/>
<text text-anchor="middle" x="371" y="-121.2778" font-family="Helvetica,sans-Serif" font-size="10.00" fill="#000000">vector&lt;cli::ParameterDecl&gt;</text>
</g>
<!-- Node64&#45;&gt;Node5 -->
<g id="edge21" class="edge">
<title>Node64&#45;&gt;Node5</title>
<path fill="none" stroke="#9a32cd" stroke-dasharray="5,2" d="M450.063,-124.4892C485.8829,-127.5827 527.7736,-135.2285 562,-152.7778 577.5873,-160.77 590.8506,-176.5798 598.3705,-186.9109"/>
<polygon fill="#9a32cd" stroke="#9a32cd" points="449.8817,-120.9655 439.6461,-123.701 449.3535,-127.9456 449.8817,-120.9655"/>
<text text-anchor="middle" x="516" y="-155.7778" font-family="Helvetica,sans-Serif" font-size="10.00" fill="#000000"> ParameterDecls</text>
</g>
<!-- Node65 -->
<g id="node11" class="node">
<title>Node65</title>
<polygon fill="#ffffff" stroke="#bfbfbf" points="859,-164.2778 859,-183.2778 996,-183.2778 996,-164.2778 859,-164.2778"/>
<text text-anchor="middle" x="927.5" y="-171.2778" font-family="Helvetica,sans-Serif" font-size="10.00" fill="#000000">vector&lt;cli::CommandDecl&gt;</text>
</g>
<!-- Node65&#45;&gt;Node5 -->
<g id="edge22" class="edge">
<title>Node65&#45;&gt;Node5</title>
<path fill="none" stroke="#9a32cd" stroke-dasharray="5,2" d="M848.6844,-179.3987C777.2795,-184.4912 676.3747,-191.6875 630.0377,-194.9921"/>
<polygon fill="#9a32cd" stroke="#9a32cd" points="849.2698,-182.866 858.9955,-178.6634 848.7718,-175.8837 849.2698,-182.866"/>
<text text-anchor="middle" x="739" y="-192.7778" font-family="Helvetica,sans-Serif" font-size="10.00" fill="#000000"> CommandDecls</text>
</g>
<!-- Node53&#45;&gt;Node52 -->
<g id="edge15" class="edge">
<title>Node53&#45;&gt;Node52</title>
<path fill="none" stroke="#9a32cd" stroke-dasharray="5,2" d="M202.622,-85.7778C234.1106,-85.7778 277.75,-85.7778 312.7114,-85.7778"/>
<polygon fill="#9a32cd" stroke="#9a32cd" points="202.4392,-82.2779 192.4391,-85.7778 202.4391,-89.2779 202.4392,-82.2779"/>
<text text-anchor="middle" x="250.5" y="-88.7778" font-family="Helvetica,sans-Serif" font-size="10.00" fill="#000000"> elements</text>
</g>
<!-- Node5&#45;&gt;Node4 -->
<g id="edge2" class="edge">
<title>Node5&#45;&gt;Node4</title>
<path fill="none" stroke="#9a32cd" stroke-dasharray="5,2" d="M603.2544,-216.6639C599.0776,-259.0677 586.9468,-356.1141 562,-375.7778 404.5694,-499.8686 283.0886,-473.5806 111,-370.7778 64.0435,-342.7268 44.6415,-273.0809 38.9345,-247.4473"/>
<polygon fill="#9a32cd" stroke="#9a32cd" points="606.7603,-216.7628 604.2063,-206.4804 599.7907,-216.1112 606.7603,-216.7628"/>
<text text-anchor="middle" x="250.5" y="-448.7778" font-family="Helvetica,sans-Serif" font-size="10.00" fill="#000000"> Parent</text>
</g>
<!-- Node58 -->
<g id="node14" class="node">
<title>Node58</title>
<g id="a_node14"><a xlink:href="structaworx_1_1lib_1_1cli_1_1CommandDecl.html" target="_top" xlink:title="CommandDecl">
<polygon fill="#ffffff" stroke="#ff0000" points="698,-141.2778 698,-160.2778 780,-160.2778 780,-141.2778 698,-141.2778"/>
<text text-anchor="middle" x="739" y="-148.2778" font-family="Helvetica,sans-Serif" font-size="10.00" fill="#000000">CommandDecl</text>
</a>
</g>
</g>
<!-- Node5&#45;&gt;Node58 -->
<g id="edge3" class="edge">
<title>Node5&#45;&gt;Node58</title>
<path fill="none" stroke="#9a32cd" stroke-dasharray="5,2" d="M627.8675,-181.7854C634.1982,-178.1115 641.2023,-174.467 648,-171.7778 663.8307,-165.515 681.9841,-160.8569 697.8916,-157.5407"/>
<polygon fill="#9a32cd" stroke="#9a32cd" points="625.8949,-178.8888 619.1767,-187.0813 629.5375,-184.8664 625.8949,-178.8888"/>
<text text-anchor="middle" x="664" y="-174.7778" font-family="Helvetica,sans-Serif" font-size="10.00" fill="#000000"> Parent</text>
</g>
<!-- Node58&#45;&gt;Node65 -->
<g id="edge18" class="edge">
<title>Node58&#45;&gt;Node65</title>
<path fill="none" stroke="#9a32cd" stroke-dasharray="5,2" d="M790.4025,-157.0497C811.4912,-159.6228 836.2157,-162.6396 858.818,-165.3975"/>
<polygon fill="#9a32cd" stroke="#9a32cd" points="790.7174,-153.5622 780.3671,-155.8252 789.8696,-160.5107 790.7174,-153.5622"/>
<text text-anchor="middle" x="819.5" y="-165.7778" font-family="Helvetica,sans-Serif" font-size="10.00" fill="#000000"> elements</text>
</g>
<!-- Node58&#45;&gt;Node53 -->
<g id="edge17" class="edge">
<title>Node58&#45;&gt;Node53</title>
<path fill="none" stroke="#9a32cd" stroke-dasharray="5,2" d="M723.1122,-133.568C694.3858,-103.8747 630.4085,-44.0612 562,-21.7778 447.0175,15.6767 407.8139,-1.507 290,-28.7778 247.3013,-38.6614 201.2451,-62.5911 177.4023,-76.0921"/>
<polygon fill="#9a32cd" stroke="#9a32cd" points="720.8298,-136.2473 730.2541,-141.0881 725.9055,-131.4268 720.8298,-136.2473"/>
<text text-anchor="middle" x="516" y="-24.7778" font-family="Helvetica,sans-Serif" font-size="10.00" fill="#000000"> Declaration</text>
</g>
<!-- Node7 -->
<g id="node15" class="node">
<title>Node7</title>
<g id="a_node15"><a xlink:href="structaworx_1_1lib_1_1cli_1_1OptionDecl.html" target="_top" xlink:title="OptionDecl">
<polygon fill="#ffffff" stroke="#ff0000" points="128.5,-342.2778 128.5,-361.2778 193.5,-361.2778 193.5,-342.2778 128.5,-342.2778"/>
<text text-anchor="middle" x="161" y="-349.2778" font-family="Helvetica,sans-Serif" font-size="10.00" fill="#000000">OptionDecl</text>
</a>
</g>
</g>
<!-- Node7&#45;&gt;Node6 -->
<g id="edge5" class="edge">
<title>Node7&#45;&gt;Node6</title>
<path fill="none" stroke="#9a32cd" stroke-dasharray="5,2" d="M203.822,-351.7778C234.6848,-351.7778 276.7499,-351.7778 310.963,-351.7778"/>
<polygon fill="#9a32cd" stroke="#9a32cd" points="203.8125,-348.2779 193.8125,-351.7778 203.8125,-355.2779 203.8125,-348.2779"/>
<text text-anchor="middle" x="250.5" y="-354.7778" font-family="Helvetica,sans-Serif" font-size="10.00" fill="#000000"> elements</text>
</g>
<!-- Node9 -->
<g id="node16" class="node">
<title>Node9</title>
<g id="a_node16"><a xlink:href="classaworx_1_1lib_1_1lang_1_1Library.html" target="_top" xlink:title="Library">
<polygon fill="#ffffff" stroke="#ff0000" points="348,-38.2778 348,-57.2778 394,-57.2778 394,-38.2778 348,-38.2778"/>
<text text-anchor="middle" x="371" y="-45.2778" font-family="Helvetica,sans-Serif" font-size="10.00" fill="#000000">Library</text>
</a>
</g>
</g>
<!-- Node9&#45;&gt;Node5 -->
<g id="edge6" class="edge">
<title>Node9&#45;&gt;Node5</title>
<path fill="none" stroke="#9a32cd" stroke-dasharray="5,2" d="M404.1302,-41.0938C445.718,-34.7267 517.0404,-30.7723 562,-66.7778 581.483,-82.3805 597.9369,-159.8636 603.221,-187.2054"/>
<polygon fill="#9a32cd" stroke="#9a32cd" points="403.5213,-37.6469 394.2318,-42.7417 404.6709,-44.5519 403.5213,-37.6469"/>
<text text-anchor="middle" x="516" y="-69.7778" font-family="Helvetica,sans-Serif" font-size="10.00" fill="#000000"> ResLibrary</text>
</g>
<!-- Node44 -->
<g id="node17" class="node">
<title>Node44</title>
<g id="a_node17"><a xlink:href="structaworx_1_1lib_1_1lang_1_1Enum.html" target="_top" xlink:title="Enum">
<polygon fill="#ffffff" stroke="#ff0000" points="140,-251.2778 140,-270.2778 182,-270.2778 182,-251.2778 140,-251.2778"/>
<text text-anchor="middle" x="161" y="-258.2778" font-family="Helvetica,sans-Serif" font-size="10.00" fill="#000000">Enum</text>
</a>
</g>
</g>
<!-- Node44&#45;&gt;Node48 -->
<g id="edge9" class="edge">
<title>Node44&#45;&gt;Node48</title>
<path fill="none" stroke="#9a32cd" stroke-dasharray="5,2" d="M192.1167,-269.2338C218.2069,-276.2626 256.4694,-286.428 290,-294.7778 302.7547,-297.9539 316.6766,-301.2728 329.3243,-304.2317"/>
<polygon fill="#9a32cd" stroke="#9a32cd" points="192.9764,-265.8406 182.4097,-266.6121 191.1512,-272.5985 192.9764,-265.8406"/>
<text text-anchor="middle" x="250.5" y="-291.7778" font-family="Helvetica,sans-Serif" font-size="10.00" fill="#000000"> keys</text>
</g>
<!-- Node44&#45;&gt;Node61 -->
<g id="edge10" class="edge">
<title>Node44&#45;&gt;Node61</title>
<path fill="none" stroke="#9a32cd" stroke-dasharray="5,2" d="M181.6067,-245.0298C206.1572,-226.9944 249.0183,-197.7556 290,-180.7778 299.0742,-177.0185 309.0428,-173.9158 318.7904,-171.3861"/>
<polygon fill="#9a32cd" stroke="#9a32cd" points="179.3552,-242.3426 173.4276,-251.1241 183.5376,-247.9558 179.3552,-242.3426"/>
<text text-anchor="middle" x="250.5" y="-213.7778" font-family="Helvetica,sans-Serif" font-size="10.00" fill="#000000"> keys</text>
</g>
<!-- Node56 -->
<g id="node18" class="node">
<title>Node56</title>
<g id="a_node18"><a xlink:href="structaworx_1_1lib_1_1cli_1_1ParameterDecl.html" target="_top" xlink:title="ParameterDecl">
<polygon fill="#ffffff" stroke="#ff0000" points="120,-114.2778 120,-133.2778 202,-133.2778 202,-114.2778 120,-114.2778"/>
<text text-anchor="middle" x="161" y="-121.2778" font-family="Helvetica,sans-Serif" font-size="10.00" fill="#000000">ParameterDecl</text>
</a>
</g>
</g>
<!-- Node56&#45;&gt;Node64 -->
<g id="edge16" class="edge">
<title>Node56&#45;&gt;Node64</title>
<path fill="none" stroke="#9a32cd" stroke-dasharray="5,2" d="M212.2639,-123.7778C239.3123,-123.7778 272.8736,-123.7778 302.1598,-123.7778"/>
<polygon fill="#9a32cd" stroke="#9a32cd" points="212.2387,-120.2779 202.2387,-123.7778 212.2386,-127.2779 212.2387,-120.2779"/>
<text text-anchor="middle" x="250.5" y="-126.7778" font-family="Helvetica,sans-Serif" font-size="10.00" fill="#000000"> elements</text>
</g>
<!-- Node62 -->
<g id="node19" class="node">
<title>Node62</title>
<g id="a_node19"><a xlink:href="structaworx_1_1lib_1_1cli_1_1ExitCodeDecl.html" target="_top" xlink:title="ExitCodeDecl">
<polygon fill="#ffffff" stroke="#ff0000" points="122.5,-152.2778 122.5,-171.2778 199.5,-171.2778 199.5,-152.2778 122.5,-152.2778"/>
<text text-anchor="middle" x="161" y="-159.2778" font-family="Helvetica,sans-Serif" font-size="10.00" fill="#000000">ExitCodeDecl</text>
</a>
</g>
</g>
<!-- Node62&#45;&gt;Node61 -->
<g id="edge20" class="edge">
<title>Node62&#45;&gt;Node61</title>
<path fill="none" stroke="#9a32cd" stroke-dasharray="5,2" d="M209.7438,-161.7778C234.5112,-161.7778 265.2042,-161.7778 293.1441,-161.7778"/>
<polygon fill="#9a32cd" stroke="#9a32cd" points="209.5173,-158.2779 199.5172,-161.7778 209.5172,-165.2779 209.5173,-158.2779"/>
<text text-anchor="middle" x="250.5" y="-164.7778" font-family="Helvetica,sans-Serif" font-size="10.00" fill="#000000"> elements</text>
</g>
</g>
</svg>
