<?xml version="1.0" encoding="UTF-8" standalone="no"?>
<!DOCTYPE svg PUBLIC "-//W3C//DTD SVG 1.1//EN"
 "http://www.w3.org/Graphics/SVG/1.1/DTD/svg11.dtd">
<!-- Generated by graphviz version 2.40.1 (20161225.0304)
 -->
<!-- Title: ArgumentDef Pages: 1 -->
<svg width="214pt" height="84pt"
 viewBox="0.00 0.00 214.00 84.00" xmlns="http://www.w3.org/2000/svg" xmlns:xlink="http://www.w3.org/1999/xlink">
<g id="graph0" class="graph" transform="scale(1 1) rotate(0) translate(4 80)">
<title>ArgumentDef</title>
<polygon fill="#ffffff" stroke="transparent" points="-4,4 -4,-80 210,-80 210,4 -4,4"/>
<!-- Node0 -->
<g id="node1" class="node">
<title>Node0</title>
<polygon fill="#bfbfbf" stroke="#000000" points="66,-56.5 66,-75.5 140,-75.5 140,-56.5 66,-56.5"/>
<text text-anchor="middle" x="103" y="-63.5" font-family="Helvetica,sans-Serif" font-size="10.00" fill="#000000">ArgumentDef</text>
</g>
<!-- Node1 -->
<g id="node2" class="node">
<title>Node1</title>
<g id="a_node2"><a xlink:href="structaworx_1_1lib_1_1cli_1_1Command.html" target="_top" xlink:title="Command">
<polygon fill="#ffffff" stroke="#000000" points="0,-.5 0,-19.5 62,-19.5 62,-.5 0,-.5"/>
<text text-anchor="middle" x="31" y="-7.5" font-family="Helvetica,sans-Serif" font-size="10.00" fill="#000000">Command</text>
</a>
</g>
</g>
<!-- Node0&#45;&gt;Node1 -->
<g id="edge1" class="edge">
<title>Node0&#45;&gt;Node1</title>
<path fill="none" stroke="#191970" d="M82.336,-49.928C69.7511,-40.1397 54.0908,-27.9595 43.3977,-19.6427"/>
<polygon fill="#191970" stroke="#191970" points="80.4162,-52.8688 90.4586,-56.2455 84.7138,-47.3434 80.4162,-52.8688"/>
</g>
<!-- Node2 -->
<g id="node3" class="node">
<title>Node2</title>
<g id="a_node3"><a xlink:href="structaworx_1_1lib_1_1cli_1_1Option.html" target="_top" xlink:title="Option">
<polygon fill="#ffffff" stroke="#000000" points="80.5,-.5 80.5,-19.5 125.5,-19.5 125.5,-.5 80.5,-.5"/>
<text text-anchor="middle" x="103" y="-7.5" font-family="Helvetica,sans-Serif" font-size="10.00" fill="#000000">Option</text>
</a>
</g>
</g>
<!-- Node0&#45;&gt;Node2 -->
<g id="edge2" class="edge">
<title>Node0&#45;&gt;Node2</title>
<path fill="none" stroke="#191970" d="M103,-46.1575C103,-37.155 103,-26.9199 103,-19.6427"/>
<polygon fill="#191970" stroke="#191970" points="99.5001,-46.2455 103,-56.2455 106.5001,-46.2456 99.5001,-46.2455"/>
</g>
<!-- Node3 -->
<g id="node4" class="node">
<title>Node3</title>
<g id="a_node4"><a xlink:href="structaworx_1_1lib_1_1cli_1_1Parameter.html" target="_top" xlink:title="Parameter">
<polygon fill="#ffffff" stroke="#000000" points="144,-.5 144,-19.5 206,-19.5 206,-.5 144,-.5"/>
<text text-anchor="middle" x="175" y="-7.5" font-family="Helvetica,sans-Serif" font-size="10.00" fill="#000000">Parameter</text>
</a>
</g>
</g>
<!-- Node0&#45;&gt;Node3 -->
<g id="edge3" class="edge">
<title>Node0&#45;&gt;Node3</title>
<path fill="none" stroke="#191970" d="M123.664,-49.928C136.2489,-40.1397 151.9092,-27.9595 162.6023,-19.6427"/>
<polygon fill="#191970" stroke="#191970" points="121.2862,-47.3434 115.5414,-56.2455 125.5838,-52.8688 121.2862,-47.3434"/>
</g>
</g>
</svg>
