<?xml version="1.0" encoding="UTF-8" standalone="no"?>
<!DOCTYPE svg PUBLIC "-//W3C//DTD SVG 1.1//EN"
 "http://www.w3.org/Graphics/SVG/1.1/DTD/svg11.dtd">
<!-- Generated by graphviz version 2.40.1 (20161225.0304)
 -->
<!-- Title: ArgumentDecl&lt;TEMD&gt; Pages: 1 -->
<svg width="1303pt" height="339pt"
 viewBox="0.00 0.00 1303.00 339.43" xmlns="http://www.w3.org/2000/svg" xmlns:xlink="http://www.w3.org/1999/xlink">
<g id="graph0" class="graph" transform="scale(1 1) rotate(0) translate(4 335.4277)">
<title>ArgumentDecl&lt;TEMD&gt;</title>
<polygon fill="#ffffff" stroke="transparent" points="-4,4 -4,-335.4277 1299,-335.4277 1299,4 -4,4"/>
<!-- Node35 -->
<g id="node1" class="node">
<title>Node35</title>
<polygon fill="#ffffff" stroke="#bfbfbf" points="762,-201.9277 762,-220.9277 854,-220.9277 854,-201.9277 762,-201.9277"/>
<text text-anchor="middle" x="808" y="-208.9277" font-family="Helvetica,sans-Serif" font-size="10.00" fill="#000000">vector&lt;Library *&gt;</text>
</g>
<!-- Node2 -->
<g id="node6" class="node">
<title>Node2</title>
<g id="a_node6"><a xlink:href="classaworx_1_1lib_1_1lang_1_1Library.html" target="_top" xlink:title="Library">
<polygon fill="#ffffff" stroke="#000000" points="1048,-146.9277 1048,-165.9277 1094,-165.9277 1094,-146.9277 1048,-146.9277"/>
<text text-anchor="middle" x="1071" y="-153.9277" font-family="Helvetica,sans-Serif" font-size="10.00" fill="#000000">Library</text>
</a>
</g>
</g>
<!-- Node35&#45;&gt;Node2 -->
<g id="edge13" class="edge">
<title>Node35&#45;&gt;Node2</title>
<path fill="none" stroke="#9a32cd" stroke-dasharray="5,2" d="M862.591,-199.8193C879.0917,-196.3856 897.2695,-192.6777 914,-189.4277 965.4321,-179.4366 979.0091,-180.4698 1030,-168.4277 1035.7745,-167.0639 1041.9438,-165.3807 1047.6973,-163.7107"/>
<polygon fill="#9a32cd" stroke="#9a32cd" points="861.6342,-196.4435 852.5617,-201.9152 863.0662,-203.2955 861.6342,-196.4435"/>
<text text-anchor="middle" x="972" y="-192.4277" font-family="Helvetica,sans-Serif" font-size="10.00" fill="#000000"> dependencies</text>
</g>
<!-- Node36 -->
<g id="node2" class="node">
<title>Node36</title>
<polygon fill="#ffffff" stroke="#bfbfbf" points="720,-112.9277 720,-131.9277 896,-131.9277 896,-112.9277 720,-112.9277"/>
<text text-anchor="middle" x="808" y="-119.9277" font-family="Helvetica,sans-Serif" font-size="10.00" fill="#000000">vector&lt;pair&lt;const char *, uint64_t&gt;&gt;</text>
</g>
<!-- Node36&#45;&gt;Node2 -->
<g id="edge14" class="edge">
<title>Node36&#45;&gt;Node2</title>
<path fill="none" stroke="#9a32cd" stroke-dasharray="5,2" d="M906.328,-125.2315C945.1985,-127.7938 990.0445,-132.5745 1030,-141.4277 1036.068,-142.7722 1042.4553,-144.7944 1048.3347,-146.9221"/>
<polygon fill="#9a32cd" stroke="#9a32cd" points="906.2553,-121.7204 896.0583,-124.5964 905.8232,-128.7071 906.2553,-121.7204"/>
<text text-anchor="middle" x="972" y="-144.4277" font-family="Helvetica,sans-Serif" font-size="10.00" fill="#000000"> CompilationFlagMeanings</text>
</g>
<!-- Node1 -->
<g id="node3" class="node">
<title>Node1</title>
<polygon fill="#bfbfbf" stroke="#000000" points="1176,-165.9277 1176,-184.9277 1295,-184.9277 1295,-165.9277 1176,-165.9277"/>
<text text-anchor="middle" x="1235.5" y="-172.9277" font-family="Helvetica,sans-Serif" font-size="10.00" fill="#000000">ArgumentDecl&lt;TEMD&gt;</text>
</g>
<!-- Node3 -->
<g id="node4" class="node">
<title>Node3</title>
<g id="a_node4"><a xlink:href="classaworx_1_1lib_1_1strings_1_1TStringBase.html" target="_top" xlink:title="TStringBase\&lt;character\&gt;">
<polygon fill="#ffffff" stroke="#000000" points="376,-43.9277 376,-62.9277 499,-62.9277 499,-43.9277 376,-43.9277"/>
<text text-anchor="middle" x="437.5" y="-50.9277" font-family="Helvetica,sans-Serif" font-size="10.00" fill="#000000">TStringBase&lt;character&gt;</text>
</a>
</g>
</g>
<!-- Node3&#45;&gt;Node2 -->
<g id="edge3" class="edge">
<title>Node3&#45;&gt;Node2</title>
<path fill="none" stroke="#9a32cd" stroke-dasharray="5,2" d="M477.9425,-41.138C580.502,-12.5866 854.9912,47.2311 1030,-70.4277 1056.6298,-88.331 1066.4443,-128.4876 1069.6362,-146.8884"/>
<polygon fill="#9a32cd" stroke="#9a32cd" points="476.9445,-37.7829 468.2788,-43.8785 478.8544,-44.5173 476.9445,-37.7829"/>
<text text-anchor="middle" x="659.5" y="-14.4277" font-family="Helvetica,sans-Serif" font-size="10.00" fill="#000000"> ResourceCategory</text>
</g>
<!-- Node4 -->
<g id="node5" class="node">
<title>Node4</title>
<g id="a_node5"><a xlink:href="classaworx_1_1lib_1_1strings_1_1StringBase.html" target="_top" xlink:title="StringBase\&lt;character\&gt;">
<polygon fill="#ffffff" stroke="#000000" points="0,-113.9277 0,-132.9277 117,-132.9277 117,-113.9277 0,-113.9277"/>
<text text-anchor="middle" x="58.5" y="-120.9277" font-family="Helvetica,sans-Serif" font-size="10.00" fill="#000000">StringBase&lt;character&gt;</text>
</a>
</g>
</g>
<!-- Node4&#45;&gt;Node3 -->
<g id="edge4" class="edge">
<title>Node4&#45;&gt;Node3</title>
<path fill="none" stroke="#191970" d="M120.1034,-112.0497C194.0133,-98.3988 316.597,-75.758 385.8009,-62.9763"/>
<polygon fill="#191970" stroke="#191970" points="119.206,-108.6562 110.0081,-113.9143 120.4775,-115.5398 119.206,-108.6562"/>
</g>
<!-- Node17 -->
<g id="node7" class="node">
<title>Node17</title>
<g id="a_node7"><a xlink:href="classaworx_1_1lib_1_1config_1_1Configuration.html" target="_top" xlink:title="Configuration">
<polygon fill="#ffffff" stroke="#ff0000" points="284,-162.9277 284,-181.9277 358,-181.9277 358,-162.9277 284,-162.9277"/>
<text text-anchor="middle" x="321" y="-169.9277" font-family="Helvetica,sans-Serif" font-size="10.00" fill="#000000">Configuration</text>
</a>
</g>
</g>
<!-- Node4&#45;&gt;Node17 -->
<g id="edge5" class="edge">
<title>Node4&#45;&gt;Node17</title>
<path fill="none" stroke="#9a32cd" stroke-dasharray="5,2" d="M119.3081,-134.7785C170.1355,-144.2663 240.9908,-157.4926 283.7781,-165.4796"/>
<polygon fill="#9a32cd" stroke="#9a32cd" points="119.8964,-131.3279 109.4239,-132.9334 118.6118,-138.2091 119.8964,-131.3279"/>
<text text-anchor="middle" x="200.5" y="-186.4277" font-family="Helvetica,sans-Serif" font-size="10.00" fill="#000000"> SubstitutionVariableStart</text>
<text text-anchor="middle" x="200.5" y="-175.4277" font-family="Helvetica,sans-Serif" font-size="10.00" fill="#000000">SubstitutionVariableEnd</text>
<text text-anchor="middle" x="200.5" y="-164.4277" font-family="Helvetica,sans-Serif" font-size="10.00" fill="#000000">SubstitutionVariableDelimiters</text>
</g>
<!-- Node2&#45;&gt;Node35 -->
<g id="edge2" class="edge">
<title>Node2&#45;&gt;Node35</title>
<path fill="none" stroke="#9a32cd" stroke-dasharray="5,2" d="M1059.8891,-174.8909C1052.7294,-184.9621 1042.4398,-196.546 1030,-202.4277 974.0306,-228.8907 900.98,-225.7092 854.2663,-219.6528"/>
<polygon fill="#9a32cd" stroke="#9a32cd" points="1062.9855,-176.5523 1065.5563,-166.2741 1057.137,-172.7058 1062.9855,-176.5523"/>
<text text-anchor="middle" x="972" y="-226.4277" font-family="Helvetica,sans-Serif" font-size="10.00" fill="#000000"> elements</text>
</g>
<!-- Node2&#45;&gt;Node1 -->
<g id="edge1" class="edge">
<title>Node2&#45;&gt;Node1</title>
<path fill="none" stroke="#9a32cd" stroke-dasharray="5,2" d="M1104.4307,-156.8303C1120.6492,-157.3145 1140.3879,-158.3296 1158,-160.4277 1169.1588,-161.7569 1181.1206,-163.7736 1192.2259,-165.901"/>
<polygon fill="#9a32cd" stroke="#9a32cd" points="1104.4218,-153.3291 1094.3389,-156.5828 1104.2501,-160.327 1104.4218,-153.3291"/>
<text text-anchor="middle" x="1135" y="-163.4277" font-family="Helvetica,sans-Serif" font-size="10.00" fill="#000000"> ResLib</text>
</g>
<!-- Node17&#45;&gt;Node2 -->
<g id="edge9" class="edge">
<title>Node17&#45;&gt;Node2</title>
<path fill="none" stroke="#9a32cd" stroke-dasharray="5,2" d="M350.3249,-158.5625C387.9313,-141.6195 455.6323,-113.9142 517,-103.4277 683.0377,-75.055 727.9731,-91.5746 896,-103.4277 956.0021,-107.6604 974.9933,-98.0876 1030,-122.4277 1042.6844,-128.0404 1054.5805,-138.7487 1062.2572,-146.6542"/>
<polygon fill="#9a32cd" stroke="#9a32cd" points="348.6316,-155.488 340.9901,-162.8268 351.5403,-161.8551 348.6316,-155.488"/>
<text text-anchor="middle" x="659.5" y="-93.4277" font-family="Helvetica,sans-Serif" font-size="10.00" fill="#000000"> Config</text>
</g>
<!-- Node5 -->
<g id="node8" class="node">
<title>Node5</title>
<g id="a_node8"><a xlink:href="classaworx_1_1lib_1_1lang_1_1Resources.html" target="_top" xlink:title="Resources">
<polygon fill="#ffffff" stroke="#000000" points="776,-150.9277 776,-169.9277 840,-169.9277 840,-150.9277 776,-150.9277"/>
<text text-anchor="middle" x="808" y="-157.9277" font-family="Helvetica,sans-Serif" font-size="10.00" fill="#000000">Resources</text>
</a>
</g>
</g>
<!-- Node17&#45;&gt;Node5 -->
<g id="edge10" class="edge">
<title>Node17&#45;&gt;Node5</title>
<path fill="none" stroke="#9a32cd" stroke-dasharray="5,2" d="M368.2718,-175.7519C440.4088,-180.1586 582.2209,-186.2002 702,-175.4277 726.8053,-173.1967 754.6851,-169.1915 775.6246,-165.8807"/>
<polygon fill="#9a32cd" stroke="#9a32cd" points="368.3449,-172.2497 358.1452,-175.1158 367.906,-179.2359 368.3449,-172.2497"/>
<text text-anchor="middle" x="558" y="-184.4277" font-family="Helvetica,sans-Serif" font-size="10.00" fill="#000000"> Config</text>
</g>
<!-- Node9 -->
<g id="node10" class="node">
<title>Node9</title>
<g id="a_node10"><a xlink:href="classaworx_1_1lib_1_1config_1_1Variable.html" target="_top" xlink:title="Variable">
<polygon fill="#ffffff" stroke="#ff0000" points="532.5,-235.9277 532.5,-254.9277 583.5,-254.9277 583.5,-235.9277 532.5,-235.9277"/>
<text text-anchor="middle" x="558" y="-242.9277" font-family="Helvetica,sans-Serif" font-size="10.00" fill="#000000">Variable</text>
</a>
</g>
</g>
<!-- Node17&#45;&gt;Node9 -->
<g id="edge11" class="edge">
<title>Node17&#45;&gt;Node9</title>
<path fill="none" stroke="#9a32cd" stroke-dasharray="5,2" d="M335.7034,-189.6006C345.8833,-200.2906 360.3729,-213.317 376,-220.4277 427.8184,-244.0063 495.8591,-246.8583 532.3065,-246.4241"/>
<polygon fill="#9a32cd" stroke="#9a32cd" points="338.1274,-187.0639 328.8113,-182.018 332.9474,-191.7722 338.1274,-187.0639"/>
<text text-anchor="middle" x="437.5" y="-248.4277" font-family="Helvetica,sans-Serif" font-size="10.00" fill="#000000"> Config</text>
</g>
<!-- Node5&#45;&gt;Node2 -->
<g id="edge6" class="edge">
<title>Node5&#45;&gt;Node2</title>
<path fill="none" stroke="#9a32cd" stroke-dasharray="5,2" d="M850.07,-159.025C869.5229,-158.4309 892.9358,-157.7928 914,-157.4277 961.5572,-156.6033 1017.2281,-156.4382 1047.8547,-156.4165"/>
<polygon fill="#9a32cd" stroke="#9a32cd" points="849.8879,-155.5289 840.0019,-159.3393 850.1063,-162.5255 849.8879,-155.5289"/>
<text text-anchor="middle" x="972" y="-160.4277" font-family="Helvetica,sans-Serif" font-size="10.00" fill="#000000"> Res</text>
</g>
<!-- Node6 -->
<g id="node9" class="node">
<title>Node6</title>
<g id="a_node9"><a xlink:href="classaworx_1_1lib_1_1util_1_1MemoryBlocks.html" target="_top" xlink:title="MemoryBlocks">
<polygon fill="#ffffff" stroke="#ff0000" points="517,-150.9277 517,-169.9277 599,-169.9277 599,-150.9277 517,-150.9277"/>
<text text-anchor="middle" x="558" y="-157.9277" font-family="Helvetica,sans-Serif" font-size="10.00" fill="#000000">MemoryBlocks</text>
</a>
</g>
</g>
<!-- Node6&#45;&gt;Node5 -->
<g id="edge7" class="edge">
<title>Node6&#45;&gt;Node5</title>
<path fill="none" stroke="#9a32cd" stroke-dasharray="5,2" d="M609.266,-160.4277C659.1966,-160.4277 733.5551,-160.4277 775.7315,-160.4277"/>
<polygon fill="#9a32cd" stroke="#9a32cd" points="609.0025,-156.9278 599.0025,-160.4277 609.0024,-163.9278 609.0025,-156.9278"/>
<text text-anchor="middle" x="659.5" y="-163.4277" font-family="Helvetica,sans-Serif" font-size="10.00" fill="#000000"> cache</text>
</g>
<!-- Node9&#45;&gt;Node5 -->
<g id="edge8" class="edge">
<title>Node9&#45;&gt;Node5</title>
<path fill="none" stroke="#9a32cd" stroke-dasharray="5,2" d="M594.0309,-246.9582C625.0788,-246.5675 669.8446,-241.7568 702,-220.4277 714.3284,-212.25 708.442,-201.6622 720,-192.4277 736.1297,-179.5404 757.9133,-171.5643 775.7714,-166.7981"/>
<polygon fill="#9a32cd" stroke="#9a32cd" points="593.673,-243.4573 583.6641,-246.9318 593.6552,-250.4573 593.673,-243.4573"/>
<text text-anchor="middle" x="659.5" y="-248.4277" font-family="Helvetica,sans-Serif" font-size="10.00" fill="#000000"> variable</text>
</g>
<!-- Node19 -->
<g id="node11" class="node">
<title>Node19</title>
<g id="a_node11"><a xlink:href="classaworx_1_1lib_1_1threads_1_1ThreadLock.html" target="_top" xlink:title="ThreadLock">
<polygon fill="#ffffff" stroke="#ff0000" points="524,-112.9277 524,-131.9277 592,-131.9277 592,-112.9277 524,-112.9277"/>
<text text-anchor="middle" x="558" y="-119.9277" font-family="Helvetica,sans-Serif" font-size="10.00" fill="#000000">ThreadLock</text>
</a>
</g>
</g>
<!-- Node19&#45;&gt;Node5 -->
<g id="edge12" class="edge">
<title>Node19&#45;&gt;Node5</title>
<path fill="none" stroke="#9a32cd" stroke-dasharray="5,2" d="M602.3792,-129.1733C652.1309,-136.7355 731.6014,-148.8151 775.7589,-155.527"/>
<polygon fill="#9a32cd" stroke="#9a32cd" points="602.6497,-125.6743 592.2372,-127.6317 601.5977,-132.5948 602.6497,-125.6743"/>
<text text-anchor="middle" x="659.5" y="-147.4277" font-family="Helvetica,sans-Serif" font-size="10.00" fill="#000000"> lock</text>
</g>
<!-- Node37 -->
<g id="node12" class="node">
<title>Node37</title>
<g id="a_node12"><a xlink:href="structaworx_1_1lib_1_1lang_1_1Enum.html" target="_top" xlink:title="Enum">
<polygon fill="#ffffff" stroke="#000000" points="1050,-220.9277 1050,-239.9277 1092,-239.9277 1092,-220.9277 1050,-220.9277"/>
<text text-anchor="middle" x="1071" y="-227.9277" font-family="Helvetica,sans-Serif" font-size="10.00" fill="#000000">Enum</text>
</a>
</g>
</g>
<!-- Node37&#45;&gt;Node1 -->
<g id="edge15" class="edge">
<title>Node37&#45;&gt;Node1</title>
<path fill="none" stroke="#9a32cd" stroke-dasharray="5,2" d="M1101.7632,-220.1421C1131.9379,-210.0533 1177.5766,-194.7942 1206.9615,-184.9694"/>
<polygon fill="#9a32cd" stroke="#9a32cd" points="1100.5428,-216.8596 1092.1687,-223.35 1102.7625,-223.4984 1100.5428,-216.8596"/>
<text text-anchor="middle" x="1135" y="-218.4277" font-family="Helvetica,sans-Serif" font-size="10.00" fill="#000000"> EnumBox</text>
</g>
<!-- Node38 -->
<g id="node13" class="node">
<title>Node38</title>
<g id="a_node13"><a xlink:href="classaworx_1_1lib_1_1boxing_1_1Box.html" target="_top" xlink:title="Box">
<polygon fill="#ffffff" stroke="#000000" points="791,-273.9277 791,-292.9277 825,-292.9277 825,-273.9277 791,-273.9277"/>
<text text-anchor="middle" x="808" y="-280.9277" font-family="Helvetica,sans-Serif" font-size="10.00" fill="#000000">Box</text>
</a>
</g>
</g>
<!-- Node38&#45;&gt;Node37 -->
<g id="edge16" class="edge">
<title>Node38&#45;&gt;Node37</title>
<path fill="none" stroke="#191970" d="M834.9613,-278.2681C876.7759,-270.2247 959.7673,-254.0945 1030,-239.4277 1036.4203,-238.0869 1043.3937,-236.5765 1049.7379,-235.1814"/>
<polygon fill="#191970" stroke="#191970" points="834.1737,-274.8554 825.0133,-280.1785 835.4939,-281.7297 834.1737,-274.8554"/>
</g>
<!-- Node39 -->
<g id="node14" class="node">
<title>Node39</title>
<g id="a_node14"><a xlink:href="structaworx_1_1lib_1_1boxing_1_1BoxData.html" target="_top" xlink:title="BoxData">
<polygon fill="#ffffff" stroke="#000000" points="530.5,-311.9277 530.5,-330.9277 585.5,-330.9277 585.5,-311.9277 530.5,-311.9277"/>
<text text-anchor="middle" x="558" y="-318.9277" font-family="Helvetica,sans-Serif" font-size="10.00" fill="#000000">BoxData</text>
</a>
</g>
</g>
<!-- Node39&#45;&gt;Node38 -->
<g id="edge17" class="edge">
<title>Node39&#45;&gt;Node38</title>
<path fill="none" stroke="#9a32cd" stroke-dasharray="5,2" d="M595.7724,-315.6863C650.8693,-307.3115 751.0504,-292.084 790.944,-286.0202"/>
<polygon fill="#9a32cd" stroke="#9a32cd" points="595.07,-312.2527 585.7096,-317.2158 596.122,-319.1732 595.07,-312.2527"/>
<text text-anchor="middle" x="659.5" y="-314.4277" font-family="Helvetica,sans-Serif" font-size="10.00" fill="#000000"> data</text>
</g>
<!-- Node40 -->
<g id="node15" class="node">
<title>Node40</title>
<g id="a_node15"><a xlink:href="classaworx_1_1lib_1_1boxing_1_1Boxer.html" target="_top" xlink:title="Boxer">
<polygon fill="#ffffff" stroke="#000000" points="537,-273.9277 537,-292.9277 579,-292.9277 579,-273.9277 537,-273.9277"/>
<text text-anchor="middle" x="558" y="-280.9277" font-family="Helvetica,sans-Serif" font-size="10.00" fill="#000000">Boxer</text>
</a>
</g>
</g>
<!-- Node40&#45;&gt;Node38 -->
<g id="edge18" class="edge">
<title>Node40&#45;&gt;Node38</title>
<path fill="none" stroke="#9a32cd" stroke-dasharray="5,2" d="M589.5528,-283.4277C642.9231,-283.4277 749.2592,-283.4277 790.8042,-283.4277"/>
<polygon fill="#9a32cd" stroke="#9a32cd" points="589.3149,-279.9278 579.3149,-283.4277 589.3148,-286.9278 589.3149,-279.9278"/>
<text text-anchor="middle" x="659.5" y="-286.4277" font-family="Helvetica,sans-Serif" font-size="10.00" fill="#000000"> boxer</text>
</g>
</g>
</svg>
