<?xml version="1.0" encoding="UTF-8" standalone="no"?>
<!DOCTYPE svg PUBLIC "-//W3C//DTD SVG 1.1//EN"
 "http://www.w3.org/Graphics/SVG/1.1/DTD/svg11.dtd">
<!-- Generated by graphviz version 2.40.1 (20161225.0304)
 -->
<!-- Title: DateAndTime Pages: 1 -->
<svg width="791pt" height="143pt"
 viewBox="0.00 0.00 791.00 143.00" xmlns="http://www.w3.org/2000/svg" xmlns:xlink="http://www.w3.org/1999/xlink">
<g id="graph0" class="graph" transform="scale(1 1) rotate(0) translate(4 139)">
<title>DateAndTime</title>
<polygon fill="#ffffff" stroke="transparent" points="-4,4 -4,-139 787,-139 787,4 -4,4"/>
<!-- Node3 -->
<g id="node1" class="node">
<title>Node3</title>
<polygon fill="#bfbfbf" stroke="#000000" points="706,-76.5 706,-95.5 783,-95.5 783,-76.5 706,-76.5"/>
<text text-anchor="middle" x="744.5" y="-83.5" font-family="Helvetica,sans-Serif" font-size="10.00" fill="#000000">DateAndTime</text>
</g>
<!-- Node39 -->
<g id="node2" class="node">
<title>Node39</title>
<polygon fill="#ffffff" stroke="#bfbfbf" points="216,-114.5 216,-133.5 472,-133.5 472,-114.5 216,-114.5"/>
<text text-anchor="middle" x="344" y="-121.5" font-family="Helvetica,sans-Serif" font-size="10.00" fill="#000000">vector&lt;expressions::plugins::Calculus::FunctionEntry&gt;</text>
</g>
<!-- Node4 -->
<g id="node5" class="node">
<title>Node4</title>
<g id="a_node5"><a xlink:href="structaworx_1_1lib_1_1expressions_1_1plugins_1_1Calculus.html" target="_top" xlink:title="Calculus">
<polygon fill="#ffffff" stroke="#000000" points="614,-76.5 614,-95.5 669,-95.5 669,-76.5 614,-76.5"/>
<text text-anchor="middle" x="641.5" y="-83.5" font-family="Helvetica,sans-Serif" font-size="10.00" fill="#000000">Calculus</text>
</a>
</g>
</g>
<!-- Node39&#45;&gt;Node4 -->
<g id="edge5" class="edge">
<title>Node39&#45;&gt;Node4</title>
<path fill="none" stroke="#9a32cd" stroke-dasharray="5,2" d="M482.6559,-115.8975C519.6996,-112.3463 559.5584,-107.2629 596,-100 601.8359,-98.8369 607.9882,-97.2206 613.8173,-95.4981"/>
<polygon fill="#9a32cd" stroke="#9a32cd" points="481.9216,-112.4505 472.2876,-116.8591 482.5681,-119.4206 481.9216,-112.4505"/>
<text text-anchor="middle" x="553" y="-115" font-family="Helvetica,sans-Serif" font-size="10.00" fill="#000000"> Functions</text>
</g>
<!-- Node45 -->
<g id="node3" class="node">
<title>Node45</title>
<polygon fill="#ffffff" stroke="#bfbfbf" points="196,-76.5 196,-95.5 492,-95.5 492,-76.5 196,-76.5"/>
<text text-anchor="middle" x="344" y="-83.5" font-family="Helvetica,sans-Serif" font-size="10.00" fill="#000000">vector&lt;expressions::plugins::Calculus::ConstantIdentifierEntry&gt;</text>
</g>
<!-- Node45&#45;&gt;Node4 -->
<g id="edge7" class="edge">
<title>Node45&#45;&gt;Node4</title>
<path fill="none" stroke="#9a32cd" stroke-dasharray="5,2" d="M502.4055,-86C545.5339,-86 587.5753,-86 613.9455,-86"/>
<polygon fill="#9a32cd" stroke="#9a32cd" points="502.3142,-82.5001 492.3142,-86 502.3142,-89.5001 502.3142,-82.5001"/>
<text text-anchor="middle" x="553" y="-89" font-family="Helvetica,sans-Serif" font-size="10.00" fill="#000000"> ConstantIdentifiers</text>
</g>
<!-- Node33 -->
<g id="node4" class="node">
<title>Node33</title>
<g id="a_node4"><a xlink:href="classaworx_1_1lib_1_1strings_1_1StringBase.html" target="_top" xlink:title="StringBase\&lt;TChar\&gt;">
<polygon fill="#ffffff" stroke="#ff0000" points="7,-38.5 7,-57.5 110,-57.5 110,-38.5 7,-38.5"/>
<text text-anchor="middle" x="58.5" y="-45.5" font-family="Helvetica,sans-Serif" font-size="10.00" fill="#000000">StringBase&lt;TChar&gt;</text>
</a>
</g>
</g>
<!-- Node5 -->
<g id="node6" class="node">
<title>Node5</title>
<g id="a_node6"><a xlink:href="structaworx_1_1lib_1_1expressions_1_1CompilerPlugin.html" target="_top" xlink:title="CompilerPlugin">
<polygon fill="#ffffff" stroke="#000000" points="302.5,-38.5 302.5,-57.5 385.5,-57.5 385.5,-38.5 302.5,-38.5"/>
<text text-anchor="middle" x="344" y="-45.5" font-family="Helvetica,sans-Serif" font-size="10.00" fill="#000000">CompilerPlugin</text>
</a>
</g>
</g>
<!-- Node33&#45;&gt;Node5 -->
<g id="edge4" class="edge">
<title>Node33&#45;&gt;Node5</title>
<path fill="none" stroke="#9a32cd" stroke-dasharray="5,2" d="M120.5404,-48C175.627,-48 254.5967,-48 302.4131,-48"/>
<polygon fill="#9a32cd" stroke="#9a32cd" points="120.2019,-44.5001 110.2019,-48 120.2019,-51.5001 120.2019,-44.5001"/>
<text text-anchor="middle" x="156.5" y="-51" font-family="Helvetica,sans-Serif" font-size="10.00" fill="#000000"> Name</text>
</g>
<!-- Node4&#45;&gt;Node3 -->
<g id="edge1" class="edge">
<title>Node4&#45;&gt;Node3</title>
<path fill="none" stroke="#191970" d="M679.3436,-86C688.0267,-86 697.2682,-86 705.9795,-86"/>
<polygon fill="#191970" stroke="#191970" points="679.1021,-82.5001 669.1021,-86 679.1021,-89.5001 679.1021,-82.5001"/>
</g>
<!-- Node5&#45;&gt;Node4 -->
<g id="edge2" class="edge">
<title>Node5&#45;&gt;Node4</title>
<path fill="none" stroke="#191970" d="M395.8646,-54.6247C459.2642,-62.7228 564.2258,-76.1297 613.8613,-82.4697"/>
<polygon fill="#191970" stroke="#191970" points="396.0422,-51.1191 385.6794,-53.3237 395.1553,-58.0626 396.0422,-51.1191"/>
</g>
<!-- Node6 -->
<g id="node7" class="node">
<title>Node6</title>
<g id="a_node7"><a xlink:href="classaworx_1_1lib_1_1expressions_1_1Compiler.html" target="_top" xlink:title="Compiler">
<polygon fill="#ffffff" stroke="#ff0000" points="30.5,-.5 30.5,-19.5 86.5,-19.5 86.5,-.5 30.5,-.5"/>
<text text-anchor="middle" x="58.5" y="-7.5" font-family="Helvetica,sans-Serif" font-size="10.00" fill="#000000">Compiler</text>
</a>
</g>
</g>
<!-- Node6&#45;&gt;Node5 -->
<g id="edge3" class="edge">
<title>Node6&#45;&gt;Node5</title>
<path fill="none" stroke="#9a32cd" stroke-dasharray="5,2" d="M96.7532,-15.0915C150.2503,-22.212 247.0461,-35.0955 302.3229,-42.4528"/>
<polygon fill="#9a32cd" stroke="#9a32cd" points="97.0306,-11.5976 86.6562,-13.7476 96.107,-18.5364 97.0306,-11.5976"/>
<text text-anchor="middle" x="156.5" y="-28" font-family="Helvetica,sans-Serif" font-size="10.00" fill="#000000"> Parent</text>
</g>
<!-- Node40 -->
<g id="node8" class="node">
<title>Node40</title>
<g id="a_node8"><a xlink:href="structaworx_1_1lib_1_1expressions_1_1plugins_1_1Calculus_1_1FunctionEntry.html" target="_top" xlink:title="FunctionEntry">
<polygon fill="#ffffff" stroke="#ff0000" points="20,-114.5 20,-133.5 97,-133.5 97,-114.5 20,-114.5"/>
<text text-anchor="middle" x="58.5" y="-121.5" font-family="Helvetica,sans-Serif" font-size="10.00" fill="#000000">FunctionEntry</text>
</a>
</g>
</g>
<!-- Node40&#45;&gt;Node39 -->
<g id="edge6" class="edge">
<title>Node40&#45;&gt;Node39</title>
<path fill="none" stroke="#9a32cd" stroke-dasharray="5,2" d="M107.1865,-124C137.2071,-124 177.2306,-124 215.8191,-124"/>
<polygon fill="#9a32cd" stroke="#9a32cd" points="107.0038,-120.5001 97.0038,-124 107.0038,-127.5001 107.0038,-120.5001"/>
<text text-anchor="middle" x="156.5" y="-127" font-family="Helvetica,sans-Serif" font-size="10.00" fill="#000000"> elements</text>
</g>
<!-- Node46 -->
<g id="node9" class="node">
<title>Node46</title>
<g id="a_node9"><a xlink:href="structaworx_1_1lib_1_1expressions_1_1plugins_1_1Calculus_1_1ConstantIdentifierEntry.html" target="_top" xlink:title="ConstantIdentifierEntry">
<polygon fill="#ffffff" stroke="#ff0000" points="0,-76.5 0,-95.5 117,-95.5 117,-76.5 0,-76.5"/>
<text text-anchor="middle" x="58.5" y="-83.5" font-family="Helvetica,sans-Serif" font-size="10.00" fill="#000000">ConstantIdentifierEntry</text>
</a>
</g>
</g>
<!-- Node46&#45;&gt;Node45 -->
<g id="edge8" class="edge">
<title>Node46&#45;&gt;Node45</title>
<path fill="none" stroke="#9a32cd" stroke-dasharray="5,2" d="M127.3119,-86C148.1879,-86 171.9781,-86 195.9675,-86"/>
<polygon fill="#9a32cd" stroke="#9a32cd" points="127.3096,-82.5001 117.3096,-86 127.3096,-89.5001 127.3096,-82.5001"/>
<text text-anchor="middle" x="156.5" y="-89" font-family="Helvetica,sans-Serif" font-size="10.00" fill="#000000"> elements</text>
</g>
</g>
</svg>
