<?xml version="1.0" encoding="UTF-8" standalone="no"?>
<!DOCTYPE svg PUBLIC "-//W3C//DTD SVG 1.1//EN"
 "http://www.w3.org/Graphics/SVG/1.1/DTD/svg11.dtd">
<!-- Generated by graphviz version 2.40.1 (20161225.0304)
 -->
<!-- Title: PropertyFormatterMapApplicable&lt;TFormattable, TOptionEnum&gt; Pages: 1 -->
<svg width="353pt" height="229pt"
 viewBox="0.00 0.00 353.00 229.00" xmlns="http://www.w3.org/2000/svg" xmlns:xlink="http://www.w3.org/1999/xlink">
<g id="graph0" class="graph" transform="scale(1 1) rotate(0) translate(4 225)">
<title>PropertyFormatterMapApplicable&lt;TFormattable, TOptionEnum&gt;</title>
<polygon fill="#ffffff" stroke="transparent" points="-4,4 -4,-225 349,-225 349,4 -4,4"/>
<!-- Node1 -->
<g id="node1" class="node">
<title>Node1</title>
<polygon fill="#bfbfbf" stroke="#000000" points="51,-.5 51,-19.5 345,-19.5 345,-.5 51,-.5"/>
<text text-anchor="middle" x="198" y="-7.5" font-family="Helvetica,sans-Serif" font-size="10.00" fill="#000000">PropertyFormatterMapApplicable&lt;TFormattable, TOptionEnum&gt;</text>
</g>
<!-- Node2 -->
<g id="node2" class="node">
<title>Node2</title>
<g id="a_node2"><a xlink:href="classaworx_1_1lib_1_1strings_1_1format_1_1PropertyFormatters.html" target="_top" xlink:title="PropertyFormatters\&lt;TFormattable, TOptionEnum\&gt;">
<polygon fill="#ffffff" stroke="#000000" points="80,-67.5 80,-86.5 316,-86.5 316,-67.5 80,-67.5"/>
<text text-anchor="middle" x="198" y="-74.5" font-family="Helvetica,sans-Serif" font-size="10.00" fill="#000000">PropertyFormatters&lt;TFormattable, TOptionEnum&gt;</text>
</a>
</g>
</g>
<!-- Node2&#45;&gt;Node1 -->
<g id="edge1" class="edge">
<title>Node2&#45;&gt;Node1</title>
<path fill="none" stroke="#9a32cd" stroke-dasharray="5,2" d="M198,-57.1079C198,-44.714 198,-29.3263 198,-19.5817"/>
<polygon fill="#9a32cd" stroke="#9a32cd" points="194.5001,-57.4005 198,-67.4005 201.5001,-57.4006 194.5001,-57.4005"/>
<text text-anchor="middle" x="230" y="-41" font-family="Helvetica,sans-Serif" font-size="10.00" fill="#000000"> FormatterMap</text>
</g>
<!-- Node3 -->
<g id="node3" class="node">
<title>Node3</title>
<polygon fill="#ffffff" stroke="#bfbfbf" points="0,-134.5 0,-153.5 232,-153.5 232,-134.5 0,-134.5"/>
<text text-anchor="middle" x="116" y="-141.5" font-family="Helvetica,sans-Serif" font-size="10.00" fill="#000000">map&lt;TOptionEnum, format::PropertyFormatter *&gt;</text>
</g>
<!-- Node3&#45;&gt;Node2 -->
<g id="edge2" class="edge">
<title>Node3&#45;&gt;Node2</title>
<path fill="none" stroke="#9a32cd" stroke-dasharray="5,2" d="M135.8279,-127.7992C151.5989,-114.9131 173.1299,-97.3207 186.2732,-86.5817"/>
<polygon fill="#9a32cd" stroke="#9a32cd" points="133.2779,-125.3629 127.7486,-134.4005 137.7069,-130.7836 133.2779,-125.3629"/>
<text text-anchor="middle" x="186" y="-108" font-family="Helvetica,sans-Serif" font-size="10.00" fill="#000000"> formatters</text>
</g>
<!-- Node12 -->
<g id="node4" class="node">
<title>Node12</title>
<g id="a_node4"><a xlink:title="STL class. ">
<polygon fill="#ffffff" stroke="#bfbfbf" points="250,-134.5 250,-153.5 312,-153.5 312,-134.5 250,-134.5"/>
<text text-anchor="middle" x="281" y="-141.5" font-family="Helvetica,sans-Serif" font-size="10.00" fill="#000000">vector&lt;T&gt;</text>
</a>
</g>
</g>
<!-- Node12&#45;&gt;Node2 -->
<g id="edge5" class="edge">
<title>Node12&#45;&gt;Node2</title>
<path fill="none" stroke="#9a32cd" stroke-dasharray="5,2" d="M260.9303,-127.7992C244.967,-114.9131 223.1734,-97.3207 209.8698,-86.5817"/>
<polygon fill="#9a32cd" stroke="#9a32cd" points="259.1285,-130.8427 269.1081,-134.4005 263.5254,-125.3959 259.1285,-130.8427"/>
<text text-anchor="middle" x="266.5" y="-108" font-family="Helvetica,sans-Serif" font-size="10.00" fill="#000000"> callbacks</text>
</g>
<!-- Node4 -->
<g id="node5" class="node">
<title>Node4</title>
<g id="a_node5"><a xlink:href="classaworx_1_1lib_1_1strings_1_1format_1_1PropertyFormatter.html" target="_top" xlink:title="PropertyFormatter">
<polygon fill="#ffffff" stroke="#ff0000" points="68.5,-201.5 68.5,-220.5 163.5,-220.5 163.5,-201.5 68.5,-201.5"/>
<text text-anchor="middle" x="116" y="-208.5" font-family="Helvetica,sans-Serif" font-size="10.00" fill="#000000">PropertyFormatter</text>
</a>
</g>
</g>
<!-- Node4&#45;&gt;Node3 -->
<g id="edge3" class="edge">
<title>Node4&#45;&gt;Node3</title>
<path fill="none" stroke="#9a32cd" stroke-dasharray="5,2" d="M116,-191.1079C116,-178.714 116,-163.3263 116,-153.5817"/>
<polygon fill="#9a32cd" stroke="#9a32cd" points="112.5001,-191.4005 116,-201.4005 119.5001,-191.4006 112.5001,-191.4005"/>
<text text-anchor="middle" x="137.5" y="-175" font-family="Helvetica,sans-Serif" font-size="10.00" fill="#000000"> elements</text>
</g>
<!-- Node7 -->
<g id="node6" class="node">
<title>Node7</title>
<polygon fill="#ffffff" stroke="#bfbfbf" points="266.5,-201.5 266.5,-220.5 295.5,-220.5 295.5,-201.5 266.5,-201.5"/>
<text text-anchor="middle" x="281" y="-208.5" font-family="Helvetica,sans-Serif" font-size="10.00" fill="#000000">T</text>
</g>
<!-- Node7&#45;&gt;Node12 -->
<g id="edge4" class="edge">
<title>Node7&#45;&gt;Node12</title>
<path fill="none" stroke="#9a32cd" stroke-dasharray="5,2" d="M281,-191.1079C281,-178.714 281,-163.3263 281,-153.5817"/>
<polygon fill="#9a32cd" stroke="#9a32cd" points="277.5001,-191.4005 281,-201.4005 284.5001,-191.4006 277.5001,-191.4005"/>
<text text-anchor="middle" x="302.5" y="-175" font-family="Helvetica,sans-Serif" font-size="10.00" fill="#000000"> elements</text>
</g>
</g>
</svg>
