<?xml version="1.0" encoding="UTF-8" standalone="no"?>
<!DOCTYPE svg PUBLIC "-//W3C//DTD SVG 1.1//EN"
 "http://www.w3.org/Graphics/SVG/1.1/DTD/svg11.dtd">
<!-- Generated by graphviz version 2.40.1 (20161225.0304)
 -->
<!-- Title: ResourceString Pages: 1 -->
<svg width="1318pt" height="281pt"
 viewBox="0.00 0.00 1318.00 281.00" xmlns="http://www.w3.org/2000/svg" xmlns:xlink="http://www.w3.org/1999/xlink">
<g id="graph0" class="graph" transform="scale(1 1) rotate(0) translate(4 277)">
<title>ResourceString</title>
<polygon fill="#ffffff" stroke="transparent" points="-4,4 -4,-277 1314,-277 1314,4 -4,4"/>
<!-- Node4 -->
<g id="node1" class="node">
<title>Node4</title>
<polygon fill="#bfbfbf" stroke="#000000" points="1222,-38.5 1222,-57.5 1306,-57.5 1306,-38.5 1222,-38.5"/>
<text text-anchor="middle" x="1264" y="-45.5" font-family="Helvetica,sans-Serif" font-size="10.00" fill="#000000">ResourceString</text>
</g>
<!-- Node39 -->
<g id="node2" class="node">
<title>Node39</title>
<polygon fill="#ffffff" stroke="#bfbfbf" points="1218,-128.5 1218,-147.5 1310,-147.5 1310,-128.5 1218,-128.5"/>
<text text-anchor="middle" x="1264" y="-135.5" font-family="Helvetica,sans-Serif" font-size="10.00" fill="#000000">vector&lt;Library *&gt;</text>
</g>
<!-- Node10 -->
<g id="node10" class="node">
<title>Node10</title>
<g id="a_node10"><a xlink:href="classaworx_1_1lib_1_1lang_1_1Library.html" target="_top" xlink:title="Library">
<polygon fill="#ffffff" stroke="#000000" points="1070.5,-114.5 1070.5,-133.5 1116.5,-133.5 1116.5,-114.5 1070.5,-114.5"/>
<text text-anchor="middle" x="1093.5" y="-121.5" font-family="Helvetica,sans-Serif" font-size="10.00" fill="#000000">Library</text>
</a>
</g>
</g>
<!-- Node39&#45;&gt;Node10 -->
<g id="edge17" class="edge">
<title>Node39&#45;&gt;Node10</title>
<path fill="none" stroke="#9a32cd" stroke-dasharray="5,2" d="M1207.9025,-137.8653C1185.4718,-137.2761 1159.4438,-135.9187 1136,-133 1129.7132,-132.2173 1122.9763,-130.9792 1116.7615,-129.6689"/>
<polygon fill="#9a32cd" stroke="#9a32cd" points="1207.8589,-141.3651 1217.9331,-138.0849 1208.0121,-134.3668 1207.8589,-141.3651"/>
<text text-anchor="middle" x="1168" y="-140" font-family="Helvetica,sans-Serif" font-size="10.00" fill="#000000"> dependencies</text>
</g>
<!-- Node40 -->
<g id="node3" class="node">
<title>Node40</title>
<polygon fill="#ffffff" stroke="#bfbfbf" points="741,-152.5 741,-171.5 917,-171.5 917,-152.5 741,-152.5"/>
<text text-anchor="middle" x="829" y="-159.5" font-family="Helvetica,sans-Serif" font-size="10.00" fill="#000000">vector&lt;pair&lt;const char *, uint64_t&gt;&gt;</text>
</g>
<!-- Node40&#45;&gt;Node10 -->
<g id="edge18" class="edge">
<title>Node40&#45;&gt;Node10</title>
<path fill="none" stroke="#9a32cd" stroke-dasharray="5,2" d="M927.4455,-155.8376C966.2392,-152.2462 1011.0003,-146.6492 1051,-138 1057.3781,-136.6208 1064.1464,-134.6394 1070.3621,-132.5995"/>
<polygon fill="#9a32cd" stroke="#9a32cd" points="926.845,-152.3772 917.1961,-156.753 927.4678,-159.3494 926.845,-152.3772"/>
<text text-anchor="middle" x="993" y="-157" font-family="Helvetica,sans-Serif" font-size="10.00" fill="#000000"> CompilationFlagMeanings</text>
</g>
<!-- Node6 -->
<g id="node4" class="node">
<title>Node6</title>
<g id="a_node4"><a xlink:href="classaworx_1_1lib_1_1strings_1_1TStringBase.html" target="_top" xlink:title="TStringBase\&lt;TChar\&gt;">
<polygon fill="#ffffff" stroke="#000000" points="774.5,-.5 774.5,-19.5 883.5,-19.5 883.5,-.5 774.5,-.5"/>
<text text-anchor="middle" x="829" y="-7.5" font-family="Helvetica,sans-Serif" font-size="10.00" fill="#000000">TStringBase&lt;TChar&gt;</text>
</a>
</g>
</g>
<!-- Node5 -->
<g id="node8" class="node">
<title>Node5</title>
<g id="a_node8"><a xlink:href="classaworx_1_1lib_1_1strings_1_1AStringBase.html" target="_top" xlink:title="AString">
<polygon fill="#ffffff" stroke="#000000" points="1069,-.5 1069,-19.5 1118,-19.5 1118,-.5 1069,-.5"/>
<text text-anchor="middle" x="1093.5" y="-7.5" font-family="Helvetica,sans-Serif" font-size="10.00" fill="#000000">AString</text>
</a>
</g>
</g>
<!-- Node6&#45;&gt;Node5 -->
<g id="edge2" class="edge">
<title>Node6&#45;&gt;Node5</title>
<path fill="none" stroke="#191970" d="M894.0667,-10C950.4879,-10 1029.1227,-10 1068.6815,-10"/>
<polygon fill="#191970" stroke="#191970" points="893.8046,-6.5001 883.8046,-10 893.8045,-13.5001 893.8046,-6.5001"/>
</g>
<!-- Node7 -->
<g id="node5" class="node">
<title>Node7</title>
<g id="a_node5"><a xlink:href="classaworx_1_1lib_1_1strings_1_1StringBase.html" target="_top" xlink:title="StringBase\&lt;TChar\&gt;">
<polygon fill="#ffffff" stroke="#ff0000" points="517,-.5 517,-19.5 620,-19.5 620,-.5 517,-.5"/>
<text text-anchor="middle" x="568.5" y="-7.5" font-family="Helvetica,sans-Serif" font-size="10.00" fill="#000000">StringBase&lt;TChar&gt;</text>
</a>
</g>
</g>
<!-- Node7&#45;&gt;Node6 -->
<g id="edge3" class="edge">
<title>Node7&#45;&gt;Node6</title>
<path fill="none" stroke="#191970" d="M630.4956,-10C674.1899,-10 732.1673,-10 774.1748,-10"/>
<polygon fill="#191970" stroke="#191970" points="630.2779,-6.5001 620.2779,-10 630.2778,-13.5001 630.2779,-6.5001"/>
</g>
<!-- Node9 -->
<g id="node6" class="node">
<title>Node9</title>
<g id="a_node6"><a xlink:href="classaworx_1_1lib_1_1strings_1_1StringBase.html" target="_top" xlink:title="StringBase\&lt;character\&gt;">
<polygon fill="#ffffff" stroke="#000000" points="0,-76.5 0,-95.5 117,-95.5 117,-76.5 0,-76.5"/>
<text text-anchor="middle" x="58.5" y="-83.5" font-family="Helvetica,sans-Serif" font-size="10.00" fill="#000000">StringBase&lt;character&gt;</text>
</a>
</g>
</g>
<!-- Node9&#45;&gt;Node4 -->
<g id="edge4" class="edge">
<title>Node9&#45;&gt;Node4</title>
<path fill="none" stroke="#9a32cd" stroke-dasharray="5,2" d="M109.2442,-74.2368C161.8884,-63.0766 246.7477,-48 321,-48 321,-48 321,-48 1093.5,-48 1137.309,-48 1187.4498,-48 1221.9591,-48"/>
<polygon fill="#9a32cd" stroke="#9a32cd" points="108.1955,-70.8824 99.1576,-76.411 109.6706,-77.7252 108.1955,-70.8824"/>
<text text-anchor="middle" x="680.5" y="-51" font-family="Helvetica,sans-Serif" font-size="10.00" fill="#000000"> Name</text>
</g>
<!-- Node11 -->
<g id="node7" class="node">
<title>Node11</title>
<g id="a_node7"><a xlink:href="classaworx_1_1lib_1_1strings_1_1TStringBase.html" target="_top" xlink:title="TStringBase\&lt;character\&gt;">
<polygon fill="#ffffff" stroke="#000000" points="376,-76.5 376,-95.5 499,-95.5 499,-76.5 376,-76.5"/>
<text text-anchor="middle" x="437.5" y="-83.5" font-family="Helvetica,sans-Serif" font-size="10.00" fill="#000000">TStringBase&lt;character&gt;</text>
</a>
</g>
</g>
<!-- Node9&#45;&gt;Node11 -->
<g id="edge5" class="edge">
<title>Node9&#45;&gt;Node11</title>
<path fill="none" stroke="#191970" d="M127.4687,-86C198.3248,-86 307.6162,-86 375.7252,-86"/>
<polygon fill="#191970" stroke="#191970" points="127.3029,-82.5001 117.3029,-86 127.3029,-89.5001 127.3029,-82.5001"/>
</g>
<!-- Node21 -->
<g id="node9" class="node">
<title>Node21</title>
<g id="a_node9"><a xlink:href="classaworx_1_1lib_1_1config_1_1Configuration.html" target="_top" xlink:title="Configuration">
<polygon fill="#ffffff" stroke="#ff0000" points="284,-151.5 284,-170.5 358,-170.5 358,-151.5 284,-151.5"/>
<text text-anchor="middle" x="321" y="-158.5" font-family="Helvetica,sans-Serif" font-size="10.00" fill="#000000">Configuration</text>
</a>
</g>
</g>
<!-- Node9&#45;&gt;Node21 -->
<g id="edge6" class="edge">
<title>Node9&#45;&gt;Node21</title>
<path fill="none" stroke="#9a32cd" stroke-dasharray="5,2" d="M101.6451,-98.3272C153.7891,-113.2255 240.403,-137.9723 287.6871,-151.482"/>
<polygon fill="#9a32cd" stroke="#9a32cd" points="102.5892,-94.9569 92.0124,-95.575 100.6661,-101.6876 102.5892,-94.9569"/>
<text text-anchor="middle" x="200.5" y="-169" font-family="Helvetica,sans-Serif" font-size="10.00" fill="#000000"> SubstitutionVariableStart</text>
<text text-anchor="middle" x="200.5" y="-158" font-family="Helvetica,sans-Serif" font-size="10.00" fill="#000000">SubstitutionVariableEnd</text>
<text text-anchor="middle" x="200.5" y="-147" font-family="Helvetica,sans-Serif" font-size="10.00" fill="#000000">SubstitutionVariableDelimiters</text>
</g>
<!-- Node11&#45;&gt;Node10 -->
<g id="edge9" class="edge">
<title>Node11&#45;&gt;Node10</title>
<path fill="none" stroke="#9a32cd" stroke-dasharray="5,2" d="M509.2516,-81.9621C624.5904,-76.996 857.8742,-73.2505 1051,-110 1057.4105,-111.2198 1064.1899,-113.1465 1070.406,-115.1848"/>
<polygon fill="#9a32cd" stroke="#9a32cd" points="508.9689,-78.4712 499.1351,-82.414 509.2814,-85.4642 508.9689,-78.4712"/>
<text text-anchor="middle" x="680.5" y="-82" font-family="Helvetica,sans-Serif" font-size="10.00" fill="#000000"> ResourceCategory</text>
</g>
<!-- Node5&#45;&gt;Node4 -->
<g id="edge1" class="edge">
<title>Node5&#45;&gt;Node4</title>
<path fill="none" stroke="#191970" d="M1128.0926,-17.7098C1155.1334,-23.7365 1192.8441,-32.1412 1221.6837,-38.5688"/>
<polygon fill="#191970" stroke="#191970" points="1128.8141,-14.2848 1118.2922,-15.5255 1127.2913,-21.1172 1128.8141,-14.2848"/>
</g>
<!-- Node21&#45;&gt;Node10 -->
<g id="edge13" class="edge">
<title>Node21&#45;&gt;Node10</title>
<path fill="none" stroke="#9a32cd" stroke-dasharray="5,2" d="M368.3312,-155.8694C407.9915,-151.7587 466.126,-146.1717 517,-143 731.8863,-129.6033 992.4578,-125.3075 1070.4103,-124.2751"/>
<polygon fill="#9a32cd" stroke="#9a32cd" points="367.7414,-152.4119 358.1598,-156.9332 368.4697,-159.3739 367.7414,-152.4119"/>
<text text-anchor="middle" x="680.5" y="-139" font-family="Helvetica,sans-Serif" font-size="10.00" fill="#000000"> Config</text>
</g>
<!-- Node12 -->
<g id="node11" class="node">
<title>Node12</title>
<g id="a_node11"><a xlink:href="classaworx_1_1lib_1_1lang_1_1Resources.html" target="_top" xlink:title="Resources">
<polygon fill="#ffffff" stroke="#000000" points="797,-190.5 797,-209.5 861,-209.5 861,-190.5 797,-190.5"/>
<text text-anchor="middle" x="829" y="-197.5" font-family="Helvetica,sans-Serif" font-size="10.00" fill="#000000">Resources</text>
</a>
</g>
</g>
<!-- Node21&#45;&gt;Node12 -->
<g id="edge14" class="edge">
<title>Node21&#45;&gt;Node12</title>
<path fill="none" stroke="#9a32cd" stroke-dasharray="5,2" d="M330.9191,-179.8306C340.3403,-195.7819 356.0212,-217.9285 376,-230 430.6108,-262.9966 453.48,-250.9731 517,-257 608.3875,-265.6711 634.3094,-265.6821 723,-242 753.7907,-233.7783 787.7779,-219.286 808.7626,-209.6622"/>
<polygon fill="#9a32cd" stroke="#9a32cd" points="333.8238,-177.8546 325.8795,-170.8447 327.7184,-181.2788 333.8238,-177.8546"/>
<text text-anchor="middle" x="568.5" y="-265" font-family="Helvetica,sans-Serif" font-size="10.00" fill="#000000"> Config</text>
</g>
<!-- Node16 -->
<g id="node13" class="node">
<title>Node16</title>
<g id="a_node13"><a xlink:href="classaworx_1_1lib_1_1config_1_1Variable.html" target="_top" xlink:title="Variable">
<polygon fill="#ffffff" stroke="#ff0000" points="543,-228.5 543,-247.5 594,-247.5 594,-228.5 543,-228.5"/>
<text text-anchor="middle" x="568.5" y="-235.5" font-family="Helvetica,sans-Serif" font-size="10.00" fill="#000000">Variable</text>
</a>
</g>
</g>
<!-- Node21&#45;&gt;Node16 -->
<g id="edge15" class="edge">
<title>Node21&#45;&gt;Node16</title>
<path fill="none" stroke="#9a32cd" stroke-dasharray="5,2" d="M361.3603,-173.5565C412.683,-189.5236 499.7916,-216.6241 542.8454,-230.0186"/>
<polygon fill="#9a32cd" stroke="#9a32cd" points="362.1849,-170.1477 351.5966,-170.5189 360.1054,-176.8317 362.1849,-170.1477"/>
<text text-anchor="middle" x="437.5" y="-218" font-family="Helvetica,sans-Serif" font-size="10.00" fill="#000000"> Config</text>
</g>
<!-- Node10&#45;&gt;Node4 -->
<g id="edge7" class="edge">
<title>Node10&#45;&gt;Node4</title>
<path fill="none" stroke="#9a32cd" stroke-dasharray="5,2" d="M1124.5287,-110.1221C1128.3911,-108.3964 1132.2865,-106.6569 1136,-105 1173.3212,-88.3478 1216.7833,-69.0038 1242.2535,-57.6724"/>
<polygon fill="#9a32cd" stroke="#9a32cd" points="1122.8195,-107.0522 1115.1181,-114.3281 1125.6759,-113.443 1122.8195,-107.0522"/>
<text text-anchor="middle" x="1168" y="-108" font-family="Helvetica,sans-Serif" font-size="10.00" fill="#000000"> Lib</text>
</g>
<!-- Node10&#45;&gt;Node39 -->
<g id="edge8" class="edge">
<title>Node10&#45;&gt;Node39</title>
<path fill="none" stroke="#9a32cd" stroke-dasharray="5,2" d="M1127.047,-122.2743C1130.0737,-122.163 1133.0923,-122.0684 1136,-122 1164.4366,-121.3313 1171.7687,-118.5246 1200,-122 1210.6852,-123.3154 1222.1524,-125.822 1232.3866,-128.4677"/>
<polygon fill="#9a32cd" stroke="#9a32cd" points="1126.719,-118.7849 1116.875,-122.7022 1127.0133,-125.7787 1126.719,-118.7849"/>
<text text-anchor="middle" x="1168" y="-125" font-family="Helvetica,sans-Serif" font-size="10.00" fill="#000000"> elements</text>
</g>
<!-- Node12&#45;&gt;Node10 -->
<g id="edge10" class="edge">
<title>Node12&#45;&gt;Node10</title>
<path fill="none" stroke="#9a32cd" stroke-dasharray="5,2" d="M871.1708,-202.1891C917.7641,-202.8358 993.7701,-198.5297 1051,-169 1066.8525,-160.8204 1080.0163,-144.3275 1087.3128,-133.7419"/>
<polygon fill="#9a32cd" stroke="#9a32cd" points="871.2,-198.689 861.1248,-201.9662 871.0447,-205.6873 871.2,-198.689"/>
<text text-anchor="middle" x="993" y="-202" font-family="Helvetica,sans-Serif" font-size="10.00" fill="#000000"> Res</text>
</g>
<!-- Node13 -->
<g id="node12" class="node">
<title>Node13</title>
<g id="a_node12"><a xlink:href="classaworx_1_1lib_1_1util_1_1MemoryBlocks.html" target="_top" xlink:title="MemoryBlocks">
<polygon fill="#ffffff" stroke="#ff0000" points="527.5,-190.5 527.5,-209.5 609.5,-209.5 609.5,-190.5 527.5,-190.5"/>
<text text-anchor="middle" x="568.5" y="-197.5" font-family="Helvetica,sans-Serif" font-size="10.00" fill="#000000">MemoryBlocks</text>
</a>
</g>
</g>
<!-- Node13&#45;&gt;Node12 -->
<g id="edge11" class="edge">
<title>Node13&#45;&gt;Node12</title>
<path fill="none" stroke="#9a32cd" stroke-dasharray="5,2" d="M619.9195,-200C672.5619,-200 752.7424,-200 796.9495,-200"/>
<polygon fill="#9a32cd" stroke="#9a32cd" points="619.777,-196.5001 609.777,-200 619.777,-203.5001 619.777,-196.5001"/>
<text text-anchor="middle" x="680.5" y="-203" font-family="Helvetica,sans-Serif" font-size="10.00" fill="#000000"> cache</text>
</g>
<!-- Node16&#45;&gt;Node12 -->
<g id="edge12" class="edge">
<title>Node16&#45;&gt;Node12</title>
<path fill="none" stroke="#9a32cd" stroke-dasharray="5,2" d="M604.3353,-232.7726C655.2623,-225.3437 747.8081,-211.8437 796.7145,-204.7096"/>
<polygon fill="#9a32cd" stroke="#9a32cd" points="603.8201,-229.3106 594.4301,-234.2175 604.8306,-236.2373 603.8201,-229.3106"/>
<text text-anchor="middle" x="680.5" y="-230" font-family="Helvetica,sans-Serif" font-size="10.00" fill="#000000"> variable</text>
</g>
<!-- Node23 -->
<g id="node14" class="node">
<title>Node23</title>
<g id="a_node14"><a xlink:href="classaworx_1_1lib_1_1threads_1_1ThreadLock.html" target="_top" xlink:title="ThreadLock">
<polygon fill="#ffffff" stroke="#ff0000" points="534.5,-152.5 534.5,-171.5 602.5,-171.5 602.5,-152.5 534.5,-152.5"/>
<text text-anchor="middle" x="568.5" y="-159.5" font-family="Helvetica,sans-Serif" font-size="10.00" fill="#000000">ThreadLock</text>
</a>
</g>
</g>
<!-- Node23&#45;&gt;Node12 -->
<g id="edge16" class="edge">
<title>Node23&#45;&gt;Node12</title>
<path fill="none" stroke="#9a32cd" stroke-dasharray="5,2" d="M612.5374,-168.4239C664.7943,-176.0468 750.6586,-188.5721 796.9801,-195.3292"/>
<polygon fill="#9a32cd" stroke="#9a32cd" points="612.9563,-164.948 602.5558,-166.9678 611.9459,-171.8747 612.9563,-164.948"/>
<text text-anchor="middle" x="680.5" y="-187" font-family="Helvetica,sans-Serif" font-size="10.00" fill="#000000"> lock</text>
</g>
</g>
</svg>
