<?xml version="1.0" encoding="UTF-8" standalone="no"?>
<!DOCTYPE svg PUBLIC "-//W3C//DTD SVG 1.1//EN"
 "http://www.w3.org/Graphics/SVG/1.1/DTD/svg11.dtd">
<!-- Generated by graphviz version 2.40.1 (20161225.0304)
 -->
<!-- Title: Scope Pages: 1 -->
<svg width="1352pt" height="178pt"
 viewBox="0.00 0.00 1352.00 178.00" xmlns="http://www.w3.org/2000/svg" xmlns:xlink="http://www.w3.org/1999/xlink">
<g id="graph0" class="graph" transform="scale(1 1) rotate(0) translate(4 174)">
<title>Scope</title>
<polygon fill="#ffffff" stroke="transparent" points="-4,4 -4,-174 1348,-174 1348,4 -4,4"/>
<!-- Node1 -->
<g id="node1" class="node">
<title>Node1</title>
<polygon fill="#bfbfbf" stroke="#000000" points="643,-45.5 643,-64.5 687,-64.5 687,-45.5 643,-45.5"/>
<text text-anchor="middle" x="665" y="-52.5" font-family="Helvetica,sans-Serif" font-size="10.00" fill="#000000">Scope</text>
</g>
<!-- Node1&#45;&gt;Node1 -->
<g id="edge1" class="edge">
<title>Node1&#45;&gt;Node1</title>
<path fill="none" stroke="#9a32cd" stroke-dasharray="5,2" d="M653.9506,-74.7663C654.8185,-79.4965 658.5016,-83 665,-83 675.6641,-83 678.7466,-73.5653 674.2477,-64.7571"/>
<polygon fill="#9a32cd" stroke="#9a32cd" points="657.4253,-75.219 655.7523,-64.7571 650.536,-73.9788 657.4253,-75.219"/>
<text text-anchor="middle" x="665" y="-86" font-family="Helvetica,sans-Serif" font-size="10.00" fill="#000000"> CTScope</text>
</g>
<!-- Node9 -->
<g id="node7" class="node">
<title>Node9</title>
<g id="a_node7"><a xlink:href="classaworx_1_1lib_1_1expressions_1_1detail_1_1Program.html" target="_top" xlink:title="Program">
<polygon fill="#ffffff" stroke="#ff0000" points="798.5,-67.5 798.5,-86.5 851.5,-86.5 851.5,-67.5 798.5,-67.5"/>
<text text-anchor="middle" x="825" y="-74.5" font-family="Helvetica,sans-Serif" font-size="10.00" fill="#000000">Program</text>
</a>
</g>
</g>
<!-- Node1&#45;&gt;Node9 -->
<g id="edge2" class="edge">
<title>Node1&#45;&gt;Node9</title>
<path fill="none" stroke="#9a32cd" stroke-dasharray="5,2" d="M697.528,-59.4726C727.2643,-63.5613 770.7102,-69.5352 798.4165,-73.3448"/>
<polygon fill="#9a32cd" stroke="#9a32cd" points="697.6309,-55.9539 687.2473,-58.059 696.6773,-62.8886 697.6309,-55.9539"/>
<text text-anchor="middle" x="725" y="-69" font-family="Helvetica,sans-Serif" font-size="10.00" fill="#000000"> ctScope</text>
</g>
<!-- Node3 -->
<g id="node2" class="node">
<title>Node3</title>
<polygon fill="#ffffff" stroke="#bfbfbf" points="134,-.5 134,-19.5 286,-19.5 286,-.5 134,-.5"/>
<text text-anchor="middle" x="210" y="-7.5" font-family="Helvetica,sans-Serif" font-size="10.00" fill="#000000">vector&lt;MemoryBlocks::Block&gt;</text>
</g>
<!-- Node2 -->
<g id="node8" class="node">
<title>Node2</title>
<g id="a_node8"><a xlink:href="classaworx_1_1lib_1_1util_1_1MemoryBlocks.html" target="_top" xlink:title="MemoryBlocks">
<polygon fill="#ffffff" stroke="#000000" points="419.5,-4.5 419.5,-23.5 501.5,-23.5 501.5,-4.5 419.5,-4.5"/>
<text text-anchor="middle" x="460.5" y="-11.5" font-family="Helvetica,sans-Serif" font-size="10.00" fill="#000000">MemoryBlocks</text>
</a>
</g>
</g>
<!-- Node3&#45;&gt;Node2 -->
<g id="edge4" class="edge">
<title>Node3&#45;&gt;Node2</title>
<path fill="none" stroke="#9a32cd" stroke-dasharray="5,2" d="M296.3315,-11.3785C337.9495,-12.0431 385.933,-12.8093 419.2315,-13.341"/>
<polygon fill="#9a32cd" stroke="#9a32cd" points="296.2332,-7.8766 286.1785,-11.2164 296.1213,-14.8757 296.2332,-7.8766"/>
<text text-anchor="middle" x="325.5" y="-26" font-family="Helvetica,sans-Serif" font-size="10.00" fill="#000000"> blocks</text>
<text text-anchor="middle" x="325.5" y="-15" font-family="Helvetica,sans-Serif" font-size="10.00" fill="#000000">actBlock</text>
</g>
<!-- Node5 -->
<g id="node3" class="node">
<title>Node5</title>
<polygon fill="#ffffff" stroke="#bfbfbf" points="365,-83.5 365,-102.5 556,-102.5 556,-83.5 365,-83.5"/>
<text text-anchor="middle" x="460.5" y="-90.5" font-family="Helvetica,sans-Serif" font-size="10.00" fill="#000000">vector&lt;expressions::ScopeResource *&gt;</text>
</g>
<!-- Node5&#45;&gt;Node1 -->
<g id="edge6" class="edge">
<title>Node5&#45;&gt;Node1</title>
<path fill="none" stroke="#9a32cd" stroke-dasharray="5,2" d="M557.8714,-81.9465C580.0913,-78.5537 603.489,-74.2818 625,-69 630.8591,-67.5614 637.0687,-65.608 642.8032,-63.6171"/>
<polygon fill="#9a32cd" stroke="#9a32cd" points="557.1357,-78.5172 547.7561,-83.444 558.1609,-85.4417 557.1357,-78.5172"/>
<text text-anchor="middle" x="599.5" y="-82" font-family="Helvetica,sans-Serif" font-size="10.00" fill="#000000"> Resources</text>
</g>
<!-- Node7 -->
<g id="node4" class="node">
<title>Node7</title>
<polygon fill="#ffffff" stroke="#bfbfbf" points="1174,-45.5 1174,-64.5 1344,-64.5 1344,-45.5 1174,-45.5"/>
<text text-anchor="middle" x="1259" y="-52.5" font-family="Helvetica,sans-Serif" font-size="10.00" fill="#000000">vector&lt;expressions::Expression *&gt;</text>
</g>
<!-- Node7&#45;&gt;Node1 -->
<g id="edge8" class="edge">
<title>Node7&#45;&gt;Node1</title>
<path fill="none" stroke="#9a32cd" stroke-dasharray="5,2" d="M1163.5812,-53.9539C1092.3333,-53.2961 992.574,-52.6351 905,-53 824.7896,-53.3342 729.5041,-54.2967 687.1687,-54.7536"/>
<polygon fill="#9a32cd" stroke="#9a32cd" points="1163.849,-57.4565 1173.8815,-54.0508 1163.9149,-50.4568 1163.849,-57.4565"/>
<text text-anchor="middle" x="958.5" y="-56" font-family="Helvetica,sans-Serif" font-size="10.00" fill="#000000"> nestedExpressionStack</text>
</g>
<!-- Node50 -->
<g id="node5" class="node">
<title>Node50</title>
<polygon fill="#ffffff" stroke="#bfbfbf" points="424,-45.5 424,-64.5 497,-64.5 497,-45.5 424,-45.5"/>
<text text-anchor="middle" x="460.5" y="-52.5" font-family="Helvetica,sans-Serif" font-size="10.00" fill="#000000">vector&lt;Box&gt;</text>
</g>
<!-- Node50&#45;&gt;Node1 -->
<g id="edge13" class="edge">
<title>Node50&#45;&gt;Node1</title>
<path fill="none" stroke="#9a32cd" stroke-dasharray="5,2" d="M507.1763,-55C549.6969,-55 610.6343,-55 642.9373,-55"/>
<polygon fill="#9a32cd" stroke="#9a32cd" points="507.0605,-51.5001 497.0605,-55 507.0605,-58.5001 507.0605,-51.5001"/>
<text text-anchor="middle" x="599.5" y="-58" font-family="Helvetica,sans-Serif" font-size="10.00" fill="#000000"> Stack</text>
</g>
<!-- Node40 -->
<g id="node6" class="node">
<title>Node40</title>
<g id="a_node6"><a xlink:href="classaworx_1_1lib_1_1strings_1_1AStringBase.html" target="_top" xlink:title="AStringBase\&lt;character\&gt;">
<polygon fill="#ffffff" stroke="#ff0000" points="763,-131.5 763,-150.5 887,-150.5 887,-131.5 763,-131.5"/>
<text text-anchor="middle" x="825" y="-138.5" font-family="Helvetica,sans-Serif" font-size="10.00" fill="#000000">AStringBase&lt;character&gt;</text>
</a>
</g>
</g>
<!-- Node8 -->
<g id="node11" class="node">
<title>Node8</title>
<g id="a_node11"><a xlink:href="classaworx_1_1lib_1_1expressions_1_1Expression.html" target="_top" xlink:title="Expression">
<polygon fill="#ffffff" stroke="#000000" points="1030,-82.5 1030,-101.5 1095,-101.5 1095,-82.5 1030,-82.5"/>
<text text-anchor="middle" x="1062.5" y="-89.5" font-family="Helvetica,sans-Serif" font-size="10.00" fill="#000000">Expression</text>
</a>
</g>
</g>
<!-- Node40&#45;&gt;Node8 -->
<g id="edge12" class="edge">
<title>Node40&#45;&gt;Node8</title>
<path fill="none" stroke="#9a32cd" stroke-dasharray="5,2" d="M889.1275,-129.667C925.3184,-123.0179 971.3111,-114.1446 1012,-105 1017.8297,-103.6898 1024.0101,-102.1911 1029.9728,-100.6882"/>
<polygon fill="#9a32cd" stroke="#9a32cd" points="888.4005,-126.2418 879.1922,-131.4818 889.6584,-133.1278 888.4005,-126.2418"/>
<text text-anchor="middle" x="958.5" y="-162" font-family="Helvetica,sans-Serif" font-size="10.00" fill="#000000"> normalizedString</text>
<text text-anchor="middle" x="958.5" y="-151" font-family="Helvetica,sans-Serif" font-size="10.00" fill="#000000">name</text>
<text text-anchor="middle" x="958.5" y="-140" font-family="Helvetica,sans-Serif" font-size="10.00" fill="#000000">originalString</text>
<text text-anchor="middle" x="958.5" y="-129" font-family="Helvetica,sans-Serif" font-size="10.00" fill="#000000">optimizedString</text>
</g>
<!-- Node9&#45;&gt;Node8 -->
<g id="edge11" class="edge">
<title>Node9&#45;&gt;Node8</title>
<path fill="none" stroke="#9a32cd" stroke-dasharray="5,2" d="M861.6035,-81.0894C875.215,-82.497 890.7996,-83.9752 905,-85 948.1336,-88.1128 998.0191,-90.0497 1029.8917,-91.0764"/>
<polygon fill="#9a32cd" stroke="#9a32cd" points="861.9475,-77.6064 851.6349,-80.0355 861.2115,-84.5676 861.9475,-77.6064"/>
<text text-anchor="middle" x="958.5" y="-93" font-family="Helvetica,sans-Serif" font-size="10.00" fill="#000000"> program</text>
</g>
<!-- Node2&#45;&gt;Node1 -->
<g id="edge3" class="edge">
<title>Node2&#45;&gt;Node1</title>
<path fill="none" stroke="#9a32cd" stroke-dasharray="5,2" d="M511.7782,-19.399C544.514,-23.5078 587.6625,-30.1568 625,-40 630.8807,-41.5503 637.0981,-43.6465 642.8332,-45.7797"/>
<polygon fill="#9a32cd" stroke="#9a32cd" points="511.8856,-15.8864 501.5362,-18.1535 511.0405,-22.8352 511.8856,-15.8864"/>
<text text-anchor="middle" x="599.5" y="-43" font-family="Helvetica,sans-Serif" font-size="10.00" fill="#000000"> Memory</text>
</g>
<!-- Node4 -->
<g id="node9" class="node">
<title>Node4</title>
<g id="a_node9"><a xlink:href="structaworx_1_1lib_1_1util_1_1MemoryBlocks_1_1Block.html" target="_top" xlink:title="Block">
<polygon fill="#ffffff" stroke="#000000" points="7,-.5 7,-19.5 48,-19.5 48,-.5 7,-.5"/>
<text text-anchor="middle" x="27.5" y="-7.5" font-family="Helvetica,sans-Serif" font-size="10.00" fill="#000000">Block</text>
</a>
</g>
</g>
<!-- Node4&#45;&gt;Node3 -->
<g id="edge5" class="edge">
<title>Node4&#45;&gt;Node3</title>
<path fill="none" stroke="#9a32cd" stroke-dasharray="5,2" d="M58.1704,-10C78.8842,-10 107.1947,-10 133.76,-10"/>
<polygon fill="#9a32cd" stroke="#9a32cd" points="58.0803,-6.5001 48.0803,-10 58.0803,-13.5001 58.0803,-6.5001"/>
<text text-anchor="middle" x="94.5" y="-13" font-family="Helvetica,sans-Serif" font-size="10.00" fill="#000000"> elements</text>
</g>
<!-- Node6 -->
<g id="node10" class="node">
<title>Node6</title>
<g id="a_node10"><a xlink:href="structaworx_1_1lib_1_1expressions_1_1ScopeResource.html" target="_top" xlink:title="ScopeResource">
<polygon fill="#ffffff" stroke="#000000" points="167,-83.5 167,-102.5 253,-102.5 253,-83.5 167,-83.5"/>
<text text-anchor="middle" x="210" y="-90.5" font-family="Helvetica,sans-Serif" font-size="10.00" fill="#000000">ScopeResource</text>
</a>
</g>
</g>
<!-- Node6&#45;&gt;Node5 -->
<g id="edge7" class="edge">
<title>Node6&#45;&gt;Node5</title>
<path fill="none" stroke="#9a32cd" stroke-dasharray="5,2" d="M263.153,-93C292.689,-93 330.3359,-93 364.8132,-93"/>
<polygon fill="#9a32cd" stroke="#9a32cd" points="263.0625,-89.5001 253.0625,-93 263.0625,-96.5001 263.0625,-89.5001"/>
<text text-anchor="middle" x="325.5" y="-96" font-family="Helvetica,sans-Serif" font-size="10.00" fill="#000000"> elements</text>
</g>
<!-- Node8&#45;&gt;Node7 -->
<g id="edge9" class="edge">
<title>Node8&#45;&gt;Node7</title>
<path fill="none" stroke="#9a32cd" stroke-dasharray="5,2" d="M1105.2348,-83.9532C1135.5329,-78.2483 1176.3153,-70.5691 1208.2666,-64.5528"/>
<polygon fill="#9a32cd" stroke="#9a32cd" points="1104.5693,-80.517 1095.3897,-85.807 1105.8647,-87.3961 1104.5693,-80.517"/>
<text text-anchor="middle" x="1134.5" y="-85" font-family="Helvetica,sans-Serif" font-size="10.00" fill="#000000"> elements</text>
</g>
<!-- Node8&#45;&gt;Node9 -->
<g id="edge10" class="edge">
<title>Node8&#45;&gt;Node9</title>
<path fill="none" stroke="#9a32cd" stroke-dasharray="5,2" d="M1031.3112,-79.02C1025.0215,-76.9357 1018.38,-75.103 1012,-74 955.5292,-64.2367 888.0367,-69.3621 851.5635,-73.487"/>
<polygon fill="#9a32cd" stroke="#9a32cd" points="1030.2231,-82.348 1040.8176,-82.4337 1032.5889,-75.7599 1030.2231,-82.348"/>
<text text-anchor="middle" x="958.5" y="-77" font-family="Helvetica,sans-Serif" font-size="10.00" fill="#000000"> expression</text>
</g>
<!-- Node51 -->
<g id="node12" class="node">
<title>Node51</title>
<g id="a_node12"><a xlink:href="classaworx_1_1lib_1_1boxing_1_1Box.html" target="_top" xlink:title="Box">
<polygon fill="#ffffff" stroke="#000000" points="193,-45.5 193,-64.5 227,-64.5 227,-45.5 193,-45.5"/>
<text text-anchor="middle" x="210" y="-52.5" font-family="Helvetica,sans-Serif" font-size="10.00" fill="#000000">Box</text>
</a>
</g>
</g>
<!-- Node51&#45;&gt;Node50 -->
<g id="edge14" class="edge">
<title>Node51&#45;&gt;Node50</title>
<path fill="none" stroke="#9a32cd" stroke-dasharray="5,2" d="M237.4524,-55C282.7386,-55 373.1233,-55 423.83,-55"/>
<polygon fill="#9a32cd" stroke="#9a32cd" points="237.2179,-51.5001 227.2179,-55 237.2178,-58.5001 237.2179,-51.5001"/>
<text text-anchor="middle" x="325.5" y="-58" font-family="Helvetica,sans-Serif" font-size="10.00" fill="#000000"> elements</text>
</g>
<!-- Node52 -->
<g id="node13" class="node">
<title>Node52</title>
<g id="a_node13"><a xlink:href="structaworx_1_1lib_1_1boxing_1_1BoxData.html" target="_top" xlink:title="BoxData">
<polygon fill="#ffffff" stroke="#000000" points="0,-80.5 0,-99.5 55,-99.5 55,-80.5 0,-80.5"/>
<text text-anchor="middle" x="27.5" y="-87.5" font-family="Helvetica,sans-Serif" font-size="10.00" fill="#000000">BoxData</text>
</a>
</g>
</g>
<!-- Node52&#45;&gt;Node51 -->
<g id="edge15" class="edge">
<title>Node52&#45;&gt;Node51</title>
<path fill="none" stroke="#9a32cd" stroke-dasharray="5,2" d="M65.2026,-82.7694C104.4066,-75.2508 164.0174,-63.8186 192.9947,-58.2613"/>
<polygon fill="#9a32cd" stroke="#9a32cd" points="64.3796,-79.3633 55.2178,-84.6843 65.6981,-86.238 64.3796,-79.3633"/>
<text text-anchor="middle" x="94.5" y="-83" font-family="Helvetica,sans-Serif" font-size="10.00" fill="#000000"> data</text>
</g>
<!-- Node53 -->
<g id="node14" class="node">
<title>Node53</title>
<g id="a_node14"><a xlink:href="classaworx_1_1lib_1_1boxing_1_1Boxer.html" target="_top" xlink:title="Boxer">
<polygon fill="#ffffff" stroke="#000000" points="6.5,-42.5 6.5,-61.5 48.5,-61.5 48.5,-42.5 6.5,-42.5"/>
<text text-anchor="middle" x="27.5" y="-49.5" font-family="Helvetica,sans-Serif" font-size="10.00" fill="#000000">Boxer</text>
</a>
</g>
</g>
<!-- Node53&#45;&gt;Node51 -->
<g id="edge16" class="edge">
<title>Node53&#45;&gt;Node51</title>
<path fill="none" stroke="#9a32cd" stroke-dasharray="5,2" d="M59.0029,-52.5179C97.7967,-53.1556 162.2985,-54.2159 192.8917,-54.7188"/>
<polygon fill="#9a32cd" stroke="#9a32cd" points="58.8485,-49.0149 48.7922,-52.35 58.7333,-56.014 58.8485,-49.0149"/>
<text text-anchor="middle" x="94.5" y="-56" font-family="Helvetica,sans-Serif" font-size="10.00" fill="#000000"> boxer</text>
</g>
</g>
</svg>
