<?xml version="1.0" encoding="UTF-8" standalone="no"?>
<!DOCTYPE svg PUBLIC "-//W3C//DTD SVG 1.1//EN"
 "http://www.w3.org/Graphics/SVG/1.1/DTD/svg11.dtd">
<!-- Generated by graphviz version 2.40.1 (20161225.0304)
 -->
<!-- Title: CompilerPlugin::CIBinaryAutoCast Pages: 1 -->
<svg width="1133pt" height="341pt"
 viewBox="0.00 0.00 1133.00 340.96" xmlns="http://www.w3.org/2000/svg" xmlns:xlink="http://www.w3.org/1999/xlink">
<g id="graph0" class="graph" transform="scale(1 1) rotate(0) translate(4 336.964)">
<title>CompilerPlugin::CIBinaryAutoCast</title>
<polygon fill="#ffffff" stroke="transparent" points="-4,4 -4,-336.964 1129,-336.964 1129,4 -4,4"/>
<!-- Node2 -->
<g id="node1" class="node">
<title>Node2</title>
<polygon fill="#bfbfbf" stroke="#000000" points="957,-251.464 957,-270.464 1125,-270.464 1125,-251.464 957,-251.464"/>
<text text-anchor="middle" x="1041" y="-258.464" font-family="Helvetica,sans-Serif" font-size="10.00" fill="#000000">CompilerPlugin::CIBinaryAutoCast</text>
</g>
<!-- Node4 -->
<g id="node2" class="node">
<title>Node4</title>
<polygon fill="#ffffff" stroke="#bfbfbf" points="339,-45.464 339,-64.464 412,-64.464 412,-45.464 339,-45.464"/>
<text text-anchor="middle" x="375.5" y="-52.464" font-family="Helvetica,sans-Serif" font-size="10.00" fill="#000000">vector&lt;Box&gt;</text>
</g>
<!-- Node3 -->
<g id="node8" class="node">
<title>Node3</title>
<g id="a_node8"><a xlink:href="structaworx_1_1lib_1_1expressions_1_1CompilerPlugin_1_1CompilationInfo.html" target="_top" xlink:title="CompilationInfo">
<polygon fill="#ffffff" stroke="#000000" points="665,-82.464 665,-101.464 750,-101.464 750,-82.464 665,-82.464"/>
<text text-anchor="middle" x="707.5" y="-89.464" font-family="Helvetica,sans-Serif" font-size="10.00" fill="#000000">CompilationInfo</text>
</a>
</g>
</g>
<!-- Node4&#45;&gt;Node3 -->
<g id="edge2" class="edge">
<title>Node4&#45;&gt;Node3</title>
<path fill="none" stroke="#9a32cd" stroke-dasharray="5,2" d="M422.607,-60.2139C487.2575,-67.4189 602.5327,-80.2658 664.7897,-87.2041"/>
<polygon fill="#9a32cd" stroke="#9a32cd" points="422.6245,-56.6942 412.2983,-59.065 421.8491,-63.6512 422.6245,-56.6942"/>
<text text-anchor="middle" x="485.5" y="-84.964" font-family="Helvetica,sans-Serif" font-size="10.00" fill="#000000"> ArgsEnd</text>
<text text-anchor="middle" x="485.5" y="-73.964" font-family="Helvetica,sans-Serif" font-size="10.00" fill="#000000">ArgsBegin</text>
</g>
<!-- Node12 -->
<g id="node3" class="node">
<title>Node12</title>
<polygon fill="#ffffff" stroke="#bfbfbf" points="113,-194.464 113,-213.464 304,-213.464 304,-194.464 113,-194.464"/>
<text text-anchor="middle" x="208.5" y="-201.464" font-family="Helvetica,sans-Serif" font-size="10.00" fill="#000000">vector&lt;expressions::ScopeResource *&gt;</text>
</g>
<!-- Node8 -->
<g id="node10" class="node">
<title>Node8</title>
<g id="a_node10"><a xlink:href="structaworx_1_1lib_1_1expressions_1_1Scope.html" target="_top" xlink:title="Scope">
<polygon fill="#ffffff" stroke="#000000" points="463.5,-118.464 463.5,-137.464 507.5,-137.464 507.5,-118.464 463.5,-118.464"/>
<text text-anchor="middle" x="485.5" y="-125.464" font-family="Helvetica,sans-Serif" font-size="10.00" fill="#000000">Scope</text>
</a>
</g>
</g>
<!-- Node12&#45;&gt;Node8 -->
<g id="edge10" class="edge">
<title>Node12&#45;&gt;Node8</title>
<path fill="none" stroke="#9a32cd" stroke-dasharray="5,2" d="M314.606,-199.7051C351.9106,-195.3456 393.3829,-187.144 429,-171.964 447.7569,-163.9698 465.6692,-148.1605 476.1211,-137.8301"/>
<polygon fill="#9a32cd" stroke="#9a32cd" points="313.7665,-196.2756 304.2031,-200.8354 314.5226,-203.2346 313.7665,-196.2756"/>
<text text-anchor="middle" x="375.5" y="-200.964" font-family="Helvetica,sans-Serif" font-size="10.00" fill="#000000"> Resources</text>
</g>
<!-- Node14 -->
<g id="node4" class="node">
<title>Node14</title>
<polygon fill="#ffffff" stroke="#bfbfbf" points="123.5,-156.464 123.5,-175.464 293.5,-175.464 293.5,-156.464 123.5,-156.464"/>
<text text-anchor="middle" x="208.5" y="-163.464" font-family="Helvetica,sans-Serif" font-size="10.00" fill="#000000">vector&lt;expressions::Expression *&gt;</text>
</g>
<!-- Node14&#45;&gt;Node8 -->
<g id="edge11" class="edge">
<title>Node14&#45;&gt;Node8</title>
<path fill="none" stroke="#9a32cd" stroke-dasharray="5,2" d="M304.0358,-159.2633C342.9889,-155.685 388.3426,-150.4345 429,-142.964 440.479,-140.8548 453.0464,-137.6136 463.4079,-134.6831"/>
<polygon fill="#9a32cd" stroke="#9a32cd" points="303.4027,-155.8059 293.7543,-160.1829 304.0264,-162.7781 303.4027,-155.8059"/>
<text text-anchor="middle" x="375.5" y="-159.964" font-family="Helvetica,sans-Serif" font-size="10.00" fill="#000000"> nestedExpressionStack</text>
</g>
<!-- Node57 -->
<g id="node5" class="node">
<title>Node57</title>
<polygon fill="#ffffff" stroke="#bfbfbf" points="172,-80.464 172,-99.464 245,-99.464 245,-80.464 172,-80.464"/>
<text text-anchor="middle" x="208.5" y="-87.464" font-family="Helvetica,sans-Serif" font-size="10.00" fill="#000000">vector&lt;Box&gt;</text>
</g>
<!-- Node57&#45;&gt;Node8 -->
<g id="edge14" class="edge">
<title>Node57&#45;&gt;Node8</title>
<path fill="none" stroke="#9a32cd" stroke-dasharray="5,2" d="M255.0437,-92.7082C299.8773,-95.8474 369.4723,-102.0262 429,-112.964 440.479,-115.0732 453.0464,-118.3144 463.4079,-121.2449"/>
<polygon fill="#9a32cd" stroke="#9a32cd" points="255.248,-89.2141 245.034,-92.0291 254.7741,-96.198 255.248,-89.2141"/>
<text text-anchor="middle" x="375.5" y="-115.964" font-family="Helvetica,sans-Serif" font-size="10.00" fill="#000000"> Stack</text>
</g>
<!-- Node35 -->
<g id="node6" class="node">
<title>Node35</title>
<g id="a_node6"><a xlink:href="classaworx_1_1lib_1_1strings_1_1StringBase.html" target="_top" xlink:title="StringBase\&lt;character\&gt;">
<polygon fill="#ffffff" stroke="#000000" points="649,-308.464 649,-327.464 766,-327.464 766,-308.464 649,-308.464"/>
<text text-anchor="middle" x="707.5" y="-315.464" font-family="Helvetica,sans-Serif" font-size="10.00" fill="#000000">StringBase&lt;character&gt;</text>
</a>
</g>
</g>
<!-- Node35&#45;&gt;Node2 -->
<g id="edge12" class="edge">
<title>Node35&#45;&gt;Node2</title>
<path fill="none" stroke="#9a32cd" stroke-dasharray="5,2" d="M776.6303,-312.4576C822.8815,-308.0757 884.946,-300.8473 939,-289.964 963.9062,-284.9494 991.6004,-276.9141 1011.8394,-270.572"/>
<polygon fill="#9a32cd" stroke="#9a32cd" points="776.0527,-308.996 766.418,-313.4033 776.6982,-315.9662 776.0527,-308.996"/>
<text text-anchor="middle" x="861.5" y="-324.964" font-family="Helvetica,sans-Serif" font-size="10.00" fill="#000000"> CastExpressionFunctionNameRhs</text>
<text text-anchor="middle" x="861.5" y="-313.964" font-family="Helvetica,sans-Serif" font-size="10.00" fill="#000000">CastExpressionFunctionNameLhs</text>
</g>
<!-- Node46 -->
<g id="node7" class="node">
<title>Node46</title>
<g id="a_node7"><a xlink:href="classaworx_1_1lib_1_1strings_1_1StringBase.html" target="_top" xlink:title="StringBase\&lt;TChar\&gt;">
<polygon fill="#ffffff" stroke="#ff0000" points="656,-270.464 656,-289.464 759,-289.464 759,-270.464 656,-270.464"/>
<text text-anchor="middle" x="707.5" y="-277.464" font-family="Helvetica,sans-Serif" font-size="10.00" fill="#000000">StringBase&lt;TChar&gt;</text>
</a>
</g>
</g>
<!-- Node46&#45;&gt;Node2 -->
<g id="edge13" class="edge">
<title>Node46&#45;&gt;Node2</title>
<path fill="none" stroke="#9a32cd" stroke-dasharray="5,2" d="M769.4792,-276.433C822.291,-273.4242 898.672,-269.0726 956.9789,-265.7508"/>
<polygon fill="#9a32cd" stroke="#9a32cd" points="769.0282,-272.9529 759.2435,-277.0161 769.4264,-279.9416 769.0282,-272.9529"/>
<text text-anchor="middle" x="861.5" y="-277.964" font-family="Helvetica,sans-Serif" font-size="10.00" fill="#000000"> BinaryOp</text>
</g>
<!-- Node3&#45;&gt;Node2 -->
<g id="edge1" class="edge">
<title>Node3&#45;&gt;Node2</title>
<path fill="none" stroke="#191970" d="M735.3847,-106.0945C801.3843,-139.5396 965.8245,-222.8691 1021.9078,-251.2891"/>
<polygon fill="#191970" stroke="#191970" points="736.8881,-102.9326 726.386,-101.5344 733.7239,-109.1767 736.8881,-102.9326"/>
</g>
<!-- Node5 -->
<g id="node9" class="node">
<title>Node5</title>
<g id="a_node9"><a xlink:href="classaworx_1_1lib_1_1boxing_1_1Box.html" target="_top" xlink:title="Box">
<polygon fill="#ffffff" stroke="#ff0000" points="0,-61.464 0,-80.464 34,-80.464 34,-61.464 0,-61.464"/>
<text text-anchor="middle" x="17" y="-68.464" font-family="Helvetica,sans-Serif" font-size="10.00" fill="#000000">Box</text>
</a>
</g>
</g>
<!-- Node5&#45;&gt;Node2 -->
<g id="edge3" class="edge">
<title>Node5&#45;&gt;Node2</title>
<path fill="none" stroke="#9a32cd" stroke-dasharray="5,2" d="M23.5283,-90.5268C35.6032,-123.4984 64.6939,-189.7787 113,-222.964 148.6702,-247.4687 165.2237,-241.964 208.5,-241.964 208.5,-241.964 208.5,-241.964 707.5,-241.964 792.46,-241.964 889.3979,-248.1863 956.7812,-253.5092"/>
<polygon fill="#9a32cd" stroke="#9a32cd" points="26.6991,-88.9927 20.0825,-80.718 20.0948,-91.3128 26.6991,-88.9927"/>
<text text-anchor="middle" x="485.5" y="-255.964" font-family="Helvetica,sans-Serif" font-size="10.00" fill="#000000"> TypeOrValueRhs</text>
<text text-anchor="middle" x="485.5" y="-244.964" font-family="Helvetica,sans-Serif" font-size="10.00" fill="#000000">CallbackRhs</text>
</g>
<!-- Node5&#45;&gt;Node4 -->
<g id="edge5" class="edge">
<title>Node5&#45;&gt;Node4</title>
<path fill="none" stroke="#9a32cd" stroke-dasharray="5,2" d="M43.7952,-60.8226C46.5362,-60.0739 49.304,-59.4305 52,-58.964 154.6652,-41.2001 278.4026,-47.0798 338.7687,-51.6654"/>
<polygon fill="#9a32cd" stroke="#9a32cd" points="42.6419,-57.5163 34.1609,-63.8664 44.7507,-64.1911 42.6419,-57.5163"/>
<text text-anchor="middle" x="73.5" y="-61.964" font-family="Helvetica,sans-Serif" font-size="10.00" fill="#000000"> elements</text>
</g>
<!-- Node5&#45;&gt;Node57 -->
<g id="edge6" class="edge">
<title>Node5&#45;&gt;Node57</title>
<path fill="none" stroke="#9a32cd" stroke-dasharray="5,2" d="M44.325,-73.6751C77.7996,-76.9963 134.6379,-82.6356 171.8742,-86.3301"/>
<polygon fill="#9a32cd" stroke="#9a32cd" points="44.6288,-70.1882 34.3321,-72.6836 43.9376,-77.154 44.6288,-70.1882"/>
<text text-anchor="middle" x="73.5" y="-80.964" font-family="Helvetica,sans-Serif" font-size="10.00" fill="#000000"> elements</text>
</g>
<!-- Node5&#45;&gt;Node3 -->
<g id="edge4" class="edge">
<title>Node5&#45;&gt;Node3</title>
<path fill="none" stroke="#9a32cd" stroke-dasharray="5,2" d="M37.8566,-55.8304C42.343,-53.1646 47.1877,-50.6936 52,-48.964 210.3584,7.9523 262.2599,8.7207 429,-13.964 524.7743,-26.9939 633.9863,-64.5319 682.2729,-82.3525"/>
<polygon fill="#9a32cd" stroke="#9a32cd" points="35.7581,-53.0198 29.2762,-61.4005 39.5696,-58.8911 35.7581,-53.0198"/>
<text text-anchor="middle" x="375.5" y="-27.964" font-family="Helvetica,sans-Serif" font-size="10.00" fill="#000000"> TypeOrValue</text>
<text text-anchor="middle" x="375.5" y="-16.964" font-family="Helvetica,sans-Serif" font-size="10.00" fill="#000000">Callback</text>
</g>
<!-- Node8&#45;&gt;Node3 -->
<g id="edge7" class="edge">
<title>Node8&#45;&gt;Node3</title>
<path fill="none" stroke="#9a32cd" stroke-dasharray="5,2" d="M517.794,-122.7272C556.5681,-116.4394 621.7316,-105.8724 664.6756,-98.9085"/>
<polygon fill="#9a32cd" stroke="#9a32cd" points="516.9086,-119.3249 507.5978,-124.3806 518.0292,-126.2347 516.9086,-119.3249"/>
<text text-anchor="middle" x="586.5" y="-120.964" font-family="Helvetica,sans-Serif" font-size="10.00" fill="#000000"> CompileTimeScope</text>
</g>
<!-- Node8&#45;&gt;Node8 -->
<g id="edge8" class="edge">
<title>Node8&#45;&gt;Node8</title>
<path fill="none" stroke="#9a32cd" stroke-dasharray="5,2" d="M466.9824,-147.364C468.2191,-152.2786 474.3916,-155.964 485.5,-155.964 503.2734,-155.964 508.4111,-146.5293 500.9129,-137.7211"/>
<polygon fill="#9a32cd" stroke="#9a32cd" points="470.3539,-148.3125 470.0871,-137.7211 463.6907,-146.1672 470.3539,-148.3125"/>
<text text-anchor="middle" x="485.5" y="-158.964" font-family="Helvetica,sans-Serif" font-size="10.00" fill="#000000"> CTScope</text>
</g>
<!-- Node9 -->
<g id="node11" class="node">
<title>Node9</title>
<g id="a_node11"><a xlink:href="classaworx_1_1lib_1_1util_1_1MemoryBlocks.html" target="_top" xlink:title="MemoryBlocks">
<polygon fill="#ffffff" stroke="#ff0000" points="167.5,-118.464 167.5,-137.464 249.5,-137.464 249.5,-118.464 167.5,-118.464"/>
<text text-anchor="middle" x="208.5" y="-125.464" font-family="Helvetica,sans-Serif" font-size="10.00" fill="#000000">MemoryBlocks</text>
</a>
</g>
</g>
<!-- Node9&#45;&gt;Node8 -->
<g id="edge9" class="edge">
<title>Node9&#45;&gt;Node8</title>
<path fill="none" stroke="#9a32cd" stroke-dasharray="5,2" d="M259.8277,-127.964C320.641,-127.964 419.235,-127.964 463.157,-127.964"/>
<polygon fill="#9a32cd" stroke="#9a32cd" points="259.6706,-124.4641 249.6706,-127.964 259.6706,-131.4641 259.6706,-124.4641"/>
<text text-anchor="middle" x="375.5" y="-130.964" font-family="Helvetica,sans-Serif" font-size="10.00" fill="#000000"> Memory</text>
</g>
</g>
</svg>
