<?xml version="1.0" encoding="UTF-8" standalone="no"?>
<!DOCTYPE svg PUBLIC "-//W3C//DTD SVG 1.1//EN"
 "http://www.w3.org/Graphics/SVG/1.1/DTD/svg11.dtd">
<!-- Generated by graphviz version 2.40.1 (20161225.0304)
 -->
<!-- Title: ScopeInfo::SourcePathTrimRule Pages: 1 -->
<svg width="167pt" height="220pt"
 viewBox="0.00 0.00 166.50 220.00" xmlns="http://www.w3.org/2000/svg" xmlns:xlink="http://www.w3.org/1999/xlink">
<g id="graph0" class="graph" transform="scale(1 1) rotate(0) translate(4 216)">
<title>ScopeInfo::SourcePathTrimRule</title>
<polygon fill="#ffffff" stroke="transparent" points="-4,4 -4,-216 162.5,-216 162.5,4 -4,4"/>
<!-- Node1 -->
<g id="node1" class="node">
<title>Node1</title>
<polygon fill="#bfbfbf" stroke="#000000" points="0,-.5 0,-19.5 157,-19.5 157,-.5 0,-.5"/>
<text text-anchor="middle" x="78.5" y="-7.5" font-family="Helvetica,sans-Serif" font-size="10.00" fill="#000000">ScopeInfo::SourcePathTrimRule</text>
</g>
<!-- Node2 -->
<g id="node2" class="node">
<title>Node2</title>
<g id="a_node2"><a xlink:href="classaworx_1_1lib_1_1strings_1_1AStringBase.html" target="_top" xlink:title="AStringBase\&lt;nchar\&gt;">
<polygon fill="#ffffff" stroke="#000000" points="25,-78.5 25,-97.5 132,-97.5 132,-78.5 25,-78.5"/>
<text text-anchor="middle" x="78.5" y="-85.5" font-family="Helvetica,sans-Serif" font-size="10.00" fill="#000000">AStringBase&lt;nchar&gt;</text>
</a>
</g>
</g>
<!-- Node2&#45;&gt;Node1 -->
<g id="edge1" class="edge">
<title>Node2&#45;&gt;Node1</title>
<path fill="none" stroke="#9a32cd" stroke-dasharray="5,2" d="M78.5,-68.2866C78.5,-52.7395 78.5,-31.7276 78.5,-19.6426"/>
<polygon fill="#9a32cd" stroke="#9a32cd" points="75.0001,-68.4356 78.5,-78.4357 82.0001,-68.4357 75.0001,-68.4356"/>
<text text-anchor="middle" x="118.5" y="-52" font-family="Helvetica,sans-Serif" font-size="10.00" fill="#000000"> TrimReplacement</text>
<text text-anchor="middle" x="118.5" y="-41" font-family="Helvetica,sans-Serif" font-size="10.00" fill="#000000">Path</text>
</g>
<!-- Node3 -->
<g id="node3" class="node">
<title>Node3</title>
<g id="a_node3"><a xlink:href="classaworx_1_1lib_1_1strings_1_1TStringBase.html" target="_top" xlink:title="TStringBase\&lt;nchar\&gt;">
<polygon fill="#ffffff" stroke="#000000" points="25,-135.5 25,-154.5 132,-154.5 132,-135.5 25,-135.5"/>
<text text-anchor="middle" x="78.5" y="-142.5" font-family="Helvetica,sans-Serif" font-size="10.00" fill="#000000">TStringBase&lt;nchar&gt;</text>
</a>
</g>
</g>
<!-- Node3&#45;&gt;Node2 -->
<g id="edge2" class="edge">
<title>Node3&#45;&gt;Node2</title>
<path fill="none" stroke="#191970" d="M78.5,-125.2342C78.5,-115.8491 78.5,-105.0651 78.5,-97.5265"/>
<polygon fill="#191970" stroke="#191970" points="75.0001,-125.3307 78.5,-135.3307 82.0001,-125.3308 75.0001,-125.3307"/>
</g>
<!-- Node4 -->
<g id="node4" class="node">
<title>Node4</title>
<g id="a_node4"><a xlink:href="classaworx_1_1lib_1_1strings_1_1StringBase.html" target="_top" xlink:title="StringBase\&lt;nchar\&gt;">
<polygon fill="#ffffff" stroke="#000000" points="28,-192.5 28,-211.5 129,-211.5 129,-192.5 28,-192.5"/>
<text text-anchor="middle" x="78.5" y="-199.5" font-family="Helvetica,sans-Serif" font-size="10.00" fill="#000000">StringBase&lt;nchar&gt;</text>
</a>
</g>
</g>
<!-- Node4&#45;&gt;Node3 -->
<g id="edge3" class="edge">
<title>Node4&#45;&gt;Node3</title>
<path fill="none" stroke="#191970" d="M78.5,-182.2342C78.5,-172.8491 78.5,-162.0651 78.5,-154.5265"/>
<polygon fill="#191970" stroke="#191970" points="75.0001,-182.3307 78.5,-192.3307 82.0001,-182.3308 75.0001,-182.3307"/>
</g>
</g>
</svg>
