<?xml version="1.0" encoding="UTF-8" standalone="no"?>
<!DOCTYPE svg PUBLIC "-//W3C//DTD SVG 1.1//EN"
 "http://www.w3.org/Graphics/SVG/1.1/DTD/svg11.dtd">
<!-- Generated by graphviz version 2.40.1 (20161225.0304)
 -->
<!-- Title: Program::CompileStorage Pages: 1 -->
<svg width="856pt" height="143pt"
 viewBox="0.00 0.00 856.00 143.00" xmlns="http://www.w3.org/2000/svg" xmlns:xlink="http://www.w3.org/1999/xlink">
<g id="graph0" class="graph" transform="scale(1 1) rotate(0) translate(4 139)">
<title>Program::CompileStorage</title>
<polygon fill="#ffffff" stroke="transparent" points="-4,4 -4,-139 852,-139 852,4 -4,4"/>
<!-- Node1 -->
<g id="node1" class="node">
<title>Node1</title>
<polygon fill="#bfbfbf" stroke="#000000" points="719,-57.5 719,-76.5 848,-76.5 848,-57.5 719,-57.5"/>
<text text-anchor="middle" x="783.5" y="-64.5" font-family="Helvetica,sans-Serif" font-size="10.00" fill="#000000">Program::CompileStorage</text>
</g>
<!-- Node2 -->
<g id="node2" class="node">
<title>Node2</title>
<polygon fill="#ffffff" stroke="#bfbfbf" points="369.5,-114.5 369.5,-133.5 479.5,-133.5 479.5,-114.5 369.5,-114.5"/>
<text text-anchor="middle" x="424.5" y="-121.5" font-family="Helvetica,sans-Serif" font-size="10.00" fill="#000000">vector&lt;AStringBase&gt;</text>
</g>
<!-- Node2&#45;&gt;Node1 -->
<g id="edge1" class="edge">
<title>Node2&#45;&gt;Node1</title>
<path fill="none" stroke="#9a32cd" stroke-dasharray="5,2" d="M489.8095,-120.7557C546.2274,-117.0426 629.6793,-109.3642 701,-94 720.8889,-89.7155 742.7437,-82.4413 758.9602,-76.5221"/>
<polygon fill="#9a32cd" stroke="#9a32cd" points="489.3568,-117.2773 479.5986,-121.4038 489.8003,-124.2632 489.3568,-117.2773"/>
<text text-anchor="middle" x="616.5" y="-120" font-family="Helvetica,sans-Serif" font-size="10.00" fill="#000000"> functionsWithNonMatchingArguments</text>
</g>
<!-- Node7 -->
<g id="node3" class="node">
<title>Node7</title>
<polygon fill="#ffffff" stroke="#bfbfbf" points="335,-76.5 335,-95.5 514,-95.5 514,-76.5 335,-76.5"/>
<text text-anchor="middle" x="424.5" y="-83.5" font-family="Helvetica,sans-Serif" font-size="10.00" fill="#000000">stack&lt;tuple&lt;VM::PC, VM::PC, int&gt;&gt;</text>
</g>
<!-- Node7&#45;&gt;Node1 -->
<g id="edge4" class="edge">
<title>Node7&#45;&gt;Node1</title>
<path fill="none" stroke="#9a32cd" stroke-dasharray="5,2" d="M524.3977,-80.7129C586.6002,-77.4209 664.7953,-73.2824 718.9269,-70.4175"/>
<polygon fill="#9a32cd" stroke="#9a32cd" points="523.9658,-77.2308 514.1648,-81.2545 524.3358,-84.221 523.9658,-77.2308"/>
<text text-anchor="middle" x="616.5" y="-82" font-family="Helvetica,sans-Serif" font-size="10.00" fill="#000000"> conditionalStack</text>
</g>
<!-- Node8 -->
<g id="node4" class="node">
<title>Node8</title>
<polygon fill="#ffffff" stroke="#bfbfbf" points="379,-38.5 379,-57.5 470,-57.5 470,-38.5 379,-38.5"/>
<text text-anchor="middle" x="424.5" y="-45.5" font-family="Helvetica,sans-Serif" font-size="10.00" fill="#000000">vector&lt;VM::PC&gt;</text>
</g>
<!-- Node8&#45;&gt;Node1 -->
<g id="edge5" class="edge">
<title>Node8&#45;&gt;Node1</title>
<path fill="none" stroke="#9a32cd" stroke-dasharray="5,2" d="M480.129,-47.9194C536.031,-48.2358 624.6192,-49.8197 701,-56 706.761,-56.4661 712.7359,-57.0552 718.7172,-57.7173"/>
<polygon fill="#9a32cd" stroke="#9a32cd" points="480.0972,-44.4193 470.0815,-47.8743 480.0656,-51.4193 480.0972,-44.4193"/>
<text text-anchor="middle" x="616.5" y="-59" font-family="Helvetica,sans-Serif" font-size="10.00" fill="#000000"> resultStack</text>
</g>
<!-- Node9 -->
<g id="node5" class="node">
<title>Node9</title>
<g id="a_node5"><a xlink:title="STL class. ">
<polygon fill="#ffffff" stroke="#bfbfbf" points="393.5,-.5 393.5,-19.5 455.5,-19.5 455.5,-.5 393.5,-.5"/>
<text text-anchor="middle" x="424.5" y="-7.5" font-family="Helvetica,sans-Serif" font-size="10.00" fill="#000000">vector&lt;T&gt;</text>
</a>
</g>
</g>
<!-- Node9&#45;&gt;Node1 -->
<g id="edge6" class="edge">
<title>Node9&#45;&gt;Node1</title>
<path fill="none" stroke="#9a32cd" stroke-dasharray="5,2" d="M466.0025,-9.5102C520.6461,-9.7552 619.3518,-13.2829 701,-33 723.8892,-38.5275 748.682,-49.4774 765.0485,-57.462"/>
<polygon fill="#9a32cd" stroke="#9a32cd" points="465.6825,-6.01 455.6794,-9.5011 465.6763,-13.01 465.6825,-6.01"/>
<text text-anchor="middle" x="616.5" y="-36" font-family="Helvetica,sans-Serif" font-size="10.00" fill="#000000"> plugins</text>
</g>
<!-- Node3 -->
<g id="node6" class="node">
<title>Node3</title>
<g id="a_node6"><a xlink:href="classaworx_1_1lib_1_1strings_1_1AStringBase.html" target="_top" xlink:title="AStringBase\&lt;TChar\&gt;">
<polygon fill="#ffffff" stroke="#000000" points="146,-114.5 146,-133.5 256,-133.5 256,-114.5 146,-114.5"/>
<text text-anchor="middle" x="201" y="-121.5" font-family="Helvetica,sans-Serif" font-size="10.00" fill="#000000">AStringBase&lt;TChar&gt;</text>
</a>
</g>
</g>
<!-- Node3&#45;&gt;Node2 -->
<g id="edge2" class="edge">
<title>Node3&#45;&gt;Node2</title>
<path fill="none" stroke="#9a32cd" stroke-dasharray="5,2" d="M266.58,-124C299.1476,-124 338.0631,-124 369.1138,-124"/>
<polygon fill="#9a32cd" stroke="#9a32cd" points="266.2472,-120.5001 256.2472,-124 266.2472,-127.5001 266.2472,-120.5001"/>
<text text-anchor="middle" x="295.5" y="-127" font-family="Helvetica,sans-Serif" font-size="10.00" fill="#000000"> elements</text>
</g>
<!-- Node4 -->
<g id="node7" class="node">
<title>Node4</title>
<g id="a_node7"><a xlink:href="classaworx_1_1lib_1_1strings_1_1TStringBase.html" target="_top" xlink:title="TStringBase\&lt;TChar\&gt;">
<polygon fill="#ffffff" stroke="#ff0000" points="0,-114.5 0,-133.5 109,-133.5 109,-114.5 0,-114.5"/>
<text text-anchor="middle" x="54.5" y="-121.5" font-family="Helvetica,sans-Serif" font-size="10.00" fill="#000000">TStringBase&lt;TChar&gt;</text>
</a>
</g>
</g>
<!-- Node4&#45;&gt;Node3 -->
<g id="edge3" class="edge">
<title>Node4&#45;&gt;Node3</title>
<path fill="none" stroke="#191970" d="M119.0607,-124C128.0182,-124 137.1515,-124 145.9147,-124"/>
<polygon fill="#191970" stroke="#191970" points="119.0512,-120.5001 109.0512,-124 119.0512,-127.5001 119.0512,-120.5001"/>
</g>
<!-- Node10 -->
<g id="node8" class="node">
<title>Node10</title>
<polygon fill="#ffffff" stroke="#bfbfbf" points="186.5,-.5 186.5,-19.5 215.5,-19.5 215.5,-.5 186.5,-.5"/>
<text text-anchor="middle" x="201" y="-7.5" font-family="Helvetica,sans-Serif" font-size="10.00" fill="#000000">T</text>
</g>
<!-- Node10&#45;&gt;Node9 -->
<g id="edge7" class="edge">
<title>Node10&#45;&gt;Node9</title>
<path fill="none" stroke="#9a32cd" stroke-dasharray="5,2" d="M225.836,-10C266.7546,-10 348.2657,-10 393.1143,-10"/>
<polygon fill="#9a32cd" stroke="#9a32cd" points="225.6645,-6.5001 215.6645,-10 225.6644,-13.5001 225.6645,-6.5001"/>
<text text-anchor="middle" x="295.5" y="-13" font-family="Helvetica,sans-Serif" font-size="10.00" fill="#000000"> elements</text>
</g>
</g>
</svg>
