<?xml version="1.0" encoding="UTF-8" standalone="no"?>
<!DOCTYPE svg PUBLIC "-//W3C//DTD SVG 1.1//EN"
 "http://www.w3.org/Graphics/SVG/1.1/DTD/svg11.dtd">
<!-- Generated by graphviz version 2.40.1 (20161225.0304)
 -->
<!-- Title: EnumMetaData&lt;TEnum, TEnableIf&gt; Pages: 1 -->
<svg width="1142pt" height="82pt"
 viewBox="0.00 0.00 1142.00 82.00" xmlns="http://www.w3.org/2000/svg" xmlns:xlink="http://www.w3.org/1999/xlink">
<g id="graph0" class="graph" transform="scale(1 1) rotate(0) translate(4 78)">
<title>EnumMetaData&lt;TEnum, TEnableIf&gt;</title>
<polygon fill="#ffffff" stroke="transparent" points="-4,4 -4,-78 1138,-78 1138,4 -4,4"/>
<!-- Node2 -->
<g id="node1" class="node">
<title>Node2</title>
<polygon fill="#bfbfbf" stroke="#000000" points="958,-22.5 958,-41.5 1134,-41.5 1134,-22.5 958,-22.5"/>
<text text-anchor="middle" x="1046" y="-29.5" font-family="Helvetica,sans-Serif" font-size="10.00" fill="#000000">EnumMetaData&lt;TEnum, TEnableIf&gt;</text>
</g>
<!-- Node5 -->
<g id="node2" class="node">
<title>Node5</title>
<polygon fill="#ffffff" stroke="#bfbfbf" points="95,-52.5 95,-71.5 375,-71.5 375,-52.5 95,-52.5"/>
<text text-anchor="middle" x="235" y="-59.5" font-family="Helvetica,sans-Serif" font-size="10.00" fill="#000000">vector&lt;typename T_EnumMetaDataDecl&lt;TEnum&gt;::TTuple&gt;</text>
</g>
<!-- Node5&#45;&gt;Node2 -->
<g id="edge4" class="edge">
<title>Node5&#45;&gt;Node2</title>
<path fill="none" stroke="#9a32cd" stroke-dasharray="5,2" d="M385.508,-65.404C524.6892,-67.1726 737.1671,-66.3746 921,-51 945.0617,-48.9876 971.5243,-45.1966 993.882,-41.5271"/>
<polygon fill="#9a32cd" stroke="#9a32cd" points="385.244,-61.9002 375.1982,-65.2666 385.1507,-68.8996 385.244,-61.9002"/>
<text text-anchor="middle" x="700.5" y="-66" font-family="Helvetica,sans-Serif" font-size="10.00" fill="#000000"> Table</text>
</g>
<!-- Node4 -->
<g id="node5" class="node">
<title>Node4</title>
<g id="a_node5"><a xlink:href="structaworx_1_1lib_1_1lang_1_1EnumMetaData.html" target="_top" xlink:title="EnumMetaData\&lt;TEnum\&gt;">
<polygon fill="#ffffff" stroke="#000000" points="533,-23.5 533,-42.5 661,-42.5 661,-23.5 533,-23.5"/>
<text text-anchor="middle" x="597" y="-30.5" font-family="Helvetica,sans-Serif" font-size="10.00" fill="#000000">EnumMetaData&lt;TEnum&gt;</text>
</a>
</g>
</g>
<!-- Node5&#45;&gt;Node4 -->
<g id="edge5" class="edge">
<title>Node5&#45;&gt;Node4</title>
<path fill="none" stroke="#9a32cd" stroke-dasharray="5,2" d="M364.0166,-51.6644C421.318,-47.074 486.2146,-41.8751 532.9356,-38.1322"/>
<polygon fill="#9a32cd" stroke="#9a32cd" points="363.4715,-48.1968 353.783,-52.4842 364.0306,-55.1744 363.4715,-48.1968"/>
<text text-anchor="middle" x="501.5" y="-44" font-family="Helvetica,sans-Serif" font-size="10.00" fill="#000000"> Table</text>
</g>
<!-- Node8 -->
<g id="node3" class="node">
<title>Node8</title>
<polygon fill="#ffffff" stroke="#bfbfbf" points="0,-.5 0,-19.5 470,-19.5 470,-.5 0,-.5"/>
<text text-anchor="middle" x="235" y="-7.5" font-family="Helvetica,sans-Serif" font-size="10.00" fill="#000000">map&lt;typename underlying_type&lt;TEnum&gt;::type, typename T_EnumMetaDataDecl&lt;TEnum&gt;::TTuple &amp;&gt;</text>
</g>
<!-- Node8&#45;&gt;Node2 -->
<g id="edge6" class="edge">
<title>Node8&#45;&gt;Node2</title>
<path fill="none" stroke="#9a32cd" stroke-dasharray="5,2" d="M480.5132,-1.7485C611.4784,.3018 775.2493,-.8807 921,-13 945.0627,-15.0008 971.5254,-18.7902 993.8829,-22.4616"/>
<polygon fill="#9a32cd" stroke="#9a32cd" points="480.2864,1.7484 470.3451,-1.9152 480.4012,-5.2507 480.2864,1.7484"/>
<text text-anchor="middle" x="700.5" y="-5" font-family="Helvetica,sans-Serif" font-size="10.00" fill="#000000"> Map</text>
</g>
<!-- Node8&#45;&gt;Node4 -->
<g id="edge7" class="edge">
<title>Node8&#45;&gt;Node4</title>
<path fill="none" stroke="#9a32cd" stroke-dasharray="5,2" d="M480.3561,-17.05C492.0765,-17.9246 503.6724,-18.9039 515,-20 524.0385,-20.8746 533.5945,-22.106 542.8659,-23.4657"/>
<polygon fill="#9a32cd" stroke="#9a32cd" points="480.253,-13.5336 470.0279,-16.308 479.7514,-20.5156 480.253,-13.5336"/>
<text text-anchor="middle" x="501.5" y="-23" font-family="Helvetica,sans-Serif" font-size="10.00" fill="#000000"> Map</text>
</g>
<!-- Node3 -->
<g id="node4" class="node">
<title>Node3</title>
<g id="a_node4"><a xlink:href="classaworx_1_1lib_1_1lang_1_1Singleton.html" target="_top" xlink:title="Singleton\&lt;EnumMetaData\&lt;TEnum\&gt;\&gt;">
<polygon fill="#ffffff" stroke="#000000" points="740,-22.5 740,-41.5 921,-41.5 921,-22.5 740,-22.5"/>
<text text-anchor="middle" x="830.5" y="-29.5" font-family="Helvetica,sans-Serif" font-size="10.00" fill="#000000">Singleton&lt;EnumMetaData&lt;TEnum&gt;&gt;</text>
</a>
</g>
</g>
<!-- Node3&#45;&gt;Node2 -->
<g id="edge1" class="edge">
<title>Node3&#45;&gt;Node2</title>
<path fill="none" stroke="#191970" d="M931.513,-32C940.2764,-32 949.0995,-32 957.7492,-32"/>
<polygon fill="#191970" stroke="#191970" points="931.2669,-28.5001 921.2668,-32 931.2668,-35.5001 931.2669,-28.5001"/>
</g>
<!-- Node3&#45;&gt;Node4 -->
<g id="edge2" class="edge">
<title>Node3&#45;&gt;Node4</title>
<path fill="none" stroke="#191970" d="M729.5349,-25.6905C712.6599,-25.299 695.334,-25.3041 679,-26 673.29,-26.2433 667.3625,-26.5814 661.4247,-26.9789"/>
<polygon fill="#191970" stroke="#191970" points="729.8766,-29.2014 739.9708,-25.9829 730.0728,-22.2041 729.8766,-29.2014"/>
</g>
<!-- Node4&#45;&gt;Node3 -->
<g id="edge3" class="edge">
<title>Node4&#45;&gt;Node3</title>
<path fill="none" stroke="#9a32cd" stroke-dasharray="5,2" d="M671.2825,-32.6819C693.0781,-32.5885 717.1599,-32.4854 739.8546,-32.3882"/>
<polygon fill="#9a32cd" stroke="#9a32cd" points="671.0986,-29.1825 661.1137,-32.7254 671.1287,-36.1825 671.0986,-29.1825"/>
<text text-anchor="middle" x="700.5" y="-35" font-family="Helvetica,sans-Serif" font-size="10.00" fill="#000000"> singleton</text>
</g>
</g>
</svg>
