<?xml version="1.0" encoding="UTF-8" standalone="no"?>
<!DOCTYPE svg PUBLIC "-//W3C//DTD SVG 1.1//EN"
 "http://www.w3.org/Graphics/SVG/1.1/DTD/svg11.dtd">
<!-- Generated by graphviz version 2.40.1 (20161225.0304)
 -->
<!-- Title: Domain::LoggerData Pages: 1 -->
<svg width="937pt" height="180pt"
 viewBox="0.00 0.00 937.00 180.00" xmlns="http://www.w3.org/2000/svg" xmlns:xlink="http://www.w3.org/1999/xlink">
<g id="graph0" class="graph" transform="scale(1 1) rotate(0) translate(4 176)">
<title>Domain::LoggerData</title>
<polygon fill="#ffffff" stroke="transparent" points="-4,4 -4,-176 933,-176 933,4 -4,4"/>
<!-- Node1 -->
<g id="node1" class="node">
<title>Node1</title>
<polygon fill="#bfbfbf" stroke="#000000" points="822,-76.5 822,-95.5 929,-95.5 929,-76.5 822,-76.5"/>
<text text-anchor="middle" x="875.5" y="-83.5" font-family="Helvetica,sans-Serif" font-size="10.00" fill="#000000">Domain::LoggerData</text>
</g>
<!-- Node16 -->
<g id="node2" class="node">
<title>Node16</title>
<polygon fill="#ffffff" stroke="#bfbfbf" points="199.5,-114.5 199.5,-133.5 312.5,-133.5 312.5,-114.5 199.5,-114.5"/>
<text text-anchor="middle" x="256" y="-121.5" font-family="Helvetica,sans-Serif" font-size="10.00" fill="#000000">vector&lt;ThreadLock *&gt;</text>
</g>
<!-- Node3 -->
<g id="node7" class="node">
<title>Node3</title>
<g id="a_node7"><a xlink:href="classaworx_1_1lib_1_1threads_1_1SmartLock.html" target="_top" xlink:title="SmartLock">
<polygon fill="#ffffff" stroke="#000000" points="490.5,-76.5 490.5,-95.5 554.5,-95.5 554.5,-76.5 490.5,-76.5"/>
<text text-anchor="middle" x="522.5" y="-83.5" font-family="Helvetica,sans-Serif" font-size="10.00" fill="#000000">SmartLock</text>
</a>
</g>
</g>
<!-- Node16&#45;&gt;Node3 -->
<g id="edge6" class="edge">
<title>Node16&#45;&gt;Node3</title>
<path fill="none" stroke="#9a32cd" stroke-dasharray="5,2" d="M322.6163,-114.6554C353.9881,-110.2393 391.9207,-104.8777 426,-100 447.4504,-96.9299 471.5754,-93.4299 490.3378,-90.6974"/>
<polygon fill="#9a32cd" stroke="#9a32cd" points="322.0892,-111.195 312.6744,-116.0542 323.0645,-118.1267 322.0892,-111.195"/>
<text text-anchor="middle" x="404.5" y="-108" font-family="Helvetica,sans-Serif" font-size="10.00" fill="#000000"> acquirers</text>
</g>
<!-- Node18 -->
<g id="node3" class="node">
<title>Node18</title>
<g id="a_node3"><a xlink:href="classaworx_1_1lib_1_1time_1_1TimePointBase.html" target="_top" xlink:title="TimePointBase\&lt;chrono::steady_clock, Ticks\&gt;">
<polygon fill="#ffffff" stroke="#000000" points="147,-.5 147,-19.5 365,-19.5 365,-.5 147,-.5"/>
<text text-anchor="middle" x="256" y="-7.5" font-family="Helvetica,sans-Serif" font-size="10.00" fill="#000000">TimePointBase&lt;chrono::steady_clock, Ticks&gt;</text>
</a>
</g>
</g>
<!-- Node17 -->
<g id="node10" class="node">
<title>Node17</title>
<g id="a_node10"><a xlink:href="classaworx_1_1lib_1_1time_1_1Ticks.html" target="_top" xlink:title="Ticks">
<polygon fill="#ffffff" stroke="#000000" points="502,-19.5 502,-38.5 543,-38.5 543,-19.5 502,-19.5"/>
<text text-anchor="middle" x="522.5" y="-26.5" font-family="Helvetica,sans-Serif" font-size="10.00" fill="#000000">Ticks</text>
</a>
</g>
</g>
<!-- Node18&#45;&gt;Node17 -->
<g id="edge8" class="edge">
<title>Node18&#45;&gt;Node17</title>
<path fill="none" stroke="#191970" d="M375.415,-18.5136C423.668,-21.9538 474.3674,-25.5684 501.8341,-27.5266"/>
<polygon fill="#191970" stroke="#191970" points="375.3883,-15.0029 365.1647,-17.7828 374.8904,-21.9852 375.3883,-15.0029"/>
</g>
<!-- Node19 -->
<g id="node4" class="node">
<title>Node19</title>
<g id="a_node4"><a xlink:href="classaworx_1_1lib_1_1strings_1_1PreallocatedStringBase.html" target="_top" xlink:title="PreallocatedStringBase\&lt;TChar\&gt;">
<polygon fill="#ffffff" stroke="#000000" points="444,-133.5 444,-152.5 601,-152.5 601,-133.5 444,-133.5"/>
<text text-anchor="middle" x="522.5" y="-140.5" font-family="Helvetica,sans-Serif" font-size="10.00" fill="#000000">PreallocatedStringBase&lt;TChar&gt;</text>
</a>
</g>
</g>
<!-- Node2 -->
<g id="node6" class="node">
<title>Node2</title>
<g id="a_node6"><a xlink:href="classaworx_1_1lib_1_1lox_1_1core_1_1Logger.html" target="_top" xlink:title="Logger">
<polygon fill="#ffffff" stroke="#000000" points="707,-76.5 707,-95.5 753,-95.5 753,-76.5 707,-76.5"/>
<text text-anchor="middle" x="730" y="-83.5" font-family="Helvetica,sans-Serif" font-size="10.00" fill="#000000">Logger</text>
</a>
</g>
</g>
<!-- Node19&#45;&gt;Node2 -->
<g id="edge9" class="edge">
<title>Node19&#45;&gt;Node2</title>
<path fill="none" stroke="#9a32cd" stroke-dasharray="5,2" d="M570.6121,-130.9465C603.957,-122.4312 649.3195,-110.5265 689,-99 694.7367,-97.3336 700.8919,-95.4392 706.6437,-93.6219"/>
<polygon fill="#9a32cd" stroke="#9a32cd" points="569.4973,-127.6185 560.6691,-133.4762 571.2233,-134.4024 569.4973,-127.6185"/>
<text text-anchor="middle" x="654" y="-131" font-family="Helvetica,sans-Serif" font-size="10.00" fill="#000000"> TypeName</text>
<text text-anchor="middle" x="654" y="-120" font-family="Helvetica,sans-Serif" font-size="10.00" fill="#000000">Name</text>
</g>
<!-- Node20 -->
<g id="node5" class="node">
<title>Node20</title>
<g id="a_node5"><a xlink:href="classaworx_1_1lib_1_1strings_1_1AStringBase.html" target="_top" xlink:title="AStringBase\&lt;TChar\&gt;">
<polygon fill="#ffffff" stroke="#ff0000" points="201,-152.5 201,-171.5 311,-171.5 311,-152.5 201,-152.5"/>
<text text-anchor="middle" x="256" y="-159.5" font-family="Helvetica,sans-Serif" font-size="10.00" fill="#000000">AStringBase&lt;TChar&gt;</text>
</a>
</g>
</g>
<!-- Node20&#45;&gt;Node19 -->
<g id="edge10" class="edge">
<title>Node20&#45;&gt;Node19</title>
<path fill="none" stroke="#191970" d="M321.3852,-157.3384C358.374,-154.7013 404.8803,-151.3856 443.852,-148.6072"/>
<polygon fill="#191970" stroke="#191970" points="320.9447,-153.8608 311.219,-158.0632 321.4426,-160.8431 320.9447,-153.8608"/>
</g>
<!-- Node2&#45;&gt;Node1 -->
<g id="edge1" class="edge">
<title>Node2&#45;&gt;Node1</title>
<path fill="none" stroke="#9a32cd" stroke-dasharray="5,2" d="M763.2242,-86C780.5368,-86 802.1376,-86 821.7555,-86"/>
<polygon fill="#9a32cd" stroke="#9a32cd" points="763.0549,-82.5001 753.0549,-86 763.0549,-89.5001 763.0549,-82.5001"/>
<text text-anchor="middle" x="787.5" y="-89" font-family="Helvetica,sans-Serif" font-size="10.00" fill="#000000"> Logger</text>
</g>
<!-- Node3&#45;&gt;Node2 -->
<g id="edge2" class="edge">
<title>Node3&#45;&gt;Node2</title>
<path fill="none" stroke="#191970" d="M565.0605,-86C607.957,-86 672.5691,-86 706.8011,-86"/>
<polygon fill="#191970" stroke="#191970" points="564.9219,-82.5001 554.9219,-86 564.9218,-89.5001 564.9219,-82.5001"/>
</g>
<!-- Node4 -->
<g id="node8" class="node">
<title>Node4</title>
<g id="a_node8"><a xlink:href="classaworx_1_1lib_1_1threads_1_1ThreadLock.html" target="_top" xlink:title="ThreadLock">
<polygon fill="#ffffff" stroke="#ff0000" points="0,-92.5 0,-111.5 68,-111.5 68,-92.5 0,-92.5"/>
<text text-anchor="middle" x="34" y="-99.5" font-family="Helvetica,sans-Serif" font-size="10.00" fill="#000000">ThreadLock</text>
</a>
</g>
</g>
<!-- Node4&#45;&gt;Node16 -->
<g id="edge4" class="edge">
<title>Node4&#45;&gt;Node16</title>
<path fill="none" stroke="#9a32cd" stroke-dasharray="5,2" d="M78.5152,-106.4114C113.2618,-109.8548 161.7716,-114.662 199.2966,-118.3807"/>
<polygon fill="#9a32cd" stroke="#9a32cd" points="78.4974,-102.8926 68.201,-105.3893 77.8071,-109.8585 78.4974,-102.8926"/>
<text text-anchor="middle" x="107.5" y="-114" font-family="Helvetica,sans-Serif" font-size="10.00" fill="#000000"> elements</text>
</g>
<!-- Node4&#45;&gt;Node3 -->
<g id="edge3" class="edge">
<title>Node4&#45;&gt;Node3</title>
<path fill="none" stroke="#191970" d="M78.4456,-100.5443C175.7541,-97.3571 405.7114,-89.8252 490.4341,-87.0503"/>
<polygon fill="#191970" stroke="#191970" points="78.2304,-97.0493 68.3504,-100.8749 78.4596,-104.0456 78.2304,-97.0493"/>
</g>
<!-- Node15 -->
<g id="node9" class="node">
<title>Node15</title>
<g id="a_node9"><a xlink:href="classaworx_1_1lib_1_1threads_1_1ThreadLockNR.html" target="_top" xlink:title="ThreadLockNR">
<polygon fill="#ffffff" stroke="#ff0000" points="214.5,-38.5 214.5,-57.5 297.5,-57.5 297.5,-38.5 214.5,-38.5"/>
<text text-anchor="middle" x="256" y="-45.5" font-family="Helvetica,sans-Serif" font-size="10.00" fill="#000000">ThreadLockNR</text>
</a>
</g>
</g>
<!-- Node15&#45;&gt;Node3 -->
<g id="edge5" class="edge">
<title>Node15&#45;&gt;Node3</title>
<path fill="none" stroke="#9a32cd" stroke-dasharray="5,2" d="M307.9336,-49.586C341.7441,-51.204 386.7052,-54.4606 426,-61 448.1933,-64.6934 472.7313,-71.0825 491.5096,-76.4771"/>
<polygon fill="#9a32cd" stroke="#9a32cd" points="307.9633,-46.0839 297.8172,-49.1346 307.6512,-53.0769 307.9633,-46.0839"/>
<text text-anchor="middle" x="404.5" y="-64" font-family="Helvetica,sans-Serif" font-size="10.00" fill="#000000"> lock</text>
</g>
<!-- Node17&#45;&gt;Node2 -->
<g id="edge7" class="edge">
<title>Node17&#45;&gt;Node2</title>
<path fill="none" stroke="#9a32cd" stroke-dasharray="5,2" d="M553.4633,-31.2294C587.6457,-34.4891 643.8143,-42.2339 689,-60 699.3542,-64.0711 709.9313,-70.8565 717.7485,-76.4746"/>
<polygon fill="#9a32cd" stroke="#9a32cd" points="553.4485,-27.7146 543.1794,-30.3217 552.8329,-34.6875 553.4485,-27.7146"/>
<text text-anchor="middle" x="654" y="-74" font-family="Helvetica,sans-Serif" font-size="10.00" fill="#000000"> TimeOfLastLog</text>
<text text-anchor="middle" x="654" y="-63" font-family="Helvetica,sans-Serif" font-size="10.00" fill="#000000">TimeOfCreation</text>
</g>
</g>
</svg>
