<?xml version="1.0" encoding="UTF-8" standalone="no"?>
<!DOCTYPE svg PUBLIC "-//W3C//DTD SVG 1.1//EN"
 "http://www.w3.org/Graphics/SVG/1.1/DTD/svg11.dtd">
<!-- Generated by graphviz version 2.40.1 (20161225.0304)
 -->
<!-- Title: ASTUnaryOp Pages: 1 -->
<svg width="194pt" height="95pt"
 viewBox="0.00 0.00 193.50 95.00" xmlns="http://www.w3.org/2000/svg" xmlns:xlink="http://www.w3.org/1999/xlink">
<g id="graph0" class="graph" transform="scale(1 1) rotate(0) translate(4 91)">
<title>ASTUnaryOp</title>
<polygon fill="#ffffff" stroke="transparent" points="-4,4 -4,-91 189.5,-91 189.5,4 -4,4"/>
<!-- Node2 -->
<g id="node1" class="node">
<title>Node2</title>
<polygon fill="#bfbfbf" stroke="#000000" points="83,-.5 83,-19.5 158,-19.5 158,-.5 83,-.5"/>
<text text-anchor="middle" x="120.5" y="-7.5" font-family="Helvetica,sans-Serif" font-size="10.00" fill="#000000">ASTUnaryOp</text>
</g>
<!-- Node4 -->
<g id="node2" class="node">
<title>Node4</title>
<g id="a_node2"><a xlink:href="classaworx_1_1lib_1_1strings_1_1StringBase.html" target="_top" xlink:title="StringBase\&lt;character\&gt;">
<polygon fill="#ffffff" stroke="#000000" points="0,-67.5 0,-86.5 117,-86.5 117,-67.5 0,-67.5"/>
<text text-anchor="middle" x="58.5" y="-74.5" font-family="Helvetica,sans-Serif" font-size="10.00" fill="#000000">StringBase&lt;character&gt;</text>
</a>
</g>
</g>
<!-- Node4&#45;&gt;Node2 -->
<g id="edge3" class="edge">
<title>Node4&#45;&gt;Node2</title>
<path fill="none" stroke="#9a32cd" stroke-dasharray="5,2" d="M69.5075,-58.801C74.0521,-51.9457 79.629,-44.292 85.5,-38 91.8705,-31.1727 99.9591,-24.5936 106.7553,-19.5302"/>
<polygon fill="#9a32cd" stroke="#9a32cd" points="66.4212,-57.1324 64.0195,-67.4514 72.3321,-60.8824 66.4212,-57.1324"/>
<text text-anchor="middle" x="106" y="-41" font-family="Helvetica,sans-Serif" font-size="10.00" fill="#000000"> Operator</text>
</g>
<!-- Node3 -->
<g id="node3" class="node">
<title>Node3</title>
<g id="a_node3"><a xlink:href="structaworx_1_1lib_1_1expressions_1_1detail_1_1AST.html" target="_top" xlink:title="AST">
<polygon fill="#ffffff" stroke="#000000" points="135.5,-67.5 135.5,-86.5 171.5,-86.5 171.5,-67.5 135.5,-67.5"/>
<text text-anchor="middle" x="153.5" y="-74.5" font-family="Helvetica,sans-Serif" font-size="10.00" fill="#000000">AST</text>
</a>
</g>
</g>
<!-- Node3&#45;&gt;Node2 -->
<g id="edge1" class="edge">
<title>Node3&#45;&gt;Node2</title>
<path fill="none" stroke="#191970" d="M140.2369,-58.8635C138.1741,-55.66 136.175,-52.2941 134.5,-49 129.6089,-39.3813 125.6431,-27.6449 123.1974,-19.5749"/>
<polygon fill="#191970" stroke="#191970" points="137.4593,-61.0017 146.0027,-67.2675 143.2314,-57.0415 137.4593,-61.0017"/>
</g>
<!-- Node3&#45;&gt;Node2 -->
<g id="edge2" class="edge">
<title>Node3&#45;&gt;Node2</title>
<path fill="none" stroke="#9a32cd" stroke-dasharray="5,2" d="M144.2587,-58.2374C138.0646,-45.6614 130.1659,-29.6246 125.2193,-19.5817"/>
<polygon fill="#9a32cd" stroke="#9a32cd" points="141.2135,-59.9761 148.7719,-67.4005 147.4932,-56.8831 141.2135,-59.9761"/>
<text text-anchor="middle" x="162.5" y="-41" font-family="Helvetica,sans-Serif" font-size="10.00" fill="#000000"> Argument</text>
</g>
</g>
</svg>
