<?xml version="1.0" encoding="UTF-8" standalone="no"?>
<!DOCTYPE svg PUBLIC "-//W3C//DTD SVG 1.1//EN"
 "http://www.w3.org/Graphics/SVG/1.1/DTD/svg11.dtd">
<!-- Generated by graphviz version 2.40.1 (20161225.0304)
 -->
<!-- Title: ASTFunction Pages: 1 -->
<svg width="334pt" height="219pt"
 viewBox="0.00 0.00 334.03 219.00" xmlns="http://www.w3.org/2000/svg" xmlns:xlink="http://www.w3.org/1999/xlink">
<g id="graph0" class="graph" transform="scale(1 1) rotate(0) translate(4 215)">
<title>ASTFunction</title>
<polygon fill="#ffffff" stroke="transparent" points="-4,4 -4,-215 330.031,-215 330.031,4 -4,4"/>
<!-- Node2 -->
<g id="node1" class="node">
<title>Node2</title>
<polygon fill="#bfbfbf" stroke="#000000" points="62.031,-.5 62.031,-19.5 136.031,-19.5 136.031,-.5 62.031,-.5"/>
<text text-anchor="middle" x="99.031" y="-7.5" font-family="Helvetica,sans-Serif" font-size="10.00" fill="#000000">ASTFunction</text>
</g>
<!-- Node4 -->
<g id="node2" class="node">
<title>Node4</title>
<polygon fill="#ffffff" stroke="#bfbfbf" points="14.031,-67.5 14.031,-86.5 184.031,-86.5 184.031,-67.5 14.031,-67.5"/>
<text text-anchor="middle" x="99.031" y="-74.5" font-family="Helvetica,sans-Serif" font-size="10.00" fill="#000000">vector&lt;expressions::detail::AST *&gt;</text>
</g>
<!-- Node4&#45;&gt;Node2 -->
<g id="edge3" class="edge">
<title>Node4&#45;&gt;Node2</title>
<path fill="none" stroke="#9a32cd" stroke-dasharray="5,2" d="M99.031,-57.1079C99.031,-44.714 99.031,-29.3263 99.031,-19.5817"/>
<polygon fill="#9a32cd" stroke="#9a32cd" points="95.5311,-57.4005 99.031,-67.4005 102.5311,-57.4006 95.5311,-57.4005"/>
<text text-anchor="middle" x="124.531" y="-41" font-family="Helvetica,sans-Serif" font-size="10.00" fill="#000000"> Arguments</text>
</g>
<!-- Node5 -->
<g id="node3" class="node">
<title>Node5</title>
<g id="a_node3"><a xlink:href="classaworx_1_1lib_1_1strings_1_1AStringBase.html" target="_top" xlink:title="AStringBase\&lt;character\&gt;">
<polygon fill="#ffffff" stroke="#000000" points="202.031,-67.5 202.031,-86.5 326.031,-86.5 326.031,-67.5 202.031,-67.5"/>
<text text-anchor="middle" x="264.031" y="-74.5" font-family="Helvetica,sans-Serif" font-size="10.00" fill="#000000">AStringBase&lt;character&gt;</text>
</a>
</g>
</g>
<!-- Node5&#45;&gt;Node2 -->
<g id="edge4" class="edge">
<title>Node5&#45;&gt;Node2</title>
<path fill="none" stroke="#9a32cd" stroke-dasharray="5,2" d="M230.9832,-63.5806C198.9102,-50.557 151.0335,-31.1162 122.6276,-19.5817"/>
<polygon fill="#9a32cd" stroke="#9a32cd" points="229.8084,-66.8811 240.3905,-67.4005 232.4421,-60.3954 229.8084,-66.8811"/>
<text text-anchor="middle" x="207.031" y="-41" font-family="Helvetica,sans-Serif" font-size="10.00" fill="#000000"> Name</text>
</g>
<!-- Node6 -->
<g id="node4" class="node">
<title>Node6</title>
<g id="a_node4"><a xlink:href="classaworx_1_1lib_1_1strings_1_1TStringBase.html" target="_top" xlink:title="TStringBase\&lt;character\&gt;">
<polygon fill="#ffffff" stroke="#000000" points="202.531,-134.5 202.531,-153.5 325.531,-153.5 325.531,-134.5 202.531,-134.5"/>
<text text-anchor="middle" x="264.031" y="-141.5" font-family="Helvetica,sans-Serif" font-size="10.00" fill="#000000">TStringBase&lt;character&gt;</text>
</a>
</g>
</g>
<!-- Node6&#45;&gt;Node5 -->
<g id="edge5" class="edge">
<title>Node6&#45;&gt;Node5</title>
<path fill="none" stroke="#191970" d="M264.031,-124.1079C264.031,-111.714 264.031,-96.3263 264.031,-86.5817"/>
<polygon fill="#191970" stroke="#191970" points="260.5311,-124.4005 264.031,-134.4005 267.5311,-124.4006 260.5311,-124.4005"/>
</g>
<!-- Node7 -->
<g id="node5" class="node">
<title>Node7</title>
<g id="a_node5"><a xlink:href="classaworx_1_1lib_1_1strings_1_1StringBase.html" target="_top" xlink:title="StringBase\&lt;character\&gt;">
<polygon fill="#ffffff" stroke="#000000" points="205.531,-191.5 205.531,-210.5 322.531,-210.5 322.531,-191.5 205.531,-191.5"/>
<text text-anchor="middle" x="264.031" y="-198.5" font-family="Helvetica,sans-Serif" font-size="10.00" fill="#000000">StringBase&lt;character&gt;</text>
</a>
</g>
</g>
<!-- Node7&#45;&gt;Node6 -->
<g id="edge6" class="edge">
<title>Node7&#45;&gt;Node6</title>
<path fill="none" stroke="#191970" d="M264.031,-181.2342C264.031,-171.8491 264.031,-161.0651 264.031,-153.5265"/>
<polygon fill="#191970" stroke="#191970" points="260.5311,-181.3307 264.031,-191.3307 267.5311,-181.3308 260.5311,-181.3307"/>
</g>
<!-- Node3 -->
<g id="node6" class="node">
<title>Node3</title>
<g id="a_node6"><a xlink:href="structaworx_1_1lib_1_1expressions_1_1detail_1_1AST.html" target="_top" xlink:title="AST">
<polygon fill="#ffffff" stroke="#000000" points="5.031,-134.5 5.031,-153.5 41.031,-153.5 41.031,-134.5 5.031,-134.5"/>
<text text-anchor="middle" x="23.031" y="-141.5" font-family="Helvetica,sans-Serif" font-size="10.00" fill="#000000">AST</text>
</a>
</g>
</g>
<!-- Node3&#45;&gt;Node2 -->
<g id="edge1" class="edge">
<title>Node3&#45;&gt;Node2</title>
<path fill="none" stroke="#191970" d="M11.5254,-125.3242C3.0986,-109.0361 -5.233,-85.2276 5.031,-67 18.4222,-43.219 46.1834,-28.2203 68.0823,-19.6127"/>
<polygon fill="#191970" stroke="#191970" points="8.6651,-127.3781 16.6192,-134.3769 14.7656,-123.9454 8.6651,-127.3781"/>
</g>
<!-- Node3&#45;&gt;Node4 -->
<g id="edge2" class="edge">
<title>Node3&#45;&gt;Node4</title>
<path fill="none" stroke="#9a32cd" stroke-dasharray="5,2" d="M41.8154,-127.44C56.394,-114.5879 76.0935,-97.2212 88.1623,-86.5817"/>
<polygon fill="#9a32cd" stroke="#9a32cd" points="39.1067,-125.1621 33.92,-134.4005 43.7358,-130.413 39.1067,-125.1621"/>
<text text-anchor="middle" x="87.531" y="-108" font-family="Helvetica,sans-Serif" font-size="10.00" fill="#000000"> elements</text>
</g>
</g>
</svg>
