<?xml version="1.0" encoding="UTF-8" standalone="no"?>
<!DOCTYPE svg PUBLIC "-//W3C//DTD SVG 1.1//EN"
 "http://www.w3.org/Graphics/SVG/1.1/DTD/svg11.dtd">
<!-- Generated by graphviz version 2.40.1 (20161225.0304)
 -->
<!-- Title: FormatBase&lt;TChar&gt;::Field Pages: 1 -->
<svg width="124pt" height="162pt"
 viewBox="0.00 0.00 123.50 162.00" xmlns="http://www.w3.org/2000/svg" xmlns:xlink="http://www.w3.org/1999/xlink">
<g id="graph0" class="graph" transform="scale(1 1) rotate(0) translate(4 158)">
<title>FormatBase&lt;TChar&gt;::Field</title>
<polygon fill="#ffffff" stroke="transparent" points="-4,4 -4,-158 119.5,-158 119.5,4 -4,4"/>
<!-- Node1 -->
<g id="node1" class="node">
<title>Node1</title>
<polygon fill="#bfbfbf" stroke="#000000" points="6.5,-.5 6.5,-19.5 114.5,-19.5 114.5,-.5 6.5,-.5"/>
<text text-anchor="middle" x="60.5" y="-7.5" font-family="Helvetica,sans-Serif" font-size="10.00" fill="#000000">FormatBase&lt;TChar&gt;</text>
</g>
<!-- Node2 -->
<g id="node2" class="node">
<title>Node2</title>
<g id="a_node2"><a xlink:href="classaworx_1_1lib_1_1boxing_1_1Box.html" target="_top" xlink:title="Box">
<polygon fill="#ffffff" stroke="#000000" points="43.5,-67.5 43.5,-86.5 77.5,-86.5 77.5,-67.5 43.5,-67.5"/>
<text text-anchor="middle" x="60.5" y="-74.5" font-family="Helvetica,sans-Serif" font-size="10.00" fill="#000000">Box</text>
</a>
</g>
</g>
<!-- Node2&#45;&gt;Node1 -->
<g id="edge1" class="edge">
<title>Node2&#45;&gt;Node1</title>
<path fill="none" stroke="#9a32cd" stroke-dasharray="5,2" d="M60.5,-57.1079C60.5,-44.714 60.5,-29.3263 60.5,-19.5817"/>
<polygon fill="#9a32cd" stroke="#9a32cd" points="57.0001,-57.4005 60.5,-67.4005 64.0001,-57.4006 57.0001,-57.4005"/>
<text text-anchor="middle" x="86.5" y="-41" font-family="Helvetica,sans-Serif" font-size="10.00" fill="#000000"> theContent</text>
</g>
<!-- Node3 -->
<g id="node3" class="node">
<title>Node3</title>
<g id="a_node3"><a xlink:href="structaworx_1_1lib_1_1boxing_1_1BoxData.html" target="_top" xlink:title="BoxData">
<polygon fill="#ffffff" stroke="#000000" points="0,-134.5 0,-153.5 55,-153.5 55,-134.5 0,-134.5"/>
<text text-anchor="middle" x="27.5" y="-141.5" font-family="Helvetica,sans-Serif" font-size="10.00" fill="#000000">BoxData</text>
</a>
</g>
</g>
<!-- Node3&#45;&gt;Node2 -->
<g id="edge2" class="edge">
<title>Node3&#45;&gt;Node2</title>
<path fill="none" stroke="#9a32cd" stroke-dasharray="5,2" d="M36.7413,-125.2374C42.9354,-112.6614 50.8341,-96.6246 55.7807,-86.5817"/>
<polygon fill="#9a32cd" stroke="#9a32cd" points="33.5068,-123.8831 32.2281,-134.4005 39.7865,-126.9761 33.5068,-123.8831"/>
<text text-anchor="middle" x="57.5" y="-108" font-family="Helvetica,sans-Serif" font-size="10.00" fill="#000000"> data</text>
</g>
<!-- Node4 -->
<g id="node4" class="node">
<title>Node4</title>
<g id="a_node4"><a xlink:href="classaworx_1_1lib_1_1boxing_1_1Boxer.html" target="_top" xlink:title="Boxer">
<polygon fill="#ffffff" stroke="#000000" points="73.5,-134.5 73.5,-153.5 115.5,-153.5 115.5,-134.5 73.5,-134.5"/>
<text text-anchor="middle" x="94.5" y="-141.5" font-family="Helvetica,sans-Serif" font-size="10.00" fill="#000000">Boxer</text>
</a>
</g>
</g>
<!-- Node4&#45;&gt;Node2 -->
<g id="edge3" class="edge">
<title>Node4&#45;&gt;Node2</title>
<path fill="none" stroke="#9a32cd" stroke-dasharray="5,2" d="M84.9787,-125.2374C78.5968,-112.6614 70.4588,-96.6246 65.3623,-86.5817"/>
<polygon fill="#9a32cd" stroke="#9a32cd" points="81.9822,-127.0669 89.6286,-134.4005 88.2244,-123.8992 81.9822,-127.0669"/>
<text text-anchor="middle" x="93.5" y="-108" font-family="Helvetica,sans-Serif" font-size="10.00" fill="#000000"> boxer</text>
</g>
</g>
</svg>
