<?xml version="1.0" encoding="UTF-8" standalone="no"?>
<!DOCTYPE svg PUBLIC "-//W3C//DTD SVG 1.1//EN"
 "http://www.w3.org/Graphics/SVG/1.1/DTD/svg11.dtd">
<!-- Generated by graphviz version 2.40.1 (20161225.0304)
 -->
<!-- Title: CompilerPlugin::CIFunction Pages: 1 -->
<svg width="1145pt" height="280pt"
 viewBox="0.00 0.00 1145.00 279.68" xmlns="http://www.w3.org/2000/svg" xmlns:xlink="http://www.w3.org/1999/xlink">
<g id="graph0" class="graph" transform="scale(1 1) rotate(0) translate(4 275.6762)">
<title>CompilerPlugin::CIFunction</title>
<polygon fill="#ffffff" stroke="transparent" points="-4,4 -4,-275.6762 1141,-275.6762 1141,4 -4,4"/>
<!-- Node2 -->
<g id="node1" class="node">
<title>Node2</title>
<polygon fill="#bfbfbf" stroke="#000000" points="1000,-213.1762 1000,-232.1762 1137,-232.1762 1137,-213.1762 1000,-213.1762"/>
<text text-anchor="middle" x="1068.5" y="-220.1762" font-family="Helvetica,sans-Serif" font-size="10.00" fill="#000000">CompilerPlugin::CIFunction</text>
</g>
<!-- Node4 -->
<g id="node2" class="node">
<title>Node4</title>
<polygon fill="#ffffff" stroke="#bfbfbf" points="339,-1.1762 339,-20.1762 412,-20.1762 412,-1.1762 339,-1.1762"/>
<text text-anchor="middle" x="375.5" y="-8.1762" font-family="Helvetica,sans-Serif" font-size="10.00" fill="#000000">vector&lt;Box&gt;</text>
</g>
<!-- Node3 -->
<g id="node8" class="node">
<title>Node3</title>
<g id="a_node8"><a xlink:href="structaworx_1_1lib_1_1expressions_1_1CompilerPlugin_1_1CompilationInfo.html" target="_top" xlink:title="CompilationInfo">
<polygon fill="#ffffff" stroke="#000000" points="694.5,-152.1762 694.5,-171.1762 779.5,-171.1762 779.5,-152.1762 694.5,-152.1762"/>
<text text-anchor="middle" x="737" y="-159.1762" font-family="Helvetica,sans-Serif" font-size="10.00" fill="#000000">CompilationInfo</text>
</a>
</g>
</g>
<!-- Node4&#45;&gt;Node3 -->
<g id="edge2" class="edge">
<title>Node4&#45;&gt;Node3</title>
<path fill="none" stroke="#9a32cd" stroke-dasharray="5,2" d="M411.2887,-23.8187C448.0631,-37.4773 506.8618,-59.7451 557,-80.6762 615.503,-105.0995 683.4527,-136.5243 716.6435,-152.0766"/>
<polygon fill="#9a32cd" stroke="#9a32cd" points="412.1191,-20.394 401.526,-20.2029 409.6879,-26.9582 412.1191,-20.394"/>
<text text-anchor="middle" x="502" y="-94.6762" font-family="Helvetica,sans-Serif" font-size="10.00" fill="#000000"> ArgsEnd</text>
<text text-anchor="middle" x="502" y="-83.6762" font-family="Helvetica,sans-Serif" font-size="10.00" fill="#000000">ArgsBegin</text>
</g>
<!-- Node12 -->
<g id="node3" class="node">
<title>Node12</title>
<polygon fill="#ffffff" stroke="#bfbfbf" points="113,-36.1762 113,-55.1762 304,-55.1762 304,-36.1762 113,-36.1762"/>
<text text-anchor="middle" x="208.5" y="-43.1762" font-family="Helvetica,sans-Serif" font-size="10.00" fill="#000000">vector&lt;expressions::ScopeResource *&gt;</text>
</g>
<!-- Node8 -->
<g id="node10" class="node">
<title>Node8</title>
<g id="a_node10"><a xlink:href="structaworx_1_1lib_1_1expressions_1_1Scope.html" target="_top" xlink:title="Scope">
<polygon fill="#ffffff" stroke="#000000" points="480,-112.1762 480,-131.1762 524,-131.1762 524,-112.1762 480,-112.1762"/>
<text text-anchor="middle" x="502" y="-119.1762" font-family="Helvetica,sans-Serif" font-size="10.00" fill="#000000">Scope</text>
</a>
</g>
</g>
<!-- Node12&#45;&gt;Node8 -->
<g id="edge9" class="edge">
<title>Node12&#45;&gt;Node8</title>
<path fill="none" stroke="#9a32cd" stroke-dasharray="5,2" d="M314.554,-53.9993C351.4976,-58.987 392.7532,-66.9546 429,-79.6762 451.3503,-87.5206 474.6464,-102.2559 488.7412,-112.0195"/>
<polygon fill="#9a32cd" stroke="#9a32cd" points="314.6219,-50.4791 304.2561,-52.67 313.7257,-57.4215 314.6219,-50.4791"/>
<text text-anchor="middle" x="375.5" y="-82.6762" font-family="Helvetica,sans-Serif" font-size="10.00" fill="#000000"> Resources</text>
</g>
<!-- Node14 -->
<g id="node4" class="node">
<title>Node14</title>
<polygon fill="#ffffff" stroke="#bfbfbf" points="123.5,-150.1762 123.5,-169.1762 293.5,-169.1762 293.5,-150.1762 123.5,-150.1762"/>
<text text-anchor="middle" x="208.5" y="-157.1762" font-family="Helvetica,sans-Serif" font-size="10.00" fill="#000000">vector&lt;expressions::Expression *&gt;</text>
</g>
<!-- Node14&#45;&gt;Node8 -->
<g id="edge10" class="edge">
<title>Node14&#45;&gt;Node8</title>
<path fill="none" stroke="#9a32cd" stroke-dasharray="5,2" d="M303.8378,-151.8047C342.7615,-148.0524 388.1467,-142.9884 429,-136.6762 446.1341,-134.0289 465.332,-130.0432 479.7386,-126.8455"/>
<polygon fill="#9a32cd" stroke="#9a32cd" points="303.1903,-148.3503 293.5656,-152.7791 303.8515,-155.319 303.1903,-148.3503"/>
<text text-anchor="middle" x="375.5" y="-152.6762" font-family="Helvetica,sans-Serif" font-size="10.00" fill="#000000"> nestedExpressionStack</text>
</g>
<!-- Node57 -->
<g id="node5" class="node">
<title>Node57</title>
<polygon fill="#ffffff" stroke="#bfbfbf" points="172,-112.1762 172,-131.1762 245,-131.1762 245,-112.1762 172,-112.1762"/>
<text text-anchor="middle" x="208.5" y="-119.1762" font-family="Helvetica,sans-Serif" font-size="10.00" fill="#000000">vector&lt;Box&gt;</text>
</g>
<!-- Node57&#45;&gt;Node8 -->
<g id="edge14" class="edge">
<title>Node57&#45;&gt;Node8</title>
<path fill="none" stroke="#9a32cd" stroke-dasharray="5,2" d="M255.3171,-121.6762C319.4385,-121.6762 432.0471,-121.6762 479.698,-121.6762"/>
<polygon fill="#9a32cd" stroke="#9a32cd" points="255.0786,-118.1763 245.0785,-121.6762 255.0785,-125.1763 255.0786,-118.1763"/>
<text text-anchor="middle" x="375.5" y="-124.6762" font-family="Helvetica,sans-Serif" font-size="10.00" fill="#000000"> Stack</text>
</g>
<!-- Node37 -->
<g id="node6" class="node">
<title>Node37</title>
<polygon fill="#ffffff" stroke="#bfbfbf" points="682,-252.1762 682,-271.1762 792,-271.1762 792,-252.1762 682,-252.1762"/>
<text text-anchor="middle" x="737" y="-259.1762" font-family="Helvetica,sans-Serif" font-size="10.00" fill="#000000">vector&lt;AStringBase&gt;</text>
</g>
<!-- Node37&#45;&gt;Node2 -->
<g id="edge11" class="edge">
<title>Node37&#45;&gt;Node2</title>
<path fill="none" stroke="#9a32cd" stroke-dasharray="5,2" d="M802.3166,-256.0632C851.7434,-251.5609 921.254,-244.6843 982,-236.6762 991.9543,-235.364 1002.5254,-233.7978 1012.7335,-232.1959"/>
<polygon fill="#9a32cd" stroke="#9a32cd" points="801.7292,-252.602 792.0847,-256.9875 802.3591,-259.5736 801.7292,-252.602"/>
<text text-anchor="middle" x="896" y="-257.6762" font-family="Helvetica,sans-Serif" font-size="10.00" fill="#000000"> FunctionsWithNonMatchingArguments</text>
</g>
<!-- Node38 -->
<g id="node7" class="node">
<title>Node38</title>
<g id="a_node7"><a xlink:href="classaworx_1_1lib_1_1strings_1_1AStringBase.html" target="_top" xlink:title="AStringBase\&lt;TChar\&gt;">
<polygon fill="#ffffff" stroke="#ff0000" points="447,-236.1762 447,-255.1762 557,-255.1762 557,-236.1762 447,-236.1762"/>
<text text-anchor="middle" x="502" y="-243.1762" font-family="Helvetica,sans-Serif" font-size="10.00" fill="#000000">AStringBase&lt;TChar&gt;</text>
</a>
</g>
</g>
<!-- Node38&#45;&gt;Node2 -->
<g id="edge12" class="edge">
<title>Node38&#45;&gt;Node2</title>
<path fill="none" stroke="#9a32cd" stroke-dasharray="5,2" d="M567.4053,-239.7295C601.5315,-236.8445 643.9846,-233.5958 682,-231.6762 793.108,-226.0659 922.3628,-223.9477 999.6886,-223.1514"/>
<polygon fill="#9a32cd" stroke="#9a32cd" points="566.7612,-236.2717 557.0958,-240.6112 567.3578,-243.2462 566.7612,-236.2717"/>
<text text-anchor="middle" x="737" y="-234.6762" font-family="Helvetica,sans-Serif" font-size="10.00" fill="#000000"> Name</text>
</g>
<!-- Node38&#45;&gt;Node37 -->
<g id="edge13" class="edge">
<title>Node38&#45;&gt;Node37</title>
<path fill="none" stroke="#9a32cd" stroke-dasharray="5,2" d="M567.4987,-250.1357C603.4866,-252.586 647.6274,-255.5913 681.8415,-257.9208"/>
<polygon fill="#9a32cd" stroke="#9a32cd" points="567.3117,-246.615 557.0971,-249.4275 566.8362,-253.5988 567.3117,-246.615"/>
<text text-anchor="middle" x="619.5" y="-258.6762" font-family="Helvetica,sans-Serif" font-size="10.00" fill="#000000"> elements</text>
</g>
<!-- Node3&#45;&gt;Node2 -->
<g id="edge1" class="edge">
<title>Node3&#45;&gt;Node2</title>
<path fill="none" stroke="#191970" d="M789.6654,-171.3673C851.9291,-182.8246 954.8844,-201.7696 1016.7472,-213.1531"/>
<polygon fill="#191970" stroke="#191970" points="790.1275,-167.8936 779.6592,-169.526 788.8606,-174.7781 790.1275,-167.8936"/>
</g>
<!-- Node5 -->
<g id="node9" class="node">
<title>Node5</title>
<g id="a_node9"><a xlink:href="classaworx_1_1lib_1_1boxing_1_1Box.html" target="_top" xlink:title="Box">
<polygon fill="#ffffff" stroke="#ff0000" points="0,-112.1762 0,-131.1762 34,-131.1762 34,-112.1762 0,-112.1762"/>
<text text-anchor="middle" x="17" y="-119.1762" font-family="Helvetica,sans-Serif" font-size="10.00" fill="#000000">Box</text>
</a>
</g>
</g>
<!-- Node5&#45;&gt;Node4 -->
<g id="edge4" class="edge">
<title>Node5&#45;&gt;Node4</title>
<path fill="none" stroke="#9a32cd" stroke-dasharray="5,2" d="M28.7686,-103.8151C44.7822,-81.2441 75.7504,-43.3341 113,-26.6762 187.6066,6.6876 286.2186,1.2167 338.7902,-5.0928"/>
<polygon fill="#9a32cd" stroke="#9a32cd" points="25.8026,-101.9513 23.0239,-112.1752 31.5719,-105.9156 25.8026,-101.9513"/>
<text text-anchor="middle" x="73.5" y="-77.6762" font-family="Helvetica,sans-Serif" font-size="10.00" fill="#000000"> elements</text>
</g>
<!-- Node5&#45;&gt;Node57 -->
<g id="edge5" class="edge">
<title>Node5&#45;&gt;Node57</title>
<path fill="none" stroke="#9a32cd" stroke-dasharray="5,2" d="M44.7611,-121.6762C78.2914,-121.6762 134.7991,-121.6762 171.8742,-121.6762"/>
<polygon fill="#9a32cd" stroke="#9a32cd" points="44.3321,-118.1763 34.3321,-121.6762 44.3321,-125.1763 44.3321,-118.1763"/>
<text text-anchor="middle" x="73.5" y="-124.6762" font-family="Helvetica,sans-Serif" font-size="10.00" fill="#000000"> elements</text>
</g>
<!-- Node5&#45;&gt;Node3 -->
<g id="edge3" class="edge">
<title>Node5&#45;&gt;Node3</title>
<path fill="none" stroke="#9a32cd" stroke-dasharray="5,2" d="M36.3696,-137.4734C54.7998,-151.4081 83.9549,-170.7032 113,-178.6762 324.6278,-236.769 591.8942,-192.3202 694.3604,-171.2048"/>
<polygon fill="#9a32cd" stroke="#9a32cd" points="38.5052,-134.7004 28.4632,-131.3225 34.2069,-140.2254 38.5052,-134.7004"/>
<text text-anchor="middle" x="375.5" y="-220.6762" font-family="Helvetica,sans-Serif" font-size="10.00" fill="#000000"> TypeOrValue</text>
<text text-anchor="middle" x="375.5" y="-209.6762" font-family="Helvetica,sans-Serif" font-size="10.00" fill="#000000">Callback</text>
</g>
<!-- Node8&#45;&gt;Node3 -->
<g id="edge6" class="edge">
<title>Node8&#45;&gt;Node3</title>
<path fill="none" stroke="#9a32cd" stroke-dasharray="5,2" d="M534.2166,-127.1599C575.7512,-134.2296 648.1039,-146.545 694.2175,-154.3941"/>
<polygon fill="#9a32cd" stroke="#9a32cd" points="534.5538,-123.667 524.1082,-125.4393 533.3791,-130.5678 534.5538,-123.667"/>
<text text-anchor="middle" x="619.5" y="-152.6762" font-family="Helvetica,sans-Serif" font-size="10.00" fill="#000000"> CompileTimeScope</text>
</g>
<!-- Node8&#45;&gt;Node8 -->
<g id="edge7" class="edge">
<title>Node8&#45;&gt;Node8</title>
<path fill="none" stroke="#9a32cd" stroke-dasharray="5,2" d="M480.5196,-141.0763C481.9541,-145.9908 489.1143,-149.6762 502,-149.6762 522.6172,-149.6762 528.5768,-140.2415 519.879,-131.4333"/>
<polygon fill="#9a32cd" stroke="#9a32cd" points="483.901,-142.0258 484.121,-131.4333 477.3434,-139.5767 483.901,-142.0258"/>
<text text-anchor="middle" x="502" y="-152.6762" font-family="Helvetica,sans-Serif" font-size="10.00" fill="#000000"> CTScope</text>
</g>
<!-- Node9 -->
<g id="node11" class="node">
<title>Node9</title>
<g id="a_node11"><a xlink:href="classaworx_1_1lib_1_1util_1_1MemoryBlocks.html" target="_top" xlink:title="MemoryBlocks">
<polygon fill="#ffffff" stroke="#ff0000" points="167.5,-74.1762 167.5,-93.1762 249.5,-93.1762 249.5,-74.1762 167.5,-74.1762"/>
<text text-anchor="middle" x="208.5" y="-81.1762" font-family="Helvetica,sans-Serif" font-size="10.00" fill="#000000">MemoryBlocks</text>
</a>
</g>
</g>
<!-- Node9&#45;&gt;Node8 -->
<g id="edge8" class="edge">
<title>Node9&#45;&gt;Node8</title>
<path fill="none" stroke="#9a32cd" stroke-dasharray="5,2" d="M259.7586,-87.5802C304.5663,-91.3363 371.3028,-97.7616 429,-106.6762 446.1341,-109.3236 465.332,-113.3093 479.7386,-116.5069"/>
<polygon fill="#9a32cd" stroke="#9a32cd" points="259.9553,-84.0846 249.7015,-86.7511 259.3801,-91.0609 259.9553,-84.0846"/>
<text text-anchor="middle" x="375.5" y="-109.6762" font-family="Helvetica,sans-Serif" font-size="10.00" fill="#000000"> Memory</text>
</g>
</g>
</svg>
