<?xml version="1.0" encoding="UTF-8" standalone="no"?>
<!DOCTYPE svg PUBLIC "-//W3C//DTD SVG 1.1//EN"
 "http://www.w3.org/Graphics/SVG/1.1/DTD/svg11.dtd">
<!-- Generated by graphviz version 2.40.1 (20161225.0304)
 -->
<!-- Title: StringTree&lt;T, TAllocator, TSeparator&gt;::Walker::RecursionData Pages: 1 -->
<svg width="710pt" height="133pt"
 viewBox="0.00 0.00 710.00 133.00" xmlns="http://www.w3.org/2000/svg" xmlns:xlink="http://www.w3.org/1999/xlink">
<g id="graph0" class="graph" transform="scale(1 1) rotate(0) translate(4 129)">
<title>StringTree&lt;T, TAllocator, TSeparator&gt;::Walker::RecursionData</title>
<polygon fill="#ffffff" stroke="transparent" points="-4,4 -4,-129 706,-129 706,4 -4,4"/>
<!-- Node1 -->
<g id="node1" class="node">
<title>Node1</title>
<polygon fill="#bfbfbf" stroke="#000000" points="413,-67.5 413,-86.5 702,-86.5 702,-67.5 413,-67.5"/>
<text text-anchor="middle" x="557.5" y="-74.5" font-family="Helvetica,sans-Serif" font-size="10.00" fill="#000000">StringTree&lt;T, TAllocator, TSeparator&gt;::Walker::RecursionData</text>
</g>
<!-- Node5 -->
<g id="node2" class="node">
<title>Node5</title>
<polygon fill="#ffffff" stroke="#bfbfbf" points="92,-105.5 92,-124.5 310,-124.5 310,-105.5 92,-105.5"/>
<text text-anchor="middle" x="201" y="-112.5" font-family="Helvetica,sans-Serif" font-size="10.00" fill="#000000">vector&lt;pair&lt;StringBase, StringTree::Node *&gt;&gt;</text>
</g>
<!-- Node5&#45;&gt;Node1 -->
<g id="edge5" class="edge">
<title>Node5&#45;&gt;Node1</title>
<path fill="none" stroke="#9a32cd" stroke-dasharray="5,2" d="M300.5276,-104.3912C353.1642,-98.7805 417.2617,-91.9483 468.2726,-86.5109"/>
<polygon fill="#9a32cd" stroke="#9a32cd" points="300.0725,-100.9198 290.4998,-105.46 300.8145,-107.8803 300.0725,-100.9198"/>
<text text-anchor="middle" x="361.5" y="-114" font-family="Helvetica,sans-Serif" font-size="10.00" fill="#000000"> sortedChildren</text>
<text text-anchor="middle" x="361.5" y="-103" font-family="Helvetica,sans-Serif" font-size="10.00" fill="#000000">actChild</text>
</g>
<!-- Node2 -->
<g id="node3" class="node">
<title>Node2</title>
<g id="a_node3"><a xlink:href="classaworx_1_1lib_1_1strings_1_1StringBase.html" target="_top" xlink:title="StringBase\&lt;character\&gt;">
<polygon fill="#ffffff" stroke="#000000" points="142.5,-67.5 142.5,-86.5 259.5,-86.5 259.5,-67.5 142.5,-67.5"/>
<text text-anchor="middle" x="201" y="-74.5" font-family="Helvetica,sans-Serif" font-size="10.00" fill="#000000">StringBase&lt;character&gt;</text>
</a>
</g>
</g>
<!-- Node2&#45;&gt;Node1 -->
<g id="edge1" class="edge">
<title>Node2&#45;&gt;Node1</title>
<path fill="none" stroke="#9a32cd" stroke-dasharray="5,2" d="M269.9104,-77C310.4897,-77 363.388,-77 412.7347,-77"/>
<polygon fill="#9a32cd" stroke="#9a32cd" points="269.8688,-73.5001 259.8687,-77 269.8687,-80.5001 269.8688,-73.5001"/>
<text text-anchor="middle" x="361.5" y="-80" font-family="Helvetica,sans-Serif" font-size="10.00" fill="#000000"> nodeName</text>
</g>
<!-- Node3 -->
<g id="node4" class="node">
<title>Node3</title>
<g id="a_node4"><a xlink:href="classaworx_1_1lib_1_1util_1_1StringTree_1_1Node.html" target="_top" xlink:title="Node">
<polygon fill="#ffffff" stroke="#000000" points="181,-.5 181,-19.5 221,-19.5 221,-.5 181,-.5"/>
<text text-anchor="middle" x="201" y="-7.5" font-family="Helvetica,sans-Serif" font-size="10.00" fill="#000000">Node</text>
</a>
</g>
</g>
<!-- Node3&#45;&gt;Node1 -->
<g id="edge2" class="edge">
<title>Node3&#45;&gt;Node1</title>
<path fill="none" stroke="#9a32cd" stroke-dasharray="5,2" d="M231.3507,-15.7041C292.6047,-27.216 431.5693,-53.3328 506.8186,-67.475"/>
<polygon fill="#9a32cd" stroke="#9a32cd" points="231.6629,-12.2015 221.1884,-13.7942 230.3699,-19.0811 231.6629,-12.2015"/>
<text text-anchor="middle" x="361.5" y="-48" font-family="Helvetica,sans-Serif" font-size="10.00" fill="#000000"> node</text>
</g>
<!-- Node3&#45;&gt;Node3 -->
<g id="edge3" class="edge">
<title>Node3&#45;&gt;Node3</title>
<path fill="none" stroke="#9a32cd" stroke-dasharray="5,2" d="M174.8001,-26.7288C174.0019,-32.9165 182.7352,-38 201,-38 226.9766,-38 233.6736,-27.7176 221.0912,-18.6"/>
<polygon fill="#9a32cd" stroke="#9a32cd" points="177.6992,-28.697 180.9088,-18.6 172.1031,-24.4917 177.6992,-28.697"/>
<text text-anchor="middle" x="201" y="-41" font-family="Helvetica,sans-Serif" font-size="10.00" fill="#000000"> parent</text>
</g>
<!-- Node4 -->
<g id="node5" class="node">
<title>Node4</title>
<polygon fill="#ffffff" stroke="#bfbfbf" points="0,-.5 0,-19.5 29,-19.5 29,-.5 0,-.5"/>
<text text-anchor="middle" x="14.5" y="-7.5" font-family="Helvetica,sans-Serif" font-size="10.00" fill="#000000">T</text>
</g>
<!-- Node4&#45;&gt;Node3 -->
<g id="edge4" class="edge">
<title>Node4&#45;&gt;Node3</title>
<path fill="none" stroke="#9a32cd" stroke-dasharray="5,2" d="M39.1576,-10C76.4608,-10 146.5274,-10 180.9195,-10"/>
<polygon fill="#9a32cd" stroke="#9a32cd" points="39.1344,-6.5001 29.1343,-10 39.1343,-13.5001 39.1344,-6.5001"/>
<text text-anchor="middle" x="60.5" y="-13" font-family="Helvetica,sans-Serif" font-size="10.00" fill="#000000"> value</text>
</g>
</g>
</svg>
