<?xml version="1.0" encoding="UTF-8" standalone="no"?>
<!DOCTYPE svg PUBLIC "-//W3C//DTD SVG 1.1//EN"
 "http://www.w3.org/Graphics/SVG/1.1/DTD/svg11.dtd">
<!-- Generated by graphviz version 2.40.1 (20161225.0304)
 -->
<!-- Title: ExitCodeDecl Pages: 1 -->
<svg width="890pt" height="189pt"
 viewBox="0.00 0.00 890.00 189.00" xmlns="http://www.w3.org/2000/svg" xmlns:xlink="http://www.w3.org/1999/xlink">
<g id="graph0" class="graph" transform="scale(1 1) rotate(0) translate(4 185)">
<title>ExitCodeDecl</title>
<polygon fill="#ffffff" stroke="transparent" points="-4,4 -4,-185 886,-185 886,4 -4,4"/>
<!-- Node2 -->
<g id="node1" class="node">
<title>Node2</title>
<polygon fill="#bfbfbf" stroke="#000000" points="805,-39.5 805,-58.5 882,-58.5 882,-39.5 805,-39.5"/>
<text text-anchor="middle" x="843.5" y="-46.5" font-family="Helvetica,sans-Serif" font-size="10.00" fill="#000000">ExitCodeDecl</text>
</g>
<!-- Node37 -->
<g id="node2" class="node">
<title>Node37</title>
<polygon fill="#ffffff" stroke="#bfbfbf" points="646,-92.5 646,-111.5 738,-111.5 738,-92.5 646,-92.5"/>
<text text-anchor="middle" x="692" y="-99.5" font-family="Helvetica,sans-Serif" font-size="10.00" fill="#000000">vector&lt;Library *&gt;</text>
</g>
<!-- Node4 -->
<g id="node6" class="node">
<title>Node4</title>
<g id="a_node6"><a xlink:href="classaworx_1_1lib_1_1lang_1_1Library.html" target="_top" xlink:title="Library">
<polygon fill="#ffffff" stroke="#000000" points="470,-84.5 470,-103.5 516,-103.5 516,-84.5 470,-84.5"/>
<text text-anchor="middle" x="493" y="-91.5" font-family="Helvetica,sans-Serif" font-size="10.00" fill="#000000">Library</text>
</a>
</g>
</g>
<!-- Node37&#45;&gt;Node4 -->
<g id="edge8" class="edge">
<title>Node37&#45;&gt;Node4</title>
<path fill="none" stroke="#9a32cd" stroke-dasharray="5,2" d="M635.5203,-95.0101C623.1748,-93.7568 610.1633,-92.6452 598,-92 569.5955,-90.4934 562.436,-91.3069 534,-92 528.3005,-92.1389 522.1593,-92.3863 516.409,-92.6609"/>
<polygon fill="#9a32cd" stroke="#9a32cd" points="635.3875,-98.5155 645.7007,-96.0891 636.1253,-91.5545 635.3875,-98.5155"/>
<text text-anchor="middle" x="566" y="-95" font-family="Helvetica,sans-Serif" font-size="10.00" fill="#000000"> dependencies</text>
</g>
<!-- Node38 -->
<g id="node3" class="node">
<title>Node38</title>
<polygon fill="#ffffff" stroke="#bfbfbf" points="142,-161.5 142,-180.5 318,-180.5 318,-161.5 142,-161.5"/>
<text text-anchor="middle" x="230" y="-168.5" font-family="Helvetica,sans-Serif" font-size="10.00" fill="#000000">vector&lt;pair&lt;const char *, uint64_t&gt;&gt;</text>
</g>
<!-- Node38&#45;&gt;Node4 -->
<g id="edge9" class="edge">
<title>Node38&#45;&gt;Node4</title>
<path fill="none" stroke="#9a32cd" stroke-dasharray="5,2" d="M328.2584,-171.8716C368.5855,-168.6176 414.5055,-160.0364 452,-140 467.8511,-131.5294 480.5549,-114.3659 487.4157,-103.5669"/>
<polygon fill="#9a32cd" stroke="#9a32cd" points="327.8628,-168.3908 318.1348,-172.5878 328.3569,-175.3733 327.8628,-168.3908"/>
<text text-anchor="middle" x="394" y="-173" font-family="Helvetica,sans-Serif" font-size="10.00" fill="#000000"> CompilationFlagMeanings</text>
</g>
<!-- Node3 -->
<g id="node4" class="node">
<title>Node3</title>
<g id="a_node4"><a xlink:href="structaworx_1_1lib_1_1cli_1_1ArgumentDecl.html" target="_top" xlink:title="ArgumentDecl\&lt;ExitCodeDecl\&gt;">
<polygon fill="#ffffff" stroke="#000000" points="616,-39.5 616,-58.5 768,-58.5 768,-39.5 616,-39.5"/>
<text text-anchor="middle" x="692" y="-46.5" font-family="Helvetica,sans-Serif" font-size="10.00" fill="#000000">ArgumentDecl&lt;ExitCodeDecl&gt;</text>
</a>
</g>
</g>
<!-- Node3&#45;&gt;Node2 -->
<g id="edge1" class="edge">
<title>Node3&#45;&gt;Node2</title>
<path fill="none" stroke="#191970" d="M778.2631,-49C787.4904,-49 796.5055,-49 804.7462,-49"/>
<polygon fill="#191970" stroke="#191970" points="778.1939,-45.5001 768.1938,-49 778.1938,-52.5001 778.1939,-45.5001"/>
</g>
<!-- Node5 -->
<g id="node5" class="node">
<title>Node5</title>
<g id="a_node5"><a xlink:href="classaworx_1_1lib_1_1strings_1_1TStringBase.html" target="_top" xlink:title="TStringBase\&lt;character\&gt;">
<polygon fill="#ffffff" stroke="#ff0000" points="168.5,-123.5 168.5,-142.5 291.5,-142.5 291.5,-123.5 168.5,-123.5"/>
<text text-anchor="middle" x="230" y="-130.5" font-family="Helvetica,sans-Serif" font-size="10.00" fill="#000000">TStringBase&lt;character&gt;</text>
</a>
</g>
</g>
<!-- Node5&#45;&gt;Node4 -->
<g id="edge4" class="edge">
<title>Node5&#45;&gt;Node4</title>
<path fill="none" stroke="#9a32cd" stroke-dasharray="5,2" d="M301.828,-128.8761C345.6172,-125.3851 402.4942,-119.1014 452,-108 457.8715,-106.6834 464.0772,-104.8224 469.8348,-102.886"/>
<polygon fill="#9a32cd" stroke="#9a32cd" points="301.546,-125.3873 291.843,-129.642 302.0814,-132.3668 301.546,-125.3873"/>
<text text-anchor="middle" x="394" y="-128" font-family="Helvetica,sans-Serif" font-size="10.00" fill="#000000"> ResourceCategory</text>
</g>
<!-- Node4&#45;&gt;Node37 -->
<g id="edge3" class="edge">
<title>Node4&#45;&gt;Node37</title>
<path fill="none" stroke="#9a32cd" stroke-dasharray="5,2" d="M526.1929,-103.6857C528.8183,-104.2124 531.4427,-104.6629 534,-105 571.4003,-109.9299 614.2054,-108.6986 645.8198,-106.5023"/>
<polygon fill="#9a32cd" stroke="#9a32cd" points="526.7359,-100.2185 516.2023,-101.3562 525.1463,-107.0356 526.7359,-100.2185"/>
<text text-anchor="middle" x="566" y="-111" font-family="Helvetica,sans-Serif" font-size="10.00" fill="#000000"> elements</text>
</g>
<!-- Node4&#45;&gt;Node3 -->
<g id="edge2" class="edge">
<title>Node4&#45;&gt;Node3</title>
<path fill="none" stroke="#9a32cd" stroke-dasharray="5,2" d="M521.5339,-80.419C525.6575,-78.7672 529.8954,-77.2314 534,-76 560.2546,-68.1232 589.6966,-62.3107 615.9862,-58.14"/>
<polygon fill="#9a32cd" stroke="#9a32cd" points="520.0543,-77.2451 512.2363,-84.3956 522.807,-83.6811 520.0543,-77.2451"/>
<text text-anchor="middle" x="566" y="-79" font-family="Helvetica,sans-Serif" font-size="10.00" fill="#000000"> ResLib</text>
</g>
<!-- Node7 -->
<g id="node7" class="node">
<title>Node7</title>
<g id="a_node7"><a xlink:href="classaworx_1_1lib_1_1lang_1_1Resources.html" target="_top" xlink:title="Resources">
<polygon fill="#ffffff" stroke="#ff0000" points="198,-38.5 198,-57.5 262,-57.5 262,-38.5 198,-38.5"/>
<text text-anchor="middle" x="230" y="-45.5" font-family="Helvetica,sans-Serif" font-size="10.00" fill="#000000">Resources</text>
</a>
</g>
</g>
<!-- Node7&#45;&gt;Node4 -->
<g id="edge5" class="edge">
<title>Node7&#45;&gt;Node4</title>
<path fill="none" stroke="#9a32cd" stroke-dasharray="5,2" d="M272.2756,-46.425C317.8179,-45.9954 391.845,-49.0026 452,-69 462.2846,-72.4189 472.6968,-78.8124 480.4547,-84.2776"/>
<polygon fill="#9a32cd" stroke="#9a32cd" points="272.1162,-42.927 262.1717,-46.5815 272.2247,-49.9261 272.1162,-42.927"/>
<text text-anchor="middle" x="394" y="-72" font-family="Helvetica,sans-Serif" font-size="10.00" fill="#000000"> Res</text>
</g>
<!-- Node19 -->
<g id="node8" class="node">
<title>Node19</title>
<g id="a_node8"><a xlink:href="classaworx_1_1lib_1_1config_1_1Configuration.html" target="_top" xlink:title="Configuration">
<polygon fill="#ffffff" stroke="#ff0000" points="0,-66.5 0,-85.5 74,-85.5 74,-66.5 0,-66.5"/>
<text text-anchor="middle" x="37" y="-73.5" font-family="Helvetica,sans-Serif" font-size="10.00" fill="#000000">Configuration</text>
</a>
</g>
</g>
<!-- Node19&#45;&gt;Node4 -->
<g id="edge6" class="edge">
<title>Node19&#45;&gt;Node4</title>
<path fill="none" stroke="#9a32cd" stroke-dasharray="5,2" d="M84.32,-79.5562C86.9174,-79.7156 89.4905,-79.865 92,-80 235.6411,-87.728 408.467,-92.0979 469.9316,-93.4989"/>
<polygon fill="#9a32cd" stroke="#9a32cd" points="84.4719,-76.0588 74.2655,-78.9011 84.0167,-83.044 84.4719,-76.0588"/>
<text text-anchor="middle" x="230" y="-92" font-family="Helvetica,sans-Serif" font-size="10.00" fill="#000000"> Config</text>
</g>
<!-- Node19&#45;&gt;Node7 -->
<g id="edge7" class="edge">
<title>Node19&#45;&gt;Node7</title>
<path fill="none" stroke="#9a32cd" stroke-dasharray="5,2" d="M84.2705,-69.1421C119.5069,-64.0301 166.7039,-57.1829 197.7097,-52.6846"/>
<polygon fill="#9a32cd" stroke="#9a32cd" points="83.6062,-65.7017 74.2123,-70.6013 84.6113,-72.6292 83.6062,-65.7017"/>
<text text-anchor="middle" x="108" y="-70" font-family="Helvetica,sans-Serif" font-size="10.00" fill="#000000"> Config</text>
</g>
<!-- Node39 -->
<g id="node9" class="node">
<title>Node39</title>
<g id="a_node9"><a xlink:href="structaworx_1_1lib_1_1lang_1_1Enum.html" target="_top" xlink:title="Enum">
<polygon fill="#ffffff" stroke="#000000" points="472,-1.5 472,-20.5 514,-20.5 514,-1.5 472,-1.5"/>
<text text-anchor="middle" x="493" y="-8.5" font-family="Helvetica,sans-Serif" font-size="10.00" fill="#000000">Enum</text>
</a>
</g>
</g>
<!-- Node39&#45;&gt;Node3 -->
<g id="edge10" class="edge">
<title>Node39&#45;&gt;Node3</title>
<path fill="none" stroke="#9a32cd" stroke-dasharray="5,2" d="M524.0152,-13.7156C545.0132,-15.8288 573.3182,-19.2132 598,-24 619.0539,-28.0832 642.3526,-34.2678 660.4873,-39.4639"/>
<polygon fill="#9a32cd" stroke="#9a32cd" points="524.3411,-10.2308 514.0508,-12.7527 523.6678,-17.1984 524.3411,-10.2308"/>
<text text-anchor="middle" x="566" y="-27" font-family="Helvetica,sans-Serif" font-size="10.00" fill="#000000"> EnumBox</text>
</g>
<!-- Node40 -->
<g id="node10" class="node">
<title>Node40</title>
<g id="a_node10"><a xlink:href="classaworx_1_1lib_1_1boxing_1_1Box.html" target="_top" xlink:title="Box">
<polygon fill="#ffffff" stroke="#ff0000" points="213,-.5 213,-19.5 247,-19.5 247,-.5 213,-.5"/>
<text text-anchor="middle" x="230" y="-7.5" font-family="Helvetica,sans-Serif" font-size="10.00" fill="#000000">Box</text>
</a>
</g>
</g>
<!-- Node40&#45;&gt;Node39 -->
<g id="edge11" class="edge">
<title>Node40&#45;&gt;Node39</title>
<path fill="none" stroke="#191970" d="M257.524,-10.1047C310.2274,-10.305 424.3603,-10.739 471.7282,-10.9191"/>
<polygon fill="#191970" stroke="#191970" points="257.2694,-6.6038 247.2562,-10.0656 257.2428,-13.6037 257.2694,-6.6038"/>
</g>
</g>
</svg>
