<?xml version="1.0" encoding="UTF-8" standalone="no"?>
<!DOCTYPE svg PUBLIC "-//W3C//DTD SVG 1.1//EN"
 "http://www.w3.org/Graphics/SVG/1.1/DTD/svg11.dtd">
<!-- Generated by graphviz version 2.40.1 (20161225.0304)
 -->
<!-- Title: Enum Pages: 1 -->
<svg width="124pt" height="152pt"
 viewBox="0.00 0.00 123.50 152.00" xmlns="http://www.w3.org/2000/svg" xmlns:xlink="http://www.w3.org/1999/xlink">
<g id="graph0" class="graph" transform="scale(1 1) rotate(0) translate(4 148)">
<title>Enum</title>
<polygon fill="#ffffff" stroke="transparent" points="-4,4 -4,-148 119.5,-148 119.5,4 -4,4"/>
<!-- Node2 -->
<g id="node1" class="node">
<title>Node2</title>
<polygon fill="#bfbfbf" stroke="#000000" points="39.5,-.5 39.5,-19.5 81.5,-19.5 81.5,-.5 39.5,-.5"/>
<text text-anchor="middle" x="60.5" y="-7.5" font-family="Helvetica,sans-Serif" font-size="10.00" fill="#000000">Enum</text>
</g>
<!-- Node3 -->
<g id="node2" class="node">
<title>Node3</title>
<g id="a_node2"><a xlink:href="classaworx_1_1lib_1_1boxing_1_1Box.html" target="_top" xlink:title="Box">
<polygon fill="#ffffff" stroke="#000000" points="43.5,-57.5 43.5,-76.5 77.5,-76.5 77.5,-57.5 43.5,-57.5"/>
<text text-anchor="middle" x="60.5" y="-64.5" font-family="Helvetica,sans-Serif" font-size="10.00" fill="#000000">Box</text>
</a>
</g>
</g>
<!-- Node3&#45;&gt;Node2 -->
<g id="edge1" class="edge">
<title>Node3&#45;&gt;Node2</title>
<path fill="none" stroke="#191970" d="M60.5,-47.2342C60.5,-37.8491 60.5,-27.0651 60.5,-19.5265"/>
<polygon fill="#191970" stroke="#191970" points="57.0001,-47.3307 60.5,-57.3307 64.0001,-47.3308 57.0001,-47.3307"/>
</g>
<!-- Node4 -->
<g id="node3" class="node">
<title>Node4</title>
<g id="a_node3"><a xlink:href="structaworx_1_1lib_1_1boxing_1_1BoxData.html" target="_top" xlink:title="BoxData">
<polygon fill="#ffffff" stroke="#000000" points="0,-124.5 0,-143.5 55,-143.5 55,-124.5 0,-124.5"/>
<text text-anchor="middle" x="27.5" y="-131.5" font-family="Helvetica,sans-Serif" font-size="10.00" fill="#000000">BoxData</text>
</a>
</g>
</g>
<!-- Node4&#45;&gt;Node3 -->
<g id="edge2" class="edge">
<title>Node4&#45;&gt;Node3</title>
<path fill="none" stroke="#9a32cd" stroke-dasharray="5,2" d="M36.7413,-115.2374C42.9354,-102.6614 50.8341,-86.6246 55.7807,-76.5817"/>
<polygon fill="#9a32cd" stroke="#9a32cd" points="33.5068,-113.8831 32.2281,-124.4005 39.7865,-116.9761 33.5068,-113.8831"/>
<text text-anchor="middle" x="57.5" y="-98" font-family="Helvetica,sans-Serif" font-size="10.00" fill="#000000"> data</text>
</g>
<!-- Node5 -->
<g id="node4" class="node">
<title>Node5</title>
<g id="a_node4"><a xlink:href="classaworx_1_1lib_1_1boxing_1_1Boxer.html" target="_top" xlink:title="Boxer">
<polygon fill="#ffffff" stroke="#000000" points="73.5,-124.5 73.5,-143.5 115.5,-143.5 115.5,-124.5 73.5,-124.5"/>
<text text-anchor="middle" x="94.5" y="-131.5" font-family="Helvetica,sans-Serif" font-size="10.00" fill="#000000">Boxer</text>
</a>
</g>
</g>
<!-- Node5&#45;&gt;Node3 -->
<g id="edge3" class="edge">
<title>Node5&#45;&gt;Node3</title>
<path fill="none" stroke="#9a32cd" stroke-dasharray="5,2" d="M84.9787,-115.2374C78.5968,-102.6614 70.4588,-86.6246 65.3623,-76.5817"/>
<polygon fill="#9a32cd" stroke="#9a32cd" points="81.9822,-117.0669 89.6286,-124.4005 88.2244,-113.8992 81.9822,-117.0669"/>
<text text-anchor="middle" x="93.5" y="-98" font-family="Helvetica,sans-Serif" font-size="10.00" fill="#000000"> boxer</text>
</g>
</g>
</svg>
