<?xml version="1.0" encoding="UTF-8" standalone="no"?>
<!DOCTYPE svg PUBLIC "-//W3C//DTD SVG 1.1//EN"
 "http://www.w3.org/Graphics/SVG/1.1/DTD/svg11.dtd">
<!-- Generated by graphviz version 2.40.1 (20161225.0304)
 -->
<!-- Title: ScopeInfo::SourceFile Pages: 1 -->
<svg width="256pt" height="187pt"
 viewBox="0.00 0.00 256.00 187.00" xmlns="http://www.w3.org/2000/svg" xmlns:xlink="http://www.w3.org/1999/xlink">
<g id="graph0" class="graph" transform="scale(1 1) rotate(0) translate(4 183)">
<title>ScopeInfo::SourceFile</title>
<polygon fill="#ffffff" stroke="transparent" points="-4,4 -4,-183 252,-183 252,4 -4,4"/>
<!-- Node1 -->
<g id="node1" class="node">
<title>Node1</title>
<polygon fill="#bfbfbf" stroke="#000000" points="0,-.5 0,-19.5 113,-19.5 113,-.5 0,-.5"/>
<text text-anchor="middle" x="56.5" y="-7.5" font-family="Helvetica,sans-Serif" font-size="10.00" fill="#000000">ScopeInfo::SourceFile</text>
</g>
<!-- Node2 -->
<g id="node2" class="node">
<title>Node2</title>
<g id="a_node2"><a xlink:href="classaworx_1_1lib_1_1strings_1_1StringBase.html" target="_top" xlink:title="StringBase\&lt;nchar\&gt;">
<polygon fill="#ffffff" stroke="#000000" points="2,-159.5 2,-178.5 103,-178.5 103,-159.5 2,-159.5"/>
<text text-anchor="middle" x="52.5" y="-166.5" font-family="Helvetica,sans-Serif" font-size="10.00" fill="#000000">StringBase&lt;nchar&gt;</text>
</a>
</g>
</g>
<!-- Node2&#45;&gt;Node1 -->
<g id="edge1" class="edge">
<title>Node2&#45;&gt;Node1</title>
<path fill="none" stroke="#9a32cd" stroke-dasharray="5,2" d="M51.4622,-149.0234C51.0773,-140.6742 50.6886,-130.8695 50.5,-122 49.9803,-97.5611 49.2188,-91.4108 50.5,-67 51.3762,-50.3061 53.6864,-30.9751 55.1711,-19.6577"/>
<polygon fill="#9a32cd" stroke="#9a32cd" points="47.9796,-149.4659 51.9657,-159.2822 54.9712,-149.1226 47.9796,-149.4659"/>
<text text-anchor="middle" x="91.5" y="-114" font-family="Helvetica,sans-Serif" font-size="10.00" fill="#000000"> fullPath</text>
<text text-anchor="middle" x="91.5" y="-103" font-family="Helvetica,sans-Serif" font-size="10.00" fill="#000000">nameWOExt</text>
<text text-anchor="middle" x="91.5" y="-92" font-family="Helvetica,sans-Serif" font-size="10.00" fill="#000000">trimmedPathPrefix</text>
<text text-anchor="middle" x="91.5" y="-81" font-family="Helvetica,sans-Serif" font-size="10.00" fill="#000000">name</text>
<text text-anchor="middle" x="91.5" y="-70" font-family="Helvetica,sans-Serif" font-size="10.00" fill="#000000">trimmedPath</text>
</g>
<!-- Node3 -->
<g id="node3" class="node">
<title>Node3</title>
<g id="a_node3"><a xlink:href="classaworx_1_1lib_1_1strings_1_1TStringBase.html" target="_top" xlink:title="TStringBase\&lt;nchar\&gt;">
<polygon fill="#ffffff" stroke="#000000" points="141,-85 141,-104 248,-104 248,-85 141,-85"/>
<text text-anchor="middle" x="194.5" y="-92" font-family="Helvetica,sans-Serif" font-size="10.00" fill="#000000">TStringBase&lt;nchar&gt;</text>
</a>
</g>
</g>
<!-- Node2&#45;&gt;Node3 -->
<g id="edge2" class="edge">
<title>Node2&#45;&gt;Node3</title>
<path fill="none" stroke="#191970" d="M79.7665,-154.6947C108.1596,-139.7983 151.8369,-116.8831 176.2968,-104.0503"/>
<polygon fill="#191970" stroke="#191970" points="78.0025,-151.6677 70.7733,-159.4129 81.2547,-157.8663 78.0025,-151.6677"/>
</g>
<!-- Node3&#45;&gt;Node1 -->
<g id="edge3" class="edge">
<title>Node3&#45;&gt;Node1</title>
<path fill="none" stroke="#9a32cd" stroke-dasharray="5,2" d="M170.0804,-79.5474C141.8233,-62.2451 96.1236,-34.2623 72.217,-19.6238"/>
<polygon fill="#9a32cd" stroke="#9a32cd" points="168.5819,-82.7339 178.9379,-84.971 172.2374,-76.7641 168.5819,-82.7339"/>
<text text-anchor="middle" x="134" y="-41" font-family="Helvetica,sans-Serif" font-size="10.00" fill="#000000"> origFile</text>
</g>
</g>
</svg>
