<?xml version="1.0" encoding="UTF-8" standalone="no"?>
<!DOCTYPE svg PUBLIC "-//W3C//DTD SVG 1.1//EN"
 "http://www.w3.org/Graphics/SVG/1.1/DTD/svg11.dtd">
<!-- Generated by graphviz version 2.40.1 (20161225.0304)
 -->
<!-- Title: Parameter Pages: 1 -->
<svg width="753pt" height="414pt"
 viewBox="0.00 0.00 753.00 413.53" xmlns="http://www.w3.org/2000/svg" xmlns:xlink="http://www.w3.org/1999/xlink">
<g id="graph0" class="graph" transform="scale(1 1) rotate(0) translate(4 409.5278)">
<title>Parameter</title>
<polygon fill="#ffffff" stroke="transparent" points="-4,4 -4,-409.5278 749,-409.5278 749,4 -4,4"/>
<!-- Node2 -->
<g id="node1" class="node">
<title>Node2</title>
<polygon fill="#bfbfbf" stroke="#000000" points="683,-197.5 683,-216.5 745,-216.5 745,-197.5 683,-197.5"/>
<text text-anchor="middle" x="714" y="-204.5" font-family="Helvetica,sans-Serif" font-size="10.00" fill="#000000">Parameter</text>
</g>
<!-- Node5 -->
<g id="node2" class="node">
<title>Node5</title>
<polygon fill="#ffffff" stroke="#bfbfbf" points="182,-256.5 182,-275.5 302,-275.5 302,-256.5 182,-256.5"/>
<text text-anchor="middle" x="242" y="-263.5" font-family="Helvetica,sans-Serif" font-size="10.00" fill="#000000">vector&lt;cli::OptionDecl&gt;</text>
</g>
<!-- Node4 -->
<g id="node12" class="node">
<title>Node4</title>
<g id="a_node12"><a xlink:href="classaworx_1_1lib_1_1cli_1_1CLIApp.html" target="_top" xlink:title="CLIApp">
<polygon fill="#ffffff" stroke="#000000" points="452.5,-197.5 452.5,-216.5 502.5,-216.5 502.5,-197.5 452.5,-197.5"/>
<text text-anchor="middle" x="477.5" y="-204.5" font-family="Helvetica,sans-Serif" font-size="10.00" fill="#000000">CLIApp</text>
</a>
</g>
</g>
<!-- Node5&#45;&gt;Node4 -->
<g id="edge3" class="edge">
<title>Node5&#45;&gt;Node4</title>
<path fill="none" stroke="#9a32cd" stroke-dasharray="5,2" d="M312.5796,-267.4268C349.728,-265.8489 395.2695,-260.1373 433,-244 447.4111,-237.8364 460.7832,-225.4452 469.0312,-216.705"/>
<polygon fill="#9a32cd" stroke="#9a32cd" points="312.216,-263.9368 302.3379,-267.7674 312.4487,-270.933 312.216,-263.9368"/>
<text text-anchor="middle" x="387" y="-268" font-family="Helvetica,sans-Serif" font-size="10.00" fill="#000000"> OptionDecls</text>
</g>
<!-- Node47 -->
<g id="node3" class="node">
<title>Node47</title>
<polygon fill="#ffffff" stroke="#bfbfbf" points="161,-218.5 161,-237.5 323,-237.5 323,-218.5 161,-218.5"/>
<text text-anchor="middle" x="242" y="-225.5" font-family="Helvetica,sans-Serif" font-size="10.00" fill="#000000">map&lt;Enum, vector&lt;cli::Option&gt;&gt;</text>
</g>
<!-- Node47&#45;&gt;Node4 -->
<g id="edge8" class="edge">
<title>Node47&#45;&gt;Node4</title>
<path fill="none" stroke="#9a32cd" stroke-dasharray="5,2" d="M333.2383,-219.8641C376.0654,-216.0451 423.8278,-211.7861 452.2345,-209.253"/>
<polygon fill="#9a32cd" stroke="#9a32cd" points="332.6953,-216.3985 323.0457,-220.773 333.3171,-223.3709 332.6953,-216.3985"/>
<text text-anchor="middle" x="387" y="-232" font-family="Helvetica,sans-Serif" font-size="10.00" fill="#000000"> OptionsOverwritten</text>
<text text-anchor="middle" x="387" y="-221" font-family="Helvetica,sans-Serif" font-size="10.00" fill="#000000">OptionsFound</text>
</g>
<!-- Node16 -->
<g id="node4" class="node">
<title>Node16</title>
<polygon fill="#ffffff" stroke="#bfbfbf" points="187,-180.5 187,-199.5 297,-199.5 297,-180.5 187,-180.5"/>
<text text-anchor="middle" x="242" y="-187.5" font-family="Helvetica,sans-Serif" font-size="10.00" fill="#000000">vector&lt;AStringBase&gt;</text>
</g>
<!-- Node16&#45;&gt;Node4 -->
<g id="edge5" class="edge">
<title>Node16&#45;&gt;Node4</title>
<path fill="none" stroke="#9a32cd" stroke-dasharray="5,2" d="M307.3833,-184.8994C344.5003,-183.3581 391.6626,-183.6828 433,-191 440.4375,-192.3165 448.2765,-194.7532 455.2678,-197.3349"/>
<polygon fill="#9a32cd" stroke="#9a32cd" points="307.0181,-181.4126 297.1939,-185.3794 307.3476,-188.4049 307.0181,-181.4126"/>
<text text-anchor="middle" x="387" y="-194" font-family="Helvetica,sans-Serif" font-size="10.00" fill="#000000"> convertedArgStrings</text>
</g>
<!-- Node36 -->
<g id="node5" class="node">
<title>Node36</title>
<polygon fill="#ffffff" stroke="#bfbfbf" points="190,-384.5 190,-403.5 294,-403.5 294,-384.5 190,-384.5"/>
<text text-anchor="middle" x="242" y="-391.5" font-family="Helvetica,sans-Serif" font-size="10.00" fill="#000000">vector&lt;StringBase&gt;</text>
</g>
<!-- Node36&#45;&gt;Node2 -->
<g id="edge6" class="edge">
<title>Node36&#45;&gt;Node2</title>
<path fill="none" stroke="#9a32cd" stroke-dasharray="5,2" d="M304.6541,-403.0131C342.5959,-406.2775 391.5112,-406.5432 433,-394 554.1596,-357.3701 670.9102,-249.4252 704.4368,-216.5867"/>
<polygon fill="#9a32cd" stroke="#9a32cd" points="304.5461,-399.487 294.2588,-402.021 303.881,-406.4553 304.5461,-399.487"/>
<text text-anchor="middle" x="538" y="-357" font-family="Helvetica,sans-Serif" font-size="10.00" fill="#000000"> Args</text>
</g>
<!-- Node36&#45;&gt;Node4 -->
<g id="edge7" class="edge">
<title>Node36&#45;&gt;Node4</title>
<path fill="none" stroke="#9a32cd" stroke-dasharray="5,2" d="M295.1035,-382.1535C350.7186,-369.6486 430.4096,-351.4096 433,-349 452.9568,-330.4364 470.2466,-246.0079 475.7083,-216.8997"/>
<polygon fill="#9a32cd" stroke="#9a32cd" points="294.0136,-378.811 285.0231,-384.4166 295.547,-385.641 294.0136,-378.811"/>
<text text-anchor="middle" x="387" y="-385" font-family="Helvetica,sans-Serif" font-size="10.00" fill="#000000"> OptionArgsIgnored</text>
<text text-anchor="middle" x="387" y="-374" font-family="Helvetica,sans-Serif" font-size="10.00" fill="#000000">ArgStrings</text>
</g>
<!-- Node50 -->
<g id="node6" class="node">
<title>Node50</title>
<polygon fill="#ffffff" stroke="#bfbfbf" points="201,-142.5 201,-161.5 283,-161.5 283,-142.5 201,-142.5"/>
<text text-anchor="middle" x="242" y="-149.5" font-family="Helvetica,sans-Serif" font-size="10.00" fill="#000000">vector&lt;size_t&gt;</text>
</g>
<!-- Node50&#45;&gt;Node4 -->
<g id="edge9" class="edge">
<title>Node50&#45;&gt;Node4</title>
<path fill="none" stroke="#9a32cd" stroke-dasharray="5,2" d="M293.4543,-148.2711C333.1019,-147.3292 388.4851,-150.2962 433,-169 447.7984,-175.2178 461.281,-188.2355 469.4349,-197.291"/>
<polygon fill="#9a32cd" stroke="#9a32cd" points="293.1004,-144.7807 283.2213,-148.6088 293.3314,-151.7769 293.1004,-144.7807"/>
<text text-anchor="middle" x="387" y="-172" font-family="Helvetica,sans-Serif" font-size="10.00" fill="#000000"> ArgsLeft</text>
</g>
<!-- Node51 -->
<g id="node7" class="node">
<title>Node51</title>
<polygon fill="#ffffff" stroke="#bfbfbf" points="184,-104.5 184,-123.5 300,-123.5 300,-104.5 184,-104.5"/>
<text text-anchor="middle" x="242" y="-111.5" font-family="Helvetica,sans-Serif" font-size="10.00" fill="#000000">vector&lt;cli::Command&gt;</text>
</g>
<!-- Node51&#45;&gt;Node4 -->
<g id="edge10" class="edge">
<title>Node51&#45;&gt;Node4</title>
<path fill="none" stroke="#9a32cd" stroke-dasharray="5,2" d="M310.3957,-106.8949C349.1373,-106.1876 396.9136,-111.1819 433,-134 456.5849,-148.9132 469.5286,-181.292 474.7409,-197.441"/>
<polygon fill="#9a32cd" stroke="#9a32cd" points="310.1266,-103.4016 300.2409,-107.2125 310.3455,-110.3981 310.1266,-103.4016"/>
<text text-anchor="middle" x="387" y="-137" font-family="Helvetica,sans-Serif" font-size="10.00" fill="#000000"> CommandsParsed</text>
</g>
<!-- Node59 -->
<g id="node8" class="node">
<title>Node59</title>
<polygon fill="#ffffff" stroke="#bfbfbf" points="164.5,-66.5 164.5,-85.5 319.5,-85.5 319.5,-66.5 164.5,-66.5"/>
<text text-anchor="middle" x="242" y="-73.5" font-family="Helvetica,sans-Serif" font-size="10.00" fill="#000000">map&lt;Enum, cli::ExitCodeDecl&gt;</text>
</g>
<!-- Node59&#45;&gt;Node4 -->
<g id="edge13" class="edge">
<title>Node59&#45;&gt;Node4</title>
<path fill="none" stroke="#9a32cd" stroke-dasharray="5,2" d="M303.4674,-65.4754C344.096,-62.0057 396.4087,-64.6092 433,-92 467.6191,-117.9145 475.3115,-174.5339 477.0164,-197.2672"/>
<polygon fill="#9a32cd" stroke="#9a32cd" points="303.0105,-62.0035 293.4065,-66.477 303.704,-68.9691 303.0105,-62.0035"/>
<text text-anchor="middle" x="387" y="-95" font-family="Helvetica,sans-Serif" font-size="10.00" fill="#000000"> ExitCodeDecls</text>
</g>
<!-- Node62 -->
<g id="node9" class="node">
<title>Node62</title>
<polygon fill="#ffffff" stroke="#bfbfbf" points="173.5,-28.5 173.5,-47.5 310.5,-47.5 310.5,-28.5 173.5,-28.5"/>
<text text-anchor="middle" x="242" y="-35.5" font-family="Helvetica,sans-Serif" font-size="10.00" fill="#000000">vector&lt;cli::ParameterDecl&gt;</text>
</g>
<!-- Node62&#45;&gt;Node4 -->
<g id="edge14" class="edge">
<title>Node62&#45;&gt;Node4</title>
<path fill="none" stroke="#9a32cd" stroke-dasharray="5,2" d="M289.5828,-26.6269C331.8862,-19.4972 393.0547,-16.9024 433,-49 456.7696,-68.0998 471.8956,-165.6762 476.2191,-197.1793"/>
<polygon fill="#9a32cd" stroke="#9a32cd" points="288.7332,-23.2241 279.526,-28.4661 289.9925,-30.11 288.7332,-23.2241"/>
<text text-anchor="middle" x="387" y="-52" font-family="Helvetica,sans-Serif" font-size="10.00" fill="#000000"> ParameterDecls</text>
</g>
<!-- Node63 -->
<g id="node10" class="node">
<title>Node63</title>
<polygon fill="#ffffff" stroke="#bfbfbf" points="173.5,-332.5 173.5,-351.5 310.5,-351.5 310.5,-332.5 173.5,-332.5"/>
<text text-anchor="middle" x="242" y="-339.5" font-family="Helvetica,sans-Serif" font-size="10.00" fill="#000000">vector&lt;cli::CommandDecl&gt;</text>
</g>
<!-- Node63&#45;&gt;Node4 -->
<g id="edge15" class="edge">
<title>Node63&#45;&gt;Node4</title>
<path fill="none" stroke="#9a32cd" stroke-dasharray="5,2" d="M320.7196,-337.7583C365.2925,-333.8938 415.5377,-326.6088 433,-313 464.3278,-288.5855 473.8404,-238.076 476.5234,-216.7939"/>
<polygon fill="#9a32cd" stroke="#9a32cd" points="320.4011,-334.2726 310.7203,-338.5777 320.9728,-341.2492 320.4011,-334.2726"/>
<text text-anchor="middle" x="387" y="-338" font-family="Helvetica,sans-Serif" font-size="10.00" fill="#000000"> CommandDecls</text>
</g>
<!-- Node3 -->
<g id="node11" class="node">
<title>Node3</title>
<g id="a_node11"><a xlink:href="structaworx_1_1lib_1_1cli_1_1ArgumentDef.html" target="_top" xlink:title="ArgumentDef">
<polygon fill="#ffffff" stroke="#000000" points="572,-197.5 572,-216.5 646,-216.5 646,-197.5 572,-197.5"/>
<text text-anchor="middle" x="609" y="-204.5" font-family="Helvetica,sans-Serif" font-size="10.00" fill="#000000">ArgumentDef</text>
</a>
</g>
</g>
<!-- Node3&#45;&gt;Node2 -->
<g id="edge1" class="edge">
<title>Node3&#45;&gt;Node2</title>
<path fill="none" stroke="#191970" d="M656.1088,-207C665.179,-207 674.4661,-207 682.8717,-207"/>
<polygon fill="#191970" stroke="#191970" points="656.0191,-203.5001 646.0191,-207 656.019,-210.5001 656.0191,-203.5001"/>
</g>
<!-- Node4&#45;&gt;Node3 -->
<g id="edge2" class="edge">
<title>Node4&#45;&gt;Node3</title>
<path fill="none" stroke="#9a32cd" stroke-dasharray="5,2" d="M512.7732,-207C531.038,-207 553.332,-207 571.8604,-207"/>
<polygon fill="#9a32cd" stroke="#9a32cd" points="512.5437,-203.5001 502.5437,-207 512.5436,-210.5001 512.5437,-203.5001"/>
<text text-anchor="middle" x="538" y="-210" font-family="Helvetica,sans-Serif" font-size="10.00" fill="#000000"> Parent</text>
</g>
<!-- Node8 -->
<g id="node13" class="node">
<title>Node8</title>
<g id="a_node13"><a xlink:href="classaworx_1_1lib_1_1lang_1_1Library.html" target="_top" xlink:title="Library">
<polygon fill="#ffffff" stroke="#ff0000" points="219,-294.5 219,-313.5 265,-313.5 265,-294.5 219,-294.5"/>
<text text-anchor="middle" x="242" y="-301.5" font-family="Helvetica,sans-Serif" font-size="10.00" fill="#000000">Library</text>
</a>
</g>
</g>
<!-- Node8&#45;&gt;Node4 -->
<g id="edge4" class="edge">
<title>Node8&#45;&gt;Node4</title>
<path fill="none" stroke="#9a32cd" stroke-dasharray="5,2" d="M275.175,-303.2524C322.8053,-301.6129 407.6293,-296.4117 433,-280 456.4296,-264.8439 469.4461,-232.5789 474.708,-216.5075"/>
<polygon fill="#9a32cd" stroke="#9a32cd" points="274.9348,-299.7581 265.0482,-303.5666 275.152,-306.7547 274.9348,-299.7581"/>
<text text-anchor="middle" x="387" y="-301" font-family="Helvetica,sans-Serif" font-size="10.00" fill="#000000"> ResLibrary</text>
</g>
<!-- Node57 -->
<g id="node14" class="node">
<title>Node57</title>
<g id="a_node14"><a xlink:href="structaworx_1_1lib_1_1cli_1_1ParameterDecl.html" target="_top" xlink:title="ParameterDecl">
<polygon fill="#ffffff" stroke="#ff0000" points="0,-6.5 0,-25.5 82,-25.5 82,-6.5 0,-6.5"/>
<text text-anchor="middle" x="41" y="-13.5" font-family="Helvetica,sans-Serif" font-size="10.00" fill="#000000">ParameterDecl</text>
</a>
</g>
</g>
<!-- Node57&#45;&gt;Node2 -->
<g id="edge11" class="edge">
<title>Node57&#45;&gt;Node2</title>
<path fill="none" stroke="#9a32cd" stroke-dasharray="5,2" d="M92.292,-9.6587C132.8549,-5.1904 190.9583,0 242,0 242,0 242,0 609,0 698.6597,0 711.7832,-156.3689 713.6825,-197.2936"/>
<polygon fill="#9a32cd" stroke="#9a32cd" points="91.6594,-6.2077 82.1141,-10.8053 92.443,-13.1637 91.6594,-6.2077"/>
<text text-anchor="middle" x="477.5" y="-3" font-family="Helvetica,sans-Serif" font-size="10.00" fill="#000000"> Declaration</text>
</g>
<!-- Node57&#45;&gt;Node62 -->
<g id="edge12" class="edge">
<title>Node57&#45;&gt;Node62</title>
<path fill="none" stroke="#9a32cd" stroke-dasharray="5,2" d="M92.3482,-21.6202C116.9205,-24.3097 146.6934,-27.5684 173.1919,-30.4688"/>
<polygon fill="#9a32cd" stroke="#9a32cd" points="92.4819,-18.114 82.1604,-20.5051 91.7202,-25.0725 92.4819,-18.114"/>
<text text-anchor="middle" x="121.5" y="-30" font-family="Helvetica,sans-Serif" font-size="10.00" fill="#000000"> elements</text>
</g>
</g>
</svg>
