<?xml version="1.0" encoding="UTF-8" standalone="no"?>
<!DOCTYPE svg PUBLIC "-//W3C//DTD SVG 1.1//EN"
 "http://www.w3.org/Graphics/SVG/1.1/DTD/svg11.dtd">
<!-- Generated by graphviz version 2.40.1 (20161225.0304)
 -->
<!-- Title: CompilerPlugin Pages: 1 -->
<svg width="1447pt" height="495pt"
 viewBox="0.00 0.00 1447.00 495.00" xmlns="http://www.w3.org/2000/svg" xmlns:xlink="http://www.w3.org/1999/xlink">
<g id="graph0" class="graph" transform="scale(1 1) rotate(0) translate(4 491)">
<title>CompilerPlugin</title>
<polygon fill="#ffffff" stroke="transparent" points="-4,4 -4,-491 1443,-491 1443,4 -4,4"/>
<!-- Node8 -->
<g id="node1" class="node">
<title>Node8</title>
<polygon fill="#bfbfbf" stroke="#000000" points="1356,-390.5 1356,-409.5 1439,-409.5 1439,-390.5 1356,-390.5"/>
<text text-anchor="middle" x="1397.5" y="-397.5" font-family="Helvetica,sans-Serif" font-size="10.00" fill="#000000">CompilerPlugin</text>
</g>
<!-- Node10 -->
<g id="node2" class="node">
<title>Node10</title>
<g id="a_node2"><a xlink:href="classaworx_1_1lib_1_1util_1_1PluginContainer.html" target="_top" xlink:title="PluginContainer\&lt;CompilerPlugin, CompilePriorities\&gt;">
<polygon fill="#ffffff" stroke="#000000" points="848,-352.5 848,-371.5 1092,-371.5 1092,-352.5 848,-352.5"/>
<text text-anchor="middle" x="970" y="-359.5" font-family="Helvetica,sans-Serif" font-size="10.00" fill="#000000">PluginContainer&lt;CompilerPlugin, CompilePriorities&gt;</text>
</a>
</g>
</g>
<!-- Node9 -->
<g id="node13" class="node">
<title>Node9</title>
<g id="a_node13"><a xlink:href="classaworx_1_1lib_1_1expressions_1_1Compiler.html" target="_top" xlink:title="Compiler">
<polygon fill="#ffffff" stroke="#000000" points="1232,-290.5 1232,-309.5 1288,-309.5 1288,-290.5 1232,-290.5"/>
<text text-anchor="middle" x="1260" y="-297.5" font-family="Helvetica,sans-Serif" font-size="10.00" fill="#000000">Compiler</text>
</a>
</g>
</g>
<!-- Node10&#45;&gt;Node9 -->
<g id="edge2" class="edge">
<title>Node10&#45;&gt;Node9</title>
<path fill="none" stroke="#191970" d="M1102.5692,-362.224C1139.6925,-358.6378 1179.3458,-351.2344 1214,-337 1228.7893,-330.9252 1242.6357,-318.5146 1251.1965,-309.7457"/>
<polygon fill="#191970" stroke="#191970" points="1101.8274,-358.7756 1092.1718,-363.1368 1102.4397,-365.7488 1101.8274,-358.7756"/>
</g>
<!-- Node22 -->
<g id="node3" class="node">
<title>Node22</title>
<polygon fill="#ffffff" stroke="#bfbfbf" points="497,-390.5 497,-409.5 592,-409.5 592,-390.5 497,-390.5"/>
<text text-anchor="middle" x="544.5" y="-397.5" font-family="Helvetica,sans-Serif" font-size="10.00" fill="#000000">vector&lt;TPlugin *&gt;</text>
</g>
<!-- Node22&#45;&gt;Node10 -->
<g id="edge6" class="edge">
<title>Node22&#45;&gt;Node10</title>
<path fill="none" stroke="#9a32cd" stroke-dasharray="5,2" d="M602.4215,-394.8272C669.3647,-388.8487 780.9143,-378.8866 863.605,-371.5018"/>
<polygon fill="#9a32cd" stroke="#9a32cd" points="601.7207,-391.3758 592.0717,-395.7515 602.3434,-398.348 601.7207,-391.3758"/>
<text text-anchor="middle" x="721" y="-393" font-family="Helvetica,sans-Serif" font-size="10.00" fill="#000000"> pluginsOwned</text>
</g>
<!-- Node23 -->
<g id="node4" class="node">
<title>Node23</title>
<polygon fill="#ffffff" stroke="#bfbfbf" points="470.5,-352.5 470.5,-371.5 618.5,-371.5 618.5,-352.5 470.5,-352.5"/>
<text text-anchor="middle" x="544.5" y="-359.5" font-family="Helvetica,sans-Serif" font-size="10.00" fill="#000000">vector&lt;PluginContainer::Slot&gt;</text>
</g>
<!-- Node23&#45;&gt;Node10 -->
<g id="edge7" class="edge">
<title>Node23&#45;&gt;Node10</title>
<path fill="none" stroke="#9a32cd" stroke-dasharray="5,2" d="M628.8322,-362C691.3578,-362 777.5287,-362 847.6234,-362"/>
<polygon fill="#9a32cd" stroke="#9a32cd" points="628.6165,-358.5001 618.6164,-362 628.6164,-365.5001 628.6165,-358.5001"/>
<text text-anchor="middle" x="721" y="-365" font-family="Helvetica,sans-Serif" font-size="10.00" fill="#000000"> plugins</text>
</g>
<!-- Node27 -->
<g id="node5" class="node">
<title>Node27</title>
<polygon fill="#ffffff" stroke="#bfbfbf" points="489.5,-.5 489.5,-19.5 599.5,-19.5 599.5,-.5 489.5,-.5"/>
<text text-anchor="middle" x="544.5" y="-7.5" font-family="Helvetica,sans-Serif" font-size="10.00" fill="#000000">vector&lt;AStringBase&gt;</text>
</g>
<!-- Node27&#45;&gt;Node9 -->
<g id="edge12" class="edge">
<title>Node27&#45;&gt;Node9</title>
<path fill="none" stroke="#9a32cd" stroke-dasharray="5,2" d="M609.9022,-8.4613C620.3044,-8.2694 630.9463,-8.1042 641,-8 712.1073,-7.2632 730.4217,.6886 801,-8 946.5009,-25.912 982.3157,-40.4812 1121,-88 1163.733,-102.642 1184.5837,-94.7192 1214,-129 1235.5216,-154.0805 1253.3392,-257.6463 1258.4943,-290.1764"/>
<polygon fill="#9a32cd" stroke="#9a32cd" points="609.5409,-4.9675 599.6106,-8.6608 609.6766,-11.9662 609.5409,-4.9675"/>
<text text-anchor="middle" x="970" y="-102" font-family="Helvetica,sans-Serif" font-size="10.00" fill="#000000"> CfgNormalizationDisallowed</text>
<text text-anchor="middle" x="970" y="-91" font-family="Helvetica,sans-Serif" font-size="10.00" fill="#000000">DefaultCategories</text>
</g>
<!-- Node29 -->
<g id="node15" class="node">
<title>Node29</title>
<g id="a_node15"><a xlink:href="classaworx_1_1lib_1_1config_1_1Variable.html" target="_top" xlink:title="Variable">
<polygon fill="#ffffff" stroke="#000000" points="944.5,-119.5 944.5,-138.5 995.5,-138.5 995.5,-119.5 944.5,-119.5"/>
<text text-anchor="middle" x="970" y="-126.5" font-family="Helvetica,sans-Serif" font-size="10.00" fill="#000000">Variable</text>
</a>
</g>
</g>
<!-- Node27&#45;&gt;Node29 -->
<g id="edge13" class="edge">
<title>Node27&#45;&gt;Node29</title>
<path fill="none" stroke="#9a32cd" stroke-dasharray="5,2" d="M609.7691,-9.8656C662.4726,-11.4077 737.97,-17.3853 801,-37 863.5185,-56.4556 929.3703,-100.0485 956.804,-119.414"/>
<polygon fill="#9a32cd" stroke="#9a32cd" points="609.626,-6.3611 599.5427,-9.6135 609.4534,-13.3589 609.626,-6.3611"/>
<text text-anchor="middle" x="721" y="-40" font-family="Helvetica,sans-Serif" font-size="10.00" fill="#000000"> values</text>
</g>
<!-- Node35 -->
<g id="node6" class="node">
<title>Node35</title>
<polygon fill="#ffffff" stroke="#bfbfbf" points="188.5,-428.5 188.5,-447.5 292.5,-447.5 292.5,-428.5 188.5,-428.5"/>
<text text-anchor="middle" x="240.5" y="-435.5" font-family="Helvetica,sans-Serif" font-size="10.00" fill="#000000">vector&lt;StringBase&gt;</text>
</g>
<!-- Node35&#45;&gt;Node9 -->
<g id="edge18" class="edge">
<title>Node35&#45;&gt;Node9</title>
<path fill="none" stroke="#9a32cd" stroke-dasharray="5,2" d="M303.1497,-439.3905C447.6253,-441.9981 815.2094,-445.2076 1121,-419 1162.6464,-415.4307 1180.817,-430.4175 1214,-405 1245.4408,-380.9169 1255.7971,-330.8279 1258.8502,-309.7165"/>
<polygon fill="#9a32cd" stroke="#9a32cd" points="302.7903,-435.8833 292.7268,-439.1963 302.6599,-442.8821 302.7903,-435.8833"/>
<text text-anchor="middle" x="721" y="-443" font-family="Helvetica,sans-Serif" font-size="10.00" fill="#000000"> UnaryOperators</text>
</g>
<!-- Node30 -->
<g id="node16" class="node">
<title>Node30</title>
<g id="a_node16"><a xlink:href="classaworx_1_1lib_1_1config_1_1Configuration.html" target="_top" xlink:title="Configuration">
<polygon fill="#ffffff" stroke="#ff0000" points="507.5,-234.5 507.5,-253.5 581.5,-253.5 581.5,-234.5 507.5,-234.5"/>
<text text-anchor="middle" x="544.5" y="-241.5" font-family="Helvetica,sans-Serif" font-size="10.00" fill="#000000">Configuration</text>
</a>
</g>
</g>
<!-- Node35&#45;&gt;Node30 -->
<g id="edge19" class="edge">
<title>Node35&#45;&gt;Node30</title>
<path fill="none" stroke="#9a32cd" stroke-dasharray="5,2" d="M264.3448,-422.7833C324.3035,-384.5202 480.074,-285.1139 529.3336,-253.6786"/>
<polygon fill="#9a32cd" stroke="#9a32cd" points="262.1223,-420.0495 255.5754,-428.3795 265.888,-425.9504 262.1223,-420.0495"/>
<text text-anchor="middle" x="382.5" y="-388" font-family="Helvetica,sans-Serif" font-size="10.00" fill="#000000"> TrueValues</text>
</g>
<!-- Node40 -->
<g id="node7" class="node">
<title>Node40</title>
<polygon fill="#ffffff" stroke="#bfbfbf" points="819,-220.5 819,-239.5 1121,-239.5 1121,-220.5 819,-220.5"/>
<text text-anchor="middle" x="970" y="-227.5" font-family="Helvetica,sans-Serif" font-size="10.00" fill="#000000">vector&lt;tuple&lt;Priorities, AStringBase, AStringBase, StringBase&gt;&gt;</text>
</g>
<!-- Node40&#45;&gt;Node9 -->
<g id="edge23" class="edge">
<title>Node40&#45;&gt;Node9</title>
<path fill="none" stroke="#9a32cd" stroke-dasharray="5,2" d="M1131.1536,-227.1832C1159.746,-231.2911 1188.5033,-238.6393 1214,-251 1232.059,-259.7549 1246.6163,-278.8648 1254.2253,-290.463"/>
<polygon fill="#9a32cd" stroke="#9a32cd" points="1131.422,-223.6885 1121.0526,-225.8624 1130.5143,-230.6295 1131.422,-223.6885"/>
<text text-anchor="middle" x="1176.5" y="-254" font-family="Helvetica,sans-Serif" font-size="10.00" fill="#000000"> VariablesLoaded</text>
</g>
<!-- Node25 -->
<g id="node8" class="node">
<title>Node25</title>
<g id="a_node8"><a xlink:href="classaworx_1_1lib_1_1strings_1_1StringBase.html" target="_top" xlink:title="StringBase\&lt;character\&gt;">
<polygon fill="#ffffff" stroke="#000000" points="182,-220.5 182,-239.5 299,-239.5 299,-220.5 182,-220.5"/>
<text text-anchor="middle" x="240.5" y="-227.5" font-family="Helvetica,sans-Serif" font-size="10.00" fill="#000000">StringBase&lt;character&gt;</text>
</a>
</g>
</g>
<!-- Node25&#45;&gt;Node9 -->
<g id="edge8" class="edge">
<title>Node25&#45;&gt;Node9</title>
<path fill="none" stroke="#9a32cd" stroke-dasharray="5,2" d="M309.4856,-221.9048C389.1946,-212.9919 524.3635,-199.2315 641,-194 854.2527,-184.4349 908.7422,-188.31 1121,-211 1162.6303,-215.4502 1179.1472,-202.8016 1214,-226 1237.6742,-241.7578 1251.385,-274.28 1256.9985,-290.4456"/>
<polygon fill="#9a32cd" stroke="#9a32cd" points="308.6371,-218.4781 299.0914,-223.0748 309.4201,-225.4342 308.6371,-218.4781"/>
<text text-anchor="middle" x="721" y="-208" font-family="Helvetica,sans-Serif" font-size="10.00" fill="#000000"> CfgNestedExpressionOperator</text>
<text text-anchor="middle" x="721" y="-197" font-family="Helvetica,sans-Serif" font-size="10.00" fill="#000000">CfgNestedExpressionThrowIdentifier</text>
</g>
<!-- Node25&#45;&gt;Node30 -->
<g id="edge9" class="edge">
<title>Node25&#45;&gt;Node30</title>
<path fill="none" stroke="#9a32cd" stroke-dasharray="5,2" d="M309.1809,-228.1108C349.6365,-227.5518 401.783,-227.7891 448,-231 467.7311,-232.3708 489.5834,-235.204 507.4966,-237.8766"/>
<polygon fill="#9a32cd" stroke="#9a32cd" points="309.1018,-224.6116 299.1582,-228.2688 309.2122,-231.6107 309.1018,-224.6116"/>
<text text-anchor="middle" x="382.5" y="-256" font-family="Helvetica,sans-Serif" font-size="10.00" fill="#000000"> SubstitutionVariableStart</text>
<text text-anchor="middle" x="382.5" y="-245" font-family="Helvetica,sans-Serif" font-size="10.00" fill="#000000">SubstitutionVariableEnd</text>
<text text-anchor="middle" x="382.5" y="-234" font-family="Helvetica,sans-Serif" font-size="10.00" fill="#000000">SubstitutionVariableDelimiters</text>
</g>
<!-- Node41 -->
<g id="node17" class="node">
<title>Node41</title>
<g id="a_node17"><a xlink:href="structaworx_1_1lib_1_1expressions_1_1FunctionNameDescriptor.html" target="_top" xlink:title="FunctionNameDescriptor">
<polygon fill="#ffffff" stroke="#000000" points="658.5,-291.5 658.5,-310.5 783.5,-310.5 783.5,-291.5 658.5,-291.5"/>
<text text-anchor="middle" x="721" y="-298.5" font-family="Helvetica,sans-Serif" font-size="10.00" fill="#000000">FunctionNameDescriptor</text>
</a>
</g>
</g>
<!-- Node25&#45;&gt;Node41 -->
<g id="edge10" class="edge">
<title>Node25&#45;&gt;Node41</title>
<path fill="none" stroke="#9a32cd" stroke-dasharray="5,2" d="M266.8067,-244.2605C281.2155,-251.4043 299.63,-259.4762 317,-264 434.9148,-294.7093 577.9592,-300.8102 658.3196,-301.5382"/>
<polygon fill="#9a32cd" stroke="#9a32cd" points="268.0304,-240.9552 257.5334,-239.5181 264.8431,-247.1875 268.0304,-240.9552"/>
<text text-anchor="middle" x="382.5" y="-290" font-family="Helvetica,sans-Serif" font-size="10.00" fill="#000000"> Name</text>
</g>
<!-- Node28 -->
<g id="node9" class="node">
<title>Node28</title>
<g id="a_node9"><a xlink:href="classaworx_1_1lib_1_1strings_1_1AStringBase.html" target="_top" xlink:title="AStringBase\&lt;TChar\&gt;">
<polygon fill="#ffffff" stroke="#ff0000" points="185.5,-.5 185.5,-19.5 295.5,-19.5 295.5,-.5 185.5,-.5"/>
<text text-anchor="middle" x="240.5" y="-7.5" font-family="Helvetica,sans-Serif" font-size="10.00" fill="#000000">AStringBase&lt;TChar&gt;</text>
</a>
</g>
</g>
<!-- Node28&#45;&gt;Node27 -->
<g id="edge14" class="edge">
<title>Node28&#45;&gt;Node27</title>
<path fill="none" stroke="#9a32cd" stroke-dasharray="5,2" d="M305.8344,-10C360.5307,-10 437.7121,-10 489.3446,-10"/>
<polygon fill="#9a32cd" stroke="#9a32cd" points="305.5521,-6.5001 295.5521,-10 305.5521,-13.5001 305.5521,-6.5001"/>
<text text-anchor="middle" x="382.5" y="-13" font-family="Helvetica,sans-Serif" font-size="10.00" fill="#000000"> elements</text>
</g>
<!-- Node36 -->
<g id="node10" class="node">
<title>Node36</title>
<g id="a_node10"><a xlink:href="classaworx_1_1lib_1_1strings_1_1StringBase.html" target="_top" xlink:title="StringBase\&lt;TChar\&gt;">
<polygon fill="#ffffff" stroke="#ff0000" points="0,-447.5 0,-466.5 103,-466.5 103,-447.5 0,-447.5"/>
<text text-anchor="middle" x="51.5" y="-454.5" font-family="Helvetica,sans-Serif" font-size="10.00" fill="#000000">StringBase&lt;TChar&gt;</text>
</a>
</g>
</g>
<!-- Node36&#45;&gt;Node8 -->
<g id="edge20" class="edge">
<title>Node36&#45;&gt;Node8</title>
<path fill="none" stroke="#9a32cd" stroke-dasharray="5,2" d="M113.1923,-466.3508C150.0486,-471.15 197.8465,-476 240.5,-476 240.5,-476 240.5,-476 1260,-476 1314.2779,-476 1367.2568,-430.076 1388.1581,-409.6255"/>
<polygon fill="#9a32cd" stroke="#9a32cd" points="113.4759,-462.8577 103.1005,-465.0026 112.549,-469.7961 113.4759,-462.8577"/>
<text text-anchor="middle" x="721" y="-479" font-family="Helvetica,sans-Serif" font-size="10.00" fill="#000000"> Name</text>
</g>
<!-- Node36&#45;&gt;Node35 -->
<g id="edge21" class="edge">
<title>Node36&#45;&gt;Node35</title>
<path fill="none" stroke="#9a32cd" stroke-dasharray="5,2" d="M113.308,-450.7865C137.5402,-448.3505 165.0435,-445.5856 188.2607,-443.2516"/>
<polygon fill="#9a32cd" stroke="#9a32cd" points="112.7448,-447.3254 103.1451,-451.8082 113.445,-454.2903 112.7448,-447.3254"/>
<text text-anchor="middle" x="142.5" y="-452" font-family="Helvetica,sans-Serif" font-size="10.00" fill="#000000"> elements</text>
</g>
<!-- Node37 -->
<g id="node11" class="node">
<title>Node37</title>
<g id="a_node11"><a xlink:href="classaworx_1_1lib_1_1strings_1_1AStringBase.html" target="_top" xlink:title="AStringBase\&lt;character\&gt;">
<polygon fill="#ffffff" stroke="#ff0000" points="482.5,-140.5 482.5,-159.5 606.5,-159.5 606.5,-140.5 482.5,-140.5"/>
<text text-anchor="middle" x="544.5" y="-147.5" font-family="Helvetica,sans-Serif" font-size="10.00" fill="#000000">AStringBase&lt;character&gt;</text>
</a>
</g>
</g>
<!-- Node37&#45;&gt;Node29 -->
<g id="edge22" class="edge">
<title>Node37&#45;&gt;Node29</title>
<path fill="none" stroke="#9a32cd" stroke-dasharray="5,2" d="M616.8339,-146.4301C713.6413,-141.6523 880.5345,-133.4155 944.254,-130.2707"/>
<polygon fill="#9a32cd" stroke="#9a32cd" points="616.6423,-142.9352 606.827,-146.9239 616.9874,-149.9266 616.6423,-142.9352"/>
<text text-anchor="middle" x="721" y="-159" font-family="Helvetica,sans-Serif" font-size="10.00" fill="#000000"> DefaultValue</text>
<text text-anchor="middle" x="721" y="-148" font-family="Helvetica,sans-Serif" font-size="10.00" fill="#000000">Comments</text>
</g>
<!-- Node14 -->
<g id="node12" class="node">
<title>Node14</title>
<g id="a_node12"><a xlink:href="classaworx_1_1lib_1_1strings_1_1PreallocatedStringBase.html" target="_top" xlink:title="PreallocatedStringBase\&lt;TChar\&gt;">
<polygon fill="#ffffff" stroke="#ff0000" points="466,-76.5 466,-95.5 623,-95.5 623,-76.5 466,-76.5"/>
<text text-anchor="middle" x="544.5" y="-83.5" font-family="Helvetica,sans-Serif" font-size="10.00" fill="#000000">PreallocatedStringBase&lt;TChar&gt;</text>
</a>
</g>
</g>
<!-- Node14&#45;&gt;Node29 -->
<g id="edge4" class="edge">
<title>Node14&#45;&gt;Node29</title>
<path fill="none" stroke="#9a32cd" stroke-dasharray="5,2" d="M633.2521,-94.9691C731.4251,-104.8902 883.7121,-120.28 944.0796,-126.3805"/>
<polygon fill="#9a32cd" stroke="#9a32cd" points="633.3404,-91.4603 623.0391,-93.937 632.6365,-98.4248 633.3404,-91.4603"/>
<text text-anchor="middle" x="721" y="-115" font-family="Helvetica,sans-Serif" font-size="10.00" fill="#000000"> FormatAttrAlignment</text>
</g>
<!-- Node14&#45;&gt;Node29 -->
<g id="edge5" class="edge">
<title>Node14&#45;&gt;Node29</title>
<path fill="none" stroke="#9a32cd" stroke-dasharray="5,2" d="M582.2928,-73.3434C599.9145,-68.0851 621.3009,-62.6073 641,-60 711.4963,-50.6695 731.2203,-46.3038 801,-60 859.4645,-71.4753 923.2021,-103.3084 952.9376,-119.4101"/>
<polygon fill="#9a32cd" stroke="#9a32cd" points="580.9213,-70.1034 572.3936,-76.3907 582.9808,-76.7936 580.9213,-70.1034"/>
<text text-anchor="middle" x="721" y="-85" font-family="Helvetica,sans-Serif" font-size="10.00" fill="#000000"> Fullname</text>
<text text-anchor="middle" x="721" y="-74" font-family="Helvetica,sans-Serif" font-size="10.00" fill="#000000">Category</text>
<text text-anchor="middle" x="721" y="-63" font-family="Helvetica,sans-Serif" font-size="10.00" fill="#000000">Name</text>
</g>
<!-- Node9&#45;&gt;Node8 -->
<g id="edge1" class="edge">
<title>Node9&#45;&gt;Node8</title>
<path fill="none" stroke="#9a32cd" stroke-dasharray="5,2" d="M1281.3529,-315.5294C1310.0685,-336.4135 1360.277,-372.9288 1384.1538,-390.2937"/>
<polygon fill="#9a32cd" stroke="#9a32cd" points="1283.3301,-312.6396 1273.1841,-309.5884 1279.2128,-318.3008 1283.3301,-312.6396"/>
<text text-anchor="middle" x="1322" y="-358" font-family="Helvetica,sans-Serif" font-size="10.00" fill="#000000"> Parent</text>
</g>
<!-- Node11 -->
<g id="node14" class="node">
<title>Node11</title>
<g id="a_node14"><a xlink:href="classaworx_1_1lib_1_1threads_1_1ThreadLock.html" target="_top" xlink:title="ThreadLock">
<polygon fill="#ffffff" stroke="#ff0000" points="510.5,-314.5 510.5,-333.5 578.5,-333.5 578.5,-314.5 510.5,-314.5"/>
<text text-anchor="middle" x="544.5" y="-321.5" font-family="Helvetica,sans-Serif" font-size="10.00" fill="#000000">ThreadLock</text>
</a>
</g>
</g>
<!-- Node11&#45;&gt;Node10 -->
<g id="edge3" class="edge">
<title>Node11&#45;&gt;Node10</title>
<path fill="none" stroke="#191970" d="M588.8192,-327.958C653.2732,-333.7142 774.8328,-344.5703 863.3973,-352.4797"/>
<polygon fill="#191970" stroke="#191970" points="588.8729,-324.449 578.6012,-327.0455 588.2502,-331.4212 588.8729,-324.449"/>
</g>
<!-- Node29&#45;&gt;Node9 -->
<g id="edge15" class="edge">
<title>Node29&#45;&gt;Node9</title>
<path fill="none" stroke="#9a32cd" stroke-dasharray="5,2" d="M1005.6043,-124.0226C1057.6105,-118.8396 1154.6026,-117.3596 1214,-167 1233.6846,-183.4511 1252.0282,-262.4095 1257.9848,-290.254"/>
<polygon fill="#9a32cd" stroke="#9a32cd" points="1005.0807,-120.559 995.5232,-125.131 1005.8458,-127.517 1005.0807,-120.559"/>
<text text-anchor="middle" x="1176.5" y="-170" font-family="Helvetica,sans-Serif" font-size="10.00" fill="#000000"> var</text>
</g>
<!-- Node30&#45;&gt;Node9 -->
<g id="edge16" class="edge">
<title>Node30&#45;&gt;Node9</title>
<path fill="none" stroke="#9a32cd" stroke-dasharray="5,2" d="M591.5077,-252.2726C607.203,-254.7765 624.8157,-257.3081 641,-259 853.4882,-281.2132 908.0511,-267.755 1121,-285 1159.4666,-288.1151 1203.7708,-293.147 1231.8224,-296.513"/>
<polygon fill="#9a32cd" stroke="#9a32cd" points="591.938,-248.7966 581.5048,-250.6403 590.8105,-255.7052 591.938,-248.7966"/>
<text text-anchor="middle" x="970" y="-288" font-family="Helvetica,sans-Serif" font-size="10.00" fill="#000000"> Config</text>
</g>
<!-- Node30&#45;&gt;Node29 -->
<g id="edge17" class="edge">
<title>Node30&#45;&gt;Node29</title>
<path fill="none" stroke="#9a32cd" stroke-dasharray="5,2" d="M592.2403,-245.1545C644.5834,-245.1386 730.508,-241.3138 801,-220 805.0669,-218.7703 909.9688,-161.7146 952.4174,-138.5864"/>
<polygon fill="#9a32cd" stroke="#9a32cd" points="591.9319,-241.6532 581.9162,-245.1081 591.9003,-248.6531 591.9319,-241.6532"/>
<text text-anchor="middle" x="721" y="-247" font-family="Helvetica,sans-Serif" font-size="10.00" fill="#000000"> Config</text>
</g>
<!-- Node41&#45;&gt;Node9 -->
<g id="edge24" class="edge">
<title>Node41&#45;&gt;Node9</title>
<path fill="none" stroke="#9a32cd" stroke-dasharray="5,2" d="M793.8743,-300.8648C914.5851,-300.6408 1150.7623,-300.2027 1231.8675,-300.0522"/>
<polygon fill="#9a32cd" stroke="#9a32cd" points="793.6141,-297.3652 783.6206,-300.8838 793.6272,-304.3652 793.6141,-297.3652"/>
<text text-anchor="middle" x="970" y="-303" font-family="Helvetica,sans-Serif" font-size="10.00" fill="#000000"> CfgNestedExpressionFunction</text>
</g>
<!-- Node26 -->
<g id="node18" class="node">
<title>Node26</title>
<g id="a_node18"><a xlink:href="structaworx_1_1lib_1_1expressions_1_1detail_1_1Parser.html" target="_top" xlink:title="Parser">
<polygon fill="#ffffff" stroke="#000000" points="947.5,-390.5 947.5,-409.5 992.5,-409.5 992.5,-390.5 947.5,-390.5"/>
<text text-anchor="middle" x="970" y="-397.5" font-family="Helvetica,sans-Serif" font-size="10.00" fill="#000000">Parser</text>
</a>
</g>
</g>
<!-- Node26&#45;&gt;Node9 -->
<g id="edge11" class="edge">
<title>Node26&#45;&gt;Node9</title>
<path fill="none" stroke="#9a32cd" stroke-dasharray="5,2" d="M1002.7716,-402.4589C1052.4914,-404.5715 1148.1509,-402.1513 1214,-360 1233.6776,-347.404 1248.2302,-323.3167 1255.2714,-309.8079"/>
<polygon fill="#9a32cd" stroke="#9a32cd" points="1002.7659,-398.9541 992.599,-401.9346 1002.4055,-405.9448 1002.7659,-398.9541"/>
<text text-anchor="middle" x="1176.5" y="-393" font-family="Helvetica,sans-Serif" font-size="10.00" fill="#000000"> parser</text>
</g>
</g>
</svg>
