<?xml version="1.0" encoding="UTF-8" standalone="no"?>
<!DOCTYPE svg PUBLIC "-//W3C//DTD SVG 1.1//EN"
 "http://www.w3.org/Graphics/SVG/1.1/DTD/svg11.dtd">
<!-- Generated by graphviz version 2.40.1 (20161225.0304)
 -->
<!-- Title: StringTree&lt;T, TAllocator, TSeparator&gt;::StdIterator::RecursionDataIt Pages: 1 -->
<svg width="318pt" height="162pt"
 viewBox="0.00 0.00 318.00 162.00" xmlns="http://www.w3.org/2000/svg" xmlns:xlink="http://www.w3.org/1999/xlink">
<g id="graph0" class="graph" transform="scale(1 1) rotate(0) translate(4 158)">
<title>StringTree&lt;T, TAllocator, TSeparator&gt;::StdIterator::RecursionDataIt</title>
<polygon fill="#ffffff" stroke="transparent" points="-4,4 -4,-158 314,-158 314,4 -4,4"/>
<!-- Node1 -->
<g id="node1" class="node">
<title>Node1</title>
<polygon fill="#bfbfbf" stroke="#000000" points="0,-.5 0,-19.5 310,-19.5 310,-.5 0,-.5"/>
<text text-anchor="middle" x="155" y="-7.5" font-family="Helvetica,sans-Serif" font-size="10.00" fill="#000000">StringTree&lt;T, TAllocator, TSeparator&gt;::StdIterator::RecursionDataIt</text>
</g>
<!-- Node2 -->
<g id="node2" class="node">
<title>Node2</title>
<g id="a_node2"><a xlink:href="classaworx_1_1lib_1_1strings_1_1StringBase.html" target="_top" xlink:title="StringBase\&lt;character\&gt;">
<polygon fill="#ffffff" stroke="#000000" points="59.5,-67.5 59.5,-86.5 176.5,-86.5 176.5,-67.5 59.5,-67.5"/>
<text text-anchor="middle" x="118" y="-74.5" font-family="Helvetica,sans-Serif" font-size="10.00" fill="#000000">StringBase&lt;character&gt;</text>
</a>
</g>
</g>
<!-- Node2&#45;&gt;Node1 -->
<g id="edge1" class="edge">
<title>Node2&#45;&gt;Node1</title>
<path fill="none" stroke="#9a32cd" stroke-dasharray="5,2" d="M122.2816,-57.2997C124.1304,-50.9018 126.655,-43.9288 130,-38 133.8427,-31.1891 139.576,-24.6111 144.5832,-19.5441"/>
<polygon fill="#9a32cd" stroke="#9a32cd" points="118.8269,-56.6863 119.7827,-67.238 125.6156,-58.3933 118.8269,-56.6863"/>
<text text-anchor="middle" x="155.5" y="-41" font-family="Helvetica,sans-Serif" font-size="10.00" fill="#000000"> nodeName</text>
</g>
<!-- Node3 -->
<g id="node3" class="node">
<title>Node3</title>
<g id="a_node3"><a xlink:href="classaworx_1_1lib_1_1util_1_1StringTree_1_1Node.html" target="_top" xlink:title="Node">
<polygon fill="#ffffff" stroke="#000000" points="195,-67.5 195,-86.5 235,-86.5 235,-67.5 195,-67.5"/>
<text text-anchor="middle" x="215" y="-74.5" font-family="Helvetica,sans-Serif" font-size="10.00" fill="#000000">Node</text>
</a>
</g>
</g>
<!-- Node3&#45;&gt;Node1 -->
<g id="edge2" class="edge">
<title>Node3&#45;&gt;Node1</title>
<path fill="none" stroke="#9a32cd" stroke-dasharray="5,2" d="M199.8939,-59.4367C194.0397,-52.6925 187.2523,-44.9487 181,-38 175.4093,-31.7866 169.0234,-24.9065 163.9795,-19.5213"/>
<polygon fill="#9a32cd" stroke="#9a32cd" points="197.5122,-62.0335 206.6998,-67.3098 202.8079,-57.4557 197.5122,-62.0335"/>
<text text-anchor="middle" x="203.5" y="-41" font-family="Helvetica,sans-Serif" font-size="10.00" fill="#000000"> node</text>
</g>
<!-- Node3&#45;&gt;Node3 -->
<g id="edge3" class="edge">
<title>Node3&#45;&gt;Node3</title>
<path fill="none" stroke="#9a32cd" stroke-dasharray="5,2" d="M245.4158,-82.4421C249.9402,-81.5943 253,-79.7803 253,-77 253,-72.4375 244.7602,-70.4771 235.3294,-71.1187"/>
<polygon fill="#9a32cd" stroke="#9a32cd" points="245.1677,-78.9495 235.3294,-82.8813 245.4723,-85.9429 245.1677,-78.9495"/>
<text text-anchor="middle" x="268.5" y="-74.5" font-family="Helvetica,sans-Serif" font-size="10.00" fill="#000000"> parent</text>
</g>
<!-- Node4 -->
<g id="node4" class="node">
<title>Node4</title>
<polygon fill="#ffffff" stroke="#bfbfbf" points="200.5,-134.5 200.5,-153.5 229.5,-153.5 229.5,-134.5 200.5,-134.5"/>
<text text-anchor="middle" x="215" y="-141.5" font-family="Helvetica,sans-Serif" font-size="10.00" fill="#000000">T</text>
</g>
<!-- Node4&#45;&gt;Node3 -->
<g id="edge4" class="edge">
<title>Node4&#45;&gt;Node3</title>
<path fill="none" stroke="#9a32cd" stroke-dasharray="5,2" d="M215,-124.1079C215,-111.714 215,-96.3263 215,-86.5817"/>
<polygon fill="#9a32cd" stroke="#9a32cd" points="211.5001,-124.4005 215,-134.4005 218.5001,-124.4006 211.5001,-124.4005"/>
<text text-anchor="middle" x="228.5" y="-108" font-family="Helvetica,sans-Serif" font-size="10.00" fill="#000000"> value</text>
</g>
</g>
</svg>
