<?xml version="1.0" encoding="UTF-8" standalone="no"?>
<!DOCTYPE svg PUBLIC "-//W3C//DTD SVG 1.1//EN"
 "http://www.w3.org/Graphics/SVG/1.1/DTD/svg11.dtd">
<!-- Generated by graphviz version 2.40.1 (20161225.0304)
 -->
<!-- Title: Calculus Pages: 1 -->
<svg width="1924pt" height="532pt"
 viewBox="0.00 0.00 1924.00 532.00" xmlns="http://www.w3.org/2000/svg" xmlns:xlink="http://www.w3.org/1999/xlink">
<g id="graph0" class="graph" transform="scale(1 1) rotate(0) translate(4 528)">
<title>Calculus</title>
<polygon fill="#ffffff" stroke="transparent" points="-4,4 -4,-528 1920,-528 1920,4 -4,4"/>
<!-- Node6 -->
<g id="node1" class="node">
<title>Node6</title>
<polygon fill="#bfbfbf" stroke="#000000" points="1861,-385.5 1861,-404.5 1916,-404.5 1916,-385.5 1861,-385.5"/>
<text text-anchor="middle" x="1888.5" y="-392.5" font-family="Helvetica,sans-Serif" font-size="10.00" fill="#000000">Calculus</text>
</g>
<!-- Node9 -->
<g id="node2" class="node">
<title>Node9</title>
<g id="a_node2"><a xlink:href="classaworx_1_1lib_1_1util_1_1PluginContainer.html" target="_top" xlink:title="PluginContainer\&lt;CompilerPlugin, CompilePriorities\&gt;">
<polygon fill="#ffffff" stroke="#ff0000" points="801,-28.5 801,-47.5 1045,-47.5 1045,-28.5 801,-28.5"/>
<text text-anchor="middle" x="923" y="-35.5" font-family="Helvetica,sans-Serif" font-size="10.00" fill="#000000">PluginContainer&lt;CompilerPlugin, CompilePriorities&gt;</text>
</a>
</g>
</g>
<!-- Node8 -->
<g id="node12" class="node">
<title>Node8</title>
<g id="a_node12"><a xlink:href="classaworx_1_1lib_1_1expressions_1_1Compiler.html" target="_top" xlink:title="Compiler">
<polygon fill="#ffffff" stroke="#000000" points="1277.5,-200.5 1277.5,-219.5 1333.5,-219.5 1333.5,-200.5 1277.5,-200.5"/>
<text text-anchor="middle" x="1305.5" y="-207.5" font-family="Helvetica,sans-Serif" font-size="10.00" fill="#000000">Compiler</text>
</a>
</g>
</g>
<!-- Node9&#45;&gt;Node8 -->
<g id="edge3" class="edge">
<title>Node9&#45;&gt;Node8</title>
<path fill="none" stroke="#191970" d="M980.7196,-26.9299C1046.5351,-17.5983 1154.6176,-12.6267 1229,-62 1279.3654,-95.4314 1298.4823,-172.9204 1303.8041,-200.2466"/>
<polygon fill="#191970" stroke="#191970" points="979.9017,-23.5133 970.5311,-28.4573 980.9396,-30.4359 979.9017,-23.5133"/>
</g>
<!-- Node26 -->
<g id="node3" class="node">
<title>Node26</title>
<polygon fill="#ffffff" stroke="#bfbfbf" points="466,-134.5 466,-153.5 576,-153.5 576,-134.5 466,-134.5"/>
<text text-anchor="middle" x="521" y="-141.5" font-family="Helvetica,sans-Serif" font-size="10.00" fill="#000000">vector&lt;AStringBase&gt;</text>
</g>
<!-- Node26&#45;&gt;Node8 -->
<g id="edge8" class="edge">
<title>Node26&#45;&gt;Node8</title>
<path fill="none" stroke="#9a32cd" stroke-dasharray="5,2" d="M586.3539,-135.3186C690.2795,-123.1129 899.3264,-105.0995 1074,-131 1155.4944,-143.0839 1246.4196,-182.2213 1285.6815,-200.4696"/>
<polygon fill="#9a32cd" stroke="#9a32cd" points="585.8407,-131.8549 576.3266,-136.5167 586.6713,-138.8054 585.8407,-131.8549"/>
<text text-anchor="middle" x="923" y="-145" font-family="Helvetica,sans-Serif" font-size="10.00" fill="#000000"> CfgNormalizationDisallowed</text>
<text text-anchor="middle" x="923" y="-134" font-family="Helvetica,sans-Serif" font-size="10.00" fill="#000000">DefaultCategories</text>
</g>
<!-- Node28 -->
<g id="node16" class="node">
<title>Node28</title>
<g id="a_node16"><a xlink:href="classaworx_1_1lib_1_1config_1_1Variable.html" target="_top" xlink:title="Variable">
<polygon fill="#ffffff" stroke="#ff0000" points="897.5,-200.5 897.5,-219.5 948.5,-219.5 948.5,-200.5 897.5,-200.5"/>
<text text-anchor="middle" x="923" y="-207.5" font-family="Helvetica,sans-Serif" font-size="10.00" fill="#000000">Variable</text>
</a>
</g>
</g>
<!-- Node26&#45;&gt;Node28 -->
<g id="edge9" class="edge">
<title>Node26&#45;&gt;Node28</title>
<path fill="none" stroke="#9a32cd" stroke-dasharray="5,2" d="M577.6921,-155.6204C628.4557,-165.7853 705.0007,-180.5216 772,-191 815.8558,-197.8589 867.1812,-203.8981 897.2851,-207.2396"/>
<polygon fill="#9a32cd" stroke="#9a32cd" points="578.0726,-152.1269 567.5789,-153.5874 576.693,-158.9896 578.0726,-152.1269"/>
<text text-anchor="middle" x="674" y="-191" font-family="Helvetica,sans-Serif" font-size="10.00" fill="#000000"> values</text>
</g>
<!-- Node34 -->
<g id="node4" class="node">
<title>Node34</title>
<polygon fill="#ffffff" stroke="#bfbfbf" points="188.5,-66.5 188.5,-85.5 292.5,-85.5 292.5,-66.5 188.5,-66.5"/>
<text text-anchor="middle" x="240.5" y="-73.5" font-family="Helvetica,sans-Serif" font-size="10.00" fill="#000000">vector&lt;StringBase&gt;</text>
</g>
<!-- Node34&#45;&gt;Node8 -->
<g id="edge13" class="edge">
<title>Node34&#45;&gt;Node8</title>
<path fill="none" stroke="#9a32cd" stroke-dasharray="5,2" d="M302.7682,-77.4834C441.4528,-81.0843 786.2208,-91.6813 1074,-114 1143.0945,-119.3586 1166.7596,-100.5221 1229,-131 1261.7498,-147.0369 1288.2149,-183.1196 1299.5429,-200.4089"/>
<polygon fill="#9a32cd" stroke="#9a32cd" points="302.8343,-73.984 292.7477,-77.2261 302.6546,-80.9817 302.8343,-73.984"/>
<text text-anchor="middle" x="674" y="-97" font-family="Helvetica,sans-Serif" font-size="10.00" fill="#000000"> UnaryOperators</text>
</g>
<!-- Node29 -->
<g id="node13" class="node">
<title>Node29</title>
<g id="a_node13"><a xlink:href="classaworx_1_1lib_1_1config_1_1Configuration.html" target="_top" xlink:title="Configuration">
<polygon fill="#ffffff" stroke="#ff0000" points="484,-239.5 484,-258.5 558,-258.5 558,-239.5 484,-239.5"/>
<text text-anchor="middle" x="521" y="-246.5" font-family="Helvetica,sans-Serif" font-size="10.00" fill="#000000">Configuration</text>
</a>
</g>
</g>
<!-- Node34&#45;&gt;Node29 -->
<g id="edge14" class="edge">
<title>Node34&#45;&gt;Node29</title>
<path fill="none" stroke="#9a32cd" stroke-dasharray="5,2" d="M264.5642,-90.8418C320.7225,-125.4777 459.1754,-210.8693 505.5674,-239.4819"/>
<polygon fill="#9a32cd" stroke="#9a32cd" points="266.3292,-87.8182 255.9804,-85.5477 262.6545,-93.7761 266.3292,-87.8182"/>
<text text-anchor="middle" x="382.5" y="-206" font-family="Helvetica,sans-Serif" font-size="10.00" fill="#000000"> TrueValues</text>
</g>
<!-- Node39 -->
<g id="node5" class="node">
<title>Node39</title>
<polygon fill="#ffffff" stroke="#bfbfbf" points="772,-238.5 772,-257.5 1074,-257.5 1074,-238.5 772,-238.5"/>
<text text-anchor="middle" x="923" y="-245.5" font-family="Helvetica,sans-Serif" font-size="10.00" fill="#000000">vector&lt;tuple&lt;Priorities, AStringBase, AStringBase, StringBase&gt;&gt;</text>
</g>
<!-- Node39&#45;&gt;Node8 -->
<g id="edge17" class="edge">
<title>Node39&#45;&gt;Node8</title>
<path fill="none" stroke="#9a32cd" stroke-dasharray="5,2" d="M1084.5572,-239.4556C1131.2808,-236.0119 1182.2734,-231.3144 1229,-225 1245.0947,-222.825 1262.9097,-219.3932 1277.2958,-216.3607"/>
<polygon fill="#9a32cd" stroke="#9a32cd" points="1084.0661,-235.9819 1074.3444,-240.1936 1084.5707,-242.9637 1084.0661,-235.9819"/>
<text text-anchor="middle" x="1160.5" y="-242" font-family="Helvetica,sans-Serif" font-size="10.00" fill="#000000"> VariablesLoaded</text>
</g>
<!-- Node41 -->
<g id="node6" class="node">
<title>Node41</title>
<polygon fill="#ffffff" stroke="#bfbfbf" points="1463,-430.5 1463,-449.5 1719,-449.5 1719,-430.5 1463,-430.5"/>
<text text-anchor="middle" x="1591" y="-437.5" font-family="Helvetica,sans-Serif" font-size="10.00" fill="#000000">vector&lt;expressions::plugins::Calculus::FunctionEntry&gt;</text>
</g>
<!-- Node41&#45;&gt;Node6 -->
<g id="edge21" class="edge">
<title>Node41&#45;&gt;Node6</title>
<path fill="none" stroke="#9a32cd" stroke-dasharray="5,2" d="M1713.1902,-429.3503C1754.6571,-424.5777 1801.0856,-417.9535 1843,-409 1848.8194,-407.7569 1854.9644,-406.1056 1860.7917,-404.3741"/>
<polygon fill="#9a32cd" stroke="#9a32cd" points="1712.5851,-425.8963 1703.0396,-430.4934 1713.3684,-432.8523 1712.5851,-425.8963"/>
<text text-anchor="middle" x="1800" y="-426" font-family="Helvetica,sans-Serif" font-size="10.00" fill="#000000"> Functions</text>
</g>
<!-- Node43 -->
<g id="node7" class="node">
<title>Node43</title>
<polygon fill="#ffffff" stroke="#bfbfbf" points="886.5,-431.5 886.5,-450.5 959.5,-450.5 959.5,-431.5 886.5,-431.5"/>
<text text-anchor="middle" x="923" y="-438.5" font-family="Helvetica,sans-Serif" font-size="10.00" fill="#000000">vector&lt;Box&gt;</text>
</g>
<!-- Node42 -->
<g id="node17" class="node">
<title>Node42</title>
<g id="a_node17"><a xlink:href="structaworx_1_1lib_1_1expressions_1_1plugins_1_1Calculus_1_1FunctionEntry.html" target="_top" xlink:title="FunctionEntry">
<polygon fill="#ffffff" stroke="#000000" points="1267,-449.5 1267,-468.5 1344,-468.5 1344,-449.5 1267,-449.5"/>
<text text-anchor="middle" x="1305.5" y="-456.5" font-family="Helvetica,sans-Serif" font-size="10.00" fill="#000000">FunctionEntry</text>
</a>
</g>
</g>
<!-- Node43&#45;&gt;Node42 -->
<g id="edge23" class="edge">
<title>Node43&#45;&gt;Node42</title>
<path fill="none" stroke="#9a32cd" stroke-dasharray="5,2" d="M969.9598,-443.2099C1046.4104,-446.8075 1196.324,-453.8623 1266.9529,-457.186"/>
<polygon fill="#9a32cd" stroke="#9a32cd" points="969.8292,-439.6999 959.6757,-442.7259 969.5001,-446.6922 969.8292,-439.6999"/>
<text text-anchor="middle" x="1160.5" y="-458" font-family="Helvetica,sans-Serif" font-size="10.00" fill="#000000"> ArgTypes</text>
</g>
<!-- Node47 -->
<g id="node8" class="node">
<title>Node47</title>
<polygon fill="#ffffff" stroke="#bfbfbf" points="1443,-385.5 1443,-404.5 1739,-404.5 1739,-385.5 1443,-385.5"/>
<text text-anchor="middle" x="1591" y="-392.5" font-family="Helvetica,sans-Serif" font-size="10.00" fill="#000000">vector&lt;expressions::plugins::Calculus::ConstantIdentifierEntry&gt;</text>
</g>
<!-- Node47&#45;&gt;Node6 -->
<g id="edge27" class="edge">
<title>Node47&#45;&gt;Node6</title>
<path fill="none" stroke="#9a32cd" stroke-dasharray="5,2" d="M1749.4055,-395C1792.5339,-395 1834.5753,-395 1860.9455,-395"/>
<polygon fill="#9a32cd" stroke="#9a32cd" points="1749.3142,-391.5001 1739.3142,-395 1749.3142,-398.5001 1749.3142,-391.5001"/>
<text text-anchor="middle" x="1800" y="-398" font-family="Helvetica,sans-Serif" font-size="10.00" fill="#000000"> ConstantIdentifiers</text>
</g>
<!-- Node24 -->
<g id="node9" class="node">
<title>Node24</title>
<g id="a_node9"><a xlink:href="classaworx_1_1lib_1_1strings_1_1StringBase.html" target="_top" xlink:title="StringBase\&lt;character\&gt;">
<polygon fill="#ffffff" stroke="#000000" points="182,-323.5 182,-342.5 299,-342.5 299,-323.5 182,-323.5"/>
<text text-anchor="middle" x="240.5" y="-330.5" font-family="Helvetica,sans-Serif" font-size="10.00" fill="#000000">StringBase&lt;character&gt;</text>
</a>
</g>
</g>
<!-- Node24&#45;&gt;Node8 -->
<g id="edge4" class="edge">
<title>Node24&#45;&gt;Node8</title>
<path fill="none" stroke="#9a32cd" stroke-dasharray="5,2" d="M309.4951,-329.9702C452.2714,-323.547 790.5034,-307.5371 1074,-288 1142.9672,-283.2471 1165.1657,-301.5376 1229,-275 1258.6107,-262.69 1285.1761,-234.4965 1297.7768,-219.6114"/>
<polygon fill="#9a32cd" stroke="#9a32cd" points="308.9804,-326.4896 299.1473,-330.4343 309.2941,-333.4826 308.9804,-326.4896"/>
<text text-anchor="middle" x="674" y="-330" font-family="Helvetica,sans-Serif" font-size="10.00" fill="#000000"> CfgNestedExpressionOperator</text>
<text text-anchor="middle" x="674" y="-319" font-family="Helvetica,sans-Serif" font-size="10.00" fill="#000000">CfgNestedExpressionThrowIdentifier</text>
</g>
<!-- Node24&#45;&gt;Node29 -->
<g id="edge5" class="edge">
<title>Node24&#45;&gt;Node29</title>
<path fill="none" stroke="#9a32cd" stroke-dasharray="5,2" d="M261.1097,-317.3985C275.9104,-306.9525 296.7437,-293.7444 317,-286 372.811,-264.6623 442.0182,-255.4395 483.7815,-251.592"/>
<polygon fill="#9a32cd" stroke="#9a32cd" points="258.7744,-314.7686 252.7329,-323.4722 262.8834,-320.4357 258.7744,-314.7686"/>
<text text-anchor="middle" x="382.5" y="-311" font-family="Helvetica,sans-Serif" font-size="10.00" fill="#000000"> SubstitutionVariableStart</text>
<text text-anchor="middle" x="382.5" y="-300" font-family="Helvetica,sans-Serif" font-size="10.00" fill="#000000">SubstitutionVariableEnd</text>
<text text-anchor="middle" x="382.5" y="-289" font-family="Helvetica,sans-Serif" font-size="10.00" fill="#000000">SubstitutionVariableDelimiters</text>
</g>
<!-- Node40 -->
<g id="node14" class="node">
<title>Node40</title>
<g id="a_node14"><a xlink:href="structaworx_1_1lib_1_1expressions_1_1FunctionNameDescriptor.html" target="_top" xlink:title="FunctionNameDescriptor">
<polygon fill="#ffffff" stroke="#000000" points="860.5,-378.5 860.5,-397.5 985.5,-397.5 985.5,-378.5 860.5,-378.5"/>
<text text-anchor="middle" x="923" y="-385.5" font-family="Helvetica,sans-Serif" font-size="10.00" fill="#000000">FunctionNameDescriptor</text>
</a>
</g>
</g>
<!-- Node24&#45;&gt;Node40 -->
<g id="edge6" class="edge">
<title>Node24&#45;&gt;Node40</title>
<path fill="none" stroke="#9a32cd" stroke-dasharray="5,2" d="M297.7892,-344.2121C304.2532,-345.2604 310.7575,-346.2202 317,-347 514.4996,-371.6721 750.1971,-382.2509 860.4011,-386.1062"/>
<polygon fill="#9a32cd" stroke="#9a32cd" points="298.152,-340.7238 287.708,-342.505 296.9832,-347.6256 298.152,-340.7238"/>
<text text-anchor="middle" x="521" y="-374" font-family="Helvetica,sans-Serif" font-size="10.00" fill="#000000"> Name</text>
</g>
<!-- Node35 -->
<g id="node10" class="node">
<title>Node35</title>
<g id="a_node10"><a xlink:href="classaworx_1_1lib_1_1strings_1_1StringBase.html" target="_top" xlink:title="StringBase\&lt;TChar\&gt;">
<polygon fill="#ffffff" stroke="#ff0000" points="0,-6.5 0,-25.5 103,-25.5 103,-6.5 0,-6.5"/>
<text text-anchor="middle" x="51.5" y="-13.5" font-family="Helvetica,sans-Serif" font-size="10.00" fill="#000000">StringBase&lt;TChar&gt;</text>
</a>
</g>
</g>
<!-- Node35&#45;&gt;Node34 -->
<g id="edge16" class="edge">
<title>Node35&#45;&gt;Node34</title>
<path fill="none" stroke="#9a32cd" stroke-dasharray="5,2" d="M91.0252,-28.5477C126.582,-39.8356 178.0586,-56.1773 210.3802,-66.4382"/>
<polygon fill="#9a32cd" stroke="#9a32cd" points="92.0379,-25.1971 81.4476,-25.5072 89.9198,-31.869 92.0379,-25.1971"/>
<text text-anchor="middle" x="142.5" y="-55" font-family="Helvetica,sans-Serif" font-size="10.00" fill="#000000"> elements</text>
</g>
<!-- Node7 -->
<g id="node11" class="node">
<title>Node7</title>
<g id="a_node11"><a xlink:href="structaworx_1_1lib_1_1expressions_1_1CompilerPlugin.html" target="_top" xlink:title="CompilerPlugin">
<polygon fill="#ffffff" stroke="#000000" points="1549.5,-200.5 1549.5,-219.5 1632.5,-219.5 1632.5,-200.5 1549.5,-200.5"/>
<text text-anchor="middle" x="1591" y="-207.5" font-family="Helvetica,sans-Serif" font-size="10.00" fill="#000000">CompilerPlugin</text>
</a>
</g>
</g>
<!-- Node35&#45;&gt;Node7 -->
<g id="edge15" class="edge">
<title>Node35&#45;&gt;Node7</title>
<path fill="none" stroke="#9a32cd" stroke-dasharray="5,2" d="M113.2379,-8.1256C150.11,-4.0842 197.9086,0 240.5,0 240.5,0 240.5,0 1305.5,0 1442.7129,0 1557.5138,-159.3489 1584.8309,-200.431"/>
<polygon fill="#9a32cd" stroke="#9a32cd" points="112.6875,-4.6653 103.1413,-9.2609 113.4698,-11.6215 112.6875,-4.6653"/>
<text text-anchor="middle" x="674" y="-3" font-family="Helvetica,sans-Serif" font-size="10.00" fill="#000000"> Name</text>
</g>
<!-- Node7&#45;&gt;Node6 -->
<g id="edge1" class="edge">
<title>Node7&#45;&gt;Node6</title>
<path fill="none" stroke="#191970" d="M1615.2487,-225.079C1674.3416,-261.8259 1824.4938,-355.1978 1873.0782,-385.41"/>
<polygon fill="#191970" stroke="#191970" points="1616.9163,-221.9945 1606.576,-219.6859 1613.2198,-227.9389 1616.9163,-221.9945"/>
</g>
<!-- Node8&#45;&gt;Node7 -->
<g id="edge2" class="edge">
<title>Node8&#45;&gt;Node7</title>
<path fill="none" stroke="#9a32cd" stroke-dasharray="5,2" d="M1343.7532,-210C1397.2503,-210 1494.0461,-210 1549.3229,-210"/>
<polygon fill="#9a32cd" stroke="#9a32cd" points="1343.6562,-206.5001 1333.6562,-210 1343.6561,-213.5001 1343.6562,-206.5001"/>
<text text-anchor="middle" x="1403.5" y="-213" font-family="Helvetica,sans-Serif" font-size="10.00" fill="#000000"> Parent</text>
</g>
<!-- Node29&#45;&gt;Node8 -->
<g id="edge11" class="edge">
<title>Node29&#45;&gt;Node8</title>
<path fill="none" stroke="#9a32cd" stroke-dasharray="5,2" d="M568.32,-254.5556C576.8603,-255.4529 585.6895,-256.3117 594,-257 806.6515,-274.613 860.8071,-275.9247 1074,-267 1143.0703,-264.1086 1163.0147,-274.6154 1229,-254 1253.2763,-246.4155 1278.2353,-230.1664 1292.7842,-219.6787"/>
<polygon fill="#9a32cd" stroke="#9a32cd" points="568.4185,-251.046 558.1003,-253.451 567.6662,-258.0054 568.4185,-251.046"/>
<text text-anchor="middle" x="923" y="-276" font-family="Helvetica,sans-Serif" font-size="10.00" fill="#000000"> Config</text>
</g>
<!-- Node29&#45;&gt;Node28 -->
<g id="edge12" class="edge">
<title>Node29&#45;&gt;Node28</title>
<path fill="none" stroke="#9a32cd" stroke-dasharray="5,2" d="M568.2972,-244.4115C653.7552,-236.1208 831.1591,-218.9099 897.3567,-212.4878"/>
<polygon fill="#9a32cd" stroke="#9a32cd" points="567.7139,-240.9515 558.0986,-245.4009 568.3899,-247.9188 567.7139,-240.9515"/>
<text text-anchor="middle" x="674" y="-245" font-family="Helvetica,sans-Serif" font-size="10.00" fill="#000000"> Config</text>
</g>
<!-- Node40&#45;&gt;Node8 -->
<g id="edge18" class="edge">
<title>Node40&#45;&gt;Node8</title>
<path fill="none" stroke="#9a32cd" stroke-dasharray="5,2" d="M996.0964,-382.8437C1074.276,-376.1183 1192.0177,-362.1328 1229,-337 1272.6423,-307.3412 1295.4444,-243.744 1302.7975,-219.5816"/>
<polygon fill="#9a32cd" stroke="#9a32cd" points="995.4887,-379.3823 985.8163,-383.7061 996.0739,-386.3578 995.4887,-379.3823"/>
<text text-anchor="middle" x="1160.5" y="-374" font-family="Helvetica,sans-Serif" font-size="10.00" fill="#000000"> CfgNestedExpressionFunction</text>
</g>
<!-- Node40&#45;&gt;Node42 -->
<g id="edge19" class="edge">
<title>Node40&#45;&gt;Node42</title>
<path fill="none" stroke="#9a32cd" stroke-dasharray="5,2" d="M995.8451,-395.4885C1058.2552,-402.7258 1150.2643,-415.3541 1229,-434 1246.2674,-438.0892 1265.2297,-444.2739 1279.9555,-449.4685"/>
<polygon fill="#9a32cd" stroke="#9a32cd" points="996.0373,-391.9878 985.7046,-394.3298 995.2426,-398.9425 996.0373,-391.9878"/>
<text text-anchor="middle" x="1160.5" y="-437" font-family="Helvetica,sans-Serif" font-size="10.00" fill="#000000"> Descriptor</text>
</g>
<!-- Node48 -->
<g id="node18" class="node">
<title>Node48</title>
<g id="a_node18"><a xlink:href="structaworx_1_1lib_1_1expressions_1_1plugins_1_1Calculus_1_1ConstantIdentifierEntry.html" target="_top" xlink:title="ConstantIdentifierEntry">
<polygon fill="#ffffff" stroke="#000000" points="1247,-385.5 1247,-404.5 1364,-404.5 1364,-385.5 1247,-385.5"/>
<text text-anchor="middle" x="1305.5" y="-392.5" font-family="Helvetica,sans-Serif" font-size="10.00" fill="#000000">ConstantIdentifierEntry</text>
</a>
</g>
</g>
<!-- Node40&#45;&gt;Node48 -->
<g id="edge20" class="edge">
<title>Node40&#45;&gt;Node48</title>
<path fill="none" stroke="#9a32cd" stroke-dasharray="5,2" d="M995.7561,-389.3315C1068.6252,-390.665 1179.3682,-392.6917 1246.8153,-393.926"/>
<polygon fill="#9a32cd" stroke="#9a32cd" points="995.7962,-385.8317 985.7338,-389.1481 995.668,-392.8306 995.7962,-385.8317"/>
<text text-anchor="middle" x="1160.5" y="-396" font-family="Helvetica,sans-Serif" font-size="10.00" fill="#000000"> Descriptor</text>
</g>
<!-- Node25 -->
<g id="node15" class="node">
<title>Node25</title>
<g id="a_node15"><a xlink:href="structaworx_1_1lib_1_1expressions_1_1detail_1_1Parser.html" target="_top" xlink:title="Parser">
<polygon fill="#ffffff" stroke="#000000" points="900.5,-162.5 900.5,-181.5 945.5,-181.5 945.5,-162.5 900.5,-162.5"/>
<text text-anchor="middle" x="923" y="-169.5" font-family="Helvetica,sans-Serif" font-size="10.00" fill="#000000">Parser</text>
</a>
</g>
</g>
<!-- Node25&#45;&gt;Node8 -->
<g id="edge7" class="edge">
<title>Node25&#45;&gt;Node8</title>
<path fill="none" stroke="#9a32cd" stroke-dasharray="5,2" d="M955.8108,-173.1886C1011.9731,-175.5081 1130.0512,-181.6285 1229,-195 1245.0947,-197.175 1262.9097,-200.6068 1277.2958,-203.6393"/>
<polygon fill="#9a32cd" stroke="#9a32cd" points="955.8769,-169.6885 945.7452,-172.7866 955.5975,-176.683 955.8769,-169.6885"/>
<text text-anchor="middle" x="1160.5" y="-198" font-family="Helvetica,sans-Serif" font-size="10.00" fill="#000000"> parser</text>
</g>
<!-- Node28&#45;&gt;Node8 -->
<g id="edge10" class="edge">
<title>Node28&#45;&gt;Node8</title>
<path fill="none" stroke="#9a32cd" stroke-dasharray="5,2" d="M959.1347,-210C1034.9254,-210 1209.129,-210 1277.3605,-210"/>
<polygon fill="#9a32cd" stroke="#9a32cd" points="958.6909,-206.5001 948.6908,-210 958.6908,-213.5001 958.6909,-206.5001"/>
<text text-anchor="middle" x="1160.5" y="-213" font-family="Helvetica,sans-Serif" font-size="10.00" fill="#000000"> var</text>
</g>
<!-- Node42&#45;&gt;Node41 -->
<g id="edge22" class="edge">
<title>Node42&#45;&gt;Node41</title>
<path fill="none" stroke="#9a32cd" stroke-dasharray="5,2" d="M1354.1865,-455.7599C1384.2071,-453.762 1424.2306,-451.0985 1462.8191,-448.5304"/>
<polygon fill="#9a32cd" stroke="#9a32cd" points="1353.7493,-452.2812 1344.0038,-456.4376 1354.2142,-459.2657 1353.7493,-452.2812"/>
<text text-anchor="middle" x="1403.5" y="-456" font-family="Helvetica,sans-Serif" font-size="10.00" fill="#000000"> elements</text>
</g>
<!-- Node48&#45;&gt;Node47 -->
<g id="edge28" class="edge">
<title>Node48&#45;&gt;Node47</title>
<path fill="none" stroke="#9a32cd" stroke-dasharray="5,2" d="M1374.3119,-395C1395.1879,-395 1418.9781,-395 1442.9675,-395"/>
<polygon fill="#9a32cd" stroke="#9a32cd" points="1374.3096,-391.5001 1364.3096,-395 1374.3096,-398.5001 1374.3096,-391.5001"/>
<text text-anchor="middle" x="1403.5" y="-398" font-family="Helvetica,sans-Serif" font-size="10.00" fill="#000000"> elements</text>
</g>
<!-- Node44 -->
<g id="node19" class="node">
<title>Node44</title>
<g id="a_node19"><a xlink:href="classaworx_1_1lib_1_1boxing_1_1Box.html" target="_top" xlink:title="Box">
<polygon fill="#ffffff" stroke="#ff0000" points="504,-477.5 504,-496.5 538,-496.5 538,-477.5 504,-477.5"/>
<text text-anchor="middle" x="521" y="-484.5" font-family="Helvetica,sans-Serif" font-size="10.00" fill="#000000">Box</text>
</a>
</g>
</g>
<!-- Node44&#45;&gt;Node43 -->
<g id="edge25" class="edge">
<title>Node44&#45;&gt;Node43</title>
<path fill="none" stroke="#9a32cd" stroke-dasharray="5,2" d="M547.7295,-475.9311C561.3426,-470.7892 578.2966,-465.1317 594,-462 698.4,-441.1798 824.7705,-439.5282 886.0737,-440.1817"/>
<polygon fill="#9a32cd" stroke="#9a32cd" points="546.0885,-472.8145 538.0467,-479.7123 548.6348,-479.3349 546.0885,-472.8145"/>
<text text-anchor="middle" x="674" y="-465" font-family="Helvetica,sans-Serif" font-size="10.00" fill="#000000"> elements</text>
</g>
<!-- Node44&#45;&gt;Node42 -->
<g id="edge24" class="edge">
<title>Node44&#45;&gt;Node42</title>
<path fill="none" stroke="#9a32cd" stroke-dasharray="5,2" d="M548.4329,-493.4993C562.0495,-496.4077 578.7988,-499.5124 594,-501 617.4447,-503.2943 965.1768,-502.351 1074,-502 1142.89,-501.7778 1162.3247,-518.3287 1229,-501 1253.3424,-494.6735 1278.2818,-478.8919 1292.8087,-468.5774"/>
<polygon fill="#9a32cd" stroke="#9a32cd" points="548.7947,-489.9944 538.2738,-491.2434 547.2773,-496.828 548.7947,-489.9944"/>
<text text-anchor="middle" x="923" y="-516" font-family="Helvetica,sans-Serif" font-size="10.00" fill="#000000"> ResultType</text>
<text text-anchor="middle" x="923" y="-505" font-family="Helvetica,sans-Serif" font-size="10.00" fill="#000000">Callback</text>
</g>
<!-- Node44&#45;&gt;Node48 -->
<g id="edge26" class="edge">
<title>Node44&#45;&gt;Node48</title>
<path fill="none" stroke="#9a32cd" stroke-dasharray="5,2" d="M548.3834,-487.078C675.0334,-487.3456 1199.1202,-487.3946 1229,-470 1242.438,-462.1771 1236.6567,-451.6101 1247,-440 1259.7,-425.7446 1277.4339,-412.8392 1290.0397,-404.5414"/>
<polygon fill="#9a32cd" stroke="#9a32cd" points="548.0349,-483.5773 538.0267,-487.0537 548.0184,-490.5773 548.0349,-483.5773"/>
<text text-anchor="middle" x="923" y="-489" font-family="Helvetica,sans-Serif" font-size="10.00" fill="#000000"> Result</text>
</g>
</g>
</svg>
