<?xml version="1.0" encoding="UTF-8" standalone="no"?>
<!DOCTYPE svg PUBLIC "-//W3C//DTD SVG 1.1//EN"
 "http://www.w3.org/Graphics/SVG/1.1/DTD/svg11.dtd">
<!-- Generated by graphviz version 2.40.1 (20161225.0304)
 -->
<!-- Title: ASTBinaryOp Pages: 1 -->
<svg width="180pt" height="106pt"
 viewBox="0.00 0.00 179.50 106.00" xmlns="http://www.w3.org/2000/svg" xmlns:xlink="http://www.w3.org/1999/xlink">
<g id="graph0" class="graph" transform="scale(1 1) rotate(0) translate(4 102)">
<title>ASTBinaryOp</title>
<polygon fill="#ffffff" stroke="transparent" points="-4,4 -4,-102 175.5,-102 175.5,4 -4,4"/>
<!-- Node2 -->
<g id="node1" class="node">
<title>Node2</title>
<polygon fill="#bfbfbf" stroke="#000000" points="82,-.5 82,-19.5 159,-19.5 159,-.5 82,-.5"/>
<text text-anchor="middle" x="120.5" y="-7.5" font-family="Helvetica,sans-Serif" font-size="10.00" fill="#000000">ASTBinaryOp</text>
</g>
<!-- Node4 -->
<g id="node2" class="node">
<title>Node4</title>
<g id="a_node2"><a xlink:href="classaworx_1_1lib_1_1strings_1_1StringBase.html" target="_top" xlink:title="StringBase\&lt;character\&gt;">
<polygon fill="#ffffff" stroke="#000000" points="0,-78.5 0,-97.5 117,-97.5 117,-78.5 0,-78.5"/>
<text text-anchor="middle" x="58.5" y="-85.5" font-family="Helvetica,sans-Serif" font-size="10.00" fill="#000000">StringBase&lt;character&gt;</text>
</a>
</g>
</g>
<!-- Node4&#45;&gt;Node2 -->
<g id="edge3" class="edge">
<title>Node4&#45;&gt;Node2</title>
<path fill="none" stroke="#9a32cd" stroke-dasharray="5,2" d="M65.0663,-68.9712C69.0915,-59.0599 74.9338,-47.1368 82.5,-38 88.4584,-30.8048 96.6456,-24.4653 103.895,-19.6463"/>
<polygon fill="#9a32cd" stroke="#9a32cd" points="61.7756,-67.7783 61.5332,-78.3704 68.328,-70.2413 61.7756,-67.7783"/>
<text text-anchor="middle" x="103" y="-46.5" font-family="Helvetica,sans-Serif" font-size="10.00" fill="#000000"> Operator</text>
</g>
<!-- Node3 -->
<g id="node3" class="node">
<title>Node3</title>
<g id="a_node3"><a xlink:href="structaworx_1_1lib_1_1expressions_1_1detail_1_1AST.html" target="_top" xlink:title="AST">
<polygon fill="#ffffff" stroke="#000000" points="135.5,-78.5 135.5,-97.5 171.5,-97.5 171.5,-78.5 135.5,-78.5"/>
<text text-anchor="middle" x="153.5" y="-85.5" font-family="Helvetica,sans-Serif" font-size="10.00" fill="#000000">AST</text>
</a>
</g>
</g>
<!-- Node3&#45;&gt;Node2 -->
<g id="edge1" class="edge">
<title>Node3&#45;&gt;Node2</title>
<path fill="none" stroke="#191970" d="M140.0337,-69.9623C137.9946,-66.7473 136.056,-63.352 134.5,-60 128.2753,-46.5907 124.2804,-29.842 122.213,-19.5358"/>
<polygon fill="#191970" stroke="#191970" points="137.2604,-72.1063 145.8129,-78.3597 143.0268,-68.1378 137.2604,-72.1063"/>
</g>
<!-- Node3&#45;&gt;Node2 -->
<g id="edge2" class="edge">
<title>Node3&#45;&gt;Node2</title>
<path fill="none" stroke="#9a32cd" stroke-dasharray="5,2" d="M145.5402,-69.186C138.9288,-53.5589 129.7917,-31.9623 124.5795,-19.6426"/>
<polygon fill="#9a32cd" stroke="#9a32cd" points="142.3337,-70.5897 149.4536,-78.4357 148.7805,-67.8622 142.3337,-70.5897"/>
<text text-anchor="middle" x="151" y="-52" font-family="Helvetica,sans-Serif" font-size="10.00" fill="#000000"> Lhs</text>
<text text-anchor="middle" x="151" y="-41" font-family="Helvetica,sans-Serif" font-size="10.00" fill="#000000">Rhs</text>
</g>
</g>
</svg>
