<?xml version="1.0" encoding="UTF-8" standalone="no"?>
<!DOCTYPE svg PUBLIC "-//W3C//DTD SVG 1.1//EN"
 "http://www.w3.org/Graphics/SVG/1.1/DTD/svg11.dtd">
<!-- Generated by graphviz version 2.40.1 (20161225.0304)
 -->
<!-- Title: Calculus Pages: 1 -->
<svg width="292pt" height="140pt"
 viewBox="0.00 0.00 291.50 140.00" xmlns="http://www.w3.org/2000/svg" xmlns:xlink="http://www.w3.org/1999/xlink">
<g id="graph0" class="graph" transform="scale(1 1) rotate(0) translate(4 136)">
<title>Calculus</title>
<polygon fill="#ffffff" stroke="transparent" points="-4,4 -4,-136 287.5,-136 287.5,4 -4,4"/>
<!-- Node0 -->
<g id="node1" class="node">
<title>Node0</title>
<polygon fill="#bfbfbf" stroke="#000000" points="133.5,-56.5 133.5,-75.5 188.5,-75.5 188.5,-56.5 133.5,-56.5"/>
<text text-anchor="middle" x="161" y="-63.5" font-family="Helvetica,sans-Serif" font-size="10.00" fill="#000000">Calculus</text>
</g>
<!-- Node2 -->
<g id="node2" class="node">
<title>Node2</title>
<g id="a_node2"><a xlink:href="structaworx_1_1lib_1_1expressions_1_1plugins_1_1Arithmetics.html" target="_top" xlink:title="Arithmetics">
<polygon fill="#ffffff" stroke="#000000" points="0,-.5 0,-19.5 66,-19.5 66,-.5 0,-.5"/>
<text text-anchor="middle" x="33" y="-7.5" font-family="Helvetica,sans-Serif" font-size="10.00" fill="#000000">Arithmetics</text>
</a>
</g>
</g>
<!-- Node0&#45;&gt;Node2 -->
<g id="edge1" class="edge">
<title>Node0&#45;&gt;Node2</title>
<path fill="none" stroke="#191970" d="M129.5652,-52.2473C106.3191,-42.0771 75.2589,-28.4883 54.7169,-19.5011"/>
<polygon fill="#191970" stroke="#191970" points="128.4315,-55.5716 138.996,-56.3733 131.2373,-49.1585 128.4315,-55.5716"/>
</g>
<!-- Node3 -->
<g id="node3" class="node">
<title>Node3</title>
<g id="a_node3"><a xlink:href="structaworx_1_1lib_1_1expressions_1_1plugins_1_1DateAndTime.html" target="_top" xlink:title="DateAndTime">
<polygon fill="#ffffff" stroke="#000000" points="84.5,-.5 84.5,-19.5 161.5,-19.5 161.5,-.5 84.5,-.5"/>
<text text-anchor="middle" x="123" y="-7.5" font-family="Helvetica,sans-Serif" font-size="10.00" fill="#000000">DateAndTime</text>
</a>
</g>
</g>
<!-- Node0&#45;&gt;Node3 -->
<g id="edge2" class="edge">
<title>Node0&#45;&gt;Node3</title>
<path fill="none" stroke="#191970" d="M148.7321,-47.9209C142.3512,-38.5176 134.8069,-27.3997 129.5432,-19.6427"/>
<polygon fill="#191970" stroke="#191970" points="145.8697,-49.936 154.3809,-56.2455 151.662,-46.0055 145.8697,-49.936"/>
</g>
<!-- Node4 -->
<g id="node4" class="node">
<title>Node4</title>
<g id="a_node4"><a xlink:href="structaworx_1_1lib_1_1expressions_1_1plugins_1_1Math.html" target="_top" xlink:title="Math">
<polygon fill="#ffffff" stroke="#000000" points="180,-.5 180,-19.5 218,-19.5 218,-.5 180,-.5"/>
<text text-anchor="middle" x="199" y="-7.5" font-family="Helvetica,sans-Serif" font-size="10.00" fill="#000000">Math</text>
</a>
</g>
</g>
<!-- Node0&#45;&gt;Node4 -->
<g id="edge3" class="edge">
<title>Node0&#45;&gt;Node4</title>
<path fill="none" stroke="#191970" d="M173.2679,-47.9209C179.6488,-38.5176 187.1931,-27.3997 192.4568,-19.6427"/>
<polygon fill="#191970" stroke="#191970" points="170.338,-46.0055 167.6191,-56.2455 176.1303,-49.936 170.338,-46.0055"/>
</g>
<!-- Node5 -->
<g id="node5" class="node">
<title>Node5</title>
<g id="a_node5"><a xlink:href="structaworx_1_1lib_1_1expressions_1_1plugins_1_1Strings.html" target="_top" xlink:title="Strings">
<polygon fill="#ffffff" stroke="#000000" points="236.5,-.5 236.5,-19.5 283.5,-19.5 283.5,-.5 236.5,-.5"/>
<text text-anchor="middle" x="260" y="-7.5" font-family="Helvetica,sans-Serif" font-size="10.00" fill="#000000">Strings</text>
</a>
</g>
</g>
<!-- Node0&#45;&gt;Node5 -->
<g id="edge4" class="edge">
<title>Node0&#45;&gt;Node5</title>
<path fill="none" stroke="#191970" d="M187.4357,-51.0465C205.0508,-41.0824 227.6847,-28.2794 242.9531,-19.6427"/>
<polygon fill="#191970" stroke="#191970" points="185.2253,-48.2756 178.2445,-56.2455 188.6717,-54.3684 185.2253,-48.2756"/>
</g>
<!-- Node1 -->
<g id="node6" class="node">
<title>Node1</title>
<g id="a_node6"><a xlink:href="structaworx_1_1lib_1_1expressions_1_1CompilerPlugin.html" target="_top" xlink:title="CompilerPlugin">
<polygon fill="#ffffff" stroke="#000000" points="119.5,-112.5 119.5,-131.5 202.5,-131.5 202.5,-112.5 119.5,-112.5"/>
<text text-anchor="middle" x="161" y="-119.5" font-family="Helvetica,sans-Serif" font-size="10.00" fill="#000000">CompilerPlugin</text>
</a>
</g>
</g>
<!-- Node1&#45;&gt;Node0 -->
<g id="edge5" class="edge">
<title>Node1&#45;&gt;Node0</title>
<path fill="none" stroke="#191970" d="M161,-102.1575C161,-93.155 161,-82.9199 161,-75.6427"/>
<polygon fill="#191970" stroke="#191970" points="157.5001,-102.2455 161,-112.2455 164.5001,-102.2456 157.5001,-102.2455"/>
</g>
</g>
</svg>
