<?xml version="1.0" encoding="UTF-8" standalone="no"?>
<!DOCTYPE svg PUBLIC "-//W3C//DTD SVG 1.1//EN"
 "http://www.w3.org/Graphics/SVG/1.1/DTD/svg11.dtd">
<!-- Generated by graphviz version 2.40.1 (20161225.0304)
 -->
<!-- Title: StringTreeBlockAllocator&lt;T, TBlockSize&gt; Pages: 1 -->
<svg width="205pt" height="240pt"
 viewBox="0.00 0.00 205.00 240.00" xmlns="http://www.w3.org/2000/svg" xmlns:xlink="http://www.w3.org/1999/xlink">
<g id="graph0" class="graph" transform="scale(1 1) rotate(0) translate(4 236)">
<title>StringTreeBlockAllocator&lt;T, TBlockSize&gt;</title>
<polygon fill="#ffffff" stroke="transparent" points="-4,4 -4,-236 201,-236 201,4 -4,4"/>
<!-- Node1 -->
<g id="node1" class="node">
<title>Node1</title>
<polygon fill="#bfbfbf" stroke="#000000" points="0,-.5 0,-19.5 197,-19.5 197,-.5 0,-.5"/>
<text text-anchor="middle" x="98.5" y="-7.5" font-family="Helvetica,sans-Serif" font-size="10.00" fill="#000000">StringTreeBlockAllocator&lt;T, TBlockSize&gt;</text>
</g>
<!-- Node3 -->
<g id="node2" class="node">
<title>Node3</title>
<polygon fill="#ffffff" stroke="#bfbfbf" points="22.5,-145.5 22.5,-164.5 174.5,-164.5 174.5,-145.5 22.5,-145.5"/>
<text text-anchor="middle" x="98.5" y="-152.5" font-family="Helvetica,sans-Serif" font-size="10.00" fill="#000000">vector&lt;MemoryBlocks::Block&gt;</text>
</g>
<!-- Node2 -->
<g id="node3" class="node">
<title>Node2</title>
<g id="a_node3"><a xlink:href="classaworx_1_1lib_1_1util_1_1MemoryBlocks.html" target="_top" xlink:title="MemoryBlocks">
<polygon fill="#ffffff" stroke="#000000" points="57.5,-67.5 57.5,-86.5 139.5,-86.5 139.5,-67.5 57.5,-67.5"/>
<text text-anchor="middle" x="98.5" y="-74.5" font-family="Helvetica,sans-Serif" font-size="10.00" fill="#000000">MemoryBlocks</text>
</a>
</g>
</g>
<!-- Node3&#45;&gt;Node2 -->
<g id="edge2" class="edge">
<title>Node3&#45;&gt;Node2</title>
<path fill="none" stroke="#9a32cd" stroke-dasharray="5,2" d="M98.5,-135.2866C98.5,-119.7395 98.5,-98.7276 98.5,-86.6426"/>
<polygon fill="#9a32cd" stroke="#9a32cd" points="95.0001,-135.4356 98.5,-145.4357 102.0001,-135.4357 95.0001,-135.4356"/>
<text text-anchor="middle" x="118" y="-119" font-family="Helvetica,sans-Serif" font-size="10.00" fill="#000000"> blocks</text>
<text text-anchor="middle" x="118" y="-108" font-family="Helvetica,sans-Serif" font-size="10.00" fill="#000000">actBlock</text>
</g>
<!-- Node2&#45;&gt;Node1 -->
<g id="edge1" class="edge">
<title>Node2&#45;&gt;Node1</title>
<path fill="none" stroke="#9a32cd" stroke-dasharray="5,2" d="M98.5,-57.1079C98.5,-44.714 98.5,-29.3263 98.5,-19.5817"/>
<polygon fill="#9a32cd" stroke="#9a32cd" points="95.0001,-57.4005 98.5,-67.4005 102.0001,-57.4006 95.0001,-57.4005"/>
<text text-anchor="middle" x="133" y="-41" font-family="Helvetica,sans-Serif" font-size="10.00" fill="#000000"> memoryBlocks</text>
</g>
<!-- Node4 -->
<g id="node4" class="node">
<title>Node4</title>
<g id="a_node4"><a xlink:href="structaworx_1_1lib_1_1util_1_1MemoryBlocks_1_1Block.html" target="_top" xlink:title="Block">
<polygon fill="#ffffff" stroke="#000000" points="78,-212.5 78,-231.5 119,-231.5 119,-212.5 78,-212.5"/>
<text text-anchor="middle" x="98.5" y="-219.5" font-family="Helvetica,sans-Serif" font-size="10.00" fill="#000000">Block</text>
</a>
</g>
</g>
<!-- Node4&#45;&gt;Node3 -->
<g id="edge3" class="edge">
<title>Node4&#45;&gt;Node3</title>
<path fill="none" stroke="#9a32cd" stroke-dasharray="5,2" d="M98.5,-202.1079C98.5,-189.714 98.5,-174.3263 98.5,-164.5817"/>
<polygon fill="#9a32cd" stroke="#9a32cd" points="95.0001,-202.4005 98.5,-212.4005 102.0001,-202.4006 95.0001,-202.4005"/>
<text text-anchor="middle" x="120" y="-186" font-family="Helvetica,sans-Serif" font-size="10.00" fill="#000000"> elements</text>
</g>
</g>
</svg>
