<?xml version="1.0" encoding="UTF-8" standalone="no"?>
<!DOCTYPE svg PUBLIC "-//W3C//DTD SVG 1.1//EN"
 "http://www.w3.org/Graphics/SVG/1.1/DTD/svg11.dtd">
<!-- Generated by graphviz version 2.40.1 (20161225.0304)
 -->
<!-- Title: AST Pages: 1 -->
<svg width="545pt" height="84pt"
 viewBox="0.00 0.00 545.00 84.00" xmlns="http://www.w3.org/2000/svg" xmlns:xlink="http://www.w3.org/1999/xlink">
<g id="graph0" class="graph" transform="scale(1 1) rotate(0) translate(4 80)">
<title>AST</title>
<polygon fill="#ffffff" stroke="transparent" points="-4,4 -4,-80 541,-80 541,4 -4,4"/>
<!-- Node0 -->
<g id="node1" class="node">
<title>Node0</title>
<polygon fill="#bfbfbf" stroke="#000000" points="262.5,-56.5 262.5,-75.5 298.5,-75.5 298.5,-56.5 262.5,-56.5"/>
<text text-anchor="middle" x="280.5" y="-63.5" font-family="Helvetica,sans-Serif" font-size="10.00" fill="#000000">AST</text>
</g>
<!-- Node1 -->
<g id="node2" class="node">
<title>Node1</title>
<g id="a_node2"><a xlink:href="structaworx_1_1lib_1_1expressions_1_1detail_1_1ASTBinaryOp.html" target="_top" xlink:title="ASTBinaryOp">
<polygon fill="#ffffff" stroke="#000000" points="0,-.5 0,-19.5 77,-19.5 77,-.5 0,-.5"/>
<text text-anchor="middle" x="38.5" y="-7.5" font-family="Helvetica,sans-Serif" font-size="10.00" fill="#000000">ASTBinaryOp</text>
</a>
</g>
</g>
<!-- Node0&#45;&gt;Node1 -->
<g id="edge1" class="edge">
<title>Node0&#45;&gt;Node1</title>
<path fill="none" stroke="#191970" d="M252.4736,-59.5145C209.2549,-49.5135 126.2249,-30.3 77.2724,-18.9721"/>
<polygon fill="#191970" stroke="#191970" points="251.779,-62.9462 262.3107,-61.7909 253.3572,-56.1265 251.779,-62.9462"/>
</g>
<!-- Node2 -->
<g id="node3" class="node">
<title>Node2</title>
<g id="a_node3"><a xlink:href="structaworx_1_1lib_1_1expressions_1_1detail_1_1ASTConditional.html" target="_top" xlink:title="ASTConditional">
<polygon fill="#ffffff" stroke="#000000" points="95.5,-.5 95.5,-19.5 179.5,-19.5 179.5,-.5 95.5,-.5"/>
<text text-anchor="middle" x="137.5" y="-7.5" font-family="Helvetica,sans-Serif" font-size="10.00" fill="#000000">ASTConditional</text>
</a>
</g>
</g>
<!-- Node0&#45;&gt;Node2 -->
<g id="edge2" class="edge">
<title>Node0&#45;&gt;Node2</title>
<path fill="none" stroke="#191970" d="M252.9783,-55.2223C226.6094,-44.896 187.1924,-29.46 161.9138,-19.5606"/>
<polygon fill="#191970" stroke="#191970" points="251.8012,-58.5201 262.389,-58.9076 254.3538,-52.002 251.8012,-58.5201"/>
</g>
<!-- Node3 -->
<g id="node4" class="node">
<title>Node3</title>
<g id="a_node4"><a xlink:href="structaworx_1_1lib_1_1expressions_1_1detail_1_1ASTFunction.html" target="_top" xlink:title="ASTFunction">
<polygon fill="#ffffff" stroke="#000000" points="197.5,-.5 197.5,-19.5 271.5,-19.5 271.5,-.5 197.5,-.5"/>
<text text-anchor="middle" x="234.5" y="-7.5" font-family="Helvetica,sans-Serif" font-size="10.00" fill="#000000">ASTFunction</text>
</a>
</g>
</g>
<!-- Node0&#45;&gt;Node3 -->
<g id="edge3" class="edge">
<title>Node0&#45;&gt;Node3</title>
<path fill="none" stroke="#191970" d="M266.1253,-48.5004C258.3029,-38.9775 248.924,-27.5596 242.4208,-19.6427"/>
<polygon fill="#191970" stroke="#191970" points="263.4354,-50.7399 272.4874,-56.2455 268.8445,-46.2967 263.4354,-50.7399"/>
</g>
<!-- Node4 -->
<g id="node5" class="node">
<title>Node4</title>
<g id="a_node5"><a xlink:href="structaworx_1_1lib_1_1expressions_1_1detail_1_1ASTIdentifier.html" target="_top" xlink:title="ASTIdentifier">
<polygon fill="#ffffff" stroke="#000000" points="289.5,-.5 289.5,-19.5 363.5,-19.5 363.5,-.5 289.5,-.5"/>
<text text-anchor="middle" x="326.5" y="-7.5" font-family="Helvetica,sans-Serif" font-size="10.00" fill="#000000">ASTIdentifier</text>
</a>
</g>
</g>
<!-- Node0&#45;&gt;Node4 -->
<g id="edge4" class="edge">
<title>Node0&#45;&gt;Node4</title>
<path fill="none" stroke="#191970" d="M294.8747,-48.5004C302.6971,-38.9775 312.076,-27.5596 318.5792,-19.6427"/>
<polygon fill="#191970" stroke="#191970" points="292.1555,-46.2967 288.5126,-56.2455 297.5646,-50.7399 292.1555,-46.2967"/>
</g>
<!-- Node5 -->
<g id="node6" class="node">
<title>Node5</title>
<g id="a_node6"><a xlink:href="structaworx_1_1lib_1_1expressions_1_1detail_1_1ASTLiteral.html" target="_top" xlink:title="ASTLiteral">
<polygon fill="#ffffff" stroke="#000000" points="381.5,-.5 381.5,-19.5 443.5,-19.5 443.5,-.5 381.5,-.5"/>
<text text-anchor="middle" x="412.5" y="-7.5" font-family="Helvetica,sans-Serif" font-size="10.00" fill="#000000">ASTLiteral</text>
</a>
</g>
</g>
<!-- Node0&#45;&gt;Node5 -->
<g id="edge5" class="edge">
<title>Node0&#45;&gt;Node5</title>
<path fill="none" stroke="#191970" d="M307.9245,-54.3654C332.1565,-44.0851 367.0781,-29.2699 389.7802,-19.6387"/>
<polygon fill="#191970" stroke="#191970" points="306.4161,-51.2033 298.5773,-58.3309 309.15,-57.6473 306.4161,-51.2033"/>
</g>
<!-- Node6 -->
<g id="node7" class="node">
<title>Node6</title>
<g id="a_node7"><a xlink:href="structaworx_1_1lib_1_1expressions_1_1detail_1_1ASTUnaryOp.html" target="_top" xlink:title="ASTUnaryOp">
<polygon fill="#ffffff" stroke="#000000" points="462,-.5 462,-19.5 537,-19.5 537,-.5 462,-.5"/>
<text text-anchor="middle" x="499.5" y="-7.5" font-family="Helvetica,sans-Serif" font-size="10.00" fill="#000000">ASTUnaryOp</text>
</a>
</g>
</g>
<!-- Node0&#45;&gt;Node6 -->
<g id="edge6" class="edge">
<title>Node0&#45;&gt;Node6</title>
<path fill="none" stroke="#191970" d="M308.7273,-58.7821C347.9162,-48.7611 418.8778,-30.6157 462.3351,-19.5034"/>
<polygon fill="#191970" stroke="#191970" points="307.6163,-55.4535 298.7951,-61.3218 309.3505,-62.2352 307.6163,-55.4535"/>
</g>
</g>
</svg>
