<?xml version="1.0" encoding="UTF-8" standalone="no"?>
<!DOCTYPE svg PUBLIC "-//W3C//DTD SVG 1.1//EN"
 "http://www.w3.org/Graphics/SVG/1.1/DTD/svg11.dtd">
<!-- Generated by graphviz version 2.40.1 (20161225.0304)
 -->
<!-- Title: Calculus::FunctionEntry Pages: 1 -->
<svg width="320pt" height="231pt"
 viewBox="0.00 0.00 320.00 231.00" xmlns="http://www.w3.org/2000/svg" xmlns:xlink="http://www.w3.org/1999/xlink">
<g id="graph0" class="graph" transform="scale(1 1) rotate(0) translate(4 227)">
<title>Calculus::FunctionEntry</title>
<polygon fill="#ffffff" stroke="transparent" points="-4,4 -4,-227 316,-227 316,4 -4,4"/>
<!-- Node1 -->
<g id="node1" class="node">
<title>Node1</title>
<polygon fill="#bfbfbf" stroke="#000000" points="71.5,-.5 71.5,-19.5 193.5,-19.5 193.5,-.5 71.5,-.5"/>
<text text-anchor="middle" x="132.5" y="-7.5" font-family="Helvetica,sans-Serif" font-size="10.00" fill="#000000">Calculus::FunctionEntry</text>
</g>
<!-- Node2 -->
<g id="node2" class="node">
<title>Node2</title>
<polygon fill="#ffffff" stroke="#bfbfbf" points="96,-68.5 96,-87.5 169,-87.5 169,-68.5 96,-68.5"/>
<text text-anchor="middle" x="132.5" y="-75.5" font-family="Helvetica,sans-Serif" font-size="10.00" fill="#000000">vector&lt;Box&gt;</text>
</g>
<!-- Node2&#45;&gt;Node1 -->
<g id="edge1" class="edge">
<title>Node2&#45;&gt;Node1</title>
<path fill="none" stroke="#9a32cd" stroke-dasharray="5,2" d="M132.5,-58.1951C132.5,-45.5514 132.5,-29.7157 132.5,-19.7247"/>
<polygon fill="#9a32cd" stroke="#9a32cd" points="129.0001,-58.2572 132.5,-68.2573 136.0001,-58.2573 129.0001,-58.2572"/>
<text text-anchor="middle" x="155" y="-41" font-family="Helvetica,sans-Serif" font-size="10.00" fill="#000000"> ArgTypes</text>
</g>
<!-- Node7 -->
<g id="node3" class="node">
<title>Node7</title>
<g id="a_node3"><a xlink:href="classaworx_1_1lib_1_1strings_1_1StringBase.html" target="_top" xlink:title="StringBase\&lt;character\&gt;">
<polygon fill="#ffffff" stroke="#000000" points="191,-136.5 191,-155.5 308,-155.5 308,-136.5 191,-136.5"/>
<text text-anchor="middle" x="249.5" y="-143.5" font-family="Helvetica,sans-Serif" font-size="10.00" fill="#000000">StringBase&lt;character&gt;</text>
</a>
</g>
</g>
<!-- Node6 -->
<g id="node7" class="node">
<title>Node6</title>
<g id="a_node7"><a xlink:href="structaworx_1_1lib_1_1expressions_1_1FunctionNameDescriptor.html" target="_top" xlink:title="FunctionNameDescriptor">
<polygon fill="#ffffff" stroke="#000000" points="187,-68.5 187,-87.5 312,-87.5 312,-68.5 187,-68.5"/>
<text text-anchor="middle" x="249.5" y="-75.5" font-family="Helvetica,sans-Serif" font-size="10.00" fill="#000000">FunctionNameDescriptor</text>
</a>
</g>
</g>
<!-- Node7&#45;&gt;Node6 -->
<g id="edge7" class="edge">
<title>Node7&#45;&gt;Node6</title>
<path fill="none" stroke="#9a32cd" stroke-dasharray="5,2" d="M249.5,-126.1951C249.5,-113.5514 249.5,-97.7157 249.5,-87.7247"/>
<polygon fill="#9a32cd" stroke="#9a32cd" points="246.0001,-126.2572 249.5,-136.2573 253.0001,-126.2573 246.0001,-126.2572"/>
<text text-anchor="middle" x="264.5" y="-110" font-family="Helvetica,sans-Serif" font-size="10.00" fill="#000000"> Name</text>
</g>
<!-- Node3 -->
<g id="node4" class="node">
<title>Node3</title>
<g id="a_node4"><a xlink:href="classaworx_1_1lib_1_1boxing_1_1Box.html" target="_top" xlink:title="Box">
<polygon fill="#ffffff" stroke="#000000" points="43.5,-136.5 43.5,-155.5 77.5,-155.5 77.5,-136.5 43.5,-136.5"/>
<text text-anchor="middle" x="60.5" y="-143.5" font-family="Helvetica,sans-Serif" font-size="10.00" fill="#000000">Box</text>
</a>
</g>
</g>
<!-- Node3&#45;&gt;Node1 -->
<g id="edge2" class="edge">
<title>Node3&#45;&gt;Node1</title>
<path fill="none" stroke="#9a32cd" stroke-dasharray="5,2" d="M46.0126,-127.9751C34.5649,-111.3878 22.2372,-86.4808 33.5,-67 47.4966,-42.7907 76.1077,-27.9579 98.9885,-19.517"/>
<polygon fill="#9a32cd" stroke="#9a32cd" points="43.368,-130.2855 52.1265,-136.247 48.9973,-126.1248 43.368,-130.2855"/>
<text text-anchor="middle" x="60" y="-81" font-family="Helvetica,sans-Serif" font-size="10.00" fill="#000000"> ResultType</text>
<text text-anchor="middle" x="60" y="-70" font-family="Helvetica,sans-Serif" font-size="10.00" fill="#000000">Callback</text>
</g>
<!-- Node3&#45;&gt;Node2 -->
<g id="edge3" class="edge">
<title>Node3&#45;&gt;Node2</title>
<path fill="none" stroke="#9a32cd" stroke-dasharray="5,2" d="M78.2958,-129.1929C92.107,-116.1489 110.7697,-98.523 122.2033,-87.7247"/>
<polygon fill="#9a32cd" stroke="#9a32cd" points="75.6828,-126.8464 70.8158,-136.2573 80.4892,-131.9355 75.6828,-126.8464"/>
<text text-anchor="middle" x="123" y="-110" font-family="Helvetica,sans-Serif" font-size="10.00" fill="#000000"> elements</text>
</g>
<!-- Node4 -->
<g id="node5" class="node">
<title>Node4</title>
<g id="a_node5"><a xlink:href="structaworx_1_1lib_1_1boxing_1_1BoxData.html" target="_top" xlink:title="BoxData">
<polygon fill="#ffffff" stroke="#000000" points="0,-203.5 0,-222.5 55,-222.5 55,-203.5 0,-203.5"/>
<text text-anchor="middle" x="27.5" y="-210.5" font-family="Helvetica,sans-Serif" font-size="10.00" fill="#000000">BoxData</text>
</a>
</g>
</g>
<!-- Node4&#45;&gt;Node3 -->
<g id="edge4" class="edge">
<title>Node4&#45;&gt;Node3</title>
<path fill="none" stroke="#9a32cd" stroke-dasharray="5,2" d="M36.7413,-194.2374C42.9354,-181.6614 50.8341,-165.6246 55.7807,-155.5817"/>
<polygon fill="#9a32cd" stroke="#9a32cd" points="33.5068,-192.8831 32.2281,-203.4005 39.7865,-195.9761 33.5068,-192.8831"/>
<text text-anchor="middle" x="57.5" y="-177" font-family="Helvetica,sans-Serif" font-size="10.00" fill="#000000"> data</text>
</g>
<!-- Node5 -->
<g id="node6" class="node">
<title>Node5</title>
<g id="a_node6"><a xlink:href="classaworx_1_1lib_1_1boxing_1_1Boxer.html" target="_top" xlink:title="Boxer">
<polygon fill="#ffffff" stroke="#000000" points="73.5,-203.5 73.5,-222.5 115.5,-222.5 115.5,-203.5 73.5,-203.5"/>
<text text-anchor="middle" x="94.5" y="-210.5" font-family="Helvetica,sans-Serif" font-size="10.00" fill="#000000">Boxer</text>
</a>
</g>
</g>
<!-- Node5&#45;&gt;Node3 -->
<g id="edge5" class="edge">
<title>Node5&#45;&gt;Node3</title>
<path fill="none" stroke="#9a32cd" stroke-dasharray="5,2" d="M84.9787,-194.2374C78.5968,-181.6614 70.4588,-165.6246 65.3623,-155.5817"/>
<polygon fill="#9a32cd" stroke="#9a32cd" points="81.9822,-196.0669 89.6286,-203.4005 88.2244,-192.8992 81.9822,-196.0669"/>
<text text-anchor="middle" x="94.5" y="-177" font-family="Helvetica,sans-Serif" font-size="10.00" fill="#000000"> boxer</text>
</g>
<!-- Node6&#45;&gt;Node1 -->
<g id="edge6" class="edge">
<title>Node6&#45;&gt;Node1</title>
<path fill="none" stroke="#9a32cd" stroke-dasharray="5,2" d="M224.5802,-63.2402C211.7344,-55.6575 195.8021,-46.2924 181.5,-38 170.82,-31.8077 158.7829,-24.928 149.3119,-19.5376"/>
<polygon fill="#9a32cd" stroke="#9a32cd" points="222.9312,-66.3312 233.321,-68.4058 226.4927,-60.3049 222.9312,-66.3312"/>
<text text-anchor="middle" x="225" y="-41" font-family="Helvetica,sans-Serif" font-size="10.00" fill="#000000"> Descriptor</text>
</g>
</g>
</svg>
