<?xml version="1.0" encoding="UTF-8" standalone="no"?>
<!DOCTYPE svg PUBLIC "-//W3C//DTD SVG 1.1//EN"
 "http://www.w3.org/Graphics/SVG/1.1/DTD/svg11.dtd">
<!-- Generated by graphviz version 2.40.1 (20161225.0304)
 -->
<!-- Title: Command Pages: 1 -->
<svg width="1141pt" height="500pt"
 viewBox="0.00 0.00 1141.00 500.00" xmlns="http://www.w3.org/2000/svg" xmlns:xlink="http://www.w3.org/1999/xlink">
<g id="graph0" class="graph" transform="scale(1 1) rotate(0) translate(4 496)">
<title>Command</title>
<polygon fill="#ffffff" stroke="transparent" points="-4,4 -4,-496 1137,-496 1137,4 -4,4"/>
<!-- Node2 -->
<g id="node1" class="node">
<title>Node2</title>
<polygon fill="#bfbfbf" stroke="#000000" points="10,-66.5 10,-85.5 72,-85.5 72,-66.5 10,-66.5"/>
<text text-anchor="middle" x="41" y="-73.5" font-family="Helvetica,sans-Serif" font-size="10.00" fill="#000000">Command</text>
</g>
<!-- Node51 -->
<g id="node7" class="node">
<title>Node51</title>
<polygon fill="#ffffff" stroke="#bfbfbf" points="184,-180.5 184,-199.5 300,-199.5 300,-180.5 184,-180.5"/>
<text text-anchor="middle" x="242" y="-187.5" font-family="Helvetica,sans-Serif" font-size="10.00" fill="#000000">vector&lt;cli::Command&gt;</text>
</g>
<!-- Node2&#45;&gt;Node51 -->
<g id="edge1" class="edge">
<title>Node2&#45;&gt;Node51</title>
<path fill="none" stroke="#9a32cd" stroke-dasharray="5,2" d="M57.3572,-92.9279C79.0456,-114.3668 119.4472,-150.9266 161,-171 168.9337,-174.8326 177.6855,-177.9175 186.4151,-180.3935"/>
<polygon fill="#9a32cd" stroke="#9a32cd" points="59.7776,-90.3981 50.246,-85.7721 54.8124,-95.3324 59.7776,-90.3981"/>
<text text-anchor="middle" x="121.5" y="-164" font-family="Helvetica,sans-Serif" font-size="10.00" fill="#000000"> elements</text>
</g>
<!-- Node5 -->
<g id="node2" class="node">
<title>Node5</title>
<polygon fill="#ffffff" stroke="#bfbfbf" points="182,-104.5 182,-123.5 302,-123.5 302,-104.5 182,-104.5"/>
<text text-anchor="middle" x="242" y="-111.5" font-family="Helvetica,sans-Serif" font-size="10.00" fill="#000000">vector&lt;cli::OptionDecl&gt;</text>
</g>
<!-- Node4 -->
<g id="node14" class="node">
<title>Node4</title>
<g id="a_node14"><a xlink:href="classaworx_1_1lib_1_1cli_1_1CLIApp.html" target="_top" xlink:title="CLIApp">
<polygon fill="#ffffff" stroke="#000000" points="452.5,-214.5 452.5,-233.5 502.5,-233.5 502.5,-214.5 452.5,-214.5"/>
<text text-anchor="middle" x="477.5" y="-221.5" font-family="Helvetica,sans-Serif" font-size="10.00" fill="#000000">CLIApp</text>
</a>
</g>
</g>
<!-- Node5&#45;&gt;Node4 -->
<g id="edge6" class="edge">
<title>Node5&#45;&gt;Node4</title>
<path fill="none" stroke="#9a32cd" stroke-dasharray="5,2" d="M312.3818,-108.1317C351.131,-108.3821 398.2593,-114.7539 433,-139 459.3624,-157.3987 471.2679,-196.3675 475.5311,-214.4331"/>
<polygon fill="#9a32cd" stroke="#9a32cd" points="312.1845,-104.6329 302.2092,-108.2029 312.2335,-111.6328 312.1845,-104.6329"/>
<text text-anchor="middle" x="387" y="-142" font-family="Helvetica,sans-Serif" font-size="10.00" fill="#000000"> OptionDecls</text>
</g>
<!-- Node47 -->
<g id="node3" class="node">
<title>Node47</title>
<polygon fill="#ffffff" stroke="#bfbfbf" points="161,-66.5 161,-85.5 323,-85.5 323,-66.5 161,-66.5"/>
<text text-anchor="middle" x="242" y="-73.5" font-family="Helvetica,sans-Serif" font-size="10.00" fill="#000000">map&lt;Enum, vector&lt;cli::Option&gt;&gt;</text>
</g>
<!-- Node47&#45;&gt;Node4 -->
<g id="edge11" class="edge">
<title>Node47&#45;&gt;Node4</title>
<path fill="none" stroke="#9a32cd" stroke-dasharray="5,2" d="M286.2239,-64.3233C328.3307,-56.0125 391.2973,-51.2408 433,-83 454.6469,-99.4855 470.9588,-185.3634 475.9266,-214.397"/>
<polygon fill="#9a32cd" stroke="#9a32cd" points="285.316,-60.9378 276.2575,-66.4327 286.7655,-67.7861 285.316,-60.9378"/>
<text text-anchor="middle" x="387" y="-97" font-family="Helvetica,sans-Serif" font-size="10.00" fill="#000000"> OptionsOverwritten</text>
<text text-anchor="middle" x="387" y="-86" font-family="Helvetica,sans-Serif" font-size="10.00" fill="#000000">OptionsFound</text>
</g>
<!-- Node16 -->
<g id="node4" class="node">
<title>Node16</title>
<polygon fill="#ffffff" stroke="#bfbfbf" points="187,-294.5 187,-313.5 297,-313.5 297,-294.5 187,-294.5"/>
<text text-anchor="middle" x="242" y="-301.5" font-family="Helvetica,sans-Serif" font-size="10.00" fill="#000000">vector&lt;AStringBase&gt;</text>
</g>
<!-- Node16&#45;&gt;Node4 -->
<g id="edge8" class="edge">
<title>Node16&#45;&gt;Node4</title>
<path fill="none" stroke="#9a32cd" stroke-dasharray="5,2" d="M307.325,-294.9455C353.6878,-287.7831 411.3774,-277.1595 433,-266 448.2931,-258.1072 462.051,-243.3847 470.0925,-233.6371"/>
<polygon fill="#9a32cd" stroke="#9a32cd" points="306.682,-291.5029 297.3211,-296.4651 307.7333,-298.4235 306.682,-291.5029"/>
<text text-anchor="middle" x="387" y="-291" font-family="Helvetica,sans-Serif" font-size="10.00" fill="#000000"> convertedArgStrings</text>
</g>
<!-- Node36 -->
<g id="node5" class="node">
<title>Node36</title>
<polygon fill="#ffffff" stroke="#bfbfbf" points="190,-425.5 190,-444.5 294,-444.5 294,-425.5 190,-425.5"/>
<text text-anchor="middle" x="242" y="-432.5" font-family="Helvetica,sans-Serif" font-size="10.00" fill="#000000">vector&lt;StringBase&gt;</text>
</g>
<!-- Node63 -->
<g id="node13" class="node">
<title>Node63</title>
<g id="a_node13"><a xlink:href="structaworx_1_1lib_1_1cli_1_1Parameter.html" target="_top" xlink:title="Parameter">
<polygon fill="#ffffff" stroke="#000000" points="838.5,-412.5 838.5,-431.5 900.5,-431.5 900.5,-412.5 838.5,-412.5"/>
<text text-anchor="middle" x="869.5" y="-419.5" font-family="Helvetica,sans-Serif" font-size="10.00" fill="#000000">Parameter</text>
</a>
</g>
</g>
<!-- Node36&#45;&gt;Node63 -->
<g id="edge10" class="edge">
<title>Node36&#45;&gt;Node63</title>
<path fill="none" stroke="#9a32cd" stroke-dasharray="5,2" d="M304.5015,-433.7051C436.6173,-430.9681 740.1601,-424.6796 838.2867,-422.6467"/>
<polygon fill="#9a32cd" stroke="#9a32cd" points="304.0779,-430.2131 294.1526,-433.9195 304.223,-437.2116 304.0779,-430.2131"/>
<text text-anchor="middle" x="572" y="-432" font-family="Helvetica,sans-Serif" font-size="10.00" fill="#000000"> Args</text>
</g>
<!-- Node36&#45;&gt;Node4 -->
<g id="edge9" class="edge">
<title>Node36&#45;&gt;Node4</title>
<path fill="none" stroke="#9a32cd" stroke-dasharray="5,2" d="M275.3557,-421.4877C323.8007,-401.3087 410.3296,-363.0023 433,-338 461.4,-306.6788 472.5366,-255.1663 476.0879,-233.7799"/>
<polygon fill="#9a32cd" stroke="#9a32cd" points="273.8224,-418.3343 265.9187,-425.3899 276.4973,-424.803 273.8224,-418.3343"/>
<text text-anchor="middle" x="387" y="-406" font-family="Helvetica,sans-Serif" font-size="10.00" fill="#000000"> OptionArgsIgnored</text>
<text text-anchor="middle" x="387" y="-395" font-family="Helvetica,sans-Serif" font-size="10.00" fill="#000000">ArgStrings</text>
</g>
<!-- Node50 -->
<g id="node6" class="node">
<title>Node50</title>
<polygon fill="#ffffff" stroke="#bfbfbf" points="201,-256.5 201,-275.5 283,-275.5 283,-256.5 201,-256.5"/>
<text text-anchor="middle" x="242" y="-263.5" font-family="Helvetica,sans-Serif" font-size="10.00" fill="#000000">vector&lt;size_t&gt;</text>
</g>
<!-- Node50&#45;&gt;Node4 -->
<g id="edge12" class="edge">
<title>Node50&#45;&gt;Node4</title>
<path fill="none" stroke="#9a32cd" stroke-dasharray="5,2" d="M293.1826,-259.4848C331.8017,-254.2008 385.984,-246.0013 433,-236 439.2612,-234.6681 445.9549,-232.9968 452.1993,-231.3282"/>
<polygon fill="#9a32cd" stroke="#9a32cd" points="292.6599,-256.0235 283.2184,-260.8307 293.597,-262.9605 292.6599,-256.0235"/>
<text text-anchor="middle" x="387" y="-254" font-family="Helvetica,sans-Serif" font-size="10.00" fill="#000000"> ArgsLeft</text>
</g>
<!-- Node51&#45;&gt;Node4 -->
<g id="edge13" class="edge">
<title>Node51&#45;&gt;Node4</title>
<path fill="none" stroke="#9a32cd" stroke-dasharray="5,2" d="M310.2918,-193.0435C346.9776,-195.6164 392.8012,-200.3422 433,-209 439.376,-210.3732 446.1127,-212.353 452.3621,-214.4262"/>
<polygon fill="#9a32cd" stroke="#9a32cd" points="310.4091,-189.5436 300.1992,-192.3734 309.9453,-196.5283 310.4091,-189.5436"/>
<text text-anchor="middle" x="387" y="-212" font-family="Helvetica,sans-Serif" font-size="10.00" fill="#000000"> CommandsParsed</text>
</g>
<!-- Node52 -->
<g id="node8" class="node">
<title>Node52</title>
<polygon fill="#ffffff" stroke="#bfbfbf" points="164.5,-218.5 164.5,-237.5 319.5,-237.5 319.5,-218.5 164.5,-218.5"/>
<text text-anchor="middle" x="242" y="-225.5" font-family="Helvetica,sans-Serif" font-size="10.00" fill="#000000">map&lt;Enum, cli::ExitCodeDecl&gt;</text>
</g>
<!-- Node52&#45;&gt;Node4 -->
<g id="edge14" class="edge">
<title>Node52&#45;&gt;Node4</title>
<path fill="none" stroke="#9a32cd" stroke-dasharray="5,2" d="M329.7095,-225.2352C333.5244,-225.1487 337.301,-225.0696 341,-225 379.8588,-224.269 424.9494,-224.0642 452.3396,-224.0114"/>
<polygon fill="#9a32cd" stroke="#9a32cd" points="329.4612,-221.74 319.5484,-225.48 329.6298,-228.738 329.4612,-221.74"/>
<text text-anchor="middle" x="387" y="-228" font-family="Helvetica,sans-Serif" font-size="10.00" fill="#000000"> ExitCodeDecls</text>
</g>
<!-- Node55 -->
<g id="node9" class="node">
<title>Node55</title>
<polygon fill="#ffffff" stroke="#bfbfbf" points="173.5,-341.5 173.5,-360.5 310.5,-360.5 310.5,-341.5 173.5,-341.5"/>
<text text-anchor="middle" x="242" y="-348.5" font-family="Helvetica,sans-Serif" font-size="10.00" fill="#000000">vector&lt;cli::ParameterDecl&gt;</text>
</g>
<!-- Node55&#45;&gt;Node4 -->
<g id="edge15" class="edge">
<title>Node55&#45;&gt;Node4</title>
<path fill="none" stroke="#9a32cd" stroke-dasharray="5,2" d="M291.7431,-339.0045C347.3679,-325.5167 430.1217,-305.1972 433,-303 456.6484,-284.9473 469.6336,-250.4909 474.8107,-233.6916"/>
<polygon fill="#9a32cd" stroke="#9a32cd" points="290.5928,-335.6818 281.6978,-341.4375 292.2407,-342.4851 290.5928,-335.6818"/>
<text text-anchor="middle" x="387" y="-329" font-family="Helvetica,sans-Serif" font-size="10.00" fill="#000000"> ParameterDecls</text>
</g>
<!-- Node58 -->
<g id="node10" class="node">
<title>Node58</title>
<polygon fill="#ffffff" stroke="#bfbfbf" points="801,-191.5 801,-210.5 938,-210.5 938,-191.5 801,-191.5"/>
<text text-anchor="middle" x="869.5" y="-198.5" font-family="Helvetica,sans-Serif" font-size="10.00" fill="#000000">vector&lt;cli::CommandDecl&gt;</text>
</g>
<!-- Node58&#45;&gt;Node4 -->
<g id="edge18" class="edge">
<title>Node58&#45;&gt;Node4</title>
<path fill="none" stroke="#9a32cd" stroke-dasharray="5,2" d="M790.5682,-205.6312C700.9037,-210.8921 559.6478,-219.1801 502.6177,-222.5263"/>
<polygon fill="#9a32cd" stroke="#9a32cd" points="790.9196,-209.1167 800.6974,-205.0369 790.5096,-202.1287 790.9196,-209.1167"/>
<text text-anchor="middle" x="681" y="-217" font-family="Helvetica,sans-Serif" font-size="10.00" fill="#000000"> CommandDecls</text>
</g>
<!-- Node62 -->
<g id="node11" class="node">
<title>Node62</title>
<polygon fill="#ffffff" stroke="#bfbfbf" points="1017,-6.5 1017,-25.5 1133,-25.5 1133,-6.5 1017,-6.5"/>
<text text-anchor="middle" x="1075" y="-13.5" font-family="Helvetica,sans-Serif" font-size="10.00" fill="#000000">vector&lt;cli::Parameter&gt;</text>
</g>
<!-- Node62&#45;&gt;Node2 -->
<g id="edge21" class="edge">
<title>Node62&#45;&gt;Node2</title>
<path fill="none" stroke="#9a32cd" stroke-dasharray="5,2" d="M1006.4812,-7.9877C966.5748,-3.9918 915.258,0 869.5,0 242,0 242,0 242,0 167.7591,0 87.4827,-45.924 55.4151,-66.3745"/>
<polygon fill="#9a32cd" stroke="#9a32cd" points="1006.3271,-11.4902 1016.632,-9.0287 1007.0413,-4.5267 1006.3271,-11.4902"/>
<text text-anchor="middle" x="572" y="-14" font-family="Helvetica,sans-Serif" font-size="10.00" fill="#000000"> ParametersMandatory</text>
<text text-anchor="middle" x="572" y="-3" font-family="Helvetica,sans-Serif" font-size="10.00" fill="#000000">ParametersOptional</text>
</g>
<!-- Node3 -->
<g id="node12" class="node">
<title>Node3</title>
<g id="a_node12"><a xlink:href="structaworx_1_1lib_1_1cli_1_1ArgumentDef.html" target="_top" xlink:title="ArgumentDef">
<polygon fill="#ffffff" stroke="#000000" points="644,-387.5 644,-406.5 718,-406.5 718,-387.5 644,-387.5"/>
<text text-anchor="middle" x="681" y="-394.5" font-family="Helvetica,sans-Serif" font-size="10.00" fill="#000000">ArgumentDef</text>
</a>
</g>
</g>
<!-- Node3&#45;&gt;Node2 -->
<g id="edge2" class="edge">
<title>Node3&#45;&gt;Node2</title>
<path fill="none" stroke="#191970" d="M633.5869,-400.8869C519.8447,-409.2317 235.4122,-423.9916 161,-370 61.2713,-297.6394 44.2129,-127.5372 41.4891,-85.5134"/>
<polygon fill="#191970" stroke="#191970" points="634.0186,-404.3645 643.7288,-400.1265 633.4951,-397.3841 634.0186,-404.3645"/>
</g>
<!-- Node3&#45;&gt;Node63 -->
<g id="edge3" class="edge">
<title>Node3&#45;&gt;Node63</title>
<path fill="none" stroke="#191970" d="M728.5248,-403.303C762.9038,-407.8626 808.386,-413.8947 838.269,-417.858"/>
<polygon fill="#191970" stroke="#191970" points="728.6149,-399.7844 718.2415,-401.9392 727.6945,-406.7236 728.6149,-399.7844"/>
</g>
<!-- Node63&#45;&gt;Node62 -->
<g id="edge22" class="edge">
<title>Node63&#45;&gt;Node62</title>
<path fill="none" stroke="#9a32cd" stroke-dasharray="5,2" d="M879.0222,-403.1873C915.1843,-331.743 1043.3133,-78.6023 1070.0773,-25.7256"/>
<polygon fill="#9a32cd" stroke="#9a32cd" points="875.7704,-401.8616 874.3771,-412.3644 882.016,-405.0229 875.7704,-401.8616"/>
<text text-anchor="middle" x="977.5" y="-246" font-family="Helvetica,sans-Serif" font-size="10.00" fill="#000000"> elements</text>
</g>
<!-- Node4&#45;&gt;Node3 -->
<g id="edge4" class="edge">
<title>Node4&#45;&gt;Node3</title>
<path fill="none" stroke="#9a32cd" stroke-dasharray="5,2" d="M496.4775,-240.1332C538.0397,-275.4662 636.0656,-358.8002 669.5529,-387.2686"/>
<polygon fill="#9a32cd" stroke="#9a32cd" points="498.6168,-237.3581 488.7309,-233.5477 494.0829,-242.6914 498.6168,-237.3581"/>
<text text-anchor="middle" x="572" y="-348" font-family="Helvetica,sans-Serif" font-size="10.00" fill="#000000"> Parent</text>
</g>
<!-- Node59 -->
<g id="node15" class="node">
<title>Node59</title>
<g id="a_node15"><a xlink:href="structaworx_1_1lib_1_1cli_1_1CommandDecl.html" target="_top" xlink:title="CommandDecl">
<polygon fill="#ffffff" stroke="#ff0000" points="640,-168.5 640,-187.5 722,-187.5 722,-168.5 640,-168.5"/>
<text text-anchor="middle" x="681" y="-175.5" font-family="Helvetica,sans-Serif" font-size="10.00" fill="#000000">CommandDecl</text>
</a>
</g>
</g>
<!-- Node4&#45;&gt;Node59 -->
<g id="edge5" class="edge">
<title>Node4&#45;&gt;Node59</title>
<path fill="none" stroke="#9a32cd" stroke-dasharray="5,2" d="M499.9659,-209.1952C506.7949,-205.3058 514.4861,-201.5032 522,-199 560.7001,-186.107 607.1774,-181.0932 639.8567,-179.1629"/>
<polygon fill="#9a32cd" stroke="#9a32cd" points="498.0353,-206.2724 491.2858,-214.4391 501.6549,-212.2639 498.0353,-206.2724"/>
<text text-anchor="middle" x="572" y="-202" font-family="Helvetica,sans-Serif" font-size="10.00" fill="#000000"> Parent</text>
</g>
<!-- Node59&#45;&gt;Node2 -->
<g id="edge19" class="edge">
<title>Node59&#45;&gt;Node2</title>
<path fill="none" stroke="#9a32cd" stroke-dasharray="5,2" d="M660.4867,-162.1056C619.8487,-131.7434 525.0587,-66.4329 433,-43 301.9522,-9.6428 139.1224,-47.6258 72.0669,-66.5491"/>
<polygon fill="#9a32cd" stroke="#9a32cd" points="658.4484,-164.9523 668.535,-168.1943 662.6716,-159.3698 658.4484,-164.9523"/>
<text text-anchor="middle" x="387" y="-46" font-family="Helvetica,sans-Serif" font-size="10.00" fill="#000000"> Declaration</text>
</g>
<!-- Node59&#45;&gt;Node58 -->
<g id="edge20" class="edge">
<title>Node59&#45;&gt;Node58</title>
<path fill="none" stroke="#9a32cd" stroke-dasharray="5,2" d="M732.4025,-184.2719C753.4912,-186.8451 778.2157,-189.8619 800.818,-192.6197"/>
<polygon fill="#9a32cd" stroke="#9a32cd" points="732.7174,-180.7845 722.3671,-183.0474 731.8696,-187.7329 732.7174,-180.7845"/>
<text text-anchor="middle" x="761.5" y="-193" font-family="Helvetica,sans-Serif" font-size="10.00" fill="#000000"> elements</text>
</g>
<!-- Node8 -->
<g id="node16" class="node">
<title>Node8</title>
<g id="a_node16"><a xlink:href="classaworx_1_1lib_1_1lang_1_1Library.html" target="_top" xlink:title="Library">
<polygon fill="#ffffff" stroke="#ff0000" points="219,-142.5 219,-161.5 265,-161.5 265,-142.5 219,-142.5"/>
<text text-anchor="middle" x="242" y="-149.5" font-family="Helvetica,sans-Serif" font-size="10.00" fill="#000000">Library</text>
</a>
</g>
</g>
<!-- Node8&#45;&gt;Node4 -->
<g id="edge7" class="edge">
<title>Node8&#45;&gt;Node4</title>
<path fill="none" stroke="#9a32cd" stroke-dasharray="5,2" d="M275.2978,-150.7458C314.9442,-150.593 382.1767,-154.6514 433,-180 449.1392,-188.0496 463.0588,-204.1606 470.8513,-214.4937"/>
<polygon fill="#9a32cd" stroke="#9a32cd" points="275.0751,-147.2484 265.1224,-150.8809 275.1681,-154.2478 275.0751,-147.2484"/>
<text text-anchor="middle" x="387" y="-183" font-family="Helvetica,sans-Serif" font-size="10.00" fill="#000000"> ResLibrary</text>
</g>
<!-- Node56 -->
<g id="node17" class="node">
<title>Node56</title>
<g id="a_node17"><a xlink:href="structaworx_1_1lib_1_1cli_1_1ParameterDecl.html" target="_top" xlink:title="ParameterDecl">
<polygon fill="#ffffff" stroke="#ff0000" points="0,-457.5 0,-476.5 82,-476.5 82,-457.5 0,-457.5"/>
<text text-anchor="middle" x="41" y="-464.5" font-family="Helvetica,sans-Serif" font-size="10.00" fill="#000000">ParameterDecl</text>
</a>
</g>
</g>
<!-- Node56&#45;&gt;Node55 -->
<g id="edge16" class="edge">
<title>Node56&#45;&gt;Node55</title>
<path fill="none" stroke="#9a32cd" stroke-dasharray="5,2" d="M66.5555,-452.2516C108.3804,-428.1138 190.3027,-380.8353 225.3977,-360.5814"/>
<polygon fill="#9a32cd" stroke="#9a32cd" points="64.7031,-449.2795 57.7914,-457.3094 68.2021,-455.3423 64.7031,-449.2795"/>
<text text-anchor="middle" x="121.5" y="-435" font-family="Helvetica,sans-Serif" font-size="10.00" fill="#000000"> elements</text>
</g>
<!-- Node56&#45;&gt;Node63 -->
<g id="edge17" class="edge">
<title>Node56&#45;&gt;Node63</title>
<path fill="none" stroke="#9a32cd" stroke-dasharray="5,2" d="M92.3129,-472.5486C132.8874,-476.4584 190.9959,-481 242,-481 242,-481 242,-481 681,-481 746.3249,-481 818.8089,-448.329 851.624,-431.6107"/>
<polygon fill="#9a32cd" stroke="#9a32cd" points="92.4269,-469.043 82.1319,-471.5454 91.7404,-476.0093 92.4269,-469.043"/>
<text text-anchor="middle" x="477.5" y="-484" font-family="Helvetica,sans-Serif" font-size="10.00" fill="#000000"> Declaration</text>
</g>
</g>
</svg>
