<?xml version="1.0" encoding="UTF-8" standalone="no"?>
<!DOCTYPE svg PUBLIC "-//W3C//DTD SVG 1.1//EN"
 "http://www.w3.org/Graphics/SVG/1.1/DTD/svg11.dtd">
<!-- Generated by graphviz version 2.40.1 (20161225.0304)
 -->
<!-- Title: Option Pages: 1 -->
<svg width="719pt" height="450pt"
 viewBox="0.00 0.00 719.00 449.74" xmlns="http://www.w3.org/2000/svg" xmlns:xlink="http://www.w3.org/1999/xlink">
<g id="graph0" class="graph" transform="scale(1 1) rotate(0) translate(4 445.7447)">
<title>Option</title>
<polygon fill="#ffffff" stroke="transparent" points="-4,4 -4,-445.7447 715,-445.7447 715,4 -4,4"/>
<!-- Node2 -->
<g id="node1" class="node">
<title>Node2</title>
<polygon fill="#bfbfbf" stroke="#000000" points="666,-375.2447 666,-394.2447 711,-394.2447 711,-375.2447 666,-375.2447"/>
<text text-anchor="middle" x="688.5" y="-382.2447" font-family="Helvetica,sans-Serif" font-size="10.00" fill="#000000">Option</text>
</g>
<!-- Node5 -->
<g id="node2" class="node">
<title>Node5</title>
<polygon fill="#ffffff" stroke="#bfbfbf" points="165,-233.2447 165,-252.2447 285,-252.2447 285,-233.2447 165,-233.2447"/>
<text text-anchor="middle" x="225" y="-240.2447" font-family="Helvetica,sans-Serif" font-size="10.00" fill="#000000">vector&lt;cli::OptionDecl&gt;</text>
</g>
<!-- Node4 -->
<g id="node12" class="node">
<title>Node4</title>
<g id="a_node12"><a xlink:href="classaworx_1_1lib_1_1cli_1_1CLIApp.html" target="_top" xlink:title="CLIApp">
<polygon fill="#ffffff" stroke="#000000" points="435.5,-191.2447 435.5,-210.2447 485.5,-210.2447 485.5,-191.2447 435.5,-191.2447"/>
<text text-anchor="middle" x="460.5" y="-198.2447" font-family="Helvetica,sans-Serif" font-size="10.00" fill="#000000">CLIApp</text>
</a>
</g>
</g>
<!-- Node5&#45;&gt;Node4 -->
<g id="edge3" class="edge">
<title>Node5&#45;&gt;Node4</title>
<path fill="none" stroke="#9a32cd" stroke-dasharray="5,2" d="M295.1461,-242.073C331.7952,-240.1545 377.0122,-235.2983 416,-223.7447 426.3394,-220.6807 437.103,-215.1887 445.4541,-210.3397"/>
<polygon fill="#9a32cd" stroke="#9a32cd" points="294.8765,-238.5816 285.0486,-242.5393 295.1995,-245.5742 294.8765,-238.5816"/>
<text text-anchor="middle" x="370" y="-242.7447" font-family="Helvetica,sans-Serif" font-size="10.00" fill="#000000"> OptionDecls</text>
</g>
<!-- Node47 -->
<g id="node3" class="node">
<title>Node47</title>
<polygon fill="#ffffff" stroke="#bfbfbf" points="144,-195.2447 144,-214.2447 306,-214.2447 306,-195.2447 144,-195.2447"/>
<text text-anchor="middle" x="225" y="-202.2447" font-family="Helvetica,sans-Serif" font-size="10.00" fill="#000000">map&lt;Enum, vector&lt;cli::Option&gt;&gt;</text>
</g>
<!-- Node47&#45;&gt;Node4 -->
<g id="edge10" class="edge">
<title>Node47&#45;&gt;Node4</title>
<path fill="none" stroke="#9a32cd" stroke-dasharray="5,2" d="M316.2297,-201.9019C318.8482,-201.8454 321.4426,-201.7928 324,-201.7447 362.8588,-201.0137 407.9494,-200.8089 435.3396,-200.7561"/>
<polygon fill="#9a32cd" stroke="#9a32cd" points="315.954,-198.4073 306.0376,-202.1375 316.1158,-205.4054 315.954,-198.4073"/>
<text text-anchor="middle" x="370" y="-215.7447" font-family="Helvetica,sans-Serif" font-size="10.00" fill="#000000"> OptionsOverwritten</text>
<text text-anchor="middle" x="370" y="-204.7447" font-family="Helvetica,sans-Serif" font-size="10.00" fill="#000000">OptionsFound</text>
</g>
<!-- Node16 -->
<g id="node4" class="node">
<title>Node16</title>
<polygon fill="#ffffff" stroke="#bfbfbf" points="170,-157.2447 170,-176.2447 280,-176.2447 280,-157.2447 170,-157.2447"/>
<text text-anchor="middle" x="225" y="-164.2447" font-family="Helvetica,sans-Serif" font-size="10.00" fill="#000000">vector&lt;AStringBase&gt;</text>
</g>
<!-- Node16&#45;&gt;Node4 -->
<g id="edge7" class="edge">
<title>Node16&#45;&gt;Node4</title>
<path fill="none" stroke="#9a32cd" stroke-dasharray="5,2" d="M290.3898,-170.3365C327.5089,-173.1852 374.6712,-178.1702 416,-186.7447 422.3441,-188.0609 429.0689,-189.9217 435.3168,-191.8581"/>
<polygon fill="#9a32cd" stroke="#9a32cd" points="290.4293,-166.83 280.1998,-169.5884 289.9167,-173.8113 290.4293,-166.83"/>
<text text-anchor="middle" x="370" y="-189.7447" font-family="Helvetica,sans-Serif" font-size="10.00" fill="#000000"> convertedArgStrings</text>
</g>
<!-- Node36 -->
<g id="node5" class="node">
<title>Node36</title>
<polygon fill="#ffffff" stroke="#bfbfbf" points="173,-361.2447 173,-380.2447 277,-380.2447 277,-361.2447 173,-361.2447"/>
<text text-anchor="middle" x="225" y="-368.2447" font-family="Helvetica,sans-Serif" font-size="10.00" fill="#000000">vector&lt;StringBase&gt;</text>
</g>
<!-- Node36&#45;&gt;Node2 -->
<g id="edge8" class="edge">
<title>Node36&#45;&gt;Node2</title>
<path fill="none" stroke="#9a32cd" stroke-dasharray="5,2" d="M287.3498,-372.628C391.7178,-375.7804 597.0963,-381.9838 665.6299,-384.0539"/>
<polygon fill="#9a32cd" stroke="#9a32cd" points="287.3695,-369.1271 277.2684,-372.3235 287.1581,-376.1239 287.3695,-369.1271"/>
<text text-anchor="middle" x="521" y="-382.7447" font-family="Helvetica,sans-Serif" font-size="10.00" fill="#000000"> Args</text>
</g>
<!-- Node36&#45;&gt;Node4 -->
<g id="edge9" class="edge">
<title>Node36&#45;&gt;Node4</title>
<path fill="none" stroke="#9a32cd" stroke-dasharray="5,2" d="M276.6743,-358.9243C332.3265,-346.1021 413.3412,-327.1303 416,-324.7447 450.5587,-293.7372 458.2911,-233.9345 460.0115,-210.5015"/>
<polygon fill="#9a32cd" stroke="#9a32cd" points="275.5631,-355.5884 266.6025,-361.2415 277.1327,-362.4102 275.5631,-355.5884"/>
<text text-anchor="middle" x="370" y="-361.7447" font-family="Helvetica,sans-Serif" font-size="10.00" fill="#000000"> OptionArgsIgnored</text>
<text text-anchor="middle" x="370" y="-350.7447" font-family="Helvetica,sans-Serif" font-size="10.00" fill="#000000">ArgStrings</text>
</g>
<!-- Node49 -->
<g id="node6" class="node">
<title>Node49</title>
<polygon fill="#ffffff" stroke="#bfbfbf" points="184,-119.2447 184,-138.2447 266,-138.2447 266,-119.2447 184,-119.2447"/>
<text text-anchor="middle" x="225" y="-126.2447" font-family="Helvetica,sans-Serif" font-size="10.00" fill="#000000">vector&lt;size_t&gt;</text>
</g>
<!-- Node49&#45;&gt;Node4 -->
<g id="edge11" class="edge">
<title>Node49&#45;&gt;Node4</title>
<path fill="none" stroke="#9a32cd" stroke-dasharray="5,2" d="M276.2771,-128.6516C316.2143,-130.4532 372.0619,-137.1859 416,-158.7447 431.4502,-166.3255 445.1663,-181.1308 453.156,-190.9814"/>
<polygon fill="#9a32cd" stroke="#9a32cd" points="276.3481,-125.1519 266.2277,-128.2866 276.094,-132.1473 276.3481,-125.1519"/>
<text text-anchor="middle" x="370" y="-161.7447" font-family="Helvetica,sans-Serif" font-size="10.00" fill="#000000"> ArgsLeft</text>
</g>
<!-- Node50 -->
<g id="node7" class="node">
<title>Node50</title>
<polygon fill="#ffffff" stroke="#bfbfbf" points="167,-81.2447 167,-100.2447 283,-100.2447 283,-81.2447 167,-81.2447"/>
<text text-anchor="middle" x="225" y="-88.2447" font-family="Helvetica,sans-Serif" font-size="10.00" fill="#000000">vector&lt;cli::Command&gt;</text>
</g>
<!-- Node50&#45;&gt;Node4 -->
<g id="edge12" class="edge">
<title>Node50&#45;&gt;Node4</title>
<path fill="none" stroke="#9a32cd" stroke-dasharray="5,2" d="M293.6508,-86.3146C332.6933,-87.1286 380.6865,-94.0858 416,-118.7447 441.3649,-136.4566 453.6518,-173.3848 458.256,-190.9956"/>
<polygon fill="#9a32cd" stroke="#9a32cd" points="293.4408,-82.813 283.4139,-86.2353 293.3865,-89.8128 293.4408,-82.813"/>
<text text-anchor="middle" x="370" y="-121.7447" font-family="Helvetica,sans-Serif" font-size="10.00" fill="#000000"> CommandsParsed</text>
</g>
<!-- Node59 -->
<g id="node8" class="node">
<title>Node59</title>
<polygon fill="#ffffff" stroke="#bfbfbf" points="147.5,-43.2447 147.5,-62.2447 302.5,-62.2447 302.5,-43.2447 147.5,-43.2447"/>
<text text-anchor="middle" x="225" y="-50.2447" font-family="Helvetica,sans-Serif" font-size="10.00" fill="#000000">map&lt;Enum, cli::ExitCodeDecl&gt;</text>
</g>
<!-- Node59&#45;&gt;Node4 -->
<g id="edge13" class="edge">
<title>Node59&#45;&gt;Node4</title>
<path fill="none" stroke="#9a32cd" stroke-dasharray="5,2" d="M307.9413,-43.1138C344.5818,-43.2431 386.0434,-49.9314 416,-73.7447 435.1116,-88.937 452.6776,-163.971 458.4835,-191.0105"/>
<polygon fill="#9a32cd" stroke="#9a32cd" points="307.7032,-39.6164 297.7482,-43.2425 307.7916,-46.6159 307.7032,-39.6164"/>
<text text-anchor="middle" x="370" y="-76.7447" font-family="Helvetica,sans-Serif" font-size="10.00" fill="#000000"> ExitCodeDecls</text>
</g>
<!-- Node62 -->
<g id="node9" class="node">
<title>Node62</title>
<polygon fill="#ffffff" stroke="#bfbfbf" points="156.5,-5.2447 156.5,-24.2447 293.5,-24.2447 293.5,-5.2447 156.5,-5.2447"/>
<text text-anchor="middle" x="225" y="-12.2447" font-family="Helvetica,sans-Serif" font-size="10.00" fill="#000000">vector&lt;cli::ParameterDecl&gt;</text>
</g>
<!-- Node62&#45;&gt;Node4 -->
<g id="edge14" class="edge">
<title>Node62&#45;&gt;Node4</title>
<path fill="none" stroke="#9a32cd" stroke-dasharray="5,2" d="M275.9327,-3.5937C318.2547,2.5172 377.5584,3.3329 416,-28.7447 441.5768,-50.0873 455.6729,-157.8635 459.4535,-191.0225"/>
<polygon fill="#9a32cd" stroke="#9a32cd" points="275.1589,-.1727 265.8316,-5.1979 276.2568,-7.086 275.1589,-.1727"/>
<text text-anchor="middle" x="370" y="-31.7447" font-family="Helvetica,sans-Serif" font-size="10.00" fill="#000000"> ParameterDecls</text>
</g>
<!-- Node63 -->
<g id="node10" class="node">
<title>Node63</title>
<polygon fill="#ffffff" stroke="#bfbfbf" points="156.5,-309.2447 156.5,-328.2447 293.5,-328.2447 293.5,-309.2447 156.5,-309.2447"/>
<text text-anchor="middle" x="225" y="-316.2447" font-family="Helvetica,sans-Serif" font-size="10.00" fill="#000000">vector&lt;cli::CommandDecl&gt;</text>
</g>
<!-- Node63&#45;&gt;Node4 -->
<g id="edge15" class="edge">
<title>Node63&#45;&gt;Node4</title>
<path fill="none" stroke="#9a32cd" stroke-dasharray="5,2" d="M304.1434,-313.0832C348.4076,-308.545 398.1759,-300.7255 416,-287.7447 442.4679,-268.4689 454.3199,-228.8088 458.5503,-210.456"/>
<polygon fill="#9a32cd" stroke="#9a32cd" points="303.5286,-309.6266 293.9174,-314.0848 304.211,-316.5932 303.5286,-309.6266"/>
<text text-anchor="middle" x="370" y="-312.7447" font-family="Helvetica,sans-Serif" font-size="10.00" fill="#000000"> CommandDecls</text>
</g>
<!-- Node3 -->
<g id="node11" class="node">
<title>Node3</title>
<g id="a_node11"><a xlink:href="structaworx_1_1lib_1_1cli_1_1ArgumentDef.html" target="_top" xlink:title="ArgumentDef">
<polygon fill="#ffffff" stroke="#000000" points="555,-301.2447 555,-320.2447 629,-320.2447 629,-301.2447 555,-301.2447"/>
<text text-anchor="middle" x="592" y="-308.2447" font-family="Helvetica,sans-Serif" font-size="10.00" fill="#000000">ArgumentDef</text>
</a>
</g>
</g>
<!-- Node3&#45;&gt;Node2 -->
<g id="edge1" class="edge">
<title>Node3&#45;&gt;Node2</title>
<path fill="none" stroke="#191970" d="M612.7456,-326.6533C631.9359,-341.3691 659.8418,-362.7684 675.8812,-375.0681"/>
<polygon fill="#191970" stroke="#191970" points="614.6809,-323.7267 604.6157,-320.4189 610.4213,-329.2815 614.6809,-323.7267"/>
</g>
<!-- Node4&#45;&gt;Node3 -->
<g id="edge2" class="edge">
<title>Node4&#45;&gt;Node3</title>
<path fill="none" stroke="#9a32cd" stroke-dasharray="5,2" d="M480.0342,-217.085C507.8655,-240.366 558.0466,-282.3426 580.5442,-301.1619"/>
<polygon fill="#9a32cd" stroke="#9a32cd" points="482.0857,-214.2381 472.1697,-210.5065 477.5943,-219.6073 482.0857,-214.2381"/>
<text text-anchor="middle" x="521" y="-264.7447" font-family="Helvetica,sans-Serif" font-size="10.00" fill="#000000"> Parent</text>
</g>
<!-- Node6 -->
<g id="node13" class="node">
<title>Node6</title>
<g id="a_node13"><a xlink:href="structaworx_1_1lib_1_1cli_1_1OptionDecl.html" target="_top" xlink:title="OptionDecl">
<polygon fill="#ffffff" stroke="#ff0000" points="0,-367.2447 0,-386.2447 65,-386.2447 65,-367.2447 0,-367.2447"/>
<text text-anchor="middle" x="32.5" y="-374.2447" font-family="Helvetica,sans-Serif" font-size="10.00" fill="#000000">OptionDecl</text>
</a>
</g>
</g>
<!-- Node6&#45;&gt;Node2 -->
<g id="edge4" class="edge">
<title>Node6&#45;&gt;Node2</title>
<path fill="none" stroke="#9a32cd" stroke-dasharray="5,2" d="M61.7153,-390.3379C98.8313,-406.3344 165.2571,-430.7447 225,-430.7447 225,-430.7447 225,-430.7447 592,-430.7447 625.5928,-430.7447 659.923,-407.7496 677.155,-394.2759"/>
<polygon fill="#9a32cd" stroke="#9a32cd" points="63.0552,-387.1037 52.4929,-386.2745 60.2328,-393.5095 63.0552,-387.1037"/>
<text text-anchor="middle" x="460.5" y="-433.7447" font-family="Helvetica,sans-Serif" font-size="10.00" fill="#000000"> Declaration</text>
</g>
<!-- Node6&#45;&gt;Node5 -->
<g id="edge5" class="edge">
<title>Node6&#45;&gt;Node5</title>
<path fill="none" stroke="#9a32cd" stroke-dasharray="5,2" d="M44.9354,-358.4597C63.4292,-332.7421 100.6903,-286.2912 144,-261.7447 150.9114,-257.8275 158.5919,-254.7165 166.3919,-252.2461"/>
<polygon fill="#9a32cd" stroke="#9a32cd" points="41.8784,-356.7227 38.9946,-366.9176 47.6065,-360.7462 41.8784,-356.7227"/>
<text text-anchor="middle" x="104.5" y="-313.7447" font-family="Helvetica,sans-Serif" font-size="10.00" fill="#000000"> elements</text>
</g>
<!-- Node8 -->
<g id="node14" class="node">
<title>Node8</title>
<g id="a_node14"><a xlink:href="classaworx_1_1lib_1_1lang_1_1Library.html" target="_top" xlink:title="Library">
<polygon fill="#ffffff" stroke="#ff0000" points="202,-271.2447 202,-290.2447 248,-290.2447 248,-271.2447 202,-271.2447"/>
<text text-anchor="middle" x="225" y="-278.2447" font-family="Helvetica,sans-Serif" font-size="10.00" fill="#000000">Library</text>
</a>
</g>
</g>
<!-- Node8&#45;&gt;Node4 -->
<g id="edge6" class="edge">
<title>Node8&#45;&gt;Node4</title>
<path fill="none" stroke="#9a32cd" stroke-dasharray="5,2" d="M258.2664,-279.1242C305.6167,-276.3317 389.6381,-269.4358 416,-254.7447 434.4641,-244.4549 448.3865,-223.2061 455.4111,-210.6494"/>
<polygon fill="#9a32cd" stroke="#9a32cd" points="257.9815,-275.6345 248.1931,-279.6889 258.3734,-282.6236 257.9815,-275.6345"/>
<text text-anchor="middle" x="370" y="-275.7447" font-family="Helvetica,sans-Serif" font-size="10.00" fill="#000000"> ResLibrary</text>
</g>
</g>
</svg>
