<?xml version="1.0" encoding="UTF-8" standalone="no"?>
<!DOCTYPE svg PUBLIC "-//W3C//DTD SVG 1.1//EN"
 "http://www.w3.org/Graphics/SVG/1.1/DTD/svg11.dtd">
<!-- Generated by graphviz version 2.40.1 (20161225.0304)
 -->
<!-- Title: Exception::Entry Pages: 1 -->
<svg width="1327pt" height="392pt"
 viewBox="0.00 0.00 1327.00 392.02" xmlns="http://www.w3.org/2000/svg" xmlns:xlink="http://www.w3.org/1999/xlink">
<g id="graph0" class="graph" transform="scale(1 1) rotate(0) translate(4 388.0219)">
<title>Exception::Entry</title>
<polygon fill="#ffffff" stroke="transparent" points="-4,4 -4,-388.0219 1323,-388.0219 1323,4 -4,4"/>
<!-- Node1 -->
<g id="node1" class="node">
<title>Node1</title>
<polygon fill="#bfbfbf" stroke="#000000" points="1228.5,-269.5219 1228.5,-288.5219 1317.5,-288.5219 1317.5,-269.5219 1228.5,-269.5219"/>
<text text-anchor="middle" x="1273" y="-276.5219" font-family="Helvetica,sans-Serif" font-size="10.00" fill="#000000">Exception::Entry</text>
</g>
<!-- Node35 -->
<g id="node2" class="node">
<title>Node35</title>
<polygon fill="#ffffff" stroke="#bfbfbf" points="1227,-51.5219 1227,-70.5219 1319,-70.5219 1319,-51.5219 1227,-51.5219"/>
<text text-anchor="middle" x="1273" y="-58.5219" font-family="Helvetica,sans-Serif" font-size="10.00" fill="#000000">vector&lt;Library *&gt;</text>
</g>
<!-- Node2 -->
<g id="node8" class="node">
<title>Node2</title>
<g id="a_node8"><a xlink:href="classaworx_1_1lib_1_1lang_1_1Library.html" target="_top" xlink:title="Library">
<polygon fill="#ffffff" stroke="#000000" points="1081,-51.5219 1081,-70.5219 1127,-70.5219 1127,-51.5219 1081,-51.5219"/>
<text text-anchor="middle" x="1104" y="-58.5219" font-family="Helvetica,sans-Serif" font-size="10.00" fill="#000000">Library</text>
</a>
</g>
</g>
<!-- Node35&#45;&gt;Node2 -->
<g id="edge15" class="edge">
<title>Node35&#45;&gt;Node2</title>
<path fill="none" stroke="#9a32cd" stroke-dasharray="5,2" d="M1228.6243,-49.2361C1222.0858,-47.9042 1215.3981,-46.7616 1209,-46.0219 1180.7438,-42.7548 1173.0082,-41.0593 1145,-46.0219 1138.5816,-47.1591 1131.8486,-49.2251 1125.7366,-51.4674"/>
<polygon fill="#9a32cd" stroke="#9a32cd" points="1228.195,-52.7253 1238.7133,-51.4542 1229.6981,-45.8885 1228.195,-52.7253"/>
<text text-anchor="middle" x="1177" y="-49.0219" font-family="Helvetica,sans-Serif" font-size="10.00" fill="#000000"> dependencies</text>
</g>
<!-- Node36 -->
<g id="node3" class="node">
<title>Node36</title>
<polygon fill="#ffffff" stroke="#bfbfbf" points="753,-13.5219 753,-32.5219 929,-32.5219 929,-13.5219 753,-13.5219"/>
<text text-anchor="middle" x="841" y="-20.5219" font-family="Helvetica,sans-Serif" font-size="10.00" fill="#000000">vector&lt;pair&lt;const char *, uint64_t&gt;&gt;</text>
</g>
<!-- Node36&#45;&gt;Node2 -->
<g id="edge16" class="edge">
<title>Node36&#45;&gt;Node2</title>
<path fill="none" stroke="#9a32cd" stroke-dasharray="5,2" d="M939.3201,-18.5857C978.5648,-19.4242 1023.6785,-23.7277 1063,-36.0219 1073.5034,-39.3058 1084.0758,-45.8499 1091.8535,-51.419"/>
<polygon fill="#9a32cd" stroke="#9a32cd" points="939.2612,-15.0846 929.2126,-18.4426 939.162,-22.0839 939.2612,-15.0846"/>
<text text-anchor="middle" x="1005" y="-39.0219" font-family="Helvetica,sans-Serif" font-size="10.00" fill="#000000"> CompilationFlagMeanings</text>
</g>
<!-- Node38 -->
<g id="node4" class="node">
<title>Node38</title>
<g id="a_node4"><a xlink:title="STL class. ">
<polygon fill="#ffffff" stroke="#bfbfbf" points="804.5,-351.5219 804.5,-370.5219 877.5,-370.5219 877.5,-351.5219 804.5,-351.5219"/>
<text text-anchor="middle" x="841" y="-358.5219" font-family="Helvetica,sans-Serif" font-size="10.00" fill="#000000">vector&lt;Box&gt;</text>
</a>
</g>
</g>
<!-- Node37 -->
<g id="node14" class="node">
<title>Node37</title>
<g id="a_node14"><a xlink:href="classaworx_1_1lib_1_1boxing_1_1Boxes.html" target="_top" xlink:title="Boxes">
<polygon fill="#ffffff" stroke="#000000" points="1082,-330.5219 1082,-349.5219 1126,-349.5219 1126,-330.5219 1082,-330.5219"/>
<text text-anchor="middle" x="1104" y="-337.5219" font-family="Helvetica,sans-Serif" font-size="10.00" fill="#000000">Boxes</text>
</a>
</g>
</g>
<!-- Node38&#45;&gt;Node37 -->
<g id="edge18" class="edge">
<title>Node38&#45;&gt;Node37</title>
<path fill="none" stroke="#191970" d="M887.795,-357.2854C944.9924,-352.7183 1039.4108,-345.1792 1081.9798,-341.7801"/>
<polygon fill="#191970" stroke="#191970" points="887.2587,-353.817 877.569,-358.1019 887.8159,-360.7948 887.2587,-353.817"/>
</g>
<!-- Node3 -->
<g id="node5" class="node">
<title>Node3</title>
<g id="a_node5"><a xlink:href="classaworx_1_1lib_1_1strings_1_1TStringBase.html" target="_top" xlink:title="TStringBase\&lt;character\&gt;">
<polygon fill="#ffffff" stroke="#000000" points="409,-1.5219 409,-20.5219 532,-20.5219 532,-1.5219 409,-1.5219"/>
<text text-anchor="middle" x="470.5" y="-8.5219" font-family="Helvetica,sans-Serif" font-size="10.00" fill="#000000">TStringBase&lt;character&gt;</text>
</a>
</g>
</g>
<!-- Node3&#45;&gt;Node2 -->
<g id="edge3" class="edge">
<title>Node3&#45;&gt;Node2</title>
<path fill="none" stroke="#9a32cd" stroke-dasharray="5,2" d="M542.2034,-7.4362C632.472,-3.4954 792.2843,1.5802 929,-4.0219 988.7058,-6.4683 1009.5182,11.6327 1063,-15.0219 1079.0854,-23.0386 1091.7159,-40.3439 1098.4987,-51.294"/>
<polygon fill="#9a32cd" stroke="#9a32cd" points="541.9166,-3.9454 532.0819,-7.8861 542.2275,-10.9385 541.9166,-3.9454"/>
<text text-anchor="middle" x="692.5" y="-7.0219" font-family="Helvetica,sans-Serif" font-size="10.00" fill="#000000"> ResourceCategory</text>
</g>
<!-- Node4 -->
<g id="node6" class="node">
<title>Node4</title>
<g id="a_node6"><a xlink:href="classaworx_1_1lib_1_1strings_1_1StringBase.html" target="_top" xlink:title="StringBase\&lt;character\&gt;">
<polygon fill="#ffffff" stroke="#000000" points="0,-47.5219 0,-66.5219 117,-66.5219 117,-47.5219 0,-47.5219"/>
<text text-anchor="middle" x="58.5" y="-54.5219" font-family="Helvetica,sans-Serif" font-size="10.00" fill="#000000">StringBase&lt;character&gt;</text>
</a>
</g>
</g>
<!-- Node4&#45;&gt;Node3 -->
<g id="edge4" class="edge">
<title>Node4&#45;&gt;Node3</title>
<path fill="none" stroke="#191970" d="M127.3711,-49.3324C205.9421,-40.5599 333.274,-26.3432 408.7463,-17.9167"/>
<polygon fill="#191970" stroke="#191970" points="126.6419,-45.8919 117.092,-50.48 127.4187,-52.8487 126.6419,-45.8919"/>
</g>
<!-- Node17 -->
<g id="node9" class="node">
<title>Node17</title>
<g id="a_node9"><a xlink:href="classaworx_1_1lib_1_1config_1_1Configuration.html" target="_top" xlink:title="Configuration">
<polygon fill="#ffffff" stroke="#ff0000" points="300.5,-75.5219 300.5,-94.5219 374.5,-94.5219 374.5,-75.5219 300.5,-75.5219"/>
<text text-anchor="middle" x="337.5" y="-82.5219" font-family="Helvetica,sans-Serif" font-size="10.00" fill="#000000">Configuration</text>
</a>
</g>
</g>
<!-- Node4&#45;&gt;Node17 -->
<g id="edge5" class="edge">
<title>Node4&#45;&gt;Node17</title>
<path fill="none" stroke="#9a32cd" stroke-dasharray="5,2" d="M127.6152,-63.9581C182.1433,-69.4305 256.1125,-76.8539 300.1132,-81.2698"/>
<polygon fill="#9a32cd" stroke="#9a32cd" points="127.6274,-60.4419 117.3278,-62.9257 126.9283,-67.4069 127.6274,-60.4419"/>
<text text-anchor="middle" x="200.5" y="-103.0219" font-family="Helvetica,sans-Serif" font-size="10.00" fill="#000000"> SubstitutionVariableStart</text>
<text text-anchor="middle" x="200.5" y="-92.0219" font-family="Helvetica,sans-Serif" font-size="10.00" fill="#000000">SubstitutionVariableEnd</text>
<text text-anchor="middle" x="200.5" y="-81.0219" font-family="Helvetica,sans-Serif" font-size="10.00" fill="#000000">SubstitutionVariableDelimiters</text>
</g>
<!-- Node23 -->
<g id="node7" class="node">
<title>Node23</title>
<g id="a_node7"><a xlink:href="classaworx_1_1lib_1_1strings_1_1TStringBase.html" target="_top" xlink:title="TStringBase\&lt;nchar\&gt;">
<polygon fill="#ffffff" stroke="#ff0000" points="284,-231.5219 284,-250.5219 391,-250.5219 391,-231.5219 284,-231.5219"/>
<text text-anchor="middle" x="337.5" y="-238.5219" font-family="Helvetica,sans-Serif" font-size="10.00" fill="#000000">TStringBase&lt;nchar&gt;</text>
</a>
</g>
</g>
<!-- Node23&#45;&gt;Node1 -->
<g id="edge13" class="edge">
<title>Node23&#45;&gt;Node1</title>
<path fill="none" stroke="#9a32cd" stroke-dasharray="5,2" d="M401.5657,-248.4861C452.7579,-253.807 526.3823,-260.0219 591,-260.0219 591,-260.0219 591,-260.0219 1104,-260.0219 1146.3685,-260.0219 1194.3399,-265.9919 1228.3201,-271.239"/>
<polygon fill="#9a32cd" stroke="#9a32cd" points="401.6277,-244.9732 391.3149,-247.4014 400.8911,-251.9343 401.6277,-244.9732"/>
<text text-anchor="middle" x="841" y="-274.0219" font-family="Helvetica,sans-Serif" font-size="10.00" fill="#000000"> Func</text>
<text text-anchor="middle" x="841" y="-263.0219" font-family="Helvetica,sans-Serif" font-size="10.00" fill="#000000">File</text>
</g>
<!-- Node19 -->
<g id="node13" class="node">
<title>Node19</title>
<g id="a_node13"><a xlink:href="classaworx_1_1lib_1_1threads_1_1ThreadLock.html" target="_top" xlink:title="ThreadLock">
<polygon fill="#ffffff" stroke="#ff0000" points="557,-212.5219 557,-231.5219 625,-231.5219 625,-212.5219 557,-212.5219"/>
<text text-anchor="middle" x="591" y="-219.5219" font-family="Helvetica,sans-Serif" font-size="10.00" fill="#000000">ThreadLock</text>
</a>
</g>
</g>
<!-- Node23&#45;&gt;Node19 -->
<g id="edge14" class="edge">
<title>Node23&#45;&gt;Node19</title>
<path fill="none" stroke="#9a32cd" stroke-dasharray="5,2" d="M380.5351,-229.1588C389.8516,-227.05 399.6998,-225.1641 409,-224.0219 460.2793,-217.7237 520.2954,-218.6547 556.9715,-220.1497"/>
<polygon fill="#9a32cd" stroke="#9a32cd" points="379.5994,-225.7837 370.6854,-231.51 381.2248,-232.5924 379.5994,-225.7837"/>
<text text-anchor="middle" x="470.5" y="-238.0219" font-family="Helvetica,sans-Serif" font-size="10.00" fill="#000000"> acquirementMethodName</text>
<text text-anchor="middle" x="470.5" y="-227.0219" font-family="Helvetica,sans-Serif" font-size="10.00" fill="#000000">acquirementSourcefile</text>
</g>
<!-- Node2&#45;&gt;Node1 -->
<g id="edge1" class="edge">
<title>Node2&#45;&gt;Node1</title>
<path fill="none" stroke="#9a32cd" stroke-dasharray="5,2" d="M1117.7287,-78.7311C1151.8396,-122.7322 1239.5664,-235.8945 1265.6066,-269.4848"/>
<polygon fill="#9a32cd" stroke="#9a32cd" points="1120.3728,-76.4292 1111.4798,-70.6703 1114.8405,-80.718 1120.3728,-76.4292"/>
<text text-anchor="middle" x="1177" y="-198.0219" font-family="Helvetica,sans-Serif" font-size="10.00" fill="#000000"> EnumLibrary</text>
</g>
<!-- Node2&#45;&gt;Node35 -->
<g id="edge2" class="edge">
<title>Node2&#45;&gt;Node35</title>
<path fill="none" stroke="#9a32cd" stroke-dasharray="5,2" d="M1137.4508,-61.0219C1163.0444,-61.0219 1198.6317,-61.0219 1226.9203,-61.0219"/>
<polygon fill="#9a32cd" stroke="#9a32cd" points="1137.1444,-57.522 1127.1444,-61.0219 1137.1443,-64.522 1137.1444,-57.522"/>
<text text-anchor="middle" x="1177" y="-64.0219" font-family="Helvetica,sans-Serif" font-size="10.00" fill="#000000"> elements</text>
</g>
<!-- Node17&#45;&gt;Node2 -->
<g id="edge9" class="edge">
<title>Node17&#45;&gt;Node2</title>
<path fill="none" stroke="#9a32cd" stroke-dasharray="5,2" d="M384.7555,-83.5422C531.2534,-78.9552 974.3283,-65.082 1080.8078,-61.748"/>
<polygon fill="#9a32cd" stroke="#9a32cd" points="384.6145,-80.0448 374.7289,-83.8562 384.8336,-87.0414 384.6145,-80.0448"/>
<text text-anchor="middle" x="692.5" y="-79.0219" font-family="Helvetica,sans-Serif" font-size="10.00" fill="#000000"> Config</text>
</g>
<!-- Node5 -->
<g id="node10" class="node">
<title>Node5</title>
<g id="a_node10"><a xlink:href="classaworx_1_1lib_1_1lang_1_1Resources.html" target="_top" xlink:title="Resources">
<polygon fill="#ffffff" stroke="#000000" points="809,-127.5219 809,-146.5219 873,-146.5219 873,-127.5219 809,-127.5219"/>
<text text-anchor="middle" x="841" y="-134.5219" font-family="Helvetica,sans-Serif" font-size="10.00" fill="#000000">Resources</text>
</a>
</g>
</g>
<!-- Node17&#45;&gt;Node5 -->
<g id="edge10" class="edge">
<title>Node17&#45;&gt;Node5</title>
<path fill="none" stroke="#9a32cd" stroke-dasharray="5,2" d="M373.8087,-97.8829C385.0702,-101.8273 397.5337,-106.1473 409,-110.0219 471.4485,-131.1234 484.9005,-145.6712 550,-156.0219 631.2212,-168.9358 653.0892,-159.3887 735,-152.0219 759.8053,-149.7909 787.6851,-145.7857 808.6246,-142.4749"/>
<polygon fill="#9a32cd" stroke="#9a32cd" points="374.8717,-94.5467 364.2769,-94.534 372.5513,-101.151 374.8717,-94.5467"/>
<text text-anchor="middle" x="591" y="-165.0219" font-family="Helvetica,sans-Serif" font-size="10.00" fill="#000000"> Config</text>
</g>
<!-- Node9 -->
<g id="node12" class="node">
<title>Node9</title>
<g id="a_node12"><a xlink:href="classaworx_1_1lib_1_1config_1_1Variable.html" target="_top" xlink:title="Variable">
<polygon fill="#ffffff" stroke="#ff0000" points="565.5,-89.5219 565.5,-108.5219 616.5,-108.5219 616.5,-89.5219 565.5,-89.5219"/>
<text text-anchor="middle" x="591" y="-96.5219" font-family="Helvetica,sans-Serif" font-size="10.00" fill="#000000">Variable</text>
</a>
</g>
</g>
<!-- Node17&#45;&gt;Node9 -->
<g id="edge11" class="edge">
<title>Node17&#45;&gt;Node9</title>
<path fill="none" stroke="#9a32cd" stroke-dasharray="5,2" d="M384.8685,-87.6379C438.2541,-90.5862 523.0858,-95.2712 565.3361,-97.6045"/>
<polygon fill="#9a32cd" stroke="#9a32cd" points="384.8104,-84.1294 374.6326,-87.0726 384.4243,-91.1188 384.8104,-84.1294"/>
<text text-anchor="middle" x="470.5" y="-98.0219" font-family="Helvetica,sans-Serif" font-size="10.00" fill="#000000"> Config</text>
</g>
<!-- Node5&#45;&gt;Node2 -->
<g id="edge6" class="edge">
<title>Node5&#45;&gt;Node2</title>
<path fill="none" stroke="#9a32cd" stroke-dasharray="5,2" d="M883.0921,-126.0287C927.8973,-114.1494 1000.7696,-94.3194 1063,-75.0219 1068.7473,-73.2396 1074.9064,-71.2041 1080.6587,-69.2477"/>
<polygon fill="#9a32cd" stroke="#9a32cd" points="881.9248,-122.717 873.151,-128.656 883.7134,-129.4846 881.9248,-122.717"/>
<text text-anchor="middle" x="1005" y="-111.0219" font-family="Helvetica,sans-Serif" font-size="10.00" fill="#000000"> Res</text>
</g>
<!-- Node6 -->
<g id="node11" class="node">
<title>Node6</title>
<g id="a_node11"><a xlink:href="classaworx_1_1lib_1_1util_1_1MemoryBlocks.html" target="_top" xlink:title="MemoryBlocks">
<polygon fill="#ffffff" stroke="#ff0000" points="550,-127.5219 550,-146.5219 632,-146.5219 632,-127.5219 550,-127.5219"/>
<text text-anchor="middle" x="591" y="-134.5219" font-family="Helvetica,sans-Serif" font-size="10.00" fill="#000000">MemoryBlocks</text>
</a>
</g>
</g>
<!-- Node6&#45;&gt;Node5 -->
<g id="edge7" class="edge">
<title>Node6&#45;&gt;Node5</title>
<path fill="none" stroke="#9a32cd" stroke-dasharray="5,2" d="M642.266,-137.0219C692.1966,-137.0219 766.5551,-137.0219 808.7315,-137.0219"/>
<polygon fill="#9a32cd" stroke="#9a32cd" points="642.0025,-133.522 632.0025,-137.0219 642.0024,-140.522 642.0025,-133.522"/>
<text text-anchor="middle" x="692.5" y="-140.0219" font-family="Helvetica,sans-Serif" font-size="10.00" fill="#000000"> cache</text>
</g>
<!-- Node9&#45;&gt;Node5 -->
<g id="edge8" class="edge">
<title>Node9&#45;&gt;Node5</title>
<path fill="none" stroke="#9a32cd" stroke-dasharray="5,2" d="M626.8959,-104.478C675.598,-111.8808 761.8853,-124.9964 808.6691,-132.1076"/>
<polygon fill="#9a32cd" stroke="#9a32cd" points="627.2252,-100.988 616.8128,-102.9454 626.1732,-107.9085 627.2252,-100.988"/>
<text text-anchor="middle" x="692.5" y="-123.0219" font-family="Helvetica,sans-Serif" font-size="10.00" fill="#000000"> variable</text>
</g>
<!-- Node19&#45;&gt;Node5 -->
<g id="edge12" class="edge">
<title>Node19&#45;&gt;Node5</title>
<path fill="none" stroke="#9a32cd" stroke-dasharray="5,2" d="M635.2414,-218.3061C664.2521,-214.9144 702.6565,-208.5899 735,-197.0219 770.6409,-184.2744 808.2644,-160.0191 827.6728,-146.5812"/>
<polygon fill="#9a32cd" stroke="#9a32cd" points="634.5662,-214.859 625.0069,-219.4272 635.3286,-221.8174 634.5662,-214.859"/>
<text text-anchor="middle" x="692.5" y="-219.0219" font-family="Helvetica,sans-Serif" font-size="10.00" fill="#000000"> lock</text>
</g>
<!-- Node37&#45;&gt;Node1 -->
<g id="edge17" class="edge">
<title>Node37&#45;&gt;Node1</title>
<path fill="none" stroke="#9a32cd" stroke-dasharray="5,2" d="M1135.8079,-332.462C1156.8741,-327.0844 1184.9507,-319.2029 1209,-310.0219 1225.1476,-303.8573 1242.7744,-295.164 1255.4332,-288.5514"/>
<polygon fill="#9a32cd" stroke="#9a32cd" points="1134.9298,-329.0738 1126.0778,-334.8956 1136.6283,-335.8646 1134.9298,-329.0738"/>
<text text-anchor="middle" x="1177" y="-332.0219" font-family="Helvetica,sans-Serif" font-size="10.00" fill="#000000"> Args</text>
</g>
<!-- Node39 -->
<g id="node15" class="node">
<title>Node39</title>
<polygon fill="#ffffff" stroke="#bfbfbf" points="576.5,-364.5219 576.5,-383.5219 605.5,-383.5219 605.5,-364.5219 576.5,-364.5219"/>
<text text-anchor="middle" x="591" y="-371.5219" font-family="Helvetica,sans-Serif" font-size="10.00" fill="#000000">T</text>
</g>
<!-- Node39&#45;&gt;Node38 -->
<g id="edge19" class="edge">
<title>Node39&#45;&gt;Node38</title>
<path fill="none" stroke="#9a32cd" stroke-dasharray="5,2" d="M615.6423,-372.7405C659.7854,-370.445 752.5527,-365.6211 804.2407,-362.9333"/>
<polygon fill="#9a32cd" stroke="#9a32cd" points="615.3264,-369.2521 605.5216,-373.2667 615.6899,-376.2426 615.3264,-369.2521"/>
<text text-anchor="middle" x="692.5" y="-373.0219" font-family="Helvetica,sans-Serif" font-size="10.00" fill="#000000"> elements</text>
</g>
<!-- Node40 -->
<g id="node16" class="node">
<title>Node40</title>
<g id="a_node16"><a xlink:href="structaworx_1_1lib_1_1lang_1_1Enum.html" target="_top" xlink:title="Enum">
<polygon fill="#ffffff" stroke="#000000" points="1083,-291.5219 1083,-310.5219 1125,-310.5219 1125,-291.5219 1083,-291.5219"/>
<text text-anchor="middle" x="1104" y="-298.5219" font-family="Helvetica,sans-Serif" font-size="10.00" fill="#000000">Enum</text>
</a>
</g>
</g>
<!-- Node40&#45;&gt;Node1 -->
<g id="edge20" class="edge">
<title>Node40&#45;&gt;Node1</title>
<path fill="none" stroke="#9a32cd" stroke-dasharray="5,2" d="M1135.1788,-296.9631C1161.373,-293.5532 1199.126,-288.6386 1228.498,-284.815"/>
<polygon fill="#9a32cd" stroke="#9a32cd" points="1134.5268,-293.5183 1125.0623,-298.28 1135.4304,-300.4598 1134.5268,-293.5183"/>
<text text-anchor="middle" x="1177" y="-298.0219" font-family="Helvetica,sans-Serif" font-size="10.00" fill="#000000"> Code</text>
</g>
<!-- Node41 -->
<g id="node17" class="node">
<title>Node41</title>
<g id="a_node17"><a xlink:href="classaworx_1_1lib_1_1boxing_1_1Box.html" target="_top" xlink:title="Box">
<polygon fill="#ffffff" stroke="#000000" points="824,-300.5219 824,-319.5219 858,-319.5219 858,-300.5219 824,-300.5219"/>
<text text-anchor="middle" x="841" y="-307.5219" font-family="Helvetica,sans-Serif" font-size="10.00" fill="#000000">Box</text>
</a>
</g>
</g>
<!-- Node41&#45;&gt;Node40 -->
<g id="edge21" class="edge">
<title>Node41&#45;&gt;Node40</title>
<path fill="none" stroke="#191970" d="M868.524,-309.08C921.2274,-307.2764 1035.3603,-303.3707 1082.7282,-301.7498"/>
<polygon fill="#191970" stroke="#191970" points="868.1306,-305.5913 858.2562,-309.4313 868.37,-312.5872 868.1306,-305.5913"/>
</g>
<!-- Node42 -->
<g id="node18" class="node">
<title>Node42</title>
<g id="a_node18"><a xlink:href="structaworx_1_1lib_1_1boxing_1_1BoxData.html" target="_top" xlink:title="BoxData">
<polygon fill="#ffffff" stroke="#000000" points="563.5,-326.5219 563.5,-345.5219 618.5,-345.5219 618.5,-326.5219 563.5,-326.5219"/>
<text text-anchor="middle" x="591" y="-333.5219" font-family="Helvetica,sans-Serif" font-size="10.00" fill="#000000">BoxData</text>
</a>
</g>
</g>
<!-- Node42&#45;&gt;Node41 -->
<g id="edge22" class="edge">
<title>Node42&#45;&gt;Node41</title>
<path fill="none" stroke="#9a32cd" stroke-dasharray="5,2" d="M628.7724,-332.0935C683.8693,-326.3634 784.0504,-315.9446 823.944,-311.7957"/>
<polygon fill="#9a32cd" stroke="#9a32cd" points="628.2939,-328.6243 618.7096,-333.1401 629.018,-335.5868 628.2939,-328.6243"/>
<text text-anchor="middle" x="692.5" y="-332.0219" font-family="Helvetica,sans-Serif" font-size="10.00" fill="#000000"> data</text>
</g>
<!-- Node43 -->
<g id="node19" class="node">
<title>Node43</title>
<g id="a_node19"><a xlink:href="classaworx_1_1lib_1_1boxing_1_1Boxer.html" target="_top" xlink:title="Boxer">
<polygon fill="#ffffff" stroke="#000000" points="570,-288.5219 570,-307.5219 612,-307.5219 612,-288.5219 570,-288.5219"/>
<text text-anchor="middle" x="591" y="-295.5219" font-family="Helvetica,sans-Serif" font-size="10.00" fill="#000000">Boxer</text>
</a>
</g>
</g>
<!-- Node43&#45;&gt;Node41 -->
<g id="edge23" class="edge">
<title>Node43&#45;&gt;Node41</title>
<path fill="none" stroke="#9a32cd" stroke-dasharray="5,2" d="M622.4914,-298.8323C651.6728,-299.6504 696.2835,-301.0718 735,-303.0219 766.3132,-304.599 802.7823,-307.1684 823.7512,-308.7167"/>
<polygon fill="#9a32cd" stroke="#9a32cd" points="622.57,-295.3332 612.478,-298.5583 622.3785,-302.3306 622.57,-295.3332"/>
<text text-anchor="middle" x="692.5" y="-306.0219" font-family="Helvetica,sans-Serif" font-size="10.00" fill="#000000"> boxer</text>
</g>
</g>
</svg>
