<?xml version="1.0" encoding="UTF-8" standalone="no"?>
<!DOCTYPE svg PUBLIC "-//W3C//DTD SVG 1.1//EN"
 "http://www.w3.org/Graphics/SVG/1.1/DTD/svg11.dtd">
<!-- Generated by graphviz version 2.40.1 (20161225.0304)
 -->
<!-- Title: ASTConditional Pages: 1 -->
<svg width="92pt" height="117pt"
 viewBox="0.00 0.00 92.00 117.00" xmlns="http://www.w3.org/2000/svg" xmlns:xlink="http://www.w3.org/1999/xlink">
<g id="graph0" class="graph" transform="scale(1 1) rotate(0) translate(4 113)">
<title>ASTConditional</title>
<polygon fill="#ffffff" stroke="transparent" points="-4,4 -4,-113 88,-113 88,4 -4,4"/>
<!-- Node2 -->
<g id="node1" class="node">
<title>Node2</title>
<polygon fill="#bfbfbf" stroke="#000000" points="0,-.5 0,-19.5 84,-19.5 84,-.5 0,-.5"/>
<text text-anchor="middle" x="42" y="-7.5" font-family="Helvetica,sans-Serif" font-size="10.00" fill="#000000">ASTConditional</text>
</g>
<!-- Node3 -->
<g id="node2" class="node">
<title>Node3</title>
<g id="a_node2"><a xlink:href="structaworx_1_1lib_1_1expressions_1_1detail_1_1AST.html" target="_top" xlink:title="AST">
<polygon fill="#ffffff" stroke="#000000" points="24,-89.5 24,-108.5 60,-108.5 60,-89.5 24,-89.5"/>
<text text-anchor="middle" x="42" y="-96.5" font-family="Helvetica,sans-Serif" font-size="10.00" fill="#000000">AST</text>
</a>
</g>
</g>
<!-- Node3&#45;&gt;Node2 -->
<g id="edge1" class="edge">
<title>Node3&#45;&gt;Node2</title>
<path fill="none" stroke="#191970" d="M40.4152,-79.2949C40.243,-76.5117 40.0958,-73.6848 40,-71 39.4772,-56.3427 39.4772,-52.6573 40,-38 40.2189,-31.8633 40.7068,-24.9845 41.1459,-19.5806"/>
<polygon fill="#191970" stroke="#191970" points="36.935,-79.6973 41.1459,-89.4194 43.9168,-79.1933 36.935,-79.6973"/>
</g>
<!-- Node3&#45;&gt;Node2 -->
<g id="edge2" class="edge">
<title>Node3&#45;&gt;Node2</title>
<path fill="none" stroke="#9a32cd" stroke-dasharray="5,2" d="M42,-79.2379C42,-60.7654 42,-33.957 42,-19.7259"/>
<polygon fill="#9a32cd" stroke="#9a32cd" points="38.5001,-79.4754 42,-89.4754 45.5001,-79.4755 38.5001,-79.4754"/>
<text text-anchor="middle" x="47" y="-63" font-family="Helvetica,sans-Serif" font-size="10.00" fill="#000000"> F</text>
<text text-anchor="middle" x="47" y="-52" font-family="Helvetica,sans-Serif" font-size="10.00" fill="#000000">Q</text>
<text text-anchor="middle" x="47" y="-41" font-family="Helvetica,sans-Serif" font-size="10.00" fill="#000000">T</text>
</g>
</g>
</svg>
