<?xml version="1.0" encoding="UTF-8" standalone="no"?>
<!DOCTYPE svg PUBLIC "-//W3C//DTD SVG 1.1//EN"
 "http://www.w3.org/Graphics/SVG/1.1/DTD/svg11.dtd">
<!-- Generated by graphviz version 2.40.1 (20161225.0304)
 -->
<!-- Title: ScopeInfo::Scope Pages: 1 -->
<svg width="470pt" height="254pt"
 viewBox="0.00 0.00 469.50 254.00" xmlns="http://www.w3.org/2000/svg" xmlns:xlink="http://www.w3.org/1999/xlink">
<g id="graph0" class="graph" transform="scale(1 1) rotate(0) translate(4 250)">
<title>ScopeInfo::Scope</title>
<polygon fill="#ffffff" stroke="transparent" points="-4,4 -4,-250 465.5,-250 465.5,4 -4,4"/>
<!-- Node1 -->
<g id="node1" class="node">
<title>Node1</title>
<polygon fill="#bfbfbf" stroke="#000000" points="102,-.5 102,-19.5 197,-19.5 197,-.5 102,-.5"/>
<text text-anchor="middle" x="149.5" y="-7.5" font-family="Helvetica,sans-Serif" font-size="10.00" fill="#000000">ScopeInfo::Scope</text>
</g>
<!-- Node3 -->
<g id="node2" class="node">
<title>Node3</title>
<g id="a_node2"><a xlink:href="classaworx_1_1lib_1_1time_1_1TimePointBase.html" target="_top" xlink:title="TimePointBase\&lt;chrono::steady_clock, Ticks\&gt;">
<polygon fill="#ffffff" stroke="#000000" points="243.5,-152 243.5,-171 461.5,-171 461.5,-152 243.5,-152"/>
<text text-anchor="middle" x="352.5" y="-159" font-family="Helvetica,sans-Serif" font-size="10.00" fill="#000000">TimePointBase&lt;chrono::steady_clock, Ticks&gt;</text>
</a>
</g>
</g>
<!-- Node2 -->
<g id="node5" class="node">
<title>Node2</title>
<g id="a_node5"><a xlink:href="classaworx_1_1lib_1_1time_1_1Ticks.html" target="_top" xlink:title="Ticks">
<polygon fill="#ffffff" stroke="#000000" points="299,-67.5 299,-86.5 340,-86.5 340,-67.5 299,-67.5"/>
<text text-anchor="middle" x="319.5" y="-74.5" font-family="Helvetica,sans-Serif" font-size="10.00" fill="#000000">Ticks</text>
</a>
</g>
</g>
<!-- Node3&#45;&gt;Node2 -->
<g id="edge2" class="edge">
<title>Node3&#45;&gt;Node2</title>
<path fill="none" stroke="#191970" d="M344.9297,-142.1154C338.1487,-124.7521 328.4882,-100.0153 323.2414,-86.5802"/>
<polygon fill="#191970" stroke="#191970" points="341.8165,-143.7651 348.7145,-151.8068 348.3369,-141.2187 341.8165,-143.7651"/>
</g>
<!-- Node5 -->
<g id="node3" class="node">
<title>Node5</title>
<g id="a_node3"><a xlink:href="classaworx_1_1lib_1_1strings_1_1StringBase.html" target="_top" xlink:title="StringBase\&lt;nchar\&gt;">
<polygon fill="#ffffff" stroke="#000000" points="48,-226.5 48,-245.5 149,-245.5 149,-226.5 48,-226.5"/>
<text text-anchor="middle" x="98.5" y="-233.5" font-family="Helvetica,sans-Serif" font-size="10.00" fill="#000000">StringBase&lt;nchar&gt;</text>
</a>
</g>
</g>
<!-- Node6 -->
<g id="node4" class="node">
<title>Node6</title>
<g id="a_node4"><a xlink:href="classaworx_1_1lib_1_1strings_1_1TStringBase.html" target="_top" xlink:title="TStringBase\&lt;nchar\&gt;">
<polygon fill="#ffffff" stroke="#000000" points="0,-152 0,-171 107,-171 107,-152 0,-152"/>
<text text-anchor="middle" x="53.5" y="-159" font-family="Helvetica,sans-Serif" font-size="10.00" fill="#000000">TStringBase&lt;nchar&gt;</text>
</a>
</g>
</g>
<!-- Node5&#45;&gt;Node6 -->
<g id="edge5" class="edge">
<title>Node5&#45;&gt;Node6</title>
<path fill="none" stroke="#191970" d="M87.3084,-217.4718C78.3976,-202.7193 66.289,-182.6729 59.2421,-171.0064"/>
<polygon fill="#191970" stroke="#191970" points="84.4508,-219.5103 92.617,-226.2604 90.4426,-215.8911 84.4508,-219.5103"/>
</g>
<!-- Node4 -->
<g id="node6" class="node">
<title>Node4</title>
<g id="a_node6"><a xlink:href="structaworx_1_1lib_1_1lox_1_1core_1_1ScopeInfo_1_1SourceFile.html" target="_top" xlink:title="Information of a single source file. Stored in field cache. ">
<polygon fill="#ffffff" stroke="#000000" points="118,-67.5 118,-86.5 181,-86.5 181,-67.5 118,-67.5"/>
<text text-anchor="middle" x="149.5" y="-74.5" font-family="Helvetica,sans-Serif" font-size="10.00" fill="#000000">SourceFile</text>
</a>
</g>
</g>
<!-- Node5&#45;&gt;Node4 -->
<g id="edge4" class="edge">
<title>Node5&#45;&gt;Node4</title>
<path fill="none" stroke="#9a32cd" stroke-dasharray="5,2" d="M105.6484,-216.9453C108.7763,-208.4306 112.4257,-198.2493 115.5,-189 127.9985,-151.3975 141.1836,-106.0959 146.7575,-86.6419"/>
<polygon fill="#9a32cd" stroke="#9a32cd" points="102.3635,-215.7371 102.1653,-226.3301 108.9261,-218.1728 102.3635,-215.7371"/>
<text text-anchor="middle" x="174.5" y="-181" font-family="Helvetica,sans-Serif" font-size="10.00" fill="#000000"> fullPath</text>
<text text-anchor="middle" x="174.5" y="-170" font-family="Helvetica,sans-Serif" font-size="10.00" fill="#000000">nameWOExt</text>
<text text-anchor="middle" x="174.5" y="-159" font-family="Helvetica,sans-Serif" font-size="10.00" fill="#000000">trimmedPathPrefix</text>
<text text-anchor="middle" x="174.5" y="-148" font-family="Helvetica,sans-Serif" font-size="10.00" fill="#000000">name</text>
<text text-anchor="middle" x="174.5" y="-137" font-family="Helvetica,sans-Serif" font-size="10.00" fill="#000000">trimmedPath</text>
</g>
<!-- Node6&#45;&gt;Node1 -->
<g id="edge6" class="edge">
<title>Node6&#45;&gt;Node1</title>
<path fill="none" stroke="#9a32cd" stroke-dasharray="5,2" d="M49.013,-141.9334C45.4883,-121.7277 43.1412,-89.9924 56.5,-67 70.1994,-43.4214 97.9128,-28.3336 119.5398,-19.6448"/>
<polygon fill="#9a32cd" stroke="#9a32cd" points="45.6024,-142.727 51.0001,-151.8438 52.4658,-141.3508 45.6024,-142.727"/>
<text text-anchor="middle" x="82.5" y="-74.5" font-family="Helvetica,sans-Serif" font-size="10.00" fill="#000000"> origMethod</text>
</g>
<!-- Node6&#45;&gt;Node4 -->
<g id="edge7" class="edge">
<title>Node6&#45;&gt;Node4</title>
<path fill="none" stroke="#9a32cd" stroke-dasharray="5,2" d="M63.8653,-142.8779C71.2244,-130.9195 81.9937,-115.6839 94.5,-105 103.38,-97.414 114.669,-91.2118 124.7058,-86.5904"/>
<polygon fill="#9a32cd" stroke="#9a32cd" points="60.7789,-141.2219 58.7266,-151.6161 66.8129,-144.7703 60.7789,-141.2219"/>
<text text-anchor="middle" x="112" y="-108" font-family="Helvetica,sans-Serif" font-size="10.00" fill="#000000"> origFile</text>
</g>
<!-- Node2&#45;&gt;Node1 -->
<g id="edge1" class="edge">
<title>Node2&#45;&gt;Node1</title>
<path fill="none" stroke="#9a32cd" stroke-dasharray="5,2" d="M289.4156,-65.1432C256.4061,-52.1336 204.076,-31.5094 173.639,-19.5136"/>
<polygon fill="#9a32cd" stroke="#9a32cd" points="288.4071,-68.5077 298.994,-68.9182 290.9739,-61.9953 288.4071,-68.5077"/>
<text text-anchor="middle" x="271" y="-41" font-family="Helvetica,sans-Serif" font-size="10.00" fill="#000000"> timeStamp</text>
</g>
<!-- Node4&#45;&gt;Node1 -->
<g id="edge3" class="edge">
<title>Node4&#45;&gt;Node1</title>
<path fill="none" stroke="#9a32cd" stroke-dasharray="5,2" d="M149.5,-57.1079C149.5,-44.714 149.5,-29.3263 149.5,-19.5817"/>
<polygon fill="#9a32cd" stroke="#9a32cd" points="146.0001,-57.4005 149.5,-67.4005 153.0001,-57.4006 146.0001,-57.4005"/>
<text text-anchor="middle" x="174" y="-41" font-family="Helvetica,sans-Serif" font-size="10.00" fill="#000000"> sourceFile</text>
</g>
</g>
</svg>
