<?xml version="1.0" encoding="UTF-8" standalone="no"?>
<!DOCTYPE svg PUBLIC "-//W3C//DTD SVG 1.1//EN"
 "http://www.w3.org/Graphics/SVG/1.1/DTD/svg11.dtd">
<!-- Generated by graphviz version 2.40.1 (20161225.0304)
 -->
<!-- Title: CommandDecl Pages: 1 -->
<svg width="1935pt" height="502pt"
 viewBox="0.00 0.00 1935.00 502.44" xmlns="http://www.w3.org/2000/svg" xmlns:xlink="http://www.w3.org/1999/xlink">
<g id="graph0" class="graph" transform="scale(1 1) rotate(0) translate(4 498.4358)">
<title>CommandDecl</title>
<polygon fill="#ffffff" stroke="transparent" points="-4,4 -4,-498.4358 1931,-498.4358 1931,4 -4,4"/>
<!-- Node2 -->
<g id="node1" class="node">
<title>Node2</title>
<polygon fill="#bfbfbf" stroke="#000000" points="1197,-183.9358 1197,-202.9358 1279,-202.9358 1279,-183.9358 1197,-183.9358"/>
<text text-anchor="middle" x="1238" y="-190.9358" font-family="Helvetica,sans-Serif" font-size="10.00" fill="#000000">CommandDecl</text>
</g>
<!-- Node62 -->
<g id="node13" class="node">
<title>Node62</title>
<polygon fill="#ffffff" stroke="#bfbfbf" points="1474,-187.9358 1474,-206.9358 1611,-206.9358 1611,-187.9358 1474,-187.9358"/>
<text text-anchor="middle" x="1542.5" y="-194.9358" font-family="Helvetica,sans-Serif" font-size="10.00" fill="#000000">vector&lt;cli::CommandDecl&gt;</text>
</g>
<!-- Node2&#45;&gt;Node62 -->
<g id="edge2" class="edge">
<title>Node2&#45;&gt;Node62</title>
<path fill="none" stroke="#9a32cd" stroke-dasharray="5,2" d="M1289.1392,-194.1076C1339.8345,-194.7735 1417.8256,-195.798 1473.884,-196.5344"/>
<polygon fill="#9a32cd" stroke="#9a32cd" points="1289.1114,-190.607 1279.0662,-193.9752 1289.0194,-197.6064 1289.1114,-190.607"/>
<text text-anchor="middle" x="1323.5" y="-197.4358" font-family="Helvetica,sans-Serif" font-size="10.00" fill="#000000"> elements</text>
</g>
<!-- Node53 -->
<g id="node17" class="node">
<title>Node53</title>
<g id="a_node17"><a xlink:href="structaworx_1_1lib_1_1cli_1_1Command.html" target="_top" xlink:title="Command">
<polygon fill="#ffffff" stroke="#ff0000" points="1381,-144.9358 1381,-163.9358 1443,-163.9358 1443,-144.9358 1381,-144.9358"/>
<text text-anchor="middle" x="1412" y="-151.9358" font-family="Helvetica,sans-Serif" font-size="10.00" fill="#000000">Command</text>
</a>
</g>
</g>
<!-- Node2&#45;&gt;Node53 -->
<g id="edge1" class="edge">
<title>Node2&#45;&gt;Node53</title>
<path fill="none" stroke="#9a32cd" stroke-dasharray="5,2" d="M1259.8963,-178.0129C1270.576,-171.3435 1283.9181,-164.2124 1297,-160.4358 1324.4675,-152.5062 1357.1317,-151.5633 1380.6164,-152.2759"/>
<polygon fill="#9a32cd" stroke="#9a32cd" points="1257.7201,-175.2542 1251.2699,-183.6593 1261.5537,-181.1112 1257.7201,-175.2542"/>
<text text-anchor="middle" x="1323.5" y="-163.4358" font-family="Helvetica,sans-Serif" font-size="10.00" fill="#000000"> Declaration</text>
</g>
<!-- Node32 -->
<g id="node2" class="node">
<title>Node32</title>
<polygon fill="#ffffff" stroke="#bfbfbf" points="0,-302.9358 0,-321.9358 104,-321.9358 104,-302.9358 0,-302.9358"/>
<text text-anchor="middle" x="52" y="-309.9358" font-family="Helvetica,sans-Serif" font-size="10.00" fill="#000000">vector&lt;StringBase&gt;</text>
</g>
<!-- Node43 -->
<g id="node19" class="node">
<title>Node43</title>
<g id="a_node19"><a xlink:href="classaworx_1_1lib_1_1cli_1_1CLIApp.html" target="_top" xlink:title="CLIApp">
<polygon fill="#ffffff" stroke="#000000" points="1877,-265.9358 1877,-284.9358 1927,-284.9358 1927,-265.9358 1877,-265.9358"/>
<text text-anchor="middle" x="1902" y="-272.9358" font-family="Helvetica,sans-Serif" font-size="10.00" fill="#000000">CLIApp</text>
</a>
</g>
</g>
<!-- Node32&#45;&gt;Node43 -->
<g id="edge13" class="edge">
<title>Node32&#45;&gt;Node43</title>
<path fill="none" stroke="#9a32cd" stroke-dasharray="5,2" d="M61.1947,-330.9021C83.606,-372.9938 145.3994,-472.4358 229,-472.4358 229,-472.4358 229,-472.4358 1689,-472.4358 1765.1856,-472.4358 1802.1917,-501.2005 1859,-450.4358 1884.1946,-427.9215 1897.4856,-318.8151 1901.024,-285.269"/>
<polygon fill="#9a32cd" stroke="#9a32cd" points="64.2755,-329.2401 56.573,-321.9654 58.0578,-332.4556 64.2755,-329.2401"/>
<text text-anchor="middle" x="943" y="-486.4358" font-family="Helvetica,sans-Serif" font-size="10.00" fill="#000000"> OptionArgsIgnored</text>
<text text-anchor="middle" x="943" y="-475.4358" font-family="Helvetica,sans-Serif" font-size="10.00" fill="#000000">ArgStrings</text>
</g>
<!-- Node19 -->
<g id="node21" class="node">
<title>Node19</title>
<g id="a_node21"><a xlink:href="classaworx_1_1lib_1_1config_1_1Configuration.html" target="_top" xlink:title="Configuration">
<polygon fill="#ffffff" stroke="#ff0000" points="192,-142.9358 192,-161.9358 266,-161.9358 266,-142.9358 192,-142.9358"/>
<text text-anchor="middle" x="229" y="-149.9358" font-family="Helvetica,sans-Serif" font-size="10.00" fill="#000000">Configuration</text>
</a>
</g>
</g>
<!-- Node32&#45;&gt;Node19 -->
<g id="edge12" class="edge">
<title>Node32&#45;&gt;Node19</title>
<path fill="none" stroke="#9a32cd" stroke-dasharray="5,2" d="M70.0337,-296.1341C106.6849,-263.0031 188.8881,-188.6951 218.2894,-162.1177"/>
<polygon fill="#9a32cd" stroke="#9a32cd" points="67.6134,-293.6039 62.5421,-302.9062 72.3075,-298.7968 67.6134,-293.6039"/>
<text text-anchor="middle" x="148" y="-249.4358" font-family="Helvetica,sans-Serif" font-size="10.00" fill="#000000"> TrueValues</text>
</g>
<!-- Node37 -->
<g id="node3" class="node">
<title>Node37</title>
<polygon fill="#ffffff" stroke="#bfbfbf" points="897,-9.9358 897,-28.9358 989,-28.9358 989,-9.9358 897,-9.9358"/>
<text text-anchor="middle" x="943" y="-16.9358" font-family="Helvetica,sans-Serif" font-size="10.00" fill="#000000">vector&lt;Library *&gt;</text>
</g>
<!-- Node4 -->
<g id="node18" class="node">
<title>Node4</title>
<g id="a_node18"><a xlink:href="classaworx_1_1lib_1_1lang_1_1Library.html" target="_top" xlink:title="Library">
<polygon fill="#ffffff" stroke="#000000" points="689,-58.9358 689,-77.9358 735,-77.9358 735,-58.9358 689,-58.9358"/>
<text text-anchor="middle" x="712" y="-65.9358" font-family="Helvetica,sans-Serif" font-size="10.00" fill="#000000">Library</text>
</a>
</g>
</g>
<!-- Node37&#45;&gt;Node4 -->
<g id="edge14" class="edge">
<title>Node37&#45;&gt;Node4</title>
<path fill="none" stroke="#9a32cd" stroke-dasharray="5,2" d="M886.8573,-24.81C855.1677,-28.5616 815.0179,-34.5223 780,-43.4358 764.3975,-47.4073 747.3975,-53.6573 734.2981,-58.9144"/>
<polygon fill="#9a32cd" stroke="#9a32cd" points="887.2944,-28.2829 896.8316,-23.6686 886.4985,-21.3283 887.2944,-28.2829"/>
<text text-anchor="middle" x="812" y="-46.4358" font-family="Helvetica,sans-Serif" font-size="10.00" fill="#000000"> dependencies</text>
</g>
<!-- Node38 -->
<g id="node4" class="node">
<title>Node38</title>
<polygon fill="#ffffff" stroke="#bfbfbf" points="334,-58.9358 334,-77.9358 510,-77.9358 510,-58.9358 334,-58.9358"/>
<text text-anchor="middle" x="422" y="-65.9358" font-family="Helvetica,sans-Serif" font-size="10.00" fill="#000000">vector&lt;pair&lt;const char *, uint64_t&gt;&gt;</text>
</g>
<!-- Node38&#45;&gt;Node4 -->
<g id="edge15" class="edge">
<title>Node38&#45;&gt;Node4</title>
<path fill="none" stroke="#9a32cd" stroke-dasharray="5,2" d="M520.4993,-68.4358C580.6404,-68.4358 652.7178,-68.4358 688.8897,-68.4358"/>
<polygon fill="#9a32cd" stroke="#9a32cd" points="520.1908,-64.9359 510.1907,-68.4358 520.1907,-71.9359 520.1908,-64.9359"/>
<text text-anchor="middle" x="586" y="-71.4358" font-family="Helvetica,sans-Serif" font-size="10.00" fill="#000000"> CompilationFlagMeanings</text>
</g>
<!-- Node44 -->
<g id="node5" class="node">
<title>Node44</title>
<polygon fill="#ffffff" stroke="#bfbfbf" points="1629,-423.9358 1629,-442.9358 1749,-442.9358 1749,-423.9358 1629,-423.9358"/>
<text text-anchor="middle" x="1689" y="-430.9358" font-family="Helvetica,sans-Serif" font-size="10.00" fill="#000000">vector&lt;cli::OptionDecl&gt;</text>
</g>
<!-- Node44&#45;&gt;Node43 -->
<g id="edge21" class="edge">
<title>Node44&#45;&gt;Node43</title>
<path fill="none" stroke="#9a32cd" stroke-dasharray="5,2" d="M1759.5806,-436.8545C1793.2239,-434.8432 1831.9306,-426.7351 1859,-403.4358 1877.567,-387.4547 1894.4779,-312.2533 1900.0615,-285.1789"/>
<polygon fill="#9a32cd" stroke="#9a32cd" points="1759.162,-433.3691 1749.3206,-437.293 1759.461,-440.3627 1759.162,-433.3691"/>
<text text-anchor="middle" x="1813" y="-438.4358" font-family="Helvetica,sans-Serif" font-size="10.00" fill="#000000"> OptionDecls</text>
</g>
<!-- Node47 -->
<g id="node6" class="node">
<title>Node47</title>
<polygon fill="#ffffff" stroke="#bfbfbf" points="862,-362.9358 862,-381.9358 1024,-381.9358 1024,-362.9358 862,-362.9358"/>
<text text-anchor="middle" x="943" y="-369.9358" font-family="Helvetica,sans-Serif" font-size="10.00" fill="#000000">map&lt;Enum, vector&lt;cli::Option&gt;&gt;</text>
</g>
<!-- Node47&#45;&gt;Node43 -->
<g id="edge23" class="edge">
<title>Node47&#45;&gt;Node43</title>
<path fill="none" stroke="#9a32cd" stroke-dasharray="5,2" d="M1034.3394,-374.8275C1183.8379,-378.1536 1490.0678,-382.5032 1749,-370.4358 1798.0373,-368.1504 1818.3887,-388.0147 1859,-360.4358 1885.4049,-342.5044 1896.4363,-303.2983 1900.2666,-285.0876"/>
<polygon fill="#9a32cd" stroke="#9a32cd" points="1034.3617,-371.3272 1024.2851,-374.6 1034.2033,-378.3254 1034.3617,-371.3272"/>
<text text-anchor="middle" x="1412" y="-391.4358" font-family="Helvetica,sans-Serif" font-size="10.00" fill="#000000"> OptionsOverwritten</text>
<text text-anchor="middle" x="1412" y="-380.4358" font-family="Helvetica,sans-Serif" font-size="10.00" fill="#000000">OptionsFound</text>
</g>
<!-- Node48 -->
<g id="node7" class="node">
<title>Node48</title>
<polygon fill="#ffffff" stroke="#bfbfbf" points="662,-362.9358 662,-381.9358 762,-381.9358 762,-362.9358 662,-362.9358"/>
<text text-anchor="middle" x="712" y="-369.9358" font-family="Helvetica,sans-Serif" font-size="10.00" fill="#000000">vector&lt;cli::Option&gt;</text>
</g>
<!-- Node48&#45;&gt;Node47 -->
<g id="edge24" class="edge">
<title>Node48&#45;&gt;Node47</title>
<path fill="none" stroke="#9a32cd" stroke-dasharray="5,2" d="M772.2983,-372.4358C799.5795,-372.4358 832.2331,-372.4358 861.6418,-372.4358"/>
<polygon fill="#9a32cd" stroke="#9a32cd" points="772.1236,-368.9359 762.1236,-372.4358 772.1235,-375.9359 772.1236,-368.9359"/>
<text text-anchor="middle" x="812" y="-375.4358" font-family="Helvetica,sans-Serif" font-size="10.00" fill="#000000"> elements</text>
</g>
<!-- Node12 -->
<g id="node8" class="node">
<title>Node12</title>
<polygon fill="#ffffff" stroke="#bfbfbf" points="1634,-341.9358 1634,-360.9358 1744,-360.9358 1744,-341.9358 1634,-341.9358"/>
<text text-anchor="middle" x="1689" y="-348.9358" font-family="Helvetica,sans-Serif" font-size="10.00" fill="#000000">vector&lt;AStringBase&gt;</text>
</g>
<!-- Node12&#45;&gt;Node43 -->
<g id="edge9" class="edge">
<title>Node12&#45;&gt;Node43</title>
<path fill="none" stroke="#9a32cd" stroke-dasharray="5,2" d="M1754.2502,-348.4304C1787.2417,-344.6698 1826.9663,-336.5829 1859,-319.4358 1874.4435,-311.1691 1887.7472,-295.4365 1895.3147,-285.1963"/>
<polygon fill="#9a32cd" stroke="#9a32cd" points="1753.8311,-344.955 1744.2435,-349.4638 1754.5502,-351.9179 1753.8311,-344.955"/>
<text text-anchor="middle" x="1813" y="-348.4358" font-family="Helvetica,sans-Serif" font-size="10.00" fill="#000000"> convertedArgStrings</text>
</g>
<!-- Node51 -->
<g id="node9" class="node">
<title>Node51</title>
<polygon fill="#ffffff" stroke="#bfbfbf" points="1648,-303.9358 1648,-322.9358 1730,-322.9358 1730,-303.9358 1648,-303.9358"/>
<text text-anchor="middle" x="1689" y="-310.9358" font-family="Helvetica,sans-Serif" font-size="10.00" fill="#000000">vector&lt;size_t&gt;</text>
</g>
<!-- Node51&#45;&gt;Node43 -->
<g id="edge25" class="edge">
<title>Node51&#45;&gt;Node43</title>
<path fill="none" stroke="#9a32cd" stroke-dasharray="5,2" d="M1740.3961,-308.5428C1774.3424,-304.7337 1819.6574,-298.5441 1859,-289.4358 1864.813,-288.09 1870.9643,-286.3094 1876.7408,-284.4708"/>
<polygon fill="#9a32cd" stroke="#9a32cd" points="1739.8072,-305.0862 1730.2453,-309.6491 1740.5656,-312.0449 1739.8072,-305.0862"/>
<text text-anchor="middle" x="1813" y="-307.4358" font-family="Helvetica,sans-Serif" font-size="10.00" fill="#000000"> ArgsLeft</text>
</g>
<!-- Node52 -->
<g id="node10" class="node">
<title>Node52</title>
<polygon fill="#ffffff" stroke="#bfbfbf" points="1631,-142.9358 1631,-161.9358 1747,-161.9358 1747,-142.9358 1631,-142.9358"/>
<text text-anchor="middle" x="1689" y="-149.9358" font-family="Helvetica,sans-Serif" font-size="10.00" fill="#000000">vector&lt;cli::Command&gt;</text>
</g>
<!-- Node52&#45;&gt;Node43 -->
<g id="edge26" class="edge">
<title>Node52&#45;&gt;Node43</title>
<path fill="none" stroke="#9a32cd" stroke-dasharray="5,2" d="M1757.4119,-145.6937C1791.0551,-145.9021 1830.4084,-151.8187 1859,-173.4358 1889.3521,-196.3839 1898.4761,-244.8511 1901.0525,-265.6349"/>
<polygon fill="#9a32cd" stroke="#9a32cd" points="1757.1352,-142.1963 1747.1725,-145.8012 1757.2087,-149.1959 1757.1352,-142.1963"/>
<text text-anchor="middle" x="1813" y="-176.4358" font-family="Helvetica,sans-Serif" font-size="10.00" fill="#000000"> CommandsParsed</text>
</g>
<!-- Node58 -->
<g id="node11" class="node">
<title>Node58</title>
<polygon fill="#ffffff" stroke="#bfbfbf" points="865.5,-267.9358 865.5,-286.9358 1020.5,-286.9358 1020.5,-267.9358 865.5,-267.9358"/>
<text text-anchor="middle" x="943" y="-274.9358" font-family="Helvetica,sans-Serif" font-size="10.00" fill="#000000">map&lt;Enum, cli::ExitCodeDecl&gt;</text>
</g>
<!-- Node58&#45;&gt;Node43 -->
<g id="edge30" class="edge">
<title>Node58&#45;&gt;Node43</title>
<path fill="none" stroke="#9a32cd" stroke-dasharray="5,2" d="M1030.9751,-277.2523C1239.7866,-276.8168 1756.8054,-275.7386 1876.8305,-275.4883"/>
<polygon fill="#9a32cd" stroke="#9a32cd" points="1030.6593,-273.7529 1020.6667,-277.2738 1030.674,-280.7529 1030.6593,-273.7529"/>
<text text-anchor="middle" x="1412" y="-279.4358" font-family="Helvetica,sans-Serif" font-size="10.00" fill="#000000"> ExitCodeDecls</text>
</g>
<!-- Node61 -->
<g id="node12" class="node">
<title>Node61</title>
<polygon fill="#ffffff" stroke="#bfbfbf" points="1042,-104.9358 1042,-123.9358 1179,-123.9358 1179,-104.9358 1042,-104.9358"/>
<text text-anchor="middle" x="1110.5" y="-111.9358" font-family="Helvetica,sans-Serif" font-size="10.00" fill="#000000">vector&lt;cli::ParameterDecl&gt;</text>
</g>
<!-- Node61&#45;&gt;Node43 -->
<g id="edge32" class="edge">
<title>Node61&#45;&gt;Node43</title>
<path fill="none" stroke="#9a32cd" stroke-dasharray="5,2" d="M1189.0943,-114.4358C1229.298,-114.4358 1279.0123,-114.4358 1323.5,-114.4358 1323.5,-114.4358 1323.5,-114.4358 1689,-114.4358 1765.5026,-114.4358 1800.9283,-91.633 1859,-141.4358 1878.4735,-158.1364 1894.9335,-237.6079 1900.2201,-265.6287"/>
<polygon fill="#9a32cd" stroke="#9a32cd" points="1189.087,-110.9359 1179.0869,-114.4358 1189.0869,-117.9359 1189.087,-110.9359"/>
<text text-anchor="middle" x="1412" y="-117.4358" font-family="Helvetica,sans-Serif" font-size="10.00" fill="#000000"> ParameterDecls</text>
</g>
<!-- Node62&#45;&gt;Node43 -->
<g id="edge33" class="edge">
<title>Node62&#45;&gt;Node43</title>
<path fill="none" stroke="#9a32cd" stroke-dasharray="5,2" d="M1621.1644,-187.2282C1688.3176,-182.2583 1785.4207,-184.2121 1859,-223.4358 1876.9872,-233.0244 1890.388,-253.6012 1897.1274,-265.7994"/>
<polygon fill="#9a32cd" stroke="#9a32cd" points="1620.7521,-183.75 1611.0666,-188.0442 1621.316,-190.7272 1620.7521,-183.75"/>
<text text-anchor="middle" x="1689" y="-192.4358" font-family="Helvetica,sans-Serif" font-size="10.00" fill="#000000"> CommandDecls</text>
</g>
<!-- Node63 -->
<g id="node14" class="node">
<title>Node63</title>
<polygon fill="#ffffff" stroke="#bfbfbf" points="871.5,-172.9358 871.5,-191.9358 1014.5,-191.9358 1014.5,-172.9358 871.5,-172.9358"/>
<text text-anchor="middle" x="943" y="-179.9358" font-family="Helvetica,sans-Serif" font-size="10.00" fill="#000000">vector&lt;cli::ParameterDecl *&gt;</text>
</g>
<!-- Node63&#45;&gt;Node2 -->
<g id="edge34" class="edge">
<title>Node63&#45;&gt;Node2</title>
<path fill="none" stroke="#9a32cd" stroke-dasharray="5,2" d="M1025.0347,-185.4947C1080.9477,-187.5796 1152.6055,-190.2516 1196.8997,-191.9032"/>
<polygon fill="#9a32cd" stroke="#9a32cd" points="1024.9114,-181.9878 1014.7879,-185.1126 1024.6505,-188.9829 1024.9114,-181.9878"/>
<text text-anchor="middle" x="1110.5" y="-193.4358" font-family="Helvetica,sans-Serif" font-size="10.00" fill="#000000"> Parameters</text>
</g>
<!-- Node3 -->
<g id="node15" class="node">
<title>Node3</title>
<g id="a_node15"><a xlink:href="structaworx_1_1lib_1_1cli_1_1ArgumentDecl.html" target="_top" xlink:title="ArgumentDecl\&lt;CommandDecl\&gt;">
<polygon fill="#ffffff" stroke="#000000" points="865,-210.9358 865,-229.9358 1021,-229.9358 1021,-210.9358 865,-210.9358"/>
<text text-anchor="middle" x="943" y="-217.9358" font-family="Helvetica,sans-Serif" font-size="10.00" fill="#000000">ArgumentDecl&lt;CommandDecl&gt;</text>
</a>
</g>
</g>
<!-- Node3&#45;&gt;Node2 -->
<g id="edge3" class="edge">
<title>Node3&#45;&gt;Node2</title>
<path fill="none" stroke="#191970" d="M1031.2728,-216.8971C1075.7072,-214.4956 1130.337,-210.6004 1179,-204.4358 1184.7887,-203.7025 1190.8681,-202.7636 1196.834,-201.7442"/>
<polygon fill="#191970" stroke="#191970" points="1030.8853,-213.4125 1021.0824,-217.4315 1031.2519,-220.4029 1030.8853,-213.4125"/>
</g>
<!-- Node5 -->
<g id="node16" class="node">
<title>Node5</title>
<g id="a_node16"><a xlink:href="classaworx_1_1lib_1_1strings_1_1TStringBase.html" target="_top" xlink:title="TStringBase\&lt;character\&gt;">
<polygon fill="#ffffff" stroke="#ff0000" points="360.5,-20.9358 360.5,-39.9358 483.5,-39.9358 483.5,-20.9358 360.5,-20.9358"/>
<text text-anchor="middle" x="422" y="-27.9358" font-family="Helvetica,sans-Serif" font-size="10.00" fill="#000000">TStringBase&lt;character&gt;</text>
</a>
</g>
</g>
<!-- Node5&#45;&gt;Node4 -->
<g id="edge7" class="edge">
<title>Node5&#45;&gt;Node4</title>
<path fill="none" stroke="#9a32cd" stroke-dasharray="5,2" d="M494.1868,-35.8214C537.7387,-39.5899 594.2448,-45.3975 644,-53.4358 659.0376,-55.8652 675.7455,-59.5369 688.8366,-62.6395"/>
<polygon fill="#9a32cd" stroke="#9a32cd" points="494.2324,-32.3128 483.9722,-34.9543 493.6402,-39.2877 494.2324,-32.3128"/>
<text text-anchor="middle" x="586" y="-56.4358" font-family="Helvetica,sans-Serif" font-size="10.00" fill="#000000"> ResourceCategory</text>
</g>
<!-- Node53&#45;&gt;Node52 -->
<g id="edge27" class="edge">
<title>Node53&#45;&gt;Node52</title>
<path fill="none" stroke="#9a32cd" stroke-dasharray="5,2" d="M1453.382,-154.137C1500.48,-153.7969 1577.7436,-153.2391 1630.875,-152.8555"/>
<polygon fill="#9a32cd" stroke="#9a32cd" points="1453.2114,-150.638 1443.237,-154.2102 1453.262,-157.6379 1453.2114,-150.638"/>
<text text-anchor="middle" x="1542.5" y="-156.4358" font-family="Helvetica,sans-Serif" font-size="10.00" fill="#000000"> elements</text>
</g>
<!-- Node4&#45;&gt;Node37 -->
<g id="edge5" class="edge">
<title>Node4&#45;&gt;Node37</title>
<path fill="none" stroke="#9a32cd" stroke-dasharray="5,2" d="M725.9073,-50.8171C738.3429,-36.6006 757.9675,-17.6617 780,-9.4358 823.0288,6.6291 876.8729,-1.6426 910.6132,-9.8832"/>
<polygon fill="#9a32cd" stroke="#9a32cd" points="723.1893,-48.6113 719.4522,-58.5252 728.556,-53.1056 723.1893,-48.6113"/>
<text text-anchor="middle" x="812" y="-12.4358" font-family="Helvetica,sans-Serif" font-size="10.00" fill="#000000"> elements</text>
</g>
<!-- Node4&#45;&gt;Node3 -->
<g id="edge4" class="edge">
<title>Node4&#45;&gt;Node3</title>
<path fill="none" stroke="#9a32cd" stroke-dasharray="5,2" d="M728.0008,-85.2814C740.9733,-98.0985 760.2805,-115.3633 780,-126.4358 806.1031,-141.0926 822.782,-126.3172 844,-147.4358 861.9305,-165.2823 843.3134,-184.3827 862,-201.4358 866.161,-205.2331 870.9341,-208.3143 876.0362,-210.8096"/>
<polygon fill="#9a32cd" stroke="#9a32cd" points="730.3077,-82.6359 720.7952,-77.9708 725.3223,-87.5498 730.3077,-82.6359"/>
<text text-anchor="middle" x="812" y="-150.4358" font-family="Helvetica,sans-Serif" font-size="10.00" fill="#000000"> ResLib</text>
</g>
<!-- Node4&#45;&gt;Node43 -->
<g id="edge6" class="edge">
<title>Node4&#45;&gt;Node43</title>
<path fill="none" stroke="#9a32cd" stroke-dasharray="5,2" d="M745.3302,-68.4358C790.2323,-68.4358 872.643,-68.4358 943,-68.4358 943,-68.4358 943,-68.4358 1689,-68.4358 1766.2311,-68.4358 1803.3705,-50.8634 1859,-104.4358 1882.8136,-127.3687 1897.0541,-233.3396 1900.9228,-265.8957"/>
<polygon fill="#9a32cd" stroke="#9a32cd" points="745.2797,-64.9359 735.2797,-68.4358 745.2797,-71.9359 745.2797,-64.9359"/>
<text text-anchor="middle" x="1323.5" y="-71.4358" font-family="Helvetica,sans-Serif" font-size="10.00" fill="#000000"> ResLibrary</text>
</g>
<!-- Node43&#45;&gt;Node2 -->
<g id="edge20" class="edge">
<title>Node43&#45;&gt;Node2</title>
<path fill="none" stroke="#9a32cd" stroke-dasharray="5,2" d="M1867.0753,-263.3556C1864.3615,-262.635 1861.6479,-261.9822 1859,-261.4358 1613.332,-210.7378 1543.8572,-253.9842 1297,-209.4358 1287.9134,-207.796 1278.1888,-205.4229 1269.3091,-203.0042"/>
<polygon fill="#9a32cd" stroke="#9a32cd" points="1866.2059,-266.7479 1876.7862,-266.1934 1868.1694,-260.0289 1866.2059,-266.7479"/>
<text text-anchor="middle" x="1542.5" y="-236.4358" font-family="Helvetica,sans-Serif" font-size="10.00" fill="#000000"> Parent</text>
</g>
<!-- Node7 -->
<g id="node20" class="node">
<title>Node7</title>
<g id="a_node20"><a xlink:href="classaworx_1_1lib_1_1lang_1_1Resources.html" target="_top" xlink:title="Resources">
<polygon fill="#ffffff" stroke="#ff0000" points="390,-96.9358 390,-115.9358 454,-115.9358 454,-96.9358 390,-96.9358"/>
<text text-anchor="middle" x="422" y="-103.9358" font-family="Helvetica,sans-Serif" font-size="10.00" fill="#000000">Resources</text>
</a>
</g>
</g>
<!-- Node7&#45;&gt;Node4 -->
<g id="edge8" class="edge">
<title>Node7&#45;&gt;Node4</title>
<path fill="none" stroke="#9a32cd" stroke-dasharray="5,2" d="M464.3245,-103.0691C509.1111,-99.2245 581.7734,-92.1823 644,-82.4358 659.0041,-80.0857 675.7114,-76.6575 688.8106,-73.7818"/>
<polygon fill="#9a32cd" stroke="#9a32cd" points="463.7802,-99.6026 454.1103,-103.9319 464.3694,-106.5777 463.7802,-99.6026"/>
<text text-anchor="middle" x="586" y="-99.4358" font-family="Helvetica,sans-Serif" font-size="10.00" fill="#000000"> Res</text>
</g>
<!-- Node19&#45;&gt;Node4 -->
<g id="edge10" class="edge">
<title>Node19&#45;&gt;Node4</title>
<path fill="none" stroke="#9a32cd" stroke-dasharray="5,2" d="M276.0969,-154.8026C354.687,-157.2271 516.517,-155.6702 644,-111.4358 665.6415,-103.9265 687.4621,-88.3913 700.3506,-78.1952"/>
<polygon fill="#9a32cd" stroke="#9a32cd" points="276.14,-151.3021 266.0254,-154.4554 275.8988,-158.2979 276.14,-151.3021"/>
<text text-anchor="middle" x="422" y="-158.4358" font-family="Helvetica,sans-Serif" font-size="10.00" fill="#000000"> Config</text>
</g>
<!-- Node19&#45;&gt;Node7 -->
<g id="edge11" class="edge">
<title>Node19&#45;&gt;Node7</title>
<path fill="none" stroke="#9a32cd" stroke-dasharray="5,2" d="M256.1258,-138.3157C264.8342,-134.2731 274.6495,-130.2141 284,-127.4358 319.4263,-116.9096 361.6165,-111.4723 389.9405,-108.7962"/>
<polygon fill="#9a32cd" stroke="#9a32cd" points="254.3258,-135.2983 246.8479,-142.8037 257.3741,-141.5998 254.3258,-135.2983"/>
<text text-anchor="middle" x="300" y="-130.4358" font-family="Helvetica,sans-Serif" font-size="10.00" fill="#000000"> Config</text>
</g>
<!-- Node39 -->
<g id="node22" class="node">
<title>Node39</title>
<g id="a_node22"><a xlink:href="structaworx_1_1lib_1_1lang_1_1Enum.html" target="_top" xlink:title="Enum">
<polygon fill="#ffffff" stroke="#000000" points="691,-284.9358 691,-303.9358 733,-303.9358 733,-284.9358 691,-284.9358"/>
<text text-anchor="middle" x="712" y="-291.9358" font-family="Helvetica,sans-Serif" font-size="10.00" fill="#000000">Enum</text>
</a>
</g>
</g>
<!-- Node39&#45;&gt;Node47 -->
<g id="edge17" class="edge">
<title>Node39&#45;&gt;Node47</title>
<path fill="none" stroke="#9a32cd" stroke-dasharray="5,2" d="M742.85,-304.8527C787.8903,-320.0611 871.0166,-348.1297 914.617,-362.8519"/>
<polygon fill="#9a32cd" stroke="#9a32cd" points="743.9121,-301.5172 733.3179,-301.634 741.6726,-308.1493 743.9121,-301.5172"/>
<text text-anchor="middle" x="812" y="-340.4358" font-family="Helvetica,sans-Serif" font-size="10.00" fill="#000000"> keys</text>
</g>
<!-- Node39&#45;&gt;Node58 -->
<g id="edge18" class="edge">
<title>Node39&#45;&gt;Node58</title>
<path fill="none" stroke="#9a32cd" stroke-dasharray="5,2" d="M743.5773,-292.1119C774.7947,-289.8145 823.7864,-286.2091 865.3975,-283.1468"/>
<polygon fill="#9a32cd" stroke="#9a32cd" points="743.034,-288.6423 733.3179,-292.8669 743.5478,-295.6235 743.034,-288.6423"/>
<text text-anchor="middle" x="812" y="-291.4358" font-family="Helvetica,sans-Serif" font-size="10.00" fill="#000000"> keys</text>
</g>
<!-- Node39&#45;&gt;Node3 -->
<g id="edge16" class="edge">
<title>Node39&#45;&gt;Node3</title>
<path fill="none" stroke="#9a32cd" stroke-dasharray="5,2" d="M742.7107,-282.6991C754.3376,-278.3734 767.7269,-273.5325 780,-269.4358 824.2864,-254.6533 875.9968,-239.4528 909.0976,-229.9813"/>
<polygon fill="#9a32cd" stroke="#9a32cd" points="741.1519,-279.5456 733.0193,-286.3361 743.6115,-286.0993 741.1519,-279.5456"/>
<text text-anchor="middle" x="812" y="-272.4358" font-family="Helvetica,sans-Serif" font-size="10.00" fill="#000000"> EnumBox</text>
</g>
<!-- Node40 -->
<g id="node23" class="node">
<title>Node40</title>
<g id="a_node23"><a xlink:href="classaworx_1_1lib_1_1boxing_1_1Box.html" target="_top" xlink:title="Box">
<polygon fill="#ffffff" stroke="#ff0000" points="405,-284.9358 405,-303.9358 439,-303.9358 439,-284.9358 405,-284.9358"/>
<text text-anchor="middle" x="422" y="-291.9358" font-family="Helvetica,sans-Serif" font-size="10.00" fill="#000000">Box</text>
</a>
</g>
</g>
<!-- Node40&#45;&gt;Node39 -->
<g id="edge19" class="edge">
<title>Node40&#45;&gt;Node39</title>
<path fill="none" stroke="#191970" d="M449.4092,-294.4358C506.8548,-294.4358 638.8303,-294.4358 690.602,-294.4358"/>
<polygon fill="#191970" stroke="#191970" points="449.2724,-290.9359 439.2723,-294.4358 449.2723,-297.9359 449.2724,-290.9359"/>
</g>
<!-- Node45 -->
<g id="node24" class="node">
<title>Node45</title>
<g id="a_node24"><a xlink:href="structaworx_1_1lib_1_1cli_1_1OptionDecl.html" target="_top" xlink:title="OptionDecl">
<polygon fill="#ffffff" stroke="#ff0000" points="1379.5,-424.9358 1379.5,-443.9358 1444.5,-443.9358 1444.5,-424.9358 1379.5,-424.9358"/>
<text text-anchor="middle" x="1412" y="-431.9358" font-family="Helvetica,sans-Serif" font-size="10.00" fill="#000000">OptionDecl</text>
</a>
</g>
</g>
<!-- Node45&#45;&gt;Node44 -->
<g id="edge22" class="edge">
<title>Node45&#45;&gt;Node44</title>
<path fill="none" stroke="#9a32cd" stroke-dasharray="5,2" d="M1454.6542,-434.2818C1501.2566,-434.1136 1576.267,-433.8428 1628.8391,-433.653"/>
<polygon fill="#9a32cd" stroke="#9a32cd" points="1454.5772,-430.782 1444.59,-434.3181 1454.6026,-437.7819 1454.5772,-430.782"/>
<text text-anchor="middle" x="1542.5" y="-436.4358" font-family="Helvetica,sans-Serif" font-size="10.00" fill="#000000"> elements</text>
</g>
<!-- Node56 -->
<g id="node25" class="node">
<title>Node56</title>
<g id="a_node25"><a xlink:href="structaworx_1_1lib_1_1cli_1_1ParameterDecl.html" target="_top" xlink:title="ParameterDecl">
<polygon fill="#ffffff" stroke="#ff0000" points="671,-136.9358 671,-155.9358 753,-155.9358 753,-136.9358 671,-136.9358"/>
<text text-anchor="middle" x="712" y="-143.9358" font-family="Helvetica,sans-Serif" font-size="10.00" fill="#000000">ParameterDecl</text>
</a>
</g>
</g>
<!-- Node56&#45;&gt;Node61 -->
<g id="edge28" class="edge">
<title>Node56&#45;&gt;Node61</title>
<path fill="none" stroke="#9a32cd" stroke-dasharray="5,2" d="M735.5886,-131.7104C748.2433,-124.6747 764.4076,-117.0194 780,-113.4358 868.6345,-93.0649 974.2068,-98.3023 1041.7665,-105.2465"/>
<polygon fill="#9a32cd" stroke="#9a32cd" points="733.554,-128.8445 726.6632,-136.8923 737.0687,-134.8982 733.554,-128.8445"/>
<text text-anchor="middle" x="812" y="-116.4358" font-family="Helvetica,sans-Serif" font-size="10.00" fill="#000000"> elements</text>
</g>
<!-- Node56&#45;&gt;Node63 -->
<g id="edge29" class="edge">
<title>Node56&#45;&gt;Node63</title>
<path fill="none" stroke="#9a32cd" stroke-dasharray="5,2" d="M763.3069,-157.3907C768.9299,-158.4744 774.5787,-159.513 780,-160.4358 809.8393,-165.515 842.9139,-170.1598 871.4287,-173.8592"/>
<polygon fill="#9a32cd" stroke="#9a32cd" points="763.7569,-153.912 753.268,-155.4064 762.3995,-160.7791 763.7569,-153.912"/>
<text text-anchor="middle" x="812" y="-172.4358" font-family="Helvetica,sans-Serif" font-size="10.00" fill="#000000"> elements</text>
</g>
<!-- Node59 -->
<g id="node26" class="node">
<title>Node59</title>
<g id="a_node26"><a xlink:href="structaworx_1_1lib_1_1cli_1_1ExitCodeDecl.html" target="_top" xlink:title="ExitCodeDecl">
<polygon fill="#ffffff" stroke="#ff0000" points="673.5,-216.9358 673.5,-235.9358 750.5,-235.9358 750.5,-216.9358 673.5,-216.9358"/>
<text text-anchor="middle" x="712" y="-223.9358" font-family="Helvetica,sans-Serif" font-size="10.00" fill="#000000">ExitCodeDecl</text>
</a>
</g>
</g>
<!-- Node59&#45;&gt;Node58 -->
<g id="edge31" class="edge">
<title>Node59&#45;&gt;Node58</title>
<path fill="none" stroke="#9a32cd" stroke-dasharray="5,2" d="M760.8369,-220.2173C786.1787,-218.6235 817.3309,-219.2506 844,-227.4358 853.1916,-230.2568 853.6244,-234.7142 862,-239.4358 881.0789,-250.1912 903.7133,-260.6266 920.1989,-267.8316"/>
<polygon fill="#9a32cd" stroke="#9a32cd" points="760.425,-216.7385 750.72,-220.9887 760.9572,-223.7182 760.425,-216.7385"/>
<text text-anchor="middle" x="812" y="-230.4358" font-family="Helvetica,sans-Serif" font-size="10.00" fill="#000000"> elements</text>
</g>
</g>
</svg>
