<?xml version="1.0" encoding="UTF-8" standalone="no"?>
<!DOCTYPE svg PUBLIC "-//W3C//DTD SVG 1.1//EN"
 "http://www.w3.org/Graphics/SVG/1.1/DTD/svg11.dtd">
<!-- Generated by graphviz version 2.40.1 (20161225.0304)
 -->
<!-- Title: substring.hpp Pages: 1 -->
<svg width="1440pt" height="532pt"
 viewBox="0.00 0.00 1440.00 532.00" xmlns="http://www.w3.org/2000/svg" xmlns:xlink="http://www.w3.org/1999/xlink">
<g id="graph0" class="graph" transform="scale(1 1) rotate(0) translate(4 528)">
<title>substring.hpp</title>
<polygon fill="#ffffff" stroke="transparent" points="-4,4 -4,-528 1436,-528 1436,4 -4,4"/>
<!-- Node3 -->
<g id="node1" class="node">
<title>Node3</title>
<polygon fill="#bfbfbf" stroke="#000000" points="958,-504.5 958,-523.5 1033,-523.5 1033,-504.5 958,-504.5"/>
<text text-anchor="middle" x="995.5" y="-511.5" font-family="Helvetica,sans-Serif" font-size="10.00" fill="#000000">substring.hpp</text>
</g>
<!-- Node4 -->
<g id="node2" class="node">
<title>Node4</title>
<g id="a_node2"><a xlink:href="configuration_8hpp.html" target="_top" xlink:title="configuration.hpp">
<polygon fill="#ffffff" stroke="#000000" points="911,-336.5 911,-355.5 1002,-355.5 1002,-336.5 911,-336.5"/>
<text text-anchor="middle" x="956.5" y="-343.5" font-family="Helvetica,sans-Serif" font-size="10.00" fill="#000000">configuration.hpp</text>
</a>
</g>
</g>
<!-- Node3&#45;&gt;Node4 -->
<g id="edge1" class="edge">
<title>Node3&#45;&gt;Node4</title>
<path fill="none" stroke="#191970" d="M991.0258,-494.7267C982.6905,-458.8207 965.0619,-382.8822 958.7815,-355.8279"/>
<polygon fill="#191970" stroke="#191970" points="987.6207,-495.5367 993.2914,-504.4862 994.4394,-493.9538 987.6207,-495.5367"/>
</g>
<!-- Node32 -->
<g id="node3" class="node">
<title>Node32</title>
<g id="a_node3"><a xlink:href="plugins_8hpp.html" target="_top" xlink:title="plugins.hpp">
<polygon fill="#ffffff" stroke="#000000" points="862.5,-448.5 862.5,-467.5 928.5,-467.5 928.5,-448.5 862.5,-448.5"/>
<text text-anchor="middle" x="895.5" y="-455.5" font-family="Helvetica,sans-Serif" font-size="10.00" fill="#000000">plugins.hpp</text>
</a>
</g>
</g>
<!-- Node3&#45;&gt;Node32 -->
<g id="edge2" class="edge">
<title>Node3&#45;&gt;Node32</title>
<path fill="none" stroke="#191970" d="M969.2902,-499.3225C951.4283,-489.3198 928.2845,-476.3593 912.7191,-467.6427"/>
<polygon fill="#191970" stroke="#191970" points="967.6461,-502.4132 978.0813,-504.2455 971.0664,-496.3057 967.6461,-502.4132"/>
</g>
<!-- Node37 -->
<g id="node4" class="node">
<title>Node37</title>
<g id="a_node4"><a xlink:href="resourcedtupleloader_8hpp.html" target="_top" xlink:title="resourcedtupleloader.hpp">
<polygon fill="#ffffff" stroke="#000000" points="1103,-392.5 1103,-411.5 1228,-411.5 1228,-392.5 1103,-392.5"/>
<text text-anchor="middle" x="1165.5" y="-399.5" font-family="Helvetica,sans-Serif" font-size="10.00" fill="#000000">resourcedtupleloader.hpp</text>
</a>
</g>
</g>
<!-- Node3&#45;&gt;Node37 -->
<g id="edge3" class="edge">
<title>Node3&#45;&gt;Node37</title>
<path fill="none" stroke="#191970" d="M1018.7517,-498.6813C1054.4184,-475.1832 1121.5908,-430.9284 1151.0426,-411.5249"/>
<polygon fill="#191970" stroke="#191970" points="1016.4192,-496.0266 1009.9941,-504.4509 1020.2703,-501.872 1016.4192,-496.0266"/>
</g>
<!-- Node38 -->
<g id="node5" class="node">
<title>Node38</title>
<g id="a_node5"><a xlink:href="formatter_8hpp.html" target="_top" xlink:title="formatter.hpp">
<polygon fill="#ffffff" stroke="#000000" points="654.5,-448.5 654.5,-467.5 728.5,-467.5 728.5,-448.5 654.5,-448.5"/>
<text text-anchor="middle" x="691.5" y="-455.5" font-family="Helvetica,sans-Serif" font-size="10.00" fill="#000000">formatter.hpp</text>
</a>
</g>
</g>
<!-- Node3&#45;&gt;Node38 -->
<g id="edge4" class="edge">
<title>Node3&#45;&gt;Node38</title>
<path fill="none" stroke="#191970" d="M947.8358,-505.2198C887.1568,-494.042 783.6065,-474.967 728.5205,-464.8196"/>
<polygon fill="#191970" stroke="#191970" points="947.4501,-508.7075 957.9187,-507.0771 948.7183,-501.8233 947.4501,-508.7075"/>
</g>
<!-- Node47 -->
<g id="node6" class="node">
<title>Node47</title>
<g id="a_node6"><a xlink:href="tokenizer_8hpp.html" target="_top" xlink:title="tokenizer.hpp">
<polygon fill="#ffffff" stroke="#000000" points="1128.5,-448.5 1128.5,-467.5 1202.5,-467.5 1202.5,-448.5 1128.5,-448.5"/>
<text text-anchor="middle" x="1165.5" y="-455.5" font-family="Helvetica,sans-Serif" font-size="10.00" fill="#000000">tokenizer.hpp</text>
</a>
</g>
</g>
<!-- Node3&#45;&gt;Node47 -->
<g id="edge5" class="edge">
<title>Node3&#45;&gt;Node47</title>
<path fill="none" stroke="#191970" d="M1034.386,-501.1905C1065.5312,-490.9309 1108.5223,-476.7691 1136.6573,-467.5011"/>
<polygon fill="#191970" stroke="#191970" points="1033.1269,-497.9202 1024.724,-504.3733 1035.3171,-504.5687 1033.1269,-497.9202"/>
</g>
<!-- Node48 -->
<g id="node7" class="node">
<title>Node48</title>
<g id="a_node7"><a xlink:href="timelib_8hpp.html" target="_top" xlink:title="timelib.hpp">
<polygon fill="#ffffff" stroke="#000000" points="1260.5,-448.5 1260.5,-467.5 1324.5,-467.5 1324.5,-448.5 1260.5,-448.5"/>
<text text-anchor="middle" x="1292.5" y="-455.5" font-family="Helvetica,sans-Serif" font-size="10.00" fill="#000000">timelib.hpp</text>
</a>
</g>
</g>
<!-- Node3&#45;&gt;Node48 -->
<g id="edge6" class="edge">
<title>Node3&#45;&gt;Node48</title>
<path fill="none" stroke="#191970" d="M1043.2358,-504.9993C1104.1294,-493.5177 1207.8103,-473.9684 1260.1837,-464.0933"/>
<polygon fill="#191970" stroke="#191970" points="1042.2936,-501.6152 1033.1153,-506.9076 1043.5906,-508.494 1042.2936,-501.6152"/>
</g>
<!-- Node56 -->
<g id="node8" class="node">
<title>Node56</title>
<g id="a_node8"><a xlink:href="plugincontainer_8hpp.html" target="_top" xlink:title="plugincontainer.hpp">
<polygon fill="#ffffff" stroke="#000000" points="984.5,-392.5 984.5,-411.5 1084.5,-411.5 1084.5,-392.5 984.5,-392.5"/>
<text text-anchor="middle" x="1034.5" y="-399.5" font-family="Helvetica,sans-Serif" font-size="10.00" fill="#000000">plugincontainer.hpp</text>
</a>
</g>
</g>
<!-- Node3&#45;&gt;Node56 -->
<g id="edge7" class="edge">
<title>Node3&#45;&gt;Node56</title>
<path fill="none" stroke="#191970" d="M1002.1421,-494.9253C1010.5678,-470.7284 1024.7717,-429.9376 1031.1833,-411.5249"/>
<polygon fill="#191970" stroke="#191970" points="998.8083,-493.8561 998.8251,-504.4509 1005.419,-496.1581 998.8083,-493.8561"/>
</g>
<!-- Node57 -->
<g id="node9" class="node">
<title>Node57</title>
<g id="a_node9"><a xlink:href="stringtree_8hpp.html" target="_top" xlink:title="stringtree.hpp">
<polygon fill="#ffffff" stroke="#000000" points="692.5,-392.5 692.5,-411.5 768.5,-411.5 768.5,-392.5 692.5,-392.5"/>
<text text-anchor="middle" x="730.5" y="-399.5" font-family="Helvetica,sans-Serif" font-size="10.00" fill="#000000">stringtree.hpp</text>
</a>
</g>
</g>
<!-- Node3&#45;&gt;Node57 -->
<g id="edge8" class="edge">
<title>Node3&#45;&gt;Node57</title>
<path fill="none" stroke="#191970" d="M950.5126,-501.675C922.2049,-493.3721 885.1675,-481.4965 853.5,-468 813.594,-450.9923 769.3585,-425.501 746.3584,-411.705"/>
<polygon fill="#191970" stroke="#191970" points="949.5594,-505.0427 960.1382,-504.4596 951.5048,-498.3184 949.5594,-505.0427"/>
</g>
<!-- Node5 -->
<g id="node10" class="node">
<title>Node5</title>
<g id="a_node10"><a xlink:href="alox_2alox_8hpp.html" target="_top" xlink:title="alox.hpp">
<polygon fill="#ffffff" stroke="#000000" points="521,-280.5 521,-299.5 574,-299.5 574,-280.5 521,-280.5"/>
<text text-anchor="middle" x="547.5" y="-287.5" font-family="Helvetica,sans-Serif" font-size="10.00" fill="#000000">alox.hpp</text>
</a>
</g>
</g>
<!-- Node4&#45;&gt;Node5 -->
<g id="edge9" class="edge">
<title>Node4&#45;&gt;Node5</title>
<path fill="none" stroke="#191970" d="M900.8345,-338.3783C811.6036,-326.1609 639.905,-302.652 574.0804,-293.6394"/>
<polygon fill="#191970" stroke="#191970" points="900.3906,-341.8501 910.773,-339.7391 901.3403,-334.9148 900.3906,-341.8501"/>
</g>
<!-- Node7 -->
<g id="node11" class="node">
<title>Node7</title>
<g id="a_node11"><a xlink:href="lox_8hpp.html" target="_top" xlink:title="lox.hpp">
<polygon fill="#ffffff" stroke="#000000" points="868.5,-168.5 868.5,-187.5 916.5,-187.5 916.5,-168.5 868.5,-168.5"/>
<text text-anchor="middle" x="892.5" y="-175.5" font-family="Helvetica,sans-Serif" font-size="10.00" fill="#000000">lox.hpp</text>
</a>
</g>
</g>
<!-- Node4&#45;&gt;Node7 -->
<g id="edge10" class="edge">
<title>Node4&#45;&gt;Node7</title>
<path fill="none" stroke="#191970" d="M976.7999,-330.2719C994.4854,-316.6912 1020.9204,-296.6829 1044.5,-280 1068.0468,-263.3403 1084.8895,-269.4314 1098.5,-244 1102.6943,-236.1629 1104.0585,-230.9366 1098.5,-224 1075.9288,-195.8328 966.1074,-183.7765 916.6854,-179.7154"/>
<polygon fill="#191970" stroke="#191970" points="974.6575,-327.5042 968.8717,-336.3797 978.9295,-333.0495 974.6575,-327.5042"/>
</g>
<!-- Node23 -->
<g id="node12" class="node">
<title>Node23</title>
<g id="a_node12"><a xlink:href="compiler_8hpp_source.html" target="_top" xlink:title="compiler.hpp">
<polygon fill="#ffffff" stroke="#000000" points="1053,-280.5 1053,-299.5 1124,-299.5 1124,-280.5 1053,-280.5"/>
<text text-anchor="middle" x="1088.5" y="-287.5" font-family="Helvetica,sans-Serif" font-size="10.00" fill="#000000">compiler.hpp</text>
</a>
</g>
</g>
<!-- Node4&#45;&gt;Node23 -->
<g id="edge11" class="edge">
<title>Node4&#45;&gt;Node23</title>
<path fill="none" stroke="#191970" d="M988.5965,-332.3833C1012.6035,-322.1985 1044.8259,-308.5284 1066.1045,-299.5011"/>
<polygon fill="#191970" stroke="#191970" points="987.0305,-329.2457 979.1916,-336.3733 989.7644,-335.6897 987.0305,-329.2457"/>
</g>
<!-- Node32&#45;&gt;Node4 -->
<g id="edge49" class="edge">
<title>Node32&#45;&gt;Node4</title>
<path fill="none" stroke="#191970" d="M905.5365,-439.5723C918.6681,-415.4618 941.194,-374.1028 951.3123,-355.5249"/>
<polygon fill="#191970" stroke="#191970" points="902.4102,-437.9949 900.7008,-448.4509 908.5576,-441.3431 902.4102,-437.9949"/>
</g>
<!-- Node33 -->
<g id="node30" class="node">
<title>Node33</title>
<g id="a_node30"><a xlink:href="inmemoryplugin_8hpp.html" target="_top" xlink:title="inmemoryplugin.hpp">
<polygon fill="#ffffff" stroke="#000000" points="786.5,-392.5 786.5,-411.5 890.5,-411.5 890.5,-392.5 786.5,-392.5"/>
<text text-anchor="middle" x="838.5" y="-399.5" font-family="Helvetica,sans-Serif" font-size="10.00" fill="#000000">inmemoryplugin.hpp</text>
</a>
</g>
</g>
<!-- Node32&#45;&gt;Node33 -->
<g id="edge50" class="edge">
<title>Node32&#45;&gt;Node33</title>
<path fill="none" stroke="#191970" d="M878.2729,-441.0751C868.4659,-431.4402 856.536,-419.7196 848.3149,-411.6427"/>
<polygon fill="#191970" stroke="#191970" points="875.9851,-443.734 885.5714,-448.2455 880.8909,-438.7406 875.9851,-443.734"/>
</g>
<!-- Node39 -->
<g id="node32" class="node">
<title>Node39</title>
<g id="a_node32"><a xlink:href="formatterstdimpl_8hpp.html" target="_top" xlink:title="formatterstdimpl.hpp">
<polygon fill="#ffffff" stroke="#000000" points="361.5,-336.5 361.5,-355.5 467.5,-355.5 467.5,-336.5 361.5,-336.5"/>
<text text-anchor="middle" x="414.5" y="-343.5" font-family="Helvetica,sans-Serif" font-size="10.00" fill="#000000">formatterstdimpl.hpp</text>
</a>
</g>
</g>
<!-- Node38&#45;&gt;Node39 -->
<g id="edge53" class="edge">
<title>Node38&#45;&gt;Node39</title>
<path fill="none" stroke="#191970" d="M658.3156,-444.5825C601.5995,-421.6503 487.3736,-375.4651 438.0571,-355.5249"/>
<polygon fill="#191970" stroke="#191970" points="657.3003,-447.9472 667.8831,-448.4509 659.9243,-441.4576 657.3003,-447.9472"/>
</g>
<!-- Node47&#45;&gt;Node37 -->
<g id="edge62" class="edge">
<title>Node47&#45;&gt;Node37</title>
<path fill="none" stroke="#191970" d="M1165.5,-438.1575C1165.5,-429.155 1165.5,-418.9199 1165.5,-411.6427"/>
<polygon fill="#191970" stroke="#191970" points="1162.0001,-438.2455 1165.5,-448.2455 1169.0001,-438.2456 1162.0001,-438.2455"/>
</g>
<!-- Node47&#45;&gt;Node7 -->
<g id="edge61" class="edge">
<title>Node47&#45;&gt;Node7</title>
<path fill="none" stroke="#191970" d="M1197.7357,-443.9173C1211.7717,-436.3113 1227.3091,-425.6507 1237.5,-412 1255.7606,-387.5398 1256.5,-376.5246 1256.5,-346 1256.5,-346 1256.5,-346 1256.5,-290 1256.5,-258.7875 1256.8043,-243.5838 1232.5,-224 1207.8886,-204.1688 990.3687,-185.6009 916.7399,-179.8337"/>
<polygon fill="#191970" stroke="#191970" points="1196.1178,-440.8134 1188.8001,-448.4751 1199.2985,-447.0491 1196.1178,-440.8134"/>
</g>
<!-- Node49 -->
<g id="node37" class="node">
<title>Node49</title>
<g id="a_node37"><a xlink:href="timepointbase_8hpp.html" target="_top" xlink:title="timepointbase.hpp">
<polygon fill="#ffffff" stroke="#000000" points="1284.5,-392.5 1284.5,-411.5 1380.5,-411.5 1380.5,-392.5 1284.5,-392.5"/>
<text text-anchor="middle" x="1332.5" y="-399.5" font-family="Helvetica,sans-Serif" font-size="10.00" fill="#000000">timepointbase.hpp</text>
</a>
</g>
</g>
<!-- Node48&#45;&gt;Node49 -->
<g id="edge63" class="edge">
<title>Node48&#45;&gt;Node49</title>
<path fill="none" stroke="#191970" d="M1305.4136,-439.9209C1312.1303,-430.5176 1320.0717,-419.3997 1325.6124,-411.6427"/>
<polygon fill="#191970" stroke="#191970" points="1302.4318,-438.0738 1299.4675,-448.2455 1308.128,-442.1425 1302.4318,-438.0738"/>
</g>
<!-- Node56&#45;&gt;Node4 -->
<g id="edge67" class="edge">
<title>Node56&#45;&gt;Node4</title>
<path fill="none" stroke="#191970" d="M1012.5064,-386.2097C998.8071,-376.3743 981.6264,-364.0394 969.9309,-355.6427"/>
<polygon fill="#191970" stroke="#191970" points="1010.7489,-389.2566 1020.9134,-392.2455 1014.8314,-383.5703 1010.7489,-389.2566"/>
</g>
<!-- Node56&#45;&gt;Node23 -->
<g id="edge68" class="edge">
<title>Node56&#45;&gt;Node23</title>
<path fill="none" stroke="#191970" d="M1043.5403,-383.2498C1055.1865,-359.0946 1074.9903,-318.0202 1083.9076,-299.5249"/>
<polygon fill="#191970" stroke="#191970" points="1040.2944,-381.9232 1039.104,-392.4509 1046.5998,-384.9633 1040.2944,-381.9232"/>
</g>
<!-- Node20 -->
<g id="node26" class="node">
<title>Node20</title>
<g id="a_node26"><a xlink:href="scopestore_8hpp.html" target="_top" xlink:title="scopestore.hpp">
<polygon fill="#ffffff" stroke="#000000" points="805,-224.5 805,-243.5 888,-243.5 888,-224.5 805,-224.5"/>
<text text-anchor="middle" x="846.5" y="-231.5" font-family="Helvetica,sans-Serif" font-size="10.00" fill="#000000">scopestore.hpp</text>
</a>
</g>
</g>
<!-- Node57&#45;&gt;Node20 -->
<g id="edge69" class="edge">
<title>Node57&#45;&gt;Node20</title>
<path fill="none" stroke="#191970" d="M742.86,-384.0993C767.2383,-348.7928 820.7922,-271.232 839.7141,-243.8279"/>
<polygon fill="#191970" stroke="#191970" points="739.8708,-382.2686 737.069,-392.4862 745.6311,-386.2459 739.8708,-382.2686"/>
</g>
<!-- Node5&#45;&gt;Node7 -->
<g id="edge13" class="edge">
<title>Node5&#45;&gt;Node7</title>
<path fill="none" stroke="#191970" d="M584.1699,-281.656C621.3427,-273.6831 679.9401,-260.4574 729.5,-244 779.8805,-227.2701 836.6942,-200.8513 868.4255,-187.0602"/>
<polygon fill="#191970" stroke="#191970" points="583.3297,-278.2564 574.2788,-283.7638 584.7887,-285.1027 583.3297,-278.2564"/>
</g>
<!-- Node6 -->
<g id="node13" class="node">
<title>Node6</title>
<g id="a_node13"><a xlink:href="log_8hpp.html" target="_top" xlink:title="log.hpp">
<polygon fill="#ffffff" stroke="#000000" points="594.5,-224.5 594.5,-243.5 642.5,-243.5 642.5,-224.5 594.5,-224.5"/>
<text text-anchor="middle" x="618.5" y="-231.5" font-family="Helvetica,sans-Serif" font-size="10.00" fill="#000000">log.hpp</text>
</a>
</g>
</g>
<!-- Node5&#45;&gt;Node6 -->
<g id="edge12" class="edge">
<title>Node5&#45;&gt;Node6</title>
<path fill="none" stroke="#191970" d="M562.3665,-273.3607C573.7128,-263.6727 589.0945,-251.7995 601.0293,-243.6427"/>
<polygon fill="#191970" stroke="#191970" points="559.7615,-270.9927 554.6004,-280.2455 564.4051,-276.2308 559.7615,-270.9927"/>
</g>
<!-- Node8 -->
<g id="node14" class="node">
<title>Node8</title>
<g id="a_node14"><a xlink:href="domain_8hpp.html" target="_top" xlink:title="domain.hpp">
<polygon fill="#ffffff" stroke="#000000" points="906,-224.5 906,-243.5 973,-243.5 973,-224.5 906,-224.5"/>
<text text-anchor="middle" x="939.5" y="-231.5" font-family="Helvetica,sans-Serif" font-size="10.00" fill="#000000">domain.hpp</text>
</a>
</g>
</g>
<!-- Node5&#45;&gt;Node8 -->
<g id="edge14" class="edge">
<title>Node5&#45;&gt;Node8</title>
<path fill="none" stroke="#191970" d="M584.4479,-286.41C648.4996,-279.9048 784.1695,-264.8817 897.5,-244 900.1537,-243.511 902.8916,-242.9618 905.6376,-242.379"/>
<polygon fill="#191970" stroke="#191970" points="584.0324,-282.9341 574.4326,-287.4168 584.7326,-289.899 584.0324,-282.9341"/>
</g>
<!-- Node9 -->
<g id="node15" class="node">
<title>Node9</title>
<g id="a_node15"><a xlink:href="logger_8hpp.html" target="_top" xlink:title="logger.hpp">
<polygon fill="#ffffff" stroke="#000000" points="287,-224.5 287,-243.5 348,-243.5 348,-224.5 287,-224.5"/>
<text text-anchor="middle" x="317.5" y="-231.5" font-family="Helvetica,sans-Serif" font-size="10.00" fill="#000000">logger.hpp</text>
</a>
</g>
</g>
<!-- Node5&#45;&gt;Node9 -->
<g id="edge15" class="edge">
<title>Node5&#45;&gt;Node9</title>
<path fill="none" stroke="#191970" d="M510.7262,-281.0464C465.692,-270.0815 390.2307,-251.7083 348.1751,-241.4687"/>
<polygon fill="#191970" stroke="#191970" points="510.1218,-284.5014 520.6659,-283.4665 511.7778,-277.7001 510.1218,-284.5014"/>
</g>
<!-- Node10 -->
<g id="node16" class="node">
<title>Node10</title>
<g id="a_node16"><a xlink:href="textlogger_8hpp.html" target="_top" xlink:title="textlogger.hpp">
<polygon fill="#ffffff" stroke="#000000" points="115,-168.5 115,-187.5 192,-187.5 192,-168.5 115,-168.5"/>
<text text-anchor="middle" x="153.5" y="-175.5" font-family="Helvetica,sans-Serif" font-size="10.00" fill="#000000">textlogger.hpp</text>
</a>
</g>
</g>
<!-- Node5&#45;&gt;Node10 -->
<g id="edge16" class="edge">
<title>Node5&#45;&gt;Node10</title>
<path fill="none" stroke="#191970" d="M510.9693,-284.7121C500.1932,-283.171 488.3747,-281.499 477.5,-280 357.1356,-263.4083 312.3539,-303.6474 206.5,-244 182.9427,-230.7258 165.8691,-202.4375 158.1287,-187.5754"/>
<polygon fill="#191970" stroke="#191970" points="510.5209,-288.1835 520.9168,-286.1397 511.5154,-281.2545 510.5209,-288.1835"/>
</g>
<!-- Node11 -->
<g id="node17" class="node">
<title>Node11</title>
<g id="a_node17"><a xlink:href="plaintextlogger_8hpp.html" target="_top" xlink:title="plaintextlogger.hpp">
<polygon fill="#ffffff" stroke="#000000" points="326.5,-112.5 326.5,-131.5 424.5,-131.5 424.5,-112.5 326.5,-112.5"/>
<text text-anchor="middle" x="375.5" y="-119.5" font-family="Helvetica,sans-Serif" font-size="10.00" fill="#000000">plaintextlogger.hpp</text>
</a>
</g>
</g>
<!-- Node5&#45;&gt;Node11 -->
<g id="edge17" class="edge">
<title>Node5&#45;&gt;Node11</title>
<path fill="none" stroke="#191970" d="M511.1153,-281.5109C488.0579,-274.6001 458.8534,-262.8372 438.5,-244 403.1602,-211.2927 384.366,-154.242 378.0096,-131.6291"/>
<polygon fill="#191970" stroke="#191970" points="510.3247,-284.9244 520.8992,-284.2674 512.223,-278.1867 510.3247,-284.9244"/>
</g>
<!-- Node12 -->
<g id="node18" class="node">
<title>Node12</title>
<g id="a_node18"><a xlink:href="consolelogger_8hpp.html" target="_top" xlink:title="consolelogger.hpp">
<polygon fill="#ffffff" stroke="#000000" points="441,-56.5 441,-75.5 536,-75.5 536,-56.5 441,-56.5"/>
<text text-anchor="middle" x="488.5" y="-63.5" font-family="Helvetica,sans-Serif" font-size="10.00" fill="#000000">consolelogger.hpp</text>
</a>
</g>
</g>
<!-- Node5&#45;&gt;Node12 -->
<g id="edge18" class="edge">
<title>Node5&#45;&gt;Node12</title>
<path fill="none" stroke="#191970" d="M531.7696,-272.3178C525.4064,-264.2208 518.6068,-254.1735 514.5,-244 490.0668,-183.4734 488.1989,-103.135 488.3366,-75.6759"/>
<polygon fill="#191970" stroke="#191970" points="529.2751,-274.7925 538.3551,-280.252 534.6615,-270.3218 529.2751,-274.7925"/>
</g>
<!-- Node13 -->
<g id="node19" class="node">
<title>Node13</title>
<g id="a_node19"><a xlink:href="alox_8hpp_source.html" target="_top" xlink:title="alox.hpp">
<polygon fill="#ffffff" stroke="#000000" points="128,-.5 128,-19.5 181,-19.5 181,-.5 128,-.5"/>
<text text-anchor="middle" x="154.5" y="-7.5" font-family="Helvetica,sans-Serif" font-size="10.00" fill="#000000">alox.hpp</text>
</a>
</g>
</g>
<!-- Node5&#45;&gt;Node13 -->
<g id="edge19" class="edge">
<title>Node5&#45;&gt;Node13</title>
<path fill="none" stroke="#191970" d="M550.3665,-270.5534C557.3239,-220.1704 572.5564,-87.1556 544.5,-56 520.1486,-28.9587 265.1579,-15.0271 181.1642,-11.1466"/>
<polygon fill="#191970" stroke="#191970" points="546.8968,-270.0935 548.9523,-280.4871 553.8269,-271.0802 546.8968,-270.0935"/>
</g>
<!-- Node14 -->
<g id="node20" class="node">
<title>Node14</title>
<g id="a_node20"><a xlink:href="memorylogger_8hpp.html" target="_top" xlink:title="memorylogger.hpp">
<polygon fill="#ffffff" stroke="#000000" points="218.5,-56.5 218.5,-75.5 314.5,-75.5 314.5,-56.5 218.5,-56.5"/>
<text text-anchor="middle" x="266.5" y="-63.5" font-family="Helvetica,sans-Serif" font-size="10.00" fill="#000000">memorylogger.hpp</text>
</a>
</g>
</g>
<!-- Node5&#45;&gt;Node14 -->
<g id="edge20" class="edge">
<title>Node5&#45;&gt;Node14</title>
<path fill="none" stroke="#191970" d="M510.8613,-282.2695C483.4979,-275.3036 446.0569,-263.1626 417.5,-244 346.1613,-196.1294 289.4229,-105.4737 272.0265,-75.7249"/>
<polygon fill="#191970" stroke="#191970" points="510.2719,-285.728 520.8157,-284.6896 511.9256,-278.9262 510.2719,-285.728"/>
</g>
<!-- Node15 -->
<g id="node21" class="node">
<title>Node15</title>
<g id="a_node21"><a xlink:href="textfilelogger_8hpp.html" target="_top" xlink:title="textfilelogger.hpp">
<polygon fill="#ffffff" stroke="#000000" points="332.5,-56.5 332.5,-75.5 422.5,-75.5 422.5,-56.5 332.5,-56.5"/>
<text text-anchor="middle" x="377.5" y="-63.5" font-family="Helvetica,sans-Serif" font-size="10.00" fill="#000000">textfilelogger.hpp</text>
</a>
</g>
</g>
<!-- Node5&#45;&gt;Node15 -->
<g id="edge21" class="edge">
<title>Node5&#45;&gt;Node15</title>
<path fill="none" stroke="#191970" d="M529.7693,-273.1688C521.5326,-264.8385 511.9398,-254.3642 504.5,-244 465.6538,-189.8843 475.8158,-163.4481 433.5,-112 421.5116,-97.4243 404.346,-84.1366 392.1862,-75.6318"/>
<polygon fill="#191970" stroke="#191970" points="527.5558,-275.9012 537.1363,-280.4249 532.4679,-270.9141 527.5558,-275.9012"/>
</g>
<!-- Node16 -->
<g id="node22" class="node">
<title>Node16</title>
<g id="a_node22"><a xlink:href="vstudiologger_8hpp.html" target="_top" xlink:title="vstudiologger.hpp">
<polygon fill="#ffffff" stroke="#000000" points="108.5,-56.5 108.5,-75.5 200.5,-75.5 200.5,-56.5 108.5,-56.5"/>
<text text-anchor="middle" x="154.5" y="-63.5" font-family="Helvetica,sans-Serif" font-size="10.00" fill="#000000">vstudiologger.hpp</text>
</a>
</g>
</g>
<!-- Node5&#45;&gt;Node16 -->
<g id="edge22" class="edge">
<title>Node5&#45;&gt;Node16</title>
<path fill="none" stroke="#191970" d="M510.7236,-284.7823C438.8984,-274.4483 286.1841,-251.7113 277.5,-244 231.7575,-203.3817 276.8957,-159.6234 238.5,-112 224.516,-94.6552 202.1566,-82.8648 184.0212,-75.5663"/>
<polygon fill="#191970" stroke="#191970" points="510.3115,-288.2589 520.707,-286.2137 511.305,-281.3298 510.3115,-288.2589"/>
</g>
<!-- Node17 -->
<g id="node23" class="node">
<title>Node17</title>
<g id="a_node23"><a xlink:href="ansilogger_8hpp.html" target="_top" xlink:title="ansilogger.hpp">
<polygon fill="#ffffff" stroke="#000000" points="0,-112.5 0,-131.5 79,-131.5 79,-112.5 0,-112.5"/>
<text text-anchor="middle" x="39.5" y="-119.5" font-family="Helvetica,sans-Serif" font-size="10.00" fill="#000000">ansilogger.hpp</text>
</a>
</g>
</g>
<!-- Node5&#45;&gt;Node17 -->
<g id="edge23" class="edge">
<title>Node5&#45;&gt;Node17</title>
<path fill="none" stroke="#191970" d="M510.98,-284.633C500.2042,-283.09 488.3831,-281.4368 477.5,-280 345.6777,-262.5969 303.9319,-293.4426 180.5,-244 118.8989,-219.3247 65.5395,-155.9359 46.7239,-131.6587"/>
<polygon fill="#191970" stroke="#191970" points="510.5291,-288.1041 520.9264,-286.0681 511.5287,-281.1759 510.5291,-288.1041"/>
</g>
<!-- Node18 -->
<g id="node24" class="node">
<title>Node18</title>
<g id="a_node24"><a xlink:href="windowsconsolelogger_8hpp.html" target="_top" xlink:title="windowsconsolelogger.hpp">
<polygon fill="#ffffff" stroke="#000000" points="97,-112.5 97,-131.5 230,-131.5 230,-112.5 97,-112.5"/>
<text text-anchor="middle" x="163.5" y="-119.5" font-family="Helvetica,sans-Serif" font-size="10.00" fill="#000000">windowsconsolelogger.hpp</text>
</a>
</g>
</g>
<!-- Node5&#45;&gt;Node18 -->
<g id="edge24" class="edge">
<title>Node5&#45;&gt;Node18</title>
<path fill="none" stroke="#191970" d="M510.7642,-284.6318C430.6745,-272.9009 247.248,-245.8733 244.5,-244 212.2503,-222.0156 222.5733,-200.189 200.5,-168 191.4579,-154.8141 179.6964,-140.617 171.8874,-131.5375"/>
<polygon fill="#191970" stroke="#191970" points="510.4996,-288.1303 520.9011,-286.1157 511.5136,-281.2041 510.4996,-288.1303"/>
</g>
<!-- Node19 -->
<g id="node25" class="node">
<title>Node19</title>
<g id="a_node25"><a xlink:href="scopedump_8hpp.html" target="_top" xlink:title="scopedump.hpp">
<polygon fill="#ffffff" stroke="#000000" points="683.5,-168.5 683.5,-187.5 769.5,-187.5 769.5,-168.5 683.5,-168.5"/>
<text text-anchor="middle" x="726.5" y="-175.5" font-family="Helvetica,sans-Serif" font-size="10.00" fill="#000000">scopedump.hpp</text>
</a>
</g>
</g>
<!-- Node5&#45;&gt;Node19 -->
<g id="edge25" class="edge">
<title>Node5&#45;&gt;Node19</title>
<path fill="none" stroke="#191970" d="M554.161,-270.7909C560.1969,-256.045 570.4661,-236.204 585.5,-224 613.5878,-201.1993 653.3158,-189.5702 683.4466,-183.7179"/>
<polygon fill="#191970" stroke="#191970" points="550.7733,-269.8541 550.5066,-280.4456 557.32,-272.3322 550.7733,-269.8541"/>
</g>
<!-- Node5&#45;&gt;Node20 -->
<g id="edge26" class="edge">
<title>Node5&#45;&gt;Node20</title>
<path fill="none" stroke="#191970" d="M584.1886,-283.1286C640.0821,-272.6602 746.2417,-252.7775 804.918,-241.7879"/>
<polygon fill="#191970" stroke="#191970" points="583.219,-279.7492 574.0343,-285.0304 584.5077,-286.6296 583.219,-279.7492"/>
</g>
<!-- Node21 -->
<g id="node27" class="node">
<title>Node21</title>
<g id="a_node27"><a xlink:href="scopeinfo_8hpp.html" target="_top" xlink:title="scopeinfo.hpp">
<polygon fill="#ffffff" stroke="#000000" points="1146,-224.5 1146,-243.5 1223,-243.5 1223,-224.5 1146,-224.5"/>
<text text-anchor="middle" x="1184.5" y="-231.5" font-family="Helvetica,sans-Serif" font-size="10.00" fill="#000000">scopeinfo.hpp</text>
</a>
</g>
</g>
<!-- Node5&#45;&gt;Node21 -->
<g id="edge27" class="edge">
<title>Node5&#45;&gt;Node21</title>
<path fill="none" stroke="#191970" d="M584.2696,-287.3449C672.8511,-280.8583 905.0603,-263.316 1098.5,-244 1114.055,-242.4467 1131.165,-240.5051 1145.9993,-238.747"/>
<polygon fill="#191970" stroke="#191970" points="583.9099,-283.8618 574.1913,-288.0806 584.4196,-290.8432 583.9099,-283.8618"/>
</g>
<!-- Node22 -->
<g id="node28" class="node">
<title>Node22</title>
<g id="a_node28"><a xlink:href="logtools_8hpp.html" target="_top" xlink:title="logtools.hpp">
<polygon fill="#ffffff" stroke="#000000" points="661,-224.5 661,-243.5 730,-243.5 730,-224.5 661,-224.5"/>
<text text-anchor="middle" x="695.5" y="-231.5" font-family="Helvetica,sans-Serif" font-size="10.00" fill="#000000">logtools.hpp</text>
</a>
</g>
</g>
<!-- Node5&#45;&gt;Node22 -->
<g id="edge28" class="edge">
<title>Node5&#45;&gt;Node22</title>
<path fill="none" stroke="#191970" d="M582.4153,-276.7888C609.4383,-266.5639 646.214,-252.6488 670.3899,-243.5011"/>
<polygon fill="#191970" stroke="#191970" points="581.0563,-273.5608 572.9421,-280.3733 583.5336,-280.1078 581.0563,-273.5608"/>
</g>
<!-- Node7&#45;&gt;Node5 -->
<g id="edge30" class="edge">
<title>Node7&#45;&gt;Node5</title>
<path fill="none" stroke="#191970" d="M869.7489,-192.4194C841.4069,-206.9372 791.9496,-229.2396 747.5,-244 687.1304,-264.047 613.3508,-279.2987 574.2604,-286.1024"/>
<polygon fill="#191970" stroke="#191970" points="871.628,-195.3857 878.8504,-187.634 868.3704,-189.1899 871.628,-195.3857"/>
</g>
<!-- Node24 -->
<g id="node29" class="node">
<title>Node24</title>
<g id="a_node29"><a xlink:href="compilerplugin_8hpp_source.html" target="_top" xlink:title="compilerplugin.hpp">
<polygon fill="#ffffff" stroke="#ff0000" points="991.5,-224.5 991.5,-243.5 1089.5,-243.5 1089.5,-224.5 991.5,-224.5"/>
<text text-anchor="middle" x="1040.5" y="-231.5" font-family="Helvetica,sans-Serif" font-size="10.00" fill="#000000">compilerplugin.hpp</text>
</a>
</g>
</g>
<!-- Node23&#45;&gt;Node24 -->
<g id="edge48" class="edge">
<title>Node23&#45;&gt;Node24</title>
<path fill="none" stroke="#191970" d="M1073.5003,-272.5004C1065.3378,-262.9775 1055.5511,-251.5596 1048.7651,-243.6427"/>
<polygon fill="#191970" stroke="#191970" points="1070.9737,-274.9307 1080.139,-280.2455 1076.2885,-270.3752 1070.9737,-274.9307"/>
</g>
<!-- Node6&#45;&gt;Node5 -->
<g id="edge29" class="edge">
<title>Node6&#45;&gt;Node5</title>
<path fill="none" stroke="#191970" d="M603.7884,-250.5069C592.479,-260.1749 577.1002,-272.0549 565.1341,-280.2455"/>
<polygon fill="#191970" stroke="#191970" points="606.3655,-252.8993 611.5196,-243.6427 601.7179,-247.6648 606.3655,-252.8993"/>
</g>
<!-- Node8&#45;&gt;Node7 -->
<g id="edge31" class="edge">
<title>Node8&#45;&gt;Node7</title>
<path fill="none" stroke="#191970" d="M924.8128,-216.5004C916.8204,-206.9775 907.2375,-195.5596 900.593,-187.6427"/>
<polygon fill="#191970" stroke="#191970" points="922.2036,-218.8358 931.3132,-224.2455 927.5654,-214.3357 922.2036,-218.8358"/>
</g>
<!-- Node9&#45;&gt;Node7 -->
<g id="edge32" class="edge">
<title>Node9&#45;&gt;Node7</title>
<path fill="none" stroke="#191970" d="M358.1982,-230.0363C470.0131,-219.1465 779.4891,-189.0063 868.3533,-180.3517"/>
<polygon fill="#191970" stroke="#191970" points="357.6221,-226.5758 348.0085,-231.0287 358.3007,-233.5428 357.6221,-226.5758"/>
</g>
<!-- Node9&#45;&gt;Node10 -->
<g id="edge33" class="edge">
<title>Node9&#45;&gt;Node10</title>
<path fill="none" stroke="#191970" d="M279.5956,-221.057C249.5816,-210.8084 208.3493,-196.729 181.3247,-187.5011"/>
<polygon fill="#191970" stroke="#191970" points="278.7129,-224.454 289.3074,-224.3733 280.9749,-217.8295 278.7129,-224.454"/>
</g>
<!-- Node10&#45;&gt;Node11 -->
<g id="edge34" class="edge">
<title>Node10&#45;&gt;Node11</title>
<path fill="none" stroke="#191970" d="M201.1428,-165.982C241.9903,-155.6781 300.0475,-141.0331 337.7454,-131.5237"/>
<polygon fill="#191970" stroke="#191970" points="200.2511,-162.5972 191.4109,-168.4369 201.9633,-169.3846 200.2511,-162.5972"/>
</g>
<!-- Node10&#45;&gt;Node17 -->
<g id="edge35" class="edge">
<title>Node10&#45;&gt;Node17</title>
<path fill="none" stroke="#191970" d="M124.6679,-163.8368C104.0605,-153.7139 76.8918,-140.3679 58.8416,-131.5011"/>
<polygon fill="#191970" stroke="#191970" points="123.384,-167.1056 133.9027,-168.3733 126.4703,-160.8227 123.384,-167.1056"/>
</g>
<!-- Node10&#45;&gt;Node18 -->
<g id="edge36" class="edge">
<title>Node10&#45;&gt;Node18</title>
<path fill="none" stroke="#191970" d="M157.0433,-158.1575C158.6509,-149.155 160.4786,-138.9199 161.7781,-131.6427"/>
<polygon fill="#191970" stroke="#191970" points="153.5544,-157.786 155.2419,-168.2455 160.4454,-159.0166 153.5544,-157.786"/>
</g>
<!-- Node11&#45;&gt;Node12 -->
<g id="edge37" class="edge">
<title>Node11&#45;&gt;Node12</title>
<path fill="none" stroke="#191970" d="M404.0792,-107.8368C424.5058,-97.7139 451.4362,-84.3679 469.3281,-75.5011"/>
<polygon fill="#191970" stroke="#191970" points="402.3313,-104.7968 394.9254,-112.3733 405.4396,-111.0688 402.3313,-104.7968"/>
</g>
<!-- Node11&#45;&gt;Node14 -->
<g id="edge38" class="edge">
<title>Node11&#45;&gt;Node14</title>
<path fill="none" stroke="#191970" d="M347.4658,-107.5971C327.9254,-97.558 302.3908,-84.4393 285.2688,-75.6427"/>
<polygon fill="#191970" stroke="#191970" points="346.0194,-110.7889 356.5136,-112.2455 349.2183,-104.5625 346.0194,-110.7889"/>
</g>
<!-- Node11&#45;&gt;Node15 -->
<g id="edge39" class="edge">
<title>Node11&#45;&gt;Node15</title>
<path fill="none" stroke="#191970" d="M376.2087,-102.1575C376.5302,-93.155 376.8957,-82.9199 377.1556,-75.6427"/>
<polygon fill="#191970" stroke="#191970" points="372.7076,-102.127 375.8484,-112.2455 379.7032,-102.3769 372.7076,-102.127"/>
</g>
<!-- Node11&#45;&gt;Node16 -->
<g id="edge40" class="edge">
<title>Node11&#45;&gt;Node16</title>
<path fill="none" stroke="#191970" d="M327.8137,-109.9166C287.164,-99.6162 229.5333,-85.013 192.0845,-75.5237"/>
<polygon fill="#191970" stroke="#191970" points="327.2065,-113.3733 337.7599,-112.4369 328.9259,-106.5877 327.2065,-113.3733"/>
</g>
<!-- Node12&#45;&gt;Node13 -->
<g id="edge41" class="edge">
<title>Node12&#45;&gt;Node13</title>
<path fill="none" stroke="#191970" d="M430.8158,-55.8953C332.5441,-39.151 229.0566,-22.1674 181.2537,-14.3597"/>
<polygon fill="#191970" stroke="#191970" points="430.4736,-59.3874 440.9199,-57.6192 431.651,-52.4871 430.4736,-59.3874"/>
</g>
<!-- Node16&#45;&gt;Node13 -->
<g id="edge42" class="edge">
<title>Node16&#45;&gt;Node13</title>
<path fill="none" stroke="#191970" d="M154.5,-46.1575C154.5,-37.155 154.5,-26.9199 154.5,-19.6427"/>
<polygon fill="#191970" stroke="#191970" points="151.0001,-46.2455 154.5,-56.2455 158.0001,-46.2456 151.0001,-46.2455"/>
</g>
<!-- Node17&#45;&gt;Node13 -->
<g id="edge43" class="edge">
<title>Node17&#45;&gt;Node13</title>
<path fill="none" stroke="#191970" d="M52.2071,-104.216C62.5405,-90.3432 77.9145,-70.9801 93.5,-56 108.0356,-42.029 126.8151,-28.4318 139.6744,-19.6898"/>
<polygon fill="#191970" stroke="#191970" points="49.2717,-102.3007 46.1929,-112.4383 54.9216,-106.4333 49.2717,-102.3007"/>
</g>
<!-- Node18&#45;&gt;Node13 -->
<g id="edge44" class="edge">
<title>Node18&#45;&gt;Node13</title>
<path fill="none" stroke="#191970" d="M131.8481,-107.4623C119.3936,-99.9674 106.433,-89.5211 99.5,-76 87.9307,-53.437 115.9807,-31.7359 136.1325,-19.7018"/>
<polygon fill="#191970" stroke="#191970" points="130.2928,-110.6021 140.734,-112.3999 133.6928,-104.4832 130.2928,-110.6021"/>
</g>
<!-- Node20&#45;&gt;Node7 -->
<g id="edge45" class="edge">
<title>Node20&#45;&gt;Node7</title>
<path fill="none" stroke="#191970" d="M860.8747,-216.5004C868.6971,-206.9775 878.076,-195.5596 884.5792,-187.6427"/>
<polygon fill="#191970" stroke="#191970" points="858.1555,-214.2967 854.5126,-224.2455 863.5646,-218.7399 858.1555,-214.2967"/>
</g>
<!-- Node20&#45;&gt;Node19 -->
<g id="edge46" class="edge">
<title>Node20&#45;&gt;Node19</title>
<path fill="none" stroke="#191970" d="M816.7376,-220.1109C794.9768,-209.9559 766.0318,-196.4482 746.8595,-187.5011"/>
<polygon fill="#191970" stroke="#191970" points="815.3293,-223.316 825.8713,-224.3733 818.2895,-216.9727 815.3293,-223.316"/>
</g>
<!-- Node21&#45;&gt;Node7 -->
<g id="edge47" class="edge">
<title>Node21&#45;&gt;Node7</title>
<path fill="none" stroke="#191970" d="M1135.5796,-224.618C1072.2454,-212.4717 964.3402,-191.7776 916.5265,-182.6078"/>
<polygon fill="#191970" stroke="#191970" points="1135.2444,-228.1174 1145.7247,-226.5636 1136.5629,-221.2427 1135.2444,-228.1174"/>
</g>
<!-- Node33&#45;&gt;Node4 -->
<g id="edge51" class="edge">
<title>Node33&#45;&gt;Node4</title>
<path fill="none" stroke="#191970" d="M868.0547,-387.9741C889.4195,-377.8348 917.7116,-364.408 936.4798,-355.5011"/>
<polygon fill="#191970" stroke="#191970" points="866.3186,-384.9238 858.7849,-392.3733 869.3198,-391.2478 866.3186,-384.9238"/>
</g>
<!-- Node34 -->
<g id="node31" class="node">
<title>Node34</title>
<g id="a_node31"><a xlink:href="inifile_8hpp.html" target="_top" xlink:title="inifile.hpp">
<polygon fill="#ffffff" stroke="#ff0000" points="809.5,-336.5 809.5,-355.5 867.5,-355.5 867.5,-336.5 809.5,-336.5"/>
<text text-anchor="middle" x="838.5" y="-343.5" font-family="Helvetica,sans-Serif" font-size="10.00" fill="#000000">inifile.hpp</text>
</a>
</g>
</g>
<!-- Node33&#45;&gt;Node34 -->
<g id="edge52" class="edge">
<title>Node33&#45;&gt;Node34</title>
<path fill="none" stroke="#191970" d="M838.5,-382.1575C838.5,-373.155 838.5,-362.9199 838.5,-355.6427"/>
<polygon fill="#191970" stroke="#191970" points="835.0001,-382.2455 838.5,-392.2455 842.0001,-382.2456 835.0001,-382.2455"/>
</g>
<!-- Node40 -->
<g id="node33" class="node">
<title>Node40</title>
<g id="a_node33"><a xlink:href="scope_8hpp_source.html" target="_top" xlink:title="scope.hpp">
<polygon fill="#ffffff" stroke="#ff0000" points="896.5,-280.5 896.5,-299.5 958.5,-299.5 958.5,-280.5 896.5,-280.5"/>
<text text-anchor="middle" x="927.5" y="-287.5" font-family="Helvetica,sans-Serif" font-size="10.00" fill="#000000">scope.hpp</text>
</a>
</g>
</g>
<!-- Node39&#45;&gt;Node40 -->
<g id="edge54" class="edge">
<title>Node39&#45;&gt;Node40</title>
<path fill="none" stroke="#191970" d="M477.9932,-339.069C588.8939,-326.9628 813.9307,-302.3974 896.3496,-293.4004"/>
<polygon fill="#191970" stroke="#191970" points="477.5093,-335.6009 467.9482,-340.1655 478.269,-342.5596 477.5093,-335.6009"/>
</g>
<!-- Node42 -->
<g id="node34" class="node">
<title>Node42</title>
<g id="a_node34"><a xlink:href="formatterjavastyle_8hpp.html" target="_top" xlink:title="formatterjavastyle.hpp">
<polygon fill="#ffffff" stroke="#000000" points="215,-280.5 215,-299.5 328,-299.5 328,-280.5 215,-280.5"/>
<text text-anchor="middle" x="271.5" y="-287.5" font-family="Helvetica,sans-Serif" font-size="10.00" fill="#000000">formatterjavastyle.hpp</text>
</a>
</g>
</g>
<!-- Node39&#45;&gt;Node42 -->
<g id="edge55" class="edge">
<title>Node39&#45;&gt;Node42</title>
<path fill="none" stroke="#191970" d="M380.4202,-332.6541C354.3427,-322.4419 319.0185,-308.6086 295.7618,-299.5011"/>
<polygon fill="#191970" stroke="#191970" points="379.3297,-335.9858 389.9174,-336.3733 381.8822,-329.4677 379.3297,-335.9858"/>
</g>
<!-- Node43 -->
<g id="node35" class="node">
<title>Node43</title>
<g id="a_node35"><a xlink:href="formatterpythonstyle_8hpp.html" target="_top" xlink:title="formatterpythonstyle.hpp">
<polygon fill="#ffffff" stroke="#ff0000" points="43,-280.5 43,-299.5 168,-299.5 168,-280.5 43,-280.5"/>
<text text-anchor="middle" x="105.5" y="-287.5" font-family="Helvetica,sans-Serif" font-size="10.00" fill="#000000">formatterpythonstyle.hpp</text>
</a>
</g>
</g>
<!-- Node39&#45;&gt;Node43 -->
<g id="edge56" class="edge">
<title>Node39&#45;&gt;Node43</title>
<path fill="none" stroke="#191970" d="M351.7598,-334.6296C294.7606,-324.2997 211.631,-309.2341 158.0503,-299.5237"/>
<polygon fill="#191970" stroke="#191970" points="351.2682,-338.0975 361.7321,-336.4369 352.5166,-331.2097 351.2682,-338.0975"/>
</g>
<!-- Node45 -->
<g id="node36" class="node">
<title>Node45</title>
<g id="a_node36"><a xlink:href="propertyformatter_8hpp_source.html" target="_top" xlink:title="propertyformatter.hpp">
<polygon fill="#ffffff" stroke="#ff0000" points="360,-280.5 360,-299.5 469,-299.5 469,-280.5 360,-280.5"/>
<text text-anchor="middle" x="414.5" y="-287.5" font-family="Helvetica,sans-Serif" font-size="10.00" fill="#000000">propertyformatter.hpp</text>
</a>
</g>
</g>
<!-- Node39&#45;&gt;Node45 -->
<g id="edge57" class="edge">
<title>Node39&#45;&gt;Node45</title>
<path fill="none" stroke="#191970" d="M414.5,-326.1575C414.5,-317.155 414.5,-306.9199 414.5,-299.6427"/>
<polygon fill="#191970" stroke="#191970" points="411.0001,-326.2455 414.5,-336.2455 418.0001,-326.2456 411.0001,-326.2455"/>
</g>
<!-- Node40&#45;&gt;Node24 -->
<g id="edge58" class="edge">
<title>Node40&#45;&gt;Node24</title>
<path fill="none" stroke="#191970" d="M956.0792,-275.8368C976.5058,-265.7139 1003.4362,-252.3679 1021.3281,-243.5011"/>
<polygon fill="#191970" stroke="#191970" points="954.3313,-272.7968 946.9254,-280.3733 957.4396,-279.0688 954.3313,-272.7968"/>
</g>
<!-- Node42&#45;&gt;Node10 -->
<g id="edge59" class="edge">
<title>Node42&#45;&gt;Node10</title>
<path fill="none" stroke="#191970" d="M219.0635,-277.152C200.6412,-270.1811 181.353,-259.6646 168.5,-244 155.0836,-227.6488 153.1182,-201.6621 153.1338,-187.6736"/>
<polygon fill="#191970" stroke="#191970" points="217.9847,-280.4826 228.5795,-280.4827 220.2972,-273.8756 217.9847,-280.4826"/>
</g>
<!-- Node43&#45;&gt;Node10 -->
<g id="edge60" class="edge">
<title>Node43&#45;&gt;Node10</title>
<path fill="none" stroke="#191970" d="M112.1233,-270.9832C116.8954,-257.6849 123.6725,-239.5863 130.5,-224 136.0888,-211.2415 143.407,-196.9509 148.2716,-187.7331"/>
<polygon fill="#191970" stroke="#191970" points="108.7995,-269.8846 108.7634,-280.4794 115.3986,-272.2196 108.7995,-269.8846"/>
</g>
<!-- Node50 -->
<g id="node38" class="node">
<title>Node50</title>
<g id="a_node38"><a xlink:href="datetime_8hpp.html" target="_top" xlink:title="datetime.hpp">
<polygon fill="#ffffff" stroke="#ff0000" points="1359,-336.5 1359,-355.5 1432,-355.5 1432,-336.5 1359,-336.5"/>
<text text-anchor="middle" x="1395.5" y="-343.5" font-family="Helvetica,sans-Serif" font-size="10.00" fill="#000000">datetime.hpp</text>
</a>
</g>
</g>
<!-- Node49&#45;&gt;Node50 -->
<g id="edge64" class="edge">
<title>Node49&#45;&gt;Node50</title>
<path fill="none" stroke="#191970" d="M1351.2192,-385.3607C1362.1182,-375.6727 1375.4755,-363.7995 1384.652,-355.6427"/>
<polygon fill="#191970" stroke="#191970" points="1348.6226,-382.9859 1343.4738,-392.2455 1353.2732,-388.2178 1348.6226,-382.9859"/>
</g>
<!-- Node53 -->
<g id="node39" class="node">
<title>Node53</title>
<g id="a_node39"><a xlink:href="ticks_8hpp.html" target="_top" xlink:title="ticks.hpp">
<polygon fill="#ffffff" stroke="#ff0000" points="1284.5,-336.5 1284.5,-355.5 1340.5,-355.5 1340.5,-336.5 1284.5,-336.5"/>
<text text-anchor="middle" x="1312.5" y="-343.5" font-family="Helvetica,sans-Serif" font-size="10.00" fill="#000000">ticks.hpp</text>
</a>
</g>
</g>
<!-- Node49&#45;&gt;Node53 -->
<g id="edge65" class="edge">
<title>Node49&#45;&gt;Node53</title>
<path fill="none" stroke="#191970" d="M1325.6247,-382.7493C1322.3594,-373.6064 1318.5999,-363.0798 1315.9438,-355.6427"/>
<polygon fill="#191970" stroke="#191970" points="1322.3567,-384.0053 1329.0163,-392.2455 1328.9489,-381.6509 1322.3567,-384.0053"/>
</g>
<!-- Node53&#45;&gt;Node21 -->
<g id="edge66" class="edge">
<title>Node53&#45;&gt;Node21</title>
<path fill="none" stroke="#191970" d="M1293.9529,-329.7713C1266.8512,-306.0573 1217.278,-262.6807 1195.3856,-243.5249"/>
<polygon fill="#191970" stroke="#191970" points="1291.7562,-332.4999 1301.5868,-336.4509 1296.3658,-327.2318 1291.7562,-332.4999"/>
</g>
</g>
</svg>
