<?xml version="1.0" encoding="UTF-8" standalone="no"?>
<!DOCTYPE svg PUBLIC "-//W3C//DTD SVG 1.1//EN"
 "http://www.w3.org/Graphics/SVG/1.1/DTD/svg11.dtd">
<!-- Generated by graphviz version 2.40.1 (20161225.0304)
 -->
<!-- Title: textlogger.hpp Pages: 1 -->
<svg width="3527pt" height="420pt"
 viewBox="0.00 0.00 3526.86 420.00" xmlns="http://www.w3.org/2000/svg" xmlns:xlink="http://www.w3.org/1999/xlink">
<g id="graph0" class="graph" transform="scale(1 1) rotate(0) translate(4 416)">
<title>textlogger.hpp</title>
<polygon fill="#ffffff" stroke="transparent" points="-4,4 -4,-416 3522.8573,-416 3522.8573,4 -4,4"/>
<!-- Node0 -->
<g id="node1" class="node">
<title>Node0</title>
<polygon fill="#bfbfbf" stroke="#000000" points="1241.3956,-392.5 1241.3956,-411.5 1318.3956,-411.5 1318.3956,-392.5 1241.3956,-392.5"/>
<text text-anchor="middle" x="1279.8956" y="-399.5" font-family="Helvetica,sans-Serif" font-size="10.00" fill="#000000">textlogger.hpp</text>
</g>
<!-- Node1 -->
<g id="node2" class="node">
<title>Node1</title>
<g id="a_node2"><a xlink:href="alox_2alox_8hpp.html" target="_top" xlink:title="alib/alox/alox.hpp">
<polygon fill="#ffffff" stroke="#000000" points="749.8956,-336.5 749.8956,-355.5 841.8956,-355.5 841.8956,-336.5 749.8956,-336.5"/>
<text text-anchor="middle" x="795.8956" y="-343.5" font-family="Helvetica,sans-Serif" font-size="10.00" fill="#000000">alib/alox/alox.hpp</text>
</a>
</g>
</g>
<!-- Node0&#45;&gt;Node1 -->
<g id="edge1" class="edge">
<title>Node0&#45;&gt;Node1</title>
<path fill="none" stroke="#191970" d="M1241.106,-397.5119C1155.8534,-387.648 951.8587,-364.0453 852.3762,-352.535"/>
<polygon fill="#191970" stroke="#191970" points="852.553,-349.0321 842.217,-351.3595 851.7484,-355.9858 852.553,-349.0321"/>
</g>
<!-- Node89 -->
<g id="node3" class="node">
<title>Node89</title>
<g id="a_node3"><a xlink:href="logger_8hpp.html" target="_top" xlink:title="alib/alox/core/logger.hpp">
<polygon fill="#ffffff" stroke="#000000" points="760.8956,-224.5 760.8956,-243.5 882.8956,-243.5 882.8956,-224.5 760.8956,-224.5"/>
<text text-anchor="middle" x="821.8956" y="-231.5" font-family="Helvetica,sans-Serif" font-size="10.00" fill="#000000">alib/alox/core/logger.hpp</text>
</a>
</g>
</g>
<!-- Node0&#45;&gt;Node89 -->
<g id="edge2" class="edge">
<title>Node0&#45;&gt;Node89</title>
<path fill="none" stroke="#191970" d="M1241.3692,-398.0025C1185.9039,-391.5875 1087.1102,-377.491 1058.8956,-356 1028.6936,-332.9952 1049.8303,-303.3515 1019.8956,-280 1000.1524,-264.5988 941.4575,-252.1375 893.0609,-244.0892"/>
<polygon fill="#191970" stroke="#191970" points="893.3396,-240.5886 882.9076,-242.4393 892.2168,-247.498 893.3396,-240.5886"/>
</g>
<!-- Node93 -->
<g id="node4" class="node">
<title>Node93</title>
<g id="a_node4"><a xlink:href="calendar_8hpp.html" target="_top" xlink:title="alib/time/calendar.hpp">
<polygon fill="#ffffff" stroke="#000000" points="1658.3956,-336.5 1658.3956,-355.5 1769.3956,-355.5 1769.3956,-336.5 1658.3956,-336.5"/>
<text text-anchor="middle" x="1713.8956" y="-343.5" font-family="Helvetica,sans-Serif" font-size="10.00" fill="#000000">alib/time/calendar.hpp</text>
</a>
</g>
</g>
<!-- Node0&#45;&gt;Node93 -->
<g id="edge3" class="edge">
<title>Node0&#45;&gt;Node93</title>
<path fill="none" stroke="#191970" d="M1318.4574,-397.5612C1383.8786,-389.9504 1521.0436,-373.6478 1647.9551,-356.0977"/>
<polygon fill="#191970" stroke="#191970" points="1648.8182,-359.5116 1658.2417,-354.6693 1647.8553,-352.5781 1648.8182,-359.5116"/>
</g>
<!-- Node95 -->
<g id="node5" class="node">
<title>Node95</title>
<g id="a_node5"><a xlink:href="ticksconverter_8hpp.html" target="_top" xlink:title="alib/time/ticksconverter.hpp">
<polygon fill="#ffffff" stroke="#000000" points="1503.8956,-336.5 1503.8956,-355.5 1639.8956,-355.5 1639.8956,-336.5 1503.8956,-336.5"/>
<text text-anchor="middle" x="1571.8956" y="-343.5" font-family="Helvetica,sans-Serif" font-size="10.00" fill="#000000">alib/time/ticksconverter.hpp</text>
</a>
</g>
</g>
<!-- Node0&#45;&gt;Node95 -->
<g id="edge4" class="edge">
<title>Node0&#45;&gt;Node95</title>
<path fill="none" stroke="#191970" d="M1318.6709,-394.5636C1368.1369,-385.077 1454.2011,-368.5715 1512.0947,-357.4686"/>
<polygon fill="#191970" stroke="#191970" points="1513.0423,-360.8508 1522.2041,-355.5299 1511.7238,-353.9761 1513.0423,-360.8508"/>
</g>
<!-- Node96 -->
<g id="node6" class="node">
<title>Node96</title>
<g id="a_node6"><a xlink:href="formatterjavastyle_8hpp.html" target="_top" xlink:title="alib/strings/format/formatterjavastyle.hpp">
<polygon fill="#ffffff" stroke="#000000" points="1291.8956,-336.5 1291.8956,-355.5 1485.8956,-355.5 1485.8956,-336.5 1291.8956,-336.5"/>
<text text-anchor="middle" x="1388.8956" y="-343.5" font-family="Helvetica,sans-Serif" font-size="10.00" fill="#000000">alib/strings/format/formatterjavastyle.hpp</text>
</a>
</g>
</g>
<!-- Node0&#45;&gt;Node96 -->
<g id="edge5" class="edge">
<title>Node0&#45;&gt;Node96</title>
<path fill="none" stroke="#191970" d="M1298.8819,-392.2455C1316.0747,-383.4125 1341.6193,-370.2887 1361.1088,-360.2758"/>
<polygon fill="#191970" stroke="#191970" points="1362.8314,-363.3257 1370.1268,-355.6427 1359.6325,-357.0993 1362.8314,-363.3257"/>
</g>
<!-- Node99 -->
<g id="node7" class="node">
<title>Node99</title>
<g id="a_node7"><a xlink:href="formatterpythonstyle_8hpp.html" target="_top" xlink:title="alib/strings/format/formatterpythonstyle.hpp">
<polygon fill="#ffffff" stroke="#000000" points="1067.8956,-336.5 1067.8956,-355.5 1273.8956,-355.5 1273.8956,-336.5 1067.8956,-336.5"/>
<text text-anchor="middle" x="1170.8956" y="-343.5" font-family="Helvetica,sans-Serif" font-size="10.00" fill="#000000">alib/strings/format/formatterpythonstyle.hpp</text>
</a>
</g>
</g>
<!-- Node0&#45;&gt;Node99 -->
<g id="edge6" class="edge">
<title>Node0&#45;&gt;Node99</title>
<path fill="none" stroke="#191970" d="M1260.9092,-392.2455C1243.7164,-383.4125 1218.1718,-370.2887 1198.6823,-360.2758"/>
<polygon fill="#191970" stroke="#191970" points="1200.1586,-357.0993 1189.6643,-355.6427 1196.9597,-363.3257 1200.1586,-357.0993"/>
</g>
<!-- Node2 -->
<g id="node8" class="node">
<title>Node2</title>
<g id="a_node8"><a xlink:href="alib_8hpp.html" target="_top" xlink:title="alib/alib.hpp">
<polygon fill="#ffffff" stroke="#000000" points="2142.8956,-224.5 2142.8956,-243.5 2210.8956,-243.5 2210.8956,-224.5 2142.8956,-224.5"/>
<text text-anchor="middle" x="2176.8956" y="-231.5" font-family="Helvetica,sans-Serif" font-size="10.00" fill="#000000">alib/alib.hpp</text>
</a>
</g>
</g>
<!-- Node1&#45;&gt;Node2 -->
<g id="edge7" class="edge">
<title>Node1&#45;&gt;Node2</title>
<path fill="none" stroke="#191970" d="M840.6889,-336.4653C912.2238,-321.6589 1056.8419,-293.4457 1180.8956,-280 1369.4876,-259.5592 1965.2149,-240.4015 2132.7026,-235.3128"/>
<polygon fill="#191970" stroke="#191970" points="2132.99,-238.8058 2142.8795,-235.005 2132.7782,-231.809 2132.99,-238.8058"/>
</g>
<!-- Node58 -->
<g id="node9" class="node">
<title>Node58</title>
<g id="a_node9"><a xlink:href="alox__symbols_8hpp.html" target="_top" xlink:title="internals/alox_symbols.hpp">
<polygon fill="#ffffff" stroke="#000000" points="876.3956,-280.5 876.3956,-299.5 1011.3956,-299.5 1011.3956,-280.5 876.3956,-280.5"/>
<text text-anchor="middle" x="943.8956" y="-287.5" font-family="Helvetica,sans-Serif" font-size="10.00" fill="#000000">internals/alox_symbols.hpp</text>
</a>
</g>
</g>
<!-- Node1&#45;&gt;Node58 -->
<g id="edge8" class="edge">
<title>Node1&#45;&gt;Node58</title>
<path fill="none" stroke="#191970" d="M821.3377,-336.3733C845.6282,-327.1822 882.4164,-313.2624 909.3498,-303.0713"/>
<polygon fill="#191970" stroke="#191970" points="910.6712,-306.3136 918.7854,-299.5011 908.1939,-299.7666 910.6712,-306.3136"/>
</g>
<!-- Node59 -->
<g id="node10" class="node">
<title>Node59</title>
<g id="a_node10"><a xlink:href="alox__macros_8hpp.html" target="_top" xlink:title="internals/alox_macros.hpp">
<polygon fill="#ffffff" stroke="#000000" points="416.3956,-280.5 416.3956,-299.5 547.3956,-299.5 547.3956,-280.5 416.3956,-280.5"/>
<text text-anchor="middle" x="481.8956" y="-287.5" font-family="Helvetica,sans-Serif" font-size="10.00" fill="#000000">internals/alox_macros.hpp</text>
</a>
</g>
</g>
<!-- Node1&#45;&gt;Node59 -->
<g id="edge9" class="edge">
<title>Node1&#45;&gt;Node59</title>
<path fill="none" stroke="#191970" d="M749.5638,-337.737C695.54,-328.1022 605.9459,-312.1236 545.4504,-301.3346"/>
<polygon fill="#191970" stroke="#191970" points="545.715,-297.8267 535.2558,-299.5165 544.486,-304.7179 545.715,-297.8267"/>
</g>
<!-- Node60 -->
<g id="node11" class="node">
<title>Node60</title>
<g id="a_node11"><a xlink:href="configuration_8hpp.html" target="_top" xlink:title="alib/config/configuration.hpp">
<polygon fill="#ffffff" stroke="#000000" points="318.8956,-224.5 318.8956,-243.5 456.8956,-243.5 456.8956,-224.5 318.8956,-224.5"/>
<text text-anchor="middle" x="387.8956" y="-231.5" font-family="Helvetica,sans-Serif" font-size="10.00" fill="#000000">alib/config/configuration.hpp</text>
</a>
</g>
</g>
<!-- Node1&#45;&gt;Node60 -->
<g id="edge10" class="edge">
<title>Node1&#45;&gt;Node60</title>
<path fill="none" stroke="#191970" d="M749.73,-343.3869C652.3292,-337.4705 432.6178,-321.8465 406.8956,-300 393.7149,-288.8054 389.3705,-269.1119 388.0808,-254.1422"/>
<polygon fill="#191970" stroke="#191970" points="391.562,-253.6584 387.5943,-243.8346 384.5698,-253.9885 391.562,-253.6584"/>
</g>
<!-- Node75 -->
<g id="node12" class="node">
<title>Node75</title>
<g id="a_node12"><a xlink:href="aloxtypesandenums_8hpp.html" target="_top" xlink:title="aloxtypesandenums.hpp">
<polygon fill="#ffffff" stroke="#000000" points="565.8956,-280.5 565.8956,-299.5 687.8956,-299.5 687.8956,-280.5 565.8956,-280.5"/>
<text text-anchor="middle" x="626.8956" y="-287.5" font-family="Helvetica,sans-Serif" font-size="10.00" fill="#000000">aloxtypesandenums.hpp</text>
</a>
</g>
</g>
<!-- Node1&#45;&gt;Node75 -->
<g id="edge11" class="edge">
<title>Node1&#45;&gt;Node75</title>
<path fill="none" stroke="#191970" d="M766.8434,-336.3733C738.7413,-327.0613 695.9902,-312.8953 665.1349,-302.671"/>
<polygon fill="#191970" stroke="#191970" points="666.1619,-299.3243 655.5686,-299.5011 663.9601,-305.969 666.1619,-299.3243"/>
</g>
<!-- Node76 -->
<g id="node13" class="node">
<title>Node76</title>
<g id="a_node13"><a xlink:href="log_8hpp.html" target="_top" xlink:title="log.hpp">
<polygon fill="#ffffff" stroke="#000000" points="705.8956,-280.5 705.8956,-299.5 753.8956,-299.5 753.8956,-280.5 705.8956,-280.5"/>
<text text-anchor="middle" x="729.8956" y="-287.5" font-family="Helvetica,sans-Serif" font-size="10.00" fill="#000000">log.hpp</text>
</a>
</g>
</g>
<!-- Node1&#45;&gt;Node76 -->
<g id="edge12" class="edge">
<title>Node1&#45;&gt;Node76</title>
<path fill="none" stroke="#191970" d="M779.1324,-336.2455C768.0077,-328.1352 753.8599,-316.4075 743.4417,-306.7919"/>
<polygon fill="#191970" stroke="#191970" points="745.6467,-304.0564 736.015,-299.6427 740.792,-309.0995 745.6467,-304.0564"/>
</g>
<!-- Node77 -->
<g id="node14" class="node">
<title>Node77</title>
<g id="a_node14"><a xlink:href="lox_8hpp.html" target="_top" xlink:title="lox.hpp">
<polygon fill="#ffffff" stroke="#ff0000" points="771.8956,-280.5 771.8956,-299.5 819.8956,-299.5 819.8956,-280.5 771.8956,-280.5"/>
<text text-anchor="middle" x="795.8956" y="-287.5" font-family="Helvetica,sans-Serif" font-size="10.00" fill="#000000">lox.hpp</text>
</a>
</g>
</g>
<!-- Node1&#45;&gt;Node77 -->
<g id="edge13" class="edge">
<title>Node1&#45;&gt;Node77</title>
<path fill="none" stroke="#191970" d="M790.6287,-336.2455C789.2177,-328.9382 788.8135,-318.6944 789.416,-309.7046"/>
<polygon fill="#191970" stroke="#191970" points="792.9066,-309.9945 790.6504,-299.6427 785.9587,-309.1421 792.9066,-309.9945"/>
</g>
<!-- Node89&#45;&gt;Node1 -->
<g id="edge61" class="edge">
<title>Node89&#45;&gt;Node1</title>
<path fill="none" stroke="#191970" d="M825.3381,-243.6516C829.4674,-256.7385 835.1043,-280.694 828.8956,-300 825.5009,-310.5555 818.6898,-320.7408 812.1324,-328.8324"/>
<polygon fill="#191970" stroke="#191970" points="809.4486,-326.5851 805.5447,-336.4346 814.7387,-331.1693 809.4486,-326.5851"/>
</g>
<!-- Node14 -->
<g id="node39" class="node">
<title>Node14</title>
<polygon fill="#ffffff" stroke="#bfbfbf" points="600.8956,-112.5 600.8956,-131.5 644.8956,-131.5 644.8956,-112.5 600.8956,-112.5"/>
<text text-anchor="middle" x="622.8956" y="-119.5" font-family="Helvetica,sans-Serif" font-size="10.00" fill="#000000">vector</text>
</g>
<!-- Node89&#45;&gt;Node14 -->
<g id="edge62" class="edge">
<title>Node89&#45;&gt;Node14</title>
<path fill="none" stroke="#191970" d="M780.6073,-224.442C753.7432,-217.0655 718.6704,-205.1853 690.8956,-188 669.8444,-174.9748 650.0475,-154.4601 637.3031,-139.7599"/>
<polygon fill="#191970" stroke="#191970" points="639.7795,-137.2671 630.6582,-131.8771 634.4274,-141.7788 639.7795,-137.2671"/>
</g>
<!-- Node81 -->
<g id="node47" class="node">
<title>Node81</title>
<g id="a_node47"><a xlink:href="ticks_8hpp.html" target="_top" xlink:title="alib/time/ticks.hpp">
<polygon fill="#ffffff" stroke="#ff0000" points="1528.8956,-280.5 1528.8956,-299.5 1624.8956,-299.5 1624.8956,-280.5 1528.8956,-280.5"/>
<text text-anchor="middle" x="1576.8956" y="-287.5" font-family="Helvetica,sans-Serif" font-size="10.00" fill="#000000">alib/time/ticks.hpp</text>
</a>
</g>
</g>
<!-- Node93&#45;&gt;Node81 -->
<g id="edge63" class="edge">
<title>Node93&#45;&gt;Node81</title>
<path fill="none" stroke="#191970" d="M1690.3444,-336.3733C1668.0565,-327.2629 1634.4019,-313.5062 1609.5319,-303.3404"/>
<polygon fill="#191970" stroke="#191970" points="1610.7202,-300.0451 1600.1394,-299.5011 1608.0716,-306.5247 1610.7202,-300.0451"/>
</g>
<!-- Node94 -->
<g id="node48" class="node">
<title>Node94</title>
<g id="a_node48"><a xlink:href="datetime_8hpp.html" target="_top" xlink:title="alib/time/datetime.hpp">
<polygon fill="#ffffff" stroke="#ff0000" points="1652.3956,-280.5 1652.3956,-299.5 1765.3956,-299.5 1765.3956,-280.5 1652.3956,-280.5"/>
<text text-anchor="middle" x="1708.8956" y="-287.5" font-family="Helvetica,sans-Serif" font-size="10.00" fill="#000000">alib/time/datetime.hpp</text>
</a>
</g>
</g>
<!-- Node93&#45;&gt;Node94 -->
<g id="edge64" class="edge">
<title>Node93&#45;&gt;Node94</title>
<path fill="none" stroke="#191970" d="M1713.0246,-336.2455C1712.3722,-328.9382 1711.4575,-318.6944 1710.6549,-309.7046"/>
<polygon fill="#191970" stroke="#191970" points="1714.132,-309.2918 1709.7565,-299.6427 1707.1598,-309.9143 1714.132,-309.2918"/>
</g>
<!-- Node95&#45;&gt;Node81 -->
<g id="edge65" class="edge">
<title>Node95&#45;&gt;Node81</title>
<path fill="none" stroke="#191970" d="M1572.7665,-336.2455C1573.4189,-328.9382 1574.3336,-318.6944 1575.1362,-309.7046"/>
<polygon fill="#191970" stroke="#191970" points="1578.6313,-309.9143 1576.0346,-299.6427 1571.6591,-309.2918 1578.6313,-309.9143"/>
</g>
<!-- Node95&#45;&gt;Node94 -->
<g id="edge66" class="edge">
<title>Node95&#45;&gt;Node94</title>
<path fill="none" stroke="#191970" d="M1595.4467,-336.3733C1617.7346,-327.2629 1651.3892,-313.5062 1676.2592,-303.3404"/>
<polygon fill="#191970" stroke="#191970" points="1677.7195,-306.5247 1685.6517,-299.5011 1675.0709,-300.0451 1677.7195,-306.5247"/>
</g>
<!-- Node97 -->
<g id="node49" class="node">
<title>Node97</title>
<g id="a_node49"><a xlink:href="formatterstdimpl_8hpp.html" target="_top" xlink:title="alib/strings/format/formatterstdimpl.hpp">
<polygon fill="#ffffff" stroke="#ff0000" points="1270.3956,-280.5 1270.3956,-299.5 1457.3956,-299.5 1457.3956,-280.5 1270.3956,-280.5"/>
<text text-anchor="middle" x="1363.8956" y="-287.5" font-family="Helvetica,sans-Serif" font-size="10.00" fill="#000000">alib/strings/format/formatterstdimpl.hpp</text>
</a>
</g>
</g>
<!-- Node96&#45;&gt;Node97 -->
<g id="edge67" class="edge">
<title>Node96&#45;&gt;Node97</title>
<path fill="none" stroke="#191970" d="M1384.5409,-336.2455C1381.1711,-328.6973 1376.4026,-318.0158 1372.2972,-308.8197"/>
<polygon fill="#191970" stroke="#191970" points="1375.4729,-307.3473 1368.2003,-299.6427 1369.0809,-310.2009 1375.4729,-307.3473"/>
</g>
<!-- Node99&#45;&gt;Node97 -->
<g id="edge68" class="edge">
<title>Node99&#45;&gt;Node97</title>
<path fill="none" stroke="#191970" d="M1204.0734,-336.3733C1236.4443,-326.9807 1285.8353,-312.6496 1321.1379,-302.4064"/>
<polygon fill="#191970" stroke="#191970" points="1322.5221,-305.6492 1331.1506,-299.5011 1320.5714,-298.9264 1322.5221,-305.6492"/>
</g>
<!-- Node100 -->
<g id="node50" class="node">
<title>Node100</title>
<g id="a_node50"><a xlink:href="autosizes_8hpp.html" target="_top" xlink:title="alib/strings/util/autosizes.hpp">
<polygon fill="#ffffff" stroke="#000000" points="2844.3956,-224.5 2844.3956,-243.5 2987.3956,-243.5 2987.3956,-224.5 2844.3956,-224.5"/>
<text text-anchor="middle" x="2915.8956" y="-231.5" font-family="Helvetica,sans-Serif" font-size="10.00" fill="#000000">alib/strings/util/autosizes.hpp</text>
</a>
</g>
</g>
<!-- Node99&#45;&gt;Node100 -->
<g id="edge69" class="edge">
<title>Node99&#45;&gt;Node100</title>
<path fill="none" stroke="#191970" d="M1180.2453,-336.0182C1195.431,-320.5992 1227.1703,-291.5618 1260.8956,-280 1298.4585,-267.1225 2504.9682,-242.1893 2833.8211,-235.6191"/>
<polygon fill="#191970" stroke="#191970" points="2834.2927,-239.1104 2844.2209,-235.4116 2834.153,-232.1118 2834.2927,-239.1104"/>
</g>
<!-- Node3 -->
<g id="node15" class="node">
<title>Node3</title>
<polygon fill="#ffffff" stroke="#bfbfbf" points="2855.8956,-168.5 2855.8956,-187.5 2907.8956,-187.5 2907.8956,-168.5 2855.8956,-168.5"/>
<text text-anchor="middle" x="2881.8956" y="-175.5" font-family="Helvetica,sans-Serif" font-size="10.00" fill="#000000">assert.h</text>
</g>
<!-- Node2&#45;&gt;Node3 -->
<g id="edge14" class="edge">
<title>Node2&#45;&gt;Node3</title>
<path fill="none" stroke="#191970" d="M2210.9471,-232.608C2326.4478,-227.7424 2703.5393,-210.6422 2845.4553,-187.856"/>
<polygon fill="#191970" stroke="#191970" points="2846.3815,-191.2493 2855.66,-186.1348 2845.2172,-184.3468 2846.3815,-191.2493"/>
</g>
<!-- Node4 -->
<g id="node16" class="node">
<title>Node4</title>
<polygon fill="#ffffff" stroke="#bfbfbf" points="2926.3956,-168.5 2926.3956,-187.5 2971.3956,-187.5 2971.3956,-168.5 2926.3956,-168.5"/>
<text text-anchor="middle" x="2948.8956" y="-175.5" font-family="Helvetica,sans-Serif" font-size="10.00" fill="#000000">iosfwd</text>
</g>
<!-- Node2&#45;&gt;Node4 -->
<g id="edge15" class="edge">
<title>Node2&#45;&gt;Node4</title>
<path fill="none" stroke="#191970" d="M2210.9774,-232.9708C2334.5846,-229.0726 2759.7868,-214.1792 2916.4172,-187.5579"/>
<polygon fill="#191970" stroke="#191970" points="2917.11,-190.9897 2926.3397,-185.7875 2915.8804,-184.0985 2917.11,-190.9897"/>
</g>
<!-- Node5 -->
<g id="node17" class="node">
<title>Node5</title>
<polygon fill="#ffffff" stroke="#bfbfbf" points="2989.8956,-168.5 2989.8956,-187.5 3035.8956,-187.5 3035.8956,-168.5 2989.8956,-168.5"/>
<text text-anchor="middle" x="3012.8956" y="-175.5" font-family="Helvetica,sans-Serif" font-size="10.00" fill="#000000">cstdint</text>
</g>
<!-- Node2&#45;&gt;Node5 -->
<g id="edge16" class="edge">
<title>Node2&#45;&gt;Node5</title>
<path fill="none" stroke="#191970" d="M2211.1456,-233.1605C2341.8949,-229.7857 2810.3091,-216.0997 2979.6449,-187.7483"/>
<polygon fill="#191970" stroke="#191970" points="2980.399,-191.1695 2989.6428,-185.9924 2979.1881,-184.275 2980.399,-191.1695"/>
</g>
<!-- Node6 -->
<g id="node18" class="node">
<title>Node6</title>
<g id="a_node18"><a xlink:href="prepro_8hpp.html" target="_top" xlink:title="alib/lang/prepro.hpp">
<polygon fill="#ffffff" stroke="#000000" points="3054.3956,-168.5 3054.3956,-187.5 3155.3956,-187.5 3155.3956,-168.5 3054.3956,-168.5"/>
<text text-anchor="middle" x="3104.8956" y="-175.5" font-family="Helvetica,sans-Serif" font-size="10.00" fill="#000000">alib/lang/prepro.hpp</text>
</a>
</g>
</g>
<!-- Node2&#45;&gt;Node6 -->
<g id="edge17" class="edge">
<title>Node2&#45;&gt;Node6</title>
<path fill="none" stroke="#191970" d="M2210.9226,-233.5678C2326.3312,-231.8131 2713.572,-223.5638 3043.962,-187.9729"/>
<polygon fill="#191970" stroke="#191970" points="3044.6491,-191.4189 3054.2119,-186.8579 3043.8921,-184.46 3044.6491,-191.4189"/>
</g>
<!-- Node7 -->
<g id="node19" class="node">
<title>Node7</title>
<g id="a_node19"><a xlink:href="types_8hpp.html" target="_top" xlink:title="alib/lang/types.hpp">
<polygon fill="#ffffff" stroke="#000000" points="3173.8956,-168.5 3173.8956,-187.5 3271.8956,-187.5 3271.8956,-168.5 3173.8956,-168.5"/>
<text text-anchor="middle" x="3222.8956" y="-175.5" font-family="Helvetica,sans-Serif" font-size="10.00" fill="#000000">alib/lang/types.hpp</text>
</a>
</g>
</g>
<!-- Node2&#45;&gt;Node7 -->
<g id="edge18" class="edge">
<title>Node2&#45;&gt;Node7</title>
<path fill="none" stroke="#191970" d="M2211.1455,-232.9777C2360.2708,-228.4401 2954.4487,-209.4419 3163.6295,-187.9853"/>
<polygon fill="#191970" stroke="#191970" points="3164.0181,-191.4638 3173.5934,-186.9292 3163.2802,-184.5028 3164.0181,-191.4638"/>
</g>
<!-- Node8 -->
<g id="node20" class="node">
<title>Node8</title>
<g id="a_node20"><a xlink:href="assert_8hpp.html" target="_top" xlink:title="alib/debug/assert.hpp">
<polygon fill="#ffffff" stroke="#000000" points="3289.8956,-168.5 3289.8956,-187.5 3399.8956,-187.5 3399.8956,-168.5 3289.8956,-168.5"/>
<text text-anchor="middle" x="3344.8956" y="-175.5" font-family="Helvetica,sans-Serif" font-size="10.00" fill="#000000">alib/debug/assert.hpp</text>
</a>
</g>
</g>
<!-- Node2&#45;&gt;Node8 -->
<g id="edge19" class="edge">
<title>Node2&#45;&gt;Node8</title>
<path fill="none" stroke="#191970" d="M2211.0077,-233.1009C2370.6251,-228.8148 3045.4698,-209.8001 3279.6399,-187.9909"/>
<polygon fill="#191970" stroke="#191970" points="3280.1686,-191.4564 3289.7883,-187.0165 3279.4995,-184.4884 3280.1686,-191.4564"/>
</g>
<!-- Node9 -->
<g id="node21" class="node">
<title>Node9</title>
<g id="a_node21"><a xlink:href="rtti_8hpp.html" target="_top" xlink:title="alib/lang/rtti.hpp">
<polygon fill="#ffffff" stroke="#ff0000" points="3417.8956,-168.5 3417.8956,-187.5 3503.8956,-187.5 3503.8956,-168.5 3417.8956,-168.5"/>
<text text-anchor="middle" x="3460.8956" y="-175.5" font-family="Helvetica,sans-Serif" font-size="10.00" fill="#000000">alib/lang/rtti.hpp</text>
</a>
</g>
</g>
<!-- Node2&#45;&gt;Node9 -->
<g id="edge20" class="edge">
<title>Node2&#45;&gt;Node9</title>
<path fill="none" stroke="#191970" d="M2211.164,-233.4285C2382.3775,-230.4664 3146.8644,-215.9559 3407.6631,-187.9343"/>
<polygon fill="#191970" stroke="#191970" points="3408.2907,-191.3862 3417.8433,-186.804 3407.5181,-184.429 3408.2907,-191.3862"/>
</g>
<!-- Node13 -->
<g id="node22" class="node">
<title>Node13</title>
<g id="a_node22"><a xlink:href="singleton_8hpp.html" target="_top" xlink:title="alib/lang/singleton.hpp">
<polygon fill="#ffffff" stroke="#000000" points="700.3956,-168.5 700.3956,-187.5 813.3956,-187.5 813.3956,-168.5 700.3956,-168.5"/>
<text text-anchor="middle" x="756.8956" y="-175.5" font-family="Helvetica,sans-Serif" font-size="10.00" fill="#000000">alib/lang/singleton.hpp</text>
</a>
</g>
</g>
<!-- Node2&#45;&gt;Node13 -->
<g id="edge21" class="edge">
<title>Node2&#45;&gt;Node13</title>
<path fill="none" stroke="#191970" d="M2142.7731,-233.327C1959.9407,-229.6463 1094.6134,-211.2646 827.8956,-188 826.4229,-187.8716 824.9342,-187.7335 823.4339,-187.587"/>
<polygon fill="#191970" stroke="#191970" points="823.732,-184.099 813.4152,-186.5102 822.9838,-191.0589 823.732,-184.099"/>
</g>
<!-- Node15 -->
<g id="node23" class="node">
<title>Node15</title>
<g id="a_node23"><a xlink:href="enums_8hpp.html" target="_top" xlink:title="alib/lang/enums.hpp">
<polygon fill="#ffffff" stroke="#000000" points="869.8956,-168.5 869.8956,-187.5 973.8956,-187.5 973.8956,-168.5 869.8956,-168.5"/>
<text text-anchor="middle" x="921.8956" y="-175.5" font-family="Helvetica,sans-Serif" font-size="10.00" fill="#000000">alib/lang/enums.hpp</text>
</a>
</g>
</g>
<!-- Node2&#45;&gt;Node15 -->
<g id="edge22" class="edge">
<title>Node2&#45;&gt;Node15</title>
<path fill="none" stroke="#191970" d="M2142.8598,-233.2598C1975.4299,-229.5326 1237.4681,-212.0829 984.3268,-187.9973"/>
<polygon fill="#191970" stroke="#191970" points="984.3765,-184.4854 974.0824,-186.9919 983.6927,-191.452 984.3765,-184.4854"/>
</g>
<!-- Node16 -->
<g id="node24" class="node">
<title>Node16</title>
<g id="a_node24"><a xlink:href="strings_2strings_8hpp.html" target="_top" xlink:title="alib/strings/strings.hpp">
<polygon fill="#ffffff" stroke="#ff0000" points="992.3956,-168.5 992.3956,-187.5 1107.3956,-187.5 1107.3956,-168.5 992.3956,-168.5"/>
<text text-anchor="middle" x="1049.8956" y="-175.5" font-family="Helvetica,sans-Serif" font-size="10.00" fill="#000000">alib/strings/strings.hpp</text>
</a>
</g>
</g>
<!-- Node2&#45;&gt;Node16 -->
<g id="edge23" class="edge">
<title>Node2&#45;&gt;Node16</title>
<path fill="none" stroke="#191970" d="M2142.4527,-233.8449C2010.7573,-232.9712 1526.3756,-227.1867 1117.6895,-188.0792"/>
<polygon fill="#191970" stroke="#191970" points="1117.7333,-184.5672 1107.4432,-187.0901 1117.0607,-191.5348 1117.7333,-184.5672"/>
</g>
<!-- Node25 -->
<g id="node25" class="node">
<title>Node25</title>
<g id="a_node25"><a xlink:href="astring_8hpp.html" target="_top" xlink:title="alib/strings/astring.hpp">
<polygon fill="#ffffff" stroke="#ff0000" points="1125.3956,-168.5 1125.3956,-187.5 1240.3956,-187.5 1240.3956,-168.5 1125.3956,-168.5"/>
<text text-anchor="middle" x="1182.8956" y="-175.5" font-family="Helvetica,sans-Serif" font-size="10.00" fill="#000000">alib/strings/astring.hpp</text>
</a>
</g>
</g>
<!-- Node2&#45;&gt;Node25 -->
<g id="edge24" class="edge">
<title>Node2&#45;&gt;Node25</title>
<path fill="none" stroke="#191970" d="M2142.7144,-233.5189C2022.1643,-231.5662 1605.4895,-222.6477 1250.8053,-187.9873"/>
<polygon fill="#191970" stroke="#191970" points="1250.8893,-184.4787 1240.5941,-186.9806 1250.2024,-191.4449 1250.8893,-184.4787"/>
</g>
<!-- Node27 -->
<g id="node26" class="node">
<title>Node27</title>
<g id="a_node26"><a xlink:href="preallocatedstring_8hpp.html" target="_top" xlink:title="alib/strings/preallocatedstring.hpp">
<polygon fill="#ffffff" stroke="#000000" points="1258.8956,-168.5 1258.8956,-187.5 1420.8956,-187.5 1420.8956,-168.5 1258.8956,-168.5"/>
<text text-anchor="middle" x="1339.8956" y="-175.5" font-family="Helvetica,sans-Serif" font-size="10.00" fill="#000000">alib/strings/preallocatedstring.hpp</text>
</a>
</g>
</g>
<!-- Node2&#45;&gt;Node27 -->
<g id="edge25" class="edge">
<title>Node2&#45;&gt;Node27</title>
<path fill="none" stroke="#191970" d="M2142.6013,-232.4892C2037.7628,-227.7434 1712.0885,-212.0556 1431.2827,-188.084"/>
<polygon fill="#191970" stroke="#191970" points="1431.5757,-184.5964 1421.3129,-187.2278 1430.9767,-191.5707 1431.5757,-184.5964"/>
</g>
<!-- Node28 -->
<g id="node27" class="node">
<title>Node28</title>
<g id="a_node27"><a xlink:href="resources_8hpp.html" target="_top" xlink:title="alib/lang/resources.hpp">
<polygon fill="#ffffff" stroke="#ff0000" points="1439.3956,-168.5 1439.3956,-187.5 1556.3956,-187.5 1556.3956,-168.5 1439.3956,-168.5"/>
<text text-anchor="middle" x="1497.8956" y="-175.5" font-family="Helvetica,sans-Serif" font-size="10.00" fill="#000000">alib/lang/resources.hpp</text>
</a>
</g>
</g>
<!-- Node2&#45;&gt;Node28 -->
<g id="edge26" class="edge">
<title>Node2&#45;&gt;Node28</title>
<path fill="none" stroke="#191970" d="M2142.7014,-232.2777C2051.1618,-227.4858 1792.7351,-212.7688 1566.5331,-187.994"/>
<polygon fill="#191970" stroke="#191970" points="1566.7906,-184.5013 1556.4668,-186.8824 1566.0222,-191.459 1566.7906,-184.5013"/>
</g>
<!-- Node32 -->
<g id="node28" class="node">
<title>Node32</title>
<g id="a_node28"><a xlink:href="library_8hpp.html" target="_top" xlink:title="alib/lang/library.hpp">
<polygon fill="#ffffff" stroke="#000000" points="1574.8956,-168.5 1574.8956,-187.5 1674.8956,-187.5 1674.8956,-168.5 1574.8956,-168.5"/>
<text text-anchor="middle" x="1624.8956" y="-175.5" font-family="Helvetica,sans-Serif" font-size="10.00" fill="#000000">alib/lang/library.hpp</text>
</a>
</g>
</g>
<!-- Node2&#45;&gt;Node32 -->
<g id="edge27" class="edge">
<title>Node2&#45;&gt;Node32</title>
<path fill="none" stroke="#191970" d="M2142.8021,-231.6612C2062.6992,-225.981 1856.3203,-210.2698 1684.8956,-188 1684.7941,-187.9868 1684.6926,-187.9736 1684.5909,-187.9603"/>
<polygon fill="#191970" stroke="#191970" points="1685.3328,-184.5299 1674.9458,-186.6182 1684.368,-191.4631 1685.3328,-184.5299"/>
</g>
<!-- Node33 -->
<g id="node29" class="node">
<title>Node33</title>
<g id="a_node29"><a xlink:href="stringlib_8hpp.html" target="_top" xlink:title="alib/strings/stringlib.hpp">
<polygon fill="#ffffff" stroke="#000000" points="1693.3956,-168.5 1693.3956,-187.5 1812.3956,-187.5 1812.3956,-168.5 1693.3956,-168.5"/>
<text text-anchor="middle" x="1752.8956" y="-175.5" font-family="Helvetica,sans-Serif" font-size="10.00" fill="#000000">alib/strings/stringlib.hpp</text>
</a>
</g>
</g>
<!-- Node2&#45;&gt;Node33 -->
<g id="edge28" class="edge">
<title>Node2&#45;&gt;Node33</title>
<path fill="none" stroke="#191970" d="M2142.6029,-229.7308C2080.8976,-222.0112 1946.8099,-205.0644 1822.7798,-188.1052"/>
<polygon fill="#191970" stroke="#191970" points="1823.1095,-184.6177 1812.7269,-186.7275 1822.1591,-191.5529 1823.1095,-184.6177"/>
</g>
<!-- Node34 -->
<g id="node30" class="node">
<title>Node34</title>
<g id="a_node30"><a xlink:href="boxinglib_8hpp.html" target="_top" xlink:title="alib/boxing/boxinglib.hpp">
<polygon fill="#ffffff" stroke="#ff0000" points="1830.3956,-168.5 1830.3956,-187.5 1953.3956,-187.5 1953.3956,-168.5 1830.3956,-168.5"/>
<text text-anchor="middle" x="1891.8956" y="-175.5" font-family="Helvetica,sans-Serif" font-size="10.00" fill="#000000">alib/boxing/boxinglib.hpp</text>
</a>
</g>
</g>
<!-- Node2&#45;&gt;Node34 -->
<g id="edge29" class="edge">
<title>Node2&#45;&gt;Node34</title>
<path fill="none" stroke="#191970" d="M2142.801,-227.3007C2095.2718,-217.9617 2008.4219,-200.8964 1950.4232,-189.5002"/>
<polygon fill="#191970" stroke="#191970" points="1950.7903,-186.0054 1940.3031,-187.5117 1949.4406,-192.8741 1950.7903,-186.0054"/>
</g>
<!-- Node43 -->
<g id="node31" class="node">
<title>Node43</title>
<g id="a_node31"><a xlink:href="langlib_8hpp.html" target="_top" xlink:title="alib/lang/langlib.hpp">
<polygon fill="#ffffff" stroke="#000000" points="1971.8956,-168.5 1971.8956,-187.5 2073.8956,-187.5 2073.8956,-168.5 1971.8956,-168.5"/>
<text text-anchor="middle" x="2022.8956" y="-175.5" font-family="Helvetica,sans-Serif" font-size="10.00" fill="#000000">alib/lang/langlib.hpp</text>
</a>
</g>
</g>
<!-- Node2&#45;&gt;Node43 -->
<g id="edge30" class="edge">
<title>Node2&#45;&gt;Node43</title>
<path fill="none" stroke="#191970" d="M2150.422,-224.3733C2125.0359,-215.1419 2086.5311,-201.1402 2058.4736,-190.9375"/>
<polygon fill="#191970" stroke="#191970" points="2059.6177,-187.6293 2049.0236,-187.5011 2057.2255,-194.2079 2059.6177,-187.6293"/>
</g>
<!-- Node44 -->
<g id="node32" class="node">
<title>Node44</title>
<g id="a_node32"><a xlink:href="stringboxing_8hpp.html" target="_top" xlink:title="alib/strings/boxing/stringboxing.hpp">
<polygon fill="#ffffff" stroke="#000000" points="2091.8956,-168.5 2091.8956,-187.5 2261.8956,-187.5 2261.8956,-168.5 2091.8956,-168.5"/>
<text text-anchor="middle" x="2176.8956" y="-175.5" font-family="Helvetica,sans-Serif" font-size="10.00" fill="#000000">alib/strings/boxing/stringboxing.hpp</text>
</a>
</g>
</g>
<!-- Node2&#45;&gt;Node44 -->
<g id="edge31" class="edge">
<title>Node2&#45;&gt;Node44</title>
<path fill="none" stroke="#191970" d="M2176.8956,-224.2455C2176.8956,-216.9382 2176.8956,-206.6944 2176.8956,-197.7046"/>
<polygon fill="#191970" stroke="#191970" points="2180.3957,-197.6426 2176.8956,-187.6427 2173.3957,-197.6427 2180.3957,-197.6426"/>
</g>
<!-- Node45 -->
<g id="node33" class="node">
<title>Node45</title>
<g id="a_node33"><a xlink:href="report_8hpp.html" target="_top" xlink:title="alib/lang/report.hpp">
<polygon fill="#ffffff" stroke="#ff0000" points="2280.3956,-168.5 2280.3956,-187.5 2379.3956,-187.5 2379.3956,-168.5 2280.3956,-168.5"/>
<text text-anchor="middle" x="2329.8956" y="-175.5" font-family="Helvetica,sans-Serif" font-size="10.00" fill="#000000">alib/lang/report.hpp</text>
</a>
</g>
</g>
<!-- Node2&#45;&gt;Node45 -->
<g id="edge32" class="edge">
<title>Node2&#45;&gt;Node45</title>
<path fill="none" stroke="#191970" d="M2203.1972,-224.3733C2228.3084,-215.1822 2266.3394,-201.2624 2294.1828,-191.0713"/>
<polygon fill="#191970" stroke="#191970" points="2295.7494,-194.2251 2303.9371,-187.5011 2293.3434,-187.6516 2295.7494,-194.2251"/>
</g>
<!-- Node47 -->
<g id="node34" class="node">
<title>Node47</title>
<g id="a_node34"><a xlink:href="enumbitwise_8hpp.html" target="_top" xlink:title="alib/lang/enumbitwise.hpp">
<polygon fill="#ffffff" stroke="#ff0000" points="179.3956,-.5 179.3956,-19.5 308.3956,-19.5 308.3956,-.5 179.3956,-.5"/>
<text text-anchor="middle" x="243.8956" y="-7.5" font-family="Helvetica,sans-Serif" font-size="10.00" fill="#000000">alib/lang/enumbitwise.hpp</text>
</a>
</g>
</g>
<!-- Node2&#45;&gt;Node47 -->
<g id="edge33" class="edge">
<title>Node2&#45;&gt;Node47</title>
<path fill="none" stroke="#191970" d="M2142.761,-233.5513C1941.9099,-230.8182 920.7807,-215.6021 860.8956,-188 788.6182,-154.6862 811.1847,-91.3791 739.8956,-56 703.1268,-37.7526 448.0853,-21.27 318.7518,-13.971"/>
<polygon fill="#191970" stroke="#191970" points="318.7078,-10.4631 308.5277,-13.3983 318.3163,-17.4522 318.7078,-10.4631"/>
</g>
<!-- Node49 -->
<g id="node35" class="node">
<title>Node49</title>
<g id="a_node35"><a xlink:href="enummetadata_8hpp.html" target="_top" xlink:title="alib/lang/enummetadata.hpp">
<polygon fill="#ffffff" stroke="#ff0000" points="2397.3956,-168.5 2397.3956,-187.5 2536.3956,-187.5 2536.3956,-168.5 2397.3956,-168.5"/>
<text text-anchor="middle" x="2466.8956" y="-175.5" font-family="Helvetica,sans-Serif" font-size="10.00" fill="#000000">alib/lang/enummetadata.hpp</text>
</a>
</g>
</g>
<!-- Node2&#45;&gt;Node49 -->
<g id="edge34" class="edge">
<title>Node2&#45;&gt;Node49</title>
<path fill="none" stroke="#191970" d="M2211.015,-227.4114C2259.3498,-218.0778 2348.4583,-200.8706 2407.7081,-189.4293"/>
<polygon fill="#191970" stroke="#191970" points="2408.5226,-192.8368 2417.6776,-187.5042 2407.1954,-185.9637 2408.5226,-192.8368"/>
</g>
<!-- Node50 -->
<g id="node36" class="node">
<title>Node50</title>
<g id="a_node36"><a xlink:href="configlib_8hpp.html" target="_top" xlink:title="alib/config/configlib.hpp">
<polygon fill="#ffffff" stroke="#ff0000" points="2061.3956,-.5 2061.3956,-19.5 2180.3956,-19.5 2180.3956,-.5 2061.3956,-.5"/>
<text text-anchor="middle" x="2120.8956" y="-7.5" font-family="Helvetica,sans-Serif" font-size="10.00" fill="#000000">alib/config/configlib.hpp</text>
</a>
</g>
</g>
<!-- Node2&#45;&gt;Node50 -->
<g id="edge35" class="edge">
<title>Node2&#45;&gt;Node50</title>
<path fill="none" stroke="#191970" d="M2210.9552,-233.475C2417.071,-230.2194 3489.5761,-212.1362 3512.8956,-188 3607.1074,-90.4885 2484.9037,-27.9679 2190.5667,-13.3178"/>
<polygon fill="#191970" stroke="#191970" points="2190.6097,-9.8157 2180.4489,-12.8169 2190.2635,-16.8072 2190.6097,-9.8157"/>
</g>
<!-- Node55 -->
<g id="node37" class="node">
<title>Node55</title>
<g id="a_node37"><a xlink:href="systemlib_8hpp.html" target="_top" xlink:title="alib/system/systemlib.hpp">
<polygon fill="#ffffff" stroke="#ff0000" points="2554.3956,-168.5 2554.3956,-187.5 2685.3956,-187.5 2685.3956,-168.5 2554.3956,-168.5"/>
<text text-anchor="middle" x="2619.8956" y="-175.5" font-family="Helvetica,sans-Serif" font-size="10.00" fill="#000000">alib/system/systemlib.hpp</text>
</a>
</g>
</g>
<!-- Node2&#45;&gt;Node55 -->
<g id="edge36" class="edge">
<title>Node2&#45;&gt;Node55</title>
<path fill="none" stroke="#191970" d="M2210.9954,-229.8681C2274.4589,-222.1525 2415.2669,-204.9129 2544.0903,-188.2256"/>
<polygon fill="#191970" stroke="#191970" points="2544.6662,-191.6803 2554.1327,-186.9226 2543.7655,-184.7384 2544.6662,-191.6803"/>
</g>
<!-- Node57 -->
<g id="node38" class="node">
<title>Node57</title>
<g id="a_node38"><a xlink:href="applicables_8hpp.html" target="_top" xlink:title="alib/strings/applicables.hpp">
<polygon fill="#ffffff" stroke="#000000" points="2703.8956,-168.5 2703.8956,-187.5 2837.8956,-187.5 2837.8956,-168.5 2703.8956,-168.5"/>
<text text-anchor="middle" x="2770.8956" y="-175.5" font-family="Helvetica,sans-Serif" font-size="10.00" fill="#000000">alib/strings/applicables.hpp</text>
</a>
</g>
</g>
<!-- Node2&#45;&gt;Node57 -->
<g id="edge37" class="edge">
<title>Node2&#45;&gt;Node57</title>
<path fill="none" stroke="#191970" d="M2211.1913,-231.4584C2292.824,-225.3009 2505.2988,-208.6399 2693.689,-188.0943"/>
<polygon fill="#191970" stroke="#191970" points="2694.2187,-191.5572 2703.7774,-186.9877 2693.4554,-184.599 2694.2187,-191.5572"/>
</g>
<!-- Node60&#45;&gt;Node47 -->
<g id="edge39" class="edge">
<title>Node60&#45;&gt;Node47</title>
<path fill="none" stroke="#191970" d="M318.6069,-230.3419C216.2791,-224.2215 34.6423,-210.3316 14.8956,-188 -50.4926,-114.0525 118.5392,-48.9815 201.3198,-22.5533"/>
<polygon fill="#191970" stroke="#191970" points="202.474,-25.8594 210.9658,-19.5239 200.3765,-19.181 202.474,-25.8594"/>
</g>
<!-- Node61 -->
<g id="node40" class="node">
<title>Node61</title>
<g id="a_node40"><a xlink:href="threadlock_8hpp.html" target="_top" xlink:title="alib/threads/threadlock.hpp">
<polygon fill="#ffffff" stroke="#ff0000" points="316.8956,-112.5 316.8956,-131.5 450.8956,-131.5 450.8956,-112.5 316.8956,-112.5"/>
<text text-anchor="middle" x="383.8956" y="-119.5" font-family="Helvetica,sans-Serif" font-size="10.00" fill="#000000">alib/threads/threadlock.hpp</text>
</a>
</g>
</g>
<!-- Node60&#45;&gt;Node61 -->
<g id="edge40" class="edge">
<title>Node60&#45;&gt;Node61</title>
<path fill="none" stroke="#191970" d="M387.5545,-224.4509C386.9021,-206.184 385.4654,-165.9553 384.599,-141.6976"/>
<polygon fill="#191970" stroke="#191970" points="388.0905,-141.3936 384.2357,-131.5249 381.095,-141.6435 388.0905,-141.3936"/>
</g>
<!-- Node68 -->
<g id="node41" class="node">
<title>Node68</title>
<g id="a_node41"><a xlink:href="substring_8hpp.html" target="_top" xlink:title="alib/strings/substring.hpp">
<polygon fill="#ffffff" stroke="#000000" points="135.3956,-56.5 135.3956,-75.5 260.3956,-75.5 260.3956,-56.5 135.3956,-56.5"/>
<text text-anchor="middle" x="197.8956" y="-63.5" font-family="Helvetica,sans-Serif" font-size="10.00" fill="#000000">alib/strings/substring.hpp</text>
</a>
</g>
</g>
<!-- Node60&#45;&gt;Node68 -->
<g id="edge41" class="edge">
<title>Node60&#45;&gt;Node68</title>
<path fill="none" stroke="#191970" d="M325.0386,-224.4239C282.4907,-216.6232 231.472,-204.247 216.8956,-188 191.5939,-159.7986 192.1731,-112.3828 194.9565,-85.7284"/>
<polygon fill="#191970" stroke="#191970" points="198.4434,-86.0506 196.2152,-75.6927 191.4978,-85.1794 198.4434,-86.0506"/>
</g>
<!-- Node69 -->
<g id="node42" class="node">
<title>Node69</title>
<g id="a_node42"><a xlink:href="numberformat_8hpp.html" target="_top" xlink:title="alib/strings/numberformat.hpp">
<polygon fill="#ffffff" stroke="#000000" points="23.8956,-168.5 23.8956,-187.5 169.8956,-187.5 169.8956,-168.5 23.8956,-168.5"/>
<text text-anchor="middle" x="96.8956" y="-175.5" font-family="Helvetica,sans-Serif" font-size="10.00" fill="#000000">alib/strings/numberformat.hpp</text>
</a>
</g>
</g>
<!-- Node60&#45;&gt;Node69 -->
<g id="edge42" class="edge">
<title>Node60&#45;&gt;Node69</title>
<path fill="none" stroke="#191970" d="M338.2015,-224.4369C287.876,-214.7522 210.0233,-199.7703 156.4305,-189.4569"/>
<polygon fill="#191970" stroke="#191970" points="156.8659,-185.9765 146.3846,-187.5237 155.543,-192.8504 156.8659,-185.9765"/>
</g>
<!-- Node70 -->
<g id="node43" class="node">
<title>Node70</title>
<g id="a_node43"><a xlink:href="variable_8hpp.html" target="_top" xlink:title="alib/config/variable.hpp">
<polygon fill="#ffffff" stroke="#000000" points="614.8956,-56.5 614.8956,-75.5 730.8956,-75.5 730.8956,-56.5 614.8956,-56.5"/>
<text text-anchor="middle" x="672.8956" y="-63.5" font-family="Helvetica,sans-Serif" font-size="10.00" fill="#000000">alib/config/variable.hpp</text>
</a>
</g>
</g>
<!-- Node60&#45;&gt;Node70 -->
<g id="edge43" class="edge">
<title>Node60&#45;&gt;Node70</title>
<path fill="none" stroke="#191970" d="M457.1279,-225.5562C513.7279,-217.634 588.4113,-204.5393 613.8956,-188 649.4377,-164.9331 664.1718,-113.9432 669.7846,-85.7332"/>
<polygon fill="#191970" stroke="#191970" points="673.2417,-86.2832 671.5649,-75.8219 666.352,-85.0456 673.2417,-86.2832"/>
</g>
<!-- Node71 -->
<g id="node44" class="node">
<title>Node71</title>
<g id="a_node44"><a xlink:href="plugins_8hpp.html" target="_top" xlink:title="alib/config/plugins.hpp">
<polygon fill="#ffffff" stroke="#000000" points="469.3956,-112.5 469.3956,-131.5 582.3956,-131.5 582.3956,-112.5 469.3956,-112.5"/>
<text text-anchor="middle" x="525.8956" y="-119.5" font-family="Helvetica,sans-Serif" font-size="10.00" fill="#000000">alib/config/plugins.hpp</text>
</a>
</g>
</g>
<!-- Node60&#45;&gt;Node71 -->
<g id="edge44" class="edge">
<title>Node60&#45;&gt;Node71</title>
<path fill="none" stroke="#191970" d="M394.745,-224.1153C404.6463,-210.3295 424.0675,-185.1014 444.8956,-168 460.2142,-155.4222 479.431,-144.3442 495.3023,-136.2129"/>
<polygon fill="#191970" stroke="#191970" points="497.2931,-139.1317 504.6872,-131.5437 494.175,-132.8645 497.2931,-139.1317"/>
</g>
<!-- Node72 -->
<g id="node45" class="node">
<title>Node72</title>
<g id="a_node45"><a xlink:href="plugincontainer_8hpp.html" target="_top" xlink:title="alib/util/plugincontainer.hpp">
<polygon fill="#ffffff" stroke="#ff0000" points="225.8956,-168.5 225.8956,-187.5 359.8956,-187.5 359.8956,-168.5 225.8956,-168.5"/>
<text text-anchor="middle" x="292.8956" y="-175.5" font-family="Helvetica,sans-Serif" font-size="10.00" fill="#000000">alib/util/plugincontainer.hpp</text>
</a>
</g>
</g>
<!-- Node60&#45;&gt;Node72 -->
<g id="edge45" class="edge">
<title>Node60&#45;&gt;Node72</title>
<path fill="none" stroke="#191970" d="M371.3478,-224.2455C356.6357,-215.5731 334.9068,-202.7645 318.0451,-192.825"/>
<polygon fill="#191970" stroke="#191970" points="319.6457,-189.7057 309.2537,-187.6427 316.091,-195.736 319.6457,-189.7057"/>
</g>
<!-- Node74 -->
<g id="node46" class="node">
<title>Node74</title>
<g id="a_node46"><a xlink:href="inmemoryplugin_8hpp.html" target="_top" xlink:title="alib/config/inmemoryplugin.hpp">
<polygon fill="#ffffff" stroke="#000000" points="454.3956,-168.5 454.3956,-187.5 605.3956,-187.5 605.3956,-168.5 454.3956,-168.5"/>
<text text-anchor="middle" x="529.8956" y="-175.5" font-family="Helvetica,sans-Serif" font-size="10.00" fill="#000000">alib/config/inmemoryplugin.hpp</text>
</a>
</g>
</g>
<!-- Node60&#45;&gt;Node74 -->
<g id="edge46" class="edge">
<title>Node60&#45;&gt;Node74</title>
<path fill="none" stroke="#191970" d="M412.3062,-224.3733C435.5098,-215.2226 470.5994,-201.3844 496.4098,-191.2057"/>
<polygon fill="#191970" stroke="#191970" points="497.7847,-194.4258 505.8034,-187.5011 495.2166,-187.9139 497.7847,-194.4258"/>
</g>
<!-- Node76&#45;&gt;Node1 -->
<g id="edge57" class="edge">
<title>Node76&#45;&gt;Node1</title>
<path fill="none" stroke="#191970" d="M746.5053,-299.6427C757.602,-307.7196 771.7529,-319.4402 782.2053,-329.0751"/>
<polygon fill="#191970" stroke="#191970" points="780.0308,-331.8396 789.6661,-336.2455 784.8814,-326.7926 780.0308,-331.8396"/>
</g>
<!-- Node77&#45;&gt;Node1 -->
<g id="edge58" class="edge">
<title>Node77&#45;&gt;Node1</title>
<path fill="none" stroke="#191970" d="M801.1407,-299.6427C802.562,-306.9199 802.9765,-317.155 802.3842,-326.1575"/>
<polygon fill="#191970" stroke="#191970" points="798.8902,-325.8972 801.1624,-336.2455 805.8395,-326.739 798.8902,-325.8972"/>
</g>
<!-- Node77&#45;&gt;Node89 -->
<g id="edge60" class="edge">
<title>Node77&#45;&gt;Node89</title>
<path fill="none" stroke="#191970" d="M800.4244,-280.2455C803.9289,-272.6973 808.8882,-262.0158 813.1578,-252.8197"/>
<polygon fill="#191970" stroke="#191970" points="816.382,-254.1867 817.4186,-243.6427 810.0329,-251.2389 816.382,-254.1867"/>
</g>
<!-- Node77&#45;&gt;Node60 -->
<g id="edge59" class="edge">
<title>Node77&#45;&gt;Node60</title>
<path fill="none" stroke="#191970" d="M771.8694,-282.1969C768.8676,-281.3769 765.8242,-280.6185 762.8956,-280 661.8616,-258.6612 543.2735,-246.1712 466.9312,-239.7166"/>
<polygon fill="#191970" stroke="#191970" points="467.1649,-236.224 456.9093,-238.8834 466.5849,-243.2 467.1649,-236.224"/>
</g>
<!-- Node13&#45;&gt;Node14 -->
<g id="edge38" class="edge">
<title>Node13&#45;&gt;Node14</title>
<path fill="none" stroke="#191970" d="M733.8601,-168.3733C712.0252,-159.2482 679.0367,-145.462 654.6998,-135.2913"/>
<polygon fill="#191970" stroke="#191970" points="655.7614,-131.9417 645.1851,-131.315 653.0622,-138.4004 655.7614,-131.9417"/>
</g>
<!-- Node68&#45;&gt;Node47 -->
<g id="edge47" class="edge">
<title>Node68&#45;&gt;Node47</title>
<path fill="none" stroke="#191970" d="M205.9081,-56.2455C212.3723,-48.3761 221.634,-37.101 229.3939,-27.6542"/>
<polygon fill="#191970" stroke="#191970" points="232.3319,-29.5916 235.9748,-19.6427 226.9228,-25.1484 232.3319,-29.5916"/>
</g>
<!-- Node70&#45;&gt;Node50 -->
<g id="edge48" class="edge">
<title>Node70&#45;&gt;Node50</title>
<path fill="none" stroke="#191970" d="M731.0016,-63.7528C960.34,-54.8834 1802.2329,-22.324 2051.1415,-12.6977"/>
<polygon fill="#191970" stroke="#191970" points="2051.2899,-16.1946 2061.1471,-12.3107 2051.0193,-9.1999 2051.2899,-16.1946"/>
</g>
<!-- Node71&#45;&gt;Node68 -->
<g id="edge49" class="edge">
<title>Node71&#45;&gt;Node68</title>
<path fill="none" stroke="#191970" d="M469.883,-112.4369C412.8049,-102.6918 324.3114,-87.5832 263.8731,-77.2645"/>
<polygon fill="#191970" stroke="#191970" points="264.1235,-73.7566 253.6771,-75.5237 262.9454,-80.6568 264.1235,-73.7566"/>
</g>
<!-- Node71&#45;&gt;Node70 -->
<g id="edge50" class="edge">
<title>Node71&#45;&gt;Node70</title>
<path fill="none" stroke="#191970" d="M551.1658,-112.3733C575.2922,-103.1822 611.8318,-89.2624 638.5833,-79.0713"/>
<polygon fill="#191970" stroke="#191970" points="639.8562,-82.3318 647.9551,-75.5011 637.3642,-75.7904 639.8562,-82.3318"/>
</g>
<!-- Node72&#45;&gt;Node47 -->
<g id="edge52" class="edge">
<title>Node72&#45;&gt;Node47</title>
<path fill="none" stroke="#191970" d="M291.9903,-168.2423C289.8212,-147.2003 283.392,-96.2078 268.8956,-56 265.4833,-46.5356 260.3481,-36.6559 255.6178,-28.4895"/>
<polygon fill="#191970" stroke="#191970" points="258.5452,-26.5665 250.3783,-19.8173 252.5538,-30.1864 258.5452,-26.5665"/>
</g>
<!-- Node72&#45;&gt;Node14 -->
<g id="edge51" class="edge">
<title>Node72&#45;&gt;Node14</title>
<path fill="none" stroke="#191970" d="M360.0169,-170.5543C420.7753,-163.1261 512.4925,-150.1938 590.8956,-132 590.9948,-131.977 591.0941,-131.9538 591.1936,-131.9305"/>
<polygon fill="#191970" stroke="#191970" points="591.866,-135.3733 600.6332,-129.4247 590.0699,-128.6076 591.866,-135.3733"/>
</g>
<!-- Node72&#45;&gt;Node61 -->
<g id="edge53" class="edge">
<title>Node72&#45;&gt;Node61</title>
<path fill="none" stroke="#191970" d="M308.7465,-168.2455C322.7087,-159.6534 343.2684,-147.0014 359.3551,-137.1018"/>
<polygon fill="#191970" stroke="#191970" points="361.544,-139.8645 368.2262,-131.6427 357.8753,-133.9029 361.544,-139.8645"/>
</g>
<!-- Node72&#45;&gt;Node68 -->
<g id="edge54" class="edge">
<title>Node72&#45;&gt;Node68</title>
<path fill="none" stroke="#191970" d="M284.7959,-168.4509C268.8108,-149.6054 232.9988,-107.3849 212.69,-83.4419"/>
<polygon fill="#191970" stroke="#191970" points="215.1125,-80.887 205.9747,-75.5249 209.7742,-85.415 215.1125,-80.887"/>
</g>
<!-- Node74&#45;&gt;Node14 -->
<g id="edge55" class="edge">
<title>Node74&#45;&gt;Node14</title>
<path fill="none" stroke="#191970" d="M546.0949,-168.2455C560.4973,-159.5731 581.7688,-146.7645 598.2755,-136.825"/>
<polygon fill="#191970" stroke="#191970" points="600.1205,-139.7996 606.8818,-131.6427 596.5095,-133.8028 600.1205,-139.7996"/>
</g>
<!-- Node74&#45;&gt;Node71 -->
<g id="edge56" class="edge">
<title>Node74&#45;&gt;Node71</title>
<path fill="none" stroke="#191970" d="M529.1988,-168.2455C528.6769,-160.9382 527.9451,-150.6944 527.303,-141.7046"/>
<polygon fill="#191970" stroke="#191970" points="530.788,-141.3679 526.5843,-131.6427 523.8058,-141.8667 530.788,-141.3679"/>
</g>
<!-- Node100&#45;&gt;Node14 -->
<g id="edge70" class="edge">
<title>Node100&#45;&gt;Node14</title>
<path fill="none" stroke="#191970" d="M2987.4344,-231.0593C3142.1189,-224.3539 3495.2722,-207.0335 3512.8956,-188 3518.9347,-181.4776 3519.1307,-174.3352 3512.8956,-168 3486.5066,-141.1877 971.543,-124.2308 655.4157,-122.2047"/>
<polygon fill="#191970" stroke="#191970" points="655.1275,-118.7029 645.1054,-122.1389 655.0828,-125.7027 655.1275,-118.7029"/>
</g>
</g>
</svg>
