<?xml version="1.0" encoding="UTF-8" standalone="no"?>
<!DOCTYPE svg PUBLIC "-//W3C//DTD SVG 1.1//EN"
 "http://www.w3.org/Graphics/SVG/1.1/DTD/svg11.dtd">
<!-- Generated by graphviz version 2.40.1 (20161225.0304)
 -->
<!-- Title: threadlock.hpp Pages: 1 -->
<svg width="399pt" height="196pt"
 viewBox="0.00 0.00 399.00 196.00" xmlns="http://www.w3.org/2000/svg" xmlns:xlink="http://www.w3.org/1999/xlink">
<g id="graph0" class="graph" transform="scale(1 1) rotate(0) translate(4 192)">
<title>threadlock.hpp</title>
<polygon fill="#ffffff" stroke="transparent" points="-4,4 -4,-192 395,-192 395,4 -4,4"/>
<!-- Node0 -->
<g id="node1" class="node">
<title>Node0</title>
<polygon fill="#bfbfbf" stroke="#000000" points="128,-168.5 128,-187.5 208,-187.5 208,-168.5 128,-168.5"/>
<text text-anchor="middle" x="168" y="-175.5" font-family="Helvetica,sans-Serif" font-size="10.00" fill="#000000">threadlock.hpp</text>
</g>
<!-- Node1 -->
<g id="node2" class="node">
<title>Node1</title>
<g id="a_node2"><a xlink:href="threadlocknr_8hpp.html" target="_top" xlink:title="alib/threads/threadlocknr.hpp">
<polygon fill="#ffffff" stroke="#000000" points="35.5,-112.5 35.5,-131.5 176.5,-131.5 176.5,-112.5 35.5,-112.5"/>
<text text-anchor="middle" x="106" y="-119.5" font-family="Helvetica,sans-Serif" font-size="10.00" fill="#000000">alib/threads/threadlocknr.hpp</text>
</a>
</g>
</g>
<!-- Node0&#45;&gt;Node1 -->
<g id="edge1" class="edge">
<title>Node0&#45;&gt;Node1</title>
<path fill="none" stroke="#191970" d="M157.2004,-168.2455C148.1322,-160.0549 134.9794,-148.1749 124.2755,-138.5069"/>
<polygon fill="#191970" stroke="#191970" points="126.4429,-135.7482 116.6758,-131.6427 121.7509,-140.9429 126.4429,-135.7482"/>
</g>
<!-- Node60 -->
<g id="node3" class="node">
<title>Node60</title>
<g id="a_node3"><a xlink:href="threadlib_8hpp.html" target="_top" xlink:title="threadlib.hpp">
<polygon fill="#ffffff" stroke="#000000" points="195,-112.5 195,-131.5 267,-131.5 267,-112.5 195,-112.5"/>
<text text-anchor="middle" x="231" y="-119.5" font-family="Helvetica,sans-Serif" font-size="10.00" fill="#000000">threadlib.hpp</text>
</a>
</g>
</g>
<!-- Node0&#45;&gt;Node60 -->
<g id="edge2" class="edge">
<title>Node0&#45;&gt;Node60</title>
<path fill="none" stroke="#191970" d="M178.9738,-168.2455C188.1882,-160.0549 201.5532,-148.1749 212.4297,-138.5069"/>
<polygon fill="#191970" stroke="#191970" points="215.0032,-140.9023 220.152,-131.6427 210.3526,-135.6704 215.0032,-140.9023"/>
</g>
<!-- Node2 -->
<g id="node4" class="node">
<title>Node2</title>
<g id="a_node4"><a xlink:href="owner_8hpp.html" target="_top" xlink:title="alib/lang/owner.hpp">
<polygon fill="#ffffff" stroke="#000000" points="0,-56.5 0,-75.5 100,-75.5 100,-56.5 0,-56.5"/>
<text text-anchor="middle" x="50" y="-63.5" font-family="Helvetica,sans-Serif" font-size="10.00" fill="#000000">alib/lang/owner.hpp</text>
</a>
</g>
</g>
<!-- Node1&#45;&gt;Node2 -->
<g id="edge3" class="edge">
<title>Node1&#45;&gt;Node2</title>
<path fill="none" stroke="#191970" d="M96.2455,-112.2455C88.1352,-104.1352 76.4075,-92.4075 66.7919,-82.7919"/>
<polygon fill="#191970" stroke="#191970" points="69.1887,-80.2389 59.6427,-75.6427 64.2389,-85.1887 69.1887,-80.2389"/>
</g>
<!-- Node59 -->
<g id="node5" class="node">
<title>Node59</title>
<polygon fill="#ffffff" stroke="#bfbfbf" points="118,-56.5 118,-75.5 162,-75.5 162,-56.5 118,-56.5"/>
<text text-anchor="middle" x="140" y="-63.5" font-family="Helvetica,sans-Serif" font-size="10.00" fill="#000000">mutex</text>
</g>
<!-- Node1&#45;&gt;Node59 -->
<g id="edge4" class="edge">
<title>Node1&#45;&gt;Node59</title>
<path fill="none" stroke="#191970" d="M111.9223,-112.2455C116.6027,-104.5367 123.2673,-93.5598 128.9289,-84.2348"/>
<polygon fill="#191970" stroke="#191970" points="131.9475,-86.007 134.1455,-75.6427 125.9639,-82.3741 131.9475,-86.007"/>
</g>
<!-- Node60&#45;&gt;Node59 -->
<g id="edge7" class="edge">
<title>Node60&#45;&gt;Node59</title>
<path fill="none" stroke="#191970" d="M215.149,-112.2455C201.1868,-103.6534 180.6272,-91.0014 164.5404,-81.1018"/>
<polygon fill="#191970" stroke="#191970" points="166.0203,-77.9029 155.6693,-75.6427 162.3516,-83.8645 166.0203,-77.9029"/>
</g>
<!-- Node30 -->
<g id="node7" class="node">
<title>Node30</title>
<polygon fill="#ffffff" stroke="#bfbfbf" points="180.5,-56.5 180.5,-75.5 215.5,-75.5 215.5,-56.5 180.5,-56.5"/>
<text text-anchor="middle" x="198" y="-63.5" font-family="Helvetica,sans-Serif" font-size="10.00" fill="#000000">map</text>
</g>
<!-- Node60&#45;&gt;Node30 -->
<g id="edge6" class="edge">
<title>Node60&#45;&gt;Node30</title>
<path fill="none" stroke="#191970" d="M225.2518,-112.2455C220.7565,-104.617 214.3752,-93.7881 208.9175,-84.5267"/>
<polygon fill="#191970" stroke="#191970" points="211.7747,-82.4811 203.6823,-75.6427 205.7439,-86.035 211.7747,-82.4811"/>
</g>
<!-- Node61 -->
<g id="node8" class="node">
<title>Node61</title>
<polygon fill="#ffffff" stroke="#bfbfbf" points="233.5,-56.5 233.5,-75.5 328.5,-75.5 328.5,-56.5 233.5,-56.5"/>
<text text-anchor="middle" x="281" y="-63.5" font-family="Helvetica,sans-Serif" font-size="10.00" fill="#000000">condition_variable</text>
</g>
<!-- Node60&#45;&gt;Node61 -->
<g id="edge8" class="edge">
<title>Node60&#45;&gt;Node61</title>
<path fill="none" stroke="#191970" d="M239.7093,-112.2455C246.8073,-104.2958 257.0084,-92.8706 265.495,-83.3656"/>
<polygon fill="#191970" stroke="#191970" points="268.3411,-85.4331 272.3905,-75.6427 263.1195,-80.771 268.3411,-85.4331"/>
</g>
<!-- Node62 -->
<g id="node9" class="node">
<title>Node62</title>
<polygon fill="#ffffff" stroke="#bfbfbf" points="347,-56.5 347,-75.5 391,-75.5 391,-56.5 347,-56.5"/>
<text text-anchor="middle" x="369" y="-63.5" font-family="Helvetica,sans-Serif" font-size="10.00" fill="#000000">thread</text>
</g>
<!-- Node60&#45;&gt;Node62 -->
<g id="edge9" class="edge">
<title>Node60&#45;&gt;Node62</title>
<path fill="none" stroke="#191970" d="M254.723,-112.3733C277.5818,-103.0972 312.3104,-89.0045 337.483,-78.7895"/>
<polygon fill="#191970" stroke="#191970" points="339.0022,-81.9503 346.9522,-74.9469 336.37,-75.464 339.0022,-81.9503"/>
</g>
<!-- Node3 -->
<g id="node6" class="node">
<title>Node3</title>
<g id="a_node6"><a xlink:href="alib_8hpp.html" target="_top" xlink:title="alib/alib.hpp">
<polygon fill="#ffffff" stroke="#ff0000" points="16,-.5 16,-19.5 84,-19.5 84,-.5 16,-.5"/>
<text text-anchor="middle" x="50" y="-7.5" font-family="Helvetica,sans-Serif" font-size="10.00" fill="#000000">alib/alib.hpp</text>
</a>
</g>
</g>
<!-- Node2&#45;&gt;Node3 -->
<g id="edge5" class="edge">
<title>Node2&#45;&gt;Node3</title>
<path fill="none" stroke="#191970" d="M50,-56.2455C50,-48.9382 50,-38.6944 50,-29.7046"/>
<polygon fill="#191970" stroke="#191970" points="53.5001,-29.6426 50,-19.6427 46.5001,-29.6427 53.5001,-29.6426"/>
</g>
</g>
</svg>
