<?xml version="1.0" encoding="UTF-8" standalone="no"?>
<!DOCTYPE svg PUBLIC "-//W3C//DTD SVG 1.1//EN"
 "http://www.w3.org/Graphics/SVG/1.1/DTD/svg11.dtd">
<!-- Generated by graphviz version 2.40.1 (20161225.0304)
 -->
<!-- Title: threadlib.hpp Pages: 1 -->
<svg width="384pt" height="308pt"
 viewBox="0.00 0.00 383.50 308.00" xmlns="http://www.w3.org/2000/svg" xmlns:xlink="http://www.w3.org/1999/xlink">
<g id="graph0" class="graph" transform="scale(1 1) rotate(0) translate(4 304)">
<title>threadlib.hpp</title>
<polygon fill="#ffffff" stroke="transparent" points="-4,4 -4,-304 379.5,-304 379.5,4 -4,4"/>
<!-- Node5 -->
<g id="node1" class="node">
<title>Node5</title>
<polygon fill="#bfbfbf" stroke="#000000" points="146,-280.5 146,-299.5 218,-299.5 218,-280.5 146,-280.5"/>
<text text-anchor="middle" x="182" y="-287.5" font-family="Helvetica,sans-Serif" font-size="10.00" fill="#000000">threadlib.hpp</text>
</g>
<!-- Node6 -->
<g id="node2" class="node">
<title>Node6</title>
<g id="a_node2"><a xlink:href="threadlock_8hpp.html" target="_top" xlink:title="threadlock.hpp">
<polygon fill="#ffffff" stroke="#000000" points="142,-224.5 142,-243.5 222,-243.5 222,-224.5 142,-224.5"/>
<text text-anchor="middle" x="182" y="-231.5" font-family="Helvetica,sans-Serif" font-size="10.00" fill="#000000">threadlock.hpp</text>
</a>
</g>
</g>
<!-- Node5&#45;&gt;Node6 -->
<g id="edge1" class="edge">
<title>Node5&#45;&gt;Node6</title>
<path fill="none" stroke="#191970" d="M182,-270.1575C182,-261.155 182,-250.9199 182,-243.6427"/>
<polygon fill="#191970" stroke="#191970" points="178.5001,-270.2455 182,-280.2455 185.5001,-270.2456 178.5001,-270.2455"/>
</g>
<!-- Node7 -->
<g id="node3" class="node">
<title>Node7</title>
<g id="a_node3"><a xlink:href="configuration_8hpp.html" target="_top" xlink:title="configuration.hpp">
<polygon fill="#ffffff" stroke="#000000" points="220.5,-112.5 220.5,-131.5 311.5,-131.5 311.5,-112.5 220.5,-112.5"/>
<text text-anchor="middle" x="266" y="-119.5" font-family="Helvetica,sans-Serif" font-size="10.00" fill="#000000">configuration.hpp</text>
</a>
</g>
</g>
<!-- Node6&#45;&gt;Node7 -->
<g id="edge2" class="edge">
<title>Node6&#45;&gt;Node7</title>
<path fill="none" stroke="#191970" d="M191.1568,-215.1494C198.1919,-201.4803 208.6096,-182.8627 220,-168 230.5799,-154.195 245.0772,-140.3528 254.9502,-131.5138"/>
<polygon fill="#191970" stroke="#191970" points="188.0206,-213.5956 186.6665,-224.1036 194.2779,-216.7335 188.0206,-213.5956"/>
</g>
<!-- Node35 -->
<g id="node4" class="node">
<title>Node35</title>
<g id="a_node4"><a xlink:href="formatter_8hpp.html" target="_top" xlink:title="formatter.hpp">
<polygon fill="#ffffff" stroke="#000000" points="39,-168.5 39,-187.5 113,-187.5 113,-168.5 39,-168.5"/>
<text text-anchor="middle" x="76" y="-175.5" font-family="Helvetica,sans-Serif" font-size="10.00" fill="#000000">formatter.hpp</text>
</a>
</g>
</g>
<!-- Node6&#45;&gt;Node35 -->
<g id="edge3" class="edge">
<title>Node6&#45;&gt;Node35</title>
<path fill="none" stroke="#191970" d="M154.4778,-219.46C135.5092,-209.4388 110.8273,-196.3993 94.2522,-187.6427"/>
<polygon fill="#191970" stroke="#191970" points="153.0593,-222.669 163.5362,-224.2455 156.3292,-216.4796 153.0593,-222.669"/>
</g>
<!-- Node45 -->
<g id="node5" class="node">
<title>Node45</title>
<g id="a_node5"><a xlink:href="smartlock_8hpp.html" target="_top" xlink:title="smartlock.hpp">
<polygon fill="#ffffff" stroke="#000000" points="124,-112.5 124,-131.5 202,-131.5 202,-112.5 124,-112.5"/>
<text text-anchor="middle" x="163" y="-119.5" font-family="Helvetica,sans-Serif" font-size="10.00" fill="#000000">smartlock.hpp</text>
</a>
</g>
</g>
<!-- Node6&#45;&gt;Node45 -->
<g id="edge4" class="edge">
<title>Node6&#45;&gt;Node45</title>
<path fill="none" stroke="#191970" d="M178.653,-214.2702C174.5355,-189.9985 167.7114,-149.7725 164.6158,-131.5249"/>
<polygon fill="#191970" stroke="#191970" points="175.2568,-215.1772 180.3801,-224.4509 182.1582,-214.0064 175.2568,-215.1772"/>
</g>
<!-- Node46 -->
<g id="node6" class="node">
<title>Node46</title>
<g id="a_node6"><a xlink:href="plugincontainer_8hpp.html" target="_top" xlink:title="plugincontainer.hpp">
<polygon fill="#ffffff" stroke="#000000" points="229,-168.5 229,-187.5 329,-187.5 329,-168.5 229,-168.5"/>
<text text-anchor="middle" x="279" y="-175.5" font-family="Helvetica,sans-Serif" font-size="10.00" fill="#000000">plugincontainer.hpp</text>
</a>
</g>
</g>
<!-- Node6&#45;&gt;Node46 -->
<g id="edge5" class="edge">
<title>Node6&#45;&gt;Node46</title>
<path fill="none" stroke="#191970" d="M207.9016,-219.0465C225.1609,-209.0824 247.3376,-196.2794 262.2975,-187.6427"/>
<polygon fill="#191970" stroke="#191970" points="205.8065,-216.2146 198.8961,-224.2455 209.3064,-222.2768 205.8065,-216.2146"/>
</g>
<!-- Node8 -->
<g id="node7" class="node">
<title>Node8</title>
<g id="a_node7"><a xlink:href="alox_2alox_8hpp.html" target="_top" xlink:title="alox.hpp">
<polygon fill="#ffffff" stroke="#ff0000" points="233.5,-56.5 233.5,-75.5 286.5,-75.5 286.5,-56.5 233.5,-56.5"/>
<text text-anchor="middle" x="260" y="-63.5" font-family="Helvetica,sans-Serif" font-size="10.00" fill="#000000">alox.hpp</text>
</a>
</g>
</g>
<!-- Node7&#45;&gt;Node8 -->
<g id="edge6" class="edge">
<title>Node7&#45;&gt;Node8</title>
<path fill="none" stroke="#191970" d="M263.874,-102.1575C262.9095,-93.155 261.8128,-82.9199 261.0331,-75.6427"/>
<polygon fill="#191970" stroke="#191970" points="260.4094,-102.6753 264.9549,-112.2455 267.3695,-101.9296 260.4094,-102.6753"/>
</g>
<!-- Node10 -->
<g id="node8" class="node">
<title>Node10</title>
<g id="a_node8"><a xlink:href="lox_8hpp.html" target="_top" xlink:title="lox.hpp">
<polygon fill="#ffffff" stroke="#000000" points="208,-.5 208,-19.5 256,-19.5 256,-.5 208,-.5"/>
<text text-anchor="middle" x="232" y="-7.5" font-family="Helvetica,sans-Serif" font-size="10.00" fill="#000000">lox.hpp</text>
</a>
</g>
</g>
<!-- Node7&#45;&gt;Node10 -->
<g id="edge7" class="edge">
<title>Node7&#45;&gt;Node10</title>
<path fill="none" stroke="#191970" d="M245.5088,-105.1249C237.4971,-97.2186 229.2275,-87.0966 225,-76 217.7802,-57.0489 223.7962,-32.9603 228.2613,-19.7555"/>
<polygon fill="#191970" stroke="#191970" points="243.5393,-108.0677 253.2752,-112.2466 248.2703,-102.9084 243.5393,-108.0677"/>
</g>
<!-- Node26 -->
<g id="node9" class="node">
<title>Node26</title>
<g id="a_node9"><a xlink:href="compiler_8hpp_source.html" target="_top" xlink:title="compiler.hpp">
<polygon fill="#ffffff" stroke="#ff0000" points="304.5,-56.5 304.5,-75.5 375.5,-75.5 375.5,-56.5 304.5,-56.5"/>
<text text-anchor="middle" x="340" y="-63.5" font-family="Helvetica,sans-Serif" font-size="10.00" fill="#000000">compiler.hpp</text>
</a>
</g>
</g>
<!-- Node7&#45;&gt;Node26 -->
<g id="edge8" class="edge">
<title>Node7&#45;&gt;Node26</title>
<path fill="none" stroke="#191970" d="M286.8657,-106.2097C299.8625,-96.3743 316.1622,-84.0394 327.2579,-75.6427"/>
<polygon fill="#191970" stroke="#191970" points="284.7518,-103.4201 278.8898,-112.2455 288.976,-109.002 284.7518,-103.4201"/>
</g>
<!-- Node36 -->
<g id="node10" class="node">
<title>Node36</title>
<g id="a_node10"><a xlink:href="formatterstdimpl_8hpp.html" target="_top" xlink:title="formatterstdimpl.hpp">
<polygon fill="#ffffff" stroke="#ff0000" points="0,-112.5 0,-131.5 106,-131.5 106,-112.5 0,-112.5"/>
<text text-anchor="middle" x="53" y="-119.5" font-family="Helvetica,sans-Serif" font-size="10.00" fill="#000000">formatterstdimpl.hpp</text>
</a>
</g>
</g>
<!-- Node35&#45;&gt;Node36 -->
<g id="edge11" class="edge">
<title>Node35&#45;&gt;Node36</title>
<path fill="none" stroke="#191970" d="M68.0934,-158.7493C64.3383,-149.6064 60.0149,-139.0798 56.9604,-131.6427"/>
<polygon fill="#191970" stroke="#191970" points="64.9569,-160.3251 71.9937,-168.2455 71.432,-157.6656 64.9569,-160.3251"/>
</g>
<!-- Node45&#45;&gt;Node10 -->
<g id="edge12" class="edge">
<title>Node45&#45;&gt;Node10</title>
<path fill="none" stroke="#191970" d="M174.1554,-103.8927C188.9798,-79.8299 214.6358,-38.1853 226.132,-19.5249"/>
<polygon fill="#191970" stroke="#191970" points="171.1483,-102.1011 168.8829,-112.4509 177.1081,-105.7728 171.1483,-102.1011"/>
</g>
<!-- Node46&#45;&gt;Node7 -->
<g id="edge13" class="edge">
<title>Node46&#45;&gt;Node7</title>
<path fill="none" stroke="#191970" d="M274.4625,-158.4538C272.3561,-149.3803 269.9464,-138.9998 268.2385,-131.6427"/>
<polygon fill="#191970" stroke="#191970" points="271.0649,-159.2961 276.7356,-168.2455 277.8835,-157.7131 271.0649,-159.2961"/>
</g>
<!-- Node46&#45;&gt;Node26 -->
<g id="edge14" class="edge">
<title>Node46&#45;&gt;Node26</title>
<path fill="none" stroke="#191970" d="M297.6217,-161.425C305.8055,-153.2717 314.9175,-142.8706 321,-132 331.2472,-113.6863 336.385,-89.3586 338.5954,-75.9423"/>
<polygon fill="#191970" stroke="#191970" points="295.0222,-159.0671 290.189,-168.4952 299.8468,-164.139 295.0222,-159.0671"/>
</g>
<!-- Node8&#45;&gt;Node10 -->
<g id="edge9" class="edge">
<title>Node8&#45;&gt;Node10</title>
<path fill="none" stroke="#191970" d="M244.4329,-47.6296C239.0209,-38.2887 233.9153,-27.3197 231.5762,-19.6427"/>
<polygon fill="#191970" stroke="#191970" points="241.5669,-49.6468 249.8559,-56.2455 247.4911,-45.918 241.5669,-49.6468"/>
</g>
<!-- Node10&#45;&gt;Node8 -->
<g id="edge10" class="edge">
<title>Node10&#45;&gt;Node8</title>
<path fill="none" stroke="#191970" d="M247.4885,-28.2348C252.9034,-37.5598 258.0238,-48.5367 260.3896,-56.2455"/>
<polygon fill="#191970" stroke="#191970" points="250.3631,-26.2318 242.0665,-19.6427 244.4433,-29.9675 250.3631,-26.2318"/>
</g>
</g>
</svg>
