<?xml version="1.0" encoding="UTF-8" standalone="no"?>
<!DOCTYPE svg PUBLIC "-//W3C//DTD SVG 1.1//EN"
 "http://www.w3.org/Graphics/SVG/1.1/DTD/svg11.dtd">
<!-- Generated by graphviz version 2.40.1 (20161225.0304)
 -->
<!-- Title: threadlocknr.hpp Pages: 1 -->
<svg width="3058pt" height="196pt"
 viewBox="0.00 0.00 3058.00 196.00" xmlns="http://www.w3.org/2000/svg" xmlns:xlink="http://www.w3.org/1999/xlink">
<g id="graph0" class="graph" transform="scale(1 1) rotate(0) translate(4 192)">
<title>threadlocknr.hpp</title>
<polygon fill="#ffffff" stroke="transparent" points="-4,4 -4,-192 3054,-192 3054,4 -4,4"/>
<!-- Node0 -->
<g id="node1" class="node">
<title>Node0</title>
<polygon fill="#bfbfbf" stroke="#000000" points="1348,-168.5 1348,-187.5 1436,-187.5 1436,-168.5 1348,-168.5"/>
<text text-anchor="middle" x="1392" y="-175.5" font-family="Helvetica,sans-Serif" font-size="10.00" fill="#000000">threadlocknr.hpp</text>
</g>
<!-- Node1 -->
<g id="node2" class="node">
<title>Node1</title>
<g id="a_node2"><a xlink:href="owner_8hpp.html" target="_top" xlink:title="alib/lang/owner.hpp">
<polygon fill="#ffffff" stroke="#000000" points="1297,-112.5 1297,-131.5 1397,-131.5 1397,-112.5 1297,-112.5"/>
<text text-anchor="middle" x="1347" y="-119.5" font-family="Helvetica,sans-Serif" font-size="10.00" fill="#000000">alib/lang/owner.hpp</text>
</a>
</g>
</g>
<!-- Node0&#45;&gt;Node1 -->
<g id="edge1" class="edge">
<title>Node0&#45;&gt;Node1</title>
<path fill="none" stroke="#191970" d="M1384.1616,-168.2455C1377.838,-160.3761 1368.7776,-149.101 1361.1864,-139.6542"/>
<polygon fill="#191970" stroke="#191970" points="1363.7408,-137.2454 1354.7486,-131.6427 1358.2842,-141.6302 1363.7408,-137.2454"/>
</g>
<!-- Node58 -->
<g id="node3" class="node">
<title>Node58</title>
<polygon fill="#ffffff" stroke="#bfbfbf" points="1415,-112.5 1415,-131.5 1459,-131.5 1459,-112.5 1415,-112.5"/>
<text text-anchor="middle" x="1437" y="-119.5" font-family="Helvetica,sans-Serif" font-size="10.00" fill="#000000">mutex</text>
</g>
<!-- Node0&#45;&gt;Node58 -->
<g id="edge2" class="edge">
<title>Node0&#45;&gt;Node58</title>
<path fill="none" stroke="#191970" d="M1399.8384,-168.2455C1406.162,-160.3761 1415.2224,-149.101 1422.8136,-139.6542"/>
<polygon fill="#191970" stroke="#191970" points="1425.7158,-141.6302 1429.2514,-131.6427 1420.2592,-137.2454 1425.7158,-141.6302"/>
</g>
<!-- Node2 -->
<g id="node4" class="node">
<title>Node2</title>
<g id="a_node4"><a xlink:href="alib_8hpp.html" target="_top" xlink:title="alib/alib.hpp">
<polygon fill="#ffffff" stroke="#000000" points="1313,-56.5 1313,-75.5 1381,-75.5 1381,-56.5 1313,-56.5"/>
<text text-anchor="middle" x="1347" y="-63.5" font-family="Helvetica,sans-Serif" font-size="10.00" fill="#000000">alib/alib.hpp</text>
</a>
</g>
</g>
<!-- Node1&#45;&gt;Node2 -->
<g id="edge3" class="edge">
<title>Node1&#45;&gt;Node2</title>
<path fill="none" stroke="#191970" d="M1347,-112.2455C1347,-104.9382 1347,-94.6944 1347,-85.7046"/>
<polygon fill="#191970" stroke="#191970" points="1350.5001,-85.6426 1347,-75.6427 1343.5001,-85.6427 1350.5001,-85.6426"/>
</g>
<!-- Node3 -->
<g id="node5" class="node">
<title>Node3</title>
<polygon fill="#ffffff" stroke="#bfbfbf" points="0,-.5 0,-19.5 52,-19.5 52,-.5 0,-.5"/>
<text text-anchor="middle" x="26" y="-7.5" font-family="Helvetica,sans-Serif" font-size="10.00" fill="#000000">assert.h</text>
</g>
<!-- Node2&#45;&gt;Node3 -->
<g id="edge4" class="edge">
<title>Node2&#45;&gt;Node3</title>
<path fill="none" stroke="#191970" d="M1312.9483,-65.8977C1137.4522,-65.2032 333.1992,-59.9423 62.3989,-19.7957"/>
<polygon fill="#191970" stroke="#191970" points="62.6356,-16.2911 52.2197,-18.2297 61.5712,-23.2097 62.6356,-16.2911"/>
</g>
<!-- Node4 -->
<g id="node6" class="node">
<title>Node4</title>
<polygon fill="#ffffff" stroke="#bfbfbf" points="70.5,-.5 70.5,-19.5 115.5,-19.5 115.5,-.5 70.5,-.5"/>
<text text-anchor="middle" x="93" y="-7.5" font-family="Helvetica,sans-Serif" font-size="10.00" fill="#000000">iosfwd</text>
</g>
<!-- Node2&#45;&gt;Node4 -->
<g id="edge5" class="edge">
<title>Node2&#45;&gt;Node4</title>
<path fill="none" stroke="#191970" d="M1312.7818,-65.2534C1131.482,-61.2267 285.701,-41.5365 125.8487,-19.4522"/>
<polygon fill="#191970" stroke="#191970" points="125.9608,-15.928 115.5433,-17.8582 124.8907,-22.8457 125.9608,-15.928"/>
</g>
<!-- Node5 -->
<g id="node7" class="node">
<title>Node5</title>
<polygon fill="#ffffff" stroke="#bfbfbf" points="134,-.5 134,-19.5 180,-19.5 180,-.5 134,-.5"/>
<text text-anchor="middle" x="157" y="-7.5" font-family="Helvetica,sans-Serif" font-size="10.00" fill="#000000">cstdint</text>
</g>
<!-- Node2&#45;&gt;Node5 -->
<g id="edge6" class="edge">
<title>Node2&#45;&gt;Node5</title>
<path fill="none" stroke="#191970" d="M1312.805,-65.8526C1147.9884,-64.96 433.9036,-58.9705 190.4408,-19.7516"/>
<polygon fill="#191970" stroke="#191970" points="190.6854,-16.2438 180.2441,-18.0409 189.5272,-23.1473 190.6854,-16.2438"/>
</g>
<!-- Node6 -->
<g id="node8" class="node">
<title>Node6</title>
<g id="a_node8"><a xlink:href="prepro_8hpp.html" target="_top" xlink:title="alib/lang/prepro.hpp">
<polygon fill="#ffffff" stroke="#000000" points="198.5,-.5 198.5,-19.5 299.5,-19.5 299.5,-.5 198.5,-.5"/>
<text text-anchor="middle" x="249" y="-7.5" font-family="Helvetica,sans-Serif" font-size="10.00" fill="#000000">alib/lang/prepro.hpp</text>
</a>
</g>
</g>
<!-- Node2&#45;&gt;Node6 -->
<g id="edge7" class="edge">
<title>Node2&#45;&gt;Node6</title>
<path fill="none" stroke="#191970" d="M1312.8667,-65.0433C1159.2654,-60.6543 530.4552,-41.768 309.8721,-19.931"/>
<polygon fill="#191970" stroke="#191970" points="309.9844,-16.4244 299.6803,-18.889 309.2724,-23.3881 309.9844,-16.4244"/>
</g>
<!-- Node7 -->
<g id="node9" class="node">
<title>Node7</title>
<g id="a_node9"><a xlink:href="types_8hpp.html" target="_top" xlink:title="alib/lang/types.hpp">
<polygon fill="#ffffff" stroke="#000000" points="318,-.5 318,-19.5 416,-19.5 416,-.5 318,-.5"/>
<text text-anchor="middle" x="367" y="-7.5" font-family="Helvetica,sans-Serif" font-size="10.00" fill="#000000">alib/lang/types.hpp</text>
</a>
</g>
</g>
<!-- Node2&#45;&gt;Node7 -->
<g id="edge8" class="edge">
<title>Node2&#45;&gt;Node7</title>
<path fill="none" stroke="#191970" d="M1312.9743,-65.7841C1192.9786,-64.7109 778.2717,-58.3587 426.4323,-20.0321"/>
<polygon fill="#191970" stroke="#191970" points="426.6261,-16.5324 416.3034,-18.9179 425.8607,-23.4904 426.6261,-16.5324"/>
</g>
<!-- Node8 -->
<g id="node10" class="node">
<title>Node8</title>
<g id="a_node10"><a xlink:href="assert_8hpp.html" target="_top" xlink:title="alib/debug/assert.hpp">
<polygon fill="#ffffff" stroke="#000000" points="434,-.5 434,-19.5 544,-19.5 544,-.5 434,-.5"/>
<text text-anchor="middle" x="489" y="-7.5" font-family="Helvetica,sans-Serif" font-size="10.00" fill="#000000">alib/debug/assert.hpp</text>
</a>
</g>
</g>
<!-- Node2&#45;&gt;Node8 -->
<g id="edge9" class="edge">
<title>Node2&#45;&gt;Node8</title>
<path fill="none" stroke="#191970" d="M1312.8522,-65.2069C1203.8172,-62.4242 854.1043,-51.5648 554.3087,-20.0415"/>
<polygon fill="#191970" stroke="#191970" points="554.4268,-16.5344 544.1132,-18.9593 553.6879,-23.4953 554.4268,-16.5344"/>
</g>
<!-- Node9 -->
<g id="node11" class="node">
<title>Node9</title>
<g id="a_node11"><a xlink:href="rtti_8hpp.html" target="_top" xlink:title="alib/lang/rtti.hpp">
<polygon fill="#ffffff" stroke="#ff0000" points="562,-.5 562,-19.5 648,-19.5 648,-.5 562,-.5"/>
<text text-anchor="middle" x="605" y="-7.5" font-family="Helvetica,sans-Serif" font-size="10.00" fill="#000000">alib/lang/rtti.hpp</text>
</a>
</g>
</g>
<!-- Node2&#45;&gt;Node9 -->
<g id="edge10" class="edge">
<title>Node2&#45;&gt;Node9</title>
<path fill="none" stroke="#191970" d="M1312.7521,-65.2116C1213.225,-62.6042 915.3417,-52.5611 658.342,-20.0221"/>
<polygon fill="#191970" stroke="#191970" points="658.4278,-16.5046 648.0641,-18.7059 657.5385,-23.4479 658.4278,-16.5046"/>
</g>
<!-- Node13 -->
<g id="node12" class="node">
<title>Node13</title>
<g id="a_node12"><a xlink:href="singleton_8hpp.html" target="_top" xlink:title="alib/lang/singleton.hpp">
<polygon fill="#ffffff" stroke="#ff0000" points="666.5,-.5 666.5,-19.5 779.5,-19.5 779.5,-.5 666.5,-.5"/>
<text text-anchor="middle" x="723" y="-7.5" font-family="Helvetica,sans-Serif" font-size="10.00" fill="#000000">alib/lang/singleton.hpp</text>
</a>
</g>
</g>
<!-- Node2&#45;&gt;Node13 -->
<g id="edge11" class="edge">
<title>Node2&#45;&gt;Node13</title>
<path fill="none" stroke="#191970" d="M1312.9512,-64.0038C1227.0833,-58.7966 994.576,-43.6245 789.8824,-20.0307"/>
<polygon fill="#191970" stroke="#191970" points="790.1858,-16.5425 779.8486,-18.8647 789.3778,-23.4957 790.1858,-16.5425"/>
</g>
<!-- Node15 -->
<g id="node13" class="node">
<title>Node15</title>
<g id="a_node13"><a xlink:href="enums_8hpp.html" target="_top" xlink:title="alib/lang/enums.hpp">
<polygon fill="#ffffff" stroke="#000000" points="798,-.5 798,-19.5 902,-19.5 902,-.5 798,-.5"/>
<text text-anchor="middle" x="850" y="-7.5" font-family="Helvetica,sans-Serif" font-size="10.00" fill="#000000">alib/lang/enums.hpp</text>
</a>
</g>
</g>
<!-- Node2&#45;&gt;Node15 -->
<g id="edge12" class="edge">
<title>Node2&#45;&gt;Node15</title>
<path fill="none" stroke="#191970" d="M1312.7219,-63.0578C1240.6269,-56.7248 1067.8086,-40.7841 912.4225,-20.1291"/>
<polygon fill="#191970" stroke="#191970" points="912.5901,-16.6204 902.214,-18.7618 911.6608,-23.5584 912.5901,-16.6204"/>
</g>
<!-- Node16 -->
<g id="node14" class="node">
<title>Node16</title>
<g id="a_node14"><a xlink:href="strings_2strings_8hpp.html" target="_top" xlink:title="alib/strings/strings.hpp">
<polygon fill="#ffffff" stroke="#ff0000" points="920.5,-.5 920.5,-19.5 1035.5,-19.5 1035.5,-.5 920.5,-.5"/>
<text text-anchor="middle" x="978" y="-7.5" font-family="Helvetica,sans-Serif" font-size="10.00" fill="#000000">alib/strings/strings.hpp</text>
</a>
</g>
</g>
<!-- Node2&#45;&gt;Node16 -->
<g id="edge13" class="edge">
<title>Node2&#45;&gt;Node16</title>
<path fill="none" stroke="#191970" d="M1312.9468,-60.832C1252.4159,-51.6458 1125.0356,-32.3143 1045.977,-20.3163"/>
<polygon fill="#191970" stroke="#191970" points="1046.0429,-16.7863 1035.6309,-18.7462 1044.9925,-23.707 1046.0429,-16.7863"/>
</g>
<!-- Node25 -->
<g id="node15" class="node">
<title>Node25</title>
<g id="a_node15"><a xlink:href="astring_8hpp.html" target="_top" xlink:title="alib/strings/astring.hpp">
<polygon fill="#ffffff" stroke="#ff0000" points="1053.5,-.5 1053.5,-19.5 1168.5,-19.5 1168.5,-.5 1053.5,-.5"/>
<text text-anchor="middle" x="1111" y="-7.5" font-family="Helvetica,sans-Serif" font-size="10.00" fill="#000000">alib/strings/astring.hpp</text>
</a>
</g>
</g>
<!-- Node2&#45;&gt;Node25 -->
<g id="edge14" class="edge">
<title>Node2&#45;&gt;Node25</title>
<path fill="none" stroke="#191970" d="M1312.9356,-57.9169C1273.1803,-48.4835 1207.0707,-32.7964 1161.3792,-21.9544"/>
<polygon fill="#191970" stroke="#191970" points="1161.9207,-18.4858 1151.3828,-19.5824 1160.3045,-25.2966 1161.9207,-18.4858"/>
</g>
<!-- Node27 -->
<g id="node16" class="node">
<title>Node27</title>
<g id="a_node16"><a xlink:href="preallocatedstring_8hpp.html" target="_top" xlink:title="alib/strings/preallocatedstring.hpp">
<polygon fill="#ffffff" stroke="#000000" points="1187,-.5 1187,-19.5 1349,-19.5 1349,-.5 1187,-.5"/>
<text text-anchor="middle" x="1268" y="-7.5" font-family="Helvetica,sans-Serif" font-size="10.00" fill="#000000">alib/strings/preallocatedstring.hpp</text>
</a>
</g>
</g>
<!-- Node2&#45;&gt;Node27 -->
<g id="edge15" class="edge">
<title>Node2&#45;&gt;Node27</title>
<path fill="none" stroke="#191970" d="M1333.2393,-56.2455C1321.3448,-47.814 1303.935,-35.4729 1290.0915,-25.6598"/>
<polygon fill="#191970" stroke="#191970" points="1291.7854,-22.5704 1281.6031,-19.6427 1287.7372,-28.2811 1291.7854,-22.5704"/>
</g>
<!-- Node28 -->
<g id="node17" class="node">
<title>Node28</title>
<g id="a_node17"><a xlink:href="resources_8hpp.html" target="_top" xlink:title="alib/lang/resources.hpp">
<polygon fill="#ffffff" stroke="#ff0000" points="1367.5,-.5 1367.5,-19.5 1484.5,-19.5 1484.5,-.5 1367.5,-.5"/>
<text text-anchor="middle" x="1426" y="-7.5" font-family="Helvetica,sans-Serif" font-size="10.00" fill="#000000">alib/lang/resources.hpp</text>
</a>
</g>
</g>
<!-- Node2&#45;&gt;Node28 -->
<g id="edge16" class="edge">
<title>Node2&#45;&gt;Node28</title>
<path fill="none" stroke="#191970" d="M1360.7607,-56.2455C1372.6552,-47.814 1390.065,-35.4729 1403.9085,-25.6598"/>
<polygon fill="#191970" stroke="#191970" points="1406.2628,-28.2811 1412.3969,-19.6427 1402.2146,-22.5704 1406.2628,-28.2811"/>
</g>
<!-- Node32 -->
<g id="node18" class="node">
<title>Node32</title>
<g id="a_node18"><a xlink:href="library_8hpp.html" target="_top" xlink:title="alib/lang/library.hpp">
<polygon fill="#ffffff" stroke="#000000" points="1503,-.5 1503,-19.5 1603,-19.5 1603,-.5 1503,-.5"/>
<text text-anchor="middle" x="1553" y="-7.5" font-family="Helvetica,sans-Serif" font-size="10.00" fill="#000000">alib/lang/library.hpp</text>
</a>
</g>
</g>
<!-- Node2&#45;&gt;Node32 -->
<g id="edge17" class="edge">
<title>Node2&#45;&gt;Node32</title>
<path fill="none" stroke="#191970" d="M1381.0167,-56.7527C1415.7395,-47.3135 1469.8197,-32.6121 1508.053,-22.2186"/>
<polygon fill="#191970" stroke="#191970" points="1509.1664,-25.543 1517.8981,-19.5423 1507.3301,-18.7882 1509.1664,-25.543"/>
</g>
<!-- Node33 -->
<g id="node19" class="node">
<title>Node33</title>
<g id="a_node19"><a xlink:href="stringlib_8hpp.html" target="_top" xlink:title="alib/strings/stringlib.hpp">
<polygon fill="#ffffff" stroke="#000000" points="1621.5,-.5 1621.5,-19.5 1740.5,-19.5 1740.5,-.5 1621.5,-.5"/>
<text text-anchor="middle" x="1681" y="-7.5" font-family="Helvetica,sans-Serif" font-size="10.00" fill="#000000">alib/strings/stringlib.hpp</text>
</a>
</g>
</g>
<!-- Node2&#45;&gt;Node33 -->
<g id="edge18" class="edge">
<title>Node2&#45;&gt;Node33</title>
<path fill="none" stroke="#191970" d="M1381.1742,-60.2702C1435.7661,-51.1171 1543.6497,-33.0288 1614.0192,-21.2303"/>
<polygon fill="#191970" stroke="#191970" points="1614.8351,-24.6425 1624.1186,-19.537 1613.6775,-17.7388 1614.8351,-24.6425"/>
</g>
<!-- Node34 -->
<g id="node20" class="node">
<title>Node34</title>
<g id="a_node20"><a xlink:href="boxinglib_8hpp.html" target="_top" xlink:title="alib/boxing/boxinglib.hpp">
<polygon fill="#ffffff" stroke="#ff0000" points="1758.5,-.5 1758.5,-19.5 1881.5,-19.5 1881.5,-.5 1758.5,-.5"/>
<text text-anchor="middle" x="1820" y="-7.5" font-family="Helvetica,sans-Serif" font-size="10.00" fill="#000000">alib/boxing/boxinglib.hpp</text>
</a>
</g>
</g>
<!-- Node2&#45;&gt;Node34 -->
<g id="edge19" class="edge">
<title>Node2&#45;&gt;Node34</title>
<path fill="none" stroke="#191970" d="M1381.0063,-62.4463C1448.8051,-55.2905 1605.8619,-38.3612 1747.9717,-20.2355"/>
<polygon fill="#191970" stroke="#191970" points="1748.7021,-23.6706 1758.1764,-18.9285 1747.8127,-16.7274 1748.7021,-23.6706"/>
</g>
<!-- Node43 -->
<g id="node21" class="node">
<title>Node43</title>
<g id="a_node21"><a xlink:href="langlib_8hpp.html" target="_top" xlink:title="alib/lang/langlib.hpp">
<polygon fill="#ffffff" stroke="#000000" points="1900,-.5 1900,-19.5 2002,-19.5 2002,-.5 1900,-.5"/>
<text text-anchor="middle" x="1951" y="-7.5" font-family="Helvetica,sans-Serif" font-size="10.00" fill="#000000">alib/lang/langlib.hpp</text>
</a>
</g>
</g>
<!-- Node2&#45;&gt;Node43 -->
<g id="edge20" class="edge">
<title>Node2&#45;&gt;Node43</title>
<path fill="none" stroke="#191970" d="M1381.1542,-64.0738C1465.6215,-59.1049 1691.2549,-44.5816 1889.9394,-20.0431"/>
<polygon fill="#191970" stroke="#191970" points="1890.4877,-23.5019 1899.978,-18.7917 1889.6218,-16.5557 1890.4877,-23.5019"/>
</g>
<!-- Node44 -->
<g id="node22" class="node">
<title>Node44</title>
<g id="a_node22"><a xlink:href="stringboxing_8hpp.html" target="_top" xlink:title="alib/strings/boxing/stringboxing.hpp">
<polygon fill="#ffffff" stroke="#000000" points="2020,-.5 2020,-19.5 2190,-19.5 2190,-.5 2020,-.5"/>
<text text-anchor="middle" x="2105" y="-7.5" font-family="Helvetica,sans-Serif" font-size="10.00" fill="#000000">alib/strings/boxing/stringboxing.hpp</text>
</a>
</g>
</g>
<!-- Node2&#45;&gt;Node44 -->
<g id="edge21" class="edge">
<title>Node2&#45;&gt;Node44</title>
<path fill="none" stroke="#191970" d="M1381.2452,-64.074C1478.0558,-58.5342 1762.216,-41.6195 2009.69,-20.0868"/>
<polygon fill="#191970" stroke="#191970" points="2010.3022,-23.5467 2019.9592,-19.1887 2009.6923,-16.5733 2010.3022,-23.5467"/>
</g>
<!-- Node45 -->
<g id="node23" class="node">
<title>Node45</title>
<g id="a_node23"><a xlink:href="report_8hpp.html" target="_top" xlink:title="alib/lang/report.hpp">
<polygon fill="#ffffff" stroke="#ff0000" points="2208.5,-.5 2208.5,-19.5 2307.5,-19.5 2307.5,-.5 2208.5,-.5"/>
<text text-anchor="middle" x="2258" y="-7.5" font-family="Helvetica,sans-Serif" font-size="10.00" fill="#000000">alib/lang/report.hpp</text>
</a>
</g>
</g>
<!-- Node2&#45;&gt;Node45 -->
<g id="edge22" class="edge">
<title>Node2&#45;&gt;Node45</title>
<path fill="none" stroke="#191970" d="M1381.2046,-65.5509C1495.481,-63.7561 1874.5894,-55.4262 2198.4361,-19.9257"/>
<polygon fill="#191970" stroke="#191970" points="2198.929,-23.3926 2208.4832,-18.8136 2198.1588,-16.4351 2198.929,-23.3926"/>
</g>
<!-- Node47 -->
<g id="node24" class="node">
<title>Node47</title>
<g id="a_node24"><a xlink:href="enumbitwise_8hpp.html" target="_top" xlink:title="alib/lang/enumbitwise.hpp">
<polygon fill="#ffffff" stroke="#ff0000" points="2325.5,-.5 2325.5,-19.5 2454.5,-19.5 2454.5,-.5 2325.5,-.5"/>
<text text-anchor="middle" x="2390" y="-7.5" font-family="Helvetica,sans-Serif" font-size="10.00" fill="#000000">alib/lang/enumbitwise.hpp</text>
</a>
</g>
</g>
<!-- Node2&#45;&gt;Node47 -->
<g id="edge23" class="edge">
<title>Node2&#45;&gt;Node47</title>
<path fill="none" stroke="#191970" d="M1381.0102,-65.4791C1504.8387,-63.3527 1943.4135,-53.8143 2315.0106,-20.1145"/>
<polygon fill="#191970" stroke="#191970" points="2315.5158,-23.583 2325.1555,-19.1869 2314.8783,-16.6121 2315.5158,-23.583"/>
</g>
<!-- Node49 -->
<g id="node25" class="node">
<title>Node49</title>
<g id="a_node25"><a xlink:href="enummetadata_8hpp.html" target="_top" xlink:title="alib/lang/enummetadata.hpp">
<polygon fill="#ffffff" stroke="#ff0000" points="2472.5,-.5 2472.5,-19.5 2611.5,-19.5 2611.5,-.5 2472.5,-.5"/>
<text text-anchor="middle" x="2542" y="-7.5" font-family="Helvetica,sans-Serif" font-size="10.00" fill="#000000">alib/lang/enummetadata.hpp</text>
</a>
</g>
</g>
<!-- Node2&#45;&gt;Node49 -->
<g id="edge24" class="edge">
<title>Node2&#45;&gt;Node49</title>
<path fill="none" stroke="#191970" d="M1381.3453,-65.666C1517.1527,-64.1186 2029.9417,-56.1344 2462.0975,-20.0965"/>
<polygon fill="#191970" stroke="#191970" points="2462.6189,-23.5652 2472.2907,-19.24 2462.0327,-16.5897 2462.6189,-23.5652"/>
</g>
<!-- Node50 -->
<g id="node26" class="node">
<title>Node50</title>
<g id="a_node26"><a xlink:href="configlib_8hpp.html" target="_top" xlink:title="alib/config/configlib.hpp">
<polygon fill="#ffffff" stroke="#ff0000" points="2629.5,-.5 2629.5,-19.5 2748.5,-19.5 2748.5,-.5 2629.5,-.5"/>
<text text-anchor="middle" x="2689" y="-7.5" font-family="Helvetica,sans-Serif" font-size="10.00" fill="#000000">alib/config/configlib.hpp</text>
</a>
</g>
</g>
<!-- Node2&#45;&gt;Node50 -->
<g id="edge25" class="edge">
<title>Node2&#45;&gt;Node50</title>
<path fill="none" stroke="#191970" d="M1381.2399,-65.274C1555.9135,-61.4938 2349.6337,-43.3722 2619.2038,-20.0543"/>
<polygon fill="#191970" stroke="#191970" points="2619.6899,-23.5249 2629.3402,-19.1522 2619.0693,-16.5525 2619.6899,-23.5249"/>
</g>
<!-- Node55 -->
<g id="node27" class="node">
<title>Node55</title>
<g id="a_node27"><a xlink:href="systemlib_8hpp.html" target="_top" xlink:title="alib/system/systemlib.hpp">
<polygon fill="#ffffff" stroke="#ff0000" points="2766.5,-.5 2766.5,-19.5 2897.5,-19.5 2897.5,-.5 2766.5,-.5"/>
<text text-anchor="middle" x="2832" y="-7.5" font-family="Helvetica,sans-Serif" font-size="10.00" fill="#000000">alib/system/systemlib.hpp</text>
</a>
</g>
</g>
<!-- Node2&#45;&gt;Node55 -->
<g id="edge26" class="edge">
<title>Node2&#45;&gt;Node55</title>
<path fill="none" stroke="#191970" d="M1381.1352,-65.3594C1566.7542,-61.8053 2456.9787,-43.8343 2755.889,-20.0828"/>
<polygon fill="#191970" stroke="#191970" points="2756.5884,-23.5374 2766.2705,-19.2355 2756.0189,-16.5606 2756.5884,-23.5374"/>
</g>
<!-- Node57 -->
<g id="node28" class="node">
<title>Node57</title>
<g id="a_node28"><a xlink:href="applicables_8hpp.html" target="_top" xlink:title="alib/strings/applicables.hpp">
<polygon fill="#ffffff" stroke="#000000" points="2916,-.5 2916,-19.5 3050,-19.5 3050,-.5 2916,-.5"/>
<text text-anchor="middle" x="2983" y="-7.5" font-family="Helvetica,sans-Serif" font-size="10.00" fill="#000000">alib/strings/applicables.hpp</text>
</a>
</g>
</g>
<!-- Node2&#45;&gt;Node57 -->
<g id="edge27" class="edge">
<title>Node2&#45;&gt;Node57</title>
<path fill="none" stroke="#191970" d="M1381.0863,-65.4659C1578.2497,-62.3061 2574.9929,-45.3554 2905.8357,-19.9945"/>
<polygon fill="#191970" stroke="#191970" points="2906.2073,-23.4762 2915.9024,-19.2036 2905.659,-16.4977 2906.2073,-23.4762"/>
</g>
</g>
</svg>
