<?xml version="1.0" encoding="UTF-8" standalone="no"?>
<!DOCTYPE svg PUBLIC "-//W3C//DTD SVG 1.1//EN"
 "http://www.w3.org/Graphics/SVG/1.1/DTD/svg11.dtd">
<!-- Generated by graphviz version 2.40.1 (20161225.0304)
 -->
<!-- Title: threadlock.hpp Pages: 1 -->
<svg width="1299pt" height="476pt"
 viewBox="0.00 0.00 1298.50 476.00" xmlns="http://www.w3.org/2000/svg" xmlns:xlink="http://www.w3.org/1999/xlink">
<g id="graph0" class="graph" transform="scale(1 1) rotate(0) translate(4 472)">
<title>threadlock.hpp</title>
<polygon fill="#ffffff" stroke="transparent" points="-4,4 -4,-472 1294.5,-472 1294.5,4 -4,4"/>
<!-- Node63 -->
<g id="node1" class="node">
<title>Node63</title>
<polygon fill="#bfbfbf" stroke="#000000" points="1093.5,-448.5 1093.5,-467.5 1173.5,-467.5 1173.5,-448.5 1093.5,-448.5"/>
<text text-anchor="middle" x="1133.5" y="-455.5" font-family="Helvetica,sans-Serif" font-size="10.00" fill="#000000">threadlock.hpp</text>
</g>
<!-- Node64 -->
<g id="node2" class="node">
<title>Node64</title>
<g id="a_node2"><a xlink:href="configuration_8hpp.html" target="_top" xlink:title="configuration.hpp">
<polygon fill="#ffffff" stroke="#000000" points="1053,-336.5 1053,-355.5 1144,-355.5 1144,-336.5 1053,-336.5"/>
<text text-anchor="middle" x="1098.5" y="-343.5" font-family="Helvetica,sans-Serif" font-size="10.00" fill="#000000">configuration.hpp</text>
</a>
</g>
</g>
<!-- Node63&#45;&gt;Node64 -->
<g id="edge1" class="edge">
<title>Node63&#45;&gt;Node64</title>
<path fill="none" stroke="#191970" d="M1124.4083,-439.2643C1120.6643,-431.0366 1116.5088,-421.1774 1113.5,-412 1107.0573,-392.3482 1102.3835,-368.5223 1100.0915,-355.5503"/>
<polygon fill="#191970" stroke="#191970" points="1121.2488,-440.7705 1128.6662,-448.3357 1127.5855,-437.7961 1121.2488,-440.7705"/>
</g>
<!-- Node92 -->
<g id="node3" class="node">
<title>Node92</title>
<g id="a_node3"><a xlink:href="formatter_8hpp.html" target="_top" xlink:title="formatter.hpp">
<polygon fill="#ffffff" stroke="#000000" points="712.5,-392.5 712.5,-411.5 786.5,-411.5 786.5,-392.5 712.5,-392.5"/>
<text text-anchor="middle" x="749.5" y="-399.5" font-family="Helvetica,sans-Serif" font-size="10.00" fill="#000000">formatter.hpp</text>
</a>
</g>
</g>
<!-- Node63&#45;&gt;Node92 -->
<g id="edge2" class="edge">
<title>Node63&#45;&gt;Node92</title>
<path fill="none" stroke="#191970" d="M1083.4023,-450.6941C1005.2006,-439.2897 855.9093,-417.518 786.5818,-407.4078"/>
<polygon fill="#191970" stroke="#191970" points="1083.0915,-454.1857 1093.492,-452.1655 1084.1017,-447.259 1083.0915,-454.1857"/>
</g>
<!-- Node102 -->
<g id="node4" class="node">
<title>Node102</title>
<g id="a_node4"><a xlink:href="smartlock_8hpp.html" target="_top" xlink:title="smartlock.hpp">
<polygon fill="#ffffff" stroke="#000000" points="1212.5,-336.5 1212.5,-355.5 1290.5,-355.5 1290.5,-336.5 1212.5,-336.5"/>
<text text-anchor="middle" x="1251.5" y="-343.5" font-family="Helvetica,sans-Serif" font-size="10.00" fill="#000000">smartlock.hpp</text>
</a>
</g>
</g>
<!-- Node63&#45;&gt;Node102 -->
<g id="edge3" class="edge">
<title>Node63&#45;&gt;Node102</title>
<path fill="none" stroke="#191970" d="M1181.0017,-444.88C1199.0092,-437.7729 1218.325,-427.2328 1231.5,-412 1245.5981,-395.6998 1249.7585,-369.6924 1250.9861,-355.6871"/>
<polygon fill="#191970" stroke="#191970" points="1179.3623,-441.7532 1171.1794,-448.4831 1181.7731,-448.325 1179.3623,-441.7532"/>
</g>
<!-- Node103 -->
<g id="node5" class="node">
<title>Node103</title>
<g id="a_node5"><a xlink:href="plugincontainer_8hpp.html" target="_top" xlink:title="plugincontainer.hpp">
<polygon fill="#ffffff" stroke="#000000" points="1122.5,-392.5 1122.5,-411.5 1222.5,-411.5 1222.5,-392.5 1122.5,-392.5"/>
<text text-anchor="middle" x="1172.5" y="-399.5" font-family="Helvetica,sans-Serif" font-size="10.00" fill="#000000">plugincontainer.hpp</text>
</a>
</g>
</g>
<!-- Node63&#45;&gt;Node103 -->
<g id="edge4" class="edge">
<title>Node63&#45;&gt;Node103</title>
<path fill="none" stroke="#191970" d="M1146.0908,-439.9209C1152.6395,-430.5176 1160.3824,-419.3997 1165.7846,-411.6427"/>
<polygon fill="#191970" stroke="#191970" points="1143.1361,-438.0392 1140.2933,-448.2455 1148.8804,-442.0397 1143.1361,-438.0392"/>
</g>
<!-- Node65 -->
<g id="node6" class="node">
<title>Node65</title>
<g id="a_node6"><a xlink:href="alox_2alox_8hpp.html" target="_top" xlink:title="alox.hpp">
<polygon fill="#ffffff" stroke="#000000" points="537,-280.5 537,-299.5 590,-299.5 590,-280.5 537,-280.5"/>
<text text-anchor="middle" x="563.5" y="-287.5" font-family="Helvetica,sans-Serif" font-size="10.00" fill="#000000">alox.hpp</text>
</a>
</g>
</g>
<!-- Node64&#45;&gt;Node65 -->
<g id="edge5" class="edge">
<title>Node64&#45;&gt;Node65</title>
<path fill="none" stroke="#191970" d="M1042.6428,-340.1533C928.7527,-328.2321 673.4519,-301.509 590.2625,-292.8013"/>
<polygon fill="#191970" stroke="#191970" points="1042.5761,-343.6653 1052.8862,-341.2255 1043.3049,-336.7034 1042.5761,-343.6653"/>
</g>
<!-- Node67 -->
<g id="node7" class="node">
<title>Node67</title>
<g id="a_node7"><a xlink:href="lox_8hpp.html" target="_top" xlink:title="lox.hpp">
<polygon fill="#ffffff" stroke="#000000" points="941.5,-168.5 941.5,-187.5 989.5,-187.5 989.5,-168.5 941.5,-168.5"/>
<text text-anchor="middle" x="965.5" y="-175.5" font-family="Helvetica,sans-Serif" font-size="10.00" fill="#000000">lox.hpp</text>
</a>
</g>
</g>
<!-- Node64&#45;&gt;Node67 -->
<g id="edge6" class="edge">
<title>Node64&#45;&gt;Node67</title>
<path fill="none" stroke="#191970" d="M1100.9981,-325.953C1103.1368,-299.6519 1102.8328,-253.3978 1079.5,-224 1057.4752,-196.2502 1016.0801,-185.1467 989.6963,-180.7694"/>
<polygon fill="#191970" stroke="#191970" points="1097.4859,-325.896 1099.9549,-336.1991 1104.4499,-326.6051 1097.4859,-325.896"/>
</g>
<!-- Node83 -->
<g id="node8" class="node">
<title>Node83</title>
<g id="a_node8"><a xlink:href="compiler_8hpp_source.html" target="_top" xlink:title="compiler.hpp">
<polygon fill="#ffffff" stroke="#000000" points="1137,-280.5 1137,-299.5 1208,-299.5 1208,-280.5 1137,-280.5"/>
<text text-anchor="middle" x="1172.5" y="-287.5" font-family="Helvetica,sans-Serif" font-size="10.00" fill="#000000">compiler.hpp</text>
</a>
</g>
</g>
<!-- Node64&#45;&gt;Node83 -->
<g id="edge7" class="edge">
<title>Node64&#45;&gt;Node83</title>
<path fill="none" stroke="#191970" d="M1119.3657,-330.2097C1132.3625,-320.3743 1148.6622,-308.0394 1159.7579,-299.6427"/>
<polygon fill="#191970" stroke="#191970" points="1117.2518,-327.4201 1111.3898,-336.2455 1121.476,-333.002 1117.2518,-327.4201"/>
</g>
<!-- Node93 -->
<g id="node26" class="node">
<title>Node93</title>
<g id="a_node26"><a xlink:href="formatterstdimpl_8hpp.html" target="_top" xlink:title="formatterstdimpl.hpp">
<polygon fill="#ffffff" stroke="#000000" points="404.5,-336.5 404.5,-355.5 510.5,-355.5 510.5,-336.5 404.5,-336.5"/>
<text text-anchor="middle" x="457.5" y="-343.5" font-family="Helvetica,sans-Serif" font-size="10.00" fill="#000000">formatterstdimpl.hpp</text>
</a>
</g>
</g>
<!-- Node92&#45;&gt;Node93 -->
<g id="edge45" class="edge">
<title>Node92&#45;&gt;Node93</title>
<path fill="none" stroke="#191970" d="M702.3027,-392.9485C648.759,-382.6798 561.8147,-366.0056 507.2399,-355.5392"/>
<polygon fill="#191970" stroke="#191970" points="701.7411,-396.4045 712.2214,-394.8507 703.0596,-389.5298 701.7411,-396.4045"/>
</g>
<!-- Node102&#45;&gt;Node67 -->
<g id="edge53" class="edge">
<title>Node102&#45;&gt;Node67</title>
<path fill="none" stroke="#191970" d="M1254.9436,-326.3464C1258.4364,-299.3915 1260.0729,-251.2049 1233.5,-224 1199.7711,-189.469 1048.9115,-180.7529 989.5791,-178.6434"/>
<polygon fill="#191970" stroke="#191970" points="1251.4465,-326.0643 1253.4099,-336.4756 1258.3676,-327.1123 1251.4465,-326.0643"/>
</g>
<!-- Node103&#45;&gt;Node64 -->
<g id="edge54" class="edge">
<title>Node103&#45;&gt;Node64</title>
<path fill="none" stroke="#191970" d="M1151.6343,-386.2097C1138.6375,-376.3743 1122.3378,-364.0394 1111.2421,-355.6427"/>
<polygon fill="#191970" stroke="#191970" points="1149.524,-389.002 1159.6102,-392.2455 1153.7482,-383.4201 1149.524,-389.002"/>
</g>
<!-- Node103&#45;&gt;Node83 -->
<g id="edge55" class="edge">
<title>Node103&#45;&gt;Node83</title>
<path fill="none" stroke="#191970" d="M1172.5,-382.2702C1172.5,-357.9985 1172.5,-317.7725 1172.5,-299.5249"/>
<polygon fill="#191970" stroke="#191970" points="1169.0001,-382.4509 1172.5,-392.4509 1176.0001,-382.451 1169.0001,-382.4509"/>
</g>
<!-- Node65&#45;&gt;Node67 -->
<g id="edge9" class="edge">
<title>Node65&#45;&gt;Node67</title>
<path fill="none" stroke="#191970" d="M600.1196,-287.2439C687.5273,-280.7921 902.3029,-263.7492 928.5,-244 946.5889,-230.3633 953.1098,-202.7578 958.6021,-187.9377"/>
<polygon fill="#191970" stroke="#191970" points="599.83,-283.7557 590.1128,-287.9777 600.342,-290.7369 599.83,-283.7557"/>
</g>
<!-- Node66 -->
<g id="node9" class="node">
<title>Node66</title>
<g id="a_node9"><a xlink:href="log_8hpp.html" target="_top" xlink:title="log.hpp">
<polygon fill="#ffffff" stroke="#000000" points="784.5,-224.5 784.5,-243.5 832.5,-243.5 832.5,-224.5 784.5,-224.5"/>
<text text-anchor="middle" x="808.5" y="-231.5" font-family="Helvetica,sans-Serif" font-size="10.00" fill="#000000">log.hpp</text>
</a>
</g>
</g>
<!-- Node65&#45;&gt;Node66 -->
<g id="edge8" class="edge">
<title>Node65&#45;&gt;Node66</title>
<path fill="none" stroke="#191970" d="M600.299,-281.427C640.9937,-272.7989 708.0265,-258.6969 765.5,-244 771.461,-242.4757 777.9529,-240.6164 784.1879,-238.9163"/>
<polygon fill="#191970" stroke="#191970" points="599.3484,-278.0508 590.2941,-283.5526 600.8031,-284.8979 599.3484,-278.0508"/>
</g>
<!-- Node68 -->
<g id="node10" class="node">
<title>Node68</title>
<g id="a_node10"><a xlink:href="domain_8hpp.html" target="_top" xlink:title="domain.hpp">
<polygon fill="#ffffff" stroke="#000000" points="1003,-224.5 1003,-243.5 1070,-243.5 1070,-224.5 1003,-224.5"/>
<text text-anchor="middle" x="1036.5" y="-231.5" font-family="Helvetica,sans-Serif" font-size="10.00" fill="#000000">domain.hpp</text>
</a>
</g>
</g>
<!-- Node65&#45;&gt;Node68 -->
<g id="edge10" class="edge">
<title>Node65&#45;&gt;Node68</title>
<path fill="none" stroke="#191970" d="M600.6836,-287.2035C674.7748,-281.3608 845.9629,-266.5064 988.5,-244 993.1244,-243.2698 997.9774,-242.3918 1002.7472,-241.4632"/>
<polygon fill="#191970" stroke="#191970" points="600.1691,-283.7329 590.4716,-288 600.7135,-290.7117 600.1691,-283.7329"/>
</g>
<!-- Node69 -->
<g id="node11" class="node">
<title>Node69</title>
<g id="a_node11"><a xlink:href="logger_8hpp.html" target="_top" xlink:title="logger.hpp">
<polygon fill="#ffffff" stroke="#000000" points="364,-224.5 364,-243.5 425,-243.5 425,-224.5 364,-224.5"/>
<text text-anchor="middle" x="394.5" y="-231.5" font-family="Helvetica,sans-Serif" font-size="10.00" fill="#000000">logger.hpp</text>
</a>
</g>
</g>
<!-- Node65&#45;&gt;Node69 -->
<g id="edge11" class="edge">
<title>Node65&#45;&gt;Node69</title>
<path fill="none" stroke="#191970" d="M527.1402,-277.9518C496.113,-267.6706 452.0914,-253.0835 423.4171,-243.582"/>
<polygon fill="#191970" stroke="#191970" points="526.1281,-281.3035 536.7214,-281.1266 528.3299,-274.6588 526.1281,-281.3035"/>
</g>
<!-- Node70 -->
<g id="node12" class="node">
<title>Node70</title>
<g id="a_node12"><a xlink:href="textlogger_8hpp.html" target="_top" xlink:title="textlogger.hpp">
<polygon fill="#ffffff" stroke="#000000" points="192,-168.5 192,-187.5 269,-187.5 269,-168.5 192,-168.5"/>
<text text-anchor="middle" x="230.5" y="-175.5" font-family="Helvetica,sans-Serif" font-size="10.00" fill="#000000">textlogger.hpp</text>
</a>
</g>
</g>
<!-- Node65&#45;&gt;Node70 -->
<g id="edge12" class="edge">
<title>Node65&#45;&gt;Node70</title>
<path fill="none" stroke="#191970" d="M526.7929,-281.2633C524.6673,-280.8197 522.5582,-280.395 520.5,-280 415.8681,-259.9183 375.8274,-297.1674 283.5,-244 260.0677,-230.5063 242.9395,-202.3141 235.1583,-187.5234"/>
<polygon fill="#191970" stroke="#191970" points="526.2145,-284.7195 536.7312,-283.4357 527.7093,-277.8809 526.2145,-284.7195"/>
</g>
<!-- Node71 -->
<g id="node13" class="node">
<title>Node71</title>
<g id="a_node13"><a xlink:href="plaintextlogger_8hpp.html" target="_top" xlink:title="plaintextlogger.hpp">
<polygon fill="#ffffff" stroke="#000000" points="191.5,-112.5 191.5,-131.5 289.5,-131.5 289.5,-112.5 191.5,-112.5"/>
<text text-anchor="middle" x="240.5" y="-119.5" font-family="Helvetica,sans-Serif" font-size="10.00" fill="#000000">plaintextlogger.hpp</text>
</a>
</g>
</g>
<!-- Node65&#45;&gt;Node71 -->
<g id="edge13" class="edge">
<title>Node65&#45;&gt;Node71</title>
<path fill="none" stroke="#191970" d="M526.7791,-281.3327C524.657,-280.8716 522.5524,-280.424 520.5,-280 432.4789,-261.8149 395.0418,-295.6722 321.5,-244 289.5646,-221.5614 299.5733,-200.189 277.5,-168 268.4579,-154.8141 256.6964,-140.617 248.8874,-131.5375"/>
<polygon fill="#191970" stroke="#191970" points="526.185,-284.7863 536.7078,-283.5533 527.7128,-277.955 526.185,-284.7863"/>
</g>
<!-- Node72 -->
<g id="node14" class="node">
<title>Node72</title>
<g id="a_node14"><a xlink:href="consolelogger_8hpp.html" target="_top" xlink:title="consolelogger.hpp">
<polygon fill="#ffffff" stroke="#000000" points="384,-56.5 384,-75.5 479,-75.5 479,-56.5 384,-56.5"/>
<text text-anchor="middle" x="431.5" y="-63.5" font-family="Helvetica,sans-Serif" font-size="10.00" fill="#000000">consolelogger.hpp</text>
</a>
</g>
</g>
<!-- Node65&#45;&gt;Node72 -->
<g id="edge14" class="edge">
<title>Node65&#45;&gt;Node72</title>
<path fill="none" stroke="#191970" d="M541.6,-273.9525C532.2013,-265.9623 521.9251,-255.5447 515.5,-244 486.3358,-191.5969 518.6456,-163.2503 487.5,-112 478.0255,-96.4097 461.3181,-83.7227 448.611,-75.6518"/>
<polygon fill="#191970" stroke="#191970" points="539.5283,-276.7778 549.5147,-280.3166 543.9148,-271.3226 539.5283,-276.7778"/>
</g>
<!-- Node73 -->
<g id="node15" class="node">
<title>Node73</title>
<g id="a_node15"><a xlink:href="alox_8hpp_source.html" target="_top" xlink:title="alox.hpp">
<polygon fill="#ffffff" stroke="#000000" points="405,-.5 405,-19.5 458,-19.5 458,-.5 405,-.5"/>
<text text-anchor="middle" x="431.5" y="-7.5" font-family="Helvetica,sans-Serif" font-size="10.00" fill="#000000">alox.hpp</text>
</a>
</g>
</g>
<!-- Node65&#45;&gt;Node73 -->
<g id="edge15" class="edge">
<title>Node65&#45;&gt;Node73</title>
<path fill="none" stroke="#191970" d="M563.1745,-270.2725C561.5298,-227.2672 552.3872,-123.5259 503.5,-56 491.4089,-39.2991 471.2213,-27.1728 455.2941,-19.5771"/>
<polygon fill="#191970" stroke="#191970" points="559.6822,-270.5975 563.4626,-280.4949 566.6794,-270.4002 559.6822,-270.5975"/>
</g>
<!-- Node74 -->
<g id="node16" class="node">
<title>Node74</title>
<g id="a_node16"><a xlink:href="memorylogger_8hpp.html" target="_top" xlink:title="memorylogger.hpp">
<polygon fill="#ffffff" stroke="#000000" points="161.5,-56.5 161.5,-75.5 257.5,-75.5 257.5,-56.5 161.5,-56.5"/>
<text text-anchor="middle" x="209.5" y="-63.5" font-family="Helvetica,sans-Serif" font-size="10.00" fill="#000000">memorylogger.hpp</text>
</a>
</g>
</g>
<!-- Node65&#45;&gt;Node74 -->
<g id="edge16" class="edge">
<title>Node65&#45;&gt;Node74</title>
<path fill="none" stroke="#191970" d="M526.7997,-281.2271C524.6724,-280.7927 522.561,-280.3799 520.5,-280 404.4754,-258.6152 366.6779,-288.7124 257.5,-244 219.0032,-228.2341 201.1439,-225.1884 182.5,-188 167.3618,-157.8044 173.6407,-144.5953 182.5,-112 186.2403,-98.2386 195.2513,-84.3875 201.8381,-75.5346"/>
<polygon fill="#191970" stroke="#191970" points="526.2293,-284.6845 536.7428,-283.3743 527.7069,-277.8422 526.2293,-284.6845"/>
</g>
<!-- Node75 -->
<g id="node17" class="node">
<title>Node75</title>
<g id="a_node17"><a xlink:href="textfilelogger_8hpp.html" target="_top" xlink:title="textfilelogger.hpp">
<polygon fill="#ffffff" stroke="#000000" points="275.5,-56.5 275.5,-75.5 365.5,-75.5 365.5,-56.5 275.5,-56.5"/>
<text text-anchor="middle" x="320.5" y="-63.5" font-family="Helvetica,sans-Serif" font-size="10.00" fill="#000000">textfilelogger.hpp</text>
</a>
</g>
</g>
<!-- Node65&#45;&gt;Node75 -->
<g id="edge17" class="edge">
<title>Node65&#45;&gt;Node75</title>
<path fill="none" stroke="#191970" d="M526.7608,-281.4175C524.6433,-280.9349 522.5448,-280.4595 520.5,-280 446.8438,-263.4495 407.2148,-298.0399 354.5,-244 307.9261,-196.2555 315.1733,-105.517 319.0404,-75.7361"/>
<polygon fill="#191970" stroke="#191970" points="526.1469,-284.8676 536.6768,-283.6969 527.7151,-278.0455 526.1469,-284.8676"/>
</g>
<!-- Node76 -->
<g id="node18" class="node">
<title>Node76</title>
<g id="a_node18"><a xlink:href="vstudiologger_8hpp.html" target="_top" xlink:title="vstudiologger.hpp">
<polygon fill="#ffffff" stroke="#000000" points="51.5,-56.5 51.5,-75.5 143.5,-75.5 143.5,-56.5 51.5,-56.5"/>
<text text-anchor="middle" x="97.5" y="-63.5" font-family="Helvetica,sans-Serif" font-size="10.00" fill="#000000">vstudiologger.hpp</text>
</a>
</g>
</g>
<!-- Node65&#45;&gt;Node76 -->
<g id="edge18" class="edge">
<title>Node65&#45;&gt;Node76</title>
<path fill="none" stroke="#191970" d="M526.8089,-281.1757C524.6792,-280.7544 522.5649,-280.3584 520.5,-280 451.9524,-268.1014 268.9963,-280.0629 209.5,-244 142.6823,-203.4993 109.3108,-106.3258 100.1593,-75.5309"/>
<polygon fill="#191970" stroke="#191970" points="526.2496,-284.6349 536.7583,-283.2873 527.7029,-277.7874 526.2496,-284.6349"/>
</g>
<!-- Node77 -->
<g id="node19" class="node">
<title>Node77</title>
<g id="a_node19"><a xlink:href="ansilogger_8hpp.html" target="_top" xlink:title="ansilogger.hpp">
<polygon fill="#ffffff" stroke="#000000" points="0,-112.5 0,-131.5 79,-131.5 79,-112.5 0,-112.5"/>
<text text-anchor="middle" x="39.5" y="-119.5" font-family="Helvetica,sans-Serif" font-size="10.00" fill="#000000">ansilogger.hpp</text>
</a>
</g>
</g>
<!-- Node65&#45;&gt;Node77 -->
<g id="edge19" class="edge">
<title>Node65&#45;&gt;Node77</title>
<path fill="none" stroke="#191970" d="M526.8217,-281.0987C524.6888,-280.6969 522.5702,-280.3262 520.5,-280 426.4353,-265.1765 171.0517,-299.2598 93.5,-244 55.0182,-216.5796 43.5762,-155.3893 40.5157,-131.6621"/>
<polygon fill="#191970" stroke="#191970" points="526.2785,-284.5603 536.78,-283.1568 527.6953,-277.7052 526.2785,-284.5603"/>
</g>
<!-- Node78 -->
<g id="node20" class="node">
<title>Node78</title>
<g id="a_node20"><a xlink:href="windowsconsolelogger_8hpp.html" target="_top" xlink:title="windowsconsolelogger.hpp">
<polygon fill="#ffffff" stroke="#000000" points="346,-112.5 346,-131.5 479,-131.5 479,-112.5 346,-112.5"/>
<text text-anchor="middle" x="412.5" y="-119.5" font-family="Helvetica,sans-Serif" font-size="10.00" fill="#000000">windowsconsolelogger.hpp</text>
</a>
</g>
</g>
<!-- Node65&#45;&gt;Node78 -->
<g id="edge20" class="edge">
<title>Node65&#45;&gt;Node78</title>
<path fill="none" stroke="#191970" d="M527.3635,-276.4482C510.6734,-268.8386 491.5006,-258.0234 477.5,-244 443.4182,-209.8625 422.7849,-154.1222 415.4922,-131.7469"/>
<polygon fill="#191970" stroke="#191970" points="526.2784,-279.7925 536.8456,-280.5582 529.0623,-273.3699 526.2784,-279.7925"/>
</g>
<!-- Node79 -->
<g id="node21" class="node">
<title>Node79</title>
<g id="a_node21"><a xlink:href="scopedump_8hpp.html" target="_top" xlink:title="scopedump.hpp">
<polygon fill="#ffffff" stroke="#000000" points="623.5,-168.5 623.5,-187.5 709.5,-187.5 709.5,-168.5 623.5,-168.5"/>
<text text-anchor="middle" x="666.5" y="-175.5" font-family="Helvetica,sans-Serif" font-size="10.00" fill="#000000">scopedump.hpp</text>
</a>
</g>
</g>
<!-- Node65&#45;&gt;Node79 -->
<g id="edge21" class="edge">
<title>Node65&#45;&gt;Node79</title>
<path fill="none" stroke="#191970" d="M566.577,-270.2936C569.6272,-256.1296 575.5013,-237.2683 586.5,-224 600.5076,-207.1019 622.4341,-195.116 639.7921,-187.6242"/>
<polygon fill="#191970" stroke="#191970" points="563.0758,-269.9783 564.6922,-280.4491 569.9583,-271.2557 563.0758,-269.9783"/>
</g>
<!-- Node80 -->
<g id="node22" class="node">
<title>Node80</title>
<g id="a_node22"><a xlink:href="scopestore_8hpp.html" target="_top" xlink:title="scopestore.hpp">
<polygon fill="#ffffff" stroke="#000000" points="683,-224.5 683,-243.5 766,-243.5 766,-224.5 683,-224.5"/>
<text text-anchor="middle" x="724.5" y="-231.5" font-family="Helvetica,sans-Serif" font-size="10.00" fill="#000000">scopestore.hpp</text>
</a>
</g>
</g>
<!-- Node65&#45;&gt;Node80 -->
<g id="edge22" class="edge">
<title>Node65&#45;&gt;Node80</title>
<path fill="none" stroke="#191970" d="M599.6116,-277.4394C629.1187,-267.1761 670.2018,-252.8863 697.066,-243.5423"/>
<polygon fill="#191970" stroke="#191970" points="598.381,-274.1617 590.0859,-280.7527 600.6807,-280.7732 598.381,-274.1617"/>
</g>
<!-- Node81 -->
<g id="node23" class="node">
<title>Node81</title>
<g id="a_node23"><a xlink:href="scopeinfo_8hpp.html" target="_top" xlink:title="scopeinfo.hpp">
<polygon fill="#ffffff" stroke="#000000" points="851,-224.5 851,-243.5 928,-243.5 928,-224.5 851,-224.5"/>
<text text-anchor="middle" x="889.5" y="-231.5" font-family="Helvetica,sans-Serif" font-size="10.00" fill="#000000">scopeinfo.hpp</text>
</a>
</g>
</g>
<!-- Node65&#45;&gt;Node81 -->
<g id="edge23" class="edge">
<title>Node65&#45;&gt;Node81</title>
<path fill="none" stroke="#191970" d="M599.986,-284.4561C653.1994,-276.2588 755.1667,-260.1286 841.5,-244 844.5123,-243.4372 847.6266,-242.835 850.7547,-242.2155"/>
<polygon fill="#191970" stroke="#191970" points="599.3654,-281.0103 590.0124,-285.9875 600.4278,-287.9292 599.3654,-281.0103"/>
</g>
<!-- Node82 -->
<g id="node24" class="node">
<title>Node82</title>
<g id="a_node24"><a xlink:href="logtools_8hpp.html" target="_top" xlink:title="logtools.hpp">
<polygon fill="#ffffff" stroke="#000000" points="596,-224.5 596,-243.5 665,-243.5 665,-224.5 596,-224.5"/>
<text text-anchor="middle" x="630.5" y="-231.5" font-family="Helvetica,sans-Serif" font-size="10.00" fill="#000000">logtools.hpp</text>
</a>
</g>
</g>
<!-- Node65&#45;&gt;Node82 -->
<g id="edge24" class="edge">
<title>Node65&#45;&gt;Node82</title>
<path fill="none" stroke="#191970" d="M583.0676,-273.645C594.7198,-263.9058 609.1084,-251.8795 618.9632,-243.6427"/>
<polygon fill="#191970" stroke="#191970" points="580.5988,-271.1469 575.1705,-280.2455 585.0879,-276.5179 580.5988,-271.1469"/>
</g>
<!-- Node67&#45;&gt;Node65 -->
<g id="edge26" class="edge">
<title>Node67&#45;&gt;Node65</title>
<path fill="none" stroke="#191970" d="M969.7667,-198.327C967.9834,-213.3961 960.9146,-233.1332 946.5,-244 918.3564,-265.2166 672.5706,-283.3097 590.1381,-288.5034"/>
<polygon fill="#191970" stroke="#191970" points="973.2784,-198.0553 970.1342,-187.9377 966.2827,-197.8077 973.2784,-198.0553"/>
</g>
<!-- Node84 -->
<g id="node25" class="node">
<title>Node84</title>
<g id="a_node25"><a xlink:href="compilerplugin_8hpp_source.html" target="_top" xlink:title="compilerplugin.hpp">
<polygon fill="#ffffff" stroke="#ff0000" points="1126.5,-224.5 1126.5,-243.5 1224.5,-243.5 1224.5,-224.5 1126.5,-224.5"/>
<text text-anchor="middle" x="1175.5" y="-231.5" font-family="Helvetica,sans-Serif" font-size="10.00" fill="#000000">compilerplugin.hpp</text>
</a>
</g>
</g>
<!-- Node83&#45;&gt;Node84 -->
<g id="edge44" class="edge">
<title>Node83&#45;&gt;Node84</title>
<path fill="none" stroke="#191970" d="M1173.563,-270.1575C1174.0453,-261.155 1174.5936,-250.9199 1174.9834,-243.6427"/>
<polygon fill="#191970" stroke="#191970" points="1170.0626,-270.0726 1173.0226,-280.2455 1177.0526,-270.4471 1170.0626,-270.0726"/>
</g>
<!-- Node66&#45;&gt;Node65 -->
<g id="edge25" class="edge">
<title>Node66&#45;&gt;Node65</title>
<path fill="none" stroke="#191970" d="M775.2962,-246.0645C707.0176,-263.1516 630.1586,-278.7024 590.232,-285.8638"/>
<polygon fill="#191970" stroke="#191970" points="776.4662,-249.3789 785.3024,-243.5331 774.7494,-242.5927 776.4662,-249.3789"/>
</g>
<!-- Node68&#45;&gt;Node67 -->
<g id="edge27" class="edge">
<title>Node68&#45;&gt;Node67</title>
<path fill="none" stroke="#191970" d="M1016.123,-217.928C1003.7129,-208.1397 988.27,-195.9595 977.7255,-187.6427"/>
<polygon fill="#191970" stroke="#191970" points="1014.1136,-220.8007 1024.1327,-224.2455 1018.4486,-215.3046 1014.1136,-220.8007"/>
</g>
<!-- Node69&#45;&gt;Node67 -->
<g id="edge28" class="edge">
<title>Node69&#45;&gt;Node67</title>
<path fill="none" stroke="#191970" d="M435.3474,-229.994C546.6383,-219.0793 852.7883,-189.054 941.2614,-180.3772"/>
<polygon fill="#191970" stroke="#191970" points="434.81,-226.5298 425.1994,-230.9892 435.4933,-233.4963 434.81,-226.5298"/>
</g>
<!-- Node69&#45;&gt;Node70 -->
<g id="edge29" class="edge">
<title>Node69&#45;&gt;Node70</title>
<path fill="none" stroke="#191970" d="M356.5956,-221.057C326.5816,-210.8084 285.3493,-196.729 258.3247,-187.5011"/>
<polygon fill="#191970" stroke="#191970" points="355.7129,-224.454 366.3074,-224.3733 357.9749,-217.8295 355.7129,-224.454"/>
</g>
<!-- Node70&#45;&gt;Node71 -->
<g id="edge30" class="edge">
<title>Node70&#45;&gt;Node71</title>
<path fill="none" stroke="#191970" d="M234.0433,-158.1575C235.6509,-149.155 237.4786,-138.9199 238.7781,-131.6427"/>
<polygon fill="#191970" stroke="#191970" points="230.5544,-157.786 232.2419,-168.2455 237.4454,-159.0166 230.5544,-157.786"/>
</g>
<!-- Node70&#45;&gt;Node77 -->
<g id="edge31" class="edge">
<title>Node70&#45;&gt;Node77</title>
<path fill="none" stroke="#191970" d="M187.7163,-165.4561C152.6555,-155.1765 103.7898,-140.8494 71.9056,-131.5011"/>
<polygon fill="#191970" stroke="#191970" points="187.0851,-168.9183 197.6659,-168.3733 189.0546,-162.2011 187.0851,-168.9183"/>
</g>
<!-- Node70&#45;&gt;Node78 -->
<g id="edge32" class="edge">
<title>Node70&#45;&gt;Node78</title>
<path fill="none" stroke="#191970" d="M271.6986,-165.3235C305.0758,-155.0536 351.3699,-140.8093 381.6214,-131.5011"/>
<polygon fill="#191970" stroke="#191970" points="270.3154,-162.0871 261.7869,-168.3733 272.374,-168.7776 270.3154,-162.0871"/>
</g>
<!-- Node71&#45;&gt;Node72 -->
<g id="edge33" class="edge">
<title>Node71&#45;&gt;Node72</title>
<path fill="none" stroke="#191970" d="M283.2837,-109.4561C318.3445,-99.1765 367.2102,-84.8494 399.0944,-75.5011"/>
<polygon fill="#191970" stroke="#191970" points="281.9454,-106.2011 273.3341,-112.3733 283.9149,-112.9183 281.9454,-106.2011"/>
</g>
<!-- Node71&#45;&gt;Node74 -->
<g id="edge34" class="edge">
<title>Node71&#45;&gt;Node74</title>
<path fill="none" stroke="#191970" d="M230.1688,-103.3372C225.0335,-94.0605 219.0434,-83.2398 214.8379,-75.6427"/>
<polygon fill="#191970" stroke="#191970" points="227.1949,-105.1917 235.1002,-112.2455 233.3191,-101.8015 227.1949,-105.1917"/>
</g>
<!-- Node71&#45;&gt;Node75 -->
<g id="edge35" class="edge">
<title>Node71&#45;&gt;Node75</title>
<path fill="none" stroke="#191970" d="M262.6571,-106.49C276.772,-96.6096 294.6151,-84.1194 306.7248,-75.6427"/>
<polygon fill="#191970" stroke="#191970" points="260.6201,-103.6436 254.4349,-112.2455 264.6344,-109.3782 260.6201,-103.6436"/>
</g>
<!-- Node71&#45;&gt;Node76 -->
<g id="edge36" class="edge">
<title>Node71&#45;&gt;Node76</title>
<path fill="none" stroke="#191970" d="M206.4202,-108.6541C180.3427,-98.4419 145.0185,-84.6086 121.7618,-75.5011"/>
<polygon fill="#191970" stroke="#191970" points="205.3297,-111.9858 215.9174,-112.3733 207.8822,-105.4677 205.3297,-111.9858"/>
</g>
<!-- Node72&#45;&gt;Node73 -->
<g id="edge37" class="edge">
<title>Node72&#45;&gt;Node73</title>
<path fill="none" stroke="#191970" d="M431.5,-46.1575C431.5,-37.155 431.5,-26.9199 431.5,-19.6427"/>
<polygon fill="#191970" stroke="#191970" points="428.0001,-46.2455 431.5,-56.2455 435.0001,-46.2456 428.0001,-46.2455"/>
</g>
<!-- Node76&#45;&gt;Node73 -->
<g id="edge38" class="edge">
<title>Node76&#45;&gt;Node73</title>
<path fill="none" stroke="#191970" d="M153.833,-55.7893C252.378,-38.7747 356.9455,-21.9054 404.932,-14.2312"/>
<polygon fill="#191970" stroke="#191970" points="152.9603,-52.3882 143.7037,-57.5424 154.1541,-59.2856 152.9603,-52.3882"/>
</g>
<!-- Node77&#45;&gt;Node73 -->
<g id="edge39" class="edge">
<title>Node77&#45;&gt;Node73</title>
<path fill="none" stroke="#191970" d="M34.3156,-102.4134C31.7145,-87.7426 31.1698,-68.1803 42.5,-56 67.2223,-29.4229 321.2697,-15.1812 404.94,-11.185"/>
<polygon fill="#191970" stroke="#191970" points="30.9643,-103.4683 36.543,-112.4754 37.7989,-101.9553 30.9643,-103.4683"/>
</g>
<!-- Node78&#45;&gt;Node73 -->
<g id="edge40" class="edge">
<title>Node78&#45;&gt;Node73</title>
<path fill="none" stroke="#191970" d="M450.5271,-108.1435C464.7585,-100.8855 479.4211,-90.4324 487.5,-76 500.0515,-53.5776 470.8488,-31.6621 450.0726,-19.5808"/>
<polygon fill="#191970" stroke="#191970" points="448.8814,-105.0494 441.3108,-112.4613 451.8511,-111.3882 448.8814,-105.0494"/>
</g>
<!-- Node80&#45;&gt;Node67 -->
<g id="edge41" class="edge">
<title>Node80&#45;&gt;Node67</title>
<path fill="none" stroke="#191970" d="M775.5077,-222.1476C826.5468,-210.2879 902.856,-192.5563 941.3894,-183.6025"/>
<polygon fill="#191970" stroke="#191970" points="774.6038,-218.7643 765.6555,-224.4369 776.1882,-225.5826 774.6038,-218.7643"/>
</g>
<!-- Node80&#45;&gt;Node79 -->
<g id="edge42" class="edge">
<title>Node80&#45;&gt;Node79</title>
<path fill="none" stroke="#191970" d="M706.9707,-217.0751C696.9917,-207.4402 684.8524,-195.7196 676.4871,-187.6427"/>
<polygon fill="#191970" stroke="#191970" points="704.772,-219.8175 714.3972,-224.2455 709.6342,-214.7817 704.772,-219.8175"/>
</g>
<!-- Node81&#45;&gt;Node67 -->
<g id="edge43" class="edge">
<title>Node81&#45;&gt;Node67</title>
<path fill="none" stroke="#191970" d="M910.9297,-218.2097C924.2777,-208.3743 941.0179,-196.0394 952.4135,-187.6427"/>
<polygon fill="#191970" stroke="#191970" points="908.7126,-215.4958 902.7382,-224.2455 912.865,-221.1312 908.7126,-215.4958"/>
</g>
<!-- Node94 -->
<g id="node27" class="node">
<title>Node94</title>
<g id="a_node27"><a xlink:href="scope_8hpp_source.html" target="_top" xlink:title="scope.hpp">
<polygon fill="#ffffff" stroke="#ff0000" points="810.5,-280.5 810.5,-299.5 872.5,-299.5 872.5,-280.5 810.5,-280.5"/>
<text text-anchor="middle" x="841.5" y="-287.5" font-family="Helvetica,sans-Serif" font-size="10.00" fill="#000000">scope.hpp</text>
</a>
</g>
</g>
<!-- Node93&#45;&gt;Node94 -->
<g id="edge46" class="edge">
<title>Node93&#45;&gt;Node94</title>
<path fill="none" stroke="#191970" d="M521.0034,-336.7391C604.3732,-324.581 747.4914,-303.7096 810.3502,-294.5427"/>
<polygon fill="#191970" stroke="#191970" points="520.2838,-333.3069 510.8936,-338.2134 521.294,-340.2337 520.2838,-333.3069"/>
</g>
<!-- Node96 -->
<g id="node28" class="node">
<title>Node96</title>
<g id="a_node28"><a xlink:href="formatterjavastyle_8hpp.html" target="_top" xlink:title="formatterjavastyle.hpp">
<polygon fill="#ffffff" stroke="#000000" points="258,-280.5 258,-299.5 371,-299.5 371,-280.5 258,-280.5"/>
<text text-anchor="middle" x="314.5" y="-287.5" font-family="Helvetica,sans-Serif" font-size="10.00" fill="#000000">formatterjavastyle.hpp</text>
</a>
</g>
</g>
<!-- Node93&#45;&gt;Node96 -->
<g id="edge47" class="edge">
<title>Node93&#45;&gt;Node96</title>
<path fill="none" stroke="#191970" d="M423.4202,-332.6541C397.3427,-322.4419 362.0185,-308.6086 338.7618,-299.5011"/>
<polygon fill="#191970" stroke="#191970" points="422.3297,-335.9858 432.9174,-336.3733 424.8822,-329.4677 422.3297,-335.9858"/>
</g>
<!-- Node97 -->
<g id="node29" class="node">
<title>Node97</title>
<g id="a_node29"><a xlink:href="formatterpythonstyle_8hpp.html" target="_top" xlink:title="formatterpythonstyle.hpp">
<polygon fill="#ffffff" stroke="#ff0000" points="87,-280.5 87,-299.5 212,-299.5 212,-280.5 87,-280.5"/>
<text text-anchor="middle" x="149.5" y="-287.5" font-family="Helvetica,sans-Serif" font-size="10.00" fill="#000000">formatterpythonstyle.hpp</text>
</a>
</g>
</g>
<!-- Node93&#45;&gt;Node97 -->
<g id="edge48" class="edge">
<title>Node93&#45;&gt;Node97</title>
<path fill="none" stroke="#191970" d="M394.9629,-334.6296C338.1481,-324.2997 255.2876,-309.2341 201.8802,-299.5237"/>
<polygon fill="#191970" stroke="#191970" points="394.438,-338.0915 404.9029,-336.4369 395.6903,-331.2044 394.438,-338.0915"/>
</g>
<!-- Node100 -->
<g id="node30" class="node">
<title>Node100</title>
<g id="a_node30"><a xlink:href="propertyformatter_8hpp_source.html" target="_top" xlink:title="propertyformatter.hpp">
<polygon fill="#ffffff" stroke="#ff0000" points="403,-280.5 403,-299.5 512,-299.5 512,-280.5 403,-280.5"/>
<text text-anchor="middle" x="457.5" y="-287.5" font-family="Helvetica,sans-Serif" font-size="10.00" fill="#000000">propertyformatter.hpp</text>
</a>
</g>
</g>
<!-- Node93&#45;&gt;Node100 -->
<g id="edge49" class="edge">
<title>Node93&#45;&gt;Node100</title>
<path fill="none" stroke="#191970" d="M457.5,-326.1575C457.5,-317.155 457.5,-306.9199 457.5,-299.6427"/>
<polygon fill="#191970" stroke="#191970" points="454.0001,-326.2455 457.5,-336.2455 461.0001,-326.2456 454.0001,-326.2455"/>
</g>
<!-- Node94&#45;&gt;Node84 -->
<g id="edge50" class="edge">
<title>Node94&#45;&gt;Node84</title>
<path fill="none" stroke="#191970" d="M882.7595,-283.0822C944.4312,-272.7421 1060.4412,-253.2913 1126.3914,-242.2338"/>
<polygon fill="#191970" stroke="#191970" points="881.9055,-279.6765 872.622,-284.7819 883.0631,-286.5801 881.9055,-279.6765"/>
</g>
<!-- Node96&#45;&gt;Node70 -->
<g id="edge51" class="edge">
<title>Node96&#45;&gt;Node70</title>
<path fill="none" stroke="#191970" d="M282.8672,-275.6681C269.4465,-268.0708 254.7894,-257.4873 245.5,-244 233.6359,-226.7744 231.0184,-201.5948 230.5248,-187.8502"/>
<polygon fill="#191970" stroke="#191970" points="281.4056,-278.8548 291.8797,-280.4498 284.6864,-272.6712 281.4056,-278.8548"/>
</g>
<!-- Node97&#45;&gt;Node70 -->
<g id="edge52" class="edge">
<title>Node97&#45;&gt;Node70</title>
<path fill="none" stroke="#191970" d="M152.1622,-270.2278C154.7903,-256.3139 159.874,-237.7887 169.5,-224 180.5092,-208.23 198.6168,-195.5669 212.2498,-187.5504"/>
<polygon fill="#191970" stroke="#191970" points="148.6879,-269.7877 150.5411,-280.2192 155.5975,-270.9089 148.6879,-269.7877"/>
</g>
</g>
</svg>
