<?xml version="1.0" encoding="UTF-8" standalone="no"?>
<!DOCTYPE svg PUBLIC "-//W3C//DTD SVG 1.1//EN"
 "http://www.w3.org/Graphics/SVG/1.1/DTD/svg11.dtd">
<!-- Generated by graphviz version 2.40.1 (20161225.0304)
 -->
<!-- Title: ticksconverter.hpp Pages: 1 -->
<svg width="236pt" height="196pt"
 viewBox="0.00 0.00 235.50 196.00" xmlns="http://www.w3.org/2000/svg" xmlns:xlink="http://www.w3.org/1999/xlink">
<g id="graph0" class="graph" transform="scale(1 1) rotate(0) translate(4 192)">
<title>ticksconverter.hpp</title>
<polygon fill="#ffffff" stroke="transparent" points="-4,4 -4,-192 231.5,-192 231.5,4 -4,4"/>
<!-- Node0 -->
<g id="node1" class="node">
<title>Node0</title>
<polygon fill="#bfbfbf" stroke="#000000" points="61,-168.5 61,-187.5 157,-187.5 157,-168.5 61,-168.5"/>
<text text-anchor="middle" x="109" y="-175.5" font-family="Helvetica,sans-Serif" font-size="10.00" fill="#000000">ticksconverter.hpp</text>
</g>
<!-- Node1 -->
<g id="node2" class="node">
<title>Node1</title>
<g id="a_node2"><a xlink:href="ticks_8hpp.html" target="_top" xlink:title="alib/time/ticks.hpp">
<polygon fill="#ffffff" stroke="#000000" points="0,-112.5 0,-131.5 96,-131.5 96,-112.5 0,-112.5"/>
<text text-anchor="middle" x="48" y="-119.5" font-family="Helvetica,sans-Serif" font-size="10.00" fill="#000000">alib/time/ticks.hpp</text>
</a>
</g>
</g>
<!-- Node0&#45;&gt;Node1 -->
<g id="edge1" class="edge">
<title>Node0&#45;&gt;Node1</title>
<path fill="none" stroke="#191970" d="M98.3746,-168.2455C89.4527,-160.0549 76.512,-148.1749 65.9808,-138.5069"/>
<polygon fill="#191970" stroke="#191970" points="68.2371,-135.8271 58.5036,-131.6427 63.5032,-140.9837 68.2371,-135.8271"/>
</g>
<!-- Node10 -->
<g id="node3" class="node">
<title>Node10</title>
<g id="a_node3"><a xlink:href="datetime_8hpp.html" target="_top" xlink:title="alib/time/datetime.hpp">
<polygon fill="#ffffff" stroke="#000000" points="114.5,-112.5 114.5,-131.5 227.5,-131.5 227.5,-112.5 114.5,-112.5"/>
<text text-anchor="middle" x="171" y="-119.5" font-family="Helvetica,sans-Serif" font-size="10.00" fill="#000000">alib/time/datetime.hpp</text>
</a>
</g>
</g>
<!-- Node0&#45;&gt;Node10 -->
<g id="edge2" class="edge">
<title>Node0&#45;&gt;Node10</title>
<path fill="none" stroke="#191970" d="M119.7996,-168.2455C128.8678,-160.0549 142.0206,-148.1749 152.7245,-138.5069"/>
<polygon fill="#191970" stroke="#191970" points="155.2491,-140.9429 160.3242,-131.6427 150.5571,-135.7482 155.2491,-140.9429"/>
</g>
<!-- Node2 -->
<g id="node4" class="node">
<title>Node2</title>
<g id="a_node4"><a xlink:href="timepointbase_8hpp.html" target="_top" xlink:title="alib/time/timepointbase.hpp">
<polygon fill="#ffffff" stroke="#000000" points="41,-56.5 41,-75.5 177,-75.5 177,-56.5 41,-56.5"/>
<text text-anchor="middle" x="109" y="-63.5" font-family="Helvetica,sans-Serif" font-size="10.00" fill="#000000">alib/time/timepointbase.hpp</text>
</a>
</g>
</g>
<!-- Node1&#45;&gt;Node2 -->
<g id="edge3" class="edge">
<title>Node1&#45;&gt;Node2</title>
<path fill="none" stroke="#191970" d="M58.6254,-112.2455C67.5473,-104.0549 80.488,-92.1749 91.0192,-82.5069"/>
<polygon fill="#191970" stroke="#191970" points="93.4968,-84.9837 98.4964,-75.6427 88.7629,-79.8271 93.4968,-84.9837"/>
</g>
<!-- Node10&#45;&gt;Node2 -->
<g id="edge6" class="edge">
<title>Node10&#45;&gt;Node2</title>
<path fill="none" stroke="#191970" d="M160.2004,-112.2455C151.1322,-104.0549 137.9794,-92.1749 127.2755,-82.5069"/>
<polygon fill="#191970" stroke="#191970" points="129.4429,-79.7482 119.6758,-75.6427 124.7509,-84.9429 129.4429,-79.7482"/>
</g>
<!-- Node3 -->
<g id="node5" class="node">
<title>Node3</title>
<g id="a_node5"><a xlink:href="timelib_8hpp.html" target="_top" xlink:title="alib/time/timelib.hpp">
<polygon fill="#ffffff" stroke="#ff0000" points="11,-.5 11,-19.5 115,-19.5 115,-.5 11,-.5"/>
<text text-anchor="middle" x="63" y="-7.5" font-family="Helvetica,sans-Serif" font-size="10.00" fill="#000000">alib/time/timelib.hpp</text>
</a>
</g>
</g>
<!-- Node2&#45;&gt;Node3 -->
<g id="edge4" class="edge">
<title>Node2&#45;&gt;Node3</title>
<path fill="none" stroke="#191970" d="M100.9874,-56.2455C94.5232,-48.3761 85.2615,-37.101 77.5017,-27.6542"/>
<polygon fill="#191970" stroke="#191970" points="79.9727,-25.1484 70.9208,-19.6427 74.5636,-29.5916 79.9727,-25.1484"/>
</g>
<!-- Node9 -->
<g id="node6" class="node">
<title>Node9</title>
<polygon fill="#ffffff" stroke="#bfbfbf" points="133,-.5 133,-19.5 177,-19.5 177,-.5 133,-.5"/>
<text text-anchor="middle" x="155" y="-7.5" font-family="Helvetica,sans-Serif" font-size="10.00" fill="#000000">cmath</text>
</g>
<!-- Node2&#45;&gt;Node9 -->
<g id="edge5" class="edge">
<title>Node2&#45;&gt;Node9</title>
<path fill="none" stroke="#191970" d="M117.0126,-56.2455C123.4768,-48.3761 132.7385,-37.101 140.4983,-27.6542"/>
<polygon fill="#191970" stroke="#191970" points="143.4364,-29.5916 147.0792,-19.6427 138.0273,-25.1484 143.4364,-29.5916"/>
</g>
</g>
</svg>
