<?xml version="1.0" encoding="UTF-8" standalone="no"?>
<!DOCTYPE svg PUBLIC "-//W3C//DTD SVG 1.1//EN"
 "http://www.w3.org/Graphics/SVG/1.1/DTD/svg11.dtd">
<!-- Generated by graphviz version 2.40.1 (20161225.0304)
 -->
<!-- Title: ticks.hpp Pages: 1 -->
<svg width="381pt" height="252pt"
 viewBox="0.00 0.00 381.00 252.00" xmlns="http://www.w3.org/2000/svg" xmlns:xlink="http://www.w3.org/1999/xlink">
<g id="graph0" class="graph" transform="scale(1 1) rotate(0) translate(4 248)">
<title>ticks.hpp</title>
<polygon fill="#ffffff" stroke="transparent" points="-4,4 -4,-248 377,-248 377,4 -4,4"/>
<!-- Node9 -->
<g id="node1" class="node">
<title>Node9</title>
<polygon fill="#bfbfbf" stroke="#000000" points="182,-224.5 182,-243.5 238,-243.5 238,-224.5 182,-224.5"/>
<text text-anchor="middle" x="210" y="-231.5" font-family="Helvetica,sans-Serif" font-size="10.00" fill="#000000">ticks.hpp</text>
</g>
<!-- Node10 -->
<g id="node2" class="node">
<title>Node10</title>
<g id="a_node2"><a xlink:href="scopeinfo_8hpp.html" target="_top" xlink:title="scopeinfo.hpp">
<polygon fill="#ffffff" stroke="#000000" points="3.5,-168.5 3.5,-187.5 80.5,-187.5 80.5,-168.5 3.5,-168.5"/>
<text text-anchor="middle" x="42" y="-175.5" font-family="Helvetica,sans-Serif" font-size="10.00" fill="#000000">scopeinfo.hpp</text>
</a>
</g>
</g>
<!-- Node9&#45;&gt;Node10 -->
<g id="edge1" class="edge">
<title>Node9&#45;&gt;Node10</title>
<path fill="none" stroke="#191970" d="M172.3581,-221.4527C141.6192,-211.2064 98.8213,-196.9404 70.7743,-187.5914"/>
<polygon fill="#191970" stroke="#191970" points="171.2869,-224.7849 181.8806,-224.6269 173.5006,-218.1441 171.2869,-224.7849"/>
</g>
<!-- Node28 -->
<g id="node3" class="node">
<title>Node28</title>
<g id="a_node3"><a xlink:href="expression_8hpp_source.html" target="_top" xlink:title="expression.hpp">
<polygon fill="#ffffff" stroke="#000000" points="98.5,-168.5 98.5,-187.5 181.5,-187.5 181.5,-168.5 98.5,-168.5"/>
<text text-anchor="middle" x="140" y="-175.5" font-family="Helvetica,sans-Serif" font-size="10.00" fill="#000000">expression.hpp</text>
</a>
</g>
</g>
<!-- Node9&#45;&gt;Node28 -->
<g id="edge2" class="edge">
<title>Node9&#45;&gt;Node28</title>
<path fill="none" stroke="#191970" d="M189.91,-217.928C177.6747,-208.1397 162.4493,-195.9595 152.0533,-187.6427"/>
<polygon fill="#191970" stroke="#191970" points="187.8118,-220.7316 197.8069,-224.2455 192.1847,-215.2655 187.8118,-220.7316"/>
</g>
<!-- Node38 -->
<g id="node4" class="node">
<title>Node38</title>
<g id="a_node4"><a xlink:href="calendar_8hpp.html" target="_top" xlink:title="calendar.hpp">
<polygon fill="#ffffff" stroke="#000000" points="193.5,-112.5 193.5,-131.5 264.5,-131.5 264.5,-112.5 193.5,-112.5"/>
<text text-anchor="middle" x="229" y="-119.5" font-family="Helvetica,sans-Serif" font-size="10.00" fill="#000000">calendar.hpp</text>
</a>
</g>
</g>
<!-- Node9&#45;&gt;Node38 -->
<g id="edge3" class="edge">
<title>Node9&#45;&gt;Node38</title>
<path fill="none" stroke="#191970" d="M213.347,-214.2702C217.4645,-189.9985 224.2886,-149.7725 227.3842,-131.5249"/>
<polygon fill="#191970" stroke="#191970" points="209.8418,-214.0064 211.6199,-224.4509 216.7432,-215.1772 209.8418,-214.0064"/>
</g>
<!-- Node39 -->
<g id="node5" class="node">
<title>Node39</title>
<g id="a_node5"><a xlink:href="stopwatch_8hpp.html" target="_top" xlink:title="stopwatch.hpp">
<polygon fill="#ffffff" stroke="#000000" points="238,-168.5 238,-187.5 318,-187.5 318,-168.5 238,-168.5"/>
<text text-anchor="middle" x="278" y="-175.5" font-family="Helvetica,sans-Serif" font-size="10.00" fill="#000000">stopwatch.hpp</text>
</a>
</g>
</g>
<!-- Node9&#45;&gt;Node39 -->
<g id="edge4" class="edge">
<title>Node9&#45;&gt;Node39</title>
<path fill="none" stroke="#191970" d="M229.8596,-217.645C241.6858,-207.9058 256.2892,-195.8795 266.291,-187.6427"/>
<polygon fill="#191970" stroke="#191970" points="227.339,-215.1867 221.8447,-224.2455 231.789,-220.5902 227.339,-215.1867"/>
</g>
<!-- Node40 -->
<g id="node6" class="node">
<title>Node40</title>
<g id="a_node6"><a xlink:href="ticksconverter_8hpp.html" target="_top" xlink:title="ticksconverter.hpp">
<polygon fill="#ffffff" stroke="#000000" points="277,-56.5 277,-75.5 373,-75.5 373,-56.5 277,-56.5"/>
<text text-anchor="middle" x="325" y="-63.5" font-family="Helvetica,sans-Serif" font-size="10.00" fill="#000000">ticksconverter.hpp</text>
</a>
</g>
</g>
<!-- Node9&#45;&gt;Node40 -->
<g id="edge5" class="edge">
<title>Node9&#45;&gt;Node40</title>
<path fill="none" stroke="#191970" d="M247.9854,-224.0731C278.4823,-215.2446 317.6976,-201.653 327,-188 350.9749,-152.8127 336.0688,-97.6711 328.5572,-75.6016"/>
<polygon fill="#191970" stroke="#191970" points="246.7088,-220.7964 238.0331,-226.8777 248.6075,-227.534 246.7088,-220.7964"/>
</g>
<!-- Node11 -->
<g id="node7" class="node">
<title>Node11</title>
<g id="a_node7"><a xlink:href="lox_8hpp.html" target="_top" xlink:title="lox.hpp">
<polygon fill="#ffffff" stroke="#000000" points="0,-112.5 0,-131.5 48,-131.5 48,-112.5 0,-112.5"/>
<text text-anchor="middle" x="24" y="-119.5" font-family="Helvetica,sans-Serif" font-size="10.00" fill="#000000">lox.hpp</text>
</a>
</g>
</g>
<!-- Node10&#45;&gt;Node11 -->
<g id="edge6" class="edge">
<title>Node10&#45;&gt;Node11</title>
<path fill="none" stroke="#191970" d="M35.7173,-158.4538C32.8008,-149.3803 29.4642,-138.9998 27.0994,-131.6427"/>
<polygon fill="#191970" stroke="#191970" points="32.4724,-159.7963 38.8646,-168.2455 39.1366,-157.6542 32.4724,-159.7963"/>
</g>
<!-- Node29 -->
<g id="node10" class="node">
<title>Node29</title>
<g id="a_node10"><a xlink:href="compiler_8hpp_source.html" target="_top" xlink:title="compiler.hpp">
<polygon fill="#ffffff" stroke="#000000" points="104.5,-112.5 104.5,-131.5 175.5,-131.5 175.5,-112.5 104.5,-112.5"/>
<text text-anchor="middle" x="140" y="-119.5" font-family="Helvetica,sans-Serif" font-size="10.00" fill="#000000">compiler.hpp</text>
</a>
</g>
</g>
<!-- Node28&#45;&gt;Node29 -->
<g id="edge11" class="edge">
<title>Node28&#45;&gt;Node29</title>
<path fill="none" stroke="#191970" d="M140,-158.1575C140,-149.155 140,-138.9199 140,-131.6427"/>
<polygon fill="#191970" stroke="#191970" points="136.5001,-158.2455 140,-168.2455 143.5001,-158.2456 136.5001,-158.2455"/>
</g>
<!-- Node16 -->
<g id="node9" class="node">
<title>Node16</title>
<g id="a_node9"><a xlink:href="textlogger_8hpp.html" target="_top" xlink:title="textlogger.hpp">
<polygon fill="#ffffff" stroke="#ff0000" points="190.5,-.5 190.5,-19.5 267.5,-19.5 267.5,-.5 190.5,-.5"/>
<text text-anchor="middle" x="229" y="-7.5" font-family="Helvetica,sans-Serif" font-size="10.00" fill="#000000">textlogger.hpp</text>
</a>
</g>
</g>
<!-- Node38&#45;&gt;Node16 -->
<g id="edge13" class="edge">
<title>Node38&#45;&gt;Node16</title>
<path fill="none" stroke="#191970" d="M229,-102.2702C229,-77.9985 229,-37.7725 229,-19.5249"/>
<polygon fill="#191970" stroke="#191970" points="225.5001,-102.4509 229,-112.4509 232.5001,-102.451 225.5001,-102.4509"/>
</g>
<!-- Node40&#45;&gt;Node16 -->
<g id="edge14" class="edge">
<title>Node40&#45;&gt;Node16</title>
<path fill="none" stroke="#191970" d="M299.3654,-51.0465C282.2841,-41.0824 260.336,-28.2794 245.5303,-19.6427"/>
<polygon fill="#191970" stroke="#191970" points="297.8767,-54.23 308.2781,-56.2455 301.4038,-48.1836 297.8767,-54.23"/>
</g>
<!-- Node12 -->
<g id="node8" class="node">
<title>Node12</title>
<g id="a_node8"><a xlink:href="alox_2alox_8hpp.html" target="_top" xlink:title="alox.hpp">
<polygon fill="#ffffff" stroke="#ff0000" points="8.5,-56.5 8.5,-75.5 61.5,-75.5 61.5,-56.5 8.5,-56.5"/>
<text text-anchor="middle" x="35" y="-63.5" font-family="Helvetica,sans-Serif" font-size="10.00" fill="#000000">alox.hpp</text>
</a>
</g>
</g>
<!-- Node11&#45;&gt;Node12 -->
<g id="edge7" class="edge">
<title>Node11&#45;&gt;Node12</title>
<path fill="none" stroke="#191970" d="M21.409,-102.1575C22.585,-93.155 25.01,-82.9199 27.8608,-75.6427"/>
<polygon fill="#191970" stroke="#191970" points="17.9102,-102.0109 20.6492,-112.2455 24.8904,-102.5367 17.9102,-102.0109"/>
</g>
<!-- Node12&#45;&gt;Node10 -->
<g id="edge8" class="edge">
<title>Node12&#45;&gt;Node10</title>
<path fill="none" stroke="#191970" d="M46.2633,-84.6675C50.522,-92.7672 54.856,-102.548 57,-112 61.5228,-131.9394 52.9678,-155.264 47.0232,-168.1606"/>
<polygon fill="#191970" stroke="#191970" points="49.2071,-82.7615 41.2583,-75.7567 43.1039,-86.1895 49.2071,-82.7615"/>
</g>
<!-- Node12&#45;&gt;Node11 -->
<g id="edge9" class="edge">
<title>Node12&#45;&gt;Node11</title>
<path fill="none" stroke="#191970" d="M37.609,-85.7046C36.4457,-94.6944 34.0293,-104.9382 31.1829,-112.2455"/>
<polygon fill="#191970" stroke="#191970" points="41.106,-85.8731 38.351,-75.6427 34.1249,-85.3581 41.106,-85.8731"/>
</g>
<!-- Node12&#45;&gt;Node16 -->
<g id="edge10" class="edge">
<title>Node12&#45;&gt;Node16</title>
<path fill="none" stroke="#191970" d="M71.5994,-55.4352C107.3953,-45.1024 161.4194,-29.5078 195.9472,-19.541"/>
<polygon fill="#191970" stroke="#191970" points="70.2051,-52.1947 61.5681,-58.3309 72.1465,-58.9201 70.2051,-52.1947"/>
</g>
<!-- Node30 -->
<g id="node11" class="node">
<title>Node30</title>
<g id="a_node11"><a xlink:href="compilerplugin_8hpp_source.html" target="_top" xlink:title="compilerplugin.hpp">
<polygon fill="#ffffff" stroke="#ff0000" points="91,-56.5 91,-75.5 189,-75.5 189,-56.5 91,-56.5"/>
<text text-anchor="middle" x="140" y="-63.5" font-family="Helvetica,sans-Serif" font-size="10.00" fill="#000000">compilerplugin.hpp</text>
</a>
</g>
</g>
<!-- Node29&#45;&gt;Node30 -->
<g id="edge12" class="edge">
<title>Node29&#45;&gt;Node30</title>
<path fill="none" stroke="#191970" d="M140,-102.1575C140,-93.155 140,-82.9199 140,-75.6427"/>
<polygon fill="#191970" stroke="#191970" points="136.5001,-102.2455 140,-112.2455 143.5001,-102.2456 136.5001,-102.2455"/>
</g>
</g>
</svg>
