<?xml version="1.0" encoding="UTF-8" standalone="no"?>
<!DOCTYPE svg PUBLIC "-//W3C//DTD SVG 1.1//EN"
 "http://www.w3.org/Graphics/SVG/1.1/DTD/svg11.dtd">
<!-- Generated by graphviz version 2.40.1 (20161225.0304)
 -->
<!-- Title: timelib.hpp Pages: 1 -->
<svg width="596pt" height="196pt"
 viewBox="0.00 0.00 595.50 196.00" xmlns="http://www.w3.org/2000/svg" xmlns:xlink="http://www.w3.org/1999/xlink">
<g id="graph0" class="graph" transform="scale(1 1) rotate(0) translate(4 192)">
<title>timelib.hpp</title>
<polygon fill="#ffffff" stroke="transparent" points="-4,4 -4,-192 591.5,-192 591.5,4 -4,4"/>
<!-- Node6 -->
<g id="node1" class="node">
<title>Node6</title>
<polygon fill="#bfbfbf" stroke="#000000" points="207.5,-168.5 207.5,-187.5 271.5,-187.5 271.5,-168.5 207.5,-168.5"/>
<text text-anchor="middle" x="239.5" y="-175.5" font-family="Helvetica,sans-Serif" font-size="10.00" fill="#000000">timelib.hpp</text>
</g>
<!-- Node7 -->
<g id="node2" class="node">
<title>Node7</title>
<g id="a_node2"><a xlink:href="timepointbase_8hpp.html" target="_top" xlink:title="timepointbase.hpp">
<polygon fill="#ffffff" stroke="#000000" points="191.5,-112.5 191.5,-131.5 287.5,-131.5 287.5,-112.5 191.5,-112.5"/>
<text text-anchor="middle" x="239.5" y="-119.5" font-family="Helvetica,sans-Serif" font-size="10.00" fill="#000000">timepointbase.hpp</text>
</a>
</g>
</g>
<!-- Node6&#45;&gt;Node7 -->
<g id="edge1" class="edge">
<title>Node6&#45;&gt;Node7</title>
<path fill="none" stroke="#191970" d="M239.5,-158.1575C239.5,-149.155 239.5,-138.9199 239.5,-131.6427"/>
<polygon fill="#191970" stroke="#191970" points="236.0001,-158.2455 239.5,-168.2455 243.0001,-158.2456 236.0001,-158.2455"/>
</g>
<!-- Node8 -->
<g id="node3" class="node">
<title>Node8</title>
<g id="a_node3"><a xlink:href="datetime_8hpp.html" target="_top" xlink:title="datetime.hpp">
<polygon fill="#ffffff" stroke="#000000" points="162,-56.5 162,-75.5 235,-75.5 235,-56.5 162,-56.5"/>
<text text-anchor="middle" x="198.5" y="-63.5" font-family="Helvetica,sans-Serif" font-size="10.00" fill="#000000">datetime.hpp</text>
</a>
</g>
</g>
<!-- Node7&#45;&gt;Node8 -->
<g id="edge2" class="edge">
<title>Node7&#45;&gt;Node8</title>
<path fill="none" stroke="#191970" d="M226.2636,-103.9209C219.3789,-94.5176 211.2391,-83.3997 205.5598,-75.6427"/>
<polygon fill="#191970" stroke="#191970" points="223.6269,-106.2445 232.3583,-112.2455 229.2749,-102.1093 223.6269,-106.2445"/>
</g>
<!-- Node21 -->
<g id="node4" class="node">
<title>Node21</title>
<g id="a_node4"><a xlink:href="ticks_8hpp.html" target="_top" xlink:title="ticks.hpp">
<polygon fill="#ffffff" stroke="#000000" points="262.5,-56.5 262.5,-75.5 318.5,-75.5 318.5,-56.5 262.5,-56.5"/>
<text text-anchor="middle" x="290.5" y="-63.5" font-family="Helvetica,sans-Serif" font-size="10.00" fill="#000000">ticks.hpp</text>
</a>
</g>
</g>
<!-- Node7&#45;&gt;Node21 -->
<g id="edge3" class="edge">
<title>Node7&#45;&gt;Node21</title>
<path fill="none" stroke="#191970" d="M255.1749,-104.7884C263.8994,-95.2085 274.4354,-83.6396 281.7183,-75.6427"/>
<polygon fill="#191970" stroke="#191970" points="252.5291,-102.4954 248.3835,-112.2455 257.7046,-107.2088 252.5291,-102.4954"/>
</g>
<!-- Node9 -->
<g id="node5" class="node">
<title>Node9</title>
<g id="a_node5"><a xlink:href="dateandtime_8hpp_source.html" target="_top" xlink:title="dateandtime.hpp">
<polygon fill="#ffffff" stroke="#000000" points="0,-.5 0,-19.5 89,-19.5 89,-.5 0,-.5"/>
<text text-anchor="middle" x="44.5" y="-7.5" font-family="Helvetica,sans-Serif" font-size="10.00" fill="#000000">dateandtime.hpp</text>
</a>
</g>
</g>
<!-- Node8&#45;&gt;Node9 -->
<g id="edge4" class="edge">
<title>Node8&#45;&gt;Node9</title>
<path fill="none" stroke="#191970" d="M162.5386,-52.9231C134.3866,-42.686 95.8945,-28.6889 70.6281,-19.5011"/>
<polygon fill="#191970" stroke="#191970" points="161.4324,-56.245 172.0265,-56.3733 163.8246,-49.6665 161.4324,-56.245"/>
</g>
<!-- Node10 -->
<g id="node6" class="node">
<title>Node10</title>
<g id="a_node6"><a xlink:href="calendar_8hpp.html" target="_top" xlink:title="calendar.hpp">
<polygon fill="#ffffff" stroke="#ff0000" points="107,-.5 107,-19.5 178,-19.5 178,-.5 107,-.5"/>
<text text-anchor="middle" x="142.5" y="-7.5" font-family="Helvetica,sans-Serif" font-size="10.00" fill="#000000">calendar.hpp</text>
</a>
</g>
</g>
<!-- Node8&#45;&gt;Node10 -->
<g id="edge5" class="edge">
<title>Node8&#45;&gt;Node10</title>
<path fill="none" stroke="#191970" d="M181.5751,-49.0751C171.9402,-39.4402 160.2196,-27.7196 152.1427,-19.6427"/>
<polygon fill="#191970" stroke="#191970" points="179.1996,-51.6493 188.7455,-56.2455 184.1493,-46.6996 179.1996,-51.6493"/>
</g>
<!-- Node20 -->
<g id="node7" class="node">
<title>Node20</title>
<g id="a_node7"><a xlink:href="ticksconverter_8hpp.html" target="_top" xlink:title="ticksconverter.hpp">
<polygon fill="#ffffff" stroke="#ff0000" points="196.5,-.5 196.5,-19.5 292.5,-19.5 292.5,-.5 196.5,-.5"/>
<text text-anchor="middle" x="244.5" y="-7.5" font-family="Helvetica,sans-Serif" font-size="10.00" fill="#000000">ticksconverter.hpp</text>
</a>
</g>
</g>
<!-- Node8&#45;&gt;Node20 -->
<g id="edge6" class="edge">
<title>Node8&#45;&gt;Node20</title>
<path fill="none" stroke="#191970" d="M212.8747,-48.5004C220.6971,-38.9775 230.076,-27.5596 236.5792,-19.6427"/>
<polygon fill="#191970" stroke="#191970" points="210.1555,-46.2967 206.5126,-56.2455 215.5646,-50.7399 210.1555,-46.2967"/>
</g>
<!-- Node21&#45;&gt;Node10 -->
<g id="edge7" class="edge">
<title>Node21&#45;&gt;Node10</title>
<path fill="none" stroke="#191970" d="M255.5847,-52.7888C228.5617,-42.5639 191.786,-28.6488 167.6101,-19.5011"/>
<polygon fill="#191970" stroke="#191970" points="254.4664,-56.1078 265.0579,-56.3733 256.9437,-49.5608 254.4664,-56.1078"/>
</g>
<!-- Node21&#45;&gt;Node20 -->
<g id="edge8" class="edge">
<title>Node21&#45;&gt;Node20</title>
<path fill="none" stroke="#191970" d="M276.1253,-48.5004C268.3029,-38.9775 258.924,-27.5596 252.4208,-19.6427"/>
<polygon fill="#191970" stroke="#191970" points="273.4354,-50.7399 282.4874,-56.2455 278.8445,-46.2967 273.4354,-50.7399"/>
</g>
<!-- Node22 -->
<g id="node8" class="node">
<title>Node22</title>
<g id="a_node8"><a xlink:href="scopeinfo_8hpp.html" target="_top" xlink:title="scopeinfo.hpp">
<polygon fill="#ffffff" stroke="#ff0000" points="311,-.5 311,-19.5 388,-19.5 388,-.5 311,-.5"/>
<text text-anchor="middle" x="349.5" y="-7.5" font-family="Helvetica,sans-Serif" font-size="10.00" fill="#000000">scopeinfo.hpp</text>
</a>
</g>
</g>
<!-- Node21&#45;&gt;Node22 -->
<g id="edge9" class="edge">
<title>Node21&#45;&gt;Node22</title>
<path fill="none" stroke="#191970" d="M308.0307,-49.3607C318.2377,-39.6727 330.7469,-27.7995 339.3408,-19.6427"/>
<polygon fill="#191970" stroke="#191970" points="305.6206,-46.8227 300.777,-56.2455 310.4396,-51.8998 305.6206,-46.8227"/>
</g>
<!-- Node31 -->
<g id="node9" class="node">
<title>Node31</title>
<g id="a_node9"><a xlink:href="expression_8hpp_source.html" target="_top" xlink:title="expression.hpp">
<polygon fill="#ffffff" stroke="#ff0000" points="406,-.5 406,-19.5 489,-19.5 489,-.5 406,-.5"/>
<text text-anchor="middle" x="447.5" y="-7.5" font-family="Helvetica,sans-Serif" font-size="10.00" fill="#000000">expression.hpp</text>
</a>
</g>
</g>
<!-- Node21&#45;&gt;Node31 -->
<g id="edge10" class="edge">
<title>Node21&#45;&gt;Node31</title>
<path fill="none" stroke="#191970" d="M327.1619,-52.9231C355.8624,-42.686 395.1044,-28.6889 420.8629,-19.5011"/>
<polygon fill="#191970" stroke="#191970" points="325.7322,-49.7171 317.4893,-56.3733 328.0839,-56.3102 325.7322,-49.7171"/>
</g>
<!-- Node40 -->
<g id="node10" class="node">
<title>Node40</title>
<g id="a_node10"><a xlink:href="stopwatch_8hpp.html" target="_top" xlink:title="stopwatch.hpp">
<polygon fill="#ffffff" stroke="#000000" points="507.5,-.5 507.5,-19.5 587.5,-19.5 587.5,-.5 507.5,-.5"/>
<text text-anchor="middle" x="547.5" y="-7.5" font-family="Helvetica,sans-Serif" font-size="10.00" fill="#000000">stopwatch.hpp</text>
</a>
</g>
</g>
<!-- Node21&#45;&gt;Node40 -->
<g id="edge11" class="edge">
<title>Node21&#45;&gt;Node40</title>
<path fill="none" stroke="#191970" d="M328.9602,-57.6196C376.8542,-47.1835 458.2959,-29.4375 507.0831,-18.8068"/>
<polygon fill="#191970" stroke="#191970" points="328.011,-54.2442 318.9854,-59.7931 329.5014,-61.0837 328.011,-54.2442"/>
</g>
</g>
</svg>
