<?xml version="1.0" encoding="UTF-8" standalone="no"?>
<!DOCTYPE svg PUBLIC "-//W3C//DTD SVG 1.1//EN"
 "http://www.w3.org/Graphics/SVG/1.1/DTD/svg11.dtd">
<!-- Generated by graphviz version 2.40.1 (20161225.0304)
 -->
<!-- Title: timepointbase.hpp Pages: 1 -->
<svg width="596pt" height="196pt"
 viewBox="0.00 0.00 595.50 196.00" xmlns="http://www.w3.org/2000/svg" xmlns:xlink="http://www.w3.org/1999/xlink">
<g id="graph0" class="graph" transform="scale(1 1) rotate(0) translate(4 192)">
<title>timepointbase.hpp</title>
<polygon fill="#ffffff" stroke="transparent" points="-4,4 -4,-192 591.5,-192 591.5,4 -4,4"/>
<!-- Node8 -->
<g id="node1" class="node">
<title>Node8</title>
<polygon fill="#bfbfbf" stroke="#000000" points="191.5,-168.5 191.5,-187.5 287.5,-187.5 287.5,-168.5 191.5,-168.5"/>
<text text-anchor="middle" x="239.5" y="-175.5" font-family="Helvetica,sans-Serif" font-size="10.00" fill="#000000">timepointbase.hpp</text>
</g>
<!-- Node9 -->
<g id="node2" class="node">
<title>Node9</title>
<g id="a_node2"><a xlink:href="datetime_8hpp.html" target="_top" xlink:title="datetime.hpp">
<polygon fill="#ffffff" stroke="#000000" points="162,-112.5 162,-131.5 235,-131.5 235,-112.5 162,-112.5"/>
<text text-anchor="middle" x="198.5" y="-119.5" font-family="Helvetica,sans-Serif" font-size="10.00" fill="#000000">datetime.hpp</text>
</a>
</g>
</g>
<!-- Node8&#45;&gt;Node9 -->
<g id="edge1" class="edge">
<title>Node8&#45;&gt;Node9</title>
<path fill="none" stroke="#191970" d="M226.2636,-159.9209C219.3789,-150.5176 211.2391,-139.3997 205.5598,-131.6427"/>
<polygon fill="#191970" stroke="#191970" points="223.6269,-162.2445 232.3583,-168.2455 229.2749,-158.1093 223.6269,-162.2445"/>
</g>
<!-- Node22 -->
<g id="node3" class="node">
<title>Node22</title>
<g id="a_node3"><a xlink:href="ticks_8hpp.html" target="_top" xlink:title="ticks.hpp">
<polygon fill="#ffffff" stroke="#000000" points="262.5,-112.5 262.5,-131.5 318.5,-131.5 318.5,-112.5 262.5,-112.5"/>
<text text-anchor="middle" x="290.5" y="-119.5" font-family="Helvetica,sans-Serif" font-size="10.00" fill="#000000">ticks.hpp</text>
</a>
</g>
</g>
<!-- Node8&#45;&gt;Node22 -->
<g id="edge2" class="edge">
<title>Node8&#45;&gt;Node22</title>
<path fill="none" stroke="#191970" d="M255.1749,-160.7884C263.8994,-151.2085 274.4354,-139.6396 281.7183,-131.6427"/>
<polygon fill="#191970" stroke="#191970" points="252.5291,-158.4954 248.3835,-168.2455 257.7046,-163.2088 252.5291,-158.4954"/>
</g>
<!-- Node10 -->
<g id="node4" class="node">
<title>Node10</title>
<g id="a_node4"><a xlink:href="dateandtime_8hpp_source.html" target="_top" xlink:title="dateandtime.hpp">
<polygon fill="#ffffff" stroke="#000000" points="0,-56.5 0,-75.5 89,-75.5 89,-56.5 0,-56.5"/>
<text text-anchor="middle" x="44.5" y="-63.5" font-family="Helvetica,sans-Serif" font-size="10.00" fill="#000000">dateandtime.hpp</text>
</a>
</g>
</g>
<!-- Node9&#45;&gt;Node10 -->
<g id="edge3" class="edge">
<title>Node9&#45;&gt;Node10</title>
<path fill="none" stroke="#191970" d="M162.5386,-108.9231C134.3866,-98.686 95.8945,-84.6889 70.6281,-75.5011"/>
<polygon fill="#191970" stroke="#191970" points="161.4324,-112.245 172.0265,-112.3733 163.8246,-105.6665 161.4324,-112.245"/>
</g>
<!-- Node11 -->
<g id="node5" class="node">
<title>Node11</title>
<g id="a_node5"><a xlink:href="calendar_8hpp.html" target="_top" xlink:title="calendar.hpp">
<polygon fill="#ffffff" stroke="#000000" points="107,-56.5 107,-75.5 178,-75.5 178,-56.5 107,-56.5"/>
<text text-anchor="middle" x="142.5" y="-63.5" font-family="Helvetica,sans-Serif" font-size="10.00" fill="#000000">calendar.hpp</text>
</a>
</g>
</g>
<!-- Node9&#45;&gt;Node11 -->
<g id="edge4" class="edge">
<title>Node9&#45;&gt;Node11</title>
<path fill="none" stroke="#191970" d="M181.5751,-105.0751C171.9402,-95.4402 160.2196,-83.7196 152.1427,-75.6427"/>
<polygon fill="#191970" stroke="#191970" points="179.1996,-107.6493 188.7455,-112.2455 184.1493,-102.6996 179.1996,-107.6493"/>
</g>
<!-- Node21 -->
<g id="node6" class="node">
<title>Node21</title>
<g id="a_node6"><a xlink:href="ticksconverter_8hpp.html" target="_top" xlink:title="ticksconverter.hpp">
<polygon fill="#ffffff" stroke="#000000" points="196.5,-56.5 196.5,-75.5 292.5,-75.5 292.5,-56.5 196.5,-56.5"/>
<text text-anchor="middle" x="244.5" y="-63.5" font-family="Helvetica,sans-Serif" font-size="10.00" fill="#000000">ticksconverter.hpp</text>
</a>
</g>
</g>
<!-- Node9&#45;&gt;Node21 -->
<g id="edge5" class="edge">
<title>Node9&#45;&gt;Node21</title>
<path fill="none" stroke="#191970" d="M212.8747,-104.5004C220.6971,-94.9775 230.076,-83.5596 236.5792,-75.6427"/>
<polygon fill="#191970" stroke="#191970" points="210.1555,-102.2967 206.5126,-112.2455 215.5646,-106.7399 210.1555,-102.2967"/>
</g>
<!-- Node22&#45;&gt;Node11 -->
<g id="edge8" class="edge">
<title>Node22&#45;&gt;Node11</title>
<path fill="none" stroke="#191970" d="M255.5847,-108.7888C228.5617,-98.5639 191.786,-84.6488 167.6101,-75.5011"/>
<polygon fill="#191970" stroke="#191970" points="254.4664,-112.1078 265.0579,-112.3733 256.9437,-105.5608 254.4664,-112.1078"/>
</g>
<!-- Node22&#45;&gt;Node21 -->
<g id="edge9" class="edge">
<title>Node22&#45;&gt;Node21</title>
<path fill="none" stroke="#191970" d="M276.1253,-104.5004C268.3029,-94.9775 258.924,-83.5596 252.4208,-75.6427"/>
<polygon fill="#191970" stroke="#191970" points="273.4354,-106.7399 282.4874,-112.2455 278.8445,-102.2967 273.4354,-106.7399"/>
</g>
<!-- Node23 -->
<g id="node8" class="node">
<title>Node23</title>
<g id="a_node8"><a xlink:href="scopeinfo_8hpp.html" target="_top" xlink:title="scopeinfo.hpp">
<polygon fill="#ffffff" stroke="#000000" points="311,-56.5 311,-75.5 388,-75.5 388,-56.5 311,-56.5"/>
<text text-anchor="middle" x="349.5" y="-63.5" font-family="Helvetica,sans-Serif" font-size="10.00" fill="#000000">scopeinfo.hpp</text>
</a>
</g>
</g>
<!-- Node22&#45;&gt;Node23 -->
<g id="edge10" class="edge">
<title>Node22&#45;&gt;Node23</title>
<path fill="none" stroke="#191970" d="M308.0307,-105.3607C318.2377,-95.6727 330.7469,-83.7995 339.3408,-75.6427"/>
<polygon fill="#191970" stroke="#191970" points="305.6206,-102.8227 300.777,-112.2455 310.4396,-107.8998 305.6206,-102.8227"/>
</g>
<!-- Node32 -->
<g id="node9" class="node">
<title>Node32</title>
<g id="a_node9"><a xlink:href="expression_8hpp_source.html" target="_top" xlink:title="expression.hpp">
<polygon fill="#ffffff" stroke="#000000" points="406,-56.5 406,-75.5 489,-75.5 489,-56.5 406,-56.5"/>
<text text-anchor="middle" x="447.5" y="-63.5" font-family="Helvetica,sans-Serif" font-size="10.00" fill="#000000">expression.hpp</text>
</a>
</g>
</g>
<!-- Node22&#45;&gt;Node32 -->
<g id="edge11" class="edge">
<title>Node22&#45;&gt;Node32</title>
<path fill="none" stroke="#191970" d="M327.1619,-108.9231C355.8624,-98.686 395.1044,-84.6889 420.8629,-75.5011"/>
<polygon fill="#191970" stroke="#191970" points="325.7322,-105.7171 317.4893,-112.3733 328.0839,-112.3102 325.7322,-105.7171"/>
</g>
<!-- Node41 -->
<g id="node10" class="node">
<title>Node41</title>
<g id="a_node10"><a xlink:href="stopwatch_8hpp.html" target="_top" xlink:title="stopwatch.hpp">
<polygon fill="#ffffff" stroke="#000000" points="507.5,-56.5 507.5,-75.5 587.5,-75.5 587.5,-56.5 507.5,-56.5"/>
<text text-anchor="middle" x="547.5" y="-63.5" font-family="Helvetica,sans-Serif" font-size="10.00" fill="#000000">stopwatch.hpp</text>
</a>
</g>
</g>
<!-- Node22&#45;&gt;Node41 -->
<g id="edge12" class="edge">
<title>Node22&#45;&gt;Node41</title>
<path fill="none" stroke="#191970" d="M328.9602,-113.6196C376.8542,-103.1835 458.2959,-85.4375 507.0831,-74.8068"/>
<polygon fill="#191970" stroke="#191970" points="328.011,-110.2442 318.9854,-115.7931 329.5014,-117.0837 328.011,-110.2442"/>
</g>
<!-- Node12 -->
<g id="node7" class="node">
<title>Node12</title>
<g id="a_node7"><a xlink:href="textlogger_8hpp.html" target="_top" xlink:title="textlogger.hpp">
<polygon fill="#ffffff" stroke="#ff0000" points="155,-.5 155,-19.5 232,-19.5 232,-.5 155,-.5"/>
<text text-anchor="middle" x="193.5" y="-7.5" font-family="Helvetica,sans-Serif" font-size="10.00" fill="#000000">textlogger.hpp</text>
</a>
</g>
</g>
<!-- Node11&#45;&gt;Node12 -->
<g id="edge6" class="edge">
<title>Node11&#45;&gt;Node12</title>
<path fill="none" stroke="#191970" d="M158.1749,-48.7884C166.8994,-39.2085 177.4354,-27.6396 184.7183,-19.6427"/>
<polygon fill="#191970" stroke="#191970" points="155.5291,-46.4954 151.3835,-56.2455 160.7046,-51.2088 155.5291,-46.4954"/>
</g>
<!-- Node21&#45;&gt;Node12 -->
<g id="edge7" class="edge">
<title>Node21&#45;&gt;Node12</title>
<path fill="none" stroke="#191970" d="M228.8251,-48.7884C220.1006,-39.2085 209.5646,-27.6396 202.2817,-19.6427"/>
<polygon fill="#191970" stroke="#191970" points="226.2954,-51.2088 235.6165,-56.2455 231.4709,-46.4954 226.2954,-51.2088"/>
</g>
<!-- Node24 -->
<g id="node11" class="node">
<title>Node24</title>
<g id="a_node11"><a xlink:href="lox_8hpp.html" target="_top" xlink:title="lox.hpp">
<polygon fill="#ffffff" stroke="#ff0000" points="325.5,-.5 325.5,-19.5 373.5,-19.5 373.5,-.5 325.5,-.5"/>
<text text-anchor="middle" x="349.5" y="-7.5" font-family="Helvetica,sans-Serif" font-size="10.00" fill="#000000">lox.hpp</text>
</a>
</g>
</g>
<!-- Node23&#45;&gt;Node24 -->
<g id="edge13" class="edge">
<title>Node23&#45;&gt;Node24</title>
<path fill="none" stroke="#191970" d="M349.5,-46.1575C349.5,-37.155 349.5,-26.9199 349.5,-19.6427"/>
<polygon fill="#191970" stroke="#191970" points="346.0001,-46.2455 349.5,-56.2455 353.0001,-46.2456 346.0001,-46.2455"/>
</g>
<!-- Node33 -->
<g id="node12" class="node">
<title>Node33</title>
<g id="a_node12"><a xlink:href="compiler_8hpp_source.html" target="_top" xlink:title="compiler.hpp">
<polygon fill="#ffffff" stroke="#ff0000" points="412,-.5 412,-19.5 483,-19.5 483,-.5 412,-.5"/>
<text text-anchor="middle" x="447.5" y="-7.5" font-family="Helvetica,sans-Serif" font-size="10.00" fill="#000000">compiler.hpp</text>
</a>
</g>
</g>
<!-- Node32&#45;&gt;Node33 -->
<g id="edge14" class="edge">
<title>Node32&#45;&gt;Node33</title>
<path fill="none" stroke="#191970" d="M447.5,-46.1575C447.5,-37.155 447.5,-26.9199 447.5,-19.6427"/>
<polygon fill="#191970" stroke="#191970" points="444.0001,-46.2455 447.5,-56.2455 451.0001,-46.2456 444.0001,-46.2455"/>
</g>
</g>
</svg>
