<?xml version="1.0" encoding="UTF-8" standalone="no"?>
<!DOCTYPE svg PUBLIC "-//W3C//DTD SVG 1.1//EN"
 "http://www.w3.org/Graphics/SVG/1.1/DTD/svg11.dtd">
<!-- Generated by graphviz version 2.40.1 (20161225.0304)
 -->
<!-- Title: timepointbase.hpp Pages: 1 -->
<svg width="288pt" height="196pt"
 viewBox="0.00 0.00 287.50 196.00" xmlns="http://www.w3.org/2000/svg" xmlns:xlink="http://www.w3.org/1999/xlink">
<g id="graph0" class="graph" transform="scale(1 1) rotate(0) translate(4 192)">
<title>timepointbase.hpp</title>
<polygon fill="#ffffff" stroke="transparent" points="-4,4 -4,-192 283.5,-192 283.5,4 -4,4"/>
<!-- Node0 -->
<g id="node1" class="node">
<title>Node0</title>
<polygon fill="#bfbfbf" stroke="#000000" points="163.5,-168.5 163.5,-187.5 259.5,-187.5 259.5,-168.5 163.5,-168.5"/>
<text text-anchor="middle" x="211.5" y="-175.5" font-family="Helvetica,sans-Serif" font-size="10.00" fill="#000000">timepointbase.hpp</text>
</g>
<!-- Node1 -->
<g id="node2" class="node">
<title>Node1</title>
<g id="a_node2"><a xlink:href="timelib_8hpp.html" target="_top" xlink:title="alib/time/timelib.hpp">
<polygon fill="#ffffff" stroke="#000000" points="113.5,-112.5 113.5,-131.5 217.5,-131.5 217.5,-112.5 113.5,-112.5"/>
<text text-anchor="middle" x="165.5" y="-119.5" font-family="Helvetica,sans-Serif" font-size="10.00" fill="#000000">alib/time/timelib.hpp</text>
</a>
</g>
</g>
<!-- Node0&#45;&gt;Node1 -->
<g id="edge1" class="edge">
<title>Node0&#45;&gt;Node1</title>
<path fill="none" stroke="#191970" d="M203.4874,-168.2455C197.0232,-160.3761 187.7615,-149.101 180.0017,-139.6542"/>
<polygon fill="#191970" stroke="#191970" points="182.4727,-137.1484 173.4208,-131.6427 177.0636,-141.5916 182.4727,-137.1484"/>
</g>
<!-- Node7 -->
<g id="node3" class="node">
<title>Node7</title>
<polygon fill="#ffffff" stroke="#bfbfbf" points="235.5,-112.5 235.5,-131.5 279.5,-131.5 279.5,-112.5 235.5,-112.5"/>
<text text-anchor="middle" x="257.5" y="-119.5" font-family="Helvetica,sans-Serif" font-size="10.00" fill="#000000">cmath</text>
</g>
<!-- Node0&#45;&gt;Node7 -->
<g id="edge2" class="edge">
<title>Node0&#45;&gt;Node7</title>
<path fill="none" stroke="#191970" d="M219.5126,-168.2455C225.9768,-160.3761 235.2385,-149.101 242.9983,-139.6542"/>
<polygon fill="#191970" stroke="#191970" points="245.9364,-141.5916 249.5792,-131.6427 240.5273,-137.1484 245.9364,-141.5916"/>
</g>
<!-- Node2 -->
<g id="node4" class="node">
<title>Node2</title>
<g id="a_node4"><a xlink:href="substring_8hpp.html" target="_top" xlink:title="alib/strings/substring.hpp">
<polygon fill="#ffffff" stroke="#000000" points="2,-56.5 2,-75.5 127,-75.5 127,-56.5 2,-56.5"/>
<text text-anchor="middle" x="64.5" y="-63.5" font-family="Helvetica,sans-Serif" font-size="10.00" fill="#000000">alib/strings/substring.hpp</text>
</a>
</g>
</g>
<!-- Node1&#45;&gt;Node2 -->
<g id="edge3" class="edge">
<title>Node1&#45;&gt;Node2</title>
<path fill="none" stroke="#191970" d="M147.9071,-112.2455C132.121,-103.4928 108.7361,-90.527 90.7413,-80.5496"/>
<polygon fill="#191970" stroke="#191970" points="92.3341,-77.4308 81.8913,-75.6427 88.9397,-83.5528 92.3341,-77.4308"/>
</g>
<!-- Node5 -->
<g id="node5" class="node">
<title>Node5</title>
<polygon fill="#ffffff" stroke="#bfbfbf" points="145,-56.5 145,-75.5 186,-75.5 186,-56.5 145,-56.5"/>
<text text-anchor="middle" x="165.5" y="-63.5" font-family="Helvetica,sans-Serif" font-size="10.00" fill="#000000">ctime</text>
</g>
<!-- Node1&#45;&gt;Node5 -->
<g id="edge4" class="edge">
<title>Node1&#45;&gt;Node5</title>
<path fill="none" stroke="#191970" d="M165.5,-112.2455C165.5,-104.9382 165.5,-94.6944 165.5,-85.7046"/>
<polygon fill="#191970" stroke="#191970" points="169.0001,-85.6426 165.5,-75.6427 162.0001,-85.6427 169.0001,-85.6426"/>
</g>
<!-- Node6 -->
<g id="node6" class="node">
<title>Node6</title>
<polygon fill="#ffffff" stroke="#bfbfbf" points="204.5,-56.5 204.5,-75.5 250.5,-75.5 250.5,-56.5 204.5,-56.5"/>
<text text-anchor="middle" x="227.5" y="-63.5" font-family="Helvetica,sans-Serif" font-size="10.00" fill="#000000">chrono</text>
</g>
<!-- Node1&#45;&gt;Node6 -->
<g id="edge5" class="edge">
<title>Node1&#45;&gt;Node6</title>
<path fill="none" stroke="#191970" d="M176.2996,-112.2455C185.3678,-104.0549 198.5206,-92.1749 209.2245,-82.5069"/>
<polygon fill="#191970" stroke="#191970" points="211.7491,-84.9429 216.8242,-75.6427 207.0571,-79.7482 211.7491,-84.9429"/>
</g>
<!-- Node3 -->
<g id="node7" class="node">
<title>Node3</title>
<g id="a_node7"><a xlink:href="enumbitwise_8hpp.html" target="_top" xlink:title="alib/lang/enumbitwise.hpp">
<polygon fill="#ffffff" stroke="#ff0000" points="0,-.5 0,-19.5 129,-19.5 129,-.5 0,-.5"/>
<text text-anchor="middle" x="64.5" y="-7.5" font-family="Helvetica,sans-Serif" font-size="10.00" fill="#000000">alib/lang/enumbitwise.hpp</text>
</a>
</g>
</g>
<!-- Node2&#45;&gt;Node3 -->
<g id="edge6" class="edge">
<title>Node2&#45;&gt;Node3</title>
<path fill="none" stroke="#191970" d="M64.5,-56.2455C64.5,-48.9382 64.5,-38.6944 64.5,-29.7046"/>
<polygon fill="#191970" stroke="#191970" points="68.0001,-29.6426 64.5,-19.6427 61.0001,-29.6427 68.0001,-29.6426"/>
</g>
</g>
</svg>
