<?xml version="1.0" encoding="UTF-8" standalone="no"?>
<!DOCTYPE svg PUBLIC "-//W3C//DTD SVG 1.1//EN"
 "http://www.w3.org/Graphics/SVG/1.1/DTD/svg11.dtd">
<!-- Generated by graphviz version 2.40.1 (20161225.0304)
 -->
<!-- Title: timelib.hpp Pages: 1 -->
<svg width="259pt" height="196pt"
 viewBox="0.00 0.00 258.50 196.00" xmlns="http://www.w3.org/2000/svg" xmlns:xlink="http://www.w3.org/1999/xlink">
<g id="graph0" class="graph" transform="scale(1 1) rotate(0) translate(4 192)">
<title>timelib.hpp</title>
<polygon fill="#ffffff" stroke="transparent" points="-4,4 -4,-192 254.5,-192 254.5,4 -4,4"/>
<!-- Node0 -->
<g id="node1" class="node">
<title>Node0</title>
<polygon fill="#bfbfbf" stroke="#000000" points="133.5,-168.5 133.5,-187.5 197.5,-187.5 197.5,-168.5 133.5,-168.5"/>
<text text-anchor="middle" x="165.5" y="-175.5" font-family="Helvetica,sans-Serif" font-size="10.00" fill="#000000">timelib.hpp</text>
</g>
<!-- Node1 -->
<g id="node2" class="node">
<title>Node1</title>
<g id="a_node2"><a xlink:href="substring_8hpp.html" target="_top" xlink:title="alib/strings/substring.hpp">
<polygon fill="#ffffff" stroke="#000000" points="2,-112.5 2,-131.5 127,-131.5 127,-112.5 2,-112.5"/>
<text text-anchor="middle" x="64.5" y="-119.5" font-family="Helvetica,sans-Serif" font-size="10.00" fill="#000000">alib/strings/substring.hpp</text>
</a>
</g>
</g>
<!-- Node0&#45;&gt;Node1 -->
<g id="edge1" class="edge">
<title>Node0&#45;&gt;Node1</title>
<path fill="none" stroke="#191970" d="M147.9071,-168.2455C132.121,-159.4928 108.7361,-146.527 90.7413,-136.5496"/>
<polygon fill="#191970" stroke="#191970" points="92.3341,-133.4308 81.8913,-131.6427 88.9397,-139.5528 92.3341,-133.4308"/>
</g>
<!-- Node4 -->
<g id="node3" class="node">
<title>Node4</title>
<polygon fill="#ffffff" stroke="#bfbfbf" points="145,-112.5 145,-131.5 186,-131.5 186,-112.5 145,-112.5"/>
<text text-anchor="middle" x="165.5" y="-119.5" font-family="Helvetica,sans-Serif" font-size="10.00" fill="#000000">ctime</text>
</g>
<!-- Node0&#45;&gt;Node4 -->
<g id="edge2" class="edge">
<title>Node0&#45;&gt;Node4</title>
<path fill="none" stroke="#191970" d="M165.5,-168.2455C165.5,-160.9382 165.5,-150.6944 165.5,-141.7046"/>
<polygon fill="#191970" stroke="#191970" points="169.0001,-141.6426 165.5,-131.6427 162.0001,-141.6427 169.0001,-141.6426"/>
</g>
<!-- Node5 -->
<g id="node4" class="node">
<title>Node5</title>
<polygon fill="#ffffff" stroke="#bfbfbf" points="204.5,-112.5 204.5,-131.5 250.5,-131.5 250.5,-112.5 204.5,-112.5"/>
<text text-anchor="middle" x="227.5" y="-119.5" font-family="Helvetica,sans-Serif" font-size="10.00" fill="#000000">chrono</text>
</g>
<!-- Node0&#45;&gt;Node5 -->
<g id="edge3" class="edge">
<title>Node0&#45;&gt;Node5</title>
<path fill="none" stroke="#191970" d="M176.2996,-168.2455C185.3678,-160.0549 198.5206,-148.1749 209.2245,-138.5069"/>
<polygon fill="#191970" stroke="#191970" points="211.7491,-140.9429 216.8242,-131.6427 207.0571,-135.7482 211.7491,-140.9429"/>
</g>
<!-- Node2 -->
<g id="node5" class="node">
<title>Node2</title>
<g id="a_node5"><a xlink:href="enumbitwise_8hpp.html" target="_top" xlink:title="alib/lang/enumbitwise.hpp">
<polygon fill="#ffffff" stroke="#000000" points="0,-56.5 0,-75.5 129,-75.5 129,-56.5 0,-56.5"/>
<text text-anchor="middle" x="64.5" y="-63.5" font-family="Helvetica,sans-Serif" font-size="10.00" fill="#000000">alib/lang/enumbitwise.hpp</text>
</a>
</g>
</g>
<!-- Node1&#45;&gt;Node2 -->
<g id="edge4" class="edge">
<title>Node1&#45;&gt;Node2</title>
<path fill="none" stroke="#191970" d="M64.5,-112.2455C64.5,-104.9382 64.5,-94.6944 64.5,-85.7046"/>
<polygon fill="#191970" stroke="#191970" points="68.0001,-85.6426 64.5,-75.6427 61.0001,-85.6427 68.0001,-85.6426"/>
</g>
<!-- Node3 -->
<g id="node6" class="node">
<title>Node3</title>
<g id="a_node6"><a xlink:href="enumarithmetical_8hpp.html" target="_top" xlink:title="enumarithmetical.hpp">
<polygon fill="#ffffff" stroke="#000000" points="9.5,-.5 9.5,-19.5 119.5,-19.5 119.5,-.5 9.5,-.5"/>
<text text-anchor="middle" x="64.5" y="-7.5" font-family="Helvetica,sans-Serif" font-size="10.00" fill="#000000">enumarithmetical.hpp</text>
</a>
</g>
</g>
<!-- Node2&#45;&gt;Node3 -->
<g id="edge5" class="edge">
<title>Node2&#45;&gt;Node3</title>
<path fill="none" stroke="#191970" d="M64.5,-56.2455C64.5,-48.9382 64.5,-38.6944 64.5,-29.7046"/>
<polygon fill="#191970" stroke="#191970" points="68.0001,-29.6426 64.5,-19.6427 61.0001,-29.6427 68.0001,-29.6426"/>
</g>
</g>
</svg>
