<?xml version="1.0" encoding="UTF-8" standalone="no"?>
<!DOCTYPE svg PUBLIC "-//W3C//DTD SVG 1.1//EN"
 "http://www.w3.org/Graphics/SVG/1.1/DTD/svg11.dtd">
<!-- Generated by graphviz version 2.40.1 (20161225.0304)
 -->
<!-- Title: VirtualMachine::Command::OperationParam Pages: 1 -->
<svg width="2230pt" height="685pt"
 viewBox="0.00 0.00 2229.50 685.00" xmlns="http://www.w3.org/2000/svg" xmlns:xlink="http://www.w3.org/1999/xlink">
<g id="graph0" class="graph" transform="scale(1 1) rotate(0) translate(4 681)">
<title>VirtualMachine::Command::OperationParam</title>
<polygon fill="#ffffff" stroke="transparent" points="-4,4 -4,-681 2225.5,-681 2225.5,4 -4,4"/>
<!-- Node1 -->
<g id="node1" class="node">
<title>Node1</title>
<polygon fill="#bfbfbf" stroke="#000000" points="1525,-222.5 1525,-241.5 1734,-241.5 1734,-222.5 1525,-222.5"/>
<text text-anchor="middle" x="1629.5" y="-229.5" font-family="Helvetica,sans-Serif" font-size="10.00" fill="#000000">VirtualMachine::Command::OperationParam</text>
</g>
<!-- Node3 -->
<g id="node2" class="node">
<title>Node3</title>
<g id="a_node2"><a xlink:title="STL class. ">
<polygon fill="#ffffff" stroke="#bfbfbf" points="924,-120.5 924,-139.5 1095,-139.5 1095,-120.5 924,-120.5"/>
<text text-anchor="middle" x="1009.5" y="-127.5" font-family="Helvetica,sans-Serif" font-size="10.00" fill="#000000">vector&lt;VirtualMachine::Command&gt;</text>
</a>
</g>
</g>
<!-- Node2 -->
<g id="node16" class="node">
<title>Node2</title>
<g id="a_node16"><a xlink:href="classaworx_1_1lib_1_1expressions_1_1detail_1_1Program.html" target="_top" xlink:title="Program">
<polygon fill="#ffffff" stroke="#000000" points="1364,-275.5 1364,-294.5 1417,-294.5 1417,-275.5 1364,-275.5"/>
<text text-anchor="middle" x="1390.5" y="-282.5" font-family="Helvetica,sans-Serif" font-size="10.00" fill="#000000">Program</text>
</a>
</g>
</g>
<!-- Node3&#45;&gt;Node2 -->
<g id="edge3" class="edge">
<title>Node3&#45;&gt;Node2</title>
<path fill="none" stroke="#006400" d="M1092.5748,-145.6176C1093.4093,-146.3796 1094.2184,-147.1733 1095,-148 1131.4455,-186.5505 1073.9629,-230.0761 1113,-266 1148.9777,-299.1085 1301.6709,-291.7267 1363.9206,-287.1954"/>
<polygon fill="#006400" stroke="#006400" points="1094.5597,-142.7321 1084.4432,-139.5846 1090.3888,-148.3539 1094.5597,-142.7321"/>
</g>
<!-- Node6 -->
<g id="node3" class="node">
<title>Node6</title>
<g id="a_node3"><a xlink:href="classaworx_1_1lib_1_1util_1_1PluginContainer.html" target="_top" xlink:title="PluginContainer\&lt;CompilerPlugin, CompilePriorities\&gt;">
<polygon fill="#ffffff" stroke="#ff0000" points="633,-503.5 633,-522.5 877,-522.5 877,-503.5 633,-503.5"/>
<text text-anchor="middle" x="755" y="-510.5" font-family="Helvetica,sans-Serif" font-size="10.00" fill="#000000">PluginContainer&lt;CompilerPlugin, CompilePriorities&gt;</text>
</a>
</g>
</g>
<!-- Node5 -->
<g id="node19" class="node">
<title>Node5</title>
<g id="a_node19"><a xlink:href="classaworx_1_1lib_1_1expressions_1_1Compiler.html" target="_top" xlink:title="Compiler">
<polygon fill="#ffffff" stroke="#000000" points="1144,-361.5 1144,-380.5 1200,-380.5 1200,-361.5 1144,-361.5"/>
<text text-anchor="middle" x="1172" y="-368.5" font-family="Helvetica,sans-Serif" font-size="10.00" fill="#000000">Compiler</text>
</a>
</g>
</g>
<!-- Node6&#45;&gt;Node5 -->
<g id="edge7" class="edge">
<title>Node6&#45;&gt;Node5</title>
<path fill="none" stroke="#191970" d="M816.9151,-523.9426C888.9663,-533.3603 1009.0237,-538.4981 1095,-488 1137.5641,-463 1161.0417,-404.0789 1168.9386,-380.7534"/>
<polygon fill="#191970" stroke="#191970" points="817.0267,-520.425 806.6427,-522.5281 816.0718,-527.3596 817.0267,-520.425"/>
</g>
<!-- Node23 -->
<g id="node4" class="node">
<title>Node23</title>
<polygon fill="#ffffff" stroke="#bfbfbf" points="291,-245.5 291,-264.5 401,-264.5 401,-245.5 291,-245.5"/>
<text text-anchor="middle" x="346" y="-252.5" font-family="Helvetica,sans-Serif" font-size="10.00" fill="#000000">vector&lt;AStringBase&gt;</text>
</g>
<!-- Node23&#45;&gt;Node5 -->
<g id="edge12" class="edge">
<title>Node23&#45;&gt;Node5</title>
<path fill="none" stroke="#9a32cd" stroke-dasharray="5,2" d="M411.4931,-252.8445C516.2166,-250.1187 727.7278,-247.5713 906,-264 990.836,-271.8181 1019.0417,-257.4176 1095,-296 1126.2795,-311.8882 1153.1439,-344.8886 1165.2086,-361.2991"/>
<polygon fill="#9a32cd" stroke="#9a32cd" points="411.2938,-249.3485 401.3917,-253.1167 411.4824,-256.3459 411.2938,-249.3485"/>
<text text-anchor="middle" x="755" y="-278" font-family="Helvetica,sans-Serif" font-size="10.00" fill="#000000"> CfgNormalizationDisallowed</text>
<text text-anchor="middle" x="755" y="-267" font-family="Helvetica,sans-Serif" font-size="10.00" fill="#000000">DefaultCategories</text>
</g>
<!-- Node25 -->
<g id="node23" class="node">
<title>Node25</title>
<g id="a_node23"><a xlink:href="classaworx_1_1lib_1_1config_1_1Variable.html" target="_top" xlink:title="Variable">
<polygon fill="#ffffff" stroke="#ff0000" points="729.5,-295.5 729.5,-314.5 780.5,-314.5 780.5,-295.5 729.5,-295.5"/>
<text text-anchor="middle" x="755" y="-302.5" font-family="Helvetica,sans-Serif" font-size="10.00" fill="#000000">Variable</text>
</a>
</g>
</g>
<!-- Node23&#45;&gt;Node25 -->
<g id="edge13" class="edge">
<title>Node23&#45;&gt;Node25</title>
<path fill="none" stroke="#9a32cd" stroke-dasharray="5,2" d="M411.2725,-264.9771C416.2533,-265.6815 421.2055,-266.3637 426,-267 538.8561,-281.9774 673.9476,-296.5184 729.3679,-302.3386"/>
<polygon fill="#9a32cd" stroke="#9a32cd" points="411.4463,-261.4662 401.0501,-263.508 410.4505,-268.395 411.4463,-261.4662"/>
<text text-anchor="middle" x="506" y="-288" font-family="Helvetica,sans-Serif" font-size="10.00" fill="#000000"> values</text>
</g>
<!-- Node51 -->
<g id="node24" class="node">
<title>Node51</title>
<g id="a_node24"><a xlink:href="structaworx_1_1lib_1_1expressions_1_1detail_1_1Program_1_1CompileStorage.html" target="_top" xlink:title="CompileStorage">
<polygon fill="#ffffff" stroke="#000000" points="1129,-76.5 1129,-95.5 1215,-95.5 1215,-76.5 1129,-76.5"/>
<text text-anchor="middle" x="1172" y="-83.5" font-family="Helvetica,sans-Serif" font-size="10.00" fill="#000000">CompileStorage</text>
</a>
</g>
</g>
<!-- Node23&#45;&gt;Node51 -->
<g id="edge14" class="edge">
<title>Node23&#45;&gt;Node51</title>
<path fill="none" stroke="#9a32cd" stroke-dasharray="5,2" d="M410.9812,-246.771C587.3042,-224.3131 1063.6775,-162.7315 1095,-149 1123.7906,-136.3784 1150.5628,-109.8609 1163.6349,-95.5851"/>
<polygon fill="#9a32cd" stroke="#9a32cd" points="410.5353,-243.2994 401.0572,-248.034 411.4191,-250.2434 410.5353,-243.2994"/>
<text text-anchor="middle" x="755" y="-224" font-family="Helvetica,sans-Serif" font-size="10.00" fill="#000000"> functionsWithNonMatchingArguments</text>
</g>
<!-- Node31 -->
<g id="node5" class="node">
<title>Node31</title>
<polygon fill="#ffffff" stroke="#bfbfbf" points="6.5,-222.5 6.5,-241.5 110.5,-241.5 110.5,-222.5 6.5,-222.5"/>
<text text-anchor="middle" x="58.5" y="-229.5" font-family="Helvetica,sans-Serif" font-size="10.00" fill="#000000">vector&lt;StringBase&gt;</text>
</g>
<!-- Node31&#45;&gt;Node5 -->
<g id="edge18" class="edge">
<title>Node31&#45;&gt;Node5</title>
<path fill="none" stroke="#9a32cd" stroke-dasharray="5,2" d="M105.7662,-220.0437C235.3491,-189.1618 606.5332,-113.4488 906,-177 995.9202,-196.0824 1026.5922,-199.5984 1095,-261 1106.8564,-271.6421 1104.2187,-278.7065 1113,-292 1129.9831,-317.7097 1152.2524,-346.3215 1163.978,-361.0439"/>
<polygon fill="#9a32cd" stroke="#9a32cd" points="104.6784,-216.7056 95.7762,-222.4504 106.3179,-223.5109 104.6784,-216.7056"/>
<text text-anchor="middle" x="506" y="-168" font-family="Helvetica,sans-Serif" font-size="10.00" fill="#000000"> UnaryOperators</text>
</g>
<!-- Node26 -->
<g id="node20" class="node">
<title>Node26</title>
<g id="a_node20"><a xlink:href="classaworx_1_1lib_1_1config_1_1Configuration.html" target="_top" xlink:title="Configuration">
<polygon fill="#ffffff" stroke="#ff0000" points="309,-328.5 309,-347.5 383,-347.5 383,-328.5 309,-328.5"/>
<text text-anchor="middle" x="346" y="-335.5" font-family="Helvetica,sans-Serif" font-size="10.00" fill="#000000">Configuration</text>
</a>
</g>
</g>
<!-- Node31&#45;&gt;Node26 -->
<g id="edge19" class="edge">
<title>Node31&#45;&gt;Node26</title>
<path fill="none" stroke="#9a32cd" stroke-dasharray="5,2" d="M93.8448,-245.0315C152.4906,-266.6539 268.5553,-309.4465 320.1877,-328.4831"/>
<polygon fill="#9a32cd" stroke="#9a32cd" points="94.8601,-241.6756 84.2667,-241.5001 92.4385,-248.2434 94.8601,-241.6756"/>
<text text-anchor="middle" x="200.5" y="-309" font-family="Helvetica,sans-Serif" font-size="10.00" fill="#000000"> TrueValues</text>
</g>
<!-- Node36 -->
<g id="node6" class="node">
<title>Node36</title>
<polygon fill="#ffffff" stroke="#bfbfbf" points="604,-418.5 604,-437.5 906,-437.5 906,-418.5 604,-418.5"/>
<text text-anchor="middle" x="755" y="-425.5" font-family="Helvetica,sans-Serif" font-size="10.00" fill="#000000">vector&lt;tuple&lt;Priorities, AStringBase, AStringBase, StringBase&gt;&gt;</text>
</g>
<!-- Node36&#45;&gt;Node5 -->
<g id="edge22" class="edge">
<title>Node36&#45;&gt;Node5</title>
<path fill="none" stroke="#9a32cd" stroke-dasharray="5,2" d="M916.5091,-421.0529C973.3612,-416.5621 1037.421,-409.1692 1095,-397 1113.3602,-393.1196 1133.4262,-386.2535 1148.4701,-380.5513"/>
<polygon fill="#9a32cd" stroke="#9a32cd" points="916.0531,-417.5775 906.3495,-421.8309 916.5876,-424.5571 916.0531,-417.5775"/>
<text text-anchor="middle" x="1009.5" y="-423" font-family="Helvetica,sans-Serif" font-size="10.00" fill="#000000"> VariablesLoaded</text>
</g>
<!-- Node43 -->
<g id="node7" class="node">
<title>Node43</title>
<polygon fill="#ffffff" stroke="#bfbfbf" points="1843,-351.5 1843,-370.5 2034,-370.5 2034,-351.5 1843,-351.5"/>
<text text-anchor="middle" x="1938.5" y="-358.5" font-family="Helvetica,sans-Serif" font-size="10.00" fill="#000000">vector&lt;expressions::ScopeResource *&gt;</text>
</g>
<!-- Node39 -->
<g id="node25" class="node">
<title>Node39</title>
<g id="a_node25"><a xlink:href="structaworx_1_1lib_1_1expressions_1_1Scope.html" target="_top" xlink:title="Scope">
<polygon fill="#ffffff" stroke="#000000" points="2177,-275.5 2177,-294.5 2221,-294.5 2221,-275.5 2177,-275.5"/>
<text text-anchor="middle" x="2199" y="-282.5" font-family="Helvetica,sans-Serif" font-size="10.00" fill="#000000">Scope</text>
</a>
</g>
</g>
<!-- Node43&#45;&gt;Node39 -->
<g id="edge29" class="edge">
<title>Node43&#45;&gt;Node39</title>
<path fill="none" stroke="#9a32cd" stroke-dasharray="5,2" d="M2044.266,-361.0492C2082.2668,-357.31 2124.2804,-348.6045 2159,-330 2174.2942,-321.8046 2186.5726,-305.3164 2193.3155,-294.7361"/>
<polygon fill="#9a32cd" stroke="#9a32cd" points="2043.8376,-357.5733 2034.1828,-361.9362 2044.451,-364.5464 2043.8376,-357.5733"/>
<text text-anchor="middle" x="2105.5" y="-362" font-family="Helvetica,sans-Serif" font-size="10.00" fill="#000000"> Resources</text>
</g>
<!-- Node45 -->
<g id="node8" class="node">
<title>Node45</title>
<polygon fill="#ffffff" stroke="#bfbfbf" points="1853.5,-313.5 1853.5,-332.5 2023.5,-332.5 2023.5,-313.5 1853.5,-313.5"/>
<text text-anchor="middle" x="1938.5" y="-320.5" font-family="Helvetica,sans-Serif" font-size="10.00" fill="#000000">vector&lt;expressions::Expression *&gt;</text>
</g>
<!-- Node45&#45;&gt;Node39 -->
<g id="edge30" class="edge">
<title>Node45&#45;&gt;Node39</title>
<path fill="none" stroke="#9a32cd" stroke-dasharray="5,2" d="M2033.8591,-317.4004C2072.9726,-313.8701 2118.4898,-308.1672 2159,-299 2164.8844,-297.6684 2171.1031,-295.7535 2176.8382,-293.7655"/>
<polygon fill="#9a32cd" stroke="#9a32cd" points="2033.1951,-313.9448 2023.535,-318.2958 2033.8,-320.9186 2033.1951,-313.9448"/>
<text text-anchor="middle" x="2105.5" y="-318" font-family="Helvetica,sans-Serif" font-size="10.00" fill="#000000"> nestedExpressionStack</text>
</g>
<!-- Node46 -->
<g id="node9" class="node">
<title>Node46</title>
<polygon fill="#ffffff" stroke="#bfbfbf" points="1752,-203.5 1752,-222.5 1825,-222.5 1825,-203.5 1752,-203.5"/>
<text text-anchor="middle" x="1788.5" y="-210.5" font-family="Helvetica,sans-Serif" font-size="10.00" fill="#000000">vector&lt;Box&gt;</text>
</g>
<!-- Node46&#45;&gt;Node39 -->
<g id="edge31" class="edge">
<title>Node46&#45;&gt;Node39</title>
<path fill="none" stroke="#9a32cd" stroke-dasharray="5,2" d="M1835.0945,-219.2183C1920.3812,-230.7789 2098.396,-255.7845 2159,-271 2164.8516,-272.4691 2171.0585,-274.4335 2176.7927,-276.4251"/>
<polygon fill="#9a32cd" stroke="#9a32cd" points="1835.5462,-215.7476 1825.1675,-217.8767 1834.6086,-222.6846 1835.5462,-215.7476"/>
<text text-anchor="middle" x="1938.5" y="-250" font-family="Helvetica,sans-Serif" font-size="10.00" fill="#000000"> Stack</text>
</g>
<!-- Node50 -->
<g id="node10" class="node">
<title>Node50</title>
<polygon fill="#ffffff" stroke="#bfbfbf" points="1113,-237.5 1113,-256.5 1231,-256.5 1231,-237.5 1113,-237.5"/>
<text text-anchor="middle" x="1172" y="-244.5" font-family="Helvetica,sans-Serif" font-size="10.00" fill="#000000">vector&lt;SPExpression&gt;</text>
</g>
<!-- Node50&#45;&gt;Node2 -->
<g id="edge34" class="edge">
<title>Node50&#45;&gt;Node2</title>
<path fill="none" stroke="#9a32cd" stroke-dasharray="5,2" d="M1241.4367,-245.311C1273.8157,-246.2536 1312.5054,-249.8874 1346,-260 1357.1978,-263.3808 1368.6791,-269.9219 1377.1743,-275.4654"/>
<polygon fill="#9a32cd" stroke="#9a32cd" points="1241.2318,-241.806 1231.1604,-245.0947 1241.0845,-248.8045 1241.2318,-241.806"/>
<text text-anchor="middle" x="1297.5" y="-263" font-family="Helvetica,sans-Serif" font-size="10.00" fill="#000000"> ctNestedExpressions</text>
</g>
<!-- Node52 -->
<g id="node11" class="node">
<title>Node52</title>
<polygon fill="#ffffff" stroke="#bfbfbf" points="665.5,-76.5 665.5,-95.5 844.5,-95.5 844.5,-76.5 665.5,-76.5"/>
<text text-anchor="middle" x="755" y="-83.5" font-family="Helvetica,sans-Serif" font-size="10.00" fill="#000000">stack&lt;tuple&lt;VM::PC, VM::PC, int&gt;&gt;</text>
</g>
<!-- Node52&#45;&gt;Node51 -->
<g id="edge36" class="edge">
<title>Node52&#45;&gt;Node51</title>
<path fill="none" stroke="#9a32cd" stroke-dasharray="5,2" d="M854.9142,-86C942.2404,-86 1064.8168,-86 1128.9837,-86"/>
<polygon fill="#9a32cd" stroke="#9a32cd" points="854.7131,-82.5001 844.7131,-86 854.713,-89.5001 854.7131,-82.5001"/>
<text text-anchor="middle" x="1009.5" y="-89" font-family="Helvetica,sans-Serif" font-size="10.00" fill="#000000"> conditionalStack</text>
</g>
<!-- Node53 -->
<g id="node12" class="node">
<title>Node53</title>
<polygon fill="#ffffff" stroke="#bfbfbf" points="709.5,-.5 709.5,-19.5 800.5,-19.5 800.5,-.5 709.5,-.5"/>
<text text-anchor="middle" x="755" y="-7.5" font-family="Helvetica,sans-Serif" font-size="10.00" fill="#000000">vector&lt;VM::PC&gt;</text>
</g>
<!-- Node53&#45;&gt;Node51 -->
<g id="edge37" class="edge">
<title>Node53&#45;&gt;Node51</title>
<path fill="none" stroke="#9a32cd" stroke-dasharray="5,2" d="M810.6657,-7.7597C879.2349,-6.6431 998.4873,-10.0946 1095,-41 1119.6257,-48.8857 1144.8901,-65.6329 1159.4804,-76.3243"/>
<polygon fill="#9a32cd" stroke="#9a32cd" points="810.4436,-4.2633 800.5163,-7.9646 810.585,-11.2619 810.4436,-4.2633"/>
<text text-anchor="middle" x="1009.5" y="-44" font-family="Helvetica,sans-Serif" font-size="10.00" fill="#000000"> resultStack</text>
</g>
<!-- Node54 -->
<g id="node13" class="node">
<title>Node54</title>
<g id="a_node13"><a xlink:title="STL class. ">
<polygon fill="#ffffff" stroke="#bfbfbf" points="724,-38.5 724,-57.5 786,-57.5 786,-38.5 724,-38.5"/>
<text text-anchor="middle" x="755" y="-45.5" font-family="Helvetica,sans-Serif" font-size="10.00" fill="#000000">vector&lt;T&gt;</text>
</a>
</g>
</g>
<!-- Node54&#45;&gt;Node51 -->
<g id="edge38" class="edge">
<title>Node54&#45;&gt;Node51</title>
<path fill="none" stroke="#9a32cd" stroke-dasharray="5,2" d="M796.1715,-49.1273C860.2817,-51.2555 987.7497,-56.9817 1095,-71 1106.0737,-72.4474 1117.9535,-74.5066 1128.9868,-76.6371"/>
<polygon fill="#9a32cd" stroke="#9a32cd" points="796.1747,-45.6257 786.068,-48.8045 795.9511,-52.6221 796.1747,-45.6257"/>
<text text-anchor="middle" x="1009.5" y="-74" font-family="Helvetica,sans-Serif" font-size="10.00" fill="#000000"> plugins</text>
</g>
<!-- Node21 -->
<g id="node14" class="node">
<title>Node21</title>
<g id="a_node14"><a xlink:href="classaworx_1_1lib_1_1strings_1_1StringBase.html" target="_top" xlink:title="StringBase\&lt;character\&gt;">
<polygon fill="#ffffff" stroke="#000000" points="0,-464.5 0,-483.5 117,-483.5 117,-464.5 0,-464.5"/>
<text text-anchor="middle" x="58.5" y="-471.5" font-family="Helvetica,sans-Serif" font-size="10.00" fill="#000000">StringBase&lt;character&gt;</text>
</a>
</g>
</g>
<!-- Node21&#45;&gt;Node5 -->
<g id="edge8" class="edge">
<title>Node21&#45;&gt;Node5</title>
<path fill="none" stroke="#9a32cd" stroke-dasharray="5,2" d="M113.1527,-485.4201C120.4779,-486.7441 127.908,-487.9823 135,-489 474.7193,-537.7492 562.9207,-541.0698 906,-532 990.0881,-529.777 1024.4572,-567.8199 1095,-522 1146.824,-488.3386 1165.4385,-408.2931 1170.4548,-380.6136"/>
<polygon fill="#9a32cd" stroke="#9a32cd" points="113.7432,-481.9699 103.2705,-483.5741 112.4577,-488.8509 113.7432,-481.9699"/>
<text text-anchor="middle" x="506" y="-548" font-family="Helvetica,sans-Serif" font-size="10.00" fill="#000000"> CfgNestedExpressionOperator</text>
<text text-anchor="middle" x="506" y="-537" font-family="Helvetica,sans-Serif" font-size="10.00" fill="#000000">CfgNestedExpressionThrowIdentifier</text>
</g>
<!-- Node21&#45;&gt;Node26 -->
<g id="edge9" class="edge">
<title>Node21&#45;&gt;Node26</title>
<path fill="none" stroke="#9a32cd" stroke-dasharray="5,2" d="M77.7811,-457.9996C92.7234,-446.1432 114.3033,-430.171 135,-419 195.2544,-386.4779 271.4029,-360.6572 313.7811,-347.5129"/>
<polygon fill="#9a32cd" stroke="#9a32cd" points="75.3892,-455.4324 69.8072,-464.4375 79.7865,-460.8789 75.3892,-455.4324"/>
<text text-anchor="middle" x="200.5" y="-444" font-family="Helvetica,sans-Serif" font-size="10.00" fill="#000000"> SubstitutionVariableStart</text>
<text text-anchor="middle" x="200.5" y="-433" font-family="Helvetica,sans-Serif" font-size="10.00" fill="#000000">SubstitutionVariableEnd</text>
<text text-anchor="middle" x="200.5" y="-422" font-family="Helvetica,sans-Serif" font-size="10.00" fill="#000000">SubstitutionVariableDelimiters</text>
</g>
<!-- Node37 -->
<g id="node21" class="node">
<title>Node37</title>
<g id="a_node21"><a xlink:href="structaworx_1_1lib_1_1expressions_1_1FunctionNameDescriptor.html" target="_top" xlink:title="FunctionNameDescriptor">
<polygon fill="#ffffff" stroke="#000000" points="443.5,-464.5 443.5,-483.5 568.5,-483.5 568.5,-464.5 443.5,-464.5"/>
<text text-anchor="middle" x="506" y="-471.5" font-family="Helvetica,sans-Serif" font-size="10.00" fill="#000000">FunctionNameDescriptor</text>
</a>
</g>
</g>
<!-- Node21&#45;&gt;Node37 -->
<g id="edge10" class="edge">
<title>Node21&#45;&gt;Node37</title>
<path fill="none" stroke="#9a32cd" stroke-dasharray="5,2" d="M127.2023,-474C213.3586,-474 359.8494,-474 443.1583,-474"/>
<polygon fill="#9a32cd" stroke="#9a32cd" points="127.0028,-470.5001 117.0028,-474 127.0028,-477.5001 127.0028,-470.5001"/>
<text text-anchor="middle" x="200.5" y="-477" font-family="Helvetica,sans-Serif" font-size="10.00" fill="#000000"> Name</text>
</g>
<!-- Node33 -->
<g id="node15" class="node">
<title>Node33</title>
<g id="a_node15"><a xlink:href="classaworx_1_1lib_1_1strings_1_1AStringBase.html" target="_top" xlink:title="AStringBase\&lt;character\&gt;">
<polygon fill="#ffffff" stroke="#ff0000" points="284,-604.5 284,-623.5 408,-623.5 408,-604.5 284,-604.5"/>
<text text-anchor="middle" x="346" y="-611.5" font-family="Helvetica,sans-Serif" font-size="10.00" fill="#000000">AStringBase&lt;character&gt;</text>
</a>
</g>
</g>
<!-- Node38 -->
<g id="node17" class="node">
<title>Node38</title>
<g id="a_node17"><a xlink:href="classaworx_1_1lib_1_1expressions_1_1Expression.html" target="_top" xlink:title="Expression">
<polygon fill="#ffffff" stroke="#000000" points="1597,-334.5 1597,-353.5 1662,-353.5 1662,-334.5 1597,-334.5"/>
<text text-anchor="middle" x="1629.5" y="-341.5" font-family="Helvetica,sans-Serif" font-size="10.00" fill="#000000">Expression</text>
</a>
</g>
</g>
<!-- Node33&#45;&gt;Node38 -->
<g id="edge21" class="edge">
<title>Node33&#45;&gt;Node38</title>
<path fill="none" stroke="#9a32cd" stroke-dasharray="5,2" d="M418.4978,-619.4035C500.2174,-625.0203 637.0694,-633 755,-633 755,-633 755,-633 1390.5,-633 1538.9465,-633 1612.5505,-403.7615 1626.8756,-353.6155"/>
<polygon fill="#9a32cd" stroke="#9a32cd" points="418.5392,-615.8981 408.3207,-618.6966 418.0541,-622.8812 418.5392,-615.8981"/>
<text text-anchor="middle" x="1172" y="-669" font-family="Helvetica,sans-Serif" font-size="10.00" fill="#000000"> normalizedString</text>
<text text-anchor="middle" x="1172" y="-658" font-family="Helvetica,sans-Serif" font-size="10.00" fill="#000000">name</text>
<text text-anchor="middle" x="1172" y="-647" font-family="Helvetica,sans-Serif" font-size="10.00" fill="#000000">originalString</text>
<text text-anchor="middle" x="1172" y="-636" font-family="Helvetica,sans-Serif" font-size="10.00" fill="#000000">optimizedString</text>
</g>
<!-- Node33&#45;&gt;Node25 -->
<g id="edge20" class="edge">
<title>Node33&#45;&gt;Node25</title>
<path fill="none" stroke="#9a32cd" stroke-dasharray="5,2" d="M398.1334,-602.3979C407.3946,-600.4866 416.9658,-598.6074 426,-597 461.3656,-590.7077 561.4969,-600.2663 586,-574 623.2387,-534.0816 567.0588,-369.1938 604,-329 635.6136,-294.603 695.1296,-296.1581 729.2398,-300.4891"/>
<polygon fill="#9a32cd" stroke="#9a32cd" points="397.3135,-598.9937 388.2456,-604.4732 398.7514,-605.8444 397.3135,-598.9937"/>
<text text-anchor="middle" x="506" y="-611" font-family="Helvetica,sans-Serif" font-size="10.00" fill="#000000"> DefaultValue</text>
<text text-anchor="middle" x="506" y="-600" font-family="Helvetica,sans-Serif" font-size="10.00" fill="#000000">Comments</text>
</g>
<!-- Node2&#45;&gt;Node1 -->
<g id="edge1" class="edge">
<title>Node2&#45;&gt;Node1</title>
<path fill="none" stroke="#9a32cd" stroke-dasharray="5,2" d="M1412.9846,-270.2508C1419.814,-266.3627 1427.5009,-262.547 1435,-260 1463.4268,-250.3451 1495.293,-244.0194 1524.8751,-239.8749"/>
<polygon fill="#9a32cd" stroke="#9a32cd" points="1411.0586,-267.3251 1404.3013,-275.4854 1414.6726,-273.32 1411.0586,-267.3251"/>
<text text-anchor="middle" x="1471" y="-263" font-family="Helvetica,sans-Serif" font-size="10.00" fill="#000000"> NestedProgram</text>
</g>
<!-- Node2&#45;&gt;Node38 -->
<g id="edge2" class="edge">
<title>Node2&#45;&gt;Node38</title>
<path fill="none" stroke="#9a32cd" stroke-dasharray="5,2" d="M1427.0403,-294.0336C1429.7339,-294.6992 1432.4094,-295.3601 1435,-296 1491.8953,-310.0525 1558.1568,-326.4013 1596.8059,-335.9356"/>
<polygon fill="#9a32cd" stroke="#9a32cd" points="1427.8733,-290.6343 1417.3257,-291.6328 1426.1939,-297.4298 1427.8733,-290.6343"/>
<text text-anchor="middle" x="1471" y="-316" font-family="Helvetica,sans-Serif" font-size="10.00" fill="#000000"> program</text>
</g>
<!-- Node38&#45;&gt;Node45 -->
<g id="edge25" class="edge">
<title>Node38&#45;&gt;Node45</title>
<path fill="none" stroke="#9a32cd" stroke-dasharray="5,2" d="M1672.3331,-341.089C1718.9497,-337.9209 1794.6852,-332.7738 1853.4723,-328.7786"/>
<polygon fill="#9a32cd" stroke="#9a32cd" points="1672.0155,-337.6024 1662.2759,-341.7725 1672.4902,-344.5863 1672.0155,-337.6024"/>
<text text-anchor="middle" x="1788.5" y="-338" font-family="Helvetica,sans-Serif" font-size="10.00" fill="#000000"> elements</text>
</g>
<!-- Node38&#45;&gt;Node2 -->
<g id="edge24" class="edge">
<title>Node38&#45;&gt;Node2</title>
<path fill="none" stroke="#9a32cd" stroke-dasharray="5,2" d="M1586.7143,-348.5016C1545.8763,-350.9918 1483.5526,-349.9839 1435,-328 1418.9497,-320.7327 1405.2011,-305.1294 1397.3921,-294.8531"/>
<polygon fill="#9a32cd" stroke="#9a32cd" points="1587.1392,-351.9804 1596.8673,-347.7833 1586.6452,-344.9979 1587.1392,-351.9804"/>
<text text-anchor="middle" x="1471" y="-349" font-family="Helvetica,sans-Serif" font-size="10.00" fill="#000000"> expression</text>
</g>
<!-- Node4 -->
<g id="node18" class="node">
<title>Node4</title>
<polygon fill="#ffffff" stroke="#bfbfbf" points="331.5,-87.5 331.5,-106.5 360.5,-106.5 360.5,-87.5 331.5,-87.5"/>
<text text-anchor="middle" x="346" y="-94.5" font-family="Helvetica,sans-Serif" font-size="10.00" fill="#000000">T</text>
</g>
<!-- Node4&#45;&gt;Node3 -->
<g id="edge4" class="edge">
<title>Node4&#45;&gt;Node3</title>
<path fill="none" stroke="#9a32cd" stroke-dasharray="5,2" d="M370.7701,-98.6408C386.5703,-99.6645 407.4852,-100.9772 426,-102 602.9593,-111.7753 810.219,-121.2521 923.9549,-126.2829"/>
<polygon fill="#9a32cd" stroke="#9a32cd" points="370.9479,-95.1451 360.7409,-97.9854 370.4913,-102.1302 370.9479,-95.1451"/>
<text text-anchor="middle" x="506" y="-113" font-family="Helvetica,sans-Serif" font-size="10.00" fill="#000000"> elements</text>
</g>
<!-- Node4&#45;&gt;Node54 -->
<g id="edge5" class="edge">
<title>Node4&#45;&gt;Node54</title>
<path fill="none" stroke="#9a32cd" stroke-dasharray="5,2" d="M370.7639,-94.0332C441.7279,-85.5314 645.7262,-61.0915 723.9531,-51.7196"/>
<polygon fill="#9a32cd" stroke="#9a32cd" points="370.0692,-90.5913 360.5565,-95.2561 370.9019,-97.5416 370.0692,-90.5913"/>
<text text-anchor="middle" x="506" y="-90" font-family="Helvetica,sans-Serif" font-size="10.00" fill="#000000"> elements</text>
</g>
<!-- Node5&#45;&gt;Node2 -->
<g id="edge6" class="edge">
<title>Node5&#45;&gt;Node2</title>
<path fill="none" stroke="#9a32cd" stroke-dasharray="5,2" d="M1205.6979,-357.7368C1250.0786,-340.2688 1327.0562,-309.971 1366.1734,-294.5748"/>
<polygon fill="#9a32cd" stroke="#9a32cd" points="1204.2415,-354.5486 1196.2182,-361.4679 1206.8052,-361.0622 1204.2415,-354.5486"/>
<text text-anchor="middle" x="1297.5" y="-341" font-family="Helvetica,sans-Serif" font-size="10.00" fill="#000000"> compiler</text>
</g>
<!-- Node26&#45;&gt;Node5 -->
<g id="edge16" class="edge">
<title>Node26&#45;&gt;Node5</title>
<path fill="none" stroke="#9a32cd" stroke-dasharray="5,2" d="M393.0208,-339.8144C489.2944,-343.5367 715.8197,-352.332 906,-360 992.5922,-363.4914 1095.0339,-367.7693 1143.6563,-369.8087"/>
<polygon fill="#9a32cd" stroke="#9a32cd" points="393.1516,-336.317 383.0238,-339.4281 392.8812,-343.3118 393.1516,-336.317"/>
<text text-anchor="middle" x="755" y="-363" font-family="Helvetica,sans-Serif" font-size="10.00" fill="#000000"> Config</text>
</g>
<!-- Node26&#45;&gt;Node25 -->
<g id="edge17" class="edge">
<title>Node26&#45;&gt;Node25</title>
<path fill="none" stroke="#9a32cd" stroke-dasharray="5,2" d="M393.3855,-330.2112C404.0896,-328.6417 415.4172,-327.1294 426,-326 538.684,-313.9745 673.8696,-307.9886 729.3414,-305.8936"/>
<polygon fill="#9a32cd" stroke="#9a32cd" points="392.7249,-326.7711 383.3585,-331.7229 393.7685,-333.6929 392.7249,-326.7711"/>
<text text-anchor="middle" x="506" y="-329" font-family="Helvetica,sans-Serif" font-size="10.00" fill="#000000"> Config</text>
</g>
<!-- Node37&#45;&gt;Node5 -->
<g id="edge23" class="edge">
<title>Node37&#45;&gt;Node5</title>
<path fill="none" stroke="#9a32cd" stroke-dasharray="5,2" d="M579.0852,-474.7389C715.4666,-475.2059 1003.2238,-471.6341 1095,-435 1124.7052,-423.1426 1151.4875,-395.2677 1164.2028,-380.526"/>
<polygon fill="#9a32cd" stroke="#9a32cd" points="578.7554,-471.2375 568.7405,-474.6947 578.7255,-478.2375 578.7554,-471.2375"/>
<text text-anchor="middle" x="755" y="-477" font-family="Helvetica,sans-Serif" font-size="10.00" fill="#000000"> CfgNestedExpressionFunction</text>
</g>
<!-- Node22 -->
<g id="node22" class="node">
<title>Node22</title>
<g id="a_node22"><a xlink:href="structaworx_1_1lib_1_1expressions_1_1detail_1_1Parser.html" target="_top" xlink:title="Parser">
<polygon fill="#ffffff" stroke="#000000" points="732.5,-380.5 732.5,-399.5 777.5,-399.5 777.5,-380.5 732.5,-380.5"/>
<text text-anchor="middle" x="755" y="-387.5" font-family="Helvetica,sans-Serif" font-size="10.00" fill="#000000">Parser</text>
</a>
</g>
</g>
<!-- Node22&#45;&gt;Node5 -->
<g id="edge11" class="edge">
<title>Node22&#45;&gt;Node5</title>
<path fill="none" stroke="#9a32cd" stroke-dasharray="5,2" d="M788.1392,-388.4901C867.9243,-384.8548 1069.5753,-375.6668 1143.9147,-372.2797"/>
<polygon fill="#9a32cd" stroke="#9a32cd" points="787.5462,-385.0134 777.7159,-388.965 787.8648,-392.0061 787.5462,-385.0134"/>
<text text-anchor="middle" x="1009.5" y="-385" font-family="Helvetica,sans-Serif" font-size="10.00" fill="#000000"> parser</text>
</g>
<!-- Node25&#45;&gt;Node5 -->
<g id="edge15" class="edge">
<title>Node25&#45;&gt;Node5</title>
<path fill="none" stroke="#9a32cd" stroke-dasharray="5,2" d="M791.113,-301.8499C854.2878,-297.51 988.2946,-293.5427 1095,-326 1119.8865,-333.5699 1145.2706,-350.5842 1159.7815,-361.387"/>
<polygon fill="#9a32cd" stroke="#9a32cd" points="790.5963,-298.3783 780.8789,-302.5999 791.108,-305.3596 790.5963,-298.3783"/>
<text text-anchor="middle" x="1009.5" y="-329" font-family="Helvetica,sans-Serif" font-size="10.00" fill="#000000"> var</text>
</g>
<!-- Node51&#45;&gt;Node2 -->
<g id="edge35" class="edge">
<title>Node51&#45;&gt;Node2</title>
<path fill="none" stroke="#9a32cd" stroke-dasharray="5,2" d="M1193.7357,-101.7582C1227.8724,-126.9831 1295.3782,-178.8143 1346,-230 1360.5099,-244.6716 1375.1401,-263.7732 1383.4838,-275.172"/>
<polygon fill="#9a32cd" stroke="#9a32cd" points="1195.5516,-98.7494 1185.4194,-95.6527 1191.4089,-104.392 1195.5516,-98.7494"/>
<text text-anchor="middle" x="1297.5" y="-233" font-family="Helvetica,sans-Serif" font-size="10.00" fill="#000000"> compileStorage</text>
</g>
<!-- Node39&#45;&gt;Node2 -->
<g id="edge26" class="edge">
<title>Node39&#45;&gt;Node2</title>
<path fill="none" stroke="#9a32cd" stroke-dasharray="5,2" d="M2166.4594,-285C2034.2567,-285 1538.6605,-285 1417.4002,-285"/>
<polygon fill="#9a32cd" stroke="#9a32cd" points="2166.731,-288.5001 2176.731,-285 2166.731,-281.5001 2166.731,-288.5001"/>
<text text-anchor="middle" x="1788.5" y="-288" font-family="Helvetica,sans-Serif" font-size="10.00" fill="#000000"> ctScope</text>
</g>
<!-- Node39&#45;&gt;Node39 -->
<g id="edge27" class="edge">
<title>Node39&#45;&gt;Node39</title>
<path fill="none" stroke="#9a32cd" stroke-dasharray="5,2" d="M2181.9638,-304.4C2183.1015,-309.3146 2188.7803,-313 2199,-313 2215.3516,-313 2220.0782,-303.5653 2213.1799,-294.7571"/>
<polygon fill="#9a32cd" stroke="#9a32cd" points="2185.3358,-305.3393 2184.8201,-294.7571 2178.6241,-303.3512 2185.3358,-305.3393"/>
<text text-anchor="middle" x="2199" y="-316" font-family="Helvetica,sans-Serif" font-size="10.00" fill="#000000"> CTScope</text>
</g>
<!-- Node40 -->
<g id="node26" class="node">
<title>Node40</title>
<g id="a_node26"><a xlink:href="classaworx_1_1lib_1_1util_1_1MemoryBlocks.html" target="_top" xlink:title="MemoryBlocks">
<polygon fill="#ffffff" stroke="#ff0000" points="1897.5,-190.5 1897.5,-209.5 1979.5,-209.5 1979.5,-190.5 1897.5,-190.5"/>
<text text-anchor="middle" x="1938.5" y="-197.5" font-family="Helvetica,sans-Serif" font-size="10.00" fill="#000000">MemoryBlocks</text>
</a>
</g>
</g>
<!-- Node40&#45;&gt;Node39 -->
<g id="edge28" class="edge">
<title>Node40&#45;&gt;Node39</title>
<path fill="none" stroke="#9a32cd" stroke-dasharray="5,2" d="M1989.7463,-192.6766C2037.2079,-188.5622 2107.954,-189.4519 2159,-221 2179.2855,-233.5371 2190.9448,-260.5957 2195.9904,-275.1913"/>
<polygon fill="#9a32cd" stroke="#9a32cd" points="1989.3067,-189.2027 1979.6918,-193.653 1989.9833,-196.17 1989.3067,-189.2027"/>
<text text-anchor="middle" x="2105.5" y="-224" font-family="Helvetica,sans-Serif" font-size="10.00" fill="#000000"> Memory</text>
</g>
<!-- Node47 -->
<g id="node27" class="node">
<title>Node47</title>
<g id="a_node27"><a xlink:href="classaworx_1_1lib_1_1boxing_1_1Box.html" target="_top" xlink:title="Box">
<polygon fill="#ffffff" stroke="#ff0000" points="1373.5,-187.5 1373.5,-206.5 1407.5,-206.5 1407.5,-187.5 1373.5,-187.5"/>
<text text-anchor="middle" x="1390.5" y="-194.5" font-family="Helvetica,sans-Serif" font-size="10.00" fill="#000000">Box</text>
</a>
</g>
</g>
<!-- Node47&#45;&gt;Node1 -->
<g id="edge32" class="edge">
<title>Node47&#45;&gt;Node1</title>
<path fill="none" stroke="#9a32cd" stroke-dasharray="5,2" d="M1417.7615,-200.9923C1453.2322,-206.1867 1516.354,-215.4305 1564.4783,-222.478"/>
<polygon fill="#9a32cd" stroke="#9a32cd" points="1418.0899,-197.5031 1407.6883,-199.5171 1417.0756,-204.4292 1418.0899,-197.5031"/>
<text text-anchor="middle" x="1471" y="-227" font-family="Helvetica,sans-Serif" font-size="10.00" fill="#000000"> Value</text>
<text text-anchor="middle" x="1471" y="-216" font-family="Helvetica,sans-Serif" font-size="10.00" fill="#000000">Callback</text>
</g>
<!-- Node47&#45;&gt;Node46 -->
<g id="edge33" class="edge">
<title>Node47&#45;&gt;Node46</title>
<path fill="none" stroke="#9a32cd" stroke-dasharray="5,2" d="M1417.577,-191.3406C1423.3047,-190.3663 1429.3316,-189.5055 1435,-189 1466.8735,-186.1577 1475.0289,-187.6396 1507,-189 1594.963,-192.743 1697.9689,-203.0364 1751.676,-208.8541"/>
<polygon fill="#9a32cd" stroke="#9a32cd" points="1416.9274,-187.9013 1407.7324,-193.1648 1418.2028,-194.7842 1416.9274,-187.9013"/>
<text text-anchor="middle" x="1471" y="-192" font-family="Helvetica,sans-Serif" font-size="10.00" fill="#000000"> elements</text>
</g>
</g>
</svg>
