<?xml version="1.0" encoding="UTF-8" standalone="no"?>
<!DOCTYPE svg PUBLIC "-//W3C//DTD SVG 1.1//EN"
 "http://www.w3.org/Graphics/SVG/1.1/DTD/svg11.dtd">
<!-- Generated by graphviz version 2.40.1 (20161225.0304)
 -->
<!-- Title: variable.hpp Pages: 1 -->
<svg width="1192pt" height="532pt"
 viewBox="0.00 0.00 1192.00 532.00" xmlns="http://www.w3.org/2000/svg" xmlns:xlink="http://www.w3.org/1999/xlink">
<g id="graph0" class="graph" transform="scale(1 1) rotate(0) translate(4 528)">
<title>variable.hpp</title>
<polygon fill="#ffffff" stroke="transparent" points="-4,4 -4,-528 1188,-528 1188,4 -4,4"/>
<!-- Node7 -->
<g id="node1" class="node">
<title>Node7</title>
<polygon fill="#bfbfbf" stroke="#000000" points="984.5,-504.5 984.5,-523.5 1053.5,-523.5 1053.5,-504.5 984.5,-504.5"/>
<text text-anchor="middle" x="1019" y="-511.5" font-family="Helvetica,sans-Serif" font-size="10.00" fill="#000000">variable.hpp</text>
</g>
<!-- Node8 -->
<g id="node2" class="node">
<title>Node8</title>
<g id="a_node2"><a xlink:href="configuration_8hpp.html" target="_top" xlink:title="configuration.hpp">
<polygon fill="#ffffff" stroke="#000000" points="974.5,-336.5 974.5,-355.5 1065.5,-355.5 1065.5,-336.5 974.5,-336.5"/>
<text text-anchor="middle" x="1020" y="-343.5" font-family="Helvetica,sans-Serif" font-size="10.00" fill="#000000">configuration.hpp</text>
</a>
</g>
</g>
<!-- Node7&#45;&gt;Node8 -->
<g id="edge1" class="edge">
<title>Node7&#45;&gt;Node8</title>
<path fill="none" stroke="#191970" d="M1013.29,-494.5896C1011.1768,-486.4533 1009.0429,-476.8454 1008,-468 1003.0658,-426.15 1012.9426,-376.0556 1017.6714,-355.5048"/>
<polygon fill="#191970" stroke="#191970" points="1009.9228,-495.5452 1015.9625,-504.2499 1016.6694,-493.6787 1009.9228,-495.5452"/>
</g>
<!-- Node36 -->
<g id="node3" class="node">
<title>Node36</title>
<g id="a_node3"><a xlink:href="plugins_8hpp.html" target="_top" xlink:title="plugins.hpp">
<polygon fill="#ffffff" stroke="#000000" points="1017,-448.5 1017,-467.5 1083,-467.5 1083,-448.5 1017,-448.5"/>
<text text-anchor="middle" x="1050" y="-455.5" font-family="Helvetica,sans-Serif" font-size="10.00" fill="#000000">plugins.hpp</text>
</a>
</g>
</g>
<!-- Node7&#45;&gt;Node36 -->
<g id="edge2" class="edge">
<title>Node7&#45;&gt;Node36</title>
<path fill="none" stroke="#191970" d="M1029.3312,-495.3372C1034.4665,-486.0605 1040.4566,-475.2398 1044.6621,-467.6427"/>
<polygon fill="#191970" stroke="#191970" points="1026.1809,-493.8015 1024.3998,-504.2455 1032.3051,-497.1917 1026.1809,-493.8015"/>
</g>
<!-- Node9 -->
<g id="node4" class="node">
<title>Node9</title>
<g id="a_node4"><a xlink:href="alox_2alox_8hpp.html" target="_top" xlink:title="alox.hpp">
<polygon fill="#ffffff" stroke="#000000" points="496.5,-280.5 496.5,-299.5 549.5,-299.5 549.5,-280.5 496.5,-280.5"/>
<text text-anchor="middle" x="523" y="-287.5" font-family="Helvetica,sans-Serif" font-size="10.00" fill="#000000">alox.hpp</text>
</a>
</g>
</g>
<!-- Node8&#45;&gt;Node9 -->
<g id="edge3" class="edge">
<title>Node8&#45;&gt;Node9</title>
<path fill="none" stroke="#191970" d="M964.1916,-339.7117C857.3932,-327.6781 627.7776,-301.8059 549.6549,-293.0034"/>
<polygon fill="#191970" stroke="#191970" points="963.8052,-343.1903 974.1343,-340.832 964.5891,-336.2343 963.8052,-343.1903"/>
</g>
<!-- Node11 -->
<g id="node5" class="node">
<title>Node11</title>
<g id="a_node5"><a xlink:href="lox_8hpp.html" target="_top" xlink:title="lox.hpp">
<polygon fill="#ffffff" stroke="#000000" points="608,-168.5 608,-187.5 656,-187.5 656,-168.5 608,-168.5"/>
<text text-anchor="middle" x="632" y="-175.5" font-family="Helvetica,sans-Serif" font-size="10.00" fill="#000000">lox.hpp</text>
</a>
</g>
</g>
<!-- Node8&#45;&gt;Node11 -->
<g id="edge4" class="edge">
<title>Node8&#45;&gt;Node11</title>
<path fill="none" stroke="#191970" d="M1023.2474,-326.1311C1026.4466,-298.9225 1027.4669,-250.439 1000,-224 975.1536,-200.0835 734.1394,-183.9796 656.1881,-179.363"/>
<polygon fill="#191970" stroke="#191970" points="1019.7353,-325.9753 1021.8196,-336.3631 1026.6682,-326.9428 1019.7353,-325.9753"/>
</g>
<!-- Node27 -->
<g id="node6" class="node">
<title>Node27</title>
<g id="a_node6"><a xlink:href="compiler_8hpp_source.html" target="_top" xlink:title="compiler.hpp">
<polygon fill="#ffffff" stroke="#000000" points="1073.5,-280.5 1073.5,-299.5 1144.5,-299.5 1144.5,-280.5 1073.5,-280.5"/>
<text text-anchor="middle" x="1109" y="-287.5" font-family="Helvetica,sans-Serif" font-size="10.00" fill="#000000">compiler.hpp</text>
</a>
</g>
</g>
<!-- Node8&#45;&gt;Node27 -->
<g id="edge5" class="edge">
<title>Node8&#45;&gt;Node27</title>
<path fill="none" stroke="#191970" d="M1044.2064,-330.769C1059.9775,-320.8456 1080.076,-308.1994 1093.675,-299.6427"/>
<polygon fill="#191970" stroke="#191970" points="1042.1026,-327.9575 1035.5026,-336.2455 1045.8305,-333.8823 1042.1026,-327.9575"/>
</g>
<!-- Node36&#45;&gt;Node8 -->
<g id="edge43" class="edge">
<title>Node36&#45;&gt;Node8</title>
<path fill="none" stroke="#191970" d="M1044.8032,-438.5987C1038.3115,-414.363 1027.4612,-373.8551 1022.5513,-355.5249"/>
<polygon fill="#191970" stroke="#191970" points="1041.474,-439.6971 1047.4422,-448.4509 1048.2356,-437.8859 1041.474,-439.6971"/>
</g>
<!-- Node37 -->
<g id="node24" class="node">
<title>Node37</title>
<g id="a_node24"><a xlink:href="inmemoryplugin_8hpp.html" target="_top" xlink:title="inmemoryplugin.hpp">
<polygon fill="#ffffff" stroke="#000000" points="1055,-392.5 1055,-411.5 1159,-411.5 1159,-392.5 1055,-392.5"/>
<text text-anchor="middle" x="1107" y="-399.5" font-family="Helvetica,sans-Serif" font-size="10.00" fill="#000000">inmemoryplugin.hpp</text>
</a>
</g>
</g>
<!-- Node36&#45;&gt;Node37 -->
<g id="edge44" class="edge">
<title>Node36&#45;&gt;Node37</title>
<path fill="none" stroke="#191970" d="M1067.2271,-441.0751C1077.0341,-431.4402 1088.964,-419.7196 1097.1851,-411.6427"/>
<polygon fill="#191970" stroke="#191970" points="1064.6091,-438.7406 1059.9286,-448.2455 1069.5149,-443.734 1064.6091,-438.7406"/>
</g>
<!-- Node9&#45;&gt;Node11 -->
<g id="edge7" class="edge">
<title>Node9&#45;&gt;Node11</title>
<path fill="none" stroke="#191970" d="M550.0611,-275.7921C564.5943,-268.2049 581.7975,-257.5947 594,-244 609.0482,-227.2348 617.272,-201.4163 623.9572,-187.5641"/>
<polygon fill="#191970" stroke="#191970" points="548.3496,-272.7348 540.9757,-280.3425 551.4844,-278.9937 548.3496,-272.7348"/>
</g>
<!-- Node10 -->
<g id="node7" class="node">
<title>Node10</title>
<g id="a_node7"><a xlink:href="log_8hpp.html" target="_top" xlink:title="log.hpp">
<polygon fill="#ffffff" stroke="#000000" points="842,-224.5 842,-243.5 890,-243.5 890,-224.5 842,-224.5"/>
<text text-anchor="middle" x="866" y="-231.5" font-family="Helvetica,sans-Serif" font-size="10.00" fill="#000000">log.hpp</text>
</a>
</g>
</g>
<!-- Node9&#45;&gt;Node10 -->
<g id="edge6" class="edge">
<title>Node9&#45;&gt;Node10</title>
<path fill="none" stroke="#191970" d="M559.8687,-285.5162C616.8485,-278.814 729.0091,-264.7141 823,-244 829.0086,-242.6758 835.511,-240.8603 841.741,-239.1393"/>
<polygon fill="#191970" stroke="#191970" points="559.4149,-282.0454 549.8883,-286.6815 560.2268,-288.9981 559.4149,-282.0454"/>
</g>
<!-- Node12 -->
<g id="node8" class="node">
<title>Node12</title>
<g id="a_node8"><a xlink:href="domain_8hpp.html" target="_top" xlink:title="domain.hpp">
<polygon fill="#ffffff" stroke="#000000" points="669.5,-224.5 669.5,-243.5 736.5,-243.5 736.5,-224.5 669.5,-224.5"/>
<text text-anchor="middle" x="703" y="-231.5" font-family="Helvetica,sans-Serif" font-size="10.00" fill="#000000">domain.hpp</text>
</a>
</g>
</g>
<!-- Node9&#45;&gt;Node12 -->
<g id="edge8" class="edge">
<title>Node9&#45;&gt;Node12</title>
<path fill="none" stroke="#191970" d="M559.339,-278.6945C592.5561,-268.3603 641.1346,-253.247 672.4113,-243.5165"/>
<polygon fill="#191970" stroke="#191970" points="558.0684,-275.4243 549.5596,-281.737 560.1479,-282.1083 558.0684,-275.4243"/>
</g>
<!-- Node13 -->
<g id="node9" class="node">
<title>Node13</title>
<g id="a_node9"><a xlink:href="logger_8hpp.html" target="_top" xlink:title="logger.hpp">
<polygon fill="#ffffff" stroke="#000000" points="285.5,-224.5 285.5,-243.5 346.5,-243.5 346.5,-224.5 285.5,-224.5"/>
<text text-anchor="middle" x="316" y="-231.5" font-family="Helvetica,sans-Serif" font-size="10.00" fill="#000000">logger.hpp</text>
</a>
</g>
</g>
<!-- Node9&#45;&gt;Node13 -->
<g id="edge9" class="edge">
<title>Node9&#45;&gt;Node13</title>
<path fill="none" stroke="#191970" d="M486.5373,-280.1357C446.7754,-269.3789 383.8455,-252.3543 346.5714,-242.2705"/>
<polygon fill="#191970" stroke="#191970" points="485.7951,-283.5607 496.3621,-282.7936 487.6232,-276.8036 485.7951,-283.5607"/>
</g>
<!-- Node14 -->
<g id="node10" class="node">
<title>Node14</title>
<g id="a_node10"><a xlink:href="textlogger_8hpp.html" target="_top" xlink:title="textlogger.hpp">
<polygon fill="#ffffff" stroke="#000000" points="247.5,-168.5 247.5,-187.5 324.5,-187.5 324.5,-168.5 247.5,-168.5"/>
<text text-anchor="middle" x="286" y="-175.5" font-family="Helvetica,sans-Serif" font-size="10.00" fill="#000000">textlogger.hpp</text>
</a>
</g>
</g>
<!-- Node9&#45;&gt;Node14 -->
<g id="edge10" class="edge">
<title>Node9&#45;&gt;Node14</title>
<path fill="none" stroke="#191970" d="M486.1082,-288.6915C423.8897,-285.624 302.2869,-275.6344 276,-244 262.668,-227.9559 273.028,-201.8444 280.3542,-187.7548"/>
<polygon fill="#191970" stroke="#191970" points="486.1306,-292.1961 496.2802,-289.1572 486.4508,-285.2034 486.1306,-292.1961"/>
</g>
<!-- Node15 -->
<g id="node11" class="node">
<title>Node15</title>
<g id="a_node11"><a xlink:href="plaintextlogger_8hpp.html" target="_top" xlink:title="plaintextlogger.hpp">
<polygon fill="#ffffff" stroke="#000000" points="181,-112.5 181,-131.5 279,-131.5 279,-112.5 181,-112.5"/>
<text text-anchor="middle" x="230" y="-119.5" font-family="Helvetica,sans-Serif" font-size="10.00" fill="#000000">plaintextlogger.hpp</text>
</a>
</g>
</g>
<!-- Node9&#45;&gt;Node15 -->
<g id="edge11" class="edge">
<title>Node9&#45;&gt;Node15</title>
<path fill="none" stroke="#191970" d="M486.0451,-287.4358C423.4988,-282.4449 300.2281,-269.5978 266,-244 229.9228,-217.0193 228.4833,-155.5679 229.387,-131.7165"/>
<polygon fill="#191970" stroke="#191970" points="486.0219,-290.9443 496.2615,-288.2241 486.5604,-283.9651 486.0219,-290.9443"/>
</g>
<!-- Node16 -->
<g id="node12" class="node">
<title>Node16</title>
<g id="a_node12"><a xlink:href="consolelogger_8hpp.html" target="_top" xlink:title="consolelogger.hpp">
<polygon fill="#ffffff" stroke="#000000" points="409.5,-56.5 409.5,-75.5 504.5,-75.5 504.5,-56.5 409.5,-56.5"/>
<text text-anchor="middle" x="457" y="-63.5" font-family="Helvetica,sans-Serif" font-size="10.00" fill="#000000">consolelogger.hpp</text>
</a>
</g>
</g>
<!-- Node9&#45;&gt;Node16 -->
<g id="edge12" class="edge">
<title>Node9&#45;&gt;Node16</title>
<path fill="none" stroke="#191970" d="M499.5727,-274.1886C490.0575,-266.3502 480.1156,-255.9878 475,-244 451.9714,-190.0347 488.9476,-169.4441 477,-112 474.2692,-98.8702 467.5863,-84.8908 462.6945,-75.8354"/>
<polygon fill="#191970" stroke="#191970" points="497.6246,-277.1051 507.6926,-280.4046 501.8797,-271.5468 497.6246,-277.1051"/>
</g>
<!-- Node17 -->
<g id="node13" class="node">
<title>Node17</title>
<g id="a_node13"><a xlink:href="alox_8hpp_source.html" target="_top" xlink:title="alox.hpp">
<polygon fill="#ffffff" stroke="#000000" points="354.5,-.5 354.5,-19.5 407.5,-19.5 407.5,-.5 354.5,-.5"/>
<text text-anchor="middle" x="381" y="-7.5" font-family="Helvetica,sans-Serif" font-size="10.00" fill="#000000">alox.hpp</text>
</a>
</g>
</g>
<!-- Node9&#45;&gt;Node17 -->
<g id="edge13" class="edge">
<title>Node9&#45;&gt;Node17</title>
<path fill="none" stroke="#191970" d="M515.2216,-270.7421C512.3412,-262.6297 509.4301,-252.9984 508,-244 494.8808,-161.4509 561.4117,-124.1379 513,-56 500.5956,-38.5412 442.5501,-23.2906 407.6946,-15.5022"/>
<polygon fill="#191970" stroke="#191970" points="512.0463,-272.2401 518.8632,-280.3507 518.592,-269.7593 512.0463,-272.2401"/>
</g>
<!-- Node18 -->
<g id="node14" class="node">
<title>Node18</title>
<g id="a_node14"><a xlink:href="memorylogger_8hpp.html" target="_top" xlink:title="memorylogger.hpp">
<polygon fill="#ffffff" stroke="#000000" points="148,-56.5 148,-75.5 244,-75.5 244,-56.5 148,-56.5"/>
<text text-anchor="middle" x="196" y="-63.5" font-family="Helvetica,sans-Serif" font-size="10.00" fill="#000000">memorylogger.hpp</text>
</a>
</g>
</g>
<!-- Node9&#45;&gt;Node18 -->
<g id="edge14" class="edge">
<title>Node9&#45;&gt;Node18</title>
<path fill="none" stroke="#191970" d="M486.1777,-287.5711C419.9932,-282.6159 284.1697,-269.583 245,-244 195.2529,-211.5085 188.9231,-188.9568 172,-132 165.9577,-111.6639 179.2165,-88.4818 188.3304,-75.7173"/>
<polygon fill="#191970" stroke="#191970" points="485.9491,-291.0636 496.1765,-288.2977 486.4565,-284.0821 485.9491,-291.0636"/>
</g>
<!-- Node19 -->
<g id="node15" class="node">
<title>Node19</title>
<g id="a_node15"><a xlink:href="textfilelogger_8hpp.html" target="_top" xlink:title="textfilelogger.hpp">
<polygon fill="#ffffff" stroke="#000000" points="262,-56.5 262,-75.5 352,-75.5 352,-56.5 262,-56.5"/>
<text text-anchor="middle" x="307" y="-63.5" font-family="Helvetica,sans-Serif" font-size="10.00" fill="#000000">textfilelogger.hpp</text>
</a>
</g>
</g>
<!-- Node9&#45;&gt;Node19 -->
<g id="edge15" class="edge">
<title>Node9&#45;&gt;Node19</title>
<path fill="none" stroke="#191970" d="M486.8959,-277.9681C466.641,-270.1765 441.5862,-258.7286 422,-244 369.6011,-204.5967 357.1127,-189.7085 326,-132 316.0411,-113.5279 310.7952,-89.2596 308.4891,-75.8959"/>
<polygon fill="#191970" stroke="#191970" points="485.8156,-281.3004 496.4087,-281.4977 488.2508,-274.7376 485.8156,-281.3004"/>
</g>
<!-- Node20 -->
<g id="node16" class="node">
<title>Node20</title>
<g id="a_node16"><a xlink:href="vstudiologger_8hpp.html" target="_top" xlink:title="vstudiologger.hpp">
<polygon fill="#ffffff" stroke="#000000" points="0,-56.5 0,-75.5 92,-75.5 92,-56.5 0,-56.5"/>
<text text-anchor="middle" x="46" y="-63.5" font-family="Helvetica,sans-Serif" font-size="10.00" fill="#000000">vstudiologger.hpp</text>
</a>
</g>
</g>
<!-- Node9&#45;&gt;Node20 -->
<g id="edge16" class="edge">
<title>Node9&#45;&gt;Node20</title>
<path fill="none" stroke="#191970" d="M486.1804,-287.551C392.0119,-281.0474 147.5776,-262.5675 116,-244 63.2682,-212.9939 54.6683,-190.2539 36,-132 29.7753,-112.5762 36.8362,-88.6648 41.857,-75.617"/>
<polygon fill="#191970" stroke="#191970" points="486.162,-291.0578 496.3777,-288.2489 486.6401,-284.0742 486.162,-291.0578"/>
</g>
<!-- Node21 -->
<g id="node17" class="node">
<title>Node21</title>
<g id="a_node17"><a xlink:href="ansilogger_8hpp.html" target="_top" xlink:title="ansilogger.hpp">
<polygon fill="#ffffff" stroke="#000000" points="45.5,-112.5 45.5,-131.5 124.5,-131.5 124.5,-112.5 45.5,-112.5"/>
<text text-anchor="middle" x="85" y="-119.5" font-family="Helvetica,sans-Serif" font-size="10.00" fill="#000000">ansilogger.hpp</text>
</a>
</g>
</g>
<!-- Node9&#45;&gt;Node21 -->
<g id="edge17" class="edge">
<title>Node9&#45;&gt;Node21</title>
<path fill="none" stroke="#191970" d="M486.1782,-287.655C395.4751,-281.5895 166.6218,-264.4225 139,-244 101.0055,-215.9083 89.2742,-155.1165 86.076,-131.579"/>
<polygon fill="#191970" stroke="#191970" points="486.0721,-291.1555 496.2812,-288.3227 486.5339,-284.1707 486.0721,-291.1555"/>
</g>
<!-- Node22 -->
<g id="node18" class="node">
<title>Node22</title>
<g id="a_node18"><a xlink:href="windowsconsolelogger_8hpp.html" target="_top" xlink:title="windowsconsolelogger.hpp">
<polygon fill="#ffffff" stroke="#000000" points="335.5,-112.5 335.5,-131.5 468.5,-131.5 468.5,-112.5 335.5,-112.5"/>
<text text-anchor="middle" x="402" y="-119.5" font-family="Helvetica,sans-Serif" font-size="10.00" fill="#000000">windowsconsolelogger.hpp</text>
</a>
</g>
</g>
<!-- Node9&#45;&gt;Node22 -->
<g id="edge18" class="edge">
<title>Node9&#45;&gt;Node22</title>
<path fill="none" stroke="#191970" d="M487.0687,-278.3487C469.6786,-271.022 449.8383,-259.892 437,-244 409.1676,-209.5474 403.4643,-153.9868 402.2984,-131.7033"/>
<polygon fill="#191970" stroke="#191970" points="485.831,-281.6228 496.4179,-282.0338 488.398,-275.1105 485.831,-281.6228"/>
</g>
<!-- Node23 -->
<g id="node19" class="node">
<title>Node23</title>
<g id="a_node19"><a xlink:href="scopedump_8hpp.html" target="_top" xlink:title="scopedump.hpp">
<polygon fill="#ffffff" stroke="#000000" points="961,-168.5 961,-187.5 1047,-187.5 1047,-168.5 961,-168.5"/>
<text text-anchor="middle" x="1004" y="-175.5" font-family="Helvetica,sans-Serif" font-size="10.00" fill="#000000">scopedump.hpp</text>
</a>
</g>
</g>
<!-- Node9&#45;&gt;Node23 -->
<g id="edge19" class="edge">
<title>Node9&#45;&gt;Node23</title>
<path fill="none" stroke="#191970" d="M559.9367,-289.1437C666.6256,-286.3026 969.5944,-275.508 1000,-244 1014.5078,-228.9662 1010.4091,-201.95 1006.8272,-187.5875"/>
<polygon fill="#191970" stroke="#191970" points="559.5644,-285.652 549.658,-289.4088 559.7449,-292.6497 559.5644,-285.652"/>
</g>
<!-- Node24 -->
<g id="node20" class="node">
<title>Node24</title>
<g id="a_node20"><a xlink:href="scopestore_8hpp.html" target="_top" xlink:title="scopestore.hpp">
<polygon fill="#ffffff" stroke="#000000" points="908.5,-224.5 908.5,-243.5 991.5,-243.5 991.5,-224.5 908.5,-224.5"/>
<text text-anchor="middle" x="950" y="-231.5" font-family="Helvetica,sans-Serif" font-size="10.00" fill="#000000">scopestore.hpp</text>
</a>
</g>
</g>
<!-- Node9&#45;&gt;Node24 -->
<g id="edge20" class="edge">
<title>Node9&#45;&gt;Node24</title>
<path fill="none" stroke="#191970" d="M559.6377,-286.4019C627.0236,-279.5878 775.0826,-263.7027 899,-244 902.0297,-243.5183 905.1542,-242.9881 908.2949,-242.4309"/>
<polygon fill="#191970" stroke="#191970" points="559.1316,-282.935 549.5314,-287.4168 559.8311,-289.9 559.1316,-282.935"/>
</g>
<!-- Node25 -->
<g id="node21" class="node">
<title>Node25</title>
<g id="a_node21"><a xlink:href="scopeinfo_8hpp.html" target="_top" xlink:title="scopeinfo.hpp">
<polygon fill="#ffffff" stroke="#000000" points="517.5,-224.5 517.5,-243.5 594.5,-243.5 594.5,-224.5 517.5,-224.5"/>
<text text-anchor="middle" x="556" y="-231.5" font-family="Helvetica,sans-Serif" font-size="10.00" fill="#000000">scopeinfo.hpp</text>
</a>
</g>
</g>
<!-- Node9&#45;&gt;Node25 -->
<g id="edge21" class="edge">
<title>Node9&#45;&gt;Node25</title>
<path fill="none" stroke="#191970" d="M533.8254,-271.6296C539.3299,-262.2887 545.7937,-251.3197 550.3177,-243.6427"/>
<polygon fill="#191970" stroke="#191970" points="530.8097,-269.8532 528.7482,-280.2455 536.8405,-273.4071 530.8097,-269.8532"/>
</g>
<!-- Node26 -->
<g id="node22" class="node">
<title>Node26</title>
<g id="a_node22"><a xlink:href="logtools_8hpp.html" target="_top" xlink:title="logtools.hpp">
<polygon fill="#ffffff" stroke="#000000" points="754.5,-224.5 754.5,-243.5 823.5,-243.5 823.5,-224.5 754.5,-224.5"/>
<text text-anchor="middle" x="789" y="-231.5" font-family="Helvetica,sans-Serif" font-size="10.00" fill="#000000">logtools.hpp</text>
</a>
</g>
</g>
<!-- Node9&#45;&gt;Node26 -->
<g id="edge22" class="edge">
<title>Node9&#45;&gt;Node26</title>
<path fill="none" stroke="#191970" d="M559.6429,-282.6312C603.6936,-273.721 679.8361,-258.1548 745,-244 748.0621,-243.3349 751.2415,-242.6334 754.4268,-241.9233"/>
<polygon fill="#191970" stroke="#191970" points="558.7985,-279.231 549.6894,-284.6417 560.1845,-286.0924 558.7985,-279.231"/>
</g>
<!-- Node11&#45;&gt;Node9 -->
<g id="edge24" class="edge">
<title>Node11&#45;&gt;Node9</title>
<path fill="none" stroke="#191970" d="M634.3977,-197.73C631.499,-211.9057 623.874,-230.7712 612,-244 595.4123,-262.4803 569.5839,-275.4454 549.788,-282.7991"/>
<polygon fill="#191970" stroke="#191970" points="637.9009,-197.9278 635.7001,-187.5641 630.9577,-197.0383 637.9009,-197.9278"/>
</g>
<!-- Node28 -->
<g id="node23" class="node">
<title>Node28</title>
<g id="a_node23"><a xlink:href="compilerplugin_8hpp_source.html" target="_top" xlink:title="compilerplugin.hpp">
<polygon fill="#ffffff" stroke="#ff0000" points="1086,-224.5 1086,-243.5 1184,-243.5 1184,-224.5 1086,-224.5"/>
<text text-anchor="middle" x="1135" y="-231.5" font-family="Helvetica,sans-Serif" font-size="10.00" fill="#000000">compilerplugin.hpp</text>
</a>
</g>
</g>
<!-- Node27&#45;&gt;Node28 -->
<g id="edge42" class="edge">
<title>Node27&#45;&gt;Node28</title>
<path fill="none" stroke="#191970" d="M1117.8011,-271.0437C1122.0775,-261.8331 1127.033,-251.1598 1130.523,-243.6427"/>
<polygon fill="#191970" stroke="#191970" points="1114.5655,-269.7015 1113.5289,-280.2455 1120.9146,-272.6494 1114.5655,-269.7015"/>
</g>
<!-- Node10&#45;&gt;Node9 -->
<g id="edge23" class="edge">
<title>Node10&#45;&gt;Node9</title>
<path fill="none" stroke="#191970" d="M833.2588,-245.6544C726.7493,-268.3604 603.0942,-282.6012 549.5614,-287.7915"/>
<polygon fill="#191970" stroke="#191970" points="834.1499,-249.0426 843.1813,-243.5031 832.6667,-242.2015 834.1499,-249.0426"/>
</g>
<!-- Node12&#45;&gt;Node11 -->
<g id="edge25" class="edge">
<title>Node12&#45;&gt;Node11</title>
<path fill="none" stroke="#191970" d="M682.623,-217.928C670.2129,-208.1397 654.77,-195.9595 644.2255,-187.6427"/>
<polygon fill="#191970" stroke="#191970" points="680.6136,-220.8007 690.6327,-224.2455 684.9486,-215.3046 680.6136,-220.8007"/>
</g>
<!-- Node13&#45;&gt;Node11 -->
<g id="edge26" class="edge">
<title>Node13&#45;&gt;Node11</title>
<path fill="none" stroke="#191970" d="M356.7089,-226.7858C423.318,-214.9816 553.5803,-191.8972 607.6123,-182.3219"/>
<polygon fill="#191970" stroke="#191970" points="355.8223,-223.3883 346.5865,-228.5796 357.0439,-230.2809 355.8223,-223.3883"/>
</g>
<!-- Node13&#45;&gt;Node14 -->
<g id="edge27" class="edge">
<title>Node13&#45;&gt;Node14</title>
<path fill="none" stroke="#191970" d="M306.002,-215.3372C301.0324,-206.0605 295.2356,-195.2398 291.1657,-187.6427"/>
<polygon fill="#191970" stroke="#191970" points="302.9669,-217.0835 310.7744,-224.2455 309.1373,-213.7779 302.9669,-217.0835"/>
</g>
<!-- Node14&#45;&gt;Node15 -->
<g id="edge28" class="edge">
<title>Node14&#45;&gt;Node15</title>
<path fill="none" stroke="#191970" d="M269.0751,-161.0751C259.4402,-151.4402 247.7196,-139.7196 239.6427,-131.6427"/>
<polygon fill="#191970" stroke="#191970" points="266.6996,-163.6493 276.2455,-168.2455 271.6493,-158.6996 266.6996,-163.6493"/>
</g>
<!-- Node14&#45;&gt;Node21 -->
<g id="edge29" class="edge">
<title>Node14&#45;&gt;Node21</title>
<path fill="none" stroke="#191970" d="M241.4506,-165.5882C204.5216,-155.2996 152.7998,-140.8895 119.1022,-131.5011"/>
<polygon fill="#191970" stroke="#191970" points="240.8744,-169.0609 251.4469,-168.3733 242.7531,-162.3177 240.8744,-169.0609"/>
</g>
<!-- Node14&#45;&gt;Node22 -->
<g id="edge30" class="edge">
<title>Node14&#45;&gt;Node22</title>
<path fill="none" stroke="#191970" d="M315.0537,-163.9741C336.0565,-153.8348 363.8691,-140.408 382.3191,-131.5011"/>
<polygon fill="#191970" stroke="#191970" points="313.425,-160.8738 305.9411,-168.3733 316.4683,-167.1776 313.425,-160.8738"/>
</g>
<!-- Node15&#45;&gt;Node16 -->
<g id="edge31" class="edge">
<title>Node15&#45;&gt;Node16</title>
<path fill="none" stroke="#191970" d="M278.7158,-109.982C320.4833,-99.6781 379.8481,-85.0331 418.3951,-75.5237"/>
<polygon fill="#191970" stroke="#191970" points="277.6354,-106.6435 268.7648,-112.4369 279.312,-113.4398 277.6354,-106.6435"/>
</g>
<!-- Node15&#45;&gt;Node18 -->
<g id="edge32" class="edge">
<title>Node15&#45;&gt;Node18</title>
<path fill="none" stroke="#191970" d="M218.8465,-103.6296C213.1753,-94.2887 206.5155,-83.3197 201.8545,-75.6427"/>
<polygon fill="#191970" stroke="#191970" points="215.8961,-105.5141 224.0777,-112.2455 221.8796,-101.8812 215.8961,-105.5141"/>
</g>
<!-- Node15&#45;&gt;Node19 -->
<g id="edge33" class="edge">
<title>Node15&#45;&gt;Node19</title>
<path fill="none" stroke="#191970" d="M251.7116,-106.2097C265.2353,-96.3743 282.1958,-84.0394 293.7413,-75.6427"/>
<polygon fill="#191970" stroke="#191970" points="249.4411,-103.5332 243.4124,-112.2455 253.5584,-109.1944 249.4411,-103.5332"/>
</g>
<!-- Node15&#45;&gt;Node20 -->
<g id="edge34" class="edge">
<title>Node15&#45;&gt;Node20</title>
<path fill="none" stroke="#191970" d="M188.7843,-109.4561C155.0084,-99.1765 107.9337,-84.8494 77.218,-75.5011"/>
<polygon fill="#191970" stroke="#191970" points="187.7834,-112.8099 198.3693,-112.3733 189.8216,-106.1132 187.7834,-112.8099"/>
</g>
<!-- Node16&#45;&gt;Node17 -->
<g id="edge35" class="edge">
<title>Node16&#45;&gt;Node17</title>
<path fill="none" stroke="#191970" d="M435.5703,-50.2097C422.2223,-40.3743 405.4821,-28.0394 394.0865,-19.6427"/>
<polygon fill="#191970" stroke="#191970" points="433.635,-53.1312 443.7618,-56.2455 437.7874,-47.4958 433.635,-53.1312"/>
</g>
<!-- Node20&#45;&gt;Node17 -->
<g id="edge36" class="edge">
<title>Node20&#45;&gt;Node17</title>
<path fill="none" stroke="#191970" d="M102.175,-56.6095C175.1796,-44.4058 299.7418,-23.5835 354.1937,-14.4811"/>
<polygon fill="#191970" stroke="#191970" points="101.5146,-53.1713 92.2286,-58.2722 102.6688,-60.0755 101.5146,-53.1713"/>
</g>
<!-- Node21&#45;&gt;Node17 -->
<g id="edge37" class="edge">
<title>Node21&#45;&gt;Node17</title>
<path fill="none" stroke="#191970" d="M95.422,-103.0477C104.7967,-87.8646 120.0017,-67.2968 139,-56 175.2073,-34.4704 298.9964,-18.836 354.1323,-12.7731"/>
<polygon fill="#191970" stroke="#191970" points="92.1562,-101.6982 90.1222,-112.096 98.1964,-105.2361 92.1562,-101.6982"/>
</g>
<!-- Node22&#45;&gt;Node17 -->
<g id="edge38" class="edge">
<title>Node22&#45;&gt;Node17</title>
<path fill="none" stroke="#191970" d="M398.3623,-102.5987C393.8181,-78.363 386.2228,-37.8551 382.7859,-19.5249"/>
<polygon fill="#191970" stroke="#191970" points="394.9265,-103.2673 400.2096,-112.4509 401.8066,-101.9772 394.9265,-103.2673"/>
</g>
<!-- Node24&#45;&gt;Node11 -->
<g id="edge39" class="edge">
<title>Node24&#45;&gt;Node11</title>
<path fill="none" stroke="#191970" d="M898.4266,-223.9268C802.7184,-206.3878 701.7418,-189.5047 656.3305,-181.9992"/>
<polygon fill="#191970" stroke="#191970" points="897.7983,-227.3698 908.2663,-225.7358 899.0641,-220.4852 897.7983,-227.3698"/>
</g>
<!-- Node24&#45;&gt;Node23 -->
<g id="edge40" class="edge">
<title>Node24&#45;&gt;Node23</title>
<path fill="none" stroke="#191970" d="M966.5969,-216.7884C975.8347,-207.2085 986.9904,-195.6396 994.7017,-187.6427"/>
<polygon fill="#191970" stroke="#191970" points="963.828,-214.6176 959.4061,-224.2455 968.8669,-219.4766 963.828,-214.6176"/>
</g>
<!-- Node25&#45;&gt;Node11 -->
<g id="edge41" class="edge">
<title>Node25&#45;&gt;Node11</title>
<path fill="none" stroke="#191970" d="M577.4297,-218.2097C590.7777,-208.3743 607.5179,-196.0394 618.9135,-187.6427"/>
<polygon fill="#191970" stroke="#191970" points="575.2126,-215.4958 569.2382,-224.2455 579.365,-221.1312 575.2126,-215.4958"/>
</g>
<!-- Node37&#45;&gt;Node8 -->
<g id="edge45" class="edge">
<title>Node37&#45;&gt;Node8</title>
<path fill="none" stroke="#191970" d="M1083.3375,-386.769C1067.9209,-376.8456 1048.274,-364.1994 1034.9806,-355.6427"/>
<polygon fill="#191970" stroke="#191970" points="1081.5427,-389.7761 1091.8458,-392.2455 1085.3315,-383.89 1081.5427,-389.7761"/>
</g>
<!-- Node38 -->
<g id="node25" class="node">
<title>Node38</title>
<g id="a_node25"><a xlink:href="inifile_8hpp.html" target="_top" xlink:title="inifile.hpp">
<polygon fill="#ffffff" stroke="#ff0000" points="1084,-336.5 1084,-355.5 1142,-355.5 1142,-336.5 1084,-336.5"/>
<text text-anchor="middle" x="1113" y="-343.5" font-family="Helvetica,sans-Serif" font-size="10.00" fill="#000000">inifile.hpp</text>
</a>
</g>
</g>
<!-- Node37&#45;&gt;Node38 -->
<g id="edge46" class="edge">
<title>Node37&#45;&gt;Node38</title>
<path fill="none" stroke="#191970" d="M1109.126,-382.1575C1110.0905,-373.155 1111.1872,-362.9199 1111.9669,-355.6427"/>
<polygon fill="#191970" stroke="#191970" points="1105.6305,-381.9296 1108.0451,-392.2455 1112.5906,-382.6753 1105.6305,-381.9296"/>
</g>
</g>
</svg>
