<?xml version="1.0" encoding="UTF-8" standalone="no"?>
<!DOCTYPE svg PUBLIC "-//W3C//DTD SVG 1.1//EN"
 "http://www.w3.org/Graphics/SVG/1.1/DTD/svg11.dtd">
<!-- Generated by graphviz version 2.40.1 (20161225.0304)
 -->
<!-- Title: variable.hpp Pages: 1 -->
<svg width="356pt" height="196pt"
 viewBox="0.00 0.00 355.50 196.00" xmlns="http://www.w3.org/2000/svg" xmlns:xlink="http://www.w3.org/1999/xlink">
<g id="graph0" class="graph" transform="scale(1 1) rotate(0) translate(4 192)">
<title>variable.hpp</title>
<polygon fill="#ffffff" stroke="transparent" points="-4,4 -4,-192 351.5,-192 351.5,4 -4,4"/>
<!-- Node0 -->
<g id="node1" class="node">
<title>Node0</title>
<polygon fill="#bfbfbf" stroke="#000000" points="162.5,-168.5 162.5,-187.5 231.5,-187.5 231.5,-168.5 162.5,-168.5"/>
<text text-anchor="middle" x="197" y="-175.5" font-family="Helvetica,sans-Serif" font-size="10.00" fill="#000000">variable.hpp</text>
</g>
<!-- Node1 -->
<g id="node2" class="node">
<title>Node1</title>
<g id="a_node2"><a xlink:href="configlib_8hpp.html" target="_top" xlink:title="alib/config/configlib.hpp">
<polygon fill="#ffffff" stroke="#000000" points="137.5,-112.5 137.5,-131.5 256.5,-131.5 256.5,-112.5 137.5,-112.5"/>
<text text-anchor="middle" x="197" y="-119.5" font-family="Helvetica,sans-Serif" font-size="10.00" fill="#000000">alib/config/configlib.hpp</text>
</a>
</g>
</g>
<!-- Node0&#45;&gt;Node1 -->
<g id="edge1" class="edge">
<title>Node0&#45;&gt;Node1</title>
<path fill="none" stroke="#191970" d="M197,-168.2455C197,-160.9382 197,-150.6944 197,-141.7046"/>
<polygon fill="#191970" stroke="#191970" points="200.5001,-141.6426 197,-131.6427 193.5001,-141.6427 200.5001,-141.6426"/>
</g>
<!-- Node2 -->
<g id="node3" class="node">
<title>Node2</title>
<g id="a_node3"><a xlink:href="exception_8hpp.html" target="_top" xlink:title="alib/lang/exception.hpp">
<polygon fill="#ffffff" stroke="#000000" points="64,-56.5 64,-75.5 180,-75.5 180,-56.5 64,-56.5"/>
<text text-anchor="middle" x="122" y="-63.5" font-family="Helvetica,sans-Serif" font-size="10.00" fill="#000000">alib/lang/exception.hpp</text>
</a>
</g>
</g>
<!-- Node1&#45;&gt;Node2 -->
<g id="edge2" class="edge">
<title>Node1&#45;&gt;Node2</title>
<path fill="none" stroke="#191970" d="M183.936,-112.2455C172.6438,-103.814 156.1155,-91.4729 142.9729,-81.6598"/>
<polygon fill="#191970" stroke="#191970" points="145.0211,-78.8211 134.9143,-75.6427 140.8331,-84.4301 145.0211,-78.8211"/>
</g>
<!-- Node6 -->
<g id="node4" class="node">
<title>Node6</title>
<g id="a_node4"><a xlink:href="enumarithmetical_8hpp.html" target="_top" xlink:title="alib/lang/enumarithmetical.hpp">
<polygon fill="#ffffff" stroke="#000000" points="198.5,-56.5 198.5,-75.5 347.5,-75.5 347.5,-56.5 198.5,-56.5"/>
<text text-anchor="middle" x="273" y="-63.5" font-family="Helvetica,sans-Serif" font-size="10.00" fill="#000000">alib/lang/enumarithmetical.hpp</text>
</a>
</g>
</g>
<!-- Node1&#45;&gt;Node6 -->
<g id="edge3" class="edge">
<title>Node1&#45;&gt;Node6</title>
<path fill="none" stroke="#191970" d="M210.2382,-112.2455C221.681,-103.814 238.4296,-91.4729 251.7475,-81.6598"/>
<polygon fill="#191970" stroke="#191970" points="253.9391,-84.3924 259.9135,-75.6427 249.7867,-78.757 253.9391,-84.3924"/>
</g>
<!-- Node3 -->
<g id="node5" class="node">
<title>Node3</title>
<g id="a_node5"><a xlink:href="enum_8hpp.html" target="_top" xlink:title="alib/lang/enum.hpp">
<polygon fill="#ffffff" stroke="#ff0000" points="0,-.5 0,-19.5 98,-19.5 98,-.5 0,-.5"/>
<text text-anchor="middle" x="49" y="-7.5" font-family="Helvetica,sans-Serif" font-size="10.00" fill="#000000">alib/lang/enum.hpp</text>
</a>
</g>
</g>
<!-- Node2&#45;&gt;Node3 -->
<g id="edge4" class="edge">
<title>Node2&#45;&gt;Node3</title>
<path fill="none" stroke="#191970" d="M109.2844,-56.2455C98.398,-47.8943 82.5117,-35.7076 69.78,-25.9408"/>
<polygon fill="#191970" stroke="#191970" points="71.6346,-22.9523 61.5699,-19.6427 67.3739,-28.5063 71.6346,-22.9523"/>
</g>
<!-- Node5 -->
<g id="node6" class="node">
<title>Node5</title>
<g id="a_node6"><a xlink:href="enummetadataspec_8hpp.html" target="_top" xlink:title="alib/lang/enummetadataspec.hpp">
<polygon fill="#ffffff" stroke="#000000" points="116,-.5 116,-19.5 276,-19.5 276,-.5 116,-.5"/>
<text text-anchor="middle" x="196" y="-7.5" font-family="Helvetica,sans-Serif" font-size="10.00" fill="#000000">alib/lang/enummetadataspec.hpp</text>
</a>
</g>
</g>
<!-- Node2&#45;&gt;Node5 -->
<g id="edge5" class="edge">
<title>Node2&#45;&gt;Node5</title>
<path fill="none" stroke="#191970" d="M134.8898,-56.2455C145.9254,-47.8943 162.0292,-35.7076 174.9353,-25.9408"/>
<polygon fill="#191970" stroke="#191970" points="177.3959,-28.4681 183.2579,-19.6427 173.1717,-22.8862 177.3959,-28.4681"/>
</g>
</g>
</svg>
