<?xml version="1.0" encoding="UTF-8" standalone="no"?>
<!DOCTYPE svg PUBLIC "-//W3C//DTD SVG 1.1//EN"
 "http://www.w3.org/Graphics/SVG/1.1/DTD/svg11.dtd">
<!-- Generated by graphviz version 2.40.1 (20161225.0304)
 -->
<!-- Title: windowsconsolelogger.hpp Pages: 1 -->
<svg width="3639pt" height="476pt"
 viewBox="0.00 0.00 3638.50 476.00" xmlns="http://www.w3.org/2000/svg" xmlns:xlink="http://www.w3.org/1999/xlink">
<g id="graph0" class="graph" transform="scale(1 1) rotate(0) translate(4 472)">
<title>windowsconsolelogger.hpp</title>
<polygon fill="#ffffff" stroke="transparent" points="-4,4 -4,-472 3634.5,-472 3634.5,4 -4,4"/>
<!-- Node0 -->
<g id="node1" class="node">
<title>Node0</title>
<polygon fill="#bfbfbf" stroke="#000000" points="663.5,-448.5 663.5,-467.5 796.5,-467.5 796.5,-448.5 663.5,-448.5"/>
<text text-anchor="middle" x="730" y="-455.5" font-family="Helvetica,sans-Serif" font-size="10.00" fill="#000000">windowsconsolelogger.hpp</text>
</g>
<!-- Node1 -->
<g id="node2" class="node">
<title>Node1</title>
<g id="a_node2"><a xlink:href="alox_2alox_8hpp.html" target="_top" xlink:title="alib/alox/alox.hpp">
<polygon fill="#ffffff" stroke="#000000" points="494,-336.5 494,-355.5 586,-355.5 586,-336.5 494,-336.5"/>
<text text-anchor="middle" x="540" y="-343.5" font-family="Helvetica,sans-Serif" font-size="10.00" fill="#000000">alib/alox/alox.hpp</text>
</a>
</g>
</g>
<!-- Node0&#45;&gt;Node1 -->
<g id="edge1" class="edge">
<title>Node0&#45;&gt;Node1</title>
<path fill="none" stroke="#191970" d="M713.8007,-448.4509C680.5685,-428.8615 604.4901,-384.0152 564.9282,-360.6945"/>
<polygon fill="#191970" stroke="#191970" points="566.5503,-357.5879 556.1583,-355.5249 562.9956,-363.6182 566.5503,-357.5879"/>
</g>
<!-- Node93 -->
<g id="node3" class="node">
<title>Node93</title>
<g id="a_node3"><a xlink:href="textlogger_8hpp.html" target="_top" xlink:title="alib/alox/core/textlogger/textlogger.hpp">
<polygon fill="#ffffff" stroke="#000000" points="827,-392.5 827,-411.5 1011,-411.5 1011,-392.5 827,-392.5"/>
<text text-anchor="middle" x="919" y="-399.5" font-family="Helvetica,sans-Serif" font-size="10.00" fill="#000000">alib/alox/core/textlogger/textlogger.hpp</text>
</a>
</g>
</g>
<!-- Node0&#45;&gt;Node93 -->
<g id="edge2" class="edge">
<title>Node0&#45;&gt;Node93</title>
<path fill="none" stroke="#191970" d="M762.4903,-448.3733C794.1902,-438.9807 842.5576,-424.6496 877.1286,-414.4064"/>
<polygon fill="#191970" stroke="#191970" points="878.3401,-417.6979 886.9337,-411.5011 876.3514,-410.9863 878.3401,-417.6979"/>
</g>
<!-- Node2 -->
<g id="node4" class="node">
<title>Node2</title>
<g id="a_node4"><a xlink:href="alib_8hpp.html" target="_top" xlink:title="alib/alib.hpp">
<polygon fill="#ffffff" stroke="#000000" points="2066,-56.5 2066,-75.5 2134,-75.5 2134,-56.5 2066,-56.5"/>
<text text-anchor="middle" x="2100" y="-63.5" font-family="Helvetica,sans-Serif" font-size="10.00" fill="#000000">alib/alib.hpp</text>
</a>
</g>
</g>
<!-- Node1&#45;&gt;Node2 -->
<g id="edge3" class="edge">
<title>Node1&#45;&gt;Node2</title>
<path fill="none" stroke="#191970" d="M586.1713,-337.3372C589.1551,-336.8603 592.1174,-336.4095 595,-336 704.8115,-320.4012 1588,-344.9139 1588,-234 1588,-234 1588,-234 1588,-178 1588,-130.3191 1931.2443,-85.6338 2055.6505,-71.0038"/>
<polygon fill="#191970" stroke="#191970" points="2056.0842,-74.477 2065.6112,-69.8418 2055.273,-67.5242 2056.0842,-74.477"/>
</g>
<!-- Node58 -->
<g id="node5" class="node">
<title>Node58</title>
<g id="a_node5"><a xlink:href="alox__symbols_8hpp.html" target="_top" xlink:title="internals/alox_symbols.hpp">
<polygon fill="#ffffff" stroke="#000000" points="321.5,-280.5 321.5,-299.5 456.5,-299.5 456.5,-280.5 321.5,-280.5"/>
<text text-anchor="middle" x="389" y="-287.5" font-family="Helvetica,sans-Serif" font-size="10.00" fill="#000000">internals/alox_symbols.hpp</text>
</a>
</g>
</g>
<!-- Node1&#45;&gt;Node58 -->
<g id="edge4" class="edge">
<title>Node1&#45;&gt;Node58</title>
<path fill="none" stroke="#191970" d="M514.0422,-336.3733C489.2593,-327.1822 451.7254,-313.2624 424.246,-303.0713"/>
<polygon fill="#191970" stroke="#191970" points="425.2121,-299.6968 414.6191,-299.5011 422.7781,-306.26 425.2121,-299.6968"/>
</g>
<!-- Node59 -->
<g id="node6" class="node">
<title>Node59</title>
<g id="a_node6"><a xlink:href="alox__macros_8hpp.html" target="_top" xlink:title="internals/alox_macros.hpp">
<polygon fill="#ffffff" stroke="#000000" points="474.5,-280.5 474.5,-299.5 605.5,-299.5 605.5,-280.5 474.5,-280.5"/>
<text text-anchor="middle" x="540" y="-287.5" font-family="Helvetica,sans-Serif" font-size="10.00" fill="#000000">internals/alox_macros.hpp</text>
</a>
</g>
</g>
<!-- Node1&#45;&gt;Node59 -->
<g id="edge5" class="edge">
<title>Node1&#45;&gt;Node59</title>
<path fill="none" stroke="#191970" d="M540,-336.2455C540,-328.9382 540,-318.6944 540,-309.7046"/>
<polygon fill="#191970" stroke="#191970" points="543.5001,-309.6426 540,-299.6427 536.5001,-309.6427 543.5001,-309.6426"/>
</g>
<!-- Node60 -->
<g id="node7" class="node">
<title>Node60</title>
<g id="a_node7"><a xlink:href="configuration_8hpp.html" target="_top" xlink:title="alib/config/configuration.hpp">
<polygon fill="#ffffff" stroke="#000000" points="671,-224.5 671,-243.5 809,-243.5 809,-224.5 671,-224.5"/>
<text text-anchor="middle" x="740" y="-231.5" font-family="Helvetica,sans-Serif" font-size="10.00" fill="#000000">alib/config/configuration.hpp</text>
</a>
</g>
</g>
<!-- Node1&#45;&gt;Node60 -->
<g id="edge6" class="edge">
<title>Node1&#45;&gt;Node60</title>
<path fill="none" stroke="#191970" d="M586.2006,-337.5242C589.1771,-337.0015 592.1299,-336.4895 595,-336 645.1317,-327.4508 787.9892,-338.6854 821,-300 838.9311,-278.9866 806.8661,-259.6185 777.9417,-247.374"/>
<polygon fill="#191970" stroke="#191970" points="778.9132,-243.9922 768.3297,-243.5026 776.2979,-250.4853 778.9132,-243.9922"/>
</g>
<!-- Node75 -->
<g id="node8" class="node">
<title>Node75</title>
<g id="a_node8"><a xlink:href="aloxtypesandenums_8hpp.html" target="_top" xlink:title="aloxtypesandenums.hpp">
<polygon fill="#ffffff" stroke="#000000" points="624,-280.5 624,-299.5 746,-299.5 746,-280.5 624,-280.5"/>
<text text-anchor="middle" x="685" y="-287.5" font-family="Helvetica,sans-Serif" font-size="10.00" fill="#000000">aloxtypesandenums.hpp</text>
</a>
</g>
</g>
<!-- Node1&#45;&gt;Node75 -->
<g id="edge7" class="edge">
<title>Node1&#45;&gt;Node75</title>
<path fill="none" stroke="#191970" d="M564.9264,-336.3733C588.6202,-327.2226 624.4511,-313.3844 650.8068,-303.2057"/>
<polygon fill="#191970" stroke="#191970" points="652.3314,-306.3689 660.3989,-299.5011 649.8094,-299.8389 652.3314,-306.3689"/>
</g>
<!-- Node76 -->
<g id="node9" class="node">
<title>Node76</title>
<g id="a_node9"><a xlink:href="log_8hpp.html" target="_top" xlink:title="log.hpp">
<polygon fill="#ffffff" stroke="#000000" points="764,-280.5 764,-299.5 812,-299.5 812,-280.5 764,-280.5"/>
<text text-anchor="middle" x="788" y="-287.5" font-family="Helvetica,sans-Serif" font-size="10.00" fill="#000000">log.hpp</text>
</a>
</g>
</g>
<!-- Node1&#45;&gt;Node76 -->
<g id="edge8" class="edge">
<title>Node1&#45;&gt;Node76</title>
<path fill="none" stroke="#191970" d="M583.1019,-336.485C624.9869,-327.9053 690.0045,-314.4475 746,-300 748.5741,-299.3359 751.248,-298.6012 753.9568,-297.8406"/>
<polygon fill="#191970" stroke="#191970" points="755.1351,-301.1446 763.802,-295.0507 753.2266,-294.4098 755.1351,-301.1446"/>
</g>
<!-- Node77 -->
<g id="node10" class="node">
<title>Node77</title>
<g id="a_node10"><a xlink:href="lox_8hpp.html" target="_top" xlink:title="lox.hpp">
<polygon fill="#ffffff" stroke="#ff0000" points="255,-280.5 255,-299.5 303,-299.5 303,-280.5 255,-280.5"/>
<text text-anchor="middle" x="279" y="-287.5" font-family="Helvetica,sans-Serif" font-size="10.00" fill="#000000">lox.hpp</text>
</a>
</g>
</g>
<!-- Node1&#45;&gt;Node77 -->
<g id="edge9" class="edge">
<title>Node1&#45;&gt;Node77</title>
<path fill="none" stroke="#191970" d="M493.6997,-339.1567C447.8497,-331.4212 375.8556,-317.8719 311.1483,-302.011"/>
<polygon fill="#191970" stroke="#191970" points="311.7941,-298.5651 301.2452,-299.5505 310.1062,-305.3585 311.7941,-298.5651"/>
</g>
<!-- Node93&#45;&gt;Node1 -->
<g id="edge63" class="edge">
<title>Node93&#45;&gt;Node1</title>
<path fill="none" stroke="#191970" d="M846.1735,-392.4827C782.7385,-384.0041 688.0327,-370.8938 596.2147,-356.1506"/>
<polygon fill="#191970" stroke="#191970" points="596.6211,-352.671 586.1911,-354.5327 595.5056,-359.5816 596.6211,-352.671"/>
</g>
<!-- Node89 -->
<g id="node45" class="node">
<title>Node89</title>
<g id="a_node45"><a xlink:href="logger_8hpp.html" target="_top" xlink:title="alib/alox/core/logger.hpp">
<polygon fill="#ffffff" stroke="#ff0000" points="827,-224.5 827,-243.5 949,-243.5 949,-224.5 827,-224.5"/>
<text text-anchor="middle" x="888" y="-231.5" font-family="Helvetica,sans-Serif" font-size="10.00" fill="#000000">alib/alox/core/logger.hpp</text>
</a>
</g>
</g>
<!-- Node93&#45;&gt;Node89 -->
<g id="edge64" class="edge">
<title>Node93&#45;&gt;Node89</title>
<path fill="none" stroke="#191970" d="M970.5163,-392.4313C1006.7394,-382.9969 1046.2427,-365.5953 1031,-336 1008.4735,-292.2622 957.5462,-263.1419 922.9612,-247.5858"/>
<polygon fill="#191970" stroke="#191970" points="924.2438,-244.3271 913.677,-243.557 921.4572,-250.7486 924.2438,-244.3271"/>
</g>
<!-- Node94 -->
<g id="node47" class="node">
<title>Node94</title>
<g id="a_node47"><a xlink:href="calendar_8hpp.html" target="_top" xlink:title="alib/time/calendar.hpp">
<polygon fill="#ffffff" stroke="#ff0000" points="1078.5,-336.5 1078.5,-355.5 1189.5,-355.5 1189.5,-336.5 1078.5,-336.5"/>
<text text-anchor="middle" x="1134" y="-343.5" font-family="Helvetica,sans-Serif" font-size="10.00" fill="#000000">alib/time/calendar.hpp</text>
</a>
</g>
</g>
<!-- Node93&#45;&gt;Node94 -->
<g id="edge65" class="edge">
<title>Node93&#45;&gt;Node94</title>
<path fill="none" stroke="#191970" d="M955.9598,-392.3733C992.4075,-382.8799 1048.2246,-368.3415 1087.6289,-358.0781"/>
<polygon fill="#191970" stroke="#191970" points="1088.7276,-361.4087 1097.5225,-355.5011 1086.9631,-354.6348 1088.7276,-361.4087"/>
</g>
<!-- Node96 -->
<g id="node48" class="node">
<title>Node96</title>
<g id="a_node48"><a xlink:href="ticksconverter_8hpp.html" target="_top" xlink:title="alib/time/ticksconverter.hpp">
<polygon fill="#ffffff" stroke="#ff0000" points="1208,-336.5 1208,-355.5 1344,-355.5 1344,-336.5 1208,-336.5"/>
<text text-anchor="middle" x="1276" y="-343.5" font-family="Helvetica,sans-Serif" font-size="10.00" fill="#000000">alib/time/ticksconverter.hpp</text>
</a>
</g>
</g>
<!-- Node93&#45;&gt;Node96 -->
<g id="edge66" class="edge">
<title>Node93&#45;&gt;Node96</title>
<path fill="none" stroke="#191970" d="M979.9649,-392.4369C1042.3462,-382.6516 1139.2037,-367.4582 1205.0029,-357.1368"/>
<polygon fill="#191970" stroke="#191970" points="1205.9498,-360.5311 1215.2866,-355.5237 1204.865,-353.6157 1205.9498,-360.5311"/>
</g>
<!-- Node97 -->
<g id="node49" class="node">
<title>Node97</title>
<g id="a_node49"><a xlink:href="formatterjavastyle_8hpp.html" target="_top" xlink:title="alib/strings/format/formatterjavastyle.hpp">
<polygon fill="#ffffff" stroke="#ff0000" points="604,-336.5 604,-355.5 798,-355.5 798,-336.5 604,-336.5"/>
<text text-anchor="middle" x="701" y="-343.5" font-family="Helvetica,sans-Serif" font-size="10.00" fill="#000000">alib/strings/format/formatterjavastyle.hpp</text>
</a>
</g>
</g>
<!-- Node93&#45;&gt;Node97 -->
<g id="edge67" class="edge">
<title>Node93&#45;&gt;Node97</title>
<path fill="none" stroke="#191970" d="M881.5245,-392.3733C844.4897,-382.8598 787.7318,-368.2797 747.7639,-358.0127"/>
<polygon fill="#191970" stroke="#191970" points="748.5429,-354.5993 737.9865,-355.5011 746.8012,-361.3792 748.5429,-354.5993"/>
</g>
<!-- Node100 -->
<g id="node50" class="node">
<title>Node100</title>
<g id="a_node50"><a xlink:href="formatterpythonstyle_8hpp.html" target="_top" xlink:title="alib/strings/format/formatterpythonstyle.hpp">
<polygon fill="#ffffff" stroke="#ff0000" points="816,-336.5 816,-355.5 1022,-355.5 1022,-336.5 816,-336.5"/>
<text text-anchor="middle" x="919" y="-343.5" font-family="Helvetica,sans-Serif" font-size="10.00" fill="#000000">alib/strings/format/formatterpythonstyle.hpp</text>
</a>
</g>
</g>
<!-- Node93&#45;&gt;Node100 -->
<g id="edge68" class="edge">
<title>Node93&#45;&gt;Node100</title>
<path fill="none" stroke="#191970" d="M919,-392.2455C919,-384.9382 919,-374.6944 919,-365.7046"/>
<polygon fill="#191970" stroke="#191970" points="922.5001,-365.6426 919,-355.6427 915.5001,-365.6427 922.5001,-365.6426"/>
</g>
<!-- Node3 -->
<g id="node11" class="node">
<title>Node3</title>
<polygon fill="#ffffff" stroke="#bfbfbf" points="3331,-.5 3331,-19.5 3383,-19.5 3383,-.5 3331,-.5"/>
<text text-anchor="middle" x="3357" y="-7.5" font-family="Helvetica,sans-Serif" font-size="10.00" fill="#000000">assert.h</text>
</g>
<!-- Node2&#45;&gt;Node3 -->
<g id="edge10" class="edge">
<title>Node2&#45;&gt;Node3</title>
<path fill="none" stroke="#191970" d="M2134.0454,-65.8239C2304.1362,-64.7778 3063.5098,-58.1053 3320.7413,-19.7774"/>
<polygon fill="#191970" stroke="#191970" points="3321.4323,-23.2123 3330.7795,-18.2243 3320.3619,-16.2946 3321.4323,-23.2123"/>
</g>
<!-- Node4 -->
<g id="node12" class="node">
<title>Node4</title>
<polygon fill="#ffffff" stroke="#bfbfbf" points="3401.5,-.5 3401.5,-19.5 3446.5,-19.5 3446.5,-.5 3401.5,-.5"/>
<text text-anchor="middle" x="3424" y="-7.5" font-family="Helvetica,sans-Serif" font-size="10.00" fill="#000000">iosfwd</text>
</g>
<!-- Node2&#45;&gt;Node4 -->
<g id="edge11" class="edge">
<title>Node2&#45;&gt;Node4</title>
<path fill="none" stroke="#191970" d="M2134.2721,-65.3269C2322.2119,-61.5641 3225.0055,-42.5443 3391.5668,-19.3947"/>
<polygon fill="#191970" stroke="#191970" points="3392.1107,-22.8523 3401.4578,-17.8641 3391.0401,-15.9346 3392.1107,-22.8523"/>
</g>
<!-- Node5 -->
<g id="node13" class="node">
<title>Node5</title>
<polygon fill="#ffffff" stroke="#bfbfbf" points="3465,-.5 3465,-19.5 3511,-19.5 3511,-.5 3465,-.5"/>
<text text-anchor="middle" x="3488" y="-7.5" font-family="Helvetica,sans-Serif" font-size="10.00" fill="#000000">cstdint</text>
</g>
<!-- Node2&#45;&gt;Node5 -->
<g id="edge12" class="edge">
<title>Node2&#45;&gt;Node5</title>
<path fill="none" stroke="#191970" d="M2134.0194,-65.393C2326.9654,-61.8792 3280.9851,-43.5314 3454.6755,-19.6041"/>
<polygon fill="#191970" stroke="#191970" points="3455.4052,-23.0332 3464.7587,-18.0571 3454.3435,-16.1142 3455.4052,-23.0332"/>
</g>
<!-- Node6 -->
<g id="node14" class="node">
<title>Node6</title>
<g id="a_node14"><a xlink:href="prepro_8hpp.html" target="_top" xlink:title="alib/lang/prepro.hpp">
<polygon fill="#ffffff" stroke="#000000" points="3529.5,-.5 3529.5,-19.5 3630.5,-19.5 3630.5,-.5 3529.5,-.5"/>
<text text-anchor="middle" x="3580" y="-7.5" font-family="Helvetica,sans-Serif" font-size="10.00" fill="#000000">alib/lang/prepro.hpp</text>
</a>
</g>
</g>
<!-- Node2&#45;&gt;Node6 -->
<g id="edge13" class="edge">
<title>Node2&#45;&gt;Node6</title>
<path fill="none" stroke="#191970" d="M2134.0572,-65.5114C2320.3392,-62.7466 3218.1604,-48.2105 3519.296,-19.9017"/>
<polygon fill="#191970" stroke="#191970" points="3519.7075,-23.3783 3529.3241,-18.9318 3519.0336,-16.4109 3519.7075,-23.3783"/>
</g>
<!-- Node7 -->
<g id="node15" class="node">
<title>Node7</title>
<g id="a_node15"><a xlink:href="types_8hpp.html" target="_top" xlink:title="alib/lang/types.hpp">
<polygon fill="#ffffff" stroke="#000000" points="865,-.5 865,-19.5 963,-19.5 963,-.5 865,-.5"/>
<text text-anchor="middle" x="914" y="-7.5" font-family="Helvetica,sans-Serif" font-size="10.00" fill="#000000">alib/lang/types.hpp</text>
</a>
</g>
</g>
<!-- Node2&#45;&gt;Node7 -->
<g id="edge14" class="edge">
<title>Node2&#45;&gt;Node7</title>
<path fill="none" stroke="#191970" d="M2065.9602,-65.2095C1904.2707,-61.3647 1212.1098,-43.8691 973.3067,-19.9819"/>
<polygon fill="#191970" stroke="#191970" points="973.6066,-16.4944 963.3,-18.9487 972.8876,-23.4574 973.6066,-16.4944"/>
</g>
<!-- Node8 -->
<g id="node16" class="node">
<title>Node8</title>
<g id="a_node16"><a xlink:href="assert_8hpp.html" target="_top" xlink:title="alib/debug/assert.hpp">
<polygon fill="#ffffff" stroke="#000000" points="981,-.5 981,-19.5 1091,-19.5 1091,-.5 981,-.5"/>
<text text-anchor="middle" x="1036" y="-7.5" font-family="Helvetica,sans-Serif" font-size="10.00" fill="#000000">alib/debug/assert.hpp</text>
</a>
</g>
</g>
<!-- Node2&#45;&gt;Node8 -->
<g id="edge15" class="edge">
<title>Node2&#45;&gt;Node8</title>
<path fill="none" stroke="#191970" d="M2065.7978,-65.7764C1939.2466,-64.6653 1485.4667,-58.1652 1101.311,-20.0233"/>
<polygon fill="#191970" stroke="#191970" points="1101.4079,-16.5156 1091.1088,-19.0012 1100.7101,-23.4807 1101.4079,-16.5156"/>
</g>
<!-- Node9 -->
<g id="node17" class="node">
<title>Node9</title>
<g id="a_node17"><a xlink:href="rtti_8hpp.html" target="_top" xlink:title="alib/lang/rtti.hpp">
<polygon fill="#ffffff" stroke="#ff0000" points="1109,-.5 1109,-19.5 1195,-19.5 1195,-.5 1109,-.5"/>
<text text-anchor="middle" x="1152" y="-7.5" font-family="Helvetica,sans-Serif" font-size="10.00" fill="#000000">alib/lang/rtti.hpp</text>
</a>
</g>
</g>
<!-- Node2&#45;&gt;Node9 -->
<g id="edge16" class="edge">
<title>Node2&#45;&gt;Node9</title>
<path fill="none" stroke="#191970" d="M2065.9067,-64.8656C1923.6026,-60.0351 1376.4819,-40.4892 1205,-20 1204.8983,-19.9878 1204.7965,-19.9756 1204.6946,-19.9633"/>
<polygon fill="#191970" stroke="#191970" points="1205.4096,-16.5291 1195.0233,-18.621 1204.4472,-23.4626 1205.4096,-16.5291"/>
</g>
<!-- Node13 -->
<g id="node18" class="node">
<title>Node13</title>
<g id="a_node18"><a xlink:href="singleton_8hpp.html" target="_top" xlink:title="alib/lang/singleton.hpp">
<polygon fill="#ffffff" stroke="#ff0000" points="1213.5,-.5 1213.5,-19.5 1326.5,-19.5 1326.5,-.5 1213.5,-.5"/>
<text text-anchor="middle" x="1270" y="-7.5" font-family="Helvetica,sans-Serif" font-size="10.00" fill="#000000">alib/lang/singleton.hpp</text>
</a>
</g>
</g>
<!-- Node2&#45;&gt;Node13 -->
<g id="edge17" class="edge">
<title>Node2&#45;&gt;Node13</title>
<path fill="none" stroke="#191970" d="M2065.6422,-65.0365C1959.1119,-61.8152 1624.7666,-49.9482 1337.0544,-20.0173"/>
<polygon fill="#191970" stroke="#191970" points="1337.1505,-16.5082 1326.8397,-18.9449 1336.4196,-23.47 1337.1505,-16.5082"/>
</g>
<!-- Node15 -->
<g id="node19" class="node">
<title>Node15</title>
<g id="a_node19"><a xlink:href="enums_8hpp.html" target="_top" xlink:title="alib/lang/enums.hpp">
<polygon fill="#ffffff" stroke="#000000" points="1345,-.5 1345,-19.5 1449,-19.5 1449,-.5 1345,-.5"/>
<text text-anchor="middle" x="1397" y="-7.5" font-family="Helvetica,sans-Serif" font-size="10.00" fill="#000000">alib/lang/enums.hpp</text>
</a>
</g>
</g>
<!-- Node2&#45;&gt;Node15 -->
<g id="edge18" class="edge">
<title>Node2&#45;&gt;Node15</title>
<path fill="none" stroke="#191970" d="M2065.8504,-64.6121C1969.9449,-60.4856 1690.068,-46.8724 1459,-20 1458.8985,-19.9882 1458.7968,-19.9763 1458.6951,-19.9644"/>
<polygon fill="#191970" stroke="#191970" points="1459.4107,-16.5274 1449.0488,-18.7368 1458.5269,-23.4713 1459.4107,-16.5274"/>
</g>
<!-- Node16 -->
<g id="node20" class="node">
<title>Node16</title>
<g id="a_node20"><a xlink:href="strings_2strings_8hpp.html" target="_top" xlink:title="alib/strings/strings.hpp">
<polygon fill="#ffffff" stroke="#ff0000" points="1467.5,-.5 1467.5,-19.5 1582.5,-19.5 1582.5,-.5 1467.5,-.5"/>
<text text-anchor="middle" x="1525" y="-7.5" font-family="Helvetica,sans-Serif" font-size="10.00" fill="#000000">alib/strings/strings.hpp</text>
</a>
</g>
</g>
<!-- Node2&#45;&gt;Node16 -->
<g id="edge19" class="edge">
<title>Node2&#45;&gt;Node16</title>
<path fill="none" stroke="#191970" d="M2065.7389,-63.5855C1985.2307,-57.7647 1777.5179,-41.8918 1592.8818,-20.0427"/>
<polygon fill="#191970" stroke="#191970" points="1593.059,-16.5392 1582.715,-18.8307 1592.2303,-23.49 1593.059,-16.5392"/>
</g>
<!-- Node25 -->
<g id="node21" class="node">
<title>Node25</title>
<g id="a_node21"><a xlink:href="astring_8hpp.html" target="_top" xlink:title="alib/strings/astring.hpp">
<polygon fill="#ffffff" stroke="#ff0000" points="1600.5,-.5 1600.5,-19.5 1715.5,-19.5 1715.5,-.5 1600.5,-.5"/>
<text text-anchor="middle" x="1658" y="-7.5" font-family="Helvetica,sans-Serif" font-size="10.00" fill="#000000">alib/strings/astring.hpp</text>
</a>
</g>
</g>
<!-- Node2&#45;&gt;Node25 -->
<g id="edge20" class="edge">
<title>Node2&#45;&gt;Node25</title>
<path fill="none" stroke="#191970" d="M2065.8362,-62.1117C2001.5547,-54.7302 1857.9742,-37.9334 1726.0178,-20.1091"/>
<polygon fill="#191970" stroke="#191970" points="1726.1095,-16.5896 1715.7299,-18.7141 1725.1689,-23.5261 1726.1095,-16.5896"/>
</g>
<!-- Node27 -->
<g id="node22" class="node">
<title>Node27</title>
<g id="a_node22"><a xlink:href="preallocatedstring_8hpp.html" target="_top" xlink:title="alib/strings/preallocatedstring.hpp">
<polygon fill="#ffffff" stroke="#000000" points="1734,-.5 1734,-19.5 1896,-19.5 1896,-.5 1734,-.5"/>
<text text-anchor="middle" x="1815" y="-7.5" font-family="Helvetica,sans-Serif" font-size="10.00" fill="#000000">alib/strings/preallocatedstring.hpp</text>
</a>
</g>
</g>
<!-- Node2&#45;&gt;Node27 -->
<g id="edge21" class="edge">
<title>Node2&#45;&gt;Node27</title>
<path fill="none" stroke="#191970" d="M2065.9054,-59.3007C2018.3763,-49.9617 1931.5264,-32.8964 1873.5277,-21.5002"/>
<polygon fill="#191970" stroke="#191970" points="1873.8947,-18.0054 1863.4075,-19.5117 1872.545,-24.8741 1873.8947,-18.0054"/>
</g>
<!-- Node28 -->
<g id="node23" class="node">
<title>Node28</title>
<g id="a_node23"><a xlink:href="resources_8hpp.html" target="_top" xlink:title="alib/lang/resources.hpp">
<polygon fill="#ffffff" stroke="#ff0000" points="1914.5,-.5 1914.5,-19.5 2031.5,-19.5 2031.5,-.5 1914.5,-.5"/>
<text text-anchor="middle" x="1973" y="-7.5" font-family="Helvetica,sans-Serif" font-size="10.00" fill="#000000">alib/lang/resources.hpp</text>
</a>
</g>
</g>
<!-- Node2&#45;&gt;Node28 -->
<g id="edge22" class="edge">
<title>Node2&#45;&gt;Node28</title>
<path fill="none" stroke="#191970" d="M2078.1679,-56.3733C2057.6897,-47.3435 2026.8601,-33.7494 2003.8681,-23.6111"/>
<polygon fill="#191970" stroke="#191970" points="2005.1093,-20.3333 1994.5472,-19.5011 2002.285,-26.7383 2005.1093,-20.3333"/>
</g>
<!-- Node32 -->
<g id="node24" class="node">
<title>Node32</title>
<g id="a_node24"><a xlink:href="library_8hpp.html" target="_top" xlink:title="alib/lang/library.hpp">
<polygon fill="#ffffff" stroke="#000000" points="2050,-.5 2050,-19.5 2150,-19.5 2150,-.5 2050,-.5"/>
<text text-anchor="middle" x="2100" y="-7.5" font-family="Helvetica,sans-Serif" font-size="10.00" fill="#000000">alib/lang/library.hpp</text>
</a>
</g>
</g>
<!-- Node2&#45;&gt;Node32 -->
<g id="edge23" class="edge">
<title>Node2&#45;&gt;Node32</title>
<path fill="none" stroke="#191970" d="M2100,-56.2455C2100,-48.9382 2100,-38.6944 2100,-29.7046"/>
<polygon fill="#191970" stroke="#191970" points="2103.5001,-29.6426 2100,-19.6427 2096.5001,-29.6427 2103.5001,-29.6426"/>
</g>
<!-- Node33 -->
<g id="node25" class="node">
<title>Node33</title>
<g id="a_node25"><a xlink:href="stringlib_8hpp.html" target="_top" xlink:title="alib/strings/stringlib.hpp">
<polygon fill="#ffffff" stroke="#000000" points="2168.5,-.5 2168.5,-19.5 2287.5,-19.5 2287.5,-.5 2168.5,-.5"/>
<text text-anchor="middle" x="2228" y="-7.5" font-family="Helvetica,sans-Serif" font-size="10.00" fill="#000000">alib/strings/stringlib.hpp</text>
</a>
</g>
</g>
<!-- Node2&#45;&gt;Node33 -->
<g id="edge24" class="edge">
<title>Node2&#45;&gt;Node33</title>
<path fill="none" stroke="#191970" d="M2122.004,-56.3733C2142.6435,-47.3435 2173.7158,-33.7494 2196.8889,-23.6111"/>
<polygon fill="#191970" stroke="#191970" points="2198.5245,-26.7159 2206.2831,-19.5011 2195.7187,-20.3028 2198.5245,-26.7159"/>
</g>
<!-- Node34 -->
<g id="node26" class="node">
<title>Node34</title>
<g id="a_node26"><a xlink:href="boxinglib_8hpp.html" target="_top" xlink:title="alib/boxing/boxinglib.hpp">
<polygon fill="#ffffff" stroke="#ff0000" points="2305.5,-.5 2305.5,-19.5 2428.5,-19.5 2428.5,-.5 2305.5,-.5"/>
<text text-anchor="middle" x="2367" y="-7.5" font-family="Helvetica,sans-Serif" font-size="10.00" fill="#000000">alib/boxing/boxinglib.hpp</text>
</a>
</g>
</g>
<!-- Node2&#45;&gt;Node34 -->
<g id="edge25" class="edge">
<title>Node2&#45;&gt;Node34</title>
<path fill="none" stroke="#191970" d="M2134.0869,-58.8507C2178.8599,-49.4601 2258.0498,-32.851 2311.5174,-21.6368"/>
<polygon fill="#191970" stroke="#191970" points="2312.45,-25.0174 2321.5186,-19.5392 2311.0131,-18.1665 2312.45,-25.0174"/>
</g>
<!-- Node43 -->
<g id="node27" class="node">
<title>Node43</title>
<g id="a_node27"><a xlink:href="langlib_8hpp.html" target="_top" xlink:title="alib/lang/langlib.hpp">
<polygon fill="#ffffff" stroke="#000000" points="2447,-.5 2447,-19.5 2549,-19.5 2549,-.5 2447,-.5"/>
<text text-anchor="middle" x="2498" y="-7.5" font-family="Helvetica,sans-Serif" font-size="10.00" fill="#000000">alib/lang/langlib.hpp</text>
</a>
</g>
</g>
<!-- Node2&#45;&gt;Node43 -->
<g id="edge26" class="edge">
<title>Node2&#45;&gt;Node43</title>
<path fill="none" stroke="#191970" d="M2134.1112,-61.7002C2193.4176,-54.1504 2319.6252,-37.7567 2436.7384,-20.1562"/>
<polygon fill="#191970" stroke="#191970" points="2437.5878,-23.5677 2446.9534,-18.6143 2436.543,-16.6461 2437.5878,-23.5677"/>
</g>
<!-- Node44 -->
<g id="node28" class="node">
<title>Node44</title>
<g id="a_node28"><a xlink:href="stringboxing_8hpp.html" target="_top" xlink:title="alib/strings/boxing/stringboxing.hpp">
<polygon fill="#ffffff" stroke="#000000" points="2567,-.5 2567,-19.5 2737,-19.5 2737,-.5 2567,-.5"/>
<text text-anchor="middle" x="2652" y="-7.5" font-family="Helvetica,sans-Serif" font-size="10.00" fill="#000000">alib/strings/boxing/stringboxing.hpp</text>
</a>
</g>
</g>
<!-- Node2&#45;&gt;Node44 -->
<g id="edge27" class="edge">
<title>Node2&#45;&gt;Node44</title>
<path fill="none" stroke="#191970" d="M2134.1924,-62.6352C2208.7692,-55.2814 2391.9,-37.1426 2556.6266,-20.1373"/>
<polygon fill="#191970" stroke="#191970" points="2557.3607,-23.5801 2566.948,-19.0707 2556.6412,-16.6172 2557.3607,-23.5801"/>
</g>
<!-- Node45 -->
<g id="node29" class="node">
<title>Node45</title>
<g id="a_node29"><a xlink:href="report_8hpp.html" target="_top" xlink:title="alib/lang/report.hpp">
<polygon fill="#ffffff" stroke="#ff0000" points="2755.5,-.5 2755.5,-19.5 2854.5,-19.5 2854.5,-.5 2755.5,-.5"/>
<text text-anchor="middle" x="2805" y="-7.5" font-family="Helvetica,sans-Serif" font-size="10.00" fill="#000000">alib/lang/report.hpp</text>
</a>
</g>
</g>
<!-- Node2&#45;&gt;Node45 -->
<g id="edge28" class="edge">
<title>Node2&#45;&gt;Node45</title>
<path fill="none" stroke="#191970" d="M2134.0805,-64.7368C2229.1169,-60.9672 2505.2714,-48.3314 2745.5073,-19.9412"/>
<polygon fill="#191970" stroke="#191970" points="2745.9613,-23.4119 2755.476,-18.7515 2745.1317,-16.4613 2745.9613,-23.4119"/>
</g>
<!-- Node47 -->
<g id="node30" class="node">
<title>Node47</title>
<g id="a_node30"><a xlink:href="enumbitwise_8hpp.html" target="_top" xlink:title="alib/lang/enumbitwise.hpp">
<polygon fill="#ffffff" stroke="#ff0000" points="580.5,-.5 580.5,-19.5 709.5,-19.5 709.5,-.5 580.5,-.5"/>
<text text-anchor="middle" x="645" y="-7.5" font-family="Helvetica,sans-Serif" font-size="10.00" fill="#000000">alib/lang/enumbitwise.hpp</text>
</a>
</g>
</g>
<!-- Node2&#45;&gt;Node47 -->
<g id="edge29" class="edge">
<title>Node2&#45;&gt;Node47</title>
<path fill="none" stroke="#191970" d="M2065.9863,-65.3341C1882.9922,-61.6816 1013.2825,-43.4159 719.7292,-19.9481"/>
<polygon fill="#191970" stroke="#191970" points="719.7845,-16.4409 709.5317,-19.1111 719.2118,-23.4175 719.7845,-16.4409"/>
</g>
<!-- Node49 -->
<g id="node31" class="node">
<title>Node49</title>
<g id="a_node31"><a xlink:href="enummetadata_8hpp.html" target="_top" xlink:title="alib/lang/enummetadata.hpp">
<polygon fill="#ffffff" stroke="#ff0000" points="2872.5,-.5 2872.5,-19.5 3011.5,-19.5 3011.5,-.5 2872.5,-.5"/>
<text text-anchor="middle" x="2942" y="-7.5" font-family="Helvetica,sans-Serif" font-size="10.00" fill="#000000">alib/lang/enummetadata.hpp</text>
</a>
</g>
</g>
<!-- Node2&#45;&gt;Node49 -->
<g id="edge30" class="edge">
<title>Node2&#45;&gt;Node49</title>
<path fill="none" stroke="#191970" d="M2134.33,-64.7583C2240.7801,-60.7333 2574.9176,-46.786 2862.0895,-20.1279"/>
<polygon fill="#191970" stroke="#191970" points="2862.6543,-23.5904 2872.2848,-19.1742 2862.0023,-16.6209 2862.6543,-23.5904"/>
</g>
<!-- Node50 -->
<g id="node32" class="node">
<title>Node50</title>
<g id="a_node32"><a xlink:href="configlib_8hpp.html" target="_top" xlink:title="alib/config/configlib.hpp">
<polygon fill="#ffffff" stroke="#ff0000" points="727.5,-.5 727.5,-19.5 846.5,-19.5 846.5,-.5 727.5,-.5"/>
<text text-anchor="middle" x="787" y="-7.5" font-family="Helvetica,sans-Serif" font-size="10.00" fill="#000000">alib/config/configlib.hpp</text>
</a>
</g>
</g>
<!-- Node2&#45;&gt;Node50 -->
<g id="edge31" class="edge">
<title>Node2&#45;&gt;Node50</title>
<path fill="none" stroke="#191970" d="M2065.9957,-65.2356C1894.3696,-61.3033 1121.4561,-42.6916 857.1126,-19.9774"/>
<polygon fill="#191970" stroke="#191970" points="857.0624,-16.4594 846.7929,-19.0649 856.4457,-23.4322 857.0624,-16.4594"/>
</g>
<!-- Node55 -->
<g id="node33" class="node">
<title>Node55</title>
<g id="a_node33"><a xlink:href="systemlib_8hpp.html" target="_top" xlink:title="alib/system/systemlib.hpp">
<polygon fill="#ffffff" stroke="#ff0000" points="3029.5,-.5 3029.5,-19.5 3160.5,-19.5 3160.5,-.5 3029.5,-.5"/>
<text text-anchor="middle" x="3095" y="-7.5" font-family="Helvetica,sans-Serif" font-size="10.00" fill="#000000">alib/system/systemlib.hpp</text>
</a>
</g>
</g>
<!-- Node2&#45;&gt;Node55 -->
<g id="edge32" class="edge">
<title>Node2&#45;&gt;Node55</title>
<path fill="none" stroke="#191970" d="M2134.3632,-65.3296C2254.625,-62.763 2667.8909,-52.0877 3019.1528,-20.1044"/>
<polygon fill="#191970" stroke="#191970" points="3019.6272,-23.5757 3029.2653,-19.1761 3018.9872,-16.605 3019.6272,-23.5757"/>
</g>
<!-- Node57 -->
<g id="node34" class="node">
<title>Node57</title>
<g id="a_node34"><a xlink:href="applicables_8hpp.html" target="_top" xlink:title="alib/strings/applicables.hpp">
<polygon fill="#ffffff" stroke="#000000" points="3179,-.5 3179,-19.5 3313,-19.5 3313,-.5 3179,-.5"/>
<text text-anchor="middle" x="3246" y="-7.5" font-family="Helvetica,sans-Serif" font-size="10.00" fill="#000000">alib/strings/applicables.hpp</text>
</a>
</g>
</g>
<!-- Node2&#45;&gt;Node57 -->
<g id="edge33" class="edge">
<title>Node2&#45;&gt;Node57</title>
<path fill="none" stroke="#191970" d="M2134.2559,-65.6214C2266.3515,-63.9319 2755.4431,-55.5565 3168.8406,-20.0254"/>
<polygon fill="#191970" stroke="#191970" points="3169.2376,-23.5042 3178.8983,-19.1542 3168.6335,-16.5303 3169.2376,-23.5042"/>
</g>
<!-- Node60&#45;&gt;Node47 -->
<g id="edge34" class="edge">
<title>Node60&#45;&gt;Node47</title>
<path fill="none" stroke="#191970" d="M670.6633,-230.2892C568.8065,-224.1195 388.6083,-210.1897 369,-188 346.6332,-162.6887 349.6941,-139.7168 369,-112 395.1429,-74.4674 519.7655,-39.5329 592.2982,-21.9274"/>
<polygon fill="#191970" stroke="#191970" points="593.2634,-25.2953 602.1715,-19.5598 591.631,-18.4883 593.2634,-25.2953"/>
</g>
<!-- Node61 -->
<g id="node35" class="node">
<title>Node61</title>
<g id="a_node35"><a xlink:href="threadlock_8hpp.html" target="_top" xlink:title="alib/threads/threadlock.hpp">
<polygon fill="#ffffff" stroke="#ff0000" points="635,-112.5 635,-131.5 769,-131.5 769,-112.5 635,-112.5"/>
<text text-anchor="middle" x="702" y="-119.5" font-family="Helvetica,sans-Serif" font-size="10.00" fill="#000000">alib/threads/threadlock.hpp</text>
</a>
</g>
</g>
<!-- Node60&#45;&gt;Node61 -->
<g id="edge35" class="edge">
<title>Node60&#45;&gt;Node61</title>
<path fill="none" stroke="#191970" d="M737.6204,-224.4967C734.305,-211.5779 727.9193,-187.8122 721,-168 717.8751,-159.0524 713.94,-149.3274 710.4626,-141.1339"/>
<polygon fill="#191970" stroke="#191970" points="713.5838,-139.5339 706.3981,-131.7482 707.1603,-142.3156 713.5838,-139.5339"/>
</g>
<!-- Node68 -->
<g id="node36" class="node">
<title>Node68</title>
<g id="a_node36"><a xlink:href="substring_8hpp.html" target="_top" xlink:title="alib/strings/substring.hpp">
<polygon fill="#ffffff" stroke="#000000" points="582.5,-56.5 582.5,-75.5 707.5,-75.5 707.5,-56.5 582.5,-56.5"/>
<text text-anchor="middle" x="645" y="-63.5" font-family="Helvetica,sans-Serif" font-size="10.00" fill="#000000">alib/strings/substring.hpp</text>
</a>
</g>
</g>
<!-- Node60&#45;&gt;Node68 -->
<g id="edge36" class="edge">
<title>Node60&#45;&gt;Node68</title>
<path fill="none" stroke="#191970" d="M670.9889,-225.5178C625.2739,-218.3177 571.2014,-206.2129 557,-188 527.7384,-150.4728 584.7168,-104.5584 619.9916,-81.2093"/>
<polygon fill="#191970" stroke="#191970" points="622.333,-83.8649 628.8513,-75.5124 618.5471,-77.977 622.333,-83.8649"/>
</g>
<!-- Node69 -->
<g id="node37" class="node">
<title>Node69</title>
<g id="a_node37"><a xlink:href="numberformat_8hpp.html" target="_top" xlink:title="alib/strings/numberformat.hpp">
<polygon fill="#ffffff" stroke="#000000" points="566,-168.5 566,-187.5 712,-187.5 712,-168.5 566,-168.5"/>
<text text-anchor="middle" x="639" y="-175.5" font-family="Helvetica,sans-Serif" font-size="10.00" fill="#000000">alib/strings/numberformat.hpp</text>
</a>
</g>
</g>
<!-- Node60&#45;&gt;Node69 -->
<g id="edge37" class="edge">
<title>Node60&#45;&gt;Node69</title>
<path fill="none" stroke="#191970" d="M722.4071,-224.2455C706.621,-215.4928 683.2361,-202.527 665.2413,-192.5496"/>
<polygon fill="#191970" stroke="#191970" points="666.8341,-189.4308 656.3913,-187.6427 663.4397,-195.5528 666.8341,-189.4308"/>
</g>
<!-- Node70 -->
<g id="node38" class="node">
<title>Node70</title>
<g id="a_node38"><a xlink:href="variable_8hpp.html" target="_top" xlink:title="alib/config/variable.hpp">
<polygon fill="#ffffff" stroke="#000000" points="872,-56.5 872,-75.5 988,-75.5 988,-56.5 872,-56.5"/>
<text text-anchor="middle" x="930" y="-63.5" font-family="Helvetica,sans-Serif" font-size="10.00" fill="#000000">alib/config/variable.hpp</text>
</a>
</g>
</g>
<!-- Node60&#45;&gt;Node70 -->
<g id="edge38" class="edge">
<title>Node60&#45;&gt;Node70</title>
<path fill="none" stroke="#191970" d="M809.3187,-225.082C812.2514,-224.7145 815.1547,-224.3525 818,-224 884.8544,-215.7167 1074.2831,-238.3838 1119,-188 1165.6103,-135.4829 1053.5256,-96.5566 982.6642,-78.0351"/>
<polygon fill="#191970" stroke="#191970" points="983.5147,-74.6401 972.9597,-75.5578 981.7833,-81.4226 983.5147,-74.6401"/>
</g>
<!-- Node71 -->
<g id="node39" class="node">
<title>Node71</title>
<g id="a_node39"><a xlink:href="plugins_8hpp.html" target="_top" xlink:title="alib/config/plugins.hpp">
<polygon fill="#ffffff" stroke="#000000" points="873.5,-112.5 873.5,-131.5 986.5,-131.5 986.5,-112.5 873.5,-112.5"/>
<text text-anchor="middle" x="930" y="-119.5" font-family="Helvetica,sans-Serif" font-size="10.00" fill="#000000">alib/config/plugins.hpp</text>
</a>
</g>
</g>
<!-- Node60&#45;&gt;Node71 -->
<g id="edge39" class="edge">
<title>Node60&#45;&gt;Node71</title>
<path fill="none" stroke="#191970" d="M799.1585,-224.4492C841.9898,-216.392 895.0473,-203.6757 911,-188 923.3347,-175.8795 927.7916,-156.3092 929.3378,-141.6203"/>
<polygon fill="#191970" stroke="#191970" points="932.8364,-141.7612 930.0352,-131.5434 925.8531,-141.2779 932.8364,-141.7612"/>
</g>
<!-- Node72 -->
<g id="node40" class="node">
<title>Node72</title>
<g id="a_node40"><a xlink:href="plugincontainer_8hpp.html" target="_top" xlink:title="alib/util/plugincontainer.hpp">
<polygon fill="#ffffff" stroke="#ff0000" points="768,-168.5 768,-187.5 902,-187.5 902,-168.5 768,-168.5"/>
<text text-anchor="middle" x="835" y="-175.5" font-family="Helvetica,sans-Serif" font-size="10.00" fill="#000000">alib/util/plugincontainer.hpp</text>
</a>
</g>
</g>
<!-- Node60&#45;&gt;Node72 -->
<g id="edge40" class="edge">
<title>Node60&#45;&gt;Node72</title>
<path fill="none" stroke="#191970" d="M756.5477,-224.2455C771.2599,-215.5731 792.9888,-202.7645 809.8505,-192.825"/>
<polygon fill="#191970" stroke="#191970" points="811.8046,-195.736 818.6419,-187.6427 808.2498,-189.7057 811.8046,-195.736"/>
</g>
<!-- Node74 -->
<g id="node41" class="node">
<title>Node74</title>
<g id="a_node41"><a xlink:href="inmemoryplugin_8hpp.html" target="_top" xlink:title="alib/config/inmemoryplugin.hpp">
<polygon fill="#ffffff" stroke="#ff0000" points="958.5,-168.5 958.5,-187.5 1109.5,-187.5 1109.5,-168.5 958.5,-168.5"/>
<text text-anchor="middle" x="1034" y="-175.5" font-family="Helvetica,sans-Serif" font-size="10.00" fill="#000000">alib/config/inmemoryplugin.hpp</text>
</a>
</g>
</g>
<!-- Node60&#45;&gt;Node74 -->
<g id="edge41" class="edge">
<title>Node60&#45;&gt;Node74</title>
<path fill="none" stroke="#191970" d="M790.2063,-224.4369C841.0507,-214.7522 919.706,-199.7703 973.8513,-189.4569"/>
<polygon fill="#191970" stroke="#191970" points="974.8323,-192.8331 984.0007,-187.5237 973.5224,-185.9567 974.8323,-192.8331"/>
</g>
<!-- Node76&#45;&gt;Node1 -->
<g id="edge50" class="edge">
<title>Node76&#45;&gt;Node1</title>
<path fill="none" stroke="#191970" d="M765.7524,-299.5411C765.1644,-299.6973 764.5797,-299.8504 764,-300 707.4746,-314.5842 641.7556,-328.1599 596.0815,-336.7272"/>
<polygon fill="#191970" stroke="#191970" points="595.269,-333.3182 586.0751,-338.5834 596.5458,-340.2007 595.269,-333.3182"/>
</g>
<!-- Node77&#45;&gt;Node1 -->
<g id="edge51" class="edge">
<title>Node77&#45;&gt;Node1</title>
<path fill="none" stroke="#191970" d="M303.1883,-295.0887C309.1415,-296.7664 315.3109,-298.5676 321,-300 376.0383,-313.8578 439.3682,-326.3649 483.8052,-334.8272"/>
<polygon fill="#191970" stroke="#191970" points="483.3554,-338.3042 493.8326,-336.7298 484.6604,-331.4269 483.3554,-338.3042"/>
</g>
<!-- Node77&#45;&gt;Node60 -->
<g id="edge52" class="edge">
<title>Node77&#45;&gt;Node60</title>
<path fill="none" stroke="#191970" d="M303.0173,-282.1543C306.0206,-281.3416 309.0668,-280.5966 312,-280 432.2847,-255.5357 574.4032,-243.5281 660.8252,-238.0635"/>
<polygon fill="#191970" stroke="#191970" points="661.0591,-241.5559 670.8238,-237.4449 660.6267,-234.5692 661.0591,-241.5559"/>
</g>
<!-- Node78 -->
<g id="node42" class="node">
<title>Node78</title>
<g id="a_node42"><a xlink:href="smartlock_8hpp.html" target="_top" xlink:title="alib/threads/smartlock.hpp">
<polygon fill="#ffffff" stroke="#ff0000" points="378.5,-168.5 378.5,-187.5 509.5,-187.5 509.5,-168.5 378.5,-168.5"/>
<text text-anchor="middle" x="444" y="-175.5" font-family="Helvetica,sans-Serif" font-size="10.00" fill="#000000">alib/threads/smartlock.hpp</text>
</a>
</g>
</g>
<!-- Node77&#45;&gt;Node78 -->
<g id="edge53" class="edge">
<title>Node77&#45;&gt;Node78</title>
<path fill="none" stroke="#191970" d="M293.0678,-280.4509C321.6838,-261.0268 386.883,-216.7703 421.4753,-193.2895"/>
<polygon fill="#191970" stroke="#191970" points="423.6596,-196.037 429.9678,-187.5249 419.7282,-190.2453 423.6596,-196.037"/>
</g>
<!-- Node79 -->
<g id="node43" class="node">
<title>Node79</title>
<g id="a_node43"><a xlink:href="tokenizer_8hpp.html" target="_top" xlink:title="alib/strings/util/tokenizer.hpp">
<polygon fill="#ffffff" stroke="#000000" points="378,-112.5 378,-131.5 518,-131.5 518,-112.5 378,-112.5"/>
<text text-anchor="middle" x="448" y="-119.5" font-family="Helvetica,sans-Serif" font-size="10.00" fill="#000000">alib/strings/util/tokenizer.hpp</text>
</a>
</g>
</g>
<!-- Node77&#45;&gt;Node79 -->
<g id="edge54" class="edge">
<title>Node77&#45;&gt;Node79</title>
<path fill="none" stroke="#191970" d="M284.2247,-280.4181C296.5973,-258.3899 329.6216,-203.3291 369,-168 383.2831,-155.1856 401.6963,-144.2148 417.1523,-136.2045"/>
<polygon fill="#191970" stroke="#191970" points="418.9553,-139.216 426.3304,-131.6095 415.8216,-132.9566 418.9553,-139.216"/>
</g>
<!-- Node80 -->
<g id="node44" class="node">
<title>Node80</title>
<g id="a_node44"><a xlink:href="scopeinfo_8hpp.html" target="_top" xlink:title="alib/alox/core/scopeinfo.hpp">
<polygon fill="#ffffff" stroke="#ff0000" points="0,-224.5 0,-243.5 138,-243.5 138,-224.5 0,-224.5"/>
<text text-anchor="middle" x="69" y="-231.5" font-family="Helvetica,sans-Serif" font-size="10.00" fill="#000000">alib/alox/core/scopeinfo.hpp</text>
</a>
</g>
</g>
<!-- Node77&#45;&gt;Node80 -->
<g id="edge55" class="edge">
<title>Node77&#45;&gt;Node80</title>
<path fill="none" stroke="#191970" d="M254.9103,-283.5761C220.7277,-274.4607 157.5166,-257.6044 114.3818,-246.1018"/>
<polygon fill="#191970" stroke="#191970" points="115.2547,-242.7124 104.6905,-243.5175 113.451,-249.476 115.2547,-242.7124"/>
</g>
<!-- Node77&#45;&gt;Node89 -->
<g id="edge56" class="edge">
<title>Node77&#45;&gt;Node89</title>
<path fill="none" stroke="#191970" d="M303.3584,-281.9564C306.2481,-281.1996 309.1743,-280.5219 312,-280 530.4602,-239.6529 592.0234,-267.1255 816.8139,-244.0447"/>
<polygon fill="#191970" stroke="#191970" points="817.3683,-247.5058 826.9485,-242.9814 816.6378,-240.5441 817.3683,-247.5058"/>
</g>
<!-- Node90 -->
<g id="node46" class="node">
<title>Node90</title>
<g id="a_node46"><a xlink:href="domain_8hpp.html" target="_top" xlink:title="alib/alox/core/domain.hpp">
<polygon fill="#ffffff" stroke="#ff0000" points="156,-224.5 156,-243.5 284,-243.5 284,-224.5 156,-224.5"/>
<text text-anchor="middle" x="220" y="-231.5" font-family="Helvetica,sans-Serif" font-size="10.00" fill="#000000">alib/alox/core/domain.hpp</text>
</a>
</g>
</g>
<!-- Node77&#45;&gt;Node90 -->
<g id="edge57" class="edge">
<title>Node77&#45;&gt;Node90</title>
<path fill="none" stroke="#191970" d="M268.723,-280.2455C260.1782,-272.1352 247.8222,-260.4075 237.6915,-250.7919"/>
<polygon fill="#191970" stroke="#191970" points="239.8218,-247.9884 230.1592,-243.6427 235.0028,-253.0655 239.8218,-247.9884"/>
</g>
<!-- Node68&#45;&gt;Node47 -->
<g id="edge42" class="edge">
<title>Node68&#45;&gt;Node47</title>
<path fill="none" stroke="#191970" d="M645,-56.2455C645,-48.9382 645,-38.6944 645,-29.7046"/>
<polygon fill="#191970" stroke="#191970" points="648.5001,-29.6426 645,-19.6427 641.5001,-29.6427 648.5001,-29.6426"/>
</g>
<!-- Node70&#45;&gt;Node50 -->
<g id="edge43" class="edge">
<title>Node70&#45;&gt;Node50</title>
<path fill="none" stroke="#191970" d="M905.4174,-56.3733C882.0504,-47.2226 846.7138,-33.3844 820.7216,-23.2057"/>
<polygon fill="#191970" stroke="#191970" points="821.8495,-19.8886 811.2618,-19.5011 819.297,-26.4066 821.8495,-19.8886"/>
</g>
<!-- Node71&#45;&gt;Node68 -->
<g id="edge44" class="edge">
<title>Node71&#45;&gt;Node68</title>
<path fill="none" stroke="#191970" d="M881.3306,-112.4369C832.0427,-102.7522 755.7952,-87.7703 703.3074,-77.4569"/>
<polygon fill="#191970" stroke="#191970" points="703.9559,-74.0175 693.4687,-75.5237 702.6062,-80.8861 703.9559,-74.0175"/>
</g>
<!-- Node71&#45;&gt;Node70 -->
<g id="edge45" class="edge">
<title>Node71&#45;&gt;Node70</title>
<path fill="none" stroke="#191970" d="M930,-112.2455C930,-104.9382 930,-94.6944 930,-85.7046"/>
<polygon fill="#191970" stroke="#191970" points="933.5001,-85.6426 930,-75.6427 926.5001,-85.6427 933.5001,-85.6426"/>
</g>
<!-- Node72&#45;&gt;Node47 -->
<g id="edge46" class="edge">
<title>Node72&#45;&gt;Node47</title>
<path fill="none" stroke="#191970" d="M831.8921,-168.102C827.1787,-154.3005 817.1378,-129.0539 802,-112 766.1035,-71.5597 710.5609,-40.605 676.0648,-23.8853"/>
<polygon fill="#191970" stroke="#191970" points="677.4622,-20.6744 666.9271,-19.5509 674.4622,-26.9989 677.4622,-20.6744"/>
</g>
<!-- Node72&#45;&gt;Node61 -->
<g id="edge47" class="edge">
<title>Node72&#45;&gt;Node61</title>
<path fill="none" stroke="#191970" d="M812.1365,-168.3733C790.595,-159.3032 758.1162,-145.6279 734.0044,-135.4755"/>
<polygon fill="#191970" stroke="#191970" points="735.1397,-132.156 724.5652,-131.5011 732.4233,-138.6075 735.1397,-132.156"/>
</g>
<!-- Node72&#45;&gt;Node68 -->
<g id="edge48" class="edge">
<title>Node72&#45;&gt;Node68</title>
<path fill="none" stroke="#191970" d="M828.8762,-168.0461C819.5737,-153.7085 800.5579,-127.2911 778,-112 754.79,-96.2668 725.6604,-85.3952 700.5835,-78.1883"/>
<polygon fill="#191970" stroke="#191970" points="701.4047,-74.7843 690.8347,-75.5092 699.5497,-81.534 701.4047,-74.7843"/>
</g>
<!-- Node74&#45;&gt;Node71 -->
<g id="edge49" class="edge">
<title>Node74&#45;&gt;Node71</title>
<path fill="none" stroke="#191970" d="M1015.8846,-168.2455C999.555,-159.4527 975.329,-146.4079 956.7661,-136.4125"/>
<polygon fill="#191970" stroke="#191970" points="958.3719,-133.3021 947.9078,-131.6427 955.0532,-139.4654 958.3719,-133.3021"/>
</g>
<!-- Node78&#45;&gt;Node61 -->
<g id="edge58" class="edge">
<title>Node78&#45;&gt;Node61</title>
<path fill="none" stroke="#191970" d="M488.0586,-168.4369C532.3989,-158.8127 600.8411,-143.957 648.3249,-133.6504"/>
<polygon fill="#191970" stroke="#191970" points="649.0931,-137.0653 658.1231,-131.5237 647.6082,-130.2245 649.0931,-137.0653"/>
</g>
<!-- Node79&#45;&gt;Node68 -->
<g id="edge59" class="edge">
<title>Node79&#45;&gt;Node68</title>
<path fill="none" stroke="#191970" d="M481.8655,-112.3733C515.049,-102.9404 565.755,-88.5265 601.8194,-78.2747"/>
<polygon fill="#191970" stroke="#191970" points="602.9145,-81.6021 611.5764,-75.5011 601.0005,-74.8689 602.9145,-81.6021"/>
</g>
<!-- Node80&#45;&gt;Node1 -->
<g id="edge60" class="edge">
<title>Node80&#45;&gt;Node1</title>
<path fill="none" stroke="#191970" d="M88.0342,-243.7202C117.3273,-258.256 175.5736,-285.4953 228,-300 315.4773,-324.2021 420.4897,-336.3488 483.6472,-341.9046"/>
<polygon fill="#191970" stroke="#191970" points="483.534,-345.4076 493.7958,-342.7721 484.1303,-338.433 483.534,-345.4076"/>
</g>
<!-- Node89&#45;&gt;Node1 -->
<g id="edge61" class="edge">
<title>Node89&#45;&gt;Node1</title>
<path fill="none" stroke="#191970" d="M883.6211,-243.5275C876.2758,-258.3238 859.9851,-286.5236 837,-300 745.9434,-353.3874 704.7268,-320.345 596.2076,-335.9409"/>
<polygon fill="#191970" stroke="#191970" points="595.5422,-332.5021 586.1948,-337.4896 596.6123,-339.4199 595.5422,-332.5021"/>
</g>
<!-- Node90&#45;&gt;Node1 -->
<g id="edge62" class="edge">
<title>Node90&#45;&gt;Node1</title>
<path fill="none" stroke="#191970" d="M220.8763,-243.8435C222.7452,-258.5403 228.5064,-285.9872 246,-300 281.7183,-328.6112 408.8081,-339.6526 483.6935,-343.7397"/>
<polygon fill="#191970" stroke="#191970" points="483.7301,-347.2463 493.8987,-344.2714 484.0944,-340.2557 483.7301,-347.2463"/>
</g>
</g>
</svg>
